<svg width="309" height="335" viewBox="0 0 309 335" fill="none" xmlns="http://www.w3.org/2000/svg">
<path d="M308.33 57.32C211.91 21.88 108.11 1.97 0 0V297.59C70.27 299.44 137.76 312.46 200.76 334.94L308.33 57.32Z" fill="#E60039"/>
<path d="M93.6896 67.2793V87.9693H89.6296L87.2196 78.5593V87.9693H83.3496V67.2793H87.2196L89.8096 76.5993V67.2793H93.6796H93.6896Z" fill="white"/>
<path d="M105.989 79.3896C105.989 81.4696 105.949 82.9396 105.859 83.8096C105.779 84.6696 105.509 85.4596 105.069 86.1796C104.629 86.8996 104.029 87.4396 103.269 87.8296C102.509 88.2096 101.639 88.4096 100.629 88.4096C99.6194 88.4096 98.8193 88.2296 98.0593 87.8696C97.2993 87.5096 96.6894 86.9596 96.2294 86.2396C95.7694 85.5196 95.4893 84.7296 95.4093 83.8796C95.3193 83.0296 95.2793 81.5396 95.2793 79.4096V75.8696C95.2793 73.7896 95.3193 72.3196 95.4093 71.4496C95.4893 70.5896 95.7593 69.7996 96.1993 69.0796C96.6393 68.3596 97.2394 67.8096 97.9994 67.4296C98.7494 67.0496 99.6294 66.8496 100.639 66.8496C101.649 66.8496 102.449 67.0296 103.209 67.3896C103.969 67.7496 104.579 68.2996 105.039 69.0196C105.499 69.7396 105.779 70.5296 105.859 71.3796C105.949 72.2296 105.989 73.7196 105.989 75.8496V79.3896ZM101.359 72.5996C101.359 71.6396 101.309 71.0196 101.219 70.7496C101.129 70.4796 100.939 70.3496 100.649 70.3496C100.409 70.3496 100.219 70.4596 100.099 70.6796C99.9694 70.8996 99.9093 71.5396 99.9093 72.5996V82.2596C99.9093 83.4596 99.9493 84.1996 100.039 84.4796C100.119 84.7596 100.319 84.8996 100.629 84.8996C100.939 84.8996 101.149 84.7396 101.229 84.4096C101.319 84.0896 101.359 83.3196 101.359 82.0996V72.5896V72.5996Z" fill="white"/>
<path d="M83.3594 95.1094H88.0194C89.2794 95.1094 90.2493 95.2194 90.9293 95.4494C91.6093 95.6794 92.1194 96.0094 92.4594 96.4494C92.7994 96.8794 93.0293 97.4094 93.1493 98.0294C93.2693 98.6494 93.3293 99.5994 93.3293 100.899V102.699C93.3293 104.019 93.2094 104.979 92.9794 105.589C92.7494 106.199 92.3093 106.659 91.6893 106.979C91.0593 107.299 90.2394 107.469 89.2294 107.469H87.9894V115.799H83.3594V95.1094ZM87.9894 98.6494V103.919C88.1194 103.919 88.2393 103.929 88.3293 103.929C88.7493 103.929 89.0494 103.809 89.2094 103.569C89.3694 103.329 89.4594 102.819 89.4594 102.059V100.359C89.4594 99.6494 89.3593 99.1894 89.1693 98.9794C88.9793 98.7694 88.5794 98.6594 87.9794 98.6594L87.9894 98.6494Z" fill="white"/>
<path d="M105.1 107.22C105.1 109.3 105.06 110.77 104.97 111.64C104.89 112.5 104.62 113.29 104.18 114.01C103.74 114.73 103.14 115.27 102.38 115.66C101.62 116.04 100.75 116.24 99.7396 116.24C98.7296 116.24 97.9296 116.06 97.1696 115.7C96.4096 115.34 95.7996 114.79 95.3396 114.07C94.8796 113.35 94.5997 112.56 94.5197 111.71C94.4297 110.86 94.3896 109.37 94.3896 107.24V103.7C94.3896 101.62 94.4297 100.15 94.5197 99.2797C94.5997 98.4197 94.8696 97.6297 95.3096 96.9097C95.7496 96.1897 96.3496 95.6397 97.1096 95.2597C97.8596 94.8797 98.7396 94.6797 99.7496 94.6797C100.76 94.6797 101.56 94.8597 102.32 95.2197C103.08 95.5797 103.69 96.1297 104.15 96.8497C104.61 97.5697 104.89 98.3597 104.97 99.2097C105.06 100.06 105.1 101.55 105.1 103.68V107.22ZM100.47 100.42C100.47 99.4597 100.42 98.8397 100.33 98.5697C100.24 98.2997 100.05 98.1697 99.7596 98.1697C99.5196 98.1697 99.3296 98.2797 99.2096 98.4997C99.0796 98.7197 99.0197 99.3597 99.0197 100.42V110.08C99.0197 111.28 99.0595 112.02 99.1495 112.3C99.2295 112.58 99.4296 112.72 99.7396 112.72C100.05 112.72 100.26 112.56 100.34 112.23C100.43 111.91 100.47 111.14 100.47 109.92V100.41V100.42Z" fill="white"/>
<path d="M117.69 95.1094L115.34 115.799H108.31L105.64 95.1094H110.52C111.09 100.809 111.49 105.629 111.73 109.579C111.97 105.589 112.22 102.049 112.49 98.9594L112.81 95.1094H117.69Z" fill="white"/>
<path d="M118.34 95.1094H126.06V99.2494H122.97V103.169H125.86V107.109H122.97V111.659H126.37V115.799H118.35V95.1094H118.34Z" fill="white"/>
<path d="M127.55 95.1096H130.83C133.01 95.1096 134.49 95.2096 135.27 95.3996C136.04 95.5996 136.67 96.0996 137.16 96.8996C137.65 97.7096 137.89 98.9896 137.89 100.75C137.89 102.36 137.72 103.44 137.37 104C137.03 104.55 136.35 104.89 135.34 105C136.26 105.26 136.87 105.62 137.19 106.06C137.51 106.5 137.7 106.91 137.78 107.28C137.86 107.65 137.9 108.67 137.9 110.34V115.8H133.6V108.92C133.6 107.81 133.52 107.13 133.37 106.86C133.22 106.6 132.83 106.46 132.19 106.46V115.79H127.56V95.0996L127.55 95.1096ZM132.18 98.6496V103.25C132.7 103.25 133.06 103.17 133.27 103C133.48 102.83 133.58 102.29 133.58 101.38V100.24C133.58 99.5796 133.48 99.1496 133.28 98.9496C133.08 98.7496 132.71 98.6396 132.18 98.6396V98.6496Z" fill="white"/>
<path d="M148.859 95.1094V99.2494H146.109V115.799H141.479V99.2494H138.739V95.1094H148.849H148.859Z" fill="white"/>
<path d="M160.199 95.1094L156.829 108.309V115.799H152.539V108.309L149.289 95.1094H153.539C154.199 99.1494 154.579 101.869 154.659 103.259C154.919 101.049 155.349 98.3294 155.949 95.1094H160.199Z" fill="white"/>
<path d="M57.8798 67.709V115.779H48.2399V90.009C48.2399 86.289 48.1698 84.049 48.0298 83.299C47.8898 82.549 47.4899 81.979 46.8499 81.589C46.2099 81.199 44.7699 81.009 42.5399 81.009H41.5898V75.409C46.2498 74.159 49.7898 71.599 52.2098 67.709H57.8898H57.8798Z" fill="white"/>
<path d="M64.1597 167.45C67.9697 167.45 71.0598 164.36 71.0598 160.55C71.0598 156.74 67.9697 153.65 64.1597 153.65C60.3497 153.65 57.2598 156.74 57.2598 160.55C57.2598 164.36 60.3497 167.45 64.1597 167.45Z" fill="white"/>
<path d="M208.13 167.45C211.94 167.45 215.03 164.36 215.03 160.55C215.03 156.74 211.94 153.65 208.13 153.65C204.32 153.65 201.23 156.74 201.23 160.55C201.23 164.36 204.32 167.45 208.13 167.45Z" fill="white"/>
<path d="M183.79 199.29C186.949 199.29 189.51 196.729 189.51 193.57C189.51 190.411 186.949 187.85 183.79 187.85C180.631 187.85 178.07 190.411 178.07 193.57C178.07 196.729 180.631 199.29 183.79 199.29Z" fill="white"/>
<path d="M90.7903 199.29C93.9494 199.29 96.5104 196.729 96.5104 193.57C96.5104 190.411 93.9494 187.85 90.7903 187.85C87.6312 187.85 85.0703 190.411 85.0703 193.57C85.0703 196.729 87.6312 199.29 90.7903 199.29Z" fill="white"/>
<path d="M119.68 171.011C123.49 171.011 126.58 167.921 126.58 164.111C126.58 160.301 123.49 157.211 119.68 157.211C115.87 157.211 112.78 160.301 112.78 164.111C112.78 167.921 115.87 171.011 119.68 171.011Z" fill="white"/>
<path d="M157.08 171.011C160.89 171.011 163.98 167.921 163.98 164.111C163.98 160.301 160.89 157.211 157.08 157.211C153.27 157.211 150.18 160.301 150.18 164.111C150.18 167.921 153.27 171.011 157.08 171.011Z" fill="white"/>
<path d="M172.221 202.39C173.811 201.93 174.79 199.99 174.4 198.05L170.84 179.13C170.15 175.49 167.49 172.9 164.42 172.9H148.33C145.29 172.9 142.64 175.43 141.93 179.03L138.18 197.93C137.8 199.86 138.781 201.8 140.361 202.27L141.08 202.48C142.67 202.94 144.261 201.75 144.641 199.82L147.78 183.9H148.81L144.19 208.68H148.3V229.33C148.3 231.14 149.77 232.61 151.58 232.61H152.4C154.21 232.61 155.68 231.14 155.68 229.33V208.68H157.06V229.27C157.06 231.11 158.551 232.6 160.391 232.6H161.231C163.071 232.6 164.56 231.11 164.56 229.27V208.68H168.42L163.8 183.9H164.751L167.91 199.93C168.29 201.86 169.891 203.05 171.471 202.59L172.19 202.38L172.221 202.39Z" fill="white"/>
<path d="M134.23 179.131C133.54 175.491 130.88 172.901 127.81 172.901H111.72C108.68 172.901 106.03 175.431 105.32 179.031L102.24 194.581C101.98 194.431 101.7 194.321 101.42 194.281C100.53 194.141 99.6001 194.531 99.0801 195.351L95.0002 201.841C92.6502 201.841 89.0801 201.841 86.6901 201.841L82.4301 195.051C81.9201 194.241 80.9902 193.851 80.0902 193.981V177.731C80.0902 173.161 76.3801 169.451 71.8101 169.451H56.5101C51.9401 169.451 48.2302 173.161 48.2302 177.731V197.161C48.2302 198.201 48.7001 199.111 49.4301 199.731L43.5101 230.931C43.3601 231.721 43.8801 232.491 44.6801 232.641C44.7701 232.661 44.8601 232.671 44.9501 232.671C45.6401 232.671 46.2501 232.181 46.3901 231.481L52.2701 200.481C53.8301 200.181 55.0101 198.801 55.0101 197.151L54.9902 179.381H55.9802L56.0001 200.541H56.0201V229.481C56.0201 231.291 57.4902 232.761 59.3002 232.761H60.1202C61.9302 232.761 63.4001 231.291 63.4001 229.481V200.541H64.7801V229.421C64.7801 231.261 66.2702 232.761 68.1102 232.761H68.9501C70.7901 232.761 72.2801 231.271 72.2801 229.421V200.541L72.3001 179.541H73.2901V197.141C73.2901 199.011 74.8101 200.531 76.6901 200.531C77.8401 200.531 78.8402 199.961 79.4602 199.091L84.1901 206.631V212.681L81.2402 220.381C81.1402 220.651 81.3402 220.941 81.6302 220.941H84.1901V230.091C84.1901 231.561 85.3802 232.751 86.8502 232.751H87.5202C88.9902 232.751 90.1801 231.561 90.1801 230.091V220.941H91.3001V230.041C91.3001 231.541 92.5102 232.751 94.0102 232.751H94.6901C96.0601 232.751 97.1802 231.731 97.3602 230.421V220.941H99.6901C99.9701 220.941 100.17 220.671 100.09 220.401L97.3602 211.661V206.801L101.65 199.971C101.98 201.061 102.74 201.941 103.74 202.241L104.46 202.451C106.05 202.911 107.64 201.721 108.02 199.791L111.16 183.871H112.19L107.57 208.651H111.68V229.301C111.68 231.111 113.15 232.581 114.96 232.581H115.78C117.59 232.581 119.06 231.111 119.06 229.301V208.651H120.44V229.241C120.44 231.081 121.93 232.571 123.77 232.571H124.61C126.45 232.571 127.94 231.081 127.94 229.241V208.651H131.8L127.18 183.871H128.13L131.29 199.901C131.67 201.831 133.27 203.021 134.85 202.561L135.57 202.351C137.16 201.891 138.14 199.951 137.76 198.011L134.2 179.091L134.23 179.131Z" fill="white"/>
<path d="M215.82 169.471H200.52C195.95 169.471 192.24 173.181 192.24 177.751V197.181C192.24 199.051 193.76 200.571 195.63 200.571C197.5 200.571 199.02 199.051 199.02 197.181L199 179.411H199.99L200.01 200.571H200.03V229.511C200.03 231.321 201.5 232.791 203.31 232.791H204.13C205.94 232.791 207.41 231.321 207.41 229.511V200.571H208.79V229.451C208.79 231.291 210.28 232.791 212.12 232.791H212.95C214.79 232.791 216.28 231.301 216.28 229.451V200.571L216.3 179.571H217.29V197.171C217.29 199.041 218.81 200.561 220.69 200.561C222.57 200.561 224.08 199.041 224.08 197.171V177.741C224.08 173.171 220.37 169.461 215.8 169.461L215.82 169.471Z" fill="white"/>
<path d="M191.43 201.961C191.01 201.001 189.99 200.491 189.01 200.681C188.94 200.681 188.88 200.641 188.81 200.641C186.3 200.641 181.8 200.641 179.29 200.641C179.2 200.641 179.11 200.681 179.02 200.691C178.86 200.651 178.7 200.631 178.54 200.631C177.69 200.631 176.88 201.131 176.52 201.961L171.26 214.131C170.78 215.241 171.29 216.541 172.41 217.021C173.53 217.501 174.82 216.991 175.3 215.881L177.46 210.891V230.131C177.46 231.601 178.65 232.791 180.12 232.791H180.79C182.26 232.791 183.45 231.601 183.45 230.131V219.751H184.57V230.081C184.57 231.581 185.78 232.791 187.28 232.791H187.96C189.33 232.791 190.45 231.771 190.63 230.461V211.191L192.65 215.871C193.01 216.701 193.82 217.201 194.67 217.201C194.96 217.201 195.26 217.141 195.54 217.021C196.65 216.541 197.17 215.251 196.69 214.131L191.43 201.961Z" fill="white"/>
</svg>
