<svg width="347" height="367" viewBox="0 0 347 367" fill="none" xmlns="http://www.w3.org/2000/svg">
<path d="M0 252.41C89.06 305.58 187.46 344.66 292.2 366.27L347.01 73.98C278.94 59.38 214.82 34.1 156.51 0L0.00997925 252.41H0Z" fill="#D02065"/>
<path d="M118.971 117.969V166.039H109.331V140.269C109.331 136.549 109.261 134.309 109.121 133.559C108.981 132.809 108.581 132.239 107.941 131.849C107.301 131.459 105.861 131.269 103.631 131.269H102.681V125.669C107.341 124.419 110.881 121.859 113.301 117.969H118.981H118.971Z" fill="white"/>
<path d="M145.161 134.249V150.279C145.161 153.919 145.001 156.569 144.681 158.239C144.361 159.899 143.701 161.459 142.701 162.899C141.701 164.349 140.491 165.379 139.071 166.019C137.651 166.649 136.071 166.969 134.321 166.969C132.011 166.969 130.101 166.639 128.571 165.979C127.041 165.319 125.831 164.279 124.921 162.879C124.011 161.469 123.371 159.989 122.991 158.439C122.611 156.889 122.421 154.419 122.421 151.029V134.249C122.421 129.839 122.731 126.529 123.341 124.329C123.951 122.129 125.171 120.369 126.991 119.039C128.811 117.709 131.021 117.049 133.611 117.049C135.731 117.049 137.621 117.509 139.291 118.429C140.961 119.349 142.211 120.469 143.041 121.799C143.871 123.129 144.431 124.619 144.721 126.279C145.011 127.939 145.161 130.599 145.161 134.239V134.249ZM135.521 130.209C135.521 127.659 135.421 126.059 135.221 125.409C135.021 124.769 134.561 124.449 133.821 124.449C133.081 124.449 132.631 124.789 132.401 125.469C132.171 126.149 132.051 127.729 132.051 130.209V153.669C132.051 156.459 132.161 158.139 132.371 158.719C132.581 159.289 133.051 159.579 133.771 159.579C134.491 159.579 134.961 159.239 135.181 158.569C135.401 157.899 135.511 156.379 135.511 154.029V130.219L135.521 130.209Z" fill="white"/>
<path d="M161.181 117.539H164.461C166.641 117.539 168.121 117.639 168.901 117.829C169.671 118.029 170.301 118.529 170.791 119.329C171.281 120.139 171.521 121.419 171.521 123.179C171.521 124.789 171.351 125.869 171.001 126.429C170.661 126.979 169.981 127.319 168.971 127.429C169.891 127.689 170.501 128.049 170.821 128.489C171.141 128.929 171.331 129.339 171.411 129.709C171.491 130.079 171.531 131.099 171.531 132.769V138.229H167.231V131.349C167.231 130.239 167.151 129.559 167.001 129.289C166.851 129.029 166.461 128.889 165.821 128.889V138.219H161.191V117.529L161.181 117.539ZM165.811 121.079V125.679C166.331 125.679 166.691 125.599 166.901 125.429C167.111 125.259 167.211 124.719 167.211 123.809V122.669C167.211 122.009 167.111 121.579 166.911 121.379C166.711 121.179 166.341 121.069 165.811 121.069V121.079Z" fill="white"/>
<path d="M173.171 117.539H180.891V121.679H177.801V125.599H180.691V129.539H177.801V134.089H181.201V138.229H173.181V117.539H173.171Z" fill="white"/>
<path d="M182.391 117.539H185.851C188.081 117.539 189.601 117.659 190.381 117.899C191.171 118.139 191.771 118.529 192.181 119.079C192.591 119.629 192.851 120.229 192.951 120.899C193.051 121.569 193.101 122.879 193.101 124.839V132.089C193.101 133.949 193.021 135.189 192.871 135.819C192.721 136.449 192.461 136.939 192.081 137.289C191.711 137.639 191.241 137.889 190.701 138.029C190.151 138.169 189.321 138.239 188.221 138.239H182.381V117.549L182.391 117.539ZM187.011 121.079V134.689C187.681 134.689 188.091 134.529 188.241 134.219C188.391 133.909 188.471 133.059 188.471 131.679V123.639C188.471 122.699 188.441 122.099 188.391 121.839C188.341 121.579 188.221 121.379 188.041 121.259C187.861 121.139 187.511 121.069 187.011 121.069V121.079Z" fill="white"/>
<path d="M205.211 117.539V131.369C205.211 132.939 205.171 134.039 205.081 134.669C204.991 135.299 204.731 135.959 204.301 136.619C203.871 137.289 203.301 137.799 202.591 138.139C201.881 138.489 201.051 138.659 200.091 138.659C199.031 138.659 198.091 138.459 197.281 138.049C196.471 137.639 195.861 137.109 195.451 136.449C195.051 135.789 194.811 135.099 194.741 134.369C194.671 133.639 194.631 132.109 194.631 129.779V117.539H199.261V133.059C199.261 133.959 199.301 134.539 199.391 134.789C199.481 135.039 199.651 135.169 199.901 135.169C200.191 135.169 200.381 135.029 200.471 134.749C200.551 134.469 200.601 133.819 200.601 132.789V117.539H205.231H205.211Z" fill="white"/>
<path d="M217.67 126.549H213.04V122.949C213.04 121.899 212.991 121.249 212.891 120.989C212.791 120.729 212.57 120.599 212.24 120.599C211.86 120.599 211.62 120.759 211.51 121.069C211.41 121.389 211.36 122.069 211.36 123.119V132.729C211.36 133.739 211.41 134.389 211.51 134.699C211.61 135.009 211.841 135.159 212.201 135.159C212.561 135.159 212.77 135.009 212.88 134.699C212.99 134.389 213.04 133.669 213.04 132.529V129.929H217.67V130.739C217.67 132.879 217.54 134.399 217.28 135.299C217.02 136.199 216.44 136.979 215.55 137.659C214.66 138.329 213.56 138.669 212.26 138.669C210.96 138.669 209.79 138.379 208.91 137.809C208.03 137.239 207.45 136.449 207.16 135.439C206.87 134.429 206.73 132.909 206.73 130.879V124.829C206.73 123.339 206.77 122.219 206.86 121.479C206.95 120.729 207.21 120.019 207.65 119.329C208.09 118.639 208.69 118.099 209.46 117.699C210.23 117.299 211.12 117.109 212.13 117.109C213.49 117.109 214.62 117.419 215.5 118.029C216.39 118.639 216.97 119.409 217.25 120.319C217.53 121.229 217.67 122.659 217.67 124.589V126.559V126.549Z" fill="white"/>
<path d="M219.201 117.539H226.921V121.679H223.831V125.599H226.721V129.539H223.831V134.089H227.231V138.229H219.211V117.539H219.201Z" fill="white"/>
<path d="M228.42 117.539H231.88C234.12 117.539 235.63 117.659 236.41 117.899C237.2 118.139 237.8 118.529 238.21 119.079C238.62 119.629 238.88 120.229 238.98 120.899C239.08 121.569 239.13 122.879 239.13 124.839V132.089C239.13 133.949 239.05 135.189 238.9 135.819C238.75 136.449 238.49 136.939 238.11 137.289C237.74 137.639 237.27 137.889 236.73 138.029C236.18 138.169 235.35 138.239 234.25 138.239H228.41V117.549L228.42 117.539ZM233.04 121.079V134.689C233.71 134.689 234.12 134.529 234.27 134.219C234.42 133.909 234.5 133.059 234.5 131.679V123.639C234.5 122.699 234.47 122.099 234.42 121.839C234.37 121.579 234.25 121.379 234.07 121.259C233.89 121.139 233.54 121.069 233.04 121.069V121.079Z" fill="white"/>
<path d="M165.811 145.369V166.059H161.181V145.369H165.811Z" fill="white"/>
<path d="M177.86 145.369V166.059H173.8L171.391 156.649V166.059H167.521V145.369H171.391L173.98 154.689V145.369H177.85H177.86Z" fill="white"/>
<path d="M179.581 145.369H187.301V149.509H184.211V153.429H187.101V157.369H184.211V161.919H187.611V166.059H179.591V145.369H179.581Z" fill="white"/>
<path d="M199.391 166.06V168.57H195.891C195.051 168.57 194.451 168.49 194.111 168.34C193.761 168.19 193.531 167.96 193.411 167.67C193.291 167.37 193.231 166.84 193.231 166.06C192.181 166.03 191.281 165.71 190.531 165.1C189.781 164.5 189.281 163.73 189.041 162.79C188.801 161.86 188.681 160.46 188.681 158.6V152.2C188.681 150.79 188.751 149.72 188.891 148.99C189.031 148.26 189.331 147.56 189.781 146.91C190.231 146.26 190.801 145.77 191.511 145.43C192.211 145.1 192.991 144.93 193.851 144.93C194.881 144.93 195.801 145.13 196.611 145.54C197.421 145.95 198.021 146.47 198.421 147.1C198.821 147.73 199.081 148.38 199.201 149.06C199.321 149.74 199.381 150.74 199.381 152.08V158.8C199.381 160.64 199.301 161.89 199.151 162.54C199.001 163.2 198.701 163.72 198.271 164.1C197.831 164.49 197.251 164.78 196.531 164.99C196.551 165.45 196.631 165.74 196.781 165.86C196.921 165.98 197.261 166.04 197.801 166.04H199.401L199.391 166.06ZM194.751 150.68C194.751 149.72 194.701 149.1 194.611 148.83C194.521 148.56 194.331 148.43 194.041 148.43C193.801 148.43 193.611 148.54 193.491 148.76C193.361 148.98 193.301 149.62 193.301 150.68V160.34C193.301 161.54 193.341 162.28 193.431 162.56C193.511 162.84 193.711 162.98 194.021 162.98C194.331 162.98 194.541 162.82 194.621 162.49C194.711 162.17 194.751 161.4 194.751 160.18V150.67V150.68Z" fill="white"/>
<path d="M211.48 145.369V159.199C211.48 160.769 211.44 161.869 211.35 162.499C211.26 163.129 211 163.789 210.57 164.459C210.14 165.129 209.57 165.639 208.86 165.979C208.15 166.329 207.32 166.499 206.36 166.499C205.3 166.499 204.36 166.299 203.55 165.889C202.74 165.479 202.13 164.949 201.72 164.289C201.32 163.629 201.08 162.939 201.01 162.209C200.94 161.479 200.9 159.949 200.9 157.619V145.379H205.53V160.899C205.53 161.799 205.57 162.379 205.66 162.629C205.75 162.879 205.92 163.009 206.17 163.009C206.46 163.009 206.65 162.869 206.74 162.589C206.82 162.309 206.87 161.659 206.87 160.629V145.379H211.5L211.48 145.369Z" fill="white"/>
<path d="M221.141 145.369L223.791 166.059H219.061L218.811 162.339H217.161L216.881 166.059H212.101L214.461 145.369H221.151H221.141ZM218.691 158.669C218.461 156.329 218.221 153.429 217.991 149.979C217.521 153.939 217.221 156.839 217.101 158.669H218.691Z" fill="white"/>
<path d="M229.07 145.369V161.919H231.88V166.059H224.44V145.369H229.07Z" fill="white"/>
<path d="M237.49 145.369V166.059H232.86V145.369H237.49Z" fill="white"/>
<path d="M248.541 145.369V149.509H245.791V166.059H241.161V149.509H238.421V145.369H248.531H248.541Z" fill="white"/>
<path d="M254.081 145.369V166.059H249.451V145.369H254.081Z" fill="white"/>
<path d="M255.801 145.369H263.521V149.509H260.431V153.429H263.321V157.369H260.431V161.919H263.831V166.059H255.811V145.369H255.801Z" fill="white"/>
<path d="M274.831 151.629H270.531V150.099C270.531 149.379 270.471 148.929 270.361 148.729C270.251 148.529 270.071 148.439 269.811 148.439C269.531 148.439 269.321 148.569 269.181 148.839C269.041 149.099 268.971 149.499 268.971 150.039C268.971 150.729 269.051 151.249 269.211 151.599C269.361 151.949 269.801 152.369 270.521 152.859C272.581 154.279 273.881 155.449 274.411 156.359C274.951 157.269 275.211 158.739 275.211 160.769C275.211 162.239 275.061 163.329 274.761 164.029C274.461 164.729 273.891 165.309 273.041 165.789C272.191 166.259 271.201 166.499 270.071 166.499C268.831 166.499 267.771 166.229 266.901 165.679C266.031 165.129 265.451 164.439 265.181 163.599C264.911 162.759 264.771 161.559 264.771 160.009V158.659H269.071V161.179C269.071 161.959 269.131 162.449 269.251 162.669C269.371 162.889 269.591 162.999 269.891 162.999C270.191 162.999 270.431 162.859 270.581 162.579C270.731 162.299 270.811 161.879 270.811 161.329C270.811 160.109 270.671 159.309 270.381 158.939C270.091 158.559 269.361 157.939 268.211 157.059C267.061 156.169 266.301 155.529 265.921 155.129C265.551 154.729 265.241 154.179 264.991 153.469C264.741 152.759 264.621 151.859 264.621 150.759C264.621 149.179 264.791 148.019 265.141 147.279C265.491 146.549 266.051 145.969 266.831 145.559C267.611 145.149 268.541 144.939 269.641 144.939C270.841 144.939 271.871 145.169 272.711 145.619C273.561 146.069 274.121 146.639 274.391 147.329C274.661 148.019 274.801 149.179 274.801 150.829V151.649L274.831 151.629Z" fill="white"/>
<path d="M232.471 233.109H184.381V245.459H232.471V233.109Z" fill="white"/>
<path d="M232.471 252.619H184.381V264.969H232.471V252.619Z" fill="white"/>
<path d="M260.761 263.859C262.221 257.779 262.721 251.699 262.361 245.769C261.851 242.849 261.131 239.939 260.171 237.039C257.441 228.799 253.121 221.539 247.681 215.459C255.351 224.179 260.001 235.609 260.001 248.129C260.001 260.649 255.241 272.339 247.421 281.099C238.351 291.259 225.151 297.659 210.461 297.659C183.101 297.659 160.921 275.479 160.921 248.119C160.921 239.649 163.051 231.669 166.801 224.699C175.491 210.709 190.991 201.379 208.681 201.379C207.751 201.379 206.821 201.419 205.901 201.469C226.571 201.449 237.201 211.889 239.721 214.759L241.031 213.509L249.221 205.689C238.711 195.349 224.301 188.949 208.421 188.949C176.321 188.949 150.201 215.069 150.201 247.169C150.201 279.269 176.321 305.389 208.421 305.389C222.101 305.389 234.681 300.639 244.621 292.709C252.291 285.009 258.021 275.179 260.751 263.829L260.761 263.859Z" fill="white"/>
</svg>
