<svg width="388" height="391" viewBox="0 0 388 391" fill="none" xmlns="http://www.w3.org/2000/svg">
<path d="M237.01 0.0100098L0 178.73C64.85 261.32 143.05 332.86 231.41 390.12L387.85 137.81C330.59 100.05 279.67 53.47 237.01 0V0.0100098Z" fill="#F3982D"/>
<path d="M120.649 107.898V155.969H111.009V130.198C111.009 126.478 110.939 124.238 110.799 123.488C110.659 122.738 110.259 122.168 109.619 121.778C108.979 121.388 107.539 121.198 105.309 121.198H104.359V115.599C109.019 114.349 112.559 111.788 114.979 107.898H120.659H120.649Z" fill="white"/>
<path d="M138.96 107.898V155.969H129.32V130.198C129.32 126.478 129.25 124.238 129.11 123.488C128.97 122.738 128.57 122.168 127.93 121.778C127.29 121.388 125.85 121.198 123.62 121.198H122.67V115.599C127.33 114.349 130.87 111.788 133.29 107.898H138.97H138.96Z" fill="white"/>
<path d="M164.129 113.729H159.979V112.199C159.979 111.479 159.929 111.029 159.819 110.829C159.709 110.629 159.539 110.539 159.289 110.539C159.019 110.539 158.819 110.669 158.679 110.939C158.539 111.199 158.469 111.599 158.469 112.139C158.469 112.829 158.549 113.349 158.699 113.699C158.849 114.049 159.269 114.469 159.959 114.959C161.949 116.379 163.199 117.549 163.719 118.459C164.239 119.369 164.489 120.839 164.489 122.869C164.489 124.339 164.349 125.429 164.059 126.129C163.769 126.829 163.219 127.409 162.399 127.889C161.579 128.359 160.619 128.599 159.529 128.599C158.339 128.599 157.319 128.329 156.469 127.779C155.619 127.229 155.069 126.539 154.809 125.699C154.549 124.859 154.419 123.659 154.419 122.109V120.759H158.569V123.279C158.569 124.059 158.629 124.549 158.739 124.769C158.859 124.989 159.059 125.099 159.359 125.099C159.659 125.099 159.879 124.959 160.019 124.679C160.169 124.399 160.239 123.979 160.239 123.429C160.239 122.209 160.099 121.409 159.829 121.039C159.549 120.659 158.849 120.039 157.739 119.159C156.629 118.269 155.889 117.629 155.529 117.229C155.169 116.829 154.869 116.279 154.629 115.569C154.389 114.859 154.279 113.959 154.279 112.859C154.279 111.279 154.449 110.119 154.779 109.379C155.119 108.649 155.659 108.069 156.409 107.659C157.159 107.249 158.059 107.039 159.129 107.039C160.289 107.039 161.279 107.269 162.089 107.719C162.909 108.169 163.449 108.739 163.709 109.429C163.969 110.119 164.109 111.279 164.109 112.929V113.749L164.129 113.729Z" fill="white"/>
<path d="M175.349 107.469V121.299C175.349 122.869 175.309 123.969 175.219 124.599C175.129 125.229 174.879 125.889 174.469 126.559C174.049 127.229 173.499 127.739 172.819 128.079C172.139 128.429 171.329 128.599 170.409 128.599C169.379 128.599 168.479 128.399 167.689 127.989C166.909 127.579 166.319 127.049 165.929 126.389C165.539 125.729 165.309 125.039 165.239 124.309C165.169 123.579 165.129 122.049 165.129 119.719V107.479H169.599V122.999C169.599 123.899 169.639 124.479 169.719 124.729C169.799 124.979 169.969 125.109 170.209 125.109C170.489 125.109 170.669 124.969 170.759 124.689C170.839 124.409 170.879 123.759 170.879 122.729V107.479H175.349V107.469Z" fill="white"/>
<path d="M185.848 113.729H181.698V112.199C181.698 111.479 181.648 111.029 181.538 110.829C181.428 110.629 181.258 110.539 181.008 110.539C180.738 110.539 180.538 110.669 180.398 110.939C180.258 111.199 180.188 111.599 180.188 112.139C180.188 112.829 180.268 113.349 180.418 113.699C180.568 114.049 180.988 114.469 181.678 114.959C183.668 116.379 184.918 117.549 185.438 118.459C185.958 119.369 186.208 120.839 186.208 122.869C186.208 124.339 186.068 125.429 185.778 126.129C185.488 126.829 184.938 127.409 184.118 127.889C183.298 128.359 182.338 128.599 181.248 128.599C180.058 128.599 179.038 128.329 178.188 127.779C177.338 127.229 176.788 126.539 176.528 125.699C176.268 124.859 176.138 123.659 176.138 122.109V120.759H180.288V123.279C180.288 124.059 180.348 124.549 180.458 124.769C180.578 124.989 180.778 125.099 181.078 125.099C181.378 125.099 181.598 124.959 181.738 124.679C181.878 124.399 181.958 123.979 181.958 123.429C181.958 122.209 181.818 121.409 181.548 121.039C181.268 120.659 180.568 120.039 179.458 119.159C178.348 118.269 177.608 117.629 177.248 117.229C176.888 116.829 176.588 116.279 176.348 115.569C176.108 114.859 175.998 113.959 175.998 112.859C175.998 111.279 176.168 110.119 176.498 109.379C176.828 108.639 177.378 108.069 178.128 107.659C178.878 107.249 179.778 107.039 180.848 107.039C182.008 107.039 182.998 107.269 183.808 107.719C184.628 108.169 185.168 108.739 185.428 109.429C185.688 110.119 185.828 111.279 185.828 112.929V113.749L185.848 113.729Z" fill="white"/>
<path d="M195.918 107.469V111.609H193.268V128.159H188.798V111.609H186.158V107.469H195.918Z" fill="white"/>
<path d="M203.099 107.469L205.649 128.159H201.089L200.849 124.439H199.249L198.979 128.159H194.359L196.639 107.469H203.099ZM200.729 120.769C200.499 118.429 200.279 115.529 200.049 112.079C199.589 116.039 199.309 118.939 199.189 120.769H200.729Z" fill="white"/>
<path d="M210.179 107.469V128.159H205.709V107.469H210.179Z" fill="white"/>
<path d="M221.249 107.469V128.159H217.339L215.019 118.749V128.159H211.289V107.469H215.019L217.519 116.789V107.469H221.249Z" fill="white"/>
<path d="M230.068 107.469L232.618 128.159H228.058L227.818 124.439H226.218L225.948 128.159H221.328L223.608 107.469H230.068ZM227.698 120.769C227.468 118.429 227.248 115.529 227.018 112.079C226.558 116.039 226.278 118.939 226.158 120.769H227.698Z" fill="white"/>
<path d="M232.678 107.469H237.128C238.538 107.469 239.598 107.599 240.328 107.869C241.058 108.129 241.638 108.669 242.088 109.469C242.538 110.269 242.758 111.569 242.758 113.359C242.758 114.569 242.598 115.409 242.288 115.889C241.968 116.369 241.358 116.729 240.428 116.989C241.458 117.269 242.158 117.739 242.528 118.389C242.898 119.039 243.078 120.039 243.078 121.389V123.309C243.078 124.709 242.948 125.739 242.678 126.419C242.408 127.089 241.988 127.549 241.408 127.799C240.828 128.049 239.638 128.169 237.838 128.169H232.678V107.479V107.469ZM237.148 111.009V115.609C237.338 115.609 237.488 115.599 237.598 115.599C238.038 115.599 238.318 115.469 238.438 115.209C238.558 114.949 238.618 114.209 238.618 112.979C238.618 112.329 238.568 111.879 238.468 111.619C238.368 111.359 238.238 111.199 238.078 111.129C237.918 111.059 237.608 111.019 237.148 111.009ZM237.148 118.829V124.619C237.778 124.589 238.178 124.469 238.348 124.259C238.518 124.049 238.608 123.519 238.608 122.689V120.759C238.608 119.869 238.528 119.339 238.378 119.149C238.218 118.959 237.808 118.859 237.148 118.829Z" fill="white"/>
<path d="M248.448 107.469V124.019H251.168V128.159H243.988V107.469H248.458H248.448Z" fill="white"/>
<path d="M251.549 107.469H258.999V111.609H256.019V115.529H258.809V119.469H256.019V124.019H259.299V128.159H251.559V107.469H251.549Z" fill="white"/>
<path d="M273.449 116.479H268.979V112.879C268.979 111.829 268.929 111.179 268.839 110.919C268.739 110.659 268.529 110.529 268.209 110.529C267.839 110.529 267.609 110.689 267.509 110.999C267.409 111.319 267.359 111.999 267.359 113.049V122.659C267.359 123.669 267.409 124.319 267.509 124.629C267.609 124.939 267.829 125.089 268.179 125.089C268.529 125.089 268.729 124.939 268.829 124.629C268.929 124.319 268.979 123.599 268.979 122.459V119.859H273.449V120.669C273.449 122.809 273.319 124.329 273.069 125.229C272.819 126.129 272.259 126.909 271.399 127.589C270.539 128.259 269.479 128.599 268.219 128.599C266.959 128.599 265.829 128.309 264.979 127.739C264.129 127.169 263.569 126.379 263.289 125.369C263.009 124.359 262.879 122.839 262.879 120.809V114.759C262.879 113.269 262.919 112.149 263.009 111.409C263.089 110.659 263.349 109.949 263.769 109.259C264.189 108.569 264.769 108.029 265.519 107.629C266.269 107.229 267.119 107.039 268.089 107.039C269.399 107.039 270.489 107.349 271.349 107.959C272.209 108.569 272.769 109.339 273.039 110.249C273.309 111.159 273.439 112.589 273.439 114.519V116.489L273.449 116.479Z" fill="white"/>
<path d="M278.82 107.469V128.159H274.35V107.469H278.82Z" fill="white"/>
<path d="M288.908 107.469V111.609H286.258V128.159H281.788V111.609H279.148V107.469H288.908Z" fill="white"/>
<path d="M293.699 107.469V128.159H289.229V107.469H293.699Z" fill="white"/>
<path d="M294.799 107.469H302.249V111.609H299.269V115.529H302.059V119.469H299.269V124.019H302.549V128.159H294.809V107.469H294.799Z" fill="white"/>
<path d="M312.598 113.729H308.448V112.199C308.448 111.479 308.398 111.029 308.288 110.829C308.178 110.629 308.008 110.539 307.758 110.539C307.488 110.539 307.288 110.669 307.148 110.939C307.008 111.199 306.938 111.599 306.938 112.139C306.938 112.829 307.018 113.349 307.168 113.699C307.318 114.049 307.738 114.469 308.428 114.959C310.418 116.379 311.668 117.549 312.188 118.459C312.708 119.369 312.958 120.839 312.958 122.869C312.958 124.339 312.818 125.429 312.528 126.129C312.238 126.829 311.688 127.409 310.868 127.889C310.048 128.359 309.088 128.599 307.998 128.599C306.808 128.599 305.788 128.329 304.938 127.779C304.088 127.229 303.538 126.539 303.278 125.699C303.018 124.859 302.888 123.659 302.888 122.109V120.759H307.038V123.279C307.038 124.059 307.098 124.549 307.208 124.769C307.328 124.989 307.528 125.099 307.828 125.099C308.128 125.099 308.348 124.959 308.488 124.679C308.628 124.399 308.708 123.979 308.708 123.429C308.708 122.209 308.568 121.409 308.298 121.039C308.018 120.659 307.318 120.039 306.208 119.159C305.098 118.269 304.358 117.629 303.998 117.229C303.638 116.829 303.338 116.279 303.098 115.569C302.858 114.859 302.748 113.959 302.748 112.859C302.748 111.279 302.918 110.119 303.248 109.379C303.588 108.649 304.128 108.069 304.878 107.659C305.628 107.249 306.528 107.039 307.598 107.039C308.758 107.039 309.748 107.269 310.558 107.719C311.378 108.169 311.918 108.739 312.178 109.429C312.438 110.119 312.578 111.279 312.578 112.929V113.749L312.598 113.729Z" fill="white"/>
<path d="M162.379 135.299L164.929 155.989H160.369L160.129 152.269H158.529L158.259 155.989H153.639L155.919 135.299H162.379ZM160.019 148.599C159.789 146.259 159.569 143.359 159.339 139.909C158.879 143.869 158.599 146.769 158.479 148.599H160.019Z" fill="white"/>
<path d="M174.968 135.299V155.989H171.058L168.738 146.579V155.989H165.008V135.299H168.738L171.238 144.619V135.299H174.968Z" fill="white"/>
<path d="M176.068 135.299H179.408C181.568 135.299 183.028 135.419 183.788 135.659C184.548 135.899 185.128 136.289 185.528 136.839C185.928 137.389 186.168 137.989 186.268 138.659C186.368 139.329 186.418 140.639 186.418 142.599V149.849C186.418 151.709 186.348 152.949 186.198 153.579C186.058 154.209 185.798 154.699 185.438 155.049C185.078 155.399 184.628 155.649 184.098 155.789C183.568 155.929 182.768 155.999 181.698 155.999H176.068V135.309V135.299ZM180.538 138.839V152.449C181.178 152.449 181.578 152.289 181.728 151.979C181.878 151.669 181.948 150.819 181.948 149.439V141.399C181.948 140.459 181.918 139.859 181.878 139.599C181.828 139.339 181.718 139.139 181.538 139.019C181.358 138.899 181.028 138.829 180.538 138.829V138.839Z" fill="white"/>
<path d="M200.939 144.309H196.469V140.709C196.469 139.659 196.419 139.009 196.329 138.749C196.239 138.489 196.019 138.359 195.699 138.359C195.329 138.359 195.099 138.519 194.999 138.829C194.899 139.149 194.849 139.829 194.849 140.879V150.489C194.849 151.499 194.899 152.149 194.999 152.459C195.099 152.769 195.319 152.919 195.669 152.919C196.019 152.919 196.219 152.769 196.319 152.459C196.419 152.149 196.469 151.429 196.469 150.289V147.689H200.939V148.499C200.939 150.639 200.809 152.159 200.559 153.059C200.309 153.959 199.749 154.739 198.889 155.419C198.029 156.089 196.969 156.429 195.709 156.429C194.449 156.429 193.319 156.139 192.469 155.569C191.619 154.999 191.059 154.209 190.779 153.199C190.499 152.189 190.369 150.669 190.369 148.639V142.589C190.369 141.099 190.409 139.979 190.499 139.229C190.579 138.479 190.839 137.769 191.259 137.079C191.679 136.389 192.259 135.849 193.009 135.449C193.759 135.049 194.609 134.859 195.579 134.859C196.889 134.859 197.979 135.169 198.839 135.779C199.699 136.389 200.259 137.159 200.529 138.069C200.799 138.979 200.929 140.409 200.929 142.339V144.309H200.939Z" fill="white"/>
<path d="M212.059 147.409C212.059 149.489 212.019 150.959 211.939 151.829C211.859 152.689 211.599 153.489 211.179 154.199C210.749 154.919 210.169 155.459 209.449 155.849C208.719 156.229 207.869 156.429 206.899 156.429C205.979 156.429 205.159 156.249 204.419 155.889C203.689 155.529 203.099 154.979 202.649 154.259C202.209 153.539 201.939 152.749 201.859 151.899C201.769 151.049 201.729 149.559 201.729 147.429V143.889C201.729 141.809 201.769 140.339 201.849 139.469C201.929 138.609 202.189 137.809 202.609 137.099C203.039 136.379 203.619 135.829 204.349 135.449C205.079 135.069 205.929 134.869 206.899 134.869C207.869 134.869 208.639 135.049 209.379 135.409C210.109 135.769 210.699 136.319 211.149 137.039C211.599 137.759 211.859 138.549 211.949 139.399C212.039 140.249 212.079 141.739 212.079 143.869V147.409H212.059ZM207.589 140.609C207.589 139.649 207.549 139.029 207.459 138.759C207.369 138.489 207.189 138.359 206.909 138.359C206.679 138.359 206.499 138.469 206.369 138.689C206.249 138.909 206.179 139.549 206.179 140.609V150.269C206.179 151.469 206.219 152.209 206.299 152.489C206.379 152.769 206.569 152.909 206.869 152.909C207.169 152.909 207.369 152.749 207.449 152.419C207.529 152.099 207.579 151.329 207.579 150.109V140.599L207.589 140.609Z" fill="white"/>
<path d="M226.809 135.299V155.989H222.909V142.019L221.349 155.989H218.579L216.939 142.339V155.989H213.029V135.299H218.809C218.979 136.539 219.159 138.009 219.339 139.699L219.969 144.959L220.999 135.299H226.809Z" fill="white"/>
<path d="M241.678 135.299V155.989H237.778V142.019L236.218 155.989H233.448L231.808 142.339V155.989H227.898V135.299H233.678C233.848 136.539 234.028 138.009 234.208 139.699L234.838 144.959L235.868 135.299H241.678Z" fill="white"/>
<path d="M252.929 135.299V149.129C252.929 150.699 252.889 151.799 252.799 152.429C252.709 153.059 252.459 153.719 252.049 154.389C251.629 155.059 251.079 155.569 250.399 155.909C249.719 156.259 248.909 156.429 247.989 156.429C246.959 156.429 246.059 156.229 245.269 155.819C244.489 155.409 243.899 154.879 243.509 154.219C243.119 153.559 242.889 152.869 242.819 152.139C242.749 151.409 242.709 149.879 242.709 147.549V135.309H247.179V150.829C247.179 151.729 247.219 152.309 247.299 152.559C247.379 152.809 247.549 152.939 247.789 152.939C248.069 152.939 248.259 152.799 248.339 152.519C248.419 152.239 248.459 151.589 248.459 150.559V135.309H252.929V135.299Z" fill="white"/>
<path d="M263.939 135.299V155.989H260.029L257.709 146.579V155.989H253.979V135.299H257.709L260.209 144.619V135.299H263.939Z" fill="white"/>
<path d="M269.499 135.299V155.989H265.029V135.299H269.499Z" fill="white"/>
<path d="M279.598 135.299V139.439H276.948V155.989H272.478V139.439H269.838V135.299H279.598Z" fill="white"/>
<path d="M284.388 135.299V155.989H279.918V135.299H284.388Z" fill="white"/>
<path d="M285.479 135.299H292.929V139.439H289.949V143.359H292.739V147.299H289.949V151.849H293.229V155.989H285.489V135.299H285.479Z" fill="white"/>
<path d="M303.278 141.559H299.128V140.029C299.128 139.309 299.078 138.859 298.968 138.659C298.858 138.459 298.688 138.369 298.438 138.369C298.168 138.369 297.968 138.499 297.828 138.769C297.688 139.029 297.618 139.429 297.618 139.969C297.618 140.659 297.698 141.179 297.848 141.529C297.998 141.879 298.418 142.299 299.108 142.789C301.098 144.209 302.348 145.379 302.868 146.289C303.388 147.199 303.638 148.669 303.638 150.699C303.638 152.169 303.498 153.259 303.208 153.959C302.918 154.659 302.368 155.239 301.548 155.719C300.728 156.189 299.768 156.429 298.678 156.429C297.488 156.429 296.468 156.159 295.618 155.609C294.768 155.059 294.218 154.369 293.958 153.529C293.698 152.689 293.568 151.489 293.568 149.939V148.579H297.718V151.099C297.718 151.879 297.778 152.369 297.888 152.599C298.008 152.819 298.208 152.929 298.508 152.929C298.808 152.929 299.028 152.789 299.168 152.509C299.308 152.229 299.388 151.809 299.388 151.259C299.388 150.039 299.248 149.239 298.978 148.869C298.698 148.489 297.998 147.869 296.888 146.989C295.778 146.099 295.038 145.459 294.678 145.059C294.318 144.659 294.018 144.109 293.778 143.399C293.538 142.689 293.428 141.789 293.428 140.689C293.428 139.109 293.598 137.949 293.928 137.209C294.268 136.479 294.808 135.899 295.558 135.489C296.308 135.079 297.208 134.869 298.278 134.869C299.438 134.869 300.428 135.099 301.238 135.549C302.058 135.999 302.598 136.569 302.858 137.259C303.128 137.949 303.258 139.109 303.258 140.759V141.579L303.278 141.559Z" fill="white"/>
<path d="M287.821 251.139H250.731C250.499 251.139 250.311 251.327 250.311 251.559V259.899C250.311 260.131 250.499 260.319 250.731 260.319H287.821C288.053 260.319 288.241 260.131 288.241 259.899V251.559C288.241 251.327 288.053 251.139 287.821 251.139Z" fill="white"/>
<path d="M127.539 269.918V299.168C127.539 299.398 127.729 299.588 127.959 299.588H139.989C140.219 299.588 140.409 299.398 140.409 299.168V282.128C140.409 281.898 140.599 281.708 140.829 281.708H151.329C151.559 281.708 151.749 281.898 151.749 282.128V299.168C151.749 299.398 151.939 299.588 152.169 299.588H165.069C165.299 299.588 165.489 299.398 165.489 299.168V269.918C165.489 269.688 165.299 269.498 165.069 269.498H127.969C127.739 269.498 127.549 269.688 127.549 269.918H127.539Z" fill="white"/>
<path d="M146.07 241.169L127.17 265.469C126.96 265.739 127.15 266.139 127.5 266.139H165.29C165.64 266.139 165.83 265.739 165.62 265.469L146.72 241.169C146.55 240.959 146.23 240.959 146.06 241.169H146.07Z" fill="white"/>
<path d="M205.591 179.988H169.981C169.751 179.988 169.561 180.178 169.561 180.408V299.178C169.561 299.408 169.751 299.598 169.981 299.598H205.591C205.821 299.598 206.011 299.408 206.011 299.178V180.408C206.011 180.178 205.821 179.988 205.591 179.988ZM184.641 285.888C184.641 286.118 184.451 286.308 184.221 286.308H176.251C176.021 286.308 175.831 286.118 175.831 285.888V277.918C175.831 277.688 176.021 277.498 176.251 277.498H184.221C184.451 277.498 184.641 277.688 184.641 277.918V285.888ZM184.641 265.648C184.641 265.878 184.451 266.068 184.221 266.068H176.251C176.021 266.068 175.831 265.878 175.831 265.648V257.678C175.831 257.448 176.021 257.258 176.251 257.258H184.221C184.451 257.258 184.641 257.448 184.641 257.678V265.648ZM184.641 245.408C184.641 245.638 184.451 245.828 184.221 245.828H176.251C176.021 245.828 175.831 245.638 175.831 245.408V237.438C175.831 237.208 176.021 237.018 176.251 237.018H184.221C184.451 237.018 184.641 237.208 184.641 237.438V245.408ZM184.641 225.168C184.641 225.398 184.451 225.588 184.221 225.588H176.251C176.021 225.588 175.831 225.398 175.831 225.168V217.198C175.831 216.968 176.021 216.778 176.251 216.778H184.221C184.451 216.778 184.641 216.968 184.641 217.198V225.168ZM184.641 204.938C184.641 205.168 184.451 205.358 184.221 205.358H176.251C176.021 205.358 175.831 205.168 175.831 204.938V196.968C175.831 196.738 176.021 196.548 176.251 196.548H184.221C184.451 196.548 184.641 196.738 184.641 196.968V204.938ZM199.721 285.888C199.721 286.118 199.531 286.308 199.301 286.308H191.331C191.101 286.308 190.911 286.118 190.911 285.888V277.918C190.911 277.688 191.101 277.498 191.331 277.498H199.301C199.531 277.498 199.721 277.688 199.721 277.918V285.888ZM199.721 265.648C199.721 265.878 199.531 266.068 199.301 266.068H191.331C191.101 266.068 190.911 265.878 190.911 265.648V257.678C190.911 257.448 191.101 257.258 191.331 257.258H199.301C199.531 257.258 199.721 257.448 199.721 257.678V265.648ZM199.721 245.408C199.721 245.638 199.531 245.828 199.301 245.828H191.331C191.101 245.828 190.911 245.638 190.911 245.408V237.438C190.911 237.208 191.101 237.018 191.331 237.018H199.301C199.531 237.018 199.721 237.208 199.721 237.438V245.408ZM199.721 225.168C199.721 225.398 199.531 225.588 199.301 225.588H191.331C191.101 225.588 190.911 225.398 190.911 225.168V217.198C190.911 216.968 191.101 216.778 191.331 216.778H199.301C199.531 216.778 199.721 216.968 199.721 217.198V225.168ZM199.721 204.938C199.721 205.168 199.531 205.358 199.301 205.358H191.331C191.101 205.358 190.911 205.168 190.911 204.938V196.968C190.911 196.738 191.101 196.548 191.331 196.548H199.301C199.531 196.548 199.721 196.738 199.721 196.968V204.938Z" fill="white"/>
<path d="M287.831 262.848H250.731C250.501 262.848 250.311 263.038 250.311 263.268V299.178C250.311 299.408 250.501 299.598 250.731 299.598H287.831C288.061 299.598 288.251 299.408 288.251 299.178V263.268C288.251 263.038 288.061 262.848 287.831 262.848ZM267.021 285.888C267.021 286.118 266.831 286.308 266.601 286.308H255.731C255.501 286.308 255.311 286.118 255.311 285.888V279.388C255.311 279.158 255.501 278.968 255.731 278.968H266.601C266.831 278.968 267.021 279.158 267.021 279.388V285.888ZM267.021 274.148C267.021 274.378 266.831 274.568 266.601 274.568H255.731C255.501 274.568 255.311 274.378 255.311 274.148V267.648C255.311 267.418 255.501 267.228 255.731 267.228H266.601C266.831 267.228 267.021 267.418 267.021 267.648V274.148ZM283.231 285.888C283.231 286.118 283.041 286.308 282.811 286.308H271.941C271.711 286.308 271.521 286.118 271.521 285.888V279.388C271.521 279.158 271.711 278.968 271.941 278.968H282.811C283.041 278.968 283.231 279.158 283.231 279.388V285.888ZM283.231 274.148C283.231 274.378 283.041 274.568 282.811 274.568H271.941C271.711 274.568 271.521 274.378 271.521 274.148V267.648C271.521 267.418 271.711 267.228 271.941 267.228H282.811C283.041 267.228 283.231 267.418 283.231 267.648V274.148Z" fill="white"/>
<path d="M246.19 200.468L210.58 245.478C210.52 245.548 210.49 245.638 210.49 245.738V299.178C210.49 299.408 210.68 299.598 210.91 299.598H246.52C246.75 299.598 246.94 299.408 246.94 299.178V200.738C246.94 200.348 246.44 200.168 246.2 200.478L246.19 200.468ZM226.57 285.888C226.57 286.118 226.38 286.308 226.15 286.308H215.85C215.62 286.308 215.43 286.118 215.43 285.888V279.388C215.43 279.158 215.62 278.968 215.85 278.968H226.15C226.38 278.968 226.57 279.158 226.57 279.388V285.888ZM226.57 274.148C226.57 274.378 226.38 274.568 226.15 274.568H215.85C215.62 274.568 215.43 274.378 215.43 274.148V267.648C215.43 267.418 215.62 267.228 215.85 267.228H226.15C226.38 267.228 226.57 267.418 226.57 267.648V274.148ZM226.57 262.638C226.57 262.868 226.38 263.058 226.15 263.058H215.85C215.62 263.058 215.43 262.868 215.43 262.638V256.138C215.43 255.908 215.62 255.718 215.85 255.718H226.15C226.38 255.718 226.57 255.908 226.57 256.138V262.638ZM226.57 250.718C226.57 250.948 226.38 251.138 226.15 251.138H215.85C215.62 251.138 215.43 250.948 215.43 250.718V248.418C215.43 248.318 215.47 248.218 215.53 248.148L225.83 236.388C226.08 236.098 226.56 236.278 226.56 236.658V250.718H226.57ZM241.99 285.888C241.99 286.118 241.8 286.308 241.57 286.308H231.27C231.04 286.308 230.85 286.118 230.85 285.888V279.388C230.85 279.158 231.04 278.968 231.27 278.968H241.57C241.8 278.968 241.99 279.158 241.99 279.388V285.888ZM241.99 274.148C241.99 274.378 241.8 274.568 241.57 274.568H231.27C231.04 274.568 230.85 274.378 230.85 274.148V267.648C230.85 267.418 231.04 267.228 231.27 267.228H241.57C241.8 267.228 241.99 267.418 241.99 267.648V274.148ZM241.99 262.638C241.99 262.868 241.8 263.058 241.57 263.058H231.27C231.04 263.058 230.85 262.868 230.85 262.638V256.138C230.85 255.908 231.04 255.718 231.27 255.718H241.57C241.8 255.718 241.99 255.908 241.99 256.138V262.638ZM241.99 250.718C241.99 250.948 241.8 251.138 241.57 251.138H231.27C231.04 251.138 230.85 250.948 230.85 250.718V244.218C230.85 243.988 231.04 243.798 231.27 243.798H241.57C241.8 243.798 241.99 243.988 241.99 244.218V250.718ZM241.99 238.808C241.99 239.038 241.8 239.228 241.57 239.228H231.27C231.04 239.228 230.85 239.038 230.85 238.808V232.308C230.85 232.078 231.04 231.888 231.27 231.888H241.57C241.8 231.888 241.99 232.078 241.99 232.308V238.808ZM241.99 226.888C241.99 227.118 241.8 227.308 241.57 227.308H231.73C231.38 227.308 231.19 226.898 231.41 226.628L241.25 214.548C241.5 214.248 241.99 214.418 241.99 214.808V226.888Z" fill="white"/>
</svg>
