<svg width="378" height="362" viewBox="0 0 378 362" fill="none" xmlns="http://www.w3.org/2000/svg">
<path d="M0 81.1699C30.99 183 78.77 277.53 140.01 361.7L377.08 182.93C337.7 127.75 306.75 66.15 286.09 0L0.00999832 81.1699H0Z" fill="#BE8A2F"/>
<path d="M101.001 79.8613V127.931H91.3609V102.161C91.3609 98.4413 91.2909 96.2013 91.1509 95.4513C91.0109 94.7013 90.6109 94.1313 89.9709 93.7413C89.3309 93.3513 87.8909 93.1613 85.6609 93.1613H84.7109V87.5613C89.3709 86.3113 92.9109 83.7513 95.3309 79.8613H101.011H101.001Z" fill="white"/>
<path d="M125.232 119.741V127.941H104.022V121.081C110.312 108.291 114.042 100.381 115.232 97.3409C116.412 94.3009 117.012 91.931 117.012 90.231C117.012 88.921 116.832 87.9509 116.472 87.3109C116.112 86.6709 115.572 86.351 114.832 86.351C114.092 86.351 113.552 86.7109 113.192 87.4209C112.832 88.1309 112.652 89.5509 112.652 91.6709V96.241H104.012V94.491C104.012 91.801 104.122 89.671 104.342 88.121C104.562 86.571 105.112 85.0409 105.992 83.5309C106.862 82.0309 108.002 80.891 109.402 80.121C110.802 79.351 112.482 78.9609 114.432 78.9609C118.262 78.9609 121.162 80.141 123.132 82.511C125.092 84.881 126.082 87.871 126.082 91.491C126.082 94.241 125.532 97.1509 124.422 100.221C123.312 103.291 120.062 109.801 114.652 119.761H125.222L125.232 119.741Z" fill="white"/>
<path d="M141.99 81.7112H145.11C147.19 81.7112 148.6 81.8112 149.34 82.0012C150.08 82.2012 150.68 82.7012 151.14 83.5012C151.6 84.3112 151.84 85.5912 151.84 87.3512C151.84 88.9612 151.68 90.0412 151.35 90.6012C151.02 91.1512 150.38 91.4912 149.41 91.6012C150.28 91.8612 150.87 92.2211 151.17 92.6611C151.47 93.1011 151.66 93.5112 151.73 93.8812C151.8 94.2512 151.84 95.2712 151.84 96.9412V102.401H147.74V95.5211C147.74 94.4111 147.67 93.7312 147.53 93.4612C147.39 93.2012 147.01 93.0612 146.4 93.0612V102.391H141.99V81.7012V81.7112ZM146.4 85.2512V89.8512C146.9 89.8512 147.24 89.7712 147.44 89.6012C147.64 89.4312 147.74 88.8912 147.74 87.9812V86.8412C147.74 86.1812 147.64 85.7511 147.45 85.5511C147.26 85.3511 146.91 85.2412 146.4 85.2412V85.2512Z" fill="white"/>
<path d="M153.291 81.7109H160.651V85.851H157.701V89.7709H160.461V93.7109H157.701V98.261H160.941V102.401H153.291V81.7109Z" fill="white"/>
<path d="M171.3 87.9811H167.2V86.451C167.2 85.731 167.15 85.2811 167.04 85.0811C166.93 84.8811 166.76 84.791 166.52 84.791C166.25 84.791 166.05 84.921 165.92 85.191C165.78 85.451 165.72 85.8511 165.72 86.3911C165.72 87.0811 165.8 87.601 165.95 87.951C166.1 88.301 166.51 88.7211 167.2 89.2111C169.16 90.6311 170.4 91.8011 170.91 92.7111C171.42 93.6211 171.68 95.0911 171.68 97.1211C171.68 98.5911 171.54 99.6811 171.25 100.381C170.97 101.081 170.42 101.661 169.61 102.141C168.8 102.611 167.86 102.851 166.78 102.851C165.6 102.851 164.59 102.581 163.76 102.031C162.93 101.481 162.38 100.791 162.12 99.951C161.86 99.111 161.73 97.9111 161.73 96.3611V95.0111H165.83V97.531C165.83 98.311 165.89 98.801 166 99.021C166.12 99.241 166.32 99.3511 166.61 99.3511C166.9 99.3511 167.12 99.211 167.26 98.931C167.4 98.651 167.47 98.231 167.47 97.681C167.47 96.461 167.33 95.661 167.06 95.291C166.78 94.911 166.09 94.291 165 93.411C163.9 92.521 163.18 91.8811 162.82 91.4811C162.46 91.0811 162.17 90.531 161.93 89.821C161.7 89.111 161.58 88.2111 161.58 87.1111C161.58 85.5311 161.75 84.3711 162.08 83.6311C162.41 82.9011 162.95 82.321 163.69 81.911C164.43 81.501 165.33 81.291 166.37 81.291C167.52 81.291 168.49 81.5211 169.3 81.9711C170.11 82.4211 170.64 82.991 170.9 83.681C171.16 84.371 171.29 85.531 171.29 87.181V88.0011L171.3 87.9811Z" fill="white"/>
<path d="M172.791 81.7109H177.231C178.431 81.7109 179.351 81.8209 180.001 82.0509C180.651 82.2809 181.131 82.6109 181.461 83.0509C181.781 83.4809 182.011 84.011 182.121 84.631C182.241 85.251 182.291 86.201 182.291 87.501V89.3009C182.291 90.6209 182.181 91.5809 181.951 92.1909C181.731 92.8009 181.321 93.2609 180.721 93.5809C180.121 93.9009 179.341 94.0709 178.381 94.0709H177.191V102.401H172.781V81.7109H172.791ZM177.201 85.251V90.5209C177.331 90.5209 177.431 90.5309 177.531 90.5309C177.941 90.5309 178.221 90.4109 178.371 90.1709C178.531 89.9309 178.601 89.4209 178.601 88.6609V86.9609C178.601 86.2509 178.511 85.7909 178.331 85.5809C178.151 85.3709 177.771 85.261 177.201 85.261V85.251Z" fill="white"/>
<path d="M193.39 93.8308C193.39 95.9108 193.35 97.3809 193.27 98.2509C193.19 99.1109 192.94 99.9008 192.51 100.621C192.09 101.341 191.52 101.891 190.8 102.271C190.08 102.651 189.24 102.851 188.28 102.851C187.32 102.851 186.56 102.671 185.83 102.311C185.11 101.951 184.52 101.401 184.09 100.681C183.65 99.9608 183.39 99.1708 183.3 98.3208C183.22 97.4708 183.17 95.9808 183.17 93.8508V90.3108C183.17 88.2308 183.21 86.7609 183.29 85.8909C183.37 85.0309 183.62 84.2408 184.05 83.5208C184.47 82.8008 185.04 82.2508 185.76 81.8708C186.48 81.4908 187.32 81.3008 188.28 81.3008C189.19 81.3008 190 81.4808 190.73 81.8408C191.45 82.2008 192.03 82.7508 192.47 83.4708C192.91 84.1908 193.17 84.9808 193.26 85.8308C193.34 86.6808 193.39 88.1708 193.39 90.3008V93.8408V93.8308ZM188.98 87.0308C188.98 86.0708 188.94 85.4508 188.85 85.1808C188.76 84.9108 188.58 84.7808 188.31 84.7808C188.08 84.7808 187.9 84.8908 187.78 85.1108C187.66 85.3308 187.6 85.9708 187.6 87.0308V96.6908C187.6 97.8908 187.64 98.6308 187.72 98.9108C187.8 99.1908 187.99 99.3308 188.28 99.3308C188.57 99.3308 188.77 99.1708 188.86 98.8408C188.94 98.5208 188.99 97.7508 188.99 96.5308V87.0208L188.98 87.0308Z" fill="white"/>
<path d="M204.631 81.7109V102.401H200.761L198.471 92.991V102.401H194.781V81.7109H198.471L200.941 91.0309V81.7109H204.631Z" fill="white"/>
<path d="M215.49 87.9811H211.39V86.451C211.39 85.731 211.34 85.2811 211.23 85.0811C211.12 84.8811 210.95 84.791 210.71 84.791C210.44 84.791 210.24 84.921 210.11 85.191C209.97 85.451 209.91 85.8511 209.91 86.3911C209.91 87.0811 209.99 87.601 210.14 87.951C210.29 88.301 210.7 88.7211 211.39 89.2111C213.35 90.6311 214.59 91.8011 215.1 92.7111C215.61 93.6211 215.87 95.0911 215.87 97.1211C215.87 98.5911 215.73 99.6811 215.44 100.381C215.16 101.081 214.61 101.661 213.8 102.141C212.99 102.611 212.05 102.851 210.97 102.851C209.79 102.851 208.78 102.581 207.95 102.031C207.12 101.481 206.57 100.791 206.31 99.951C206.05 99.111 205.92 97.9111 205.92 96.3611V95.0111H210.02V97.531C210.02 98.311 210.08 98.801 210.19 99.021C210.3 99.241 210.51 99.3511 210.8 99.3511C211.09 99.3511 211.31 99.211 211.45 98.931C211.59 98.651 211.66 98.231 211.66 97.681C211.66 96.461 211.52 95.661 211.25 95.291C210.97 94.911 210.28 94.291 209.19 93.411C208.09 92.521 207.37 91.8811 207.01 91.4811C206.65 91.0811 206.36 90.531 206.12 89.821C205.89 89.111 205.77 88.2111 205.77 87.1111C205.77 85.5311 205.94 84.3711 206.27 83.6311C206.6 82.9011 207.14 82.321 207.88 81.911C208.62 81.501 209.52 81.291 210.56 81.291C211.71 81.291 212.68 81.5211 213.49 81.9711C214.3 82.4211 214.83 82.991 215.09 83.681C215.35 84.371 215.48 85.531 215.48 87.181V88.0011L215.49 87.9811Z" fill="white"/>
<path d="M221.4 81.7109V102.401H216.99V81.7109H221.4Z" fill="white"/>
<path d="M222.91 81.7109H227.31C228.7 81.7109 229.75 81.841 230.47 82.111C231.19 82.371 231.76 82.9109 232.21 83.7109C232.65 84.5109 232.87 85.811 232.87 87.601C232.87 88.811 232.71 89.651 232.4 90.131C232.09 90.611 231.47 90.971 230.56 91.231C231.58 91.511 232.27 91.981 232.63 92.631C232.99 93.281 233.18 94.281 233.18 95.631V97.5509C233.18 98.9509 233.05 99.9809 232.79 100.661C232.53 101.331 232.11 101.791 231.54 102.041C230.97 102.291 229.79 102.411 228.02 102.411H222.92V81.7209L222.91 81.7109ZM227.32 85.251V89.851C227.51 89.851 227.66 89.8409 227.76 89.8409C228.19 89.8409 228.47 89.7109 228.59 89.4509C228.71 89.1909 228.77 88.4509 228.77 87.2209C228.77 86.5709 228.72 86.121 228.62 85.861C228.52 85.601 228.39 85.441 228.24 85.371C228.08 85.301 227.78 85.261 227.32 85.251ZM227.32 93.0809V98.871C227.94 98.841 228.34 98.731 228.51 98.511C228.68 98.301 228.77 97.7709 228.77 96.9409V95.011C228.77 94.121 228.69 93.5909 228.54 93.4009C228.39 93.2109 227.98 93.1109 227.32 93.0809Z" fill="white"/>
<path d="M238.92 81.7109V98.261H241.6V102.401H234.51V81.7109H238.92Z" fill="white"/>
<path d="M242.41 81.7109H249.77V85.851H246.82V89.7709H249.58V93.7109H246.82V98.261H250.06V102.401H242.41V81.7109Z" fill="white"/>
<path d="M152.29 118.551H147.88V114.951C147.88 113.901 147.83 113.251 147.74 112.991C147.65 112.731 147.44 112.601 147.12 112.601C146.76 112.601 146.53 112.761 146.43 113.071C146.33 113.391 146.28 114.071 146.28 115.121V124.731C146.28 125.741 146.33 126.391 146.43 126.701C146.53 127.011 146.75 127.161 147.09 127.161C147.43 127.161 147.63 127.011 147.73 126.701C147.83 126.391 147.88 125.671 147.88 124.531V121.931H152.29V122.741C152.29 124.881 152.17 126.401 151.92 127.301C151.67 128.201 151.12 128.981 150.27 129.661C149.42 130.331 148.37 130.671 147.13 130.671C145.89 130.671 144.77 130.381 143.93 129.811C143.09 129.241 142.54 128.451 142.26 127.441C141.99 126.431 141.85 124.911 141.85 122.881V116.831C141.85 115.341 141.89 114.221 141.98 113.481C142.06 112.731 142.31 112.021 142.73 111.331C143.15 110.641 143.72 110.101 144.46 109.701C145.2 109.301 146.04 109.111 147 109.111C148.3 109.111 149.37 109.421 150.22 110.031C151.07 110.641 151.62 111.411 151.89 112.321C152.15 113.231 152.29 114.661 152.29 116.591V118.561V118.551Z" fill="white"/>
<path d="M163.7 121.661C163.7 123.741 163.66 125.211 163.58 126.081C163.5 126.941 163.25 127.741 162.82 128.451C162.4 129.171 161.83 129.711 161.11 130.101C160.39 130.481 159.55 130.681 158.59 130.681C157.63 130.681 156.87 130.501 156.14 130.141C155.42 129.781 154.84 129.231 154.4 128.511C153.96 127.791 153.7 127.001 153.61 126.151C153.53 125.301 153.48 123.811 153.48 121.681V118.141C153.48 116.061 153.52 114.591 153.6 113.721C153.68 112.861 153.93 112.061 154.36 111.351C154.78 110.631 155.35 110.081 156.07 109.701C156.79 109.321 157.63 109.121 158.59 109.121C159.5 109.121 160.31 109.301 161.04 109.661C161.76 110.021 162.34 110.571 162.78 111.291C163.22 112.011 163.48 112.801 163.57 113.651C163.65 114.501 163.7 115.991 163.7 118.121V121.661ZM159.28 114.861C159.28 113.901 159.24 113.281 159.15 113.011C159.06 112.741 158.88 112.611 158.61 112.611C158.38 112.611 158.2 112.721 158.08 112.941C157.96 113.161 157.9 113.801 157.9 114.861V124.521C157.9 125.721 157.94 126.461 158.02 126.741C158.1 127.021 158.29 127.161 158.58 127.161C158.87 127.161 159.07 127.001 159.16 126.671C159.24 126.351 159.29 125.581 159.29 124.361V114.851L159.28 114.861Z" fill="white"/>
<path d="M174.94 109.541V130.231H171.07L168.78 120.821V130.231H165.09V109.541H168.78L171.25 118.861V109.541H174.94Z" fill="white"/>
<path d="M185.8 115.811H181.7V114.281C181.7 113.561 181.65 113.111 181.54 112.911C181.43 112.711 181.26 112.621 181.02 112.621C180.75 112.621 180.55 112.751 180.42 113.021C180.28 113.281 180.22 113.681 180.22 114.221C180.22 114.911 180.3 115.431 180.45 115.781C180.6 116.131 181.01 116.551 181.7 117.041C183.66 118.461 184.9 119.631 185.41 120.541C185.92 121.451 186.18 122.921 186.18 124.951C186.18 126.421 186.04 127.511 185.75 128.211C185.47 128.911 184.92 129.491 184.11 129.971C183.3 130.441 182.36 130.681 181.28 130.681C180.1 130.681 179.09 130.411 178.26 129.861C177.43 129.311 176.88 128.621 176.62 127.781C176.36 126.941 176.23 125.741 176.23 124.191V122.841H180.33V125.361C180.33 126.141 180.39 126.631 180.5 126.851C180.62 127.071 180.82 127.181 181.11 127.181C181.4 127.181 181.62 127.041 181.76 126.761C181.9 126.481 181.97 126.061 181.97 125.511C181.97 124.291 181.83 123.491 181.56 123.121C181.28 122.741 180.59 122.121 179.5 121.241C178.4 120.351 177.68 119.711 177.32 119.311C176.96 118.911 176.67 118.361 176.43 117.651C176.2 116.941 176.08 116.041 176.08 114.941C176.08 113.361 176.25 112.201 176.58 111.461C176.91 110.731 177.45 110.151 178.19 109.741C178.93 109.331 179.83 109.121 180.87 109.121C182.02 109.121 182.99 109.351 183.8 109.801C184.61 110.251 185.14 110.821 185.4 111.511C185.66 112.201 185.79 113.361 185.79 115.011V115.831L185.8 115.811Z" fill="white"/>
<path d="M197.32 109.541V123.371C197.32 124.941 197.28 126.041 197.19 126.671C197.11 127.301 196.86 127.961 196.45 128.631C196.04 129.301 195.5 129.811 194.82 130.151C194.15 130.501 193.35 130.671 192.44 130.671C191.43 130.671 190.53 130.471 189.76 130.061C188.98 129.651 188.4 129.121 188.02 128.461C187.64 127.801 187.41 127.111 187.34 126.381C187.27 125.651 187.23 124.121 187.23 121.791V109.551H191.64V125.071C191.64 125.971 191.68 126.551 191.76 126.801C191.84 127.051 192 127.181 192.25 127.181C192.53 127.181 192.71 127.041 192.79 126.761C192.87 126.481 192.91 125.831 192.91 124.801V109.551H197.32V109.541Z" fill="white"/>
<path d="M212.39 109.541V130.231H208.53V116.261L206.99 130.231H204.25L202.63 116.581V130.231H198.77V109.541H204.48C204.65 110.781 204.82 112.251 205 113.941L205.63 119.201L206.65 109.541H212.39Z" fill="white"/>
<path d="M213.901 109.541H218.341C219.541 109.541 220.461 109.651 221.111 109.881C221.761 110.111 222.241 110.441 222.571 110.881C222.891 111.311 223.121 111.841 223.231 112.461C223.351 113.081 223.401 114.031 223.401 115.331V117.131C223.401 118.451 223.291 119.411 223.061 120.021C222.841 120.631 222.431 121.091 221.831 121.411C221.231 121.731 220.451 121.901 219.491 121.901H218.301V130.231H213.891V109.541H213.901ZM218.311 113.081V118.351C218.441 118.351 218.541 118.361 218.641 118.361C219.051 118.361 219.331 118.241 219.481 118.001C219.641 117.761 219.711 117.251 219.711 116.491V114.791C219.711 114.081 219.621 113.621 219.441 113.411C219.261 113.201 218.881 113.091 218.311 113.091V113.081Z" fill="white"/>
<path d="M233.3 109.541V113.681H230.68V130.231H226.27V113.681H223.66V109.541H233.3Z" fill="white"/>
<path d="M238.461 109.541V130.231H234.051V109.541H238.461Z" fill="white"/>
<path d="M250.06 121.661C250.06 123.741 250.02 125.211 249.94 126.081C249.86 126.941 249.61 127.741 249.19 128.451C248.77 129.171 248.2 129.711 247.48 130.101C246.76 130.481 245.92 130.681 244.96 130.681C244 130.681 243.24 130.501 242.51 130.141C241.79 129.781 241.2 129.231 240.77 128.511C240.33 127.791 240.07 127.001 239.98 126.151C239.9 125.301 239.85 123.811 239.85 121.681V118.141C239.85 116.061 239.89 114.591 239.97 113.721C240.05 112.861 240.3 112.061 240.73 111.351C241.15 110.631 241.72 110.081 242.44 109.701C243.16 109.321 244 109.121 244.96 109.121C245.87 109.121 246.68 109.301 247.41 109.661C248.13 110.021 248.71 110.571 249.15 111.291C249.59 112.011 249.85 112.801 249.94 113.651C250.02 114.501 250.07 115.991 250.07 118.121V121.661H250.06ZM245.65 114.861C245.65 113.901 245.61 113.281 245.52 113.011C245.43 112.741 245.25 112.611 244.98 112.611C244.75 112.611 244.57 112.721 244.45 112.941C244.33 113.161 244.27 113.801 244.27 114.861V124.521C244.27 125.721 244.31 126.461 244.39 126.741C244.47 127.021 244.66 127.161 244.95 127.161C245.24 127.161 245.44 127.001 245.53 126.671C245.61 126.351 245.66 125.581 245.66 124.361V114.851L245.65 114.861Z" fill="white"/>
<path d="M261.301 109.541V130.231H257.431L255.141 120.821V130.231H251.451V109.541H255.141L257.611 118.861V109.541H261.301Z" fill="white"/>
<path d="M149.61 137.371L152.13 158.061H147.62L147.38 154.341H145.8L145.54 158.061H140.98L143.23 137.371H149.61ZM147.28 150.681C147.06 148.341 146.83 145.441 146.61 141.991C146.16 145.951 145.88 148.851 145.76 150.681H147.28Z" fill="white"/>
<path d="M162.481 137.371V158.061H158.611L156.311 148.651V158.061H152.621V137.371H156.311L158.781 146.691V137.371H162.471H162.481Z" fill="white"/>
<path d="M164 137.371H167.3C169.43 137.371 170.87 137.491 171.62 137.731C172.37 137.971 172.94 138.361 173.33 138.911C173.72 139.461 173.97 140.061 174.06 140.731C174.16 141.401 174.21 142.711 174.21 144.671V151.921C174.21 153.781 174.14 155.021 174 155.651C173.86 156.281 173.61 156.771 173.25 157.121C172.89 157.471 172.45 157.721 171.93 157.861C171.41 158.001 170.62 158.071 169.56 158.071H164V137.381V137.371ZM168.41 140.911V154.521C169.05 154.521 169.44 154.361 169.58 154.051C169.73 153.741 169.8 152.891 169.8 151.511V143.471C169.8 142.531 169.77 141.931 169.73 141.671C169.68 141.411 169.57 141.211 169.39 141.091C169.22 140.971 168.89 140.901 168.41 140.901V140.911Z" fill="white"/>
<path d="M179.131 137.371H183.571C184.771 137.371 185.691 137.481 186.341 137.711C186.991 137.941 187.471 138.271 187.801 138.711C188.121 139.141 188.351 139.671 188.461 140.291C188.581 140.911 188.631 141.861 188.631 143.161V144.961C188.631 146.281 188.521 147.241 188.291 147.851C188.071 148.461 187.661 148.921 187.061 149.241C186.461 149.561 185.681 149.731 184.721 149.731H183.531V158.061H179.121V137.371H179.131ZM183.541 140.911V146.181C183.671 146.181 183.771 146.191 183.871 146.191C184.271 146.191 184.561 146.071 184.711 145.831C184.871 145.591 184.941 145.081 184.941 144.321V142.621C184.941 141.911 184.851 141.451 184.671 141.241C184.491 141.031 184.111 140.921 183.541 140.921V140.911Z" fill="white"/>
<path d="M189.641 137.371H192.761C194.841 137.371 196.251 137.471 196.991 137.661C197.731 137.861 198.331 138.361 198.791 139.161C199.251 139.971 199.491 141.251 199.491 143.011C199.491 144.621 199.331 145.701 199.001 146.261C198.671 146.811 198.031 147.151 197.061 147.261C197.931 147.521 198.521 147.881 198.821 148.321C199.121 148.761 199.311 149.171 199.381 149.541C199.451 149.911 199.491 150.931 199.491 152.601V158.061H195.391V151.181C195.391 150.071 195.321 149.391 195.181 149.121C195.041 148.861 194.661 148.721 194.051 148.721V158.051H189.641V137.361V137.371ZM194.051 140.911V145.511C194.551 145.511 194.891 145.431 195.091 145.261C195.291 145.091 195.391 144.551 195.391 143.641V142.501C195.391 141.841 195.291 141.411 195.101 141.211C194.911 141.011 194.561 140.901 194.051 140.901V140.911Z" fill="white"/>
<path d="M211.031 149.491C211.031 151.571 210.991 153.041 210.911 153.911C210.831 154.771 210.581 155.561 210.151 156.281C209.731 157.001 209.161 157.541 208.441 157.931C207.721 158.311 206.881 158.511 205.921 158.511C204.961 158.511 204.201 158.331 203.471 157.971C202.751 157.611 202.161 157.061 201.731 156.341C201.291 155.621 201.031 154.831 200.941 153.981C200.861 153.131 200.811 151.641 200.811 149.511V145.971C200.811 143.891 200.851 142.421 200.931 141.551C201.011 140.691 201.261 139.891 201.681 139.181C202.101 138.461 202.671 137.911 203.391 137.531C204.111 137.151 204.951 136.951 205.911 136.951C206.821 136.951 207.631 137.131 208.361 137.491C209.081 137.851 209.661 138.401 210.101 139.121C210.541 139.841 210.801 140.631 210.891 141.481C210.971 142.331 211.021 143.821 211.021 145.951V149.491H211.031ZM206.621 142.691C206.621 141.731 206.581 141.111 206.491 140.841C206.401 140.571 206.221 140.441 205.951 140.441C205.721 140.441 205.541 140.551 205.421 140.771C205.301 140.991 205.241 141.631 205.241 142.691V152.351C205.241 153.551 205.281 154.291 205.361 154.571C205.441 154.851 205.631 154.991 205.921 154.991C206.211 154.991 206.411 154.831 206.501 154.501C206.581 154.181 206.631 153.411 206.631 152.191V142.681L206.621 142.691Z" fill="white"/>
<path d="M212.42 137.371H215.72C217.85 137.371 219.29 137.491 220.04 137.731C220.79 137.971 221.36 138.361 221.75 138.911C222.14 139.461 222.39 140.061 222.48 140.731C222.58 141.401 222.63 142.711 222.63 144.671V151.921C222.63 153.781 222.56 155.021 222.42 155.651C222.28 156.281 222.03 156.771 221.67 157.121C221.31 157.471 220.87 157.721 220.35 157.861C219.83 158.001 219.04 158.071 217.98 158.071H212.42V137.381V137.371ZM216.83 140.911V154.521C217.47 154.521 217.86 154.361 218 154.051C218.15 153.741 218.22 152.891 218.22 151.511V143.471C218.22 142.531 218.19 141.931 218.15 141.671C218.1 141.411 217.99 141.211 217.81 141.091C217.64 140.971 217.31 140.901 216.82 140.901L216.83 140.911Z" fill="white"/>
<path d="M234.051 137.371V151.201C234.051 152.771 234.011 153.871 233.921 154.501C233.841 155.131 233.591 155.791 233.181 156.461C232.771 157.131 232.221 157.641 231.551 157.981C230.881 158.331 230.081 158.501 229.171 158.501C228.161 158.501 227.261 158.301 226.491 157.891C225.711 157.481 225.131 156.951 224.751 156.291C224.371 155.631 224.141 154.941 224.071 154.211C224.001 153.481 223.961 151.951 223.961 149.621V137.381H228.371V152.901C228.371 153.801 228.411 154.381 228.491 154.631C228.571 154.881 228.731 155.011 228.981 155.011C229.261 155.011 229.441 154.871 229.521 154.591C229.601 154.311 229.641 153.661 229.641 152.631V137.381H234.051V137.371Z" fill="white"/>
<path d="M245.801 146.381H241.391V142.781C241.391 141.731 241.341 141.081 241.251 140.821C241.161 140.561 240.951 140.431 240.631 140.431C240.271 140.431 240.041 140.591 239.941 140.901C239.841 141.221 239.791 141.901 239.791 142.951V152.561C239.791 153.571 239.841 154.221 239.941 154.531C240.041 154.841 240.261 154.991 240.601 154.991C240.941 154.991 241.141 154.841 241.241 154.531C241.341 154.221 241.391 153.501 241.391 152.361V149.761H245.801V150.571C245.801 152.711 245.681 154.231 245.431 155.131C245.181 156.031 244.631 156.811 243.781 157.491C242.931 158.161 241.881 158.501 240.641 158.501C239.401 158.501 238.281 158.211 237.441 157.641C236.601 157.071 236.051 156.281 235.771 155.271C235.501 154.261 235.361 152.741 235.361 150.711V144.661C235.361 143.171 235.401 142.051 235.491 141.311C235.571 140.561 235.821 139.851 236.241 139.161C236.661 138.471 237.231 137.931 237.971 137.531C238.711 137.131 239.551 136.941 240.511 136.941C241.811 136.941 242.881 137.251 243.731 137.861C244.581 138.471 245.131 139.241 245.401 140.151C245.661 141.061 245.801 142.491 245.801 144.421V146.391V146.381Z" fill="white"/>
<path d="M256.021 137.371V141.511H253.401V158.061H248.991V141.511H246.381V137.371H256.021Z" fill="white"/>
<path d="M261.18 137.371V158.061H256.77V137.371H261.18Z" fill="white"/>
<path d="M272.771 149.491C272.771 151.571 272.731 153.041 272.651 153.911C272.571 154.771 272.321 155.561 271.891 156.281C271.471 157.001 270.901 157.541 270.181 157.931C269.461 158.311 268.621 158.511 267.661 158.511C266.701 158.511 265.941 158.331 265.211 157.971C264.491 157.611 263.911 157.061 263.471 156.341C263.031 155.621 262.771 154.831 262.681 153.981C262.601 153.131 262.551 151.641 262.551 149.511V145.971C262.551 143.891 262.591 142.421 262.671 141.551C262.751 140.691 263.001 139.891 263.431 139.181C263.851 138.461 264.421 137.911 265.141 137.531C265.861 137.151 266.701 136.951 267.661 136.951C268.571 136.951 269.381 137.131 270.111 137.491C270.831 137.851 271.411 138.401 271.851 139.121C272.291 139.841 272.551 140.631 272.641 141.481C272.721 142.331 272.771 143.821 272.771 145.951V149.491ZM268.361 142.691C268.361 141.731 268.321 141.111 268.231 140.841C268.141 140.571 267.961 140.441 267.691 140.441C267.461 140.441 267.281 140.551 267.161 140.771C267.041 140.991 266.981 141.631 266.981 142.691V152.351C266.981 153.551 267.021 154.291 267.101 154.571C267.181 154.851 267.371 154.991 267.661 154.991C267.951 154.991 268.151 154.831 268.241 154.501C268.321 154.181 268.371 153.411 268.371 152.191V142.681L268.361 142.691Z" fill="white"/>
<path d="M284.01 137.371V158.061H280.14L277.85 148.651V158.061H274.16V137.371H277.85L280.32 146.691V137.371H284.01Z" fill="white"/>
<path d="M232.051 175.26C216.321 173.84 202.321 182.08 195.311 194.71C195.241 194.84 195.241 195.01 195.321 195.14L203.511 208.34C203.711 208.66 204.191 208.57 204.261 208.19C206.681 196.15 217.811 187.23 230.791 188.38C242.911 189.46 252.631 199.54 253.291 211.7C254.071 225.99 242.661 237.86 228.541 237.86C224.291 237.86 220.291 236.78 216.801 234.89C214.711 233.45 212.891 232.11 211.261 230.81C203.031 224.2 199.941 218.4 192.401 203.21C192.291 202.99 192.171 202.77 192.061 202.55C188.211 195.03 183.471 189.64 178.871 185.8C174.481 181.77 169.141 178.77 163.231 177.14C162.981 177.07 162.751 177 162.551 176.95C162.051 176.81 161.721 176.74 161.621 176.72V176.74C156.501 175.58 151.011 175.41 145.321 176.62C128.371 180.23 115.791 195.19 115.241 212.51C114.551 234.02 131.841 251.73 153.191 251.73C161.571 251.73 169.331 248.99 175.621 244.38L182.071 249.91C182.291 250.1 182.641 249.96 182.671 249.67L184.011 235.92L185.321 222.5C185.341 222.25 185.111 222.05 184.871 222.11L175.511 224.51L158.421 228.89C158.141 228.96 158.051 229.33 158.271 229.52L165.191 235.45C160.621 237.99 155.171 239.14 149.421 238.28C138.441 236.64 129.761 227.57 128.561 216.54C126.941 201.64 138.621 188.99 153.201 188.99C155.511 188.99 157.731 189.33 159.861 189.92C160.191 190.01 160.511 190.15 160.841 190.26C162.881 191 166.141 192.5 169.701 195.33C173.391 198.27 177.381 202.62 180.591 209.09C183.941 215.84 186.601 221.06 189.321 225.49C192.941 231.37 196.671 235.83 202.231 240.44C204.521 242.64 207.071 244.56 209.851 246.13C210.261 246.41 210.641 246.68 211.071 246.97L211.161 246.84C216.371 249.54 222.281 251.07 228.541 251.07C250.911 251.07 268.821 231.63 266.271 208.76C264.291 191.04 249.821 176.89 232.051 175.29V175.26Z" fill="white"/>
</svg>
