<svg width="318" height="313" viewBox="0 0 318 313" fill="none" xmlns="http://www.w3.org/2000/svg">
<path d="M299 27.68L2.91 0C1.18 23.37 0 46.88 0 70.68C0 154.17 10.97 235.12 31.36 312.29L317.5 231.11C304.5 179.87 297.58 126.2 297.58 70.91C297.58 56.38 298.06 41.96 299 27.67V27.68Z" fill="#367D46"/>
<path d="M126.32 59.3896H121.69V55.7897C121.69 54.7497 121.64 54.0897 121.54 53.8297C121.44 53.5697 121.22 53.4397 120.89 53.4397C120.51 53.4397 120.27 53.5997 120.16 53.9097C120.06 54.2297 120.01 54.9097 120.01 55.9597V65.5697C120.01 66.5797 120.06 67.2297 120.16 67.5397C120.26 67.8497 120.49 67.9997 120.85 67.9997C121.21 67.9997 121.42 67.8497 121.53 67.5397C121.64 67.2297 121.69 66.5097 121.69 65.3697V62.7697H126.32V63.5797C126.32 65.7197 126.19 67.2396 125.93 68.1396C125.67 69.0396 125.09 69.8197 124.2 70.4897C123.31 71.1597 122.21 71.4997 120.91 71.4997C119.61 71.4997 118.44 71.2096 117.56 70.6396C116.68 70.0696 116.1 69.2797 115.81 68.2697C115.52 67.2597 115.38 65.7397 115.38 63.7097V57.6597C115.38 56.1697 115.42 55.0497 115.51 54.2997C115.6 53.5497 115.86 52.8397 116.3 52.1497C116.74 51.4597 117.34 50.9197 118.11 50.5197C118.88 50.1197 119.77 49.9297 120.78 49.9297C122.14 49.9297 123.27 50.2397 124.15 50.8497C125.04 51.4597 125.62 52.2296 125.9 53.1396C126.18 54.0596 126.32 55.4797 126.32 57.4097V59.3797V59.3896Z" fill="white"/>
<path d="M132.48 50.3789V66.9289H135.29V71.0689H127.85V50.3789H132.48Z" fill="white"/>
<path d="M140.9 50.3789V71.0689H136.27V50.3789H140.9Z" fill="white"/>
<path d="M156.899 50.3789V71.0689H152.849V57.0989L151.229 71.0689H148.359L146.659 57.4189V71.0689H142.609V50.3789H148.599C148.779 51.6189 148.959 53.0889 149.149 54.7789L149.809 60.0389L150.869 50.3789H156.889H156.899Z" fill="white"/>
<path d="M166.63 50.3789L169.28 71.0689H164.55L164.3 67.3489H162.65L162.37 71.0689H157.59L159.95 50.3789H166.64H166.63ZM164.17 63.6789C163.94 61.3389 163.7 58.4389 163.46 54.9889C162.99 58.9489 162.69 61.8489 162.57 63.6789H164.16H164.17Z" fill="white"/>
<path d="M178 50.3789V54.5189H175.25V71.0689H170.62V54.5189H167.88V50.3789H177.99H178Z" fill="white"/>
<path d="M178.92 50.3789H186.64V54.5189H183.55V58.4389H186.44V62.3789H183.55V66.9289H186.95V71.0689H178.93V50.3789H178.92Z" fill="white"/>
<path d="M123.519 78.209L126.169 98.899H121.439L121.189 95.179H119.539L119.259 98.899H114.479L116.839 78.209H123.529H123.519ZM121.069 91.509C120.839 89.169 120.599 86.269 120.359 82.819C119.889 86.779 119.589 89.679 119.469 91.509H121.059H121.069Z" fill="white"/>
<path d="M137.62 87.2198H132.99V83.6198C132.99 82.5798 132.94 81.9198 132.84 81.6598C132.74 81.3998 132.52 81.2698 132.19 81.2698C131.81 81.2698 131.57 81.4298 131.46 81.7398C131.36 82.0598 131.31 82.7398 131.31 83.7898V93.3998C131.31 94.4098 131.36 95.0598 131.46 95.3698C131.56 95.6798 131.79 95.8298 132.15 95.8298C132.51 95.8298 132.72 95.6798 132.83 95.3698C132.94 95.0598 132.99 94.3398 132.99 93.1998V90.5998H137.62V91.4098C137.62 93.5498 137.49 95.0698 137.23 95.9698C136.97 96.8698 136.39 97.6498 135.5 98.3198C134.61 98.9898 133.51 99.3298 132.21 99.3298C130.91 99.3298 129.74 99.0398 128.86 98.4698C127.98 97.8998 127.4 97.1098 127.11 96.0998C126.82 95.0898 126.68 93.5698 126.68 91.5398V85.4898C126.68 83.9998 126.72 82.8798 126.81 82.1298C126.9 81.3798 127.16 80.6698 127.6 79.9798C128.04 79.2898 128.64 78.7498 129.41 78.3498C130.18 77.9498 131.07 77.7598 132.08 77.7598C133.44 77.7598 134.57 78.0698 135.45 78.6798C136.34 79.2898 136.92 80.0598 137.2 80.9698C137.48 81.8898 137.62 83.3098 137.62 85.2398V87.2098V87.2198Z" fill="white"/>
<path d="M148.47 78.209V82.349H145.72V98.899H141.09V82.349H138.35V78.209H148.46H148.47Z" fill="white"/>
<path d="M154.01 78.209V98.899H149.38V78.209H154.01Z" fill="white"/>
<path d="M166.31 90.329C166.31 92.409 166.27 93.8791 166.18 94.7491C166.1 95.6091 165.83 96.3991 165.39 97.1191C164.95 97.8391 164.35 98.389 163.59 98.769C162.84 99.149 161.96 99.3491 160.95 99.3491C160 99.3491 159.14 99.1691 158.38 98.8091C157.62 98.4491 157.01 97.9091 156.55 97.1791C156.09 96.4491 155.81 95.6691 155.73 94.8191C155.64 93.9691 155.6 92.4791 155.6 90.3491V86.8091C155.6 84.7291 155.64 83.259 155.73 82.389C155.81 81.519 156.08 80.739 156.52 80.019C156.96 79.299 157.56 78.7591 158.32 78.3691C159.07 77.9891 159.95 77.7891 160.96 77.7891C161.97 77.7891 162.77 77.969 163.53 78.329C164.29 78.689 164.9 79.229 165.36 79.959C165.82 80.679 166.1 81.4691 166.18 82.3191C166.27 83.1691 166.31 84.6591 166.31 86.7891V90.329ZM161.68 83.5291C161.68 82.5691 161.63 81.9491 161.54 81.6791C161.45 81.4091 161.26 81.2791 160.97 81.2791C160.73 81.2791 160.54 81.3891 160.42 81.6091C160.29 81.8291 160.23 82.4691 160.23 83.5291V93.1891C160.23 94.3891 160.27 95.1291 160.36 95.4091C160.44 95.6891 160.64 95.829 160.95 95.829C161.26 95.829 161.47 95.6691 161.55 95.3391C161.64 95.0191 161.68 94.2491 161.68 93.0291V83.519V83.5291Z" fill="white"/>
<path d="M178.23 78.209V98.899H174.17L171.76 89.489V98.899H167.89V78.209H171.76L174.35 87.529V78.209H178.22H178.23Z" fill="white"/>
<path d="M74.8496 50.8184V98.8883H65.2096V73.1183C65.2096 69.3983 65.1396 67.1583 64.9996 66.4083C64.8596 65.6583 64.4596 65.0883 63.8196 64.6983C63.1796 64.3083 61.7396 64.1183 59.5096 64.1183H58.5596V58.5183C63.2196 57.2683 66.7596 54.7084 69.1796 50.8184H74.8596H74.8496Z" fill="white"/>
<path d="M96.4098 71.6391C97.8698 72.2491 98.9598 73.2591 99.6798 74.6591C100.4 76.0591 100.75 79.3291 100.75 84.4791C100.75 88.2991 100.4 91.2692 99.6998 93.3792C98.9998 95.4892 97.7898 97.0891 96.0698 98.1891C94.3498 99.2891 92.1498 99.8391 89.4598 99.8391C86.4098 99.8391 84.0098 99.1991 82.2698 97.9291C80.5298 96.6491 79.3798 95.0891 78.8298 93.2391C78.2798 91.3891 78.0098 88.1791 78.0098 83.6091V79.8091H87.6498V87.6191C87.6498 89.6991 87.7498 91.0191 87.9498 91.5791C88.1498 92.1391 88.5898 92.4291 89.2698 92.4291C90.0198 92.4291 90.5098 92.0691 90.7498 91.3591C90.9898 90.6491 91.1098 88.7891 91.1098 85.7791V82.4491C91.1098 80.6091 90.9398 79.2591 90.6098 78.4091C90.2798 77.5591 89.7798 76.9991 89.1298 76.7291C88.4798 76.4591 87.2098 76.3091 85.3398 76.2691V69.2891C87.6298 69.2891 89.0498 69.1791 89.5898 68.9591C90.1298 68.7391 90.5198 68.2691 90.7598 67.5291C90.9998 66.7991 91.1198 65.6491 91.1198 64.0891V61.4191C91.1198 59.7391 90.9798 58.6291 90.6998 58.0891C90.4198 57.5591 89.9898 57.2891 89.3998 57.2891C88.7298 57.2891 88.2698 57.5691 88.0298 58.1391C87.7798 58.6991 87.6598 59.9091 87.6598 61.7491V65.6991H78.0198V61.5991C78.0198 57.0091 78.8598 53.9091 80.5498 52.2891C82.2398 50.6791 84.9198 49.8691 88.5898 49.8691C93.1898 49.8691 96.2998 50.9891 97.9398 53.2191C99.5798 55.4491 100.4 58.5591 100.4 62.5391C100.4 65.2291 100.11 67.1691 99.5198 68.3691C98.9298 69.5691 97.8998 70.6591 96.4198 71.6491L96.4098 71.6391Z" fill="white"/>
<path d="M72.6797 180.528C72.6797 180.528 100.32 135.318 160.54 135.318C220.76 135.318 248.77 178.748 248.77 178.748C248.77 178.748 223.56 225.178 160.54 225.178C97.5197 225.178 72.6797 180.518 72.6797 180.518V180.528Z" fill="white"/>
<path d="M127 193.338C126.51 192.068 126.07 190.768 125.72 189.438C126.08 191.097 126.51 192.498 127 193.338Z" fill="#367D46"/>
<path d="M156.85 191.937C155.34 193.577 155.89 197.417 155.06 198.237C154.23 199.057 153.43 199.337 153.29 198.237C153.15 197.137 153.7 195.907 153.98 194.127C154.25 192.347 154.39 192.207 154.66 190.977C154.93 189.747 156.85 189.467 156.85 189.467C159.18 190.147 158.36 190.287 156.85 191.937ZM168.16 186.467L166.58 185.217C166.58 185.217 166.85 183.847 167.26 183.847C167.67 183.847 169.73 184.537 169.73 184.537L168.15 186.467H168.16ZM187.39 183.847C187.01 183.847 186.71 183.537 186.71 183.167C186.71 182.797 187.02 182.477 187.39 182.477C187.76 182.477 188.08 182.787 188.08 183.167C188.08 183.547 187.77 183.847 187.39 183.847ZM190.42 189.467L188.64 188.097C188.64 188.097 188.5 186.867 188.64 186.467C188.78 186.077 189.87 186.867 190.42 186.467L191.38 187.907L190.42 189.467Z" fill="#367D46"/>
<path d="M127.67 194.127C129.86 195.357 131.37 193.307 132.47 193.167C133.57 193.027 134.66 192.997 135.76 194.517C136.86 196.047 137.27 197.547 138.5 198.647C139.73 199.747 139.73 200.427 140.01 202.077C140.28 203.717 140.42 207.967 143.16 207.287C145.9 206.607 148.23 203.857 148.5 201.667C148.77 199.477 149.05 199.197 150.28 197.827C151.51 196.457 152.61 193.987 152.06 192.207C151.51 190.427 151.24 191.247 153.02 189.327C154.8 187.407 154.8 185.767 153.7 184.397C152.6 183.027 149.45 180.837 149.59 179.057C149.73 177.277 150 175.907 151.92 177.957C153.84 180.007 156.44 182.757 157.54 181.247C158.64 179.737 160.14 179.337 158.23 177.277C156.31 175.217 154.53 174.117 154.53 172.617C154.53 171.117 155.08 169.467 157.41 171.657C159.74 173.847 160.7 174.127 161.25 176.037C161.8 177.957 160.84 178.097 163.44 178.777C166.04 179.467 167.96 179.327 169.19 180.697C170.42 182.067 171.11 184.397 172.2 183.167C173.3 181.937 172.47 182.347 174.26 179.737C176.04 177.137 171.93 176.857 174.26 175.627C176.59 174.397 177.55 175.767 178.92 178.507C180.29 181.247 180.84 187.277 186.32 188.787C186.32 188.787 182.89 184.407 184.54 181.937C186.18 179.467 188.38 178.797 189.75 177.287C191.12 175.777 190.3 173.447 190.71 172.347C191.12 171.247 190.98 170.977 192.77 172.077C194.35 173.047 195.17 174.657 196.48 173.207C193.24 156.487 178.52 143.857 160.85 143.857C155.37 143.857 150.17 145.077 145.51 147.257C148.87 147.107 152.58 147.437 153.21 149.597C154.41 153.667 155.12 153.187 156.08 154.147C157.04 155.107 156.8 157.737 154.88 158.457C152.97 159.177 147.29 159.657 148.21 158.457C149.13 157.257 149.61 155.827 151.77 155.347C152.07 155.277 152.24 155.247 152.31 155.227C151.93 155.307 149.61 155.827 149.61 155.827H146.74C144.83 155.827 138.36 155.587 137.4 157.737C136.44 159.887 140.03 161.567 141.71 161.327C143.39 161.087 143.86 159.497 145.06 159.697C146.26 159.897 146.74 162.527 145.78 162.767C144.82 163.007 143.43 165.377 140.14 164.007C136.85 162.637 135.76 163.737 133.84 165.237C131.92 166.747 131.78 168.527 130.83 168.247C130.02 168.017 128.02 166.747 126.76 167.607C126.43 168.487 126.15 169.387 125.89 170.307C126.19 171.327 127.17 171.927 128.22 171.407C129.86 170.587 134.52 167.847 135.89 168.117C137.26 168.387 136.58 168.807 137.4 170.307C138.22 171.817 138.91 172.227 138.91 172.227C138.91 172.227 137.81 170.167 138.77 169.487C139.73 168.797 140.21 168.937 141.2 170.037C142.19 171.137 144.11 169.487 143.7 171.407C143.29 173.327 146.1 176.207 141.2 176.207C136.3 176.207 132.74 173.327 131.78 172.917C130.82 172.507 125.48 172.237 124.79 176.207C124.35 178.787 124.77 185.047 125.72 189.467C126.07 190.797 126.5 192.097 127 193.367C127.21 193.737 127.44 194.027 127.67 194.157V194.127Z" fill="#367D46"/>
<path d="M156.85 189.467C156.85 189.467 154.93 189.737 154.66 190.977C154.39 192.207 154.25 192.347 153.98 194.127C153.71 195.907 153.16 197.137 153.29 198.237C153.43 199.337 154.23 199.057 155.06 198.237C155.89 197.417 155.34 193.577 156.85 191.937C158.36 190.297 159.18 190.157 156.85 189.467Z" fill="#367D46"/>
<path d="M196.78 175.138C196.71 175.118 196.66 175.088 196.58 175.078C196.58 175.078 196.44 175.348 195.89 176.448C195.34 177.548 194.66 177.268 194.25 179.048C193.84 180.828 195.35 184.528 196.58 185.898C196.61 185.928 196.63 185.938 196.66 185.968C196.97 184.068 197.13 182.128 197.13 180.148C197.13 178.448 197 176.778 196.78 175.138Z" fill="#367D46"/>
<path d="M191.52 190.977C190.3 191.667 187.14 192.617 184.81 193.447C182.48 194.267 181.11 193.997 178.78 197.997C176.45 201.997 179.74 204.407 182.48 204.407C185.22 204.407 184.12 204.957 185.91 205.227C186.29 205.287 186.61 205.357 186.89 205.437C190.73 201.477 193.68 196.657 195.4 191.287C195.39 191.187 195.38 191.067 195.36 190.977C194.81 188.647 191.52 190.977 191.52 190.977Z" fill="#367D46"/>
<path d="M173.16 211.557C170.83 212.827 168.78 211.797 162.47 209.467C156.17 207.137 150.14 214.127 150.14 214.127L149.75 214.727C153.24 215.847 156.96 216.457 160.83 216.457C168.81 216.457 176.18 213.877 182.18 209.517C181.5 209.277 180.44 209.187 178.78 208.997C175.77 208.657 175.49 210.297 173.16 211.567V211.557Z" fill="#367D46"/>
<path d="M134.66 160.287C134.25 159.877 133.56 159.327 131.1 160.287C130.72 160.437 130.37 160.657 130.04 160.917C129.3 162.087 128.63 163.307 128.03 164.567C128.53 164.207 129.21 163.677 129.86 163.027C131.09 161.797 135.07 160.697 134.66 160.287Z" fill="#367D46"/>
<path d="M136.85 153.848C137.09 153.308 137.09 153.008 136.91 152.848C135.53 154.058 134.23 155.378 133.05 156.788C133.53 156.598 134.08 156.458 134.69 156.458C136.91 156.458 136.17 155.358 136.85 153.858V153.848Z" fill="#367D46"/>
<path d="M166.58 185.218L168.16 186.468L169.74 184.538C169.74 184.538 167.68 183.848 167.27 183.848C166.86 183.848 166.59 185.218 166.59 185.218H166.58Z" fill="#367D46"/>
<path d="M188.64 186.467C188.5 186.867 188.64 188.097 188.64 188.097L190.42 189.467L191.38 187.907L190.42 186.467C189.87 186.867 188.78 186.077 188.64 186.467Z" fill="#367D46"/>
<path d="M187.39 182.477C187.01 182.477 186.71 182.787 186.71 183.167C186.71 183.547 187.02 183.847 187.39 183.847C187.76 183.847 188.08 183.537 188.08 183.167C188.08 182.797 187.77 182.477 187.39 182.477Z" fill="#367D46"/>
</svg>
