<svg width="353" height="330" viewBox="0 0 353 330" fill="none" xmlns="http://www.w3.org/2000/svg">
<path d="M86.09 0C41.55 93.16 11.9 194.71 0 301.55L296.2 329.24C304.51 259.81 323.79 193.74 352.24 132.82L86.08 0H86.09Z" fill="#0B97DB"/>
<path d="M146.07 96.4883V113.038H148.88V117.178H141.44V96.4883H146.07Z" fill="white"/>
<path d="M154.49 96.4883V117.178H149.86V96.4883H154.49Z" fill="white"/>
<path d="M156.221 96.4883H164.061V100.628H160.851V104.548H163.711V108.488H160.851V117.178H156.221V96.4883Z" fill="white"/>
<path d="M165.04 96.4883H172.76V100.628H169.67V104.548H172.56V108.488H169.67V113.038H173.07V117.178H165.05V96.4883H165.04Z" fill="white"/>
<path d="M141.44 124.318H146.06C147.52 124.318 148.62 124.448 149.37 124.718C150.12 124.978 150.73 125.518 151.19 126.318C151.65 127.128 151.88 128.418 151.88 130.208C151.88 131.418 151.72 132.258 151.39 132.738C151.06 133.218 150.42 133.578 149.46 133.838C150.53 134.118 151.26 134.588 151.64 135.238C152.02 135.888 152.21 136.888 152.21 138.238V140.158C152.21 141.558 152.07 142.588 151.8 143.268C151.52 143.938 151.09 144.398 150.49 144.648C149.89 144.898 148.66 145.018 146.8 145.018H141.45V124.328L141.44 124.318ZM146.07 127.858V132.458C146.27 132.458 146.42 132.448 146.53 132.448C146.98 132.448 147.27 132.318 147.4 132.058C147.52 131.798 147.59 131.058 147.59 129.828C147.59 129.178 147.54 128.728 147.44 128.468C147.34 128.208 147.2 128.048 147.04 127.978C146.88 127.908 146.55 127.868 146.08 127.868L146.07 127.858ZM146.07 135.678V141.468C146.72 141.438 147.14 141.328 147.32 141.108C147.5 140.898 147.59 140.368 147.59 139.538V137.608C147.59 136.718 147.51 136.188 147.35 135.998C147.19 135.808 146.76 135.708 146.07 135.678Z" fill="white"/>
<path d="M153.74 124.318H161.46V128.458H158.37V132.378H161.26V136.318H158.37V140.868H161.77V145.008H153.75V124.318H153.74Z" fill="white"/>
<path d="M167.58 124.318V140.868H170.39V145.008H162.95V124.318H167.58Z" fill="white"/>
<path d="M181.62 136.438C181.62 138.518 181.58 139.988 181.49 140.858C181.41 141.718 181.14 142.518 180.7 143.228C180.26 143.948 179.66 144.498 178.9 144.878C178.15 145.258 177.27 145.458 176.26 145.458C175.31 145.458 174.45 145.278 173.69 144.918C172.93 144.558 172.32 144.018 171.86 143.288C171.4 142.558 171.12 141.778 171.04 140.928C170.95 140.078 170.91 138.588 170.91 136.458V132.918C170.91 130.838 170.95 129.368 171.04 128.498C171.12 127.628 171.39 126.848 171.83 126.128C172.27 125.408 172.87 124.868 173.63 124.478C174.38 124.098 175.26 123.898 176.27 123.898C177.28 123.898 178.08 124.078 178.84 124.438C179.6 124.798 180.21 125.338 180.67 126.068C181.13 126.788 181.41 127.578 181.49 128.428C181.58 129.278 181.62 130.768 181.62 132.898V136.438ZM176.99 129.638C176.99 128.678 176.94 128.058 176.85 127.788C176.76 127.518 176.57 127.388 176.28 127.388C176.04 127.388 175.85 127.498 175.73 127.718C175.6 127.938 175.54 128.578 175.54 129.638V139.298C175.54 140.498 175.58 141.238 175.67 141.518C175.75 141.798 175.95 141.938 176.26 141.938C176.57 141.938 176.78 141.778 176.86 141.448C176.95 141.128 176.99 140.358 176.99 139.138V129.628V129.638Z" fill="white"/>
<path d="M200.63 124.319L198.57 145.009H192.79C192.26 141.829 191.79 138.209 191.39 134.159C191.21 135.899 190.78 139.519 190.1 145.009H184.36L182.29 124.319H186.79L187.28 131.539L187.75 138.519C187.92 134.909 188.35 130.179 189.03 124.319H193.84C193.9 124.929 194.07 127.199 194.34 131.139L194.85 139.009C195.11 133.999 195.54 129.099 196.14 124.309H200.64L200.63 124.319Z" fill="white"/>
<path d="M222.66 124.319L220.6 145.009H214.82C214.29 141.829 213.82 138.209 213.42 134.159C213.24 135.899 212.81 139.519 212.13 145.009H206.39L204.32 124.319H208.82L209.31 131.539L209.78 138.519C209.95 134.909 210.38 130.179 211.06 124.319H215.87C215.93 124.929 216.1 127.199 216.37 131.139L216.88 139.009C217.14 133.999 217.57 129.099 218.17 124.309H222.67L222.66 124.319Z" fill="white"/>
<path d="M231.221 124.318L233.871 145.008H229.141L228.891 141.288H227.231L226.951 145.008H222.171L224.531 124.318H231.221ZM228.761 137.628C228.531 135.288 228.291 132.388 228.051 128.938C227.581 132.898 227.281 135.798 227.161 137.628H228.751H228.761Z" fill="white"/>
<path d="M242.591 124.318V128.458H239.841V145.008H235.211V128.458H232.471V124.318H242.581H242.591Z" fill="white"/>
<path d="M243.511 124.318H251.231V128.458H248.141V132.378H251.031V136.318H248.141V140.868H251.541V145.008H243.521V124.318H243.511Z" fill="white"/>
<path d="M252.73 124.319H256.01C258.19 124.319 259.67 124.419 260.45 124.609C261.22 124.809 261.85 125.309 262.34 126.109C262.83 126.919 263.07 128.199 263.07 129.959C263.07 131.569 262.9 132.649 262.55 133.209C262.21 133.759 261.53 134.099 260.52 134.209C261.44 134.469 262.05 134.829 262.37 135.269C262.69 135.709 262.88 136.119 262.96 136.489C263.04 136.859 263.07 137.879 263.07 139.549V145.009H258.77V138.129C258.77 137.019 258.69 136.339 258.54 136.069C258.39 135.809 258 135.669 257.36 135.669V144.999H252.73V124.309V124.319ZM257.36 127.859V132.459C257.88 132.459 258.24 132.379 258.45 132.209C258.66 132.039 258.76 131.509 258.76 130.589V129.449C258.76 128.789 258.66 128.359 258.46 128.159C258.26 127.959 257.89 127.849 257.36 127.849V127.859Z" fill="white"/>
<path d="M97.1806 96.9277V144.998H87.5406V119.228C87.5406 115.508 87.4706 113.268 87.3306 112.518C87.1906 111.768 86.7906 111.198 86.1506 110.808C85.5106 110.418 84.0706 110.228 81.8406 110.228H80.8906V104.628C85.5506 103.378 89.0906 100.818 91.5106 96.9277H97.1906H97.1806Z" fill="white"/>
<path d="M120.29 96.9277V128.338H123.03V136.538H120.29V144.998H110.65V136.538H99.2002V128.338L107.53 96.9277H120.29ZM110.65 128.338V107.878L106.39 128.338H110.65Z" fill="white"/>
<path d="M247.241 171.268C245.451 172.258 231.001 179.698 215.431 171.158C215.431 171.158 200.071 180.278 183.441 171.158C183.441 171.158 168.081 180.278 151.451 171.158C151.451 171.158 136.091 180.278 119.461 171.158V183.318C119.461 183.318 135.141 190.838 151.451 183.318C151.451 183.318 167.131 190.838 183.441 183.318C183.441 183.318 199.121 190.838 215.431 183.318C215.431 183.318 230.991 190.778 247.241 183.398V171.268Z" fill="white"/>
<path d="M247.241 191.358C245.451 192.348 231.001 199.788 215.431 191.248C215.431 191.248 200.071 200.368 183.441 191.248C183.441 191.248 168.081 200.368 151.451 191.248C151.451 191.248 136.091 200.368 119.461 191.248V203.408C119.461 203.408 135.141 210.928 151.451 203.408C151.451 203.408 167.131 210.928 183.441 203.408C183.441 203.408 199.121 210.928 215.431 203.408C215.431 203.408 230.991 210.868 247.241 203.488V191.358Z" fill="white"/>
<path d="M245.991 246.769C204.601 196.749 158.981 232.429 149.661 240.669C145.681 231.149 135.661 223.549 122.811 220.229C121.061 219.779 119.701 221.779 120.841 223.189C125.791 229.339 128.981 238.959 128.981 249.779C128.981 260.599 125.791 270.219 120.841 276.369C119.701 277.779 121.061 279.779 122.811 279.329C136.031 275.919 146.261 267.959 149.991 258.059C205.541 305.929 243.131 256.869 246.001 253.529C248.901 250.149 246.001 246.769 246.001 246.769H245.991ZM213.311 252.079C209.311 252.079 206.061 248.839 206.061 244.829C206.061 240.819 209.301 237.579 213.311 237.579C217.321 237.579 220.561 240.819 220.561 244.829C220.561 248.839 217.321 252.079 213.311 252.079Z" fill="white"/>
</svg>
