<svg width="390" height="383" viewBox="0 0 390 383" fill="none" xmlns="http://www.w3.org/2000/svg">
<path d="M389.37 219.76L189.41 0C113.28 71.92 49.06 156.24 0 249.79L266 382.53C298.42 321.88 340.18 266.99 389.37 219.76Z" fill="#56BF28"/>
<path d="M136.88 108.35V156.42H127.24V130.65C127.24 126.93 127.17 124.69 127.03 123.94C126.89 123.19 126.49 122.62 125.85 122.23C125.21 121.84 123.77 121.65 121.54 121.65H120.59V116.05C125.25 114.8 128.79 112.24 131.21 108.35H136.89H136.88Z" fill="white"/>
<path d="M161.369 108.35V116.04H149.419V124.21C150.919 122.01 152.839 120.91 155.189 120.91C157.849 120.91 159.849 121.84 161.209 123.69C162.569 125.54 163.249 129.1 163.249 134.37V141.23C163.249 144.63 163.119 147.13 162.859 148.73C162.599 150.32 162.039 151.8 161.179 153.15C160.319 154.51 159.119 155.55 157.589 156.27C156.049 156.99 154.179 157.35 151.969 157.35C149.489 157.35 147.299 156.81 145.409 155.73C143.519 154.65 142.169 153.04 141.379 150.9C140.589 148.76 140.189 145.46 140.189 140.98V138.37H149.829V141.37C149.829 144.48 149.919 146.68 150.089 147.99C150.269 149.3 150.869 149.95 151.899 149.95C152.379 149.95 152.759 149.76 153.059 149.39C153.359 149.02 153.509 148.61 153.539 148.17C153.559 147.74 153.589 145.84 153.619 142.5V132.97C153.619 131.17 153.469 129.94 153.169 129.29C152.869 128.64 152.369 128.31 151.669 128.31C151.219 128.31 150.849 128.48 150.549 128.81C150.249 129.15 150.049 129.51 149.969 129.89C149.879 130.28 149.839 131.17 149.839 132.58H140.299L140.709 108.35H161.389H161.369Z" fill="white"/>
<path d="M183.92 107.92V124.47H186.73V128.61H179.29V107.92H183.92Z" fill="white"/>
<path d="M192.35 107.92V128.61H187.72V107.92H192.35Z" fill="white"/>
<path d="M194.07 107.92H201.91V112.06H198.7V115.98H201.56V119.92H198.7V128.61H194.07V107.92Z" fill="white"/>
<path d="M202.891 107.92H210.611V112.06H207.521V115.98H210.411V119.92H207.521V124.47H210.921V128.61H202.901V107.92H202.891Z" fill="white"/>
<path d="M189.87 147.86C189.87 149.94 189.83 151.41 189.74 152.28C189.66 153.14 189.39 153.93 188.95 154.65C188.51 155.37 187.91 155.92 187.15 156.3C186.4 156.68 185.52 156.88 184.51 156.88C183.5 156.88 182.7 156.7 181.94 156.34C181.18 155.98 180.57 155.44 180.11 154.71C179.65 153.98 179.37 153.2 179.29 152.35C179.2 151.5 179.16 150.01 179.16 147.88V144.34C179.16 142.26 179.2 140.79 179.29 139.92C179.37 139.05 179.64 138.27 180.08 137.55C180.52 136.83 181.12 136.29 181.88 135.9C182.63 135.52 183.51 135.32 184.52 135.32C185.47 135.32 186.33 135.5 187.09 135.86C187.85 136.22 188.46 136.76 188.92 137.49C189.38 138.21 189.66 139 189.74 139.85C189.83 140.7 189.87 142.19 189.87 144.32V147.86ZM185.24 141.06C185.24 140.1 185.19 139.48 185.1 139.21C185.01 138.94 184.82 138.81 184.53 138.81C184.29 138.81 184.1 138.92 183.98 139.14C183.85 139.36 183.79 140 183.79 141.06V150.72C183.79 151.92 183.83 152.66 183.92 152.94C184 153.22 184.2 153.36 184.51 153.36C184.82 153.36 185.03 153.2 185.11 152.87C185.2 152.55 185.24 151.78 185.24 150.56V141.05V141.06Z" fill="white"/>
<path d="M201.79 135.75V156.44H197.73L195.32 147.03V156.44H191.45V135.75H195.32L197.91 145.07V135.75H201.78H201.79Z" fill="white"/>
<path d="M211.97 135.75V152.3H214.78V156.44H207.34V135.75H211.97Z" fill="white"/>
<path d="M224.33 135.75L226.98 156.44H222.25L222 152.72H220.35L220.07 156.44H215.29L217.65 135.75H224.34H224.33ZM221.88 149.05C221.65 146.71 221.41 143.81 221.18 140.36C220.71 144.32 220.41 147.22 220.29 149.05H221.88Z" fill="white"/>
<path d="M237.96 135.75V156.44H233.9L231.49 147.03V156.44H227.62V135.75H231.49L234.08 145.07V135.75H237.95H237.96Z" fill="white"/>
<path d="M239.68 135.75H243.14C245.37 135.75 246.89 135.87 247.67 136.11C248.46 136.35 249.06 136.74 249.47 137.29C249.88 137.84 250.14 138.44 250.24 139.11C250.34 139.78 250.39 141.09 250.39 143.05V150.3C250.39 152.16 250.31 153.4 250.16 154.03C250.01 154.66 249.75 155.15 249.37 155.5C249 155.85 248.53 156.1 247.99 156.24C247.44 156.38 246.61 156.45 245.51 156.45H239.67V135.76L239.68 135.75ZM244.31 139.29V152.9C244.98 152.9 245.39 152.74 245.54 152.43C245.69 152.12 245.77 151.27 245.77 149.89V141.85C245.77 140.91 245.74 140.31 245.69 140.05C245.64 139.79 245.52 139.59 245.34 139.47C245.16 139.35 244.81 139.28 244.31 139.28V139.29Z" fill="white"/>
<path d="M282.2 272.939H165.96V282.319H282.2V272.939Z" fill="white"/>
<path d="M282.2 286.859H165.96V296.239H282.2V286.859Z" fill="white"/>
<path d="M205.87 247.75H197.52V267.24H205.87V247.75Z" fill="white"/>
<path d="M176.47 221.57C173.82 223.9 172.15 227.31 172.15 231.11C172.15 238.14 177.85 243.83 184.87 243.83C185.26 243.83 185.65 243.81 186.04 243.77H211.21C211.6 243.79 211.98 243.83 212.38 243.83C212.78 243.83 213.16 243.8 213.55 243.77H213.8C223.43 243.03 231.02 235.01 231.02 225.2C231.02 215.92 224.23 208.25 215.35 206.82C216.56 204.51 217.25 201.88 217.25 199.09C217.25 189.84 209.75 182.35 200.51 182.35C191.95 182.35 184.9 188.78 183.9 197.06C183.85 197.06 183.81 197.06 183.76 197.06C176.39 197.06 170.42 203.03 170.42 210.4C170.42 215.08 172.84 219.19 176.48 221.57H176.47Z" fill="white"/>
<path d="M277.95 228.502C267.95 221.002 259.6 229.042 259.6 229.042C259.6 229.042 251.25 221.002 241.25 228.502C239.71 229.652 238.64 232.322 243.4 231.102C247.86 229.962 254.42 231.242 258.77 235.642C259.22 236.102 259.99 236.102 260.45 235.642C264.8 231.242 271.35 229.962 275.82 231.102C280.58 232.322 279.51 229.652 277.97 228.502H277.95Z" fill="white"/>
<path d="M259.6 236.171C259.23 236.171 258.89 236.031 258.63 235.771C254.3 231.381 247.71 230.191 243.44 231.281C241.41 231.801 240.21 231.691 239.85 230.951C239.49 230.201 240.22 229.041 241.13 228.361C250.48 221.351 258.5 227.841 259.59 228.801C260.69 227.841 268.71 221.351 278.05 228.361C278.96 229.051 279.69 230.201 279.33 230.951C278.97 231.691 277.77 231.801 275.74 231.281C271.47 230.191 264.89 231.381 260.55 235.771C260.3 236.031 259.95 236.171 259.58 236.171H259.6ZM246.76 230.521C250.67 230.521 255.37 231.941 258.89 235.511C259.26 235.881 259.94 235.881 260.31 235.511C264.95 230.811 271.62 229.841 275.85 230.921C277.61 231.371 278.76 231.321 279.02 230.781C279.29 230.231 278.63 229.231 277.85 228.641C268.09 221.321 259.81 229.081 259.73 229.161L259.6 229.281L259.47 229.161C259.39 229.081 251.11 221.321 241.35 228.641C240.57 229.231 239.91 230.231 240.18 230.781C240.44 231.321 241.59 231.371 243.35 230.921C244.37 230.661 245.53 230.521 246.76 230.521Z" fill="white"/>
<path d="M259.98 198.001C251.24 192.151 244.59 199.271 244.59 199.271C244.59 199.271 237.22 192.891 229.15 199.641C227.91 200.681 227.13 202.971 231.07 201.731C234.77 200.571 240.33 201.351 244.18 204.861C244.58 205.231 245.23 205.191 245.59 204.791C249.04 200.901 254.49 199.531 258.29 200.291C262.34 201.101 261.32 198.911 259.98 198.011V198.001Z" fill="white"/>
<path d="M244.84 205.48C244.5 205.48 244.18 205.36 243.93 205.13C240.15 201.69 234.65 200.99 231.18 202.08C229.39 202.64 228.29 202.57 227.9 201.86C227.5 201.12 228.12 200.02 228.91 199.36C236.26 193.21 243.14 197.73 244.56 198.79C245.86 197.58 252.23 192.37 260.18 197.7C261.04 198.27 261.77 199.3 261.45 200.08C261.14 200.82 260.05 201.01 258.21 200.65C254.64 199.93 249.24 201.21 245.85 205.03C245.61 205.3 245.28 205.46 244.91 205.48C244.88 205.48 244.86 205.48 244.83 205.48H244.84ZM234.61 200.86C237.79 200.86 241.5 201.91 244.43 204.58C244.55 204.69 244.7 204.75 244.88 204.74C245.05 204.74 245.21 204.66 245.31 204.54C249.05 200.32 254.7 199.2 258.36 199.93C259.97 200.25 260.67 200.06 260.78 199.8C260.9 199.5 260.49 198.79 259.78 198.31C251.41 192.7 245.12 199.25 244.86 199.53L244.62 199.79L244.35 199.56C244.06 199.31 237.11 193.47 229.38 199.93C228.72 200.48 228.39 201.23 228.54 201.52C228.68 201.77 229.39 201.88 230.96 201.39C232.02 201.06 233.26 200.87 234.6 200.87L234.61 200.86Z" fill="white"/>
<path d="M275.85 190.63C271.34 183.9 264.66 187.46 264.66 187.46C264.66 187.46 261.26 180.7 253.69 183.6C252.53 184.05 251.34 185.55 254.46 185.68C257.39 185.8 261.08 187.87 262.81 191.53C262.99 191.91 263.45 192.06 263.82 191.85C267.34 189.85 271.56 190.29 274.02 191.88C276.64 193.57 276.54 191.65 275.85 190.62V190.63Z" fill="white"/>
<path d="M275.66 193.11C274.91 193.11 274.07 192.57 273.73 192.35C271.49 190.9 267.46 190.44 264.1 192.35C263.79 192.53 263.42 192.56 263.09 192.46C262.75 192.35 262.47 192.11 262.32 191.79C260.67 188.3 257.11 186.36 254.44 186.25C253.87 186.23 252.12 186.16 251.93 185.02C251.8 184.21 252.62 183.45 253.49 183.11C260.23 180.52 263.9 185.25 264.88 186.78C266.56 186.09 272.28 184.35 276.3 190.34C276.82 191.12 277.05 192.22 276.48 192.8C276.25 193.04 275.96 193.13 275.65 193.13L275.66 193.11ZM268.95 189.97C271.06 189.97 272.98 190.57 274.32 191.43C275.38 192.11 275.71 192 275.72 192.01C275.77 191.91 275.71 191.4 275.4 190.94C271.23 184.72 265.18 187.82 264.93 187.95L264.44 188.21L264.19 187.71C264.06 187.45 260.9 181.43 253.91 184.12C253.39 184.32 253.05 184.7 253.04 184.83C253.04 184.83 253.29 185.09 254.51 185.14C257.42 185.26 261.42 187.24 263.33 191.31C263.36 191.37 263.4 191.39 263.43 191.4C263.46 191.41 263.51 191.42 263.57 191.38C265.34 190.37 267.22 189.96 268.97 189.96L268.95 189.97Z" fill="white"/>
</svg>
