<svg width="374" height="385" viewBox="0 0 374 385" fill="none" xmlns="http://www.w3.org/2000/svg">
<path d="M266.45 0.0100021C168.34 40.15 78.48 96.29 0 165.18L199.98 384.95C251.46 340.56 309.98 304.11 373.64 277.51L266.45 0V0.0100021Z" fill="#01689D"/>
<path d="M109.479 128.281V176.351H99.8394V150.581C99.8394 146.861 99.7695 144.621 99.6295 143.871C99.4895 143.121 99.0894 142.551 98.4494 142.161C97.8094 141.771 96.3694 141.581 94.1394 141.581H93.1895V135.981C97.8495 134.731 101.389 132.171 103.809 128.281H109.489H109.479Z" fill="white"/>
<path d="M136.07 141.05H126.43C126.43 138.81 126.41 137.4 126.37 136.82C126.33 136.24 126.14 135.75 125.8 135.35C125.46 134.95 124.99 134.76 124.4 134.76C123.91 134.76 123.5 134.95 123.18 135.32C122.86 135.7 122.68 136.18 122.63 136.77C122.58 137.36 122.56 138.56 122.56 140.36V148.02C123.05 146.73 123.78 145.77 124.73 145.12C125.68 144.48 126.86 144.16 128.26 144.16C130.03 144.16 131.58 144.75 132.94 145.94C134.29 147.13 135.15 148.55 135.52 150.22C135.89 151.88 136.07 154.13 136.07 156.96V160.79C136.07 164.15 135.97 166.66 135.76 168.3C135.55 169.94 135 171.46 134.1 172.86C133.2 174.25 131.97 175.34 130.4 176.11C128.83 176.88 127.01 177.27 124.92 177.27C122.33 177.27 120.2 176.82 118.55 175.93C116.9 175.04 115.62 173.76 114.72 172.08C113.82 170.41 113.3 168.65 113.15 166.81C113 164.97 112.92 161.4 112.92 156.09V149.44C112.92 143.72 112.99 139.89 113.12 137.96C113.25 136.03 113.81 134.2 114.78 132.48C115.75 130.76 117.07 129.47 118.75 128.61C120.43 127.75 122.36 127.32 124.56 127.32C127.26 127.32 129.48 127.87 131.22 128.95C132.95 130.04 134.19 131.57 134.94 133.55C135.69 135.53 136.06 138.02 136.06 141.03L136.07 141.05ZM126.43 156.05C126.43 154.35 126.28 153.18 125.98 152.55C125.68 151.92 125.18 151.6 124.5 151.6C123.82 151.6 123.34 151.9 123.03 152.51C122.72 153.11 122.57 154.3 122.57 156.06V164.76C122.57 166.88 122.72 168.26 123.01 168.92C123.3 169.57 123.79 169.9 124.48 169.9C124.89 169.9 125.32 169.65 125.77 169.14C126.21 168.64 126.44 167.27 126.44 165.06V156.06L126.43 156.05Z" fill="white"/>
<path d="M151.829 127.85H156.489C157.749 127.85 158.719 127.97 159.399 128.2C160.079 128.43 160.589 128.76 160.929 129.2C161.269 129.64 161.499 130.16 161.619 130.78C161.739 131.4 161.799 132.35 161.799 133.65V135.45C161.799 136.77 161.679 137.73 161.449 138.34C161.219 138.95 160.779 139.41 160.159 139.73C159.529 140.05 158.709 140.22 157.699 140.22H156.459V148.55H151.829V127.86V127.85ZM156.459 131.39V136.66C156.589 136.66 156.709 136.67 156.799 136.67C157.229 136.67 157.519 136.55 157.689 136.31C157.849 136.07 157.939 135.56 157.939 134.8V133.1C157.939 132.39 157.839 131.93 157.649 131.72C157.459 131.51 157.059 131.4 156.459 131.4V131.39Z" fill="white"/>
<path d="M162.989 127.85H170.709V131.99H167.619V135.91H170.509V139.85H167.619V144.4H171.019V148.54H162.999V127.85H162.989Z" fill="white"/>
<path d="M180.209 127.85L182.859 148.54H178.129L177.879 144.82H176.229L175.949 148.54H171.169L173.529 127.85H180.219H180.209ZM177.759 141.15C177.529 138.81 177.289 135.91 177.059 132.46C176.589 136.42 176.289 139.32 176.169 141.15H177.759Z" fill="white"/>
<path d="M194.309 136.86H189.679V133.26C189.679 132.22 189.629 131.56 189.529 131.3C189.429 131.04 189.209 130.91 188.879 130.91C188.499 130.91 188.259 131.07 188.149 131.38C188.049 131.7 187.999 132.38 187.999 133.43V143.04C187.999 144.05 188.049 144.7 188.149 145.01C188.249 145.32 188.479 145.47 188.839 145.47C189.199 145.47 189.409 145.32 189.519 145.01C189.629 144.7 189.679 143.98 189.679 142.84V140.24H194.309V141.05C194.309 143.19 194.179 144.71 193.919 145.61C193.659 146.51 193.079 147.29 192.189 147.96C191.299 148.63 190.199 148.97 188.899 148.97C187.599 148.97 186.429 148.68 185.549 148.11C184.669 147.54 184.089 146.75 183.799 145.74C183.509 144.73 183.369 143.21 183.369 141.18V135.13C183.369 133.64 183.409 132.52 183.499 131.77C183.589 131.02 183.849 130.31 184.289 129.62C184.729 128.93 185.329 128.39 186.099 127.99C186.869 127.59 187.759 127.4 188.769 127.4C190.129 127.4 191.259 127.71 192.139 128.32C193.029 128.93 193.609 129.7 193.889 130.61C194.169 131.53 194.309 132.95 194.309 134.88V136.85V136.86Z" fill="white"/>
<path d="M195.839 127.85H203.559V131.99H200.469V135.91H203.359V139.85H200.469V144.4H203.869V148.54H195.849V127.85H195.839Z" fill="white"/>
<path d="M207.509 144.49V146.34C207.509 147.31 207.409 148.11 207.209 148.73C207.009 149.35 206.669 149.88 206.179 150.31C205.689 150.74 205.139 151.03 204.529 151.18V149.7C204.969 149.41 205.219 149.02 205.279 148.54H204.529V144.49H207.509Z" fill="white"/>
<path d="M218.199 127.85V141.68C218.199 143.75 218.179 145.08 218.139 145.67C218.099 146.26 217.939 146.8 217.639 147.27C217.339 147.75 216.939 148.08 216.429 148.26C215.919 148.44 215.149 148.53 214.129 148.53H211.809V144.91C212.089 144.94 212.289 144.95 212.419 144.95C212.749 144.95 213.009 144.86 213.199 144.67C213.389 144.48 213.499 144.25 213.529 143.98C213.559 143.71 213.569 143.18 213.569 142.4V127.84H218.199V127.85Z" fill="white"/>
<path d="M230.369 127.85V141.68C230.369 143.25 230.329 144.35 230.239 144.98C230.149 145.62 229.889 146.27 229.459 146.94C229.029 147.61 228.459 148.12 227.749 148.46C227.039 148.81 226.209 148.98 225.249 148.98C224.189 148.98 223.249 148.77 222.439 148.37C221.629 147.96 221.019 147.43 220.609 146.77C220.209 146.11 219.969 145.42 219.899 144.69C219.829 143.96 219.789 142.43 219.789 140.1V127.86H224.419V143.38C224.419 144.28 224.459 144.86 224.549 145.11C224.639 145.36 224.809 145.49 225.059 145.49C225.349 145.49 225.539 145.35 225.629 145.08C225.709 144.8 225.759 144.15 225.759 143.12V127.87H230.389L230.369 127.85Z" fill="white"/>
<path d="M241.829 134.11H237.529V132.58C237.529 131.86 237.469 131.41 237.359 131.21C237.249 131.01 237.069 130.92 236.809 130.92C236.529 130.92 236.319 131.05 236.179 131.32C236.039 131.58 235.969 131.99 235.969 132.52C235.969 133.21 236.049 133.73 236.209 134.08C236.359 134.43 236.799 134.85 237.519 135.35C239.579 136.77 240.879 137.94 241.409 138.85C241.949 139.76 242.209 141.23 242.209 143.26C242.209 144.73 242.059 145.82 241.759 146.52C241.459 147.22 240.889 147.8 240.039 148.28C239.189 148.75 238.199 148.99 237.069 148.99C235.829 148.99 234.769 148.72 233.899 148.17C233.029 147.62 232.449 146.93 232.179 146.09C231.909 145.25 231.769 144.05 231.769 142.5V141.14H236.069V143.66C236.069 144.44 236.129 144.93 236.249 145.16C236.369 145.38 236.589 145.49 236.889 145.49C237.189 145.49 237.429 145.35 237.579 145.07C237.729 144.79 237.809 144.37 237.809 143.82C237.809 142.6 237.669 141.81 237.379 141.43C237.089 141.05 236.359 140.43 235.209 139.55C234.059 138.66 233.299 138.02 232.919 137.62C232.549 137.22 232.239 136.67 231.989 135.96C231.739 135.25 231.619 134.35 231.619 133.25C231.619 131.67 231.789 130.51 232.139 129.77C232.489 129.04 233.049 128.46 233.829 128.05C234.609 127.64 235.539 127.43 236.639 127.43C237.839 127.43 238.869 127.66 239.709 128.11C240.559 128.56 241.119 129.13 241.389 129.82C241.659 130.51 241.799 131.67 241.799 133.32V134.14L241.829 134.11Z" fill="white"/>
<path d="M252.849 127.85V131.99H250.099V148.54H245.469V131.99H242.729V127.85H252.839H252.849Z" fill="white"/>
<path d="M258.399 127.85V148.54H253.77V127.85H258.399Z" fill="white"/>
<path d="M270.929 136.86H266.299V133.26C266.299 132.22 266.249 131.56 266.149 131.3C266.049 131.04 265.829 130.91 265.499 130.91C265.119 130.91 264.879 131.07 264.769 131.38C264.669 131.7 264.619 132.38 264.619 133.43V143.04C264.619 144.05 264.669 144.7 264.769 145.01C264.869 145.32 265.099 145.47 265.459 145.47C265.819 145.47 266.029 145.32 266.139 145.01C266.249 144.7 266.299 143.98 266.299 142.84V140.24H270.929V141.05C270.929 143.19 270.799 144.71 270.539 145.61C270.279 146.51 269.699 147.29 268.809 147.96C267.919 148.63 266.819 148.97 265.519 148.97C264.219 148.97 263.049 148.68 262.169 148.11C261.289 147.54 260.709 146.75 260.419 145.74C260.129 144.73 259.989 143.21 259.989 141.18V135.13C259.989 133.64 260.029 132.52 260.119 131.77C260.209 131.02 260.469 130.31 260.909 129.62C261.349 128.93 261.949 128.39 262.719 127.99C263.489 127.59 264.379 127.4 265.389 127.4C266.749 127.4 267.879 127.71 268.759 128.32C269.649 128.93 270.229 129.7 270.509 130.61C270.789 131.53 270.929 132.95 270.929 134.88V136.85V136.86Z" fill="white"/>
<path d="M272.449 127.85H280.169V131.99H277.079V135.91H279.969V139.85H277.079V144.4H280.479V148.54H272.459V127.85H272.449Z" fill="white"/>
<path d="M159.829 155.68L162.479 176.37H157.749L157.499 172.65H155.849L155.569 176.37H150.789L153.149 155.68H159.839H159.829ZM157.369 168.98C157.139 166.64 156.899 163.74 156.669 160.29C156.199 164.25 155.899 167.15 155.779 168.98H157.369Z" fill="white"/>
<path d="M173.459 155.68V176.37H169.399L166.989 166.96V176.37H163.119V155.68H166.989L169.579 165V155.68H173.449H173.459Z" fill="white"/>
<path d="M175.179 155.68H178.639C180.869 155.68 182.389 155.8 183.169 156.04C183.959 156.28 184.559 156.67 184.969 157.22C185.379 157.77 185.639 158.37 185.739 159.04C185.839 159.71 185.889 161.02 185.889 162.98V170.23C185.889 172.09 185.809 173.33 185.659 173.96C185.509 174.59 185.249 175.08 184.869 175.43C184.499 175.78 184.029 176.03 183.489 176.17C182.939 176.31 182.109 176.38 181.009 176.38H175.169V155.69L175.179 155.68ZM179.809 159.22V172.83C180.479 172.83 180.889 172.67 181.039 172.36C181.189 172.05 181.269 171.2 181.269 169.82V161.78C181.269 160.84 181.239 160.24 181.189 159.98C181.139 159.72 181.019 159.52 180.839 159.4C180.659 159.28 180.309 159.21 179.809 159.21V159.22Z" fill="white"/>
<path d="M201.119 161.94H196.819V160.41C196.819 159.69 196.769 159.24 196.649 159.04C196.539 158.84 196.359 158.75 196.099 158.75C195.819 158.75 195.609 158.88 195.469 159.15C195.329 159.41 195.259 159.82 195.259 160.35C195.259 161.04 195.339 161.56 195.499 161.91C195.649 162.26 196.089 162.68 196.809 163.18C198.869 164.6 200.169 165.77 200.699 166.68C201.239 167.59 201.499 169.06 201.499 171.09C201.499 172.56 201.349 173.65 201.049 174.35C200.749 175.05 200.179 175.63 199.329 176.11C198.479 176.58 197.489 176.82 196.359 176.82C195.119 176.82 194.059 176.55 193.189 176C192.319 175.45 191.739 174.76 191.469 173.92C191.199 173.08 191.059 171.88 191.059 170.33V168.97H195.359V171.49C195.359 172.27 195.419 172.76 195.539 172.99C195.659 173.21 195.879 173.32 196.179 173.32C196.479 173.32 196.719 173.18 196.869 172.9C197.019 172.62 197.099 172.2 197.099 171.65C197.099 170.43 196.959 169.64 196.669 169.26C196.379 168.88 195.659 168.26 194.499 167.38C193.349 166.49 192.589 165.85 192.209 165.45C191.839 165.05 191.529 164.49 191.279 163.79C191.029 163.08 190.909 162.18 190.909 161.08C190.909 159.5 191.079 158.34 191.429 157.6C191.779 156.87 192.339 156.29 193.119 155.88C193.899 155.47 194.829 155.26 195.929 155.26C197.129 155.26 198.159 155.49 198.999 155.94C199.849 156.39 200.409 156.96 200.679 157.65C200.949 158.34 201.089 159.5 201.089 161.15V161.97L201.119 161.94Z" fill="white"/>
<path d="M212.14 155.68V159.82H209.39V176.37H204.76V159.82H202.02V155.68H212.13H212.14Z" fill="white"/>
<path d="M213.059 155.68H216.339C218.519 155.68 219.999 155.78 220.779 155.97C221.549 156.17 222.179 156.67 222.669 157.47C223.159 158.28 223.399 159.56 223.399 161.32C223.399 162.93 223.229 164.01 222.879 164.57C222.539 165.12 221.859 165.46 220.849 165.57C221.769 165.83 222.379 166.19 222.699 166.63C223.019 167.07 223.209 167.48 223.289 167.85C223.369 168.22 223.409 169.24 223.409 170.91V176.37H219.109V169.49C219.109 168.38 219.029 167.7 218.879 167.43C218.729 167.17 218.339 167.03 217.699 167.03V176.36H213.069V155.67L213.059 155.68ZM217.689 159.22V163.82C218.209 163.82 218.569 163.74 218.779 163.57C218.989 163.4 219.089 162.87 219.089 161.95V160.81C219.089 160.15 218.989 159.72 218.789 159.52C218.589 159.32 218.219 159.21 217.689 159.21V159.22Z" fill="white"/>
<path d="M235.629 167.79C235.629 169.87 235.589 171.34 235.499 172.21C235.419 173.07 235.149 173.86 234.709 174.58C234.269 175.3 233.669 175.85 232.909 176.23C232.159 176.61 231.279 176.81 230.269 176.81C229.259 176.81 228.459 176.63 227.699 176.27C226.939 175.91 226.329 175.37 225.869 174.64C225.409 173.91 225.129 173.13 225.049 172.28C224.959 171.43 224.919 169.94 224.919 167.81V164.27C224.919 162.19 224.959 160.72 225.049 159.85C225.129 158.98 225.399 158.19 225.839 157.48C226.279 156.76 226.879 156.22 227.639 155.83C228.399 155.45 229.269 155.25 230.279 155.25C231.229 155.25 232.089 155.43 232.849 155.79C233.609 156.15 234.219 156.69 234.679 157.42C235.139 158.14 235.419 158.93 235.499 159.78C235.589 160.63 235.629 162.12 235.629 164.25V167.79ZM230.999 161C230.999 160.04 230.949 159.42 230.859 159.15C230.769 158.88 230.579 158.75 230.289 158.75C230.049 158.75 229.859 158.86 229.739 159.08C229.609 159.3 229.549 159.94 229.549 161V170.66C229.549 171.86 229.589 172.6 229.679 172.88C229.759 173.16 229.959 173.3 230.269 173.3C230.579 173.3 230.789 173.14 230.869 172.81C230.959 172.49 230.999 171.72 230.999 170.5V160.99V161Z" fill="white"/>
<path d="M247.549 155.68V176.37H243.489L241.079 166.96V176.37H237.209V155.68H241.079L243.669 165V155.68H247.539H247.549Z" fill="white"/>
<path d="M259.889 163.3H255.259V161.42C255.259 160.24 255.219 159.49 255.129 159.2C255.039 158.9 254.829 158.75 254.499 158.75C254.209 158.75 254.019 158.88 253.919 159.13C253.819 159.39 253.769 160.04 253.769 161.1V171.03C253.769 171.96 253.819 172.57 253.919 172.86C254.019 173.15 254.229 173.3 254.539 173.3C254.879 173.3 255.109 173.13 255.229 172.8C255.349 172.47 255.409 171.82 255.409 170.86V168.41H254.479V165.27H259.899V176.38H256.989L256.559 174.9C256.239 175.54 255.849 176.02 255.369 176.34C254.889 176.66 254.319 176.82 253.669 176.82C252.889 176.82 252.159 176.6 251.489 176.16C250.809 175.72 250.299 175.18 249.939 174.53C249.589 173.88 249.369 173.2 249.279 172.49C249.189 171.78 249.149 170.71 249.149 169.29V163.14C249.149 161.16 249.239 159.73 249.429 158.83C249.609 157.93 250.139 157.12 251.009 156.37C251.879 155.62 252.999 155.25 254.379 155.25C255.759 155.25 256.859 155.57 257.749 156.22C258.639 156.87 259.229 157.64 259.499 158.53C259.769 159.42 259.909 160.71 259.909 162.41V163.31L259.889 163.3Z" fill="white"/>
<path d="M156.459 183.51V204.2H151.829V183.51H156.459Z" fill="white"/>
<path d="M168.509 183.51V204.2H164.449L162.039 194.79V204.2H158.169V183.51H162.039L164.629 192.83V183.51H168.499H168.509Z" fill="white"/>
<path d="M180.039 189.77H175.739V188.24C175.739 187.52 175.679 187.07 175.569 186.87C175.459 186.67 175.279 186.58 175.019 186.58C174.739 186.58 174.529 186.71 174.389 186.98C174.249 187.24 174.179 187.65 174.179 188.18C174.179 188.87 174.259 189.39 174.419 189.74C174.569 190.09 175.009 190.51 175.729 191.01C177.789 192.43 179.089 193.6 179.619 194.51C180.159 195.42 180.419 196.89 180.419 198.92C180.419 200.39 180.269 201.48 179.969 202.18C179.669 202.88 179.099 203.46 178.249 203.94C177.399 204.41 176.409 204.65 175.279 204.65C174.039 204.65 172.979 204.38 172.109 203.83C171.239 203.28 170.659 202.59 170.389 201.75C170.119 200.91 169.979 199.71 169.979 198.16V196.8H174.279V199.32C174.279 200.1 174.339 200.59 174.459 200.82C174.579 201.04 174.799 201.15 175.099 201.15C175.399 201.15 175.639 201.01 175.789 200.73C175.939 200.45 176.019 200.03 176.019 199.48C176.019 198.26 175.879 197.47 175.589 197.09C175.299 196.71 174.579 196.09 173.419 195.21C172.269 194.32 171.509 193.68 171.129 193.28C170.759 192.88 170.449 192.32 170.199 191.62C169.949 190.91 169.829 190.01 169.829 188.91C169.829 187.33 170.009 186.17 170.349 185.43C170.699 184.7 171.259 184.13 172.039 183.71C172.819 183.3 173.749 183.09 174.849 183.09C176.049 183.09 177.079 183.32 177.919 183.77C178.769 184.22 179.329 184.79 179.599 185.48C179.869 186.17 180.009 187.33 180.009 188.98V189.8L180.039 189.77Z" fill="white"/>
<path d="M191.059 183.51V187.65H188.309V204.2H183.679V187.65H180.939V183.51H191.049H191.059Z" fill="white"/>
<path d="M196.609 183.51V204.2H191.979V183.51H196.609Z" fill="white"/>
<path d="M207.649 183.51V187.65H204.899V204.2H200.269V187.65H197.529V183.51H207.639H207.649Z" fill="white"/>
<path d="M219.089 183.51V197.34C219.089 198.91 219.049 200.01 218.959 200.64C218.869 201.28 218.609 201.93 218.179 202.6C217.749 203.27 217.179 203.78 216.469 204.12C215.759 204.46 214.929 204.64 213.969 204.64C212.909 204.64 211.969 204.44 211.159 204.03C210.349 203.62 209.739 203.09 209.329 202.43C208.929 201.77 208.689 201.08 208.619 200.35C208.549 199.62 208.509 198.09 208.509 195.76V183.52H213.139V199.04C213.139 199.94 213.179 200.52 213.269 200.77C213.359 201.02 213.529 201.15 213.779 201.15C214.069 201.15 214.259 201.01 214.349 200.74C214.429 200.46 214.479 199.81 214.479 198.78V183.53H219.109L219.089 183.51Z" fill="white"/>
<path d="M230.069 183.51V187.65H227.319V204.2H222.689V187.65H219.949V183.51H230.059H230.069Z" fill="white"/>
<path d="M235.609 183.51V204.2H230.979V183.51H235.609Z" fill="white"/>
<path d="M247.909 195.62C247.909 197.7 247.869 199.17 247.779 200.04C247.699 200.9 247.429 201.69 246.989 202.41C246.549 203.13 245.949 203.68 245.189 204.06C244.439 204.44 243.559 204.64 242.549 204.64C241.599 204.64 240.739 204.46 239.979 204.1C239.219 203.74 238.609 203.2 238.149 202.47C237.689 201.74 237.409 200.96 237.329 200.11C237.239 199.26 237.199 197.77 237.199 195.64V192.1C237.199 190.02 237.239 188.55 237.329 187.68C237.409 186.81 237.679 186.03 238.119 185.31C238.559 184.59 239.159 184.05 239.919 183.66C240.679 183.28 241.549 183.08 242.559 183.08C243.569 183.08 244.369 183.26 245.129 183.62C245.889 183.98 246.499 184.52 246.959 185.25C247.419 185.97 247.699 186.76 247.779 187.61C247.869 188.46 247.909 189.95 247.909 192.08V195.62ZM243.279 188.82C243.279 187.86 243.229 187.24 243.139 186.97C243.049 186.7 242.859 186.57 242.569 186.57C242.329 186.57 242.139 186.68 242.019 186.9C241.889 187.12 241.829 187.76 241.829 188.82V198.48C241.829 199.68 241.869 200.42 241.959 200.7C242.039 200.98 242.239 201.12 242.549 201.12C242.859 201.12 243.069 200.96 243.149 200.63C243.239 200.31 243.279 199.54 243.279 198.32V188.81V188.82Z" fill="white"/>
<path d="M259.829 183.51V204.2H255.769L253.359 194.79V204.2H249.489V183.51H253.359L255.949 192.83V183.51H259.819H259.829Z" fill="white"/>
<path d="M271.359 189.77H267.059V188.24C267.059 187.52 266.999 187.07 266.889 186.87C266.779 186.67 266.599 186.58 266.339 186.58C266.059 186.58 265.849 186.71 265.709 186.98C265.569 187.24 265.499 187.65 265.499 188.18C265.499 188.87 265.579 189.39 265.739 189.74C265.889 190.09 266.329 190.51 267.049 191.01C269.109 192.43 270.409 193.6 270.939 194.51C271.479 195.42 271.739 196.89 271.739 198.92C271.739 200.39 271.589 201.48 271.289 202.18C270.989 202.88 270.419 203.46 269.569 203.94C268.719 204.41 267.729 204.65 266.599 204.65C265.359 204.65 264.299 204.38 263.429 203.83C262.559 203.28 261.979 202.59 261.709 201.75C261.439 200.91 261.299 199.71 261.299 198.16V196.8H265.599V199.32C265.599 200.1 265.659 200.59 265.779 200.82C265.899 201.04 266.119 201.15 266.419 201.15C266.719 201.15 266.959 201.01 267.109 200.73C267.259 200.45 267.339 200.03 267.339 199.48C267.339 198.26 267.199 197.47 266.909 197.09C266.619 196.71 265.889 196.09 264.739 195.21C263.589 194.32 262.829 193.68 262.449 193.28C262.079 192.88 261.769 192.32 261.519 191.62C261.269 190.91 261.149 190.01 261.149 188.91C261.149 187.33 261.319 186.17 261.669 185.43C262.019 184.7 262.579 184.13 263.359 183.71C264.139 183.3 265.069 183.09 266.169 183.09C267.369 183.09 268.399 183.32 269.239 183.77C270.089 184.22 270.649 184.79 270.919 185.48C271.189 186.17 271.329 187.33 271.329 188.98V189.8L271.359 189.77Z" fill="white"/>
<path d="M145.969 290.77H144.449C142.975 290.77 141.779 291.965 141.779 293.44V300.52C141.779 301.994 142.975 303.19 144.449 303.19H145.969C147.444 303.19 148.639 301.994 148.639 300.52V293.44C148.639 291.965 147.444 290.77 145.969 290.77Z" fill="white"/>
<path d="M242.699 278.08H222.239C220.409 278.08 218.919 279.56 218.919 281.4C218.919 283.24 220.399 284.72 222.239 284.72H242.699C244.529 284.72 246.019 283.24 246.019 281.4C246.019 279.56 244.539 278.08 242.699 278.08Z" fill="white"/>
<path d="M242.699 309.039H222.239C220.409 309.039 218.919 310.519 218.919 312.359C218.919 314.199 220.399 315.679 222.239 315.679H242.699C244.529 315.679 246.019 314.199 246.019 312.359C246.019 310.519 244.539 309.039 242.699 309.039Z" fill="white"/>
<path d="M221.489 305.989C221.489 307.029 222.329 307.869 223.359 307.869H241.579C242.619 307.869 243.459 307.029 243.459 305.989V287.769C243.459 286.729 242.619 285.889 241.579 285.889H223.359C222.319 285.889 221.489 286.729 221.489 287.769V293.009C217.769 293.239 208.319 293.709 192.049 293.719V283.459C218.689 280.759 218.729 265.519 218.929 256.849C219.159 247.139 223.069 243.739 226.139 241.799C227.099 241.189 228.479 240.839 229.869 240.609C230.039 244.439 230.949 247.719 231.229 248.619C231.269 248.769 231.409 248.859 231.559 248.859H233.619C233.619 248.859 232.469 244.559 232.169 240.339C234.279 240.149 235.869 240.109 235.199 239.699C234.509 239.269 233.269 238.559 232.109 237.719C232.159 236.199 232.399 234.829 232.929 233.849C235.969 228.219 241.149 223.959 242.909 222.429C243.189 222.179 243.189 221.739 242.909 221.499L242.039 220.779C241.779 220.569 241.419 220.559 241.159 220.759C239.979 221.699 236.599 224.599 232.479 230.069C231.179 231.789 230.479 233.839 230.129 235.939C229.969 235.739 229.819 235.529 229.709 235.329C224.849 226.429 216.599 233.059 213.849 235.489C211.099 237.919 199.719 253.199 184.559 237.919C165.469 218.669 151.729 224.189 151.729 224.189C159.879 230.469 157.459 230.819 161.839 246.399C166.219 261.989 178.399 263.449 178.399 263.449C173.289 264.909 170.539 267.819 166.579 270.559C162.719 273.239 150.899 271.409 150.899 271.409C156.169 272.839 160.929 276.909 160.929 276.909C172.259 284.679 181.319 283.869 181.319 283.869C181.419 283.869 181.509 283.869 181.619 283.869V293.669C172.209 293.579 161.099 293.339 148.109 292.869V301.079C148.109 301.079 206.629 298.209 221.479 300.679V305.989H221.489ZM184.969 283.869C186.269 283.849 187.499 283.799 188.699 283.729V293.719C187.489 293.719 186.249 293.719 184.969 293.699V283.869Z" fill="white"/>
<path d="M251.51 211.53C251.51 211.53 242.11 210.63 242.89 220.41C242.89 220.41 252.03 221.31 251.51 211.53Z" fill="white"/>
<path d="M237.419 223.959C237.419 223.959 243.719 217.279 235.659 211.709C235.659 211.709 229.199 218.599 237.419 223.959Z" fill="white"/>
<path d="M231.629 230.389C231.629 230.389 237.929 223.709 229.869 218.139C229.869 218.139 223.409 225.029 231.629 230.389Z" fill="white"/>
<path d="M239.989 226.929C239.989 226.929 246.609 233.659 252.299 225.659C252.299 225.659 245.869 219.099 239.989 226.929Z" fill="white"/>
<path d="M234.59 232.72C234.59 232.72 240.51 240.07 246.97 232.68C246.97 232.68 241.23 225.52 234.59 232.72Z" fill="white"/>
</svg>
