<svg width="308" height="335" viewBox="0 0 308 335" fill="none" xmlns="http://www.w3.org/2000/svg">
<path d="M307.39 0C199.64 1.96 96.15 21.75 0 56.98L107.28 334.72C170.09 312.38 237.36 299.45 307.39 297.6V0Z" fill="#194869"/>
<path d="M95.9199 80.1602V128.23H86.2799V102.46C86.2799 98.7402 86.2099 96.5002 86.0699 95.7502C85.9299 95.0002 85.5299 94.4302 84.8899 94.0402C84.2499 93.6502 82.8099 93.4602 80.5799 93.4602H79.6299V87.8602C84.2899 86.6102 87.8299 84.0502 90.2499 80.1602H95.9299H95.9199Z" fill="white"/>
<path d="M116.36 80.1602V90.6301L110.21 128.23H100.62L107.48 88.8002H97.9502V80.1602H116.37H116.36Z" fill="white"/>
<path d="M132.2 79.7207H136.86C138.12 79.7207 139.09 79.8307 139.77 80.0707C140.45 80.3007 140.96 80.6307 141.3 81.0707C141.64 81.5107 141.87 82.0307 141.99 82.6507C142.11 83.2707 142.17 84.2207 142.17 85.5207V87.3207C142.17 88.6407 142.05 89.6007 141.82 90.2107C141.59 90.8207 141.16 91.2807 140.53 91.6007C139.9 91.9207 139.08 92.0907 138.07 92.0907H136.83V100.421H132.2V79.7307V79.7207ZM136.83 83.2607V88.5307C136.96 88.5307 137.08 88.5407 137.17 88.5407C137.6 88.5407 137.89 88.4207 138.06 88.1807C138.22 87.9407 138.31 87.4307 138.31 86.6707V84.9707C138.31 84.2607 138.21 83.8007 138.02 83.5907C137.83 83.3807 137.43 83.2707 136.83 83.2707V83.2607Z" fill="white"/>
<path d="M150.8 79.7207L153.45 100.411H148.72L148.47 96.6907H146.81L146.53 100.411H141.75L144.11 79.7207H150.8ZM148.35 93.0307C148.12 90.6907 147.88 87.7907 147.65 84.3407C147.18 88.3007 146.88 91.2007 146.76 93.0307H148.35Z" fill="white"/>
<path d="M154.101 79.7209H157.381C159.561 79.7209 161.041 79.8209 161.821 80.0109C162.591 80.2109 163.221 80.7109 163.711 81.5109C164.201 82.3209 164.441 83.6009 164.441 85.3609C164.441 86.9709 164.271 88.0509 163.921 88.6109C163.581 89.1609 162.901 89.5009 161.891 89.6109C162.811 89.8709 163.421 90.2309 163.741 90.6709C164.061 91.1109 164.251 91.5209 164.331 91.8909C164.411 92.2609 164.451 93.2809 164.451 94.9509V100.411H160.151V93.5309C160.151 92.4209 160.071 91.7409 159.921 91.4709C159.771 91.2109 159.381 91.0709 158.741 91.0709V100.401H154.111V79.7109L154.101 79.7209ZM158.731 83.2609V87.8609C159.251 87.8609 159.611 87.7809 159.821 87.6109C160.031 87.4409 160.131 86.9109 160.131 85.9909V84.8509C160.131 84.1909 160.031 83.7609 159.831 83.5609C159.631 83.3609 159.261 83.2509 158.731 83.2509V83.2609Z" fill="white"/>
<path d="M175.41 79.7207V83.8607H172.66V100.411H168.03V83.8607H165.29V79.7207H175.4H175.41Z" fill="white"/>
<path d="M186.66 79.7207V100.411H182.6L180.19 91.0007V100.411H176.32V79.7207H180.19L182.78 89.0407V79.7207H186.65H186.66Z" fill="white"/>
<path d="M188.38 79.7207H196.1V83.8607H193.01V87.7807H195.9V91.7207H193.01V96.2707H196.41V100.411H188.39V79.7207H188.38Z" fill="white"/>
<path d="M197.601 79.7209H200.881C203.061 79.7209 204.541 79.8209 205.321 80.0109C206.091 80.2109 206.721 80.7109 207.211 81.5109C207.701 82.3209 207.941 83.6009 207.941 85.3609C207.941 86.9709 207.771 88.0509 207.421 88.6109C207.081 89.1609 206.401 89.5009 205.391 89.6109C206.311 89.8709 206.921 90.2309 207.241 90.6709C207.561 91.1109 207.751 91.5209 207.831 91.8909C207.911 92.2609 207.951 93.2809 207.951 94.9509V100.411H203.651V93.5309C203.651 92.4209 203.571 91.7409 203.421 91.4709C203.271 91.2109 202.881 91.0709 202.241 91.0709V100.401H197.611V79.7109L197.601 79.7209ZM202.231 83.2609V87.8609C202.751 87.8609 203.111 87.7809 203.321 87.6109C203.531 87.4409 203.631 86.9109 203.631 85.9909V84.8509C203.631 84.1909 203.531 83.7609 203.331 83.5609C203.131 83.3609 202.761 83.2509 202.231 83.2509V83.2609Z" fill="white"/>
<path d="M219.4 85.9905H215.1V84.4605C215.1 83.7405 215.04 83.2905 214.93 83.0905C214.82 82.8905 214.64 82.8006 214.38 82.8006C214.1 82.8006 213.89 82.9305 213.75 83.2005C213.61 83.4605 213.54 83.8706 213.54 84.4006C213.54 85.0906 213.62 85.6105 213.78 85.9605C213.93 86.3105 214.37 86.7306 215.09 87.2306C217.15 88.6506 218.45 89.8206 218.98 90.7306C219.52 91.6406 219.78 93.1105 219.78 95.1405C219.78 96.6105 219.63 97.7006 219.33 98.4006C219.03 99.1006 218.46 99.6806 217.61 100.161C216.76 100.631 215.77 100.871 214.64 100.871C213.4 100.871 212.34 100.601 211.47 100.051C210.6 99.5006 210.02 98.8106 209.75 97.9706C209.48 97.1306 209.34 95.9305 209.34 94.3805V93.0205H213.64V95.5406C213.64 96.3206 213.7 96.8106 213.82 97.0406C213.94 97.2606 214.16 97.3706 214.46 97.3706C214.76 97.3706 215 97.2305 215.15 96.9505C215.3 96.6705 215.38 96.2505 215.38 95.7005C215.38 94.4805 215.24 93.6905 214.95 93.3105C214.66 92.9305 213.93 92.3105 212.78 91.4305C211.63 90.5405 210.87 89.9005 210.49 89.5005C210.12 89.1005 209.81 88.5505 209.56 87.8405C209.31 87.1305 209.19 86.2305 209.19 85.1305C209.19 83.5505 209.36 82.3906 209.71 81.6506C210.06 80.9206 210.62 80.3405 211.4 79.9305C212.18 79.5205 213.11 79.3105 214.21 79.3105C215.41 79.3105 216.44 79.5405 217.28 79.9905C218.13 80.4405 218.69 81.0105 218.96 81.7005C219.23 82.3905 219.37 83.5505 219.37 85.2005V86.0205L219.4 85.9905Z" fill="white"/>
<path d="M231.74 79.7207V100.411H227.11V91.7207H225.72V100.411H221.09V79.7207H225.72V87.1207H227.11V79.7207H231.74Z" fill="white"/>
<path d="M238.09 79.7207V100.411H233.46V79.7207H238.09Z" fill="white"/>
<path d="M239.811 79.7207H244.471C245.731 79.7207 246.701 79.8307 247.381 80.0707C248.061 80.3007 248.571 80.6307 248.911 81.0707C249.251 81.5107 249.481 82.0307 249.601 82.6507C249.721 83.2707 249.781 84.2207 249.781 85.5207V87.3207C249.781 88.6407 249.661 89.6007 249.431 90.2107C249.201 90.8207 248.761 91.2807 248.141 91.6007C247.511 91.9207 246.691 92.0907 245.681 92.0907H244.441V100.421H239.811V79.7307V79.7207ZM244.441 83.2607V88.5307C244.571 88.5307 244.691 88.5407 244.781 88.5407C245.211 88.5407 245.501 88.4207 245.671 88.1807C245.831 87.9407 245.921 87.4307 245.921 86.6707V84.9707C245.921 84.2607 245.821 83.8007 245.631 83.5907C245.441 83.3807 245.041 83.2707 244.441 83.2707V83.2607Z" fill="white"/>
<path d="M260.78 85.9905H256.48V84.4605C256.48 83.7405 256.42 83.2905 256.31 83.0905C256.2 82.8905 256.02 82.8006 255.76 82.8006C255.48 82.8006 255.27 82.9305 255.13 83.2005C254.99 83.4605 254.92 83.8706 254.92 84.4006C254.92 85.0906 255 85.6105 255.16 85.9605C255.31 86.3105 255.75 86.7306 256.47 87.2306C258.53 88.6506 259.83 89.8206 260.36 90.7306C260.9 91.6406 261.16 93.1105 261.16 95.1405C261.16 96.6105 261.01 97.7006 260.71 98.4006C260.41 99.1006 259.84 99.6806 258.99 100.161C258.14 100.631 257.15 100.871 256.02 100.871C254.78 100.871 253.72 100.601 252.85 100.051C251.98 99.5006 251.4 98.8106 251.13 97.9706C250.86 97.1306 250.72 95.9305 250.72 94.3805V93.0205H255.02V95.5406C255.02 96.3206 255.08 96.8106 255.2 97.0406C255.32 97.2606 255.54 97.3706 255.84 97.3706C256.14 97.3706 256.38 97.2305 256.53 96.9505C256.68 96.6705 256.76 96.2505 256.76 95.7005C256.76 94.4805 256.62 93.6905 256.33 93.3105C256.04 92.9305 255.31 92.3105 254.16 91.4305C253.01 90.5405 252.25 89.9005 251.87 89.5005C251.5 89.1005 251.19 88.5505 250.94 87.8405C250.69 87.1305 250.57 86.2305 250.57 85.1305C250.57 83.5505 250.74 82.3906 251.09 81.6506C251.44 80.9206 252 80.3405 252.78 79.9305C253.56 79.5205 254.49 79.3105 255.59 79.3105C256.79 79.3105 257.82 79.5405 258.66 79.9905C259.51 80.4405 260.07 81.0105 260.34 81.7005C260.61 82.3905 260.75 83.5505 260.75 85.2005V86.0205L260.78 85.9905Z" fill="white"/>
<path d="M132.2 107.551H140.04V111.691H136.83V115.611H139.69V119.551H136.83V128.241H132.2V107.551Z" fill="white"/>
<path d="M151.601 119.671C151.601 121.751 151.561 123.221 151.471 124.091C151.391 124.951 151.121 125.741 150.681 126.461C150.241 127.181 149.641 127.731 148.881 128.111C148.131 128.491 147.251 128.691 146.241 128.691C145.231 128.691 144.431 128.511 143.671 128.151C142.911 127.791 142.301 127.251 141.841 126.521C141.381 125.801 141.101 125.011 141.021 124.161C140.931 123.311 140.891 121.821 140.891 119.691V116.151C140.891 114.071 140.931 112.601 141.021 111.731C141.101 110.861 141.371 110.081 141.811 109.361C142.251 108.641 142.851 108.101 143.611 107.711C144.361 107.331 145.241 107.131 146.251 107.131C147.201 107.131 148.061 107.311 148.821 107.671C149.581 108.031 150.191 108.571 150.651 109.301C151.111 110.021 151.391 110.811 151.471 111.661C151.561 112.511 151.601 114.001 151.601 116.131V119.671ZM146.971 112.871C146.971 111.911 146.921 111.291 146.831 111.021C146.741 110.751 146.551 110.621 146.261 110.621C146.021 110.621 145.831 110.731 145.711 110.951C145.581 111.171 145.521 111.811 145.521 112.871V122.531C145.521 123.731 145.561 124.471 145.651 124.751C145.731 125.031 145.931 125.171 146.241 125.171C146.551 125.171 146.761 125.011 146.841 124.681C146.931 124.361 146.971 123.591 146.971 122.371V112.861V112.871Z" fill="white"/>
<path d="M153.19 107.551H156.47C158.65 107.551 160.13 107.651 160.91 107.841C161.68 108.041 162.31 108.541 162.8 109.341C163.29 110.151 163.53 111.431 163.53 113.191C163.53 114.801 163.36 115.881 163.01 116.441C162.67 116.991 161.99 117.331 160.98 117.441C161.9 117.701 162.51 118.061 162.83 118.501C163.15 118.941 163.34 119.351 163.42 119.721C163.5 120.091 163.54 121.111 163.54 122.781V128.241H159.24V121.361C159.24 120.251 159.16 119.571 159.01 119.301C158.86 119.041 158.47 118.901 157.83 118.901V128.231H153.2V107.541L153.19 107.551ZM157.81 111.091V115.691C158.33 115.691 158.69 115.611 158.9 115.441C159.11 115.271 159.21 114.741 159.21 113.821V112.681C159.21 112.021 159.11 111.591 158.91 111.391C158.71 111.191 158.34 111.081 157.81 111.081V111.091Z" fill="white"/>
<path d="M178.33 107.551V111.691H175.58V128.241H170.95V111.691H168.21V107.551H178.32H178.33Z" fill="white"/>
<path d="M189.89 107.551V128.241H185.26V119.551H183.87V128.241H179.24V107.551H183.87V114.951H185.26V107.551H189.89Z" fill="white"/>
<path d="M191.61 107.551H199.33V111.691H196.24V115.611H199.13V119.551H196.24V124.101H199.64V128.241H191.62V107.551H191.61Z" fill="white"/>
<path d="M215.28 115.171H210.65V113.291C210.65 112.111 210.61 111.361 210.52 111.071C210.43 110.771 210.22 110.621 209.89 110.621C209.6 110.621 209.41 110.751 209.31 111.001C209.21 111.261 209.16 111.911 209.16 112.971V122.901C209.16 123.831 209.21 124.441 209.31 124.731C209.41 125.021 209.62 125.171 209.93 125.171C210.27 125.171 210.5 125.001 210.62 124.671C210.74 124.341 210.8 123.691 210.8 122.731V120.281H209.87V117.141H215.29V128.251H212.38L211.95 126.771C211.63 127.411 211.24 127.891 210.76 128.211C210.28 128.531 209.71 128.691 209.06 128.691C208.28 128.691 207.55 128.471 206.88 128.031C206.2 127.591 205.69 127.051 205.33 126.401C204.98 125.751 204.76 125.071 204.67 124.361C204.58 123.651 204.54 122.581 204.54 121.161V115.011C204.54 113.031 204.63 111.601 204.82 110.701C205 109.801 205.53 108.991 206.4 108.241C207.27 107.491 208.39 107.121 209.77 107.121C211.15 107.121 212.25 107.441 213.14 108.091C214.03 108.741 214.62 109.511 214.89 110.401C215.16 111.291 215.3 112.581 215.3 114.281V115.181L215.28 115.171Z" fill="white"/>
<path d="M227.51 119.671C227.51 121.751 227.47 123.221 227.38 124.091C227.3 124.951 227.03 125.741 226.59 126.461C226.15 127.181 225.55 127.731 224.79 128.111C224.04 128.491 223.16 128.691 222.15 128.691C221.14 128.691 220.34 128.511 219.58 128.151C218.82 127.791 218.21 127.251 217.75 126.521C217.29 125.801 217.01 125.011 216.93 124.161C216.84 123.311 216.8 121.821 216.8 119.691V116.151C216.8 114.071 216.84 112.601 216.93 111.731C217.01 110.861 217.28 110.081 217.72 109.361C218.16 108.641 218.76 108.101 219.52 107.711C220.27 107.331 221.15 107.131 222.16 107.131C223.11 107.131 223.97 107.311 224.73 107.671C225.49 108.031 226.1 108.571 226.56 109.301C227.02 110.021 227.3 110.811 227.38 111.661C227.47 112.511 227.51 114.001 227.51 116.131V119.671ZM222.88 112.871C222.88 111.911 222.83 111.291 222.74 111.021C222.65 110.751 222.46 110.621 222.17 110.621C221.93 110.621 221.74 110.731 221.62 110.951C221.49 111.171 221.43 111.811 221.43 112.871V122.531C221.43 123.731 221.47 124.471 221.56 124.751C221.64 125.031 221.84 125.171 222.15 125.171C222.46 125.171 222.67 125.011 222.75 124.681C222.84 124.361 222.88 123.591 222.88 122.371V112.861V112.871Z" fill="white"/>
<path d="M237.101 107.551L239.751 128.241H235.021L234.771 124.521H233.121L232.841 128.241H228.061L230.421 107.551H237.111H237.101ZM234.651 120.861C234.421 118.521 234.181 115.621 233.951 112.171C233.481 116.131 233.181 119.031 233.061 120.861H234.651Z" fill="white"/>
<path d="M245.03 107.551V124.101H247.84V128.241H240.4V107.551H245.03Z" fill="white"/>
<path d="M258.48 113.821H254.18V112.291C254.18 111.571 254.12 111.121 254.01 110.921C253.9 110.721 253.721 110.631 253.461 110.631C253.181 110.631 252.971 110.761 252.831 111.031C252.691 111.291 252.62 111.701 252.62 112.231C252.62 112.921 252.7 113.441 252.86 113.791C253.01 114.141 253.45 114.561 254.17 115.061C256.23 116.481 257.53 117.651 258.06 118.561C258.6 119.471 258.86 120.941 258.86 122.971C258.86 124.441 258.71 125.531 258.41 126.231C258.11 126.931 257.54 127.511 256.69 127.991C255.84 128.461 254.85 128.701 253.72 128.701C252.48 128.701 251.42 128.431 250.55 127.881C249.68 127.331 249.101 126.641 248.831 125.801C248.561 124.961 248.42 123.761 248.42 122.211V120.851H252.72V123.371C252.72 124.151 252.781 124.641 252.901 124.871C253.021 125.091 253.24 125.201 253.54 125.201C253.84 125.201 254.08 125.061 254.23 124.781C254.38 124.501 254.461 124.081 254.461 123.531C254.461 122.311 254.321 121.521 254.031 121.141C253.741 120.761 253.01 120.141 251.86 119.261C250.71 118.371 249.95 117.731 249.57 117.331C249.2 116.931 248.891 116.371 248.641 115.671C248.391 114.961 248.271 114.061 248.271 112.961C248.271 111.381 248.45 110.221 248.79 109.481C249.14 108.751 249.7 108.171 250.48 107.761C251.26 107.351 252.19 107.141 253.29 107.141C254.49 107.141 255.52 107.371 256.36 107.821C257.21 108.271 257.77 108.841 258.04 109.531C258.31 110.221 258.451 111.381 258.451 113.031V113.851L258.48 113.821Z" fill="white"/>
<path d="M237.24 204.01C237.24 187.4 224.09 173.83 207.66 173.08C203.34 161.14 191.93 152.57 178.52 152.57C165.11 152.57 153.7 161.14 149.38 173.08C132.95 173.83 119.8 187.4 119.8 204.01C119.8 213.89 124.47 222.69 131.69 228.37C130.96 231.01 130.54 233.77 130.54 236.64C130.54 253.74 144.45 267.65 161.55 267.65C167.93 267.65 173.86 265.71 178.8 262.39C183.73 265.71 189.67 267.65 196.05 267.65C213.15 267.65 227.06 253.74 227.06 236.64C227.06 233.65 226.61 230.77 225.82 228.03C232.79 222.34 237.25 213.69 237.25 204.01H237.24ZM202.94 183.58C202.94 195.81 193.88 205.95 182.13 207.7C181.95 206.5 181.82 205.27 181.82 204.02C181.82 191.79 190.88 181.65 202.63 179.9C202.81 181.1 202.94 182.33 202.94 183.58ZM187.32 219.43C186.88 218.78 186.41 218.16 185.92 217.54C185.4 216.77 184.94 215.96 184.52 215.13C187.95 213.28 191.88 212.23 196.04 212.23C205.5 212.23 213.7 217.64 217.75 225.53C214.32 227.38 210.39 228.43 206.23 228.43C198.61 228.43 191.8 224.92 187.32 219.43ZM178.8 253.91C174.37 249.49 171.63 243.38 171.63 236.65C171.63 229.92 174.37 223.81 178.8 219.39C179.39 219.98 179.94 220.59 180.46 221.24C180.9 221.89 181.37 222.51 181.86 223.13C184.45 227.01 185.97 231.66 185.97 236.66C185.97 243.4 183.23 249.5 178.8 253.92V253.91ZM154.42 179.9C166.17 181.65 175.23 191.78 175.23 204.02C175.23 205.27 175.11 206.5 174.92 207.7C163.17 205.95 154.11 195.82 154.11 183.58C154.11 182.33 154.23 181.1 154.42 179.9ZM172.63 214.91C168.62 222.91 160.36 228.42 150.82 228.42C146.83 228.42 143.07 227.44 139.75 225.74C143.76 217.74 152.02 212.23 161.56 212.23C165.55 212.23 169.31 213.21 172.63 214.91ZM178.52 159.16C188.4 159.16 196.9 165.07 200.74 173.52C190.99 175.27 182.82 181.59 178.52 190.18C174.21 181.59 166.05 175.27 156.3 173.52C160.14 165.06 168.65 159.16 178.52 159.16ZM126.4 204.01C126.4 191.58 135.74 181.31 147.77 179.81C147.62 181.05 147.52 182.3 147.52 183.58C147.52 192.39 151.23 200.34 157.16 205.99C147.27 207.4 138.86 213.47 134.28 221.92C129.45 217.46 126.4 211.09 126.4 204.01ZM137.14 236.64C137.14 235.06 137.3 233.51 137.59 232.01C141.61 233.91 146.08 235.01 150.81 235.01C156.13 235.01 161.15 233.66 165.53 231.28C165.23 233.02 165.04 234.8 165.04 236.63C165.04 244.86 168.28 252.33 173.53 257.88C169.99 259.88 165.91 261.04 161.55 261.04C148.09 261.04 137.14 250.09 137.14 236.63V236.64ZM220.46 236.64C220.46 250.1 209.51 261.05 196.05 261.05C191.7 261.05 187.62 259.89 184.07 257.89C189.32 252.33 192.56 244.87 192.56 236.64C192.56 234.91 192.38 233.23 192.11 231.58C196.35 233.76 201.15 235.02 206.23 235.02C211.31 235.02 215.82 233.83 219.96 231.77C220.28 233.35 220.45 234.98 220.45 236.64H220.46ZM199.97 205.92C205.85 200.27 209.53 192.36 209.53 183.58C209.53 182.3 209.43 181.05 209.28 179.81C221.31 181.32 230.65 191.58 230.65 204.01C230.65 210.91 227.76 217.15 223.13 221.59C218.43 213.17 209.93 207.18 199.97 205.91V205.92Z" fill="white"/>
</svg>
