<svg width="374" height="386" viewBox="0 0 374 386" fill="none" xmlns="http://www.w3.org/2000/svg">
<path d="M373.75 165.45C295.35 96.48 205.55 40.24 107.49 0L0 277.41C63.63 304.07 122.11 340.58 173.54 385.02L373.75 165.45Z" fill="#D3A243"/>
<path d="M154.939 97.4785V101.619L151.489 114.029H154.939V118.169H146.409V115.169L149.969 101.619H146.829V97.4785H154.939Z" fill="white"/>
<path d="M155.999 97.4785H163.719V101.619H160.629V105.539H163.519V109.479H160.629V114.029H164.029V118.169H156.009V97.4785H155.999Z" fill="white"/>
<path d="M165.219 97.4788H168.499C170.679 97.4788 172.159 97.5788 172.939 97.7688C173.709 97.9688 174.339 98.4688 174.829 99.2688C175.319 100.079 175.559 101.359 175.559 103.119C175.559 104.729 175.389 105.809 175.039 106.369C174.699 106.919 174.019 107.259 173.009 107.369C173.929 107.629 174.539 107.989 174.859 108.429C175.179 108.869 175.369 109.279 175.449 109.649C175.529 110.019 175.569 111.039 175.569 112.709V118.169H171.269V111.289C171.269 110.179 171.189 109.499 171.039 109.229C170.889 108.969 170.499 108.829 169.859 108.829V118.159H165.229V97.4688L165.219 97.4788ZM169.849 101.019V105.619C170.369 105.619 170.729 105.539 170.939 105.369C171.149 105.199 171.249 104.659 171.249 103.749V102.609C171.249 101.949 171.149 101.519 170.949 101.319C170.749 101.119 170.379 101.009 169.849 101.009V101.019Z" fill="white"/>
<path d="M187.779 109.589C187.779 111.669 187.739 113.139 187.649 114.009C187.569 114.869 187.299 115.669 186.859 116.379C186.419 117.099 185.819 117.639 185.059 118.029C184.299 118.409 183.429 118.609 182.419 118.609C181.409 118.609 180.609 118.429 179.849 118.069C179.089 117.709 178.479 117.159 178.019 116.439C177.559 115.719 177.279 114.929 177.199 114.079C177.109 113.229 177.069 111.739 177.069 109.609V106.069C177.069 103.989 177.109 102.519 177.199 101.649C177.279 100.789 177.549 99.9888 177.989 99.2788C178.429 98.5588 179.029 98.0088 179.789 97.6288C180.539 97.2488 181.419 97.0488 182.429 97.0488C183.439 97.0488 184.239 97.2288 184.999 97.5888C185.759 97.9488 186.369 98.4988 186.829 99.2188C187.289 99.9388 187.569 100.729 187.649 101.579C187.739 102.429 187.779 103.919 187.779 106.049V109.589ZM183.159 102.799C183.159 101.839 183.109 101.219 183.019 100.949C182.929 100.679 182.739 100.549 182.449 100.549C182.209 100.549 182.019 100.659 181.899 100.879C181.769 101.099 181.709 101.739 181.709 102.799V112.459C181.709 113.659 181.749 114.399 181.839 114.679C181.919 114.959 182.119 115.099 182.429 115.099C182.739 115.099 182.949 114.939 183.029 114.609C183.119 114.289 183.159 113.519 183.159 112.299V102.789V102.799Z" fill="white"/>
<path d="M157.839 125.309V145.999H153.209V137.309H151.829V145.999H147.199V125.309H151.829V132.709H153.209V125.309H157.839Z" fill="white"/>
<path d="M170.079 125.309V139.139C170.079 140.709 170.039 141.809 169.949 142.439C169.859 143.069 169.599 143.729 169.169 144.399C168.739 145.069 168.169 145.579 167.459 145.919C166.749 146.269 165.919 146.439 164.959 146.439C163.899 146.439 162.959 146.239 162.149 145.829C161.339 145.419 160.729 144.889 160.329 144.229C159.929 143.569 159.689 142.879 159.619 142.149C159.549 141.419 159.509 139.889 159.509 137.559V125.319H164.139V140.839C164.139 141.739 164.179 142.319 164.269 142.569C164.349 142.819 164.519 142.949 164.779 142.949C165.069 142.949 165.259 142.809 165.349 142.529C165.429 142.249 165.479 141.599 165.479 140.569V125.319H170.109L170.079 125.309Z" fill="white"/>
<path d="M182.07 125.309V145.999H178.01L175.599 136.589V145.999H171.729V125.309H175.599L178.19 134.629V125.309H182.06H182.07Z" fill="white"/>
<path d="M194.409 132.929H189.779V131.049C189.779 129.869 189.739 129.119 189.649 128.829C189.559 128.529 189.349 128.379 189.019 128.379C188.729 128.379 188.539 128.509 188.439 128.759C188.339 129.019 188.289 129.669 188.289 130.729V140.659C188.289 141.589 188.339 142.199 188.439 142.489C188.539 142.779 188.749 142.929 189.059 142.929C189.399 142.929 189.629 142.759 189.749 142.429C189.869 142.099 189.929 141.449 189.929 140.489V138.039H188.999V134.899H194.419V146.009H191.509L191.079 144.529C190.759 145.169 190.369 145.649 189.889 145.969C189.409 146.289 188.839 146.449 188.189 146.449C187.409 146.449 186.679 146.229 186.009 145.789C185.329 145.349 184.819 144.809 184.459 144.159C184.109 143.509 183.889 142.829 183.799 142.119C183.709 141.409 183.669 140.339 183.669 138.919V132.769C183.669 130.789 183.759 129.359 183.939 128.459C184.119 127.569 184.649 126.749 185.519 125.999C186.389 125.249 187.509 124.879 188.889 124.879C190.269 124.879 191.369 125.199 192.259 125.849C193.149 126.499 193.739 127.269 194.009 128.159C194.279 129.049 194.419 130.339 194.419 132.039V132.929H194.409Z" fill="white"/>
<path d="M196.069 125.309H203.789V129.449H200.699V133.369H203.589V137.309H200.699V141.859H204.099V145.999H196.079V125.309H196.069Z" fill="white"/>
<path d="M205.289 125.309H208.569C210.749 125.309 212.229 125.409 213.009 125.599C213.779 125.799 214.409 126.299 214.899 127.099C215.389 127.909 215.629 129.189 215.629 130.949C215.629 132.559 215.459 133.639 215.109 134.199C214.769 134.749 214.089 135.089 213.079 135.199C213.999 135.459 214.609 135.819 214.929 136.259C215.249 136.699 215.439 137.109 215.519 137.479C215.599 137.849 215.639 138.869 215.639 140.539V145.999H211.339V139.119C211.339 138.009 211.259 137.329 211.109 137.059C210.959 136.799 210.569 136.659 209.929 136.659V145.989H205.299V125.299L205.289 125.309ZM209.919 128.849V133.449C210.439 133.449 210.799 133.369 211.009 133.199C211.219 133.029 211.319 132.489 211.319 131.579V130.439C211.319 129.779 211.219 129.349 211.019 129.149C210.819 128.949 210.449 128.839 209.919 128.839V128.849Z" fill="white"/>
<path d="M123.869 137.79V145.99H102.659V139.13C108.949 126.34 112.679 118.43 113.869 115.39C115.059 112.35 115.649 109.98 115.649 108.28C115.649 106.97 115.469 106 115.109 105.36C114.749 104.72 114.209 104.4 113.469 104.4C112.729 104.4 112.189 104.76 111.829 105.47C111.469 106.18 111.289 107.6 111.289 109.72V114.29H102.649V112.54C102.649 109.85 102.759 107.72 102.979 106.17C103.199 104.62 103.749 103.09 104.629 101.58C105.499 100.08 106.639 98.9398 108.039 98.1698C109.439 97.3998 111.119 97.0098 113.069 97.0098C116.899 97.0098 119.799 98.1898 121.769 100.56C123.729 102.93 124.719 105.92 124.719 109.54C124.719 112.29 124.169 115.2 123.059 118.27C121.949 121.34 118.699 127.85 113.289 137.81H123.859L123.869 137.79Z" fill="white"/>
<path d="M259.789 229.541H136.249C135.779 229.541 135.399 229.931 135.409 230.391C135.829 252.901 152.659 272.011 176.169 279.461C176.509 279.571 176.749 279.881 176.749 280.241V283.431C176.749 283.891 177.119 284.261 177.579 284.261H218.459C218.919 284.261 219.289 283.891 219.289 283.431V280.241C219.289 279.881 219.519 279.571 219.869 279.461C243.379 272.011 260.219 252.901 260.629 230.391C260.629 229.921 260.249 229.541 259.789 229.541Z" fill="white"/>
<path d="M174.169 223.92C174.099 224.28 174.089 224.64 174.109 225H182.889C183.249 222.45 184.059 212.54 176.889 202.89C171.359 195.45 171.789 187.11 178.169 178.09C179.569 176.11 179.099 173.37 177.119 171.97C175.139 170.57 172.399 171.04 170.999 173.02C162.429 185.14 162.019 197.61 169.839 208.13C175.539 215.8 174.239 223.52 174.169 223.91V223.92Z" fill="white"/>
<path d="M198.499 223.92C198.429 224.28 198.419 224.64 198.439 225H207.219C207.579 222.45 208.389 212.54 201.219 202.89C195.689 195.45 196.119 187.11 202.499 178.09C203.899 176.11 203.429 173.37 201.449 171.97C199.469 170.57 196.729 171.04 195.319 173.02C186.749 185.14 186.339 197.61 194.159 208.13C199.859 215.8 198.559 223.52 198.489 223.91L198.499 223.92Z" fill="white"/>
<path d="M222.839 223.92C222.769 224.28 222.759 224.64 222.779 225H231.559C231.919 222.45 232.729 212.54 225.559 202.89C220.029 195.45 220.459 187.11 226.839 178.09C228.239 176.11 227.769 173.37 225.789 171.97C223.809 170.57 221.069 171.04 219.669 173.02C211.099 185.14 210.689 197.61 218.509 208.13C224.209 215.8 222.909 223.52 222.839 223.91V223.92Z" fill="white"/>
</svg>
