<svg width="390" height="383" viewBox="0 0 390 383" fill="none" xmlns="http://www.w3.org/2000/svg">
<path d="M123.19 382.43L389.32 249.98C340.36 156.38 276.24 72 200.19 0L0 219.55C49.13 266.82 90.8401 321.76 123.19 382.43Z" fill="#549B35"/>
<path d="M120.969 156.31C122.429 156.92 123.519 157.93 124.239 159.33C124.959 160.73 125.309 164 125.309 169.15C125.309 172.97 124.959 175.94 124.259 178.05C123.559 180.16 122.349 181.76 120.629 182.86C118.909 183.96 116.709 184.51 114.019 184.51C110.969 184.51 108.569 183.87 106.829 182.59C105.089 181.31 103.939 179.75 103.389 177.9C102.839 176.05 102.569 172.84 102.569 168.26V164.46H112.209V172.27C112.209 174.35 112.309 175.67 112.509 176.23C112.709 176.79 113.149 177.08 113.829 177.08C114.579 177.08 115.069 176.72 115.309 176.01C115.549 175.3 115.669 173.44 115.669 170.43V167.1C115.669 165.26 115.499 163.91 115.169 163.06C114.839 162.21 114.339 161.65 113.689 161.38C113.039 161.11 111.769 160.96 109.899 160.92V153.94C112.189 153.94 113.609 153.83 114.149 153.61C114.689 153.39 115.079 152.92 115.319 152.18C115.559 151.45 115.679 150.3 115.679 148.74V146.07C115.679 144.39 115.539 143.28 115.259 142.74C114.979 142.21 114.549 141.94 113.959 141.94C113.289 141.94 112.829 142.22 112.589 142.79C112.339 143.35 112.219 144.56 112.219 146.4V150.35H102.579V146.25C102.579 141.66 103.419 138.56 105.109 136.94C106.789 135.33 109.479 134.52 113.149 134.52C117.749 134.52 120.859 135.64 122.499 137.87C124.139 140.11 124.959 143.21 124.959 147.19C124.959 149.88 124.669 151.82 124.079 153.02C123.489 154.22 122.459 155.31 120.979 156.3L120.969 156.31Z" fill="white"/>
<path d="M154.399 142.659H149.769V140.779C149.769 139.599 149.729 138.849 149.639 138.559C149.549 138.259 149.339 138.109 149.009 138.109C148.719 138.109 148.529 138.239 148.429 138.489C148.329 138.749 148.279 139.399 148.279 140.459V150.389C148.279 151.319 148.329 151.929 148.429 152.219C148.529 152.509 148.739 152.659 149.049 152.659C149.389 152.659 149.619 152.489 149.739 152.159C149.859 151.829 149.919 151.179 149.919 150.219V147.769H148.989V144.629H154.409V155.739H151.499L151.069 154.259C150.749 154.899 150.359 155.379 149.879 155.699C149.399 156.019 148.829 156.179 148.179 156.179C147.399 156.179 146.669 155.959 145.999 155.519C145.319 155.079 144.809 154.539 144.449 153.889C144.099 153.239 143.879 152.559 143.789 151.849C143.699 151.139 143.659 150.069 143.659 148.649V142.499C143.659 140.519 143.749 139.089 143.939 138.189C144.119 137.299 144.649 136.479 145.519 135.729C146.389 134.979 147.509 134.609 148.889 134.609C150.269 134.609 151.369 134.929 152.259 135.579C153.149 136.229 153.739 136.999 154.009 137.889C154.279 138.779 154.419 140.069 154.419 141.769V142.659H154.399Z" fill="white"/>
<path d="M166.629 147.159C166.629 149.239 166.589 150.709 166.499 151.579C166.419 152.439 166.149 153.229 165.709 153.949C165.269 154.669 164.669 155.209 163.909 155.599C163.159 155.979 162.279 156.179 161.269 156.179C160.259 156.179 159.459 155.999 158.699 155.639C157.939 155.279 157.329 154.729 156.869 154.009C156.409 153.289 156.129 152.499 156.049 151.649C155.959 150.799 155.919 149.309 155.919 147.179V143.639C155.919 141.559 155.959 140.089 156.049 139.219C156.129 138.359 156.399 137.569 156.839 136.849C157.279 136.129 157.879 135.579 158.639 135.199C159.399 134.819 160.269 134.619 161.279 134.619C162.229 134.619 163.089 134.799 163.849 135.159C164.609 135.519 165.219 136.069 165.679 136.789C166.139 137.509 166.419 138.299 166.499 139.149C166.589 139.999 166.629 141.489 166.629 143.619V147.159ZM161.999 140.359C161.999 139.399 161.949 138.779 161.859 138.509C161.769 138.239 161.579 138.109 161.289 138.109C161.049 138.109 160.859 138.219 160.739 138.439C160.609 138.659 160.549 139.299 160.549 140.359V150.019C160.549 151.219 160.589 151.959 160.679 152.239C160.759 152.519 160.959 152.659 161.269 152.659C161.579 152.659 161.789 152.499 161.869 152.169C161.959 151.849 161.999 151.079 161.999 149.859V140.349V140.359Z" fill="white"/>
<path d="M178.789 147.159C178.789 149.239 178.749 150.709 178.659 151.579C178.579 152.439 178.309 153.229 177.869 153.949C177.429 154.669 176.829 155.209 176.069 155.599C175.319 155.979 174.439 156.179 173.429 156.179C172.419 156.179 171.619 155.999 170.859 155.639C170.099 155.279 169.489 154.729 169.029 154.009C168.569 153.289 168.289 152.499 168.209 151.649C168.119 150.799 168.079 149.309 168.079 147.179V143.639C168.079 141.559 168.119 140.089 168.209 139.219C168.289 138.359 168.559 137.569 168.999 136.849C169.439 136.129 170.039 135.579 170.799 135.199C171.559 134.819 172.429 134.619 173.439 134.619C174.389 134.619 175.249 134.799 176.009 135.159C176.769 135.519 177.379 136.069 177.839 136.789C178.299 137.509 178.579 138.299 178.659 139.149C178.749 139.999 178.789 141.489 178.789 143.619V147.159ZM174.169 140.359C174.169 139.399 174.119 138.779 174.029 138.509C173.939 138.239 173.749 138.109 173.459 138.109C173.219 138.109 173.029 138.219 172.909 138.439C172.779 138.659 172.719 139.299 172.719 140.359V150.019C172.719 151.219 172.759 151.959 172.849 152.239C172.929 152.519 173.129 152.659 173.439 152.659C173.749 152.659 173.959 152.499 174.039 152.169C174.129 151.849 174.169 151.079 174.169 149.859V140.349V140.359Z" fill="white"/>
<path d="M180.379 135.049H183.839C186.079 135.049 187.589 135.169 188.369 135.409C189.159 135.649 189.759 136.039 190.169 136.589C190.579 137.139 190.839 137.739 190.939 138.409C191.039 139.079 191.089 140.389 191.089 142.349V149.599C191.089 151.459 191.009 152.699 190.859 153.329C190.709 153.959 190.449 154.449 190.069 154.799C189.699 155.149 189.229 155.399 188.689 155.539C188.139 155.679 187.309 155.749 186.209 155.749H180.369V135.059L180.379 135.049ZM185.009 138.589V152.199C185.679 152.199 186.089 152.039 186.239 151.729C186.389 151.419 186.469 150.569 186.469 149.189V141.149C186.469 140.209 186.439 139.609 186.389 139.349C186.339 139.089 186.219 138.889 186.039 138.769C185.859 138.649 185.509 138.579 185.009 138.579V138.589Z" fill="white"/>
<path d="M207.16 135.049V155.739H202.53V147.049H201.14V155.739H196.51V135.049H201.14V142.449H202.53V135.049H207.16Z" fill="white"/>
<path d="M208.89 135.049H216.61V139.189H213.52V143.109H216.41V147.049H213.52V151.599H216.92V155.739H208.9V135.049H208.89Z" fill="white"/>
<path d="M226.109 135.049L228.759 155.739H224.029L223.779 152.019H222.129L221.849 155.739H217.069L219.429 135.049H226.119H226.109ZM223.649 148.349C223.419 146.009 223.179 143.109 222.949 139.659C222.479 143.619 222.179 146.519 222.059 148.349H223.649Z" fill="white"/>
<path d="M234.029 135.049V151.599H236.839V155.739H229.399V135.049H234.029Z" fill="white"/>
<path d="M245.529 135.049V139.189H242.779V155.739H238.149V139.189H235.409V135.049H245.519H245.529Z" fill="white"/>
<path d="M257.089 135.049V155.739H252.459V147.049H251.069V155.739H246.439V135.049H251.069V142.449H252.459V135.049H257.089Z" fill="white"/>
<path d="M151.779 162.879L154.429 183.569H149.699L149.449 179.849H147.799L147.519 183.569H142.739L145.099 162.879H151.789H151.779ZM149.329 176.179C149.099 173.839 148.859 170.939 148.629 167.489C148.159 171.449 147.859 174.349 147.739 176.179H149.329Z" fill="white"/>
<path d="M165.409 162.879V183.569H161.349L158.939 174.159V183.569H155.069V162.879H158.939L161.529 172.199V162.879H165.399H165.409Z" fill="white"/>
<path d="M167.129 162.879H170.589C172.819 162.879 174.339 162.999 175.119 163.239C175.909 163.479 176.509 163.869 176.919 164.419C177.329 164.969 177.589 165.569 177.689 166.239C177.789 166.909 177.839 168.219 177.839 170.179V177.429C177.839 179.289 177.759 180.529 177.609 181.159C177.459 181.789 177.199 182.279 176.819 182.629C176.449 182.979 175.979 183.229 175.439 183.369C174.889 183.509 174.059 183.579 172.959 183.579H167.119V162.889L167.129 162.879ZM171.759 166.419V180.029C172.429 180.029 172.839 179.869 172.989 179.559C173.139 179.249 173.219 178.399 173.219 177.019V168.979C173.219 168.039 173.189 167.439 173.139 167.179C173.089 166.919 172.969 166.719 172.789 166.599C172.609 166.479 172.259 166.409 171.759 166.409V166.419Z" fill="white"/>
<path d="M200.69 162.879L198.63 183.569H192.85C192.32 180.389 191.85 176.769 191.45 172.719C191.27 174.459 190.84 178.079 190.16 183.569H184.41L182.34 162.879H186.84L187.33 170.099L187.8 177.079C187.97 173.469 188.4 168.739 189.08 162.879H193.88C193.94 163.479 194.11 165.759 194.38 169.699L194.89 177.569C195.15 172.559 195.58 167.659 196.18 162.869H200.68L200.69 162.879Z" fill="white"/>
<path d="M201.47 162.879H209.19V167.019H206.1V170.939H208.99V174.879H206.1V179.429H209.5V183.569H201.48V162.879H201.47Z" fill="white"/>
<path d="M215.319 162.879V179.429H218.129V183.569H210.689V162.879H215.319Z" fill="white"/>
<path d="M223.739 162.879V179.429H226.549V183.569H219.109V162.879H223.739Z" fill="white"/>
<path d="M232.85 173.309V176.879H227.01V173.309H232.85Z" fill="white"/>
<path d="M234.039 162.879H238.659C240.119 162.879 241.219 163.009 241.969 163.279C242.719 163.539 243.329 164.079 243.789 164.879C244.249 165.679 244.479 166.979 244.479 168.769C244.479 169.979 244.319 170.819 243.989 171.299C243.659 171.779 243.019 172.139 242.059 172.399C243.129 172.679 243.859 173.149 244.239 173.799C244.619 174.449 244.809 175.449 244.809 176.799V178.719C244.809 180.119 244.669 181.149 244.399 181.829C244.129 182.499 243.689 182.959 243.089 183.209C242.489 183.459 241.259 183.579 239.399 183.579H234.049V162.889L234.039 162.879ZM238.669 166.419V171.019C238.869 171.019 239.019 171.009 239.129 171.009C239.579 171.009 239.869 170.879 239.999 170.619C240.119 170.359 240.189 169.619 240.189 168.389C240.189 167.739 240.139 167.289 240.039 167.029C239.939 166.769 239.799 166.609 239.639 166.539C239.479 166.469 239.149 166.429 238.679 166.429L238.669 166.419ZM238.669 174.239V180.029C239.319 179.999 239.739 179.889 239.919 179.669C240.099 179.459 240.189 178.929 240.189 178.099V176.169C240.189 175.279 240.109 174.749 239.949 174.559C239.789 174.369 239.359 174.269 238.669 174.239Z" fill="white"/>
<path d="M246.329 162.879H254.049V167.019H250.959V170.939H253.849V174.879H250.959V179.429H254.359V183.569H246.339V162.879H246.329Z" fill="white"/>
<path d="M260.179 162.879V183.569H255.549V162.879H260.179Z" fill="white"/>
<path d="M272.23 162.879V183.569H268.17L265.76 174.159V183.569H261.89V162.879H265.76L268.35 172.199V162.879H272.22H272.23Z" fill="white"/>
<path d="M284.58 170.489H279.95V168.609C279.95 167.429 279.91 166.679 279.82 166.389C279.73 166.089 279.52 165.939 279.19 165.939C278.9 165.939 278.71 166.069 278.61 166.319C278.51 166.579 278.46 167.229 278.46 168.289V178.219C278.46 179.149 278.51 179.759 278.61 180.049C278.71 180.339 278.92 180.489 279.23 180.489C279.57 180.489 279.8 180.319 279.92 179.989C280.04 179.659 280.1 179.009 280.1 178.049V175.599H279.17V172.459H284.59V183.569H281.68L281.25 182.089C280.93 182.729 280.54 183.209 280.06 183.529C279.58 183.849 279.01 184.009 278.36 184.009C277.58 184.009 276.85 183.789 276.18 183.349C275.5 182.909 274.99 182.369 274.63 181.719C274.28 181.069 274.06 180.389 273.97 179.679C273.88 178.969 273.84 177.899 273.84 176.479V170.329C273.84 168.349 273.93 166.919 274.12 166.019C274.3 165.129 274.83 164.309 275.7 163.559C276.57 162.809 277.69 162.439 279.07 162.439C280.45 162.439 281.55 162.759 282.44 163.409C283.33 164.059 283.92 164.829 284.19 165.719C284.46 166.609 284.6 167.899 284.6 169.599V170.489H284.58Z" fill="white"/>
<path d="M210.71 316.229C210.64 316.229 210.58 316.229 210.51 316.229C208.99 316.139 207.73 315.019 207.47 313.519L199.14 266.679L187.53 287.679C186.85 288.919 185.45 289.589 184.05 289.329C182.66 289.079 181.58 287.959 181.38 286.559L176.29 251.339L166.65 271.649C166.1 272.799 164.95 273.529 163.67 273.529H124.56C122.74 273.529 121.26 272.049 121.26 270.229C121.26 268.409 122.74 266.929 124.56 266.929H161.59L175.01 238.649C175.63 237.339 177.05 236.589 178.48 236.799C179.92 237.019 181.04 238.149 181.25 239.589L186.49 275.899L197.85 255.339C198.52 254.119 199.9 253.449 201.27 253.679C202.65 253.909 203.73 254.979 203.98 256.349L211.55 298.919L239.51 207.899C239.91 206.609 241.05 205.689 242.4 205.579C243.76 205.469 245.02 206.199 245.62 207.409L261.21 239.109C262.01 240.739 261.34 242.719 259.71 243.519C258.08 244.319 256.1 243.649 255.3 242.019L243.37 217.769L213.84 313.889C213.41 315.279 212.13 316.219 210.69 316.219L210.71 316.229Z" fill="white"/>
<path d="M261.48 290.949L261.04 290.619C260.17 289.959 239.82 274.359 239.82 263.669C239.71 259.979 240.78 256.929 243 254.629C245.69 251.859 249.46 250.869 252.08 250.869H252.44C256.57 251.019 260.14 254.799 261.5 256.429C262.92 254.809 266.68 251.029 270.81 250.879H271.17C273.76 250.879 277.46 251.849 280.11 254.579C282.34 256.879 283.41 259.939 283.29 263.699C283.29 274.369 262.8 289.969 261.93 290.629L261.49 290.959L261.48 290.949Z" fill="white"/>
</svg>
