<svg width="353" height="329" viewBox="0 0 353 329" fill="none" xmlns="http://www.w3.org/2000/svg">
<path d="M352.08 301.63C340.29 194.77 310.72 93.21 266.28 0L0 132.53C28.39 193.47 47.5901 259.56 55.8301 329L352.08 301.62V301.63Z" fill="#B81C2B"/>
<path d="M127.55 112.701V144.111H130.29V152.311H127.55V160.771H117.91V152.311H106.46V144.111L114.79 112.701H127.55ZM117.92 144.111V123.651L113.66 144.111H117.92Z" fill="white"/>
<path d="M158.14 132.95V135.46H154.64C153.8 135.46 153.2 135.38 152.86 135.23C152.51 135.08 152.28 134.85 152.16 134.56C152.04 134.26 151.98 133.73 151.98 132.95C150.93 132.92 150.03 132.6 149.28 131.99C148.53 131.39 148.03 130.62 147.79 129.68C147.55 128.75 147.43 127.35 147.43 125.49V119.09C147.43 117.68 147.5 116.61 147.64 115.88C147.78 115.14 148.08 114.45 148.53 113.8C148.98 113.15 149.55 112.66 150.26 112.32C150.96 111.99 151.74 111.82 152.6 111.82C153.63 111.82 154.55 112.02 155.36 112.43C156.17 112.84 156.77 113.36 157.17 113.99C157.57 114.62 157.83 115.27 157.95 115.95C158.07 116.63 158.13 117.63 158.13 118.97V125.69C158.13 127.53 158.05 128.78 157.9 129.43C157.75 130.09 157.45 130.61 157.02 131C156.58 131.39 156 131.68 155.28 131.89C155.3 132.35 155.38 132.64 155.53 132.76C155.67 132.88 156.01 132.94 156.55 132.94H158.15L158.14 132.95ZM153.5 117.58C153.5 116.62 153.45 116 153.36 115.73C153.27 115.46 153.08 115.33 152.79 115.33C152.55 115.33 152.36 115.44 152.24 115.66C152.11 115.88 152.05 116.52 152.05 117.58V127.24C152.05 128.44 152.09 129.18 152.18 129.46C152.26 129.74 152.46 129.88 152.77 129.88C153.08 129.88 153.29 129.72 153.37 129.39C153.46 129.07 153.5 128.3 153.5 127.08V117.57V117.58Z" fill="white"/>
<path d="M170.24 112.26V126.09C170.24 127.66 170.2 128.76 170.11 129.39C170.02 130.02 169.76 130.68 169.33 131.35C168.9 132.02 168.33 132.53 167.62 132.87C166.91 133.22 166.08 133.39 165.12 133.39C164.06 133.39 163.12 133.19 162.31 132.78C161.5 132.37 160.89 131.84 160.48 131.18C160.08 130.52 159.84 129.83 159.77 129.1C159.7 128.37 159.66 126.84 159.66 124.51V112.27H164.29V127.79C164.29 128.69 164.33 129.27 164.42 129.52C164.51 129.77 164.68 129.9 164.93 129.9C165.22 129.9 165.41 129.76 165.5 129.48C165.58 129.2 165.63 128.55 165.63 127.52V112.27H170.26L170.24 112.26Z" fill="white"/>
<path d="M179.899 112.26L182.549 132.95H177.819L177.569 129.23H175.919L175.639 132.95H170.859L173.219 112.26H179.909H179.899ZM177.449 125.57C177.219 123.23 176.979 120.33 176.749 116.88C176.279 120.84 175.979 123.74 175.859 125.57H177.449Z" fill="white"/>
<path d="M187.819 112.26V128.81H190.629V132.95H183.189V112.26H187.819Z" fill="white"/>
<path d="M196.249 112.26V132.95H191.619V112.26H196.249Z" fill="white"/>
<path d="M207.29 112.26V116.4H204.54V132.95H199.91V116.4H197.17V112.26H207.28H207.29Z" fill="white"/>
<path d="M218.63 112.26L215.26 125.46V132.95H210.97V125.46L207.72 112.26H211.97C212.63 116.3 213.01 119.02 213.09 120.41C213.35 118.2 213.78 115.48 214.38 112.26H218.63Z" fill="white"/>
<path d="M147.56 140.09H155.28V144.23H152.19V148.15H155.08V152.09H152.19V156.64H155.59V160.78H147.57V140.09H147.56Z" fill="white"/>
<path d="M156.78 140.09H160.24C162.47 140.09 163.99 140.21 164.77 140.45C165.56 140.69 166.16 141.08 166.57 141.63C166.98 142.18 167.24 142.78 167.34 143.45C167.44 144.12 167.49 145.43 167.49 147.39V154.64C167.49 156.5 167.41 157.74 167.26 158.37C167.11 159 166.849 159.49 166.469 159.84C166.099 160.19 165.63 160.44 165.09 160.58C164.54 160.72 163.709 160.79 162.609 160.79H156.77V140.1L156.78 140.09ZM161.41 143.63V157.24C162.08 157.24 162.49 157.08 162.64 156.77C162.79 156.46 162.87 155.61 162.87 154.23V146.19C162.87 145.25 162.84 144.65 162.79 144.39C162.74 144.13 162.62 143.93 162.44 143.81C162.26 143.69 161.91 143.62 161.41 143.62V143.63Z" fill="white"/>
<path d="M179.599 140.09V153.92C179.599 155.49 179.559 156.59 179.469 157.22C179.379 157.85 179.12 158.51 178.69 159.18C178.26 159.85 177.689 160.36 176.979 160.7C176.269 161.05 175.439 161.22 174.479 161.22C173.419 161.22 172.48 161.02 171.67 160.61C170.86 160.2 170.25 159.67 169.84 159.01C169.44 158.35 169.2 157.66 169.13 156.93C169.06 156.2 169.02 154.67 169.02 152.34V140.1H173.65V155.62C173.65 156.52 173.69 157.1 173.78 157.35C173.87 157.6 174.04 157.73 174.29 157.73C174.58 157.73 174.769 157.59 174.859 157.31C174.939 157.03 174.99 156.38 174.99 155.35V140.1H179.62L179.599 140.09Z" fill="white"/>
<path d="M192.059 149.1H187.429V145.5C187.429 144.45 187.379 143.8 187.279 143.54C187.179 143.28 186.959 143.15 186.629 143.15C186.249 143.15 186.009 143.31 185.899 143.62C185.799 143.94 185.749 144.62 185.749 145.66V155.27C185.749 156.28 185.799 156.93 185.899 157.24C185.999 157.55 186.229 157.7 186.589 157.7C186.949 157.7 187.159 157.55 187.269 157.24C187.379 156.93 187.429 156.21 187.429 155.07V152.47H192.059V153.28C192.059 155.42 191.929 156.94 191.669 157.84C191.409 158.74 190.829 159.52 189.939 160.2C189.049 160.87 187.949 161.21 186.649 161.21C185.349 161.21 184.179 160.92 183.299 160.35C182.419 159.78 181.839 158.99 181.549 157.98C181.259 156.97 181.119 155.45 181.119 153.42V147.37C181.119 145.88 181.159 144.76 181.249 144.02C181.339 143.27 181.599 142.56 182.039 141.87C182.479 141.18 183.079 140.64 183.849 140.24C184.619 139.84 185.509 139.65 186.519 139.65C187.879 139.65 189.009 139.96 189.889 140.57C190.779 141.18 191.359 141.95 191.639 142.86C191.919 143.77 192.059 145.2 192.059 147.13V149.1Z" fill="white"/>
<path d="M201.59 140.09L204.24 160.78H199.51L199.26 157.06H197.61L197.33 160.78H192.55L194.91 140.09H201.6H201.59ZM199.14 153.4C198.91 151.06 198.67 148.16 198.44 144.71C197.97 148.67 197.67 151.57 197.55 153.4H199.14Z" fill="white"/>
<path d="M212.96 140.09V144.23H210.21V160.78H205.58V144.23H202.84V140.09H212.95H212.96Z" fill="white"/>
<path d="M218.51 140.09V160.78H213.88V140.09H218.51Z" fill="white"/>
<path d="M230.81 152.21C230.81 154.29 230.77 155.76 230.68 156.63C230.6 157.49 230.33 158.28 229.89 159C229.45 159.72 228.85 160.27 228.09 160.65C227.34 161.03 226.46 161.23 225.45 161.23C224.5 161.23 223.64 161.05 222.88 160.69C222.12 160.33 221.51 159.78 221.05 159.06C220.59 158.34 220.31 157.55 220.23 156.7C220.14 155.85 220.1 154.36 220.1 152.23V148.69C220.1 146.61 220.14 145.14 220.23 144.27C220.31 143.41 220.58 142.61 221.02 141.9C221.46 141.18 222.06 140.63 222.82 140.25C223.58 139.87 224.45 139.67 225.46 139.67C226.41 139.67 227.27 139.85 228.03 140.21C228.79 140.57 229.4 141.12 229.86 141.84C230.32 142.56 230.6 143.35 230.68 144.2C230.77 145.05 230.81 146.54 230.81 148.67V152.21ZM226.18 145.41C226.18 144.45 226.13 143.83 226.04 143.56C225.95 143.29 225.76 143.16 225.47 143.16C225.23 143.16 225.04 143.27 224.92 143.49C224.79 143.71 224.73 144.35 224.73 145.41V155.07C224.73 156.27 224.77 157.01 224.86 157.29C224.94 157.57 225.14 157.71 225.45 157.71C225.76 157.71 225.97 157.55 226.05 157.22C226.14 156.9 226.18 156.13 226.18 154.91V145.4V145.41Z" fill="white"/>
<path d="M242.73 140.09V160.78H238.67L236.26 151.37V160.78H232.39V140.09H236.26L238.85 149.41V140.09H242.72H242.73Z" fill="white"/>
<path d="M187.57 296.961L135.38 282.191V196.811L141.24 193.701V277.761L187.49 290.851C188.98 291.271 190.56 291.251 192.05 290.791L239.16 276.071V193.701L245.02 196.811V280.371L192.14 296.901C190.66 297.361 189.08 297.381 187.58 296.961H187.57Z" fill="white"/>
<path d="M145.62 193.701L188.16 218.671V287.351L145.62 275.011V193.701Z" fill="white"/>
<path d="M235.25 193.701L192.71 218.671V287.351L235.25 275.011V193.701Z" fill="white"/>
<path d="M268.63 191.851C268.36 189.151 266.11 187.041 263.34 187.041C260.57 187.041 258.32 189.151 258.04 191.851H257.99V198.831C257.99 199.061 258.18 199.251 258.41 199.251H268.28C268.51 199.251 268.7 199.061 268.7 198.831V191.851H268.65H268.63Z" fill="white"/>
<path d="M268.67 273.902L263.74 290.342C263.62 290.732 263.06 290.732 262.94 290.342L258.01 273.902C258.01 273.902 257.99 273.822 257.99 273.782V202.852C257.99 202.622 258.18 202.432 258.41 202.432H268.28C268.51 202.432 268.7 202.622 268.7 202.852V273.782C268.7 273.782 268.7 273.862 268.68 273.902H268.67Z" fill="white"/>
</svg>
