<svg width="318" height="313" viewBox="0 0 318 313" fill="none" xmlns="http://www.w3.org/2000/svg">
<path d="M0 230.79L286.04 312.27C306.59 234.81 317.67 153.54 317.67 69.7C317.67 46.23 316.52 23.04 314.83 0L18.71 27.37C19.62 41.44 20.08 55.63 20.08 69.93C20.08 125.45 13.11 179.34 0 230.78V230.79Z" fill="#E83828"/>
<path d="M115.449 49.1914V56.8814H103.5V65.0514C105 62.8514 106.92 61.7514 109.27 61.7514C111.93 61.7514 113.929 62.6814 115.289 64.5314C116.649 66.3814 117.329 69.9414 117.329 75.2014V82.0614C117.329 85.4714 117.199 87.9614 116.939 89.5614C116.679 91.1514 116.12 92.6314 115.26 93.9814C114.4 95.3414 113.199 96.3814 111.669 97.1014C110.129 97.8214 108.259 98.1814 106.049 98.1814C103.569 98.1814 101.38 97.6414 99.4895 96.5614C97.5995 95.4814 96.2495 93.8714 95.4595 91.7414C94.6695 89.6014 94.2695 86.3014 94.2695 81.8214V79.2114H103.909V82.2114C103.909 85.3214 103.999 87.5214 104.169 88.8314C104.339 90.1414 104.949 90.7914 105.979 90.7914C106.459 90.7914 106.84 90.6014 107.14 90.2314C107.43 89.8514 107.59 89.4514 107.62 89.0114C107.64 88.5714 107.669 86.6814 107.699 83.3414V73.8114C107.699 72.0114 107.55 70.7814 107.25 70.1314C106.95 69.4814 106.45 69.1514 105.75 69.1514C105.3 69.1514 104.93 69.3214 104.63 69.6614C104.33 70.0014 104.129 70.3614 104.049 70.7414C103.959 71.1314 103.919 72.0214 103.919 73.4314H94.3795L94.7894 49.2014H115.469L115.449 49.1914Z" fill="white"/>
<path d="M150.79 56.3703H146.16V54.4903C146.16 53.3103 146.12 52.5603 146.03 52.2703C145.94 51.9703 145.73 51.8203 145.4 51.8203C145.11 51.8203 144.92 51.9503 144.82 52.2003C144.72 52.4603 144.67 53.1103 144.67 54.1703V64.1003C144.67 65.0303 144.72 65.6403 144.82 65.9303C144.92 66.2203 145.13 66.3703 145.44 66.3703C145.78 66.3703 146.01 66.2003 146.13 65.8703C146.25 65.5403 146.31 64.8903 146.31 63.9303V61.4803H145.38V58.3403H150.8V69.4503H147.89L147.46 67.9703C147.14 68.6103 146.75 69.0903 146.27 69.4103C145.79 69.7303 145.22 69.8903 144.57 69.8903C143.79 69.8903 143.06 69.6703 142.39 69.2303C141.71 68.7903 141.2 68.2503 140.84 67.6003C140.49 66.9503 140.27 66.2703 140.18 65.5603C140.09 64.8503 140.05 63.7803 140.05 62.3603V56.2103C140.05 54.2303 140.14 52.8003 140.33 51.9003C140.51 51.0103 141.04 50.1903 141.91 49.4403C142.78 48.6903 143.9 48.3203 145.28 48.3203C146.66 48.3203 147.76 48.6403 148.65 49.2903C149.54 49.9403 150.13 50.7103 150.4 51.6003C150.67 52.4903 150.81 53.7803 150.81 55.4803V56.3703H150.79Z" fill="white"/>
<path d="M152.45 48.75H160.17V52.89H157.08V56.81H159.97V60.75H157.08V65.3H160.48V69.44H152.46V48.75H152.45Z" fill="white"/>
<path d="M172 48.75V69.44H167.94L165.53 60.03V69.44H161.66V48.75H165.53L168.12 58.07V48.75H171.99H172Z" fill="white"/>
<path d="M173.72 48.75H177.18C179.42 48.75 180.93 48.87 181.71 49.11C182.5 49.35 183.1 49.74 183.51 50.29C183.92 50.84 184.18 51.44 184.28 52.11C184.38 52.78 184.43 54.09 184.43 56.05V63.3C184.43 65.16 184.35 66.4 184.2 67.03C184.05 67.66 183.79 68.15 183.41 68.5C183.04 68.85 182.57 69.1 182.03 69.24C181.48 69.38 180.65 69.45 179.55 69.45H173.71V48.76L173.72 48.75ZM178.35 52.29V65.9C179.02 65.9 179.43 65.74 179.58 65.43C179.73 65.12 179.81 64.27 179.81 62.89V54.85C179.81 53.91 179.78 53.31 179.73 53.05C179.68 52.79 179.56 52.59 179.38 52.47C179.2 52.35 178.85 52.28 178.35 52.28V52.29Z" fill="white"/>
<path d="M186.03 48.75H193.75V52.89H190.66V56.81H193.55V60.75H190.66V65.3H194.06V69.44H186.04V48.75H186.03Z" fill="white"/>
<path d="M195.25 48.7502H198.53C200.71 48.7502 202.19 48.8502 202.97 49.0402C203.74 49.2402 204.37 49.7402 204.86 50.5402C205.35 51.3502 205.59 52.6303 205.59 54.3903C205.59 56.0003 205.42 57.0803 205.07 57.6403C204.73 58.1903 204.05 58.5303 203.04 58.6403C203.96 58.9003 204.57 59.2603 204.89 59.7003C205.21 60.1403 205.4 60.5502 205.48 60.9202C205.56 61.2902 205.59 62.3102 205.59 63.9802V69.4402H201.29V62.5602C201.29 61.4502 201.21 60.7702 201.06 60.5002C200.91 60.2402 200.52 60.1002 199.88 60.1002V69.4302H195.25V48.7402V48.7502ZM199.87 52.2902V56.8903C200.39 56.8903 200.75 56.8103 200.96 56.6403C201.17 56.4703 201.27 55.9303 201.27 55.0203V53.8802C201.27 53.2202 201.17 52.7903 200.97 52.5903C200.77 52.3903 200.4 52.2802 199.87 52.2802V52.2902Z" fill="white"/>
<path d="M140.17 76.5801H147.89V80.72H144.8V84.6401H147.69V88.5801H144.8V93.1301H148.2V97.2701H140.18V76.5801H140.17Z" fill="white"/>
<path d="M159.979 97.2706V99.7806H156.479C155.639 99.7806 155.039 99.7006 154.699 99.5506C154.359 99.4006 154.12 99.1706 154 98.8806C153.88 98.5906 153.819 98.0506 153.819 97.2706C152.769 97.2406 151.87 96.9206 151.12 96.3106C150.37 95.7106 149.87 94.9406 149.63 94.0006C149.39 93.0606 149.27 91.6706 149.27 89.8106V83.4106C149.27 82.0006 149.339 80.9306 149.479 80.2006C149.619 79.4606 149.92 78.7706 150.37 78.1206C150.82 77.4706 151.389 76.9806 152.099 76.6406C152.799 76.3106 153.579 76.1406 154.439 76.1406C155.469 76.1406 156.389 76.3406 157.199 76.7506C158.009 77.1606 158.61 77.6806 159.01 78.3106C159.41 78.9406 159.669 79.5906 159.789 80.2706C159.909 80.9506 159.969 81.9506 159.969 83.2906V90.0106C159.969 91.8506 159.89 93.1006 159.74 93.7506C159.59 94.4106 159.289 94.9306 158.859 95.3206C158.419 95.7106 157.84 96.0006 157.12 96.2106C157.14 96.6706 157.22 96.9606 157.37 97.0806C157.51 97.2006 157.85 97.2606 158.39 97.2606H159.99L159.979 97.2706ZM155.339 81.9006C155.339 80.9406 155.289 80.3206 155.199 80.0506C155.109 79.7806 154.92 79.6506 154.63 79.6506C154.39 79.6506 154.199 79.7606 154.079 79.9806C153.949 80.2006 153.89 80.8406 153.89 81.9006V91.5606C153.89 92.7606 153.93 93.5006 154.02 93.7806C154.1 94.0606 154.299 94.2006 154.609 94.2006C154.919 94.2006 155.129 94.0406 155.209 93.7106C155.299 93.3906 155.339 92.6206 155.339 91.4006V81.8906V81.9006Z" fill="white"/>
<path d="M172.07 76.5801V90.41C172.07 91.98 172.03 93.0801 171.94 93.7101C171.85 94.3401 171.59 95 171.16 95.66C170.73 96.33 170.16 96.8401 169.45 97.1801C168.74 97.5301 167.91 97.7001 166.95 97.7001C165.89 97.7001 164.95 97.5001 164.14 97.0901C163.33 96.6801 162.72 96.1501 162.31 95.4901C161.91 94.8301 161.67 94.14 161.6 93.41C161.53 92.68 161.49 91.1501 161.49 88.8201V76.5801H166.12V92.1C166.12 93 166.16 93.5801 166.25 93.8301C166.34 94.0801 166.51 94.2101 166.76 94.2101C167.05 94.2101 167.24 94.07 167.33 93.79C167.41 93.51 167.46 92.8601 167.46 91.8301V76.5801H172.09H172.07Z" fill="white"/>
<path d="M181.729 76.5801L184.38 97.2701H179.65L179.4 93.55H177.75L177.469 97.2701H172.689L175.049 76.5801H181.74H181.729ZM179.28 89.8901C179.05 87.5501 178.809 84.6501 178.579 81.2001C178.109 85.1601 177.809 88.0601 177.689 89.8901H179.28Z" fill="white"/>
<path d="M189.65 76.5801V93.1301H192.459V97.2701H185.02V76.5801H189.65Z" fill="white"/>
<path d="M198.08 76.5801V97.2701H193.45V76.5801H198.08Z" fill="white"/>
<path d="M209.13 76.5801V80.72H206.38V97.2701H201.75V80.72H199.01V76.5801H209.12H209.13Z" fill="white"/>
<path d="M220.47 76.5801L217.1 89.78V97.2701H212.81V89.78L209.56 76.5801H213.81C214.48 80.6201 214.85 83.34 214.93 84.73C215.19 82.52 215.62 79.8001 216.22 76.5801H220.47Z" fill="white"/>
<path d="M210.089 119.831V130.081H222.339L209.809 142.821C203.389 137.891 195.369 134.961 186.669 134.961C165.659 134.961 148.569 152.051 148.569 173.061C148.569 192.211 162.779 208.1 181.209 210.76V222.791H168.779V233.041H181.209V244.281H191.459V233.041H203.889V222.791H191.459V210.841C210.209 208.471 224.759 192.441 224.759 173.051C224.759 164.431 221.879 156.471 217.039 150.081L229.439 137.471V149.841H239.689V119.811H210.079L210.089 119.831ZM186.669 200.911C171.319 200.911 158.829 188.421 158.829 173.061C158.829 157.701 171.319 145.221 186.669 145.221C202.019 145.221 214.509 157.711 214.509 173.061C214.509 188.411 202.019 200.911 186.669 200.911Z" fill="white"/>
<path d="M204.219 160.43H169.119V170.68H204.219V160.43Z" fill="white"/>
<path d="M204.219 175.371H169.119V185.621H204.219V175.371Z" fill="white"/>
</svg>
