<svg width="378" height="362" viewBox="0 0 378 362" fill="none" xmlns="http://www.w3.org/2000/svg">
<path d="M236.89 361.88C298.23 277.76 346.11 183.28 377.21 81.48L91.1899 0C70.4599 66.13 39.44 127.7 0 182.84L236.89 361.87V361.88Z" fill="#23B3D3"/>
<path d="M133.17 85.6204C130.86 86.4504 128.68 87.5203 126.63 88.8203C124.58 90.1303 122.73 91.5903 121.07 93.2003C119.41 94.8103 118.01 96.5603 116.85 98.4303C115.69 100.3 114.88 102.22 114.4 104.18C115.23 103.61 116.25 103.18 117.47 102.87C118.69 102.56 119.87 102.41 121 102.41C123.26 102.41 125.36 102.78 127.28 103.52C129.2 104.26 130.84 105.3 132.22 106.62C133.59 107.95 134.67 109.55 135.46 111.43C136.24 113.3 136.64 115.38 136.64 117.64C136.64 120.3 136.24 122.69 135.43 124.8C134.62 126.91 133.48 128.7 132 130.16C130.52 131.62 128.73 132.74 126.64 133.53C124.55 134.31 122.2 134.71 119.58 134.71C116.83 134.71 114.37 134.25 112.19 133.34C110.01 132.42 108.15 131.08 106.6 129.32C105.05 127.55 103.86 125.35 103.04 122.72C102.21 120.08 101.8 117.06 101.8 113.66C101.8 109.56 102.5 105.68 103.89 102.02C105.28 98.3603 107.23 95.0403 109.74 92.0503C112.25 89.0703 115.24 86.4703 118.73 84.2703C122.22 82.0703 126.05 80.3403 130.24 79.0703L133.18 85.6104L133.17 85.6204ZM115.98 111.12C114.89 111.47 113.95 111.93 113.17 112.49C113.08 112.71 113.03 112.97 113.01 113.27C112.99 113.58 112.98 113.88 112.98 114.19C112.98 115.93 113.11 117.54 113.37 119C113.63 120.46 114.02 121.71 114.55 122.76C115.07 123.81 115.75 124.62 116.58 125.21C117.41 125.8 118.39 126.09 119.52 126.09C121.39 126.09 122.9 125.45 124.03 124.16C125.16 122.87 125.73 120.99 125.73 118.5C125.73 116.19 125.22 114.28 124.19 112.78C123.17 111.28 121.61 110.52 119.52 110.52C118.25 110.52 117.08 110.72 115.99 111.11L115.98 111.12Z" fill="white"/>
<path d="M161.44 93.1899H156.81V89.59C156.81 88.54 156.76 87.8899 156.66 87.6299C156.56 87.3699 156.34 87.24 156.01 87.24C155.63 87.24 155.39 87.4 155.28 87.71C155.18 88.03 155.13 88.7099 155.13 89.7599V99.37C155.13 100.38 155.18 101.03 155.28 101.34C155.38 101.65 155.61 101.8 155.97 101.8C156.33 101.8 156.54 101.65 156.65 101.34C156.76 101.03 156.81 100.31 156.81 99.1699V96.5699H161.44V97.3799C161.44 99.5199 161.31 101.04 161.05 101.94C160.79 102.84 160.21 103.62 159.32 104.3C158.43 104.97 157.33 105.31 156.03 105.31C154.73 105.31 153.56 105.02 152.68 104.45C151.8 103.88 151.22 103.09 150.93 102.08C150.64 101.07 150.5 99.5499 150.5 97.5199V91.47C150.5 89.98 150.54 88.86 150.63 88.12C150.72 87.37 150.98 86.66 151.42 85.97C151.86 85.28 152.46 84.74 153.23 84.34C154 83.94 154.89 83.75 155.9 83.75C157.26 83.75 158.39 84.0599 159.27 84.6699C160.16 85.2799 160.74 86.05 161.02 86.96C161.3 87.87 161.44 89.3 161.44 91.23V93.2V93.1899Z" fill="white"/>
<path d="M167.59 84.1797V100.73H170.4V104.87H162.96V84.1797H167.59Z" fill="white"/>
<path d="M171.39 84.1797H179.11V88.3197H176.02V92.2397H178.91V96.1797H176.02V100.73H179.42V104.87H171.4V84.1797H171.39Z" fill="white"/>
<path d="M188.61 84.1797L191.26 104.87H186.53L186.28 101.15H184.62L184.34 104.87H179.56L181.92 84.1797H188.61ZM186.15 97.4897C185.92 95.1497 185.68 92.2497 185.45 88.7997C184.98 92.7597 184.68 95.6597 184.56 97.4897H186.15Z" fill="white"/>
<path d="M202.24 84.1797V104.87H198.179L195.769 95.4597V104.87H191.899V84.1797H195.769L198.359 93.4998V84.1797H202.229H202.24Z" fill="white"/>
<path d="M225.209 84.1799L223.149 104.87H217.369C216.839 101.69 216.369 98.0699 215.969 94.0199C215.789 95.7599 215.359 99.38 214.679 104.87H208.929L206.859 84.1799H211.359L211.849 91.3999L212.319 98.3799C212.489 94.7699 212.919 90.0399 213.599 84.1799H218.399C218.459 84.7799 218.629 87.06 218.899 91L219.409 98.87C219.669 93.86 220.099 88.9599 220.699 84.1699H225.199L225.209 84.1799Z" fill="white"/>
<path d="M233.769 84.1797L236.419 104.87H231.689L231.439 101.15H229.789L229.51 104.87H224.729L227.089 84.1797H233.779H233.769ZM231.319 97.4897C231.089 95.1497 230.85 92.2497 230.62 88.7997C230.15 92.7597 229.849 95.6597 229.729 97.4897H231.319Z" fill="white"/>
<path d="M245.14 84.1797V88.3197H242.39V104.87H237.76V88.3197H235.02V84.1797H245.13H245.14Z" fill="white"/>
<path d="M246.07 84.1797H253.79V88.3197H250.7V92.2397H253.59V96.1797H250.7V100.73H254.1V104.87H246.08V84.1797H246.07Z" fill="white"/>
<path d="M255.279 84.1799H258.559C260.739 84.1799 262.219 84.28 262.999 84.47C263.769 84.67 264.399 85.17 264.889 85.97C265.379 86.78 265.619 88.0599 265.619 89.8199C265.619 91.4299 265.449 92.5099 265.099 93.0699C264.759 93.6199 264.079 93.9599 263.069 94.0699C263.989 94.3299 264.599 94.6899 264.919 95.1299C265.239 95.5699 265.429 95.98 265.509 96.35C265.589 96.72 265.619 97.7399 265.619 99.4099V104.87H261.319V97.99C261.319 96.88 261.239 96.1999 261.089 95.9299C260.939 95.6699 260.549 95.5299 259.909 95.5299V104.86H255.279V84.1699V84.1799ZM259.909 87.72V92.3199C260.429 92.3199 260.789 92.2399 260.999 92.0699C261.209 91.8999 261.309 91.36 261.309 90.45V89.3099C261.309 88.6499 261.209 88.2199 261.009 88.0199C260.809 87.8199 260.439 87.71 259.909 87.71V87.72Z" fill="white"/>
<path d="M158.63 112.01L161.28 132.7H156.55L156.3 128.98H154.65L154.37 132.7H149.59L151.95 112.01H158.64H158.63ZM156.18 125.32C155.95 122.98 155.71 120.08 155.48 116.63C155.01 120.59 154.71 123.49 154.59 125.32H156.18Z" fill="white"/>
<path d="M172.26 112.01V132.7H168.2L165.79 123.29V132.7H161.92V112.01H165.79L168.38 121.33V112.01H172.25H172.26Z" fill="white"/>
<path d="M173.98 112.01H177.44C179.67 112.01 181.19 112.13 181.97 112.37C182.76 112.61 183.36 113 183.77 113.55C184.18 114.1 184.44 114.7 184.54 115.37C184.64 116.04 184.69 117.35 184.69 119.31V126.56C184.69 128.42 184.61 129.66 184.46 130.29C184.31 130.92 184.05 131.41 183.67 131.76C183.3 132.11 182.83 132.36 182.29 132.5C181.74 132.64 180.91 132.71 179.81 132.71H173.97V112.02L173.98 112.01ZM178.61 115.55V129.16C179.28 129.16 179.69 129 179.84 128.69C179.99 128.38 180.07 127.53 180.07 126.15V118.11C180.07 117.17 180.04 116.57 179.99 116.31C179.94 116.05 179.82 115.85 179.64 115.73C179.46 115.61 179.11 115.54 178.61 115.54V115.55Z" fill="white"/>
<path d="M199.93 118.28H195.63V116.75C195.63 116.03 195.57 115.58 195.46 115.38C195.35 115.18 195.17 115.09 194.91 115.09C194.63 115.09 194.42 115.22 194.28 115.49C194.14 115.75 194.07 116.15 194.07 116.69C194.07 117.38 194.15 117.9 194.31 118.25C194.46 118.6 194.9 119.02 195.62 119.52C197.68 120.94 198.98 122.11 199.51 123.02C200.05 123.93 200.31 125.4 200.31 127.43C200.31 128.9 200.16 129.99 199.86 130.69C199.56 131.39 198.99 131.97 198.14 132.45C197.29 132.92 196.3 133.16 195.17 133.16C193.93 133.16 192.87 132.89 192 132.34C191.13 131.79 190.55 131.1 190.28 130.26C190.01 129.42 189.87 128.22 189.87 126.67V125.32H194.17V127.84C194.17 128.62 194.23 129.11 194.35 129.33C194.47 129.55 194.69 129.66 194.99 129.66C195.29 129.66 195.53 129.52 195.68 129.24C195.83 128.96 195.91 128.54 195.91 127.99C195.91 126.77 195.77 125.97 195.48 125.6C195.19 125.22 194.46 124.6 193.31 123.72C192.16 122.83 191.4 122.19 191.02 121.79C190.65 121.39 190.34 120.84 190.09 120.13C189.84 119.42 189.72 118.52 189.72 117.42C189.72 115.84 189.89 114.68 190.24 113.94C190.59 113.21 191.15 112.63 191.93 112.22C192.71 111.81 193.64 111.6 194.74 111.6C195.94 111.6 196.97 111.83 197.81 112.28C198.66 112.73 199.22 113.3 199.49 113.99C199.76 114.68 199.9 115.84 199.9 117.49V118.31L199.93 118.28Z" fill="white"/>
<path d="M209.63 112.01L212.28 132.7H207.55L207.3 128.98H205.65L205.37 132.7H200.59L202.95 112.01H209.64H209.63ZM207.18 125.32C206.95 122.98 206.71 120.08 206.48 116.63C206.01 120.59 205.71 123.49 205.59 125.32H207.18Z" fill="white"/>
<path d="M223.26 112.01V132.7H219.2L216.79 123.29V132.7H212.92V112.01H216.79L219.38 121.33V112.01H223.25H223.26Z" fill="white"/>
<path d="M229.609 112.01V132.7H224.979V112.01H229.609Z" fill="white"/>
<path d="M240.649 112.01V116.15H237.899V132.7H233.269V116.15H230.529V112.01H240.639H240.649Z" fill="white"/>
<path d="M248.67 112.01L251.32 132.7H246.59L246.34 128.98H244.68L244.4 132.7H239.62L241.98 112.01H248.67ZM246.22 125.32C245.99 122.98 245.75 120.08 245.52 116.63C245.05 120.59 244.75 123.49 244.63 125.32H246.22Z" fill="white"/>
<path d="M260.04 112.01V116.15H257.29V132.7H252.66V116.15H249.92V112.01H260.03H260.04Z" fill="white"/>
<path d="M265.59 112.01V132.7H260.96V112.01H265.59Z" fill="white"/>
<path d="M277.89 124.13C277.89 126.21 277.85 127.68 277.76 128.55C277.68 129.41 277.41 130.2 276.97 130.92C276.53 131.64 275.93 132.19 275.17 132.57C274.42 132.95 273.54 133.15 272.53 133.15C271.52 133.15 270.72 132.97 269.96 132.61C269.2 132.25 268.59 131.7 268.13 130.98C267.67 130.26 267.39 129.47 267.31 128.62C267.22 127.77 267.18 126.28 267.18 124.15V120.61C267.18 118.53 267.22 117.06 267.31 116.19C267.39 115.33 267.66 114.54 268.1 113.82C268.54 113.1 269.14 112.55 269.9 112.17C270.65 111.79 271.53 111.59 272.54 111.59C273.49 111.59 274.35 111.77 275.11 112.13C275.87 112.49 276.48 113.04 276.94 113.76C277.4 114.48 277.68 115.27 277.76 116.12C277.85 116.97 277.89 118.46 277.89 120.59V124.13ZM273.26 117.33C273.26 116.37 273.21 115.75 273.12 115.48C273.03 115.21 272.84 115.08 272.55 115.08C272.31 115.08 272.12 115.19 272 115.41C271.87 115.63 271.81 116.27 271.81 117.33V126.99C271.81 128.19 271.85 128.93 271.94 129.21C272.03 129.49 272.22 129.63 272.53 129.63C272.84 129.63 273.05 129.47 273.13 129.14C273.22 128.82 273.26 128.05 273.26 126.83V117.32V117.33Z" fill="white"/>
<path d="M289.81 112.01V132.7H285.75L283.34 123.29V132.7H279.47V112.01H283.34L285.93 121.33V112.01H289.8H289.81Z" fill="white"/>
<path d="M205.89 160H162.19V164.86L175.97 248.39H195.25L195.92 263.36H188.07L205.89 281.34L223.71 263.36H215.86L216.53 248.39H235.81L249.59 164.86V160H205.89ZM205.89 234.06C198.16 234.06 191.89 227.42 191.89 219.26C191.89 211.59 195.9 205.06 204.22 196.03C205.334 194.81 206.454 194.81 207.58 196.03C215.87 205.07 219.9 211.6 219.9 219.26C219.9 227.42 213.63 234.06 205.9 234.06H205.89ZM243.64 178.34C243.64 178.34 239.01 176.39 227.08 181.75C215.15 187.11 208.08 182.72 203.46 180.65C198.83 178.58 193.23 173.71 182.27 178.34C171.31 182.97 169.36 180.65 169.36 180.65L166.19 164.7H245.58L243.63 178.34H243.64Z" fill="white"/>
</svg>
