<svg width="388" height="391" viewBox="0 0 388 391" fill="none" xmlns="http://www.w3.org/2000/svg">
<path d="M0 137.66L156.17 390.13C244.59 332.96 322.87 261.5 387.8 178.98L150.98 0C108.27 53.42 57.3 99.96 0 137.66Z" fill="#FABF13"/>
<path d="M134.63 124.311L137.28 145H132.55L132.3 141.281H130.64L130.36 145H125.58L127.94 124.311H134.63ZM132.18 137.62C131.95 135.28 131.71 132.381 131.47 128.931C131 132.891 130.7 135.79 130.58 137.62H132.17H132.18Z" fill="white"/>
<path d="M137.93 124.311H145.77V128.45H142.56V132.37H145.42V136.311H142.56V145H137.93V124.311Z" fill="white"/>
<path d="M146.75 124.311H154.59V128.45H151.38V132.37H154.24V136.311H151.38V145H146.75V124.311Z" fill="white"/>
<path d="M166.151 136.431C166.151 138.511 166.111 139.981 166.021 140.851C165.941 141.711 165.67 142.511 165.23 143.221C164.79 143.941 164.19 144.491 163.43 144.871C162.68 145.251 161.801 145.451 160.791 145.451C159.781 145.451 158.98 145.271 158.22 144.911C157.46 144.551 156.851 144.001 156.391 143.281C155.931 142.561 155.65 141.771 155.57 140.921C155.48 140.071 155.44 138.581 155.44 136.451V132.911C155.44 130.831 155.48 129.361 155.57 128.491C155.65 127.631 155.92 126.841 156.36 126.121C156.8 125.401 157.401 124.851 158.161 124.471C158.911 124.091 159.79 123.891 160.8 123.891C161.81 123.891 162.61 124.071 163.37 124.431C164.13 124.791 164.74 125.341 165.2 126.061C165.66 126.781 165.941 127.571 166.021 128.421C166.111 129.271 166.151 130.761 166.151 132.891V136.431ZM161.521 129.631C161.521 128.671 161.47 128.051 161.38 127.781C161.29 127.511 161.1 127.381 160.81 127.381C160.57 127.381 160.38 127.491 160.26 127.711C160.13 127.931 160.07 128.571 160.07 129.631V139.291C160.07 140.491 160.11 141.231 160.2 141.511C160.28 141.791 160.481 141.931 160.791 141.931C161.101 141.931 161.311 141.771 161.391 141.441C161.481 141.121 161.521 140.351 161.521 139.131V129.621V129.631Z" fill="white"/>
<path d="M167.74 124.311H171.02C173.2 124.311 174.68 124.411 175.46 124.601C176.23 124.801 176.86 125.301 177.35 126.101C177.84 126.911 178.08 128.191 178.08 129.951C178.08 131.561 177.91 132.641 177.56 133.201C177.22 133.751 176.54 134.091 175.53 134.201C176.45 134.461 177.06 134.821 177.38 135.261C177.7 135.701 177.89 136.111 177.97 136.481C178.05 136.851 178.09 137.871 178.09 139.541V145.001H173.79V138.121C173.79 137.011 173.71 136.331 173.56 136.061C173.41 135.801 173.02 135.661 172.38 135.661V144.991H167.75V124.301L167.74 124.311ZM172.36 127.851V132.451C172.88 132.451 173.24 132.371 173.45 132.201C173.66 132.031 173.76 131.491 173.76 130.581V129.441C173.76 128.781 173.66 128.351 173.46 128.151C173.26 127.951 172.89 127.841 172.36 127.841V127.851Z" fill="white"/>
<path d="M179.73 124.311H183.19C185.43 124.311 186.94 124.431 187.72 124.671C188.51 124.911 189.11 125.3 189.52 125.85C189.93 126.4 190.19 127.001 190.29 127.671C190.39 128.341 190.44 129.65 190.44 131.61V138.86C190.44 140.72 190.37 141.96 190.21 142.59C190.06 143.22 189.8 143.711 189.42 144.061C189.05 144.411 188.58 144.661 188.03 144.801C187.48 144.941 186.65 145.01 185.55 145.01H179.71V124.321L179.73 124.311ZM184.35 127.85V141.46C185.02 141.46 185.43 141.3 185.58 140.99C185.73 140.68 185.81 139.83 185.81 138.45V130.411C185.81 129.471 185.78 128.87 185.73 128.61C185.68 128.35 185.56 128.151 185.38 128.031C185.2 127.911 184.85 127.84 184.35 127.84V127.85Z" fill="white"/>
<path d="M200.03 124.311L202.68 145H197.95L197.7 141.281H196.05L195.77 145H190.99L193.35 124.311H200.04H200.03ZM197.58 137.62C197.35 135.28 197.11 132.381 196.87 128.931C196.4 132.891 196.1 135.79 195.98 137.62H197.57H197.58Z" fill="white"/>
<path d="M203.33 124.311H207.95C209.41 124.311 210.51 124.44 211.26 124.71C212.01 124.97 212.62 125.511 213.08 126.311C213.54 127.111 213.77 128.41 213.77 130.2C213.77 131.41 213.61 132.25 213.28 132.73C212.95 133.21 212.31 133.57 211.35 133.83C212.42 134.11 213.15 134.58 213.53 135.23C213.91 135.88 214.1 136.88 214.1 138.23V140.151C214.1 141.551 213.96 142.58 213.69 143.26C213.41 143.93 212.98 144.391 212.38 144.641C211.78 144.891 210.55 145.01 208.69 145.01H203.34V124.321L203.33 124.311ZM207.96 127.85V132.45C208.16 132.45 208.31 132.441 208.42 132.441C208.87 132.441 209.16 132.311 209.29 132.051C209.41 131.791 209.48 131.051 209.48 129.821C209.48 129.171 209.43 128.72 209.33 128.46C209.23 128.2 209.09 128.04 208.93 127.97C208.77 127.9 208.44 127.86 207.97 127.86L207.96 127.85ZM207.96 135.681V141.47C208.61 141.44 209.03 141.33 209.21 141.11C209.39 140.9 209.48 140.371 209.48 139.541V137.61C209.48 136.72 209.4 136.19 209.24 136C209.08 135.81 208.65 135.711 207.96 135.681Z" fill="white"/>
<path d="M220.25 124.311V140.86H223.06V145H215.62V124.311H220.25Z" fill="white"/>
<path d="M224.05 124.311H231.77V128.45H228.68V132.37H231.57V136.311H228.68V140.86H232.08V145H224.06V124.311H224.05Z" fill="white"/>
<path d="M245.101 124.311L247.751 145H243.021L242.771 141.281H241.121L240.841 145H236.061L238.421 124.311H245.111H245.101ZM242.651 137.62C242.421 135.28 242.181 132.381 241.941 128.931C241.471 132.891 241.171 135.79 241.051 137.62H242.641H242.651Z" fill="white"/>
<path d="M258.731 124.311V145H254.671L252.261 135.59V145H248.391V124.311H252.261L254.851 133.63V124.311H258.721H258.731Z" fill="white"/>
<path d="M260.46 124.311H263.92C266.15 124.311 267.67 124.431 268.45 124.671C269.24 124.911 269.84 125.3 270.25 125.85C270.66 126.4 270.921 127.001 271.021 127.671C271.121 128.341 271.17 129.65 271.17 131.61V138.86C271.17 140.72 271.1 141.96 270.94 142.59C270.78 143.22 270.531 143.711 270.151 144.061C269.781 144.411 269.31 144.661 268.76 144.801C268.21 144.941 267.381 145.01 266.281 145.01H260.44V124.321L260.46 124.311ZM265.08 127.85V141.46C265.75 141.46 266.16 141.3 266.31 140.99C266.46 140.68 266.541 139.83 266.541 138.45V130.411C266.541 129.471 266.51 128.87 266.46 128.61C266.41 128.35 266.29 128.151 266.11 128.031C265.93 127.911 265.58 127.84 265.08 127.84V127.85Z" fill="white"/>
<path d="M137.43 161.151H132.8V157.551C132.8 156.501 132.75 155.851 132.65 155.591C132.55 155.331 132.33 155.201 132 155.201C131.62 155.201 131.38 155.361 131.27 155.671C131.17 155.991 131.12 156.671 131.12 157.721V167.331C131.12 168.341 131.17 168.991 131.27 169.301C131.37 169.611 131.6 169.761 131.96 169.761C132.32 169.761 132.53 169.611 132.64 169.301C132.75 168.991 132.8 168.271 132.8 167.131V164.531H137.43V165.341C137.43 167.481 137.3 169.001 137.04 169.901C136.78 170.801 136.2 171.581 135.31 172.261C134.42 172.931 133.32 173.271 132.02 173.271C130.72 173.271 129.55 172.981 128.67 172.411C127.79 171.841 127.21 171.051 126.92 170.041C126.63 169.031 126.49 167.511 126.49 165.481V159.431C126.49 157.941 126.53 156.821 126.62 156.081C126.71 155.331 126.97 154.621 127.41 153.931C127.85 153.241 128.45 152.701 129.22 152.301C129.99 151.901 130.88 151.711 131.89 151.711C133.25 151.711 134.38 152.021 135.26 152.631C136.15 153.241 136.73 154.011 137.01 154.921C137.29 155.831 137.43 157.261 137.43 159.191V161.161V161.151Z" fill="white"/>
<path d="M143.59 152.141V168.691H146.4V172.831H138.96V152.141H143.59Z" fill="white"/>
<path d="M147.391 152.141H155.111V156.281H152.021V160.201H154.911V164.141H152.021V168.691H155.421V172.831H147.401V152.141H147.391Z" fill="white"/>
<path d="M164.6 152.141L167.25 172.831H162.52L162.27 169.111H160.61L160.33 172.831H155.55L157.91 152.141H164.6ZM162.15 165.451C161.92 163.111 161.68 160.211 161.44 156.761C160.97 160.721 160.67 163.621 160.55 165.451H162.14H162.15Z" fill="white"/>
<path d="M178.231 152.141V172.831H174.171L171.761 163.421V172.831H167.891V152.141H171.761L174.351 161.461V152.141H178.221H178.231Z" fill="white"/>
<path d="M183.79 152.141H191.51V156.281H188.42V160.201H191.31V164.141H188.42V168.691H191.82V172.831H183.8V152.141H183.79Z" fill="white"/>
<path d="M203.34 152.141V172.831H199.28L196.87 163.421V172.831H193V152.141H196.87L199.46 161.461V152.141H203.33H203.34Z" fill="white"/>
<path d="M205.061 152.141H212.781V156.281H209.691V160.201H212.581V164.141H209.691V168.691H213.091V172.831H205.071V152.141H205.061Z" fill="white"/>
<path d="M214.28 152.141H217.56C219.74 152.141 221.22 152.241 222 152.431C222.77 152.631 223.4 153.131 223.89 153.931C224.38 154.741 224.62 156.021 224.62 157.781C224.62 159.391 224.45 160.471 224.1 161.031C223.76 161.581 223.08 161.921 222.07 162.031C222.99 162.291 223.6 162.651 223.92 163.091C224.24 163.531 224.43 163.941 224.51 164.311C224.59 164.681 224.63 165.701 224.63 167.371V172.831H220.33V165.951C220.33 164.841 220.25 164.161 220.1 163.891C219.95 163.631 219.56 163.491 218.92 163.491V172.821H214.29V152.131L214.28 152.141ZM218.91 155.681V160.281C219.43 160.281 219.79 160.201 220 160.031C220.21 159.861 220.31 159.321 220.31 158.411V157.271C220.31 156.611 220.21 156.181 220.01 155.981C219.81 155.781 219.44 155.671 218.91 155.671V155.681Z" fill="white"/>
<path d="M236.89 159.761H232.26V157.881C232.26 156.701 232.22 155.951 232.13 155.661C232.04 155.361 231.83 155.211 231.5 155.211C231.21 155.211 231.02 155.341 230.92 155.591C230.82 155.851 230.77 156.501 230.77 157.561V167.491C230.77 168.421 230.82 169.031 230.92 169.321C231.02 169.611 231.23 169.761 231.54 169.761C231.88 169.761 232.11 169.591 232.23 169.261C232.35 168.931 232.41 168.281 232.41 167.321V164.871H231.48V161.731H236.9V172.841H233.99L233.56 171.361C233.24 172.001 232.85 172.481 232.37 172.801C231.89 173.121 231.32 173.281 230.67 173.281C229.89 173.281 229.16 173.061 228.49 172.621C227.81 172.181 227.3 171.641 226.94 170.991C226.59 170.341 226.37 169.661 226.28 168.951C226.19 168.241 226.15 167.171 226.15 165.751V159.601C226.15 157.621 226.24 156.191 226.42 155.291C226.6 154.401 227.13 153.581 228 152.831C228.87 152.081 229.99 151.711 231.37 151.711C232.75 151.711 233.85 152.031 234.74 152.681C235.63 153.331 236.22 154.101 236.49 154.991C236.76 155.881 236.9 157.171 236.9 158.871V159.761H236.89Z" fill="white"/>
<path d="M248.4 152.141L245.03 165.341V172.831H240.74V165.341L237.49 152.141H241.74C242.4 156.181 242.78 158.901 242.86 160.291C243.12 158.081 243.55 155.361 244.15 152.141H248.4Z" fill="white"/>
<path d="M103.27 124.75V135.22L97.1204 172.82H87.5304L94.3904 133.39H84.8604V124.75H103.28H103.27Z" fill="white"/>
<path d="M177.06 312.931C175.42 312.931 174.08 311.601 174.08 309.951V295.121C174.08 293.481 175.41 292.141 177.06 292.141C178.7 292.141 180.04 293.471 180.04 295.121V309.951C180.04 311.591 178.71 312.931 177.06 312.931Z" fill="white"/>
<path d="M211.83 252.661C211.83 233.461 196.26 217.891 177.06 217.891C157.86 217.891 142.29 233.461 142.29 252.661C142.29 271.861 157.86 287.431 177.06 287.431C196.26 287.431 211.83 271.861 211.83 252.661ZM174.81 232.331C174.81 231.091 175.82 230.081 177.06 230.081C178.3 230.081 179.31 231.091 179.31 232.331V244.071C179.31 245.311 178.3 246.321 177.06 246.321C175.82 246.321 174.81 245.311 174.81 244.071V232.331ZM177.06 269.681C167.4 269.681 159.55 261.821 159.55 252.161C159.55 244.521 164.47 238.031 171.3 235.641V241.201C167.37 243.281 164.68 247.411 164.68 252.161C164.68 258.991 170.24 264.551 177.07 264.551C183.9 264.551 189.46 258.991 189.46 252.161C189.46 247.411 186.77 243.281 182.84 241.201V235.641C189.67 238.031 194.59 244.521 194.59 252.161C194.59 261.821 186.73 269.681 177.07 269.681H177.06Z" fill="white"/>
<path d="M177.06 213.171C178.7 213.171 180.04 211.841 180.04 210.191V195.361C180.04 193.721 178.71 192.381 177.06 192.381C175.41 192.381 174.08 193.711 174.08 195.361V210.191C174.08 211.831 175.41 213.171 177.06 213.171Z" fill="white"/>
<path d="M196.81 218.46C198.23 219.28 200.05 218.79 200.88 217.37L208.29 204.53C209.11 203.11 208.62 201.29 207.2 200.46C205.78 199.64 203.96 200.13 203.13 201.55L195.72 214.39C194.9 215.81 195.39 217.63 196.81 218.46Z" fill="white"/>
<path d="M157.32 286.851C155.9 286.031 154.08 286.521 153.25 287.941L145.84 300.781C145.02 302.201 145.51 304.021 146.93 304.851C148.35 305.671 150.17 305.181 151 303.761L158.41 290.921C159.23 289.501 158.74 287.681 157.32 286.851Z" fill="white"/>
<path d="M215.33 234.001L228.17 226.591C229.59 225.771 230.08 223.951 229.26 222.521C228.44 221.101 226.62 220.611 225.19 221.431L212.35 228.841C210.93 229.661 210.44 231.481 211.26 232.911C212.08 234.331 213.9 234.821 215.33 234.001Z" fill="white"/>
<path d="M138.8 271.312L125.96 278.722C124.54 279.542 124.05 281.362 124.87 282.792C125.69 284.212 127.51 284.702 128.94 283.882L141.78 276.472C143.2 275.652 143.69 273.832 142.87 272.402C142.05 270.972 140.23 270.492 138.8 271.312Z" fill="white"/>
<path d="M234.35 249.682H219.52C217.88 249.682 216.54 251.012 216.54 252.662C216.54 254.312 217.87 255.642 219.52 255.642H234.35C235.99 255.642 237.33 254.312 237.33 252.662C237.33 251.012 236 249.682 234.35 249.682Z" fill="white"/>
<path d="M137.58 252.662C137.58 251.022 136.25 249.682 134.6 249.682H119.77C118.13 249.682 116.79 251.012 116.79 252.662C116.79 254.312 118.12 255.642 119.77 255.642H134.6C136.24 255.642 137.58 254.312 137.58 252.662Z" fill="white"/>
<path d="M228.17 278.731L215.33 271.321C213.91 270.501 212.09 270.991 211.26 272.411C210.44 273.831 210.93 275.651 212.35 276.481L225.19 283.891C226.61 284.711 228.43 284.221 229.26 282.801C230.08 281.381 229.59 279.561 228.17 278.731Z" fill="white"/>
<path d="M125.96 226.591L138.8 234.001C140.22 234.821 142.04 234.331 142.87 232.911C143.69 231.491 143.2 229.671 141.78 228.841L128.94 221.431C127.52 220.611 125.7 221.101 124.87 222.521C124.05 223.941 124.54 225.761 125.96 226.591Z" fill="white"/>
<path d="M200.87 287.941C200.05 286.521 198.23 286.031 196.8 286.851C195.37 287.671 194.89 289.491 195.71 290.921L203.12 303.761C203.94 305.181 205.76 305.671 207.19 304.851C208.61 304.031 209.1 302.211 208.28 300.781L200.87 287.941Z" fill="white"/>
<path d="M153.25 217.37C154.07 218.79 155.89 219.28 157.32 218.46C158.74 217.64 159.23 215.82 158.41 214.39L151 201.55C150.18 200.13 148.36 199.64 146.93 200.46C145.51 201.28 145.02 203.1 145.84 204.53L153.25 217.37Z" fill="white"/>
</svg>
