<svg width="346" height="367" viewBox="0 0 346 367" fill="none" xmlns="http://www.w3.org/2000/svg">
<path d="M53.59 366.16C158.36 344.66 256.78 305.65 345.89 252.57L189.66 0C131.58 33.89 67.75 59.02 0 73.58L53.59 366.15V366.16Z" fill="#991F40"/>
<path d="M81.6807 106.629H85.0607C87.2407 106.629 88.7207 106.749 89.4907 106.989C90.2607 107.229 90.8407 107.619 91.2507 108.169C91.6507 108.719 91.9007 109.319 92.0007 109.989C92.1007 110.659 92.1506 111.969 92.1506 113.929V121.179C92.1506 123.039 92.0807 124.279 91.9307 124.909C91.7807 125.539 91.5306 126.029 91.1606 126.379C90.8006 126.729 90.3407 126.979 89.8107 127.119C89.2707 127.259 88.4607 127.329 87.3807 127.329H81.6807V106.639V106.629ZM86.2007 110.169V123.779C86.8507 123.779 87.2506 123.619 87.4006 123.309C87.5506 122.999 87.6307 122.149 87.6307 120.769V112.729C87.6307 111.789 87.6007 111.189 87.5607 110.929C87.5107 110.669 87.4007 110.469 87.2207 110.349C87.0407 110.229 86.7007 110.159 86.2107 110.159L86.2007 110.169Z" fill="white"/>
<path d="M93.4404 106.629H100.98V110.769H97.9604V114.689H100.78V118.629H97.9604V123.179H101.28V127.319H93.4404V106.629Z" fill="white"/>
<path d="M112.731 115.639H108.211V112.039C108.211 110.989 108.161 110.339 108.071 110.079C107.971 109.819 107.761 109.689 107.431 109.689C107.061 109.689 106.821 109.849 106.721 110.159C106.621 110.479 106.571 111.159 106.571 112.209V121.819C106.571 122.829 106.621 123.479 106.721 123.789C106.821 124.099 107.051 124.249 107.401 124.249C107.751 124.249 107.961 124.099 108.061 123.789C108.161 123.479 108.221 122.759 108.221 121.619V119.019H112.741V119.829C112.741 121.969 112.611 123.489 112.361 124.389C112.111 125.289 111.541 126.069 110.671 126.749C109.801 127.419 108.731 127.759 107.451 127.759C106.171 127.759 105.031 127.469 104.181 126.899C103.321 126.329 102.751 125.539 102.471 124.529C102.191 123.519 102.051 121.999 102.051 119.969V113.919C102.051 112.429 102.091 111.309 102.181 110.569C102.271 109.819 102.521 109.109 102.951 108.419C103.381 107.729 103.971 107.189 104.721 106.789C105.481 106.389 106.341 106.199 107.321 106.199C108.651 106.199 109.751 106.509 110.621 107.119C111.491 107.729 112.061 108.499 112.331 109.409C112.601 110.319 112.741 111.749 112.741 113.679V115.649L112.731 115.639Z" fill="white"/>
<path d="M113.961 106.629H121.501V110.769H118.481V114.689H121.301V118.629H118.481V123.179H121.801V127.319H113.961V106.629Z" fill="white"/>
<path d="M132.791 106.629V127.319H128.831L126.481 117.909V127.319H122.701V106.629H126.481L129.011 115.949V106.629H132.791Z" fill="white"/>
<path d="M143.31 106.629V110.769H140.63V127.319H136.11V110.769H133.44V106.629H143.32H143.31Z" fill="white"/>
<path d="M164.451 106.629L162.441 127.319H156.801C156.281 124.139 155.831 120.519 155.431 116.469C155.251 118.209 154.831 121.829 154.171 127.319H148.561L146.541 106.629H150.931L151.411 113.849L151.871 120.829C152.041 117.219 152.451 112.479 153.121 106.629H157.811C157.871 107.229 158.041 109.509 158.301 113.449L158.801 121.319C159.061 116.309 159.481 111.409 160.061 106.619H164.451V106.629Z" fill="white"/>
<path d="M175.271 118.739C175.271 120.819 175.231 122.289 175.151 123.159C175.071 124.019 174.811 124.819 174.381 125.529C173.951 126.249 173.361 126.789 172.621 127.179C171.881 127.569 171.021 127.759 170.041 127.759C169.061 127.759 168.271 127.579 167.531 127.219C166.791 126.859 166.191 126.309 165.741 125.589C165.291 124.869 165.021 124.079 164.931 123.229C164.841 122.379 164.801 120.889 164.801 118.759V115.219C164.801 113.139 164.841 111.669 164.921 110.799C165.001 109.939 165.261 109.139 165.691 108.429C166.121 107.709 166.711 107.159 167.451 106.779C168.191 106.399 169.051 106.199 170.031 106.199C170.961 106.199 171.801 106.379 172.541 106.739C173.281 107.099 173.881 107.649 174.331 108.369C174.781 109.089 175.051 109.879 175.141 110.729C175.231 111.579 175.271 113.069 175.271 115.199V118.739ZM170.751 111.939C170.751 110.979 170.711 110.359 170.621 110.089C170.531 109.819 170.351 109.689 170.071 109.689C169.831 109.689 169.651 109.799 169.531 110.019C169.401 110.239 169.341 110.879 169.341 111.939V121.599C169.341 122.799 169.381 123.539 169.461 123.819C169.541 124.099 169.731 124.239 170.031 124.239C170.331 124.239 170.531 124.079 170.621 123.749C170.711 123.429 170.751 122.659 170.751 121.439V111.929V111.939Z" fill="white"/>
<path d="M176.561 106.629H179.761C181.891 106.629 183.341 106.729 184.091 106.919C184.841 107.109 185.461 107.619 185.941 108.419C186.421 109.229 186.651 110.509 186.651 112.269C186.651 113.879 186.481 114.959 186.151 115.519C185.811 116.069 185.151 116.409 184.161 116.519C185.051 116.779 185.661 117.139 185.961 117.579C186.271 118.019 186.461 118.429 186.531 118.799C186.611 119.169 186.641 120.189 186.641 121.859V127.319H182.441V120.439C182.441 119.329 182.371 118.649 182.221 118.379C182.071 118.119 181.691 117.979 181.071 117.979V127.309H176.551V106.619L176.561 106.629ZM181.081 110.169V114.769C181.591 114.769 181.941 114.689 182.151 114.519C182.351 114.349 182.461 113.809 182.461 112.899V111.759C182.461 111.099 182.361 110.669 182.161 110.469C181.961 110.269 181.601 110.159 181.081 110.159V110.169Z" fill="white"/>
<path d="M198.781 106.629L196.191 115.969L199.031 127.319H194.361L192.531 118.449V127.319H188.011V106.629H192.531V114.669L194.541 106.629H198.781Z" fill="white"/>
<path d="M210.7 106.629L213.28 127.319H208.66L208.42 123.599H206.8L206.53 127.319H201.86L204.17 106.629H210.7ZM208.31 119.929C208.08 117.589 207.85 114.689 207.62 111.239C207.16 115.199 206.87 118.099 206.75 119.929H208.31Z" fill="white"/>
<path d="M223.75 106.629V127.319H219.79L217.44 117.909V127.319H213.66V106.629H217.44L219.97 115.949V106.629H223.75Z" fill="white"/>
<path d="M225.171 106.629H228.551C230.731 106.629 232.211 106.749 232.981 106.989C233.751 107.229 234.331 107.619 234.741 108.169C235.141 108.719 235.391 109.319 235.491 109.989C235.591 110.659 235.641 111.969 235.641 113.929V121.179C235.641 123.039 235.571 124.279 235.421 124.909C235.271 125.539 235.021 126.029 234.651 126.379C234.281 126.729 233.831 126.979 233.301 127.119C232.761 127.259 231.951 127.329 230.871 127.329H225.171V106.639V106.629ZM229.691 110.169V123.779C230.341 123.779 230.741 123.619 230.891 123.309C231.041 122.999 231.121 122.149 231.121 120.769V112.729C231.121 111.789 231.091 111.189 231.041 110.929C230.991 110.669 230.871 110.469 230.701 110.349C230.521 110.229 230.181 110.159 229.691 110.159V110.169Z" fill="white"/>
<path d="M81.6807 134.449H89.2207V138.589H86.2007V142.509H89.0206V146.449H86.2007V150.999H89.5206V155.139H81.6807V134.449Z" fill="white"/>
<path d="M100.981 143.46H96.4611V139.86C96.4611 138.81 96.411 138.16 96.311 137.9C96.211 137.64 96.001 137.51 95.671 137.51C95.301 137.51 95.0611 137.67 94.9611 137.98C94.8611 138.3 94.811 138.98 94.811 140.03V149.64C94.811 150.65 94.8611 151.3 94.9611 151.61C95.0611 151.92 95.291 152.07 95.641 152.07C95.991 152.07 96.201 151.92 96.301 151.61C96.401 151.3 96.4611 150.58 96.4611 149.44V146.84H100.981V147.65C100.981 149.79 100.851 151.31 100.601 152.21C100.351 153.11 99.781 153.89 98.911 154.57C98.041 155.24 96.971 155.58 95.691 155.58C94.411 155.58 93.271 155.29 92.421 154.72C91.561 154.15 90.9911 153.36 90.7111 152.35C90.4311 151.34 90.291 149.82 90.291 147.79V141.74C90.291 140.25 90.331 139.13 90.421 138.39C90.511 137.64 90.761 136.93 91.191 136.24C91.621 135.55 92.2111 135.01 92.9611 134.61C93.7211 134.21 94.581 134.02 95.561 134.02C96.891 134.02 97.9911 134.33 98.8611 134.94C99.7311 135.55 100.291 136.32 100.571 137.23C100.841 138.14 100.981 139.57 100.981 141.5V143.47V143.46Z" fill="white"/>
<path d="M112.53 146.569C112.53 148.649 112.49 150.119 112.41 150.989C112.33 151.849 112.07 152.649 111.64 153.359C111.21 154.079 110.62 154.629 109.89 155.009C109.16 155.389 108.29 155.589 107.31 155.589C106.33 155.589 105.54 155.409 104.8 155.049C104.06 154.689 103.46 154.139 103.01 153.419C102.56 152.699 102.29 151.909 102.2 151.059C102.11 150.209 102.07 148.719 102.07 146.589V143.049C102.07 140.969 102.11 139.499 102.19 138.629C102.27 137.769 102.53 136.979 102.96 136.259C103.39 135.539 103.98 134.989 104.72 134.609C105.46 134.229 106.32 134.029 107.3 134.029C108.23 134.029 109.07 134.209 109.81 134.569C110.55 134.929 111.15 135.479 111.6 136.199C112.05 136.919 112.32 137.709 112.41 138.559C112.5 139.409 112.54 140.899 112.54 143.029V146.569H112.53ZM108.01 139.769C108.01 138.809 107.97 138.189 107.88 137.919C107.79 137.649 107.61 137.519 107.33 137.519C107.09 137.519 106.91 137.629 106.79 137.849C106.66 138.069 106.6 138.709 106.6 139.769V149.429C106.6 150.629 106.64 151.369 106.72 151.649C106.8 151.929 106.99 152.069 107.29 152.069C107.59 152.069 107.79 151.909 107.88 151.579C107.97 151.259 108.01 150.489 108.01 149.269V139.759V139.769Z" fill="white"/>
<path d="M123.91 134.449V155.139H119.95L117.6 145.729V155.139H113.82V134.449H117.6L120.13 143.769V134.449H123.91Z" fill="white"/>
<path d="M135.66 146.569C135.66 148.649 135.62 150.119 135.54 150.989C135.46 151.849 135.2 152.649 134.77 153.359C134.34 154.079 133.75 154.629 133.01 155.009C132.27 155.389 131.41 155.589 130.43 155.589C129.45 155.589 128.66 155.409 127.92 155.049C127.18 154.689 126.58 154.139 126.13 153.419C125.68 152.699 125.41 151.909 125.32 151.059C125.23 150.209 125.19 148.719 125.19 146.589V143.049C125.19 140.969 125.23 139.499 125.31 138.629C125.39 137.769 125.65 136.979 126.08 136.259C126.51 135.539 127.1 134.989 127.84 134.609C128.58 134.229 129.44 134.029 130.42 134.029C131.35 134.029 132.19 134.209 132.93 134.569C133.67 134.929 134.27 135.479 134.72 136.199C135.17 136.919 135.44 137.709 135.53 138.559C135.62 139.409 135.66 140.899 135.66 143.029V146.569ZM131.14 139.769C131.14 138.809 131.1 138.189 131.01 137.919C130.92 137.649 130.74 137.519 130.46 137.519C130.22 137.519 130.04 137.629 129.92 137.849C129.79 138.069 129.73 138.709 129.73 139.769V149.429C129.73 150.629 129.77 151.369 129.85 151.649C129.93 151.929 130.12 152.069 130.42 152.069C130.72 152.069 130.92 151.909 131.01 151.579C131.1 151.259 131.14 150.489 131.14 149.269V139.759V139.769Z" fill="white"/>
<path d="M150.89 134.449V155.139H146.94V141.169L145.36 155.139H142.56L140.9 141.489V155.139H136.94V134.449H142.79C142.96 135.689 143.14 137.159 143.33 138.849L143.97 144.109L145.01 134.449H150.89Z" fill="white"/>
<path d="M156.831 134.449V155.139H152.311V134.449H156.831Z" fill="white"/>
<path d="M168.8 143.46H164.28V139.86C164.28 138.81 164.23 138.16 164.13 137.9C164.03 137.64 163.82 137.51 163.49 137.51C163.12 137.51 162.88 137.67 162.78 137.98C162.68 138.3 162.63 138.98 162.63 140.03V149.64C162.63 150.65 162.68 151.3 162.78 151.61C162.88 151.92 163.11 152.07 163.46 152.07C163.81 152.07 164.02 151.92 164.12 151.61C164.22 151.3 164.28 150.58 164.28 149.44V146.84H168.8V147.65C168.8 149.79 168.67 151.31 168.42 152.21C168.17 153.11 167.6 153.89 166.73 154.57C165.86 155.24 164.79 155.58 163.51 155.58C162.23 155.58 161.09 155.29 160.24 154.72C159.38 154.15 158.81 153.36 158.53 152.35C158.25 151.34 158.11 149.82 158.11 147.79V141.74C158.11 140.25 158.15 139.13 158.24 138.39C158.33 137.65 158.58 136.93 159.01 136.24C159.44 135.55 160.03 135.01 160.78 134.61C161.54 134.21 162.4 134.02 163.38 134.02C164.71 134.02 165.81 134.33 166.68 134.94C167.55 135.55 168.11 136.32 168.39 137.23C168.66 138.14 168.8 139.57 168.8 141.5V143.47V143.46Z" fill="white"/>
<path d="M183.881 142.07H179.361V140.19C179.361 139.01 179.321 138.26 179.231 137.97C179.141 137.67 178.941 137.52 178.621 137.52C178.341 137.52 178.151 137.65 178.051 137.9C177.951 138.16 177.901 138.81 177.901 139.87V149.8C177.901 150.73 177.951 151.34 178.051 151.63C178.151 151.92 178.351 152.07 178.651 152.07C178.981 152.07 179.201 151.9 179.321 151.57C179.441 151.24 179.501 150.59 179.501 149.63V147.18H178.591V144.04H183.881V155.15H181.041L180.621 153.67C180.311 154.31 179.921 154.79 179.451 155.11C178.981 155.43 178.431 155.59 177.791 155.59C177.031 155.59 176.321 155.37 175.661 154.93C175.001 154.49 174.491 153.95 174.151 153.3C173.811 152.65 173.591 151.97 173.511 151.26C173.421 150.55 173.381 149.48 173.381 148.06V141.91C173.381 139.93 173.471 138.5 173.651 137.6C173.831 136.71 174.341 135.88 175.191 135.14C176.041 134.39 177.141 134.02 178.481 134.02C179.821 134.02 180.901 134.34 181.781 134.99C182.651 135.64 183.221 136.41 183.491 137.3C183.751 138.19 183.891 139.48 183.891 141.18V142.07H183.881Z" fill="white"/>
<path d="M185.231 134.449H188.431C190.561 134.449 192.011 134.55 192.761 134.74C193.521 134.94 194.131 135.44 194.611 136.24C195.091 137.05 195.321 138.329 195.321 140.089C195.321 141.699 195.151 142.779 194.821 143.339C194.481 143.889 193.821 144.229 192.831 144.339C193.721 144.599 194.331 144.959 194.631 145.399C194.941 145.839 195.131 146.25 195.201 146.62C195.281 146.99 195.311 148.009 195.311 149.679V155.139H191.111V148.26C191.111 147.15 191.041 146.469 190.891 146.199C190.741 145.939 190.361 145.799 189.741 145.799V155.13H185.221V134.439L185.231 134.449ZM189.751 137.99V142.589C190.261 142.589 190.611 142.509 190.821 142.339C191.021 142.169 191.131 141.629 191.131 140.719V139.579C191.131 138.919 191.031 138.489 190.831 138.289C190.631 138.089 190.271 137.979 189.751 137.979V137.99Z" fill="white"/>
<path d="M207.011 146.569C207.011 148.649 206.971 150.119 206.891 150.989C206.811 151.849 206.551 152.649 206.121 153.359C205.691 154.079 205.101 154.629 204.371 155.009C203.631 155.389 202.771 155.589 201.791 155.589C200.811 155.589 200.021 155.409 199.281 155.049C198.541 154.689 197.941 154.139 197.491 153.419C197.041 152.699 196.771 151.909 196.681 151.059C196.591 150.209 196.551 148.719 196.551 146.589V143.049C196.551 140.969 196.591 139.499 196.671 138.629C196.751 137.769 197.011 136.979 197.441 136.259C197.871 135.539 198.461 134.989 199.201 134.609C199.941 134.229 200.801 134.029 201.781 134.029C202.711 134.029 203.551 134.209 204.291 134.569C205.031 134.929 205.631 135.479 206.081 136.199C206.531 136.919 206.801 137.709 206.891 138.559C206.981 139.409 207.021 140.899 207.021 143.029V146.569H207.011ZM202.491 139.769C202.491 138.809 202.451 138.189 202.361 137.919C202.271 137.649 202.091 137.519 201.811 137.519C201.571 137.519 201.391 137.629 201.271 137.849C201.141 138.069 201.081 138.709 201.081 139.769V149.429C201.081 150.629 201.121 151.369 201.201 151.649C201.281 151.929 201.471 152.069 201.771 152.069C202.071 152.069 202.271 151.909 202.361 151.579C202.451 151.259 202.491 150.489 202.491 149.269V139.759V139.769Z" fill="white"/>
<path d="M225.31 134.449L223.3 155.139H217.66C217.14 151.959 216.69 148.339 216.29 144.289C216.11 146.029 215.69 149.649 215.03 155.139H209.42L207.4 134.449H211.79L212.27 141.669L212.73 148.649C212.9 145.039 213.31 140.309 213.98 134.449H218.67C218.73 135.049 218.9 137.329 219.16 141.269L219.66 149.139C219.92 144.129 220.34 139.229 220.92 134.439H225.31V134.449Z" fill="white"/>
<path d="M234.911 134.449V138.589H232.231V155.139H227.711V138.589H225.041V134.449H234.921H234.911Z" fill="white"/>
<path d="M245.941 134.449V155.139H241.421V146.449H240.071V155.139H235.551V134.449H240.071V141.849H241.421V134.449H245.941Z" fill="white"/>
<path d="M61.7704 127.859C63.1904 128.569 64.2704 129.639 65.0404 131.049C65.8004 132.469 66.1904 135.839 66.1904 141.169C66.1904 145.049 65.8904 147.909 65.2804 149.759C64.6704 151.599 63.5005 153.109 61.7505 154.289C60.0005 155.469 57.6504 156.059 54.7104 156.059C51.7704 156.059 49.5804 155.499 47.9104 154.369C46.2404 153.239 45.0404 151.749 44.3204 149.879C43.6004 148.019 43.2305 144.919 43.2305 140.579C43.2305 137.669 43.4104 135.139 43.7704 132.999C44.1304 130.859 45.2504 129.149 47.1504 127.859C45.9604 127.149 45.0605 126.019 44.4705 124.459C43.8705 122.909 43.5804 120.929 43.5804 118.539C43.5804 114.409 44.5005 111.299 46.3505 109.239C48.1905 107.169 50.9505 106.139 54.6305 106.139C58.8805 106.139 61.8104 107.239 63.4304 109.429C65.0504 111.629 65.8605 114.759 65.8605 118.839C65.8605 121.429 65.5904 123.299 65.0604 124.449C64.5304 125.599 63.4304 126.729 61.7804 127.859H61.7704ZM56.5504 137.519C56.5504 135.679 56.4005 134.459 56.1005 133.849C55.8005 133.249 55.3204 132.939 54.6704 132.939C54.0204 132.939 53.5804 133.229 53.3004 133.819C53.0204 134.399 52.8805 135.639 52.8805 137.519V143.759C52.8805 145.839 53.0405 147.169 53.3505 147.769C53.6605 148.359 54.1504 148.659 54.8204 148.659C55.4904 148.659 55.9704 148.359 56.2004 147.749C56.4404 147.149 56.5604 145.789 56.5604 143.669V137.519H56.5504ZM56.3605 117.539C56.3605 115.919 56.2404 114.839 56.0104 114.319C55.7804 113.799 55.3404 113.529 54.6904 113.529C54.0404 113.529 53.6204 113.809 53.4004 114.379C53.1804 114.939 53.0704 115.999 53.0704 117.539V121.189C53.0704 122.639 53.2004 123.629 53.4504 124.189C53.7004 124.739 54.1305 125.019 54.7405 125.019C55.3805 125.019 55.8104 124.749 56.0304 124.199C56.2504 123.659 56.3605 122.529 56.3605 120.829V117.529V117.539Z" fill="white"/>
<path d="M115.241 231.89L88.3907 257.59C88.2307 257.75 88.1309 257.96 88.1309 258.19V294.41C88.1309 294.87 88.5008 295.24 88.9608 295.24H115.811C116.271 295.24 116.641 294.87 116.641 294.41V232.49C116.641 231.76 115.761 231.38 115.241 231.89Z" fill="white"/>
<path d="M150.37 234.979L138.09 247.169C137.78 247.479 137.28 247.489 136.95 247.199L124.66 236.209C124.13 235.729 123.28 236.109 123.28 236.829V294.409C123.28 294.869 123.65 295.239 124.11 295.239H150.96C151.42 295.239 151.79 294.869 151.79 294.409V235.569C151.79 234.829 150.9 234.459 150.37 234.979Z" fill="white"/>
<path d="M185.5 199.909L158.65 226.869C158.5 227.029 158.41 227.239 158.41 227.459V294.399C158.41 294.859 158.78 295.229 159.24 295.229H186.09C186.55 295.229 186.92 294.859 186.92 294.399V200.489C186.92 199.749 186.02 199.379 185.5 199.899V199.909Z" fill="white"/>
<path d="M193.971 173.56L174.111 178.19C173.481 178.34 173.251 179.12 173.711 179.59L178.041 183.93L137.091 224.88L118.271 206.06C117.951 205.74 117.421 205.74 117.101 206.06L115.761 207.4L111.851 211.31L81.5505 241.61C81.2305 241.93 81.2305 242.46 81.5505 242.78L86.8005 248.03C87.1205 248.35 87.6506 248.35 87.9706 248.03L117.681 218.32L136.501 237.139C136.821 237.459 137.351 237.459 137.671 237.139L137.941 236.87L142.921 231.889L184.451 190.36L189.081 195.01C189.541 195.47 190.341 195.24 190.481 194.61L194.971 174.56C195.101 173.96 194.571 173.43 193.971 173.57V173.56Z" fill="white"/>
</svg>
