<svg width="314" height="306" viewBox="0 0 314 306" fill="none" xmlns="http://www.w3.org/2000/svg">
<path d="M54.77 0.039917L0 292.14C51.2 300.74 103.7 305.45 157.3 305.45C210.9 305.45 262.73 300.81 313.62 292.31L260.08 0C226.6 5.32 192.27 8.08997 157.29 8.08997C122.31 8.08997 88.16 5.33992 54.77 0.039917Z" fill="#ED6D34"/>
<path d="M55.51 114.698H65.15C65.15 116.938 65.17 118.348 65.22 118.928C65.27 119.508 65.46 119.998 65.8 120.398C66.14 120.798 66.61 120.989 67.19 120.989C67.68 120.989 68.09 120.798 68.41 120.428C68.73 120.048 68.91 119.569 68.95 118.979C68.99 118.389 69.01 117.188 69.01 115.388V107.729C68.53 109.019 67.82 109.979 66.86 110.619C65.91 111.259 64.72 111.589 63.31 111.589C61.54 111.589 59.99 110.998 58.63 109.808C57.28 108.618 56.42 107.198 56.05 105.528C55.68 103.868 55.5 101.618 55.5 98.7885V94.9585C55.5 91.5885 55.61 89.0885 55.82 87.4485C56.03 85.8085 56.59 84.2884 57.48 82.8884C58.37 81.4884 59.6 80.4084 61.18 79.6384C62.75 78.8684 64.58 78.4785 66.67 78.4785C69.25 78.4785 71.36 78.9285 73.02 79.8185C74.67 80.7085 75.95 81.9885 76.86 83.6685C77.77 85.3385 78.29 87.0985 78.43 88.9385C78.57 90.7785 78.64 94.3385 78.64 99.6285V106.308C78.64 112.028 78.58 115.858 78.45 117.788C78.32 119.718 77.77 121.548 76.79 123.268C75.81 124.988 74.49 126.278 72.82 127.148C71.15 128.008 69.22 128.438 67.02 128.438C64.3 128.438 62.08 127.898 60.35 126.808C58.62 125.718 57.38 124.188 56.63 122.208C55.87 120.228 55.5 117.739 55.5 114.729L55.51 114.698ZM65.15 99.6985C65.15 101.718 65.36 102.968 65.78 103.438C66.2 103.918 66.63 104.148 67.08 104.148C67.75 104.148 68.24 103.849 68.55 103.239C68.86 102.629 69.02 101.448 69.02 99.6885V90.9885C69.02 88.8685 68.87 87.4885 68.58 86.8285C68.29 86.1785 67.8 85.8485 67.11 85.8485C66.7 85.8485 66.27 86.0985 65.82 86.6085C65.37 87.1185 65.15 88.4785 65.15 90.6885V99.6885V99.6985Z" fill="white"/>
<path d="M97.3307 78.959V99.6489H92.9707V78.959H97.3307Z" fill="white"/>
<path d="M108.031 78.959V99.6489H104.211L101.941 90.239V99.6489H98.3008V78.959H101.941L104.381 88.2789V78.959H108.021H108.031Z" fill="white"/>
<path d="M108.991 78.959H112.251C114.351 78.959 115.781 79.079 116.521 79.319C117.261 79.559 117.831 79.949 118.211 80.499C118.601 81.049 118.841 81.649 118.931 82.319C119.031 82.989 119.071 84.299 119.071 86.259V93.509C119.071 95.369 119.001 96.609 118.861 97.239C118.721 97.869 118.471 98.359 118.121 98.709C117.771 99.059 117.331 99.309 116.811 99.449C116.291 99.589 115.511 99.6589 114.471 99.6589H108.971V78.969L108.991 78.959ZM113.351 82.499V96.109C113.981 96.109 114.361 95.9489 114.511 95.6389C114.651 95.3289 114.731 94.479 114.731 93.099V85.059C114.731 84.119 114.711 83.519 114.661 83.259C114.611 82.999 114.501 82.799 114.331 82.679C114.161 82.559 113.831 82.489 113.361 82.489L113.351 82.499Z" fill="white"/>
<path d="M129.83 78.959V92.7889C129.83 94.3589 129.79 95.459 129.71 96.089C129.63 96.719 129.38 97.379 128.98 98.049C128.57 98.719 128.04 99.229 127.37 99.569C126.7 99.919 125.92 100.089 125.01 100.089C124.01 100.089 123.13 99.889 122.36 99.479C121.59 99.069 121.02 98.539 120.64 97.879C120.26 97.219 120.04 96.529 119.97 95.799C119.9 95.069 119.87 93.539 119.87 91.209V78.969H124.23V94.489C124.23 95.389 124.27 95.969 124.35 96.219C124.43 96.469 124.59 96.599 124.83 96.599C125.11 96.599 125.28 96.459 125.36 96.179C125.44 95.899 125.48 95.249 125.48 94.219V78.969H129.84L129.83 78.959Z" fill="white"/>
<path d="M139.971 85.2191H135.921V83.6891C135.921 82.9691 135.871 82.5191 135.761 82.3191C135.661 82.1191 135.481 82.0291 135.241 82.0291C134.981 82.0291 134.781 82.1591 134.641 82.4291C134.511 82.6891 134.441 83.0892 134.441 83.6292C134.441 84.3192 134.521 84.8391 134.671 85.1891C134.811 85.5391 135.221 85.9591 135.901 86.4491C137.841 87.8691 139.061 89.0391 139.571 89.9491C140.071 90.8591 140.331 92.3291 140.331 94.3591C140.331 95.8291 140.191 96.9191 139.911 97.6191C139.631 98.3191 139.091 98.8992 138.291 99.3792C137.491 99.8492 136.561 100.089 135.491 100.089C134.321 100.089 133.331 99.819 132.501 99.269C131.681 98.719 131.141 98.0291 130.881 97.1891C130.621 96.3491 130.501 95.1491 130.501 93.5991V92.2491H134.551V94.769C134.551 95.549 134.611 96.039 134.721 96.269C134.831 96.489 135.041 96.5991 135.331 96.5991C135.621 96.5991 135.841 96.4591 135.981 96.1791C136.121 95.8991 136.191 95.4791 136.191 94.9291C136.191 93.7091 136.061 92.9091 135.791 92.5391C135.511 92.1591 134.831 91.5391 133.751 90.6591C132.671 89.7691 131.951 89.1291 131.601 88.7291C131.251 88.3291 130.961 87.7791 130.731 87.0691C130.501 86.3591 130.381 85.4591 130.381 84.3591C130.381 82.7791 130.541 81.6192 130.871 80.8792C131.201 80.1492 131.731 79.5691 132.461 79.1591C133.191 78.7491 134.071 78.5391 135.111 78.5391C136.241 78.5391 137.211 78.7691 138.001 79.2191C138.801 79.6691 139.321 80.2391 139.581 80.9291C139.841 81.6191 139.971 82.7791 139.971 84.4291V85.2491V85.2191Z" fill="white"/>
<path d="M149.69 78.959V83.099H147.1V99.6489H142.74V83.099H140.16V78.959H149.68H149.69Z" fill="white"/>
<path d="M149.901 78.9592H152.981C155.041 78.9592 156.431 79.0593 157.161 79.2493C157.891 79.4493 158.481 79.9493 158.941 80.7493C159.401 81.5593 159.631 82.8392 159.631 84.5992C159.631 86.2092 159.471 87.2892 159.141 87.8492C158.821 88.3992 158.181 88.7392 157.221 88.8492C158.081 89.1092 158.661 89.4692 158.961 89.9092C159.261 90.3492 159.441 90.7593 159.511 91.1293C159.581 91.4993 159.621 92.5192 159.621 94.1892V99.6492H155.571V92.7692C155.571 91.6592 155.501 90.9792 155.361 90.7092C155.221 90.4492 154.851 90.3092 154.251 90.3092V99.6392H149.891V78.9492L149.901 78.9592ZM154.261 82.4993V87.0992C154.751 87.0992 155.091 87.0192 155.291 86.8492C155.491 86.6792 155.581 86.1392 155.581 85.2292V84.0892C155.581 83.4292 155.491 82.9992 155.301 82.7992C155.111 82.5992 154.761 82.4893 154.261 82.4893V82.4993Z" fill="white"/>
<path d="M169.82 78.959L166.64 92.1589V99.6489H162.6V92.1589L159.54 78.959H163.54C164.17 82.999 164.52 85.719 164.6 87.109C164.84 84.899 165.25 82.179 165.81 78.959H169.81H169.82Z" fill="white"/>
<path d="M177.1 78.959V99.6489H172.74V78.959H177.1Z" fill="white"/>
<path d="M187.791 78.959V99.6489H183.971L181.701 90.239V99.6489H178.061V78.959H181.701L184.141 88.2789V78.959H187.781H187.791Z" fill="white"/>
<path d="M198.491 78.959V99.6489H194.671L192.401 90.239V99.6489H188.761V78.959H192.401L194.841 88.2789V78.959H198.481H198.491Z" fill="white"/>
<path d="M209.41 91.0693C209.41 93.1493 209.37 94.6194 209.29 95.4894C209.21 96.3494 208.96 97.1394 208.54 97.8594C208.12 98.5794 207.56 99.1194 206.85 99.5094C206.14 99.8894 205.31 100.089 204.37 100.089C203.43 100.089 202.67 99.9093 201.95 99.5493C201.24 99.1893 200.66 98.6393 200.23 97.9193C199.8 97.1993 199.54 96.4093 199.45 95.5593C199.37 94.7093 199.33 93.2194 199.33 91.0894V87.5493C199.33 85.4693 199.37 83.9994 199.45 83.1294C199.53 82.2694 199.78 81.4794 200.2 80.7594C200.62 80.0394 201.18 79.4894 201.89 79.1094C202.6 78.7294 203.43 78.5293 204.37 78.5293C205.31 78.5293 206.07 78.7093 206.79 79.0693C207.5 79.4293 208.08 79.9793 208.51 80.6993C208.94 81.4193 209.2 82.2093 209.29 83.0593C209.37 83.9093 209.41 85.3993 209.41 87.5293V91.0693ZM205.05 84.2693C205.05 83.3093 205.01 82.6893 204.92 82.4193C204.83 82.1493 204.66 82.0193 204.39 82.0193C204.16 82.0193 203.99 82.1294 203.87 82.3494C203.75 82.5694 203.69 83.2093 203.69 84.2693V93.9293C203.69 95.1293 203.73 95.8693 203.81 96.1493C203.89 96.4293 204.07 96.5693 204.36 96.5693C204.65 96.5693 204.85 96.4093 204.93 96.0793C205.01 95.7593 205.05 94.9893 205.05 93.7693V84.2594V84.2693Z" fill="white"/>
<path d="M220.621 78.959L218.401 99.6489H211.781L209.261 78.959H213.861C214.391 84.659 214.781 89.479 215.001 93.429C215.231 89.439 215.471 85.899 215.721 82.809L216.021 78.959H220.621Z" fill="white"/>
<path d="M227.821 78.959L230.311 99.6489H225.861L225.631 95.929H224.071L223.811 99.6489H219.301L221.521 78.959H227.821ZM225.511 92.259C225.291 89.919 225.071 87.019 224.851 83.569C224.411 87.529 224.131 90.429 224.011 92.259H225.511Z" fill="white"/>
<path d="M237.881 78.959V83.099H235.291V99.6489H230.931V83.099H228.351V78.959H237.871H237.881Z" fill="white"/>
<path d="M242.451 78.959V99.6489H238.091V78.959H242.451Z" fill="white"/>
<path d="M253.37 91.0693C253.37 93.1493 253.33 94.6194 253.25 95.4894C253.17 96.3494 252.92 97.1394 252.5 97.8594C252.08 98.5794 251.52 99.1194 250.81 99.5094C250.1 99.8894 249.27 100.089 248.33 100.089C247.39 100.089 246.63 99.9093 245.91 99.5493C245.2 99.1893 244.62 98.6393 244.19 97.9193C243.76 97.1993 243.5 96.4093 243.41 95.5593C243.33 94.7093 243.29 93.2194 243.29 91.0894V87.5493C243.29 85.4693 243.33 83.9994 243.41 83.1294C243.49 82.2694 243.74 81.4794 244.16 80.7594C244.58 80.0394 245.14 79.4894 245.85 79.1094C246.56 78.7294 247.39 78.5293 248.33 78.5293C249.27 78.5293 250.03 78.7093 250.75 79.0693C251.46 79.4293 252.04 79.9793 252.47 80.6993C252.9 81.4193 253.16 82.2093 253.25 83.0593C253.33 83.9093 253.37 85.3993 253.37 87.5293V91.0693ZM249.01 84.2693C249.01 83.3093 248.97 82.6893 248.88 82.4193C248.79 82.1493 248.62 82.0193 248.35 82.0193C248.12 82.0193 247.95 82.1294 247.83 82.3494C247.71 82.5694 247.65 83.2093 247.65 84.2693V93.9293C247.65 95.1293 247.69 95.8693 247.77 96.1493C247.85 96.4293 248.04 96.5693 248.32 96.5693C248.6 96.5693 248.81 96.4093 248.89 96.0793C248.97 95.7593 249.01 94.9893 249.01 93.7693V84.2594V84.2693Z" fill="white"/>
<path d="M263.941 78.959V99.6489H260.121L257.851 90.239V99.6489H254.211V78.959H257.851L260.291 88.2789V78.959H263.931H263.941Z" fill="white"/>
<path d="M100.5 106.789L102.99 127.479H98.5405L98.3104 123.759H96.7504L96.4904 127.479H91.9805L94.2004 106.789H100.5ZM98.1904 120.089C97.9704 117.749 97.7505 114.849 97.5305 111.399C97.0905 115.359 96.8104 118.259 96.6904 120.089H98.1904Z" fill="white"/>
<path d="M112.68 106.789V127.479H108.86L106.59 118.069V127.479H102.95V106.789H106.59L109.03 116.109V106.789H112.67H112.68Z" fill="white"/>
<path d="M113.651 106.789H116.911C119.011 106.789 120.441 106.909 121.181 107.149C121.921 107.389 122.491 107.779 122.871 108.329C123.261 108.879 123.501 109.479 123.591 110.149C123.691 110.819 123.741 112.129 123.741 114.089V121.339C123.741 123.199 123.671 124.439 123.531 125.069C123.391 125.699 123.141 126.189 122.791 126.539C122.441 126.889 122.001 127.139 121.481 127.279C120.961 127.419 120.181 127.489 119.141 127.489H113.641V106.799L113.651 106.789ZM118.011 110.329V123.939C118.641 123.939 119.021 123.779 119.171 123.469C119.321 123.159 119.391 122.309 119.391 120.929V112.889C119.391 111.949 119.371 111.349 119.321 111.089C119.271 110.829 119.161 110.629 118.991 110.509C118.821 110.389 118.491 110.319 118.021 110.319L118.011 110.329Z" fill="white"/>
<path d="M131.9 106.789V127.479H127.54V106.789H131.9Z" fill="white"/>
<path d="M142.59 106.789V127.479H138.77L136.5 118.069V127.479H132.86V106.789H136.5L138.94 116.109V106.789H142.58H142.59Z" fill="white"/>
<path d="M143.561 106.789H150.941V110.929H147.921V114.849H150.611V118.789H147.921V127.479H143.561V106.789Z" fill="white"/>
<path d="M151.21 106.789H154.29C156.35 106.789 157.74 106.889 158.47 107.079C159.2 107.279 159.79 107.779 160.25 108.579C160.71 109.389 160.94 110.669 160.94 112.429C160.94 114.039 160.78 115.119 160.45 115.679C160.13 116.229 159.49 116.569 158.53 116.679C159.39 116.939 159.97 117.299 160.27 117.739C160.57 118.179 160.75 118.589 160.82 118.959C160.89 119.329 160.93 120.349 160.93 122.019V127.479H156.88V120.599C156.88 119.489 156.81 118.809 156.67 118.539C156.53 118.279 156.16 118.139 155.56 118.139V127.469H151.2V106.779L151.21 106.789ZM155.57 110.329V114.929C156.06 114.929 156.4 114.849 156.6 114.679C156.8 114.509 156.89 113.969 156.89 113.059V111.919C156.89 111.259 156.8 110.829 156.61 110.629C156.42 110.429 156.07 110.319 155.57 110.319V110.329Z" fill="white"/>
<path d="M169.38 106.789L171.87 127.479H167.42L167.19 123.759H165.63L165.37 127.479H160.86L163.08 106.789H169.38ZM167.07 120.089C166.85 117.749 166.63 114.849 166.41 111.399C165.97 115.359 165.69 118.259 165.57 120.089H167.07Z" fill="white"/>
<path d="M181.061 113.049H177.011V111.519C177.011 110.799 176.961 110.349 176.851 110.149C176.751 109.949 176.571 109.859 176.331 109.859C176.071 109.859 175.871 109.989 175.731 110.259C175.601 110.519 175.531 110.919 175.531 111.459C175.531 112.149 175.611 112.669 175.761 113.019C175.901 113.369 176.311 113.789 176.991 114.279C178.931 115.699 180.151 116.869 180.661 117.779C181.161 118.689 181.421 120.159 181.421 122.189C181.421 123.659 181.281 124.749 181.001 125.449C180.721 126.149 180.181 126.729 179.381 127.209C178.581 127.679 177.651 127.919 176.581 127.919C175.411 127.919 174.421 127.649 173.591 127.099C172.771 126.549 172.231 125.859 171.971 125.019C171.711 124.179 171.591 122.979 171.591 121.429V120.079H175.641V122.599C175.641 123.379 175.701 123.869 175.811 124.089C175.921 124.309 176.131 124.419 176.421 124.419C176.711 124.419 176.931 124.279 177.071 123.999C177.211 123.719 177.281 123.299 177.281 122.749C177.281 121.529 177.151 120.729 176.881 120.359C176.601 119.979 175.921 119.359 174.841 118.479C173.761 117.589 173.041 116.949 172.691 116.549C172.341 116.149 172.051 115.599 171.821 114.889C171.591 114.179 171.471 113.279 171.471 112.179C171.471 110.599 171.631 109.439 171.961 108.699C172.291 107.969 172.821 107.389 173.551 106.979C174.281 106.569 175.161 106.359 176.201 106.359C177.331 106.359 178.301 106.589 179.091 107.039C179.891 107.489 180.411 108.059 180.671 108.749C180.931 109.439 181.061 110.599 181.061 112.249V113.069V113.049Z" fill="white"/>
<path d="M190.78 106.789V110.929H188.19V127.479H183.83V110.929H181.25V106.789H190.77H190.78Z" fill="white"/>
<path d="M190.99 106.789H194.07C196.13 106.789 197.52 106.889 198.25 107.079C198.98 107.279 199.57 107.779 200.03 108.579C200.49 109.389 200.72 110.669 200.72 112.429C200.72 114.039 200.56 115.119 200.23 115.679C199.91 116.229 199.27 116.569 198.32 116.679C199.18 116.939 199.76 117.299 200.06 117.739C200.36 118.179 200.54 118.589 200.61 118.959C200.68 119.329 200.72 120.349 200.72 122.019V127.479H196.67V120.599C196.67 119.489 196.6 118.809 196.46 118.539C196.32 118.279 195.95 118.139 195.35 118.139V127.469H190.99V106.779V106.789ZM195.35 110.329V114.929C195.84 114.929 196.18 114.849 196.38 114.679C196.58 114.509 196.67 113.969 196.67 113.059V111.919C196.67 111.259 196.58 110.829 196.39 110.629C196.2 110.429 195.85 110.319 195.35 110.319V110.329Z" fill="white"/>
<path d="M211.54 106.789V120.619C211.54 122.189 211.5 123.289 211.42 123.919C211.34 124.549 211.09 125.209 210.69 125.879C210.28 126.549 209.75 127.059 209.08 127.399C208.41 127.749 207.63 127.919 206.72 127.919C205.72 127.919 204.84 127.719 204.07 127.309C203.3 126.899 202.73 126.369 202.35 125.709C201.97 125.049 201.75 124.359 201.68 123.629C201.61 122.899 201.58 121.369 201.58 119.039V106.799H205.94V122.319C205.94 123.219 205.98 123.799 206.06 124.049C206.14 124.299 206.3 124.429 206.54 124.429C206.82 124.429 206.99 124.289 207.07 124.009C207.15 123.729 207.19 123.079 207.19 122.049V106.799H211.55L211.54 106.789Z" fill="white"/>
<path d="M222.611 115.799H218.251V112.199C218.251 111.149 218.201 110.499 218.111 110.239C218.021 109.979 217.811 109.849 217.491 109.849C217.131 109.849 216.901 110.009 216.811 110.319C216.711 110.639 216.671 111.319 216.671 112.369V121.979C216.671 122.989 216.721 123.639 216.811 123.949C216.911 124.259 217.121 124.409 217.461 124.409C217.801 124.409 218.001 124.259 218.101 123.949C218.201 123.639 218.251 122.919 218.251 121.779V119.179H222.611V119.989C222.611 122.129 222.491 123.649 222.241 124.549C221.991 125.449 221.451 126.229 220.621 126.909C219.781 127.579 218.751 127.919 217.521 127.919C216.291 127.919 215.191 127.629 214.361 127.059C213.531 126.489 212.981 125.699 212.711 124.689C212.441 123.679 212.311 122.159 212.311 120.129V114.079C212.311 112.589 212.351 111.469 212.431 110.729C212.511 109.979 212.761 109.269 213.171 108.579C213.581 107.889 214.151 107.349 214.881 106.949C215.611 106.549 216.441 106.359 217.391 106.359C218.671 106.359 219.731 106.669 220.571 107.279C221.401 107.889 221.951 108.659 222.221 109.569C222.481 110.479 222.611 111.909 222.611 113.839V115.809V115.799Z" fill="white"/>
<path d="M232.171 106.789V110.929H229.581V127.479H225.221V110.929H222.641V106.789H232.161H232.171Z" fill="white"/>
<path d="M242.29 106.789V120.619C242.29 122.189 242.25 123.289 242.17 123.919C242.09 124.549 241.84 125.209 241.44 125.879C241.03 126.549 240.5 127.059 239.83 127.399C239.16 127.749 238.38 127.919 237.47 127.919C236.47 127.919 235.59 127.719 234.82 127.309C234.05 126.899 233.48 126.369 233.1 125.709C232.72 125.049 232.5 124.359 232.43 123.629C232.36 122.899 232.33 121.369 232.33 119.039V106.799H236.69V122.319C236.69 123.219 236.73 123.799 236.81 124.049C236.89 124.299 237.05 124.429 237.29 124.429C237.57 124.429 237.74 124.289 237.82 124.009C237.9 123.729 237.94 123.079 237.94 122.049V106.799H242.3L242.29 106.789Z" fill="white"/>
<path d="M243.191 106.789H246.271C248.331 106.789 249.721 106.889 250.451 107.079C251.181 107.279 251.771 107.779 252.231 108.579C252.691 109.389 252.921 110.669 252.921 112.429C252.921 114.039 252.761 115.119 252.431 115.679C252.111 116.229 251.471 116.569 250.511 116.679C251.371 116.939 251.951 117.299 252.251 117.739C252.551 118.179 252.731 118.589 252.801 118.959C252.871 119.329 252.911 120.349 252.911 122.019V127.479H248.861V120.599C248.861 119.489 248.791 118.809 248.651 118.539C248.511 118.279 248.141 118.139 247.541 118.139V127.469H243.181V106.779L243.191 106.789ZM247.551 110.329V114.929C248.041 114.929 248.381 114.849 248.581 114.679C248.781 114.509 248.871 113.969 248.871 113.059V111.919C248.871 111.259 248.781 110.829 248.591 110.629C248.401 110.429 248.051 110.319 247.551 110.319V110.329Z" fill="white"/>
<path d="M253.83 106.789H261.1V110.929H258.19V114.849H260.91V118.789H258.19V123.339H261.39V127.479H253.83V106.789Z" fill="white"/>
<path d="M184.12 197.288V163.708L154.53 146.468C153.89 146.098 153.11 146.088 152.46 146.458L121.89 163.708V197.288L93.2402 214.078V250.378L125.34 267.558L153.74 251.608L182.63 267.558L213.25 250.128V213.828L184.11 197.278L184.12 197.288ZM121.69 260.108L97.9503 247.148V219.778L121.69 233.498V260.108ZM126.44 169.208L148.4 181.868L126.44 194.528V169.208ZM126.44 260.798V236.068L148.4 248.728L126.44 260.798ZM150.77 243.988L129.41 231.918L150.77 219.778V243.978V243.988ZM150.77 210.948L129.41 198.488L150.77 186.028V210.958V210.948ZM180.44 169.208V194.528L158.28 181.868L180.44 169.208ZM155.91 186.028L176.88 198.288L155.91 210.948V186.018V186.028ZM182.42 229.348L158.29 215.698L182.62 201.648L206.56 215.698L182.43 229.348H182.42ZM208.93 247.348L184.6 261.398V233.508L208.93 219.788V247.358V247.348Z" fill="white"/>
</svg>
