<svg width="547" height="195" viewBox="0 0 547 195" fill="none" xmlns="http://www.w3.org/2000/svg">
<g opacity="0.5">
<path d="M92.7379 194.582C92.6651 194.582 92.5892 194.576 92.5164 194.564C71.1571 191.187 53.6601 178.872 41.9155 158.953C34.2577 145.962 29.4761 130.343 28.0896 113.777C26.7274 97.5083 28.7116 81.4643 33.8269 67.3807C39.6886 51.2365 50.7384 36.5581 65.7809 24.9325C66.3998 24.4561 67.2888 24.5684 67.7651 25.1874C68.2445 25.8065 68.1292 26.6957 67.5103 27.1721C52.8925 38.4699 42.1643 52.7083 36.4847 68.3487C26.2935 96.4158 29.4549 132.248 44.3488 157.515C55.6504 176.684 72.4557 188.528 92.9533 191.769C93.7239 191.891 94.2519 192.616 94.1305 193.39C94.0213 194.088 93.4175 194.585 92.7349 194.585L92.7379 194.582Z" fill="#9BB7E0"/>
<path d="M71.1374 186.474C71.1374 186.474 84.5476 164.858 65.0148 134.13C64.2806 135.775 54.678 162.698 71.1374 186.474Z" fill="#3D86C6"/>
<path d="M58.3442 177.704C58.3442 177.704 33.7628 184.232 10.0703 156.583C11.8573 156.359 40.4072 155.027 58.3442 177.704Z" fill="#3D86C6"/>
<path d="M36.7477 146.432C36.7477 146.432 11.5201 143.206 0 108.663C1.73848 109.127 28.6834 118.662 36.7477 146.432Z" fill="#3D86C6"/>
<path d="M28.626 111.741C28.626 111.741 5.77099 100.576 5.96213 64.1641C7.45789 65.1655 29.9125 82.8512 28.626 111.741Z" fill="#3D86C6"/>
<path d="M32.2739 75.0311C32.2739 75.0311 13.2477 58.1496 23.1871 23.1211C24.3612 24.4867 41.2545 47.5436 32.2739 75.0311Z" fill="#3D86C6"/>
<path d="M44.0624 48.9027C44.0624 48.9027 33.3038 27.0262 53.9593 0C54.5115 1.63262 61.2955 28.1339 44.0624 48.9027Z" fill="#3D86C6"/>
<path d="M45.4895 162.803C45.4895 162.803 66.1965 144.013 55.89 106.266C54.5975 107.762 36.1873 131.999 45.4895 162.803Z" fill="#3D86C6"/>
<path d="M30.4766 120.696C30.4766 120.696 52.1878 108.382 53.0039 71.6689C51.4475 72.7311 30.5281 89.124 30.4766 120.696Z" fill="#3D86C6"/>
<path d="M51.2119 45.7892C57.4346 41.2677 64.5948 38.1511 71.9826 36.0117C71.9674 37.5442 71.755 39.0736 71.3576 40.5545C70.863 42.3874 70.0803 44.1323 69.2216 45.8226C62.3406 59.3448 48.3569 72.1539 33.0898 75.1552C33.1384 73.4345 34.3004 71.1313 34.7798 69.444C37.5468 59.6908 42.9534 51.7917 51.2149 45.7892H51.2119Z" fill="#3D86C6"/>
<path d="M68.1913 22.0824C78.3339 13.8829 91.3345 9.29151 104.375 9.30668C104.687 13.4064 99.2866 17.1936 96.4559 19.333C89.9753 24.2339 83.1579 27.572 75.2331 29.7114C70.3545 31.0284 64.8721 32.0875 59.8083 32.0784C59.6566 32.0784 59.4837 32.0663 59.3927 31.9479C59.2592 31.778 59.3866 31.5322 59.514 31.3562C60.5153 29.9663 61.8108 28.8192 62.8636 27.4688C64.4382 25.4508 66.204 23.6907 68.1943 22.0824H68.1913Z" fill="#3D86C6"/>
</g>
<g opacity="0.5">
<path d="M453.647 194.583C452.965 194.583 452.361 194.085 452.252 193.387C452.13 192.616 452.655 191.891 453.429 191.766C473.924 188.525 490.732 176.681 502.034 157.512C516.93 132.246 520.092 96.4129 509.898 68.3458C504.218 52.7054 493.49 38.467 478.872 27.1692C478.253 26.6897 478.141 25.8036 478.617 25.1845C479.097 24.5655 479.982 24.4532 480.601 24.9296C495.644 36.5552 506.694 51.2336 512.555 67.3777C517.671 81.4614 519.655 97.5053 518.293 113.774C516.906 130.337 512.128 145.959 504.467 158.95C492.722 178.869 475.225 191.184 453.866 194.561C453.79 194.573 453.717 194.579 453.644 194.579L453.647 194.583Z" fill="#9BB7E0"/>
<path d="M475.251 186.474C475.251 186.474 461.841 164.858 481.374 134.13C482.108 135.775 491.711 162.698 475.251 186.474Z" fill="#3D86C6"/>
<path d="M488.043 177.704C488.043 177.704 512.624 184.232 536.317 156.583C534.53 156.359 505.98 155.027 488.043 177.704Z" fill="#3D86C6"/>
<path d="M509.637 146.433C509.637 146.433 534.864 143.21 546.384 108.664C544.646 109.128 517.701 118.663 509.637 146.433Z" fill="#3D86C6"/>
<path d="M517.76 111.741C517.76 111.741 540.615 100.579 540.424 64.1641C538.928 65.1655 516.474 82.8512 517.76 111.741Z" fill="#3D86C6"/>
<path d="M514.112 75.0311C514.112 75.0311 533.138 58.1496 523.199 23.1211C522.025 24.4867 505.132 47.5436 514.112 75.0311Z" fill="#3D86C6"/>
<path d="M502.324 48.9027C502.324 48.9027 513.083 27.0262 492.427 0C491.875 1.63262 485.091 28.1339 502.324 48.9027Z" fill="#3D86C6"/>
<path d="M500.898 162.803C500.898 162.803 480.191 144.013 490.497 106.266C491.79 107.762 510.2 131.999 500.898 162.803Z" fill="#3D86C6"/>
<path d="M515.914 120.695C515.914 120.695 494.203 108.381 493.387 71.668C494.943 72.7301 515.863 89.123 515.914 120.695Z" fill="#3D86C6"/>
<path d="M495.173 45.7892C488.95 41.2677 481.79 38.1511 474.402 36.0117C474.418 37.5442 474.63 39.0736 475.027 40.5545C475.522 42.3874 476.305 44.1323 477.163 45.8226C484.044 59.3448 498.028 72.1539 513.295 75.1552C513.247 73.4345 512.085 71.1313 511.605 69.444C508.838 59.6908 503.432 51.7917 495.17 45.7892H495.173Z" fill="#3D86C6"/>
<path d="M478.196 22.0834C468.054 13.8838 455.056 9.29248 442.013 9.30765C441.7 13.4074 447.101 17.1946 449.932 19.334C456.412 24.2349 463.23 27.573 471.154 29.7124C476.033 31.0294 481.516 32.0885 486.579 32.0794C486.731 32.0794 486.904 32.0672 486.995 31.9489C487.128 31.7789 487.001 31.5331 486.874 31.3571C485.872 29.9673 484.577 28.8202 483.524 27.4698C481.949 25.4518 480.184 23.6917 478.193 22.0834H478.196Z" fill="#3D86C6"/>
</g>
<path d="M101.163 46.74C99.0427 46.96 98.0627 47.95 98.2227 49.71H100.083V54.51H95.2227V50.46C95.2227 48.48 95.7027 47.06 96.6627 46.2C97.6227 45.34 98.9927 44.89 100.773 44.85L101.163 46.74ZM120.517 49.26H114.127V66H109.507V49.26H103.117V45H120.517V49.26ZM141.83 66H137.21V57.57H128.69V66H124.07V45H128.69V53.31H137.21V45H141.83V66ZM162.853 66H146.863V45H162.703V49.11H151.453V53.37H161.353V57.48H151.453V61.89H162.853V66ZM191.945 66H175.955V45H191.795V49.11H180.545V53.37H190.445V57.48H180.545V61.89H191.945V66ZM214.502 62.61C213.962 63.19 213.402 63.71 212.822 64.17C212.242 64.63 211.602 65.03 210.902 65.37C210.222 65.69 209.472 65.93 208.652 66.09C207.832 66.27 206.912 66.36 205.892 66.36C204.352 66.36 202.922 66.08 201.602 65.52C200.282 64.96 199.142 64.2 198.182 63.24C197.222 62.26 196.472 61.11 195.932 59.79C195.392 58.47 195.122 57.06 195.122 55.56V55.5C195.122 54 195.392 52.6 195.932 51.3C196.472 49.98 197.222 48.83 198.182 47.85C199.142 46.85 200.292 46.07 201.632 45.51C202.972 44.93 204.452 44.64 206.072 44.64C207.052 44.64 207.942 44.72 208.742 44.88C209.562 45.04 210.302 45.26 210.962 45.54C211.622 45.82 212.232 46.16 212.792 46.56C213.352 46.96 213.872 47.4 214.352 47.88L211.412 51.27C210.592 50.53 209.752 49.95 208.892 49.53C208.052 49.11 207.102 48.9 206.042 48.9C205.162 48.9 204.342 49.07 203.582 49.41C202.842 49.75 202.202 50.22 201.662 50.82C201.122 51.42 200.702 52.12 200.402 52.92C200.102 53.7 199.952 54.54 199.952 55.44V55.5C199.952 56.4 200.102 57.25 200.402 58.05C200.702 58.85 201.112 59.55 201.632 60.15C202.172 60.75 202.812 61.23 203.552 61.59C204.312 61.93 205.142 62.1 206.042 62.1C207.242 62.1 208.252 61.88 209.072 61.44C209.912 61 210.742 60.4 211.562 59.64L214.502 62.61ZM239.591 55.5C239.591 57 239.311 58.41 238.751 59.73C238.191 61.03 237.411 62.18 236.411 63.18C235.431 64.16 234.251 64.94 232.871 65.52C231.511 66.08 230.021 66.36 228.401 66.36C226.781 66.36 225.291 66.08 223.931 65.52C222.571 64.94 221.391 64.17 220.391 63.21C219.411 62.23 218.641 61.09 218.081 59.79C217.541 58.47 217.271 57.06 217.271 55.56V55.5C217.271 54 217.551 52.6 218.111 51.3C218.671 49.98 219.441 48.83 220.421 47.85C221.421 46.85 222.601 46.07 223.961 45.51C225.341 44.93 226.841 44.64 228.461 44.64C230.081 44.64 231.571 44.93 232.931 45.51C234.291 46.07 235.461 46.84 236.441 47.82C237.441 48.78 238.211 49.92 238.751 51.24C239.311 52.54 239.591 53.94 239.591 55.44V55.5ZM234.761 55.56V55.5C234.761 54.6 234.601 53.75 234.281 52.95C233.981 52.15 233.541 51.45 232.961 50.85C232.401 50.25 231.731 49.78 230.951 49.44C230.171 49.08 229.321 48.9 228.401 48.9C227.461 48.9 226.601 49.07 225.821 49.41C225.061 49.75 224.401 50.22 223.841 50.82C223.301 51.42 222.871 52.12 222.551 52.92C222.251 53.7 222.101 54.54 222.101 55.44V55.5C222.101 56.4 222.251 57.25 222.551 58.05C222.871 58.85 223.311 59.55 223.871 60.15C224.451 60.75 225.121 61.23 225.881 61.59C226.661 61.93 227.521 62.1 228.461 62.1C229.381 62.1 230.231 61.93 231.011 61.59C231.791 61.25 232.451 60.78 232.991 60.18C233.551 59.58 233.981 58.89 234.281 58.11C234.601 57.31 234.761 56.46 234.761 55.56ZM262.349 66H258.419L248.249 52.65V66H243.689V45H247.949L257.789 57.93V45H262.349V66ZM288.78 55.5C288.78 57 288.5 58.41 287.94 59.73C287.38 61.03 286.6 62.18 285.6 63.18C284.62 64.16 283.44 64.94 282.06 65.52C280.7 66.08 279.21 66.36 277.59 66.36C275.97 66.36 274.48 66.08 273.12 65.52C271.76 64.94 270.58 64.17 269.58 63.21C268.6 62.23 267.83 61.09 267.27 59.79C266.73 58.47 266.46 57.06 266.46 55.56V55.5C266.46 54 266.74 52.6 267.3 51.3C267.86 49.98 268.63 48.83 269.61 47.85C270.61 46.85 271.79 46.07 273.15 45.51C274.53 44.93 276.03 44.64 277.65 44.64C279.27 44.64 280.76 44.93 282.12 45.51C283.48 46.07 284.65 46.84 285.63 47.82C286.63 48.78 287.4 49.92 287.94 51.24C288.5 52.54 288.78 53.94 288.78 55.44V55.5ZM283.95 55.56V55.5C283.95 54.6 283.79 53.75 283.47 52.95C283.17 52.15 282.73 51.45 282.15 50.85C281.59 50.25 280.92 49.78 280.14 49.44C279.36 49.08 278.51 48.9 277.59 48.9C276.65 48.9 275.79 49.07 275.01 49.41C274.25 49.75 273.59 50.22 273.03 50.82C272.49 51.42 272.06 52.12 271.74 52.92C271.44 53.7 271.29 54.54 271.29 55.44V55.5C271.29 56.4 271.44 57.25 271.74 58.05C272.06 58.85 272.5 59.55 273.06 60.15C273.64 60.75 274.31 61.23 275.07 61.59C275.85 61.93 276.71 62.1 277.65 62.1C278.57 62.1 279.42 61.93 280.2 61.59C280.98 61.25 281.64 60.78 282.18 60.18C282.74 59.58 283.17 58.89 283.47 58.11C283.79 57.31 283.95 56.46 283.95 55.56ZM313.878 66H309.288V52.29L303.378 61.26H303.258L297.408 52.38V66H292.878V45H297.858L303.378 53.88L308.898 45H313.878V66ZM323.753 66H319.133V45H323.753V66ZM347.451 62.61C346.911 63.19 346.351 63.71 345.771 64.17C345.191 64.63 344.551 65.03 343.851 65.37C343.171 65.69 342.421 65.93 341.601 66.09C340.781 66.27 339.861 66.36 338.841 66.36C337.301 66.36 335.871 66.08 334.551 65.52C333.231 64.96 332.091 64.2 331.131 63.24C330.171 62.26 329.421 61.11 328.881 59.79C328.341 58.47 328.071 57.06 328.071 55.56V55.5C328.071 54 328.341 52.6 328.881 51.3C329.421 49.98 330.171 48.83 331.131 47.85C332.091 46.85 333.241 46.07 334.581 45.51C335.921 44.93 337.401 44.64 339.021 44.64C340.001 44.64 340.891 44.72 341.691 44.88C342.511 45.04 343.251 45.26 343.911 45.54C344.571 45.82 345.181 46.16 345.741 46.56C346.301 46.96 346.821 47.4 347.301 47.88L344.361 51.27C343.541 50.53 342.701 49.95 341.841 49.53C341.001 49.11 340.051 48.9 338.991 48.9C338.111 48.9 337.291 49.07 336.531 49.41C335.791 49.75 335.151 50.22 334.611 50.82C334.071 51.42 333.651 52.12 333.351 52.92C333.051 53.7 332.901 54.54 332.901 55.44V55.5C332.901 56.4 333.051 57.25 333.351 58.05C333.651 58.85 334.061 59.55 334.581 60.15C335.121 60.75 335.761 61.23 336.501 61.59C337.261 61.93 338.091 62.1 338.991 62.1C340.191 62.1 341.201 61.88 342.021 61.44C342.861 61 343.691 60.4 344.511 59.64L347.451 62.61ZM376.044 49.26H369.654V66H365.034V49.26H358.644V45H376.044V49.26ZM384.427 66H379.807V45H384.427V66ZM410.675 66H406.085V52.29L400.175 61.26H400.055L394.205 52.38V66H389.675V45H394.655L400.175 53.88L405.695 45H410.675V66ZM431.71 66H415.72V45H431.56V49.11H420.31V53.37H430.21V57.48H420.31V61.89H431.71V66ZM450.998 59.79C450.998 60.83 450.808 61.76 450.428 62.58C450.048 63.38 449.518 64.06 448.838 64.62C448.158 65.16 447.348 65.58 446.408 65.88C445.468 66.16 444.428 66.3 443.288 66.3C441.688 66.3 440.118 66.03 438.578 65.49C437.038 64.93 435.638 64.08 434.378 62.94L437.108 59.67C438.068 60.45 439.048 61.07 440.048 61.53C441.068 61.99 442.178 62.22 443.378 62.22C444.338 62.22 445.078 62.05 445.598 61.71C446.138 61.35 446.408 60.86 446.408 60.24V60.18C446.408 59.88 446.348 59.62 446.228 59.4C446.128 59.16 445.918 58.94 445.598 58.74C445.298 58.54 444.868 58.34 444.308 58.14C443.768 57.94 443.058 57.73 442.178 57.51C441.118 57.25 440.158 56.96 439.298 56.64C438.438 56.32 437.708 55.93 437.108 55.47C436.508 54.99 436.038 54.4 435.698 53.7C435.378 53 435.218 52.13 435.218 51.09V51.03C435.218 50.07 435.398 49.21 435.758 48.45C436.118 47.67 436.618 47 437.258 46.44C437.918 45.88 438.698 45.45 439.598 45.15C440.498 44.85 441.488 44.7 442.568 44.7C444.108 44.7 445.518 44.93 446.798 45.39C448.098 45.85 449.288 46.51 450.368 47.37L447.968 50.85C447.028 50.21 446.108 49.71 445.208 49.35C444.308 48.97 443.408 48.78 442.508 48.78C441.608 48.78 440.928 48.96 440.468 49.32C440.028 49.66 439.808 50.09 439.808 50.61V50.67C439.808 51.01 439.868 51.31 439.988 51.57C440.128 51.81 440.368 52.03 440.708 52.23C441.048 52.43 441.508 52.62 442.088 52.8C442.688 52.98 443.438 53.19 444.338 53.43C445.398 53.71 446.338 54.03 447.158 54.39C447.998 54.73 448.698 55.15 449.258 55.65C449.838 56.13 450.268 56.7 450.548 57.36C450.848 58.02 450.998 58.81 450.998 59.73V59.79ZM179.694 99.79C179.694 100.83 179.504 101.76 179.124 102.58C178.744 103.38 178.214 104.06 177.534 104.62C176.854 105.16 176.044 105.58 175.104 105.88C174.164 106.16 173.124 106.3 171.984 106.3C170.384 106.3 168.814 106.03 167.274 105.49C165.734 104.93 164.334 104.08 163.074 102.94L165.804 99.67C166.764 100.45 167.744 101.07 168.744 101.53C169.764 101.99 170.874 102.22 172.074 102.22C173.034 102.22 173.774 102.05 174.294 101.71C174.834 101.35 175.104 100.86 175.104 100.24V100.18C175.104 99.88 175.044 99.62 174.924 99.4C174.824 99.16 174.614 98.94 174.294 98.74C173.994 98.54 173.564 98.34 173.004 98.14C172.464 97.94 171.754 97.73 170.874 97.51C169.814 97.25 168.854 96.96 167.994 96.64C167.134 96.32 166.404 95.93 165.804 95.47C165.204 94.99 164.734 94.4 164.394 93.7C164.074 93 163.914 92.13 163.914 91.09V91.03C163.914 90.07 164.094 89.21 164.454 88.45C164.814 87.67 165.314 87 165.954 86.44C166.614 85.88 167.394 85.45 168.294 85.15C169.194 84.85 170.184 84.7 171.264 84.7C172.804 84.7 174.214 84.93 175.494 85.39C176.794 85.85 177.984 86.51 179.064 87.37L176.664 90.85C175.724 90.21 174.804 89.71 173.904 89.35C173.004 88.97 172.104 88.78 171.204 88.78C170.304 88.78 169.624 88.96 169.164 89.32C168.724 89.66 168.504 90.09 168.504 90.61V90.67C168.504 91.01 168.564 91.31 168.684 91.57C168.824 91.81 169.064 92.03 169.404 92.23C169.744 92.43 170.204 92.62 170.784 92.8C171.384 92.98 172.134 93.19 173.034 93.43C174.094 93.71 175.034 94.03 175.854 94.39C176.694 94.73 177.394 95.15 177.954 95.65C178.534 96.13 178.964 96.7 179.244 97.36C179.544 98.02 179.694 98.81 179.694 99.73V99.79ZM201.674 96.85C201.674 98.45 201.454 99.84 201.014 101.02C200.594 102.2 199.984 103.19 199.184 103.99C198.384 104.77 197.414 105.36 196.274 105.76C195.134 106.14 193.864 106.33 192.464 106.33C189.644 106.33 187.424 105.55 185.804 103.99C184.184 102.43 183.374 100.1 183.374 97V85H187.994V96.88C187.994 98.6 188.394 99.9 189.194 100.78C189.994 101.64 191.104 102.07 192.524 102.07C193.944 102.07 195.054 101.65 195.854 100.81C196.654 99.97 197.054 98.71 197.054 97.03V85H201.674V96.85ZM221.559 99.79C221.559 100.83 221.369 101.76 220.989 102.58C220.609 103.38 220.079 104.06 219.399 104.62C218.719 105.16 217.909 105.58 216.969 105.88C216.029 106.16 214.989 106.3 213.849 106.3C212.249 106.3 210.679 106.03 209.139 105.49C207.599 104.93 206.199 104.08 204.939 102.94L207.669 99.67C208.629 100.45 209.609 101.07 210.609 101.53C211.629 101.99 212.739 102.22 213.939 102.22C214.899 102.22 215.639 102.05 216.159 101.71C216.699 101.35 216.969 100.86 216.969 100.24V100.18C216.969 99.88 216.909 99.62 216.789 99.4C216.689 99.16 216.479 98.94 216.159 98.74C215.859 98.54 215.429 98.34 214.869 98.14C214.329 97.94 213.619 97.73 212.739 97.51C211.679 97.25 210.719 96.96 209.859 96.64C208.999 96.32 208.269 95.93 207.669 95.47C207.069 94.99 206.599 94.4 206.259 93.7C205.939 93 205.779 92.13 205.779 91.09V91.03C205.779 90.07 205.959 89.21 206.319 88.45C206.679 87.67 207.179 87 207.819 86.44C208.479 85.88 209.259 85.45 210.159 85.15C211.059 84.85 212.049 84.7 213.129 84.7C214.669 84.7 216.079 84.93 217.359 85.39C218.659 85.85 219.849 86.51 220.929 87.37L218.529 90.85C217.589 90.21 216.669 89.71 215.769 89.35C214.869 88.97 213.969 88.78 213.069 88.78C212.169 88.78 211.489 88.96 211.029 89.32C210.589 89.66 210.369 90.09 210.369 90.61V90.67C210.369 91.01 210.429 91.31 210.549 91.57C210.689 91.81 210.929 92.03 211.269 92.23C211.609 92.43 212.069 92.62 212.649 92.8C213.249 92.98 213.999 93.19 214.899 93.43C215.959 93.71 216.899 94.03 217.719 94.39C218.559 94.73 219.259 95.15 219.819 95.65C220.399 96.13 220.829 96.7 221.109 97.36C221.409 98.02 221.559 98.81 221.559 99.73V99.79ZM241.469 89.26H235.079V106H230.459V89.26H224.069V85H241.469V89.26ZM265.482 106H260.652L258.732 101.29H249.852L247.932 106H243.222L252.222 84.85H256.482L265.482 106ZM257.082 97.21L254.292 90.4L251.502 97.21H257.082ZM273.553 106H268.933V85H273.553V106ZM297.461 106H293.531L283.361 92.65V106H278.801V85H283.061L292.901 97.93V85H297.461V106ZM322.962 106H318.132L316.212 101.29H307.332L305.412 106H300.702L309.702 84.85H313.962L322.962 106ZM314.562 97.21L311.772 90.4L308.982 97.21H314.562ZM344.054 100.24C344.054 101.2 343.864 102.04 343.484 102.76C343.124 103.48 342.594 104.08 341.894 104.56C341.214 105.04 340.384 105.4 339.404 105.64C338.444 105.88 337.374 106 336.194 106H326.204V85H335.954C338.114 85 339.804 85.49 341.024 86.47C342.264 87.45 342.884 88.77 342.884 90.43V90.49C342.884 91.09 342.804 91.62 342.644 92.08C342.504 92.54 342.304 92.96 342.044 93.34C341.804 93.7 341.514 94.02 341.174 94.3C340.854 94.58 340.504 94.82 340.124 95.02C341.344 95.48 342.304 96.11 343.004 96.91C343.704 97.69 344.054 98.78 344.054 100.18V100.24ZM338.294 91.27V91.21C338.294 90.51 338.034 89.98 337.514 89.62C336.994 89.24 336.244 89.05 335.264 89.05H330.704V93.49H334.964C335.984 93.49 336.794 93.32 337.394 92.98C337.994 92.62 338.294 92.05 338.294 91.27ZM339.464 99.67V99.61C339.464 98.91 339.194 98.36 338.654 97.96C338.114 97.54 337.244 97.33 336.044 97.33H330.704V101.95H336.194C337.214 101.95 338.014 101.77 338.594 101.41C339.174 101.03 339.464 100.45 339.464 99.67ZM362.944 106H347.854V85H352.474V101.8H362.944V106ZM382.418 106H366.428V85H382.268V89.11H371.018V93.37H380.918V97.48H371.018V101.89H382.418V106ZM114.669 135.5C114.669 137 114.389 138.41 113.829 139.73C113.269 141.03 112.489 142.18 111.489 143.18C110.509 144.16 109.329 144.94 107.949 145.52C106.589 146.08 105.099 146.36 103.479 146.36C101.859 146.36 100.369 146.08 99.0088 145.52C97.6488 144.94 96.4688 144.17 95.4688 143.21C94.4888 142.23 93.7188 141.09 93.1588 139.79C92.6188 138.47 92.3488 137.06 92.3488 135.56V135.5C92.3488 134 92.6288 132.6 93.1888 131.3C93.7488 129.98 94.5188 128.83 95.4988 127.85C96.4988 126.85 97.6788 126.07 99.0388 125.51C100.419 124.93 101.919 124.64 103.539 124.64C105.159 124.64 106.649 124.93 108.009 125.51C109.369 126.07 110.539 126.84 111.519 127.82C112.519 128.78 113.289 129.92 113.829 131.24C114.389 132.54 114.669 133.94 114.669 135.44V135.5ZM109.839 135.56V135.5C109.839 134.6 109.679 133.75 109.359 132.95C109.059 132.15 108.619 131.45 108.039 130.85C107.479 130.25 106.809 129.78 106.029 129.44C105.249 129.08 104.399 128.9 103.479 128.9C102.539 128.9 101.679 129.07 100.899 129.41C100.139 129.75 99.4788 130.22 98.9188 130.82C98.3788 131.42 97.9488 132.12 97.6288 132.92C97.3288 133.7 97.1788 134.54 97.1788 135.44V135.5C97.1788 136.4 97.3288 137.25 97.6288 138.05C97.9488 138.85 98.3888 139.55 98.9488 140.15C99.5288 140.75 100.199 141.23 100.959 141.59C101.739 141.93 102.599 142.1 103.539 142.1C104.459 142.1 105.309 141.93 106.089 141.59C106.869 141.25 107.529 140.78 108.069 140.18C108.629 139.58 109.059 138.89 109.359 138.11C109.679 137.31 109.839 136.46 109.839 135.56ZM136.917 146H131.517L127.017 139.28H123.387V146H118.767V125H128.367C130.867 125 132.807 125.61 134.187 126.83C135.587 128.05 136.287 129.75 136.287 131.93V131.99C136.287 133.69 135.867 135.08 135.027 136.16C134.207 137.22 133.127 138 131.787 138.5L136.917 146ZM131.607 132.23V132.17C131.607 131.17 131.287 130.42 130.647 129.92C130.007 129.42 129.117 129.17 127.977 129.17H123.387V135.2H128.067C129.207 135.2 130.077 134.93 130.677 134.39C131.297 133.85 131.607 133.13 131.607 132.23ZM159.527 143.03C158.447 143.95 157.157 144.74 155.657 145.4C154.177 146.04 152.477 146.36 150.557 146.36C148.917 146.36 147.417 146.09 146.057 145.55C144.717 145.01 143.557 144.26 142.577 143.3C141.617 142.34 140.867 141.2 140.327 139.88C139.787 138.56 139.517 137.12 139.517 135.56V135.5C139.517 134 139.787 132.6 140.327 131.3C140.887 129.98 141.657 128.83 142.637 127.85C143.617 126.85 144.777 126.07 146.117 125.51C147.457 124.93 148.927 124.64 150.527 124.64C151.467 124.64 152.317 124.71 153.077 124.85C153.857 124.97 154.577 125.15 155.237 125.39C155.897 125.63 156.517 125.93 157.097 126.29C157.677 126.65 158.237 127.06 158.777 127.52L155.867 131.03C155.467 130.69 155.067 130.39 154.667 130.13C154.267 129.87 153.847 129.65 153.407 129.47C152.987 129.29 152.527 129.15 152.027 129.05C151.527 128.95 150.977 128.9 150.377 128.9C149.537 128.9 148.747 129.08 148.007 129.44C147.287 129.78 146.647 130.25 146.087 130.85C145.547 131.43 145.117 132.12 144.797 132.92C144.497 133.7 144.347 134.54 144.347 135.44V135.5C144.347 136.46 144.497 137.35 144.797 138.17C145.117 138.97 145.557 139.67 146.117 140.27C146.697 140.87 147.367 141.34 148.127 141.68C148.907 142 149.767 142.16 150.707 142.16C152.427 142.16 153.877 141.74 155.057 140.9V137.9H150.407V133.91H159.527V143.03ZM184.432 146H179.602L177.682 141.29H168.802L166.882 146H162.172L171.172 124.85H175.432L184.432 146ZM176.032 137.21L173.242 130.4L170.452 137.21H176.032ZM206.333 146H202.403L192.233 132.65V146H187.673V125H191.933L201.773 137.93V125H206.333V146ZM216.204 146H211.584V125H216.204V146ZM236.633 139.79C236.633 140.83 236.443 141.76 236.063 142.58C235.683 143.38 235.153 144.06 234.473 144.62C233.793 145.16 232.983 145.58 232.043 145.88C231.103 146.16 230.063 146.3 228.923 146.3C227.323 146.3 225.753 146.03 224.213 145.49C222.673 144.93 221.273 144.08 220.013 142.94L222.743 139.67C223.703 140.45 224.683 141.07 225.683 141.53C226.703 141.99 227.813 142.22 229.013 142.22C229.973 142.22 230.713 142.05 231.233 141.71C231.773 141.35 232.043 140.86 232.043 140.24V140.18C232.043 139.88 231.983 139.62 231.863 139.4C231.763 139.16 231.553 138.94 231.233 138.74C230.933 138.54 230.503 138.34 229.943 138.14C229.403 137.94 228.693 137.73 227.813 137.51C226.753 137.25 225.793 136.96 224.933 136.64C224.073 136.32 223.343 135.93 222.743 135.47C222.143 134.99 221.673 134.4 221.333 133.7C221.013 133 220.853 132.13 220.853 131.09V131.03C220.853 130.07 221.033 129.21 221.393 128.45C221.753 127.67 222.253 127 222.893 126.44C223.553 125.88 224.333 125.45 225.233 125.15C226.133 124.85 227.123 124.7 228.203 124.7C229.743 124.7 231.153 124.93 232.433 125.39C233.733 125.85 234.923 126.51 236.003 127.37L233.603 130.85C232.663 130.21 231.743 129.71 230.843 129.35C229.943 128.97 229.043 128.78 228.143 128.78C227.243 128.78 226.563 128.96 226.103 129.32C225.663 129.66 225.443 130.09 225.443 130.61V130.67C225.443 131.01 225.503 131.31 225.623 131.57C225.763 131.81 226.003 132.03 226.343 132.23C226.683 132.43 227.143 132.62 227.723 132.8C228.323 132.98 229.073 133.19 229.973 133.43C231.033 133.71 231.973 134.03 232.793 134.39C233.633 134.73 234.333 135.15 234.893 135.65C235.473 136.13 235.903 136.7 236.183 137.36C236.483 138.02 236.633 138.81 236.633 139.73V139.79ZM261.102 146H256.272L254.352 141.29H245.472L243.552 146H238.842L247.842 124.85H252.102L261.102 146ZM252.702 137.21L249.912 130.4L247.122 137.21H252.702ZM280.243 129.26H273.853V146H269.233V129.26H262.843V125H280.243V129.26ZM288.626 146H284.006V125H288.626V146ZM315.264 135.5C315.264 137 314.984 138.41 314.424 139.73C313.864 141.03 313.084 142.18 312.084 143.18C311.104 144.16 309.924 144.94 308.544 145.52C307.184 146.08 305.694 146.36 304.074 146.36C302.454 146.36 300.964 146.08 299.604 145.52C298.244 144.94 297.064 144.17 296.064 143.21C295.084 142.23 294.314 141.09 293.754 139.79C293.214 138.47 292.944 137.06 292.944 135.56V135.5C292.944 134 293.224 132.6 293.784 131.3C294.344 129.98 295.114 128.83 296.094 127.85C297.094 126.85 298.274 126.07 299.634 125.51C301.014 124.93 302.514 124.64 304.134 124.64C305.754 124.64 307.244 124.93 308.604 125.51C309.964 126.07 311.134 126.84 312.114 127.82C313.114 128.78 313.884 129.92 314.424 131.24C314.984 132.54 315.264 133.94 315.264 135.44V135.5ZM310.434 135.56V135.5C310.434 134.6 310.274 133.75 309.954 132.95C309.654 132.15 309.214 131.45 308.634 130.85C308.074 130.25 307.404 129.78 306.624 129.44C305.844 129.08 304.994 128.9 304.074 128.9C303.134 128.9 302.274 129.07 301.494 129.41C300.734 129.75 300.074 130.22 299.514 130.82C298.974 131.42 298.544 132.12 298.224 132.92C297.924 133.7 297.774 134.54 297.774 135.44V135.5C297.774 136.4 297.924 137.25 298.224 138.05C298.544 138.85 298.984 139.55 299.544 140.15C300.124 140.75 300.794 141.23 301.554 141.59C302.334 141.93 303.194 142.1 304.134 142.1C305.054 142.1 305.904 141.93 306.684 141.59C307.464 141.25 308.124 140.78 308.664 140.18C309.224 139.58 309.654 138.89 309.954 138.11C310.274 137.31 310.434 136.46 310.434 135.56ZM338.023 146H334.093L323.923 132.65V146H319.363V125H323.623L333.463 137.93V125H338.023V146ZM358.244 139.79C358.244 140.83 358.054 141.76 357.674 142.58C357.294 143.38 356.764 144.06 356.084 144.62C355.404 145.16 354.594 145.58 353.654 145.88C352.714 146.16 351.674 146.3 350.534 146.3C348.934 146.3 347.364 146.03 345.824 145.49C344.284 144.93 342.884 144.08 341.624 142.94L344.354 139.67C345.314 140.45 346.294 141.07 347.294 141.53C348.314 141.99 349.424 142.22 350.624 142.22C351.584 142.22 352.324 142.05 352.844 141.71C353.384 141.35 353.654 140.86 353.654 140.24V140.18C353.654 139.88 353.594 139.62 353.474 139.4C353.374 139.16 353.164 138.94 352.844 138.74C352.544 138.54 352.114 138.34 351.554 138.14C351.014 137.94 350.304 137.73 349.424 137.51C348.364 137.25 347.404 136.96 346.544 136.64C345.684 136.32 344.954 135.93 344.354 135.47C343.754 134.99 343.284 134.4 342.944 133.7C342.624 133 342.464 132.13 342.464 131.09V131.03C342.464 130.07 342.644 129.21 343.004 128.45C343.364 127.67 343.864 127 344.504 126.44C345.164 125.88 345.944 125.45 346.844 125.15C347.744 124.85 348.734 124.7 349.814 124.7C351.354 124.7 352.764 124.93 354.044 125.39C355.344 125.85 356.534 126.51 357.614 127.37L355.214 130.85C354.274 130.21 353.354 129.71 352.454 129.35C351.554 128.97 350.654 128.78 349.754 128.78C348.854 128.78 348.174 128.96 347.714 129.32C347.274 129.66 347.054 130.09 347.054 130.61V130.67C347.054 131.01 347.114 131.31 347.234 131.57C347.374 131.81 347.614 132.03 347.954 132.23C348.294 132.43 348.754 132.62 349.334 132.8C349.934 132.98 350.684 133.19 351.584 133.43C352.644 133.71 353.584 134.03 354.404 134.39C355.244 134.73 355.944 135.15 356.504 135.65C357.084 136.13 357.514 136.7 357.794 137.36C358.094 138.02 358.244 138.81 358.244 139.73V139.79ZM377.998 128.84C377.178 128.84 376.448 129.07 375.808 129.53C375.188 129.99 374.488 130.7 373.708 131.66L370.468 129.05C370.988 128.35 371.508 127.73 372.028 127.19C372.568 126.65 373.138 126.2 373.738 125.84C374.358 125.46 375.038 125.18 375.778 125C376.518 124.8 377.358 124.7 378.298 124.7C379.418 124.7 380.418 124.86 381.298 125.18C382.198 125.48 382.958 125.92 383.578 126.5C384.218 127.06 384.698 127.74 385.018 128.54C385.358 129.34 385.528 130.23 385.528 131.21C385.528 132.09 385.408 132.88 385.168 133.58C384.948 134.26 384.608 134.91 384.148 135.53C383.708 136.15 383.138 136.77 382.438 137.39C381.738 137.99 380.928 138.65 380.008 139.37L376.588 142.01H385.738V146H370.198V142.34L377.188 136.61C377.848 136.07 378.408 135.59 378.868 135.17C379.328 134.73 379.698 134.32 379.978 133.94C380.278 133.54 380.488 133.16 380.608 132.8C380.748 132.42 380.818 132.01 380.818 131.57C380.818 130.67 380.558 129.99 380.038 129.53C379.518 129.07 378.838 128.84 377.998 128.84ZM407.699 135.47C407.699 137.01 407.469 138.44 407.009 139.76C406.569 141.08 405.939 142.23 405.119 143.21C404.299 144.19 403.309 144.96 402.149 145.52C401.009 146.08 399.739 146.36 398.339 146.36C396.939 146.36 395.659 146.09 394.499 145.55C393.359 144.99 392.379 144.22 391.559 143.24C390.759 142.26 390.139 141.12 389.699 139.82C389.259 138.5 389.039 137.07 389.039 135.53C389.039 134.01 389.259 132.59 389.699 131.27C390.159 129.93 390.799 128.77 391.619 127.79C392.439 126.81 393.419 126.04 394.559 125.48C395.719 124.92 396.999 124.64 398.399 124.64C399.799 124.64 401.069 124.92 402.209 125.48C403.369 126.02 404.349 126.78 405.149 127.76C405.969 128.74 406.599 129.89 407.039 131.21C407.479 132.53 407.699 133.95 407.699 135.47ZM402.959 135.53C402.959 134.57 402.849 133.68 402.629 132.86C402.409 132.04 402.099 131.33 401.699 130.73C401.299 130.13 400.809 129.66 400.229 129.32C399.669 128.98 399.039 128.81 398.339 128.81C397.639 128.81 397.009 128.98 396.449 129.32C395.889 129.64 395.409 130.1 395.009 130.7C394.609 131.28 394.299 131.98 394.079 132.8C393.879 133.62 393.779 134.51 393.779 135.47C393.779 136.43 393.889 137.32 394.109 138.14C394.329 138.96 394.639 139.67 395.039 140.27C395.439 140.87 395.919 141.34 396.479 141.68C397.059 142.02 397.699 142.19 398.399 142.19C399.099 142.19 399.729 142.03 400.289 141.71C400.849 141.37 401.329 140.9 401.729 140.3C402.129 139.7 402.429 139 402.629 138.2C402.849 137.38 402.959 136.49 402.959 135.53ZM418.603 128.84C417.783 128.84 417.053 129.07 416.413 129.53C415.793 129.99 415.093 130.7 414.313 131.66L411.073 129.05C411.593 128.35 412.113 127.73 412.633 127.19C413.173 126.65 413.743 126.2 414.343 125.84C414.963 125.46 415.643 125.18 416.383 125C417.123 124.8 417.963 124.7 418.903 124.7C420.023 124.7 421.023 124.86 421.903 125.18C422.803 125.48 423.563 125.92 424.183 126.5C424.823 127.06 425.303 127.74 425.623 128.54C425.963 129.34 426.133 130.23 426.133 131.21C426.133 132.09 426.013 132.88 425.773 133.58C425.553 134.26 425.213 134.91 424.753 135.53C424.313 136.15 423.743 136.77 423.043 137.39C422.343 137.99 421.533 138.65 420.613 139.37L417.193 142.01H426.343V146H410.803V142.34L417.793 136.61C418.453 136.07 419.013 135.59 419.473 135.17C419.933 134.73 420.303 134.32 420.583 133.94C420.883 133.54 421.093 133.16 421.213 132.8C421.353 132.42 421.423 132.01 421.423 131.57C421.423 130.67 421.163 129.99 420.643 129.53C420.123 129.07 419.443 128.84 418.603 128.84ZM438.644 128.96H430.394V125H444.584V128.48L439.274 133.55C439.994 133.67 440.694 133.86 441.374 134.12C442.054 134.38 442.654 134.75 443.174 135.23C443.694 135.69 444.114 136.27 444.434 136.97C444.754 137.65 444.914 138.48 444.914 139.46C444.914 140.46 444.734 141.38 444.374 142.22C444.034 143.06 443.534 143.79 442.874 144.41C442.234 145.03 441.444 145.51 440.504 145.85C439.564 146.19 438.514 146.36 437.354 146.36C435.454 146.36 433.834 146.03 432.494 145.37C431.174 144.69 430.064 143.81 429.164 142.73L432.344 139.7C433.064 140.52 433.814 141.15 434.594 141.59C435.394 142.01 436.334 142.22 437.414 142.22C438.294 142.22 439.004 141.99 439.544 141.53C440.104 141.07 440.384 140.44 440.384 139.64C440.384 138.76 440.024 138.09 439.304 137.63C438.604 137.17 437.594 136.94 436.274 136.94H434.354L433.634 134L438.644 128.96ZM447.587 132.77C449.707 132.55 450.687 131.56 450.527 129.8H448.667V125H453.527V129.05C453.527 131.03 453.047 132.46 452.087 133.34C451.127 134.2 449.757 134.64 447.977 134.66L447.587 132.77Z" fill="#AD3088"/>
</svg>
