<svg width="547" height="195" viewBox="0 0 547 195" fill="none" xmlns="http://www.w3.org/2000/svg">
<g opacity="0.5">
<path d="M92.7379 194.582C92.6651 194.582 92.5892 194.576 92.5164 194.564C71.1571 191.187 53.6601 178.872 41.9155 158.953C34.2577 145.962 29.4761 130.343 28.0896 113.777C26.7274 97.5083 28.7116 81.4643 33.8269 67.3807C39.6886 51.2365 50.7384 36.5581 65.7809 24.9325C66.3998 24.4561 67.2888 24.5684 67.7651 25.1874C68.2445 25.8065 68.1292 26.6957 67.5103 27.1721C52.8925 38.4699 42.1643 52.7083 36.4847 68.3487C26.2935 96.4158 29.4549 132.248 44.3488 157.515C55.6504 176.684 72.4557 188.528 92.9533 191.769C93.7239 191.891 94.2519 192.616 94.1305 193.39C94.0213 194.088 93.4175 194.585 92.7349 194.585L92.7379 194.582Z" fill="#9BB7E0"/>
<path d="M71.1374 186.474C71.1374 186.474 84.5476 164.858 65.0148 134.13C64.2806 135.775 54.678 162.698 71.1374 186.474Z" fill="#3D86C6"/>
<path d="M58.3442 177.704C58.3442 177.704 33.7628 184.231 10.0703 156.583C11.8573 156.358 40.4072 155.026 58.3442 177.704Z" fill="#3D86C6"/>
<path d="M36.7477 146.432C36.7477 146.432 11.5201 143.207 0 108.664C1.73848 109.128 28.6834 118.663 36.7477 146.432Z" fill="#3D86C6"/>
<path d="M28.626 111.741C28.626 111.741 5.77099 100.576 5.96213 64.1641C7.45789 65.1655 29.9125 82.8512 28.626 111.741Z" fill="#3D86C6"/>
<path d="M32.2739 75.0311C32.2739 75.0311 13.2477 58.1496 23.1871 23.1211C24.3612 24.4867 41.2545 47.5436 32.2739 75.0311Z" fill="#3D86C6"/>
<path d="M44.0624 48.9027C44.0624 48.9027 33.3038 27.0262 53.9593 0C54.5115 1.63262 61.2955 28.1339 44.0624 48.9027Z" fill="#3D86C6"/>
<path d="M45.4895 162.804C45.4895 162.804 66.1965 144.014 55.89 106.266C54.5975 107.762 36.1873 132 45.4895 162.804Z" fill="#3D86C6"/>
<path d="M30.4766 120.696C30.4766 120.696 52.1878 108.381 53.0039 71.6686C51.4475 72.7307 30.5281 89.1237 30.4766 120.696Z" fill="#3D86C6"/>
<path d="M51.2119 45.7892C57.4346 41.2677 64.5948 38.1511 71.9826 36.0117C71.9674 37.5442 71.755 39.0736 71.3576 40.5545C70.863 42.3874 70.0803 44.1323 69.2216 45.8226C62.3406 59.3448 48.3569 72.1539 33.0898 75.1552C33.1384 73.4345 34.3004 71.1313 34.7798 69.444C37.5468 59.6908 42.9534 51.7917 51.2149 45.7892H51.2119Z" fill="#3D86C6"/>
<path d="M68.1913 22.0829C78.3339 13.8834 91.3345 9.29199 104.375 9.30717C104.687 13.4069 99.2866 17.1941 96.4559 19.3335C89.9753 24.2344 83.1579 27.5725 75.2331 29.7119C70.3545 31.0289 64.8721 32.088 59.8083 32.0789C59.6566 32.0789 59.4837 32.0667 59.3927 31.9484C59.2592 31.7785 59.3866 31.5326 59.514 31.3566C60.5153 29.9668 61.8108 28.8197 62.8636 27.4693C64.4382 25.4513 66.204 23.6912 68.1943 22.0829H68.1913Z" fill="#3D86C6"/>
</g>
<g opacity="0.5">
<path d="M453.647 194.582C452.965 194.582 452.361 194.084 452.252 193.386C452.13 192.616 452.655 191.89 453.429 191.766C473.924 188.525 490.732 176.681 502.034 157.511C516.93 132.245 520.092 96.4124 509.898 68.3453C504.218 52.7049 493.49 38.4665 478.872 27.1687C478.253 26.6892 478.141 25.8031 478.617 25.184C479.097 24.565 479.982 24.4527 480.601 24.9291C495.644 36.5547 506.694 51.2331 512.555 67.3772C517.671 81.4609 519.655 97.5049 518.293 113.773C516.906 130.336 512.128 145.958 504.467 158.95C492.722 178.869 475.225 191.183 453.866 194.561C453.79 194.573 453.717 194.579 453.644 194.579L453.647 194.582Z" fill="#9BB7E0"/>
<path d="M475.251 186.474C475.251 186.474 461.841 164.858 481.374 134.13C482.108 135.775 491.711 162.698 475.251 186.474Z" fill="#3D86C6"/>
<path d="M488.043 177.704C488.043 177.704 512.624 184.231 536.317 156.583C534.53 156.358 505.98 155.026 488.043 177.704Z" fill="#3D86C6"/>
<path d="M509.637 146.432C509.637 146.432 534.864 143.21 546.384 108.664C544.646 109.128 517.701 118.663 509.637 146.432Z" fill="#3D86C6"/>
<path d="M517.76 111.74C517.76 111.74 540.615 100.579 540.424 64.1636C538.928 65.165 516.474 82.8507 517.76 111.74Z" fill="#3D86C6"/>
<path d="M514.112 75.0306C514.112 75.0306 533.138 58.1491 523.199 23.1206C522.025 24.4862 505.132 47.5431 514.112 75.0306Z" fill="#3D86C6"/>
<path d="M502.324 48.9027C502.324 48.9027 513.083 27.0262 492.427 0C491.875 1.63262 485.091 28.1339 502.324 48.9027Z" fill="#3D86C6"/>
<path d="M500.898 162.804C500.898 162.804 480.191 144.014 490.497 106.266C491.79 107.762 510.2 132 500.898 162.804Z" fill="#3D86C6"/>
<path d="M515.914 120.696C515.914 120.696 494.203 108.381 493.387 71.6685C494.943 72.7306 515.863 89.1235 515.914 120.696Z" fill="#3D86C6"/>
<path d="M495.173 45.7892C488.95 41.2677 481.79 38.1511 474.402 36.0117C474.418 37.5442 474.63 39.0736 475.027 40.5545C475.522 42.3874 476.305 44.1323 477.163 45.8226C484.044 59.3448 498.028 72.1539 513.295 75.1552C513.247 73.4345 512.085 71.1313 511.605 69.444C508.838 59.6908 503.432 51.7917 495.17 45.7892H495.173Z" fill="#3D86C6"/>
<path d="M478.196 22.0829C468.054 13.8834 455.056 9.29199 442.013 9.30717C441.7 13.4069 447.101 17.1941 449.932 19.3335C456.412 24.2344 463.23 27.5725 471.154 29.7119C476.033 31.0289 481.516 32.088 486.579 32.0789C486.731 32.0789 486.904 32.0667 486.995 31.9484C487.128 31.7785 487.001 31.5326 486.874 31.3566C485.872 29.9668 484.577 28.8197 483.524 27.4693C481.949 25.4513 480.184 23.6912 478.193 22.0829H478.196Z" fill="#3D86C6"/>
</g>
<path d="M214.744 51H212.804L208.744 45.56H204.744V51H203.164V37H209.184C209.957 37 210.65 37.1 211.264 37.3C211.89 37.5 212.424 37.7867 212.864 38.16C213.304 38.52 213.644 38.96 213.884 39.48C214.124 39.9867 214.244 40.5533 214.244 41.18C214.244 41.7667 214.15 42.2933 213.964 42.76C213.777 43.2133 213.51 43.6133 213.164 43.96C212.83 44.2933 212.43 44.5733 211.964 44.8C211.497 45.0267 210.99 45.1867 210.444 45.28L214.744 51ZM212.644 41.24C212.644 40.36 212.33 39.68 211.704 39.2C211.077 38.7067 210.197 38.46 209.064 38.46H204.744V44.14H209.044C209.564 44.14 210.044 44.0733 210.484 43.94C210.924 43.8067 211.304 43.62 211.624 43.38C211.944 43.1267 212.19 42.82 212.364 42.46C212.55 42.1 212.644 41.6933 212.644 41.24ZM218.081 46.4C218.135 46.96 218.268 47.46 218.481 47.9C218.695 48.3267 218.968 48.6933 219.301 49C219.635 49.2933 220.008 49.52 220.421 49.68C220.835 49.8267 221.268 49.9 221.721 49.9C222.441 49.9 223.055 49.7667 223.561 49.5C224.081 49.2333 224.555 48.88 224.981 48.44L225.941 49.3C225.421 49.8867 224.828 50.36 224.161 50.72C223.495 51.0667 222.668 51.24 221.681 51.24C220.975 51.24 220.308 51.1133 219.681 50.86C219.055 50.5933 218.508 50.2267 218.041 49.76C217.575 49.28 217.201 48.7067 216.921 48.04C216.655 47.3733 216.521 46.64 216.521 45.84C216.521 45.0933 216.641 44.3933 216.881 43.74C217.135 43.0733 217.481 42.5 217.921 42.02C218.361 41.5267 218.881 41.14 219.481 40.86C220.095 40.58 220.761 40.44 221.481 40.44C222.241 40.44 222.921 40.5867 223.521 40.88C224.121 41.16 224.628 41.5467 225.041 42.04C225.455 42.5333 225.768 43.1133 225.981 43.78C226.195 44.4467 226.301 45.16 226.301 45.92C226.301 45.9867 226.301 46.06 226.301 46.14C226.301 46.22 226.295 46.3067 226.281 46.4H218.081ZM218.081 45.26H224.741C224.701 44.7933 224.601 44.3467 224.441 43.92C224.295 43.4933 224.081 43.12 223.801 42.8C223.535 42.48 223.201 42.2267 222.801 42.04C222.415 41.84 221.961 41.74 221.441 41.74C220.988 41.74 220.568 41.8333 220.181 42.02C219.795 42.1933 219.455 42.44 219.161 42.76C218.868 43.0667 218.628 43.4333 218.441 43.86C218.255 44.2867 218.135 44.7533 218.081 45.26ZM237.877 49.24C237.357 49.8267 236.764 50.3067 236.097 50.68C235.444 51.0533 234.631 51.24 233.657 51.24C232.897 51.24 232.191 51.1 231.537 50.82C230.897 50.5267 230.337 50.14 229.857 49.66C229.391 49.1667 229.024 48.5933 228.757 47.94C228.491 47.2867 228.357 46.5933 228.357 45.86C228.357 45.1267 228.491 44.4333 228.757 43.78C229.024 43.1133 229.391 42.5333 229.857 42.04C230.337 41.5467 230.897 41.16 231.537 40.88C232.191 40.5867 232.897 40.44 233.657 40.44C234.151 40.44 234.597 40.4867 234.997 40.58C235.397 40.6733 235.764 40.8067 236.097 40.98C236.431 41.14 236.737 41.3333 237.017 41.56C237.297 41.7867 237.557 42.0267 237.797 42.28L236.777 43.36C236.364 42.9333 235.911 42.5667 235.417 42.26C234.937 41.9533 234.344 41.8 233.637 41.8C233.117 41.8 232.631 41.9067 232.177 42.12C231.724 42.32 231.331 42.6067 230.997 42.98C230.664 43.34 230.404 43.7667 230.217 44.26C230.031 44.74 229.937 45.26 229.937 45.82C229.937 46.38 230.031 46.9067 230.217 47.4C230.417 47.8933 230.684 48.3267 231.017 48.7C231.364 49.06 231.764 49.3467 232.217 49.56C232.684 49.76 233.191 49.86 233.737 49.86C234.404 49.86 234.991 49.7133 235.497 49.42C236.017 49.1267 236.484 48.76 236.897 48.32L237.877 49.24ZM250.27 45.82C250.27 46.5533 250.13 47.2533 249.85 47.92C249.583 48.5733 249.21 49.1467 248.73 49.64C248.25 50.1333 247.677 50.5267 247.01 50.82C246.343 51.1 245.623 51.24 244.85 51.24C244.077 51.24 243.363 51.1 242.71 50.82C242.057 50.5267 241.49 50.14 241.01 49.66C240.53 49.1667 240.157 48.5933 239.89 47.94C239.623 47.2867 239.49 46.5933 239.49 45.86C239.49 45.1267 239.623 44.4333 239.89 43.78C240.157 43.1133 240.53 42.5333 241.01 42.04C241.49 41.5467 242.057 41.16 242.71 40.88C243.377 40.5867 244.103 40.44 244.89 40.44C245.663 40.44 246.377 40.5867 247.03 40.88C247.697 41.16 248.27 41.5467 248.75 42.04C249.23 42.52 249.603 43.0867 249.87 43.74C250.137 44.3933 250.27 45.0867 250.27 45.82ZM248.69 45.86C248.69 45.3 248.59 44.7733 248.39 44.28C248.203 43.7867 247.937 43.36 247.59 43C247.243 42.6267 246.837 42.3333 246.37 42.12C245.903 41.9067 245.397 41.8 244.85 41.8C244.29 41.8 243.777 41.9067 243.31 42.12C242.843 42.32 242.443 42.6067 242.11 42.98C241.79 43.34 241.537 43.7667 241.35 44.26C241.163 44.74 241.07 45.26 241.07 45.82C241.07 46.38 241.163 46.9067 241.35 47.4C241.55 47.8933 241.817 48.32 242.15 48.68C242.497 49.04 242.903 49.3267 243.37 49.54C243.837 49.7533 244.343 49.86 244.89 49.86C245.45 49.86 245.963 49.76 246.43 49.56C246.897 49.3467 247.297 49.06 247.63 48.7C247.963 48.34 248.223 47.92 248.41 47.44C248.597 46.9467 248.69 46.42 248.69 45.86ZM262.9 49.2C262.9 50.04 262.773 50.7733 262.52 51.4C262.28 52.0267 261.927 52.5467 261.46 52.96C261.007 53.3867 260.453 53.7067 259.8 53.92C259.16 54.1333 258.44 54.24 257.64 54.24C256.773 54.24 255.947 54.12 255.16 53.88C254.373 53.64 253.633 53.28 252.94 52.8L253.64 51.6C254.24 52.0267 254.867 52.3533 255.52 52.58C256.173 52.8067 256.873 52.92 257.62 52.92C258.767 52.92 259.68 52.6067 260.36 51.98C261.04 51.3667 261.38 50.4533 261.38 49.24V48.02C260.927 48.62 260.373 49.1333 259.72 49.56C259.067 49.9867 258.267 50.2 257.32 50.2C256.693 50.2 256.087 50.0933 255.5 49.88C254.927 49.6533 254.413 49.3333 253.96 48.92C253.507 48.4933 253.14 47.98 252.86 47.38C252.593 46.78 252.46 46.1 252.46 45.34C252.46 44.58 252.593 43.9 252.86 43.3C253.14 42.6867 253.507 42.1733 253.96 41.76C254.413 41.3333 254.933 41.0067 255.52 40.78C256.107 40.5533 256.707 40.44 257.32 40.44C257.8 40.44 258.24 40.5 258.64 40.62C259.053 40.7267 259.42 40.8733 259.74 41.06C260.073 41.2467 260.373 41.4667 260.64 41.72C260.907 41.9733 261.147 42.24 261.36 42.52V40.66H262.9V49.2ZM261.42 45.32C261.42 44.7867 261.313 44.3067 261.1 43.88C260.887 43.44 260.6 43.0667 260.24 42.76C259.893 42.4533 259.493 42.22 259.04 42.06C258.587 41.8867 258.113 41.8 257.62 41.8C257.127 41.8 256.66 41.88 256.22 42.04C255.793 42.2 255.413 42.4333 255.08 42.74C254.76 43.0467 254.507 43.42 254.32 43.86C254.133 44.2867 254.04 44.7667 254.04 45.3C254.04 45.8333 254.133 46.32 254.32 46.76C254.52 47.1867 254.78 47.56 255.1 47.88C255.433 48.1867 255.813 48.4267 256.24 48.6C256.68 48.76 257.14 48.84 257.62 48.84C258.113 48.84 258.587 48.76 259.04 48.6C259.493 48.4267 259.893 48.1867 260.24 47.88C260.6 47.5733 260.887 47.2067 261.1 46.78C261.313 46.34 261.42 45.8533 261.42 45.32ZM267.881 45.08V51H266.341V40.66H267.881V42.46C268.228 41.9 268.681 41.4267 269.241 41.04C269.801 40.64 270.528 40.44 271.421 40.44C272.048 40.44 272.601 40.54 273.081 40.74C273.574 40.94 273.988 41.2267 274.321 41.6C274.668 41.96 274.928 42.3933 275.101 42.9C275.288 43.4067 275.381 43.9667 275.381 44.58V51H273.841V44.96C273.841 44 273.594 43.24 273.101 42.68C272.608 42.12 271.901 41.84 270.981 41.84C270.541 41.84 270.128 41.92 269.741 42.08C269.368 42.2267 269.041 42.4467 268.761 42.74C268.481 43.02 268.261 43.36 268.101 43.76C267.954 44.16 267.881 44.6 267.881 45.08ZM280.465 38.4H278.705V36.7H280.465V38.4ZM280.345 51H278.805V40.66H280.345V51ZM291.019 48.1C291.019 48.5933 290.919 49.0333 290.719 49.42C290.533 49.7933 290.273 50.1133 289.939 50.38C289.619 50.6467 289.233 50.8533 288.779 51C288.339 51.1333 287.859 51.2 287.339 51.2C286.593 51.2 285.839 51.0667 285.079 50.8C284.319 50.52 283.646 50.1467 283.059 49.68L283.839 48.58C284.399 49.0067 284.979 49.3333 285.579 49.56C286.193 49.7867 286.806 49.9 287.419 49.9C288.046 49.9 288.559 49.7533 288.959 49.46C289.359 49.1667 289.559 48.7667 289.559 48.26V48.22C289.559 47.9667 289.486 47.7467 289.339 47.56C289.206 47.3733 289.019 47.2133 288.779 47.08C288.539 46.9333 288.259 46.8067 287.939 46.7C287.633 46.5933 287.313 46.4933 286.979 46.4C286.579 46.28 286.173 46.1533 285.759 46.02C285.359 45.8733 284.993 45.6933 284.659 45.48C284.339 45.2667 284.073 45 283.859 44.68C283.659 44.36 283.559 43.96 283.559 43.48V43.44C283.559 43 283.646 42.6 283.819 42.24C283.993 41.8667 284.233 41.5533 284.539 41.3C284.859 41.0333 285.233 40.8333 285.659 40.7C286.099 40.5533 286.573 40.48 287.079 40.48C287.719 40.48 288.366 40.5867 289.019 40.8C289.673 41 290.266 41.2733 290.799 41.62L290.099 42.78C289.619 42.4733 289.113 42.2333 288.579 42.06C288.059 41.8733 287.546 41.78 287.039 41.78C286.426 41.78 285.939 41.9267 285.579 42.22C285.219 42.5 285.039 42.8533 285.039 43.28V43.32C285.039 43.56 285.113 43.7733 285.259 43.96C285.406 44.1333 285.599 44.2867 285.839 44.42C286.093 44.5533 286.379 44.6733 286.699 44.78C287.019 44.8867 287.353 44.9933 287.699 45.1C288.099 45.22 288.493 45.3533 288.879 45.5C289.279 45.6467 289.639 45.8333 289.959 46.06C290.279 46.2867 290.533 46.56 290.719 46.88C290.919 47.2 291.019 47.5933 291.019 48.06V48.1ZM294.8 46.4C294.853 46.96 294.987 47.46 295.2 47.9C295.413 48.3267 295.687 48.6933 296.02 49C296.353 49.2933 296.727 49.52 297.14 49.68C297.553 49.8267 297.987 49.9 298.44 49.9C299.16 49.9 299.773 49.7667 300.28 49.5C300.8 49.2333 301.273 48.88 301.7 48.44L302.66 49.3C302.14 49.8867 301.547 50.36 300.88 50.72C300.213 51.0667 299.387 51.24 298.4 51.24C297.693 51.24 297.027 51.1133 296.4 50.86C295.773 50.5933 295.227 50.2267 294.76 49.76C294.293 49.28 293.92 48.7067 293.64 48.04C293.373 47.3733 293.24 46.64 293.24 45.84C293.24 45.0933 293.36 44.3933 293.6 43.74C293.853 43.0733 294.2 42.5 294.64 42.02C295.08 41.5267 295.6 41.14 296.2 40.86C296.813 40.58 297.48 40.44 298.2 40.44C298.96 40.44 299.64 40.5867 300.24 40.88C300.84 41.16 301.347 41.5467 301.76 42.04C302.173 42.5333 302.487 43.1133 302.7 43.78C302.913 44.4467 303.02 45.16 303.02 45.92C303.02 45.9867 303.02 46.06 303.02 46.14C303.02 46.22 303.013 46.3067 303 46.4H294.8ZM294.8 45.26H301.46C301.42 44.7933 301.32 44.3467 301.16 43.92C301.013 43.4933 300.8 43.12 300.52 42.8C300.253 42.48 299.92 42.2267 299.52 42.04C299.133 41.84 298.68 41.74 298.16 41.74C297.707 41.74 297.287 41.8333 296.9 42.02C296.513 42.1933 296.173 42.44 295.88 42.76C295.587 43.0667 295.347 43.4333 295.16 43.86C294.973 44.2867 294.853 44.7533 294.8 45.26ZM315.556 51H314.016V48.92C313.803 49.2267 313.563 49.52 313.296 49.8C313.043 50.08 312.756 50.3267 312.436 50.54C312.116 50.7533 311.756 50.92 311.356 51.04C310.969 51.16 310.536 51.22 310.056 51.22C309.429 51.22 308.823 51.1 308.236 50.86C307.649 50.62 307.123 50.2733 306.656 49.82C306.189 49.3533 305.816 48.7867 305.536 48.12C305.256 47.4533 305.116 46.6933 305.116 45.84C305.116 44.9867 305.256 44.2267 305.536 43.56C305.816 42.8933 306.189 42.3333 306.656 41.88C307.123 41.4133 307.649 41.06 308.236 40.82C308.823 40.5667 309.429 40.44 310.056 40.44C310.536 40.44 310.976 40.5 311.376 40.62C311.776 40.74 312.136 40.9 312.456 41.1C312.776 41.3 313.063 41.5333 313.316 41.8C313.583 42.0667 313.816 42.3467 314.016 42.64V36.4H315.556V51ZM314.076 45.82C314.076 45.22 313.969 44.6733 313.756 44.18C313.556 43.6867 313.276 43.2667 312.916 42.92C312.569 42.5733 312.169 42.3067 311.716 42.12C311.276 41.92 310.816 41.82 310.336 41.82C309.829 41.82 309.356 41.9133 308.916 42.1C308.476 42.2733 308.089 42.5333 307.756 42.88C307.436 43.2133 307.176 43.6333 306.976 44.14C306.789 44.6333 306.696 45.1933 306.696 45.82C306.696 46.4333 306.789 46.9867 306.976 47.48C307.176 47.9733 307.443 48.4 307.776 48.76C308.109 49.1067 308.496 49.3733 308.936 49.56C309.376 49.7467 309.843 49.84 310.336 49.84C310.816 49.84 311.276 49.7467 311.716 49.56C312.169 49.36 312.569 49.0867 312.916 48.74C313.276 48.3933 313.556 47.9733 313.756 47.48C313.969 46.9733 314.076 46.42 314.076 45.82ZM328.733 41.88C328.12 41.88 327.56 41.9533 327.053 42.1C326.56 42.2333 326.073 42.4133 325.593 42.64L325.133 41.38C325.707 41.1133 326.287 40.9067 326.873 40.76C327.46 40.6 328.133 40.52 328.893 40.52C330.307 40.52 331.393 40.8733 332.153 41.58C332.913 42.2733 333.293 43.3067 333.293 44.68V51H331.813V49.44C331.453 49.9067 330.967 50.32 330.353 50.68C329.753 51.04 328.993 51.22 328.073 51.22C327.593 51.22 327.12 51.1533 326.653 51.02C326.2 50.8867 325.787 50.6867 325.413 50.42C325.053 50.14 324.76 49.8 324.533 49.4C324.32 49 324.213 48.5267 324.213 47.98C324.213 47.4333 324.32 46.9533 324.533 46.54C324.747 46.1133 325.047 45.76 325.433 45.48C325.833 45.2 326.3 44.9867 326.833 44.84C327.38 44.6933 327.98 44.62 328.633 44.62C329.3 44.62 329.88 44.66 330.373 44.74C330.867 44.82 331.347 44.9267 331.813 45.06V44.7C331.813 43.7667 331.54 43.0667 330.993 42.6C330.46 42.12 329.707 41.88 328.733 41.88ZM328.793 45.76C327.82 45.76 327.073 45.9533 326.553 46.34C326.033 46.7267 325.773 47.2533 325.773 47.92C325.773 48.2533 325.84 48.5467 325.973 48.8C326.12 49.0533 326.313 49.2733 326.553 49.46C326.793 49.6333 327.067 49.7667 327.373 49.86C327.693 49.9533 328.027 50 328.373 50C328.853 50 329.3 49.9333 329.713 49.8C330.14 49.6533 330.507 49.46 330.813 49.22C331.133 48.9667 331.38 48.6733 331.553 48.34C331.74 47.9933 331.833 47.6133 331.833 47.2V46.2C331.447 46.0933 331 45.9933 330.493 45.9C330 45.8067 329.433 45.76 328.793 45.76ZM343.675 48.1C343.675 48.5933 343.575 49.0333 343.375 49.42C343.189 49.7933 342.929 50.1133 342.595 50.38C342.275 50.6467 341.889 50.8533 341.435 51C340.995 51.1333 340.515 51.2 339.995 51.2C339.249 51.2 338.495 51.0667 337.735 50.8C336.975 50.52 336.302 50.1467 335.715 49.68L336.495 48.58C337.055 49.0067 337.635 49.3333 338.235 49.56C338.849 49.7867 339.462 49.9 340.075 49.9C340.702 49.9 341.215 49.7533 341.615 49.46C342.015 49.1667 342.215 48.7667 342.215 48.26V48.22C342.215 47.9667 342.142 47.7467 341.995 47.56C341.862 47.3733 341.675 47.2133 341.435 47.08C341.195 46.9333 340.915 46.8067 340.595 46.7C340.289 46.5933 339.969 46.4933 339.635 46.4C339.235 46.28 338.829 46.1533 338.415 46.02C338.015 45.8733 337.649 45.6933 337.315 45.48C336.995 45.2667 336.729 45 336.515 44.68C336.315 44.36 336.215 43.96 336.215 43.48V43.44C336.215 43 336.302 42.6 336.475 42.24C336.649 41.8667 336.889 41.5533 337.195 41.3C337.515 41.0333 337.889 40.8333 338.315 40.7C338.755 40.5533 339.229 40.48 339.735 40.48C340.375 40.48 341.022 40.5867 341.675 40.8C342.329 41 342.922 41.2733 343.455 41.62L342.755 42.78C342.275 42.4733 341.769 42.2333 341.235 42.06C340.715 41.8733 340.202 41.78 339.695 41.78C339.082 41.78 338.595 41.9267 338.235 42.22C337.875 42.5 337.695 42.8533 337.695 43.28V43.32C337.695 43.56 337.769 43.7733 337.915 43.96C338.062 44.1333 338.255 44.2867 338.495 44.42C338.749 44.5533 339.035 44.6733 339.355 44.78C339.675 44.8867 340.009 44.9933 340.355 45.1C340.755 45.22 341.149 45.3533 341.535 45.5C341.935 45.6467 342.295 45.8333 342.615 46.06C342.935 46.2867 343.189 46.56 343.375 46.88C343.575 47.2 343.675 47.5933 343.675 48.06V48.1Z" fill="#3E3E3E"/>
<path d="M101.163 71.74C99.0427 71.96 98.0627 72.95 98.2227 74.71H100.083V79.51H95.2227V75.46C95.2227 73.48 95.7027 72.06 96.6627 71.2C97.6227 70.34 98.9927 69.89 100.773 69.85L101.163 71.74ZM120.517 74.26H114.127V91H109.507V74.26H103.117V70H120.517V74.26ZM141.83 91H137.21V82.57H128.69V91H124.07V70H128.69V78.31H137.21V70H141.83V91ZM162.853 91H146.863V70H162.703V74.11H151.453V78.37H161.353V82.48H151.453V86.89H162.853V91ZM191.945 91H175.955V70H191.795V74.11H180.545V78.37H190.445V82.48H180.545V86.89H191.945V91ZM214.502 87.61C213.962 88.19 213.402 88.71 212.822 89.17C212.242 89.63 211.602 90.03 210.902 90.37C210.222 90.69 209.472 90.93 208.652 91.09C207.832 91.27 206.912 91.36 205.892 91.36C204.352 91.36 202.922 91.08 201.602 90.52C200.282 89.96 199.142 89.2 198.182 88.24C197.222 87.26 196.472 86.11 195.932 84.79C195.392 83.47 195.122 82.06 195.122 80.56V80.5C195.122 79 195.392 77.6 195.932 76.3C196.472 74.98 197.222 73.83 198.182 72.85C199.142 71.85 200.292 71.07 201.632 70.51C202.972 69.93 204.452 69.64 206.072 69.64C207.052 69.64 207.942 69.72 208.742 69.88C209.562 70.04 210.302 70.26 210.962 70.54C211.622 70.82 212.232 71.16 212.792 71.56C213.352 71.96 213.872 72.4 214.352 72.88L211.412 76.27C210.592 75.53 209.752 74.95 208.892 74.53C208.052 74.11 207.102 73.9 206.042 73.9C205.162 73.9 204.342 74.07 203.582 74.41C202.842 74.75 202.202 75.22 201.662 75.82C201.122 76.42 200.702 77.12 200.402 77.92C200.102 78.7 199.952 79.54 199.952 80.44V80.5C199.952 81.4 200.102 82.25 200.402 83.05C200.702 83.85 201.112 84.55 201.632 85.15C202.172 85.75 202.812 86.23 203.552 86.59C204.312 86.93 205.142 87.1 206.042 87.1C207.242 87.1 208.252 86.88 209.072 86.44C209.912 86 210.742 85.4 211.562 84.64L214.502 87.61ZM239.591 80.5C239.591 82 239.311 83.41 238.751 84.73C238.191 86.03 237.411 87.18 236.411 88.18C235.431 89.16 234.251 89.94 232.871 90.52C231.511 91.08 230.021 91.36 228.401 91.36C226.781 91.36 225.291 91.08 223.931 90.52C222.571 89.94 221.391 89.17 220.391 88.21C219.411 87.23 218.641 86.09 218.081 84.79C217.541 83.47 217.271 82.06 217.271 80.56V80.5C217.271 79 217.551 77.6 218.111 76.3C218.671 74.98 219.441 73.83 220.421 72.85C221.421 71.85 222.601 71.07 223.961 70.51C225.341 69.93 226.841 69.64 228.461 69.64C230.081 69.64 231.571 69.93 232.931 70.51C234.291 71.07 235.461 71.84 236.441 72.82C237.441 73.78 238.211 74.92 238.751 76.24C239.311 77.54 239.591 78.94 239.591 80.44V80.5ZM234.761 80.56V80.5C234.761 79.6 234.601 78.75 234.281 77.95C233.981 77.15 233.541 76.45 232.961 75.85C232.401 75.25 231.731 74.78 230.951 74.44C230.171 74.08 229.321 73.9 228.401 73.9C227.461 73.9 226.601 74.07 225.821 74.41C225.061 74.75 224.401 75.22 223.841 75.82C223.301 76.42 222.871 77.12 222.551 77.92C222.251 78.7 222.101 79.54 222.101 80.44V80.5C222.101 81.4 222.251 82.25 222.551 83.05C222.871 83.85 223.311 84.55 223.871 85.15C224.451 85.75 225.121 86.23 225.881 86.59C226.661 86.93 227.521 87.1 228.461 87.1C229.381 87.1 230.231 86.93 231.011 86.59C231.791 86.25 232.451 85.78 232.991 85.18C233.551 84.58 233.981 83.89 234.281 83.11C234.601 82.31 234.761 81.46 234.761 80.56ZM262.349 91H258.419L248.249 77.65V91H243.689V70H247.949L257.789 82.93V70H262.349V91ZM288.78 80.5C288.78 82 288.5 83.41 287.94 84.73C287.38 86.03 286.6 87.18 285.6 88.18C284.62 89.16 283.44 89.94 282.06 90.52C280.7 91.08 279.21 91.36 277.59 91.36C275.97 91.36 274.48 91.08 273.12 90.52C271.76 89.94 270.58 89.17 269.58 88.21C268.6 87.23 267.83 86.09 267.27 84.79C266.73 83.47 266.46 82.06 266.46 80.56V80.5C266.46 79 266.74 77.6 267.3 76.3C267.86 74.98 268.63 73.83 269.61 72.85C270.61 71.85 271.79 71.07 273.15 70.51C274.53 69.93 276.03 69.64 277.65 69.64C279.27 69.64 280.76 69.93 282.12 70.51C283.48 71.07 284.65 71.84 285.63 72.82C286.63 73.78 287.4 74.92 287.94 76.24C288.5 77.54 288.78 78.94 288.78 80.44V80.5ZM283.95 80.56V80.5C283.95 79.6 283.79 78.75 283.47 77.95C283.17 77.15 282.73 76.45 282.15 75.85C281.59 75.25 280.92 74.78 280.14 74.44C279.36 74.08 278.51 73.9 277.59 73.9C276.65 73.9 275.79 74.07 275.01 74.41C274.25 74.75 273.59 75.22 273.03 75.82C272.49 76.42 272.06 77.12 271.74 77.92C271.44 78.7 271.29 79.54 271.29 80.44V80.5C271.29 81.4 271.44 82.25 271.74 83.05C272.06 83.85 272.5 84.55 273.06 85.15C273.64 85.75 274.31 86.23 275.07 86.59C275.85 86.93 276.71 87.1 277.65 87.1C278.57 87.1 279.42 86.93 280.2 86.59C280.98 86.25 281.64 85.78 282.18 85.18C282.74 84.58 283.17 83.89 283.47 83.11C283.79 82.31 283.95 81.46 283.95 80.56ZM313.878 91H309.288V77.29L303.378 86.26H303.258L297.408 77.38V91H292.878V70H297.858L303.378 78.88L308.898 70H313.878V91ZM323.753 91H319.133V70H323.753V91ZM347.451 87.61C346.911 88.19 346.351 88.71 345.771 89.17C345.191 89.63 344.551 90.03 343.851 90.37C343.171 90.69 342.421 90.93 341.601 91.09C340.781 91.27 339.861 91.36 338.841 91.36C337.301 91.36 335.871 91.08 334.551 90.52C333.231 89.96 332.091 89.2 331.131 88.24C330.171 87.26 329.421 86.11 328.881 84.79C328.341 83.47 328.071 82.06 328.071 80.56V80.5C328.071 79 328.341 77.6 328.881 76.3C329.421 74.98 330.171 73.83 331.131 72.85C332.091 71.85 333.241 71.07 334.581 70.51C335.921 69.93 337.401 69.64 339.021 69.64C340.001 69.64 340.891 69.72 341.691 69.88C342.511 70.04 343.251 70.26 343.911 70.54C344.571 70.82 345.181 71.16 345.741 71.56C346.301 71.96 346.821 72.4 347.301 72.88L344.361 76.27C343.541 75.53 342.701 74.95 341.841 74.53C341.001 74.11 340.051 73.9 338.991 73.9C338.111 73.9 337.291 74.07 336.531 74.41C335.791 74.75 335.151 75.22 334.611 75.82C334.071 76.42 333.651 77.12 333.351 77.92C333.051 78.7 332.901 79.54 332.901 80.44V80.5C332.901 81.4 333.051 82.25 333.351 83.05C333.651 83.85 334.061 84.55 334.581 85.15C335.121 85.75 335.761 86.23 336.501 86.59C337.261 86.93 338.091 87.1 338.991 87.1C340.191 87.1 341.201 86.88 342.021 86.44C342.861 86 343.691 85.4 344.511 84.64L347.451 87.61ZM376.044 74.26H369.654V91H365.034V74.26H358.644V70H376.044V74.26ZM384.427 91H379.807V70H384.427V91ZM410.675 91H406.085V77.29L400.175 86.26H400.055L394.205 77.38V91H389.675V70H394.655L400.175 78.88L405.695 70H410.675V91ZM431.71 91H415.72V70H431.56V74.11H420.31V78.37H430.21V82.48H420.31V86.89H431.71V91ZM450.998 84.79C450.998 85.83 450.808 86.76 450.428 87.58C450.048 88.38 449.518 89.06 448.838 89.62C448.158 90.16 447.348 90.58 446.408 90.88C445.468 91.16 444.428 91.3 443.288 91.3C441.688 91.3 440.118 91.03 438.578 90.49C437.038 89.93 435.638 89.08 434.378 87.94L437.108 84.67C438.068 85.45 439.048 86.07 440.048 86.53C441.068 86.99 442.178 87.22 443.378 87.22C444.338 87.22 445.078 87.05 445.598 86.71C446.138 86.35 446.408 85.86 446.408 85.24V85.18C446.408 84.88 446.348 84.62 446.228 84.4C446.128 84.16 445.918 83.94 445.598 83.74C445.298 83.54 444.868 83.34 444.308 83.14C443.768 82.94 443.058 82.73 442.178 82.51C441.118 82.25 440.158 81.96 439.298 81.64C438.438 81.32 437.708 80.93 437.108 80.47C436.508 79.99 436.038 79.4 435.698 78.7C435.378 78 435.218 77.13 435.218 76.09V76.03C435.218 75.07 435.398 74.21 435.758 73.45C436.118 72.67 436.618 72 437.258 71.44C437.918 70.88 438.698 70.45 439.598 70.15C440.498 69.85 441.488 69.7 442.568 69.7C444.108 69.7 445.518 69.93 446.798 70.39C448.098 70.85 449.288 71.51 450.368 72.37L447.968 75.85C447.028 75.21 446.108 74.71 445.208 74.35C444.308 73.97 443.408 73.78 442.508 73.78C441.608 73.78 440.928 73.96 440.468 74.32C440.028 74.66 439.808 75.09 439.808 75.61V75.67C439.808 76.01 439.868 76.31 439.988 76.57C440.128 76.81 440.368 77.03 440.708 77.23C441.048 77.43 441.508 77.62 442.088 77.8C442.688 77.98 443.438 78.19 444.338 78.43C445.398 78.71 446.338 79.03 447.158 79.39C447.998 79.73 448.698 80.15 449.258 80.65C449.838 81.13 450.268 81.7 450.548 82.36C450.848 83.02 450.998 83.81 450.998 84.73V84.79ZM179.694 124.79C179.694 125.83 179.504 126.76 179.124 127.58C178.744 128.38 178.214 129.06 177.534 129.62C176.854 130.16 176.044 130.58 175.104 130.88C174.164 131.16 173.124 131.3 171.984 131.3C170.384 131.3 168.814 131.03 167.274 130.49C165.734 129.93 164.334 129.08 163.074 127.94L165.804 124.67C166.764 125.45 167.744 126.07 168.744 126.53C169.764 126.99 170.874 127.22 172.074 127.22C173.034 127.22 173.774 127.05 174.294 126.71C174.834 126.35 175.104 125.86 175.104 125.24V125.18C175.104 124.88 175.044 124.62 174.924 124.4C174.824 124.16 174.614 123.94 174.294 123.74C173.994 123.54 173.564 123.34 173.004 123.14C172.464 122.94 171.754 122.73 170.874 122.51C169.814 122.25 168.854 121.96 167.994 121.64C167.134 121.32 166.404 120.93 165.804 120.47C165.204 119.99 164.734 119.4 164.394 118.7C164.074 118 163.914 117.13 163.914 116.09V116.03C163.914 115.07 164.094 114.21 164.454 113.45C164.814 112.67 165.314 112 165.954 111.44C166.614 110.88 167.394 110.45 168.294 110.15C169.194 109.85 170.184 109.7 171.264 109.7C172.804 109.7 174.214 109.93 175.494 110.39C176.794 110.85 177.984 111.51 179.064 112.37L176.664 115.85C175.724 115.21 174.804 114.71 173.904 114.35C173.004 113.97 172.104 113.78 171.204 113.78C170.304 113.78 169.624 113.96 169.164 114.32C168.724 114.66 168.504 115.09 168.504 115.61V115.67C168.504 116.01 168.564 116.31 168.684 116.57C168.824 116.81 169.064 117.03 169.404 117.23C169.744 117.43 170.204 117.62 170.784 117.8C171.384 117.98 172.134 118.19 173.034 118.43C174.094 118.71 175.034 119.03 175.854 119.39C176.694 119.73 177.394 120.15 177.954 120.65C178.534 121.13 178.964 121.7 179.244 122.36C179.544 123.02 179.694 123.81 179.694 124.73V124.79ZM201.674 121.85C201.674 123.45 201.454 124.84 201.014 126.02C200.594 127.2 199.984 128.19 199.184 128.99C198.384 129.77 197.414 130.36 196.274 130.76C195.134 131.14 193.864 131.33 192.464 131.33C189.644 131.33 187.424 130.55 185.804 128.99C184.184 127.43 183.374 125.1 183.374 122V110H187.994V121.88C187.994 123.6 188.394 124.9 189.194 125.78C189.994 126.64 191.104 127.07 192.524 127.07C193.944 127.07 195.054 126.65 195.854 125.81C196.654 124.97 197.054 123.71 197.054 122.03V110H201.674V121.85ZM221.559 124.79C221.559 125.83 221.369 126.76 220.989 127.58C220.609 128.38 220.079 129.06 219.399 129.62C218.719 130.16 217.909 130.58 216.969 130.88C216.029 131.16 214.989 131.3 213.849 131.3C212.249 131.3 210.679 131.03 209.139 130.49C207.599 129.93 206.199 129.08 204.939 127.94L207.669 124.67C208.629 125.45 209.609 126.07 210.609 126.53C211.629 126.99 212.739 127.22 213.939 127.22C214.899 127.22 215.639 127.05 216.159 126.71C216.699 126.35 216.969 125.86 216.969 125.24V125.18C216.969 124.88 216.909 124.62 216.789 124.4C216.689 124.16 216.479 123.94 216.159 123.74C215.859 123.54 215.429 123.34 214.869 123.14C214.329 122.94 213.619 122.73 212.739 122.51C211.679 122.25 210.719 121.96 209.859 121.64C208.999 121.32 208.269 120.93 207.669 120.47C207.069 119.99 206.599 119.4 206.259 118.7C205.939 118 205.779 117.13 205.779 116.09V116.03C205.779 115.07 205.959 114.21 206.319 113.45C206.679 112.67 207.179 112 207.819 111.44C208.479 110.88 209.259 110.45 210.159 110.15C211.059 109.85 212.049 109.7 213.129 109.7C214.669 109.7 216.079 109.93 217.359 110.39C218.659 110.85 219.849 111.51 220.929 112.37L218.529 115.85C217.589 115.21 216.669 114.71 215.769 114.35C214.869 113.97 213.969 113.78 213.069 113.78C212.169 113.78 211.489 113.96 211.029 114.32C210.589 114.66 210.369 115.09 210.369 115.61V115.67C210.369 116.01 210.429 116.31 210.549 116.57C210.689 116.81 210.929 117.03 211.269 117.23C211.609 117.43 212.069 117.62 212.649 117.8C213.249 117.98 213.999 118.19 214.899 118.43C215.959 118.71 216.899 119.03 217.719 119.39C218.559 119.73 219.259 120.15 219.819 120.65C220.399 121.13 220.829 121.7 221.109 122.36C221.409 123.02 221.559 123.81 221.559 124.73V124.79ZM241.469 114.26H235.079V131H230.459V114.26H224.069V110H241.469V114.26ZM265.482 131H260.652L258.732 126.29H249.852L247.932 131H243.222L252.222 109.85H256.482L265.482 131ZM257.082 122.21L254.292 115.4L251.502 122.21H257.082ZM273.553 131H268.933V110H273.553V131ZM297.461 131H293.531L283.361 117.65V131H278.801V110H283.061L292.901 122.93V110H297.461V131ZM322.962 131H318.132L316.212 126.29H307.332L305.412 131H300.702L309.702 109.85H313.962L322.962 131ZM314.562 122.21L311.772 115.4L308.982 122.21H314.562ZM344.054 125.24C344.054 126.2 343.864 127.04 343.484 127.76C343.124 128.48 342.594 129.08 341.894 129.56C341.214 130.04 340.384 130.4 339.404 130.64C338.444 130.88 337.374 131 336.194 131H326.204V110H335.954C338.114 110 339.804 110.49 341.024 111.47C342.264 112.45 342.884 113.77 342.884 115.43V115.49C342.884 116.09 342.804 116.62 342.644 117.08C342.504 117.54 342.304 117.96 342.044 118.34C341.804 118.7 341.514 119.02 341.174 119.3C340.854 119.58 340.504 119.82 340.124 120.02C341.344 120.48 342.304 121.11 343.004 121.91C343.704 122.69 344.054 123.78 344.054 125.18V125.24ZM338.294 116.27V116.21C338.294 115.51 338.034 114.98 337.514 114.62C336.994 114.24 336.244 114.05 335.264 114.05H330.704V118.49H334.964C335.984 118.49 336.794 118.32 337.394 117.98C337.994 117.62 338.294 117.05 338.294 116.27ZM339.464 124.67V124.61C339.464 123.91 339.194 123.36 338.654 122.96C338.114 122.54 337.244 122.33 336.044 122.33H330.704V126.95H336.194C337.214 126.95 338.014 126.77 338.594 126.41C339.174 126.03 339.464 125.45 339.464 124.67ZM362.944 131H347.854V110H352.474V126.8H362.944V131ZM382.418 131H366.428V110H382.268V114.11H371.018V118.37H380.918V122.48H371.018V126.89H382.418V131ZM114.669 160.5C114.669 162 114.389 163.41 113.829 164.73C113.269 166.03 112.489 167.18 111.489 168.18C110.509 169.16 109.329 169.94 107.949 170.52C106.589 171.08 105.099 171.36 103.479 171.36C101.859 171.36 100.369 171.08 99.0088 170.52C97.6488 169.94 96.4688 169.17 95.4688 168.21C94.4888 167.23 93.7188 166.09 93.1588 164.79C92.6188 163.47 92.3488 162.06 92.3488 160.56V160.5C92.3488 159 92.6288 157.6 93.1888 156.3C93.7488 154.98 94.5188 153.83 95.4988 152.85C96.4988 151.85 97.6788 151.07 99.0388 150.51C100.419 149.93 101.919 149.64 103.539 149.64C105.159 149.64 106.649 149.93 108.009 150.51C109.369 151.07 110.539 151.84 111.519 152.82C112.519 153.78 113.289 154.92 113.829 156.24C114.389 157.54 114.669 158.94 114.669 160.44V160.5ZM109.839 160.56V160.5C109.839 159.6 109.679 158.75 109.359 157.95C109.059 157.15 108.619 156.45 108.039 155.85C107.479 155.25 106.809 154.78 106.029 154.44C105.249 154.08 104.399 153.9 103.479 153.9C102.539 153.9 101.679 154.07 100.899 154.41C100.139 154.75 99.4788 155.22 98.9188 155.82C98.3788 156.42 97.9488 157.12 97.6288 157.92C97.3288 158.7 97.1788 159.54 97.1788 160.44V160.5C97.1788 161.4 97.3288 162.25 97.6288 163.05C97.9488 163.85 98.3888 164.55 98.9488 165.15C99.5288 165.75 100.199 166.23 100.959 166.59C101.739 166.93 102.599 167.1 103.539 167.1C104.459 167.1 105.309 166.93 106.089 166.59C106.869 166.25 107.529 165.78 108.069 165.18C108.629 164.58 109.059 163.89 109.359 163.11C109.679 162.31 109.839 161.46 109.839 160.56ZM136.917 171H131.517L127.017 164.28H123.387V171H118.767V150H128.367C130.867 150 132.807 150.61 134.187 151.83C135.587 153.05 136.287 154.75 136.287 156.93V156.99C136.287 158.69 135.867 160.08 135.027 161.16C134.207 162.22 133.127 163 131.787 163.5L136.917 171ZM131.607 157.23V157.17C131.607 156.17 131.287 155.42 130.647 154.92C130.007 154.42 129.117 154.17 127.977 154.17H123.387V160.2H128.067C129.207 160.2 130.077 159.93 130.677 159.39C131.297 158.85 131.607 158.13 131.607 157.23ZM159.527 168.03C158.447 168.95 157.157 169.74 155.657 170.4C154.177 171.04 152.477 171.36 150.557 171.36C148.917 171.36 147.417 171.09 146.057 170.55C144.717 170.01 143.557 169.26 142.577 168.3C141.617 167.34 140.867 166.2 140.327 164.88C139.787 163.56 139.517 162.12 139.517 160.56V160.5C139.517 159 139.787 157.6 140.327 156.3C140.887 154.98 141.657 153.83 142.637 152.85C143.617 151.85 144.777 151.07 146.117 150.51C147.457 149.93 148.927 149.64 150.527 149.64C151.467 149.64 152.317 149.71 153.077 149.85C153.857 149.97 154.577 150.15 155.237 150.39C155.897 150.63 156.517 150.93 157.097 151.29C157.677 151.65 158.237 152.06 158.777 152.52L155.867 156.03C155.467 155.69 155.067 155.39 154.667 155.13C154.267 154.87 153.847 154.65 153.407 154.47C152.987 154.29 152.527 154.15 152.027 154.05C151.527 153.95 150.977 153.9 150.377 153.9C149.537 153.9 148.747 154.08 148.007 154.44C147.287 154.78 146.647 155.25 146.087 155.85C145.547 156.43 145.117 157.12 144.797 157.92C144.497 158.7 144.347 159.54 144.347 160.44V160.5C144.347 161.46 144.497 162.35 144.797 163.17C145.117 163.97 145.557 164.67 146.117 165.27C146.697 165.87 147.367 166.34 148.127 166.68C148.907 167 149.767 167.16 150.707 167.16C152.427 167.16 153.877 166.74 155.057 165.9V162.9H150.407V158.91H159.527V168.03ZM184.432 171H179.602L177.682 166.29H168.802L166.882 171H162.172L171.172 149.85H175.432L184.432 171ZM176.032 162.21L173.242 155.4L170.452 162.21H176.032ZM206.333 171H202.403L192.233 157.65V171H187.673V150H191.933L201.773 162.93V150H206.333V171ZM216.204 171H211.584V150H216.204V171ZM236.633 164.79C236.633 165.83 236.443 166.76 236.063 167.58C235.683 168.38 235.153 169.06 234.473 169.62C233.793 170.16 232.983 170.58 232.043 170.88C231.103 171.16 230.063 171.3 228.923 171.3C227.323 171.3 225.753 171.03 224.213 170.49C222.673 169.93 221.273 169.08 220.013 167.94L222.743 164.67C223.703 165.45 224.683 166.07 225.683 166.53C226.703 166.99 227.813 167.22 229.013 167.22C229.973 167.22 230.713 167.05 231.233 166.71C231.773 166.35 232.043 165.86 232.043 165.24V165.18C232.043 164.88 231.983 164.62 231.863 164.4C231.763 164.16 231.553 163.94 231.233 163.74C230.933 163.54 230.503 163.34 229.943 163.14C229.403 162.94 228.693 162.73 227.813 162.51C226.753 162.25 225.793 161.96 224.933 161.64C224.073 161.32 223.343 160.93 222.743 160.47C222.143 159.99 221.673 159.4 221.333 158.7C221.013 158 220.853 157.13 220.853 156.09V156.03C220.853 155.07 221.033 154.21 221.393 153.45C221.753 152.67 222.253 152 222.893 151.44C223.553 150.88 224.333 150.45 225.233 150.15C226.133 149.85 227.123 149.7 228.203 149.7C229.743 149.7 231.153 149.93 232.433 150.39C233.733 150.85 234.923 151.51 236.003 152.37L233.603 155.85C232.663 155.21 231.743 154.71 230.843 154.35C229.943 153.97 229.043 153.78 228.143 153.78C227.243 153.78 226.563 153.96 226.103 154.32C225.663 154.66 225.443 155.09 225.443 155.61V155.67C225.443 156.01 225.503 156.31 225.623 156.57C225.763 156.81 226.003 157.03 226.343 157.23C226.683 157.43 227.143 157.62 227.723 157.8C228.323 157.98 229.073 158.19 229.973 158.43C231.033 158.71 231.973 159.03 232.793 159.39C233.633 159.73 234.333 160.15 234.893 160.65C235.473 161.13 235.903 161.7 236.183 162.36C236.483 163.02 236.633 163.81 236.633 164.73V164.79ZM261.102 171H256.272L254.352 166.29H245.472L243.552 171H238.842L247.842 149.85H252.102L261.102 171ZM252.702 162.21L249.912 155.4L247.122 162.21H252.702ZM280.243 154.26H273.853V171H269.233V154.26H262.843V150H280.243V154.26ZM288.626 171H284.006V150H288.626V171ZM315.264 160.5C315.264 162 314.984 163.41 314.424 164.73C313.864 166.03 313.084 167.18 312.084 168.18C311.104 169.16 309.924 169.94 308.544 170.52C307.184 171.08 305.694 171.36 304.074 171.36C302.454 171.36 300.964 171.08 299.604 170.52C298.244 169.94 297.064 169.17 296.064 168.21C295.084 167.23 294.314 166.09 293.754 164.79C293.214 163.47 292.944 162.06 292.944 160.56V160.5C292.944 159 293.224 157.6 293.784 156.3C294.344 154.98 295.114 153.83 296.094 152.85C297.094 151.85 298.274 151.07 299.634 150.51C301.014 149.93 302.514 149.64 304.134 149.64C305.754 149.64 307.244 149.93 308.604 150.51C309.964 151.07 311.134 151.84 312.114 152.82C313.114 153.78 313.884 154.92 314.424 156.24C314.984 157.54 315.264 158.94 315.264 160.44V160.5ZM310.434 160.56V160.5C310.434 159.6 310.274 158.75 309.954 157.95C309.654 157.15 309.214 156.45 308.634 155.85C308.074 155.25 307.404 154.78 306.624 154.44C305.844 154.08 304.994 153.9 304.074 153.9C303.134 153.9 302.274 154.07 301.494 154.41C300.734 154.75 300.074 155.22 299.514 155.82C298.974 156.42 298.544 157.12 298.224 157.92C297.924 158.7 297.774 159.54 297.774 160.44V160.5C297.774 161.4 297.924 162.25 298.224 163.05C298.544 163.85 298.984 164.55 299.544 165.15C300.124 165.75 300.794 166.23 301.554 166.59C302.334 166.93 303.194 167.1 304.134 167.1C305.054 167.1 305.904 166.93 306.684 166.59C307.464 166.25 308.124 165.78 308.664 165.18C309.224 164.58 309.654 163.89 309.954 163.11C310.274 162.31 310.434 161.46 310.434 160.56ZM338.023 171H334.093L323.923 157.65V171H319.363V150H323.623L333.463 162.93V150H338.023V171ZM358.244 164.79C358.244 165.83 358.054 166.76 357.674 167.58C357.294 168.38 356.764 169.06 356.084 169.62C355.404 170.16 354.594 170.58 353.654 170.88C352.714 171.16 351.674 171.3 350.534 171.3C348.934 171.3 347.364 171.03 345.824 170.49C344.284 169.93 342.884 169.08 341.624 167.94L344.354 164.67C345.314 165.45 346.294 166.07 347.294 166.53C348.314 166.99 349.424 167.22 350.624 167.22C351.584 167.22 352.324 167.05 352.844 166.71C353.384 166.35 353.654 165.86 353.654 165.24V165.18C353.654 164.88 353.594 164.62 353.474 164.4C353.374 164.16 353.164 163.94 352.844 163.74C352.544 163.54 352.114 163.34 351.554 163.14C351.014 162.94 350.304 162.73 349.424 162.51C348.364 162.25 347.404 161.96 346.544 161.64C345.684 161.32 344.954 160.93 344.354 160.47C343.754 159.99 343.284 159.4 342.944 158.7C342.624 158 342.464 157.13 342.464 156.09V156.03C342.464 155.07 342.644 154.21 343.004 153.45C343.364 152.67 343.864 152 344.504 151.44C345.164 150.88 345.944 150.45 346.844 150.15C347.744 149.85 348.734 149.7 349.814 149.7C351.354 149.7 352.764 149.93 354.044 150.39C355.344 150.85 356.534 151.51 357.614 152.37L355.214 155.85C354.274 155.21 353.354 154.71 352.454 154.35C351.554 153.97 350.654 153.78 349.754 153.78C348.854 153.78 348.174 153.96 347.714 154.32C347.274 154.66 347.054 155.09 347.054 155.61V155.67C347.054 156.01 347.114 156.31 347.234 156.57C347.374 156.81 347.614 157.03 347.954 157.23C348.294 157.43 348.754 157.62 349.334 157.8C349.934 157.98 350.684 158.19 351.584 158.43C352.644 158.71 353.584 159.03 354.404 159.39C355.244 159.73 355.944 160.15 356.504 160.65C357.084 161.13 357.514 161.7 357.794 162.36C358.094 163.02 358.244 163.81 358.244 164.73V164.79ZM377.998 153.84C377.178 153.84 376.448 154.07 375.808 154.53C375.188 154.99 374.488 155.7 373.708 156.66L370.468 154.05C370.988 153.35 371.508 152.73 372.028 152.19C372.568 151.65 373.138 151.2 373.738 150.84C374.358 150.46 375.038 150.18 375.778 150C376.518 149.8 377.358 149.7 378.298 149.7C379.418 149.7 380.418 149.86 381.298 150.18C382.198 150.48 382.958 150.92 383.578 151.5C384.218 152.06 384.698 152.74 385.018 153.54C385.358 154.34 385.528 155.23 385.528 156.21C385.528 157.09 385.408 157.88 385.168 158.58C384.948 159.26 384.608 159.91 384.148 160.53C383.708 161.15 383.138 161.77 382.438 162.39C381.738 162.99 380.928 163.65 380.008 164.37L376.588 167.01H385.738V171H370.198V167.34L377.188 161.61C377.848 161.07 378.408 160.59 378.868 160.17C379.328 159.73 379.698 159.32 379.978 158.94C380.278 158.54 380.488 158.16 380.608 157.8C380.748 157.42 380.818 157.01 380.818 156.57C380.818 155.67 380.558 154.99 380.038 154.53C379.518 154.07 378.838 153.84 377.998 153.84ZM407.699 160.47C407.699 162.01 407.469 163.44 407.009 164.76C406.569 166.08 405.939 167.23 405.119 168.21C404.299 169.19 403.309 169.96 402.149 170.52C401.009 171.08 399.739 171.36 398.339 171.36C396.939 171.36 395.659 171.09 394.499 170.55C393.359 169.99 392.379 169.22 391.559 168.24C390.759 167.26 390.139 166.12 389.699 164.82C389.259 163.5 389.039 162.07 389.039 160.53C389.039 159.01 389.259 157.59 389.699 156.27C390.159 154.93 390.799 153.77 391.619 152.79C392.439 151.81 393.419 151.04 394.559 150.48C395.719 149.92 396.999 149.64 398.399 149.64C399.799 149.64 401.069 149.92 402.209 150.48C403.369 151.02 404.349 151.78 405.149 152.76C405.969 153.74 406.599 154.89 407.039 156.21C407.479 157.53 407.699 158.95 407.699 160.47ZM402.959 160.53C402.959 159.57 402.849 158.68 402.629 157.86C402.409 157.04 402.099 156.33 401.699 155.73C401.299 155.13 400.809 154.66 400.229 154.32C399.669 153.98 399.039 153.81 398.339 153.81C397.639 153.81 397.009 153.98 396.449 154.32C395.889 154.64 395.409 155.1 395.009 155.7C394.609 156.28 394.299 156.98 394.079 157.8C393.879 158.62 393.779 159.51 393.779 160.47C393.779 161.43 393.889 162.32 394.109 163.14C394.329 163.96 394.639 164.67 395.039 165.27C395.439 165.87 395.919 166.34 396.479 166.68C397.059 167.02 397.699 167.19 398.399 167.19C399.099 167.19 399.729 167.03 400.289 166.71C400.849 166.37 401.329 165.9 401.729 165.3C402.129 164.7 402.429 164 402.629 163.2C402.849 162.38 402.959 161.49 402.959 160.53ZM418.603 153.84C417.783 153.84 417.053 154.07 416.413 154.53C415.793 154.99 415.093 155.7 414.313 156.66L411.073 154.05C411.593 153.35 412.113 152.73 412.633 152.19C413.173 151.65 413.743 151.2 414.343 150.84C414.963 150.46 415.643 150.18 416.383 150C417.123 149.8 417.963 149.7 418.903 149.7C420.023 149.7 421.023 149.86 421.903 150.18C422.803 150.48 423.563 150.92 424.183 151.5C424.823 152.06 425.303 152.74 425.623 153.54C425.963 154.34 426.133 155.23 426.133 156.21C426.133 157.09 426.013 157.88 425.773 158.58C425.553 159.26 425.213 159.91 424.753 160.53C424.313 161.15 423.743 161.77 423.043 162.39C422.343 162.99 421.533 163.65 420.613 164.37L417.193 167.01H426.343V171H410.803V167.34L417.793 161.61C418.453 161.07 419.013 160.59 419.473 160.17C419.933 159.73 420.303 159.32 420.583 158.94C420.883 158.54 421.093 158.16 421.213 157.8C421.353 157.42 421.423 157.01 421.423 156.57C421.423 155.67 421.163 154.99 420.643 154.53C420.123 154.07 419.443 153.84 418.603 153.84ZM438.644 153.96H430.394V150H444.584V153.48L439.274 158.55C439.994 158.67 440.694 158.86 441.374 159.12C442.054 159.38 442.654 159.75 443.174 160.23C443.694 160.69 444.114 161.27 444.434 161.97C444.754 162.65 444.914 163.48 444.914 164.46C444.914 165.46 444.734 166.38 444.374 167.22C444.034 168.06 443.534 168.79 442.874 169.41C442.234 170.03 441.444 170.51 440.504 170.85C439.564 171.19 438.514 171.36 437.354 171.36C435.454 171.36 433.834 171.03 432.494 170.37C431.174 169.69 430.064 168.81 429.164 167.73L432.344 164.7C433.064 165.52 433.814 166.15 434.594 166.59C435.394 167.01 436.334 167.22 437.414 167.22C438.294 167.22 439.004 166.99 439.544 166.53C440.104 166.07 440.384 165.44 440.384 164.64C440.384 163.76 440.024 163.09 439.304 162.63C438.604 162.17 437.594 161.94 436.274 161.94H434.354L433.634 159L438.644 153.96ZM447.587 157.77C449.707 157.55 450.687 156.56 450.527 154.8H448.667V150H453.527V154.05C453.527 156.03 453.047 157.46 452.087 158.34C451.127 159.2 449.757 159.64 447.977 159.66L447.587 157.77Z" fill="#AD3088"/>
</svg>
