<svg width="547" height="195" viewBox="0 0 547 195" fill="none" xmlns="http://www.w3.org/2000/svg">
<g opacity="0.5">
<path d="M92.7379 194.582C92.6651 194.582 92.5892 194.576 92.5164 194.564C71.1571 191.187 53.6601 178.872 41.9155 158.953C34.2577 145.962 29.4761 130.343 28.0896 113.777C26.7274 97.5083 28.7116 81.4643 33.8269 67.3807C39.6886 51.2365 50.7384 36.5581 65.7809 24.9325C66.3998 24.4561 67.2888 24.5684 67.7651 25.1874C68.2445 25.8065 68.1292 26.6957 67.5103 27.1721C52.8925 38.4699 42.1643 52.7083 36.4847 68.3487C26.2935 96.4158 29.4549 132.248 44.3488 157.515C55.6504 176.684 72.4557 188.528 92.9533 191.769C93.7239 191.891 94.2519 192.616 94.1305 193.39C94.0213 194.088 93.4175 194.585 92.7349 194.585L92.7379 194.582Z" fill="#9BB7E0"/>
<path d="M71.1374 186.474C71.1374 186.474 84.5476 164.858 65.0148 134.13C64.2806 135.775 54.678 162.698 71.1374 186.474Z" fill="#3D86C6"/>
<path d="M58.3442 177.704C58.3442 177.704 33.7628 184.231 10.0703 156.583C11.8573 156.358 40.4072 155.026 58.3442 177.704Z" fill="#3D86C6"/>
<path d="M36.7477 146.432C36.7477 146.432 11.5201 143.207 0 108.664C1.73848 109.128 28.6834 118.663 36.7477 146.432Z" fill="#3D86C6"/>
<path d="M28.626 111.741C28.626 111.741 5.77099 100.576 5.96213 64.1641C7.45789 65.1655 29.9125 82.8512 28.626 111.741Z" fill="#3D86C6"/>
<path d="M32.2739 75.0311C32.2739 75.0311 13.2477 58.1496 23.1871 23.1211C24.3612 24.4867 41.2545 47.5436 32.2739 75.0311Z" fill="#3D86C6"/>
<path d="M44.0624 48.9027C44.0624 48.9027 33.3038 27.0262 53.9593 0C54.5115 1.63262 61.2955 28.1339 44.0624 48.9027Z" fill="#3D86C6"/>
<path d="M45.4895 162.804C45.4895 162.804 66.1965 144.014 55.89 106.266C54.5975 107.762 36.1873 132 45.4895 162.804Z" fill="#3D86C6"/>
<path d="M30.4766 120.696C30.4766 120.696 52.1878 108.381 53.0039 71.6686C51.4475 72.7307 30.5281 89.1237 30.4766 120.696Z" fill="#3D86C6"/>
<path d="M51.2119 45.7892C57.4346 41.2677 64.5948 38.1511 71.9826 36.0117C71.9674 37.5442 71.755 39.0736 71.3576 40.5545C70.863 42.3874 70.0803 44.1323 69.2216 45.8226C62.3406 59.3448 48.3569 72.1539 33.0898 75.1552C33.1384 73.4345 34.3004 71.1313 34.7798 69.444C37.5468 59.6908 42.9534 51.7917 51.2149 45.7892H51.2119Z" fill="#3D86C6"/>
<path d="M68.1913 22.0829C78.3339 13.8834 91.3345 9.29199 104.375 9.30717C104.687 13.4069 99.2866 17.1941 96.4559 19.3335C89.9753 24.2344 83.1579 27.5725 75.2331 29.7119C70.3545 31.0289 64.8721 32.088 59.8083 32.0789C59.6566 32.0789 59.4837 32.0667 59.3927 31.9484C59.2592 31.7785 59.3866 31.5326 59.514 31.3566C60.5153 29.9668 61.8108 28.8197 62.8636 27.4693C64.4382 25.4513 66.204 23.6912 68.1943 22.0829H68.1913Z" fill="#3D86C6"/>
</g>
<g opacity="0.5">
<path d="M453.647 194.582C452.965 194.582 452.361 194.084 452.252 193.386C452.13 192.616 452.655 191.89 453.429 191.766C473.924 188.525 490.732 176.681 502.034 157.511C516.93 132.245 520.092 96.4124 509.898 68.3453C504.218 52.7049 493.49 38.4665 478.872 27.1687C478.253 26.6892 478.141 25.8031 478.617 25.184C479.097 24.565 479.982 24.4527 480.601 24.9291C495.644 36.5547 506.694 51.2331 512.555 67.3772C517.671 81.4609 519.655 97.5049 518.293 113.773C516.906 130.336 512.128 145.958 504.467 158.95C492.722 178.869 475.225 191.183 453.866 194.561C453.79 194.573 453.717 194.579 453.644 194.579L453.647 194.582Z" fill="#9BB7E0"/>
<path d="M475.251 186.474C475.251 186.474 461.841 164.858 481.374 134.13C482.108 135.775 491.711 162.698 475.251 186.474Z" fill="#3D86C6"/>
<path d="M488.043 177.704C488.043 177.704 512.624 184.231 536.317 156.583C534.53 156.358 505.98 155.026 488.043 177.704Z" fill="#3D86C6"/>
<path d="M509.637 146.432C509.637 146.432 534.864 143.21 546.384 108.664C544.646 109.128 517.701 118.663 509.637 146.432Z" fill="#3D86C6"/>
<path d="M517.76 111.74C517.76 111.74 540.615 100.579 540.424 64.1636C538.928 65.165 516.474 82.8507 517.76 111.74Z" fill="#3D86C6"/>
<path d="M514.112 75.0306C514.112 75.0306 533.138 58.1491 523.199 23.1206C522.025 24.4862 505.132 47.5431 514.112 75.0306Z" fill="#3D86C6"/>
<path d="M502.324 48.9027C502.324 48.9027 513.083 27.0262 492.427 0C491.875 1.63262 485.091 28.1339 502.324 48.9027Z" fill="#3D86C6"/>
<path d="M500.898 162.804C500.898 162.804 480.191 144.014 490.497 106.266C491.79 107.762 510.2 132 500.898 162.804Z" fill="#3D86C6"/>
<path d="M515.914 120.696C515.914 120.696 494.203 108.381 493.387 71.6685C494.943 72.7306 515.863 89.1235 515.914 120.696Z" fill="#3D86C6"/>
<path d="M495.173 45.7892C488.95 41.2677 481.79 38.1511 474.402 36.0117C474.418 37.5442 474.63 39.0736 475.027 40.5545C475.522 42.3874 476.305 44.1323 477.163 45.8226C484.044 59.3448 498.028 72.1539 513.295 75.1552C513.247 73.4345 512.085 71.1313 511.605 69.444C508.838 59.6908 503.432 51.7917 495.17 45.7892H495.173Z" fill="#3D86C6"/>
<path d="M478.196 22.0829C468.054 13.8834 455.056 9.29199 442.013 9.30717C441.7 13.4069 447.101 17.1941 449.932 19.3335C456.412 24.2344 463.23 27.5725 471.154 29.7119C476.033 31.0289 481.516 32.088 486.579 32.0789C486.731 32.0789 486.904 32.0667 486.995 31.9484C487.128 31.7785 487.001 31.5326 486.874 31.3566C485.872 29.9668 484.577 28.8197 483.524 27.4693C481.949 25.4513 480.184 23.6912 478.193 22.0829H478.196Z" fill="#3D86C6"/>
</g>
<path d="M101.896 63.79C101.896 64.83 101.706 65.76 101.326 66.58C100.946 67.38 100.416 68.06 99.7363 68.62C99.0563 69.16 98.2463 69.58 97.3063 69.88C96.3663 70.16 95.3263 70.3 94.1863 70.3C92.5863 70.3 91.0163 70.03 89.4763 69.49C87.9363 68.93 86.5363 68.08 85.2763 66.94L88.0063 63.67C88.9663 64.45 89.9463 65.07 90.9463 65.53C91.9663 65.99 93.0763 66.22 94.2763 66.22C95.2363 66.22 95.9763 66.05 96.4963 65.71C97.0363 65.35 97.3063 64.86 97.3063 64.24V64.18C97.3063 63.88 97.2463 63.62 97.1263 63.4C97.0263 63.16 96.8163 62.94 96.4963 62.74C96.1963 62.54 95.7663 62.34 95.2063 62.14C94.6663 61.94 93.9563 61.73 93.0763 61.51C92.0163 61.25 91.0563 60.96 90.1963 60.64C89.3363 60.32 88.6063 59.93 88.0063 59.47C87.4063 58.99 86.9363 58.4 86.5963 57.7C86.2763 57 86.1163 56.13 86.1163 55.09V55.03C86.1163 54.07 86.2963 53.21 86.6563 52.45C87.0163 51.67 87.5163 51 88.1563 50.44C88.8163 49.88 89.5963 49.45 90.4963 49.15C91.3963 48.85 92.3863 48.7 93.4663 48.7C95.0063 48.7 96.4163 48.93 97.6963 49.39C98.9963 49.85 100.186 50.51 101.266 51.37L98.8663 54.85C97.9263 54.21 97.0063 53.71 96.1063 53.35C95.2063 52.97 94.3063 52.78 93.4063 52.78C92.5063 52.78 91.8263 52.96 91.3663 53.32C90.9263 53.66 90.7063 54.09 90.7063 54.61V54.67C90.7063 55.01 90.7663 55.31 90.8863 55.57C91.0263 55.81 91.2663 56.03 91.6063 56.23C91.9463 56.43 92.4063 56.62 92.9863 56.8C93.5863 56.98 94.3363 57.19 95.2363 57.43C96.2963 57.71 97.2363 58.03 98.0563 58.39C98.8963 58.73 99.5963 59.15 100.156 59.65C100.736 60.13 101.166 60.7 101.446 61.36C101.746 62.02 101.896 62.81 101.896 63.73V63.79ZM123.876 60.85C123.876 62.45 123.656 63.84 123.216 65.02C122.796 66.2 122.186 67.19 121.386 67.99C120.586 68.77 119.616 69.36 118.476 69.76C117.336 70.14 116.066 70.33 114.666 70.33C111.846 70.33 109.626 69.55 108.006 67.99C106.386 66.43 105.576 64.1 105.576 61V49H110.196V60.88C110.196 62.6 110.596 63.9 111.396 64.78C112.196 65.64 113.306 66.07 114.726 66.07C116.146 66.07 117.256 65.65 118.056 64.81C118.856 63.97 119.256 62.71 119.256 61.03V49H123.876V60.85ZM143.762 63.79C143.762 64.83 143.572 65.76 143.192 66.58C142.812 67.38 142.282 68.06 141.602 68.62C140.922 69.16 140.112 69.58 139.172 69.88C138.232 70.16 137.192 70.3 136.052 70.3C134.452 70.3 132.882 70.03 131.342 69.49C129.802 68.93 128.402 68.08 127.142 66.94L129.872 63.67C130.832 64.45 131.812 65.07 132.812 65.53C133.832 65.99 134.942 66.22 136.142 66.22C137.102 66.22 137.842 66.05 138.362 65.71C138.902 65.35 139.172 64.86 139.172 64.24V64.18C139.172 63.88 139.112 63.62 138.992 63.4C138.892 63.16 138.682 62.94 138.362 62.74C138.062 62.54 137.632 62.34 137.072 62.14C136.532 61.94 135.822 61.73 134.942 61.51C133.882 61.25 132.922 60.96 132.062 60.64C131.202 60.32 130.472 59.93 129.872 59.47C129.272 58.99 128.802 58.4 128.462 57.7C128.142 57 127.982 56.13 127.982 55.09V55.03C127.982 54.07 128.162 53.21 128.522 52.45C128.882 51.67 129.382 51 130.022 50.44C130.682 49.88 131.462 49.45 132.362 49.15C133.262 48.85 134.252 48.7 135.332 48.7C136.872 48.7 138.282 48.93 139.562 49.39C140.862 49.85 142.052 50.51 143.132 51.37L140.732 54.85C139.792 54.21 138.872 53.71 137.972 53.35C137.072 52.97 136.172 52.78 135.272 52.78C134.372 52.78 133.692 52.96 133.232 53.32C132.792 53.66 132.572 54.09 132.572 54.61V54.67C132.572 55.01 132.632 55.31 132.752 55.57C132.892 55.81 133.132 56.03 133.472 56.23C133.812 56.43 134.272 56.62 134.852 56.8C135.452 56.98 136.202 57.19 137.102 57.43C138.162 57.71 139.102 58.03 139.922 58.39C140.762 58.73 141.462 59.15 142.022 59.65C142.602 60.13 143.032 60.7 143.312 61.36C143.612 62.02 143.762 62.81 143.762 63.73V63.79ZM163.671 53.26H157.281V70H152.661V53.26H146.271V49H163.671V53.26ZM187.684 70H182.854L180.934 65.29H172.054L170.134 70H165.424L174.424 48.85H178.684L187.684 70ZM179.284 61.21L176.494 54.4L173.704 61.21H179.284ZM195.755 70H191.135V49H195.755V70ZM219.663 70H215.733L205.563 56.65V70H201.003V49H205.263L215.103 61.93V49H219.663V70ZM245.165 70H240.335L238.415 65.29H229.535L227.615 70H222.905L231.905 48.85H236.165L245.165 70ZM236.765 61.21L233.975 54.4L231.185 61.21H236.765ZM266.256 64.24C266.256 65.2 266.066 66.04 265.686 66.76C265.326 67.48 264.796 68.08 264.096 68.56C263.416 69.04 262.586 69.4 261.606 69.64C260.646 69.88 259.576 70 258.396 70H248.406V49H258.156C260.316 49 262.006 49.49 263.226 50.47C264.466 51.45 265.086 52.77 265.086 54.43V54.49C265.086 55.09 265.006 55.62 264.846 56.08C264.706 56.54 264.506 56.96 264.246 57.34C264.006 57.7 263.716 58.02 263.376 58.3C263.056 58.58 262.706 58.82 262.326 59.02C263.546 59.48 264.506 60.11 265.206 60.91C265.906 61.69 266.256 62.78 266.256 64.18V64.24ZM260.496 55.27V55.21C260.496 54.51 260.236 53.98 259.716 53.62C259.196 53.24 258.446 53.05 257.466 53.05H252.906V57.49H257.166C258.186 57.49 258.996 57.32 259.596 56.98C260.196 56.62 260.496 56.05 260.496 55.27ZM261.666 63.67V63.61C261.666 62.91 261.396 62.36 260.856 61.96C260.316 61.54 259.446 61.33 258.246 61.33H252.906V65.95H258.396C259.416 65.95 260.216 65.77 260.796 65.41C261.376 65.03 261.666 64.45 261.666 63.67ZM285.146 70H270.056V49H274.676V65.8H285.146V70ZM304.62 70H288.63V49H304.47V53.11H293.22V57.37H303.12V61.48H293.22V65.89H304.62V70ZM336.802 67.03C335.722 67.95 334.432 68.74 332.932 69.4C331.452 70.04 329.752 70.36 327.832 70.36C326.192 70.36 324.692 70.09 323.332 69.55C321.992 69.01 320.832 68.26 319.852 67.3C318.892 66.34 318.142 65.2 317.602 63.88C317.062 62.56 316.792 61.12 316.792 59.56V59.5C316.792 58 317.062 56.6 317.602 55.3C318.162 53.98 318.932 52.83 319.912 51.85C320.892 50.85 322.052 50.07 323.392 49.51C324.732 48.93 326.202 48.64 327.802 48.64C328.742 48.64 329.592 48.71 330.352 48.85C331.132 48.97 331.852 49.15 332.512 49.39C333.172 49.63 333.792 49.93 334.372 50.29C334.952 50.65 335.512 51.06 336.052 51.52L333.142 55.03C332.742 54.69 332.342 54.39 331.942 54.13C331.542 53.87 331.122 53.65 330.682 53.47C330.262 53.29 329.802 53.15 329.302 53.05C328.802 52.95 328.252 52.9 327.652 52.9C326.812 52.9 326.022 53.08 325.282 53.44C324.562 53.78 323.922 54.25 323.362 54.85C322.822 55.43 322.392 56.12 322.072 56.92C321.772 57.7 321.622 58.54 321.622 59.44V59.5C321.622 60.46 321.772 61.35 322.072 62.17C322.392 62.97 322.832 63.67 323.392 64.27C323.972 64.87 324.642 65.34 325.402 65.68C326.182 66 327.042 66.16 327.982 66.16C329.702 66.16 331.152 65.74 332.332 64.9V61.9H327.682V57.91H336.802V67.03ZM359.398 70H353.998L349.498 63.28H345.868V70H341.248V49H350.848C353.348 49 355.288 49.61 356.668 50.83C358.068 52.05 358.768 53.75 358.768 55.93V55.99C358.768 57.69 358.348 59.08 357.508 60.16C356.688 61.22 355.608 62 354.268 62.5L359.398 70ZM354.088 56.23V56.17C354.088 55.17 353.768 54.42 353.128 53.92C352.488 53.42 351.598 53.17 350.458 53.17H345.868V59.2H350.548C351.688 59.2 352.558 58.93 353.158 58.39C353.778 57.85 354.088 57.13 354.088 56.23ZM384.317 59.5C384.317 61 384.037 62.41 383.477 63.73C382.917 65.03 382.137 66.18 381.137 67.18C380.157 68.16 378.977 68.94 377.597 69.52C376.237 70.08 374.747 70.36 373.127 70.36C371.507 70.36 370.017 70.08 368.657 69.52C367.297 68.94 366.117 68.17 365.117 67.21C364.137 66.23 363.367 65.09 362.807 63.79C362.267 62.47 361.997 61.06 361.997 59.56V59.5C361.997 58 362.277 56.6 362.837 55.3C363.397 53.98 364.167 52.83 365.147 51.85C366.147 50.85 367.327 50.07 368.687 49.51C370.067 48.93 371.567 48.64 373.187 48.64C374.807 48.64 376.297 48.93 377.657 49.51C379.017 50.07 380.187 50.84 381.167 51.82C382.167 52.78 382.937 53.92 383.477 55.24C384.037 56.54 384.317 57.94 384.317 59.44V59.5ZM379.487 59.56V59.5C379.487 58.6 379.327 57.75 379.007 56.95C378.707 56.15 378.267 55.45 377.687 54.85C377.127 54.25 376.457 53.78 375.677 53.44C374.897 53.08 374.047 52.9 373.127 52.9C372.187 52.9 371.327 53.07 370.547 53.41C369.787 53.75 369.127 54.22 368.567 54.82C368.027 55.42 367.597 56.12 367.277 56.92C366.977 57.7 366.827 58.54 366.827 59.44V59.5C366.827 60.4 366.977 61.25 367.277 62.05C367.597 62.85 368.037 63.55 368.597 64.15C369.177 64.75 369.847 65.23 370.607 65.59C371.387 65.93 372.247 66.1 373.187 66.1C374.107 66.1 374.957 65.93 375.737 65.59C376.517 65.25 377.177 64.78 377.717 64.18C378.277 63.58 378.707 62.89 379.007 62.11C379.327 61.31 379.487 60.46 379.487 59.56ZM418.656 49L411.486 70.15H407.466L402.726 56.41L397.986 70.15H393.966L386.796 49H391.746L396.096 63.22L400.806 48.94H404.766L409.476 63.22L413.826 49H418.656ZM437.978 53.26H431.588V70H426.968V53.26H420.578V49H437.978V53.26ZM459.291 70H454.671V61.57H446.151V70H441.531V49H446.151V57.31H454.671V49H459.291V70Z" fill="#AD3088"/>
<path d="M109.492 83.9L115.872 98H114.172L112.532 94.3H104.912L103.252 98H101.632L108.012 83.9H109.492ZM111.912 92.88L108.732 85.74L105.532 92.88H111.912ZM124.955 87.62L127.755 95.96L130.475 87.66H132.075L128.435 98.08H127.095L124.315 89.92L121.515 98.08H120.155L116.535 87.66H118.175L120.895 95.96L123.675 87.62H124.955ZM137.991 88.88C137.378 88.88 136.818 88.9533 136.311 89.1C135.818 89.2333 135.331 89.4133 134.851 89.64L134.391 88.38C134.965 88.1133 135.545 87.9067 136.131 87.76C136.718 87.6 137.391 87.52 138.151 87.52C139.565 87.52 140.651 87.8733 141.411 88.58C142.171 89.2733 142.551 90.3067 142.551 91.68V98H141.071V96.44C140.711 96.9067 140.225 97.32 139.611 97.68C139.011 98.04 138.251 98.22 137.331 98.22C136.851 98.22 136.378 98.1533 135.911 98.02C135.458 97.8867 135.045 97.6867 134.671 97.42C134.311 97.14 134.018 96.8 133.791 96.4C133.578 96 133.471 95.5267 133.471 94.98C133.471 94.4333 133.578 93.9533 133.791 93.54C134.005 93.1133 134.305 92.76 134.691 92.48C135.091 92.2 135.558 91.9867 136.091 91.84C136.638 91.6933 137.238 91.62 137.891 91.62C138.558 91.62 139.138 91.66 139.631 91.74C140.125 91.82 140.605 91.9267 141.071 92.06V91.7C141.071 90.7667 140.798 90.0667 140.251 89.6C139.718 89.12 138.965 88.88 137.991 88.88ZM138.051 92.76C137.078 92.76 136.331 92.9533 135.811 93.34C135.291 93.7267 135.031 94.2533 135.031 94.92C135.031 95.2533 135.098 95.5467 135.231 95.8C135.378 96.0533 135.571 96.2733 135.811 96.46C136.051 96.6333 136.325 96.7667 136.631 96.86C136.951 96.9533 137.285 97 137.631 97C138.111 97 138.558 96.9333 138.971 96.8C139.398 96.6533 139.765 96.46 140.071 96.22C140.391 95.9667 140.638 95.6733 140.811 95.34C140.998 94.9933 141.091 94.6133 141.091 94.2V93.2C140.705 93.0933 140.258 92.9933 139.751 92.9C139.258 92.8067 138.691 92.76 138.051 92.76ZM147.373 93.88V98H145.833V87.66H147.373V90.36C147.56 89.9333 147.793 89.54 148.073 89.18C148.353 88.82 148.673 88.5133 149.033 88.26C149.393 87.9933 149.787 87.7933 150.213 87.66C150.64 87.5267 151.1 87.4667 151.593 87.48V89.14H151.473C150.913 89.14 150.38 89.24 149.873 89.44C149.38 89.64 148.947 89.94 148.573 90.34C148.2 90.74 147.907 91.24 147.693 91.84C147.48 92.4267 147.373 93.1067 147.373 93.88ZM163.349 98H161.809V95.92C161.596 96.2267 161.356 96.52 161.089 96.8C160.836 97.08 160.549 97.3267 160.229 97.54C159.909 97.7533 159.549 97.92 159.149 98.04C158.762 98.16 158.329 98.22 157.849 98.22C157.222 98.22 156.616 98.1 156.029 97.86C155.442 97.62 154.916 97.2733 154.449 96.82C153.982 96.3533 153.609 95.7867 153.329 95.12C153.049 94.4533 152.909 93.6933 152.909 92.84C152.909 91.9867 153.049 91.2267 153.329 90.56C153.609 89.8933 153.982 89.3333 154.449 88.88C154.916 88.4133 155.442 88.06 156.029 87.82C156.616 87.5667 157.222 87.44 157.849 87.44C158.329 87.44 158.769 87.5 159.169 87.62C159.569 87.74 159.929 87.9 160.249 88.1C160.569 88.3 160.856 88.5333 161.109 88.8C161.376 89.0667 161.609 89.3467 161.809 89.64V83.4H163.349V98ZM161.869 92.82C161.869 92.22 161.762 91.6733 161.549 91.18C161.349 90.6867 161.069 90.2667 160.709 89.92C160.362 89.5733 159.962 89.3067 159.509 89.12C159.069 88.92 158.609 88.82 158.129 88.82C157.622 88.82 157.149 88.9133 156.709 89.1C156.269 89.2733 155.882 89.5333 155.549 89.88C155.229 90.2133 154.969 90.6333 154.769 91.14C154.582 91.6333 154.489 92.1933 154.489 92.82C154.489 93.4333 154.582 93.9867 154.769 94.48C154.969 94.9733 155.236 95.4 155.569 95.76C155.902 96.1067 156.289 96.3733 156.729 96.56C157.169 96.7467 157.636 96.84 158.129 96.84C158.609 96.84 159.069 96.7467 159.509 96.56C159.962 96.36 160.362 96.0867 160.709 95.74C161.069 95.3933 161.349 94.9733 161.549 94.48C161.762 93.9733 161.869 93.42 161.869 92.82ZM174.886 87.7H178.166V89.02H174.906V98H173.366V89.02H171.946V87.68H173.366V86.78C173.366 85.6467 173.633 84.7867 174.166 84.2C174.713 83.6133 175.486 83.32 176.486 83.32C176.846 83.32 177.153 83.34 177.406 83.38C177.673 83.42 177.933 83.4867 178.186 83.58V84.92C177.906 84.84 177.653 84.78 177.426 84.74C177.2 84.6867 176.953 84.66 176.686 84.66C175.486 84.66 174.886 85.3933 174.886 86.86V87.7ZM190.075 92.82C190.075 93.5533 189.935 94.2533 189.655 94.92C189.388 95.5733 189.015 96.1467 188.535 96.64C188.055 97.1333 187.482 97.5267 186.815 97.82C186.148 98.1 185.428 98.24 184.655 98.24C183.882 98.24 183.168 98.1 182.515 97.82C181.862 97.5267 181.295 97.14 180.815 96.66C180.335 96.1667 179.962 95.5933 179.695 94.94C179.428 94.2867 179.295 93.5933 179.295 92.86C179.295 92.1267 179.428 91.4333 179.695 90.78C179.962 90.1133 180.335 89.5333 180.815 89.04C181.295 88.5467 181.862 88.16 182.515 87.88C183.182 87.5867 183.908 87.44 184.695 87.44C185.468 87.44 186.182 87.5867 186.835 87.88C187.502 88.16 188.075 88.5467 188.555 89.04C189.035 89.52 189.408 90.0867 189.675 90.74C189.942 91.3933 190.075 92.0867 190.075 92.82ZM188.495 92.86C188.495 92.3 188.395 91.7733 188.195 91.28C188.008 90.7867 187.742 90.36 187.395 90C187.048 89.6267 186.642 89.3333 186.175 89.12C185.708 88.9067 185.202 88.8 184.655 88.8C184.095 88.8 183.582 88.9067 183.115 89.12C182.648 89.32 182.248 89.6067 181.915 89.98C181.595 90.34 181.342 90.7667 181.155 91.26C180.968 91.74 180.875 92.26 180.875 92.82C180.875 93.38 180.968 93.9067 181.155 94.4C181.355 94.8933 181.622 95.32 181.955 95.68C182.302 96.04 182.708 96.3267 183.175 96.54C183.642 96.7533 184.148 96.86 184.695 96.86C185.255 96.86 185.768 96.76 186.235 96.56C186.702 96.3467 187.102 96.06 187.435 95.7C187.768 95.34 188.028 94.92 188.215 94.44C188.402 93.9467 188.495 93.42 188.495 92.86ZM194.405 93.88V98H192.865V87.66H194.405V90.36C194.591 89.9333 194.825 89.54 195.105 89.18C195.385 88.82 195.705 88.5133 196.065 88.26C196.425 87.9933 196.818 87.7933 197.245 87.66C197.671 87.5267 198.131 87.4667 198.625 87.48V89.14H198.505C197.945 89.14 197.411 89.24 196.905 89.44C196.411 89.64 195.978 89.94 195.605 90.34C195.231 90.74 194.938 91.24 194.725 91.84C194.511 92.4267 194.405 93.1067 194.405 93.88ZM217.106 92.82C217.106 93.5533 216.966 94.2533 216.686 94.92C216.419 95.5733 216.046 96.1467 215.566 96.64C215.086 97.1333 214.513 97.5267 213.846 97.82C213.179 98.1 212.459 98.24 211.686 98.24C210.913 98.24 210.199 98.1 209.546 97.82C208.893 97.5267 208.326 97.14 207.846 96.66C207.366 96.1667 206.993 95.5933 206.726 94.94C206.459 94.2867 206.326 93.5933 206.326 92.86C206.326 92.1267 206.459 91.4333 206.726 90.78C206.993 90.1133 207.366 89.5333 207.846 89.04C208.326 88.5467 208.893 88.16 209.546 87.88C210.213 87.5867 210.939 87.44 211.726 87.44C212.499 87.44 213.213 87.5867 213.866 87.88C214.533 88.16 215.106 88.5467 215.586 89.04C216.066 89.52 216.439 90.0867 216.706 90.74C216.973 91.3933 217.106 92.0867 217.106 92.82ZM215.526 92.86C215.526 92.3 215.426 91.7733 215.226 91.28C215.039 90.7867 214.773 90.36 214.426 90C214.079 89.6267 213.673 89.3333 213.206 89.12C212.739 88.9067 212.233 88.8 211.686 88.8C211.126 88.8 210.613 88.9067 210.146 89.12C209.679 89.32 209.279 89.6067 208.946 89.98C208.626 90.34 208.373 90.7667 208.186 91.26C207.999 91.74 207.906 92.26 207.906 92.82C207.906 93.38 207.999 93.9067 208.186 94.4C208.386 94.8933 208.653 95.32 208.986 95.68C209.333 96.04 209.739 96.3267 210.206 96.54C210.673 96.7533 211.179 96.86 211.726 96.86C212.286 96.86 212.799 96.76 213.266 96.56C213.733 96.3467 214.133 96.06 214.466 95.7C214.799 95.34 215.059 94.92 215.246 94.44C215.433 93.9467 215.526 93.42 215.526 92.86ZM221.436 93.88V98H219.896V87.66H221.436V90.36C221.622 89.9333 221.856 89.54 222.136 89.18C222.416 88.82 222.736 88.5133 223.096 88.26C223.456 87.9933 223.849 87.7933 224.276 87.66C224.702 87.5267 225.162 87.4667 225.656 87.48V89.14H225.536C224.976 89.14 224.442 89.24 223.936 89.44C223.442 89.64 223.009 89.94 222.636 90.34C222.262 90.74 221.969 91.24 221.756 91.84C221.542 92.4267 221.436 93.1067 221.436 93.88ZM237.412 96.2C237.412 97.04 237.285 97.7733 237.032 98.4C236.792 99.0267 236.438 99.5467 235.972 99.96C235.518 100.387 234.965 100.707 234.312 100.92C233.672 101.133 232.952 101.24 232.152 101.24C231.285 101.24 230.458 101.12 229.672 100.88C228.885 100.64 228.145 100.28 227.452 99.8L228.152 98.6C228.752 99.0267 229.378 99.3533 230.032 99.58C230.685 99.8067 231.385 99.92 232.132 99.92C233.278 99.92 234.192 99.6067 234.872 98.98C235.552 98.3667 235.892 97.4533 235.892 96.24V95.02C235.438 95.62 234.885 96.1333 234.232 96.56C233.578 96.9867 232.778 97.2 231.832 97.2C231.205 97.2 230.598 97.0933 230.012 96.88C229.438 96.6533 228.925 96.3333 228.472 95.92C228.018 95.4933 227.652 94.98 227.372 94.38C227.105 93.78 226.972 93.1 226.972 92.34C226.972 91.58 227.105 90.9 227.372 90.3C227.652 89.6867 228.018 89.1733 228.472 88.76C228.925 88.3333 229.445 88.0067 230.032 87.78C230.618 87.5533 231.218 87.44 231.832 87.44C232.312 87.44 232.752 87.5 233.152 87.62C233.565 87.7267 233.932 87.8733 234.252 88.06C234.585 88.2467 234.885 88.4667 235.152 88.72C235.418 88.9733 235.658 89.24 235.872 89.52V87.66H237.412V96.2ZM235.932 92.32C235.932 91.7867 235.825 91.3067 235.612 90.88C235.398 90.44 235.112 90.0667 234.752 89.76C234.405 89.4533 234.005 89.22 233.552 89.06C233.098 88.8867 232.625 88.8 232.132 88.8C231.638 88.8 231.172 88.88 230.732 89.04C230.305 89.2 229.925 89.4333 229.592 89.74C229.272 90.0467 229.018 90.42 228.832 90.86C228.645 91.2867 228.552 91.7667 228.552 92.3C228.552 92.8333 228.645 93.32 228.832 93.76C229.032 94.1867 229.292 94.56 229.612 94.88C229.945 95.1867 230.325 95.4267 230.752 95.6C231.192 95.76 231.652 95.84 232.132 95.84C232.625 95.84 233.098 95.76 233.552 95.6C234.005 95.4267 234.405 95.1867 234.752 94.88C235.112 94.5733 235.398 94.2067 235.612 93.78C235.825 93.34 235.932 92.8533 235.932 92.32ZM244.593 88.88C243.979 88.88 243.419 88.9533 242.913 89.1C242.419 89.2333 241.933 89.4133 241.453 89.64L240.993 88.38C241.566 88.1133 242.146 87.9067 242.733 87.76C243.319 87.6 243.993 87.52 244.753 87.52C246.166 87.52 247.253 87.8733 248.013 88.58C248.773 89.2733 249.153 90.3067 249.153 91.68V98H247.673V96.44C247.313 96.9067 246.826 97.32 246.213 97.68C245.613 98.04 244.853 98.22 243.933 98.22C243.453 98.22 242.979 98.1533 242.513 98.02C242.059 97.8867 241.646 97.6867 241.273 97.42C240.913 97.14 240.619 96.8 240.393 96.4C240.179 96 240.073 95.5267 240.073 94.98C240.073 94.4333 240.179 93.9533 240.393 93.54C240.606 93.1133 240.906 92.76 241.293 92.48C241.693 92.2 242.159 91.9867 242.693 91.84C243.239 91.6933 243.839 91.62 244.493 91.62C245.159 91.62 245.739 91.66 246.233 91.74C246.726 91.82 247.206 91.9267 247.673 92.06V91.7C247.673 90.7667 247.399 90.0667 246.853 89.6C246.319 89.12 245.566 88.88 244.593 88.88ZM244.653 92.76C243.679 92.76 242.933 92.9533 242.413 93.34C241.893 93.7267 241.633 94.2533 241.633 94.92C241.633 95.2533 241.699 95.5467 241.833 95.8C241.979 96.0533 242.173 96.2733 242.413 96.46C242.653 96.6333 242.926 96.7667 243.233 96.86C243.553 96.9533 243.886 97 244.233 97C244.713 97 245.159 96.9333 245.573 96.8C245.999 96.6533 246.366 96.46 246.673 96.22C246.993 95.9667 247.239 95.6733 247.413 95.34C247.599 94.9933 247.693 94.6133 247.693 94.2V93.2C247.306 93.0933 246.859 92.9933 246.353 92.9C245.859 92.8067 245.293 92.76 244.653 92.76ZM253.975 92.08V98H252.435V87.66H253.975V89.46C254.322 88.9 254.775 88.4267 255.335 88.04C255.895 87.64 256.622 87.44 257.515 87.44C258.142 87.44 258.695 87.54 259.175 87.74C259.668 87.94 260.082 88.2267 260.415 88.6C260.762 88.96 261.022 89.3933 261.195 89.9C261.382 90.4067 261.475 90.9667 261.475 91.58V98H259.935V91.96C259.935 91 259.688 90.24 259.195 89.68C258.702 89.12 257.995 88.84 257.075 88.84C256.635 88.84 256.222 88.92 255.835 89.08C255.462 89.2267 255.135 89.4467 254.855 89.74C254.575 90.02 254.355 90.36 254.195 90.76C254.048 91.16 253.975 91.6 253.975 92.08ZM266.559 85.4H264.799V83.7H266.559V85.4ZM266.439 98H264.899V87.66H266.439V98ZM277.113 95.1C277.113 95.5933 277.013 96.0333 276.813 96.42C276.626 96.7933 276.366 97.1133 276.033 97.38C275.713 97.6467 275.326 97.8533 274.873 98C274.433 98.1333 273.953 98.2 273.433 98.2C272.686 98.2 271.933 98.0667 271.173 97.8C270.413 97.52 269.74 97.1467 269.153 96.68L269.933 95.58C270.493 96.0067 271.073 96.3333 271.673 96.56C272.286 96.7867 272.9 96.9 273.513 96.9C274.14 96.9 274.653 96.7533 275.053 96.46C275.453 96.1667 275.653 95.7667 275.653 95.26V95.22C275.653 94.9667 275.58 94.7467 275.433 94.56C275.3 94.3733 275.113 94.2133 274.873 94.08C274.633 93.9333 274.353 93.8067 274.033 93.7C273.726 93.5933 273.406 93.4933 273.073 93.4C272.673 93.28 272.266 93.1533 271.853 93.02C271.453 92.8733 271.086 92.6933 270.753 92.48C270.433 92.2667 270.166 92 269.953 91.68C269.753 91.36 269.653 90.96 269.653 90.48V90.44C269.653 90 269.74 89.6 269.913 89.24C270.086 88.8667 270.326 88.5533 270.633 88.3C270.953 88.0333 271.326 87.8333 271.753 87.7C272.193 87.5533 272.666 87.48 273.173 87.48C273.813 87.48 274.46 87.5867 275.113 87.8C275.766 88 276.36 88.2733 276.893 88.62L276.193 89.78C275.713 89.4733 275.206 89.2333 274.673 89.06C274.153 88.8733 273.64 88.78 273.133 88.78C272.52 88.78 272.033 88.9267 271.673 89.22C271.313 89.5 271.133 89.8533 271.133 90.28V90.32C271.133 90.56 271.206 90.7733 271.353 90.96C271.5 91.1333 271.693 91.2867 271.933 91.42C272.186 91.5533 272.473 91.6733 272.793 91.78C273.113 91.8867 273.446 91.9933 273.793 92.1C274.193 92.22 274.586 92.3533 274.973 92.5C275.373 92.6467 275.733 92.8333 276.053 93.06C276.373 93.2867 276.626 93.56 276.813 93.88C277.013 94.2 277.113 94.5933 277.113 95.06V95.1ZM283.714 88.88C283.101 88.88 282.541 88.9533 282.034 89.1C281.541 89.2333 281.054 89.4133 280.574 89.64L280.114 88.38C280.687 88.1133 281.267 87.9067 281.854 87.76C282.441 87.6 283.114 87.52 283.874 87.52C285.287 87.52 286.374 87.8733 287.134 88.58C287.894 89.2733 288.274 90.3067 288.274 91.68V98H286.794V96.44C286.434 96.9067 285.947 97.32 285.334 97.68C284.734 98.04 283.974 98.22 283.054 98.22C282.574 98.22 282.101 98.1533 281.634 98.02C281.181 97.8867 280.767 97.6867 280.394 97.42C280.034 97.14 279.741 96.8 279.514 96.4C279.301 96 279.194 95.5267 279.194 94.98C279.194 94.4333 279.301 93.9533 279.514 93.54C279.727 93.1133 280.027 92.76 280.414 92.48C280.814 92.2 281.281 91.9867 281.814 91.84C282.361 91.6933 282.961 91.62 283.614 91.62C284.281 91.62 284.861 91.66 285.354 91.74C285.847 91.82 286.327 91.9267 286.794 92.06V91.7C286.794 90.7667 286.521 90.0667 285.974 89.6C285.441 89.12 284.687 88.88 283.714 88.88ZM283.774 92.76C282.801 92.76 282.054 92.9533 281.534 93.34C281.014 93.7267 280.754 94.2533 280.754 94.92C280.754 95.2533 280.821 95.5467 280.954 95.8C281.101 96.0533 281.294 96.2733 281.534 96.46C281.774 96.6333 282.047 96.7667 282.354 96.86C282.674 96.9533 283.007 97 283.354 97C283.834 97 284.281 96.9333 284.694 96.8C285.121 96.6533 285.487 96.46 285.794 96.22C286.114 95.9667 286.361 95.6733 286.534 95.34C286.721 94.9933 286.814 94.6133 286.814 94.2V93.2C286.427 93.0933 285.981 92.9933 285.474 92.9C284.981 92.8067 284.414 92.76 283.774 92.76ZM293.538 89.02V95.06C293.538 95.7 293.698 96.1467 294.018 96.4C294.338 96.6533 294.758 96.78 295.278 96.78C295.545 96.78 295.792 96.7533 296.018 96.7C296.258 96.6467 296.512 96.5533 296.778 96.42V97.74C296.512 97.8867 296.225 97.9933 295.918 98.06C295.625 98.14 295.292 98.18 294.918 98.18C294.505 98.18 294.118 98.1267 293.758 98.02C293.398 97.9133 293.085 97.7467 292.818 97.52C292.565 97.28 292.365 96.9733 292.218 96.6C292.072 96.2267 291.998 95.78 291.998 95.26V89.02H290.558V87.66H291.998V84.54H293.538V87.66H296.818V89.02H293.538ZM301.344 85.4H299.584V83.7H301.344V85.4ZM301.224 98H299.684V87.66H301.224V98ZM314.938 92.82C314.938 93.5533 314.798 94.2533 314.518 94.92C314.251 95.5733 313.878 96.1467 313.398 96.64C312.918 97.1333 312.345 97.5267 311.678 97.82C311.011 98.1 310.291 98.24 309.518 98.24C308.745 98.24 308.031 98.1 307.378 97.82C306.725 97.5267 306.158 97.14 305.678 96.66C305.198 96.1667 304.825 95.5933 304.558 94.94C304.291 94.2867 304.158 93.5933 304.158 92.86C304.158 92.1267 304.291 91.4333 304.558 90.78C304.825 90.1133 305.198 89.5333 305.678 89.04C306.158 88.5467 306.725 88.16 307.378 87.88C308.045 87.5867 308.771 87.44 309.558 87.44C310.331 87.44 311.045 87.5867 311.698 87.88C312.365 88.16 312.938 88.5467 313.418 89.04C313.898 89.52 314.271 90.0867 314.538 90.74C314.805 91.3933 314.938 92.0867 314.938 92.82ZM313.358 92.86C313.358 92.3 313.258 91.7733 313.058 91.28C312.871 90.7867 312.605 90.36 312.258 90C311.911 89.6267 311.505 89.3333 311.038 89.12C310.571 88.9067 310.065 88.8 309.518 88.8C308.958 88.8 308.445 88.9067 307.978 89.12C307.511 89.32 307.111 89.6067 306.778 89.98C306.458 90.34 306.205 90.7667 306.018 91.26C305.831 91.74 305.738 92.26 305.738 92.82C305.738 93.38 305.831 93.9067 306.018 94.4C306.218 94.8933 306.485 95.32 306.818 95.68C307.165 96.04 307.571 96.3267 308.038 96.54C308.505 96.7533 309.011 96.86 309.558 96.86C310.118 96.86 310.631 96.76 311.098 96.56C311.565 96.3467 311.965 96.06 312.298 95.7C312.631 95.34 312.891 94.92 313.078 94.44C313.265 93.9467 313.358 93.42 313.358 92.86ZM319.268 92.08V98H317.728V87.66H319.268V89.46C319.614 88.9 320.068 88.4267 320.628 88.04C321.188 87.64 321.914 87.44 322.808 87.44C323.434 87.44 323.988 87.54 324.468 87.74C324.961 87.94 325.374 88.2267 325.708 88.6C326.054 88.96 326.314 89.3933 326.488 89.9C326.674 90.4067 326.768 90.9667 326.768 91.58V98H325.228V91.96C325.228 91 324.981 90.24 324.488 89.68C323.994 89.12 323.288 88.84 322.368 88.84C321.928 88.84 321.514 88.92 321.128 89.08C320.754 89.2267 320.428 89.4467 320.148 89.74C319.868 90.02 319.648 90.36 319.488 90.76C319.341 91.16 319.268 91.6 319.268 92.08ZM337.848 85.4H336.088V83.7H337.848V85.4ZM337.728 98H336.188V87.66H337.728V98ZM342.842 92.08V98H341.302V87.66H342.842V89.46C343.189 88.9 343.642 88.4267 344.202 88.04C344.762 87.64 345.489 87.44 346.382 87.44C347.009 87.44 347.562 87.54 348.042 87.74C348.535 87.94 348.949 88.2267 349.282 88.6C349.629 88.96 349.889 89.3933 350.062 89.9C350.249 90.4067 350.342 90.9667 350.342 91.58V98H348.802V91.96C348.802 91 348.555 90.24 348.062 89.68C347.569 89.12 346.862 88.84 345.942 88.84C345.502 88.84 345.089 88.92 344.702 89.08C344.329 89.2267 344.002 89.4467 343.722 89.74C343.442 90.02 343.222 90.36 343.062 90.76C342.915 91.16 342.842 91.6 342.842 92.08ZM370.182 86.84H365.922V98H362.842V86.84H358.582V84H370.182V86.84ZM382.231 92.94C382.231 93.0867 382.224 93.2133 382.211 93.32C382.211 93.4267 382.204 93.5533 382.191 93.7H374.731C374.878 94.3933 375.178 94.92 375.631 95.28C376.098 95.6267 376.671 95.8 377.351 95.8C377.858 95.8 378.311 95.7133 378.711 95.54C379.111 95.3667 379.524 95.0867 379.951 94.7L381.691 96.24C381.184 96.8667 380.571 97.36 379.851 97.72C379.131 98.0667 378.284 98.24 377.311 98.24C376.511 98.24 375.764 98.1067 375.071 97.84C374.391 97.5733 373.798 97.1933 373.291 96.7C372.798 96.2067 372.411 95.6267 372.131 94.96C371.851 94.28 371.711 93.5267 371.711 92.7V92.66C371.711 91.9 371.838 91.18 372.091 90.5C372.358 89.82 372.724 89.2267 373.191 88.72C373.658 88.2133 374.211 87.8133 374.851 87.52C375.504 87.2267 376.224 87.08 377.011 87.08C377.904 87.08 378.678 87.24 379.331 87.56C379.984 87.88 380.524 88.3133 380.951 88.86C381.391 89.3933 381.711 90.0133 381.911 90.72C382.124 91.4133 382.231 92.14 382.231 92.9V92.94ZM379.271 91.8C379.178 91.12 378.938 90.5733 378.551 90.16C378.164 89.7333 377.651 89.52 377.011 89.52C376.371 89.52 375.851 89.7267 375.451 90.14C375.064 90.5533 374.811 91.1067 374.691 91.8H379.271ZM387.677 98H384.637V83.4H387.677V98ZM400.532 92.94C400.532 93.0867 400.525 93.2133 400.512 93.32C400.512 93.4267 400.505 93.5533 400.492 93.7H393.032C393.179 94.3933 393.479 94.92 393.932 95.28C394.399 95.6267 394.972 95.8 395.652 95.8C396.159 95.8 396.612 95.7133 397.012 95.54C397.412 95.3667 397.825 95.0867 398.252 94.7L399.992 96.24C399.485 96.8667 398.872 97.36 398.152 97.72C397.432 98.0667 396.585 98.24 395.612 98.24C394.812 98.24 394.065 98.1067 393.372 97.84C392.692 97.5733 392.099 97.1933 391.592 96.7C391.099 96.2067 390.712 95.6267 390.432 94.96C390.152 94.28 390.012 93.5267 390.012 92.7V92.66C390.012 91.9 390.139 91.18 390.392 90.5C390.659 89.82 391.025 89.2267 391.492 88.72C391.959 88.2133 392.512 87.8133 393.152 87.52C393.805 87.2267 394.525 87.08 395.312 87.08C396.205 87.08 396.979 87.24 397.632 87.56C398.285 87.88 398.825 88.3133 399.252 88.86C399.692 89.3933 400.012 90.0133 400.212 90.72C400.425 91.4133 400.532 92.14 400.532 92.9V92.94ZM397.572 91.8C397.479 91.12 397.239 90.5733 396.852 90.16C396.465 89.7333 395.952 89.52 395.312 89.52C394.672 89.52 394.152 89.7267 393.752 90.14C393.365 90.5533 393.112 91.1067 392.992 91.8H397.572ZM412.238 96.28C411.718 96.8533 411.124 97.3267 410.458 97.7C409.791 98.06 408.924 98.24 407.858 98.24C407.058 98.24 406.311 98.0933 405.618 97.8C404.938 97.5067 404.351 97.1133 403.858 96.62C403.364 96.1133 402.978 95.5267 402.698 94.86C402.418 94.18 402.278 93.46 402.278 92.7V92.66C402.278 91.9 402.418 91.18 402.698 90.5C402.978 89.82 403.364 89.2267 403.858 88.72C404.351 88.2133 404.938 87.8133 405.618 87.52C406.311 87.2267 407.071 87.08 407.898 87.08C408.911 87.08 409.751 87.24 410.418 87.56C411.084 87.88 411.671 88.32 412.178 88.88L410.318 90.88C409.971 90.52 409.611 90.2333 409.238 90.02C408.878 89.8067 408.424 89.7 407.878 89.7C407.491 89.7 407.138 89.78 406.818 89.94C406.511 90.0867 406.238 90.2933 405.998 90.56C405.771 90.8267 405.591 91.14 405.458 91.5C405.338 91.8467 405.278 92.22 405.278 92.62V92.66C405.278 93.0733 405.338 93.46 405.458 93.82C405.591 94.18 405.778 94.4933 406.018 94.76C406.258 95.0267 406.544 95.24 406.878 95.4C407.211 95.5467 407.584 95.62 407.998 95.62C408.504 95.62 408.944 95.52 409.318 95.32C409.704 95.1067 410.084 94.8267 410.458 94.48L412.238 96.28ZM425.303 92.66C425.303 93.4333 425.157 94.16 424.863 94.84C424.57 95.5067 424.163 96.0933 423.643 96.6C423.123 97.1067 422.51 97.5067 421.803 97.8C421.097 98.0933 420.323 98.24 419.483 98.24C418.657 98.24 417.89 98.1 417.183 97.82C416.477 97.5267 415.863 97.1333 415.343 96.64C414.837 96.1333 414.437 95.5467 414.143 94.88C413.85 94.2 413.703 93.4733 413.703 92.7V92.66C413.703 91.8867 413.85 91.1667 414.143 90.5C414.437 89.82 414.843 89.2267 415.363 88.72C415.883 88.2133 416.497 87.8133 417.203 87.52C417.91 87.2267 418.683 87.08 419.523 87.08C420.35 87.08 421.117 87.2267 421.823 87.52C422.53 87.8 423.137 88.1933 423.643 88.7C424.163 89.1933 424.57 89.78 424.863 90.46C425.157 91.1267 425.303 91.8467 425.303 92.62V92.66ZM422.303 92.7V92.66C422.303 92.26 422.237 91.8867 422.103 91.54C421.97 91.18 421.777 90.8667 421.523 90.6C421.27 90.32 420.97 90.1 420.623 89.94C420.277 89.78 419.897 89.7 419.483 89.7C419.043 89.7 418.65 89.78 418.303 89.94C417.97 90.0867 417.683 90.2933 417.443 90.56C417.203 90.8267 417.017 91.14 416.883 91.5C416.763 91.8467 416.703 92.22 416.703 92.62V92.66C416.703 93.06 416.77 93.44 416.903 93.8C417.037 94.1467 417.23 94.46 417.483 94.74C417.737 95.0067 418.03 95.22 418.363 95.38C418.71 95.54 419.097 95.62 419.523 95.62C419.963 95.62 420.35 95.5467 420.683 95.4C421.03 95.24 421.323 95.0267 421.563 94.76C421.803 94.4933 421.983 94.1867 422.103 93.84C422.237 93.48 422.303 93.1 422.303 92.7ZM443.865 98H440.825V92.02C440.825 91.3 440.671 90.76 440.365 90.4C440.058 90.0267 439.618 89.84 439.045 89.84C438.471 89.84 438.018 90.0267 437.685 90.4C437.365 90.76 437.205 91.3 437.205 92.02V98H434.165V92.02C434.165 91.3 434.011 90.76 433.705 90.4C433.398 90.0267 432.958 89.84 432.385 89.84C431.811 89.84 431.358 90.0267 431.025 90.4C430.705 90.76 430.545 91.3 430.545 92.02V98H427.505V87.28H430.545V88.8C430.718 88.5733 430.905 88.36 431.105 88.16C431.318 87.9467 431.551 87.76 431.805 87.6C432.058 87.44 432.338 87.3133 432.645 87.22C432.965 87.1267 433.318 87.08 433.705 87.08C434.411 87.08 435.018 87.2267 435.525 87.52C436.045 87.8133 436.445 88.2333 436.725 88.78C437.191 88.22 437.711 87.8 438.285 87.52C438.858 87.2267 439.511 87.08 440.245 87.08C441.378 87.08 442.265 87.4133 442.905 88.08C443.545 88.7467 443.865 89.7267 443.865 91.02V98ZM125.604 126H114.944V112H125.504V114.74H118.004V117.58H124.604V120.32H118.004V123.26H125.604V126ZM137.462 124.28C136.942 124.853 136.349 125.327 135.682 125.7C135.015 126.06 134.149 126.24 133.082 126.24C132.282 126.24 131.535 126.093 130.842 125.8C130.162 125.507 129.575 125.113 129.082 124.62C128.589 124.113 128.202 123.527 127.922 122.86C127.642 122.18 127.502 121.46 127.502 120.7V120.66C127.502 119.9 127.642 119.18 127.922 118.5C128.202 117.82 128.589 117.227 129.082 116.72C129.575 116.213 130.162 115.813 130.842 115.52C131.535 115.227 132.295 115.08 133.122 115.08C134.135 115.08 134.975 115.24 135.642 115.56C136.309 115.88 136.895 116.32 137.402 116.88L135.542 118.88C135.195 118.52 134.835 118.233 134.462 118.02C134.102 117.807 133.649 117.7 133.102 117.7C132.715 117.7 132.362 117.78 132.042 117.94C131.735 118.087 131.462 118.293 131.222 118.56C130.995 118.827 130.815 119.14 130.682 119.5C130.562 119.847 130.502 120.22 130.502 120.62V120.66C130.502 121.073 130.562 121.46 130.682 121.82C130.815 122.18 131.002 122.493 131.242 122.76C131.482 123.027 131.769 123.24 132.102 123.4C132.435 123.547 132.809 123.62 133.222 123.62C133.729 123.62 134.169 123.52 134.542 123.32C134.929 123.107 135.309 122.827 135.682 122.48L137.462 124.28ZM150.528 120.66C150.528 121.433 150.381 122.16 150.088 122.84C149.795 123.507 149.388 124.093 148.868 124.6C148.348 125.107 147.735 125.507 147.028 125.8C146.321 126.093 145.548 126.24 144.708 126.24C143.881 126.24 143.115 126.1 142.408 125.82C141.701 125.527 141.088 125.133 140.568 124.64C140.061 124.133 139.661 123.547 139.368 122.88C139.075 122.2 138.928 121.473 138.928 120.7V120.66C138.928 119.887 139.075 119.167 139.368 118.5C139.661 117.82 140.068 117.227 140.588 116.72C141.108 116.213 141.721 115.813 142.428 115.52C143.135 115.227 143.908 115.08 144.748 115.08C145.575 115.08 146.341 115.227 147.048 115.52C147.755 115.8 148.361 116.193 148.868 116.7C149.388 117.193 149.795 117.78 150.088 118.46C150.381 119.127 150.528 119.847 150.528 120.62V120.66ZM147.528 120.7V120.66C147.528 120.26 147.461 119.887 147.328 119.54C147.195 119.18 147.001 118.867 146.748 118.6C146.495 118.32 146.195 118.1 145.848 117.94C145.501 117.78 145.121 117.7 144.708 117.7C144.268 117.7 143.875 117.78 143.528 117.94C143.195 118.087 142.908 118.293 142.668 118.56C142.428 118.827 142.241 119.14 142.108 119.5C141.988 119.847 141.928 120.22 141.928 120.62V120.66C141.928 121.06 141.995 121.44 142.128 121.8C142.261 122.147 142.455 122.46 142.708 122.74C142.961 123.007 143.255 123.22 143.588 123.38C143.935 123.54 144.321 123.62 144.748 123.62C145.188 123.62 145.575 123.547 145.908 123.4C146.255 123.24 146.548 123.027 146.788 122.76C147.028 122.493 147.208 122.187 147.328 121.84C147.461 121.48 147.528 121.1 147.528 120.7ZM160.589 122.74C160.589 123.34 160.482 123.86 160.269 124.3C160.069 124.727 159.782 125.08 159.409 125.36C159.036 125.64 158.596 125.853 158.089 126C157.596 126.133 157.062 126.2 156.489 126.2C155.729 126.2 154.949 126.073 154.149 125.82C153.362 125.553 152.609 125.14 151.889 124.58L153.189 122.58C153.776 123.007 154.356 123.327 154.929 123.54C155.516 123.753 156.062 123.86 156.569 123.86C157.009 123.86 157.329 123.787 157.529 123.64C157.742 123.493 157.849 123.3 157.849 123.06V123.02C157.849 122.86 157.789 122.72 157.669 122.6C157.549 122.48 157.382 122.38 157.169 122.3C156.969 122.207 156.736 122.12 156.469 122.04C156.202 121.96 155.922 121.873 155.629 121.78C155.256 121.673 154.876 121.547 154.489 121.4C154.116 121.24 153.776 121.04 153.469 120.8C153.162 120.547 152.909 120.24 152.709 119.88C152.522 119.52 152.429 119.08 152.429 118.56V118.52C152.429 117.973 152.529 117.493 152.729 117.08C152.942 116.653 153.222 116.293 153.569 116C153.929 115.707 154.342 115.487 154.809 115.34C155.289 115.193 155.802 115.12 156.349 115.12C157.029 115.12 157.716 115.233 158.409 115.46C159.116 115.673 159.762 115.973 160.349 116.36L159.189 118.46C158.656 118.153 158.136 117.913 157.629 117.74C157.122 117.553 156.676 117.46 156.289 117.46C155.916 117.46 155.636 117.533 155.449 117.68C155.262 117.813 155.169 117.987 155.169 118.2V118.24C155.169 118.387 155.229 118.52 155.349 118.64C155.469 118.747 155.629 118.853 155.829 118.96C156.029 119.053 156.256 119.147 156.509 119.24C156.776 119.333 157.056 119.427 157.349 119.52C157.722 119.64 158.102 119.787 158.489 119.96C158.876 120.12 159.222 120.32 159.529 120.56C159.836 120.8 160.089 121.093 160.289 121.44C160.489 121.787 160.589 122.207 160.589 122.7V122.74ZM172.968 115.28L168.848 126.26C168.648 126.807 168.435 127.267 168.208 127.64C167.982 128.027 167.728 128.34 167.448 128.58C167.182 128.82 166.875 128.993 166.528 129.1C166.182 129.207 165.782 129.26 165.328 129.26C164.768 129.26 164.275 129.193 163.848 129.06C163.422 128.927 163.015 128.747 162.628 128.52L163.648 126.32C163.848 126.44 164.062 126.54 164.288 126.62C164.528 126.7 164.748 126.74 164.948 126.74C165.215 126.74 165.422 126.687 165.568 126.58C165.728 126.487 165.875 126.307 166.008 126.04L161.808 115.28H165.028L167.468 122.58L169.808 115.28H172.968ZM182.62 122.74C182.62 123.34 182.514 123.86 182.3 124.3C182.1 124.727 181.814 125.08 181.44 125.36C181.067 125.64 180.627 125.853 180.12 126C179.627 126.133 179.094 126.2 178.52 126.2C177.76 126.2 176.98 126.073 176.18 125.82C175.394 125.553 174.64 125.14 173.92 124.58L175.22 122.58C175.807 123.007 176.387 123.327 176.96 123.54C177.547 123.753 178.094 123.86 178.6 123.86C179.04 123.86 179.36 123.787 179.56 123.64C179.774 123.493 179.88 123.3 179.88 123.06V123.02C179.88 122.86 179.82 122.72 179.7 122.6C179.58 122.48 179.414 122.38 179.2 122.3C179 122.207 178.767 122.12 178.5 122.04C178.234 121.96 177.954 121.873 177.66 121.78C177.287 121.673 176.907 121.547 176.52 121.4C176.147 121.24 175.807 121.04 175.5 120.8C175.194 120.547 174.94 120.24 174.74 119.88C174.554 119.52 174.46 119.08 174.46 118.56V118.52C174.46 117.973 174.56 117.493 174.76 117.08C174.974 116.653 175.254 116.293 175.6 116C175.96 115.707 176.374 115.487 176.84 115.34C177.32 115.193 177.834 115.12 178.38 115.12C179.06 115.12 179.747 115.233 180.44 115.46C181.147 115.673 181.794 115.973 182.38 116.36L181.22 118.46C180.687 118.153 180.167 117.913 179.66 117.74C179.154 117.553 178.707 117.46 178.32 117.46C177.947 117.46 177.667 117.533 177.48 117.68C177.294 117.813 177.2 117.987 177.2 118.2V118.24C177.2 118.387 177.26 118.52 177.38 118.64C177.5 118.747 177.66 118.853 177.86 118.96C178.06 119.053 178.287 119.147 178.54 119.24C178.807 119.333 179.087 119.427 179.38 119.52C179.754 119.64 180.134 119.787 180.52 119.96C180.907 120.12 181.254 120.32 181.56 120.56C181.867 120.8 182.12 121.093 182.32 121.44C182.52 121.787 182.62 122.207 182.62 122.7V122.74ZM190.819 125.56C190.499 125.747 190.146 125.893 189.759 126C189.373 126.12 188.926 126.18 188.419 126.18C187.953 126.18 187.526 126.127 187.139 126.02C186.766 125.927 186.439 125.753 186.159 125.5C185.893 125.247 185.679 124.92 185.519 124.52C185.373 124.107 185.299 123.587 185.299 122.96V117.88H184.019V115.28H185.299V112.54H188.339V115.28H190.859V117.88H188.339V122.46C188.339 123.153 188.666 123.5 189.319 123.5C189.853 123.5 190.353 123.373 190.819 123.12V125.56ZM203.1 120.94C203.1 121.087 203.094 121.213 203.08 121.32C203.08 121.427 203.074 121.553 203.06 121.7H195.6C195.747 122.393 196.047 122.92 196.5 123.28C196.967 123.627 197.54 123.8 198.22 123.8C198.727 123.8 199.18 123.713 199.58 123.54C199.98 123.367 200.394 123.087 200.82 122.7L202.56 124.24C202.054 124.867 201.44 125.36 200.72 125.72C200 126.067 199.154 126.24 198.18 126.24C197.38 126.24 196.634 126.107 195.94 125.84C195.26 125.573 194.667 125.193 194.16 124.7C193.667 124.207 193.28 123.627 193 122.96C192.72 122.28 192.58 121.527 192.58 120.7V120.66C192.58 119.9 192.707 119.18 192.96 118.5C193.227 117.82 193.594 117.227 194.06 116.72C194.527 116.213 195.08 115.813 195.72 115.52C196.374 115.227 197.094 115.08 197.88 115.08C198.774 115.08 199.547 115.24 200.2 115.56C200.854 115.88 201.394 116.313 201.82 116.86C202.26 117.393 202.58 118.013 202.78 118.72C202.994 119.413 203.1 120.14 203.1 120.9V120.94ZM200.14 119.8C200.047 119.12 199.807 118.573 199.42 118.16C199.034 117.733 198.52 117.52 197.88 117.52C197.24 117.52 196.72 117.727 196.32 118.14C195.934 118.553 195.68 119.107 195.56 119.8H200.14ZM221.726 126H218.686V120.02C218.686 119.3 218.533 118.76 218.226 118.4C217.919 118.027 217.479 117.84 216.906 117.84C216.333 117.84 215.879 118.027 215.546 118.4C215.226 118.76 215.066 119.3 215.066 120.02V126H212.026V120.02C212.026 119.3 211.873 118.76 211.566 118.4C211.259 118.027 210.819 117.84 210.246 117.84C209.673 117.84 209.219 118.027 208.886 118.4C208.566 118.76 208.406 119.3 208.406 120.02V126H205.366V115.28H208.406V116.8C208.579 116.573 208.766 116.36 208.966 116.16C209.179 115.947 209.413 115.76 209.666 115.6C209.919 115.44 210.199 115.313 210.506 115.22C210.826 115.127 211.179 115.08 211.566 115.08C212.273 115.08 212.879 115.227 213.386 115.52C213.906 115.813 214.306 116.233 214.586 116.78C215.053 116.22 215.573 115.8 216.146 115.52C216.719 115.227 217.373 115.08 218.106 115.08C219.239 115.08 220.126 115.413 220.766 116.08C221.406 116.747 221.726 117.727 221.726 119.02V126ZM235.186 114.56C234.639 114.56 234.153 114.713 233.726 115.02C233.313 115.327 232.846 115.8 232.326 116.44L230.166 114.7C230.513 114.233 230.859 113.82 231.206 113.46C231.566 113.1 231.946 112.8 232.346 112.56C232.759 112.307 233.213 112.12 233.706 112C234.199 111.867 234.759 111.8 235.386 111.8C236.133 111.8 236.799 111.907 237.386 112.12C237.986 112.32 238.493 112.613 238.906 113C239.333 113.373 239.653 113.827 239.866 114.36C240.093 114.893 240.206 115.487 240.206 116.14C240.206 116.727 240.126 117.253 239.966 117.72C239.819 118.173 239.593 118.607 239.286 119.02C238.993 119.433 238.613 119.847 238.146 120.26C237.679 120.66 237.139 121.1 236.526 121.58L234.246 123.34H240.346V126H229.986V123.56L234.646 119.74C235.086 119.38 235.459 119.06 235.766 118.78C236.073 118.487 236.319 118.213 236.506 117.96C236.706 117.693 236.846 117.44 236.926 117.2C237.019 116.947 237.066 116.673 237.066 116.38C237.066 115.78 236.893 115.327 236.546 115.02C236.199 114.713 235.746 114.56 235.186 114.56ZM254.987 118.98C254.987 120.007 254.833 120.96 254.527 121.84C254.233 122.72 253.813 123.487 253.267 124.14C252.72 124.793 252.06 125.307 251.287 125.68C250.527 126.053 249.68 126.24 248.747 126.24C247.813 126.24 246.96 126.06 246.187 125.7C245.427 125.327 244.773 124.813 244.227 124.16C243.693 123.507 243.28 122.747 242.987 121.88C242.693 121 242.547 120.047 242.547 119.02C242.547 118.007 242.693 117.06 242.987 116.18C243.293 115.287 243.72 114.513 244.267 113.86C244.813 113.207 245.467 112.693 246.227 112.32C247 111.947 247.853 111.76 248.787 111.76C249.72 111.76 250.567 111.947 251.327 112.32C252.1 112.68 252.753 113.187 253.287 113.84C253.833 114.493 254.253 115.26 254.547 116.14C254.84 117.02 254.987 117.967 254.987 118.98ZM251.827 119.02C251.827 118.38 251.753 117.787 251.607 117.24C251.46 116.693 251.253 116.22 250.987 115.82C250.72 115.42 250.393 115.107 250.007 114.88C249.633 114.653 249.213 114.54 248.747 114.54C248.28 114.54 247.86 114.653 247.487 114.88C247.113 115.093 246.793 115.4 246.527 115.8C246.26 116.187 246.053 116.653 245.907 117.2C245.773 117.747 245.707 118.34 245.707 118.98C245.707 119.62 245.78 120.213 245.927 120.76C246.073 121.307 246.28 121.78 246.547 122.18C246.813 122.58 247.133 122.893 247.507 123.12C247.893 123.347 248.32 123.46 248.787 123.46C249.253 123.46 249.673 123.353 250.047 123.14C250.42 122.913 250.74 122.6 251.007 122.2C251.273 121.8 251.473 121.333 251.607 120.8C251.753 120.253 251.827 119.66 251.827 119.02ZM262.256 114.56C261.71 114.56 261.223 114.713 260.796 115.02C260.383 115.327 259.916 115.8 259.396 116.44L257.236 114.7C257.583 114.233 257.93 113.82 258.276 113.46C258.636 113.1 259.016 112.8 259.416 112.56C259.83 112.307 260.283 112.12 260.776 112C261.27 111.867 261.83 111.8 262.456 111.8C263.203 111.8 263.87 111.907 264.456 112.12C265.056 112.32 265.563 112.613 265.976 113C266.403 113.373 266.723 113.827 266.936 114.36C267.163 114.893 267.276 115.487 267.276 116.14C267.276 116.727 267.196 117.253 267.036 117.72C266.89 118.173 266.663 118.607 266.356 119.02C266.063 119.433 265.683 119.847 265.216 120.26C264.75 120.66 264.21 121.1 263.596 121.58L261.316 123.34H267.416V126H257.056V123.56L261.716 119.74C262.156 119.38 262.53 119.06 262.836 118.78C263.143 118.487 263.39 118.213 263.576 117.96C263.776 117.693 263.916 117.44 263.996 117.2C264.09 116.947 264.136 116.673 264.136 116.38C264.136 115.78 263.963 115.327 263.616 115.02C263.27 114.713 262.816 114.56 262.256 114.56ZM274.717 114.56C274.17 114.56 273.684 114.713 273.257 115.02C272.844 115.327 272.377 115.8 271.857 116.44L269.697 114.7C270.044 114.233 270.39 113.82 270.737 113.46C271.097 113.1 271.477 112.8 271.877 112.56C272.29 112.307 272.744 112.12 273.237 112C273.73 111.867 274.29 111.8 274.917 111.8C275.664 111.8 276.33 111.907 276.917 112.12C277.517 112.32 278.024 112.613 278.437 113C278.864 113.373 279.184 113.827 279.397 114.36C279.624 114.893 279.737 115.487 279.737 116.14C279.737 116.727 279.657 117.253 279.497 117.72C279.35 118.173 279.124 118.607 278.817 119.02C278.524 119.433 278.144 119.847 277.677 120.26C277.21 120.66 276.67 121.1 276.057 121.58L273.777 123.34H279.877V126H269.517V123.56L274.177 119.74C274.617 119.38 274.99 119.06 275.297 118.78C275.604 118.487 275.85 118.213 276.037 117.96C276.237 117.693 276.377 117.44 276.457 117.2C276.55 116.947 276.597 116.673 276.597 116.38C276.597 115.78 276.424 115.327 276.077 115.02C275.73 114.713 275.277 114.56 274.717 114.56ZM292.454 116.88C291.841 116.88 291.281 116.953 290.774 117.1C290.281 117.233 289.794 117.413 289.314 117.64L288.854 116.38C289.427 116.113 290.007 115.907 290.594 115.76C291.181 115.6 291.854 115.52 292.614 115.52C294.027 115.52 295.114 115.873 295.874 116.58C296.634 117.273 297.014 118.307 297.014 119.68V126H295.534V124.44C295.174 124.907 294.687 125.32 294.074 125.68C293.474 126.04 292.714 126.22 291.794 126.22C291.314 126.22 290.841 126.153 290.374 126.02C289.921 125.887 289.507 125.687 289.134 125.42C288.774 125.14 288.481 124.8 288.254 124.4C288.041 124 287.934 123.527 287.934 122.98C287.934 122.433 288.041 121.953 288.254 121.54C288.467 121.113 288.767 120.76 289.154 120.48C289.554 120.2 290.021 119.987 290.554 119.84C291.101 119.693 291.701 119.62 292.354 119.62C293.021 119.62 293.601 119.66 294.094 119.74C294.587 119.82 295.067 119.927 295.534 120.06V119.7C295.534 118.767 295.261 118.067 294.714 117.6C294.181 117.12 293.427 116.88 292.454 116.88ZM292.514 120.76C291.541 120.76 290.794 120.953 290.274 121.34C289.754 121.727 289.494 122.253 289.494 122.92C289.494 123.253 289.561 123.547 289.694 123.8C289.841 124.053 290.034 124.273 290.274 124.46C290.514 124.633 290.787 124.767 291.094 124.86C291.414 124.953 291.747 125 292.094 125C292.574 125 293.021 124.933 293.434 124.8C293.861 124.653 294.227 124.46 294.534 124.22C294.854 123.967 295.101 123.673 295.274 123.34C295.461 122.993 295.554 122.613 295.554 122.2V121.2C295.167 121.093 294.721 120.993 294.214 120.9C293.721 120.807 293.154 120.76 292.514 120.76ZM302.279 117.02V123.06C302.279 123.7 302.439 124.147 302.759 124.4C303.079 124.653 303.499 124.78 304.019 124.78C304.285 124.78 304.532 124.753 304.759 124.7C304.999 124.647 305.252 124.553 305.519 124.42V125.74C305.252 125.887 304.965 125.993 304.659 126.06C304.365 126.14 304.032 126.18 303.659 126.18C303.245 126.18 302.859 126.127 302.499 126.02C302.139 125.913 301.825 125.747 301.559 125.52C301.305 125.28 301.105 124.973 300.959 124.6C300.812 124.227 300.739 123.78 300.739 123.26V117.02H299.299V115.66H300.739V112.54H302.279V115.66H305.559V117.02H302.279ZM314.681 112H316.261V126H314.681V112ZM321.641 120.08V126H320.101V115.66H321.641V117.46C321.988 116.9 322.441 116.427 323.001 116.04C323.561 115.64 324.288 115.44 325.181 115.44C325.808 115.44 326.361 115.54 326.841 115.74C327.334 115.94 327.748 116.227 328.081 116.6C328.428 116.96 328.688 117.393 328.861 117.9C329.048 118.407 329.141 118.967 329.141 119.58V126H327.601V119.96C327.601 119 327.354 118.24 326.861 117.68C326.368 117.12 325.661 116.84 324.741 116.84C324.301 116.84 323.888 116.92 323.501 117.08C323.128 117.227 322.801 117.447 322.521 117.74C322.241 118.02 322.021 118.36 321.861 118.76C321.714 119.16 321.641 119.6 321.641 120.08ZM342.265 126H340.725V123.92C340.512 124.227 340.272 124.52 340.005 124.8C339.752 125.08 339.465 125.327 339.145 125.54C338.825 125.753 338.465 125.92 338.065 126.04C337.678 126.16 337.245 126.22 336.765 126.22C336.138 126.22 335.532 126.1 334.945 125.86C334.358 125.62 333.832 125.273 333.365 124.82C332.898 124.353 332.525 123.787 332.245 123.12C331.965 122.453 331.825 121.693 331.825 120.84C331.825 119.987 331.965 119.227 332.245 118.56C332.525 117.893 332.898 117.333 333.365 116.88C333.832 116.413 334.358 116.06 334.945 115.82C335.532 115.567 336.138 115.44 336.765 115.44C337.245 115.44 337.685 115.5 338.085 115.62C338.485 115.74 338.845 115.9 339.165 116.1C339.485 116.3 339.772 116.533 340.025 116.8C340.292 117.067 340.525 117.347 340.725 117.64V111.4H342.265V126ZM340.785 120.82C340.785 120.22 340.678 119.673 340.465 119.18C340.265 118.687 339.985 118.267 339.625 117.92C339.278 117.573 338.878 117.307 338.425 117.12C337.985 116.92 337.525 116.82 337.045 116.82C336.538 116.82 336.065 116.913 335.625 117.1C335.185 117.273 334.798 117.533 334.465 117.88C334.145 118.213 333.885 118.633 333.685 119.14C333.498 119.633 333.405 120.193 333.405 120.82C333.405 121.433 333.498 121.987 333.685 122.48C333.885 122.973 334.152 123.4 334.485 123.76C334.818 124.107 335.205 124.373 335.645 124.56C336.085 124.747 336.552 124.84 337.045 124.84C337.525 124.84 337.985 124.747 338.425 124.56C338.878 124.36 339.278 124.087 339.625 123.74C339.985 123.393 340.265 122.973 340.465 122.48C340.678 121.973 340.785 121.42 340.785 120.82ZM347.506 113.4H345.746V111.7H347.506V113.4ZM347.386 126H345.846V115.66H347.386V126ZM354.7 116.88C354.087 116.88 353.527 116.953 353.02 117.1C352.527 117.233 352.04 117.413 351.56 117.64L351.1 116.38C351.674 116.113 352.254 115.907 352.84 115.76C353.427 115.6 354.1 115.52 354.86 115.52C356.274 115.52 357.36 115.873 358.12 116.58C358.88 117.273 359.26 118.307 359.26 119.68V126H357.78V124.44C357.42 124.907 356.934 125.32 356.32 125.68C355.72 126.04 354.96 126.22 354.04 126.22C353.56 126.22 353.087 126.153 352.62 126.02C352.167 125.887 351.754 125.687 351.38 125.42C351.02 125.14 350.727 124.8 350.5 124.4C350.287 124 350.18 123.527 350.18 122.98C350.18 122.433 350.287 121.953 350.5 121.54C350.714 121.113 351.014 120.76 351.4 120.48C351.8 120.2 352.267 119.987 352.8 119.84C353.347 119.693 353.947 119.62 354.6 119.62C355.267 119.62 355.847 119.66 356.34 119.74C356.834 119.82 357.314 119.927 357.78 120.06V119.7C357.78 118.767 357.507 118.067 356.96 117.6C356.427 117.12 355.674 116.88 354.7 116.88ZM354.76 120.76C353.787 120.76 353.04 120.953 352.52 121.34C352 121.727 351.74 122.253 351.74 122.92C351.74 123.253 351.807 123.547 351.94 123.8C352.087 124.053 352.28 124.273 352.52 124.46C352.76 124.633 353.034 124.767 353.34 124.86C353.66 124.953 353.994 125 354.34 125C354.82 125 355.267 124.933 355.68 124.8C356.107 124.653 356.474 124.46 356.78 124.22C357.1 123.967 357.347 123.673 357.52 123.34C357.707 122.993 357.8 122.613 357.8 122.2V121.2C357.414 121.093 356.967 120.993 356.46 120.9C355.967 120.807 355.4 120.76 354.76 120.76ZM380.618 114.66L375.518 122.16H375.438L370.338 114.68V126H368.798V112H370.398L375.498 119.64L380.598 112H382.198V126H380.618V114.66ZM396.042 120.82C396.042 121.553 395.902 122.253 395.622 122.92C395.355 123.573 394.982 124.147 394.502 124.64C394.022 125.133 393.448 125.527 392.782 125.82C392.115 126.1 391.395 126.24 390.622 126.24C389.848 126.24 389.135 126.1 388.482 125.82C387.828 125.527 387.262 125.14 386.782 124.66C386.302 124.167 385.928 123.593 385.662 122.94C385.395 122.287 385.262 121.593 385.262 120.86C385.262 120.127 385.395 119.433 385.662 118.78C385.928 118.113 386.302 117.533 386.782 117.04C387.262 116.547 387.828 116.16 388.482 115.88C389.148 115.587 389.875 115.44 390.662 115.44C391.435 115.44 392.148 115.587 392.802 115.88C393.468 116.16 394.042 116.547 394.522 117.04C395.002 117.52 395.375 118.087 395.642 118.74C395.908 119.393 396.042 120.087 396.042 120.82ZM394.462 120.86C394.462 120.3 394.362 119.773 394.162 119.28C393.975 118.787 393.708 118.36 393.362 118C393.015 117.627 392.608 117.333 392.142 117.12C391.675 116.907 391.168 116.8 390.622 116.8C390.062 116.8 389.548 116.907 389.082 117.12C388.615 117.32 388.215 117.607 387.882 117.98C387.562 118.34 387.308 118.767 387.122 119.26C386.935 119.74 386.842 120.26 386.842 120.82C386.842 121.38 386.935 121.907 387.122 122.4C387.322 122.893 387.588 123.32 387.922 123.68C388.268 124.04 388.675 124.327 389.142 124.54C389.608 124.753 390.115 124.86 390.662 124.86C391.222 124.86 391.735 124.76 392.202 124.56C392.668 124.347 393.068 124.06 393.402 123.7C393.735 123.34 393.995 122.92 394.182 122.44C394.368 121.947 394.462 121.42 394.462 120.86ZM409.271 120.82C409.271 121.673 409.131 122.433 408.851 123.1C408.571 123.767 408.198 124.333 407.731 124.8C407.278 125.253 406.751 125.607 406.151 125.86C405.565 126.1 404.958 126.22 404.331 126.22C403.851 126.22 403.411 126.16 403.011 126.04C402.611 125.92 402.251 125.76 401.931 125.56C401.611 125.36 401.318 125.127 401.051 124.86C400.798 124.593 400.571 124.313 400.371 124.02V126H398.831V111.4H400.371V117.74C400.585 117.433 400.818 117.14 401.071 116.86C401.338 116.58 401.631 116.34 401.951 116.14C402.271 115.927 402.625 115.76 403.011 115.64C403.411 115.507 403.851 115.44 404.331 115.44C404.945 115.44 405.545 115.56 406.131 115.8C406.731 116.04 407.265 116.393 407.731 116.86C408.198 117.313 408.571 117.873 408.851 118.54C409.131 119.207 409.271 119.967 409.271 120.82ZM407.691 120.84C407.691 120.227 407.591 119.673 407.391 119.18C407.205 118.687 406.945 118.267 406.611 117.92C406.278 117.56 405.891 117.287 405.451 117.1C405.011 116.913 404.545 116.82 404.051 116.82C403.571 116.82 403.105 116.92 402.651 117.12C402.211 117.307 401.811 117.573 401.451 117.92C401.105 118.267 400.825 118.687 400.611 119.18C400.411 119.673 400.311 120.22 400.311 120.82C400.311 121.42 400.411 121.973 400.611 122.48C400.825 122.973 401.105 123.393 401.451 123.74C401.811 124.087 402.211 124.36 402.651 124.56C403.105 124.747 403.571 124.84 404.051 124.84C404.545 124.84 405.011 124.753 405.451 124.58C405.905 124.393 406.291 124.133 406.611 123.8C406.945 123.453 407.205 123.033 407.391 122.54C407.591 122.033 407.691 121.467 407.691 120.84ZM413.913 113.4H412.153V111.7H413.913V113.4ZM413.793 126H412.253V115.66H413.793V126ZM419.046 126H417.506V111.4H419.046V126ZM423.54 121.4C423.594 121.96 423.727 122.46 423.94 122.9C424.154 123.327 424.427 123.693 424.76 124C425.094 124.293 425.467 124.52 425.88 124.68C426.294 124.827 426.727 124.9 427.18 124.9C427.9 124.9 428.514 124.767 429.02 124.5C429.54 124.233 430.014 123.88 430.44 123.44L431.4 124.3C430.88 124.887 430.287 125.36 429.62 125.72C428.954 126.067 428.127 126.24 427.14 126.24C426.434 126.24 425.767 126.113 425.14 125.86C424.514 125.593 423.967 125.227 423.5 124.76C423.034 124.28 422.66 123.707 422.38 123.04C422.114 122.373 421.98 121.64 421.98 120.84C421.98 120.093 422.1 119.393 422.34 118.74C422.594 118.073 422.94 117.5 423.38 117.02C423.82 116.527 424.34 116.14 424.94 115.86C425.554 115.58 426.22 115.44 426.94 115.44C427.7 115.44 428.38 115.587 428.98 115.88C429.58 116.16 430.087 116.547 430.5 117.04C430.914 117.533 431.227 118.113 431.44 118.78C431.654 119.447 431.76 120.16 431.76 120.92C431.76 120.987 431.76 121.06 431.76 121.14C431.76 121.22 431.754 121.307 431.74 121.4H423.54ZM423.54 120.26H430.2C430.16 119.793 430.06 119.347 429.9 118.92C429.754 118.493 429.54 118.12 429.26 117.8C428.994 117.48 428.66 117.227 428.26 117.04C427.874 116.84 427.42 116.74 426.9 116.74C426.447 116.74 426.027 116.833 425.64 117.02C425.254 117.193 424.914 117.44 424.62 117.76C424.327 118.067 424.087 118.433 423.9 118.86C423.714 119.287 423.594 119.753 423.54 120.26ZM182.166 151.78C181.806 152.153 181.426 152.493 181.026 152.8C180.639 153.093 180.219 153.347 179.766 153.56C179.312 153.773 178.826 153.94 178.306 154.06C177.786 154.18 177.206 154.24 176.566 154.24C175.552 154.24 174.619 154.053 173.766 153.68C172.912 153.307 172.172 152.8 171.546 152.16C170.919 151.507 170.426 150.74 170.066 149.86C169.719 148.98 169.546 148.033 169.546 147.02C169.546 146.02 169.719 145.08 170.066 144.2C170.426 143.32 170.919 142.553 171.546 141.9C172.172 141.233 172.919 140.713 173.786 140.34C174.652 139.953 175.599 139.76 176.626 139.76C177.266 139.76 177.839 139.813 178.346 139.92C178.866 140.027 179.346 140.18 179.786 140.38C180.226 140.567 180.632 140.8 181.006 141.08C181.379 141.347 181.739 141.647 182.086 141.98L181.006 143.14C180.406 142.58 179.759 142.12 179.066 141.76C178.386 141.4 177.566 141.22 176.606 141.22C175.832 141.22 175.112 141.367 174.446 141.66C173.792 141.953 173.219 142.36 172.726 142.88C172.246 143.4 171.866 144.013 171.586 144.72C171.319 145.413 171.186 146.167 171.186 146.98C171.186 147.793 171.319 148.553 171.586 149.26C171.866 149.967 172.246 150.58 172.726 151.1C173.219 151.62 173.792 152.033 174.446 152.34C175.112 152.633 175.832 152.78 176.606 152.78C177.566 152.78 178.392 152.607 179.086 152.26C179.779 151.9 180.459 151.4 181.126 150.76L182.166 151.78ZM194.616 148.82C194.616 149.553 194.476 150.253 194.196 150.92C193.929 151.573 193.556 152.147 193.076 152.64C192.596 153.133 192.023 153.527 191.356 153.82C190.689 154.1 189.969 154.24 189.196 154.24C188.423 154.24 187.709 154.1 187.056 153.82C186.403 153.527 185.836 153.14 185.356 152.66C184.876 152.167 184.503 151.593 184.236 150.94C183.969 150.287 183.836 149.593 183.836 148.86C183.836 148.127 183.969 147.433 184.236 146.78C184.503 146.113 184.876 145.533 185.356 145.04C185.836 144.547 186.403 144.16 187.056 143.88C187.723 143.587 188.449 143.44 189.236 143.44C190.009 143.44 190.723 143.587 191.376 143.88C192.043 144.16 192.616 144.547 193.096 145.04C193.576 145.52 193.949 146.087 194.216 146.74C194.483 147.393 194.616 148.087 194.616 148.82ZM193.036 148.86C193.036 148.3 192.936 147.773 192.736 147.28C192.549 146.787 192.283 146.36 191.936 146C191.589 145.627 191.183 145.333 190.716 145.12C190.249 144.907 189.743 144.8 189.196 144.8C188.636 144.8 188.123 144.907 187.656 145.12C187.189 145.32 186.789 145.607 186.456 145.98C186.136 146.34 185.883 146.767 185.696 147.26C185.509 147.74 185.416 148.26 185.416 148.82C185.416 149.38 185.509 149.907 185.696 150.4C185.896 150.893 186.163 151.32 186.496 151.68C186.843 152.04 187.249 152.327 187.716 152.54C188.183 152.753 188.689 152.86 189.236 152.86C189.796 152.86 190.309 152.76 190.776 152.56C191.243 152.347 191.643 152.06 191.976 151.7C192.309 151.34 192.569 150.92 192.756 150.44C192.943 149.947 193.036 149.42 193.036 148.86ZM198.946 148.08V154H197.406V143.66H198.946V145.46C199.292 144.9 199.746 144.427 200.306 144.04C200.866 143.64 201.592 143.44 202.486 143.44C203.112 143.44 203.666 143.54 204.146 143.74C204.639 143.94 205.052 144.227 205.386 144.6C205.732 144.96 205.992 145.393 206.166 145.9C206.352 146.407 206.446 146.967 206.446 147.58V154H204.906V147.96C204.906 147 204.659 146.24 204.166 145.68C203.672 145.12 202.966 144.84 202.046 144.84C201.606 144.84 201.192 144.92 200.806 145.08C200.432 145.227 200.106 145.447 199.826 145.74C199.546 146.02 199.326 146.36 199.166 146.76C199.019 147.16 198.946 147.6 198.946 148.08ZM219.57 152.2C219.57 153.04 219.443 153.773 219.19 154.4C218.95 155.027 218.596 155.547 218.13 155.96C217.676 156.387 217.123 156.707 216.47 156.92C215.83 157.133 215.11 157.24 214.31 157.24C213.443 157.24 212.616 157.12 211.83 156.88C211.043 156.64 210.303 156.28 209.61 155.8L210.31 154.6C210.91 155.027 211.536 155.353 212.19 155.58C212.843 155.807 213.543 155.92 214.29 155.92C215.436 155.92 216.35 155.607 217.03 154.98C217.71 154.367 218.05 153.453 218.05 152.24V151.02C217.596 151.62 217.043 152.133 216.39 152.56C215.736 152.987 214.936 153.2 213.99 153.2C213.363 153.2 212.756 153.093 212.17 152.88C211.596 152.653 211.083 152.333 210.63 151.92C210.176 151.493 209.81 150.98 209.53 150.38C209.263 149.78 209.13 149.1 209.13 148.34C209.13 147.58 209.263 146.9 209.53 146.3C209.81 145.687 210.176 145.173 210.63 144.76C211.083 144.333 211.603 144.007 212.19 143.78C212.776 143.553 213.376 143.44 213.99 143.44C214.47 143.44 214.91 143.5 215.31 143.62C215.723 143.727 216.09 143.873 216.41 144.06C216.743 144.247 217.043 144.467 217.31 144.72C217.576 144.973 217.816 145.24 218.03 145.52V143.66H219.57V152.2ZM218.09 148.32C218.09 147.787 217.983 147.307 217.77 146.88C217.556 146.44 217.27 146.067 216.91 145.76C216.563 145.453 216.163 145.22 215.71 145.06C215.256 144.887 214.783 144.8 214.29 144.8C213.796 144.8 213.33 144.88 212.89 145.04C212.463 145.2 212.083 145.433 211.75 145.74C211.43 146.047 211.176 146.42 210.99 146.86C210.803 147.287 210.71 147.767 210.71 148.3C210.71 148.833 210.803 149.32 210.99 149.76C211.19 150.187 211.45 150.56 211.77 150.88C212.103 151.187 212.483 151.427 212.91 151.6C213.35 151.76 213.81 151.84 214.29 151.84C214.783 151.84 215.256 151.76 215.71 151.6C216.163 151.427 216.563 151.187 216.91 150.88C217.27 150.573 217.556 150.207 217.77 149.78C217.983 149.34 218.09 148.853 218.09 148.32ZM224.551 149.88V154H223.011V143.66H224.551V146.36C224.738 145.933 224.971 145.54 225.251 145.18C225.531 144.82 225.851 144.513 226.211 144.26C226.571 143.993 226.964 143.793 227.391 143.66C227.818 143.527 228.278 143.467 228.771 143.48V145.14H228.651C228.091 145.14 227.558 145.24 227.051 145.44C226.558 145.64 226.124 145.94 225.751 146.34C225.378 146.74 225.084 147.24 224.871 147.84C224.658 148.427 224.551 149.107 224.551 149.88ZM231.587 149.4C231.641 149.96 231.774 150.46 231.987 150.9C232.201 151.327 232.474 151.693 232.807 152C233.141 152.293 233.514 152.52 233.927 152.68C234.341 152.827 234.774 152.9 235.227 152.9C235.947 152.9 236.561 152.767 237.067 152.5C237.587 152.233 238.061 151.88 238.487 151.44L239.447 152.3C238.927 152.887 238.334 153.36 237.667 153.72C237.001 154.067 236.174 154.24 235.187 154.24C234.481 154.24 233.814 154.113 233.187 153.86C232.561 153.593 232.014 153.227 231.547 152.76C231.081 152.28 230.707 151.707 230.427 151.04C230.161 150.373 230.027 149.64 230.027 148.84C230.027 148.093 230.147 147.393 230.387 146.74C230.641 146.073 230.987 145.5 231.427 145.02C231.867 144.527 232.387 144.14 232.987 143.86C233.601 143.58 234.267 143.44 234.987 143.44C235.747 143.44 236.427 143.587 237.027 143.88C237.627 144.16 238.134 144.547 238.547 145.04C238.961 145.533 239.274 146.113 239.487 146.78C239.701 147.447 239.807 148.16 239.807 148.92C239.807 148.987 239.807 149.06 239.807 149.14C239.807 149.22 239.801 149.307 239.787 149.4H231.587ZM231.587 148.26H238.247C238.207 147.793 238.107 147.347 237.947 146.92C237.801 146.493 237.587 146.12 237.307 145.8C237.041 145.48 236.707 145.227 236.307 145.04C235.921 144.84 235.467 144.74 234.947 144.74C234.494 144.74 234.074 144.833 233.687 145.02C233.301 145.193 232.961 145.44 232.667 145.76C232.374 146.067 232.134 146.433 231.947 146.86C231.761 147.287 231.641 147.753 231.587 148.26ZM249.603 151.1C249.603 151.593 249.503 152.033 249.303 152.42C249.117 152.793 248.857 153.113 248.523 153.38C248.203 153.647 247.817 153.853 247.363 154C246.923 154.133 246.443 154.2 245.923 154.2C245.177 154.2 244.423 154.067 243.663 153.8C242.903 153.52 242.23 153.147 241.643 152.68L242.423 151.58C242.983 152.007 243.563 152.333 244.163 152.56C244.777 152.787 245.39 152.9 246.003 152.9C246.63 152.9 247.143 152.753 247.543 152.46C247.943 152.167 248.143 151.767 248.143 151.26V151.22C248.143 150.967 248.07 150.747 247.923 150.56C247.79 150.373 247.603 150.213 247.363 150.08C247.123 149.933 246.843 149.807 246.523 149.7C246.217 149.593 245.897 149.493 245.563 149.4C245.163 149.28 244.757 149.153 244.343 149.02C243.943 148.873 243.577 148.693 243.243 148.48C242.923 148.267 242.657 148 242.443 147.68C242.243 147.36 242.143 146.96 242.143 146.48V146.44C242.143 146 242.23 145.6 242.403 145.24C242.577 144.867 242.817 144.553 243.123 144.3C243.443 144.033 243.817 143.833 244.243 143.7C244.683 143.553 245.157 143.48 245.663 143.48C246.303 143.48 246.95 143.587 247.603 143.8C248.257 144 248.85 144.273 249.383 144.62L248.683 145.78C248.203 145.473 247.697 145.233 247.163 145.06C246.643 144.873 246.13 144.78 245.623 144.78C245.01 144.78 244.523 144.927 244.163 145.22C243.803 145.5 243.623 145.853 243.623 146.28V146.32C243.623 146.56 243.697 146.773 243.843 146.96C243.99 147.133 244.183 147.287 244.423 147.42C244.677 147.553 244.963 147.673 245.283 147.78C245.603 147.887 245.937 147.993 246.283 148.1C246.683 148.22 247.077 148.353 247.463 148.5C247.863 148.647 248.223 148.833 248.543 149.06C248.863 149.287 249.117 149.56 249.303 149.88C249.503 150.2 249.603 150.593 249.603 151.06V151.1ZM259.369 151.1C259.369 151.593 259.269 152.033 259.069 152.42C258.882 152.793 258.622 153.113 258.289 153.38C257.969 153.647 257.582 153.853 257.129 154C256.689 154.133 256.209 154.2 255.689 154.2C254.942 154.2 254.189 154.067 253.429 153.8C252.669 153.52 251.995 153.147 251.409 152.68L252.189 151.58C252.749 152.007 253.329 152.333 253.929 152.56C254.542 152.787 255.155 152.9 255.769 152.9C256.395 152.9 256.909 152.753 257.309 152.46C257.709 152.167 257.909 151.767 257.909 151.26V151.22C257.909 150.967 257.835 150.747 257.689 150.56C257.555 150.373 257.369 150.213 257.129 150.08C256.889 149.933 256.609 149.807 256.289 149.7C255.982 149.593 255.662 149.493 255.329 149.4C254.929 149.28 254.522 149.153 254.109 149.02C253.709 148.873 253.342 148.693 253.009 148.48C252.689 148.267 252.422 148 252.209 147.68C252.009 147.36 251.909 146.96 251.909 146.48V146.44C251.909 146 251.995 145.6 252.169 145.24C252.342 144.867 252.582 144.553 252.889 144.3C253.209 144.033 253.582 143.833 254.009 143.7C254.449 143.553 254.922 143.48 255.429 143.48C256.069 143.48 256.715 143.587 257.369 143.8C258.022 144 258.615 144.273 259.149 144.62L258.449 145.78C257.969 145.473 257.462 145.233 256.929 145.06C256.409 144.873 255.895 144.78 255.389 144.78C254.775 144.78 254.289 144.927 253.929 145.22C253.569 145.5 253.389 145.853 253.389 146.28V146.32C253.389 146.56 253.462 146.773 253.609 146.96C253.755 147.133 253.949 147.287 254.189 147.42C254.442 147.553 254.729 147.673 255.049 147.78C255.369 147.887 255.702 147.993 256.049 148.1C256.449 148.22 256.842 148.353 257.229 148.5C257.629 148.647 257.989 148.833 258.309 149.06C258.629 149.287 258.882 149.56 259.069 149.88C259.269 150.2 259.369 150.593 259.369 151.06V151.1ZM274.066 140.72C272.533 141.693 271.373 142.793 270.586 144.02C269.813 145.233 269.426 146.647 269.426 148.26C269.426 149.873 269.813 151.293 270.586 152.52C271.373 153.733 272.533 154.827 274.066 155.8L273.406 156.82C271.619 155.82 270.246 154.607 269.286 153.18C268.339 151.753 267.866 150.113 267.866 148.26C267.866 146.407 268.339 144.767 269.286 143.34C270.246 141.913 271.619 140.7 273.406 139.7L274.066 140.72ZM277.298 140H278.878V154H277.298V140ZM294.798 142.66L289.698 150.16H289.618L284.518 142.68V154H282.978V140H284.578L289.678 147.64L294.778 140H296.378V154H294.798V142.66ZM312.341 151.78C311.981 152.153 311.601 152.493 311.201 152.8C310.815 153.093 310.395 153.347 309.941 153.56C309.488 153.773 309.001 153.94 308.481 154.06C307.961 154.18 307.381 154.24 306.741 154.24C305.728 154.24 304.795 154.053 303.941 153.68C303.088 153.307 302.348 152.8 301.721 152.16C301.095 151.507 300.601 150.74 300.241 149.86C299.895 148.98 299.721 148.033 299.721 147.02C299.721 146.02 299.895 145.08 300.241 144.2C300.601 143.32 301.095 142.553 301.721 141.9C302.348 141.233 303.095 140.713 303.961 140.34C304.828 139.953 305.775 139.76 306.801 139.76C307.441 139.76 308.015 139.813 308.521 139.92C309.041 140.027 309.521 140.18 309.961 140.38C310.401 140.567 310.808 140.8 311.181 141.08C311.555 141.347 311.915 141.647 312.261 141.98L311.181 143.14C310.581 142.58 309.935 142.12 309.241 141.76C308.561 141.4 307.741 141.22 306.781 141.22C306.008 141.22 305.288 141.367 304.621 141.66C303.968 141.953 303.395 142.36 302.901 142.88C302.421 143.4 302.041 144.013 301.761 144.72C301.495 145.413 301.361 146.167 301.361 146.98C301.361 147.793 301.495 148.553 301.761 149.26C302.041 149.967 302.421 150.58 302.901 151.1C303.395 151.62 303.968 152.033 304.621 152.34C305.288 152.633 306.008 152.78 306.781 152.78C307.741 152.78 308.568 152.607 309.261 152.26C309.955 151.9 310.635 151.4 311.301 150.76L312.341 151.78ZM314.247 140.72L314.907 139.7C316.694 140.7 318.06 141.913 319.007 143.34C319.967 144.767 320.447 146.407 320.447 148.26C320.447 150.113 319.967 151.753 319.007 153.18C318.06 154.607 316.694 155.82 314.907 156.82L314.247 155.8C315.78 154.827 316.934 153.733 317.707 152.52C318.494 151.293 318.887 149.873 318.887 148.26C318.887 146.647 318.494 145.233 317.707 144.02C316.934 142.793 315.78 141.693 314.247 140.72ZM333.935 141.22C333.135 141.22 332.448 141.427 331.875 141.84C331.302 142.24 330.735 142.833 330.175 143.62L329.015 142.78C329.335 142.313 329.662 141.893 329.995 141.52C330.328 141.147 330.688 140.833 331.075 140.58C331.475 140.327 331.915 140.133 332.395 140C332.888 139.867 333.442 139.8 334.055 139.8C334.695 139.8 335.275 139.9 335.795 140.1C336.328 140.3 336.788 140.58 337.175 140.94C337.562 141.287 337.862 141.707 338.075 142.2C338.288 142.68 338.395 143.207 338.395 143.78C338.395 144.3 338.322 144.773 338.175 145.2C338.042 145.627 337.828 146.053 337.535 146.48C337.242 146.893 336.875 147.327 336.435 147.78C335.995 148.22 335.468 148.707 334.855 149.24L331.115 152.56H338.535V154H328.755V152.78L333.835 148.3C334.368 147.82 334.822 147.387 335.195 147C335.568 146.613 335.868 146.253 336.095 145.92C336.335 145.573 336.502 145.24 336.595 144.92C336.702 144.587 336.755 144.247 336.755 143.9C336.755 143.487 336.675 143.12 336.515 142.8C336.368 142.467 336.168 142.187 335.915 141.96C335.662 141.72 335.362 141.54 335.015 141.42C334.668 141.287 334.308 141.22 333.935 141.22ZM352.828 146.98C352.828 147.967 352.688 148.9 352.408 149.78C352.128 150.66 351.728 151.433 351.208 152.1C350.701 152.753 350.081 153.273 349.348 153.66C348.614 154.047 347.801 154.24 346.908 154.24C346.001 154.24 345.181 154.053 344.448 153.68C343.728 153.293 343.108 152.773 342.588 152.12C342.081 151.453 341.688 150.687 341.408 149.82C341.141 148.94 341.008 148.007 341.008 147.02C341.008 146.033 341.148 145.1 341.428 144.22C341.708 143.34 342.101 142.573 342.608 141.92C343.128 141.253 343.754 140.727 344.488 140.34C345.221 139.953 346.041 139.76 346.948 139.76C347.841 139.76 348.648 139.953 349.368 140.34C350.101 140.713 350.721 141.233 351.228 141.9C351.748 142.553 352.141 143.32 352.408 144.2C352.688 145.067 352.828 145.993 352.828 146.98ZM351.188 147.02C351.188 146.247 351.088 145.513 350.888 144.82C350.688 144.113 350.401 143.493 350.028 142.96C349.654 142.427 349.201 142 348.668 141.68C348.148 141.36 347.561 141.2 346.908 141.2C346.254 141.2 345.661 141.36 345.128 141.68C344.608 141.987 344.161 142.407 343.788 142.94C343.428 143.46 343.148 144.073 342.948 144.78C342.748 145.473 342.648 146.207 342.648 146.98C342.648 147.753 342.748 148.493 342.948 149.2C343.148 149.907 343.434 150.527 343.808 151.06C344.181 151.593 344.634 152.02 345.168 152.34C345.701 152.647 346.294 152.8 346.948 152.8C347.601 152.8 348.188 152.647 348.708 152.34C349.241 152.02 349.688 151.6 350.048 151.08C350.421 150.547 350.701 149.933 350.888 149.24C351.088 148.533 351.188 147.793 351.188 147.02ZM360.009 141.22C359.209 141.22 358.522 141.427 357.949 141.84C357.376 142.24 356.809 142.833 356.249 143.62L355.089 142.78C355.409 142.313 355.736 141.893 356.069 141.52C356.402 141.147 356.762 140.833 357.149 140.58C357.549 140.327 357.989 140.133 358.469 140C358.962 139.867 359.516 139.8 360.129 139.8C360.769 139.8 361.349 139.9 361.869 140.1C362.402 140.3 362.862 140.58 363.249 140.94C363.636 141.287 363.936 141.707 364.149 142.2C364.362 142.68 364.469 143.207 364.469 143.78C364.469 144.3 364.396 144.773 364.249 145.2C364.116 145.627 363.902 146.053 363.609 146.48C363.316 146.893 362.949 147.327 362.509 147.78C362.069 148.22 361.542 148.707 360.929 149.24L357.189 152.56H364.609V154H354.829V152.78L359.909 148.3C360.442 147.82 360.896 147.387 361.269 147C361.642 146.613 361.942 146.253 362.169 145.92C362.409 145.573 362.576 145.24 362.669 144.92C362.776 144.587 362.829 144.247 362.829 143.9C362.829 143.487 362.749 143.12 362.589 142.8C362.442 142.467 362.242 142.187 361.989 141.96C361.736 141.72 361.436 141.54 361.089 141.42C360.742 141.287 360.382 141.22 360.009 141.22ZM371.982 141.22C371.182 141.22 370.495 141.427 369.922 141.84C369.348 142.24 368.782 142.833 368.222 143.62L367.062 142.78C367.382 142.313 367.708 141.893 368.042 141.52C368.375 141.147 368.735 140.833 369.122 140.58C369.522 140.327 369.962 140.133 370.442 140C370.935 139.867 371.488 139.8 372.102 139.8C372.742 139.8 373.322 139.9 373.842 140.1C374.375 140.3 374.835 140.58 375.222 140.94C375.608 141.287 375.908 141.707 376.122 142.2C376.335 142.68 376.442 143.207 376.442 143.78C376.442 144.3 376.368 144.773 376.222 145.2C376.088 145.627 375.875 146.053 375.582 146.48C375.288 146.893 374.922 147.327 374.482 147.78C374.042 148.22 373.515 148.707 372.902 149.24L369.162 152.56H376.582V154H366.802V152.78L371.882 148.3C372.415 147.82 372.868 147.387 373.242 147C373.615 146.613 373.915 146.253 374.142 145.92C374.382 145.573 374.548 145.24 374.642 144.92C374.748 144.587 374.802 144.247 374.802 143.9C374.802 143.487 374.722 143.12 374.562 142.8C374.415 142.467 374.215 142.187 373.962 141.96C373.708 141.72 373.408 141.54 373.062 141.42C372.715 141.287 372.355 141.22 371.982 141.22Z" fill="#3E3E3E"/>
</svg>
