<svg width="547" height="195" viewBox="0 0 547 195" fill="none" xmlns="http://www.w3.org/2000/svg">
<g opacity="0.5">
<path d="M92.7379 194.582C92.6651 194.582 92.5892 194.576 92.5164 194.564C71.1571 191.187 53.6601 178.872 41.9155 158.953C34.2577 145.962 29.4761 130.343 28.0896 113.777C26.7274 97.5083 28.7116 81.4643 33.8269 67.3807C39.6886 51.2365 50.7384 36.5581 65.7809 24.9325C66.3998 24.4561 67.2888 24.5684 67.7651 25.1874C68.2445 25.8065 68.1292 26.6957 67.5103 27.1721C52.8925 38.4699 42.1643 52.7083 36.4847 68.3487C26.2935 96.4158 29.4549 132.248 44.3488 157.515C55.6504 176.684 72.4557 188.528 92.9533 191.769C93.7239 191.891 94.2519 192.616 94.1305 193.39C94.0213 194.088 93.4175 194.585 92.7349 194.585L92.7379 194.582Z" fill="#9BB7E0"/>
<path d="M71.1374 186.474C71.1374 186.474 84.5476 164.858 65.0148 134.13C64.2806 135.775 54.678 162.698 71.1374 186.474Z" fill="#3D86C6"/>
<path d="M58.3442 177.704C58.3442 177.704 33.7628 184.231 10.0703 156.583C11.8573 156.358 40.4072 155.026 58.3442 177.704Z" fill="#3D86C6"/>
<path d="M36.7477 146.432C36.7477 146.432 11.5201 143.207 0 108.664C1.73848 109.128 28.6834 118.663 36.7477 146.432Z" fill="#3D86C6"/>
<path d="M28.626 111.741C28.626 111.741 5.77099 100.576 5.96213 64.1641C7.45789 65.1655 29.9125 82.8512 28.626 111.741Z" fill="#3D86C6"/>
<path d="M32.2739 75.0311C32.2739 75.0311 13.2477 58.1496 23.1871 23.1211C24.3612 24.4867 41.2545 47.5436 32.2739 75.0311Z" fill="#3D86C6"/>
<path d="M44.0624 48.9027C44.0624 48.9027 33.3038 27.0262 53.9593 0C54.5115 1.63262 61.2955 28.1339 44.0624 48.9027Z" fill="#3D86C6"/>
<path d="M45.4895 162.804C45.4895 162.804 66.1965 144.014 55.89 106.266C54.5975 107.762 36.1873 132 45.4895 162.804Z" fill="#3D86C6"/>
<path d="M30.4766 120.696C30.4766 120.696 52.1878 108.381 53.0039 71.6685C51.4475 72.7306 30.5281 89.1235 30.4766 120.696Z" fill="#3D86C6"/>
<path d="M51.2119 45.7892C57.4346 41.2677 64.5948 38.1511 71.9826 36.0117C71.9674 37.5442 71.755 39.0736 71.3576 40.5545C70.863 42.3874 70.0803 44.1323 69.2216 45.8226C62.3406 59.3448 48.3569 72.1539 33.0898 75.1552C33.1384 73.4345 34.3004 71.1313 34.7798 69.444C37.5468 59.6908 42.9534 51.7917 51.2149 45.7892H51.2119Z" fill="#3D86C6"/>
<path d="M68.1913 22.0829C78.3339 13.8834 91.3345 9.29199 104.375 9.30717C104.687 13.4069 99.2866 17.1941 96.4559 19.3335C89.9753 24.2344 83.1579 27.5725 75.2331 29.7119C70.3545 31.0289 64.8721 32.088 59.8083 32.0789C59.6566 32.0789 59.4837 32.0667 59.3927 31.9484C59.2592 31.7785 59.3866 31.5326 59.514 31.3566C60.5153 29.9668 61.8108 28.8197 62.8636 27.4693C64.4382 25.4513 66.204 23.6912 68.1943 22.0829H68.1913Z" fill="#3D86C6"/>
</g>
<g opacity="0.5">
<path d="M453.647 194.582C452.965 194.582 452.361 194.084 452.252 193.386C452.13 192.616 452.655 191.89 453.429 191.766C473.924 188.525 490.732 176.681 502.034 157.511C516.93 132.245 520.092 96.4124 509.898 68.3453C504.218 52.7049 493.49 38.4665 478.872 27.1687C478.253 26.6892 478.141 25.8031 478.617 25.184C479.097 24.565 479.982 24.4527 480.601 24.9291C495.644 36.5547 506.694 51.2331 512.555 67.3772C517.671 81.4609 519.655 97.5049 518.293 113.773C516.906 130.336 512.128 145.958 504.467 158.95C492.722 178.869 475.225 191.183 453.866 194.561C453.79 194.573 453.717 194.579 453.644 194.579L453.647 194.582Z" fill="#9BB7E0"/>
<path d="M475.251 186.474C475.251 186.474 461.841 164.858 481.374 134.13C482.108 135.775 491.711 162.698 475.251 186.474Z" fill="#3D86C6"/>
<path d="M488.043 177.704C488.043 177.704 512.624 184.231 536.317 156.583C534.53 156.358 505.98 155.026 488.043 177.704Z" fill="#3D86C6"/>
<path d="M509.637 146.432C509.637 146.432 534.864 143.21 546.384 108.664C544.646 109.128 517.701 118.663 509.637 146.432Z" fill="#3D86C6"/>
<path d="M517.76 111.74C517.76 111.74 540.615 100.579 540.424 64.1636C538.928 65.165 516.474 82.8507 517.76 111.74Z" fill="#3D86C6"/>
<path d="M514.112 75.0306C514.112 75.0306 533.138 58.1491 523.199 23.1206C522.025 24.4862 505.132 47.5431 514.112 75.0306Z" fill="#3D86C6"/>
<path d="M502.324 48.9027C502.324 48.9027 513.083 27.0262 492.427 0C491.875 1.63262 485.091 28.1339 502.324 48.9027Z" fill="#3D86C6"/>
<path d="M500.898 162.804C500.898 162.804 480.191 144.014 490.497 106.266C491.79 107.762 510.2 132 500.898 162.804Z" fill="#3D86C6"/>
<path d="M515.914 120.696C515.914 120.696 494.203 108.381 493.387 71.6685C494.943 72.7306 515.863 89.1235 515.914 120.696Z" fill="#3D86C6"/>
<path d="M495.173 45.7892C488.95 41.2677 481.79 38.1511 474.402 36.0117C474.418 37.5442 474.63 39.0736 475.027 40.5545C475.522 42.3874 476.305 44.1323 477.163 45.8226C484.044 59.3448 498.028 72.1539 513.295 75.1552C513.247 73.4345 512.085 71.1313 511.605 69.444C508.838 59.6908 503.432 51.7917 495.17 45.7892H495.173Z" fill="#3D86C6"/>
<path d="M478.196 22.0829C468.054 13.8834 455.056 9.29199 442.013 9.30717C441.7 13.4069 447.101 17.1941 449.932 19.3335C456.412 24.2344 463.23 27.5725 471.154 29.7119C476.033 31.0289 481.516 32.088 486.579 32.0789C486.731 32.0789 486.904 32.0667 486.995 31.9484C487.128 31.7785 487.001 31.5326 486.874 31.3566C485.872 29.9668 484.577 28.8197 483.524 27.4693C481.949 25.4513 480.184 23.6912 478.193 22.0829H478.196Z" fill="#3D86C6"/>
</g>
<path d="M181.97 67.03C180.89 67.95 179.6 68.74 178.1 69.4C176.62 70.04 174.92 70.36 173 70.36C171.36 70.36 169.86 70.09 168.5 69.55C167.16 69.01 166 68.26 165.02 67.3C164.06 66.34 163.31 65.2 162.77 63.88C162.23 62.56 161.96 61.12 161.96 59.56V59.5C161.96 58 162.23 56.6 162.77 55.3C163.33 53.98 164.1 52.83 165.08 51.85C166.06 50.85 167.22 50.07 168.56 49.51C169.9 48.93 171.37 48.64 172.97 48.64C173.91 48.64 174.76 48.71 175.52 48.85C176.3 48.97 177.02 49.15 177.68 49.39C178.34 49.63 178.96 49.93 179.54 50.29C180.12 50.65 180.68 51.06 181.22 51.52L178.31 55.03C177.91 54.69 177.51 54.39 177.11 54.13C176.71 53.87 176.29 53.65 175.85 53.47C175.43 53.29 174.97 53.15 174.47 53.05C173.97 52.95 173.42 52.9 172.82 52.9C171.98 52.9 171.19 53.08 170.45 53.44C169.73 53.78 169.09 54.25 168.53 54.85C167.99 55.43 167.56 56.12 167.24 56.92C166.94 57.7 166.79 58.54 166.79 59.44V59.5C166.79 60.46 166.94 61.35 167.24 62.17C167.56 62.97 168 63.67 168.56 64.27C169.14 64.87 169.81 65.34 170.57 65.68C171.35 66 172.21 66.16 173.15 66.16C174.87 66.16 176.32 65.74 177.5 64.9V61.9H172.85V57.91H181.97V67.03ZM207.806 59.5C207.806 61 207.526 62.41 206.966 63.73C206.406 65.03 205.626 66.18 204.626 67.18C203.646 68.16 202.466 68.94 201.086 69.52C199.726 70.08 198.236 70.36 196.616 70.36C194.996 70.36 193.506 70.08 192.146 69.52C190.786 68.94 189.606 68.17 188.606 67.21C187.626 66.23 186.856 65.09 186.296 63.79C185.756 62.47 185.486 61.06 185.486 59.56V59.5C185.486 58 185.766 56.6 186.326 55.3C186.886 53.98 187.656 52.83 188.636 51.85C189.636 50.85 190.816 50.07 192.176 49.51C193.556 48.93 195.056 48.64 196.676 48.64C198.296 48.64 199.786 48.93 201.146 49.51C202.506 50.07 203.676 50.84 204.656 51.82C205.656 52.78 206.426 53.92 206.966 55.24C207.526 56.54 207.806 57.94 207.806 59.44V59.5ZM202.976 59.56V59.5C202.976 58.6 202.816 57.75 202.496 56.95C202.196 56.15 201.756 55.45 201.176 54.85C200.616 54.25 199.946 53.78 199.166 53.44C198.386 53.08 197.536 52.9 196.616 52.9C195.676 52.9 194.816 53.07 194.036 53.41C193.276 53.75 192.616 54.22 192.056 54.82C191.516 55.42 191.086 56.12 190.766 56.92C190.466 57.7 190.316 58.54 190.316 59.44V59.5C190.316 60.4 190.466 61.25 190.766 62.05C191.086 62.85 191.526 63.55 192.086 64.15C192.666 64.75 193.336 65.23 194.096 65.59C194.876 65.93 195.736 66.1 196.676 66.1C197.596 66.1 198.446 65.93 199.226 65.59C200.006 65.25 200.666 64.78 201.206 64.18C201.766 63.58 202.196 62.89 202.496 62.11C202.816 61.31 202.976 60.46 202.976 59.56ZM226.994 70H211.904V49H216.524V65.8H226.994V70ZM249.828 59.5C249.828 60.98 249.558 62.36 249.018 63.64C248.478 64.92 247.708 66.03 246.708 66.97C245.728 67.91 244.548 68.65 243.168 69.19C241.808 69.73 240.308 70 238.668 70H230.478V49H238.668C240.308 49 241.808 49.27 243.168 49.81C244.548 50.33 245.728 51.06 246.708 52C247.708 52.94 248.478 54.05 249.018 55.33C249.558 56.59 249.828 57.96 249.828 59.44V59.5ZM244.998 59.56V59.5C244.998 58.58 244.838 57.73 244.518 56.95C244.218 56.17 243.788 55.5 243.228 54.94C242.688 54.38 242.028 53.95 241.248 53.65C240.468 53.33 239.608 53.17 238.668 53.17H235.098V65.83H238.668C239.608 65.83 240.468 65.68 241.248 65.38C242.028 65.08 242.688 64.65 243.228 64.09C243.788 63.53 244.218 62.87 244.518 62.11C244.838 61.35 244.998 60.5 244.998 59.56ZM283.399 70H278.569L276.649 65.29H267.769L265.849 70H261.139L270.139 48.85H274.399L283.399 70ZM274.999 61.21L272.209 54.4L269.419 61.21H274.999ZM316.88 49L309.71 70.15H305.69L300.95 56.41L296.21 70.15H292.19L285.02 49H289.97L294.32 63.22L299.03 48.94H302.99L307.7 63.22L312.05 49H316.88ZM340.762 70H335.932L334.012 65.29H325.132L323.212 70H318.502L327.502 48.85H331.762L340.762 70ZM332.362 61.21L329.572 54.4L326.782 61.21H332.362ZM362.153 70H356.753L352.253 63.28H348.623V70H344.003V49H353.603C356.103 49 358.043 49.61 359.423 50.83C360.823 52.05 361.523 53.75 361.523 55.93V55.99C361.523 57.69 361.103 59.08 360.263 60.16C359.443 61.22 358.363 62 357.023 62.5L362.153 70ZM356.843 56.23V56.17C356.843 55.17 356.523 54.42 355.883 53.92C355.243 53.42 354.353 53.17 353.213 53.17H348.623V59.2H353.303C354.443 59.2 355.313 58.93 355.913 58.39C356.533 57.85 356.843 57.13 356.843 56.23ZM385.033 59.5C385.033 60.98 384.763 62.36 384.223 63.64C383.683 64.92 382.913 66.03 381.913 66.97C380.933 67.91 379.753 68.65 378.373 69.19C377.013 69.73 375.513 70 373.873 70H365.683V49H373.873C375.513 49 377.013 49.27 378.373 49.81C379.753 50.33 380.933 51.06 381.913 52C382.913 52.94 383.683 54.05 384.223 55.33C384.763 56.59 385.033 57.96 385.033 59.44V59.5ZM380.203 59.56V59.5C380.203 58.58 380.043 57.73 379.723 56.95C379.423 56.17 378.993 55.5 378.433 54.94C377.893 54.38 377.233 53.95 376.453 53.65C375.673 53.33 374.813 53.17 373.873 53.17H370.303V65.83H373.873C374.813 65.83 375.673 65.68 376.453 65.38C377.233 65.08 377.893 64.65 378.433 64.09C378.993 63.53 379.423 62.87 379.723 62.11C380.043 61.35 380.203 60.5 380.203 59.56Z" fill="#AD3088"/>
<path d="M131.112 85.4H129.352V83.7H131.112V85.4ZM130.992 98H129.452V87.66H130.992V98ZM136.106 92.08V98H134.566V87.66H136.106V89.46C136.452 88.9 136.906 88.4267 137.466 88.04C138.026 87.64 138.752 87.44 139.646 87.44C140.272 87.44 140.826 87.54 141.306 87.74C141.799 87.94 142.212 88.2267 142.546 88.6C142.892 88.96 143.152 89.3933 143.326 89.9C143.512 90.4067 143.606 90.9667 143.606 91.58V98H142.066V91.96C142.066 91 141.819 90.24 141.326 89.68C140.832 89.12 140.126 88.84 139.206 88.84C138.766 88.84 138.352 88.92 137.966 89.08C137.592 89.2267 137.266 89.4467 136.986 89.74C136.706 90.02 136.486 90.36 136.326 90.76C136.179 91.16 136.106 91.6 136.106 92.08ZM151.646 85.1L155.666 83.9H157.766V98H154.726V87.02L152.286 87.62L151.646 85.1ZM167.904 83.9H170.504V92.48H172.384V94.98H170.504V98H167.564V94.98H160.724L160.224 92.8L167.904 83.9ZM167.564 92.48V88.12L163.844 92.48H167.564ZM180.773 97.56C180.453 97.7467 180.099 97.8933 179.713 98C179.326 98.12 178.879 98.18 178.373 98.18C177.906 98.18 177.479 98.1267 177.093 98.02C176.719 97.9267 176.393 97.7533 176.113 97.5C175.846 97.2467 175.633 96.92 175.473 96.52C175.326 96.1067 175.253 95.5867 175.253 94.96V89.88H173.973V87.28H175.253V84.54H178.293V87.28H180.813V89.88H178.293V94.46C178.293 95.1533 178.619 95.5 179.273 95.5C179.806 95.5 180.306 95.3733 180.773 95.12V97.56ZM192.873 98H189.833V92.02C189.833 91.3 189.673 90.76 189.353 90.4C189.033 90.0267 188.58 89.84 187.993 89.84C187.407 89.84 186.94 90.0267 186.593 90.4C186.26 90.76 186.093 91.3 186.093 92.02V98H183.053V83.4H186.093V88.8C186.267 88.5733 186.453 88.36 186.653 88.16C186.867 87.9467 187.1 87.76 187.353 87.6C187.607 87.44 187.887 87.3133 188.193 87.22C188.5 87.1267 188.847 87.08 189.233 87.08C190.393 87.08 191.287 87.4333 191.913 88.14C192.553 88.8467 192.873 89.82 192.873 91.06V98ZM212.49 98H201.83V84H212.39V86.74H204.89V89.58H211.49V92.32H204.89V95.26H212.49V98ZM227.569 98H223.969L220.829 93.2L217.669 98H214.169L219.049 90.88L214.369 84H217.969L220.909 88.54L223.869 84H227.369L222.689 90.84L227.569 98ZM242.177 95.74C241.817 96.1267 241.444 96.4733 241.057 96.78C240.671 97.0867 240.244 97.3533 239.777 97.58C239.324 97.7933 238.824 97.9533 238.277 98.06C237.731 98.18 237.117 98.24 236.437 98.24C235.411 98.24 234.457 98.0533 233.577 97.68C232.697 97.3067 231.937 96.8 231.297 96.16C230.657 95.5067 230.157 94.74 229.797 93.86C229.437 92.98 229.257 92.04 229.257 91.04V91C229.257 90 229.437 89.0667 229.797 88.2C230.157 87.32 230.657 86.5533 231.297 85.9C231.937 85.2333 232.704 84.7133 233.597 84.34C234.491 83.9533 235.477 83.76 236.557 83.76C237.211 83.76 237.804 83.8133 238.337 83.92C238.884 84.0267 239.377 84.1733 239.817 84.36C240.257 84.5467 240.664 84.7733 241.037 85.04C241.411 85.3067 241.757 85.6 242.077 85.92L240.117 88.18C239.571 87.6867 239.011 87.3 238.437 87.02C237.877 86.74 237.244 86.6 236.537 86.6C235.951 86.6 235.404 86.7133 234.897 86.94C234.404 87.1667 233.977 87.48 233.617 87.88C233.257 88.28 232.977 88.7467 232.777 89.28C232.577 89.8 232.477 90.36 232.477 90.96V91C232.477 91.6 232.577 92.1667 232.777 92.7C232.977 93.2333 233.251 93.7 233.597 94.1C233.957 94.5 234.384 94.82 234.877 95.06C235.384 95.2867 235.937 95.4 236.537 95.4C237.337 95.4 238.011 95.2533 238.557 94.96C239.117 94.6667 239.671 94.2667 240.217 93.76L242.177 95.74ZM255.303 98H244.643V84H255.203V86.74H247.703V89.58H254.303V92.32H247.703V95.26H255.303V98ZM268.701 98H258.041V84H268.601V86.74H261.101V89.58H267.701V92.32H261.101V95.26H268.701V98ZM284.34 91C284.34 91.9867 284.16 92.9067 283.8 93.76C283.44 94.6133 282.926 95.3533 282.26 95.98C281.606 96.6067 280.82 97.1 279.9 97.46C278.993 97.82 277.993 98 276.9 98H271.44V84H276.9C277.993 84 278.993 84.18 279.9 84.54C280.82 84.8867 281.606 85.3733 282.26 86C282.926 86.6267 283.44 87.3667 283.8 88.22C284.16 89.06 284.34 89.9733 284.34 90.96V91ZM281.12 91.04V91C281.12 90.3867 281.013 89.82 280.8 89.3C280.6 88.78 280.313 88.3333 279.94 87.96C279.58 87.5867 279.14 87.3 278.62 87.1C278.1 86.8867 277.526 86.78 276.9 86.78H274.52V95.22H276.9C277.526 95.22 278.1 95.12 278.62 94.92C279.14 94.72 279.58 94.4333 279.94 94.06C280.313 93.6867 280.6 93.2467 280.8 92.74C281.013 92.2333 281.12 91.6667 281.12 91.04ZM305.8 96.02C305.08 96.6333 304.22 97.16 303.22 97.6C302.234 98.0267 301.1 98.24 299.82 98.24C298.727 98.24 297.727 98.06 296.82 97.7C295.927 97.34 295.154 96.84 294.5 96.2C293.86 95.56 293.36 94.8 293 93.92C292.64 93.04 292.46 92.08 292.46 91.04V91C292.46 90 292.64 89.0667 293 88.2C293.374 87.32 293.887 86.5533 294.54 85.9C295.194 85.2333 295.967 84.7133 296.86 84.34C297.754 83.9533 298.734 83.76 299.8 83.76C300.427 83.76 300.994 83.8067 301.5 83.9C302.02 83.98 302.5 84.1 302.94 84.26C303.38 84.42 303.794 84.62 304.18 84.86C304.567 85.1 304.94 85.3733 305.3 85.68L303.36 88.02C303.094 87.7933 302.827 87.5933 302.56 87.42C302.294 87.2467 302.014 87.1 301.72 86.98C301.44 86.86 301.134 86.7667 300.8 86.7C300.467 86.6333 300.1 86.6 299.7 86.6C299.14 86.6 298.614 86.72 298.12 86.96C297.64 87.1867 297.214 87.5 296.84 87.9C296.48 88.2867 296.194 88.7467 295.98 89.28C295.78 89.8 295.68 90.36 295.68 90.96V91C295.68 91.64 295.78 92.2333 295.98 92.78C296.194 93.3133 296.487 93.78 296.86 94.18C297.247 94.58 297.694 94.8933 298.2 95.12C298.72 95.3333 299.294 95.44 299.92 95.44C301.067 95.44 302.034 95.16 302.82 94.6V92.6H299.72V89.94H305.8V96.02ZM314.904 90.26H314.744C313.731 90.26 312.931 90.5667 312.344 91.18C311.771 91.7933 311.484 92.7467 311.484 94.04V98H308.444V87.28H311.484V89.44C311.791 88.7067 312.211 88.12 312.744 87.68C313.277 87.24 313.997 87.04 314.904 87.08V90.26ZM326.803 92.94C326.803 93.0867 326.797 93.2133 326.783 93.32C326.783 93.4267 326.777 93.5533 326.763 93.7H319.303C319.45 94.3933 319.75 94.92 320.203 95.28C320.67 95.6267 321.243 95.8 321.923 95.8C322.43 95.8 322.883 95.7133 323.283 95.54C323.683 95.3667 324.097 95.0867 324.523 94.7L326.263 96.24C325.757 96.8667 325.143 97.36 324.423 97.72C323.703 98.0667 322.857 98.24 321.883 98.24C321.083 98.24 320.337 98.1067 319.643 97.84C318.963 97.5733 318.37 97.1933 317.863 96.7C317.37 96.2067 316.983 95.6267 316.703 94.96C316.423 94.28 316.283 93.5267 316.283 92.7V92.66C316.283 91.9 316.41 91.18 316.663 90.5C316.93 89.82 317.297 89.2267 317.763 88.72C318.23 88.2133 318.783 87.8133 319.423 87.52C320.077 87.2267 320.797 87.08 321.583 87.08C322.477 87.08 323.25 87.24 323.903 87.56C324.557 87.88 325.097 88.3133 325.523 88.86C325.963 89.3933 326.283 90.0133 326.483 90.72C326.697 91.4133 326.803 92.14 326.803 92.9V92.94ZM323.843 91.8C323.75 91.12 323.51 90.5733 323.123 90.16C322.737 89.7333 322.223 89.52 321.583 89.52C320.943 89.52 320.423 89.7267 320.023 90.14C319.637 90.5533 319.383 91.1067 319.263 91.8H323.843ZM339.069 92.94C339.069 93.0867 339.062 93.2133 339.049 93.32C339.049 93.4267 339.042 93.5533 339.029 93.7H331.569C331.716 94.3933 332.016 94.92 332.469 95.28C332.936 95.6267 333.509 95.8 334.189 95.8C334.696 95.8 335.149 95.7133 335.549 95.54C335.949 95.3667 336.362 95.0867 336.789 94.7L338.529 96.24C338.022 96.8667 337.409 97.36 336.689 97.72C335.969 98.0667 335.122 98.24 334.149 98.24C333.349 98.24 332.602 98.1067 331.909 97.84C331.229 97.5733 330.636 97.1933 330.129 96.7C329.636 96.2067 329.249 95.6267 328.969 94.96C328.689 94.28 328.549 93.5267 328.549 92.7V92.66C328.549 91.9 328.676 91.18 328.929 90.5C329.196 89.82 329.562 89.2267 330.029 88.72C330.496 88.2133 331.049 87.8133 331.689 87.52C332.342 87.2267 333.062 87.08 333.849 87.08C334.742 87.08 335.516 87.24 336.169 87.56C336.822 87.88 337.362 88.3133 337.789 88.86C338.229 89.3933 338.549 90.0133 338.749 90.72C338.962 91.4133 339.069 92.14 339.069 92.9V92.94ZM336.109 91.8C336.016 91.12 335.776 90.5733 335.389 90.16C335.002 89.7333 334.489 89.52 333.849 89.52C333.209 89.52 332.689 89.7267 332.289 90.14C331.902 90.5533 331.649 91.1067 331.529 91.8H336.109ZM351.155 98H348.115V92.02C348.115 91.3 347.955 90.76 347.635 90.4C347.315 90.0267 346.861 89.84 346.275 89.84C345.688 89.84 345.221 90.0267 344.875 90.4C344.541 90.76 344.375 91.3 344.375 92.02V98H341.335V87.28H344.375V88.8C344.548 88.5733 344.735 88.36 344.935 88.16C345.148 87.9467 345.381 87.76 345.635 87.6C345.888 87.44 346.168 87.3133 346.475 87.22C346.781 87.1267 347.128 87.08 347.515 87.08C348.675 87.08 349.568 87.4333 350.195 88.14C350.835 88.8467 351.155 89.82 351.155 91.06V98ZM370.772 86.8H363.192V89.78H369.872V92.58H363.192V98H360.112V84H370.772V86.8ZM382.657 98H379.617V96.48C379.443 96.7067 379.25 96.9267 379.037 97.14C378.837 97.34 378.61 97.52 378.357 97.68C378.103 97.84 377.823 97.9667 377.517 98.06C377.21 98.1533 376.863 98.2 376.477 98.2C375.317 98.2 374.417 97.8467 373.777 97.14C373.15 96.4333 372.837 95.46 372.837 94.22V87.28H375.877V93.26C375.877 93.98 376.037 94.5267 376.357 94.9C376.677 95.26 377.13 95.44 377.717 95.44C378.303 95.44 378.763 95.26 379.097 94.9C379.443 94.5267 379.617 93.98 379.617 93.26V87.28H382.657V98ZM391.398 97.56C391.078 97.7467 390.724 97.8933 390.338 98C389.951 98.12 389.504 98.18 388.998 98.18C388.531 98.18 388.104 98.1267 387.718 98.02C387.344 97.9267 387.018 97.7533 386.738 97.5C386.471 97.2467 386.258 96.92 386.098 96.52C385.951 96.1067 385.878 95.5867 385.878 94.96V89.88H384.598V87.28H385.878V84.54H388.918V87.28H391.438V89.88H388.918V94.46C388.918 95.1533 389.244 95.5 389.898 95.5C390.431 95.5 390.931 95.3733 391.398 95.12V97.56ZM403.418 98H400.378V96.48C400.205 96.7067 400.012 96.9267 399.798 97.14C399.598 97.34 399.372 97.52 399.118 97.68C398.865 97.84 398.585 97.9667 398.278 98.06C397.972 98.1533 397.625 98.2 397.238 98.2C396.078 98.2 395.178 97.8467 394.538 97.14C393.912 96.4333 393.598 95.46 393.598 94.22V87.28H396.638V93.26C396.638 93.98 396.798 94.5267 397.118 94.9C397.438 95.26 397.892 95.44 398.478 95.44C399.065 95.44 399.525 95.26 399.858 94.9C400.205 94.5267 400.378 93.98 400.378 93.26V87.28H403.418V98ZM412.599 90.26H412.439C411.426 90.26 410.626 90.5667 410.039 91.18C409.466 91.7933 409.179 92.7467 409.179 94.04V98H406.139V87.28H409.179V89.44C409.486 88.7067 409.906 88.12 410.439 87.68C410.973 87.24 411.693 87.04 412.599 87.08V90.26ZM424.499 92.94C424.499 93.0867 424.492 93.2133 424.479 93.32C424.479 93.4267 424.472 93.5533 424.459 93.7H416.999C417.145 94.3933 417.445 94.92 417.899 95.28C418.365 95.6267 418.939 95.8 419.619 95.8C420.125 95.8 420.579 95.7133 420.979 95.54C421.379 95.3667 421.792 95.0867 422.219 94.7L423.959 96.24C423.452 96.8667 422.839 97.36 422.119 97.72C421.399 98.0667 420.552 98.24 419.579 98.24C418.779 98.24 418.032 98.1067 417.339 97.84C416.659 97.5733 416.065 97.1933 415.559 96.7C415.065 96.2067 414.679 95.6267 414.399 94.96C414.119 94.28 413.979 93.5267 413.979 92.7V92.66C413.979 91.9 414.105 91.18 414.359 90.5C414.625 89.82 414.992 89.2267 415.459 88.72C415.925 88.2133 416.479 87.8133 417.119 87.52C417.772 87.2267 418.492 87.08 419.279 87.08C420.172 87.08 420.945 87.24 421.599 87.56C422.252 87.88 422.792 88.3133 423.219 88.86C423.659 89.3933 423.979 90.0133 424.179 90.72C424.392 91.4133 424.499 92.14 424.499 92.9V92.94ZM421.539 91.8C421.445 91.12 421.205 90.5733 420.819 90.16C420.432 89.7333 419.919 89.52 419.279 89.52C418.639 89.52 418.119 89.7267 417.719 90.14C417.332 90.5533 417.079 91.1067 416.959 91.8H421.539ZM145.998 126H142.778L141.498 122.86H135.578L134.298 126H131.158L137.158 111.9H139.998L145.998 126ZM140.398 120.14L138.538 115.6L136.678 120.14H140.398ZM163.219 115.28L159.879 126.08H157.139L155.079 119.5L152.979 126.08H150.259L146.959 115.28H150.039L151.759 121.78L153.779 115.24H156.399L158.439 121.8L160.199 115.28H163.219ZM174.285 126H171.345V124.84C170.972 125.253 170.525 125.587 170.005 125.84C169.485 126.08 168.852 126.2 168.105 126.2C167.598 126.2 167.118 126.133 166.665 126C166.225 125.853 165.838 125.64 165.505 125.36C165.172 125.08 164.905 124.74 164.705 124.34C164.518 123.927 164.425 123.453 164.425 122.92V122.88C164.425 122.293 164.532 121.787 164.745 121.36C164.958 120.933 165.252 120.58 165.625 120.3C166.012 120.02 166.465 119.813 166.985 119.68C167.518 119.533 168.105 119.46 168.745 119.46C169.292 119.46 169.765 119.5 170.165 119.58C170.578 119.66 170.978 119.767 171.365 119.9V119.72C171.365 119.08 171.172 118.593 170.785 118.26C170.398 117.927 169.825 117.76 169.065 117.76C168.478 117.76 167.958 117.813 167.505 117.92C167.065 118.013 166.598 118.153 166.105 118.34L165.345 116.02C165.932 115.767 166.545 115.56 167.185 115.4C167.825 115.24 168.598 115.16 169.505 115.16C171.172 115.16 172.385 115.567 173.145 116.38C173.905 117.193 174.285 118.327 174.285 119.78V126ZM171.405 122.22V121.68C171.138 121.56 170.838 121.467 170.505 121.4C170.185 121.32 169.838 121.28 169.465 121.28C168.812 121.28 168.298 121.407 167.925 121.66C167.552 121.913 167.365 122.28 167.365 122.76V122.8C167.365 123.213 167.518 123.533 167.825 123.76C168.132 123.987 168.532 124.1 169.025 124.1C169.745 124.1 170.318 123.927 170.745 123.58C171.185 123.233 171.405 122.78 171.405 122.22ZM183.361 118.26H183.201C182.188 118.26 181.388 118.567 180.801 119.18C180.228 119.793 179.941 120.747 179.941 122.04V126H176.901V115.28H179.941V117.44C180.248 116.707 180.668 116.12 181.201 115.68C181.734 115.24 182.454 115.04 183.361 115.08V118.26ZM196.04 126H193V124.46C192.627 124.967 192.174 125.387 191.64 125.72C191.12 126.04 190.46 126.2 189.66 126.2C189.034 126.2 188.427 126.08 187.84 125.84C187.254 125.6 186.734 125.247 186.28 124.78C185.827 124.3 185.46 123.72 185.18 123.04C184.914 122.347 184.78 121.553 184.78 120.66V120.62C184.78 119.727 184.914 118.94 185.18 118.26C185.46 117.567 185.82 116.987 186.26 116.52C186.714 116.04 187.234 115.68 187.82 115.44C188.407 115.2 189.02 115.08 189.66 115.08C190.474 115.08 191.14 115.24 191.66 115.56C192.194 115.88 192.64 116.253 193 116.68V111.4H196.04V126ZM193.04 120.66V120.62C193.04 120.18 192.967 119.78 192.82 119.42C192.687 119.047 192.5 118.733 192.26 118.48C192.034 118.213 191.76 118.013 191.44 117.88C191.134 117.733 190.8 117.66 190.44 117.66C190.08 117.66 189.74 117.733 189.42 117.88C189.114 118.013 188.84 118.213 188.6 118.48C188.36 118.733 188.167 119.04 188.02 119.4C187.887 119.76 187.82 120.167 187.82 120.62V120.66C187.82 121.1 187.887 121.507 188.02 121.88C188.167 122.24 188.36 122.553 188.6 122.82C188.84 123.073 189.114 123.273 189.42 123.42C189.74 123.553 190.08 123.62 190.44 123.62C190.8 123.62 191.134 123.553 191.44 123.42C191.76 123.273 192.034 123.073 192.26 122.82C192.5 122.553 192.687 122.24 192.82 121.88C192.967 121.507 193.04 121.1 193.04 120.66ZM209.573 114.56C209.026 114.56 208.539 114.713 208.113 115.02C207.699 115.327 207.233 115.8 206.713 116.44L204.553 114.7C204.899 114.233 205.246 113.82 205.593 113.46C205.953 113.1 206.333 112.8 206.733 112.56C207.146 112.307 207.599 112.12 208.093 112C208.586 111.867 209.146 111.8 209.773 111.8C210.519 111.8 211.186 111.907 211.773 112.12C212.373 112.32 212.879 112.613 213.293 113C213.719 113.373 214.039 113.827 214.253 114.36C214.479 114.893 214.593 115.487 214.593 116.14C214.593 116.727 214.513 117.253 214.353 117.72C214.206 118.173 213.979 118.607 213.673 119.02C213.379 119.433 212.999 119.847 212.533 120.26C212.066 120.66 211.526 121.1 210.913 121.58L208.633 123.34H214.733V126H204.373V123.56L209.033 119.74C209.473 119.38 209.846 119.06 210.153 118.78C210.459 118.487 210.706 118.213 210.893 117.96C211.093 117.693 211.233 117.44 211.313 117.2C211.406 116.947 211.453 116.673 211.453 116.38C211.453 115.78 211.279 115.327 210.933 115.02C210.586 114.713 210.133 114.56 209.573 114.56ZM229.374 118.98C229.374 120.007 229.22 120.96 228.914 121.84C228.62 122.72 228.2 123.487 227.654 124.14C227.107 124.793 226.447 125.307 225.674 125.68C224.914 126.053 224.067 126.24 223.134 126.24C222.2 126.24 221.347 126.06 220.574 125.7C219.814 125.327 219.16 124.813 218.614 124.16C218.08 123.507 217.667 122.747 217.374 121.88C217.08 121 216.934 120.047 216.934 119.02C216.934 118.007 217.08 117.06 217.374 116.18C217.68 115.287 218.107 114.513 218.654 113.86C219.2 113.207 219.854 112.693 220.614 112.32C221.387 111.947 222.24 111.76 223.174 111.76C224.107 111.76 224.954 111.947 225.714 112.32C226.487 112.68 227.14 113.187 227.674 113.84C228.22 114.493 228.64 115.26 228.934 116.14C229.227 117.02 229.374 117.967 229.374 118.98ZM226.214 119.02C226.214 118.38 226.14 117.787 225.994 117.24C225.847 116.693 225.64 116.22 225.374 115.82C225.107 115.42 224.78 115.107 224.394 114.88C224.02 114.653 223.6 114.54 223.134 114.54C222.667 114.54 222.247 114.653 221.874 114.88C221.5 115.093 221.18 115.4 220.914 115.8C220.647 116.187 220.44 116.653 220.294 117.2C220.16 117.747 220.094 118.34 220.094 118.98C220.094 119.62 220.167 120.213 220.314 120.76C220.46 121.307 220.667 121.78 220.934 122.18C221.2 122.58 221.52 122.893 221.894 123.12C222.28 123.347 222.707 123.46 223.174 123.46C223.64 123.46 224.06 123.353 224.434 123.14C224.807 122.913 225.127 122.6 225.394 122.2C225.66 121.8 225.86 121.333 225.994 120.8C226.14 120.253 226.214 119.66 226.214 119.02ZM236.643 114.56C236.096 114.56 235.61 114.713 235.183 115.02C234.77 115.327 234.303 115.8 233.783 116.44L231.623 114.7C231.97 114.233 232.316 113.82 232.663 113.46C233.023 113.1 233.403 112.8 233.803 112.56C234.216 112.307 234.67 112.12 235.163 112C235.656 111.867 236.216 111.8 236.843 111.8C237.59 111.8 238.256 111.907 238.843 112.12C239.443 112.32 239.95 112.613 240.363 113C240.79 113.373 241.11 113.827 241.323 114.36C241.55 114.893 241.663 115.487 241.663 116.14C241.663 116.727 241.583 117.253 241.423 117.72C241.276 118.173 241.05 118.607 240.743 119.02C240.45 119.433 240.07 119.847 239.603 120.26C239.136 120.66 238.596 121.1 237.983 121.58L235.703 123.34H241.803V126H231.443V123.56L236.103 119.74C236.543 119.38 236.916 119.06 237.223 118.78C237.53 118.487 237.776 118.213 237.963 117.96C238.163 117.693 238.303 117.44 238.383 117.2C238.476 116.947 238.523 116.673 238.523 116.38C238.523 115.78 238.35 115.327 238.003 115.02C237.656 114.713 237.203 114.56 236.643 114.56ZM250.004 114.64H244.504V112H253.964V114.32L250.424 117.7C250.904 117.78 251.37 117.907 251.824 118.08C252.277 118.253 252.677 118.5 253.024 118.82C253.37 119.127 253.65 119.513 253.864 119.98C254.077 120.433 254.184 120.987 254.184 121.64C254.184 122.307 254.064 122.92 253.824 123.48C253.597 124.04 253.264 124.527 252.824 124.94C252.397 125.353 251.87 125.673 251.244 125.9C250.617 126.127 249.917 126.24 249.144 126.24C247.877 126.24 246.797 126.02 245.904 125.58C245.024 125.127 244.284 124.54 243.684 123.82L245.804 121.8C246.284 122.347 246.784 122.767 247.304 123.06C247.837 123.34 248.464 123.48 249.184 123.48C249.77 123.48 250.244 123.327 250.604 123.02C250.977 122.713 251.164 122.293 251.164 121.76C251.164 121.173 250.924 120.727 250.444 120.42C249.977 120.113 249.304 119.96 248.424 119.96H247.144L246.664 118L250.004 114.64ZM264.862 113.4H263.102V111.7H264.862V113.4ZM264.742 126H263.202V115.66H264.742V126ZM269.856 120.08V126H268.316V115.66H269.856V117.46C270.202 116.9 270.656 116.427 271.216 116.04C271.776 115.64 272.502 115.44 273.396 115.44C274.022 115.44 274.576 115.54 275.056 115.74C275.549 115.94 275.962 116.227 276.296 116.6C276.642 116.96 276.902 117.393 277.076 117.9C277.262 118.407 277.356 118.967 277.356 119.58V126H275.816V119.96C275.816 119 275.569 118.24 275.076 117.68C274.582 117.12 273.876 116.84 272.956 116.84C272.516 116.84 272.102 116.92 271.716 117.08C271.342 117.227 271.016 117.447 270.736 117.74C270.456 118.02 270.236 118.36 270.076 118.76C269.929 119.16 269.856 119.6 269.856 120.08ZM288.796 112.6C288.289 112.787 287.929 113.02 287.716 113.3C287.516 113.567 287.429 113.913 287.456 114.34H288.196V116.44H286.356V114.64C286.356 113.827 286.529 113.213 286.876 112.8C287.236 112.373 287.796 112.073 288.556 111.9L288.796 112.6ZM301.918 112V113.44H293.378V118.22H301.018V119.66H293.378V124.56H302.018V126H291.798V112H301.918ZM306.477 120.08V126H304.937V115.66H306.477V117.46C306.823 116.9 307.277 116.427 307.837 116.04C308.397 115.64 309.123 115.44 310.017 115.44C310.643 115.44 311.197 115.54 311.677 115.74C312.17 115.94 312.583 116.227 312.917 116.6C313.263 116.96 313.523 117.393 313.697 117.9C313.883 118.407 313.977 118.967 313.977 119.58V126H312.437V119.96C312.437 119 312.19 118.24 311.697 117.68C311.203 117.12 310.497 116.84 309.577 116.84C309.137 116.84 308.723 116.92 308.337 117.08C307.963 117.227 307.637 117.447 307.357 117.74C307.077 118.02 306.857 118.36 306.697 118.76C306.55 119.16 306.477 119.6 306.477 120.08ZM321.03 124.24L324.53 115.66H326.19L321.69 126.08H320.33L315.85 115.66H317.55L321.03 124.24ZM330.409 113.4H328.649V111.7H330.409V113.4ZM330.289 126H328.749V115.66H330.289V126ZM335.403 121.88V126H333.863V115.66H335.403V118.36C335.589 117.933 335.823 117.54 336.103 117.18C336.383 116.82 336.703 116.513 337.063 116.26C337.423 115.993 337.816 115.793 338.243 115.66C338.669 115.527 339.129 115.467 339.623 115.48V117.14H339.503C338.943 117.14 338.409 117.24 337.903 117.44C337.409 117.64 336.976 117.94 336.603 118.34C336.229 118.74 335.936 119.24 335.723 119.84C335.509 120.427 335.403 121.107 335.403 121.88ZM351.659 120.82C351.659 121.553 351.519 122.253 351.239 122.92C350.972 123.573 350.599 124.147 350.119 124.64C349.639 125.133 349.065 125.527 348.399 125.82C347.732 126.1 347.012 126.24 346.239 126.24C345.465 126.24 344.752 126.1 344.099 125.82C343.445 125.527 342.879 125.14 342.399 124.66C341.919 124.167 341.545 123.593 341.279 122.94C341.012 122.287 340.879 121.593 340.879 120.86C340.879 120.127 341.012 119.433 341.279 118.78C341.545 118.113 341.919 117.533 342.399 117.04C342.879 116.547 343.445 116.16 344.099 115.88C344.765 115.587 345.492 115.44 346.279 115.44C347.052 115.44 347.765 115.587 348.419 115.88C349.085 116.16 349.659 116.547 350.139 117.04C350.619 117.52 350.992 118.087 351.259 118.74C351.525 119.393 351.659 120.087 351.659 120.82ZM350.079 120.86C350.079 120.3 349.979 119.773 349.779 119.28C349.592 118.787 349.325 118.36 348.979 118C348.632 117.627 348.225 117.333 347.759 117.12C347.292 116.907 346.785 116.8 346.239 116.8C345.679 116.8 345.165 116.907 344.699 117.12C344.232 117.32 343.832 117.607 343.499 117.98C343.179 118.34 342.925 118.767 342.739 119.26C342.552 119.74 342.459 120.26 342.459 120.82C342.459 121.38 342.552 121.907 342.739 122.4C342.939 122.893 343.205 123.32 343.539 123.68C343.885 124.04 344.292 124.327 344.759 124.54C345.225 124.753 345.732 124.86 346.279 124.86C346.839 124.86 347.352 124.76 347.819 124.56C348.285 124.347 348.685 124.06 349.019 123.7C349.352 123.34 349.612 122.92 349.799 122.44C349.985 121.947 350.079 121.42 350.079 120.86ZM355.989 120.08V126H354.449V115.66H355.989V117.46C356.335 116.9 356.789 116.427 357.349 116.04C357.909 115.64 358.635 115.44 359.529 115.44C360.155 115.44 360.709 115.54 361.189 115.74C361.682 115.94 362.095 116.227 362.429 116.6C362.775 116.96 363.035 117.393 363.209 117.9C363.395 118.407 363.489 118.967 363.489 119.58V126H361.949V119.96C361.949 119 361.702 118.24 361.209 117.68C360.715 117.12 360.009 116.84 359.089 116.84C358.649 116.84 358.235 116.92 357.849 117.08C357.475 117.227 357.149 117.447 356.869 117.74C356.589 118.02 356.369 118.36 356.209 118.76C356.062 119.16 355.989 119.6 355.989 120.08ZM374.973 117.5C375.159 117.22 375.366 116.953 375.593 116.7C375.833 116.447 376.099 116.227 376.393 116.04C376.686 115.853 377.013 115.707 377.373 115.6C377.746 115.493 378.159 115.44 378.613 115.44C379.813 115.44 380.753 115.813 381.433 116.56C382.113 117.293 382.453 118.307 382.453 119.6V126H380.913V119.96C380.913 118.96 380.673 118.193 380.193 117.66C379.726 117.113 379.073 116.84 378.233 116.84C377.846 116.84 377.479 116.913 377.133 117.06C376.786 117.193 376.479 117.4 376.213 117.68C375.959 117.947 375.753 118.28 375.593 118.68C375.446 119.08 375.373 119.533 375.373 120.04V126H373.853V119.92C373.853 118.947 373.613 118.193 373.133 117.66C372.666 117.113 372.019 116.84 371.193 116.84C370.779 116.84 370.399 116.92 370.053 117.08C369.706 117.24 369.399 117.467 369.133 117.76C368.879 118.053 368.679 118.4 368.533 118.8C368.386 119.187 368.313 119.62 368.313 120.1V126H366.773V115.66H368.313V117.4C368.486 117.147 368.673 116.9 368.873 116.66C369.086 116.42 369.326 116.213 369.593 116.04C369.859 115.853 370.159 115.707 370.493 115.6C370.826 115.493 371.213 115.44 371.653 115.44C372.493 115.44 373.186 115.64 373.733 116.04C374.279 116.427 374.693 116.913 374.973 117.5ZM386.716 121.4C386.77 121.96 386.903 122.46 387.116 122.9C387.33 123.327 387.603 123.693 387.936 124C388.27 124.293 388.643 124.52 389.056 124.68C389.47 124.827 389.903 124.9 390.356 124.9C391.076 124.9 391.69 124.767 392.196 124.5C392.716 124.233 393.19 123.88 393.616 123.44L394.576 124.3C394.056 124.887 393.463 125.36 392.796 125.72C392.13 126.067 391.303 126.24 390.316 126.24C389.61 126.24 388.943 126.113 388.316 125.86C387.69 125.593 387.143 125.227 386.676 124.76C386.21 124.28 385.836 123.707 385.556 123.04C385.29 122.373 385.156 121.64 385.156 120.84C385.156 120.093 385.276 119.393 385.516 118.74C385.77 118.073 386.116 117.5 386.556 117.02C386.996 116.527 387.516 116.14 388.116 115.86C388.73 115.58 389.396 115.44 390.116 115.44C390.876 115.44 391.556 115.587 392.156 115.88C392.756 116.16 393.263 116.547 393.676 117.04C394.09 117.533 394.403 118.113 394.616 118.78C394.83 119.447 394.936 120.16 394.936 120.92C394.936 120.987 394.936 121.06 394.936 121.14C394.936 121.22 394.93 121.307 394.916 121.4H386.716ZM386.716 120.26H393.376C393.336 119.793 393.236 119.347 393.076 118.92C392.93 118.493 392.716 118.12 392.436 117.8C392.17 117.48 391.836 117.227 391.436 117.04C391.05 116.84 390.596 116.74 390.076 116.74C389.623 116.74 389.203 116.833 388.816 117.02C388.43 117.193 388.09 117.44 387.796 117.76C387.503 118.067 387.263 118.433 387.076 118.86C386.89 119.287 386.77 119.753 386.716 120.26ZM399.172 120.08V126H397.632V115.66H399.172V117.46C399.519 116.9 399.972 116.427 400.532 116.04C401.092 115.64 401.819 115.44 402.712 115.44C403.339 115.44 403.892 115.54 404.372 115.74C404.865 115.94 405.279 116.227 405.612 116.6C405.959 116.96 406.219 117.393 406.392 117.9C406.579 118.407 406.672 118.967 406.672 119.58V126H405.132V119.96C405.132 119 404.885 118.24 404.392 117.68C403.899 117.12 403.192 116.84 402.272 116.84C401.832 116.84 401.419 116.92 401.032 117.08C400.659 117.227 400.332 117.447 400.052 117.74C399.772 118.02 399.552 118.36 399.392 118.76C399.245 119.16 399.172 119.6 399.172 120.08ZM412.036 117.02V123.06C412.036 123.7 412.196 124.147 412.516 124.4C412.836 124.653 413.256 124.78 413.776 124.78C414.043 124.78 414.29 124.753 414.516 124.7C414.756 124.647 415.01 124.553 415.276 124.42V125.74C415.01 125.887 414.723 125.993 414.416 126.06C414.123 126.14 413.79 126.18 413.416 126.18C413.003 126.18 412.616 126.127 412.256 126.02C411.896 125.913 411.583 125.747 411.316 125.52C411.063 125.28 410.863 124.973 410.716 124.6C410.57 124.227 410.496 123.78 410.496 123.26V117.02H409.056V115.66H410.496V112.54H412.036V115.66H415.316V117.02H412.036ZM160.587 143.5C160.587 143.833 160.64 144.133 160.747 144.4C160.853 144.667 161.047 144.913 161.327 145.14C161.607 145.353 161.993 145.553 162.487 145.74C162.98 145.913 163.613 146.08 164.387 146.24C165.947 146.587 167.093 147.067 167.827 147.68C168.573 148.293 168.947 149.14 168.947 150.22C168.947 150.82 168.827 151.367 168.587 151.86C168.347 152.353 168.013 152.773 167.587 153.12C167.173 153.467 166.673 153.733 166.087 153.92C165.5 154.107 164.86 154.2 164.167 154.2C163.047 154.2 162.02 154.02 161.087 153.66C160.167 153.287 159.287 152.72 158.447 151.96L159.427 150.8C160.16 151.467 160.9 151.967 161.647 152.3C162.393 152.62 163.253 152.78 164.227 152.78C165.173 152.78 165.927 152.56 166.487 152.12C167.06 151.68 167.347 151.1 167.347 150.38C167.347 150.047 167.293 149.753 167.187 149.5C167.08 149.233 166.893 148.993 166.627 148.78C166.36 148.567 165.987 148.373 165.507 148.2C165.04 148.027 164.44 147.86 163.707 147.7C162.907 147.527 162.207 147.327 161.607 147.1C161.02 146.873 160.533 146.6 160.147 146.28C159.76 145.96 159.473 145.587 159.287 145.16C159.1 144.733 159.007 144.227 159.007 143.64C159.007 143.08 159.12 142.567 159.347 142.1C159.573 141.633 159.893 141.233 160.307 140.9C160.72 140.553 161.207 140.287 161.767 140.1C162.327 139.9 162.94 139.8 163.607 139.8C164.633 139.8 165.527 139.947 166.287 140.24C167.06 140.52 167.807 140.947 168.527 141.52L167.607 142.74C166.953 142.207 166.293 141.82 165.627 141.58C164.973 141.34 164.287 141.22 163.567 141.22C163.113 141.22 162.7 141.28 162.327 141.4C161.967 141.52 161.653 141.68 161.387 141.88C161.133 142.08 160.933 142.32 160.787 142.6C160.653 142.88 160.587 143.18 160.587 143.5ZM179.24 149.58V143.66H180.76V154H179.24V152.2C178.893 152.76 178.44 153.24 177.88 153.64C177.32 154.027 176.593 154.22 175.7 154.22C175.073 154.22 174.513 154.12 174.02 153.92C173.54 153.72 173.126 153.44 172.78 153.08C172.446 152.707 172.186 152.267 172 151.76C171.826 151.253 171.74 150.693 171.74 150.08V143.66H173.28V149.7C173.28 150.66 173.526 151.42 174.02 151.98C174.513 152.54 175.22 152.82 176.14 152.82C176.58 152.82 176.986 152.747 177.36 152.6C177.746 152.44 178.073 152.22 178.34 151.94C178.62 151.647 178.84 151.3 179 150.9C179.16 150.5 179.24 150.06 179.24 149.58ZM191.324 151.1C191.324 151.593 191.224 152.033 191.024 152.42C190.837 152.793 190.577 153.113 190.244 153.38C189.924 153.647 189.537 153.853 189.084 154C188.644 154.133 188.164 154.2 187.644 154.2C186.897 154.2 186.144 154.067 185.384 153.8C184.624 153.52 183.951 153.147 183.364 152.68L184.144 151.58C184.704 152.007 185.284 152.333 185.884 152.56C186.497 152.787 187.111 152.9 187.724 152.9C188.351 152.9 188.864 152.753 189.264 152.46C189.664 152.167 189.864 151.767 189.864 151.26V151.22C189.864 150.967 189.791 150.747 189.644 150.56C189.511 150.373 189.324 150.213 189.084 150.08C188.844 149.933 188.564 149.807 188.244 149.7C187.937 149.593 187.617 149.493 187.284 149.4C186.884 149.28 186.477 149.153 186.064 149.02C185.664 148.873 185.297 148.693 184.964 148.48C184.644 148.267 184.377 148 184.164 147.68C183.964 147.36 183.864 146.96 183.864 146.48V146.44C183.864 146 183.951 145.6 184.124 145.24C184.297 144.867 184.537 144.553 184.844 144.3C185.164 144.033 185.537 143.833 185.964 143.7C186.404 143.553 186.877 143.48 187.384 143.48C188.024 143.48 188.671 143.587 189.324 143.8C189.977 144 190.571 144.273 191.104 144.62L190.404 145.78C189.924 145.473 189.417 145.233 188.884 145.06C188.364 144.873 187.851 144.78 187.344 144.78C186.731 144.78 186.244 144.927 185.884 145.22C185.524 145.5 185.344 145.853 185.344 146.28V146.32C185.344 146.56 185.417 146.773 185.564 146.96C185.711 147.133 185.904 147.287 186.144 147.42C186.397 147.553 186.684 147.673 187.004 147.78C187.324 147.887 187.657 147.993 188.004 148.1C188.404 148.22 188.797 148.353 189.184 148.5C189.584 148.647 189.944 148.833 190.264 149.06C190.584 149.287 190.837 149.56 191.024 149.88C191.224 150.2 191.324 150.593 191.324 151.06V151.1ZM196.07 145.02V151.06C196.07 151.7 196.23 152.147 196.55 152.4C196.87 152.653 197.29 152.78 197.81 152.78C198.076 152.78 198.323 152.753 198.55 152.7C198.79 152.647 199.043 152.553 199.31 152.42V153.74C199.043 153.887 198.756 153.993 198.45 154.06C198.156 154.14 197.823 154.18 197.45 154.18C197.036 154.18 196.65 154.127 196.29 154.02C195.93 153.913 195.616 153.747 195.35 153.52C195.096 153.28 194.896 152.973 194.75 152.6C194.603 152.227 194.53 151.78 194.53 151.26V145.02H193.09V143.66H194.53V140.54H196.07V143.66H199.35V145.02H196.07ZM205.815 144.88C205.202 144.88 204.642 144.953 204.135 145.1C203.642 145.233 203.155 145.413 202.675 145.64L202.215 144.38C202.789 144.113 203.369 143.907 203.955 143.76C204.542 143.6 205.215 143.52 205.975 143.52C207.389 143.52 208.475 143.873 209.235 144.58C209.995 145.273 210.375 146.307 210.375 147.68V154H208.895V152.44C208.535 152.907 208.049 153.32 207.435 153.68C206.835 154.04 206.075 154.22 205.155 154.22C204.675 154.22 204.202 154.153 203.735 154.02C203.282 153.887 202.869 153.687 202.495 153.42C202.135 153.14 201.842 152.8 201.615 152.4C201.402 152 201.295 151.527 201.295 150.98C201.295 150.433 201.402 149.953 201.615 149.54C201.829 149.113 202.129 148.76 202.515 148.48C202.915 148.2 203.382 147.987 203.915 147.84C204.462 147.693 205.062 147.62 205.715 147.62C206.382 147.62 206.962 147.66 207.455 147.74C207.949 147.82 208.429 147.927 208.895 148.06V147.7C208.895 146.767 208.622 146.067 208.075 145.6C207.542 145.12 206.789 144.88 205.815 144.88ZM205.875 148.76C204.902 148.76 204.155 148.953 203.635 149.34C203.115 149.727 202.855 150.253 202.855 150.92C202.855 151.253 202.922 151.547 203.055 151.8C203.202 152.053 203.395 152.273 203.635 152.46C203.875 152.633 204.149 152.767 204.455 152.86C204.775 152.953 205.109 153 205.455 153C205.935 153 206.382 152.933 206.795 152.8C207.222 152.653 207.589 152.46 207.895 152.22C208.215 151.967 208.462 151.673 208.635 151.34C208.822 150.993 208.915 150.613 208.915 150.2V149.2C208.529 149.093 208.082 148.993 207.575 148.9C207.082 148.807 206.515 148.76 205.875 148.76ZM215.458 141.4H213.698V139.7H215.458V141.4ZM215.338 154H213.798V143.66H215.338V154ZM220.451 148.08V154H218.911V143.66H220.451V145.46C220.798 144.9 221.251 144.427 221.811 144.04C222.371 143.64 223.098 143.44 223.991 143.44C224.618 143.44 225.171 143.54 225.651 143.74C226.145 143.94 226.558 144.227 226.891 144.6C227.238 144.96 227.498 145.393 227.671 145.9C227.858 146.407 227.951 146.967 227.951 147.58V154H226.411V147.96C226.411 147 226.165 146.24 225.671 145.68C225.178 145.12 224.471 144.84 223.551 144.84C223.111 144.84 222.698 144.92 222.311 145.08C221.938 145.227 221.611 145.447 221.331 145.74C221.051 146.02 220.831 146.36 220.671 146.76C220.525 147.16 220.451 147.6 220.451 148.08ZM234.976 144.88C234.362 144.88 233.802 144.953 233.296 145.1C232.802 145.233 232.316 145.413 231.836 145.64L231.376 144.38C231.949 144.113 232.529 143.907 233.116 143.76C233.702 143.6 234.376 143.52 235.136 143.52C236.549 143.52 237.636 143.873 238.396 144.58C239.156 145.273 239.536 146.307 239.536 147.68V154H238.056V152.44C237.696 152.907 237.209 153.32 236.596 153.68C235.996 154.04 235.236 154.22 234.316 154.22C233.836 154.22 233.362 154.153 232.896 154.02C232.442 153.887 232.029 153.687 231.656 153.42C231.296 153.14 231.002 152.8 230.776 152.4C230.562 152 230.456 151.527 230.456 150.98C230.456 150.433 230.562 149.953 230.776 149.54C230.989 149.113 231.289 148.76 231.676 148.48C232.076 148.2 232.542 147.987 233.076 147.84C233.622 147.693 234.222 147.62 234.876 147.62C235.542 147.62 236.122 147.66 236.616 147.74C237.109 147.82 237.589 147.927 238.056 148.06V147.7C238.056 146.767 237.782 146.067 237.236 145.6C236.702 145.12 235.949 144.88 234.976 144.88ZM235.036 148.76C234.062 148.76 233.316 148.953 232.796 149.34C232.276 149.727 232.016 150.253 232.016 150.92C232.016 151.253 232.082 151.547 232.216 151.8C232.362 152.053 232.556 152.273 232.796 152.46C233.036 152.633 233.309 152.767 233.616 152.86C233.936 152.953 234.269 153 234.616 153C235.096 153 235.542 152.933 235.956 152.8C236.382 152.653 236.749 152.46 237.056 152.22C237.376 151.967 237.622 151.673 237.796 151.34C237.982 150.993 238.076 150.613 238.076 150.2V149.2C237.689 149.093 237.242 148.993 236.736 148.9C236.242 148.807 235.676 148.76 235.036 148.76ZM253.258 148.82C253.258 149.673 253.118 150.433 252.838 151.1C252.558 151.767 252.184 152.333 251.718 152.8C251.264 153.253 250.738 153.607 250.138 153.86C249.551 154.1 248.944 154.22 248.318 154.22C247.838 154.22 247.398 154.16 246.998 154.04C246.598 153.92 246.238 153.76 245.918 153.56C245.598 153.36 245.304 153.127 245.038 152.86C244.784 152.593 244.558 152.313 244.358 152.02V154H242.818V139.4H244.358V145.74C244.571 145.433 244.804 145.14 245.058 144.86C245.324 144.58 245.618 144.34 245.938 144.14C246.258 143.927 246.611 143.76 246.998 143.64C247.398 143.507 247.838 143.44 248.318 143.44C248.931 143.44 249.531 143.56 250.118 143.8C250.718 144.04 251.251 144.393 251.718 144.86C252.184 145.313 252.558 145.873 252.838 146.54C253.118 147.207 253.258 147.967 253.258 148.82ZM251.678 148.84C251.678 148.227 251.578 147.673 251.378 147.18C251.191 146.687 250.931 146.267 250.598 145.92C250.264 145.56 249.878 145.287 249.438 145.1C248.998 144.913 248.531 144.82 248.038 144.82C247.558 144.82 247.091 144.92 246.638 145.12C246.198 145.307 245.798 145.573 245.438 145.92C245.091 146.267 244.811 146.687 244.598 147.18C244.398 147.673 244.298 148.22 244.298 148.82C244.298 149.42 244.398 149.973 244.598 150.48C244.811 150.973 245.091 151.393 245.438 151.74C245.798 152.087 246.198 152.36 246.638 152.56C247.091 152.747 247.558 152.84 248.038 152.84C248.531 152.84 248.998 152.753 249.438 152.58C249.891 152.393 250.278 152.133 250.598 151.8C250.931 151.453 251.191 151.033 251.378 150.54C251.578 150.033 251.678 149.467 251.678 148.84ZM257.899 141.4H256.139V139.7H257.899V141.4ZM257.779 154H256.239V143.66H257.779V154ZM263.033 154H261.493V139.4H263.033V154ZM268.407 141.4H266.647V139.7H268.407V141.4ZM268.287 154H266.747V143.66H268.287V154ZM273.941 145.02V151.06C273.941 151.7 274.101 152.147 274.421 152.4C274.741 152.653 275.161 152.78 275.681 152.78C275.947 152.78 276.194 152.753 276.421 152.7C276.661 152.647 276.914 152.553 277.181 152.42V153.74C276.914 153.887 276.627 153.993 276.321 154.06C276.027 154.14 275.694 154.18 275.321 154.18C274.907 154.18 274.521 154.127 274.161 154.02C273.801 153.913 273.487 153.747 273.221 153.52C272.967 153.28 272.767 152.973 272.621 152.6C272.474 152.227 272.401 151.78 272.401 151.26V145.02H270.961V143.66H272.401V140.54H273.941V143.66H277.221V145.02H273.941ZM289.327 143.66L284.987 154.34C284.547 155.407 284.053 156.16 283.507 156.6C282.973 157.04 282.32 157.26 281.547 157.26C281.12 157.26 280.733 157.213 280.387 157.12C280.04 157.04 279.693 156.913 279.347 156.74L279.867 155.52C280.12 155.653 280.367 155.747 280.607 155.8C280.86 155.867 281.153 155.9 281.487 155.9C281.953 155.9 282.347 155.76 282.667 155.48C282.987 155.2 283.3 154.693 283.607 153.96L278.907 143.66H280.607L284.367 152.28L287.687 143.66H289.327ZM291.063 143.84C291.57 143.653 291.93 143.427 292.143 143.16C292.356 142.88 292.443 142.527 292.403 142.1H291.683V140H293.523V141.8C293.523 142.613 293.343 143.233 292.983 143.66C292.623 144.073 292.063 144.367 291.303 144.54L291.063 143.84ZM311.541 152.24C311.021 152.827 310.428 153.307 309.761 153.68C309.108 154.053 308.295 154.24 307.321 154.24C306.561 154.24 305.855 154.1 305.201 153.82C304.561 153.527 304.001 153.14 303.521 152.66C303.055 152.167 302.688 151.593 302.421 150.94C302.155 150.287 302.021 149.593 302.021 148.86C302.021 148.127 302.155 147.433 302.421 146.78C302.688 146.113 303.055 145.533 303.521 145.04C304.001 144.547 304.561 144.16 305.201 143.88C305.855 143.587 306.561 143.44 307.321 143.44C307.815 143.44 308.261 143.487 308.661 143.58C309.061 143.673 309.428 143.807 309.761 143.98C310.095 144.14 310.401 144.333 310.681 144.56C310.961 144.787 311.221 145.027 311.461 145.28L310.441 146.36C310.028 145.933 309.575 145.567 309.081 145.26C308.601 144.953 308.008 144.8 307.301 144.8C306.781 144.8 306.295 144.907 305.841 145.12C305.388 145.32 304.995 145.607 304.661 145.98C304.328 146.34 304.068 146.767 303.881 147.26C303.695 147.74 303.601 148.26 303.601 148.82C303.601 149.38 303.695 149.907 303.881 150.4C304.081 150.893 304.348 151.327 304.681 151.7C305.028 152.06 305.428 152.347 305.881 152.56C306.348 152.76 306.855 152.86 307.401 152.86C308.068 152.86 308.655 152.713 309.161 152.42C309.681 152.127 310.148 151.76 310.561 151.32L311.541 152.24ZM317.827 144.88C317.214 144.88 316.654 144.953 316.147 145.1C315.654 145.233 315.167 145.413 314.687 145.64L314.227 144.38C314.801 144.113 315.381 143.907 315.967 143.76C316.554 143.6 317.227 143.52 317.987 143.52C319.401 143.52 320.487 143.873 321.247 144.58C322.007 145.273 322.387 146.307 322.387 147.68V154H320.907V152.44C320.547 152.907 320.061 153.32 319.447 153.68C318.847 154.04 318.087 154.22 317.167 154.22C316.687 154.22 316.214 154.153 315.747 154.02C315.294 153.887 314.881 153.687 314.507 153.42C314.147 153.14 313.854 152.8 313.627 152.4C313.414 152 313.307 151.527 313.307 150.98C313.307 150.433 313.414 149.953 313.627 149.54C313.841 149.113 314.141 148.76 314.527 148.48C314.927 148.2 315.394 147.987 315.927 147.84C316.474 147.693 317.074 147.62 317.727 147.62C318.394 147.62 318.974 147.66 319.467 147.74C319.961 147.82 320.441 147.927 320.907 148.06V147.7C320.907 146.767 320.634 146.067 320.087 145.6C319.554 145.12 318.801 144.88 317.827 144.88ZM317.887 148.76C316.914 148.76 316.167 148.953 315.647 149.34C315.127 149.727 314.867 150.253 314.867 150.92C314.867 151.253 314.934 151.547 315.067 151.8C315.214 152.053 315.407 152.273 315.647 152.46C315.887 152.633 316.161 152.767 316.467 152.86C316.787 152.953 317.121 153 317.467 153C317.947 153 318.394 152.933 318.807 152.8C319.234 152.653 319.601 152.46 319.907 152.22C320.227 151.967 320.474 151.673 320.647 151.34C320.834 150.993 320.927 150.613 320.927 150.2V149.2C320.541 149.093 320.094 148.993 319.587 148.9C319.094 148.807 318.527 148.76 317.887 148.76ZM327.652 145.02V151.06C327.652 151.7 327.812 152.147 328.132 152.4C328.452 152.653 328.872 152.78 329.392 152.78C329.658 152.78 329.905 152.753 330.132 152.7C330.372 152.647 330.625 152.553 330.892 152.42V153.74C330.625 153.887 330.338 153.993 330.032 154.06C329.738 154.14 329.405 154.18 329.032 154.18C328.618 154.18 328.232 154.127 327.872 154.02C327.512 153.913 327.198 153.747 326.932 153.52C326.678 153.28 326.478 152.973 326.332 152.6C326.185 152.227 326.112 151.78 326.112 151.26V145.02H324.672V143.66H326.112V140.54H327.652V143.66H330.932V145.02H327.652ZM334.285 149.4C334.338 149.96 334.471 150.46 334.685 150.9C334.898 151.327 335.171 151.693 335.505 152C335.838 152.293 336.211 152.52 336.625 152.68C337.038 152.827 337.471 152.9 337.925 152.9C338.645 152.9 339.258 152.767 339.765 152.5C340.285 152.233 340.758 151.88 341.185 151.44L342.145 152.3C341.625 152.887 341.031 153.36 340.365 153.72C339.698 154.067 338.871 154.24 337.885 154.24C337.178 154.24 336.511 154.113 335.885 153.86C335.258 153.593 334.711 153.227 334.245 152.76C333.778 152.28 333.405 151.707 333.125 151.04C332.858 150.373 332.725 149.64 332.725 148.84C332.725 148.093 332.845 147.393 333.085 146.74C333.338 146.073 333.685 145.5 334.125 145.02C334.565 144.527 335.085 144.14 335.685 143.86C336.298 143.58 336.965 143.44 337.685 143.44C338.445 143.44 339.125 143.587 339.725 143.88C340.325 144.16 340.831 144.547 341.245 145.04C341.658 145.533 341.971 146.113 342.185 146.78C342.398 147.447 342.505 148.16 342.505 148.92C342.505 148.987 342.505 149.06 342.505 149.14C342.505 149.22 342.498 149.307 342.485 149.4H334.285ZM334.285 148.26H340.945C340.905 147.793 340.805 147.347 340.645 146.92C340.498 146.493 340.285 146.12 340.005 145.8C339.738 145.48 339.405 145.227 339.005 145.04C338.618 144.84 338.165 144.74 337.645 144.74C337.191 144.74 336.771 144.833 336.385 145.02C335.998 145.193 335.658 145.44 335.365 145.76C335.071 146.067 334.831 146.433 334.645 146.86C334.458 147.287 334.338 147.753 334.285 148.26ZM355.04 152.2C355.04 153.04 354.914 153.773 354.66 154.4C354.42 155.027 354.067 155.547 353.6 155.96C353.147 156.387 352.594 156.707 351.94 156.92C351.3 157.133 350.58 157.24 349.78 157.24C348.914 157.24 348.087 157.12 347.3 156.88C346.514 156.64 345.774 156.28 345.08 155.8L345.78 154.6C346.38 155.027 347.007 155.353 347.66 155.58C348.314 155.807 349.014 155.92 349.76 155.92C350.907 155.92 351.82 155.607 352.5 154.98C353.18 154.367 353.52 153.453 353.52 152.24V151.02C353.067 151.62 352.514 152.133 351.86 152.56C351.207 152.987 350.407 153.2 349.46 153.2C348.834 153.2 348.227 153.093 347.64 152.88C347.067 152.653 346.554 152.333 346.1 151.92C345.647 151.493 345.28 150.98 345 150.38C344.734 149.78 344.6 149.1 344.6 148.34C344.6 147.58 344.734 146.9 345 146.3C345.28 145.687 345.647 145.173 346.1 144.76C346.554 144.333 347.074 144.007 347.66 143.78C348.247 143.553 348.847 143.44 349.46 143.44C349.94 143.44 350.38 143.5 350.78 143.62C351.194 143.727 351.56 143.873 351.88 144.06C352.214 144.247 352.514 144.467 352.78 144.72C353.047 144.973 353.287 145.24 353.5 145.52V143.66H355.04V152.2ZM353.56 148.32C353.56 147.787 353.454 147.307 353.24 146.88C353.027 146.44 352.74 146.067 352.38 145.76C352.034 145.453 351.634 145.22 351.18 145.06C350.727 144.887 350.254 144.8 349.76 144.8C349.267 144.8 348.8 144.88 348.36 145.04C347.934 145.2 347.554 145.433 347.22 145.74C346.9 146.047 346.647 146.42 346.46 146.86C346.274 147.287 346.18 147.767 346.18 148.3C346.18 148.833 346.274 149.32 346.46 149.76C346.66 150.187 346.92 150.56 347.24 150.88C347.574 151.187 347.954 151.427 348.38 151.6C348.82 151.76 349.28 151.84 349.76 151.84C350.254 151.84 350.727 151.76 351.18 151.6C351.634 151.427 352.034 151.187 352.38 150.88C352.74 150.573 353.027 150.207 353.24 149.78C353.454 149.34 353.56 148.853 353.56 148.32ZM368.622 148.82C368.622 149.553 368.482 150.253 368.202 150.92C367.935 151.573 367.562 152.147 367.082 152.64C366.602 153.133 366.028 153.527 365.362 153.82C364.695 154.1 363.975 154.24 363.202 154.24C362.428 154.24 361.715 154.1 361.062 153.82C360.408 153.527 359.842 153.14 359.362 152.66C358.882 152.167 358.508 151.593 358.242 150.94C357.975 150.287 357.842 149.593 357.842 148.86C357.842 148.127 357.975 147.433 358.242 146.78C358.508 146.113 358.882 145.533 359.362 145.04C359.842 144.547 360.408 144.16 361.062 143.88C361.728 143.587 362.455 143.44 363.242 143.44C364.015 143.44 364.728 143.587 365.382 143.88C366.048 144.16 366.622 144.547 367.102 145.04C367.582 145.52 367.955 146.087 368.222 146.74C368.488 147.393 368.622 148.087 368.622 148.82ZM367.042 148.86C367.042 148.3 366.942 147.773 366.742 147.28C366.555 146.787 366.288 146.36 365.942 146C365.595 145.627 365.188 145.333 364.722 145.12C364.255 144.907 363.748 144.8 363.202 144.8C362.642 144.8 362.128 144.907 361.662 145.12C361.195 145.32 360.795 145.607 360.462 145.98C360.142 146.34 359.888 146.767 359.702 147.26C359.515 147.74 359.422 148.26 359.422 148.82C359.422 149.38 359.515 149.907 359.702 150.4C359.902 150.893 360.168 151.32 360.502 151.68C360.848 152.04 361.255 152.327 361.722 152.54C362.188 152.753 362.695 152.86 363.242 152.86C363.802 152.86 364.315 152.76 364.782 152.56C365.248 152.347 365.648 152.06 365.982 151.7C366.315 151.34 366.575 150.92 366.762 150.44C366.948 149.947 367.042 149.42 367.042 148.86ZM372.951 149.88V154H371.411V143.66H372.951V146.36C373.138 145.933 373.371 145.54 373.651 145.18C373.931 144.82 374.251 144.513 374.611 144.26C374.971 143.993 375.365 143.793 375.791 143.66C376.218 143.527 376.678 143.467 377.171 143.48V145.14H377.051C376.491 145.14 375.958 145.24 375.451 145.44C374.958 145.64 374.525 145.94 374.151 146.34C373.778 146.74 373.485 147.24 373.271 147.84C373.058 148.427 372.951 149.107 372.951 149.88ZM388.897 143.66L384.557 154.34C384.117 155.407 383.624 156.16 383.077 156.6C382.544 157.04 381.89 157.26 381.117 157.26C380.69 157.26 380.304 157.213 379.957 157.12C379.61 157.04 379.264 156.913 378.917 156.74L379.437 155.52C379.69 155.653 379.937 155.747 380.177 155.8C380.43 155.867 380.724 155.9 381.057 155.9C381.524 155.9 381.917 155.76 382.237 155.48C382.557 155.2 382.87 154.693 383.177 153.96L378.477 143.66H380.177L383.937 152.28L387.257 143.66H388.897Z" fill="#3E3E3E"/>
</svg>
