<svg width="547" height="195" viewBox="0 0 547 195" fill="none" xmlns="http://www.w3.org/2000/svg">
<g opacity="0.5">
<path d="M92.7379 194.582C92.6651 194.582 92.5892 194.576 92.5164 194.564C71.1571 191.187 53.6601 178.872 41.9155 158.953C34.2577 145.962 29.4761 130.343 28.0896 113.777C26.7274 97.5083 28.7116 81.4643 33.8269 67.3807C39.6886 51.2365 50.7384 36.5581 65.7809 24.9325C66.3998 24.4561 67.2888 24.5684 67.7651 25.1874C68.2445 25.8065 68.1292 26.6957 67.5103 27.1721C52.8925 38.4699 42.1643 52.7083 36.4847 68.3487C26.2935 96.4158 29.4549 132.248 44.3488 157.515C55.6504 176.684 72.4557 188.528 92.9533 191.769C93.7239 191.891 94.2519 192.616 94.1305 193.39C94.0213 194.088 93.4175 194.585 92.7349 194.585L92.7379 194.582Z" fill="#9BB7E0"/>
<path d="M71.1374 186.474C71.1374 186.474 84.5476 164.858 65.0148 134.13C64.2806 135.775 54.678 162.698 71.1374 186.474Z" fill="#3D86C6"/>
<path d="M58.3442 177.704C58.3442 177.704 33.7628 184.232 10.0703 156.583C11.8573 156.359 40.4072 155.027 58.3442 177.704Z" fill="#3D86C6"/>
<path d="M36.7477 146.432C36.7477 146.432 11.5201 143.206 0 108.663C1.73848 109.127 28.6834 118.662 36.7477 146.432Z" fill="#3D86C6"/>
<path d="M28.626 111.741C28.626 111.741 5.77099 100.576 5.96213 64.1641C7.45789 65.1655 29.9125 82.8512 28.626 111.741Z" fill="#3D86C6"/>
<path d="M32.2739 75.0311C32.2739 75.0311 13.2477 58.1496 23.1871 23.1211C24.3612 24.4867 41.2545 47.5436 32.2739 75.0311Z" fill="#3D86C6"/>
<path d="M44.0624 48.9027C44.0624 48.9027 33.3038 27.0262 53.9593 0C54.5115 1.63262 61.2955 28.1339 44.0624 48.9027Z" fill="#3D86C6"/>
<path d="M45.4895 162.803C45.4895 162.803 66.1965 144.013 55.89 106.266C54.5975 107.762 36.1873 131.999 45.4895 162.803Z" fill="#3D86C6"/>
<path d="M30.4766 120.696C30.4766 120.696 52.1878 108.382 53.0039 71.6689C51.4475 72.7311 30.5281 89.124 30.4766 120.696Z" fill="#3D86C6"/>
<path d="M51.2119 45.7892C57.4346 41.2677 64.5948 38.1511 71.9826 36.0117C71.9674 37.5442 71.755 39.0736 71.3576 40.5545C70.863 42.3874 70.0803 44.1323 69.2216 45.8226C62.3406 59.3448 48.3569 72.1539 33.0898 75.1552C33.1384 73.4345 34.3004 71.1313 34.7798 69.444C37.5468 59.6908 42.9534 51.7917 51.2149 45.7892H51.2119Z" fill="#3D86C6"/>
<path d="M68.1913 22.0824C78.3339 13.8829 91.3345 9.29151 104.375 9.30668C104.687 13.4064 99.2866 17.1936 96.4559 19.333C89.9753 24.2339 83.1579 27.572 75.2331 29.7114C70.3545 31.0284 64.8721 32.0875 59.8083 32.0784C59.6566 32.0784 59.4837 32.0663 59.3927 31.9479C59.2592 31.778 59.3866 31.5322 59.514 31.3562C60.5153 29.9663 61.8108 28.8192 62.8636 27.4688C64.4382 25.4508 66.204 23.6907 68.1943 22.0824H68.1913Z" fill="#3D86C6"/>
</g>
<g opacity="0.5">
<path d="M453.647 194.583C452.965 194.583 452.361 194.085 452.252 193.387C452.13 192.616 452.655 191.891 453.429 191.766C473.924 188.525 490.732 176.681 502.034 157.512C516.93 132.246 520.092 96.4129 509.898 68.3458C504.218 52.7054 493.49 38.467 478.872 27.1692C478.253 26.6897 478.141 25.8036 478.617 25.1845C479.097 24.5655 479.982 24.4532 480.601 24.9296C495.644 36.5552 506.694 51.2336 512.555 67.3777C517.671 81.4614 519.655 97.5053 518.293 113.774C516.906 130.337 512.128 145.959 504.467 158.95C492.722 178.869 475.225 191.184 453.866 194.561C453.79 194.573 453.717 194.579 453.644 194.579L453.647 194.583Z" fill="#9BB7E0"/>
<path d="M475.251 186.474C475.251 186.474 461.841 164.858 481.374 134.13C482.108 135.775 491.711 162.698 475.251 186.474Z" fill="#3D86C6"/>
<path d="M488.043 177.704C488.043 177.704 512.624 184.232 536.317 156.583C534.53 156.359 505.98 155.027 488.043 177.704Z" fill="#3D86C6"/>
<path d="M509.637 146.433C509.637 146.433 534.864 143.21 546.384 108.664C544.646 109.128 517.701 118.663 509.637 146.433Z" fill="#3D86C6"/>
<path d="M517.76 111.741C517.76 111.741 540.615 100.579 540.424 64.1641C538.928 65.1655 516.474 82.8512 517.76 111.741Z" fill="#3D86C6"/>
<path d="M514.112 75.0311C514.112 75.0311 533.138 58.1496 523.199 23.1211C522.025 24.4867 505.132 47.5436 514.112 75.0311Z" fill="#3D86C6"/>
<path d="M502.324 48.9027C502.324 48.9027 513.083 27.0262 492.427 0C491.875 1.63262 485.091 28.1339 502.324 48.9027Z" fill="#3D86C6"/>
<path d="M500.898 162.803C500.898 162.803 480.191 144.013 490.497 106.266C491.79 107.762 510.2 131.999 500.898 162.803Z" fill="#3D86C6"/>
<path d="M515.914 120.695C515.914 120.695 494.203 108.381 493.387 71.668C494.943 72.7301 515.863 89.123 515.914 120.695Z" fill="#3D86C6"/>
<path d="M495.173 45.7892C488.95 41.2677 481.79 38.1511 474.402 36.0117C474.418 37.5442 474.63 39.0736 475.027 40.5545C475.522 42.3874 476.305 44.1323 477.163 45.8226C484.044 59.3448 498.028 72.1539 513.295 75.1552C513.247 73.4345 512.085 71.1313 511.605 69.444C508.838 59.6908 503.432 51.7917 495.17 45.7892H495.173Z" fill="#3D86C6"/>
<path d="M478.196 22.0834C468.054 13.8838 455.056 9.29248 442.013 9.30765C441.7 13.4074 447.101 17.1946 449.932 19.334C456.412 24.2349 463.23 27.573 471.154 29.7124C476.033 31.0294 481.516 32.0885 486.579 32.0794C486.731 32.0794 486.904 32.0672 486.995 31.9489C487.128 31.7789 487.001 31.5331 486.874 31.3571C485.872 29.9673 484.577 28.8202 483.524 27.4698C481.949 25.4518 480.184 23.6917 478.193 22.0834H478.196Z" fill="#3D86C6"/>
</g>
<path d="M101.896 59.79C101.896 60.83 101.706 61.76 101.326 62.58C100.946 63.38 100.416 64.06 99.7363 64.62C99.0563 65.16 98.2463 65.58 97.3063 65.88C96.3663 66.16 95.3263 66.3 94.1863 66.3C92.5863 66.3 91.0163 66.03 89.4763 65.49C87.9363 64.93 86.5363 64.08 85.2763 62.94L88.0063 59.67C88.9663 60.45 89.9463 61.07 90.9463 61.53C91.9663 61.99 93.0763 62.22 94.2763 62.22C95.2363 62.22 95.9763 62.05 96.4963 61.71C97.0363 61.35 97.3063 60.86 97.3063 60.24V60.18C97.3063 59.88 97.2463 59.62 97.1263 59.4C97.0263 59.16 96.8163 58.94 96.4963 58.74C96.1963 58.54 95.7663 58.34 95.2063 58.14C94.6663 57.94 93.9563 57.73 93.0763 57.51C92.0163 57.25 91.0563 56.96 90.1963 56.64C89.3363 56.32 88.6063 55.93 88.0063 55.47C87.4063 54.99 86.9363 54.4 86.5963 53.7C86.2763 53 86.1163 52.13 86.1163 51.09V51.03C86.1163 50.07 86.2963 49.21 86.6563 48.45C87.0163 47.67 87.5163 47 88.1563 46.44C88.8163 45.88 89.5963 45.45 90.4963 45.15C91.3963 44.85 92.3863 44.7 93.4663 44.7C95.0063 44.7 96.4163 44.93 97.6963 45.39C98.9963 45.85 100.186 46.51 101.266 47.37L98.8663 50.85C97.9263 50.21 97.0063 49.71 96.1063 49.35C95.2063 48.97 94.3063 48.78 93.4063 48.78C92.5063 48.78 91.8263 48.96 91.3663 49.32C90.9263 49.66 90.7063 50.09 90.7063 50.61V50.67C90.7063 51.01 90.7663 51.31 90.8863 51.57C91.0263 51.81 91.2663 52.03 91.6063 52.23C91.9463 52.43 92.4063 52.62 92.9863 52.8C93.5863 52.98 94.3363 53.19 95.2363 53.43C96.2963 53.71 97.2363 54.03 98.0563 54.39C98.8963 54.73 99.5963 55.15 100.156 55.65C100.736 56.13 101.166 56.7 101.446 57.36C101.746 58.02 101.896 58.81 101.896 59.73V59.79ZM123.876 56.85C123.876 58.45 123.656 59.84 123.216 61.02C122.796 62.2 122.186 63.19 121.386 63.99C120.586 64.77 119.616 65.36 118.476 65.76C117.336 66.14 116.066 66.33 114.666 66.33C111.846 66.33 109.626 65.55 108.006 63.99C106.386 62.43 105.576 60.1 105.576 57V45H110.196V56.88C110.196 58.6 110.596 59.9 111.396 60.78C112.196 61.64 113.306 62.07 114.726 62.07C116.146 62.07 117.256 61.65 118.056 60.81C118.856 59.97 119.256 58.71 119.256 57.03V45H123.876V56.85ZM143.762 59.79C143.762 60.83 143.572 61.76 143.192 62.58C142.812 63.38 142.282 64.06 141.602 64.62C140.922 65.16 140.112 65.58 139.172 65.88C138.232 66.16 137.192 66.3 136.052 66.3C134.452 66.3 132.882 66.03 131.342 65.49C129.802 64.93 128.402 64.08 127.142 62.94L129.872 59.67C130.832 60.45 131.812 61.07 132.812 61.53C133.832 61.99 134.942 62.22 136.142 62.22C137.102 62.22 137.842 62.05 138.362 61.71C138.902 61.35 139.172 60.86 139.172 60.24V60.18C139.172 59.88 139.112 59.62 138.992 59.4C138.892 59.16 138.682 58.94 138.362 58.74C138.062 58.54 137.632 58.34 137.072 58.14C136.532 57.94 135.822 57.73 134.942 57.51C133.882 57.25 132.922 56.96 132.062 56.64C131.202 56.32 130.472 55.93 129.872 55.47C129.272 54.99 128.802 54.4 128.462 53.7C128.142 53 127.982 52.13 127.982 51.09V51.03C127.982 50.07 128.162 49.21 128.522 48.45C128.882 47.67 129.382 47 130.022 46.44C130.682 45.88 131.462 45.45 132.362 45.15C133.262 44.85 134.252 44.7 135.332 44.7C136.872 44.7 138.282 44.93 139.562 45.39C140.862 45.85 142.052 46.51 143.132 47.37L140.732 50.85C139.792 50.21 138.872 49.71 137.972 49.35C137.072 48.97 136.172 48.78 135.272 48.78C134.372 48.78 133.692 48.96 133.232 49.32C132.792 49.66 132.572 50.09 132.572 50.61V50.67C132.572 51.01 132.632 51.31 132.752 51.57C132.892 51.81 133.132 52.03 133.472 52.23C133.812 52.43 134.272 52.62 134.852 52.8C135.452 52.98 136.202 53.19 137.102 53.43C138.162 53.71 139.102 54.03 139.922 54.39C140.762 54.73 141.462 55.15 142.022 55.65C142.602 56.13 143.032 56.7 143.312 57.36C143.612 58.02 143.762 58.81 143.762 59.73V59.79ZM163.671 49.26H157.281V66H152.661V49.26H146.271V45H163.671V49.26ZM187.684 66H182.854L180.934 61.29H172.054L170.134 66H165.424L174.424 44.85H178.684L187.684 66ZM179.284 57.21L176.494 50.4L173.704 57.21H179.284ZM195.755 66H191.135V45H195.755V66ZM219.663 66H215.733L205.563 52.65V66H201.003V45H205.263L215.103 57.93V45H219.663V66ZM245.165 66H240.335L238.415 61.29H229.535L227.615 66H222.905L231.905 44.85H236.165L245.165 66ZM236.765 57.21L233.975 50.4L231.185 57.21H236.765ZM266.256 60.24C266.256 61.2 266.066 62.04 265.686 62.76C265.326 63.48 264.796 64.08 264.096 64.56C263.416 65.04 262.586 65.4 261.606 65.64C260.646 65.88 259.576 66 258.396 66H248.406V45H258.156C260.316 45 262.006 45.49 263.226 46.47C264.466 47.45 265.086 48.77 265.086 50.43V50.49C265.086 51.09 265.006 51.62 264.846 52.08C264.706 52.54 264.506 52.96 264.246 53.34C264.006 53.7 263.716 54.02 263.376 54.3C263.056 54.58 262.706 54.82 262.326 55.02C263.546 55.48 264.506 56.11 265.206 56.91C265.906 57.69 266.256 58.78 266.256 60.18V60.24ZM260.496 51.27V51.21C260.496 50.51 260.236 49.98 259.716 49.62C259.196 49.24 258.446 49.05 257.466 49.05H252.906V53.49H257.166C258.186 53.49 258.996 53.32 259.596 52.98C260.196 52.62 260.496 52.05 260.496 51.27ZM261.666 59.67V59.61C261.666 58.91 261.396 58.36 260.856 57.96C260.316 57.54 259.446 57.33 258.246 57.33H252.906V61.95H258.396C259.416 61.95 260.216 61.77 260.796 61.41C261.376 61.03 261.666 60.45 261.666 59.67ZM285.146 66H270.056V45H274.676V61.8H285.146V66ZM304.62 66H288.63V45H304.47V49.11H293.22V53.37H303.12V57.48H293.22V61.89H304.62V66ZM336.802 63.03C335.722 63.95 334.432 64.74 332.932 65.4C331.452 66.04 329.752 66.36 327.832 66.36C326.192 66.36 324.692 66.09 323.332 65.55C321.992 65.01 320.832 64.26 319.852 63.3C318.892 62.34 318.142 61.2 317.602 59.88C317.062 58.56 316.792 57.12 316.792 55.56V55.5C316.792 54 317.062 52.6 317.602 51.3C318.162 49.98 318.932 48.83 319.912 47.85C320.892 46.85 322.052 46.07 323.392 45.51C324.732 44.93 326.202 44.64 327.802 44.64C328.742 44.64 329.592 44.71 330.352 44.85C331.132 44.97 331.852 45.15 332.512 45.39C333.172 45.63 333.792 45.93 334.372 46.29C334.952 46.65 335.512 47.06 336.052 47.52L333.142 51.03C332.742 50.69 332.342 50.39 331.942 50.13C331.542 49.87 331.122 49.65 330.682 49.47C330.262 49.29 329.802 49.15 329.302 49.05C328.802 48.95 328.252 48.9 327.652 48.9C326.812 48.9 326.022 49.08 325.282 49.44C324.562 49.78 323.922 50.25 323.362 50.85C322.822 51.43 322.392 52.12 322.072 52.92C321.772 53.7 321.622 54.54 321.622 55.44V55.5C321.622 56.46 321.772 57.35 322.072 58.17C322.392 58.97 322.832 59.67 323.392 60.27C323.972 60.87 324.642 61.34 325.402 61.68C326.182 62 327.042 62.16 327.982 62.16C329.702 62.16 331.152 61.74 332.332 60.9V57.9H327.682V53.91H336.802V63.03ZM359.398 66H353.998L349.498 59.28H345.868V66H341.248V45H350.848C353.348 45 355.288 45.61 356.668 46.83C358.068 48.05 358.768 49.75 358.768 51.93V51.99C358.768 53.69 358.348 55.08 357.508 56.16C356.688 57.22 355.608 58 354.268 58.5L359.398 66ZM354.088 52.23V52.17C354.088 51.17 353.768 50.42 353.128 49.92C352.488 49.42 351.598 49.17 350.458 49.17H345.868V55.2H350.548C351.688 55.2 352.558 54.93 353.158 54.39C353.778 53.85 354.088 53.13 354.088 52.23ZM384.317 55.5C384.317 57 384.037 58.41 383.477 59.73C382.917 61.03 382.137 62.18 381.137 63.18C380.157 64.16 378.977 64.94 377.597 65.52C376.237 66.08 374.747 66.36 373.127 66.36C371.507 66.36 370.017 66.08 368.657 65.52C367.297 64.94 366.117 64.17 365.117 63.21C364.137 62.23 363.367 61.09 362.807 59.79C362.267 58.47 361.997 57.06 361.997 55.56V55.5C361.997 54 362.277 52.6 362.837 51.3C363.397 49.98 364.167 48.83 365.147 47.85C366.147 46.85 367.327 46.07 368.687 45.51C370.067 44.93 371.567 44.64 373.187 44.64C374.807 44.64 376.297 44.93 377.657 45.51C379.017 46.07 380.187 46.84 381.167 47.82C382.167 48.78 382.937 49.92 383.477 51.24C384.037 52.54 384.317 53.94 384.317 55.44V55.5ZM379.487 55.56V55.5C379.487 54.6 379.327 53.75 379.007 52.95C378.707 52.15 378.267 51.45 377.687 50.85C377.127 50.25 376.457 49.78 375.677 49.44C374.897 49.08 374.047 48.9 373.127 48.9C372.187 48.9 371.327 49.07 370.547 49.41C369.787 49.75 369.127 50.22 368.567 50.82C368.027 51.42 367.597 52.12 367.277 52.92C366.977 53.7 366.827 54.54 366.827 55.44V55.5C366.827 56.4 366.977 57.25 367.277 58.05C367.597 58.85 368.037 59.55 368.597 60.15C369.177 60.75 369.847 61.23 370.607 61.59C371.387 61.93 372.247 62.1 373.187 62.1C374.107 62.1 374.957 61.93 375.737 61.59C376.517 61.25 377.177 60.78 377.717 60.18C378.277 59.58 378.707 58.89 379.007 58.11C379.327 57.31 379.487 56.46 379.487 55.56ZM418.656 45L411.486 66.15H407.466L402.726 52.41L397.986 66.15H393.966L386.796 45H391.746L396.096 59.22L400.806 44.94H404.766L409.476 59.22L413.826 45H418.656ZM437.978 49.26H431.588V66H426.968V49.26H420.578V45H437.978V49.26ZM459.291 66H454.671V57.57H446.151V66H441.531V45H446.151V53.31H454.671V45H459.291V66Z" fill="#AD3088"/>
<path d="M109.492 79.9L115.872 94H114.172L112.532 90.3H104.912L103.252 94H101.632L108.012 79.9H109.492ZM111.912 88.88L108.732 81.74L105.532 88.88H111.912ZM124.955 83.62L127.755 91.96L130.475 83.66H132.075L128.435 94.08H127.095L124.315 85.92L121.515 94.08H120.155L116.535 83.66H118.175L120.895 91.96L123.675 83.62H124.955ZM137.991 84.88C137.378 84.88 136.818 84.9533 136.311 85.1C135.818 85.2333 135.331 85.4133 134.851 85.64L134.391 84.38C134.965 84.1133 135.545 83.9067 136.131 83.76C136.718 83.6 137.391 83.52 138.151 83.52C139.565 83.52 140.651 83.8733 141.411 84.58C142.171 85.2733 142.551 86.3067 142.551 87.68V94H141.071V92.44C140.711 92.9067 140.225 93.32 139.611 93.68C139.011 94.04 138.251 94.22 137.331 94.22C136.851 94.22 136.378 94.1533 135.911 94.02C135.458 93.8867 135.045 93.6867 134.671 93.42C134.311 93.14 134.018 92.8 133.791 92.4C133.578 92 133.471 91.5267 133.471 90.98C133.471 90.4333 133.578 89.9533 133.791 89.54C134.005 89.1133 134.305 88.76 134.691 88.48C135.091 88.2 135.558 87.9867 136.091 87.84C136.638 87.6933 137.238 87.62 137.891 87.62C138.558 87.62 139.138 87.66 139.631 87.74C140.125 87.82 140.605 87.9267 141.071 88.06V87.7C141.071 86.7667 140.798 86.0667 140.251 85.6C139.718 85.12 138.965 84.88 137.991 84.88ZM138.051 88.76C137.078 88.76 136.331 88.9533 135.811 89.34C135.291 89.7267 135.031 90.2533 135.031 90.92C135.031 91.2533 135.098 91.5467 135.231 91.8C135.378 92.0533 135.571 92.2733 135.811 92.46C136.051 92.6333 136.325 92.7667 136.631 92.86C136.951 92.9533 137.285 93 137.631 93C138.111 93 138.558 92.9333 138.971 92.8C139.398 92.6533 139.765 92.46 140.071 92.22C140.391 91.9667 140.638 91.6733 140.811 91.34C140.998 90.9933 141.091 90.6133 141.091 90.2V89.2C140.705 89.0933 140.258 88.9933 139.751 88.9C139.258 88.8067 138.691 88.76 138.051 88.76ZM147.373 89.88V94H145.833V83.66H147.373V86.36C147.56 85.9333 147.793 85.54 148.073 85.18C148.353 84.82 148.673 84.5133 149.033 84.26C149.393 83.9933 149.787 83.7933 150.213 83.66C150.64 83.5267 151.1 83.4667 151.593 83.48V85.14H151.473C150.913 85.14 150.38 85.24 149.873 85.44C149.38 85.64 148.947 85.94 148.573 86.34C148.2 86.74 147.907 87.24 147.693 87.84C147.48 88.4267 147.373 89.1067 147.373 89.88ZM163.349 94H161.809V91.92C161.596 92.2267 161.356 92.52 161.089 92.8C160.836 93.08 160.549 93.3267 160.229 93.54C159.909 93.7533 159.549 93.92 159.149 94.04C158.762 94.16 158.329 94.22 157.849 94.22C157.222 94.22 156.616 94.1 156.029 93.86C155.442 93.62 154.916 93.2733 154.449 92.82C153.982 92.3533 153.609 91.7867 153.329 91.12C153.049 90.4533 152.909 89.6933 152.909 88.84C152.909 87.9867 153.049 87.2267 153.329 86.56C153.609 85.8933 153.982 85.3333 154.449 84.88C154.916 84.4133 155.442 84.06 156.029 83.82C156.616 83.5667 157.222 83.44 157.849 83.44C158.329 83.44 158.769 83.5 159.169 83.62C159.569 83.74 159.929 83.9 160.249 84.1C160.569 84.3 160.856 84.5333 161.109 84.8C161.376 85.0667 161.609 85.3467 161.809 85.64V79.4H163.349V94ZM161.869 88.82C161.869 88.22 161.762 87.6733 161.549 87.18C161.349 86.6867 161.069 86.2667 160.709 85.92C160.362 85.5733 159.962 85.3067 159.509 85.12C159.069 84.92 158.609 84.82 158.129 84.82C157.622 84.82 157.149 84.9133 156.709 85.1C156.269 85.2733 155.882 85.5333 155.549 85.88C155.229 86.2133 154.969 86.6333 154.769 87.14C154.582 87.6333 154.489 88.1933 154.489 88.82C154.489 89.4333 154.582 89.9867 154.769 90.48C154.969 90.9733 155.236 91.4 155.569 91.76C155.902 92.1067 156.289 92.3733 156.729 92.56C157.169 92.7467 157.636 92.84 158.129 92.84C158.609 92.84 159.069 92.7467 159.509 92.56C159.962 92.36 160.362 92.0867 160.709 91.74C161.069 91.3933 161.349 90.9733 161.549 90.48C161.762 89.9733 161.869 89.42 161.869 88.82ZM174.886 83.7H178.166V85.02H174.906V94H173.366V85.02H171.946V83.68H173.366V82.78C173.366 81.6467 173.633 80.7867 174.166 80.2C174.713 79.6133 175.486 79.32 176.486 79.32C176.846 79.32 177.153 79.34 177.406 79.38C177.673 79.42 177.933 79.4867 178.186 79.58V80.92C177.906 80.84 177.653 80.78 177.426 80.74C177.2 80.6867 176.953 80.66 176.686 80.66C175.486 80.66 174.886 81.3933 174.886 82.86V83.7ZM190.075 88.82C190.075 89.5533 189.935 90.2533 189.655 90.92C189.388 91.5733 189.015 92.1467 188.535 92.64C188.055 93.1333 187.482 93.5267 186.815 93.82C186.148 94.1 185.428 94.24 184.655 94.24C183.882 94.24 183.168 94.1 182.515 93.82C181.862 93.5267 181.295 93.14 180.815 92.66C180.335 92.1667 179.962 91.5933 179.695 90.94C179.428 90.2867 179.295 89.5933 179.295 88.86C179.295 88.1267 179.428 87.4333 179.695 86.78C179.962 86.1133 180.335 85.5333 180.815 85.04C181.295 84.5467 181.862 84.16 182.515 83.88C183.182 83.5867 183.908 83.44 184.695 83.44C185.468 83.44 186.182 83.5867 186.835 83.88C187.502 84.16 188.075 84.5467 188.555 85.04C189.035 85.52 189.408 86.0867 189.675 86.74C189.942 87.3933 190.075 88.0867 190.075 88.82ZM188.495 88.86C188.495 88.3 188.395 87.7733 188.195 87.28C188.008 86.7867 187.742 86.36 187.395 86C187.048 85.6267 186.642 85.3333 186.175 85.12C185.708 84.9067 185.202 84.8 184.655 84.8C184.095 84.8 183.582 84.9067 183.115 85.12C182.648 85.32 182.248 85.6067 181.915 85.98C181.595 86.34 181.342 86.7667 181.155 87.26C180.968 87.74 180.875 88.26 180.875 88.82C180.875 89.38 180.968 89.9067 181.155 90.4C181.355 90.8933 181.622 91.32 181.955 91.68C182.302 92.04 182.708 92.3267 183.175 92.54C183.642 92.7533 184.148 92.86 184.695 92.86C185.255 92.86 185.768 92.76 186.235 92.56C186.702 92.3467 187.102 92.06 187.435 91.7C187.768 91.34 188.028 90.92 188.215 90.44C188.402 89.9467 188.495 89.42 188.495 88.86ZM194.405 89.88V94H192.865V83.66H194.405V86.36C194.591 85.9333 194.825 85.54 195.105 85.18C195.385 84.82 195.705 84.5133 196.065 84.26C196.425 83.9933 196.818 83.7933 197.245 83.66C197.671 83.5267 198.131 83.4667 198.625 83.48V85.14H198.505C197.945 85.14 197.411 85.24 196.905 85.44C196.411 85.64 195.978 85.94 195.605 86.34C195.231 86.74 194.938 87.24 194.725 87.84C194.511 88.4267 194.405 89.1067 194.405 89.88ZM217.106 88.82C217.106 89.5533 216.966 90.2533 216.686 90.92C216.419 91.5733 216.046 92.1467 215.566 92.64C215.086 93.1333 214.513 93.5267 213.846 93.82C213.179 94.1 212.459 94.24 211.686 94.24C210.913 94.24 210.199 94.1 209.546 93.82C208.893 93.5267 208.326 93.14 207.846 92.66C207.366 92.1667 206.993 91.5933 206.726 90.94C206.459 90.2867 206.326 89.5933 206.326 88.86C206.326 88.1267 206.459 87.4333 206.726 86.78C206.993 86.1133 207.366 85.5333 207.846 85.04C208.326 84.5467 208.893 84.16 209.546 83.88C210.213 83.5867 210.939 83.44 211.726 83.44C212.499 83.44 213.213 83.5867 213.866 83.88C214.533 84.16 215.106 84.5467 215.586 85.04C216.066 85.52 216.439 86.0867 216.706 86.74C216.973 87.3933 217.106 88.0867 217.106 88.82ZM215.526 88.86C215.526 88.3 215.426 87.7733 215.226 87.28C215.039 86.7867 214.773 86.36 214.426 86C214.079 85.6267 213.673 85.3333 213.206 85.12C212.739 84.9067 212.233 84.8 211.686 84.8C211.126 84.8 210.613 84.9067 210.146 85.12C209.679 85.32 209.279 85.6067 208.946 85.98C208.626 86.34 208.373 86.7667 208.186 87.26C207.999 87.74 207.906 88.26 207.906 88.82C207.906 89.38 207.999 89.9067 208.186 90.4C208.386 90.8933 208.653 91.32 208.986 91.68C209.333 92.04 209.739 92.3267 210.206 92.54C210.673 92.7533 211.179 92.86 211.726 92.86C212.286 92.86 212.799 92.76 213.266 92.56C213.733 92.3467 214.133 92.06 214.466 91.7C214.799 91.34 215.059 90.92 215.246 90.44C215.433 89.9467 215.526 89.42 215.526 88.86ZM221.436 89.88V94H219.896V83.66H221.436V86.36C221.622 85.9333 221.856 85.54 222.136 85.18C222.416 84.82 222.736 84.5133 223.096 84.26C223.456 83.9933 223.849 83.7933 224.276 83.66C224.702 83.5267 225.162 83.4667 225.656 83.48V85.14H225.536C224.976 85.14 224.442 85.24 223.936 85.44C223.442 85.64 223.009 85.94 222.636 86.34C222.262 86.74 221.969 87.24 221.756 87.84C221.542 88.4267 221.436 89.1067 221.436 89.88ZM237.412 92.2C237.412 93.04 237.285 93.7733 237.032 94.4C236.792 95.0267 236.438 95.5467 235.972 95.96C235.518 96.3867 234.965 96.7067 234.312 96.92C233.672 97.1333 232.952 97.24 232.152 97.24C231.285 97.24 230.458 97.12 229.672 96.88C228.885 96.64 228.145 96.28 227.452 95.8L228.152 94.6C228.752 95.0267 229.378 95.3533 230.032 95.58C230.685 95.8067 231.385 95.92 232.132 95.92C233.278 95.92 234.192 95.6067 234.872 94.98C235.552 94.3667 235.892 93.4533 235.892 92.24V91.02C235.438 91.62 234.885 92.1333 234.232 92.56C233.578 92.9867 232.778 93.2 231.832 93.2C231.205 93.2 230.598 93.0933 230.012 92.88C229.438 92.6533 228.925 92.3333 228.472 91.92C228.018 91.4933 227.652 90.98 227.372 90.38C227.105 89.78 226.972 89.1 226.972 88.34C226.972 87.58 227.105 86.9 227.372 86.3C227.652 85.6867 228.018 85.1733 228.472 84.76C228.925 84.3333 229.445 84.0067 230.032 83.78C230.618 83.5533 231.218 83.44 231.832 83.44C232.312 83.44 232.752 83.5 233.152 83.62C233.565 83.7267 233.932 83.8733 234.252 84.06C234.585 84.2467 234.885 84.4667 235.152 84.72C235.418 84.9733 235.658 85.24 235.872 85.52V83.66H237.412V92.2ZM235.932 88.32C235.932 87.7867 235.825 87.3067 235.612 86.88C235.398 86.44 235.112 86.0667 234.752 85.76C234.405 85.4533 234.005 85.22 233.552 85.06C233.098 84.8867 232.625 84.8 232.132 84.8C231.638 84.8 231.172 84.88 230.732 85.04C230.305 85.2 229.925 85.4333 229.592 85.74C229.272 86.0467 229.018 86.42 228.832 86.86C228.645 87.2867 228.552 87.7667 228.552 88.3C228.552 88.8333 228.645 89.32 228.832 89.76C229.032 90.1867 229.292 90.56 229.612 90.88C229.945 91.1867 230.325 91.4267 230.752 91.6C231.192 91.76 231.652 91.84 232.132 91.84C232.625 91.84 233.098 91.76 233.552 91.6C234.005 91.4267 234.405 91.1867 234.752 90.88C235.112 90.5733 235.398 90.2067 235.612 89.78C235.825 89.34 235.932 88.8533 235.932 88.32ZM244.593 84.88C243.979 84.88 243.419 84.9533 242.913 85.1C242.419 85.2333 241.933 85.4133 241.453 85.64L240.993 84.38C241.566 84.1133 242.146 83.9067 242.733 83.76C243.319 83.6 243.993 83.52 244.753 83.52C246.166 83.52 247.253 83.8733 248.013 84.58C248.773 85.2733 249.153 86.3067 249.153 87.68V94H247.673V92.44C247.313 92.9067 246.826 93.32 246.213 93.68C245.613 94.04 244.853 94.22 243.933 94.22C243.453 94.22 242.979 94.1533 242.513 94.02C242.059 93.8867 241.646 93.6867 241.273 93.42C240.913 93.14 240.619 92.8 240.393 92.4C240.179 92 240.073 91.5267 240.073 90.98C240.073 90.4333 240.179 89.9533 240.393 89.54C240.606 89.1133 240.906 88.76 241.293 88.48C241.693 88.2 242.159 87.9867 242.693 87.84C243.239 87.6933 243.839 87.62 244.493 87.62C245.159 87.62 245.739 87.66 246.233 87.74C246.726 87.82 247.206 87.9267 247.673 88.06V87.7C247.673 86.7667 247.399 86.0667 246.853 85.6C246.319 85.12 245.566 84.88 244.593 84.88ZM244.653 88.76C243.679 88.76 242.933 88.9533 242.413 89.34C241.893 89.7267 241.633 90.2533 241.633 90.92C241.633 91.2533 241.699 91.5467 241.833 91.8C241.979 92.0533 242.173 92.2733 242.413 92.46C242.653 92.6333 242.926 92.7667 243.233 92.86C243.553 92.9533 243.886 93 244.233 93C244.713 93 245.159 92.9333 245.573 92.8C245.999 92.6533 246.366 92.46 246.673 92.22C246.993 91.9667 247.239 91.6733 247.413 91.34C247.599 90.9933 247.693 90.6133 247.693 90.2V89.2C247.306 89.0933 246.859 88.9933 246.353 88.9C245.859 88.8067 245.293 88.76 244.653 88.76ZM253.975 88.08V94H252.435V83.66H253.975V85.46C254.322 84.9 254.775 84.4267 255.335 84.04C255.895 83.64 256.622 83.44 257.515 83.44C258.142 83.44 258.695 83.54 259.175 83.74C259.668 83.94 260.082 84.2267 260.415 84.6C260.762 84.96 261.022 85.3933 261.195 85.9C261.382 86.4067 261.475 86.9667 261.475 87.58V94H259.935V87.96C259.935 87 259.688 86.24 259.195 85.68C258.702 85.12 257.995 84.84 257.075 84.84C256.635 84.84 256.222 84.92 255.835 85.08C255.462 85.2267 255.135 85.4467 254.855 85.74C254.575 86.02 254.355 86.36 254.195 86.76C254.048 87.16 253.975 87.6 253.975 88.08ZM266.559 81.4H264.799V79.7H266.559V81.4ZM266.439 94H264.899V83.66H266.439V94ZM277.113 91.1C277.113 91.5933 277.013 92.0333 276.813 92.42C276.626 92.7933 276.366 93.1133 276.033 93.38C275.713 93.6467 275.326 93.8533 274.873 94C274.433 94.1333 273.953 94.2 273.433 94.2C272.686 94.2 271.933 94.0667 271.173 93.8C270.413 93.52 269.74 93.1467 269.153 92.68L269.933 91.58C270.493 92.0067 271.073 92.3333 271.673 92.56C272.286 92.7867 272.9 92.9 273.513 92.9C274.14 92.9 274.653 92.7533 275.053 92.46C275.453 92.1667 275.653 91.7667 275.653 91.26V91.22C275.653 90.9667 275.58 90.7467 275.433 90.56C275.3 90.3733 275.113 90.2133 274.873 90.08C274.633 89.9333 274.353 89.8067 274.033 89.7C273.726 89.5933 273.406 89.4933 273.073 89.4C272.673 89.28 272.266 89.1533 271.853 89.02C271.453 88.8733 271.086 88.6933 270.753 88.48C270.433 88.2667 270.166 88 269.953 87.68C269.753 87.36 269.653 86.96 269.653 86.48V86.44C269.653 86 269.74 85.6 269.913 85.24C270.086 84.8667 270.326 84.5533 270.633 84.3C270.953 84.0333 271.326 83.8333 271.753 83.7C272.193 83.5533 272.666 83.48 273.173 83.48C273.813 83.48 274.46 83.5867 275.113 83.8C275.766 84 276.36 84.2733 276.893 84.62L276.193 85.78C275.713 85.4733 275.206 85.2333 274.673 85.06C274.153 84.8733 273.64 84.78 273.133 84.78C272.52 84.78 272.033 84.9267 271.673 85.22C271.313 85.5 271.133 85.8533 271.133 86.28V86.32C271.133 86.56 271.206 86.7733 271.353 86.96C271.5 87.1333 271.693 87.2867 271.933 87.42C272.186 87.5533 272.473 87.6733 272.793 87.78C273.113 87.8867 273.446 87.9933 273.793 88.1C274.193 88.22 274.586 88.3533 274.973 88.5C275.373 88.6467 275.733 88.8333 276.053 89.06C276.373 89.2867 276.626 89.56 276.813 89.88C277.013 90.2 277.113 90.5933 277.113 91.06V91.1ZM283.714 84.88C283.101 84.88 282.541 84.9533 282.034 85.1C281.541 85.2333 281.054 85.4133 280.574 85.64L280.114 84.38C280.687 84.1133 281.267 83.9067 281.854 83.76C282.441 83.6 283.114 83.52 283.874 83.52C285.287 83.52 286.374 83.8733 287.134 84.58C287.894 85.2733 288.274 86.3067 288.274 87.68V94H286.794V92.44C286.434 92.9067 285.947 93.32 285.334 93.68C284.734 94.04 283.974 94.22 283.054 94.22C282.574 94.22 282.101 94.1533 281.634 94.02C281.181 93.8867 280.767 93.6867 280.394 93.42C280.034 93.14 279.741 92.8 279.514 92.4C279.301 92 279.194 91.5267 279.194 90.98C279.194 90.4333 279.301 89.9533 279.514 89.54C279.727 89.1133 280.027 88.76 280.414 88.48C280.814 88.2 281.281 87.9867 281.814 87.84C282.361 87.6933 282.961 87.62 283.614 87.62C284.281 87.62 284.861 87.66 285.354 87.74C285.847 87.82 286.327 87.9267 286.794 88.06V87.7C286.794 86.7667 286.521 86.0667 285.974 85.6C285.441 85.12 284.687 84.88 283.714 84.88ZM283.774 88.76C282.801 88.76 282.054 88.9533 281.534 89.34C281.014 89.7267 280.754 90.2533 280.754 90.92C280.754 91.2533 280.821 91.5467 280.954 91.8C281.101 92.0533 281.294 92.2733 281.534 92.46C281.774 92.6333 282.047 92.7667 282.354 92.86C282.674 92.9533 283.007 93 283.354 93C283.834 93 284.281 92.9333 284.694 92.8C285.121 92.6533 285.487 92.46 285.794 92.22C286.114 91.9667 286.361 91.6733 286.534 91.34C286.721 90.9933 286.814 90.6133 286.814 90.2V89.2C286.427 89.0933 285.981 88.9933 285.474 88.9C284.981 88.8067 284.414 88.76 283.774 88.76ZM293.538 85.02V91.06C293.538 91.7 293.698 92.1467 294.018 92.4C294.338 92.6533 294.758 92.78 295.278 92.78C295.545 92.78 295.792 92.7533 296.018 92.7C296.258 92.6467 296.512 92.5533 296.778 92.42V93.74C296.512 93.8867 296.225 93.9933 295.918 94.06C295.625 94.14 295.292 94.18 294.918 94.18C294.505 94.18 294.118 94.1267 293.758 94.02C293.398 93.9133 293.085 93.7467 292.818 93.52C292.565 93.28 292.365 92.9733 292.218 92.6C292.072 92.2267 291.998 91.78 291.998 91.26V85.02H290.558V83.66H291.998V80.54H293.538V83.66H296.818V85.02H293.538ZM301.344 81.4H299.584V79.7H301.344V81.4ZM301.224 94H299.684V83.66H301.224V94ZM314.938 88.82C314.938 89.5533 314.798 90.2533 314.518 90.92C314.251 91.5733 313.878 92.1467 313.398 92.64C312.918 93.1333 312.345 93.5267 311.678 93.82C311.011 94.1 310.291 94.24 309.518 94.24C308.745 94.24 308.031 94.1 307.378 93.82C306.725 93.5267 306.158 93.14 305.678 92.66C305.198 92.1667 304.825 91.5933 304.558 90.94C304.291 90.2867 304.158 89.5933 304.158 88.86C304.158 88.1267 304.291 87.4333 304.558 86.78C304.825 86.1133 305.198 85.5333 305.678 85.04C306.158 84.5467 306.725 84.16 307.378 83.88C308.045 83.5867 308.771 83.44 309.558 83.44C310.331 83.44 311.045 83.5867 311.698 83.88C312.365 84.16 312.938 84.5467 313.418 85.04C313.898 85.52 314.271 86.0867 314.538 86.74C314.805 87.3933 314.938 88.0867 314.938 88.82ZM313.358 88.86C313.358 88.3 313.258 87.7733 313.058 87.28C312.871 86.7867 312.605 86.36 312.258 86C311.911 85.6267 311.505 85.3333 311.038 85.12C310.571 84.9067 310.065 84.8 309.518 84.8C308.958 84.8 308.445 84.9067 307.978 85.12C307.511 85.32 307.111 85.6067 306.778 85.98C306.458 86.34 306.205 86.7667 306.018 87.26C305.831 87.74 305.738 88.26 305.738 88.82C305.738 89.38 305.831 89.9067 306.018 90.4C306.218 90.8933 306.485 91.32 306.818 91.68C307.165 92.04 307.571 92.3267 308.038 92.54C308.505 92.7533 309.011 92.86 309.558 92.86C310.118 92.86 310.631 92.76 311.098 92.56C311.565 92.3467 311.965 92.06 312.298 91.7C312.631 91.34 312.891 90.92 313.078 90.44C313.265 89.9467 313.358 89.42 313.358 88.86ZM319.268 88.08V94H317.728V83.66H319.268V85.46C319.614 84.9 320.068 84.4267 320.628 84.04C321.188 83.64 321.914 83.44 322.808 83.44C323.434 83.44 323.988 83.54 324.468 83.74C324.961 83.94 325.374 84.2267 325.708 84.6C326.054 84.96 326.314 85.3933 326.488 85.9C326.674 86.4067 326.768 86.9667 326.768 87.58V94H325.228V87.96C325.228 87 324.981 86.24 324.488 85.68C323.994 85.12 323.288 84.84 322.368 84.84C321.928 84.84 321.514 84.92 321.128 85.08C320.754 85.2267 320.428 85.4467 320.148 85.74C319.868 86.02 319.648 86.36 319.488 86.76C319.341 87.16 319.268 87.6 319.268 88.08ZM337.848 81.4H336.088V79.7H337.848V81.4ZM337.728 94H336.188V83.66H337.728V94ZM342.842 88.08V94H341.302V83.66H342.842V85.46C343.189 84.9 343.642 84.4267 344.202 84.04C344.762 83.64 345.489 83.44 346.382 83.44C347.009 83.44 347.562 83.54 348.042 83.74C348.535 83.94 348.949 84.2267 349.282 84.6C349.629 84.96 349.889 85.3933 350.062 85.9C350.249 86.4067 350.342 86.9667 350.342 87.58V94H348.802V87.96C348.802 87 348.555 86.24 348.062 85.68C347.569 85.12 346.862 84.84 345.942 84.84C345.502 84.84 345.089 84.92 344.702 85.08C344.329 85.2267 344.002 85.4467 343.722 85.74C343.442 86.02 343.222 86.36 343.062 86.76C342.915 87.16 342.842 87.6 342.842 88.08ZM370.182 82.84H365.922V94H362.842V82.84H358.582V80H370.182V82.84ZM382.231 88.94C382.231 89.0867 382.224 89.2133 382.211 89.32C382.211 89.4267 382.204 89.5533 382.191 89.7H374.731C374.878 90.3933 375.178 90.92 375.631 91.28C376.098 91.6267 376.671 91.8 377.351 91.8C377.858 91.8 378.311 91.7133 378.711 91.54C379.111 91.3667 379.524 91.0867 379.951 90.7L381.691 92.24C381.184 92.8667 380.571 93.36 379.851 93.72C379.131 94.0667 378.284 94.24 377.311 94.24C376.511 94.24 375.764 94.1067 375.071 93.84C374.391 93.5733 373.798 93.1933 373.291 92.7C372.798 92.2067 372.411 91.6267 372.131 90.96C371.851 90.28 371.711 89.5267 371.711 88.7V88.66C371.711 87.9 371.838 87.18 372.091 86.5C372.358 85.82 372.724 85.2267 373.191 84.72C373.658 84.2133 374.211 83.8133 374.851 83.52C375.504 83.2267 376.224 83.08 377.011 83.08C377.904 83.08 378.678 83.24 379.331 83.56C379.984 83.88 380.524 84.3133 380.951 84.86C381.391 85.3933 381.711 86.0133 381.911 86.72C382.124 87.4133 382.231 88.14 382.231 88.9V88.94ZM379.271 87.8C379.178 87.12 378.938 86.5733 378.551 86.16C378.164 85.7333 377.651 85.52 377.011 85.52C376.371 85.52 375.851 85.7267 375.451 86.14C375.064 86.5533 374.811 87.1067 374.691 87.8H379.271ZM387.677 94H384.637V79.4H387.677V94ZM400.532 88.94C400.532 89.0867 400.525 89.2133 400.512 89.32C400.512 89.4267 400.505 89.5533 400.492 89.7H393.032C393.179 90.3933 393.479 90.92 393.932 91.28C394.399 91.6267 394.972 91.8 395.652 91.8C396.159 91.8 396.612 91.7133 397.012 91.54C397.412 91.3667 397.825 91.0867 398.252 90.7L399.992 92.24C399.485 92.8667 398.872 93.36 398.152 93.72C397.432 94.0667 396.585 94.24 395.612 94.24C394.812 94.24 394.065 94.1067 393.372 93.84C392.692 93.5733 392.099 93.1933 391.592 92.7C391.099 92.2067 390.712 91.6267 390.432 90.96C390.152 90.28 390.012 89.5267 390.012 88.7V88.66C390.012 87.9 390.139 87.18 390.392 86.5C390.659 85.82 391.025 85.2267 391.492 84.72C391.959 84.2133 392.512 83.8133 393.152 83.52C393.805 83.2267 394.525 83.08 395.312 83.08C396.205 83.08 396.979 83.24 397.632 83.56C398.285 83.88 398.825 84.3133 399.252 84.86C399.692 85.3933 400.012 86.0133 400.212 86.72C400.425 87.4133 400.532 88.14 400.532 88.9V88.94ZM397.572 87.8C397.479 87.12 397.239 86.5733 396.852 86.16C396.465 85.7333 395.952 85.52 395.312 85.52C394.672 85.52 394.152 85.7267 393.752 86.14C393.365 86.5533 393.112 87.1067 392.992 87.8H397.572ZM412.238 92.28C411.718 92.8533 411.124 93.3267 410.458 93.7C409.791 94.06 408.924 94.24 407.858 94.24C407.058 94.24 406.311 94.0933 405.618 93.8C404.938 93.5067 404.351 93.1133 403.858 92.62C403.364 92.1133 402.978 91.5267 402.698 90.86C402.418 90.18 402.278 89.46 402.278 88.7V88.66C402.278 87.9 402.418 87.18 402.698 86.5C402.978 85.82 403.364 85.2267 403.858 84.72C404.351 84.2133 404.938 83.8133 405.618 83.52C406.311 83.2267 407.071 83.08 407.898 83.08C408.911 83.08 409.751 83.24 410.418 83.56C411.084 83.88 411.671 84.32 412.178 84.88L410.318 86.88C409.971 86.52 409.611 86.2333 409.238 86.02C408.878 85.8067 408.424 85.7 407.878 85.7C407.491 85.7 407.138 85.78 406.818 85.94C406.511 86.0867 406.238 86.2933 405.998 86.56C405.771 86.8267 405.591 87.14 405.458 87.5C405.338 87.8467 405.278 88.22 405.278 88.62V88.66C405.278 89.0733 405.338 89.46 405.458 89.82C405.591 90.18 405.778 90.4933 406.018 90.76C406.258 91.0267 406.544 91.24 406.878 91.4C407.211 91.5467 407.584 91.62 407.998 91.62C408.504 91.62 408.944 91.52 409.318 91.32C409.704 91.1067 410.084 90.8267 410.458 90.48L412.238 92.28ZM425.303 88.66C425.303 89.4333 425.157 90.16 424.863 90.84C424.57 91.5067 424.163 92.0933 423.643 92.6C423.123 93.1067 422.51 93.5067 421.803 93.8C421.097 94.0933 420.323 94.24 419.483 94.24C418.657 94.24 417.89 94.1 417.183 93.82C416.477 93.5267 415.863 93.1333 415.343 92.64C414.837 92.1333 414.437 91.5467 414.143 90.88C413.85 90.2 413.703 89.4733 413.703 88.7V88.66C413.703 87.8867 413.85 87.1667 414.143 86.5C414.437 85.82 414.843 85.2267 415.363 84.72C415.883 84.2133 416.497 83.8133 417.203 83.52C417.91 83.2267 418.683 83.08 419.523 83.08C420.35 83.08 421.117 83.2267 421.823 83.52C422.53 83.8 423.137 84.1933 423.643 84.7C424.163 85.1933 424.57 85.78 424.863 86.46C425.157 87.1267 425.303 87.8467 425.303 88.62V88.66ZM422.303 88.7V88.66C422.303 88.26 422.237 87.8867 422.103 87.54C421.97 87.18 421.777 86.8667 421.523 86.6C421.27 86.32 420.97 86.1 420.623 85.94C420.277 85.78 419.897 85.7 419.483 85.7C419.043 85.7 418.65 85.78 418.303 85.94C417.97 86.0867 417.683 86.2933 417.443 86.56C417.203 86.8267 417.017 87.14 416.883 87.5C416.763 87.8467 416.703 88.22 416.703 88.62V88.66C416.703 89.06 416.77 89.44 416.903 89.8C417.037 90.1467 417.23 90.46 417.483 90.74C417.737 91.0067 418.03 91.22 418.363 91.38C418.71 91.54 419.097 91.62 419.523 91.62C419.963 91.62 420.35 91.5467 420.683 91.4C421.03 91.24 421.323 91.0267 421.563 90.76C421.803 90.4933 421.983 90.1867 422.103 89.84C422.237 89.48 422.303 89.1 422.303 88.7ZM443.865 94H440.825V88.02C440.825 87.3 440.671 86.76 440.365 86.4C440.058 86.0267 439.618 85.84 439.045 85.84C438.471 85.84 438.018 86.0267 437.685 86.4C437.365 86.76 437.205 87.3 437.205 88.02V94H434.165V88.02C434.165 87.3 434.011 86.76 433.705 86.4C433.398 86.0267 432.958 85.84 432.385 85.84C431.811 85.84 431.358 86.0267 431.025 86.4C430.705 86.76 430.545 87.3 430.545 88.02V94H427.505V83.28H430.545V84.8C430.718 84.5733 430.905 84.36 431.105 84.16C431.318 83.9467 431.551 83.76 431.805 83.6C432.058 83.44 432.338 83.3133 432.645 83.22C432.965 83.1267 433.318 83.08 433.705 83.08C434.411 83.08 435.018 83.2267 435.525 83.52C436.045 83.8133 436.445 84.2333 436.725 84.78C437.191 84.22 437.711 83.8 438.285 83.52C438.858 83.2267 439.511 83.08 440.245 83.08C441.378 83.08 442.265 83.4133 442.905 84.08C443.545 84.7467 443.865 85.7267 443.865 87.02V94ZM125.623 122H114.963V108H125.523V110.74H118.023V113.58H124.623V116.32H118.023V119.26H125.623V122ZM137.482 120.28C136.962 120.853 136.368 121.327 135.702 121.7C135.035 122.06 134.168 122.24 133.102 122.24C132.302 122.24 131.555 122.093 130.862 121.8C130.182 121.507 129.595 121.113 129.102 120.62C128.608 120.113 128.222 119.527 127.942 118.86C127.662 118.18 127.522 117.46 127.522 116.7V116.66C127.522 115.9 127.662 115.18 127.942 114.5C128.222 113.82 128.608 113.227 129.102 112.72C129.595 112.213 130.182 111.813 130.862 111.52C131.555 111.227 132.315 111.08 133.142 111.08C134.155 111.08 134.995 111.24 135.662 111.56C136.328 111.88 136.915 112.32 137.422 112.88L135.562 114.88C135.215 114.52 134.855 114.233 134.482 114.02C134.122 113.807 133.668 113.7 133.122 113.7C132.735 113.7 132.382 113.78 132.062 113.94C131.755 114.087 131.482 114.293 131.242 114.56C131.015 114.827 130.835 115.14 130.702 115.5C130.582 115.847 130.522 116.22 130.522 116.62V116.66C130.522 117.073 130.582 117.46 130.702 117.82C130.835 118.18 131.022 118.493 131.262 118.76C131.502 119.027 131.788 119.24 132.122 119.4C132.455 119.547 132.828 119.62 133.242 119.62C133.748 119.62 134.188 119.52 134.562 119.32C134.948 119.107 135.328 118.827 135.702 118.48L137.482 120.28ZM150.547 116.66C150.547 117.433 150.401 118.16 150.107 118.84C149.814 119.507 149.407 120.093 148.887 120.6C148.367 121.107 147.754 121.507 147.047 121.8C146.341 122.093 145.567 122.24 144.727 122.24C143.901 122.24 143.134 122.1 142.427 121.82C141.721 121.527 141.107 121.133 140.587 120.64C140.081 120.133 139.681 119.547 139.387 118.88C139.094 118.2 138.947 117.473 138.947 116.7V116.66C138.947 115.887 139.094 115.167 139.387 114.5C139.681 113.82 140.087 113.227 140.607 112.72C141.127 112.213 141.741 111.813 142.447 111.52C143.154 111.227 143.927 111.08 144.767 111.08C145.594 111.08 146.361 111.227 147.067 111.52C147.774 111.8 148.381 112.193 148.887 112.7C149.407 113.193 149.814 113.78 150.107 114.46C150.401 115.127 150.547 115.847 150.547 116.62V116.66ZM147.547 116.7V116.66C147.547 116.26 147.481 115.887 147.347 115.54C147.214 115.18 147.021 114.867 146.767 114.6C146.514 114.32 146.214 114.1 145.867 113.94C145.521 113.78 145.141 113.7 144.727 113.7C144.287 113.7 143.894 113.78 143.547 113.94C143.214 114.087 142.927 114.293 142.687 114.56C142.447 114.827 142.261 115.14 142.127 115.5C142.007 115.847 141.947 116.22 141.947 116.62V116.66C141.947 117.06 142.014 117.44 142.147 117.8C142.281 118.147 142.474 118.46 142.727 118.74C142.981 119.007 143.274 119.22 143.607 119.38C143.954 119.54 144.341 119.62 144.767 119.62C145.207 119.62 145.594 119.547 145.927 119.4C146.274 119.24 146.567 119.027 146.807 118.76C147.047 118.493 147.227 118.187 147.347 117.84C147.481 117.48 147.547 117.1 147.547 116.7ZM160.609 118.74C160.609 119.34 160.502 119.86 160.289 120.3C160.089 120.727 159.802 121.08 159.429 121.36C159.055 121.64 158.615 121.853 158.109 122C157.615 122.133 157.082 122.2 156.509 122.2C155.749 122.2 154.969 122.073 154.169 121.82C153.382 121.553 152.629 121.14 151.909 120.58L153.209 118.58C153.795 119.007 154.375 119.327 154.949 119.54C155.535 119.753 156.082 119.86 156.589 119.86C157.029 119.86 157.349 119.787 157.549 119.64C157.762 119.493 157.869 119.3 157.869 119.06V119.02C157.869 118.86 157.809 118.72 157.689 118.6C157.569 118.48 157.402 118.38 157.189 118.3C156.989 118.207 156.755 118.12 156.489 118.04C156.222 117.96 155.942 117.873 155.649 117.78C155.275 117.673 154.895 117.547 154.509 117.4C154.135 117.24 153.795 117.04 153.489 116.8C153.182 116.547 152.929 116.24 152.729 115.88C152.542 115.52 152.449 115.08 152.449 114.56V114.52C152.449 113.973 152.549 113.493 152.749 113.08C152.962 112.653 153.242 112.293 153.589 112C153.949 111.707 154.362 111.487 154.829 111.34C155.309 111.193 155.822 111.12 156.369 111.12C157.049 111.12 157.735 111.233 158.429 111.46C159.135 111.673 159.782 111.973 160.369 112.36L159.209 114.46C158.675 114.153 158.155 113.913 157.649 113.74C157.142 113.553 156.695 113.46 156.309 113.46C155.935 113.46 155.655 113.533 155.469 113.68C155.282 113.813 155.189 113.987 155.189 114.2V114.24C155.189 114.387 155.249 114.52 155.369 114.64C155.489 114.747 155.649 114.853 155.849 114.96C156.049 115.053 156.275 115.147 156.529 115.24C156.795 115.333 157.075 115.427 157.369 115.52C157.742 115.64 158.122 115.787 158.509 115.96C158.895 116.12 159.242 116.32 159.549 116.56C159.855 116.8 160.109 117.093 160.309 117.44C160.509 117.787 160.609 118.207 160.609 118.7V118.74ZM172.988 111.28L168.868 122.26C168.668 122.807 168.454 123.267 168.228 123.64C168.001 124.027 167.748 124.34 167.468 124.58C167.201 124.82 166.894 124.993 166.548 125.1C166.201 125.207 165.801 125.26 165.348 125.26C164.788 125.26 164.294 125.193 163.868 125.06C163.441 124.927 163.034 124.747 162.648 124.52L163.668 122.32C163.868 122.44 164.081 122.54 164.308 122.62C164.548 122.7 164.768 122.74 164.968 122.74C165.234 122.74 165.441 122.687 165.588 122.58C165.748 122.487 165.894 122.307 166.028 122.04L161.828 111.28H165.048L167.488 118.58L169.828 111.28H172.988ZM182.64 118.74C182.64 119.34 182.533 119.86 182.32 120.3C182.12 120.727 181.833 121.08 181.46 121.36C181.087 121.64 180.647 121.853 180.14 122C179.647 122.133 179.113 122.2 178.54 122.2C177.78 122.2 177 122.073 176.2 121.82C175.413 121.553 174.66 121.14 173.94 120.58L175.24 118.58C175.827 119.007 176.407 119.327 176.98 119.54C177.567 119.753 178.113 119.86 178.62 119.86C179.06 119.86 179.38 119.787 179.58 119.64C179.793 119.493 179.9 119.3 179.9 119.06V119.02C179.9 118.86 179.84 118.72 179.72 118.6C179.6 118.48 179.433 118.38 179.22 118.3C179.02 118.207 178.787 118.12 178.52 118.04C178.253 117.96 177.973 117.873 177.68 117.78C177.307 117.673 176.927 117.547 176.54 117.4C176.167 117.24 175.827 117.04 175.52 116.8C175.213 116.547 174.96 116.24 174.76 115.88C174.573 115.52 174.48 115.08 174.48 114.56V114.52C174.48 113.973 174.58 113.493 174.78 113.08C174.993 112.653 175.273 112.293 175.62 112C175.98 111.707 176.393 111.487 176.86 111.34C177.34 111.193 177.853 111.12 178.4 111.12C179.08 111.12 179.767 111.233 180.46 111.46C181.167 111.673 181.813 111.973 182.4 112.36L181.24 114.46C180.707 114.153 180.187 113.913 179.68 113.74C179.173 113.553 178.727 113.46 178.34 113.46C177.967 113.46 177.687 113.533 177.5 113.68C177.313 113.813 177.22 113.987 177.22 114.2V114.24C177.22 114.387 177.28 114.52 177.4 114.64C177.52 114.747 177.68 114.853 177.88 114.96C178.08 115.053 178.307 115.147 178.56 115.24C178.827 115.333 179.107 115.427 179.4 115.52C179.773 115.64 180.153 115.787 180.54 115.96C180.927 116.12 181.273 116.32 181.58 116.56C181.887 116.8 182.14 117.093 182.34 117.44C182.54 117.787 182.64 118.207 182.64 118.7V118.74ZM190.839 121.56C190.519 121.747 190.166 121.893 189.779 122C189.392 122.12 188.946 122.18 188.439 122.18C187.972 122.18 187.546 122.127 187.159 122.02C186.786 121.927 186.459 121.753 186.179 121.5C185.912 121.247 185.699 120.92 185.539 120.52C185.392 120.107 185.319 119.587 185.319 118.96V113.88H184.039V111.28H185.319V108.54H188.359V111.28H190.879V113.88H188.359V118.46C188.359 119.153 188.686 119.5 189.339 119.5C189.872 119.5 190.372 119.373 190.839 119.12V121.56ZM203.12 116.94C203.12 117.087 203.113 117.213 203.1 117.32C203.1 117.427 203.093 117.553 203.08 117.7H195.62C195.766 118.393 196.066 118.92 196.52 119.28C196.986 119.627 197.56 119.8 198.24 119.8C198.746 119.8 199.2 119.713 199.6 119.54C200 119.367 200.413 119.087 200.84 118.7L202.58 120.24C202.073 120.867 201.46 121.36 200.74 121.72C200.02 122.067 199.173 122.24 198.2 122.24C197.4 122.24 196.653 122.107 195.96 121.84C195.28 121.573 194.686 121.193 194.18 120.7C193.686 120.207 193.3 119.627 193.02 118.96C192.74 118.28 192.6 117.527 192.6 116.7V116.66C192.6 115.9 192.726 115.18 192.98 114.5C193.246 113.82 193.613 113.227 194.08 112.72C194.546 112.213 195.1 111.813 195.74 111.52C196.393 111.227 197.113 111.08 197.9 111.08C198.793 111.08 199.566 111.24 200.22 111.56C200.873 111.88 201.413 112.313 201.84 112.86C202.28 113.393 202.6 114.013 202.8 114.72C203.013 115.413 203.12 116.14 203.12 116.9V116.94ZM200.16 115.8C200.066 115.12 199.826 114.573 199.44 114.16C199.053 113.733 198.54 113.52 197.9 113.52C197.26 113.52 196.74 113.727 196.34 114.14C195.953 114.553 195.7 115.107 195.58 115.8H200.16ZM221.745 122H218.705V116.02C218.705 115.3 218.552 114.76 218.245 114.4C217.939 114.027 217.499 113.84 216.925 113.84C216.352 113.84 215.899 114.027 215.565 114.4C215.245 114.76 215.085 115.3 215.085 116.02V122H212.045V116.02C212.045 115.3 211.892 114.76 211.585 114.4C211.279 114.027 210.839 113.84 210.265 113.84C209.692 113.84 209.239 114.027 208.905 114.4C208.585 114.76 208.425 115.3 208.425 116.02V122H205.385V111.28H208.425V112.8C208.599 112.573 208.785 112.36 208.985 112.16C209.199 111.947 209.432 111.76 209.685 111.6C209.939 111.44 210.219 111.313 210.525 111.22C210.845 111.127 211.199 111.08 211.585 111.08C212.292 111.08 212.899 111.227 213.405 111.52C213.925 111.813 214.325 112.233 214.605 112.78C215.072 112.22 215.592 111.8 216.165 111.52C216.739 111.227 217.392 111.08 218.125 111.08C219.259 111.08 220.145 111.413 220.785 112.08C221.425 112.747 221.745 113.727 221.745 115.02V122ZM235.205 110.56C234.659 110.56 234.172 110.713 233.745 111.02C233.332 111.327 232.865 111.8 232.345 112.44L230.185 110.7C230.532 110.233 230.879 109.82 231.225 109.46C231.585 109.1 231.965 108.8 232.365 108.56C232.779 108.307 233.232 108.12 233.725 108C234.219 107.867 234.779 107.8 235.405 107.8C236.152 107.8 236.819 107.907 237.405 108.12C238.005 108.32 238.512 108.613 238.925 109C239.352 109.373 239.672 109.827 239.885 110.36C240.112 110.893 240.225 111.487 240.225 112.14C240.225 112.727 240.145 113.253 239.985 113.72C239.839 114.173 239.612 114.607 239.305 115.02C239.012 115.433 238.632 115.847 238.165 116.26C237.699 116.66 237.159 117.1 236.545 117.58L234.265 119.34H240.365V122H230.005V119.56L234.665 115.74C235.105 115.38 235.479 115.06 235.785 114.78C236.092 114.487 236.339 114.213 236.525 113.96C236.725 113.693 236.865 113.44 236.945 113.2C237.039 112.947 237.085 112.673 237.085 112.38C237.085 111.78 236.912 111.327 236.565 111.02C236.219 110.713 235.765 110.56 235.205 110.56ZM255.006 114.98C255.006 116.007 254.853 116.96 254.546 117.84C254.253 118.72 253.833 119.487 253.286 120.14C252.74 120.793 252.08 121.307 251.306 121.68C250.546 122.053 249.7 122.24 248.766 122.24C247.833 122.24 246.98 122.06 246.206 121.7C245.446 121.327 244.793 120.813 244.246 120.16C243.713 119.507 243.3 118.747 243.006 117.88C242.713 117 242.566 116.047 242.566 115.02C242.566 114.007 242.713 113.06 243.006 112.18C243.313 111.287 243.74 110.513 244.286 109.86C244.833 109.207 245.486 108.693 246.246 108.32C247.02 107.947 247.873 107.76 248.806 107.76C249.74 107.76 250.586 107.947 251.346 108.32C252.12 108.68 252.773 109.187 253.306 109.84C253.853 110.493 254.273 111.26 254.566 112.14C254.86 113.02 255.006 113.967 255.006 114.98ZM251.846 115.02C251.846 114.38 251.773 113.787 251.626 113.24C251.48 112.693 251.273 112.22 251.006 111.82C250.74 111.42 250.413 111.107 250.026 110.88C249.653 110.653 249.233 110.54 248.766 110.54C248.3 110.54 247.88 110.653 247.506 110.88C247.133 111.093 246.813 111.4 246.546 111.8C246.28 112.187 246.073 112.653 245.926 113.2C245.793 113.747 245.726 114.34 245.726 114.98C245.726 115.62 245.8 116.213 245.946 116.76C246.093 117.307 246.3 117.78 246.566 118.18C246.833 118.58 247.153 118.893 247.526 119.12C247.913 119.347 248.34 119.46 248.806 119.46C249.273 119.46 249.693 119.353 250.066 119.14C250.44 118.913 250.76 118.6 251.026 118.2C251.293 117.8 251.493 117.333 251.626 116.8C251.773 116.253 251.846 115.66 251.846 115.02ZM262.276 110.56C261.729 110.56 261.242 110.713 260.816 111.02C260.402 111.327 259.936 111.8 259.416 112.44L257.256 110.7C257.602 110.233 257.949 109.82 258.296 109.46C258.656 109.1 259.036 108.8 259.436 108.56C259.849 108.307 260.302 108.12 260.796 108C261.289 107.867 261.849 107.8 262.476 107.8C263.222 107.8 263.889 107.907 264.476 108.12C265.076 108.32 265.582 108.613 265.996 109C266.422 109.373 266.742 109.827 266.956 110.36C267.182 110.893 267.296 111.487 267.296 112.14C267.296 112.727 267.216 113.253 267.056 113.72C266.909 114.173 266.682 114.607 266.376 115.02C266.082 115.433 265.702 115.847 265.236 116.26C264.769 116.66 264.229 117.1 263.616 117.58L261.336 119.34H267.436V122H257.076V119.56L261.736 115.74C262.176 115.38 262.549 115.06 262.856 114.78C263.162 114.487 263.409 114.213 263.596 113.96C263.796 113.693 263.936 113.44 264.016 113.2C264.109 112.947 264.156 112.673 264.156 112.38C264.156 111.78 263.982 111.327 263.636 111.02C263.289 110.713 262.836 110.56 262.276 110.56ZM275.637 110.64H270.137V108H279.597V110.32L276.057 113.7C276.537 113.78 277.003 113.907 277.457 114.08C277.91 114.253 278.31 114.5 278.657 114.82C279.003 115.127 279.283 115.513 279.497 115.98C279.71 116.433 279.817 116.987 279.817 117.64C279.817 118.307 279.697 118.92 279.457 119.48C279.23 120.04 278.897 120.527 278.457 120.94C278.03 121.353 277.503 121.673 276.877 121.9C276.25 122.127 275.55 122.24 274.777 122.24C273.51 122.24 272.43 122.02 271.537 121.58C270.657 121.127 269.917 120.54 269.317 119.82L271.437 117.8C271.917 118.347 272.417 118.767 272.937 119.06C273.47 119.34 274.097 119.48 274.817 119.48C275.403 119.48 275.877 119.327 276.237 119.02C276.61 118.713 276.797 118.293 276.797 117.76C276.797 117.173 276.557 116.727 276.077 116.42C275.61 116.113 274.937 115.96 274.057 115.96H272.777L272.297 114L275.637 110.64ZM292.435 112.88C291.821 112.88 291.261 112.953 290.755 113.1C290.261 113.233 289.775 113.413 289.295 113.64L288.835 112.38C289.408 112.113 289.988 111.907 290.575 111.76C291.161 111.6 291.835 111.52 292.595 111.52C294.008 111.52 295.095 111.873 295.855 112.58C296.615 113.273 296.995 114.307 296.995 115.68V122H295.515V120.44C295.155 120.907 294.668 121.32 294.055 121.68C293.455 122.04 292.695 122.22 291.775 122.22C291.295 122.22 290.821 122.153 290.355 122.02C289.901 121.887 289.488 121.687 289.115 121.42C288.755 121.14 288.461 120.8 288.235 120.4C288.021 120 287.915 119.527 287.915 118.98C287.915 118.433 288.021 117.953 288.235 117.54C288.448 117.113 288.748 116.76 289.135 116.48C289.535 116.2 290.001 115.987 290.535 115.84C291.081 115.693 291.681 115.62 292.335 115.62C293.001 115.62 293.581 115.66 294.075 115.74C294.568 115.82 295.048 115.927 295.515 116.06V115.7C295.515 114.767 295.241 114.067 294.695 113.6C294.161 113.12 293.408 112.88 292.435 112.88ZM292.495 116.76C291.521 116.76 290.775 116.953 290.255 117.34C289.735 117.727 289.475 118.253 289.475 118.92C289.475 119.253 289.541 119.547 289.675 119.8C289.821 120.053 290.015 120.273 290.255 120.46C290.495 120.633 290.768 120.767 291.075 120.86C291.395 120.953 291.728 121 292.075 121C292.555 121 293.001 120.933 293.415 120.8C293.841 120.653 294.208 120.46 294.515 120.22C294.835 119.967 295.081 119.673 295.255 119.34C295.441 118.993 295.535 118.613 295.535 118.2V117.2C295.148 117.093 294.701 116.993 294.195 116.9C293.701 116.807 293.135 116.76 292.495 116.76ZM302.259 113.02V119.06C302.259 119.7 302.419 120.147 302.739 120.4C303.059 120.653 303.479 120.78 303.999 120.78C304.266 120.78 304.512 120.753 304.739 120.7C304.979 120.647 305.232 120.553 305.499 120.42V121.74C305.232 121.887 304.946 121.993 304.639 122.06C304.346 122.14 304.012 122.18 303.639 122.18C303.226 122.18 302.839 122.127 302.479 122.02C302.119 121.913 301.806 121.747 301.539 121.52C301.286 121.28 301.086 120.973 300.939 120.6C300.792 120.227 300.719 119.78 300.719 119.26V113.02H299.279V111.66H300.719V108.54H302.259V111.66H305.539V113.02H302.259ZM314.661 108H316.241V122H314.661V108ZM321.621 116.08V122H320.081V111.66H321.621V113.46C321.968 112.9 322.421 112.427 322.981 112.04C323.541 111.64 324.268 111.44 325.161 111.44C325.788 111.44 326.341 111.54 326.821 111.74C327.315 111.94 327.728 112.227 328.061 112.6C328.408 112.96 328.668 113.393 328.841 113.9C329.028 114.407 329.121 114.967 329.121 115.58V122H327.581V115.96C327.581 115 327.335 114.24 326.841 113.68C326.348 113.12 325.641 112.84 324.721 112.84C324.281 112.84 323.868 112.92 323.481 113.08C323.108 113.227 322.781 113.447 322.501 113.74C322.221 114.02 322.001 114.36 321.841 114.76C321.695 115.16 321.621 115.6 321.621 116.08ZM342.246 122H340.706V119.92C340.492 120.227 340.252 120.52 339.986 120.8C339.732 121.08 339.446 121.327 339.126 121.54C338.806 121.753 338.446 121.92 338.046 122.04C337.659 122.16 337.226 122.22 336.746 122.22C336.119 122.22 335.512 122.1 334.926 121.86C334.339 121.62 333.812 121.273 333.346 120.82C332.879 120.353 332.506 119.787 332.226 119.12C331.946 118.453 331.806 117.693 331.806 116.84C331.806 115.987 331.946 115.227 332.226 114.56C332.506 113.893 332.879 113.333 333.346 112.88C333.812 112.413 334.339 112.06 334.926 111.82C335.512 111.567 336.119 111.44 336.746 111.44C337.226 111.44 337.666 111.5 338.066 111.62C338.466 111.74 338.826 111.9 339.146 112.1C339.466 112.3 339.752 112.533 340.006 112.8C340.272 113.067 340.506 113.347 340.706 113.64V107.4H342.246V122ZM340.766 116.82C340.766 116.22 340.659 115.673 340.446 115.18C340.246 114.687 339.966 114.267 339.606 113.92C339.259 113.573 338.859 113.307 338.406 113.12C337.966 112.92 337.506 112.82 337.026 112.82C336.519 112.82 336.046 112.913 335.606 113.1C335.166 113.273 334.779 113.533 334.446 113.88C334.126 114.213 333.866 114.633 333.666 115.14C333.479 115.633 333.386 116.193 333.386 116.82C333.386 117.433 333.479 117.987 333.666 118.48C333.866 118.973 334.132 119.4 334.466 119.76C334.799 120.107 335.186 120.373 335.626 120.56C336.066 120.747 336.532 120.84 337.026 120.84C337.506 120.84 337.966 120.747 338.406 120.56C338.859 120.36 339.259 120.087 339.606 119.74C339.966 119.393 340.246 118.973 340.446 118.48C340.659 117.973 340.766 117.42 340.766 116.82ZM347.487 109.4H345.727V107.7H347.487V109.4ZM347.367 122H345.827V111.66H347.367V122ZM354.681 112.88C354.067 112.88 353.507 112.953 353.001 113.1C352.507 113.233 352.021 113.413 351.541 113.64L351.081 112.38C351.654 112.113 352.234 111.907 352.821 111.76C353.407 111.6 354.081 111.52 354.841 111.52C356.254 111.52 357.341 111.873 358.101 112.58C358.861 113.273 359.241 114.307 359.241 115.68V122H357.761V120.44C357.401 120.907 356.914 121.32 356.301 121.68C355.701 122.04 354.941 122.22 354.021 122.22C353.541 122.22 353.067 122.153 352.601 122.02C352.147 121.887 351.734 121.687 351.361 121.42C351.001 121.14 350.707 120.8 350.481 120.4C350.267 120 350.161 119.527 350.161 118.98C350.161 118.433 350.267 117.953 350.481 117.54C350.694 117.113 350.994 116.76 351.381 116.48C351.781 116.2 352.247 115.987 352.781 115.84C353.327 115.693 353.927 115.62 354.581 115.62C355.247 115.62 355.827 115.66 356.321 115.74C356.814 115.82 357.294 115.927 357.761 116.06V115.7C357.761 114.767 357.487 114.067 356.941 113.6C356.407 113.12 355.654 112.88 354.681 112.88ZM354.741 116.76C353.767 116.76 353.021 116.953 352.501 117.34C351.981 117.727 351.721 118.253 351.721 118.92C351.721 119.253 351.787 119.547 351.921 119.8C352.067 120.053 352.261 120.273 352.501 120.46C352.741 120.633 353.014 120.767 353.321 120.86C353.641 120.953 353.974 121 354.321 121C354.801 121 355.247 120.933 355.661 120.8C356.087 120.653 356.454 120.46 356.761 120.22C357.081 119.967 357.327 119.673 357.501 119.34C357.687 118.993 357.781 118.613 357.781 118.2V117.2C357.394 117.093 356.947 116.993 356.441 116.9C355.947 116.807 355.381 116.76 354.741 116.76ZM380.599 110.66L375.499 118.16H375.419L370.319 110.68V122H368.779V108H370.379L375.479 115.64L380.579 108H382.179V122H380.599V110.66ZM396.022 116.82C396.022 117.553 395.882 118.253 395.602 118.92C395.335 119.573 394.962 120.147 394.482 120.64C394.002 121.133 393.429 121.527 392.762 121.82C392.095 122.1 391.375 122.24 390.602 122.24C389.829 122.24 389.115 122.1 388.462 121.82C387.809 121.527 387.242 121.14 386.762 120.66C386.282 120.167 385.909 119.593 385.642 118.94C385.375 118.287 385.242 117.593 385.242 116.86C385.242 116.127 385.375 115.433 385.642 114.78C385.909 114.113 386.282 113.533 386.762 113.04C387.242 112.547 387.809 112.16 388.462 111.88C389.129 111.587 389.855 111.44 390.642 111.44C391.415 111.44 392.129 111.587 392.782 111.88C393.449 112.16 394.022 112.547 394.502 113.04C394.982 113.52 395.355 114.087 395.622 114.74C395.889 115.393 396.022 116.087 396.022 116.82ZM394.442 116.86C394.442 116.3 394.342 115.773 394.142 115.28C393.955 114.787 393.689 114.36 393.342 114C392.995 113.627 392.589 113.333 392.122 113.12C391.655 112.907 391.149 112.8 390.602 112.8C390.042 112.8 389.529 112.907 389.062 113.12C388.595 113.32 388.195 113.607 387.862 113.98C387.542 114.34 387.289 114.767 387.102 115.26C386.915 115.74 386.822 116.26 386.822 116.82C386.822 117.38 386.915 117.907 387.102 118.4C387.302 118.893 387.569 119.32 387.902 119.68C388.249 120.04 388.655 120.327 389.122 120.54C389.589 120.753 390.095 120.86 390.642 120.86C391.202 120.86 391.715 120.76 392.182 120.56C392.649 120.347 393.049 120.06 393.382 119.7C393.715 119.34 393.975 118.92 394.162 118.44C394.349 117.947 394.442 117.42 394.442 116.86ZM409.252 116.82C409.252 117.673 409.112 118.433 408.832 119.1C408.552 119.767 408.178 120.333 407.712 120.8C407.258 121.253 406.732 121.607 406.132 121.86C405.545 122.1 404.938 122.22 404.312 122.22C403.832 122.22 403.392 122.16 402.992 122.04C402.592 121.92 402.232 121.76 401.912 121.56C401.592 121.36 401.298 121.127 401.032 120.86C400.778 120.593 400.552 120.313 400.352 120.02V122H398.812V107.4H400.352V113.74C400.565 113.433 400.798 113.14 401.052 112.86C401.318 112.58 401.612 112.34 401.932 112.14C402.252 111.927 402.605 111.76 402.992 111.64C403.392 111.507 403.832 111.44 404.312 111.44C404.925 111.44 405.525 111.56 406.112 111.8C406.712 112.04 407.245 112.393 407.712 112.86C408.178 113.313 408.552 113.873 408.832 114.54C409.112 115.207 409.252 115.967 409.252 116.82ZM407.672 116.84C407.672 116.227 407.572 115.673 407.372 115.18C407.185 114.687 406.925 114.267 406.592 113.92C406.258 113.56 405.872 113.287 405.432 113.1C404.992 112.913 404.525 112.82 404.032 112.82C403.552 112.82 403.085 112.92 402.632 113.12C402.192 113.307 401.792 113.573 401.432 113.92C401.085 114.267 400.805 114.687 400.592 115.18C400.392 115.673 400.292 116.22 400.292 116.82C400.292 117.42 400.392 117.973 400.592 118.48C400.805 118.973 401.085 119.393 401.432 119.74C401.792 120.087 402.192 120.36 402.632 120.56C403.085 120.747 403.552 120.84 404.032 120.84C404.525 120.84 404.992 120.753 405.432 120.58C405.885 120.393 406.272 120.133 406.592 119.8C406.925 119.453 407.185 119.033 407.372 118.54C407.572 118.033 407.672 117.467 407.672 116.84ZM413.893 109.4H412.133V107.7H413.893V109.4ZM413.773 122H412.233V111.66H413.773V122ZM419.027 122H417.487V107.4H419.027V122ZM423.521 117.4C423.574 117.96 423.708 118.46 423.921 118.9C424.134 119.327 424.408 119.693 424.741 120C425.074 120.293 425.448 120.52 425.861 120.68C426.274 120.827 426.708 120.9 427.161 120.9C427.881 120.9 428.494 120.767 429.001 120.5C429.521 120.233 429.994 119.88 430.421 119.44L431.381 120.3C430.861 120.887 430.268 121.36 429.601 121.72C428.934 122.067 428.108 122.24 427.121 122.24C426.414 122.24 425.748 122.113 425.121 121.86C424.494 121.593 423.948 121.227 423.481 120.76C423.014 120.28 422.641 119.707 422.361 119.04C422.094 118.373 421.961 117.64 421.961 116.84C421.961 116.093 422.081 115.393 422.321 114.74C422.574 114.073 422.921 113.5 423.361 113.02C423.801 112.527 424.321 112.14 424.921 111.86C425.534 111.58 426.201 111.44 426.921 111.44C427.681 111.44 428.361 111.587 428.961 111.88C429.561 112.16 430.068 112.547 430.481 113.04C430.894 113.533 431.208 114.113 431.421 114.78C431.634 115.447 431.741 116.16 431.741 116.92C431.741 116.987 431.741 117.06 431.741 117.14C431.741 117.22 431.734 117.307 431.721 117.4H423.521ZM423.521 116.26H430.181C430.141 115.793 430.041 115.347 429.881 114.92C429.734 114.493 429.521 114.12 429.241 113.8C428.974 113.48 428.641 113.227 428.241 113.04C427.854 112.84 427.401 112.74 426.881 112.74C426.428 112.74 426.008 112.833 425.621 113.02C425.234 113.193 424.894 113.44 424.601 113.76C424.308 114.067 424.068 114.433 423.881 114.86C423.694 115.287 423.574 115.753 423.521 116.26ZM182.019 147.78C181.659 148.153 181.279 148.493 180.879 148.8C180.492 149.093 180.072 149.347 179.619 149.56C179.166 149.773 178.679 149.94 178.159 150.06C177.639 150.18 177.059 150.24 176.419 150.24C175.406 150.24 174.472 150.053 173.619 149.68C172.766 149.307 172.026 148.8 171.399 148.16C170.772 147.507 170.279 146.74 169.919 145.86C169.572 144.98 169.399 144.033 169.399 143.02C169.399 142.02 169.572 141.08 169.919 140.2C170.279 139.32 170.772 138.553 171.399 137.9C172.026 137.233 172.772 136.713 173.639 136.34C174.506 135.953 175.452 135.76 176.479 135.76C177.119 135.76 177.692 135.813 178.199 135.92C178.719 136.027 179.199 136.18 179.639 136.38C180.079 136.567 180.486 136.8 180.859 137.08C181.232 137.347 181.592 137.647 181.939 137.98L180.859 139.14C180.259 138.58 179.612 138.12 178.919 137.76C178.239 137.4 177.419 137.22 176.459 137.22C175.686 137.22 174.966 137.367 174.299 137.66C173.646 137.953 173.072 138.36 172.579 138.88C172.099 139.4 171.719 140.013 171.439 140.72C171.172 141.413 171.039 142.167 171.039 142.98C171.039 143.793 171.172 144.553 171.439 145.26C171.719 145.967 172.099 146.58 172.579 147.1C173.072 147.62 173.646 148.033 174.299 148.34C174.966 148.633 175.686 148.78 176.459 148.78C177.419 148.78 178.246 148.607 178.939 148.26C179.632 147.9 180.312 147.4 180.979 146.76L182.019 147.78ZM194.469 144.82C194.469 145.553 194.329 146.253 194.049 146.92C193.783 147.573 193.409 148.147 192.929 148.64C192.449 149.133 191.876 149.527 191.209 149.82C190.543 150.1 189.823 150.24 189.049 150.24C188.276 150.24 187.563 150.1 186.909 149.82C186.256 149.527 185.689 149.14 185.209 148.66C184.729 148.167 184.356 147.593 184.089 146.94C183.823 146.287 183.689 145.593 183.689 144.86C183.689 144.127 183.823 143.433 184.089 142.78C184.356 142.113 184.729 141.533 185.209 141.04C185.689 140.547 186.256 140.16 186.909 139.88C187.576 139.587 188.303 139.44 189.089 139.44C189.863 139.44 190.576 139.587 191.229 139.88C191.896 140.16 192.469 140.547 192.949 141.04C193.429 141.52 193.803 142.087 194.069 142.74C194.336 143.393 194.469 144.087 194.469 144.82ZM192.889 144.86C192.889 144.3 192.789 143.773 192.589 143.28C192.403 142.787 192.136 142.36 191.789 142C191.443 141.627 191.036 141.333 190.569 141.12C190.103 140.907 189.596 140.8 189.049 140.8C188.489 140.8 187.976 140.907 187.509 141.12C187.043 141.32 186.643 141.607 186.309 141.98C185.989 142.34 185.736 142.767 185.549 143.26C185.363 143.74 185.269 144.26 185.269 144.82C185.269 145.38 185.363 145.907 185.549 146.4C185.749 146.893 186.016 147.32 186.349 147.68C186.696 148.04 187.103 148.327 187.569 148.54C188.036 148.753 188.543 148.86 189.089 148.86C189.649 148.86 190.163 148.76 190.629 148.56C191.096 148.347 191.496 148.06 191.829 147.7C192.163 147.34 192.423 146.92 192.609 146.44C192.796 145.947 192.889 145.42 192.889 144.86ZM198.799 144.08V150H197.259V139.66H198.799V141.46C199.146 140.9 199.599 140.427 200.159 140.04C200.719 139.64 201.446 139.44 202.339 139.44C202.966 139.44 203.519 139.54 203.999 139.74C204.492 139.94 204.906 140.227 205.239 140.6C205.586 140.96 205.846 141.393 206.019 141.9C206.206 142.407 206.299 142.967 206.299 143.58V150H204.759V143.96C204.759 143 204.512 142.24 204.019 141.68C203.526 141.12 202.819 140.84 201.899 140.84C201.459 140.84 201.046 140.92 200.659 141.08C200.286 141.227 199.959 141.447 199.679 141.74C199.399 142.02 199.179 142.36 199.019 142.76C198.872 143.16 198.799 143.6 198.799 144.08ZM219.423 148.2C219.423 149.04 219.297 149.773 219.043 150.4C218.803 151.027 218.45 151.547 217.983 151.96C217.53 152.387 216.977 152.707 216.323 152.92C215.683 153.133 214.963 153.24 214.163 153.24C213.297 153.24 212.47 153.12 211.683 152.88C210.897 152.64 210.157 152.28 209.463 151.8L210.163 150.6C210.763 151.027 211.39 151.353 212.043 151.58C212.697 151.807 213.397 151.92 214.143 151.92C215.29 151.92 216.203 151.607 216.883 150.98C217.563 150.367 217.903 149.453 217.903 148.24V147.02C217.45 147.62 216.897 148.133 216.243 148.56C215.59 148.987 214.79 149.2 213.843 149.2C213.217 149.2 212.61 149.093 212.023 148.88C211.45 148.653 210.937 148.333 210.483 147.92C210.03 147.493 209.663 146.98 209.383 146.38C209.117 145.78 208.983 145.1 208.983 144.34C208.983 143.58 209.117 142.9 209.383 142.3C209.663 141.687 210.03 141.173 210.483 140.76C210.937 140.333 211.457 140.007 212.043 139.78C212.63 139.553 213.23 139.44 213.843 139.44C214.323 139.44 214.763 139.5 215.163 139.62C215.577 139.727 215.943 139.873 216.263 140.06C216.597 140.247 216.897 140.467 217.163 140.72C217.43 140.973 217.67 141.24 217.883 141.52V139.66H219.423V148.2ZM217.943 144.32C217.943 143.787 217.837 143.307 217.623 142.88C217.41 142.44 217.123 142.067 216.763 141.76C216.417 141.453 216.017 141.22 215.563 141.06C215.11 140.887 214.637 140.8 214.143 140.8C213.65 140.8 213.183 140.88 212.743 141.04C212.317 141.2 211.937 141.433 211.603 141.74C211.283 142.047 211.03 142.42 210.843 142.86C210.657 143.287 210.563 143.767 210.563 144.3C210.563 144.833 210.657 145.32 210.843 145.76C211.043 146.187 211.303 146.56 211.623 146.88C211.957 147.187 212.337 147.427 212.763 147.6C213.203 147.76 213.663 147.84 214.143 147.84C214.637 147.84 215.11 147.76 215.563 147.6C216.017 147.427 216.417 147.187 216.763 146.88C217.123 146.573 217.41 146.207 217.623 145.78C217.837 145.34 217.943 144.853 217.943 144.32ZM224.405 145.88V150H222.865V139.66H224.405V142.36C224.591 141.933 224.825 141.54 225.105 141.18C225.385 140.82 225.705 140.513 226.065 140.26C226.425 139.993 226.818 139.793 227.245 139.66C227.671 139.527 228.131 139.467 228.625 139.48V141.14H228.505C227.945 141.14 227.411 141.24 226.905 141.44C226.411 141.64 225.978 141.94 225.605 142.34C225.231 142.74 224.938 143.24 224.725 143.84C224.511 144.427 224.405 145.107 224.405 145.88ZM231.441 145.4C231.494 145.96 231.627 146.46 231.841 146.9C232.054 147.327 232.327 147.693 232.661 148C232.994 148.293 233.367 148.52 233.781 148.68C234.194 148.827 234.627 148.9 235.081 148.9C235.801 148.9 236.414 148.767 236.921 148.5C237.441 148.233 237.914 147.88 238.341 147.44L239.301 148.3C238.781 148.887 238.187 149.36 237.521 149.72C236.854 150.067 236.027 150.24 235.041 150.24C234.334 150.24 233.667 150.113 233.041 149.86C232.414 149.593 231.867 149.227 231.401 148.76C230.934 148.28 230.561 147.707 230.281 147.04C230.014 146.373 229.881 145.64 229.881 144.84C229.881 144.093 230.001 143.393 230.241 142.74C230.494 142.073 230.841 141.5 231.281 141.02C231.721 140.527 232.241 140.14 232.841 139.86C233.454 139.58 234.121 139.44 234.841 139.44C235.601 139.44 236.281 139.587 236.881 139.88C237.481 140.16 237.987 140.547 238.401 141.04C238.814 141.533 239.127 142.113 239.341 142.78C239.554 143.447 239.661 144.16 239.661 144.92C239.661 144.987 239.661 145.06 239.661 145.14C239.661 145.22 239.654 145.307 239.641 145.4H231.441ZM231.441 144.26H238.101C238.061 143.793 237.961 143.347 237.801 142.92C237.654 142.493 237.441 142.12 237.161 141.8C236.894 141.48 236.561 141.227 236.161 141.04C235.774 140.84 235.321 140.74 234.801 140.74C234.347 140.74 233.927 140.833 233.541 141.02C233.154 141.193 232.814 141.44 232.521 141.76C232.227 142.067 231.987 142.433 231.801 142.86C231.614 143.287 231.494 143.753 231.441 144.26ZM249.457 147.1C249.457 147.593 249.357 148.033 249.157 148.42C248.97 148.793 248.71 149.113 248.377 149.38C248.057 149.647 247.67 149.853 247.217 150C246.777 150.133 246.297 150.2 245.777 150.2C245.03 150.2 244.277 150.067 243.517 149.8C242.757 149.52 242.083 149.147 241.497 148.68L242.277 147.58C242.837 148.007 243.417 148.333 244.017 148.56C244.63 148.787 245.243 148.9 245.857 148.9C246.483 148.9 246.997 148.753 247.397 148.46C247.797 148.167 247.997 147.767 247.997 147.26V147.22C247.997 146.967 247.923 146.747 247.777 146.56C247.643 146.373 247.457 146.213 247.217 146.08C246.977 145.933 246.697 145.807 246.377 145.7C246.07 145.593 245.75 145.493 245.417 145.4C245.017 145.28 244.61 145.153 244.197 145.02C243.797 144.873 243.43 144.693 243.097 144.48C242.777 144.267 242.51 144 242.297 143.68C242.097 143.36 241.997 142.96 241.997 142.48V142.44C241.997 142 242.083 141.6 242.257 141.24C242.43 140.867 242.67 140.553 242.977 140.3C243.297 140.033 243.67 139.833 244.097 139.7C244.537 139.553 245.01 139.48 245.517 139.48C246.157 139.48 246.803 139.587 247.457 139.8C248.11 140 248.703 140.273 249.237 140.62L248.537 141.78C248.057 141.473 247.55 141.233 247.017 141.06C246.497 140.873 245.983 140.78 245.477 140.78C244.863 140.78 244.377 140.927 244.017 141.22C243.657 141.5 243.477 141.853 243.477 142.28V142.32C243.477 142.56 243.55 142.773 243.697 142.96C243.843 143.133 244.037 143.287 244.277 143.42C244.53 143.553 244.817 143.673 245.137 143.78C245.457 143.887 245.79 143.993 246.137 144.1C246.537 144.22 246.93 144.353 247.317 144.5C247.717 144.647 248.077 144.833 248.397 145.06C248.717 145.287 248.97 145.56 249.157 145.88C249.357 146.2 249.457 146.593 249.457 147.06V147.1ZM259.222 147.1C259.222 147.593 259.122 148.033 258.922 148.42C258.736 148.793 258.476 149.113 258.142 149.38C257.822 149.647 257.436 149.853 256.982 150C256.542 150.133 256.062 150.2 255.542 150.2C254.796 150.2 254.042 150.067 253.282 149.8C252.522 149.52 251.849 149.147 251.262 148.68L252.042 147.58C252.602 148.007 253.182 148.333 253.782 148.56C254.396 148.787 255.009 148.9 255.622 148.9C256.249 148.9 256.762 148.753 257.162 148.46C257.562 148.167 257.762 147.767 257.762 147.26V147.22C257.762 146.967 257.689 146.747 257.542 146.56C257.409 146.373 257.222 146.213 256.982 146.08C256.742 145.933 256.462 145.807 256.142 145.7C255.836 145.593 255.516 145.493 255.182 145.4C254.782 145.28 254.376 145.153 253.962 145.02C253.562 144.873 253.196 144.693 252.862 144.48C252.542 144.267 252.276 144 252.062 143.68C251.862 143.36 251.762 142.96 251.762 142.48V142.44C251.762 142 251.849 141.6 252.022 141.24C252.196 140.867 252.436 140.553 252.742 140.3C253.062 140.033 253.436 139.833 253.862 139.7C254.302 139.553 254.776 139.48 255.282 139.48C255.922 139.48 256.569 139.587 257.222 139.8C257.876 140 258.469 140.273 259.002 140.62L258.302 141.78C257.822 141.473 257.316 141.233 256.782 141.06C256.262 140.873 255.749 140.78 255.242 140.78C254.629 140.78 254.142 140.927 253.782 141.22C253.422 141.5 253.242 141.853 253.242 142.28V142.32C253.242 142.56 253.316 142.773 253.462 142.96C253.609 143.133 253.802 143.287 254.042 143.42C254.296 143.553 254.582 143.673 254.902 143.78C255.222 143.887 255.556 143.993 255.902 144.1C256.302 144.22 256.696 144.353 257.082 144.5C257.482 144.647 257.842 144.833 258.162 145.06C258.482 145.287 258.736 145.56 258.922 145.88C259.122 146.2 259.222 146.593 259.222 147.06V147.1ZM273.919 136.72C272.386 137.693 271.226 138.793 270.439 140.02C269.666 141.233 269.279 142.647 269.279 144.26C269.279 145.873 269.666 147.293 270.439 148.52C271.226 149.733 272.386 150.827 273.919 151.8L273.259 152.82C271.473 151.82 270.099 150.607 269.139 149.18C268.193 147.753 267.719 146.113 267.719 144.26C267.719 142.407 268.193 140.767 269.139 139.34C270.099 137.913 271.473 136.7 273.259 135.7L273.919 136.72ZM277.151 136H278.731V150H277.151V136ZM294.652 138.66L289.552 146.16H289.472L284.372 138.68V150H282.832V136H284.432L289.532 143.64L294.632 136H296.232V150H294.652V138.66ZM312.195 147.78C311.835 148.153 311.455 148.493 311.055 148.8C310.668 149.093 310.248 149.347 309.795 149.56C309.342 149.773 308.855 149.94 308.335 150.06C307.815 150.18 307.235 150.24 306.595 150.24C305.582 150.24 304.648 150.053 303.795 149.68C302.942 149.307 302.202 148.8 301.575 148.16C300.948 147.507 300.455 146.74 300.095 145.86C299.748 144.98 299.575 144.033 299.575 143.02C299.575 142.02 299.748 141.08 300.095 140.2C300.455 139.32 300.948 138.553 301.575 137.9C302.202 137.233 302.948 136.713 303.815 136.34C304.682 135.953 305.628 135.76 306.655 135.76C307.295 135.76 307.868 135.813 308.375 135.92C308.895 136.027 309.375 136.18 309.815 136.38C310.255 136.567 310.662 136.8 311.035 137.08C311.408 137.347 311.768 137.647 312.115 137.98L311.035 139.14C310.435 138.58 309.788 138.12 309.095 137.76C308.415 137.4 307.595 137.22 306.635 137.22C305.862 137.22 305.142 137.367 304.475 137.66C303.822 137.953 303.248 138.36 302.755 138.88C302.275 139.4 301.895 140.013 301.615 140.72C301.348 141.413 301.215 142.167 301.215 142.98C301.215 143.793 301.348 144.553 301.615 145.26C301.895 145.967 302.275 146.58 302.755 147.1C303.248 147.62 303.822 148.033 304.475 148.34C305.142 148.633 305.862 148.78 306.635 148.78C307.595 148.78 308.422 148.607 309.115 148.26C309.808 147.9 310.488 147.4 311.155 146.76L312.195 147.78ZM314.1 136.72L314.76 135.7C316.547 136.7 317.914 137.913 318.86 139.34C319.82 140.767 320.3 142.407 320.3 144.26C320.3 146.113 319.82 147.753 318.86 149.18C317.914 150.607 316.547 151.82 314.76 152.82L314.1 151.8C315.634 150.827 316.787 149.733 317.56 148.52C318.347 147.293 318.74 145.873 318.74 144.26C318.74 142.647 318.347 141.233 317.56 140.02C316.787 138.793 315.634 137.693 314.1 136.72ZM333.788 137.22C332.988 137.22 332.302 137.427 331.728 137.84C331.155 138.24 330.588 138.833 330.028 139.62L328.868 138.78C329.188 138.313 329.515 137.893 329.848 137.52C330.182 137.147 330.542 136.833 330.928 136.58C331.328 136.327 331.768 136.133 332.248 136C332.742 135.867 333.295 135.8 333.908 135.8C334.548 135.8 335.128 135.9 335.648 136.1C336.182 136.3 336.642 136.58 337.028 136.94C337.415 137.287 337.715 137.707 337.928 138.2C338.142 138.68 338.248 139.207 338.248 139.78C338.248 140.3 338.175 140.773 338.028 141.2C337.895 141.627 337.682 142.053 337.388 142.48C337.095 142.893 336.728 143.327 336.288 143.78C335.848 144.22 335.322 144.707 334.708 145.24L330.968 148.56H338.388V150H328.608V148.78L333.688 144.3C334.222 143.82 334.675 143.387 335.048 143C335.422 142.613 335.722 142.253 335.948 141.92C336.188 141.573 336.355 141.24 336.448 140.92C336.555 140.587 336.608 140.247 336.608 139.9C336.608 139.487 336.528 139.12 336.368 138.8C336.222 138.467 336.022 138.187 335.768 137.96C335.515 137.72 335.215 137.54 334.868 137.42C334.522 137.287 334.162 137.22 333.788 137.22ZM352.681 142.98C352.681 143.967 352.541 144.9 352.261 145.78C351.981 146.66 351.581 147.433 351.061 148.1C350.554 148.753 349.934 149.273 349.201 149.66C348.468 150.047 347.654 150.24 346.761 150.24C345.854 150.24 345.034 150.053 344.301 149.68C343.581 149.293 342.961 148.773 342.441 148.12C341.934 147.453 341.541 146.687 341.261 145.82C340.994 144.94 340.861 144.007 340.861 143.02C340.861 142.033 341.001 141.1 341.281 140.22C341.561 139.34 341.954 138.573 342.461 137.92C342.981 137.253 343.608 136.727 344.341 136.34C345.074 135.953 345.894 135.76 346.801 135.76C347.694 135.76 348.501 135.953 349.221 136.34C349.954 136.713 350.574 137.233 351.081 137.9C351.601 138.553 351.994 139.32 352.261 140.2C352.541 141.067 352.681 141.993 352.681 142.98ZM351.041 143.02C351.041 142.247 350.941 141.513 350.741 140.82C350.541 140.113 350.254 139.493 349.881 138.96C349.508 138.427 349.054 138 348.521 137.68C348.001 137.36 347.414 137.2 346.761 137.2C346.108 137.2 345.514 137.36 344.981 137.68C344.461 137.987 344.014 138.407 343.641 138.94C343.281 139.46 343.001 140.073 342.801 140.78C342.601 141.473 342.501 142.207 342.501 142.98C342.501 143.753 342.601 144.493 342.801 145.2C343.001 145.907 343.288 146.527 343.661 147.06C344.034 147.593 344.488 148.02 345.021 148.34C345.554 148.647 346.148 148.8 346.801 148.8C347.454 148.8 348.041 148.647 348.561 148.34C349.094 148.02 349.541 147.6 349.901 147.08C350.274 146.547 350.554 145.933 350.741 145.24C350.941 144.533 351.041 143.793 351.041 143.02ZM359.863 137.22C359.063 137.22 358.376 137.427 357.803 137.84C357.229 138.24 356.663 138.833 356.103 139.62L354.943 138.78C355.263 138.313 355.589 137.893 355.923 137.52C356.256 137.147 356.616 136.833 357.003 136.58C357.403 136.327 357.843 136.133 358.323 136C358.816 135.867 359.369 135.8 359.983 135.8C360.623 135.8 361.203 135.9 361.723 136.1C362.256 136.3 362.716 136.58 363.103 136.94C363.489 137.287 363.789 137.707 364.003 138.2C364.216 138.68 364.323 139.207 364.323 139.78C364.323 140.3 364.249 140.773 364.103 141.2C363.969 141.627 363.756 142.053 363.463 142.48C363.169 142.893 362.803 143.327 362.363 143.78C361.923 144.22 361.396 144.707 360.783 145.24L357.043 148.56H364.463V150H354.683V148.78L359.763 144.3C360.296 143.82 360.749 143.387 361.123 143C361.496 142.613 361.796 142.253 362.023 141.92C362.263 141.573 362.429 141.24 362.523 140.92C362.629 140.587 362.683 140.247 362.683 139.9C362.683 139.487 362.603 139.12 362.443 138.8C362.296 138.467 362.096 138.187 361.843 137.96C361.589 137.72 361.289 137.54 360.943 137.42C360.596 137.287 360.236 137.22 359.863 137.22ZM374.275 137.42H367.435V136H376.375V137.16L371.975 142.04C372.589 142.093 373.175 142.207 373.735 142.38C374.295 142.553 374.782 142.8 375.195 143.12C375.622 143.44 375.962 143.84 376.215 144.32C376.469 144.8 376.595 145.36 376.595 146C376.595 146.627 376.469 147.2 376.215 147.72C375.975 148.24 375.642 148.687 375.215 149.06C374.802 149.433 374.309 149.727 373.735 149.94C373.175 150.14 372.569 150.24 371.915 150.24C370.742 150.24 369.722 150.013 368.855 149.56C367.989 149.093 367.269 148.487 366.695 147.74L367.835 146.72C368.382 147.387 368.982 147.9 369.635 148.26C370.302 148.62 371.069 148.8 371.935 148.8C372.362 148.8 372.762 148.74 373.135 148.62C373.509 148.487 373.829 148.3 374.095 148.06C374.375 147.82 374.595 147.533 374.755 147.2C374.915 146.853 374.995 146.473 374.995 146.06C374.995 145.18 374.629 144.507 373.895 144.04C373.175 143.573 372.235 143.34 371.075 143.34H370.175L369.855 142.4L374.275 137.42Z" fill="#3E3E3E"/>
</svg>
