<svg width="547" height="195" viewBox="0 0 547 195" fill="none" xmlns="http://www.w3.org/2000/svg">
<g opacity="0.5">
<path d="M92.7379 194.582C92.6651 194.582 92.5892 194.576 92.5164 194.564C71.1571 191.187 53.6601 178.872 41.9155 158.953C34.2577 145.962 29.4761 130.343 28.0896 113.777C26.7274 97.5083 28.7116 81.4643 33.8269 67.3807C39.6886 51.2365 50.7384 36.5581 65.7809 24.9325C66.3998 24.4561 67.2888 24.5684 67.7651 25.1874C68.2445 25.8065 68.1292 26.6957 67.5103 27.1721C52.8925 38.4699 42.1643 52.7083 36.4847 68.3487C26.2935 96.4158 29.4549 132.248 44.3488 157.515C55.6504 176.684 72.4557 188.528 92.9533 191.769C93.7239 191.891 94.2519 192.616 94.1305 193.39C94.0213 194.088 93.4175 194.585 92.7349 194.585L92.7379 194.582Z" fill="#9BB7E0"/>
<path d="M71.1374 186.474C71.1374 186.474 84.5476 164.858 65.0148 134.13C64.2806 135.775 54.678 162.698 71.1374 186.474Z" fill="#3D86C6"/>
<path d="M58.3442 177.704C58.3442 177.704 33.7628 184.231 10.0703 156.583C11.8573 156.358 40.4072 155.026 58.3442 177.704Z" fill="#3D86C6"/>
<path d="M36.7477 146.432C36.7477 146.432 11.5201 143.207 0 108.664C1.73848 109.128 28.6834 118.663 36.7477 146.432Z" fill="#3D86C6"/>
<path d="M28.626 111.741C28.626 111.741 5.77099 100.576 5.96213 64.1641C7.45789 65.1655 29.9125 82.8512 28.626 111.741Z" fill="#3D86C6"/>
<path d="M32.2739 75.0311C32.2739 75.0311 13.2477 58.1496 23.1871 23.1211C24.3612 24.4867 41.2545 47.5436 32.2739 75.0311Z" fill="#3D86C6"/>
<path d="M44.0624 48.9027C44.0624 48.9027 33.3038 27.0262 53.9593 0C54.5115 1.63262 61.2955 28.1339 44.0624 48.9027Z" fill="#3D86C6"/>
<path d="M45.4895 162.804C45.4895 162.804 66.1965 144.014 55.89 106.266C54.5975 107.762 36.1873 132 45.4895 162.804Z" fill="#3D86C6"/>
<path d="M30.4766 120.696C30.4766 120.696 52.1878 108.381 53.0039 71.6685C51.4475 72.7306 30.5281 89.1235 30.4766 120.696Z" fill="#3D86C6"/>
<path d="M51.2119 45.7892C57.4346 41.2677 64.5948 38.1511 71.9826 36.0117C71.9674 37.5442 71.755 39.0736 71.3576 40.5545C70.863 42.3874 70.0803 44.1323 69.2216 45.8226C62.3406 59.3448 48.3569 72.1539 33.0898 75.1552C33.1384 73.4345 34.3004 71.1313 34.7798 69.444C37.5468 59.6908 42.9534 51.7917 51.2149 45.7892H51.2119Z" fill="#3D86C6"/>
<path d="M68.1913 22.0829C78.3339 13.8834 91.3345 9.29199 104.375 9.30717C104.687 13.4069 99.2866 17.1941 96.4559 19.3335C89.9753 24.2344 83.1579 27.5725 75.2331 29.7119C70.3545 31.0289 64.8721 32.088 59.8083 32.0789C59.6566 32.0789 59.4837 32.0667 59.3927 31.9484C59.2592 31.7785 59.3866 31.5326 59.514 31.3566C60.5153 29.9668 61.8108 28.8197 62.8636 27.4693C64.4382 25.4513 66.204 23.6912 68.1943 22.0829H68.1913Z" fill="#3D86C6"/>
</g>
<g opacity="0.5">
<path d="M453.647 194.582C452.965 194.582 452.361 194.084 452.252 193.386C452.13 192.616 452.655 191.89 453.429 191.766C473.924 188.525 490.732 176.681 502.034 157.511C516.93 132.245 520.092 96.4124 509.898 68.3453C504.218 52.7049 493.49 38.4665 478.872 27.1687C478.253 26.6892 478.141 25.8031 478.617 25.184C479.097 24.565 479.982 24.4527 480.601 24.9291C495.644 36.5547 506.694 51.2331 512.555 67.3772C517.671 81.4609 519.655 97.5049 518.293 113.773C516.906 130.336 512.128 145.958 504.467 158.95C492.722 178.869 475.225 191.183 453.866 194.561C453.79 194.573 453.717 194.579 453.644 194.579L453.647 194.582Z" fill="#9BB7E0"/>
<path d="M475.251 186.474C475.251 186.474 461.841 164.858 481.374 134.13C482.108 135.775 491.711 162.698 475.251 186.474Z" fill="#3D86C6"/>
<path d="M488.043 177.704C488.043 177.704 512.624 184.231 536.317 156.583C534.53 156.358 505.98 155.026 488.043 177.704Z" fill="#3D86C6"/>
<path d="M509.637 146.432C509.637 146.432 534.864 143.21 546.384 108.664C544.646 109.128 517.701 118.663 509.637 146.432Z" fill="#3D86C6"/>
<path d="M517.76 111.74C517.76 111.74 540.615 100.579 540.424 64.1636C538.928 65.165 516.474 82.8507 517.76 111.74Z" fill="#3D86C6"/>
<path d="M514.112 75.0306C514.112 75.0306 533.138 58.1491 523.199 23.1206C522.025 24.4862 505.132 47.5431 514.112 75.0306Z" fill="#3D86C6"/>
<path d="M502.324 48.9027C502.324 48.9027 513.083 27.0262 492.427 0C491.875 1.63262 485.091 28.1339 502.324 48.9027Z" fill="#3D86C6"/>
<path d="M500.898 162.804C500.898 162.804 480.191 144.014 490.497 106.266C491.79 107.762 510.2 132 500.898 162.804Z" fill="#3D86C6"/>
<path d="M515.914 120.696C515.914 120.696 494.203 108.381 493.387 71.6685C494.943 72.7306 515.863 89.1235 515.914 120.696Z" fill="#3D86C6"/>
<path d="M495.173 45.7892C488.95 41.2677 481.79 38.1511 474.402 36.0117C474.418 37.5442 474.63 39.0736 475.027 40.5545C475.522 42.3874 476.305 44.1323 477.163 45.8226C484.044 59.3448 498.028 72.1539 513.295 75.1552C513.247 73.4345 512.085 71.1313 511.605 69.444C508.838 59.6908 503.432 51.7917 495.17 45.7892H495.173Z" fill="#3D86C6"/>
<path d="M478.196 22.0829C468.054 13.8834 455.056 9.29199 442.013 9.30717C441.7 13.4069 447.101 17.1941 449.932 19.3335C456.412 24.2344 463.23 27.5725 471.154 29.7119C476.033 31.0289 481.516 32.088 486.579 32.0789C486.731 32.0789 486.904 32.0667 486.995 31.9484C487.128 31.7785 487.001 31.5326 486.874 31.3566C485.872 29.9668 484.577 28.8197 483.524 27.4693C481.949 25.4513 480.184 23.6912 478.193 22.0829H478.196Z" fill="#3D86C6"/>
</g>
<path d="M127.287 66.61C126.747 67.19 126.187 67.71 125.607 68.17C125.027 68.63 124.387 69.03 123.687 69.37C123.007 69.69 122.257 69.93 121.437 70.09C120.617 70.27 119.697 70.36 118.677 70.36C117.137 70.36 115.707 70.08 114.387 69.52C113.067 68.96 111.927 68.2 110.967 67.24C110.007 66.26 109.257 65.11 108.717 63.79C108.177 62.47 107.907 61.06 107.907 59.56V59.5C107.907 58 108.177 56.6 108.717 55.3C109.257 53.98 110.007 52.83 110.967 51.85C111.927 50.85 113.077 50.07 114.417 49.51C115.757 48.93 117.237 48.64 118.857 48.64C119.837 48.64 120.727 48.72 121.527 48.88C122.347 49.04 123.087 49.26 123.747 49.54C124.407 49.82 125.017 50.16 125.577 50.56C126.137 50.96 126.657 51.4 127.137 51.88L124.197 55.27C123.377 54.53 122.537 53.95 121.677 53.53C120.837 53.11 119.887 52.9 118.827 52.9C117.947 52.9 117.127 53.07 116.367 53.41C115.627 53.75 114.987 54.22 114.447 54.82C113.907 55.42 113.487 56.12 113.187 56.92C112.887 57.7 112.737 58.54 112.737 59.44V59.5C112.737 60.4 112.887 61.25 113.187 62.05C113.487 62.85 113.897 63.55 114.417 64.15C114.957 64.75 115.597 65.23 116.337 65.59C117.097 65.93 117.927 66.1 118.827 66.1C120.027 66.1 121.037 65.88 121.857 65.44C122.697 65 123.527 64.4 124.347 63.64L127.287 66.61ZM146.166 63.79C146.166 64.83 145.976 65.76 145.596 66.58C145.216 67.38 144.686 68.06 144.006 68.62C143.326 69.16 142.516 69.58 141.576 69.88C140.636 70.16 139.596 70.3 138.456 70.3C136.856 70.3 135.286 70.03 133.746 69.49C132.206 68.93 130.806 68.08 129.546 66.94L132.276 63.67C133.236 64.45 134.216 65.07 135.216 65.53C136.236 65.99 137.346 66.22 138.546 66.22C139.506 66.22 140.246 66.05 140.766 65.71C141.306 65.35 141.576 64.86 141.576 64.24V64.18C141.576 63.88 141.516 63.62 141.396 63.4C141.296 63.16 141.086 62.94 140.766 62.74C140.466 62.54 140.036 62.34 139.476 62.14C138.936 61.94 138.226 61.73 137.346 61.51C136.286 61.25 135.326 60.96 134.466 60.64C133.606 60.32 132.876 59.93 132.276 59.47C131.676 58.99 131.206 58.4 130.866 57.7C130.546 57 130.386 56.13 130.386 55.09V55.03C130.386 54.07 130.566 53.21 130.926 52.45C131.286 51.67 131.786 51 132.426 50.44C133.086 49.88 133.866 49.45 134.766 49.15C135.666 48.85 136.656 48.7 137.736 48.7C139.276 48.7 140.686 48.93 141.966 49.39C143.266 49.85 144.456 50.51 145.536 51.37L143.136 54.85C142.196 54.21 141.276 53.71 140.376 53.35C139.476 52.97 138.576 52.78 137.676 52.78C136.776 52.78 136.096 52.96 135.636 53.32C135.196 53.66 134.976 54.09 134.976 54.61V54.67C134.976 55.01 135.036 55.31 135.156 55.57C135.296 55.81 135.536 56.03 135.876 56.23C136.216 56.43 136.676 56.62 137.256 56.8C137.856 56.98 138.606 57.19 139.506 57.43C140.566 57.71 141.506 58.03 142.326 58.39C143.166 58.73 143.866 59.15 144.426 59.65C145.006 60.13 145.436 60.7 145.716 61.36C146.016 62.02 146.166 62.81 146.166 63.73V63.79ZM168.325 70H162.925L158.425 63.28H154.795V70H150.175V49H159.775C162.275 49 164.215 49.61 165.595 50.83C166.995 52.05 167.695 53.75 167.695 55.93V55.99C167.695 57.69 167.275 59.08 166.435 60.16C165.615 61.22 164.535 62 163.195 62.5L168.325 70ZM163.015 56.23V56.17C163.015 55.17 162.695 54.42 162.055 53.92C161.415 53.42 160.525 53.17 159.385 53.17H154.795V59.2H159.475C160.615 59.2 161.485 58.93 162.085 58.39C162.705 57.85 163.015 57.13 163.015 56.23ZM197.469 56.32C197.469 57.54 197.249 58.61 196.809 59.53C196.369 60.45 195.759 61.22 194.979 61.84C194.219 62.46 193.319 62.93 192.279 63.25C191.259 63.55 190.159 63.7 188.979 63.7H185.469V70H180.849V49H189.429C190.689 49 191.809 49.18 192.789 49.54C193.789 49.88 194.629 50.37 195.309 51.01C196.009 51.65 196.539 52.42 196.899 53.32C197.279 54.2 197.469 55.18 197.469 56.26V56.32ZM192.789 56.41V56.35C192.789 55.31 192.449 54.52 191.769 53.98C191.109 53.44 190.199 53.17 189.039 53.17H185.469V59.59H189.129C190.289 59.59 191.189 59.29 191.829 58.69C192.469 58.07 192.789 57.31 192.789 56.41ZM219.038 70H213.638L209.138 63.28H205.508V70H200.888V49H210.488C212.988 49 214.928 49.61 216.308 50.83C217.708 52.05 218.408 53.75 218.408 55.93V55.99C218.408 57.69 217.988 59.08 217.148 60.16C216.328 61.22 215.248 62 213.908 62.5L219.038 70ZM213.728 56.23V56.17C213.728 55.17 213.408 54.42 212.768 53.92C212.128 53.42 211.238 53.17 210.098 53.17H205.508V59.2H210.188C211.328 59.2 212.198 58.93 212.798 58.39C213.418 57.85 213.728 57.13 213.728 56.23ZM243.958 59.5C243.958 61 243.678 62.41 243.118 63.73C242.558 65.03 241.778 66.18 240.778 67.18C239.798 68.16 238.618 68.94 237.238 69.52C235.878 70.08 234.388 70.36 232.768 70.36C231.148 70.36 229.658 70.08 228.298 69.52C226.938 68.94 225.758 68.17 224.758 67.21C223.778 66.23 223.008 65.09 222.448 63.79C221.908 62.47 221.638 61.06 221.638 59.56V59.5C221.638 58 221.918 56.6 222.478 55.3C223.038 53.98 223.808 52.83 224.788 51.85C225.788 50.85 226.968 50.07 228.328 49.51C229.708 48.93 231.208 48.64 232.828 48.64C234.448 48.64 235.938 48.93 237.298 49.51C238.658 50.07 239.828 50.84 240.808 51.82C241.808 52.78 242.578 53.92 243.118 55.24C243.678 56.54 243.958 57.94 243.958 59.44V59.5ZM239.128 59.56V59.5C239.128 58.6 238.968 57.75 238.648 56.95C238.348 56.15 237.908 55.45 237.328 54.85C236.768 54.25 236.098 53.78 235.318 53.44C234.538 53.08 233.688 52.9 232.768 52.9C231.828 52.9 230.968 53.07 230.188 53.41C229.428 53.75 228.768 54.22 228.208 54.82C227.668 55.42 227.238 56.12 226.918 56.92C226.618 57.7 226.468 58.54 226.468 59.44V59.5C226.468 60.4 226.618 61.25 226.918 62.05C227.238 62.85 227.678 63.55 228.238 64.15C228.818 64.75 229.488 65.23 230.248 65.59C231.028 65.93 231.888 66.1 232.828 66.1C233.748 66.1 234.598 65.93 235.378 65.59C236.158 65.25 236.818 64.78 237.358 64.18C237.918 63.58 238.348 62.89 238.648 62.11C238.968 61.31 239.128 60.46 239.128 59.56ZM260.266 62.74C260.266 64.02 260.086 65.13 259.726 66.07C259.366 67.01 258.856 67.8 258.196 68.44C257.556 69.06 256.776 69.53 255.856 69.85C254.936 70.15 253.926 70.3 252.826 70.3C251.186 70.3 249.806 69.99 248.686 69.37C247.586 68.75 246.676 68.01 245.956 67.15L248.866 63.91C249.466 64.57 250.066 65.09 250.666 65.47C251.286 65.83 251.966 66.01 252.706 66.01C253.586 66.01 254.276 65.74 254.776 65.2C255.276 64.64 255.526 63.75 255.526 62.53V49H260.266V62.74ZM280.98 70H264.99V49H280.83V53.11H269.58V57.37H279.48V61.48H269.58V65.89H280.98V70ZM303.537 66.61C302.997 67.19 302.437 67.71 301.857 68.17C301.277 68.63 300.637 69.03 299.937 69.37C299.257 69.69 298.507 69.93 297.687 70.09C296.867 70.27 295.947 70.36 294.927 70.36C293.387 70.36 291.957 70.08 290.637 69.52C289.317 68.96 288.177 68.2 287.217 67.24C286.257 66.26 285.507 65.11 284.967 63.79C284.427 62.47 284.157 61.06 284.157 59.56V59.5C284.157 58 284.427 56.6 284.967 55.3C285.507 53.98 286.257 52.83 287.217 51.85C288.177 50.85 289.327 50.07 290.667 49.51C292.007 48.93 293.487 48.64 295.107 48.64C296.087 48.64 296.977 48.72 297.777 48.88C298.597 49.04 299.337 49.26 299.997 49.54C300.657 49.82 301.267 50.16 301.827 50.56C302.387 50.96 302.907 51.4 303.387 51.88L300.447 55.27C299.627 54.53 298.787 53.95 297.927 53.53C297.087 53.11 296.137 52.9 295.077 52.9C294.197 52.9 293.377 53.07 292.617 53.41C291.877 53.75 291.237 54.22 290.697 54.82C290.157 55.42 289.737 56.12 289.437 56.92C289.137 57.7 288.987 58.54 288.987 59.44V59.5C288.987 60.4 289.137 61.25 289.437 62.05C289.737 62.85 290.147 63.55 290.667 64.15C291.207 64.75 291.847 65.23 292.587 65.59C293.347 65.93 294.177 66.1 295.077 66.1C296.277 66.1 297.287 65.88 298.107 65.44C298.947 65 299.777 64.4 300.597 63.64L303.537 66.61ZM323.136 53.26H316.746V70H312.126V53.26H305.736V49H323.136V53.26ZM357.073 59.5C357.073 61 356.793 62.41 356.233 63.73C355.673 65.03 354.893 66.18 353.893 67.18C352.913 68.16 351.733 68.94 350.353 69.52C348.993 70.08 347.503 70.36 345.883 70.36C344.263 70.36 342.773 70.08 341.413 69.52C340.053 68.94 338.873 68.17 337.873 67.21C336.893 66.23 336.123 65.09 335.563 63.79C335.023 62.47 334.753 61.06 334.753 59.56V59.5C334.753 58 335.033 56.6 335.593 55.3C336.153 53.98 336.923 52.83 337.903 51.85C338.903 50.85 340.083 50.07 341.443 49.51C342.823 48.93 344.323 48.64 345.943 48.64C347.563 48.64 349.053 48.93 350.413 49.51C351.773 50.07 352.943 50.84 353.923 51.82C354.923 52.78 355.693 53.92 356.233 55.24C356.793 56.54 357.073 57.94 357.073 59.44V59.5ZM352.243 59.56V59.5C352.243 58.6 352.083 57.75 351.763 56.95C351.463 56.15 351.023 55.45 350.443 54.85C349.883 54.25 349.213 53.78 348.433 53.44C347.653 53.08 346.803 52.9 345.883 52.9C344.943 52.9 344.083 53.07 343.303 53.41C342.543 53.75 341.883 54.22 341.323 54.82C340.783 55.42 340.353 56.12 340.033 56.92C339.733 57.7 339.583 58.54 339.583 59.44V59.5C339.583 60.4 339.733 61.25 340.033 62.05C340.353 62.85 340.793 63.55 341.353 64.15C341.933 64.75 342.603 65.23 343.363 65.59C344.143 65.93 345.003 66.1 345.943 66.1C346.863 66.1 347.713 65.93 348.493 65.59C349.273 65.25 349.933 64.78 350.473 64.18C351.033 63.58 351.463 62.89 351.763 62.11C352.083 61.31 352.243 60.46 352.243 59.56ZM377.161 53.2H365.791V57.67H375.811V61.87H365.791V70H361.171V49H377.161V53.2ZM405.753 53.26H399.363V70H394.743V53.26H388.353V49H405.753V53.26ZM427.066 70H422.446V61.57H413.926V70H409.306V49H413.926V57.31H422.446V49H427.066V70ZM448.089 70H432.099V49H447.939V53.11H436.689V57.37H446.589V61.48H436.689V65.89H448.089V70ZM130.514 89L122.444 101.63V110H117.824V101.72L109.754 89H115.154L120.164 97.43L125.264 89H130.514ZM149.378 110H133.388V89H149.228V93.11H137.978V97.37H147.878V101.48H137.978V105.89H149.378V110ZM173.946 110H169.116L167.196 105.29H158.316L156.396 110H151.686L160.686 88.85H164.946L173.946 110ZM165.546 101.21L162.756 94.4L159.966 101.21H165.546ZM195.337 110H189.937L185.437 103.28H181.807V110H177.187V89H186.787C189.287 89 191.227 89.61 192.607 90.83C194.007 92.05 194.707 93.75 194.707 95.93V95.99C194.707 97.69 194.287 99.08 193.447 100.16C192.627 101.22 191.547 102 190.207 102.5L195.337 110ZM190.027 96.23V96.17C190.027 95.17 189.707 94.42 189.067 93.92C188.427 93.42 187.537 93.17 186.397 93.17H181.807V99.2H186.487C187.627 99.2 188.497 98.93 189.097 98.39C189.717 97.85 190.027 97.13 190.027 96.23ZM228.321 110H223.491L221.571 105.29H212.691L210.771 110H206.061L215.061 88.85H219.321L228.321 110ZM219.921 101.21L217.131 94.4L214.341 101.21H219.921ZM250.222 110H246.292L236.122 96.65V110H231.562V89H235.822L245.662 101.93V89H250.222V110ZM274.613 99.5C274.613 100.98 274.343 102.36 273.803 103.64C273.263 104.92 272.493 106.03 271.493 106.97C270.513 107.91 269.333 108.65 267.953 109.19C266.593 109.73 265.093 110 263.453 110H255.263V89H263.453C265.093 89 266.593 89.27 267.953 89.81C269.333 90.33 270.513 91.06 271.493 92C272.493 92.94 273.263 94.05 273.803 95.33C274.343 96.59 274.613 97.96 274.613 99.44V99.5ZM269.783 99.56V99.5C269.783 98.58 269.623 97.73 269.303 96.95C269.003 96.17 268.573 95.5 268.013 94.94C267.473 94.38 266.813 93.95 266.033 93.65C265.253 93.33 264.393 93.17 263.453 93.17H259.883V105.83H263.453C264.393 105.83 265.253 105.68 266.033 105.38C266.813 105.08 267.473 104.65 268.013 104.09C268.573 103.53 269.003 102.87 269.303 102.11C269.623 101.35 269.783 100.5 269.783 99.56ZM305.574 104.24C305.574 105.2 305.384 106.04 305.004 106.76C304.644 107.48 304.114 108.08 303.414 108.56C302.734 109.04 301.904 109.4 300.924 109.64C299.964 109.88 298.894 110 297.714 110H287.724V89H297.474C299.634 89 301.324 89.49 302.544 90.47C303.784 91.45 304.404 92.77 304.404 94.43V94.49C304.404 95.09 304.324 95.62 304.164 96.08C304.024 96.54 303.824 96.96 303.564 97.34C303.324 97.7 303.034 98.02 302.694 98.3C302.374 98.58 302.024 98.82 301.644 99.02C302.864 99.48 303.824 100.11 304.524 100.91C305.224 101.69 305.574 102.78 305.574 104.18V104.24ZM299.814 95.27V95.21C299.814 94.51 299.554 93.98 299.034 93.62C298.514 93.24 297.764 93.05 296.784 93.05H292.224V97.49H296.484C297.504 97.49 298.314 97.32 298.914 96.98C299.514 96.62 299.814 96.05 299.814 95.27ZM300.984 103.67V103.61C300.984 102.91 300.714 102.36 300.174 101.96C299.634 101.54 298.764 101.33 297.564 101.33H292.224V105.95H297.714C298.734 105.95 299.534 105.77 300.114 105.41C300.694 105.03 300.984 104.45 300.984 103.67ZM325.364 110H309.374V89H325.214V93.11H313.964V97.37H323.864V101.48H313.964V105.89H325.364V110ZM344.652 103.79C344.652 104.83 344.462 105.76 344.082 106.58C343.702 107.38 343.172 108.06 342.492 108.62C341.812 109.16 341.002 109.58 340.062 109.88C339.122 110.16 338.082 110.3 336.942 110.3C335.342 110.3 333.772 110.03 332.232 109.49C330.692 108.93 329.292 108.08 328.032 106.94L330.762 103.67C331.722 104.45 332.702 105.07 333.702 105.53C334.722 105.99 335.832 106.22 337.032 106.22C337.992 106.22 338.732 106.05 339.252 105.71C339.792 105.35 340.062 104.86 340.062 104.24V104.18C340.062 103.88 340.002 103.62 339.882 103.4C339.782 103.16 339.572 102.94 339.252 102.74C338.952 102.54 338.522 102.34 337.962 102.14C337.422 101.94 336.712 101.73 335.832 101.51C334.772 101.25 333.812 100.96 332.952 100.64C332.092 100.32 331.362 99.93 330.762 99.47C330.162 98.99 329.692 98.4 329.352 97.7C329.032 97 328.872 96.13 328.872 95.09V95.03C328.872 94.07 329.052 93.21 329.412 92.45C329.772 91.67 330.272 91 330.912 90.44C331.572 89.88 332.352 89.45 333.252 89.15C334.152 88.85 335.142 88.7 336.222 88.7C337.762 88.7 339.172 88.93 340.452 89.39C341.752 89.85 342.942 90.51 344.022 91.37L341.622 94.85C340.682 94.21 339.762 93.71 338.862 93.35C337.962 92.97 337.062 92.78 336.162 92.78C335.262 92.78 334.582 92.96 334.122 93.32C333.682 93.66 333.462 94.09 333.462 94.61V94.67C333.462 95.01 333.522 95.31 333.642 95.57C333.782 95.81 334.022 96.03 334.362 96.23C334.702 96.43 335.162 96.62 335.742 96.8C336.342 96.98 337.092 97.19 337.992 97.43C339.052 97.71 339.992 98.03 340.812 98.39C341.652 98.73 342.352 99.15 342.912 99.65C343.492 100.13 343.922 100.7 344.202 101.36C344.502 102.02 344.652 102.81 344.652 103.73V103.79ZM364.562 93.26H358.172V110H353.552V93.26H347.162V89H364.562V93.26ZM395.559 106.61C395.019 107.19 394.459 107.71 393.879 108.17C393.299 108.63 392.659 109.03 391.959 109.37C391.279 109.69 390.529 109.93 389.709 110.09C388.889 110.27 387.969 110.36 386.949 110.36C385.409 110.36 383.979 110.08 382.659 109.52C381.339 108.96 380.199 108.2 379.239 107.24C378.279 106.26 377.529 105.11 376.989 103.79C376.449 102.47 376.179 101.06 376.179 99.56V99.5C376.179 98 376.449 96.6 376.989 95.3C377.529 93.98 378.279 92.83 379.239 91.85C380.199 90.85 381.349 90.07 382.689 89.51C384.029 88.93 385.509 88.64 387.129 88.64C388.109 88.64 388.999 88.72 389.799 88.88C390.619 89.04 391.359 89.26 392.019 89.54C392.679 89.82 393.289 90.16 393.849 90.56C394.409 90.96 394.929 91.4 395.409 91.88L392.469 95.27C391.649 94.53 390.809 93.95 389.949 93.53C389.109 93.11 388.159 92.9 387.099 92.9C386.219 92.9 385.399 93.07 384.639 93.41C383.899 93.75 383.259 94.22 382.719 94.82C382.179 95.42 381.759 96.12 381.459 96.92C381.159 97.7 381.009 98.54 381.009 99.44V99.5C381.009 100.4 381.159 101.25 381.459 102.05C381.759 102.85 382.169 103.55 382.689 104.15C383.229 104.75 383.869 105.23 384.609 105.59C385.369 105.93 386.199 106.1 387.099 106.1C388.299 106.1 389.309 105.88 390.129 105.44C390.969 105 391.799 104.4 392.619 103.64L395.559 106.61ZM414.437 103.79C414.437 104.83 414.247 105.76 413.867 106.58C413.487 107.38 412.957 108.06 412.277 108.62C411.597 109.16 410.787 109.58 409.847 109.88C408.907 110.16 407.867 110.3 406.727 110.3C405.127 110.3 403.557 110.03 402.017 109.49C400.477 108.93 399.077 108.08 397.817 106.94L400.547 103.67C401.507 104.45 402.487 105.07 403.487 105.53C404.507 105.99 405.617 106.22 406.817 106.22C407.777 106.22 408.517 106.05 409.037 105.71C409.577 105.35 409.847 104.86 409.847 104.24V104.18C409.847 103.88 409.787 103.62 409.667 103.4C409.567 103.16 409.357 102.94 409.037 102.74C408.737 102.54 408.307 102.34 407.747 102.14C407.207 101.94 406.497 101.73 405.617 101.51C404.557 101.25 403.597 100.96 402.737 100.64C401.877 100.32 401.147 99.93 400.547 99.47C399.947 98.99 399.477 98.4 399.137 97.7C398.817 97 398.657 96.13 398.657 95.09V95.03C398.657 94.07 398.837 93.21 399.197 92.45C399.557 91.67 400.057 91 400.697 90.44C401.357 89.88 402.137 89.45 403.037 89.15C403.937 88.85 404.927 88.7 406.007 88.7C407.547 88.7 408.957 88.93 410.237 89.39C411.537 89.85 412.727 90.51 413.807 91.37L411.407 94.85C410.467 94.21 409.547 93.71 408.647 93.35C407.747 92.97 406.847 92.78 405.947 92.78C405.047 92.78 404.367 92.96 403.907 93.32C403.467 93.66 403.247 94.09 403.247 94.61V94.67C403.247 95.01 403.307 95.31 403.427 95.57C403.567 95.81 403.807 96.03 404.147 96.23C404.487 96.43 404.947 96.62 405.527 96.8C406.127 96.98 406.877 97.19 407.777 97.43C408.837 97.71 409.777 98.03 410.597 98.39C411.437 98.73 412.137 99.15 412.697 99.65C413.277 100.13 413.707 100.7 413.987 101.36C414.287 102.02 414.437 102.81 414.437 103.73V103.79ZM436.597 110H431.197L426.697 103.28H423.067V110H418.447V89H428.047C430.547 89 432.487 89.61 433.867 90.83C435.267 92.05 435.967 93.75 435.967 95.93V95.99C435.967 97.69 435.547 99.08 434.707 100.16C433.887 101.22 432.807 102 431.467 102.5L436.597 110ZM431.287 96.23V96.17C431.287 95.17 430.967 94.42 430.327 93.92C429.687 93.42 428.797 93.17 427.657 93.17H423.067V99.2H427.747C428.887 99.2 429.757 98.93 430.357 98.39C430.977 97.85 431.287 97.13 431.287 96.23ZM110.357 150H105.737V129H110.357V150ZM136.605 150H132.015V136.29L126.105 145.26H125.985L120.135 136.38V150H115.605V129H120.585L126.105 137.88L131.625 129H136.605V150ZM158.27 136.32C158.27 137.54 158.05 138.61 157.61 139.53C157.17 140.45 156.56 141.22 155.78 141.84C155.02 142.46 154.12 142.93 153.08 143.25C152.06 143.55 150.96 143.7 149.78 143.7H146.27V150H141.65V129H150.23C151.49 129 152.61 129.18 153.59 129.54C154.59 129.88 155.43 130.37 156.11 131.01C156.81 131.65 157.34 132.42 157.7 133.32C158.08 134.2 158.27 135.18 158.27 136.26V136.32ZM153.59 136.41V136.35C153.59 135.31 153.25 134.52 152.57 133.98C151.91 133.44 151 133.17 149.84 133.17H146.27V139.59H149.93C151.09 139.59 151.99 139.29 152.63 138.69C153.27 138.07 153.59 137.31 153.59 136.41ZM182.149 150H177.319L175.399 145.29H166.519L164.599 150H159.889L168.889 128.85H173.149L182.149 150ZM173.749 141.21L170.959 134.4L168.169 141.21H173.749ZM203.84 146.61C203.3 147.19 202.74 147.71 202.16 148.17C201.58 148.63 200.94 149.03 200.24 149.37C199.56 149.69 198.81 149.93 197.99 150.09C197.17 150.27 196.25 150.36 195.23 150.36C193.69 150.36 192.26 150.08 190.94 149.52C189.62 148.96 188.48 148.2 187.52 147.24C186.56 146.26 185.81 145.11 185.27 143.79C184.73 142.47 184.46 141.06 184.46 139.56V139.5C184.46 138 184.73 136.6 185.27 135.3C185.81 133.98 186.56 132.83 187.52 131.85C188.48 130.85 189.63 130.07 190.97 129.51C192.31 128.93 193.79 128.64 195.41 128.64C196.39 128.64 197.28 128.72 198.08 128.88C198.9 129.04 199.64 129.26 200.3 129.54C200.96 129.82 201.57 130.16 202.13 130.56C202.69 130.96 203.21 131.4 203.69 131.88L200.75 135.27C199.93 134.53 199.09 133.95 198.23 133.53C197.39 133.11 196.44 132.9 195.38 132.9C194.5 132.9 193.68 133.07 192.92 133.41C192.18 133.75 191.54 134.22 191 134.82C190.46 135.42 190.04 136.12 189.74 136.92C189.44 137.7 189.29 138.54 189.29 139.44V139.5C189.29 140.4 189.44 141.25 189.74 142.05C190.04 142.85 190.45 143.55 190.97 144.15C191.51 144.75 192.15 145.23 192.89 145.59C193.65 145.93 194.48 146.1 195.38 146.1C196.58 146.1 197.59 145.88 198.41 145.44C199.25 145 200.08 144.4 200.9 143.64L203.84 146.61ZM223.439 133.26H217.049V150H212.429V133.26H206.039V129H223.439V133.26ZM235.212 142.89H225.972V138.51H235.212V142.89ZM257.208 140.85C257.208 142.45 256.988 143.84 256.548 145.02C256.128 146.2 255.518 147.19 254.718 147.99C253.918 148.77 252.948 149.36 251.808 149.76C250.668 150.14 249.398 150.33 247.998 150.33C245.178 150.33 242.958 149.55 241.338 147.99C239.718 146.43 238.908 144.1 238.908 141V129H243.528V140.88C243.528 142.6 243.928 143.9 244.728 144.78C245.528 145.64 246.638 146.07 248.058 146.07C249.478 146.07 250.588 145.65 251.388 144.81C252.188 143.97 252.588 142.71 252.588 141.03V129H257.208V140.85ZM279.764 144.24C279.764 145.2 279.574 146.04 279.194 146.76C278.834 147.48 278.304 148.08 277.604 148.56C276.924 149.04 276.094 149.4 275.114 149.64C274.154 149.88 273.084 150 271.904 150H261.914V129H271.664C273.824 129 275.514 129.49 276.734 130.47C277.974 131.45 278.594 132.77 278.594 134.43V134.49C278.594 135.09 278.514 135.62 278.354 136.08C278.214 136.54 278.014 136.96 277.754 137.34C277.514 137.7 277.224 138.02 276.884 138.3C276.564 138.58 276.214 138.82 275.834 139.02C277.054 139.48 278.014 140.11 278.714 140.91C279.414 141.69 279.764 142.78 279.764 144.18V144.24ZM274.004 135.27V135.21C274.004 134.51 273.744 133.98 273.224 133.62C272.704 133.24 271.954 133.05 270.974 133.05H266.414V137.49H270.674C271.694 137.49 272.504 137.32 273.104 136.98C273.704 136.62 274.004 136.05 274.004 135.27ZM275.174 143.67V143.61C275.174 142.91 274.904 142.36 274.364 141.96C273.824 141.54 272.954 141.33 271.754 141.33H266.414V145.95H271.904C272.924 145.95 273.724 145.77 274.304 145.41C274.884 145.03 275.174 144.45 275.174 143.67ZM298.744 143.79C298.744 144.83 298.554 145.76 298.174 146.58C297.794 147.38 297.264 148.06 296.584 148.62C295.904 149.16 295.094 149.58 294.154 149.88C293.214 150.16 292.174 150.3 291.034 150.3C289.434 150.3 287.864 150.03 286.324 149.49C284.784 148.93 283.384 148.08 282.124 146.94L284.854 143.67C285.814 144.45 286.794 145.07 287.794 145.53C288.814 145.99 289.924 146.22 291.124 146.22C292.084 146.22 292.824 146.05 293.344 145.71C293.884 145.35 294.154 144.86 294.154 144.24V144.18C294.154 143.88 294.094 143.62 293.974 143.4C293.874 143.16 293.664 142.94 293.344 142.74C293.044 142.54 292.614 142.34 292.054 142.14C291.514 141.94 290.804 141.73 289.924 141.51C288.864 141.25 287.904 140.96 287.044 140.64C286.184 140.32 285.454 139.93 284.854 139.47C284.254 138.99 283.784 138.4 283.444 137.7C283.124 137 282.964 136.13 282.964 135.09V135.03C282.964 134.07 283.144 133.21 283.504 132.45C283.864 131.67 284.364 131 285.004 130.44C285.664 129.88 286.444 129.45 287.344 129.15C288.244 128.85 289.234 128.7 290.314 128.7C291.854 128.7 293.264 128.93 294.544 129.39C295.844 129.85 297.034 130.51 298.114 131.37L295.714 134.85C294.774 134.21 293.854 133.71 292.954 133.35C292.054 132.97 291.154 132.78 290.254 132.78C289.354 132.78 288.674 132.96 288.214 133.32C287.774 133.66 287.554 134.09 287.554 134.61V134.67C287.554 135.01 287.614 135.31 287.734 135.57C287.874 135.81 288.114 136.03 288.454 136.23C288.794 136.43 289.254 136.62 289.834 136.8C290.434 136.98 291.184 137.19 292.084 137.43C293.144 137.71 294.084 138.03 294.904 138.39C295.744 138.73 296.444 139.15 297.004 139.65C297.584 140.13 298.014 140.7 298.294 141.36C298.594 142.02 298.744 142.81 298.744 143.73V143.79ZM327.738 133.2H316.368V137.67H326.388V141.87H316.368V150H311.748V129H327.738V133.2ZM352.825 139.5C352.825 141 352.545 142.41 351.985 143.73C351.425 145.03 350.645 146.18 349.645 147.18C348.665 148.16 347.485 148.94 346.105 149.52C344.745 150.08 343.255 150.36 341.635 150.36C340.015 150.36 338.525 150.08 337.165 149.52C335.805 148.94 334.625 148.17 333.625 147.21C332.645 146.23 331.875 145.09 331.315 143.79C330.775 142.47 330.505 141.06 330.505 139.56V139.5C330.505 138 330.785 136.6 331.345 135.3C331.905 133.98 332.675 132.83 333.655 131.85C334.655 130.85 335.835 130.07 337.195 129.51C338.575 128.93 340.075 128.64 341.695 128.64C343.315 128.64 344.805 128.93 346.165 129.51C347.525 130.07 348.695 130.84 349.675 131.82C350.675 132.78 351.445 133.92 351.985 135.24C352.545 136.54 352.825 137.94 352.825 139.44V139.5ZM347.995 139.56V139.5C347.995 138.6 347.835 137.75 347.515 136.95C347.215 136.15 346.775 135.45 346.195 134.85C345.635 134.25 344.965 133.78 344.185 133.44C343.405 133.08 342.555 132.9 341.635 132.9C340.695 132.9 339.835 133.07 339.055 133.41C338.295 133.75 337.635 134.22 337.075 134.82C336.535 135.42 336.105 136.12 335.785 136.92C335.485 137.7 335.335 138.54 335.335 139.44V139.5C335.335 140.4 335.485 141.25 335.785 142.05C336.105 142.85 336.545 143.55 337.105 144.15C337.685 144.75 338.355 145.23 339.115 145.59C339.895 145.93 340.755 146.1 341.695 146.1C342.615 146.1 343.465 145.93 344.245 145.59C345.025 145.25 345.685 144.78 346.225 144.18C346.785 143.58 347.215 142.89 347.515 142.11C347.835 141.31 347.995 140.46 347.995 139.56ZM375.073 150H369.673L365.173 143.28H361.543V150H356.923V129H366.523C369.023 129 370.963 129.61 372.343 130.83C373.743 132.05 374.443 133.75 374.443 135.93V135.99C374.443 137.69 374.023 139.08 373.183 140.16C372.363 141.22 371.283 142 369.943 142.5L375.073 150ZM369.763 136.23V136.17C369.763 135.17 369.443 134.42 368.803 133.92C368.163 133.42 367.273 133.17 366.133 133.17H361.543V139.2H366.223C367.363 139.2 368.233 138.93 368.833 138.39C369.453 137.85 369.763 137.13 369.763 136.23ZM396.573 140.85C396.573 142.45 396.353 143.84 395.913 145.02C395.493 146.2 394.883 147.19 394.083 147.99C393.283 148.77 392.313 149.36 391.173 149.76C390.033 150.14 388.763 150.33 387.363 150.33C384.543 150.33 382.323 149.55 380.703 147.99C379.083 146.43 378.273 144.1 378.273 141V129H382.893V140.88C382.893 142.6 383.293 143.9 384.093 144.78C384.893 145.64 386.003 146.07 387.423 146.07C388.843 146.07 389.953 145.65 390.753 144.81C391.553 143.97 391.953 142.71 391.953 141.03V129H396.573V140.85ZM422.279 150H417.689V136.29L411.779 145.26H411.659L405.809 136.38V150H401.279V129H406.259L411.779 137.88L417.299 129H422.279V150ZM442.504 143.79C442.504 144.83 442.314 145.76 441.934 146.58C441.554 147.38 441.024 148.06 440.344 148.62C439.664 149.16 438.854 149.58 437.914 149.88C436.974 150.16 435.934 150.3 434.794 150.3C433.194 150.3 431.624 150.03 430.084 149.49C428.544 148.93 427.144 148.08 425.884 146.94L428.614 143.67C429.574 144.45 430.554 145.07 431.554 145.53C432.574 145.99 433.684 146.22 434.884 146.22C435.844 146.22 436.584 146.05 437.104 145.71C437.644 145.35 437.914 144.86 437.914 144.24V144.18C437.914 143.88 437.854 143.62 437.734 143.4C437.634 143.16 437.424 142.94 437.104 142.74C436.804 142.54 436.374 142.34 435.814 142.14C435.274 141.94 434.564 141.73 433.684 141.51C432.624 141.25 431.664 140.96 430.804 140.64C429.944 140.32 429.214 139.93 428.614 139.47C428.014 138.99 427.544 138.4 427.204 137.7C426.884 137 426.724 136.13 426.724 135.09V135.03C426.724 134.07 426.904 133.21 427.264 132.45C427.624 131.67 428.124 131 428.764 130.44C429.424 129.88 430.204 129.45 431.104 129.15C432.004 128.85 432.994 128.7 434.074 128.7C435.614 128.7 437.024 128.93 438.304 129.39C439.604 129.85 440.794 130.51 441.874 131.37L439.474 134.85C438.534 134.21 437.614 133.71 436.714 133.35C435.814 132.97 434.914 132.78 434.014 132.78C433.114 132.78 432.434 132.96 431.974 133.32C431.534 133.66 431.314 134.09 431.314 134.61V134.67C431.314 135.01 431.374 135.31 431.494 135.57C431.634 135.81 431.874 136.03 432.214 136.23C432.554 136.43 433.014 136.62 433.594 136.8C434.194 136.98 434.944 137.19 435.844 137.43C436.904 137.71 437.844 138.03 438.664 138.39C439.504 138.73 440.204 139.15 440.764 139.65C441.344 140.13 441.774 140.7 442.054 141.36C442.354 142.02 442.504 142.81 442.504 143.73V143.79Z" fill="#AD3088"/>
</svg>
