<svg width="547" height="195" viewBox="0 0 547 195" fill="none" xmlns="http://www.w3.org/2000/svg">
<g opacity="0.5">
<path d="M92.7379 194.582C92.6651 194.582 92.5892 194.576 92.5164 194.564C71.1571 191.187 53.6601 178.872 41.9155 158.953C34.2577 145.962 29.4761 130.343 28.0896 113.777C26.7274 97.5083 28.7116 81.4643 33.8269 67.3807C39.6886 51.2365 50.7384 36.5581 65.7809 24.9325C66.3998 24.4561 67.2888 24.5684 67.7651 25.1874C68.2445 25.8065 68.1292 26.6957 67.5103 27.1721C52.8925 38.4699 42.1643 52.7083 36.4847 68.3487C26.2935 96.4158 29.4549 132.248 44.3488 157.515C55.6504 176.684 72.4557 188.528 92.9533 191.769C93.7239 191.891 94.2519 192.616 94.1305 193.39C94.0213 194.088 93.4175 194.585 92.7349 194.585L92.7379 194.582Z" fill="#9BB7E0"/>
<path d="M71.1374 186.474C71.1374 186.474 84.5476 164.858 65.0148 134.13C64.2806 135.775 54.678 162.698 71.1374 186.474Z" fill="#3D86C6"/>
<path d="M58.3442 177.704C58.3442 177.704 33.7628 184.231 10.0703 156.583C11.8573 156.358 40.4072 155.026 58.3442 177.704Z" fill="#3D86C6"/>
<path d="M36.7477 146.432C36.7477 146.432 11.5201 143.207 0 108.664C1.73848 109.128 28.6834 118.663 36.7477 146.432Z" fill="#3D86C6"/>
<path d="M28.626 111.741C28.626 111.741 5.77099 100.576 5.96213 64.1641C7.45789 65.1655 29.9125 82.8512 28.626 111.741Z" fill="#3D86C6"/>
<path d="M32.2739 75.0311C32.2739 75.0311 13.2477 58.1496 23.1871 23.1211C24.3612 24.4867 41.2545 47.5436 32.2739 75.0311Z" fill="#3D86C6"/>
<path d="M44.0624 48.9027C44.0624 48.9027 33.3038 27.0262 53.9593 0C54.5115 1.63262 61.2955 28.1339 44.0624 48.9027Z" fill="#3D86C6"/>
<path d="M45.4895 162.804C45.4895 162.804 66.1965 144.014 55.89 106.266C54.5975 107.762 36.1873 132 45.4895 162.804Z" fill="#3D86C6"/>
<path d="M30.4766 120.696C30.4766 120.696 52.1878 108.381 53.0039 71.6685C51.4475 72.7306 30.5281 89.1235 30.4766 120.696Z" fill="#3D86C6"/>
<path d="M51.2119 45.7892C57.4346 41.2677 64.5948 38.1511 71.9826 36.0117C71.9674 37.5442 71.755 39.0736 71.3576 40.5545C70.863 42.3874 70.0803 44.1323 69.2216 45.8226C62.3406 59.3448 48.3569 72.1539 33.0898 75.1552C33.1384 73.4345 34.3004 71.1313 34.7798 69.444C37.5468 59.6908 42.9534 51.7917 51.2149 45.7892H51.2119Z" fill="#3D86C6"/>
<path d="M68.1913 22.0829C78.3339 13.8834 91.3345 9.29199 104.375 9.30717C104.687 13.4069 99.2866 17.1941 96.4559 19.3335C89.9753 24.2344 83.1579 27.5725 75.2331 29.7119C70.3545 31.0289 64.8721 32.088 59.8083 32.0789C59.6566 32.0789 59.4837 32.0667 59.3927 31.9484C59.2592 31.7785 59.3866 31.5326 59.514 31.3566C60.5153 29.9668 61.8108 28.8197 62.8636 27.4693C64.4382 25.4513 66.204 23.6912 68.1943 22.0829H68.1913Z" fill="#3D86C6"/>
</g>
<g opacity="0.5">
<path d="M453.647 194.582C452.965 194.582 452.361 194.084 452.252 193.386C452.13 192.616 452.655 191.89 453.429 191.766C473.924 188.525 490.732 176.681 502.034 157.511C516.93 132.245 520.092 96.4124 509.898 68.3453C504.218 52.7049 493.49 38.4665 478.872 27.1687C478.253 26.6892 478.141 25.8031 478.617 25.184C479.097 24.565 479.982 24.4527 480.601 24.9291C495.644 36.5547 506.694 51.2331 512.555 67.3772C517.671 81.4609 519.655 97.5049 518.293 113.773C516.906 130.336 512.128 145.958 504.467 158.95C492.722 178.869 475.225 191.183 453.866 194.561C453.79 194.573 453.717 194.579 453.644 194.579L453.647 194.582Z" fill="#9BB7E0"/>
<path d="M475.251 186.474C475.251 186.474 461.841 164.858 481.374 134.13C482.108 135.775 491.711 162.698 475.251 186.474Z" fill="#3D86C6"/>
<path d="M488.043 177.704C488.043 177.704 512.624 184.231 536.317 156.583C534.53 156.358 505.98 155.026 488.043 177.704Z" fill="#3D86C6"/>
<path d="M509.637 146.432C509.637 146.432 534.864 143.21 546.384 108.664C544.646 109.128 517.701 118.663 509.637 146.432Z" fill="#3D86C6"/>
<path d="M517.76 111.74C517.76 111.74 540.615 100.579 540.424 64.1636C538.928 65.165 516.474 82.8507 517.76 111.74Z" fill="#3D86C6"/>
<path d="M514.112 75.0306C514.112 75.0306 533.138 58.1491 523.199 23.1206C522.025 24.4862 505.132 47.5431 514.112 75.0306Z" fill="#3D86C6"/>
<path d="M502.324 48.9027C502.324 48.9027 513.083 27.0262 492.427 0C491.875 1.63262 485.091 28.1339 502.324 48.9027Z" fill="#3D86C6"/>
<path d="M500.898 162.804C500.898 162.804 480.191 144.014 490.497 106.266C491.79 107.762 510.2 132 500.898 162.804Z" fill="#3D86C6"/>
<path d="M515.914 120.696C515.914 120.696 494.203 108.381 493.387 71.6685C494.943 72.7306 515.863 89.1235 515.914 120.696Z" fill="#3D86C6"/>
<path d="M495.173 45.7892C488.95 41.2677 481.79 38.1511 474.402 36.0117C474.418 37.5442 474.63 39.0736 475.027 40.5545C475.522 42.3874 476.305 44.1323 477.163 45.8226C484.044 59.3448 498.028 72.1539 513.295 75.1552C513.247 73.4345 512.085 71.1313 511.605 69.444C508.838 59.6908 503.432 51.7917 495.17 45.7892H495.173Z" fill="#3D86C6"/>
<path d="M478.196 22.0829C468.054 13.8834 455.056 9.29199 442.013 9.30717C441.7 13.4069 447.101 17.1941 449.932 19.3335C456.412 24.2344 463.23 27.5725 471.154 29.7119C476.033 31.0289 481.516 32.088 486.579 32.0789C486.731 32.0789 486.904 32.0667 486.995 31.9484C487.128 31.7785 487.001 31.5326 486.874 31.3566C485.872 29.9668 484.577 28.8197 483.524 27.4693C481.949 25.4513 480.184 23.6912 478.193 22.0829H478.196Z" fill="#3D86C6"/>
</g>
<path d="M181.47 67.03C180.39 67.95 179.1 68.74 177.6 69.4C176.12 70.04 174.42 70.36 172.5 70.36C170.86 70.36 169.36 70.09 168 69.55C166.66 69.01 165.5 68.26 164.52 67.3C163.56 66.34 162.81 65.2 162.27 63.88C161.73 62.56 161.46 61.12 161.46 59.56V59.5C161.46 58 161.73 56.6 162.27 55.3C162.83 53.98 163.6 52.83 164.58 51.85C165.56 50.85 166.72 50.07 168.06 49.51C169.4 48.93 170.87 48.64 172.47 48.64C173.41 48.64 174.26 48.71 175.02 48.85C175.8 48.97 176.52 49.15 177.18 49.39C177.84 49.63 178.46 49.93 179.04 50.29C179.62 50.65 180.18 51.06 180.72 51.52L177.81 55.03C177.41 54.69 177.01 54.39 176.61 54.13C176.21 53.87 175.79 53.65 175.35 53.47C174.93 53.29 174.47 53.15 173.97 53.05C173.47 52.95 172.92 52.9 172.32 52.9C171.48 52.9 170.69 53.08 169.95 53.44C169.23 53.78 168.59 54.25 168.03 54.85C167.49 55.43 167.06 56.12 166.74 56.92C166.44 57.7 166.29 58.54 166.29 59.44V59.5C166.29 60.46 166.44 61.35 166.74 62.17C167.06 62.97 167.5 63.67 168.06 64.27C168.64 64.87 169.31 65.34 170.07 65.68C170.85 66 171.71 66.16 172.65 66.16C174.37 66.16 175.82 65.74 177 64.9V61.9H172.35V57.91H181.47V67.03ZM207.306 59.5C207.306 61 207.026 62.41 206.466 63.73C205.906 65.03 205.126 66.18 204.126 67.18C203.146 68.16 201.966 68.94 200.586 69.52C199.226 70.08 197.736 70.36 196.116 70.36C194.496 70.36 193.006 70.08 191.646 69.52C190.286 68.94 189.106 68.17 188.106 67.21C187.126 66.23 186.356 65.09 185.796 63.79C185.256 62.47 184.986 61.06 184.986 59.56V59.5C184.986 58 185.266 56.6 185.826 55.3C186.386 53.98 187.156 52.83 188.136 51.85C189.136 50.85 190.316 50.07 191.676 49.51C193.056 48.93 194.556 48.64 196.176 48.64C197.796 48.64 199.286 48.93 200.646 49.51C202.006 50.07 203.176 50.84 204.156 51.82C205.156 52.78 205.926 53.92 206.466 55.24C207.026 56.54 207.306 57.94 207.306 59.44V59.5ZM202.476 59.56V59.5C202.476 58.6 202.316 57.75 201.996 56.95C201.696 56.15 201.256 55.45 200.676 54.85C200.116 54.25 199.446 53.78 198.666 53.44C197.886 53.08 197.036 52.9 196.116 52.9C195.176 52.9 194.316 53.07 193.536 53.41C192.776 53.75 192.116 54.22 191.556 54.82C191.016 55.42 190.586 56.12 190.266 56.92C189.966 57.7 189.816 58.54 189.816 59.44V59.5C189.816 60.4 189.966 61.25 190.266 62.05C190.586 62.85 191.026 63.55 191.586 64.15C192.166 64.75 192.836 65.23 193.596 65.59C194.376 65.93 195.236 66.1 196.176 66.1C197.096 66.1 197.946 65.93 198.726 65.59C199.506 65.25 200.166 64.78 200.706 64.18C201.266 63.58 201.696 62.89 201.996 62.11C202.316 61.31 202.476 60.46 202.476 59.56ZM226.494 70H211.404V49H216.024V65.8H226.494V70ZM249.328 59.5C249.328 60.98 249.058 62.36 248.518 63.64C247.978 64.92 247.208 66.03 246.208 66.97C245.228 67.91 244.048 68.65 242.668 69.19C241.308 69.73 239.808 70 238.168 70H229.978V49H238.168C239.808 49 241.308 49.27 242.668 49.81C244.048 50.33 245.228 51.06 246.208 52C247.208 52.94 247.978 54.05 248.518 55.33C249.058 56.59 249.328 57.96 249.328 59.44V59.5ZM244.498 59.56V59.5C244.498 58.58 244.338 57.73 244.018 56.95C243.718 56.17 243.288 55.5 242.728 54.94C242.188 54.38 241.528 53.95 240.748 53.65C239.968 53.33 239.108 53.17 238.168 53.17H234.598V65.83H238.168C239.108 65.83 239.968 65.68 240.748 65.38C241.528 65.08 242.188 64.65 242.728 64.09C243.288 63.53 243.718 62.87 244.018 62.11C244.338 61.35 244.498 60.5 244.498 59.56ZM282.899 70H278.069L276.149 65.29H267.269L265.349 70H260.639L269.639 48.85H273.899L282.899 70ZM274.499 61.21L271.709 54.4L268.919 61.21H274.499ZM316.38 49L309.21 70.15H305.19L300.45 56.41L295.71 70.15H291.69L284.52 49H289.47L293.82 63.22L298.53 48.94H302.49L307.2 63.22L311.55 49H316.38ZM340.262 70H335.432L333.512 65.29H324.632L322.712 70H318.002L327.002 48.85H331.262L340.262 70ZM331.862 61.21L329.072 54.4L326.282 61.21H331.862ZM361.653 70H356.253L351.753 63.28H348.123V70H343.503V49H353.103C355.603 49 357.543 49.61 358.923 50.83C360.323 52.05 361.023 53.75 361.023 55.93V55.99C361.023 57.69 360.603 59.08 359.763 60.16C358.943 61.22 357.863 62 356.523 62.5L361.653 70ZM356.343 56.23V56.17C356.343 55.17 356.023 54.42 355.383 53.92C354.743 53.42 353.853 53.17 352.713 53.17H348.123V59.2H352.803C353.943 59.2 354.813 58.93 355.413 58.39C356.033 57.85 356.343 57.13 356.343 56.23ZM384.533 59.5C384.533 60.98 384.263 62.36 383.723 63.64C383.183 64.92 382.413 66.03 381.413 66.97C380.433 67.91 379.253 68.65 377.873 69.19C376.513 69.73 375.013 70 373.373 70H365.183V49H373.373C375.013 49 376.513 49.27 377.873 49.81C379.253 50.33 380.433 51.06 381.413 52C382.413 52.94 383.183 54.05 383.723 55.33C384.263 56.59 384.533 57.96 384.533 59.44V59.5ZM379.703 59.56V59.5C379.703 58.58 379.543 57.73 379.223 56.95C378.923 56.17 378.493 55.5 377.933 54.94C377.393 54.38 376.733 53.95 375.953 53.65C375.173 53.33 374.313 53.17 373.373 53.17H369.803V65.83H373.373C374.313 65.83 375.173 65.68 375.953 65.38C376.733 65.08 377.393 64.65 377.933 64.09C378.493 63.53 378.923 62.87 379.223 62.11C379.543 61.35 379.703 60.5 379.703 59.56Z" fill="#AD3088"/>
<path d="M130.612 85.4H128.852V83.7H130.612V85.4ZM130.492 98H128.952V87.66H130.492V98ZM135.606 92.08V98H134.066V87.66H135.606V89.46C135.952 88.9 136.406 88.4267 136.966 88.04C137.526 87.64 138.252 87.44 139.146 87.44C139.772 87.44 140.326 87.54 140.806 87.74C141.299 87.94 141.712 88.2267 142.046 88.6C142.392 88.96 142.652 89.3933 142.826 89.9C143.012 90.4067 143.106 90.9667 143.106 91.58V98H141.566V91.96C141.566 91 141.319 90.24 140.826 89.68C140.332 89.12 139.626 88.84 138.706 88.84C138.266 88.84 137.852 88.92 137.466 89.08C137.092 89.2267 136.766 89.4467 136.486 89.74C136.206 90.02 135.986 90.36 135.826 90.76C135.679 91.16 135.606 91.6 135.606 92.08ZM151.146 85.1L155.166 83.9H157.266V98H154.226V87.02L151.786 87.62L151.146 85.1ZM167.404 83.9H170.004V92.48H171.884V94.98H170.004V98H167.064V94.98H160.224L159.724 92.8L167.404 83.9ZM167.064 92.48V88.12L163.344 92.48H167.064ZM180.273 97.56C179.953 97.7467 179.599 97.8933 179.213 98C178.826 98.12 178.379 98.18 177.873 98.18C177.406 98.18 176.979 98.1267 176.593 98.02C176.219 97.9267 175.893 97.7533 175.613 97.5C175.346 97.2467 175.133 96.92 174.973 96.52C174.826 96.1067 174.753 95.5867 174.753 94.96V89.88H173.473V87.28H174.753V84.54H177.793V87.28H180.313V89.88H177.793V94.46C177.793 95.1533 178.119 95.5 178.773 95.5C179.306 95.5 179.806 95.3733 180.273 95.12V97.56ZM192.373 98H189.333V92.02C189.333 91.3 189.173 90.76 188.853 90.4C188.533 90.0267 188.08 89.84 187.493 89.84C186.907 89.84 186.44 90.0267 186.093 90.4C185.76 90.76 185.593 91.3 185.593 92.02V98H182.553V83.4H185.593V88.8C185.767 88.5733 185.953 88.36 186.153 88.16C186.367 87.9467 186.6 87.76 186.853 87.6C187.107 87.44 187.387 87.3133 187.693 87.22C188 87.1267 188.347 87.08 188.733 87.08C189.893 87.08 190.787 87.4333 191.413 88.14C192.053 88.8467 192.373 89.82 192.373 91.06V98ZM211.99 98H201.33V84H211.89V86.74H204.39V89.58H210.99V92.32H204.39V95.26H211.99V98ZM227.069 98H223.469L220.329 93.2L217.169 98H213.669L218.549 90.88L213.869 84H217.469L220.409 88.54L223.369 84H226.869L222.189 90.84L227.069 98ZM241.677 95.74C241.317 96.1267 240.944 96.4733 240.557 96.78C240.171 97.0867 239.744 97.3533 239.277 97.58C238.824 97.7933 238.324 97.9533 237.777 98.06C237.231 98.18 236.617 98.24 235.937 98.24C234.911 98.24 233.957 98.0533 233.077 97.68C232.197 97.3067 231.437 96.8 230.797 96.16C230.157 95.5067 229.657 94.74 229.297 93.86C228.937 92.98 228.757 92.04 228.757 91.04V91C228.757 90 228.937 89.0667 229.297 88.2C229.657 87.32 230.157 86.5533 230.797 85.9C231.437 85.2333 232.204 84.7133 233.097 84.34C233.991 83.9533 234.977 83.76 236.057 83.76C236.711 83.76 237.304 83.8133 237.837 83.92C238.384 84.0267 238.877 84.1733 239.317 84.36C239.757 84.5467 240.164 84.7733 240.537 85.04C240.911 85.3067 241.257 85.6 241.577 85.92L239.617 88.18C239.071 87.6867 238.511 87.3 237.937 87.02C237.377 86.74 236.744 86.6 236.037 86.6C235.451 86.6 234.904 86.7133 234.397 86.94C233.904 87.1667 233.477 87.48 233.117 87.88C232.757 88.28 232.477 88.7467 232.277 89.28C232.077 89.8 231.977 90.36 231.977 90.96V91C231.977 91.6 232.077 92.1667 232.277 92.7C232.477 93.2333 232.751 93.7 233.097 94.1C233.457 94.5 233.884 94.82 234.377 95.06C234.884 95.2867 235.437 95.4 236.037 95.4C236.837 95.4 237.511 95.2533 238.057 94.96C238.617 94.6667 239.171 94.2667 239.717 93.76L241.677 95.74ZM254.803 98H244.143V84H254.703V86.74H247.203V89.58H253.803V92.32H247.203V95.26H254.803V98ZM268.201 98H257.541V84H268.101V86.74H260.601V89.58H267.201V92.32H260.601V95.26H268.201V98ZM283.84 91C283.84 91.9867 283.66 92.9067 283.3 93.76C282.94 94.6133 282.426 95.3533 281.76 95.98C281.106 96.6067 280.32 97.1 279.4 97.46C278.493 97.82 277.493 98 276.4 98H270.94V84H276.4C277.493 84 278.493 84.18 279.4 84.54C280.32 84.8867 281.106 85.3733 281.76 86C282.426 86.6267 282.94 87.3667 283.3 88.22C283.66 89.06 283.84 89.9733 283.84 90.96V91ZM280.62 91.04V91C280.62 90.3867 280.513 89.82 280.3 89.3C280.1 88.78 279.813 88.3333 279.44 87.96C279.08 87.5867 278.64 87.3 278.12 87.1C277.6 86.8867 277.026 86.78 276.4 86.78H274.02V95.22H276.4C277.026 95.22 277.6 95.12 278.12 94.92C278.64 94.72 279.08 94.4333 279.44 94.06C279.813 93.6867 280.1 93.2467 280.3 92.74C280.513 92.2333 280.62 91.6667 280.62 91.04ZM305.3 96.02C304.58 96.6333 303.72 97.16 302.72 97.6C301.734 98.0267 300.6 98.24 299.32 98.24C298.227 98.24 297.227 98.06 296.32 97.7C295.427 97.34 294.654 96.84 294 96.2C293.36 95.56 292.86 94.8 292.5 93.92C292.14 93.04 291.96 92.08 291.96 91.04V91C291.96 90 292.14 89.0667 292.5 88.2C292.874 87.32 293.387 86.5533 294.04 85.9C294.694 85.2333 295.467 84.7133 296.36 84.34C297.254 83.9533 298.234 83.76 299.3 83.76C299.927 83.76 300.494 83.8067 301 83.9C301.52 83.98 302 84.1 302.44 84.26C302.88 84.42 303.294 84.62 303.68 84.86C304.067 85.1 304.44 85.3733 304.8 85.68L302.86 88.02C302.594 87.7933 302.327 87.5933 302.06 87.42C301.794 87.2467 301.514 87.1 301.22 86.98C300.94 86.86 300.634 86.7667 300.3 86.7C299.967 86.6333 299.6 86.6 299.2 86.6C298.64 86.6 298.114 86.72 297.62 86.96C297.14 87.1867 296.714 87.5 296.34 87.9C295.98 88.2867 295.694 88.7467 295.48 89.28C295.28 89.8 295.18 90.36 295.18 90.96V91C295.18 91.64 295.28 92.2333 295.48 92.78C295.694 93.3133 295.987 93.78 296.36 94.18C296.747 94.58 297.194 94.8933 297.7 95.12C298.22 95.3333 298.794 95.44 299.42 95.44C300.567 95.44 301.534 95.16 302.32 94.6V92.6H299.22V89.94H305.3V96.02ZM314.404 90.26H314.244C313.231 90.26 312.431 90.5667 311.844 91.18C311.271 91.7933 310.984 92.7467 310.984 94.04V98H307.944V87.28H310.984V89.44C311.291 88.7067 311.711 88.12 312.244 87.68C312.777 87.24 313.497 87.04 314.404 87.08V90.26ZM326.303 92.94C326.303 93.0867 326.297 93.2133 326.283 93.32C326.283 93.4267 326.277 93.5533 326.263 93.7H318.803C318.95 94.3933 319.25 94.92 319.703 95.28C320.17 95.6267 320.743 95.8 321.423 95.8C321.93 95.8 322.383 95.7133 322.783 95.54C323.183 95.3667 323.597 95.0867 324.023 94.7L325.763 96.24C325.257 96.8667 324.643 97.36 323.923 97.72C323.203 98.0667 322.357 98.24 321.383 98.24C320.583 98.24 319.837 98.1067 319.143 97.84C318.463 97.5733 317.87 97.1933 317.363 96.7C316.87 96.2067 316.483 95.6267 316.203 94.96C315.923 94.28 315.783 93.5267 315.783 92.7V92.66C315.783 91.9 315.91 91.18 316.163 90.5C316.43 89.82 316.797 89.2267 317.263 88.72C317.73 88.2133 318.283 87.8133 318.923 87.52C319.577 87.2267 320.297 87.08 321.083 87.08C321.977 87.08 322.75 87.24 323.403 87.56C324.057 87.88 324.597 88.3133 325.023 88.86C325.463 89.3933 325.783 90.0133 325.983 90.72C326.197 91.4133 326.303 92.14 326.303 92.9V92.94ZM323.343 91.8C323.25 91.12 323.01 90.5733 322.623 90.16C322.237 89.7333 321.723 89.52 321.083 89.52C320.443 89.52 319.923 89.7267 319.523 90.14C319.137 90.5533 318.883 91.1067 318.763 91.8H323.343ZM338.569 92.94C338.569 93.0867 338.562 93.2133 338.549 93.32C338.549 93.4267 338.542 93.5533 338.529 93.7H331.069C331.216 94.3933 331.516 94.92 331.969 95.28C332.436 95.6267 333.009 95.8 333.689 95.8C334.196 95.8 334.649 95.7133 335.049 95.54C335.449 95.3667 335.862 95.0867 336.289 94.7L338.029 96.24C337.522 96.8667 336.909 97.36 336.189 97.72C335.469 98.0667 334.622 98.24 333.649 98.24C332.849 98.24 332.102 98.1067 331.409 97.84C330.729 97.5733 330.136 97.1933 329.629 96.7C329.136 96.2067 328.749 95.6267 328.469 94.96C328.189 94.28 328.049 93.5267 328.049 92.7V92.66C328.049 91.9 328.176 91.18 328.429 90.5C328.696 89.82 329.062 89.2267 329.529 88.72C329.996 88.2133 330.549 87.8133 331.189 87.52C331.842 87.2267 332.562 87.08 333.349 87.08C334.242 87.08 335.016 87.24 335.669 87.56C336.322 87.88 336.862 88.3133 337.289 88.86C337.729 89.3933 338.049 90.0133 338.249 90.72C338.462 91.4133 338.569 92.14 338.569 92.9V92.94ZM335.609 91.8C335.516 91.12 335.276 90.5733 334.889 90.16C334.502 89.7333 333.989 89.52 333.349 89.52C332.709 89.52 332.189 89.7267 331.789 90.14C331.402 90.5533 331.149 91.1067 331.029 91.8H335.609ZM350.655 98H347.615V92.02C347.615 91.3 347.455 90.76 347.135 90.4C346.815 90.0267 346.361 89.84 345.775 89.84C345.188 89.84 344.721 90.0267 344.375 90.4C344.041 90.76 343.875 91.3 343.875 92.02V98H340.835V87.28H343.875V88.8C344.048 88.5733 344.235 88.36 344.435 88.16C344.648 87.9467 344.881 87.76 345.135 87.6C345.388 87.44 345.668 87.3133 345.975 87.22C346.281 87.1267 346.628 87.08 347.015 87.08C348.175 87.08 349.068 87.4333 349.695 88.14C350.335 88.8467 350.655 89.82 350.655 91.06V98ZM370.272 86.8H362.692V89.78H369.372V92.58H362.692V98H359.612V84H370.272V86.8ZM382.157 98H379.117V96.48C378.943 96.7067 378.75 96.9267 378.537 97.14C378.337 97.34 378.11 97.52 377.857 97.68C377.603 97.84 377.323 97.9667 377.017 98.06C376.71 98.1533 376.363 98.2 375.977 98.2C374.817 98.2 373.917 97.8467 373.277 97.14C372.65 96.4333 372.337 95.46 372.337 94.22V87.28H375.377V93.26C375.377 93.98 375.537 94.5267 375.857 94.9C376.177 95.26 376.63 95.44 377.217 95.44C377.803 95.44 378.263 95.26 378.597 94.9C378.943 94.5267 379.117 93.98 379.117 93.26V87.28H382.157V98ZM390.898 97.56C390.578 97.7467 390.224 97.8933 389.838 98C389.451 98.12 389.004 98.18 388.498 98.18C388.031 98.18 387.604 98.1267 387.218 98.02C386.844 97.9267 386.518 97.7533 386.238 97.5C385.971 97.2467 385.758 96.92 385.598 96.52C385.451 96.1067 385.378 95.5867 385.378 94.96V89.88H384.098V87.28H385.378V84.54H388.418V87.28H390.938V89.88H388.418V94.46C388.418 95.1533 388.744 95.5 389.398 95.5C389.931 95.5 390.431 95.3733 390.898 95.12V97.56ZM402.918 98H399.878V96.48C399.705 96.7067 399.512 96.9267 399.298 97.14C399.098 97.34 398.872 97.52 398.618 97.68C398.365 97.84 398.085 97.9667 397.778 98.06C397.472 98.1533 397.125 98.2 396.738 98.2C395.578 98.2 394.678 97.8467 394.038 97.14C393.412 96.4333 393.098 95.46 393.098 94.22V87.28H396.138V93.26C396.138 93.98 396.298 94.5267 396.618 94.9C396.938 95.26 397.392 95.44 397.978 95.44C398.565 95.44 399.025 95.26 399.358 94.9C399.705 94.5267 399.878 93.98 399.878 93.26V87.28H402.918V98ZM412.099 90.26H411.939C410.926 90.26 410.126 90.5667 409.539 91.18C408.966 91.7933 408.679 92.7467 408.679 94.04V98H405.639V87.28H408.679V89.44C408.986 88.7067 409.406 88.12 409.939 87.68C410.473 87.24 411.193 87.04 412.099 87.08V90.26ZM423.999 92.94C423.999 93.0867 423.992 93.2133 423.979 93.32C423.979 93.4267 423.972 93.5533 423.959 93.7H416.499C416.645 94.3933 416.945 94.92 417.399 95.28C417.865 95.6267 418.439 95.8 419.119 95.8C419.625 95.8 420.079 95.7133 420.479 95.54C420.879 95.3667 421.292 95.0867 421.719 94.7L423.459 96.24C422.952 96.8667 422.339 97.36 421.619 97.72C420.899 98.0667 420.052 98.24 419.079 98.24C418.279 98.24 417.532 98.1067 416.839 97.84C416.159 97.5733 415.565 97.1933 415.059 96.7C414.565 96.2067 414.179 95.6267 413.899 94.96C413.619 94.28 413.479 93.5267 413.479 92.7V92.66C413.479 91.9 413.605 91.18 413.859 90.5C414.125 89.82 414.492 89.2267 414.959 88.72C415.425 88.2133 415.979 87.8133 416.619 87.52C417.272 87.2267 417.992 87.08 418.779 87.08C419.672 87.08 420.445 87.24 421.099 87.56C421.752 87.88 422.292 88.3133 422.719 88.86C423.159 89.3933 423.479 90.0133 423.679 90.72C423.892 91.4133 423.999 92.14 423.999 92.9V92.94ZM421.039 91.8C420.945 91.12 420.705 90.5733 420.319 90.16C419.932 89.7333 419.419 89.52 418.779 89.52C418.139 89.52 417.619 89.7267 417.219 90.14C416.832 90.5533 416.579 91.1067 416.459 91.8H421.039ZM173.584 126H170.364L169.084 122.86H163.164L161.884 126H158.744L164.744 111.9H167.584L173.584 126ZM167.984 120.14L166.124 115.6L164.264 120.14H167.984ZM190.804 115.28L187.464 126.08H184.724L182.664 119.5L180.564 126.08H177.844L174.544 115.28H177.624L179.344 121.78L181.364 115.24H183.984L186.024 121.8L187.784 115.28H190.804ZM201.871 126H198.931V124.84C198.558 125.253 198.111 125.587 197.591 125.84C197.071 126.08 196.438 126.2 195.691 126.2C195.184 126.2 194.704 126.133 194.251 126C193.811 125.853 193.424 125.64 193.091 125.36C192.758 125.08 192.491 124.74 192.291 124.34C192.104 123.927 192.011 123.453 192.011 122.92V122.88C192.011 122.293 192.118 121.787 192.331 121.36C192.544 120.933 192.838 120.58 193.211 120.3C193.598 120.02 194.051 119.813 194.571 119.68C195.104 119.533 195.691 119.46 196.331 119.46C196.878 119.46 197.351 119.5 197.751 119.58C198.164 119.66 198.564 119.767 198.951 119.9V119.72C198.951 119.08 198.758 118.593 198.371 118.26C197.984 117.927 197.411 117.76 196.651 117.76C196.064 117.76 195.544 117.813 195.091 117.92C194.651 118.013 194.184 118.153 193.691 118.34L192.931 116.02C193.518 115.767 194.131 115.56 194.771 115.4C195.411 115.24 196.184 115.16 197.091 115.16C198.758 115.16 199.971 115.567 200.731 116.38C201.491 117.193 201.871 118.327 201.871 119.78V126ZM198.991 122.22V121.68C198.724 121.56 198.424 121.467 198.091 121.4C197.771 121.32 197.424 121.28 197.051 121.28C196.398 121.28 195.884 121.407 195.511 121.66C195.138 121.913 194.951 122.28 194.951 122.76V122.8C194.951 123.213 195.104 123.533 195.411 123.76C195.718 123.987 196.118 124.1 196.611 124.1C197.331 124.1 197.904 123.927 198.331 123.58C198.771 123.233 198.991 122.78 198.991 122.22ZM210.947 118.26H210.787C209.774 118.26 208.974 118.567 208.387 119.18C207.814 119.793 207.527 120.747 207.527 122.04V126H204.487V115.28H207.527V117.44C207.834 116.707 208.254 116.12 208.787 115.68C209.32 115.24 210.04 115.04 210.947 115.08V118.26ZM223.626 126H220.586V124.46C220.213 124.967 219.76 125.387 219.226 125.72C218.706 126.04 218.046 126.2 217.246 126.2C216.62 126.2 216.013 126.08 215.426 125.84C214.84 125.6 214.32 125.247 213.866 124.78C213.413 124.3 213.046 123.72 212.766 123.04C212.5 122.347 212.366 121.553 212.366 120.66V120.62C212.366 119.727 212.5 118.94 212.766 118.26C213.046 117.567 213.406 116.987 213.846 116.52C214.3 116.04 214.82 115.68 215.406 115.44C215.993 115.2 216.606 115.08 217.246 115.08C218.06 115.08 218.726 115.24 219.246 115.56C219.78 115.88 220.226 116.253 220.586 116.68V111.4H223.626V126ZM220.626 120.66V120.62C220.626 120.18 220.553 119.78 220.406 119.42C220.273 119.047 220.086 118.733 219.846 118.48C219.62 118.213 219.346 118.013 219.026 117.88C218.72 117.733 218.386 117.66 218.026 117.66C217.666 117.66 217.326 117.733 217.006 117.88C216.7 118.013 216.426 118.213 216.186 118.48C215.946 118.733 215.753 119.04 215.606 119.4C215.473 119.76 215.406 120.167 215.406 120.62V120.66C215.406 121.1 215.473 121.507 215.606 121.88C215.753 122.24 215.946 122.553 216.186 122.82C216.426 123.073 216.7 123.273 217.006 123.42C217.326 123.553 217.666 123.62 218.026 123.62C218.386 123.62 218.72 123.553 219.026 123.42C219.346 123.273 219.62 123.073 219.846 122.82C220.086 122.553 220.273 122.24 220.406 121.88C220.553 121.507 220.626 121.1 220.626 120.66ZM237.159 114.56C236.612 114.56 236.125 114.713 235.699 115.02C235.285 115.327 234.819 115.8 234.299 116.44L232.139 114.7C232.485 114.233 232.832 113.82 233.179 113.46C233.539 113.1 233.919 112.8 234.319 112.56C234.732 112.307 235.185 112.12 235.679 112C236.172 111.867 236.732 111.8 237.359 111.8C238.105 111.8 238.772 111.907 239.359 112.12C239.959 112.32 240.465 112.613 240.879 113C241.305 113.373 241.625 113.827 241.839 114.36C242.065 114.893 242.179 115.487 242.179 116.14C242.179 116.727 242.099 117.253 241.939 117.72C241.792 118.173 241.565 118.607 241.259 119.02C240.965 119.433 240.585 119.847 240.119 120.26C239.652 120.66 239.112 121.1 238.499 121.58L236.219 123.34H242.319V126H231.959V123.56L236.619 119.74C237.059 119.38 237.432 119.06 237.739 118.78C238.045 118.487 238.292 118.213 238.479 117.96C238.679 117.693 238.819 117.44 238.899 117.2C238.992 116.947 239.039 116.673 239.039 116.38C239.039 115.78 238.865 115.327 238.519 115.02C238.172 114.713 237.719 114.56 237.159 114.56ZM256.959 118.98C256.959 120.007 256.806 120.96 256.499 121.84C256.206 122.72 255.786 123.487 255.239 124.14C254.693 124.793 254.033 125.307 253.259 125.68C252.499 126.053 251.653 126.24 250.719 126.24C249.786 126.24 248.933 126.06 248.159 125.7C247.399 125.327 246.746 124.813 246.199 124.16C245.666 123.507 245.253 122.747 244.959 121.88C244.666 121 244.519 120.047 244.519 119.02C244.519 118.007 244.666 117.06 244.959 116.18C245.266 115.287 245.693 114.513 246.239 113.86C246.786 113.207 247.439 112.693 248.199 112.32C248.973 111.947 249.826 111.76 250.759 111.76C251.693 111.76 252.539 111.947 253.299 112.32C254.073 112.68 254.726 113.187 255.259 113.84C255.806 114.493 256.226 115.26 256.519 116.14C256.813 117.02 256.959 117.967 256.959 118.98ZM253.799 119.02C253.799 118.38 253.726 117.787 253.579 117.24C253.433 116.693 253.226 116.22 252.959 115.82C252.693 115.42 252.366 115.107 251.979 114.88C251.606 114.653 251.186 114.54 250.719 114.54C250.253 114.54 249.833 114.653 249.459 114.88C249.086 115.093 248.766 115.4 248.499 115.8C248.233 116.187 248.026 116.653 247.879 117.2C247.746 117.747 247.679 118.34 247.679 118.98C247.679 119.62 247.753 120.213 247.899 120.76C248.046 121.307 248.253 121.78 248.519 122.18C248.786 122.58 249.106 122.893 249.479 123.12C249.866 123.347 250.293 123.46 250.759 123.46C251.226 123.46 251.646 123.353 252.019 123.14C252.393 122.913 252.713 122.6 252.979 122.2C253.246 121.8 253.446 121.333 253.579 120.8C253.726 120.253 253.799 119.66 253.799 119.02ZM264.229 114.56C263.682 114.56 263.195 114.713 262.769 115.02C262.355 115.327 261.889 115.8 261.369 116.44L259.209 114.7C259.555 114.233 259.902 113.82 260.249 113.46C260.609 113.1 260.989 112.8 261.389 112.56C261.802 112.307 262.255 112.12 262.749 112C263.242 111.867 263.802 111.8 264.429 111.8C265.175 111.8 265.842 111.907 266.429 112.12C267.029 112.32 267.535 112.613 267.949 113C268.375 113.373 268.695 113.827 268.909 114.36C269.135 114.893 269.249 115.487 269.249 116.14C269.249 116.727 269.169 117.253 269.009 117.72C268.862 118.173 268.635 118.607 268.329 119.02C268.035 119.433 267.655 119.847 267.189 120.26C266.722 120.66 266.182 121.1 265.569 121.58L263.289 123.34H269.389V126H259.029V123.56L263.689 119.74C264.129 119.38 264.502 119.06 264.809 118.78C265.115 118.487 265.362 118.213 265.549 117.96C265.749 117.693 265.889 117.44 265.969 117.2C266.062 116.947 266.109 116.673 266.109 116.38C266.109 115.78 265.935 115.327 265.589 115.02C265.242 114.713 264.789 114.56 264.229 114.56ZM277.59 114.64H272.09V112H281.55V114.32L278.01 117.7C278.49 117.78 278.956 117.907 279.41 118.08C279.863 118.253 280.263 118.5 280.61 118.82C280.956 119.127 281.236 119.513 281.45 119.98C281.663 120.433 281.77 120.987 281.77 121.64C281.77 122.307 281.65 122.92 281.41 123.48C281.183 124.04 280.85 124.527 280.41 124.94C279.983 125.353 279.456 125.673 278.83 125.9C278.203 126.127 277.503 126.24 276.73 126.24C275.463 126.24 274.383 126.02 273.49 125.58C272.61 125.127 271.87 124.54 271.27 123.82L273.39 121.8C273.87 122.347 274.37 122.767 274.89 123.06C275.423 123.34 276.05 123.48 276.77 123.48C277.356 123.48 277.83 123.327 278.19 123.02C278.563 122.713 278.75 122.293 278.75 121.76C278.75 121.173 278.51 120.727 278.03 120.42C277.563 120.113 276.89 119.96 276.01 119.96H274.73L274.25 118L277.59 114.64ZM292.448 113.4H290.688V111.7H292.448V113.4ZM292.328 126H290.788V115.66H292.328V126ZM297.442 120.08V126H295.902V115.66H297.442V117.46C297.788 116.9 298.242 116.427 298.802 116.04C299.362 115.64 300.088 115.44 300.982 115.44C301.608 115.44 302.162 115.54 302.642 115.74C303.135 115.94 303.548 116.227 303.882 116.6C304.228 116.96 304.488 117.393 304.662 117.9C304.848 118.407 304.942 118.967 304.942 119.58V126H303.402V119.96C303.402 119 303.155 118.24 302.662 117.68C302.168 117.12 301.462 116.84 300.542 116.84C300.102 116.84 299.688 116.92 299.302 117.08C298.928 117.227 298.602 117.447 298.322 117.74C298.042 118.02 297.822 118.36 297.662 118.76C297.515 119.16 297.442 119.6 297.442 120.08ZM316.382 112.6C315.875 112.787 315.515 113.02 315.302 113.3C315.102 113.567 315.015 113.913 315.042 114.34H315.782V116.44H313.942V114.64C313.942 113.827 314.115 113.213 314.462 112.8C314.822 112.373 315.382 112.073 316.142 111.9L316.382 112.6ZM329.504 112V113.44H320.964V118.22H328.604V119.66H320.964V124.56H329.604V126H319.384V112H329.504ZM334.063 120.08V126H332.523V115.66H334.063V117.46C334.409 116.9 334.863 116.427 335.423 116.04C335.983 115.64 336.709 115.44 337.603 115.44C338.229 115.44 338.783 115.54 339.263 115.74C339.756 115.94 340.169 116.227 340.503 116.6C340.849 116.96 341.109 117.393 341.283 117.9C341.469 118.407 341.563 118.967 341.563 119.58V126H340.023V119.96C340.023 119 339.776 118.24 339.283 117.68C338.789 117.12 338.083 116.84 337.163 116.84C336.723 116.84 336.309 116.92 335.923 117.08C335.549 117.227 335.223 117.447 334.943 117.74C334.663 118.02 334.443 118.36 334.283 118.76C334.136 119.16 334.063 119.6 334.063 120.08ZM345.767 121.4C345.82 121.96 345.954 122.46 346.167 122.9C346.38 123.327 346.654 123.693 346.987 124C347.32 124.293 347.694 124.52 348.107 124.68C348.52 124.827 348.954 124.9 349.407 124.9C350.127 124.9 350.74 124.767 351.247 124.5C351.767 124.233 352.24 123.88 352.667 123.44L353.627 124.3C353.107 124.887 352.514 125.36 351.847 125.72C351.18 126.067 350.354 126.24 349.367 126.24C348.66 126.24 347.994 126.113 347.367 125.86C346.74 125.593 346.194 125.227 345.727 124.76C345.26 124.28 344.887 123.707 344.607 123.04C344.34 122.373 344.207 121.64 344.207 120.84C344.207 120.093 344.327 119.393 344.567 118.74C344.82 118.073 345.167 117.5 345.607 117.02C346.047 116.527 346.567 116.14 347.167 115.86C347.78 115.58 348.447 115.44 349.167 115.44C349.927 115.44 350.607 115.587 351.207 115.88C351.807 116.16 352.314 116.547 352.727 117.04C353.14 117.533 353.454 118.113 353.667 118.78C353.88 119.447 353.987 120.16 353.987 120.92C353.987 120.987 353.987 121.06 353.987 121.14C353.987 121.22 353.98 121.307 353.967 121.4H345.767ZM345.767 120.26H352.427C352.387 119.793 352.287 119.347 352.127 118.92C351.98 118.493 351.767 118.12 351.487 117.8C351.22 117.48 350.887 117.227 350.487 117.04C350.1 116.84 349.647 116.74 349.127 116.74C348.674 116.74 348.254 116.833 347.867 117.02C347.48 117.193 347.14 117.44 346.847 117.76C346.554 118.067 346.314 118.433 346.127 118.86C345.94 119.287 345.82 119.753 345.767 120.26ZM358.223 121.88V126H356.683V115.66H358.223V118.36C358.41 117.933 358.643 117.54 358.923 117.18C359.203 116.82 359.523 116.513 359.883 116.26C360.243 115.993 360.636 115.793 361.063 115.66C361.49 115.527 361.95 115.467 362.443 115.48V117.14H362.323C361.763 117.14 361.23 117.24 360.723 117.44C360.23 117.64 359.796 117.94 359.423 118.34C359.05 118.74 358.756 119.24 358.543 119.84C358.33 120.427 358.223 121.107 358.223 121.88ZM374.199 124.2C374.199 125.04 374.072 125.773 373.819 126.4C373.579 127.027 373.225 127.547 372.759 127.96C372.305 128.387 371.752 128.707 371.099 128.92C370.459 129.133 369.739 129.24 368.939 129.24C368.072 129.24 367.245 129.12 366.459 128.88C365.672 128.64 364.932 128.28 364.239 127.8L364.939 126.6C365.539 127.027 366.165 127.353 366.819 127.58C367.472 127.807 368.172 127.92 368.919 127.92C370.065 127.92 370.979 127.607 371.659 126.98C372.339 126.367 372.679 125.453 372.679 124.24V123.02C372.225 123.62 371.672 124.133 371.019 124.56C370.365 124.987 369.565 125.2 368.619 125.2C367.992 125.2 367.385 125.093 366.799 124.88C366.225 124.653 365.712 124.333 365.259 123.92C364.805 123.493 364.439 122.98 364.159 122.38C363.892 121.78 363.759 121.1 363.759 120.34C363.759 119.58 363.892 118.9 364.159 118.3C364.439 117.687 364.805 117.173 365.259 116.76C365.712 116.333 366.232 116.007 366.819 115.78C367.405 115.553 368.005 115.44 368.619 115.44C369.099 115.44 369.539 115.5 369.939 115.62C370.352 115.727 370.719 115.873 371.039 116.06C371.372 116.247 371.672 116.467 371.939 116.72C372.205 116.973 372.445 117.24 372.659 117.52V115.66H374.199V124.2ZM372.719 120.32C372.719 119.787 372.612 119.307 372.399 118.88C372.185 118.44 371.899 118.067 371.539 117.76C371.192 117.453 370.792 117.22 370.339 117.06C369.885 116.887 369.412 116.8 368.919 116.8C368.425 116.8 367.959 116.88 367.519 117.04C367.092 117.2 366.712 117.433 366.379 117.74C366.059 118.047 365.805 118.42 365.619 118.86C365.432 119.287 365.339 119.767 365.339 120.3C365.339 120.833 365.432 121.32 365.619 121.76C365.819 122.187 366.079 122.56 366.399 122.88C366.732 123.187 367.112 123.427 367.539 123.6C367.979 123.76 368.439 123.84 368.919 123.84C369.412 123.84 369.885 123.76 370.339 123.6C370.792 123.427 371.192 123.187 371.539 122.88C371.899 122.573 372.185 122.207 372.399 121.78C372.612 121.34 372.719 120.853 372.719 120.32ZM387.02 115.66L382.68 126.34C382.24 127.407 381.747 128.16 381.2 128.6C380.667 129.04 380.013 129.26 379.24 129.26C378.813 129.26 378.427 129.213 378.08 129.12C377.733 129.04 377.387 128.913 377.04 128.74L377.56 127.52C377.813 127.653 378.06 127.747 378.3 127.8C378.553 127.867 378.847 127.9 379.18 127.9C379.647 127.9 380.04 127.76 380.36 127.48C380.68 127.2 380.993 126.693 381.3 125.96L376.6 115.66H378.3L382.06 124.28L385.38 115.66H387.02ZM186.653 140V141.44H178.113V146.22H185.753V147.66H178.113V152.56H186.753V154H176.533V140H186.653ZM191.771 143.7H195.051V145.02H191.791V154H190.251V145.02H188.831V143.68H190.251V142.78C190.251 141.647 190.518 140.787 191.051 140.2C191.598 139.613 192.371 139.32 193.371 139.32C193.731 139.32 194.038 139.34 194.291 139.38C194.558 139.42 194.818 139.487 195.071 139.58V140.92C194.791 140.84 194.538 140.78 194.311 140.74C194.085 140.687 193.838 140.66 193.571 140.66C192.371 140.66 191.771 141.393 191.771 142.86V143.7ZM199.115 143.7H202.395V145.02H199.135V154H197.595V145.02H196.175V143.68H197.595V142.78C197.595 141.647 197.862 140.787 198.395 140.2C198.942 139.613 199.715 139.32 200.715 139.32C201.075 139.32 201.382 139.34 201.635 139.38C201.902 139.42 202.162 139.487 202.415 139.58V140.92C202.135 140.84 201.882 140.78 201.655 140.74C201.428 140.687 201.182 140.66 200.915 140.66C199.715 140.66 199.115 141.393 199.115 142.86V143.7ZM206.159 141.4H204.399V139.7H206.159V141.4ZM206.039 154H204.499V143.66H206.039V154ZM218.493 152.24C217.973 152.827 217.379 153.307 216.713 153.68C216.059 154.053 215.246 154.24 214.273 154.24C213.513 154.24 212.806 154.1 212.153 153.82C211.513 153.527 210.953 153.14 210.473 152.66C210.006 152.167 209.639 151.593 209.373 150.94C209.106 150.287 208.973 149.593 208.973 148.86C208.973 148.127 209.106 147.433 209.373 146.78C209.639 146.113 210.006 145.533 210.473 145.04C210.953 144.547 211.513 144.16 212.153 143.88C212.806 143.587 213.513 143.44 214.273 143.44C214.766 143.44 215.213 143.487 215.613 143.58C216.013 143.673 216.379 143.807 216.713 143.98C217.046 144.14 217.353 144.333 217.633 144.56C217.913 144.787 218.173 145.027 218.413 145.28L217.393 146.36C216.979 145.933 216.526 145.567 216.033 145.26C215.553 144.953 214.959 144.8 214.253 144.8C213.733 144.8 213.246 144.907 212.793 145.12C212.339 145.32 211.946 145.607 211.613 145.98C211.279 146.34 211.019 146.767 210.833 147.26C210.646 147.74 210.553 148.26 210.553 148.82C210.553 149.38 210.646 149.907 210.833 150.4C211.033 150.893 211.299 151.327 211.633 151.7C211.979 152.06 212.379 152.347 212.833 152.56C213.299 152.76 213.806 152.86 214.353 152.86C215.019 152.86 215.606 152.713 216.113 152.42C216.633 152.127 217.099 151.76 217.513 151.32L218.493 152.24ZM222.838 141.4H221.078V139.7H222.838V141.4ZM222.718 154H221.178V143.66H222.718V154ZM227.212 149.4C227.266 149.96 227.399 150.46 227.612 150.9C227.826 151.327 228.099 151.693 228.432 152C228.766 152.293 229.139 152.52 229.552 152.68C229.966 152.827 230.399 152.9 230.852 152.9C231.572 152.9 232.186 152.767 232.692 152.5C233.212 152.233 233.686 151.88 234.112 151.44L235.072 152.3C234.552 152.887 233.959 153.36 233.292 153.72C232.626 154.067 231.799 154.24 230.812 154.24C230.106 154.24 229.439 154.113 228.812 153.86C228.186 153.593 227.639 153.227 227.172 152.76C226.706 152.28 226.332 151.707 226.052 151.04C225.786 150.373 225.652 149.64 225.652 148.84C225.652 148.093 225.772 147.393 226.012 146.74C226.266 146.073 226.612 145.5 227.052 145.02C227.492 144.527 228.012 144.14 228.612 143.86C229.226 143.58 229.892 143.44 230.612 143.44C231.372 143.44 232.052 143.587 232.652 143.88C233.252 144.16 233.759 144.547 234.172 145.04C234.586 145.533 234.899 146.113 235.112 146.78C235.326 147.447 235.432 148.16 235.432 148.92C235.432 148.987 235.432 149.06 235.432 149.14C235.432 149.22 235.426 149.307 235.412 149.4H227.212ZM227.212 148.26H233.872C233.832 147.793 233.732 147.347 233.572 146.92C233.426 146.493 233.212 146.12 232.932 145.8C232.666 145.48 232.332 145.227 231.932 145.04C231.546 144.84 231.092 144.74 230.572 144.74C230.119 144.74 229.699 144.833 229.312 145.02C228.926 145.193 228.586 145.44 228.292 145.76C227.999 146.067 227.759 146.433 227.572 146.86C227.386 147.287 227.266 147.753 227.212 148.26ZM239.668 148.08V154H238.128V143.66H239.668V145.46C240.015 144.9 240.468 144.427 241.028 144.04C241.588 143.64 242.315 143.44 243.208 143.44C243.835 143.44 244.388 143.54 244.868 143.74C245.362 143.94 245.775 144.227 246.108 144.6C246.455 144.96 246.715 145.393 246.888 145.9C247.075 146.407 247.168 146.967 247.168 147.58V154H245.628V147.96C245.628 147 245.382 146.24 244.888 145.68C244.395 145.12 243.688 144.84 242.768 144.84C242.328 144.84 241.915 144.92 241.528 145.08C241.155 145.227 240.828 145.447 240.548 145.74C240.268 146.02 240.048 146.36 239.888 146.76C239.742 147.16 239.668 147.6 239.668 148.08ZM259.332 152.24C258.812 152.827 258.219 153.307 257.552 153.68C256.899 154.053 256.086 154.24 255.112 154.24C254.352 154.24 253.646 154.1 252.992 153.82C252.352 153.527 251.792 153.14 251.312 152.66C250.846 152.167 250.479 151.593 250.212 150.94C249.946 150.287 249.812 149.593 249.812 148.86C249.812 148.127 249.946 147.433 250.212 146.78C250.479 146.113 250.846 145.533 251.312 145.04C251.792 144.547 252.352 144.16 252.992 143.88C253.646 143.587 254.352 143.44 255.112 143.44C255.606 143.44 256.052 143.487 256.452 143.58C256.852 143.673 257.219 143.807 257.552 143.98C257.886 144.14 258.192 144.333 258.472 144.56C258.752 144.787 259.012 145.027 259.252 145.28L258.232 146.36C257.819 145.933 257.366 145.567 256.872 145.26C256.392 144.953 255.799 144.8 255.092 144.8C254.572 144.8 254.086 144.907 253.632 145.12C253.179 145.32 252.786 145.607 252.452 145.98C252.119 146.34 251.859 146.767 251.672 147.26C251.486 147.74 251.392 148.26 251.392 148.82C251.392 149.38 251.486 149.907 251.672 150.4C251.872 150.893 252.139 151.327 252.472 151.7C252.819 152.06 253.219 152.347 253.672 152.56C254.139 152.76 254.646 152.86 255.192 152.86C255.859 152.86 256.446 152.713 256.952 152.42C257.472 152.127 257.939 151.76 258.352 151.32L259.332 152.24ZM271.161 143.66L266.821 154.34C266.381 155.407 265.887 156.16 265.341 156.6C264.807 157.04 264.154 157.26 263.381 157.26C262.954 157.26 262.567 157.213 262.221 157.12C261.874 157.04 261.527 156.913 261.181 156.74L261.701 155.52C261.954 155.653 262.201 155.747 262.441 155.8C262.694 155.867 262.987 155.9 263.321 155.9C263.787 155.9 264.181 155.76 264.501 155.48C264.821 155.2 265.134 154.693 265.441 153.96L260.741 143.66H262.441L266.201 152.28L269.521 143.66H271.161ZM272.897 143.84C273.404 143.653 273.764 143.427 273.977 143.16C274.19 142.88 274.277 142.527 274.237 142.1H273.517V140H275.357V141.8C275.357 142.613 275.177 143.233 274.817 143.66C274.457 144.073 273.897 144.367 273.137 144.54L272.897 143.84ZM293.375 152.24C292.855 152.827 292.262 153.307 291.595 153.68C290.942 154.053 290.129 154.24 289.155 154.24C288.395 154.24 287.689 154.1 287.035 153.82C286.395 153.527 285.835 153.14 285.355 152.66C284.889 152.167 284.522 151.593 284.255 150.94C283.989 150.287 283.855 149.593 283.855 148.86C283.855 148.127 283.989 147.433 284.255 146.78C284.522 146.113 284.889 145.533 285.355 145.04C285.835 144.547 286.395 144.16 287.035 143.88C287.689 143.587 288.395 143.44 289.155 143.44C289.649 143.44 290.095 143.487 290.495 143.58C290.895 143.673 291.262 143.807 291.595 143.98C291.929 144.14 292.235 144.333 292.515 144.56C292.795 144.787 293.055 145.027 293.295 145.28L292.275 146.36C291.862 145.933 291.409 145.567 290.915 145.26C290.435 144.953 289.842 144.8 289.135 144.8C288.615 144.8 288.129 144.907 287.675 145.12C287.222 145.32 286.829 145.607 286.495 145.98C286.162 146.34 285.902 146.767 285.715 147.26C285.529 147.74 285.435 148.26 285.435 148.82C285.435 149.38 285.529 149.907 285.715 150.4C285.915 150.893 286.182 151.327 286.515 151.7C286.862 152.06 287.262 152.347 287.715 152.56C288.182 152.76 288.689 152.86 289.235 152.86C289.902 152.86 290.489 152.713 290.995 152.42C291.515 152.127 291.982 151.76 292.395 151.32L293.375 152.24ZM299.661 144.88C299.048 144.88 298.488 144.953 297.981 145.1C297.488 145.233 297.001 145.413 296.521 145.64L296.061 144.38C296.635 144.113 297.215 143.907 297.801 143.76C298.388 143.6 299.061 143.52 299.821 143.52C301.235 143.52 302.321 143.873 303.081 144.58C303.841 145.273 304.221 146.307 304.221 147.68V154H302.741V152.44C302.381 152.907 301.895 153.32 301.281 153.68C300.681 154.04 299.921 154.22 299.001 154.22C298.521 154.22 298.048 154.153 297.581 154.02C297.128 153.887 296.715 153.687 296.341 153.42C295.981 153.14 295.688 152.8 295.461 152.4C295.248 152 295.141 151.527 295.141 150.98C295.141 150.433 295.248 149.953 295.461 149.54C295.675 149.113 295.975 148.76 296.361 148.48C296.761 148.2 297.228 147.987 297.761 147.84C298.308 147.693 298.908 147.62 299.561 147.62C300.228 147.62 300.808 147.66 301.301 147.74C301.795 147.82 302.275 147.927 302.741 148.06V147.7C302.741 146.767 302.468 146.067 301.921 145.6C301.388 145.12 300.635 144.88 299.661 144.88ZM299.721 148.76C298.748 148.76 298.001 148.953 297.481 149.34C296.961 149.727 296.701 150.253 296.701 150.92C296.701 151.253 296.768 151.547 296.901 151.8C297.048 152.053 297.241 152.273 297.481 152.46C297.721 152.633 297.995 152.767 298.301 152.86C298.621 152.953 298.955 153 299.301 153C299.781 153 300.228 152.933 300.641 152.8C301.068 152.653 301.435 152.46 301.741 152.22C302.061 151.967 302.308 151.673 302.481 151.34C302.668 150.993 302.761 150.613 302.761 150.2V149.2C302.375 149.093 301.928 148.993 301.421 148.9C300.928 148.807 300.361 148.76 299.721 148.76ZM309.486 145.02V151.06C309.486 151.7 309.646 152.147 309.966 152.4C310.286 152.653 310.706 152.78 311.226 152.78C311.492 152.78 311.739 152.753 311.966 152.7C312.206 152.647 312.459 152.553 312.726 152.42V153.74C312.459 153.887 312.172 153.993 311.866 154.06C311.572 154.14 311.239 154.18 310.866 154.18C310.452 154.18 310.066 154.127 309.706 154.02C309.346 153.913 309.032 153.747 308.766 153.52C308.512 153.28 308.312 152.973 308.166 152.6C308.019 152.227 307.946 151.78 307.946 151.26V145.02H306.506V143.66H307.946V140.54H309.486V143.66H312.766V145.02H309.486ZM316.119 149.4C316.172 149.96 316.305 150.46 316.519 150.9C316.732 151.327 317.005 151.693 317.339 152C317.672 152.293 318.045 152.52 318.459 152.68C318.872 152.827 319.305 152.9 319.759 152.9C320.479 152.9 321.092 152.767 321.599 152.5C322.119 152.233 322.592 151.88 323.019 151.44L323.979 152.3C323.459 152.887 322.865 153.36 322.199 153.72C321.532 154.067 320.705 154.24 319.719 154.24C319.012 154.24 318.345 154.113 317.719 153.86C317.092 153.593 316.545 153.227 316.079 152.76C315.612 152.28 315.239 151.707 314.959 151.04C314.692 150.373 314.559 149.64 314.559 148.84C314.559 148.093 314.679 147.393 314.919 146.74C315.172 146.073 315.519 145.5 315.959 145.02C316.399 144.527 316.919 144.14 317.519 143.86C318.132 143.58 318.799 143.44 319.519 143.44C320.279 143.44 320.959 143.587 321.559 143.88C322.159 144.16 322.665 144.547 323.079 145.04C323.492 145.533 323.805 146.113 324.019 146.78C324.232 147.447 324.339 148.16 324.339 148.92C324.339 148.987 324.339 149.06 324.339 149.14C324.339 149.22 324.332 149.307 324.319 149.4H316.119ZM316.119 148.26H322.779C322.739 147.793 322.639 147.347 322.479 146.92C322.332 146.493 322.119 146.12 321.839 145.8C321.572 145.48 321.239 145.227 320.839 145.04C320.452 144.84 319.999 144.74 319.479 144.74C319.025 144.74 318.605 144.833 318.219 145.02C317.832 145.193 317.492 145.44 317.199 145.76C316.905 146.067 316.665 146.433 316.479 146.86C316.292 147.287 316.172 147.753 316.119 148.26ZM336.874 152.2C336.874 153.04 336.748 153.773 336.494 154.4C336.254 155.027 335.901 155.547 335.434 155.96C334.981 156.387 334.428 156.707 333.774 156.92C333.134 157.133 332.414 157.24 331.614 157.24C330.748 157.24 329.921 157.12 329.134 156.88C328.348 156.64 327.608 156.28 326.914 155.8L327.614 154.6C328.214 155.027 328.841 155.353 329.494 155.58C330.148 155.807 330.848 155.92 331.594 155.92C332.741 155.92 333.654 155.607 334.334 154.98C335.014 154.367 335.354 153.453 335.354 152.24V151.02C334.901 151.62 334.348 152.133 333.694 152.56C333.041 152.987 332.241 153.2 331.294 153.2C330.668 153.2 330.061 153.093 329.474 152.88C328.901 152.653 328.388 152.333 327.934 151.92C327.481 151.493 327.114 150.98 326.834 150.38C326.568 149.78 326.434 149.1 326.434 148.34C326.434 147.58 326.568 146.9 326.834 146.3C327.114 145.687 327.481 145.173 327.934 144.76C328.388 144.333 328.908 144.007 329.494 143.78C330.081 143.553 330.681 143.44 331.294 143.44C331.774 143.44 332.214 143.5 332.614 143.62C333.028 143.727 333.394 143.873 333.714 144.06C334.048 144.247 334.348 144.467 334.614 144.72C334.881 144.973 335.121 145.24 335.334 145.52V143.66H336.874V152.2ZM335.394 148.32C335.394 147.787 335.288 147.307 335.074 146.88C334.861 146.44 334.574 146.067 334.214 145.76C333.868 145.453 333.468 145.22 333.014 145.06C332.561 144.887 332.088 144.8 331.594 144.8C331.101 144.8 330.634 144.88 330.194 145.04C329.768 145.2 329.388 145.433 329.054 145.74C328.734 146.047 328.481 146.42 328.294 146.86C328.108 147.287 328.014 147.767 328.014 148.3C328.014 148.833 328.108 149.32 328.294 149.76C328.494 150.187 328.754 150.56 329.074 150.88C329.408 151.187 329.788 151.427 330.214 151.6C330.654 151.76 331.114 151.84 331.594 151.84C332.088 151.84 332.561 151.76 333.014 151.6C333.468 151.427 333.868 151.187 334.214 150.88C334.574 150.573 334.861 150.207 335.074 149.78C335.288 149.34 335.394 148.853 335.394 148.32ZM350.456 148.82C350.456 149.553 350.316 150.253 350.036 150.92C349.769 151.573 349.396 152.147 348.916 152.64C348.436 153.133 347.862 153.527 347.196 153.82C346.529 154.1 345.809 154.24 345.036 154.24C344.262 154.24 343.549 154.1 342.896 153.82C342.242 153.527 341.676 153.14 341.196 152.66C340.716 152.167 340.342 151.593 340.076 150.94C339.809 150.287 339.676 149.593 339.676 148.86C339.676 148.127 339.809 147.433 340.076 146.78C340.342 146.113 340.716 145.533 341.196 145.04C341.676 144.547 342.242 144.16 342.896 143.88C343.562 143.587 344.289 143.44 345.076 143.44C345.849 143.44 346.562 143.587 347.216 143.88C347.882 144.16 348.456 144.547 348.936 145.04C349.416 145.52 349.789 146.087 350.056 146.74C350.322 147.393 350.456 148.087 350.456 148.82ZM348.876 148.86C348.876 148.3 348.776 147.773 348.576 147.28C348.389 146.787 348.122 146.36 347.776 146C347.429 145.627 347.022 145.333 346.556 145.12C346.089 144.907 345.582 144.8 345.036 144.8C344.476 144.8 343.962 144.907 343.496 145.12C343.029 145.32 342.629 145.607 342.296 145.98C341.976 146.34 341.722 146.767 341.536 147.26C341.349 147.74 341.256 148.26 341.256 148.82C341.256 149.38 341.349 149.907 341.536 150.4C341.736 150.893 342.002 151.32 342.336 151.68C342.682 152.04 343.089 152.327 343.556 152.54C344.022 152.753 344.529 152.86 345.076 152.86C345.636 152.86 346.149 152.76 346.616 152.56C347.082 152.347 347.482 152.06 347.816 151.7C348.149 151.34 348.409 150.92 348.596 150.44C348.782 149.947 348.876 149.42 348.876 148.86ZM354.785 149.88V154H353.245V143.66H354.785V146.36C354.972 145.933 355.205 145.54 355.485 145.18C355.765 144.82 356.085 144.513 356.445 144.26C356.805 143.993 357.199 143.793 357.625 143.66C358.052 143.527 358.512 143.467 359.005 143.48V145.14H358.885C358.325 145.14 357.792 145.24 357.285 145.44C356.792 145.64 356.359 145.94 355.985 146.34C355.612 146.74 355.319 147.24 355.105 147.84C354.892 148.427 354.785 149.107 354.785 149.88ZM370.731 143.66L366.391 154.34C365.951 155.407 365.458 156.16 364.911 156.6C364.378 157.04 363.724 157.26 362.951 157.26C362.524 157.26 362.138 157.213 361.791 157.12C361.444 157.04 361.098 156.913 360.751 156.74L361.271 155.52C361.524 155.653 361.771 155.747 362.011 155.8C362.264 155.867 362.558 155.9 362.891 155.9C363.358 155.9 363.751 155.76 364.071 155.48C364.391 155.2 364.704 154.693 365.011 153.96L360.311 143.66H362.011L365.771 152.28L369.091 143.66H370.731Z" fill="#3E3E3E"/>
</svg>
