<svg width="547" height="195" viewBox="0 0 547 195" fill="none" xmlns="http://www.w3.org/2000/svg">
<g opacity="0.5">
<path d="M92.7379 194.582C92.6651 194.582 92.5892 194.576 92.5164 194.564C71.1571 191.187 53.6601 178.872 41.9155 158.953C34.2577 145.962 29.4761 130.343 28.0896 113.777C26.7274 97.5083 28.7116 81.4643 33.8269 67.3807C39.6886 51.2365 50.7384 36.5581 65.7809 24.9325C66.3998 24.4561 67.2888 24.5684 67.7651 25.1874C68.2445 25.8065 68.1292 26.6957 67.5103 27.1721C52.8925 38.4699 42.1643 52.7083 36.4847 68.3487C26.2935 96.4158 29.4549 132.248 44.3488 157.515C55.6504 176.684 72.4557 188.528 92.9533 191.769C93.7239 191.891 94.2519 192.616 94.1305 193.39C94.0213 194.088 93.4175 194.585 92.7349 194.585L92.7379 194.582Z" fill="#9BB7E0"/>
<path d="M71.1374 186.474C71.1374 186.474 84.5476 164.858 65.0148 134.13C64.2806 135.775 54.678 162.698 71.1374 186.474Z" fill="#3D86C6"/>
<path d="M58.3442 177.704C58.3442 177.704 33.7628 184.231 10.0703 156.583C11.8573 156.358 40.4072 155.026 58.3442 177.704Z" fill="#3D86C6"/>
<path d="M36.7477 146.432C36.7477 146.432 11.5201 143.207 0 108.664C1.73848 109.128 28.6834 118.663 36.7477 146.432Z" fill="#3D86C6"/>
<path d="M28.626 111.741C28.626 111.741 5.77099 100.576 5.96213 64.1641C7.45789 65.1655 29.9125 82.8512 28.626 111.741Z" fill="#3D86C6"/>
<path d="M32.2739 75.0311C32.2739 75.0311 13.2477 58.1496 23.1871 23.1211C24.3612 24.4867 41.2545 47.5436 32.2739 75.0311Z" fill="#3D86C6"/>
<path d="M44.0624 48.9027C44.0624 48.9027 33.3038 27.0262 53.9593 0C54.5115 1.63262 61.2955 28.1339 44.0624 48.9027Z" fill="#3D86C6"/>
<path d="M45.4895 162.804C45.4895 162.804 66.1965 144.014 55.89 106.266C54.5975 107.762 36.1873 132 45.4895 162.804Z" fill="#3D86C6"/>
<path d="M30.4766 120.696C30.4766 120.696 52.1878 108.381 53.0039 71.6686C51.4475 72.7307 30.5281 89.1237 30.4766 120.696Z" fill="#3D86C6"/>
<path d="M51.2119 45.7892C57.4346 41.2677 64.5948 38.1511 71.9826 36.0117C71.9674 37.5442 71.755 39.0736 71.3576 40.5545C70.863 42.3874 70.0803 44.1323 69.2216 45.8226C62.3406 59.3448 48.3569 72.1539 33.0898 75.1552C33.1384 73.4345 34.3004 71.1313 34.7798 69.444C37.5468 59.6908 42.9534 51.7917 51.2149 45.7892H51.2119Z" fill="#3D86C6"/>
<path d="M68.1913 22.0829C78.3339 13.8834 91.3345 9.29199 104.375 9.30717C104.687 13.4069 99.2866 17.1941 96.4559 19.3335C89.9753 24.2344 83.1579 27.5725 75.2331 29.7119C70.3545 31.0289 64.8721 32.088 59.8083 32.0789C59.6566 32.0789 59.4837 32.0667 59.3927 31.9484C59.2592 31.7785 59.3866 31.5326 59.514 31.3566C60.5153 29.9668 61.8108 28.8197 62.8636 27.4693C64.4382 25.4513 66.204 23.6912 68.1943 22.0829H68.1913Z" fill="#3D86C6"/>
</g>
<g opacity="0.5">
<path d="M453.647 194.582C452.965 194.582 452.361 194.084 452.252 193.386C452.13 192.616 452.655 191.89 453.429 191.766C473.924 188.525 490.732 176.681 502.034 157.511C516.93 132.245 520.092 96.4124 509.898 68.3453C504.218 52.7049 493.49 38.4665 478.872 27.1687C478.253 26.6892 478.141 25.8031 478.617 25.184C479.097 24.565 479.982 24.4527 480.601 24.9291C495.644 36.5547 506.694 51.2331 512.555 67.3772C517.671 81.4609 519.655 97.5049 518.293 113.773C516.906 130.336 512.128 145.958 504.467 158.95C492.722 178.869 475.225 191.183 453.866 194.561C453.79 194.573 453.717 194.579 453.644 194.579L453.647 194.582Z" fill="#9BB7E0"/>
<path d="M475.251 186.474C475.251 186.474 461.841 164.858 481.374 134.13C482.108 135.775 491.711 162.698 475.251 186.474Z" fill="#3D86C6"/>
<path d="M488.043 177.704C488.043 177.704 512.624 184.231 536.317 156.583C534.53 156.358 505.98 155.026 488.043 177.704Z" fill="#3D86C6"/>
<path d="M509.637 146.432C509.637 146.432 534.864 143.21 546.384 108.664C544.646 109.128 517.701 118.663 509.637 146.432Z" fill="#3D86C6"/>
<path d="M517.76 111.74C517.76 111.74 540.615 100.579 540.424 64.1636C538.928 65.165 516.474 82.8507 517.76 111.74Z" fill="#3D86C6"/>
<path d="M514.112 75.0306C514.112 75.0306 533.138 58.1491 523.199 23.1206C522.025 24.4862 505.132 47.5431 514.112 75.0306Z" fill="#3D86C6"/>
<path d="M502.324 48.9027C502.324 48.9027 513.083 27.0262 492.427 0C491.875 1.63262 485.091 28.1339 502.324 48.9027Z" fill="#3D86C6"/>
<path d="M500.898 162.804C500.898 162.804 480.191 144.014 490.497 106.266C491.79 107.762 510.2 132 500.898 162.804Z" fill="#3D86C6"/>
<path d="M515.914 120.696C515.914 120.696 494.203 108.381 493.387 71.6685C494.943 72.7306 515.863 89.1235 515.914 120.696Z" fill="#3D86C6"/>
<path d="M495.173 45.7892C488.95 41.2677 481.79 38.1511 474.402 36.0117C474.418 37.5442 474.63 39.0736 475.027 40.5545C475.522 42.3874 476.305 44.1323 477.163 45.8226C484.044 59.3448 498.028 72.1539 513.295 75.1552C513.247 73.4345 512.085 71.1313 511.605 69.444C508.838 59.6908 503.432 51.7917 495.17 45.7892H495.173Z" fill="#3D86C6"/>
<path d="M478.196 22.0829C468.054 13.8834 455.056 9.29199 442.013 9.30717C441.7 13.4069 447.101 17.1941 449.932 19.3335C456.412 24.2344 463.23 27.5725 471.154 29.7119C476.033 31.0289 481.516 32.088 486.579 32.0789C486.731 32.0789 486.904 32.0667 486.995 31.9484C487.128 31.7785 487.001 31.5326 486.874 31.3566C485.872 29.9668 484.577 28.8197 483.524 27.4693C481.949 25.4513 480.184 23.6912 478.193 22.0829H478.196Z" fill="#3D86C6"/>
</g>
<path d="M142.904 56.32C142.904 57.54 142.684 58.61 142.244 59.53C141.804 60.45 141.194 61.22 140.414 61.84C139.654 62.46 138.754 62.93 137.714 63.25C136.694 63.55 135.594 63.7 134.414 63.7H130.904V70H126.284V49H134.864C136.124 49 137.244 49.18 138.224 49.54C139.224 49.88 140.064 50.37 140.744 51.01C141.444 51.65 141.974 52.42 142.334 53.32C142.714 54.2 142.904 55.18 142.904 56.26V56.32ZM138.224 56.41V56.35C138.224 55.31 137.884 54.52 137.204 53.98C136.544 53.44 135.634 53.17 134.474 53.17H130.904V59.59H134.564C135.724 59.59 136.624 59.29 137.264 58.69C137.904 58.07 138.224 57.31 138.224 56.41ZM161.413 70H146.323V49H150.943V65.8H161.413V70ZM185.357 70H180.527L178.607 65.29H169.727L167.807 70H163.097L172.097 48.85H176.357L185.357 70ZM176.957 61.21L174.167 54.4L171.377 61.21H176.957ZM204.498 53.26H198.108V70H193.488V53.26H187.098V49H204.498V53.26ZM212.881 70H208.261V49H212.881V70ZM236.789 70H232.859L222.689 56.65V70H218.129V49H222.389L232.229 61.93V49H236.789V70ZM259.801 60.85C259.801 62.45 259.581 63.84 259.141 65.02C258.721 66.2 258.111 67.19 257.311 67.99C256.511 68.77 255.541 69.36 254.401 69.76C253.261 70.14 251.991 70.33 250.591 70.33C247.771 70.33 245.551 69.55 243.931 67.99C242.311 66.43 241.501 64.1 241.501 61V49H246.121V60.88C246.121 62.6 246.521 63.9 247.321 64.78C248.121 65.64 249.231 66.07 250.651 66.07C252.071 66.07 253.181 65.65 253.981 64.81C254.781 63.97 255.181 62.71 255.181 61.03V49H259.801V60.85ZM285.506 70H280.916V56.29L275.006 65.26H274.886L269.036 56.38V70H264.506V49H269.486L275.006 57.88L280.526 49H285.506V70ZM320.005 70H315.175L313.255 65.29H304.375L302.455 70H297.745L306.745 48.85H311.005L320.005 70ZM311.605 61.21L308.815 54.4L306.025 61.21H311.605ZM353.487 49L346.317 70.15H342.297L337.557 56.41L332.817 70.15H328.797L321.627 49H326.577L330.927 63.22L335.637 48.94H339.597L344.307 63.22L348.657 49H353.487ZM377.369 70H372.539L370.619 65.29H361.739L359.819 70H355.109L364.109 48.85H368.369L377.369 70ZM368.969 61.21L366.179 54.4L363.389 61.21H368.969ZM398.76 70H393.36L388.86 63.28H385.23V70H380.61V49H390.21C392.71 49 394.65 49.61 396.03 50.83C397.43 52.05 398.13 53.75 398.13 55.93V55.99C398.13 57.69 397.71 59.08 396.87 60.16C396.05 61.22 394.97 62 393.63 62.5L398.76 70ZM393.45 56.23V56.17C393.45 55.17 393.13 54.42 392.49 53.92C391.85 53.42 390.96 53.17 389.82 53.17H385.23V59.2H389.91C391.05 59.2 391.92 58.93 392.52 58.39C393.14 57.85 393.45 57.13 393.45 56.23ZM421.64 59.5C421.64 60.98 421.37 62.36 420.83 63.64C420.29 64.92 419.52 66.03 418.52 66.97C417.54 67.91 416.36 68.65 414.98 69.19C413.62 69.73 412.12 70 410.48 70H402.29V49H410.48C412.12 49 413.62 49.27 414.98 49.81C416.36 50.33 417.54 51.06 418.52 52C419.52 52.94 420.29 54.05 420.83 55.33C421.37 56.59 421.64 57.96 421.64 59.44V59.5ZM416.81 59.56V59.5C416.81 58.58 416.65 57.73 416.33 56.95C416.03 56.17 415.6 55.5 415.04 54.94C414.5 54.38 413.84 53.95 413.06 53.65C412.28 53.33 411.42 53.17 410.48 53.17H406.91V65.83H410.48C411.42 65.83 412.28 65.68 413.06 65.38C413.84 65.08 414.5 64.65 415.04 64.09C415.6 63.53 416.03 62.87 416.33 62.11C416.65 61.35 416.81 60.5 416.81 59.56Z" fill="#AD3088"/>
<path d="M151.981 85.4H150.221V83.7H151.981V85.4ZM151.861 98H150.321V87.66H151.861V98ZM156.975 92.08V98H155.435V87.66H156.975V89.46C157.322 88.9 157.775 88.4267 158.335 88.04C158.895 87.64 159.622 87.44 160.515 87.44C161.142 87.44 161.695 87.54 162.175 87.74C162.668 87.94 163.082 88.2267 163.415 88.6C163.762 88.96 164.022 89.3933 164.195 89.9C164.382 90.4067 164.475 90.9667 164.475 91.58V98H162.935V91.96C162.935 91 162.688 90.24 162.195 89.68C161.702 89.12 160.995 88.84 160.075 88.84C159.635 88.84 159.222 88.92 158.835 89.08C158.462 89.2267 158.135 89.4467 157.855 89.74C157.575 90.02 157.355 90.36 157.195 90.76C157.048 91.16 156.975 91.6 156.975 92.08ZM179.315 85.46V98H177.715V85.46H173.015V84H184.015V85.46H179.315ZM185.105 93.4C185.158 93.96 185.292 94.46 185.505 94.9C185.718 95.3267 185.992 95.6933 186.325 96C186.658 96.2933 187.032 96.52 187.445 96.68C187.858 96.8267 188.292 96.9 188.745 96.9C189.465 96.9 190.078 96.7667 190.585 96.5C191.105 96.2333 191.578 95.88 192.005 95.44L192.965 96.3C192.445 96.8867 191.852 97.36 191.185 97.72C190.518 98.0667 189.692 98.24 188.705 98.24C187.998 98.24 187.332 98.1133 186.705 97.86C186.078 97.5933 185.532 97.2267 185.065 96.76C184.598 96.28 184.225 95.7067 183.945 95.04C183.678 94.3733 183.545 93.64 183.545 92.84C183.545 92.0933 183.665 91.3933 183.905 90.74C184.158 90.0733 184.505 89.5 184.945 89.02C185.385 88.5267 185.905 88.14 186.505 87.86C187.118 87.58 187.785 87.44 188.505 87.44C189.265 87.44 189.945 87.5867 190.545 87.88C191.145 88.16 191.652 88.5467 192.065 89.04C192.478 89.5333 192.792 90.1133 193.005 90.78C193.218 91.4467 193.325 92.16 193.325 92.92C193.325 92.9867 193.325 93.06 193.325 93.14C193.325 93.22 193.318 93.3067 193.305 93.4H185.105ZM185.105 92.26H191.765C191.725 91.7933 191.625 91.3467 191.465 90.92C191.318 90.4933 191.105 90.12 190.825 89.8C190.558 89.48 190.225 89.2267 189.825 89.04C189.438 88.84 188.985 88.74 188.465 88.74C188.012 88.74 187.592 88.8333 187.205 89.02C186.818 89.1933 186.478 89.44 186.185 89.76C185.892 90.0667 185.652 90.4333 185.465 90.86C185.278 91.2867 185.158 91.7533 185.105 92.26ZM197.701 98H196.161V83.4H197.701V98ZM202.195 93.4C202.248 93.96 202.381 94.46 202.595 94.9C202.808 95.3267 203.081 95.6933 203.415 96C203.748 96.2933 204.121 96.52 204.535 96.68C204.948 96.8267 205.381 96.9 205.835 96.9C206.555 96.9 207.168 96.7667 207.675 96.5C208.195 96.2333 208.668 95.88 209.095 95.44L210.055 96.3C209.535 96.8867 208.941 97.36 208.275 97.72C207.608 98.0667 206.781 98.24 205.795 98.24C205.088 98.24 204.421 98.1133 203.795 97.86C203.168 97.5933 202.621 97.2267 202.155 96.76C201.688 96.28 201.315 95.7067 201.035 95.04C200.768 94.3733 200.635 93.64 200.635 92.84C200.635 92.0933 200.755 91.3933 200.995 90.74C201.248 90.0733 201.595 89.5 202.035 89.02C202.475 88.5267 202.995 88.14 203.595 87.86C204.208 87.58 204.875 87.44 205.595 87.44C206.355 87.44 207.035 87.5867 207.635 87.88C208.235 88.16 208.741 88.5467 209.155 89.04C209.568 89.5333 209.881 90.1133 210.095 90.78C210.308 91.4467 210.415 92.16 210.415 92.92C210.415 92.9867 210.415 93.06 210.415 93.14C210.415 93.22 210.408 93.3067 210.395 93.4H202.195ZM202.195 92.26H208.855C208.815 91.7933 208.715 91.3467 208.555 90.92C208.408 90.4933 208.195 90.12 207.915 89.8C207.648 89.48 207.315 89.2267 206.915 89.04C206.528 88.84 206.075 88.74 205.555 88.74C205.101 88.74 204.681 88.8333 204.295 89.02C203.908 89.1933 203.568 89.44 203.275 89.76C202.981 90.0667 202.741 90.4333 202.555 90.86C202.368 91.2867 202.248 91.7533 202.195 92.26ZM221.991 96.24C221.471 96.8267 220.877 97.3067 220.211 97.68C219.557 98.0533 218.744 98.24 217.771 98.24C217.011 98.24 216.304 98.1 215.651 97.82C215.011 97.5267 214.451 97.14 213.971 96.66C213.504 96.1667 213.137 95.5933 212.871 94.94C212.604 94.2867 212.471 93.5933 212.471 92.86C212.471 92.1267 212.604 91.4333 212.871 90.78C213.137 90.1133 213.504 89.5333 213.971 89.04C214.451 88.5467 215.011 88.16 215.651 87.88C216.304 87.5867 217.011 87.44 217.771 87.44C218.264 87.44 218.711 87.4867 219.111 87.58C219.511 87.6733 219.877 87.8067 220.211 87.98C220.544 88.14 220.851 88.3333 221.131 88.56C221.411 88.7867 221.671 89.0267 221.911 89.28L220.891 90.36C220.477 89.9333 220.024 89.5667 219.531 89.26C219.051 88.9533 218.457 88.8 217.751 88.8C217.231 88.8 216.744 88.9067 216.291 89.12C215.837 89.32 215.444 89.6067 215.111 89.98C214.777 90.34 214.517 90.7667 214.331 91.26C214.144 91.74 214.051 92.26 214.051 92.82C214.051 93.38 214.144 93.9067 214.331 94.4C214.531 94.8933 214.797 95.3267 215.131 95.7C215.477 96.06 215.877 96.3467 216.331 96.56C216.797 96.76 217.304 96.86 217.851 96.86C218.517 96.86 219.104 96.7133 219.611 96.42C220.131 96.1267 220.597 95.76 221.011 95.32L221.991 96.24ZM234.383 92.82C234.383 93.5533 234.243 94.2533 233.963 94.92C233.697 95.5733 233.323 96.1467 232.843 96.64C232.363 97.1333 231.79 97.5267 231.123 97.82C230.457 98.1 229.737 98.24 228.963 98.24C228.19 98.24 227.477 98.1 226.823 97.82C226.17 97.5267 225.603 97.14 225.123 96.66C224.643 96.1667 224.27 95.5933 224.003 94.94C223.737 94.2867 223.603 93.5933 223.603 92.86C223.603 92.1267 223.737 91.4333 224.003 90.78C224.27 90.1133 224.643 89.5333 225.123 89.04C225.603 88.5467 226.17 88.16 226.823 87.88C227.49 87.5867 228.217 87.44 229.003 87.44C229.777 87.44 230.49 87.5867 231.143 87.88C231.81 88.16 232.383 88.5467 232.863 89.04C233.343 89.52 233.717 90.0867 233.983 90.74C234.25 91.3933 234.383 92.0867 234.383 92.82ZM232.803 92.86C232.803 92.3 232.703 91.7733 232.503 91.28C232.317 90.7867 232.05 90.36 231.703 90C231.357 89.6267 230.95 89.3333 230.483 89.12C230.017 88.9067 229.51 88.8 228.963 88.8C228.403 88.8 227.89 88.9067 227.423 89.12C226.957 89.32 226.557 89.6067 226.223 89.98C225.903 90.34 225.65 90.7667 225.463 91.26C225.277 91.74 225.183 92.26 225.183 92.82C225.183 93.38 225.277 93.9067 225.463 94.4C225.663 94.8933 225.93 95.32 226.263 95.68C226.61 96.04 227.017 96.3267 227.483 96.54C227.95 96.7533 228.457 96.86 229.003 96.86C229.563 96.86 230.077 96.76 230.543 96.56C231.01 96.3467 231.41 96.06 231.743 95.7C232.077 95.34 232.337 94.92 232.523 94.44C232.71 93.9467 232.803 93.42 232.803 92.86ZM245.373 89.5C245.56 89.22 245.766 88.9533 245.993 88.7C246.233 88.4467 246.5 88.2267 246.793 88.04C247.086 87.8533 247.413 87.7067 247.773 87.6C248.146 87.4933 248.56 87.44 249.013 87.44C250.213 87.44 251.153 87.8133 251.833 88.56C252.513 89.2933 252.853 90.3067 252.853 91.6V98H251.313V91.96C251.313 90.96 251.073 90.1933 250.593 89.66C250.126 89.1133 249.473 88.84 248.633 88.84C248.246 88.84 247.88 88.9133 247.533 89.06C247.186 89.1933 246.88 89.4 246.613 89.68C246.36 89.9467 246.153 90.28 245.993 90.68C245.846 91.08 245.773 91.5333 245.773 92.04V98H244.253V91.92C244.253 90.9467 244.013 90.1933 243.533 89.66C243.066 89.1133 242.42 88.84 241.593 88.84C241.18 88.84 240.8 88.92 240.453 89.08C240.106 89.24 239.8 89.4667 239.533 89.76C239.28 90.0533 239.08 90.4 238.933 90.8C238.786 91.1867 238.713 91.62 238.713 92.1V98H237.173V87.66H238.713V89.4C238.886 89.1467 239.073 88.9 239.273 88.66C239.486 88.42 239.726 88.2133 239.993 88.04C240.26 87.8533 240.56 87.7067 240.893 87.6C241.226 87.4933 241.613 87.44 242.053 87.44C242.893 87.44 243.586 87.64 244.133 88.04C244.68 88.4267 245.093 88.9133 245.373 89.5ZM263.673 87.5C263.673 87.8333 263.726 88.1333 263.833 88.4C263.939 88.6667 264.133 88.9133 264.413 89.14C264.693 89.3533 265.079 89.5533 265.573 89.74C266.066 89.9133 266.699 90.08 267.473 90.24C269.033 90.5867 270.179 91.0667 270.913 91.68C271.659 92.2933 272.033 93.14 272.033 94.22C272.033 94.82 271.913 95.3667 271.673 95.86C271.433 96.3533 271.099 96.7733 270.673 97.12C270.259 97.4667 269.759 97.7333 269.173 97.92C268.586 98.1067 267.946 98.2 267.253 98.2C266.133 98.2 265.106 98.02 264.173 97.66C263.253 97.2867 262.373 96.72 261.533 95.96L262.513 94.8C263.246 95.4667 263.986 95.9667 264.733 96.3C265.479 96.62 266.339 96.78 267.313 96.78C268.259 96.78 269.013 96.56 269.573 96.12C270.146 95.68 270.433 95.1 270.433 94.38C270.433 94.0467 270.379 93.7533 270.273 93.5C270.166 93.2333 269.979 92.9933 269.713 92.78C269.446 92.5667 269.073 92.3733 268.593 92.2C268.126 92.0267 267.526 91.86 266.793 91.7C265.993 91.5267 265.293 91.3267 264.693 91.1C264.106 90.8733 263.619 90.6 263.233 90.28C262.846 89.96 262.559 89.5867 262.373 89.16C262.186 88.7333 262.093 88.2267 262.093 87.64C262.093 87.08 262.206 86.5667 262.433 86.1C262.659 85.6333 262.979 85.2333 263.393 84.9C263.806 84.5533 264.293 84.2867 264.853 84.1C265.413 83.9 266.026 83.8 266.693 83.8C267.719 83.8 268.613 83.9467 269.373 84.24C270.146 84.52 270.893 84.9467 271.613 85.52L270.693 86.74C270.039 86.2067 269.379 85.82 268.713 85.58C268.059 85.34 267.373 85.22 266.653 85.22C266.199 85.22 265.786 85.28 265.413 85.4C265.053 85.52 264.739 85.68 264.473 85.88C264.219 86.08 264.019 86.32 263.873 86.6C263.739 86.88 263.673 87.18 263.673 87.5ZM275.906 93.4C275.959 93.96 276.092 94.46 276.306 94.9C276.519 95.3267 276.792 95.6933 277.126 96C277.459 96.2933 277.832 96.52 278.246 96.68C278.659 96.8267 279.092 96.9 279.546 96.9C280.266 96.9 280.879 96.7667 281.386 96.5C281.906 96.2333 282.379 95.88 282.806 95.44L283.766 96.3C283.246 96.8867 282.652 97.36 281.986 97.72C281.319 98.0667 280.492 98.24 279.506 98.24C278.799 98.24 278.132 98.1133 277.506 97.86C276.879 97.5933 276.332 97.2267 275.866 96.76C275.399 96.28 275.026 95.7067 274.746 95.04C274.479 94.3733 274.346 93.64 274.346 92.84C274.346 92.0933 274.466 91.3933 274.706 90.74C274.959 90.0733 275.306 89.5 275.746 89.02C276.186 88.5267 276.706 88.14 277.306 87.86C277.919 87.58 278.586 87.44 279.306 87.44C280.066 87.44 280.746 87.5867 281.346 87.88C281.946 88.16 282.452 88.5467 282.866 89.04C283.279 89.5333 283.592 90.1133 283.806 90.78C284.019 91.4467 284.126 92.16 284.126 92.92C284.126 92.9867 284.126 93.06 284.126 93.14C284.126 93.22 284.119 93.3067 284.106 93.4H275.906ZM275.906 92.26H282.566C282.526 91.7933 282.426 91.3467 282.266 90.92C282.119 90.4933 281.906 90.12 281.626 89.8C281.359 89.48 281.026 89.2267 280.626 89.04C280.239 88.84 279.786 88.74 279.266 88.74C278.812 88.74 278.392 88.8333 278.006 89.02C277.619 89.1933 277.279 89.44 276.986 89.76C276.692 90.0667 276.452 90.4333 276.266 90.86C276.079 91.2867 275.959 91.7533 275.906 92.26ZM295.702 96.24C295.182 96.8267 294.588 97.3067 293.922 97.68C293.268 98.0533 292.455 98.24 291.482 98.24C290.722 98.24 290.015 98.1 289.362 97.82C288.722 97.5267 288.162 97.14 287.682 96.66C287.215 96.1667 286.848 95.5933 286.582 94.94C286.315 94.2867 286.182 93.5933 286.182 92.86C286.182 92.1267 286.315 91.4333 286.582 90.78C286.848 90.1133 287.215 89.5333 287.682 89.04C288.162 88.5467 288.722 88.16 289.362 87.88C290.015 87.5867 290.722 87.44 291.482 87.44C291.975 87.44 292.422 87.4867 292.822 87.58C293.222 87.6733 293.588 87.8067 293.922 87.98C294.255 88.14 294.562 88.3333 294.842 88.56C295.122 88.7867 295.382 89.0267 295.622 89.28L294.602 90.36C294.188 89.9333 293.735 89.5667 293.242 89.26C292.762 88.9533 292.168 88.8 291.462 88.8C290.942 88.8 290.455 88.9067 290.002 89.12C289.548 89.32 289.155 89.6067 288.822 89.98C288.488 90.34 288.228 90.7667 288.042 91.26C287.855 91.74 287.762 92.26 287.762 92.82C287.762 93.38 287.855 93.9067 288.042 94.4C288.242 94.8933 288.508 95.3267 288.842 95.7C289.188 96.06 289.588 96.3467 290.042 96.56C290.508 96.76 291.015 96.86 291.562 96.86C292.228 96.86 292.815 96.7133 293.322 96.42C293.842 96.1267 294.308 95.76 294.722 95.32L295.702 96.24ZM300.327 89.02V95.06C300.327 95.7 300.487 96.1467 300.807 96.4C301.127 96.6533 301.547 96.78 302.067 96.78C302.334 96.78 302.581 96.7533 302.807 96.7C303.047 96.6467 303.301 96.5533 303.567 96.42V97.74C303.301 97.8867 303.014 97.9933 302.707 98.06C302.414 98.14 302.081 98.18 301.707 98.18C301.294 98.18 300.907 98.1267 300.547 98.02C300.187 97.9133 299.874 97.7467 299.607 97.52C299.354 97.28 299.154 96.9733 299.007 96.6C298.861 96.2267 298.787 95.78 298.787 95.26V89.02H297.347V87.66H298.787V84.54H300.327V87.66H303.607V89.02H300.327ZM316.18 92.82C316.18 93.5533 316.04 94.2533 315.76 94.92C315.494 95.5733 315.12 96.1467 314.64 96.64C314.16 97.1333 313.587 97.5267 312.92 97.82C312.254 98.1 311.534 98.24 310.76 98.24C309.987 98.24 309.274 98.1 308.62 97.82C307.967 97.5267 307.4 97.14 306.92 96.66C306.44 96.1667 306.067 95.5933 305.8 94.94C305.534 94.2867 305.4 93.5933 305.4 92.86C305.4 92.1267 305.534 91.4333 305.8 90.78C306.067 90.1133 306.44 89.5333 306.92 89.04C307.4 88.5467 307.967 88.16 308.62 87.88C309.287 87.5867 310.014 87.44 310.8 87.44C311.574 87.44 312.287 87.5867 312.94 87.88C313.607 88.16 314.18 88.5467 314.66 89.04C315.14 89.52 315.514 90.0867 315.78 90.74C316.047 91.3933 316.18 92.0867 316.18 92.82ZM314.6 92.86C314.6 92.3 314.5 91.7733 314.3 91.28C314.114 90.7867 313.847 90.36 313.5 90C313.154 89.6267 312.747 89.3333 312.28 89.12C311.814 88.9067 311.307 88.8 310.76 88.8C310.2 88.8 309.687 88.9067 309.22 89.12C308.754 89.32 308.354 89.6067 308.02 89.98C307.7 90.34 307.447 90.7667 307.26 91.26C307.074 91.74 306.98 92.26 306.98 92.82C306.98 93.38 307.074 93.9067 307.26 94.4C307.46 94.8933 307.727 95.32 308.06 95.68C308.407 96.04 308.814 96.3267 309.28 96.54C309.747 96.7533 310.254 96.86 310.8 96.86C311.36 96.86 311.874 96.76 312.34 96.56C312.807 96.3467 313.207 96.06 313.54 95.7C313.874 95.34 314.134 94.92 314.32 94.44C314.507 93.9467 314.6 93.42 314.6 92.86ZM320.51 93.88V98H318.97V87.66H320.51V90.36C320.697 89.9333 320.93 89.54 321.21 89.18C321.49 88.82 321.81 88.5133 322.17 88.26C322.53 87.9933 322.923 87.7933 323.35 87.66C323.777 87.5267 324.237 87.4667 324.73 87.48V89.14H324.61C324.05 89.14 323.517 89.24 323.01 89.44C322.517 89.64 322.083 89.94 321.71 90.34C321.337 90.74 321.043 91.24 320.83 91.84C320.617 92.4267 320.51 93.1067 320.51 93.88ZM336.812 88.88C336.198 88.88 335.638 88.9533 335.132 89.1C334.638 89.2333 334.152 89.4133 333.672 89.64L333.212 88.38C333.785 88.1133 334.365 87.9067 334.952 87.76C335.538 87.6 336.212 87.52 336.972 87.52C338.385 87.52 339.472 87.8733 340.232 88.58C340.992 89.2733 341.372 90.3067 341.372 91.68V98H339.892V96.44C339.532 96.9067 339.045 97.32 338.432 97.68C337.832 98.04 337.072 98.22 336.152 98.22C335.672 98.22 335.198 98.1533 334.732 98.02C334.278 97.8867 333.865 97.6867 333.492 97.42C333.132 97.14 332.838 96.8 332.612 96.4C332.398 96 332.292 95.5267 332.292 94.98C332.292 94.4333 332.398 93.9533 332.612 93.54C332.825 93.1133 333.125 92.76 333.512 92.48C333.912 92.2 334.378 91.9867 334.912 91.84C335.458 91.6933 336.058 91.62 336.712 91.62C337.378 91.62 337.958 91.66 338.452 91.74C338.945 91.82 339.425 91.9267 339.892 92.06V91.7C339.892 90.7667 339.618 90.0667 339.072 89.6C338.538 89.12 337.785 88.88 336.812 88.88ZM336.872 92.76C335.898 92.76 335.152 92.9533 334.632 93.34C334.112 93.7267 333.852 94.2533 333.852 94.92C333.852 95.2533 333.918 95.5467 334.052 95.8C334.198 96.0533 334.392 96.2733 334.632 96.46C334.872 96.6333 335.145 96.7667 335.452 96.86C335.772 96.9533 336.105 97 336.452 97C336.932 97 337.378 96.9333 337.792 96.8C338.218 96.6533 338.585 96.46 338.892 96.22C339.212 95.9667 339.458 95.6733 339.632 95.34C339.818 94.9933 339.912 94.6133 339.912 94.2V93.2C339.525 93.0933 339.078 92.9933 338.572 92.9C338.078 92.8067 337.512 92.76 336.872 92.76ZM346.636 89.02V95.06C346.636 95.7 346.796 96.1467 347.116 96.4C347.436 96.6533 347.856 96.78 348.376 96.78C348.643 96.78 348.889 96.7533 349.116 96.7C349.356 96.6467 349.609 96.5533 349.876 96.42V97.74C349.609 97.8867 349.323 97.9933 349.016 98.06C348.723 98.14 348.389 98.18 348.016 98.18C347.603 98.18 347.216 98.1267 346.856 98.02C346.496 97.9133 346.183 97.7467 345.916 97.52C345.663 97.28 345.463 96.9733 345.316 96.6C345.169 96.2267 345.096 95.78 345.096 95.26V89.02H343.656V87.66H345.096V84.54H346.636V87.66H349.916V89.02H346.636ZM357.398 85.1L361.418 83.9H363.518V98H360.478V87.02L358.038 87.62L357.398 85.1ZM372.435 86.64H366.935V84H376.395V86.32L372.855 89.7C373.335 89.78 373.802 89.9067 374.255 90.08C374.709 90.2533 375.109 90.5 375.455 90.82C375.802 91.1267 376.082 91.5133 376.295 91.98C376.509 92.4333 376.615 92.9867 376.615 93.64C376.615 94.3067 376.495 94.92 376.255 95.48C376.029 96.04 375.695 96.5267 375.255 96.94C374.829 97.3533 374.302 97.6733 373.675 97.9C373.049 98.1267 372.349 98.24 371.575 98.24C370.309 98.24 369.229 98.02 368.335 97.58C367.455 97.1267 366.715 96.54 366.115 95.82L368.235 93.8C368.715 94.3467 369.215 94.7667 369.735 95.06C370.269 95.34 370.895 95.48 371.615 95.48C372.202 95.48 372.675 95.3267 373.035 95.02C373.409 94.7133 373.595 94.2933 373.595 93.76C373.595 93.1733 373.355 92.7267 372.875 92.42C372.409 92.1133 371.735 91.96 370.855 91.96H369.575L369.095 90L372.435 86.64ZM385.157 97.56C384.837 97.7467 384.484 97.8933 384.097 98C383.711 98.12 383.264 98.18 382.757 98.18C382.291 98.18 381.864 98.1267 381.477 98.02C381.104 97.9267 380.777 97.7533 380.497 97.5C380.231 97.2467 380.017 96.92 379.857 96.52C379.711 96.1067 379.637 95.5867 379.637 94.96V89.88H378.357V87.28H379.637V84.54H382.677V87.28H385.197V89.88H382.677V94.46C382.677 95.1533 383.004 95.5 383.657 95.5C384.191 95.5 384.691 95.3733 385.157 95.12V97.56ZM397.258 98H394.218V92.02C394.218 91.3 394.058 90.76 393.738 90.4C393.418 90.0267 392.965 89.84 392.378 89.84C391.791 89.84 391.325 90.0267 390.978 90.4C390.645 90.76 390.478 91.3 390.478 92.02V98H387.438V83.4H390.478V88.8C390.651 88.5733 390.838 88.36 391.038 88.16C391.251 87.9467 391.485 87.76 391.738 87.6C391.991 87.44 392.271 87.3133 392.578 87.22C392.885 87.1267 393.231 87.08 393.618 87.08C394.778 87.08 395.671 87.4333 396.298 88.14C396.938 88.8467 397.258 89.82 397.258 91.06V98ZM141.738 126H131.078V112H141.638V114.74H134.138V117.58H140.738V120.32H134.138V123.26H141.738V126ZM154.017 126H150.757L148.597 122.66L146.437 126H143.257L147.017 120.56L143.397 115.28H146.657L148.657 118.4L150.677 115.28H153.857L150.237 120.5L154.017 126ZM165.277 124.28C164.757 124.853 164.163 125.327 163.497 125.7C162.83 126.06 161.963 126.24 160.897 126.24C160.097 126.24 159.35 126.093 158.657 125.8C157.977 125.507 157.39 125.113 156.897 124.62C156.403 124.113 156.017 123.527 155.737 122.86C155.457 122.18 155.317 121.46 155.317 120.7V120.66C155.317 119.9 155.457 119.18 155.737 118.5C156.017 117.82 156.403 117.227 156.897 116.72C157.39 116.213 157.977 115.813 158.657 115.52C159.35 115.227 160.11 115.08 160.937 115.08C161.95 115.08 162.79 115.24 163.457 115.56C164.123 115.88 164.71 116.32 165.217 116.88L163.357 118.88C163.01 118.52 162.65 118.233 162.277 118.02C161.917 117.807 161.463 117.7 160.917 117.7C160.53 117.7 160.177 117.78 159.857 117.94C159.55 118.087 159.277 118.293 159.037 118.56C158.81 118.827 158.63 119.14 158.497 119.5C158.377 119.847 158.317 120.22 158.317 120.62V120.66C158.317 121.073 158.377 121.46 158.497 121.82C158.63 122.18 158.817 122.493 159.057 122.76C159.297 123.027 159.583 123.24 159.917 123.4C160.25 123.547 160.623 123.62 161.037 123.62C161.543 123.62 161.983 123.52 162.357 123.32C162.743 123.107 163.123 122.827 163.497 122.48L165.277 124.28ZM177.262 120.94C177.262 121.087 177.256 121.213 177.242 121.32C177.242 121.427 177.236 121.553 177.222 121.7H169.762C169.909 122.393 170.209 122.92 170.662 123.28C171.129 123.627 171.702 123.8 172.382 123.8C172.889 123.8 173.342 123.713 173.742 123.54C174.142 123.367 174.556 123.087 174.982 122.7L176.722 124.24C176.216 124.867 175.602 125.36 174.882 125.72C174.162 126.067 173.316 126.24 172.342 126.24C171.542 126.24 170.796 126.107 170.102 125.84C169.422 125.573 168.829 125.193 168.322 124.7C167.829 124.207 167.442 123.627 167.162 122.96C166.882 122.28 166.742 121.527 166.742 120.7V120.66C166.742 119.9 166.869 119.18 167.122 118.5C167.389 117.82 167.756 117.227 168.222 116.72C168.689 116.213 169.242 115.813 169.882 115.52C170.536 115.227 171.256 115.08 172.042 115.08C172.936 115.08 173.709 115.24 174.362 115.56C175.016 115.88 175.556 116.313 175.982 116.86C176.422 117.393 176.742 118.013 176.942 118.72C177.156 119.413 177.262 120.14 177.262 120.9V120.94ZM174.302 119.8C174.209 119.12 173.969 118.573 173.582 118.16C173.196 117.733 172.682 117.52 172.042 117.52C171.402 117.52 170.882 117.727 170.482 118.14C170.096 118.553 169.842 119.107 169.722 119.8H174.302ZM189.528 120.94C189.528 121.087 189.521 121.213 189.508 121.32C189.508 121.427 189.501 121.553 189.488 121.7H182.028C182.175 122.393 182.475 122.92 182.928 123.28C183.395 123.627 183.968 123.8 184.648 123.8C185.155 123.8 185.608 123.713 186.008 123.54C186.408 123.367 186.821 123.087 187.248 122.7L188.988 124.24C188.481 124.867 187.868 125.36 187.148 125.72C186.428 126.067 185.581 126.24 184.608 126.24C183.808 126.24 183.061 126.107 182.368 125.84C181.688 125.573 181.095 125.193 180.588 124.7C180.095 124.207 179.708 123.627 179.428 122.96C179.148 122.28 179.008 121.527 179.008 120.7V120.66C179.008 119.9 179.135 119.18 179.388 118.5C179.655 117.82 180.021 117.227 180.488 116.72C180.955 116.213 181.508 115.813 182.148 115.52C182.801 115.227 183.521 115.08 184.308 115.08C185.201 115.08 185.975 115.24 186.628 115.56C187.281 115.88 187.821 116.313 188.248 116.86C188.688 117.393 189.008 118.013 189.208 118.72C189.421 119.413 189.528 120.14 189.528 120.9V120.94ZM186.568 119.8C186.475 119.12 186.235 118.573 185.848 118.16C185.461 117.733 184.948 117.52 184.308 117.52C183.668 117.52 183.148 117.727 182.748 118.14C182.361 118.553 182.108 119.107 181.988 119.8H186.568ZM202.574 126H199.534V124.46C199.16 124.967 198.707 125.387 198.174 125.72C197.654 126.04 196.994 126.2 196.194 126.2C195.567 126.2 194.96 126.08 194.374 125.84C193.787 125.6 193.267 125.247 192.814 124.78C192.36 124.3 191.994 123.72 191.714 123.04C191.447 122.347 191.314 121.553 191.314 120.66V120.62C191.314 119.727 191.447 118.94 191.714 118.26C191.994 117.567 192.354 116.987 192.794 116.52C193.247 116.04 193.767 115.68 194.354 115.44C194.94 115.2 195.554 115.08 196.194 115.08C197.007 115.08 197.674 115.24 198.194 115.56C198.727 115.88 199.174 116.253 199.534 116.68V111.4H202.574V126ZM199.574 120.66V120.62C199.574 120.18 199.5 119.78 199.354 119.42C199.22 119.047 199.034 118.733 198.794 118.48C198.567 118.213 198.294 118.013 197.974 117.88C197.667 117.733 197.334 117.66 196.974 117.66C196.614 117.66 196.274 117.733 195.954 117.88C195.647 118.013 195.374 118.213 195.134 118.48C194.894 118.733 194.7 119.04 194.554 119.4C194.42 119.76 194.354 120.167 194.354 120.62V120.66C194.354 121.1 194.42 121.507 194.554 121.88C194.7 122.24 194.894 122.553 195.134 122.82C195.374 123.073 195.647 123.273 195.954 123.42C196.274 123.553 196.614 123.62 196.974 123.62C197.334 123.62 197.667 123.553 197.974 123.42C198.294 123.273 198.567 123.073 198.794 122.82C199.034 122.553 199.22 122.24 199.354 121.88C199.5 121.507 199.574 121.1 199.574 120.66ZM225.866 119C225.866 120 225.679 120.94 225.306 121.82C224.932 122.687 224.412 123.453 223.746 124.12C223.092 124.773 222.306 125.293 221.386 125.68C220.479 126.053 219.486 126.24 218.406 126.24C217.326 126.24 216.332 126.053 215.426 125.68C214.519 125.293 213.732 124.78 213.066 124.14C212.412 123.487 211.899 122.727 211.526 121.86C211.166 120.98 210.986 120.04 210.986 119.04V119C210.986 118 211.172 117.067 211.546 116.2C211.919 115.32 212.432 114.553 213.086 113.9C213.752 113.233 214.539 112.713 215.446 112.34C216.366 111.953 217.366 111.76 218.446 111.76C219.526 111.76 220.519 111.953 221.426 112.34C222.332 112.713 223.112 113.227 223.766 113.88C224.432 114.52 224.946 115.28 225.306 116.16C225.679 117.027 225.866 117.96 225.866 118.96V119ZM222.646 119.04V119C222.646 118.4 222.539 117.833 222.326 117.3C222.126 116.767 221.832 116.3 221.446 115.9C221.072 115.5 220.626 115.187 220.106 114.96C219.586 114.72 219.019 114.6 218.406 114.6C217.779 114.6 217.206 114.713 216.686 114.94C216.179 115.167 215.739 115.48 215.366 115.88C215.006 116.28 214.719 116.747 214.506 117.28C214.306 117.8 214.206 118.36 214.206 118.96V119C214.206 119.6 214.306 120.167 214.506 120.7C214.719 121.233 215.012 121.7 215.386 122.1C215.772 122.5 216.219 122.82 216.726 123.06C217.246 123.287 217.819 123.4 218.446 123.4C219.059 123.4 219.626 123.287 220.146 123.06C220.666 122.833 221.106 122.52 221.466 122.12C221.839 121.72 222.126 121.26 222.326 120.74C222.539 120.207 222.646 119.64 222.646 119.04ZM237.718 124.28C237.198 124.853 236.605 125.327 235.938 125.7C235.271 126.06 234.405 126.24 233.338 126.24C232.538 126.24 231.791 126.093 231.098 125.8C230.418 125.507 229.831 125.113 229.338 124.62C228.845 124.113 228.458 123.527 228.178 122.86C227.898 122.18 227.758 121.46 227.758 120.7V120.66C227.758 119.9 227.898 119.18 228.178 118.5C228.458 117.82 228.845 117.227 229.338 116.72C229.831 116.213 230.418 115.813 231.098 115.52C231.791 115.227 232.551 115.08 233.378 115.08C234.391 115.08 235.231 115.24 235.898 115.56C236.565 115.88 237.151 116.32 237.658 116.88L235.798 118.88C235.451 118.52 235.091 118.233 234.718 118.02C234.358 117.807 233.905 117.7 233.358 117.7C232.971 117.7 232.618 117.78 232.298 117.94C231.991 118.087 231.718 118.293 231.478 118.56C231.251 118.827 231.071 119.14 230.938 119.5C230.818 119.847 230.758 120.22 230.758 120.62V120.66C230.758 121.073 230.818 121.46 230.938 121.82C231.071 122.18 231.258 122.493 231.498 122.76C231.738 123.027 232.025 123.24 232.358 123.4C232.691 123.547 233.065 123.62 233.478 123.62C233.985 123.62 234.425 123.52 234.798 123.32C235.185 123.107 235.565 122.827 235.938 122.48L237.718 124.28ZM249.144 124.28C248.624 124.853 248.03 125.327 247.364 125.7C246.697 126.06 245.83 126.24 244.764 126.24C243.964 126.24 243.217 126.093 242.524 125.8C241.844 125.507 241.257 125.113 240.764 124.62C240.27 124.113 239.884 123.527 239.604 122.86C239.324 122.18 239.184 121.46 239.184 120.7V120.66C239.184 119.9 239.324 119.18 239.604 118.5C239.884 117.82 240.27 117.227 240.764 116.72C241.257 116.213 241.844 115.813 242.524 115.52C243.217 115.227 243.977 115.08 244.804 115.08C245.817 115.08 246.657 115.24 247.324 115.56C247.99 115.88 248.577 116.32 249.084 116.88L247.224 118.88C246.877 118.52 246.517 118.233 246.144 118.02C245.784 117.807 245.33 117.7 244.784 117.7C244.397 117.7 244.044 117.78 243.724 117.94C243.417 118.087 243.144 118.293 242.904 118.56C242.677 118.827 242.497 119.14 242.364 119.5C242.244 119.847 242.184 120.22 242.184 120.62V120.66C242.184 121.073 242.244 121.46 242.364 121.82C242.497 122.18 242.684 122.493 242.924 122.76C243.164 123.027 243.45 123.24 243.784 123.4C244.117 123.547 244.49 123.62 244.904 123.62C245.41 123.62 245.85 123.52 246.224 123.32C246.61 123.107 246.99 122.827 247.364 122.48L249.144 124.28ZM260.87 126H257.83V124.48C257.656 124.707 257.463 124.927 257.25 125.14C257.05 125.34 256.823 125.52 256.57 125.68C256.316 125.84 256.036 125.967 255.73 126.06C255.423 126.153 255.076 126.2 254.69 126.2C253.53 126.2 252.63 125.847 251.99 125.14C251.363 124.433 251.05 123.46 251.05 122.22V115.28H254.09V121.26C254.09 121.98 254.25 122.527 254.57 122.9C254.89 123.26 255.343 123.44 255.93 123.44C256.516 123.44 256.976 123.26 257.31 122.9C257.656 122.527 257.83 121.98 257.83 121.26V115.28H260.87V126ZM274.85 120.66C274.85 121.553 274.71 122.347 274.43 123.04C274.164 123.72 273.804 124.3 273.35 124.78C272.91 125.247 272.397 125.6 271.81 125.84C271.224 126.08 270.61 126.2 269.97 126.2C269.157 126.2 268.484 126.04 267.95 125.72C267.43 125.4 266.99 125.027 266.63 124.6V129.2H263.59V115.28H266.63V116.82C267.004 116.313 267.45 115.9 267.97 115.58C268.504 115.247 269.17 115.08 269.97 115.08C270.597 115.08 271.204 115.2 271.79 115.44C272.377 115.68 272.897 116.04 273.35 116.52C273.804 116.987 274.164 117.567 274.43 118.26C274.71 118.94 274.85 119.727 274.85 120.62V120.66ZM271.81 120.66V120.62C271.81 120.18 271.737 119.78 271.59 119.42C271.457 119.047 271.27 118.733 271.03 118.48C270.79 118.213 270.51 118.013 270.19 117.88C269.884 117.733 269.55 117.66 269.19 117.66C268.83 117.66 268.49 117.733 268.17 117.88C267.864 118.013 267.59 118.213 267.35 118.48C267.124 118.733 266.937 119.047 266.79 119.42C266.657 119.78 266.59 120.18 266.59 120.62V120.66C266.59 121.1 266.657 121.507 266.79 121.88C266.937 122.24 267.124 122.553 267.35 122.82C267.59 123.073 267.864 123.273 268.17 123.42C268.49 123.553 268.83 123.62 269.19 123.62C269.55 123.62 269.884 123.553 270.19 123.42C270.51 123.273 270.79 123.073 271.03 122.82C271.27 122.553 271.457 122.24 271.59 121.88C271.737 121.52 271.81 121.113 271.81 120.66ZM286.307 126H283.367V124.84C282.993 125.253 282.547 125.587 282.027 125.84C281.507 126.08 280.873 126.2 280.127 126.2C279.62 126.2 279.14 126.133 278.687 126C278.247 125.853 277.86 125.64 277.527 125.36C277.193 125.08 276.927 124.74 276.727 124.34C276.54 123.927 276.447 123.453 276.447 122.92V122.88C276.447 122.293 276.553 121.787 276.767 121.36C276.98 120.933 277.273 120.58 277.647 120.3C278.033 120.02 278.487 119.813 279.007 119.68C279.54 119.533 280.127 119.46 280.767 119.46C281.313 119.46 281.787 119.5 282.187 119.58C282.6 119.66 283 119.767 283.387 119.9V119.72C283.387 119.08 283.193 118.593 282.807 118.26C282.42 117.927 281.847 117.76 281.087 117.76C280.5 117.76 279.98 117.813 279.527 117.92C279.087 118.013 278.62 118.153 278.127 118.34L277.367 116.02C277.953 115.767 278.567 115.56 279.207 115.4C279.847 115.24 280.62 115.16 281.527 115.16C283.193 115.16 284.407 115.567 285.167 116.38C285.927 117.193 286.307 118.327 286.307 119.78V126ZM283.427 122.22V121.68C283.16 121.56 282.86 121.467 282.527 121.4C282.207 121.32 281.86 121.28 281.487 121.28C280.833 121.28 280.32 121.407 279.947 121.66C279.573 121.913 279.387 122.28 279.387 122.76V122.8C279.387 123.213 279.54 123.533 279.847 123.76C280.153 123.987 280.553 124.1 281.047 124.1C281.767 124.1 282.34 123.927 282.767 123.58C283.207 123.233 283.427 122.78 283.427 122.22ZM294.943 125.56C294.623 125.747 294.269 125.893 293.883 126C293.496 126.12 293.049 126.18 292.543 126.18C292.076 126.18 291.649 126.127 291.263 126.02C290.889 125.927 290.563 125.753 290.283 125.5C290.016 125.247 289.803 124.92 289.643 124.52C289.496 124.107 289.423 123.587 289.423 122.96V117.88H288.143V115.28H289.423V112.54H292.463V115.28H294.983V117.88H292.463V122.46C292.463 123.153 292.789 123.5 293.442 123.5C293.976 123.5 294.476 123.373 294.943 123.12V125.56ZM300.483 114.1H297.283V111.4H300.483V114.1ZM300.403 126H297.363V115.28H300.403V126ZM314.338 120.66C314.338 121.433 314.192 122.16 313.898 122.84C313.605 123.507 313.198 124.093 312.678 124.6C312.158 125.107 311.545 125.507 310.838 125.8C310.132 126.093 309.358 126.24 308.518 126.24C307.692 126.24 306.925 126.1 306.218 125.82C305.512 125.527 304.898 125.133 304.378 124.64C303.872 124.133 303.472 123.547 303.178 122.88C302.885 122.2 302.738 121.473 302.738 120.7V120.66C302.738 119.887 302.885 119.167 303.178 118.5C303.472 117.82 303.878 117.227 304.398 116.72C304.918 116.213 305.532 115.813 306.238 115.52C306.945 115.227 307.718 115.08 308.558 115.08C309.385 115.08 310.152 115.227 310.858 115.52C311.565 115.8 312.172 116.193 312.678 116.7C313.198 117.193 313.605 117.78 313.898 118.46C314.192 119.127 314.338 119.847 314.338 120.62V120.66ZM311.338 120.7V120.66C311.338 120.26 311.272 119.887 311.138 119.54C311.005 119.18 310.812 118.867 310.558 118.6C310.305 118.32 310.005 118.1 309.658 117.94C309.312 117.78 308.932 117.7 308.518 117.7C308.078 117.7 307.685 117.78 307.338 117.94C307.005 118.087 306.718 118.293 306.478 118.56C306.238 118.827 306.052 119.14 305.918 119.5C305.798 119.847 305.738 120.22 305.738 120.62V120.66C305.738 121.06 305.805 121.44 305.938 121.8C306.072 122.147 306.265 122.46 306.518 122.74C306.772 123.007 307.065 123.22 307.398 123.38C307.745 123.54 308.132 123.62 308.558 123.62C308.998 123.62 309.385 123.547 309.718 123.4C310.065 123.24 310.358 123.027 310.598 122.76C310.838 122.493 311.018 122.187 311.138 121.84C311.272 121.48 311.338 121.1 311.338 120.7ZM326.36 126H323.32V120.02C323.32 119.3 323.16 118.76 322.84 118.4C322.52 118.027 322.066 117.84 321.48 117.84C320.893 117.84 320.426 118.027 320.08 118.4C319.746 118.76 319.58 119.3 319.58 120.02V126H316.54V115.28H319.58V116.8C319.753 116.573 319.94 116.36 320.14 116.16C320.353 115.947 320.586 115.76 320.84 115.6C321.093 115.44 321.373 115.313 321.68 115.22C321.986 115.127 322.333 115.08 322.72 115.08C323.88 115.08 324.773 115.433 325.4 116.14C326.04 116.847 326.36 117.82 326.36 119.06V126ZM338.221 126H335.281V124.84C334.907 125.253 334.461 125.587 333.941 125.84C333.421 126.08 332.787 126.2 332.041 126.2C331.534 126.2 331.054 126.133 330.601 126C330.161 125.853 329.774 125.64 329.441 125.36C329.107 125.08 328.841 124.74 328.641 124.34C328.454 123.927 328.361 123.453 328.361 122.92V122.88C328.361 122.293 328.467 121.787 328.681 121.36C328.894 120.933 329.187 120.58 329.561 120.3C329.947 120.02 330.401 119.813 330.921 119.68C331.454 119.533 332.041 119.46 332.681 119.46C333.227 119.46 333.701 119.5 334.101 119.58C334.514 119.66 334.914 119.767 335.301 119.9V119.72C335.301 119.08 335.107 118.593 334.721 118.26C334.334 117.927 333.761 117.76 333.001 117.76C332.414 117.76 331.894 117.813 331.441 117.92C331.001 118.013 330.534 118.153 330.041 118.34L329.281 116.02C329.867 115.767 330.481 115.56 331.121 115.4C331.761 115.24 332.534 115.16 333.441 115.16C335.107 115.16 336.321 115.567 337.081 116.38C337.841 117.193 338.221 118.327 338.221 119.78V126ZM335.341 122.22V121.68C335.074 121.56 334.774 121.467 334.441 121.4C334.121 121.32 333.774 121.28 333.401 121.28C332.747 121.28 332.234 121.407 331.861 121.66C331.487 121.913 331.301 122.28 331.301 122.76V122.8C331.301 123.213 331.454 123.533 331.761 123.76C332.067 123.987 332.467 124.1 332.961 124.1C333.681 124.1 334.254 123.927 334.681 123.58C335.121 123.233 335.341 122.78 335.341 122.22ZM344.017 126H340.977V111.4H344.017V126ZM365.028 126H361.948V120.38H356.268V126H353.188V112H356.268V117.54H361.948V112H365.028V126ZM378.063 120.94C378.063 121.087 378.056 121.213 378.043 121.32C378.043 121.427 378.036 121.553 378.023 121.7H370.563C370.71 122.393 371.01 122.92 371.463 123.28C371.93 123.627 372.503 123.8 373.183 123.8C373.69 123.8 374.143 123.713 374.543 123.54C374.943 123.367 375.356 123.087 375.783 122.7L377.523 124.24C377.016 124.867 376.403 125.36 375.683 125.72C374.963 126.067 374.116 126.24 373.143 126.24C372.343 126.24 371.596 126.107 370.903 125.84C370.223 125.573 369.63 125.193 369.123 124.7C368.63 124.207 368.243 123.627 367.963 122.96C367.683 122.28 367.543 121.527 367.543 120.7V120.66C367.543 119.9 367.67 119.18 367.923 118.5C368.19 117.82 368.556 117.227 369.023 116.72C369.49 116.213 370.043 115.813 370.683 115.52C371.336 115.227 372.056 115.08 372.843 115.08C373.736 115.08 374.51 115.24 375.163 115.56C375.816 115.88 376.356 116.313 376.783 116.86C377.223 117.393 377.543 118.013 377.743 118.72C377.956 119.413 378.063 120.14 378.063 120.9V120.94ZM375.103 119.8C375.01 119.12 374.77 118.573 374.383 118.16C373.996 117.733 373.483 117.52 372.843 117.52C372.203 117.52 371.683 117.727 371.283 118.14C370.896 118.553 370.643 119.107 370.523 119.8H375.103ZM389.549 126H386.609V124.84C386.235 125.253 385.789 125.587 385.269 125.84C384.749 126.08 384.115 126.2 383.369 126.2C382.862 126.2 382.382 126.133 381.929 126C381.489 125.853 381.102 125.64 380.769 125.36C380.435 125.08 380.169 124.74 379.969 124.34C379.782 123.927 379.689 123.453 379.689 122.92V122.88C379.689 122.293 379.795 121.787 380.009 121.36C380.222 120.933 380.515 120.58 380.889 120.3C381.275 120.02 381.729 119.813 382.249 119.68C382.782 119.533 383.369 119.46 384.009 119.46C384.555 119.46 385.029 119.5 385.429 119.58C385.842 119.66 386.242 119.767 386.629 119.9V119.72C386.629 119.08 386.435 118.593 386.049 118.26C385.662 117.927 385.089 117.76 384.329 117.76C383.742 117.76 383.222 117.813 382.769 117.92C382.329 118.013 381.862 118.153 381.369 118.34L380.609 116.02C381.195 115.767 381.809 115.56 382.449 115.4C383.089 115.24 383.862 115.16 384.769 115.16C386.435 115.16 387.649 115.567 388.409 116.38C389.169 117.193 389.549 118.327 389.549 119.78V126ZM386.669 122.22V121.68C386.402 121.56 386.102 121.467 385.769 121.4C385.449 121.32 385.102 121.28 384.729 121.28C384.075 121.28 383.562 121.407 383.189 121.66C382.815 121.913 382.629 122.28 382.629 122.76V122.8C382.629 123.213 382.782 123.533 383.089 123.76C383.395 123.987 383.795 124.1 384.289 124.1C385.009 124.1 385.582 123.927 386.009 123.58C386.449 123.233 386.669 122.78 386.669 122.22ZM395.345 126H392.305V111.4H395.345V126ZM404.22 125.56C403.9 125.747 403.547 125.893 403.16 126C402.773 126.12 402.327 126.18 401.82 126.18C401.353 126.18 400.927 126.127 400.54 126.02C400.167 125.927 399.84 125.753 399.56 125.5C399.293 125.247 399.08 124.92 398.92 124.52C398.773 124.107 398.7 123.587 398.7 122.96V117.88H397.42V115.28H398.7V112.54H401.74V115.28H404.26V117.88H401.74V122.46C401.74 123.153 402.067 123.5 402.72 123.5C403.253 123.5 403.753 123.373 404.22 123.12V125.56ZM416.321 126H413.281V120.02C413.281 119.3 413.121 118.76 412.801 118.4C412.481 118.027 412.027 117.84 411.441 117.84C410.854 117.84 410.387 118.027 410.041 118.4C409.707 118.76 409.541 119.3 409.541 120.02V126H406.501V111.4H409.541V116.8C409.714 116.573 409.901 116.36 410.101 116.16C410.314 115.947 410.547 115.76 410.801 115.6C411.054 115.44 411.334 115.313 411.641 115.22C411.947 115.127 412.294 115.08 412.681 115.08C413.841 115.08 414.734 115.433 415.361 116.14C416.001 116.847 416.321 117.82 416.321 119.06V126ZM164.422 154H161.482V152.84C161.108 153.253 160.662 153.587 160.142 153.84C159.622 154.08 158.988 154.2 158.242 154.2C157.735 154.2 157.255 154.133 156.802 154C156.362 153.853 155.975 153.64 155.642 153.36C155.308 153.08 155.042 152.74 154.842 152.34C154.655 151.927 154.562 151.453 154.562 150.92V150.88C154.562 150.293 154.668 149.787 154.882 149.36C155.095 148.933 155.388 148.58 155.762 148.3C156.148 148.02 156.602 147.813 157.122 147.68C157.655 147.533 158.242 147.46 158.882 147.46C159.428 147.46 159.902 147.5 160.302 147.58C160.715 147.66 161.115 147.767 161.502 147.9V147.72C161.502 147.08 161.308 146.593 160.922 146.26C160.535 145.927 159.962 145.76 159.202 145.76C158.615 145.76 158.095 145.813 157.642 145.92C157.202 146.013 156.735 146.153 156.242 146.34L155.482 144.02C156.068 143.767 156.682 143.56 157.322 143.4C157.962 143.24 158.735 143.16 159.642 143.16C161.308 143.16 162.522 143.567 163.282 144.38C164.042 145.193 164.422 146.327 164.422 147.78V154ZM161.542 150.22V149.68C161.275 149.56 160.975 149.467 160.642 149.4C160.322 149.32 159.975 149.28 159.602 149.28C158.948 149.28 158.435 149.407 158.062 149.66C157.688 149.913 157.502 150.28 157.502 150.76V150.8C157.502 151.213 157.655 151.533 157.962 151.76C158.268 151.987 158.668 152.1 159.162 152.1C159.882 152.1 160.455 151.927 160.882 151.58C161.322 151.233 161.542 150.78 161.542 150.22ZM176.858 154H173.818V148.02C173.818 147.3 173.658 146.76 173.338 146.4C173.018 146.027 172.564 145.84 171.978 145.84C171.391 145.84 170.924 146.027 170.578 146.4C170.244 146.76 170.078 147.3 170.078 148.02V154H167.038V143.28H170.078V144.8C170.251 144.573 170.438 144.36 170.638 144.16C170.851 143.947 171.084 143.76 171.338 143.6C171.591 143.44 171.871 143.313 172.178 143.22C172.484 143.127 172.831 143.08 173.218 143.08C174.378 143.08 175.271 143.433 175.898 144.14C176.538 144.847 176.858 145.82 176.858 147.06V154ZM190.279 154H187.239V152.46C186.865 152.967 186.412 153.387 185.879 153.72C185.359 154.04 184.699 154.2 183.899 154.2C183.272 154.2 182.665 154.08 182.079 153.84C181.492 153.6 180.972 153.247 180.519 152.78C180.065 152.3 179.699 151.72 179.419 151.04C179.152 150.347 179.019 149.553 179.019 148.66V148.62C179.019 147.727 179.152 146.94 179.419 146.26C179.699 145.567 180.059 144.987 180.499 144.52C180.952 144.04 181.472 143.68 182.059 143.44C182.645 143.2 183.259 143.08 183.899 143.08C184.712 143.08 185.379 143.24 185.899 143.56C186.432 143.88 186.879 144.253 187.239 144.68V139.4H190.279V154ZM187.279 148.66V148.62C187.279 148.18 187.205 147.78 187.059 147.42C186.925 147.047 186.739 146.733 186.499 146.48C186.272 146.213 185.999 146.013 185.679 145.88C185.372 145.733 185.039 145.66 184.679 145.66C184.319 145.66 183.979 145.733 183.659 145.88C183.352 146.013 183.079 146.213 182.839 146.48C182.599 146.733 182.405 147.04 182.259 147.4C182.125 147.76 182.059 148.167 182.059 148.62V148.66C182.059 149.1 182.125 149.507 182.259 149.88C182.405 150.24 182.599 150.553 182.839 150.82C183.079 151.073 183.352 151.273 183.659 151.42C183.979 151.553 184.319 151.62 184.679 151.62C185.039 151.62 185.372 151.553 185.679 151.42C185.999 151.273 186.272 151.073 186.499 150.82C186.739 150.553 186.925 150.24 187.059 149.88C187.205 149.507 187.279 149.1 187.279 148.66ZM209.431 149.86C209.431 150.553 209.304 151.173 209.051 151.72C208.798 152.253 208.444 152.707 207.991 153.08C207.538 153.44 206.998 153.72 206.371 153.92C205.744 154.107 205.051 154.2 204.291 154.2C203.224 154.2 202.178 154.02 201.151 153.66C200.124 153.287 199.191 152.72 198.351 151.96L200.171 149.78C200.811 150.3 201.464 150.713 202.131 151.02C202.811 151.327 203.551 151.48 204.351 151.48C204.991 151.48 205.484 151.367 205.831 151.14C206.191 150.9 206.371 150.573 206.371 150.16V150.12C206.371 149.92 206.331 149.747 206.251 149.6C206.184 149.44 206.044 149.293 205.831 149.16C205.631 149.027 205.344 148.893 204.971 148.76C204.611 148.627 204.138 148.487 203.551 148.34C202.844 148.167 202.204 147.973 201.631 147.76C201.058 147.547 200.571 147.287 200.171 146.98C199.771 146.66 199.458 146.267 199.231 145.8C199.018 145.333 198.911 144.753 198.911 144.06V144.02C198.911 143.38 199.031 142.807 199.271 142.3C199.511 141.78 199.844 141.333 200.271 140.96C200.711 140.587 201.231 140.3 201.831 140.1C202.431 139.9 203.091 139.8 203.811 139.8C204.838 139.8 205.778 139.953 206.631 140.26C207.498 140.567 208.291 141.007 209.011 141.58L207.411 143.9C206.784 143.473 206.171 143.14 205.571 142.9C204.971 142.647 204.371 142.52 203.771 142.52C203.171 142.52 202.718 142.64 202.411 142.88C202.118 143.107 201.971 143.393 201.971 143.74V143.78C201.971 144.007 202.011 144.207 202.091 144.38C202.184 144.54 202.344 144.687 202.571 144.82C202.798 144.953 203.104 145.08 203.491 145.2C203.891 145.32 204.391 145.46 204.991 145.62C205.698 145.807 206.324 146.02 206.871 146.26C207.431 146.487 207.898 146.767 208.271 147.1C208.658 147.42 208.944 147.8 209.131 148.24C209.331 148.68 209.431 149.207 209.431 149.82V149.86ZM221.004 154H218.064V152.84C217.69 153.253 217.244 153.587 216.724 153.84C216.204 154.08 215.57 154.2 214.824 154.2C214.317 154.2 213.837 154.133 213.384 154C212.944 153.853 212.557 153.64 212.224 153.36C211.89 153.08 211.624 152.74 211.424 152.34C211.237 151.927 211.144 151.453 211.144 150.92V150.88C211.144 150.293 211.25 149.787 211.464 149.36C211.677 148.933 211.97 148.58 212.344 148.3C212.73 148.02 213.184 147.813 213.704 147.68C214.237 147.533 214.824 147.46 215.464 147.46C216.01 147.46 216.484 147.5 216.884 147.58C217.297 147.66 217.697 147.767 218.084 147.9V147.72C218.084 147.08 217.89 146.593 217.504 146.26C217.117 145.927 216.544 145.76 215.784 145.76C215.197 145.76 214.677 145.813 214.224 145.92C213.784 146.013 213.317 146.153 212.824 146.34L212.064 144.02C212.65 143.767 213.264 143.56 213.904 143.4C214.544 143.24 215.317 143.16 216.224 143.16C217.89 143.16 219.104 143.567 219.864 144.38C220.624 145.193 221.004 146.327 221.004 147.78V154ZM218.124 150.22V149.68C217.857 149.56 217.557 149.467 217.224 149.4C216.904 149.32 216.557 149.28 216.184 149.28C215.53 149.28 215.017 149.407 214.644 149.66C214.27 149.913 214.084 150.28 214.084 150.76V150.8C214.084 151.213 214.237 151.533 214.544 151.76C214.85 151.987 215.25 152.1 215.744 152.1C216.464 152.1 217.037 151.927 217.464 151.58C217.904 151.233 218.124 150.78 218.124 150.22ZM229.62 142.08C229.393 142 229.173 141.94 228.96 141.9C228.746 141.847 228.506 141.82 228.24 141.82C227.506 141.82 227.14 142.207 227.14 142.98V143.4H229.6V145.88H227.18V154H224.14V145.88H222.88V143.38H224.14V142.7C224.14 141.513 224.42 140.647 224.98 140.1C225.553 139.54 226.38 139.26 227.46 139.26C227.94 139.26 228.346 139.287 228.68 139.34C229.026 139.393 229.34 139.467 229.62 139.56V142.08ZM241.256 148.94C241.256 149.087 241.25 149.213 241.236 149.32C241.236 149.427 241.23 149.553 241.216 149.7H233.756C233.903 150.393 234.203 150.92 234.656 151.28C235.123 151.627 235.696 151.8 236.376 151.8C236.883 151.8 237.336 151.713 237.736 151.54C238.136 151.367 238.55 151.087 238.976 150.7L240.716 152.24C240.21 152.867 239.596 153.36 238.876 153.72C238.156 154.067 237.31 154.24 236.336 154.24C235.536 154.24 234.79 154.107 234.096 153.84C233.416 153.573 232.823 153.193 232.316 152.7C231.823 152.207 231.436 151.627 231.156 150.96C230.876 150.28 230.736 149.527 230.736 148.7V148.66C230.736 147.9 230.863 147.18 231.116 146.5C231.383 145.82 231.75 145.227 232.216 144.72C232.683 144.213 233.236 143.813 233.876 143.52C234.53 143.227 235.25 143.08 236.036 143.08C236.93 143.08 237.703 143.24 238.356 143.56C239.01 143.88 239.55 144.313 239.976 144.86C240.416 145.393 240.736 146.013 240.936 146.72C241.15 147.413 241.256 148.14 241.256 148.9V148.94ZM238.296 147.8C238.203 147.12 237.963 146.573 237.576 146.16C237.19 145.733 236.676 145.52 236.036 145.52C235.396 145.52 234.876 145.727 234.476 146.14C234.09 146.553 233.836 147.107 233.716 147.8H238.296ZM249.542 153.56C249.222 153.747 248.869 153.893 248.482 154C248.095 154.12 247.649 154.18 247.142 154.18C246.675 154.18 246.249 154.127 245.862 154.02C245.489 153.927 245.162 153.753 244.882 153.5C244.615 153.247 244.402 152.92 244.242 152.52C244.095 152.107 244.022 151.587 244.022 150.96V145.88H242.742V143.28H244.022V140.54H247.062V143.28H249.582V145.88H247.062V150.46C247.062 151.153 247.389 151.5 248.042 151.5C248.575 151.5 249.075 151.373 249.542 151.12V153.56ZM262.023 143.28L257.903 154.26C257.703 154.807 257.49 155.267 257.263 155.64C257.036 156.027 256.783 156.34 256.503 156.58C256.236 156.82 255.93 156.993 255.583 157.1C255.236 157.207 254.836 157.26 254.383 157.26C253.823 157.26 253.33 157.193 252.903 157.06C252.476 156.927 252.07 156.747 251.683 156.52L252.703 154.32C252.903 154.44 253.116 154.54 253.343 154.62C253.583 154.7 253.803 154.74 254.003 154.74C254.27 154.74 254.476 154.687 254.623 154.58C254.783 154.487 254.93 154.307 255.063 154.04L250.863 143.28H254.083L256.523 150.58L258.863 143.28H262.023ZM283.771 154H280.551L279.271 150.86H273.351L272.071 154H268.931L274.931 139.9H277.771L283.771 154ZM278.171 148.14L276.311 143.6L274.451 148.14H278.171ZM300.992 143.28L297.652 154.08H294.912L292.852 147.5L290.752 154.08H288.032L284.732 143.28H287.812L289.532 149.78L291.552 143.24H294.172L296.212 149.8L297.972 143.28H300.992ZM312.059 154H309.119V152.84C308.745 153.253 308.299 153.587 307.779 153.84C307.259 154.08 306.625 154.2 305.879 154.2C305.372 154.2 304.892 154.133 304.439 154C303.999 153.853 303.612 153.64 303.279 153.36C302.945 153.08 302.679 152.74 302.479 152.34C302.292 151.927 302.199 151.453 302.199 150.92V150.88C302.199 150.293 302.305 149.787 302.519 149.36C302.732 148.933 303.025 148.58 303.399 148.3C303.785 148.02 304.239 147.813 304.759 147.68C305.292 147.533 305.879 147.46 306.519 147.46C307.065 147.46 307.539 147.5 307.939 147.58C308.352 147.66 308.752 147.767 309.139 147.9V147.72C309.139 147.08 308.945 146.593 308.559 146.26C308.172 145.927 307.599 145.76 306.839 145.76C306.252 145.76 305.732 145.813 305.279 145.92C304.839 146.013 304.372 146.153 303.879 146.34L303.119 144.02C303.705 143.767 304.319 143.56 304.959 143.4C305.599 143.24 306.372 143.16 307.279 143.16C308.945 143.16 310.159 143.567 310.919 144.38C311.679 145.193 312.059 146.327 312.059 147.78V154ZM309.179 150.22V149.68C308.912 149.56 308.612 149.467 308.279 149.4C307.959 149.32 307.612 149.28 307.239 149.28C306.585 149.28 306.072 149.407 305.699 149.66C305.325 149.913 305.139 150.28 305.139 150.76V150.8C305.139 151.213 305.292 151.533 305.599 151.76C305.905 151.987 306.305 152.1 306.799 152.1C307.519 152.1 308.092 151.927 308.519 151.58C308.959 151.233 309.179 150.78 309.179 150.22ZM321.134 146.26H320.974C319.961 146.26 319.161 146.567 318.574 147.18C318.001 147.793 317.714 148.747 317.714 150.04V154H314.674V143.28H317.714V145.44C318.021 144.707 318.441 144.12 318.974 143.68C319.508 143.24 320.228 143.04 321.134 143.08V146.26ZM333.814 154H330.774V152.46C330.4 152.967 329.947 153.387 329.414 153.72C328.894 154.04 328.234 154.2 327.434 154.2C326.807 154.2 326.2 154.08 325.614 153.84C325.027 153.6 324.507 153.247 324.054 152.78C323.6 152.3 323.234 151.72 322.954 151.04C322.687 150.347 322.554 149.553 322.554 148.66V148.62C322.554 147.727 322.687 146.94 322.954 146.26C323.234 145.567 323.594 144.987 324.034 144.52C324.487 144.04 325.007 143.68 325.594 143.44C326.18 143.2 326.794 143.08 327.434 143.08C328.247 143.08 328.914 143.24 329.434 143.56C329.967 143.88 330.414 144.253 330.774 144.68V139.4H333.814V154ZM330.814 148.66V148.62C330.814 148.18 330.74 147.78 330.594 147.42C330.46 147.047 330.274 146.733 330.034 146.48C329.807 146.213 329.534 146.013 329.214 145.88C328.907 145.733 328.574 145.66 328.214 145.66C327.854 145.66 327.514 145.733 327.194 145.88C326.887 146.013 326.614 146.213 326.374 146.48C326.134 146.733 325.94 147.04 325.794 147.4C325.66 147.76 325.594 148.167 325.594 148.62V148.66C325.594 149.1 325.66 149.507 325.794 149.88C325.94 150.24 326.134 150.553 326.374 150.82C326.614 151.073 326.887 151.273 327.194 151.42C327.514 151.553 327.854 151.62 328.214 151.62C328.574 151.62 328.907 151.553 329.214 151.42C329.534 151.273 329.807 151.073 330.034 150.82C330.274 150.553 330.46 150.24 330.594 149.88C330.74 149.507 330.814 149.1 330.814 148.66ZM347.346 142.56C346.799 142.56 346.313 142.713 345.886 143.02C345.473 143.327 345.006 143.8 344.486 144.44L342.326 142.7C342.673 142.233 343.019 141.82 343.366 141.46C343.726 141.1 344.106 140.8 344.506 140.56C344.919 140.307 345.373 140.12 345.866 140C346.359 139.867 346.919 139.8 347.546 139.8C348.293 139.8 348.959 139.907 349.546 140.12C350.146 140.32 350.653 140.613 351.066 141C351.493 141.373 351.813 141.827 352.026 142.36C352.253 142.893 352.366 143.487 352.366 144.14C352.366 144.727 352.286 145.253 352.126 145.72C351.979 146.173 351.753 146.607 351.446 147.02C351.153 147.433 350.773 147.847 350.306 148.26C349.839 148.66 349.299 149.1 348.686 149.58L346.406 151.34H352.506V154H342.146V151.56L346.806 147.74C347.246 147.38 347.619 147.06 347.926 146.78C348.233 146.487 348.479 146.213 348.666 145.96C348.866 145.693 349.006 145.44 349.086 145.2C349.179 144.947 349.226 144.673 349.226 144.38C349.226 143.78 349.053 143.327 348.706 143.02C348.359 142.713 347.906 142.56 347.346 142.56ZM367.147 146.98C367.147 148.007 366.994 148.96 366.687 149.84C366.394 150.72 365.974 151.487 365.427 152.14C364.88 152.793 364.22 153.307 363.447 153.68C362.687 154.053 361.84 154.24 360.907 154.24C359.974 154.24 359.12 154.06 358.347 153.7C357.587 153.327 356.934 152.813 356.387 152.16C355.854 151.507 355.44 150.747 355.147 149.88C354.854 149 354.707 148.047 354.707 147.02C354.707 146.007 354.854 145.06 355.147 144.18C355.454 143.287 355.88 142.513 356.427 141.86C356.974 141.207 357.627 140.693 358.387 140.32C359.16 139.947 360.014 139.76 360.947 139.76C361.88 139.76 362.727 139.947 363.487 140.32C364.26 140.68 364.914 141.187 365.447 141.84C365.994 142.493 366.414 143.26 366.707 144.14C367 145.02 367.147 145.967 367.147 146.98ZM363.987 147.02C363.987 146.38 363.914 145.787 363.767 145.24C363.62 144.693 363.414 144.22 363.147 143.82C362.88 143.42 362.554 143.107 362.167 142.88C361.794 142.653 361.374 142.54 360.907 142.54C360.44 142.54 360.02 142.653 359.647 142.88C359.274 143.093 358.954 143.4 358.687 143.8C358.42 144.187 358.214 144.653 358.067 145.2C357.934 145.747 357.867 146.34 357.867 146.98C357.867 147.62 357.94 148.213 358.087 148.76C358.234 149.307 358.44 149.78 358.707 150.18C358.974 150.58 359.294 150.893 359.667 151.12C360.054 151.347 360.48 151.46 360.947 151.46C361.414 151.46 361.834 151.353 362.207 151.14C362.58 150.913 362.9 150.6 363.167 150.2C363.434 149.8 363.634 149.333 363.767 148.8C363.914 148.253 363.987 147.66 363.987 147.02ZM374.416 142.56C373.87 142.56 373.383 142.713 372.956 143.02C372.543 143.327 372.076 143.8 371.556 144.44L369.396 142.7C369.743 142.233 370.09 141.82 370.436 141.46C370.796 141.1 371.176 140.8 371.576 140.56C371.99 140.307 372.443 140.12 372.936 140C373.43 139.867 373.99 139.8 374.616 139.8C375.363 139.8 376.03 139.907 376.616 140.12C377.216 140.32 377.723 140.613 378.136 141C378.563 141.373 378.883 141.827 379.096 142.36C379.323 142.893 379.436 143.487 379.436 144.14C379.436 144.727 379.356 145.253 379.196 145.72C379.05 146.173 378.823 146.607 378.516 147.02C378.223 147.433 377.843 147.847 377.376 148.26C376.91 148.66 376.37 149.1 375.756 149.58L373.476 151.34H379.576V154H369.216V151.56L373.876 147.74C374.316 147.38 374.69 147.06 374.996 146.78C375.303 146.487 375.55 146.213 375.736 145.96C375.936 145.693 376.076 145.44 376.156 145.2C376.25 144.947 376.296 144.673 376.296 144.38C376.296 143.78 376.123 143.327 375.776 143.02C375.43 142.713 374.976 142.56 374.416 142.56ZM386.877 142.56C386.331 142.56 385.844 142.713 385.417 143.02C385.004 143.327 384.537 143.8 384.017 144.44L381.857 142.7C382.204 142.233 382.551 141.82 382.897 141.46C383.257 141.1 383.637 140.8 384.037 140.56C384.451 140.307 384.904 140.12 385.397 140C385.891 139.867 386.451 139.8 387.077 139.8C387.824 139.8 388.491 139.907 389.077 140.12C389.677 140.32 390.184 140.613 390.597 141C391.024 141.373 391.344 141.827 391.557 142.36C391.784 142.893 391.897 143.487 391.897 144.14C391.897 144.727 391.817 145.253 391.657 145.72C391.511 146.173 391.284 146.607 390.977 147.02C390.684 147.433 390.304 147.847 389.837 148.26C389.371 148.66 388.831 149.1 388.217 149.58L385.937 151.34H392.037V154H381.677V151.56L386.337 147.74C386.777 147.38 387.151 147.06 387.457 146.78C387.764 146.487 388.011 146.213 388.197 145.96C388.397 145.693 388.537 145.44 388.617 145.2C388.711 144.947 388.757 144.673 388.757 144.38C388.757 143.78 388.584 143.327 388.237 143.02C387.891 142.713 387.437 142.56 386.877 142.56Z" fill="#3E3E3E"/>
</svg>
