<svg width="341" height="473" viewBox="0 0 341 473" fill="none" xmlns="http://www.w3.org/2000/svg">
<path d="M49.8886 18.16C49.8886 18.8 49.7619 19.36 49.5086 19.84C49.2686 20.32 48.9153 20.72 48.4486 21.04C47.9953 21.36 47.4419 21.6 46.7886 21.76C46.1486 21.92 45.4353 22 44.6486 22H37.9886V8H44.4886C45.9286 8 47.0553 8.32667 47.8686 8.98C48.6953 9.63333 49.1086 10.5133 49.1086 11.62V11.66C49.1086 12.06 49.0553 12.4133 48.9486 12.72C48.8553 13.0267 48.7219 13.3067 48.5486 13.56C48.3886 13.8 48.1953 14.0133 47.9686 14.2C47.7553 14.3867 47.5219 14.5467 47.2686 14.68C48.0819 14.9867 48.7219 15.4067 49.1886 15.94C49.6553 16.46 49.8886 17.1867 49.8886 18.12V18.16ZM46.0486 12.18V12.14C46.0486 11.6733 45.8753 11.32 45.5286 11.08C45.1819 10.8267 44.6819 10.7 44.0286 10.7H40.9886V13.66H43.8286C44.5086 13.66 45.0486 13.5467 45.4486 13.32C45.8486 13.08 46.0486 12.7 46.0486 12.18ZM46.8286 17.78V17.74C46.8286 17.2733 46.6486 16.9067 46.2886 16.64C45.9286 16.36 45.3486 16.22 44.5486 16.22H40.9886V19.3H44.6486C45.3286 19.3 45.8619 19.18 46.2486 18.94C46.6353 18.6867 46.8286 18.3 46.8286 17.78ZM63.1822 16.66C63.1822 17.4333 63.0355 18.16 62.7422 18.84C62.4489 19.5067 62.0422 20.0933 61.5222 20.6C61.0022 21.1067 60.3889 21.5067 59.6822 21.8C58.9755 22.0933 58.2022 22.24 57.3622 22.24C56.5355 22.24 55.7689 22.1 55.0622 21.82C54.3555 21.5267 53.7422 21.1333 53.2222 20.64C52.7155 20.1333 52.3155 19.5467 52.0222 18.88C51.7289 18.2 51.5822 17.4733 51.5822 16.7V16.66C51.5822 15.8867 51.7289 15.1667 52.0222 14.5C52.3155 13.82 52.7222 13.2267 53.2422 12.72C53.7622 12.2133 54.3755 11.8133 55.0822 11.52C55.7889 11.2267 56.5622 11.08 57.4022 11.08C58.2289 11.08 58.9955 11.2267 59.7022 11.52C60.4089 11.8 61.0155 12.1933 61.5222 12.7C62.0422 13.1933 62.4489 13.78 62.7422 14.46C63.0355 15.1267 63.1822 15.8467 63.1822 16.62V16.66ZM60.1822 16.7V16.66C60.1822 16.26 60.1155 15.8867 59.9822 15.54C59.8489 15.18 59.6555 14.8667 59.4022 14.6C59.1489 14.32 58.8489 14.1 58.5022 13.94C58.1555 13.78 57.7755 13.7 57.3622 13.7C56.9222 13.7 56.5289 13.78 56.1822 13.94C55.8489 14.0867 55.5622 14.2933 55.3222 14.56C55.0822 14.8267 54.8955 15.14 54.7622 15.5C54.6422 15.8467 54.5822 16.22 54.5822 16.62V16.66C54.5822 17.06 54.6489 17.44 54.7822 17.8C54.9155 18.1467 55.1089 18.46 55.3622 18.74C55.6155 19.0067 55.9089 19.22 56.2422 19.38C56.5889 19.54 56.9755 19.62 57.4022 19.62C57.8422 19.62 58.2289 19.5467 58.5622 19.4C58.9089 19.24 59.2022 19.0267 59.4422 18.76C59.6822 18.4933 59.8622 18.1867 59.9822 17.84C60.1155 17.48 60.1822 17.1 60.1822 16.7ZM74.6034 22H71.6634V20.84C71.2901 21.2533 70.8434 21.5867 70.3234 21.84C69.8034 22.08 69.1701 22.2 68.4234 22.2C67.9168 22.2 67.4368 22.1333 66.9834 22C66.5434 21.8533 66.1568 21.64 65.8234 21.36C65.4901 21.08 65.2234 20.74 65.0234 20.34C64.8368 19.9267 64.7434 19.4533 64.7434 18.92V18.88C64.7434 18.2933 64.8501 17.7867 65.0634 17.36C65.2768 16.9333 65.5701 16.58 65.9434 16.3C66.3301 16.02 66.7834 15.8133 67.3034 15.68C67.8368 15.5333 68.4234 15.46 69.0634 15.46C69.6101 15.46 70.0834 15.5 70.4834 15.58C70.8968 15.66 71.2968 15.7667 71.6834 15.9V15.72C71.6834 15.08 71.4901 14.5933 71.1034 14.26C70.7168 13.9267 70.1434 13.76 69.3834 13.76C68.7968 13.76 68.2768 13.8133 67.8234 13.92C67.3834 14.0133 66.9168 14.1533 66.4234 14.34L65.6634 12.02C66.2501 11.7667 66.8634 11.56 67.5034 11.4C68.1434 11.24 68.9168 11.16 69.8234 11.16C71.4901 11.16 72.7034 11.5667 73.4634 12.38C74.2234 13.1933 74.6034 14.3267 74.6034 15.78V22ZM71.7234 18.22V17.68C71.4568 17.56 71.1568 17.4667 70.8234 17.4C70.5034 17.32 70.1568 17.28 69.7834 17.28C69.1301 17.28 68.6168 17.4067 68.2434 17.66C67.8701 17.9133 67.6834 18.28 67.6834 18.76V18.8C67.6834 19.2133 67.8368 19.5333 68.1434 19.76C68.4501 19.9867 68.8501 20.1 69.3434 20.1C70.0634 20.1 70.6368 19.9267 71.0634 19.58C71.5034 19.2333 71.7234 18.78 71.7234 18.22ZM83.6794 14.26H83.5194C82.506 14.26 81.706 14.5667 81.1194 15.18C80.546 15.7933 80.2594 16.7467 80.2594 18.04V22H77.2194V11.28H80.2594V13.44C80.566 12.7067 80.986 12.12 81.5194 11.68C82.0527 11.24 82.7727 11.04 83.6794 11.08V14.26ZM96.3588 22H93.3188V20.46C92.9454 20.9667 92.4921 21.3867 91.9588 21.72C91.4388 22.04 90.7788 22.2 89.9788 22.2C89.3521 22.2 88.7454 22.08 88.1588 21.84C87.5721 21.6 87.0521 21.2467 86.5988 20.78C86.1454 20.3 85.7788 19.72 85.4988 19.04C85.2321 18.3467 85.0988 17.5533 85.0988 16.66V16.62C85.0988 15.7267 85.2321 14.94 85.4988 14.26C85.7788 13.5667 86.1388 12.9867 86.5788 12.52C87.0321 12.04 87.5521 11.68 88.1388 11.44C88.7254 11.2 89.3388 11.08 89.9788 11.08C90.7921 11.08 91.4588 11.24 91.9788 11.56C92.5121 11.88 92.9588 12.2533 93.3188 12.68V7.4H96.3588V22ZM93.3588 16.66V16.62C93.3588 16.18 93.2854 15.78 93.1388 15.42C93.0054 15.0467 92.8188 14.7333 92.5788 14.48C92.3521 14.2133 92.0788 14.0133 91.7588 13.88C91.4521 13.7333 91.1188 13.66 90.7588 13.66C90.3988 13.66 90.0588 13.7333 89.7388 13.88C89.4321 14.0133 89.1588 14.2133 88.9188 14.48C88.6788 14.7333 88.4854 15.04 88.3388 15.4C88.2054 15.76 88.1388 16.1667 88.1388 16.62V16.66C88.1388 17.1 88.2054 17.5067 88.3388 17.88C88.4854 18.24 88.6788 18.5533 88.9188 18.82C89.1588 19.0733 89.4321 19.2733 89.7388 19.42C90.0588 19.5533 90.3988 19.62 90.7588 19.62C91.1188 19.62 91.4521 19.5533 91.7588 19.42C92.0788 19.2733 92.3521 19.0733 92.5788 18.82C92.8188 18.5533 93.0054 18.24 93.1388 17.88C93.2854 17.5067 93.3588 17.1 93.3588 16.66ZM117.691 19.74C117.331 20.1267 116.958 20.4733 116.571 20.78C116.184 21.0867 115.758 21.3533 115.291 21.58C114.838 21.7933 114.338 21.9533 113.791 22.06C113.244 22.18 112.631 22.24 111.951 22.24C110.924 22.24 109.971 22.0533 109.091 21.68C108.211 21.3067 107.451 20.8 106.811 20.16C106.171 19.5067 105.671 18.74 105.311 17.86C104.951 16.98 104.771 16.04 104.771 15.04V15C104.771 14 104.951 13.0667 105.311 12.2C105.671 11.32 106.171 10.5533 106.811 9.9C107.451 9.23333 108.218 8.71333 109.111 8.34C110.004 7.95333 110.991 7.76 112.071 7.76C112.724 7.76 113.318 7.81333 113.851 7.92C114.398 8.02667 114.891 8.17333 115.331 8.36C115.771 8.54667 116.178 8.77333 116.551 9.04C116.924 9.30667 117.271 9.6 117.591 9.92L115.631 12.18C115.084 11.6867 114.524 11.3 113.951 11.02C113.391 10.74 112.758 10.6 112.051 10.6C111.464 10.6 110.918 10.7133 110.411 10.94C109.918 11.1667 109.491 11.48 109.131 11.88C108.771 12.28 108.491 12.7467 108.291 13.28C108.091 13.8 107.991 14.36 107.991 14.96V15C107.991 15.6 108.091 16.1667 108.291 16.7C108.491 17.2333 108.764 17.7 109.111 18.1C109.471 18.5 109.898 18.82 110.391 19.06C110.898 19.2867 111.451 19.4 112.051 19.4C112.851 19.4 113.524 19.2533 114.071 18.96C114.631 18.6667 115.184 18.2667 115.731 17.76L117.691 19.74ZM130.917 16.66C130.917 17.4333 130.77 18.16 130.477 18.84C130.183 19.5067 129.777 20.0933 129.257 20.6C128.737 21.1067 128.123 21.5067 127.417 21.8C126.71 22.0933 125.937 22.24 125.097 22.24C124.27 22.24 123.503 22.1 122.797 21.82C122.09 21.5267 121.477 21.1333 120.957 20.64C120.45 20.1333 120.05 19.5467 119.757 18.88C119.463 18.2 119.317 17.4733 119.317 16.7V16.66C119.317 15.8867 119.463 15.1667 119.757 14.5C120.05 13.82 120.457 13.2267 120.977 12.72C121.497 12.2133 122.11 11.8133 122.817 11.52C123.523 11.2267 124.297 11.08 125.137 11.08C125.963 11.08 126.73 11.2267 127.437 11.52C128.143 11.8 128.75 12.1933 129.257 12.7C129.777 13.1933 130.183 13.78 130.477 14.46C130.77 15.1267 130.917 15.8467 130.917 16.62V16.66ZM127.917 16.7V16.66C127.917 16.26 127.85 15.8867 127.717 15.54C127.583 15.18 127.39 14.8667 127.137 14.6C126.883 14.32 126.583 14.1 126.237 13.94C125.89 13.78 125.51 13.7 125.097 13.7C124.657 13.7 124.263 13.78 123.917 13.94C123.583 14.0867 123.297 14.2933 123.057 14.56C122.817 14.8267 122.63 15.14 122.497 15.5C122.377 15.8467 122.317 16.22 122.317 16.62V16.66C122.317 17.06 122.383 17.44 122.517 17.8C122.65 18.1467 122.843 18.46 123.097 18.74C123.35 19.0067 123.643 19.22 123.977 19.38C124.323 19.54 124.71 19.62 125.137 19.62C125.577 19.62 125.963 19.5467 126.297 19.4C126.643 19.24 126.937 19.0267 127.177 18.76C127.417 18.4933 127.597 18.1867 127.717 17.84C127.85 17.48 127.917 17.1 127.917 16.7ZM149.478 22H146.438V16.02C146.438 15.3 146.284 14.76 145.978 14.4C145.671 14.0267 145.231 13.84 144.658 13.84C144.084 13.84 143.631 14.0267 143.298 14.4C142.978 14.76 142.818 15.3 142.818 16.02V22H139.778V16.02C139.778 15.3 139.624 14.76 139.318 14.4C139.011 14.0267 138.571 13.84 137.998 13.84C137.424 13.84 136.971 14.0267 136.638 14.4C136.318 14.76 136.158 15.3 136.158 16.02V22H133.118V11.28H136.158V12.8C136.331 12.5733 136.518 12.36 136.718 12.16C136.931 11.9467 137.164 11.76 137.418 11.6C137.671 11.44 137.951 11.3133 138.258 11.22C138.578 11.1267 138.931 11.08 139.318 11.08C140.024 11.08 140.631 11.2267 141.138 11.52C141.658 11.8133 142.058 12.2333 142.338 12.78C142.804 12.22 143.324 11.8 143.898 11.52C144.471 11.2267 145.124 11.08 145.858 11.08C146.991 11.08 147.878 11.4133 148.518 12.08C149.158 12.7467 149.478 13.7267 149.478 15.02V22ZM163.382 16.66C163.382 17.5533 163.242 18.3467 162.962 19.04C162.695 19.72 162.335 20.3 161.882 20.78C161.442 21.2467 160.928 21.6 160.342 21.84C159.755 22.08 159.142 22.2 158.502 22.2C157.688 22.2 157.015 22.04 156.482 21.72C155.962 21.4 155.522 21.0267 155.162 20.6V25.2H152.122V11.28H155.162V12.82C155.535 12.3133 155.982 11.9 156.502 11.58C157.035 11.2467 157.702 11.08 158.502 11.08C159.128 11.08 159.735 11.2 160.322 11.44C160.908 11.68 161.428 12.04 161.882 12.52C162.335 12.9867 162.695 13.5667 162.962 14.26C163.242 14.94 163.382 15.7267 163.382 16.62V16.66ZM160.342 16.66V16.62C160.342 16.18 160.268 15.78 160.122 15.42C159.988 15.0467 159.802 14.7333 159.562 14.48C159.322 14.2133 159.042 14.0133 158.722 13.88C158.415 13.7333 158.082 13.66 157.722 13.66C157.362 13.66 157.022 13.7333 156.702 13.88C156.395 14.0133 156.122 14.2133 155.882 14.48C155.655 14.7333 155.468 15.0467 155.322 15.42C155.188 15.78 155.122 16.18 155.122 16.62V16.66C155.122 17.1 155.188 17.5067 155.322 17.88C155.468 18.24 155.655 18.5533 155.882 18.82C156.122 19.0733 156.395 19.2733 156.702 19.42C157.022 19.5533 157.362 19.62 157.722 19.62C158.082 19.62 158.415 19.5533 158.722 19.42C159.042 19.2733 159.322 19.0733 159.562 18.82C159.802 18.5533 159.988 18.24 160.122 17.88C160.268 17.52 160.342 17.1133 160.342 16.66ZM176.698 16.66C176.698 17.4333 176.551 18.16 176.258 18.84C175.964 19.5067 175.558 20.0933 175.038 20.6C174.518 21.1067 173.904 21.5067 173.198 21.8C172.491 22.0933 171.718 22.24 170.878 22.24C170.051 22.24 169.284 22.1 168.578 21.82C167.871 21.5267 167.258 21.1333 166.738 20.64C166.231 20.1333 165.831 19.5467 165.538 18.88C165.244 18.2 165.098 17.4733 165.098 16.7V16.66C165.098 15.8867 165.244 15.1667 165.538 14.5C165.831 13.82 166.238 13.2267 166.758 12.72C167.278 12.2133 167.891 11.8133 168.598 11.52C169.304 11.2267 170.078 11.08 170.918 11.08C171.744 11.08 172.511 11.2267 173.218 11.52C173.924 11.8 174.531 12.1933 175.038 12.7C175.558 13.1933 175.964 13.78 176.258 14.46C176.551 15.1267 176.698 15.8467 176.698 16.62V16.66ZM173.698 16.7V16.66C173.698 16.26 173.631 15.8867 173.498 15.54C173.364 15.18 173.171 14.8667 172.918 14.6C172.664 14.32 172.364 14.1 172.018 13.94C171.671 13.78 171.291 13.7 170.878 13.7C170.438 13.7 170.044 13.78 169.698 13.94C169.364 14.0867 169.078 14.2933 168.838 14.56C168.598 14.8267 168.411 15.14 168.278 15.5C168.158 15.8467 168.098 16.22 168.098 16.62V16.66C168.098 17.06 168.164 17.44 168.298 17.8C168.431 18.1467 168.624 18.46 168.878 18.74C169.131 19.0067 169.424 19.22 169.758 19.38C170.104 19.54 170.491 19.62 170.918 19.62C171.358 19.62 171.744 19.5467 172.078 19.4C172.424 19.24 172.718 19.0267 172.958 18.76C173.198 18.4933 173.378 18.1867 173.498 17.84C173.631 17.48 173.698 17.1 173.698 16.7ZM186.759 18.74C186.759 19.34 186.652 19.86 186.439 20.3C186.239 20.7267 185.952 21.08 185.579 21.36C185.206 21.64 184.766 21.8533 184.259 22C183.766 22.1333 183.232 22.2 182.659 22.2C181.899 22.2 181.119 22.0733 180.319 21.82C179.532 21.5533 178.779 21.14 178.059 20.58L179.359 18.58C179.946 19.0067 180.526 19.3267 181.099 19.54C181.686 19.7533 182.232 19.86 182.739 19.86C183.179 19.86 183.499 19.7867 183.699 19.64C183.912 19.4933 184.019 19.3 184.019 19.06V19.02C184.019 18.86 183.959 18.72 183.839 18.6C183.719 18.48 183.552 18.38 183.339 18.3C183.139 18.2067 182.906 18.12 182.639 18.04C182.372 17.96 182.092 17.8733 181.799 17.78C181.426 17.6733 181.046 17.5467 180.659 17.4C180.286 17.24 179.946 17.04 179.639 16.8C179.332 16.5467 179.079 16.24 178.879 15.88C178.692 15.52 178.599 15.08 178.599 14.56V14.52C178.599 13.9733 178.699 13.4933 178.899 13.08C179.112 12.6533 179.392 12.2933 179.739 12C180.099 11.7067 180.512 11.4867 180.979 11.34C181.459 11.1933 181.972 11.12 182.519 11.12C183.199 11.12 183.886 11.2333 184.579 11.46C185.286 11.6733 185.932 11.9733 186.519 12.36L185.359 14.46C184.826 14.1533 184.306 13.9133 183.799 13.74C183.292 13.5533 182.846 13.46 182.459 13.46C182.086 13.46 181.806 13.5333 181.619 13.68C181.432 13.8133 181.339 13.9867 181.339 14.2V14.24C181.339 14.3867 181.399 14.52 181.519 14.64C181.639 14.7467 181.799 14.8533 181.999 14.96C182.199 15.0533 182.426 15.1467 182.679 15.24C182.946 15.3333 183.226 15.4267 183.519 15.52C183.892 15.64 184.272 15.7867 184.659 15.96C185.046 16.12 185.392 16.32 185.699 16.56C186.006 16.8 186.259 17.0933 186.459 17.44C186.659 17.7867 186.759 18.2067 186.759 18.7V18.74ZM192.198 10.1H188.998V7.4H192.198V10.1ZM192.118 22H189.078V11.28H192.118V22ZM200.993 21.56C200.673 21.7467 200.32 21.8933 199.933 22C199.547 22.12 199.1 22.18 198.593 22.18C198.127 22.18 197.7 22.1267 197.313 22.02C196.94 21.9267 196.613 21.7533 196.333 21.5C196.067 21.2467 195.853 20.92 195.693 20.52C195.547 20.1067 195.473 19.5867 195.473 18.96V13.88H194.193V11.28H195.473V8.54H198.513V11.28H201.033V13.88H198.513V18.46C198.513 19.1533 198.84 19.5 199.493 19.5C200.027 19.5 200.527 19.3733 200.993 19.12V21.56ZM206.534 10.1H203.334V7.4H206.534V10.1ZM206.454 22H203.414V11.28H206.454V22ZM220.389 16.66C220.389 17.4333 220.243 18.16 219.949 18.84C219.656 19.5067 219.249 20.0933 218.729 20.6C218.209 21.1067 217.596 21.5067 216.889 21.8C216.183 22.0933 215.409 22.24 214.569 22.24C213.743 22.24 212.976 22.1 212.269 21.82C211.563 21.5267 210.949 21.1333 210.429 20.64C209.923 20.1333 209.523 19.5467 209.229 18.88C208.936 18.2 208.789 17.4733 208.789 16.7V16.66C208.789 15.8867 208.936 15.1667 209.229 14.5C209.523 13.82 209.929 13.2267 210.449 12.72C210.969 12.2133 211.583 11.8133 212.289 11.52C212.996 11.2267 213.769 11.08 214.609 11.08C215.436 11.08 216.203 11.2267 216.909 11.52C217.616 11.8 218.223 12.1933 218.729 12.7C219.249 13.1933 219.656 13.78 219.949 14.46C220.243 15.1267 220.389 15.8467 220.389 16.62V16.66ZM217.389 16.7V16.66C217.389 16.26 217.323 15.8867 217.189 15.54C217.056 15.18 216.863 14.8667 216.609 14.6C216.356 14.32 216.056 14.1 215.709 13.94C215.363 13.78 214.983 13.7 214.569 13.7C214.129 13.7 213.736 13.78 213.389 13.94C213.056 14.0867 212.769 14.2933 212.529 14.56C212.289 14.8267 212.103 15.14 211.969 15.5C211.849 15.8467 211.789 16.22 211.789 16.62V16.66C211.789 17.06 211.856 17.44 211.989 17.8C212.123 18.1467 212.316 18.46 212.569 18.74C212.823 19.0067 213.116 19.22 213.449 19.38C213.796 19.54 214.183 19.62 214.609 19.62C215.049 19.62 215.436 19.5467 215.769 19.4C216.116 19.24 216.409 19.0267 216.649 18.76C216.889 18.4933 217.069 18.1867 217.189 17.84C217.323 17.48 217.389 17.1 217.389 16.7ZM232.41 22H229.37V16.02C229.37 15.3 229.21 14.76 228.89 14.4C228.57 14.0267 228.117 13.84 227.53 13.84C226.944 13.84 226.477 14.0267 226.13 14.4C225.797 14.76 225.63 15.3 225.63 16.02V22H222.59V11.28H225.63V12.8C225.804 12.5733 225.99 12.36 226.19 12.16C226.404 11.9467 226.637 11.76 226.89 11.6C227.144 11.44 227.424 11.3133 227.73 11.22C228.037 11.1267 228.384 11.08 228.77 11.08C229.93 11.08 230.824 11.4333 231.45 12.14C232.09 12.8467 232.41 13.82 232.41 15.06V22Z" fill="#2A5F8F"/>
<path d="M85.7038 76.8H86.9678V88H85.7038V76.8ZM91.2721 83.264V88H90.0401V79.728H91.2721V81.168C91.5494 80.72 91.9121 80.3413 92.3601 80.032C92.8081 79.712 93.3894 79.552 94.1041 79.552C94.6054 79.552 95.0481 79.632 95.4321 79.792C95.8267 79.952 96.1574 80.1813 96.4241 80.48C96.7014 80.768 96.9094 81.1147 97.0481 81.52C97.1974 81.9253 97.2721 82.3733 97.2721 82.864V88H96.0401V83.168C96.0401 82.4 95.8427 81.792 95.4481 81.344C95.0534 80.896 94.4881 80.672 93.7521 80.672C93.4001 80.672 93.0694 80.736 92.7601 80.864C92.4614 80.9813 92.2001 81.1573 91.9761 81.392C91.7521 81.616 91.5761 81.888 91.4481 82.208C91.3307 82.528 91.2721 82.88 91.2721 83.264ZM107.771 88H106.539V86.336C106.369 86.5813 106.177 86.816 105.963 87.04C105.761 87.264 105.531 87.4613 105.275 87.632C105.019 87.8027 104.731 87.936 104.411 88.032C104.102 88.128 103.755 88.176 103.371 88.176C102.87 88.176 102.385 88.08 101.915 87.888C101.446 87.696 101.025 87.4187 100.651 87.056C100.278 86.6827 99.9794 86.2293 99.7554 85.696C99.5314 85.1627 99.4194 84.5547 99.4194 83.872C99.4194 83.1893 99.5314 82.5813 99.7554 82.048C99.9794 81.5147 100.278 81.0667 100.651 80.704C101.025 80.3307 101.446 80.048 101.915 79.856C102.385 79.6533 102.87 79.552 103.371 79.552C103.755 79.552 104.107 79.6 104.427 79.696C104.747 79.792 105.035 79.92 105.291 80.08C105.547 80.24 105.777 80.4267 105.979 80.64C106.193 80.8533 106.379 81.0773 106.539 81.312V76.32H107.771V88ZM106.587 83.856C106.587 83.376 106.502 82.9387 106.331 82.544C106.171 82.1493 105.947 81.8133 105.659 81.536C105.382 81.2587 105.062 81.0453 104.699 80.896C104.347 80.736 103.979 80.656 103.595 80.656C103.19 80.656 102.811 80.7307 102.459 80.88C102.107 81.0187 101.798 81.2267 101.531 81.504C101.275 81.7707 101.067 82.1067 100.907 82.512C100.758 82.9067 100.683 83.3547 100.683 83.856C100.683 84.3467 100.758 84.7893 100.907 85.184C101.067 85.5787 101.281 85.92 101.547 86.208C101.814 86.4853 102.123 86.6987 102.475 86.848C102.827 86.9973 103.201 87.072 103.595 87.072C103.979 87.072 104.347 86.9973 104.699 86.848C105.062 86.688 105.382 86.4693 105.659 86.192C105.947 85.9147 106.171 85.5787 106.331 85.184C106.502 84.7787 106.587 84.336 106.587 83.856ZM111.26 84.32C111.303 84.768 111.41 85.168 111.58 85.52C111.751 85.8613 111.97 86.1547 112.236 86.4C112.503 86.6347 112.802 86.816 113.132 86.944C113.463 87.0613 113.81 87.12 114.172 87.12C114.748 87.12 115.239 87.0133 115.644 86.8C116.06 86.5867 116.439 86.304 116.78 85.952L117.548 86.64C117.132 87.1093 116.658 87.488 116.124 87.776C115.591 88.0533 114.93 88.192 114.14 88.192C113.575 88.192 113.042 88.0907 112.54 87.888C112.039 87.6747 111.602 87.3813 111.228 87.008C110.855 86.624 110.556 86.1653 110.332 85.632C110.119 85.0987 110.012 84.512 110.012 83.872C110.012 83.2747 110.108 82.7147 110.3 82.192C110.503 81.6587 110.78 81.2 111.132 80.816C111.484 80.4213 111.9 80.112 112.38 79.888C112.871 79.664 113.404 79.552 113.98 79.552C114.588 79.552 115.132 79.6693 115.612 79.904C116.092 80.128 116.498 80.4373 116.828 80.832C117.159 81.2267 117.41 81.6907 117.58 82.224C117.751 82.7573 117.836 83.328 117.836 83.936C117.836 83.9893 117.836 84.048 117.836 84.112C117.836 84.176 117.831 84.2453 117.82 84.32H111.26ZM111.26 83.408H116.588C116.556 83.0347 116.476 82.6773 116.348 82.336C116.231 81.9947 116.06 81.696 115.836 81.44C115.623 81.184 115.356 80.9813 115.036 80.832C114.727 80.672 114.364 80.592 113.948 80.592C113.586 80.592 113.25 80.6667 112.94 80.816C112.631 80.9547 112.359 81.152 112.124 81.408C111.89 81.6533 111.698 81.9467 111.548 82.288C111.399 82.6293 111.303 83.0027 111.26 83.408ZM128.345 83.856C128.345 84.5387 128.233 85.1467 128.009 85.68C127.785 86.2133 127.487 86.6667 127.113 87.04C126.751 87.4027 126.329 87.6853 125.849 87.888C125.38 88.08 124.895 88.176 124.393 88.176C124.009 88.176 123.657 88.128 123.337 88.032C123.017 87.936 122.729 87.808 122.473 87.648C122.217 87.488 121.983 87.3013 121.769 87.088C121.567 86.8747 121.385 86.6507 121.225 86.416V90.56H119.993V79.728H121.225V81.392C121.396 81.1467 121.583 80.912 121.785 80.688C121.999 80.464 122.233 80.272 122.489 80.112C122.745 79.9413 123.028 79.808 123.337 79.712C123.657 79.6053 124.009 79.552 124.393 79.552C124.884 79.552 125.364 79.648 125.833 79.84C126.313 80.032 126.74 80.3147 127.113 80.688C127.487 81.0507 127.785 81.4987 128.009 82.032C128.233 82.5653 128.345 83.1733 128.345 83.856ZM127.081 83.872C127.081 83.3813 127.001 82.9387 126.841 82.544C126.692 82.1493 126.484 81.8133 126.217 81.536C125.951 81.248 125.641 81.0293 125.289 80.88C124.937 80.7307 124.564 80.656 124.169 80.656C123.785 80.656 123.412 80.736 123.049 80.896C122.697 81.0453 122.377 81.2587 122.089 81.536C121.812 81.8133 121.588 82.1493 121.417 82.544C121.257 82.9387 121.177 83.376 121.177 83.856C121.177 84.336 121.257 84.7787 121.417 85.184C121.588 85.5787 121.812 85.9147 122.089 86.192C122.377 86.4693 122.697 86.688 123.049 86.848C123.412 86.9973 123.785 87.072 124.169 87.072C124.564 87.072 124.937 87.0027 125.289 86.864C125.652 86.7147 125.961 86.5067 126.217 86.24C126.484 85.9627 126.692 85.6267 126.841 85.232C127.001 84.8267 127.081 84.3733 127.081 83.872ZM131.354 84.32C131.397 84.768 131.504 85.168 131.674 85.52C131.845 85.8613 132.064 86.1547 132.33 86.4C132.597 86.6347 132.896 86.816 133.226 86.944C133.557 87.0613 133.904 87.12 134.266 87.12C134.842 87.12 135.333 87.0133 135.738 86.8C136.154 86.5867 136.533 86.304 136.874 85.952L137.642 86.64C137.226 87.1093 136.752 87.488 136.218 87.776C135.685 88.0533 135.024 88.192 134.234 88.192C133.669 88.192 133.136 88.0907 132.634 87.888C132.133 87.6747 131.696 87.3813 131.322 87.008C130.949 86.624 130.65 86.1653 130.426 85.632C130.213 85.0987 130.106 84.512 130.106 83.872C130.106 83.2747 130.202 82.7147 130.394 82.192C130.597 81.6587 130.874 81.2 131.226 80.816C131.578 80.4213 131.994 80.112 132.474 79.888C132.965 79.664 133.498 79.552 134.074 79.552C134.682 79.552 135.226 79.6693 135.706 79.904C136.186 80.128 136.592 80.4373 136.922 80.832C137.253 81.2267 137.504 81.6907 137.674 82.224C137.845 82.7573 137.93 83.328 137.93 83.936C137.93 83.9893 137.93 84.048 137.93 84.112C137.93 84.176 137.925 84.2453 137.914 84.32H131.354ZM131.354 83.408H136.682C136.65 83.0347 136.57 82.6773 136.442 82.336C136.325 81.9947 136.154 81.696 135.93 81.44C135.717 81.184 135.45 80.9813 135.13 80.832C134.821 80.672 134.458 80.592 134.042 80.592C133.68 80.592 133.344 80.6667 133.034 80.816C132.725 80.9547 132.453 81.152 132.218 81.408C131.984 81.6533 131.792 81.9467 131.642 82.288C131.493 82.6293 131.397 83.0027 131.354 83.408ZM141.319 83.264V88H140.087V79.728H141.319V81.168C141.596 80.72 141.959 80.3413 142.407 80.032C142.855 79.712 143.436 79.552 144.151 79.552C144.652 79.552 145.095 79.632 145.479 79.792C145.874 79.952 146.204 80.1813 146.471 80.48C146.748 80.768 146.956 81.1147 147.095 81.52C147.244 81.9253 147.319 82.3733 147.319 82.864V88H146.087V83.168C146.087 82.4 145.89 81.792 145.495 81.344C145.1 80.896 144.535 80.672 143.799 80.672C143.447 80.672 143.116 80.736 142.807 80.864C142.508 80.9813 142.247 81.1573 142.023 81.392C141.799 81.616 141.623 81.888 141.495 82.208C141.378 82.528 141.319 82.88 141.319 83.264ZM157.818 88H156.586V86.336C156.416 86.5813 156.224 86.816 156.01 87.04C155.808 87.264 155.578 87.4613 155.322 87.632C155.066 87.8027 154.778 87.936 154.458 88.032C154.149 88.128 153.802 88.176 153.418 88.176C152.917 88.176 152.432 88.08 151.962 87.888C151.493 87.696 151.072 87.4187 150.698 87.056C150.325 86.6827 150.026 86.2293 149.802 85.696C149.578 85.1627 149.466 84.5547 149.466 83.872C149.466 83.1893 149.578 82.5813 149.802 82.048C150.026 81.5147 150.325 81.0667 150.698 80.704C151.072 80.3307 151.493 80.048 151.962 79.856C152.432 79.6533 152.917 79.552 153.418 79.552C153.802 79.552 154.154 79.6 154.474 79.696C154.794 79.792 155.082 79.92 155.338 80.08C155.594 80.24 155.824 80.4267 156.026 80.64C156.24 80.8533 156.426 81.0773 156.586 81.312V76.32H157.818V88ZM156.634 83.856C156.634 83.376 156.549 82.9387 156.378 82.544C156.218 82.1493 155.994 81.8133 155.706 81.536C155.429 81.2587 155.109 81.0453 154.746 80.896C154.394 80.736 154.026 80.656 153.642 80.656C153.237 80.656 152.858 80.7307 152.506 80.88C152.154 81.0187 151.845 81.2267 151.578 81.504C151.322 81.7707 151.114 82.1067 150.954 82.512C150.805 82.9067 150.73 83.3547 150.73 83.856C150.73 84.3467 150.805 84.7893 150.954 85.184C151.114 85.5787 151.328 85.92 151.594 86.208C151.861 86.4853 152.17 86.6987 152.522 86.848C152.874 86.9973 153.248 87.072 153.642 87.072C154.026 87.072 154.394 86.9973 154.746 86.848C155.109 86.688 155.429 86.4693 155.706 86.192C155.994 85.9147 156.218 85.5787 156.378 85.184C156.549 84.7787 156.634 84.336 156.634 83.856ZM161.307 84.32C161.35 84.768 161.457 85.168 161.627 85.52C161.798 85.8613 162.017 86.1547 162.283 86.4C162.55 86.6347 162.849 86.816 163.179 86.944C163.51 87.0613 163.857 87.12 164.219 87.12C164.795 87.12 165.286 87.0133 165.691 86.8C166.107 86.5867 166.486 86.304 166.827 85.952L167.595 86.64C167.179 87.1093 166.705 87.488 166.171 87.776C165.638 88.0533 164.977 88.192 164.187 88.192C163.622 88.192 163.089 88.0907 162.587 87.888C162.086 87.6747 161.649 87.3813 161.275 87.008C160.902 86.624 160.603 86.1653 160.379 85.632C160.166 85.0987 160.059 84.512 160.059 83.872C160.059 83.2747 160.155 82.7147 160.347 82.192C160.55 81.6587 160.827 81.2 161.179 80.816C161.531 80.4213 161.947 80.112 162.427 79.888C162.918 79.664 163.451 79.552 164.027 79.552C164.635 79.552 165.179 79.6693 165.659 79.904C166.139 80.128 166.545 80.4373 166.875 80.832C167.206 81.2267 167.457 81.6907 167.627 82.224C167.798 82.7573 167.883 83.328 167.883 83.936C167.883 83.9893 167.883 84.048 167.883 84.112C167.883 84.176 167.878 84.2453 167.867 84.32H161.307ZM161.307 83.408H166.635C166.603 83.0347 166.523 82.6773 166.395 82.336C166.278 81.9947 166.107 81.696 165.883 81.44C165.67 81.184 165.403 80.9813 165.083 80.832C164.774 80.672 164.411 80.592 163.995 80.592C163.633 80.592 163.297 80.6667 162.987 80.816C162.678 80.9547 162.406 81.152 162.171 81.408C161.937 81.6533 161.745 81.9467 161.595 82.288C161.446 82.6293 161.35 83.0027 161.307 83.408ZM171.272 83.264V88H170.04V79.728H171.272V81.168C171.549 80.72 171.912 80.3413 172.36 80.032C172.808 79.712 173.389 79.552 174.104 79.552C174.605 79.552 175.048 79.632 175.432 79.792C175.827 79.952 176.157 80.1813 176.424 80.48C176.701 80.768 176.909 81.1147 177.048 81.52C177.197 81.9253 177.272 82.3733 177.272 82.864V88H176.04V83.168C176.04 82.4 175.843 81.792 175.448 81.344C175.053 80.896 174.488 80.672 173.752 80.672C173.4 80.672 173.069 80.736 172.76 80.864C172.461 80.9813 172.2 81.1573 171.976 81.392C171.752 81.616 171.576 81.888 171.448 82.208C171.331 82.528 171.272 82.88 171.272 83.264ZM181.563 80.816V85.648C181.563 86.16 181.691 86.5173 181.947 86.72C182.203 86.9227 182.539 87.024 182.955 87.024C183.169 87.024 183.366 87.0027 183.547 86.96C183.739 86.9173 183.942 86.8427 184.155 86.736V87.792C183.942 87.9093 183.713 87.9947 183.467 88.048C183.233 88.112 182.966 88.144 182.667 88.144C182.337 88.144 182.027 88.1013 181.739 88.016C181.451 87.9307 181.201 87.7973 180.987 87.616C180.785 87.424 180.625 87.1787 180.507 86.88C180.39 86.5813 180.331 86.224 180.331 85.808V80.816H179.179V79.728H180.331V77.232H181.563V79.728H184.187V80.816H181.563ZM109.682 106.384C109.682 107.173 109.538 107.915 109.25 108.608C108.962 109.291 108.551 109.883 108.018 110.384C107.495 110.885 106.866 111.28 106.13 111.568C105.404 111.856 104.604 112 103.73 112H99.8418V100.8H103.73C104.604 100.8 105.404 100.944 106.13 101.232C106.866 101.509 107.495 101.899 108.018 102.4C108.551 102.901 108.962 103.493 109.25 104.176C109.538 104.859 109.682 105.595 109.682 106.384ZM108.37 106.416C108.37 105.797 108.258 105.216 108.034 104.672C107.82 104.128 107.511 103.659 107.106 103.264C106.711 102.859 106.226 102.544 105.65 102.32C105.074 102.085 104.434 101.968 103.73 101.968H101.106V110.832H103.73C104.434 110.832 105.074 110.72 105.65 110.496C106.226 110.272 106.711 109.963 107.106 109.568C107.511 109.163 107.82 108.693 108.034 108.16C108.258 107.627 108.37 107.045 108.37 106.416ZM113.589 101.92H112.181V100.56H113.589V101.92ZM113.493 112H112.261V103.728H113.493V112ZM117.585 108.704V112H116.353V103.728H117.585V105.888C117.734 105.547 117.921 105.232 118.145 104.944C118.369 104.656 118.625 104.411 118.913 104.208C119.201 103.995 119.515 103.835 119.857 103.728C120.198 103.621 120.566 103.573 120.961 103.584V104.912H120.865C120.417 104.912 119.99 104.992 119.585 105.152C119.19 105.312 118.843 105.552 118.545 105.872C118.246 106.192 118.011 106.592 117.841 107.072C117.67 107.541 117.585 108.085 117.585 108.704ZM123.214 108.32C123.256 108.768 123.363 109.168 123.534 109.52C123.704 109.861 123.923 110.155 124.19 110.4C124.456 110.635 124.755 110.816 125.086 110.944C125.416 111.061 125.763 111.12 126.126 111.12C126.702 111.12 127.192 111.013 127.598 110.8C128.014 110.587 128.392 110.304 128.734 109.952L129.502 110.64C129.086 111.109 128.611 111.488 128.078 111.776C127.544 112.053 126.883 112.192 126.094 112.192C125.528 112.192 124.995 112.091 124.494 111.888C123.992 111.675 123.555 111.381 123.182 111.008C122.808 110.624 122.51 110.165 122.286 109.632C122.072 109.099 121.966 108.512 121.966 107.872C121.966 107.275 122.062 106.715 122.254 106.192C122.456 105.659 122.734 105.2 123.086 104.816C123.438 104.421 123.854 104.112 124.334 103.888C124.824 103.664 125.358 103.552 125.934 103.552C126.542 103.552 127.086 103.669 127.566 103.904C128.046 104.128 128.451 104.437 128.782 104.832C129.112 105.227 129.363 105.691 129.534 106.224C129.704 106.757 129.79 107.328 129.79 107.936C129.79 107.989 129.79 108.048 129.79 108.112C129.79 108.176 129.784 108.245 129.774 108.32H123.214ZM123.214 107.408H128.542C128.51 107.035 128.43 106.677 128.302 106.336C128.184 105.995 128.014 105.696 127.79 105.44C127.576 105.184 127.31 104.981 126.99 104.832C126.68 104.672 126.318 104.592 125.902 104.592C125.539 104.592 125.203 104.667 124.894 104.816C124.584 104.955 124.312 105.152 124.078 105.408C123.843 105.653 123.651 105.947 123.502 106.288C123.352 106.629 123.256 107.003 123.214 107.408ZM139.05 110.592C138.634 111.061 138.16 111.445 137.626 111.744C137.104 112.043 136.453 112.192 135.674 112.192C135.066 112.192 134.501 112.08 133.978 111.856C133.466 111.621 133.018 111.312 132.634 110.928C132.261 110.533 131.968 110.075 131.754 109.552C131.541 109.029 131.434 108.475 131.434 107.888C131.434 107.301 131.541 106.747 131.754 106.224C131.968 105.691 132.261 105.227 132.634 104.832C133.018 104.437 133.466 104.128 133.978 103.904C134.501 103.669 135.066 103.552 135.674 103.552C136.069 103.552 136.426 103.589 136.746 103.664C137.066 103.739 137.36 103.845 137.626 103.984C137.893 104.112 138.138 104.267 138.362 104.448C138.586 104.629 138.794 104.821 138.986 105.024L138.17 105.888C137.84 105.547 137.477 105.253 137.082 105.008C136.698 104.763 136.224 104.64 135.658 104.64C135.242 104.64 134.853 104.725 134.49 104.896C134.128 105.056 133.813 105.285 133.546 105.584C133.28 105.872 133.072 106.213 132.922 106.608C132.773 106.992 132.698 107.408 132.698 107.856C132.698 108.304 132.773 108.725 132.922 109.12C133.082 109.515 133.296 109.861 133.562 110.16C133.84 110.448 134.16 110.677 134.522 110.848C134.896 111.008 135.301 111.088 135.738 111.088C136.272 111.088 136.741 110.971 137.146 110.736C137.562 110.501 137.936 110.208 138.266 109.856L139.05 110.592ZM142.751 104.816V109.648C142.751 110.16 142.879 110.517 143.135 110.72C143.391 110.923 143.727 111.024 144.143 111.024C144.356 111.024 144.554 111.003 144.735 110.96C144.927 110.917 145.13 110.843 145.343 110.736V111.792C145.13 111.909 144.9 111.995 144.655 112.048C144.42 112.112 144.154 112.144 143.855 112.144C143.524 112.144 143.215 112.101 142.927 112.016C142.639 111.931 142.388 111.797 142.175 111.616C141.972 111.424 141.812 111.179 141.695 110.88C141.578 110.581 141.519 110.224 141.519 109.808V104.816H140.367V103.728H141.519V101.232H142.751V103.728H145.375V104.816H142.751ZM155.433 107.856C155.433 108.443 155.321 109.003 155.097 109.536C154.884 110.059 154.585 110.517 154.201 110.912C153.817 111.307 153.359 111.621 152.825 111.856C152.292 112.08 151.716 112.192 151.097 112.192C150.479 112.192 149.908 112.08 149.385 111.856C148.863 111.621 148.409 111.312 148.025 110.928C147.641 110.533 147.343 110.075 147.129 109.552C146.916 109.029 146.809 108.475 146.809 107.888C146.809 107.301 146.916 106.747 147.129 106.224C147.343 105.691 147.641 105.227 148.025 104.832C148.409 104.437 148.863 104.128 149.385 103.904C149.919 103.669 150.5 103.552 151.129 103.552C151.748 103.552 152.319 103.669 152.841 103.904C153.375 104.128 153.833 104.437 154.217 104.832C154.601 105.216 154.9 105.669 155.113 106.192C155.327 106.715 155.433 107.269 155.433 107.856ZM154.169 107.888C154.169 107.44 154.089 107.019 153.929 106.624C153.78 106.229 153.567 105.888 153.289 105.6C153.012 105.301 152.687 105.067 152.313 104.896C151.94 104.725 151.535 104.64 151.097 104.64C150.649 104.64 150.239 104.725 149.865 104.896C149.492 105.056 149.172 105.285 148.905 105.584C148.649 105.872 148.447 106.213 148.297 106.608C148.148 106.992 148.073 107.408 148.073 107.856C148.073 108.304 148.148 108.725 148.297 109.12C148.457 109.515 148.671 109.856 148.937 110.144C149.215 110.432 149.54 110.661 149.913 110.832C150.287 111.003 150.692 111.088 151.129 111.088C151.577 111.088 151.988 111.008 152.361 110.848C152.735 110.677 153.055 110.448 153.321 110.16C153.588 109.872 153.796 109.536 153.945 109.152C154.095 108.757 154.169 108.336 154.169 107.888ZM158.897 108.704V112H157.665V103.728H158.897V105.888C159.046 105.547 159.233 105.232 159.457 104.944C159.681 104.656 159.937 104.411 160.225 104.208C160.513 103.995 160.828 103.835 161.169 103.728C161.51 103.621 161.878 103.573 162.273 103.584V104.912H162.177C161.729 104.912 161.302 104.992 160.897 105.152C160.502 105.312 160.156 105.552 159.857 105.872C159.558 106.192 159.324 106.592 159.153 107.072C158.982 107.541 158.897 108.085 158.897 108.704ZM169.829 109.68C169.829 110.075 169.749 110.427 169.589 110.736C169.44 111.035 169.232 111.291 168.965 111.504C168.709 111.717 168.4 111.883 168.037 112C167.685 112.107 167.301 112.16 166.885 112.16C166.288 112.16 165.685 112.053 165.077 111.84C164.469 111.616 163.931 111.317 163.461 110.944L164.085 110.064C164.533 110.405 164.997 110.667 165.477 110.848C165.968 111.029 166.459 111.12 166.949 111.12C167.451 111.12 167.861 111.003 168.181 110.768C168.501 110.533 168.661 110.213 168.661 109.808V109.776C168.661 109.573 168.603 109.397 168.485 109.248C168.379 109.099 168.229 108.971 168.037 108.864C167.845 108.747 167.621 108.645 167.365 108.56C167.12 108.475 166.864 108.395 166.597 108.32C166.277 108.224 165.952 108.123 165.621 108.016C165.301 107.899 165.008 107.755 164.741 107.584C164.485 107.413 164.272 107.2 164.101 106.944C163.941 106.688 163.861 106.368 163.861 105.984V105.952C163.861 105.6 163.931 105.28 164.069 104.992C164.208 104.693 164.4 104.443 164.645 104.24C164.901 104.027 165.2 103.867 165.541 103.76C165.893 103.643 166.272 103.584 166.677 103.584C167.189 103.584 167.707 103.669 168.229 103.84C168.752 104 169.227 104.219 169.653 104.496L169.093 105.424C168.709 105.179 168.304 104.987 167.877 104.848C167.461 104.699 167.051 104.624 166.645 104.624C166.155 104.624 165.765 104.741 165.477 104.976C165.189 105.2 165.045 105.483 165.045 105.824V105.856C165.045 106.048 165.104 106.219 165.221 106.368C165.339 106.507 165.493 106.629 165.685 106.736C165.888 106.843 166.117 106.939 166.373 107.024C166.629 107.109 166.896 107.195 167.173 107.28C167.493 107.376 167.808 107.483 168.117 107.6C168.437 107.717 168.725 107.867 168.981 108.048C169.237 108.229 169.44 108.448 169.589 108.704C169.749 108.96 169.829 109.275 169.829 109.648V109.68Z" fill="#606060"/>
<path d="M11.824 438.776V429.8H13.056V441H12.048L4.816 431.816V441H3.584V429.8H4.768L11.824 438.776ZM24.1286 436.856C24.1286 437.443 24.0166 438.003 23.7926 438.536C23.5793 439.059 23.2806 439.517 22.8966 439.912C22.5126 440.307 22.054 440.621 21.5206 440.856C20.9873 441.08 20.4113 441.192 19.7926 441.192C19.174 441.192 18.6033 441.08 18.0806 440.856C17.558 440.621 17.1046 440.312 16.7206 439.928C16.3366 439.533 16.038 439.075 15.8246 438.552C15.6113 438.029 15.5046 437.475 15.5046 436.888C15.5046 436.301 15.6113 435.747 15.8246 435.224C16.038 434.691 16.3366 434.227 16.7206 433.832C17.1046 433.437 17.558 433.128 18.0806 432.904C18.614 432.669 19.1953 432.552 19.8246 432.552C20.4433 432.552 21.014 432.669 21.5366 432.904C22.07 433.128 22.5286 433.437 22.9126 433.832C23.2966 434.216 23.5953 434.669 23.8086 435.192C24.022 435.715 24.1286 436.269 24.1286 436.856ZM22.8646 436.888C22.8646 436.44 22.7846 436.019 22.6246 435.624C22.4753 435.229 22.262 434.888 21.9846 434.6C21.7073 434.301 21.382 434.067 21.0086 433.896C20.6353 433.725 20.23 433.64 19.7926 433.64C19.3446 433.64 18.934 433.725 18.5606 433.896C18.1873 434.056 17.8673 434.285 17.6006 434.584C17.3446 434.872 17.142 435.213 16.9926 435.608C16.8433 435.992 16.7686 436.408 16.7686 436.856C16.7686 437.304 16.8433 437.725 16.9926 438.12C17.1526 438.515 17.366 438.856 17.6326 439.144C17.91 439.432 18.2353 439.661 18.6086 439.832C18.982 440.003 19.3873 440.088 19.8246 440.088C20.2726 440.088 20.6833 440.008 21.0566 439.848C21.43 439.677 21.75 439.448 22.0166 439.16C22.2833 438.872 22.4913 438.536 22.6406 438.152C22.79 437.757 22.8646 437.336 22.8646 436.888ZM27.5924 436.264V441H26.3604V432.728H27.5924V434.168C27.8697 433.72 28.2324 433.341 28.6804 433.032C29.1284 432.712 29.7097 432.552 30.4244 432.552C30.9257 432.552 31.3684 432.632 31.7524 432.792C32.147 432.952 32.4777 433.181 32.7444 433.48C33.0217 433.768 33.2297 434.115 33.3684 434.52C33.5177 434.925 33.5924 435.373 33.5924 435.864V441H32.3604V436.168C32.3604 435.4 32.163 434.792 31.7684 434.344C31.3737 433.896 30.8084 433.672 30.0724 433.672C29.7204 433.672 29.3897 433.736 29.0804 433.864C28.7817 433.981 28.5204 434.157 28.2964 434.392C28.0724 434.616 27.8964 434.888 27.7684 435.208C27.651 435.528 27.5924 435.88 27.5924 436.264ZM40.3318 436.84H35.8838V435.544H40.3318V436.84ZM51.055 429.8V430.952H44.223V434.776H50.335V435.928H44.223V439.848H51.135V441H42.959V429.8H51.055ZM57.3898 436.76L60.6538 441H59.2298L56.6698 437.624L54.0938 441H52.7178L55.9658 436.792L52.8458 432.728H54.2538L56.7018 435.928L59.1498 432.728H60.5258L57.3898 436.76ZM62.8307 437.32C62.8734 437.768 62.9801 438.168 63.1508 438.52C63.3214 438.861 63.5401 439.155 63.8068 439.4C64.0734 439.635 64.3721 439.816 64.7028 439.944C65.0334 440.061 65.3801 440.12 65.7428 440.12C66.3188 440.12 66.8094 440.013 67.2148 439.8C67.6308 439.587 68.0094 439.304 68.3508 438.952L69.1188 439.64C68.7028 440.109 68.2281 440.488 67.6948 440.776C67.1614 441.053 66.5001 441.192 65.7108 441.192C65.1454 441.192 64.6121 441.091 64.1108 440.888C63.6094 440.675 63.1721 440.381 62.7988 440.008C62.4254 439.624 62.1268 439.165 61.9028 438.632C61.6894 438.099 61.5828 437.512 61.5828 436.872C61.5828 436.275 61.6788 435.715 61.8708 435.192C62.0734 434.659 62.3508 434.2 62.7028 433.816C63.0548 433.421 63.4708 433.112 63.9508 432.888C64.4414 432.664 64.9748 432.552 65.5508 432.552C66.1588 432.552 66.7028 432.669 67.1828 432.904C67.6628 433.128 68.0681 433.437 68.3988 433.832C68.7294 434.227 68.9801 434.691 69.1508 435.224C69.3214 435.757 69.4068 436.328 69.4068 436.936C69.4068 436.989 69.4068 437.048 69.4068 437.112C69.4068 437.176 69.4014 437.245 69.3908 437.32H62.8307ZM62.8307 436.408H68.1588C68.1268 436.035 68.0468 435.677 67.9188 435.336C67.8014 434.995 67.6308 434.696 67.4068 434.44C67.1934 434.184 66.9268 433.981 66.6068 433.832C66.2974 433.672 65.9348 433.592 65.5188 433.592C65.1561 433.592 64.8201 433.667 64.5108 433.816C64.2014 433.955 63.9294 434.152 63.6948 434.408C63.4601 434.653 63.2681 434.947 63.1188 435.288C62.9694 435.629 62.8734 436.003 62.8307 436.408ZM78.6675 439.592C78.2515 440.061 77.7768 440.445 77.2435 440.744C76.7208 441.043 76.0702 441.192 75.2915 441.192C74.6835 441.192 74.1182 441.08 73.5955 440.856C73.0835 440.621 72.6355 440.312 72.2515 439.928C71.8782 439.533 71.5848 439.075 71.3715 438.552C71.1582 438.029 71.0515 437.475 71.0515 436.888C71.0515 436.301 71.1582 435.747 71.3715 435.224C71.5848 434.691 71.8782 434.227 72.2515 433.832C72.6355 433.437 73.0835 433.128 73.5955 432.904C74.1182 432.669 74.6835 432.552 75.2915 432.552C75.6862 432.552 76.0435 432.589 76.3635 432.664C76.6835 432.739 76.9768 432.845 77.2435 432.984C77.5102 433.112 77.7555 433.267 77.9795 433.448C78.2035 433.629 78.4115 433.821 78.6035 434.024L77.7875 434.888C77.4568 434.547 77.0942 434.253 76.6995 434.008C76.3155 433.763 75.8408 433.64 75.2755 433.64C74.8595 433.64 74.4702 433.725 74.1075 433.896C73.7448 434.056 73.4302 434.285 73.1635 434.584C72.8968 434.872 72.6888 435.213 72.5395 435.608C72.3902 435.992 72.3155 436.408 72.3155 436.856C72.3155 437.304 72.3902 437.725 72.5395 438.12C72.6995 438.515 72.9128 438.861 73.1795 439.16C73.4568 439.448 73.7768 439.677 74.1395 439.848C74.5128 440.008 74.9182 440.088 75.3555 440.088C75.8888 440.088 76.3582 439.971 76.7635 439.736C77.1795 439.501 77.5528 439.208 77.8835 438.856L78.6675 439.592ZM86.5761 437.464V432.728H87.7921V441H86.5761V439.56C86.2988 440.008 85.9361 440.392 85.4881 440.712C85.0401 441.021 84.4588 441.176 83.7441 441.176C83.2428 441.176 82.7948 441.096 82.4001 440.936C82.0161 440.776 81.6855 440.552 81.4081 440.264C81.1415 439.965 80.9335 439.613 80.7841 439.208C80.6455 438.803 80.5761 438.355 80.5761 437.864V432.728H81.8081V437.56C81.8081 438.328 82.0055 438.936 82.4001 439.384C82.7948 439.832 83.3601 440.056 84.0961 440.056C84.4481 440.056 84.7735 439.997 85.0721 439.88C85.3815 439.752 85.6428 439.576 85.8561 439.352C86.0801 439.117 86.2561 438.84 86.3841 438.52C86.5121 438.2 86.5761 437.848 86.5761 437.464ZM92.2275 433.816V438.648C92.2275 439.16 92.3555 439.517 92.6115 439.72C92.8675 439.923 93.2035 440.024 93.6195 440.024C93.8328 440.024 94.0302 440.003 94.2115 439.96C94.4035 439.917 94.6062 439.843 94.8195 439.736V440.792C94.6062 440.909 94.3768 440.995 94.1315 441.048C93.8968 441.112 93.6302 441.144 93.3315 441.144C93.0008 441.144 92.6915 441.101 92.4035 441.016C92.1155 440.931 91.8648 440.797 91.6515 440.616C91.4488 440.424 91.2888 440.179 91.1715 439.88C91.0542 439.581 90.9955 439.224 90.9955 438.808V433.816H89.8435V432.728H90.9955V430.232H92.2275V432.728H94.8515V433.816H92.2275ZM98.4723 430.92H97.0643V429.56H98.4723V430.92ZM98.3763 441H97.1443V432.728H98.3763V441ZM104.563 439.592L107.363 432.728H108.691L105.091 441.064H104.003L100.419 432.728H101.779L104.563 439.592ZM110.878 437.32C110.92 437.768 111.027 438.168 111.198 438.52C111.368 438.861 111.587 439.155 111.854 439.4C112.12 439.635 112.419 439.816 112.75 439.944C113.08 440.061 113.427 440.12 113.79 440.12C114.366 440.12 114.856 440.013 115.262 439.8C115.678 439.587 116.056 439.304 116.398 438.952L117.166 439.64C116.75 440.109 116.275 440.488 115.742 440.776C115.208 441.053 114.547 441.192 113.758 441.192C113.192 441.192 112.659 441.091 112.158 440.888C111.656 440.675 111.219 440.381 110.846 440.008C110.472 439.624 110.174 439.165 109.95 438.632C109.736 438.099 109.63 437.512 109.63 436.872C109.63 436.275 109.726 435.715 109.918 435.192C110.12 434.659 110.398 434.2 110.75 433.816C111.102 433.421 111.518 433.112 111.998 432.888C112.488 432.664 113.022 432.552 113.598 432.552C114.206 432.552 114.75 432.669 115.23 432.904C115.71 433.128 116.115 433.437 116.446 433.832C116.776 434.227 117.027 434.691 117.198 435.224C117.368 435.757 117.454 436.328 117.454 436.936C117.454 436.989 117.454 437.048 117.454 437.112C117.454 437.176 117.448 437.245 117.438 437.32H110.878ZM110.878 436.408H116.206C116.174 436.035 116.094 435.677 115.966 435.336C115.848 434.995 115.678 434.696 115.454 434.44C115.24 434.184 114.974 433.981 114.654 433.832C114.344 433.672 113.982 433.592 113.566 433.592C113.203 433.592 112.867 433.667 112.558 433.816C112.248 433.955 111.976 434.152 111.742 434.408C111.507 434.653 111.315 434.947 111.166 435.288C111.016 435.629 110.92 436.003 110.878 436.408ZM13.424 459.384C13.424 460.173 13.28 460.915 12.992 461.608C12.704 462.291 12.2933 462.883 11.76 463.384C11.2373 463.885 10.608 464.28 9.872 464.568C9.14667 464.856 8.34667 465 7.472 465H3.584V453.8H7.472C8.34667 453.8 9.14667 453.944 9.872 454.232C10.608 454.509 11.2373 454.899 11.76 455.4C12.2933 455.901 12.704 456.493 12.992 457.176C13.28 457.859 13.424 458.595 13.424 459.384ZM12.112 459.416C12.112 458.797 12 458.216 11.776 457.672C11.5627 457.128 11.2533 456.659 10.848 456.264C10.4533 455.859 9.968 455.544 9.392 455.32C8.816 455.085 8.176 454.968 7.472 454.968H4.848V463.832H7.472C8.176 463.832 8.816 463.72 9.392 463.496C9.968 463.272 10.4533 462.963 10.848 462.568C11.2533 462.163 11.5627 461.693 11.776 461.16C12 460.627 12.112 460.045 12.112 459.416ZM17.3316 454.92H15.9236V453.56H17.3316V454.92ZM17.2356 465H16.0036V456.728H17.2356V465ZM21.3268 461.704V465H20.0948V456.728H21.3268V458.888C21.4761 458.547 21.6628 458.232 21.8868 457.944C22.1108 457.656 22.3668 457.411 22.6548 457.208C22.9428 456.995 23.2574 456.835 23.5988 456.728C23.9401 456.621 24.3081 456.573 24.7028 456.584V457.912H24.6068C24.1588 457.912 23.7321 457.992 23.3268 458.152C22.9321 458.312 22.5854 458.552 22.2868 458.872C21.9881 459.192 21.7534 459.592 21.5828 460.072C21.4121 460.541 21.3268 461.085 21.3268 461.704ZM26.9557 461.32C26.9984 461.768 27.1051 462.168 27.2758 462.52C27.4464 462.861 27.6651 463.155 27.9318 463.4C28.1984 463.635 28.4971 463.816 28.8278 463.944C29.1584 464.061 29.5051 464.12 29.8678 464.12C30.4438 464.12 30.9344 464.013 31.3398 463.8C31.7558 463.587 32.1344 463.304 32.4758 462.952L33.2438 463.64C32.8278 464.109 32.3531 464.488 31.8198 464.776C31.2864 465.053 30.6251 465.192 29.8358 465.192C29.2704 465.192 28.7371 465.091 28.2358 464.888C27.7344 464.675 27.2971 464.381 26.9238 464.008C26.5504 463.624 26.2518 463.165 26.0278 462.632C25.8144 462.099 25.7078 461.512 25.7078 460.872C25.7078 460.275 25.8038 459.715 25.9958 459.192C26.1984 458.659 26.4758 458.2 26.8278 457.816C27.1798 457.421 27.5958 457.112 28.0758 456.888C28.5664 456.664 29.0998 456.552 29.6758 456.552C30.2838 456.552 30.8278 456.669 31.3078 456.904C31.7878 457.128 32.1931 457.437 32.5238 457.832C32.8544 458.227 33.1051 458.691 33.2758 459.224C33.4464 459.757 33.5318 460.328 33.5318 460.936C33.5318 460.989 33.5318 461.048 33.5318 461.112C33.5318 461.176 33.5264 461.245 33.5158 461.32H26.9557ZM26.9557 460.408H32.2838C32.2518 460.035 32.1718 459.677 32.0438 459.336C31.9264 458.995 31.7558 458.696 31.5318 458.44C31.3184 458.184 31.0518 457.981 30.7318 457.832C30.4224 457.672 30.0598 457.592 29.6438 457.592C29.2811 457.592 28.9451 457.667 28.6358 457.816C28.3264 457.955 28.0544 458.152 27.8198 458.408C27.5851 458.653 27.3931 458.947 27.2438 459.288C27.0944 459.629 26.9984 460.003 26.9557 460.408ZM42.7925 463.592C42.3765 464.061 41.9018 464.445 41.3685 464.744C40.8458 465.043 40.1952 465.192 39.4165 465.192C38.8085 465.192 38.2432 465.08 37.7205 464.856C37.2085 464.621 36.7605 464.312 36.3765 463.928C36.0032 463.533 35.7098 463.075 35.4965 462.552C35.2832 462.029 35.1765 461.475 35.1765 460.888C35.1765 460.301 35.2832 459.747 35.4965 459.224C35.7098 458.691 36.0032 458.227 36.3765 457.832C36.7605 457.437 37.2085 457.128 37.7205 456.904C38.2432 456.669 38.8085 456.552 39.4165 456.552C39.8112 456.552 40.1685 456.589 40.4885 456.664C40.8085 456.739 41.1018 456.845 41.3685 456.984C41.6352 457.112 41.8805 457.267 42.1045 457.448C42.3285 457.629 42.5365 457.821 42.7285 458.024L41.9125 458.888C41.5818 458.547 41.2192 458.253 40.8245 458.008C40.4405 457.763 39.9658 457.64 39.4005 457.64C38.9845 457.64 38.5952 457.725 38.2325 457.896C37.8698 458.056 37.5552 458.285 37.2885 458.584C37.0218 458.872 36.8138 459.213 36.6645 459.608C36.5152 459.992 36.4405 460.408 36.4405 460.856C36.4405 461.304 36.5152 461.725 36.6645 462.12C36.8245 462.515 37.0378 462.861 37.3045 463.16C37.5818 463.448 37.9018 463.677 38.2645 463.848C38.6378 464.008 39.0432 464.088 39.4805 464.088C40.0138 464.088 40.4832 463.971 40.8885 463.736C41.3045 463.501 41.6778 463.208 42.0085 462.856L42.7925 463.592ZM46.4931 457.816V462.648C46.4931 463.16 46.6211 463.517 46.8771 463.72C47.1331 463.923 47.4691 464.024 47.8851 464.024C48.0985 464.024 48.2958 464.003 48.4771 463.96C48.6691 463.917 48.8718 463.843 49.0851 463.736V464.792C48.8718 464.909 48.6425 464.995 48.3971 465.048C48.1625 465.112 47.8958 465.144 47.5971 465.144C47.2665 465.144 46.9571 465.101 46.6691 465.016C46.3811 464.931 46.1305 464.797 45.9171 464.616C45.7145 464.424 45.5545 464.179 45.4371 463.88C45.3198 463.581 45.2611 463.224 45.2611 462.808V457.816H44.1091V456.728H45.2611V454.232H46.4931V456.728H49.1171V457.816H46.4931ZM59.1755 460.856C59.1755 461.443 59.0635 462.003 58.8395 462.536C58.6262 463.059 58.3275 463.517 57.9435 463.912C57.5595 464.307 57.1008 464.621 56.5675 464.856C56.0342 465.08 55.4582 465.192 54.8395 465.192C54.2208 465.192 53.6502 465.08 53.1275 464.856C52.6048 464.621 52.1515 464.312 51.7675 463.928C51.3835 463.533 51.0848 463.075 50.8715 462.552C50.6582 462.029 50.5515 461.475 50.5515 460.888C50.5515 460.301 50.6582 459.747 50.8715 459.224C51.0848 458.691 51.3835 458.227 51.7675 457.832C52.1515 457.437 52.6048 457.128 53.1275 456.904C53.6608 456.669 54.2422 456.552 54.8715 456.552C55.4902 456.552 56.0608 456.669 56.5835 456.904C57.1168 457.128 57.5755 457.437 57.9595 457.832C58.3435 458.216 58.6422 458.669 58.8555 459.192C59.0688 459.715 59.1755 460.269 59.1755 460.856ZM57.9115 460.888C57.9115 460.44 57.8315 460.019 57.6715 459.624C57.5222 459.229 57.3088 458.888 57.0315 458.6C56.7542 458.301 56.4288 458.067 56.0555 457.896C55.6822 457.725 55.2768 457.64 54.8395 457.64C54.3915 457.64 53.9808 457.725 53.6075 457.896C53.2342 458.056 52.9142 458.285 52.6475 458.584C52.3915 458.872 52.1888 459.213 52.0395 459.608C51.8902 459.992 51.8155 460.408 51.8155 460.856C51.8155 461.304 51.8902 461.725 52.0395 462.12C52.1995 462.515 52.4128 462.856 52.6795 463.144C52.9568 463.432 53.2822 463.661 53.6555 463.832C54.0288 464.003 54.4342 464.088 54.8715 464.088C55.3195 464.088 55.7302 464.008 56.1035 463.848C56.4768 463.677 56.7968 463.448 57.0635 463.16C57.3302 462.872 57.5382 462.536 57.6875 462.152C57.8368 461.757 57.9115 461.336 57.9115 460.888ZM62.6393 461.704V465H61.4073V456.728H62.6393V458.888C62.7886 458.547 62.9753 458.232 63.1993 457.944C63.4233 457.656 63.6793 457.411 63.9673 457.208C64.2553 456.995 64.5699 456.835 64.9113 456.728C65.2526 456.621 65.6206 456.573 66.0153 456.584V457.912H65.9193C65.4713 457.912 65.0446 457.992 64.6393 458.152C64.2446 458.312 63.8979 458.552 63.5993 458.872C63.3006 459.192 63.0659 459.592 62.8953 460.072C62.7246 460.541 62.6393 461.085 62.6393 461.704ZM73.5716 462.68C73.5716 463.075 73.4916 463.427 73.3316 463.736C73.1823 464.035 72.9743 464.291 72.7076 464.504C72.4516 464.717 72.1423 464.883 71.7796 465C71.4276 465.107 71.0436 465.16 70.6276 465.16C70.0303 465.16 69.4276 465.053 68.8196 464.84C68.2116 464.616 67.673 464.317 67.2036 463.944L67.8276 463.064C68.2756 463.405 68.7396 463.667 69.2196 463.848C69.7103 464.029 70.201 464.12 70.6916 464.12C71.193 464.12 71.6036 464.003 71.9236 463.768C72.2436 463.533 72.4036 463.213 72.4036 462.808V462.776C72.4036 462.573 72.345 462.397 72.2276 462.248C72.121 462.099 71.9716 461.971 71.7796 461.864C71.5876 461.747 71.3636 461.645 71.1076 461.56C70.8623 461.475 70.6063 461.395 70.3396 461.32C70.0196 461.224 69.6943 461.123 69.3636 461.016C69.0436 460.899 68.7503 460.755 68.4836 460.584C68.2276 460.413 68.0143 460.2 67.8436 459.944C67.6836 459.688 67.6036 459.368 67.6036 458.984V458.952C67.6036 458.6 67.673 458.28 67.8116 457.992C67.9503 457.693 68.1423 457.443 68.3876 457.24C68.6436 457.027 68.9423 456.867 69.2836 456.76C69.6356 456.643 70.0143 456.584 70.4196 456.584C70.9316 456.584 71.449 456.669 71.9716 456.84C72.4943 457 72.969 457.219 73.3956 457.496L72.8356 458.424C72.4516 458.179 72.0463 457.987 71.6196 457.848C71.2036 457.699 70.793 457.624 70.3876 457.624C69.897 457.624 69.5076 457.741 69.2196 457.976C68.9316 458.2 68.7876 458.483 68.7876 458.824V458.856C68.7876 459.048 68.8463 459.219 68.9636 459.368C69.081 459.507 69.2356 459.629 69.4276 459.736C69.6303 459.843 69.8596 459.939 70.1156 460.024C70.3716 460.109 70.6383 460.195 70.9156 460.28C71.2356 460.376 71.5503 460.483 71.8596 460.6C72.1796 460.717 72.4676 460.867 72.7236 461.048C72.9796 461.229 73.1823 461.448 73.3316 461.704C73.4916 461.96 73.5716 462.275 73.5716 462.648V462.68Z" fill="#606060"/>
<path d="M227.68 429.8V430.952H220.848V434.776H226.96V435.928H220.848V439.848H227.76V441H219.584V429.8H227.68ZM234.015 436.76L237.279 441H235.855L233.295 437.624L230.719 441H229.343L232.591 436.792L229.471 432.728H230.879L233.327 435.928L235.775 432.728H237.151L234.015 436.76ZM239.456 437.32C239.498 437.768 239.605 438.168 239.776 438.52C239.946 438.861 240.165 439.155 240.432 439.4C240.698 439.635 240.997 439.816 241.328 439.944C241.658 440.061 242.005 440.12 242.368 440.12C242.944 440.12 243.434 440.013 243.84 439.8C244.256 439.587 244.634 439.304 244.976 438.952L245.744 439.64C245.328 440.109 244.853 440.488 244.32 440.776C243.786 441.053 243.125 441.192 242.336 441.192C241.77 441.192 241.237 441.091 240.736 440.888C240.234 440.675 239.797 440.381 239.424 440.008C239.05 439.624 238.752 439.165 238.528 438.632C238.314 438.099 238.208 437.512 238.208 436.872C238.208 436.275 238.304 435.715 238.496 435.192C238.698 434.659 238.976 434.2 239.328 433.816C239.68 433.421 240.096 433.112 240.576 432.888C241.066 432.664 241.6 432.552 242.176 432.552C242.784 432.552 243.328 432.669 243.808 432.904C244.288 433.128 244.693 433.437 245.024 433.832C245.354 434.227 245.605 434.691 245.776 435.224C245.946 435.757 246.032 436.328 246.032 436.936C246.032 436.989 246.032 437.048 246.032 437.112C246.032 437.176 246.026 437.245 246.016 437.32H239.456ZM239.456 436.408H244.784C244.752 436.035 244.672 435.677 244.544 435.336C244.426 434.995 244.256 434.696 244.032 434.44C243.818 434.184 243.552 433.981 243.232 433.832C242.922 433.672 242.56 433.592 242.144 433.592C241.781 433.592 241.445 433.667 241.136 433.816C240.826 433.955 240.554 434.152 240.32 434.408C240.085 434.653 239.893 434.947 239.744 435.288C239.594 435.629 239.498 436.003 239.456 436.408ZM255.293 439.592C254.877 440.061 254.402 440.445 253.869 440.744C253.346 441.043 252.695 441.192 251.917 441.192C251.309 441.192 250.743 441.08 250.221 440.856C249.709 440.621 249.261 440.312 248.877 439.928C248.503 439.533 248.21 439.075 247.997 438.552C247.783 438.029 247.677 437.475 247.677 436.888C247.677 436.301 247.783 435.747 247.997 435.224C248.21 434.691 248.503 434.227 248.877 433.832C249.261 433.437 249.709 433.128 250.221 432.904C250.743 432.669 251.309 432.552 251.917 432.552C252.311 432.552 252.669 432.589 252.989 432.664C253.309 432.739 253.602 432.845 253.869 432.984C254.135 433.112 254.381 433.267 254.605 433.448C254.829 433.629 255.037 433.821 255.229 434.024L254.413 434.888C254.082 434.547 253.719 434.253 253.325 434.008C252.941 433.763 252.466 433.64 251.901 433.64C251.485 433.64 251.095 433.725 250.733 433.896C250.37 434.056 250.055 434.285 249.789 434.584C249.522 434.872 249.314 435.213 249.164 435.608C249.015 435.992 248.941 436.408 248.941 436.856C248.941 437.304 249.015 437.725 249.164 438.12C249.325 438.515 249.538 438.861 249.805 439.16C250.082 439.448 250.402 439.677 250.765 439.848C251.138 440.008 251.543 440.088 251.981 440.088C252.514 440.088 252.983 439.971 253.389 439.736C253.805 439.501 254.178 439.208 254.509 438.856L255.293 439.592ZM263.201 437.464V432.728H264.417V441H263.201V439.56C262.924 440.008 262.561 440.392 262.113 440.712C261.665 441.021 261.084 441.176 260.369 441.176C259.868 441.176 259.42 441.096 259.025 440.936C258.641 440.776 258.31 440.552 258.033 440.264C257.766 439.965 257.558 439.613 257.409 439.208C257.27 438.803 257.201 438.355 257.201 437.864V432.728H258.433V437.56C258.433 438.328 258.63 438.936 259.025 439.384C259.42 439.832 259.985 440.056 260.721 440.056C261.073 440.056 261.398 439.997 261.697 439.88C262.006 439.752 262.268 439.576 262.481 439.352C262.705 439.117 262.881 438.84 263.009 438.52C263.137 438.2 263.201 437.848 263.201 437.464ZM268.853 433.816V438.648C268.853 439.16 268.981 439.517 269.237 439.72C269.493 439.923 269.829 440.024 270.245 440.024C270.458 440.024 270.655 440.003 270.837 439.96C271.029 439.917 271.231 439.843 271.445 439.736V440.792C271.231 440.909 271.002 440.995 270.757 441.048C270.522 441.112 270.255 441.144 269.957 441.144C269.626 441.144 269.317 441.101 269.029 441.016C268.741 440.931 268.49 440.797 268.277 440.616C268.074 440.424 267.914 440.179 267.797 439.88C267.679 439.581 267.621 439.224 267.621 438.808V433.816H266.469V432.728H267.621V430.232H268.853V432.728H271.477V433.816H268.853ZM275.097 430.92H273.689V429.56H275.097V430.92ZM275.001 441H273.769V432.728H275.001V441ZM281.188 439.592L283.988 432.728H285.316L281.716 441.064H280.628L277.044 432.728H278.404L281.188 439.592ZM287.503 437.32C287.545 437.768 287.652 438.168 287.823 438.52C287.993 438.861 288.212 439.155 288.479 439.4C288.745 439.635 289.044 439.816 289.375 439.944C289.705 440.061 290.052 440.12 290.415 440.12C290.991 440.12 291.481 440.013 291.887 439.8C292.303 439.587 292.681 439.304 293.023 438.952L293.791 439.64C293.375 440.109 292.9 440.488 292.367 440.776C291.833 441.053 291.172 441.192 290.383 441.192C289.817 441.192 289.284 441.091 288.783 440.888C288.281 440.675 287.844 440.381 287.471 440.008C287.097 439.624 286.799 439.165 286.575 438.632C286.361 438.099 286.255 437.512 286.255 436.872C286.255 436.275 286.351 435.715 286.543 435.192C286.745 434.659 287.023 434.2 287.375 433.816C287.727 433.421 288.143 433.112 288.623 432.888C289.113 432.664 289.647 432.552 290.223 432.552C290.831 432.552 291.375 432.669 291.855 432.904C292.335 433.128 292.74 433.437 293.071 433.832C293.401 434.227 293.652 434.691 293.823 435.224C293.993 435.757 294.079 436.328 294.079 436.936C294.079 436.989 294.079 437.048 294.079 437.112C294.079 437.176 294.073 437.245 294.063 437.32H287.503ZM287.503 436.408H292.831C292.799 436.035 292.719 435.677 292.591 435.336C292.473 434.995 292.303 434.696 292.079 434.44C291.865 434.184 291.599 433.981 291.279 433.832C290.969 433.672 290.607 433.592 290.191 433.592C289.828 433.592 289.492 433.667 289.183 433.816C288.873 433.955 288.601 434.152 288.367 434.408C288.132 434.653 287.94 434.947 287.791 435.288C287.641 435.629 287.545 436.003 287.503 436.408ZM229.424 459.384C229.424 460.173 229.28 460.915 228.992 461.608C228.704 462.291 228.293 462.883 227.76 463.384C227.237 463.885 226.608 464.28 225.872 464.568C225.147 464.856 224.347 465 223.472 465H219.584V453.8H223.472C224.347 453.8 225.147 453.944 225.872 454.232C226.608 454.509 227.237 454.899 227.76 455.4C228.293 455.901 228.704 456.493 228.992 457.176C229.28 457.859 229.424 458.595 229.424 459.384ZM228.112 459.416C228.112 458.797 228 458.216 227.776 457.672C227.563 457.128 227.253 456.659 226.848 456.264C226.453 455.859 225.968 455.544 225.392 455.32C224.816 455.085 224.176 454.968 223.472 454.968H220.848V463.832H223.472C224.176 463.832 224.816 463.72 225.392 463.496C225.968 463.272 226.453 462.963 226.848 462.568C227.253 462.163 227.563 461.693 227.776 461.16C228 460.627 228.112 460.045 228.112 459.416ZM233.332 454.92H231.924V453.56H233.332V454.92ZM233.236 465H232.004V456.728H233.236V465ZM237.327 461.704V465H236.095V456.728H237.327V458.888C237.476 458.547 237.663 458.232 237.887 457.944C238.111 457.656 238.367 457.411 238.655 457.208C238.943 456.995 239.257 456.835 239.599 456.728C239.94 456.621 240.308 456.573 240.703 456.584V457.912H240.607C240.159 457.912 239.732 457.992 239.327 458.152C238.932 458.312 238.585 458.552 238.287 458.872C237.988 459.192 237.753 459.592 237.583 460.072C237.412 460.541 237.327 461.085 237.327 461.704ZM242.956 461.32C242.998 461.768 243.105 462.168 243.276 462.52C243.446 462.861 243.665 463.155 243.932 463.4C244.198 463.635 244.497 463.816 244.828 463.944C245.158 464.061 245.505 464.12 245.868 464.12C246.444 464.12 246.934 464.013 247.34 463.8C247.756 463.587 248.134 463.304 248.476 462.952L249.244 463.64C248.828 464.109 248.353 464.488 247.82 464.776C247.286 465.053 246.625 465.192 245.836 465.192C245.27 465.192 244.737 465.091 244.236 464.888C243.734 464.675 243.297 464.381 242.924 464.008C242.55 463.624 242.252 463.165 242.028 462.632C241.814 462.099 241.708 461.512 241.708 460.872C241.708 460.275 241.804 459.715 241.996 459.192C242.198 458.659 242.476 458.2 242.828 457.816C243.18 457.421 243.596 457.112 244.076 456.888C244.566 456.664 245.1 456.552 245.676 456.552C246.284 456.552 246.828 456.669 247.308 456.904C247.788 457.128 248.193 457.437 248.524 457.832C248.854 458.227 249.105 458.691 249.276 459.224C249.446 459.757 249.532 460.328 249.532 460.936C249.532 460.989 249.532 461.048 249.532 461.112C249.532 461.176 249.526 461.245 249.516 461.32H242.956ZM242.956 460.408H248.284C248.252 460.035 248.172 459.677 248.044 459.336C247.926 458.995 247.756 458.696 247.532 458.44C247.318 458.184 247.052 457.981 246.732 457.832C246.422 457.672 246.06 457.592 245.644 457.592C245.281 457.592 244.945 457.667 244.636 457.816C244.326 457.955 244.054 458.152 243.82 458.408C243.585 458.653 243.393 458.947 243.244 459.288C243.094 459.629 242.998 460.003 242.956 460.408ZM258.793 463.592C258.377 464.061 257.902 464.445 257.369 464.744C256.846 465.043 256.195 465.192 255.417 465.192C254.809 465.192 254.243 465.08 253.721 464.856C253.209 464.621 252.761 464.312 252.377 463.928C252.003 463.533 251.71 463.075 251.497 462.552C251.283 462.029 251.177 461.475 251.177 460.888C251.177 460.301 251.283 459.747 251.497 459.224C251.71 458.691 252.003 458.227 252.377 457.832C252.761 457.437 253.209 457.128 253.721 456.904C254.243 456.669 254.809 456.552 255.417 456.552C255.811 456.552 256.169 456.589 256.489 456.664C256.809 456.739 257.102 456.845 257.369 456.984C257.635 457.112 257.881 457.267 258.105 457.448C258.329 457.629 258.537 457.821 258.729 458.024L257.913 458.888C257.582 458.547 257.219 458.253 256.825 458.008C256.441 457.763 255.966 457.64 255.401 457.64C254.985 457.64 254.595 457.725 254.233 457.896C253.87 458.056 253.555 458.285 253.289 458.584C253.022 458.872 252.814 459.213 252.664 459.608C252.515 459.992 252.441 460.408 252.441 460.856C252.441 461.304 252.515 461.725 252.664 462.12C252.825 462.515 253.038 462.861 253.305 463.16C253.582 463.448 253.902 463.677 254.265 463.848C254.638 464.008 255.043 464.088 255.481 464.088C256.014 464.088 256.483 463.971 256.889 463.736C257.305 463.501 257.678 463.208 258.009 462.856L258.793 463.592ZM262.493 457.816V462.648C262.493 463.16 262.621 463.517 262.877 463.72C263.133 463.923 263.469 464.024 263.885 464.024C264.098 464.024 264.296 464.003 264.477 463.96C264.669 463.917 264.872 463.843 265.085 463.736V464.792C264.872 464.909 264.642 464.995 264.397 465.048C264.162 465.112 263.896 465.144 263.597 465.144C263.266 465.144 262.957 465.101 262.669 465.016C262.381 464.931 262.13 464.797 261.917 464.616C261.714 464.424 261.554 464.179 261.437 463.88C261.32 463.581 261.261 463.224 261.261 462.808V457.816H260.109V456.728H261.261V454.232H262.493V456.728H265.117V457.816H262.493ZM275.176 460.856C275.176 461.443 275.064 462.003 274.84 462.536C274.626 463.059 274.328 463.517 273.944 463.912C273.56 464.307 273.101 464.621 272.568 464.856C272.034 465.08 271.458 465.192 270.84 465.192C270.221 465.192 269.65 465.08 269.128 464.856C268.605 464.621 268.152 464.312 267.768 463.928C267.384 463.533 267.085 463.075 266.872 462.552C266.658 462.029 266.552 461.475 266.552 460.888C266.552 460.301 266.658 459.747 266.872 459.224C267.085 458.691 267.384 458.227 267.768 457.832C268.152 457.437 268.605 457.128 269.128 456.904C269.661 456.669 270.242 456.552 270.872 456.552C271.49 456.552 272.061 456.669 272.584 456.904C273.117 457.128 273.576 457.437 273.96 457.832C274.344 458.216 274.642 458.669 274.856 459.192C275.069 459.715 275.176 460.269 275.176 460.856ZM273.911 460.888C273.911 460.44 273.832 460.019 273.672 459.624C273.522 459.229 273.309 458.888 273.032 458.6C272.754 458.301 272.429 458.067 272.056 457.896C271.682 457.725 271.277 457.64 270.84 457.64C270.392 457.64 269.981 457.725 269.608 457.896C269.234 458.056 268.914 458.285 268.648 458.584C268.392 458.872 268.189 459.213 268.039 459.608C267.89 459.992 267.816 460.408 267.816 460.856C267.816 461.304 267.89 461.725 268.039 462.12C268.2 462.515 268.413 462.856 268.68 463.144C268.957 463.432 269.282 463.661 269.656 463.832C270.029 464.003 270.434 464.088 270.872 464.088C271.32 464.088 271.73 464.008 272.104 463.848C272.477 463.677 272.797 463.448 273.064 463.16C273.33 462.872 273.538 462.536 273.688 462.152C273.837 461.757 273.911 461.336 273.911 460.888ZM278.639 461.704V465H277.407V456.728H278.639V458.888C278.789 458.547 278.975 458.232 279.199 457.944C279.423 457.656 279.679 457.411 279.967 457.208C280.255 456.995 280.57 456.835 280.911 456.728C281.253 456.621 281.621 456.573 282.015 456.584V457.912H281.919C281.471 457.912 281.045 457.992 280.639 458.152C280.245 458.312 279.898 458.552 279.599 458.872C279.301 459.192 279.066 459.592 278.895 460.072C278.725 460.541 278.639 461.085 278.639 461.704ZM289.572 462.68C289.572 463.075 289.492 463.427 289.332 463.736C289.182 464.035 288.974 464.291 288.708 464.504C288.452 464.717 288.142 464.883 287.78 465C287.428 465.107 287.044 465.16 286.628 465.16C286.03 465.16 285.428 465.053 284.82 464.84C284.212 464.616 283.673 464.317 283.204 463.944L283.828 463.064C284.276 463.405 284.74 463.667 285.22 463.848C285.71 464.029 286.201 464.12 286.692 464.12C287.193 464.12 287.604 464.003 287.924 463.768C288.244 463.533 288.404 463.213 288.404 462.808V462.776C288.404 462.573 288.345 462.397 288.228 462.248C288.121 462.099 287.972 461.971 287.78 461.864C287.588 461.747 287.364 461.645 287.108 461.56C286.862 461.475 286.606 461.395 286.34 461.32C286.02 461.224 285.694 461.123 285.364 461.016C285.044 460.899 284.75 460.755 284.484 460.584C284.228 460.413 284.014 460.2 283.844 459.944C283.684 459.688 283.604 459.368 283.604 458.984V458.952C283.604 458.6 283.673 458.28 283.812 457.992C283.95 457.693 284.142 457.443 284.388 457.24C284.644 457.027 284.942 456.867 285.284 456.76C285.636 456.643 286.014 456.584 286.42 456.584C286.932 456.584 287.449 456.669 287.972 456.84C288.494 457 288.969 457.219 289.396 457.496L288.836 458.424C288.452 458.179 288.046 457.987 287.62 457.848C287.204 457.699 286.793 457.624 286.388 457.624C285.897 457.624 285.508 457.741 285.22 457.976C284.932 458.2 284.788 458.483 284.788 458.824V458.856C284.788 459.048 284.846 459.219 284.964 459.368C285.081 459.507 285.236 459.629 285.428 459.736C285.63 459.843 285.86 459.939 286.116 460.024C286.372 460.109 286.638 460.195 286.916 460.28C287.236 460.376 287.55 460.483 287.86 460.6C288.18 460.717 288.468 460.867 288.724 461.048C288.98 461.229 289.182 461.448 289.332 461.704C289.492 461.96 289.572 462.275 289.572 462.648V462.68Z" fill="#606060"/>
<path opacity="0.5" d="M135.236 158L132.354 163.003L138.127 162.997L135.236 158ZM135.875 294.365L135.874 293.362L134.874 293.363L134.875 294.366L135.875 294.365ZM135.872 291.357L135.87 289.351L134.87 289.352L134.872 291.358L135.872 291.357ZM135.868 287.346L135.866 285.341L134.866 285.342L134.868 287.347L135.868 287.346ZM135.864 283.335L135.862 281.33L134.862 281.331L134.864 283.336L135.864 283.335ZM135.86 279.324L135.858 277.319L134.858 277.32L134.86 279.325L135.86 279.324ZM135.856 275.314L135.853 273.308L134.853 273.309L134.856 275.315L135.856 275.314ZM135.851 271.303L135.849 269.298L134.849 269.299L134.851 271.304L135.851 271.303ZM135.847 267.292L135.845 265.287L134.845 265.288L134.847 267.293L135.847 267.292ZM135.843 263.281L135.841 261.276L134.841 261.277L134.843 263.282L135.843 263.281ZM135.839 259.271L135.837 257.265L134.837 257.266L134.839 259.272L135.839 259.271ZM135.835 255.26L135.833 253.255L134.833 253.256L134.835 255.261L135.835 255.26ZM135.831 251.249L135.829 249.244L134.829 249.245L134.831 251.25L135.831 251.249ZM135.827 247.238L135.825 245.233L134.825 245.234L134.827 247.239L135.827 247.238ZM135.823 243.228L135.821 241.222L134.821 241.223L134.823 243.229L135.823 243.228ZM135.819 239.217L135.817 237.212L134.817 237.213L134.819 239.218L135.819 239.217ZM135.815 235.206L135.812 233.201L134.812 233.202L134.815 235.207L135.815 235.206ZM135.81 231.195L135.808 229.19L134.808 229.191L134.81 231.196L135.81 231.195ZM135.806 227.185L135.804 225.179L134.804 225.18L134.806 227.186L135.806 227.185ZM135.802 223.174L135.8 221.169L134.8 221.17L134.802 223.175L135.802 223.174ZM135.798 219.163L135.796 217.158L134.796 217.159L134.798 219.164L135.798 219.163ZM135.794 215.152L135.792 213.147L134.792 213.148L134.794 215.154L135.794 215.152ZM135.79 211.142L135.788 209.136L134.788 209.137L134.79 211.143L135.79 211.142ZM135.786 207.131L135.784 205.126L134.784 205.127L134.786 207.132L135.786 207.131ZM135.782 203.12L135.78 201.115L134.78 201.116L134.782 203.121L135.782 203.12ZM135.778 199.11L135.776 197.104L134.776 197.105L134.778 199.111L135.778 199.11ZM135.774 195.099L135.771 193.093L134.771 193.094L134.774 195.1L135.774 195.099ZM135.769 191.088L135.767 189.083L134.767 189.084L134.769 191.089L135.769 191.088ZM135.765 187.077L135.763 185.072L134.763 185.073L134.765 187.078L135.765 187.077ZM135.761 183.067L135.759 181.061L134.759 181.062L134.761 183.068L135.761 183.067ZM135.757 179.056L135.755 177.05L134.755 177.051L134.757 179.057L135.757 179.056ZM135.753 175.045L135.751 173.04L134.751 173.041L134.753 175.046L135.753 175.045ZM135.749 171.034L135.747 169.029L134.747 169.03L134.749 171.035L135.749 171.034ZM135.745 167.024L135.743 165.018L134.743 165.019L134.745 167.025L135.745 167.024ZM135.741 163.013L135.739 161.007L134.739 161.009L134.741 163.014L135.741 163.013Z" fill="#151515"/>
<path opacity="0.5" d="M44.6314 381.13L50.1507 379.436L45.9236 375.503L44.6314 381.13ZM137.15 280.949L136.467 281.684L137.199 282.365L137.882 281.631L137.15 280.949ZM135.101 283.152L133.735 284.62L134.467 285.301L135.833 283.833L135.101 283.152ZM132.369 286.088L131.003 287.557L131.735 288.238L133.101 286.769L132.369 286.088ZM129.637 289.025L128.271 290.493L129.003 291.174L130.369 289.706L129.637 289.025ZM126.905 291.961L125.539 293.429L126.271 294.111L127.637 292.642L126.905 291.961ZM124.173 294.898L122.807 296.366L123.539 297.047L124.905 295.579L124.173 294.898ZM121.441 297.834L120.075 299.302L120.807 299.984L122.173 298.515L121.441 297.834ZM118.709 300.771L117.343 302.239L118.076 302.92L119.441 301.452L118.709 300.771ZM115.977 303.707L114.611 305.175L115.344 305.857L116.71 304.388L115.977 303.707ZM113.246 306.644L111.88 308.112L112.612 308.793L113.978 307.325L113.246 306.644ZM110.514 309.58L109.148 311.048L109.88 311.729L111.246 310.261L110.514 309.58ZM107.782 312.517L106.416 313.985L107.148 314.666L108.514 313.198L107.782 312.517ZM105.05 315.453L103.684 316.921L104.416 317.602L105.782 316.134L105.05 315.453ZM102.318 318.39L100.952 319.858L101.684 320.539L103.05 319.071L102.318 318.39ZM99.5861 321.326L98.2201 322.794L98.9523 323.475L100.318 322.007L99.5861 321.326ZM96.8542 324.262L95.4882 325.731L96.2204 326.412L97.5863 324.944L96.8542 324.262ZM94.1223 327.199L92.7564 328.667L93.4885 329.348L94.8545 327.88L94.1223 327.199ZM91.3904 330.135L90.0245 331.604L90.7566 332.285L92.1226 330.817L91.3904 330.135ZM88.6585 333.072L87.2926 334.54L88.0247 335.221L89.3907 333.753L88.6585 333.072ZM85.9266 336.008L84.5607 337.477L85.2929 338.158L86.6588 336.69L85.9266 336.008ZM83.1948 338.945L81.8288 340.413L82.561 341.094L83.9269 339.626L83.1948 338.945ZM80.4629 341.881L79.0969 343.35L79.8291 344.031L81.195 342.562L80.4629 341.881ZM77.731 344.818L76.3651 346.286L77.0972 346.967L78.4631 345.499L77.731 344.818ZM74.9991 347.754L73.6332 349.223L74.3653 349.904L75.7313 348.435L74.9991 347.754ZM72.2672 350.691L70.9013 352.159L71.6334 352.84L72.9994 351.372L72.2672 350.691ZM69.5353 353.627L68.1694 355.095L68.9016 355.777L70.2675 354.308L69.5353 353.627ZM66.8035 356.564L65.4375 358.032L66.1697 358.713L67.5356 357.245L66.8035 356.564ZM64.0716 359.5L62.7056 360.968L63.4378 361.65L64.8037 360.181L64.0716 359.5ZM61.3397 362.437L59.9737 363.905L60.7059 364.586L62.0718 363.118L61.3397 362.437ZM58.6078 365.373L57.2419 366.841L57.974 367.522L59.34 366.054L58.6078 365.373ZM55.8759 368.31L54.51 369.778L55.2421 370.459L56.6081 368.991L55.8759 368.31ZM53.144 371.246L51.7781 372.714L52.5102 373.395L53.8762 371.927L53.144 371.246ZM50.4122 374.183L49.0462 375.651L49.7784 376.332L51.1443 374.864L50.4122 374.183ZM47.6803 377.119L46.3143 378.587L47.0465 379.268L48.4124 377.8L47.6803 377.119Z" fill="#151515"/>
<path opacity="0.5" d="M218.149 386.373L212.875 384.024L217.546 380.631L218.149 386.373ZM138.405 275.753L138.994 276.565L138.185 277.152L137.595 276.341L138.405 275.753ZM140.173 278.187L141.351 279.81L140.542 280.397L139.363 278.775L140.173 278.187ZM142.53 281.432L143.708 283.054L142.899 283.642L141.721 282.02L142.53 281.432ZM144.887 284.677L146.066 286.299L145.257 286.887L144.078 285.265L144.887 284.677ZM147.244 287.922L148.423 289.544L147.614 290.132L146.435 288.509L147.244 287.922ZM149.602 291.167L150.78 292.789L149.971 293.377L148.793 291.754L149.602 291.167ZM151.959 294.411L153.138 296.034L152.329 296.622L151.15 294.999L151.959 294.411ZM154.316 297.656L155.495 299.279L154.686 299.866L153.507 298.244L154.316 297.656ZM156.674 300.901L157.852 302.524L157.043 303.111L155.865 301.489L156.674 300.901ZM159.031 304.146L160.21 305.768L159.401 306.356L158.222 304.734L159.031 304.146ZM161.388 307.391L162.567 309.013L161.758 309.601L160.579 307.979L161.388 307.391ZM163.746 310.636L164.924 312.258L164.115 312.846L162.937 311.224L163.746 310.636ZM166.103 313.881L167.282 315.503L166.473 316.091L165.294 314.468L166.103 313.881ZM168.46 317.125L169.639 318.748L168.83 319.336L167.651 317.713L168.46 317.125ZM170.818 320.37L171.996 321.993L171.187 322.581L170.009 320.958L170.818 320.37ZM173.175 323.615L174.354 325.238L173.545 325.825L172.366 324.203L173.175 323.615ZM175.532 326.86L176.711 328.483L175.902 329.07L174.723 327.448L175.532 326.86ZM177.89 330.105L179.068 331.727L178.259 332.315L177.081 330.693L177.89 330.105ZM180.247 333.35L181.426 334.972L180.617 335.56L179.438 333.938L180.247 333.35ZM182.604 336.595L183.783 338.217L182.974 338.805L181.795 337.182L182.604 336.595ZM184.962 339.84L186.14 341.462L185.331 342.05L184.153 340.427L184.962 339.84ZM187.319 343.084L188.498 344.707L187.689 345.295L186.51 343.672L187.319 343.084ZM189.676 346.329L190.855 347.952L190.046 348.539L188.867 346.917L189.676 346.329ZM192.034 349.574L193.212 351.197L192.403 351.784L191.225 350.162L192.034 349.574ZM194.391 352.819L195.57 354.441L194.761 355.029L193.582 353.407L194.391 352.819ZM196.748 356.064L197.927 357.686L197.118 358.274L195.939 356.652L196.748 356.064ZM199.106 359.309L200.284 360.931L199.475 361.519L198.297 359.896L199.106 359.309ZM201.463 362.554L202.642 364.176L201.833 364.764L200.654 363.141L201.463 362.554ZM203.82 365.798L204.999 367.421L204.19 368.009L203.011 366.386L203.82 365.798ZM206.178 369.043L207.356 370.666L206.547 371.253L205.368 369.631L206.178 369.043ZM208.535 372.288L209.714 373.911L208.904 374.498L207.726 372.876L208.535 372.288ZM210.892 375.533L212.071 377.155L211.262 377.743L210.083 376.121L210.892 375.533ZM213.249 378.778L214.428 380.4L213.619 380.988L212.44 379.366L213.249 378.778ZM215.607 382.023L216.785 383.645L215.976 384.233L214.798 382.61L215.607 382.023Z" fill="#151515"/>
<rect x="115" y="128" width="40" height="27" rx="7" fill="#3D86C6"/>
<rect x="218" y="389" width="40" height="27" rx="7" fill="#3EA0F6"/>
<rect x="2" y="389" width="40" height="27" rx="7" fill="#97BAEE"/>
<path d="M136.367 136.326H130.913V134.4H139.247V136.056L135.737 139.656C136.217 139.716 136.679 139.83 137.123 139.998C137.579 140.154 137.975 140.376 138.311 140.664C138.659 140.94 138.935 141.288 139.139 141.708C139.343 142.128 139.445 142.632 139.445 143.22C139.445 143.808 139.337 144.348 139.121 144.84C138.905 145.32 138.605 145.74 138.221 146.1C137.837 146.448 137.369 146.724 136.817 146.928C136.277 147.12 135.683 147.216 135.035 147.216C133.931 147.216 132.983 147.012 132.191 146.604C131.411 146.184 130.751 145.65 130.211 145.002L131.759 143.562C132.215 144.102 132.701 144.516 133.217 144.804C133.745 145.08 134.363 145.218 135.071 145.218C135.695 145.218 136.211 145.044 136.619 144.696C137.039 144.348 137.249 143.88 137.249 143.292C137.249 142.656 136.991 142.17 136.475 141.834C135.959 141.498 135.251 141.33 134.351 141.33H133.325L132.965 139.944L136.367 136.326Z" fill="white"/>
<path d="M234.9 396.39L238.284 395.31H239.832V408H237.636V397.56L235.368 398.19L234.9 396.39Z" fill="white"/>
<path d="M22.0245 397.2C21.4485 397.2 20.9385 397.356 20.4945 397.668C20.0625 397.98 19.6005 398.454 19.1085 399.09L17.5425 397.866C17.8425 397.446 18.1485 397.074 18.4605 396.75C18.7725 396.414 19.1085 396.138 19.4685 395.922C19.8405 395.694 20.2425 395.52 20.6745 395.4C21.1185 395.28 21.6225 395.22 22.1865 395.22C22.8105 395.22 23.3805 395.31 23.8965 395.49C24.4125 395.67 24.8505 395.928 25.2105 396.264C25.5705 396.6 25.8465 397.002 26.0385 397.47C26.2425 397.926 26.3445 398.436 26.3445 399C26.3445 399.504 26.2785 399.954 26.1465 400.35C26.0145 400.746 25.8105 401.13 25.5345 401.502C25.2705 401.874 24.9285 402.252 24.5085 402.636C24.1005 403.02 23.6205 403.44 23.0685 403.896L20.4765 406.056H26.4705V408H17.3625V406.254L21.7005 402.564C22.1325 402.204 22.4985 401.88 22.7985 401.592C23.0985 401.292 23.3385 401.01 23.5185 400.746C23.7105 400.482 23.8485 400.224 23.9325 399.972C24.0165 399.72 24.0585 399.45 24.0585 399.162C24.0585 398.538 23.8605 398.058 23.4645 397.722C23.0805 397.374 22.6005 397.2 22.0245 397.2Z" fill="white"/>
<path d="M135 287L36 287C35.977 232.319 80.3191 188 135 188C189.681 188 234 232.319 234 287L135 287Z" fill="#3D86C6"/>
<path d="M134.706 287L184.07 372.721C136.859 400.054 76.4771 383.838 49.218 336.499C40.1469 320.742 36.0007 305.215 36.0007 287L134.706 287Z" fill="#97BAEE"/>
<path d="M135.023 287L234 287C234 323.562 216.038 354.795 184.5 373.087L135 287L135.023 287Z" fill="#3EA0F6"/>
<circle cx="134.5" cy="286.5" r="64.5" fill="#F7FAFD"/>
</svg>
