<svg width="110" height="79" viewBox="0 0 110 79" fill="none" xmlns="http://www.w3.org/2000/svg">
<path opacity="0.6667" d="M97.5281 20.1709C97.1755 19.6293 96.8376 19.0877 96.4997 18.5754C98.7767 16.3212 98.7767 12.6617 96.5144 10.4075C94.2522 8.13866 90.5796 8.13866 88.3173 10.3929C88.2438 10.4661 88.1704 10.5392 88.097 10.6124H71.3795V10.1733C71.3795 7.21648 68.985 4.83052 66.0176 4.83052C65.0481 4.83052 64.1079 5.094 63.2706 5.57705V5.32821C63.2706 2.37138 60.8467 -0.0145708 57.894 6.69929e-05C55.5142 6.69929e-05 53.4282 1.56631 52.7524 3.8498C50.2698 2.22501 46.9498 2.91298 45.3192 5.38676C45.2017 5.57705 45.0841 5.76734 44.9813 5.97227C42.6456 4.15719 39.2669 4.58168 37.4453 6.90908C36.7108 7.8459 36.3141 9.00228 36.3141 10.2026V10.6417H21.9618C19.8464 8.25576 16.1739 8.02155 13.7794 10.144C11.3849 12.2519 11.1499 15.9113 13.2799 18.2973C13.3681 18.3997 13.4709 18.5022 13.5737 18.6046C13.2506 19.117 12.9127 19.6439 12.5454 20.2002C5.68511 30.8418 0 40.0489 0 44.8794C0 54.5989 7.90331 62.4886 17.6723 62.4886C27.4412 62.4886 35.3445 54.6135 35.3445 44.8794C35.3445 40.0343 29.6595 30.8418 22.7992 20.2002C22.4466 19.6586 22.1087 19.117 21.7708 18.6046C21.8443 18.5315 21.9031 18.4583 21.9765 18.3851H36.3141V39.3463C36.3141 42.4203 37.9741 46.4456 39.5753 50.3393C40.1923 51.847 40.7946 53.2961 41.25 54.5842H40.2364C38.4589 54.5842 37.0045 56.0187 37.0045 57.8045V63.6304C37.0045 64.8307 37.6803 65.9431 38.7674 66.4847V77.5655C38.7674 78.3559 39.4137 79 40.207 79H69.0585C69.8518 79 70.4982 78.3559 70.4982 77.5655V66.4847C71.5852 65.9431 72.261 64.8307 72.261 63.6304V57.8045C72.261 56.0334 70.8213 54.5842 69.0291 54.5842H67.9714C69.5433 49.6806 71.5412 44.9233 73.9357 40.371C75.0962 38.4681 75.9335 36.3895 76.4036 34.2231L78.6953 22.9374C79.0919 21.4297 78.7393 19.8342 77.7698 18.6193C77.711 18.5461 77.6375 18.4729 77.5788 18.3997H88.0529C88.1116 18.4729 88.1851 18.5461 88.2586 18.6193C87.9354 19.1316 87.5828 19.6732 87.2302 20.2148C80.3699 30.8564 74.6848 40.0489 74.6848 44.894C74.5967 54.6135 82.4413 62.5618 92.1955 62.635C101.95 62.7082 109.927 54.9063 110 45.1868C110 45.0843 110 44.9965 110 44.894C110 40.0489 104.315 30.8564 97.4546 20.2148L97.5281 20.1709ZM92.4012 11.3297C94.164 11.3297 95.5889 12.7349 95.5889 14.4914C95.5889 16.248 94.1787 17.6678 92.4159 17.6678C90.653 17.6678 89.2281 16.2626 89.2281 14.5061C89.2281 12.7642 90.653 11.3443 92.4012 11.3443V11.3297ZM66.0176 7.45068C67.5307 7.45068 68.75 8.66561 68.75 10.1733V11.4614C67.0166 10.7442 65.1509 10.4221 63.2853 10.51V10.1733C63.2853 8.66561 64.5192 7.45068 66.0176 7.45068ZM55.9843 3.41066C57.042 2.34211 58.7754 2.34211 59.8478 3.41066C60.3619 3.92298 60.6557 4.6256 60.6557 5.34285V10.671C59.1133 10.8174 57.3211 11.0662 55.191 11.4468V5.31357C55.191 4.59632 55.4848 3.89371 55.9989 3.38139L55.9843 3.41066ZM55.1763 19.6878C55.2644 19.7171 55.3379 19.7318 55.426 19.761C57.1007 20.3758 58.8635 20.7271 60.641 20.771V24.3573C60.6116 25.865 59.363 27.0506 57.8499 27.0214C56.3809 26.9921 55.2057 25.8211 55.1763 24.3573V19.6878ZM47.0673 8.31431C47.0673 6.80662 48.2866 5.59169 49.7997 5.59169C51.254 5.59169 52.4586 6.73343 52.5321 8.18257V11.9591L52.2677 12.0177C51.7682 12.1201 51.3715 12.5007 51.254 12.9984C50.8427 14.7842 51.3128 16.6432 52.5321 18.0191V21.5322C52.5321 21.5322 52.5321 21.5761 52.5321 21.5907C52.4145 23.0984 51.0924 24.2109 49.594 24.0938C48.1691 23.9767 47.082 22.8057 47.0673 21.3858V8.29967V8.31431ZM38.9584 10.1733C38.9584 8.66561 40.1923 7.45068 41.6907 7.45068C43.0275 7.45068 44.1587 8.41677 44.3937 9.71953C44.3937 9.77808 44.4084 9.822 44.4378 9.88055V19.9367C44.4084 20.0099 44.379 20.0831 44.3496 20.1709C43.9824 21.6347 42.4987 22.5129 41.0296 22.147C39.8104 21.8396 38.9584 20.7564 38.9584 19.4975V10.1733ZM17.6723 11.3297C19.4351 11.3297 20.8601 12.7349 20.8601 14.4914C20.8601 16.248 19.4498 17.6678 17.687 17.6678C15.9242 17.6678 14.4992 16.2626 14.4992 14.5061C14.4992 12.7642 15.9241 11.3443 17.6723 11.3443V11.3297ZM17.6723 59.8392C9.88648 59.8392 3.39342 53.8963 2.70299 46.1675H32.6563C31.9658 53.8963 25.4728 59.8245 17.687 59.8392H17.6723ZM20.5809 21.5907C24.988 28.4266 31.4516 38.4534 32.5387 43.5474H2.79112C3.8782 38.4534 10.3419 28.4266 14.7489 21.5907C15.1162 21.0345 15.4541 20.4929 15.7919 19.966C16.9965 20.3758 18.3187 20.3758 19.5232 19.966C19.8611 20.4929 20.2137 21.0345 20.5662 21.5907H20.5809ZM23.328 13.2326H36.3141V15.7356H23.328C23.519 14.9159 23.519 14.0523 23.328 13.2326ZM41.3969 76.3506V66.8068H67.8833V76.3506H41.3969ZM69.6461 57.7753V63.6011C69.6461 63.9231 69.3817 64.1866 69.0438 64.2012H40.2364C39.9132 64.2012 39.6488 63.9378 39.6341 63.6011V57.7753C39.6341 57.4532 39.8985 57.1898 40.2364 57.1751H69.0438C69.367 57.1751 69.6314 57.4386 69.6461 57.7753ZM76.1392 22.3812L73.8475 33.6669C73.4362 35.5698 72.687 37.3995 71.6586 39.0682C69.0291 44.0158 66.8844 49.2122 65.2391 54.5696H44.0411C43.5417 53.0034 42.8072 51.2176 42.0286 49.3293C40.589 45.8455 38.9584 41.8933 38.9584 39.3463V24.1231C40.8534 25.2502 43.2479 25.1038 44.9813 23.7571C46.274 26.4066 49.4765 27.4898 52.1354 26.2016C52.3411 26.0992 52.5467 25.9821 52.7377 25.8503C53.5604 28.6901 56.5278 30.3295 59.3777 29.5098C61.6694 28.8511 63.2559 26.7579 63.2559 24.3719V24.1231C64.4164 24.8111 65.7973 25.0453 67.1194 24.7525C67.2222 25.0013 67.3104 25.2502 67.4132 25.5283C64.6221 27.3141 60.7292 31.5298 59.7596 34.0328C59.4952 34.7062 59.8184 35.4673 60.4941 35.7455C61.1699 36.0089 61.9338 35.6869 62.2129 35.0136V34.9843C63.0649 32.7886 67.4426 28.2216 69.5433 27.358C70.1896 27.0945 70.5128 26.3627 70.2778 25.704C69.8371 24.5037 69.4405 23.4937 69.0732 22.6447C68.5884 21.3126 67.8392 20.0831 66.8697 19.0438C65.7239 18.0777 64.1961 17.7264 62.7417 18.0777C60.5382 18.3704 58.2906 18.107 56.234 17.3019C56.1899 17.2872 56.1458 17.2726 56.0871 17.258C54.7503 16.9506 53.7807 15.7796 53.7367 14.4036L54.1039 14.3304C56.6894 13.7888 59.3042 13.4229 61.9338 13.218C61.9338 13.218 62.0366 13.218 62.0954 13.218C66.4143 12.9691 67.8392 13.8767 69.4992 14.9306L69.6608 15.033C71.9525 16.4675 74.0091 18.2387 75.7425 20.3026C76.2126 20.9028 76.3448 21.7078 76.1098 22.4251L76.1392 22.3812ZM63.4909 20.5954C64.4311 20.5222 64.7102 20.5661 65.0775 20.9028C65.4447 21.2834 65.7679 21.7371 66.0029 22.2202C64.9159 22.2202 63.9316 21.5761 63.5056 20.5954H63.4909ZM75.0227 15.7356C74.0091 14.8281 72.922 13.9938 71.7762 13.2326H86.7014C86.5104 14.0523 86.5104 14.9159 86.7014 15.7356H75.0227ZM89.4631 21.5761C89.8304 21.0199 90.1683 20.4783 90.5062 19.9513C91.7108 20.3612 93.0328 20.3612 94.2374 19.9513C94.5753 20.4783 94.9279 21.0199 95.2805 21.5761C99.6875 28.4119 106.151 38.4388 107.238 43.5327H77.4906C78.5777 38.4534 85.0414 28.4119 89.4485 21.5761H89.4631ZM92.3718 59.8246C84.586 59.8246 78.0929 53.8816 77.4025 46.1529H107.356C106.665 53.8816 100.172 59.8099 92.3865 59.8246H92.3718Z" fill="#3CD1E7"/>
</svg>
