<svg width="94" height="94" viewBox="0 0 94 94" fill="none" xmlns="http://www.w3.org/2000/svg">
<path opacity="0.6667" fill-rule="evenodd" clip-rule="evenodd" d="M93.7778 23.2031C93.7778 23.2031 93.7778 23.114 93.7778 23.0695C93.7778 23.0546 93.7778 23.0398 93.7778 23.0249C93.7778 22.9656 93.7778 22.9062 93.7778 22.8468C93.7778 22.7874 93.763 22.728 93.7482 22.6835C93.7482 22.6835 93.7482 22.6538 93.7482 22.639C93.7482 22.5944 93.7185 22.5499 93.7037 22.5054C93.7037 22.5054 93.7037 22.4757 93.7037 22.4608C93.6741 22.4015 93.6593 22.3569 93.6296 22.2975L84.3404 6.57644C84.2812 6.47252 84.2071 6.38345 84.1182 6.29438C84.1182 6.29438 84.1033 6.27953 84.0885 6.26469C84.0589 6.235 84.0293 6.20531 83.9848 6.17562C83.9848 6.17562 83.9552 6.16077 83.9404 6.14593C83.8959 6.11624 83.8515 6.08654 83.807 6.05685C83.7626 6.02716 83.7033 5.99747 83.6441 5.98263C83.6441 5.98263 83.6145 5.98263 83.5996 5.96778C83.5552 5.95294 83.5108 5.93809 83.4663 5.92325C83.4663 5.92325 83.4367 5.92325 83.4219 5.92325C83.3033 5.89356 83.1848 5.87871 83.0663 5.87871C83.0663 5.87871 83.0515 5.87871 83.0367 5.87871C82.9922 5.87871 82.9478 5.87871 82.8885 5.87871C82.8737 5.87871 82.8589 5.87871 82.844 5.87871C82.7996 5.87871 82.7551 5.89356 82.6959 5.9084H82.6663C77.9254 7.22963 76.192 6.56159 74.1919 5.80448C72.3548 5.10676 70.2955 4.33481 66.3249 4.78016C65.436 2.01895 62.8433 0 59.7914 0C56.7394 0 54.1467 2.00411 53.2578 4.78016C49.2873 4.31996 47.2279 5.10676 45.3908 5.80448C43.3908 6.56159 41.6574 7.22963 36.9165 5.9084C36.9165 5.9084 36.8868 5.9084 36.872 5.9084C36.8276 5.9084 36.7831 5.89356 36.7387 5.87871C36.7239 5.87871 36.709 5.87871 36.6794 5.87871C36.635 5.87871 36.5905 5.87871 36.5461 5.87871C36.5461 5.87871 36.5313 5.87871 36.5165 5.87871C36.5165 5.87871 36.5165 5.87871 36.5016 5.87871C36.3831 5.87871 36.2646 5.89356 36.1461 5.92325C36.1313 5.92325 36.1165 5.92325 36.1016 5.92325C36.0572 5.92325 36.0275 5.95294 35.9831 5.96778C35.9683 5.96778 35.9535 5.96778 35.9386 5.98263C35.8794 6.01232 35.8349 6.02716 35.7905 6.05685C35.7905 6.05685 35.7905 6.05685 35.7757 6.05685C35.7313 6.08654 35.6868 6.11624 35.6424 6.14593C35.6424 6.14593 35.6127 6.17562 35.5979 6.17562C35.5683 6.20531 35.5386 6.235 35.4942 6.26469C35.4942 6.26469 35.4645 6.27953 35.4645 6.29438C35.3757 6.38345 35.3016 6.47252 35.2423 6.57644C35.2423 6.57644 35.2423 6.57644 35.2423 6.59128L25.9531 22.3124C25.9235 22.3569 25.8938 22.4163 25.879 22.4757C25.879 22.4757 25.879 22.5054 25.879 22.5202C25.8642 22.5647 25.8494 22.6093 25.8346 22.6538V22.6984C25.8346 22.6984 25.7901 22.8023 25.7901 22.8617C25.7901 22.921 25.7901 22.9804 25.7901 23.0398C25.7901 23.0546 25.7901 23.0695 25.7901 23.0843C25.7901 23.1289 25.7901 23.1734 25.7901 23.2179C25.7901 23.2328 25.7901 23.2625 25.7901 23.2773C25.7901 23.2773 25.7901 23.307 25.7901 23.3219C26.6939 28.5919 31.2274 32.422 36.5757 32.422C41.924 32.422 46.4575 28.5919 47.3613 23.3219C47.3613 23.3219 47.3613 23.2922 47.3613 23.2773C47.3613 23.2625 47.3613 23.2328 47.3613 23.2179C47.3613 23.1734 47.3613 23.1289 47.3613 23.0843C47.3613 23.0695 47.3613 23.0546 47.3613 23.0398C47.3613 22.9804 47.3613 22.921 47.3613 22.8617C47.3613 22.8023 47.3465 22.7429 47.3317 22.6984C47.3317 22.6984 47.3317 22.6687 47.3317 22.6538C47.3317 22.6093 47.302 22.5647 47.2872 22.5202C47.2872 22.5202 47.2872 22.4905 47.2872 22.4757C47.2576 22.4163 47.2428 22.3718 47.2131 22.3124L39.6721 9.56033C40.3981 9.6494 41.05 9.69393 41.6574 9.69393C43.7908 9.69393 45.1982 9.15951 46.5761 8.63992C48.2354 8.01642 49.8206 7.40777 53.1096 7.80859C53.4948 10.6589 55.6282 12.945 58.3839 13.5834V40.9431C55.6282 41.1807 52.9615 42.0862 50.6207 43.5856C47.9243 45.3076 45.7612 47.7571 44.3686 50.6371C44.1464 51.1121 44.176 51.6614 44.4427 52.1068C44.7094 52.5521 45.1983 52.8193 45.7316 52.8193H74.0882C74.6067 52.8193 75.0956 52.5521 75.3771 52.1068C75.6586 51.6614 75.6882 51.1121 75.4512 50.6371C74.0586 47.7571 71.8955 45.3225 69.1991 43.5856C66.8583 42.0862 64.1915 41.1807 61.4211 40.9431V13.5537C64.1767 12.9302 66.3101 10.6292 66.6953 7.79375C69.9843 7.40777 71.5696 8.00158 73.2289 8.62508C74.6067 9.14466 76.0142 9.67909 78.1476 9.67909C78.7402 9.67909 79.4069 9.63455 80.1329 9.54548L72.5919 22.2975C72.5622 22.3421 72.5325 22.4015 72.5029 22.4608V22.4905C72.4881 22.5351 72.4733 22.5796 72.4585 22.639C72.4585 22.639 72.4585 22.6687 72.4585 22.6835C72.4585 22.7429 72.4289 22.8023 72.4289 22.8617C72.4289 22.921 72.4289 22.9804 72.4289 23.0398C72.4289 23.0398 72.4289 23.0695 72.4289 23.0843C72.4289 23.1289 72.4289 23.1734 72.4289 23.2179C72.4289 23.2328 72.4289 23.2625 72.4289 23.2773C72.4289 23.2922 72.4289 23.307 72.4289 23.3219C73.3326 28.5919 77.8661 32.422 83.2144 32.422C88.5628 32.422 93.0963 28.5919 94 23.3219C94 23.3219 94 23.2922 94 23.2773C94 23.2476 94 23.2328 94 23.2179L93.7778 23.2031ZM36.4424 29.3787C33.1978 29.3787 30.3829 27.434 29.1532 24.5689H43.7167C42.5018 27.434 39.6721 29.3787 36.4276 29.3787H36.4424ZM29.8051 21.5404L36.4424 10.3174L43.0797 21.5404H29.8051ZM71.2436 49.7464H48.2058C50.8577 46.0796 55.0801 43.8677 59.7321 43.8677C64.3841 43.8677 68.6065 46.0647 71.2584 49.7464H71.2436ZM59.7173 10.6886C57.6135 10.6886 55.8949 8.96652 55.8949 6.8585C55.8949 4.75047 57.6135 3.02843 59.7173 3.02843C61.8211 3.02843 63.5396 4.75047 63.5396 6.8585C63.5396 8.96652 61.8211 10.6886 59.7173 10.6886ZM82.9922 10.3174L89.6295 21.5404H76.3549L82.9922 10.3174ZM82.9922 29.3787C79.7476 29.3787 76.9327 27.434 75.703 24.5689H90.2666C89.0517 27.434 86.2219 29.3787 82.9774 29.3787H82.9922ZM75.8956 58.03L59.4358 67.6349C58.6506 68.0951 57.8654 68.4217 57.0357 68.6295C57.332 68.1248 57.569 67.5755 57.732 66.9668C58.5765 63.79 56.695 60.4795 53.4504 59.4255C53.3911 59.4106 53.3171 59.3809 53.2578 59.3809C48.5317 58.5199 43.8649 56.8424 40.1166 55.4766C38.8128 55.0016 37.5831 54.5562 36.5312 54.2148C32.2941 52.8342 28.4717 54.5414 25.3012 56.3822L13.1082 63.4634L11.9822 61.4593C11.4637 60.5388 10.6192 59.8857 9.61179 59.6036C8.58953 59.3215 7.53763 59.4551 6.61908 59.9747L1.9967 62.5875C0.115147 63.6563 -0.566359 66.0761 0.515161 67.9615L14.086 91.9959C14.812 93.2726 16.1453 94 17.5232 94C18.1751 94 18.8417 93.8367 19.4492 93.4953L24.0716 90.8825C24.9901 90.3629 25.642 89.5167 25.9235 88.5073C26.205 87.4829 26.0717 86.4289 25.5531 85.5085L24.1753 83.0739L26.9013 81.5003L47.9687 87.1563C49.1687 87.4829 50.3392 87.6314 51.48 87.6314C53.7764 87.6314 55.9542 86.993 58.0135 85.7164L87.8813 67.2786C90.6221 65.5862 91.4962 61.3108 89.7184 58.3269C88.8443 56.8721 85.2886 52.567 75.9105 58.03H75.8956ZM22.9752 87.6759C22.916 87.9135 22.753 88.1064 22.5456 88.2252L17.9232 90.838C17.4936 91.0755 16.9306 90.927 16.6787 90.4965L3.10785 66.4621C2.8708 66.0316 3.01895 65.4675 3.44859 65.2151L8.07098 62.6023C8.20431 62.5281 8.35247 62.4836 8.51544 62.4836C8.60433 62.4836 8.67841 62.4836 8.7673 62.5133C9.00435 62.5726 9.19694 62.7359 9.31546 62.9438L22.8863 86.9782C23.0048 87.186 23.0345 87.4384 22.9604 87.6759H22.9752ZM86.2812 64.6955L56.4135 83.1333C54.0578 84.5881 51.4651 84.9444 48.7243 84.217L27.0643 78.3977C26.6791 78.2937 26.2643 78.3531 25.9235 78.5461L22.6789 80.4315L14.5897 66.1058L26.8124 59.0098C29.5532 57.4213 32.5015 56.1001 35.5979 57.0948C36.5905 57.4213 37.7461 57.837 39.0795 58.3269C42.9019 59.7075 47.6724 61.4296 52.6059 62.35C54.2949 62.9438 55.2431 64.5767 54.8134 66.1949C54.2504 68.3177 52.4726 68.585 51.0651 68.4217C48.6502 67.9169 46.339 67.2637 43.9093 66.566C42.7537 66.2394 41.5536 65.898 40.324 65.5565C39.5239 65.3339 38.6795 65.8237 38.4721 66.6254C38.2498 67.427 38.7387 68.2732 39.5388 68.481C40.7388 68.8076 41.924 69.1491 43.0648 69.4757C45.5834 70.1882 47.9539 70.8711 50.5022 71.3907C50.5022 71.3907 50.517 71.3907 50.5318 71.3907C50.5318 71.3907 50.5466 71.3907 50.5614 71.3907L52.6059 71.7173C55.6727 72.2072 58.4135 71.7173 60.947 70.2476L77.4068 60.6428C82.1181 57.8964 85.733 57.5995 87.096 59.8708C88.0294 61.4296 87.6146 63.8642 86.2812 64.6807V64.6955ZM9.38954 67.2044C9.52288 68.1099 8.90063 68.9412 7.9969 69.0749C7.09316 69.2085 6.26351 68.585 6.13017 67.6794C5.99683 66.7738 6.61908 65.9425 7.52282 65.8089C8.42655 65.6753 9.2562 66.2988 9.38954 67.2044Z" fill="#3CD1E7"/>
</svg>
