<svg width="93" height="93" viewBox="0 0 93 93" fill="none" xmlns="http://www.w3.org/2000/svg">
<path opacity="0.666" d="M34.5638 51.2088H67.7338C69.5783 51.2088 71.2833 50.2013 72.1668 48.5583C73.1278 46.8533 73.0813 44.7453 72.0428 43.0868L55.4578 16.4268C54.0008 14.0553 50.9008 13.2958 48.5293 14.7528C47.8473 15.1713 47.2738 15.7448 46.8553 16.4268L30.2703 43.1023C29.2473 44.7763 29.2008 46.8688 30.1463 48.5738C31.0298 50.2013 32.7348 51.2088 34.5793 51.2088H34.5638ZM32.8898 44.7298L49.4748 18.0698C50.0173 17.1398 51.2108 16.8298 52.1408 17.3878C52.4198 17.5583 52.6523 17.7908 52.8228 18.0698L69.4078 44.7298C69.8573 45.4428 69.8728 46.3263 69.4543 47.0548C69.1133 47.6903 68.4623 48.0933 67.7338 48.1088H34.5638C33.8353 48.1088 33.1843 47.6903 32.8433 47.0548C32.4248 46.3263 32.4558 45.4428 32.8898 44.7298Z" fill="#3CD1E7"/>
<path opacity="0.666" d="M89.4505 56.3076C88.195 55.9511 86.8465 56.1061 85.715 56.7416L82.4445 58.5861C82.305 58.1831 82.088 57.7956 81.8245 57.4546L77.531 51.8746C78.12 50.6811 78.6315 49.4566 79.05 48.1856L86.0405 47.2711C87.8075 47.0541 89.2335 45.7056 89.5125 43.9386C90.024 40.5131 90.024 37.0411 89.5125 33.6311C89.2335 31.8641 87.823 30.4846 86.0405 30.2676L79.05 29.3531C78.6315 28.0976 78.12 26.8731 77.531 25.6796L81.8245 20.0996C82.9095 18.6891 82.9405 16.7206 81.9175 15.2636C80.8945 13.8841 79.763 12.5666 78.554 11.3421C77.3295 10.1176 76.012 8.98613 74.617 7.96313C73.16 6.94013 71.207 6.98662 69.7965 8.07162L64.2165 12.3651C63.023 11.7761 61.7985 11.2801 60.543 10.8461L59.6285 3.85562C59.4115 2.08862 58.0475 0.662625 56.2805 0.383625C52.855 -0.127875 49.383 -0.127875 45.9575 0.383625C44.1905 0.662625 42.8265 2.07312 42.6095 3.85562L41.695 10.8461C40.4395 11.2646 39.1995 11.7761 38.006 12.3651L32.426 8.07162C31.0155 6.97112 29.047 6.92463 27.6055 7.96313C26.2105 8.98613 24.9085 10.1176 23.684 11.3421C22.475 12.5666 21.3435 13.8841 20.305 15.2636C19.2665 16.7206 19.2975 18.6891 20.398 20.0841L24.6915 25.6486C24.1025 26.8421 23.6065 28.0666 23.1725 29.3221L16.1665 30.2366C14.3995 30.4691 12.989 31.8331 12.6945 33.6001C12.1985 37.0256 12.1985 40.4976 12.6945 43.9231C12.989 45.6746 14.3995 47.0231 16.1665 47.2401L23.1725 48.1546C23.591 49.4101 24.1025 50.6501 24.6915 51.8436L20.398 57.4391C20.0725 57.8731 19.84 58.3691 19.7005 58.8961L18.4605 59.4231C17.9955 57.2996 16.1045 55.7806 13.9345 55.7651H4.65C2.077 55.7651 0 57.8421 0 60.4151V82.1151C0 84.6881 2.077 86.7651 4.65 86.7651H13.95C16.399 86.7651 18.414 84.8586 18.569 82.4096C18.879 82.4096 19.2045 82.4406 19.499 82.5336L51.0725 92.6396C53.4905 93.3526 56.0945 92.8721 58.0785 91.3221L91.1245 64.8171C92.3025 63.8871 92.9845 62.4611 92.9845 60.9731C92.9845 60.1361 92.7675 59.3146 92.3645 58.5861C91.729 57.4546 90.675 56.6176 89.435 56.2611L89.4505 56.3076ZM24.583 45.2561L16.6005 44.2176C16.213 44.1711 15.8875 43.8921 15.7945 43.5046C15.345 40.3891 15.345 37.2271 15.7945 34.1116C15.872 33.7086 16.1975 33.4141 16.6005 33.3676L24.583 32.3291C25.1875 32.2516 25.6835 31.8331 25.8695 31.2441C26.381 29.5236 27.063 27.8651 27.9155 26.2841C28.21 25.7416 28.148 25.0906 27.776 24.5946L22.878 18.2396C22.6145 17.9296 22.599 17.4956 22.816 17.1546C23.7615 15.8836 24.7845 14.6901 25.9005 13.5741C27.0165 12.4581 28.21 11.4351 29.4655 10.5051C29.8065 10.2881 30.2405 10.3036 30.5505 10.5671L36.921 15.4651C37.4015 15.8371 38.068 15.8836 38.6105 15.6046C40.1915 14.7521 41.8655 14.0701 43.586 13.5586C44.175 13.3881 44.5935 12.8766 44.671 12.2721L45.7095 4.30512C45.756 3.90212 46.0505 3.57662 46.438 3.49912C49.5535 3.03412 52.731 3.03412 55.8465 3.49912C56.234 3.57662 56.544 3.90212 56.575 4.30512L57.6135 12.2721C57.691 12.8766 58.1095 13.3726 58.6985 13.5586C60.419 14.0701 62.0775 14.7676 63.674 15.6046C64.2165 15.8991 64.8675 15.8371 65.3635 15.4651L71.7185 10.5671C72.0285 10.3191 72.4625 10.2881 72.8035 10.5051C75.3455 12.3651 77.5775 14.6126 79.453 17.1546C79.6855 17.4956 79.67 17.9451 79.4065 18.2706L74.5085 24.6256C74.1365 25.1061 74.0745 25.7726 74.369 26.3151C75.2215 27.8961 75.9035 29.5546 76.415 31.2751C76.5855 31.8641 77.097 32.2826 77.7015 32.3601L85.6685 33.3986C86.0715 33.4296 86.4125 33.7396 86.4745 34.1426C86.707 35.6926 86.831 37.2581 86.831 38.8391C86.831 40.4201 86.707 41.9856 86.4745 43.5511C86.397 43.9386 86.0715 44.2331 85.6685 44.2641L77.7015 45.3026C77.097 45.3801 76.601 45.7986 76.415 46.3876C75.9035 48.1081 75.206 49.7666 74.369 51.3631C74.0745 51.9056 74.1365 52.5566 74.5085 53.0526L79.422 59.4386C79.608 59.7021 79.6545 60.0276 79.5305 60.3376L71.145 65.0806C70.6025 63.2826 69.0835 61.9496 67.239 61.6551L64.5885 61.2056C64.5885 61.2056 64.511 61.2056 64.4645 61.2056L32.6275 56.0596C30.0545 55.6566 27.435 55.9046 24.986 56.7726L27.838 53.0681C28.21 52.5876 28.2565 51.9211 27.9775 51.3786C27.125 49.7976 26.443 48.1236 25.9315 46.4186C25.761 45.8296 25.2495 45.4111 24.645 45.3336L24.583 45.2561ZM15.5 82.1616C15.5 83.0141 14.8025 83.7116 13.95 83.7116H4.65C3.7975 83.7116 3.1 83.0141 3.1 82.1616V60.4616C3.1 59.6091 3.7975 58.9116 4.65 58.9116H13.95C14.8025 58.9116 15.5 59.6091 15.5 60.4616V82.1616ZM89.2025 62.4456L56.1565 88.9351C54.9785 89.8496 53.4285 90.1441 51.987 89.7256L20.429 79.6351C19.84 79.4491 19.2355 79.3561 18.631 79.3561H18.5845V62.8021L25.947 59.6091C27.9155 58.9116 30.0235 58.7101 32.0695 59.0511L66.6655 64.6466C67.5335 64.7861 68.169 65.5301 68.1845 66.4136C68.1845 66.6461 68.138 66.8786 68.0605 67.0956C67.983 67.3281 67.8435 67.5141 67.6885 67.6691C67.3475 68.0101 66.8825 68.2116 66.3865 68.2116H36.952C36.0995 68.2116 35.402 68.9091 35.402 69.7616C35.402 70.6141 36.0995 71.3116 36.952 71.3116H42.7025L51.7235 76.9071C53.134 77.6976 54.8545 77.7131 56.2805 76.9071L66.216 71.2961H66.3865C67.6885 71.2961 68.9285 70.7846 69.8585 69.8701C70.184 69.5446 70.463 69.1881 70.68 68.7851L87.2185 59.4386C88.0865 58.9581 89.1715 59.2681 89.6675 60.1206C89.8225 60.3996 89.9 60.6941 89.9 61.0041C89.9 61.5621 89.6365 62.0891 89.2025 62.4301V62.4456ZM59.923 71.3116L54.777 74.2256C54.3275 74.4736 53.7695 74.4891 53.3045 74.2411L48.5925 71.3116H59.923Z" fill="#3CD1E7"/>
<path opacity="0.666" d="M10.8492 62.0115H7.74922C6.89672 62.0115 6.19922 62.709 6.19922 63.5615C6.19922 64.414 6.89672 65.1115 7.74922 65.1115H10.8492C11.7017 65.1115 12.3992 64.414 12.3992 63.5615C12.3992 62.709 11.7017 62.0115 10.8492 62.0115Z" fill="#3CD1E7"/>
<path opacity="0.666" d="M10.8492 77.5115H7.74922C6.89672 77.5115 6.19922 78.209 6.19922 79.0615C6.19922 79.914 6.89672 80.6115 7.74922 80.6115H10.8492C11.7017 80.6115 12.3992 79.914 12.3992 79.0615C12.3992 78.209 11.7017 77.5115 10.8492 77.5115Z" fill="#3CD1E7"/>
<path opacity="0.666" d="M51.1516 37.2576C52.0041 37.2576 52.7016 36.5601 52.7016 35.7076V23.3076C52.7016 22.4551 52.0041 21.7576 51.1516 21.7576C50.2991 21.7576 49.6016 22.4551 49.6016 23.3076V35.7076C49.6016 36.5601 50.2991 37.2576 51.1516 37.2576Z" fill="#3CD1E7"/>
<path opacity="0.666" d="M51.1516 45.0072C52.0041 45.0072 52.7016 44.3097 52.7016 43.4572V41.9072C52.7016 41.0547 52.0041 40.3572 51.1516 40.3572C50.2991 40.3572 49.6016 41.0547 49.6016 41.9072V43.4572C49.6016 44.3097 50.2991 45.0072 51.1516 45.0072Z" fill="#3CD1E7"/>
</svg>
