<svg width="82" height="85" viewBox="0 0 82 85" fill="none" xmlns="http://www.w3.org/2000/svg">
<path opacity="0.6667" d="M80.7837 65.6447H71.5513V61.0448C78.1992 57.8998 82.0138 50.7645 80.9358 43.4629C80.8667 43.0611 80.6041 42.7148 80.2171 42.5485C78.3927 41.7865 77.0659 40.1654 76.7066 38.2119C76.6236 37.7685 76.3058 37.4083 75.8773 37.2698C74.4676 36.8126 73.0164 36.5355 71.5513 36.4108V12.2616C71.5513 5.50041 66.8384 0 61.0335 0H9.28771C4.16012 0 0 4.84923 0 10.8068V21.0179C0 21.683 0.539033 22.2233 1.20244 22.2233H16.1844V71.5469C16.1844 78.9731 21.3811 85 27.7664 85H71.4822C77.287 85 82 79.4996 82 72.7384V66.85C82 66.185 81.461 65.6447 80.7976 65.6447H80.7837ZM78.6415 44.4605C79.2635 50.5705 75.9188 56.4034 70.3489 58.9527C64.779 56.4034 61.4344 50.5844 62.0563 44.4743C64.0742 43.4214 65.5668 41.5925 66.1888 39.3896C68.9115 38.586 71.8001 38.586 74.509 39.3896C75.131 41.5787 76.6236 43.4214 78.6415 44.4743V44.4605ZM2.39105 19.8126V10.8068C2.39105 6.1793 5.48694 2.41076 9.28771 2.41076C13.0056 2.41076 16.1015 6.1793 16.1844 10.8207V19.8264H2.40486L2.39105 19.8126ZM18.5754 71.5469V10.7791C18.5754 8.03586 17.6218 5.37571 15.8803 3.24205C15.6316 2.9511 15.369 2.66015 15.0925 2.3969H61.0335C65.5116 2.3969 69.1465 6.81663 69.1465 12.2478V36.3969C67.6814 36.5216 66.2302 36.8126 64.8205 37.2559C64.3921 37.3945 64.0742 37.7547 63.9912 38.198C63.6319 40.1516 62.3051 41.7726 60.4807 42.5346C60.1075 42.7009 59.8311 43.0473 59.762 43.4491C59.61 44.3773 59.5409 45.3333 59.5685 46.2755H34.1932C33.5298 46.2893 33.0045 46.8435 33.0184 47.5086C33.0322 48.1459 33.5436 48.6585 34.1932 48.6862H59.8035C60.7571 54.0758 64.24 58.6618 69.1603 61.031V65.6308H37.1509C36.4874 65.6308 35.9484 66.1712 35.9484 66.8362V72.7245C35.9484 78.1557 32.2859 82.5754 27.7802 82.5754C22.7217 82.5754 18.6031 77.6292 18.6031 71.533L18.5754 71.5469ZM79.5813 72.7384C79.5813 78.1695 75.9464 82.5892 71.4684 82.5892H34.0411C36.8192 80.0815 38.3948 76.4931 38.3257 72.7384V68.0554H79.5813V72.7384ZM22.4868 14.2844C22.4868 13.6194 23.0258 13.0791 23.6892 13.0791H35.368C36.0314 13.0652 36.5842 13.5917 36.598 14.2567C36.6118 14.9218 36.0866 15.476 35.4232 15.4898C35.3956 15.4898 35.3818 15.4898 35.3541 15.4898H23.6754C23.012 15.4898 22.473 14.9495 22.473 14.2844H22.4868ZM22.4868 19.1891C22.4868 18.524 23.0258 17.9837 23.6892 17.9837H47.1158C47.7792 17.9698 48.3321 18.4963 48.3459 19.1614C48.3597 19.8264 47.8345 20.3806 47.1711 20.3945C47.1434 20.3945 47.1296 20.3945 47.102 20.3945H23.6754C23.012 20.3945 22.473 19.8541 22.473 19.1891H22.4868ZM22.4868 24.0937C22.4868 23.4287 23.0258 22.8883 23.6892 22.8883H54.2889C54.9523 22.8745 55.5051 23.401 55.519 24.066C55.5328 24.7311 55.0076 25.2853 54.3442 25.2991C54.3165 25.2991 54.3027 25.2991 54.2751 25.2991H23.6754C23.012 25.2991 22.473 24.7588 22.473 24.0937H22.4868ZM31.9127 29.6357C32.3826 30.1068 32.3826 30.8688 31.9127 31.3399L26.8542 36.4385C26.6331 36.6602 26.329 36.7987 25.9973 36.7987C25.6794 36.7987 25.3754 36.674 25.1542 36.4523L22.5144 33.806C22.0583 33.3211 22.0721 32.5591 22.5559 32.1019C23.0258 31.6585 23.7583 31.6585 24.2144 32.1019L25.9973 33.8892L30.1989 29.6496C30.6688 29.1785 31.429 29.1785 31.8989 29.6496L31.9127 29.6357ZM32.9769 31.6862C32.9769 31.0212 33.5159 30.4808 34.1794 30.4808H53.6531C54.3165 30.4808 54.8556 31.0212 54.8556 31.6862C54.8556 32.3513 54.3165 32.8916 53.6531 32.8916H34.1794C33.5159 32.8916 32.9769 32.3513 32.9769 31.6862ZM34.1794 34.1663H64.0327C64.6961 34.1524 65.2489 34.6789 65.2628 35.3439C65.2766 36.009 64.7514 36.5632 64.088 36.577C64.0604 36.577 64.0465 36.577 64.0189 36.577H34.1655C33.5021 36.5632 32.9769 36.009 32.9907 35.3439C33.0046 34.7066 33.5159 34.194 34.1655 34.1663H34.1794ZM22.5144 45.9291C22.0307 45.4719 22.0169 44.7099 22.473 44.2249C22.9291 43.74 23.6892 43.7262 24.1729 44.1834C24.1729 44.1834 24.2006 44.2111 24.2144 44.2249L25.9973 46.0122L30.1989 41.7726C30.6826 41.3154 31.4428 41.3293 31.8989 41.8003C32.3411 42.2714 32.3411 43.0057 31.8989 43.4629L26.8404 48.5615C26.6192 48.7832 26.3152 48.9218 25.9835 48.9218C25.6656 48.9218 25.3615 48.7971 25.1404 48.5754L22.5006 45.9291H22.5144ZM54.8556 43.8093C54.8556 44.4743 54.3165 45.0147 53.6531 45.0147H34.1794C33.5159 45.0147 32.9769 44.4743 32.9769 43.8093C32.9769 43.1443 33.5159 42.6039 34.1794 42.6039H53.6531C54.3165 42.6039 54.8556 43.1443 54.8556 43.8093ZM31.9127 53.8818C32.3826 54.3529 32.3826 55.1149 31.9127 55.586L26.8542 60.6846C26.6331 60.9063 26.329 61.0448 25.9973 61.0448C25.6794 61.0448 25.3754 60.9201 25.1542 60.6985L22.5144 58.0522C22.0169 57.6088 21.9616 56.8468 22.4039 56.348C22.8461 55.8492 23.6063 55.7938 24.1038 56.2372C24.1453 56.2649 24.1729 56.3064 24.2144 56.348L25.9973 58.1353L30.1989 53.8957C30.6688 53.4246 31.429 53.4246 31.8989 53.8957L31.9127 53.8818ZM32.9769 55.9324C32.9769 55.2673 33.5159 54.727 34.1794 54.727H53.6531C54.3165 54.727 54.8556 55.2673 54.8556 55.9324C54.8556 56.5974 54.3165 57.1377 53.6531 57.1377H34.1794C33.5159 57.1377 32.9769 56.5974 32.9769 55.9324ZM34.1794 58.4124H64.0327C64.6961 58.4124 65.2351 58.9527 65.2351 59.6178C65.2351 60.2828 64.6961 60.8232 64.0327 60.8232H34.1794C33.5159 60.8232 32.9769 60.2828 32.9769 59.6178C32.9769 58.9527 33.5159 58.4124 34.1794 58.4124ZM68.9115 50.2518L74.0668 45.0424C74.5505 44.5852 75.3106 44.599 75.7667 45.0701C76.209 45.5412 76.209 46.2755 75.7667 46.7327L69.7546 52.8011C69.5335 53.0228 69.2294 53.1614 68.9115 53.1614C68.5936 53.1614 68.2896 53.0367 68.0684 52.815L64.9311 49.6699C64.4612 49.1989 64.4612 48.4368 64.9311 47.9658C65.401 47.4947 66.1611 47.4947 66.6311 47.9658L68.9115 50.2518Z" fill="#3CD1E7"/>
</svg>
