<svg width="97" height="86" viewBox="0 0 97 86" fill="none" xmlns="http://www.w3.org/2000/svg">
<path opacity="0.666" fill-rule="evenodd" clip-rule="evenodd" d="M77.589 76.1068L71.005 68.2528C71.0718 68.2528 71.1386 68.2528 71.2055 68.2528C74.4139 68.2528 77.071 65.8631 77.4887 62.7716H80.3964V60.7496H77.4386C77.2214 59.5464 76.6532 58.4602 75.8511 57.608H80.3797V55.586H66.1755V57.608H72.1413C73.7288 57.9589 74.9821 59.1788 75.3832 60.7496H66.1755V62.7716H75.3999C74.9654 64.6934 73.2442 66.1138 71.1888 66.1138C70.1694 66.1138 69.2336 65.7628 68.4983 65.178L68.4482 65.2281L66.8941 66.5148L66.8607 66.5483C66.9275 66.5984 66.9777 66.6652 67.0445 66.7154L76.0182 77.4102H78.8757L77.5723 76.1068H77.589Z" fill="#3CD1E7"/>
<path opacity="0.666" fill-rule="evenodd" clip-rule="evenodd" d="M86.0771 52.6788C82.8018 49.4035 78.2899 47.3815 73.2934 47.3815C68.2969 47.3815 63.785 49.4035 60.5097 52.6788C57.2343 55.9541 55.2124 60.466 55.2124 65.4626C55.2124 70.4591 57.2343 74.971 60.5097 78.2463C63.785 81.5216 68.2969 83.5436 73.2934 83.5436C78.2899 83.5436 82.8018 81.5216 86.0771 78.2463C89.3524 74.971 91.3744 70.4591 91.3744 65.4626C91.3744 60.466 89.3524 55.9541 86.0771 52.6788ZM88.6673 51.86C88.3999 51.5425 88.0991 51.2417 87.815 50.9576C85.7095 48.8521 83.136 47.1977 80.2618 46.1616V12.5062C80.2618 11.8377 79.7103 11.2863 79.0419 11.2863H76.4851L84.4729 2.96432L92.4606 11.2863H89.9039C89.2355 11.2863 88.684 11.8377 88.684 12.5062V51.8767L88.6673 51.86ZM67.0101 45.9277C63.8685 46.9303 61.0611 48.685 58.7885 50.9576C58.7216 51.0245 58.6715 51.0746 58.6046 51.1414V20.895C58.6046 20.2265 58.0532 19.6751 57.3847 19.6751H54.828L62.8157 11.3531L70.8035 19.6751H68.2467C67.5783 19.6751 67.0269 20.2265 67.0269 20.895V45.9277H67.0101ZM55.2291 75.1882C55.8975 76.4081 56.6662 77.5611 57.5519 78.6306H2.43977V75.1882H55.2124H55.2291ZM36.9475 72.7484H45.353V29.3005C45.353 28.632 45.9045 28.0806 46.5729 28.0806H49.1296L41.1419 19.7586L33.1541 28.0806H35.7109C36.3793 28.0806 36.9308 28.632 36.9308 29.3005V72.7484H36.9475ZM15.2903 72.7484H23.6959V37.6893C23.6959 37.0208 24.2473 36.4694 24.9157 36.4694H27.4725L19.4847 28.1474L11.497 36.4694H14.0537C14.7222 36.4694 15.2736 37.0208 15.2736 37.6893V72.7484H15.2903ZM59.9749 81.0871C63.5677 84.1452 68.2133 86.0001 73.3101 86.0001C78.975 86.0001 84.1053 83.7107 87.815 79.9842C91.5248 76.2744 93.8309 71.1442 93.8309 65.4793C93.8309 61.7695 92.845 58.2769 91.1238 55.2857V13.7428H95.3182C95.619 13.7428 95.9198 13.6258 96.1704 13.3918C96.655 12.9239 96.6717 12.1552 96.2038 11.6706L85.3586 0.37415L85.3251 0.340729C84.8405 -0.127172 84.0718 -0.110462 83.6039 0.37415L72.8088 11.6205C72.5581 11.8377 72.4077 12.1719 72.4077 12.5229C72.4077 13.1913 72.9592 13.7428 73.6276 13.7428H77.822V45.4598C76.3682 45.1256 74.8642 44.9585 73.3101 44.9585C71.9899 44.9585 70.7032 45.0754 69.4666 45.3261V22.1483H73.661C73.9618 22.1483 74.2626 22.0313 74.5133 21.7973C74.9979 21.3294 75.0146 20.5607 74.5467 20.0761L63.7014 8.77966L63.668 8.74624C63.1834 8.27834 62.4147 8.29505 61.9468 8.77966L51.1516 20.026C50.901 20.2432 50.7506 20.5775 50.7506 20.9284C50.7506 21.5968 51.302 22.1483 51.9705 22.1483H56.1649V54.2162C54.0259 57.4581 52.7893 61.335 52.7893 65.5127C52.7893 68.0694 53.2572 70.5259 54.1094 72.7819H47.7928V30.5538H51.9872C52.288 30.5538 52.5888 30.4368 52.8394 30.2029C53.324 29.735 53.3407 28.9663 52.8728 28.4816L42.0276 17.1852L41.9941 17.1518C41.5095 16.6839 40.7408 16.7006 40.2729 17.1852L29.4778 28.4315C29.2271 28.6488 29.0767 28.983 29.0767 29.3339C29.0767 30.0023 29.6282 30.5538 30.2966 30.5538H34.491V72.7819H26.1356V38.9426H30.33C30.6308 38.9426 30.9316 38.8256 31.1823 38.5917C31.6669 38.1238 31.6836 37.3551 31.2157 36.8704L20.3704 25.574L20.337 25.5406C19.8524 25.0727 19.0837 25.0894 18.6158 25.574L7.82064 36.8203C7.56997 37.0376 7.41958 37.3718 7.41958 37.7227C7.41958 38.3911 7.97103 38.9426 8.63946 38.9426H12.8339V72.7819H1.21989C0.551455 72.7819 0 73.3333 0 74.0018V79.8839C0 80.5524 0.551455 81.1038 1.21989 81.1038H59.9749V81.0871Z" fill="#3CD1E7"/>
</svg>
