<svg width="85" height="103" viewBox="0 0 85 103" fill="none" xmlns="http://www.w3.org/2000/svg">
<path opacity="0.6667" d="M69.0045 42.549C69.0045 27.9247 57.118 16.011 42.4921 16.011C27.8663 16.011 15.9798 27.909 15.9798 42.549C15.9798 51.9885 19.7268 57.6775 23.0487 62.7203C25.7881 66.8807 28.1339 70.5052 28.2914 75.6111C27.1263 76.4936 26.3706 77.8804 26.3706 79.4405V87.115C26.3706 91.8427 30.1491 95.6879 34.825 95.7982L35.1871 97.5789C35.8326 100.762 38.5405 103 41.7837 103H43.2163C46.4595 103 49.1832 100.762 49.8129 97.5789L50.175 95.7982C54.8667 95.6721 58.6294 91.827 58.6294 87.115V79.4405C58.6294 77.8646 57.8579 76.4936 56.7087 75.6111C56.8661 70.4894 59.2119 66.8649 61.9513 62.7203C65.2417 57.6775 68.9887 51.9728 68.9887 42.549H69.0045ZM43.2163 100.494H41.7837C39.7527 100.494 38.0524 99.0918 37.6431 97.1062L37.3912 95.8139H47.6088L47.3569 97.1062C46.9633 99.0918 45.263 100.494 43.2163 100.494ZM56.1104 87.115C56.1104 90.519 53.3395 93.2925 49.9389 93.2925H35.0769C31.6762 93.2925 28.9054 90.519 28.9054 87.115V79.4405C28.9054 78.1798 29.9287 77.1397 31.2039 77.1397H53.8276C55.0871 77.1397 56.1261 78.164 56.1261 79.4405V87.115H56.1104ZM54.2212 74.6655C54.0795 74.6655 53.9535 74.6183 53.8118 74.6183H31.1882C31.0465 74.6183 30.9205 74.6498 30.7789 74.6655C30.3853 69.276 27.8348 65.3993 25.1584 61.3178C21.8837 56.3537 18.4988 51.2163 18.4988 42.5332C18.4988 29.2957 29.2675 18.5167 42.4921 18.5167C55.7168 18.5167 66.4855 29.2957 66.4855 42.5332C66.4855 51.2006 63.1163 56.338 59.8259 61.3178C57.1495 65.3993 54.6147 69.276 54.2054 74.6655H54.2212ZM41.2484 10.7318V1.26071C41.2484 0.567319 41.8152 0 42.5079 0C43.2006 0 43.7674 0.567319 43.7674 1.26071V10.7318C43.7674 11.4252 43.2006 11.9925 42.5079 11.9925C41.8152 11.9925 41.2484 11.4409 41.2484 10.7476V10.7318ZM72.5625 12.4495C73.0506 12.938 73.0506 13.7417 72.5625 14.2303L65.8715 20.9278C65.6196 21.1799 65.3047 21.2902 64.9898 21.2902C64.6749 21.2902 64.3443 21.1642 64.1082 20.9278C63.6201 20.4393 63.6201 19.6356 64.1082 19.147L70.7992 12.4495C71.2873 11.961 72.0745 11.961 72.5783 12.4495H72.5625ZM85 42.5332C85 43.2266 84.4332 43.7939 83.7405 43.7939H74.2786C73.5859 43.7939 73.0191 43.2266 73.0191 42.5332C73.0191 41.8398 73.5859 41.2725 74.2786 41.2725H83.7405C84.4332 41.2725 85 41.8398 85 42.5332ZM72.5625 70.8361C73.0506 71.3247 73.0506 72.1284 72.5625 72.6169C72.3106 72.869 71.9957 72.9793 71.6809 72.9793C71.366 72.9793 71.0354 72.8533 70.7992 72.6169L64.1082 65.9194C63.6201 65.4308 63.6201 64.6271 64.1082 64.1386C64.5962 63.6501 65.3992 63.6501 65.8872 64.1386L72.5783 70.8361H72.5625ZM12.4532 14.246C11.9652 13.7575 11.9652 12.9538 12.4532 12.4653C12.9413 11.9767 13.7442 11.9767 14.2323 12.4653L20.9233 19.1628C21.4114 19.6513 21.4114 20.455 20.9233 20.9435C20.6714 21.1957 20.3566 21.306 20.0417 21.306C19.7268 21.306 19.3962 21.1799 19.16 20.9435L12.469 14.246H12.4532ZM11.9809 42.549C11.9809 43.2423 11.4141 43.8097 10.7214 43.8097H1.2595C0.566776 43.8097 0 43.2423 0 42.549C0 41.8556 0.566776 41.2882 1.2595 41.2882H10.7214C11.4141 41.2882 11.9809 41.8556 11.9809 42.549ZM20.9233 64.1386C21.4114 64.6271 21.4114 65.4308 20.9233 65.9194L14.2323 72.6169C13.9804 72.869 13.6655 72.9793 13.3506 72.9793C13.0358 72.9793 12.7051 72.8533 12.469 72.6169C11.9809 72.1284 11.9809 71.3247 12.469 70.8361L19.16 64.1386C19.6481 63.6501 20.451 63.6501 20.9391 64.1386H20.9233ZM56.8031 38.3256C54.9139 38.3256 53.3395 39.5705 52.8042 41.2882H43.7516V39.3026H47.3412C47.8292 39.3026 48.2701 39.019 48.4747 38.5777L50.5057 34.181C50.6788 34.1968 50.8678 34.2283 51.0409 34.2283C53.371 34.2283 55.2445 32.3372 55.2445 30.0207C55.2445 27.7041 53.3553 25.813 51.0409 25.813C48.7266 25.813 46.8374 27.7041 46.8374 30.0207C46.8374 31.2498 47.3727 32.353 48.2386 33.1252L46.554 36.7812H43.7674V25.2615C43.7674 24.5681 43.2006 24.0008 42.5079 24.0008H40.7131C39.6268 24.0008 38.7137 24.7729 38.509 25.8288L38.1626 27.7199C37.1078 28.035 36.0687 28.4605 35.1084 28.9963L33.534 27.909C32.6524 27.2944 31.4401 27.4047 30.6844 28.1611L28.1497 30.6983C27.3782 31.4705 27.268 32.6524 27.8978 33.5506L28.9841 35.1265C28.4488 36.1036 28.0237 37.1279 27.7088 38.1837L25.8196 38.5304C24.7648 38.7196 23.9933 39.6493 23.9933 40.7367V44.3297C23.9933 45.4171 24.7648 46.3311 25.8196 46.536L27.7088 46.8826C28.0237 47.9385 28.4488 48.9786 28.9841 49.9399L27.8978 51.5158C27.2838 52.3983 27.394 53.6117 28.1497 54.3681L30.6844 56.9053C31.4558 57.6775 32.6366 57.772 33.534 57.1574L35.1084 56.0701C36.0845 56.6059 37.1078 57.0314 38.1626 57.3465L38.509 59.2376C38.6979 60.2934 39.6268 61.0656 40.7131 61.0656H42.5236C43.2163 61.0656 43.7831 60.4983 43.7831 59.8049V48.2852H46.5697L48.2543 51.9412C47.4042 52.7134 46.8531 53.8166 46.8531 55.0457C46.8531 57.3781 48.7424 59.2534 51.0567 59.2534C53.371 59.2534 55.2602 57.3623 55.2602 55.0457C55.2602 52.7292 53.371 50.8381 51.0567 50.8381C50.8678 50.8381 50.6946 50.8696 50.5214 50.8854L48.4905 46.4887C48.2858 46.0474 47.845 45.7638 47.3569 45.7638H43.7674V43.7782H52.82C53.3553 45.4959 54.9454 46.7408 56.8189 46.7408C59.1489 46.7408 61.0224 44.8498 61.0224 42.5332C61.0224 40.2009 59.1489 38.3256 56.8189 38.3256H56.8031ZM51.0567 28.3029C52.0013 28.3029 52.757 29.0594 52.757 30.0049C52.757 30.9504 52.0013 31.7069 51.0567 31.7069C50.1121 31.7069 49.3564 30.9504 49.3564 30.0049C49.3564 29.0751 50.1121 28.3029 51.0567 28.3029ZM52.757 55.0773C52.757 56.0228 52.0013 56.7792 51.0567 56.7792C50.1121 56.7792 49.3564 56.0228 49.3564 55.0773C49.3564 54.1317 50.1121 53.3753 51.0567 53.3753C52.0013 53.3753 52.757 54.1317 52.757 55.0773ZM40.9493 58.56L40.6186 56.7319C40.4612 55.881 39.8472 55.2191 39.0285 54.9827C38.0367 54.699 37.0921 54.3051 36.1947 53.8008C35.4547 53.3753 34.5416 53.4226 33.8174 53.9111L32.2902 54.967L30.0861 52.7607L31.141 51.2321C31.629 50.5229 31.6762 49.6247 31.2512 48.8525C30.7474 47.9543 30.3538 46.993 30.0704 46.0159C29.85 45.1807 29.173 44.5819 28.3228 44.4243L26.4966 44.0933V40.9573L28.3228 40.6264C29.173 40.4688 29.8342 39.8542 30.0704 39.0347C30.3538 38.0419 30.7474 37.0964 31.2512 36.1981C31.6762 35.4575 31.629 34.5434 31.141 33.8185L30.0861 32.2899L32.2902 30.0837L33.8174 31.1395C34.5258 31.6281 35.4232 31.6753 36.1947 31.2498C37.0921 30.7456 38.0524 30.3516 39.0285 30.0679C39.8629 29.8473 40.4612 29.1697 40.6186 28.3187L40.9493 26.4907H41.2484V33.1252C36.6198 33.7397 33.0302 37.711 33.0302 42.5017C33.0302 47.2924 36.604 51.2636 41.2484 51.8782V58.5127H40.9493V58.5442V58.56ZM41.2484 35.6938V49.3883C38.0209 48.7895 35.5492 45.9529 35.5492 42.549C35.5492 39.145 38.0209 36.2927 41.2484 35.7096V35.6938ZM56.8031 44.2352C55.8585 44.2352 55.1028 43.4787 55.1028 42.5332C55.1028 41.5877 55.8585 40.8312 56.8031 40.8312C57.7477 40.8312 58.5034 41.5877 58.5034 42.5332C58.5034 43.4787 57.7477 44.2352 56.8031 44.2352Z" fill="#3CD1E7"/>
</svg>
