<svg width="467" height="369" viewBox="0 0 467 369" fill="none" xmlns="http://www.w3.org/2000/svg">
<path opacity="0.5" d="M373.571 326.861L370.86 321.764L367.801 326.66L373.571 326.861ZM241.505 244.953L242.35 245.481L242.879 244.633L242.034 244.105L241.505 244.953ZM244.039 246.537L245.729 247.592L246.259 246.744L244.569 245.689L244.039 246.537ZM247.419 248.648L249.109 249.703L249.638 248.855L247.949 247.8L247.419 248.648ZM250.798 250.759L252.488 251.814L253.018 250.966L251.328 249.911L250.798 250.759ZM254.178 252.87L255.868 253.925L256.397 253.077L254.708 252.022L254.178 252.87ZM257.557 254.981L259.247 256.036L259.777 255.188L258.087 254.133L257.557 254.981ZM260.937 257.092L262.627 258.148L263.156 257.299L261.467 256.244L260.937 257.092ZM264.316 259.203L266.006 260.259L266.536 259.411L264.846 258.355L264.316 259.203ZM267.696 261.314L269.386 262.37L269.916 261.522L268.226 260.466L267.696 261.314ZM271.075 263.425L272.765 264.481L273.295 263.633L271.605 262.577L271.075 263.425ZM274.455 265.536L276.145 266.592L276.675 265.744L274.985 264.688L274.455 265.536ZM277.835 267.647L279.524 268.703L280.054 267.855L278.364 266.799L277.835 267.647ZM281.214 269.758L282.904 270.814L283.434 269.966L281.744 268.91L281.214 269.758ZM284.594 271.87L286.283 272.925L286.813 272.077L285.123 271.021L284.594 271.87ZM287.973 273.981L289.663 275.036L290.193 274.188L288.503 273.132L287.973 273.981ZM291.353 276.092L293.042 277.147L293.572 276.299L291.882 275.244L291.353 276.092ZM294.732 278.203L296.422 279.258L296.952 278.41L295.262 277.355L294.732 278.203ZM298.112 280.314L299.801 281.369L300.331 280.521L298.641 279.466L298.112 280.314ZM301.491 282.425L303.181 283.48L303.711 282.632L302.021 281.577L301.491 282.425ZM304.871 284.536L306.56 285.591L307.09 284.743L305.401 283.688L304.871 284.536ZM308.25 286.647L309.94 287.703L310.47 286.854L308.78 285.799L308.25 286.647ZM311.63 288.758L313.32 289.814L313.849 288.965L312.16 287.91L311.63 288.758ZM315.009 290.869L316.699 291.925L317.229 291.077L315.539 290.021L315.009 290.869ZM318.389 292.98L320.079 294.036L320.608 293.188L318.919 292.132L318.389 292.98ZM321.768 295.091L323.458 296.147L323.988 295.299L322.298 294.243L321.768 295.091ZM325.148 297.202L326.838 298.258L327.367 297.41L325.678 296.354L325.148 297.202ZM328.527 299.313L330.217 300.369L330.747 299.521L329.057 298.465L328.527 299.313ZM331.907 301.425L333.597 302.48L334.126 301.632L332.437 300.576L331.907 301.425ZM335.286 303.536L336.976 304.591L337.506 303.743L335.816 302.687L335.286 303.536ZM338.666 305.647L340.356 306.702L340.886 305.854L339.196 304.799L338.666 305.647ZM342.045 307.758L343.735 308.813L344.265 307.965L342.575 306.91L342.045 307.758ZM345.425 309.869L347.115 310.924L347.645 310.076L345.955 309.021L345.425 309.869ZM348.805 311.98L350.494 313.035L351.024 312.187L349.334 311.132L348.805 311.98ZM352.184 314.091L353.874 315.146L354.404 314.298L352.714 313.243L352.184 314.091ZM355.564 316.202L357.253 317.258L357.783 316.409L356.093 315.354L355.564 316.202ZM358.943 318.313L360.633 319.369L361.163 318.52L359.473 317.465L358.943 318.313ZM362.323 320.424L364.012 321.48L364.542 320.632L362.852 319.576L362.323 320.424ZM365.702 322.535L367.392 323.591L367.922 322.743L366.232 321.687L365.702 322.535ZM369.082 324.646L370.772 325.702L371.301 324.854L369.612 323.798L369.082 324.646Z" fill="#151515"/>
<path opacity="0.5" d="M132.737 134.282L134.207 139.866L138.308 135.801L132.737 134.282ZM242.5 244.294L241.798 243.587L241.088 244.291L241.789 244.998L242.5 244.294ZM240.396 242.172L238.993 240.757L238.283 241.461L239.685 242.876L240.396 242.172ZM237.59 239.342L236.188 237.927L235.477 238.631L236.88 240.046L237.59 239.342ZM234.785 236.512L233.382 235.097L232.672 235.801L234.075 237.216L234.785 236.512ZM231.98 233.683L230.577 232.268L229.867 232.972L231.27 234.387L231.98 233.683ZM229.174 230.853L227.772 229.438L227.062 230.142L228.464 231.557L229.174 230.853ZM226.369 228.023L224.966 226.608L224.256 227.312L225.659 228.727L226.369 228.023ZM223.564 225.193L222.161 223.778L221.451 224.482L222.854 225.897L223.564 225.193ZM220.758 222.363L219.356 220.948L218.646 221.652L220.048 223.067L220.758 222.363ZM217.953 219.533L216.55 218.118L215.84 218.822L217.243 220.237L217.953 219.533ZM215.148 216.703L213.745 215.289L213.035 215.993L214.438 217.407L215.148 216.703ZM212.342 213.874L210.94 212.459L210.23 213.163L211.632 214.578L212.342 213.874ZM209.537 211.044L208.135 209.629L207.424 210.333L208.827 211.748L209.537 211.044ZM206.732 208.214L205.329 206.799L204.619 207.503L206.022 208.918L206.732 208.214ZM203.927 205.384L202.524 203.969L201.814 204.673L203.216 206.088L203.927 205.384ZM201.121 202.554L199.719 201.139L199.008 201.843L200.411 203.258L201.121 202.554ZM198.316 199.724L196.913 198.309L196.203 199.013L197.606 200.428L198.316 199.724ZM195.511 196.895L194.108 195.48L193.398 196.184L194.8 197.599L195.511 196.895ZM192.705 194.065L191.303 192.65L190.592 193.354L191.995 194.769L192.705 194.065ZM189.9 191.235L188.497 189.82L187.787 190.524L189.19 191.939L189.9 191.235ZM187.095 188.405L185.692 186.99L184.982 187.694L186.385 189.109L187.095 188.405ZM184.289 185.575L182.887 184.16L182.177 184.864L183.579 186.279L184.289 185.575ZM181.484 182.745L180.081 181.33L179.371 182.034L180.774 183.449L181.484 182.745ZM178.679 179.915L177.276 178.501L176.566 179.205L177.969 180.62L178.679 179.915ZM175.873 177.086L174.471 175.671L173.761 176.375L175.163 177.79L175.873 177.086ZM173.068 174.256L171.665 172.841L170.955 173.545L172.358 174.96L173.068 174.256ZM170.263 171.426L168.86 170.011L168.15 170.715L169.553 172.13L170.263 171.426ZM167.457 168.596L166.055 167.181L165.345 167.885L166.747 169.3L167.457 168.596ZM164.652 165.766L163.25 164.351L162.539 165.055L163.942 166.47L164.652 165.766ZM161.847 162.936L160.444 161.521L159.734 162.226L161.137 163.64L161.847 162.936ZM159.042 160.107L157.639 158.692L156.929 159.396L158.331 160.811L159.042 160.107ZM156.236 157.277L154.834 155.862L154.123 156.566L155.526 157.981L156.236 157.277ZM153.431 154.447L152.028 153.032L151.318 153.736L152.721 155.151L153.431 154.447ZM150.626 151.617L149.223 150.202L148.513 150.906L149.915 152.321L150.626 151.617ZM147.82 148.787L146.418 147.372L145.707 148.076L147.11 149.491L147.82 148.787ZM145.015 145.957L143.612 144.542L142.902 145.246L144.305 146.661L145.015 145.957ZM142.21 143.127L140.807 141.713L140.097 142.417L141.499 143.831L142.21 143.127ZM139.404 140.298L138.002 138.883L137.291 139.587L138.694 141.002L139.404 140.298ZM136.599 137.468L135.196 136.053L134.486 136.757L135.889 138.172L136.599 137.468Z" fill="#151515"/>
<path opacity="0.5" d="M202.062 94.0001L200.545 99.5708L206.127 98.0992L202.062 94.0001ZM242.155 244.143L241.901 243.18L240.934 243.435L241.188 244.398L242.155 244.143ZM241.394 241.253L240.886 239.327L239.919 239.582L240.427 241.508L241.394 241.253ZM240.378 237.4L239.87 235.474L238.903 235.729L239.411 237.655L240.378 237.4ZM239.362 233.547L238.855 231.621L237.888 231.875L238.395 233.802L239.362 233.547ZM238.347 229.694L237.839 227.767L236.872 228.022L237.38 229.949L238.347 229.694ZM237.331 225.841L236.823 223.914L235.856 224.169L236.364 226.096L237.331 225.841ZM236.315 221.988L235.808 220.061L234.841 220.316L235.348 222.243L236.315 221.988ZM235.3 218.135L234.792 216.208L233.825 216.463L234.333 218.39L235.3 218.135ZM234.284 214.282L233.776 212.355L232.809 212.61L233.317 214.537L234.284 214.282ZM233.268 210.429L232.761 208.502L231.794 208.757L232.301 210.683L233.268 210.429ZM232.253 206.575L231.745 204.649L230.778 204.904L231.286 206.83L232.253 206.575ZM231.237 202.722L230.729 200.796L229.762 201.051L230.27 202.977L231.237 202.722ZM230.222 198.869L229.714 196.943L228.747 197.198L229.255 199.124L230.222 198.869ZM229.206 195.016L228.698 193.09L227.731 193.345L228.239 195.271L229.206 195.016ZM228.19 191.163L227.682 189.237L226.715 189.491L227.223 191.418L228.19 191.163ZM227.175 187.31L226.667 185.384L225.7 185.638L226.208 187.565L227.175 187.31ZM226.159 183.457L225.651 181.53L224.684 181.785L225.192 183.712L226.159 183.457ZM225.143 179.604L224.635 177.677L223.668 177.932L224.176 179.859L225.143 179.604ZM224.128 175.751L223.62 173.824L222.653 174.079L223.161 176.006L224.128 175.751ZM223.112 171.898L222.604 169.971L221.637 170.226L222.145 172.153L223.112 171.898ZM222.096 168.045L221.588 166.118L220.622 166.373L221.129 168.3L222.096 168.045ZM221.081 164.192L220.573 162.265L219.606 162.52L220.114 164.446L221.081 164.192ZM220.065 160.338L219.557 158.412L218.59 158.667L219.098 160.593L220.065 160.338ZM219.049 156.485L218.542 154.559L217.575 154.814L218.082 156.74L219.049 156.485ZM218.034 152.632L217.526 150.706L216.559 150.961L217.067 152.887L218.034 152.632ZM217.018 148.779L216.51 146.853L215.543 147.108L216.051 149.034L217.018 148.779ZM216.002 144.926L215.495 143L214.528 143.254L215.035 145.181L216.002 144.926ZM214.987 141.073L214.479 139.146L213.512 139.401L214.02 141.328L214.987 141.073ZM213.971 137.22L213.463 135.293L212.496 135.548L213.004 137.475L213.971 137.22ZM212.956 133.367L212.448 131.44L211.481 131.695L211.989 133.622L212.956 133.367ZM211.94 129.514L211.432 127.587L210.465 127.842L210.973 129.769L211.94 129.514ZM210.924 125.661L210.416 123.734L209.449 123.989L209.957 125.916L210.924 125.661ZM209.909 121.808L209.401 119.881L208.434 120.136L208.942 122.063L209.909 121.808ZM208.893 117.955L208.385 116.028L207.418 116.283L207.926 118.209L208.893 117.955ZM207.877 114.101L207.369 112.175L206.402 112.43L206.91 114.356L207.877 114.101ZM206.862 110.248L206.354 108.322L205.387 108.577L205.895 110.503L206.862 110.248ZM205.846 106.395L205.338 104.469L204.371 104.724L204.879 106.65L205.846 106.395ZM204.83 102.542L204.322 100.616L203.356 100.87L203.863 102.797L204.83 102.542ZM203.815 98.689L203.307 96.7625L202.34 97.0174L202.848 98.9439L203.815 98.689Z" fill="#151515"/>
<path opacity="0.5" d="M87.0004 254.468L92.1806 257.018L91.7982 251.257L87.0004 254.468ZM242.029 243.679L241.035 243.745L241.102 244.743L242.096 244.677L242.029 243.679ZM239.047 243.877L237.059 244.009L237.126 245.006L239.114 244.875L239.047 243.877ZM235.071 244.141L233.083 244.273L233.15 245.27L235.138 245.138L235.071 244.141ZM231.096 244.404L229.108 244.536L229.174 245.534L231.162 245.402L231.096 244.404ZM227.12 244.668L225.132 244.8L225.198 245.798L227.186 245.666L227.12 244.668ZM223.144 244.932L221.156 245.064L221.222 246.062L223.21 245.93L223.144 244.932ZM219.168 245.196L217.18 245.328L217.246 246.326L219.234 246.194L219.168 245.196ZM215.192 245.46L213.204 245.592L213.27 246.59L215.258 246.458L215.192 245.46ZM211.216 245.724L209.228 245.856L209.294 246.854L211.282 246.722L211.216 245.724ZM207.24 245.988L205.252 246.12L205.318 247.117L207.306 246.985L207.24 245.988ZM203.264 246.252L201.276 246.383L201.342 247.381L203.33 247.249L203.264 246.252ZM199.288 246.515L197.3 246.647L197.366 247.645L199.354 247.513L199.288 246.515ZM195.312 246.779L193.324 246.911L193.39 247.909L195.378 247.777L195.312 246.779ZM191.336 247.043L189.348 247.175L189.414 248.173L191.402 248.041L191.336 247.043ZM187.36 247.307L185.372 247.439L185.438 248.437L187.426 248.305L187.36 247.307ZM183.384 247.571L181.396 247.703L181.462 248.701L183.45 248.569L183.384 247.571ZM179.408 247.835L177.42 247.967L177.486 248.964L179.474 248.832L179.408 247.835ZM175.432 248.099L173.444 248.23L173.51 249.228L175.498 249.096L175.432 248.099ZM171.456 248.362L169.468 248.494L169.535 249.492L171.522 249.36L171.456 248.362ZM167.48 248.626L165.492 248.758L165.559 249.756L167.547 249.624L167.48 248.626ZM163.504 248.89L161.516 249.022L161.583 250.02L163.571 249.888L163.504 248.89ZM159.528 249.154L157.54 249.286L157.607 250.284L159.595 250.152L159.528 249.154ZM155.552 249.418L153.564 249.55L153.631 250.548L155.619 250.416L155.552 249.418ZM151.577 249.682L149.589 249.814L149.655 250.811L151.643 250.68L151.577 249.682ZM147.601 249.946L145.613 250.078L145.679 251.075L147.667 250.943L147.601 249.946ZM143.625 250.209L141.637 250.341L141.703 251.339L143.691 251.207L143.625 250.209ZM139.649 250.473L137.661 250.605L137.727 251.603L139.715 251.471L139.649 250.473ZM135.673 250.737L133.685 250.869L133.751 251.867L135.739 251.735L135.673 250.737ZM131.697 251.001L129.709 251.133L129.775 252.131L131.763 251.999L131.697 251.001ZM127.721 251.265L125.733 251.397L125.799 252.395L127.787 252.263L127.721 251.265ZM123.745 251.529L121.757 251.661L121.823 252.659L123.811 252.527L123.745 251.529ZM119.769 251.793L117.781 251.925L117.847 252.922L119.835 252.79L119.769 251.793ZM115.793 252.056L113.805 252.188L113.871 253.186L115.859 253.054L115.793 252.056ZM111.817 252.32L109.829 252.452L109.895 253.45L111.883 253.318L111.817 252.32ZM107.841 252.584L105.853 252.716L105.919 253.714L107.907 253.582L107.841 252.584ZM103.865 252.848L101.877 252.98L101.943 253.978L103.931 253.846L103.865 252.848ZM99.8891 253.112L97.9011 253.244L97.9674 254.242L99.9553 254.11L99.8891 253.112ZM95.9132 253.376L93.9252 253.508L93.9914 254.506L95.9794 254.374L95.9132 253.376ZM91.9372 253.64L89.9492 253.772L90.0154 254.769L92.0034 254.637L91.9372 253.64Z" fill="#151515"/>
<path d="M241.768 244.529L193.438 130.049C208.792 123.496 225.094 120.148 241.768 120.148V244.529Z" fill="#E834B2"/>
<path d="M241.771 244.5L130.895 188.078C144.87 160.675 164.793 142.098 193.147 130.099L241.771 244.529V244.5Z" fill="#FF95E0"/>
<path d="M241.772 244.646L132.396 302.81C112.735 265.836 112.39 225.699 131.39 188.38L241.772 244.618V244.646Z" fill="#D28ABD"/>
<path d="M241.968 244.529V120.148C310.557 120.148 366.149 175.829 366.149 244.529C366.149 313.229 310.557 368.91 241.968 368.91C194.446 368.91 154.618 344.952 132.312 302.924L241.968 244.529Z" fill="#AD3088"/>
<circle cx="242" cy="245" r="80" fill="#FFFCEF"/>
<rect x="380" y="327" width="62" height="27" rx="7" fill="#AD3088"/>
<rect x="69" y="103" width="62" height="27" rx="7" fill="#FF95E0"/>
<rect x="168" y="61" width="62" height="27" rx="7" fill="#E834B2"/>
<rect x="19" y="243" width="62" height="27" rx="7" fill="#D28ABD"/>
<path d="M402.328 334.588L401.14 336.298C400.696 335.95 400.264 335.68 399.844 335.488C399.436 335.296 398.956 335.2 398.404 335.2C397.936 335.2 397.516 335.302 397.144 335.506C396.784 335.698 396.478 335.974 396.226 336.334C395.974 336.694 395.776 337.12 395.632 337.612C395.488 338.092 395.404 338.62 395.38 339.196C395.548 339.04 395.728 338.884 395.92 338.728C396.112 338.572 396.328 338.44 396.568 338.332C396.82 338.212 397.09 338.116 397.378 338.044C397.678 337.972 398.014 337.936 398.386 337.936C398.998 337.936 399.568 338.026 400.096 338.206C400.636 338.374 401.104 338.632 401.5 338.98C401.908 339.316 402.226 339.73 402.454 340.222C402.682 340.714 402.796 341.278 402.796 341.914C402.796 342.55 402.676 343.132 402.436 343.66C402.196 344.188 401.866 344.644 401.446 345.028C401.026 345.4 400.528 345.694 399.952 345.91C399.388 346.114 398.776 346.216 398.116 346.216C397.336 346.216 396.658 346.102 396.082 345.874C395.518 345.646 395.026 345.322 394.606 344.902C394.366 344.662 394.15 344.398 393.958 344.11C393.766 343.81 393.604 343.468 393.472 343.084C393.34 342.688 393.238 342.244 393.166 341.752C393.106 341.26 393.076 340.696 393.076 340.06C393.076 339.088 393.19 338.188 393.418 337.36C393.646 336.52 393.982 335.794 394.426 335.182C394.882 334.558 395.446 334.072 396.118 333.724C396.802 333.364 397.588 333.184 398.476 333.184C399.292 333.184 400 333.31 400.6 333.562C401.2 333.802 401.776 334.144 402.328 334.588ZM400.582 342.004C400.582 341.356 400.348 340.828 399.88 340.42C399.424 340 398.8 339.79 398.008 339.79C397.612 339.79 397.258 339.85 396.946 339.97C396.634 340.09 396.364 340.252 396.136 340.456C395.92 340.648 395.752 340.882 395.632 341.158C395.512 341.434 395.452 341.722 395.452 342.022C395.452 342.682 395.686 343.228 396.154 343.66C396.634 344.092 397.27 344.308 398.062 344.308C398.854 344.308 399.472 344.092 399.916 343.66C400.36 343.216 400.582 342.664 400.582 342.004ZM414.14 334.588L412.952 336.298C412.508 335.95 412.076 335.68 411.656 335.488C411.248 335.296 410.768 335.2 410.216 335.2C409.748 335.2 409.328 335.302 408.956 335.506C408.596 335.698 408.29 335.974 408.038 336.334C407.786 336.694 407.588 337.12 407.444 337.612C407.3 338.092 407.216 338.62 407.192 339.196C407.36 339.04 407.54 338.884 407.732 338.728C407.924 338.572 408.14 338.44 408.38 338.332C408.632 338.212 408.902 338.116 409.19 338.044C409.49 337.972 409.826 337.936 410.198 337.936C410.81 337.936 411.38 338.026 411.908 338.206C412.448 338.374 412.916 338.632 413.312 338.98C413.72 339.316 414.038 339.73 414.266 340.222C414.494 340.714 414.608 341.278 414.608 341.914C414.608 342.55 414.488 343.132 414.248 343.66C414.008 344.188 413.678 344.644 413.258 345.028C412.838 345.4 412.34 345.694 411.764 345.91C411.2 346.114 410.588 346.216 409.928 346.216C409.148 346.216 408.47 346.102 407.894 345.874C407.33 345.646 406.838 345.322 406.418 344.902C406.178 344.662 405.962 344.398 405.77 344.11C405.578 343.81 405.416 343.468 405.284 343.084C405.152 342.688 405.05 342.244 404.978 341.752C404.918 341.26 404.888 340.696 404.888 340.06C404.888 339.088 405.002 338.188 405.23 337.36C405.458 336.52 405.794 335.794 406.238 335.182C406.694 334.558 407.258 334.072 407.93 333.724C408.614 333.364 409.4 333.184 410.288 333.184C411.104 333.184 411.812 333.31 412.412 333.562C413.012 333.802 413.588 334.144 414.14 334.588ZM412.394 342.004C412.394 341.356 412.16 340.828 411.692 340.42C411.236 340 410.612 339.79 409.82 339.79C409.424 339.79 409.07 339.85 408.758 339.97C408.446 340.09 408.176 340.252 407.948 340.456C407.732 340.648 407.564 340.882 407.444 341.158C407.324 341.434 407.264 341.722 407.264 342.022C407.264 342.682 407.498 343.228 407.966 343.66C408.446 344.092 409.082 344.308 409.874 344.308C410.666 344.308 411.284 344.092 411.728 343.66C412.172 343.216 412.394 342.664 412.394 342.004ZM422.479 336.46C422.479 336.904 422.407 337.324 422.263 337.72C422.119 338.104 421.915 338.446 421.651 338.746C421.387 339.034 421.069 339.268 420.697 339.448C420.337 339.616 419.935 339.7 419.491 339.7C419.047 339.7 418.645 339.616 418.285 339.448C417.925 339.28 417.613 339.052 417.349 338.764C417.097 338.464 416.899 338.122 416.755 337.738C416.611 337.342 416.539 336.928 416.539 336.496C416.539 336.052 416.611 335.638 416.755 335.254C416.899 334.858 417.103 334.516 417.367 334.228C417.631 333.928 417.943 333.694 418.303 333.526C418.675 333.346 419.083 333.256 419.527 333.256C419.971 333.256 420.373 333.34 420.733 333.508C421.093 333.676 421.399 333.91 421.651 334.21C421.915 334.498 422.119 334.84 422.263 335.236C422.407 335.62 422.479 336.028 422.479 336.46ZM428.815 333.4L419.599 346H417.817L427.033 333.4H428.815ZM430.093 342.904C430.093 343.348 430.021 343.768 429.877 344.164C429.733 344.548 429.529 344.89 429.265 345.19C429.001 345.478 428.683 345.712 428.311 345.892C427.951 346.06 427.549 346.144 427.105 346.144C426.661 346.144 426.259 346.06 425.899 345.892C425.539 345.724 425.227 345.496 424.963 345.208C424.711 344.908 424.513 344.566 424.369 344.182C424.225 343.786 424.153 343.372 424.153 342.94C424.153 342.496 424.225 342.082 424.369 341.698C424.513 341.302 424.717 340.96 424.981 340.672C425.245 340.372 425.557 340.138 425.917 339.97C426.289 339.79 426.697 339.7 427.141 339.7C427.585 339.7 427.987 339.784 428.347 339.952C428.707 340.12 429.013 340.354 429.265 340.654C429.529 340.942 429.733 341.284 429.877 341.68C430.021 342.064 430.093 342.472 430.093 342.904ZM420.877 336.496C420.877 335.968 420.745 335.53 420.481 335.182C420.229 334.822 419.899 334.642 419.491 334.642C419.071 334.642 418.741 334.822 418.501 335.182C418.261 335.53 418.141 335.956 418.141 336.46C418.141 336.988 418.267 337.432 418.519 337.792C418.783 338.14 419.119 338.314 419.527 338.314C419.947 338.314 420.277 338.14 420.517 337.792C420.757 337.432 420.877 337 420.877 336.496ZM428.491 342.94C428.491 342.412 428.359 341.974 428.095 341.626C427.843 341.266 427.513 341.086 427.105 341.086C426.685 341.086 426.355 341.266 426.115 341.626C425.875 341.974 425.755 342.4 425.755 342.904C425.755 343.432 425.881 343.876 426.133 344.236C426.397 344.584 426.733 344.758 427.141 344.758C427.561 344.758 427.891 344.584 428.131 344.236C428.371 343.876 428.491 343.444 428.491 342.94Z" fill="white"/>
<path d="M85.6936 110.39L89.0776 109.31H90.6256V122H88.4296V111.56L86.1616 112.19L85.6936 110.39ZM92.8303 110.39L96.2143 109.31H97.7623V122H95.5663V111.56L93.2983 112.19L92.8303 110.39ZM106.303 112.46C106.303 112.904 106.231 113.324 106.087 113.72C105.943 114.104 105.739 114.446 105.475 114.746C105.211 115.034 104.893 115.268 104.521 115.448C104.161 115.616 103.759 115.7 103.315 115.7C102.871 115.7 102.469 115.616 102.109 115.448C101.749 115.28 101.437 115.052 101.173 114.764C100.921 114.464 100.723 114.122 100.579 113.738C100.435 113.342 100.363 112.928 100.363 112.496C100.363 112.052 100.435 111.638 100.579 111.254C100.723 110.858 100.927 110.516 101.191 110.228C101.455 109.928 101.767 109.694 102.127 109.526C102.499 109.346 102.907 109.256 103.351 109.256C103.795 109.256 104.197 109.34 104.557 109.508C104.917 109.676 105.223 109.91 105.475 110.21C105.739 110.498 105.943 110.84 106.087 111.236C106.231 111.62 106.303 112.028 106.303 112.46ZM112.639 109.4L103.423 122H101.641L110.857 109.4H112.639ZM113.917 118.904C113.917 119.348 113.845 119.768 113.701 120.164C113.557 120.548 113.353 120.89 113.089 121.19C112.825 121.478 112.507 121.712 112.135 121.892C111.775 122.06 111.373 122.144 110.929 122.144C110.485 122.144 110.083 122.06 109.723 121.892C109.363 121.724 109.051 121.496 108.787 121.208C108.535 120.908 108.337 120.566 108.193 120.182C108.049 119.786 107.977 119.372 107.977 118.94C107.977 118.496 108.049 118.082 108.193 117.698C108.337 117.302 108.541 116.96 108.805 116.672C109.069 116.372 109.381 116.138 109.741 115.97C110.113 115.79 110.521 115.7 110.965 115.7C111.409 115.7 111.811 115.784 112.171 115.952C112.531 116.12 112.837 116.354 113.089 116.654C113.353 116.942 113.557 117.284 113.701 117.68C113.845 118.064 113.917 118.472 113.917 118.904ZM104.701 112.496C104.701 111.968 104.569 111.53 104.305 111.182C104.053 110.822 103.723 110.642 103.315 110.642C102.895 110.642 102.565 110.822 102.325 111.182C102.085 111.53 101.965 111.956 101.965 112.46C101.965 112.988 102.091 113.432 102.343 113.792C102.607 114.14 102.943 114.314 103.351 114.314C103.771 114.314 104.101 114.14 104.341 113.792C104.581 113.432 104.701 113 104.701 112.496ZM112.315 118.94C112.315 118.412 112.183 117.974 111.919 117.626C111.667 117.266 111.337 117.086 110.929 117.086C110.509 117.086 110.179 117.266 109.939 117.626C109.699 117.974 109.579 118.4 109.579 118.904C109.579 119.432 109.705 119.876 109.957 120.236C110.221 120.584 110.557 120.758 110.965 120.758C111.385 120.758 111.715 120.584 111.955 120.236C112.195 119.876 112.315 119.444 112.315 118.94Z" fill="#123C61"/>
<path d="M196.669 76.508C196.669 77.072 196.549 77.582 196.309 78.038C196.069 78.494 195.733 78.884 195.301 79.208C194.869 79.52 194.359 79.76 193.771 79.928C193.183 80.096 192.547 80.18 191.863 80.18C191.179 80.18 190.543 80.096 189.955 79.928C189.367 79.748 188.857 79.502 188.425 79.19C187.993 78.878 187.657 78.5 187.417 78.056C187.177 77.6 187.057 77.102 187.057 76.562C187.057 75.782 187.255 75.146 187.651 74.654C188.047 74.162 188.605 73.766 189.325 73.466C188.797 73.19 188.359 72.83 188.011 72.386C187.663 71.93 187.489 71.348 187.489 70.64C187.489 70.16 187.597 69.71 187.813 69.29C188.041 68.87 188.347 68.51 188.731 68.21C189.115 67.898 189.571 67.658 190.099 67.49C190.639 67.31 191.227 67.22 191.863 67.22C192.487 67.22 193.069 67.31 193.609 67.49C194.149 67.658 194.611 67.898 194.995 68.21C195.379 68.51 195.679 68.87 195.895 69.29C196.123 69.71 196.237 70.16 196.237 70.64C196.237 71.348 196.063 71.93 195.715 72.386C195.367 72.83 194.929 73.19 194.401 73.466C195.085 73.778 195.631 74.174 196.039 74.654C196.459 75.134 196.669 75.752 196.669 76.508ZM194.113 70.856C194.113 70.352 193.909 69.932 193.501 69.596C193.093 69.248 192.547 69.074 191.863 69.074C191.179 69.074 190.633 69.248 190.225 69.596C189.817 69.932 189.613 70.346 189.613 70.838C189.613 71.402 189.823 71.858 190.243 72.206C190.675 72.554 191.215 72.728 191.863 72.728C192.511 72.728 193.045 72.554 193.465 72.206C193.897 71.858 194.113 71.408 194.113 70.856ZM194.509 76.418C194.509 76.13 194.437 75.866 194.293 75.626C194.161 75.386 193.975 75.182 193.735 75.014C193.507 74.846 193.231 74.72 192.907 74.636C192.583 74.54 192.235 74.492 191.863 74.492C191.491 74.492 191.143 74.54 190.819 74.636C190.495 74.72 190.213 74.846 189.973 75.014C189.745 75.182 189.559 75.386 189.415 75.626C189.283 75.866 189.217 76.13 189.217 76.418C189.217 76.958 189.451 77.414 189.919 77.786C190.387 78.146 191.035 78.326 191.863 78.326C192.691 78.326 193.339 78.146 193.807 77.786C194.275 77.414 194.509 76.958 194.509 76.418ZM204.335 70.46C204.335 70.904 204.263 71.324 204.119 71.72C203.975 72.104 203.771 72.446 203.507 72.746C203.243 73.034 202.925 73.268 202.553 73.448C202.193 73.616 201.791 73.7 201.347 73.7C200.903 73.7 200.501 73.616 200.141 73.448C199.781 73.28 199.469 73.052 199.205 72.764C198.953 72.464 198.755 72.122 198.611 71.738C198.467 71.342 198.395 70.928 198.395 70.496C198.395 70.052 198.467 69.638 198.611 69.254C198.755 68.858 198.959 68.516 199.223 68.228C199.487 67.928 199.799 67.694 200.159 67.526C200.531 67.346 200.939 67.256 201.383 67.256C201.827 67.256 202.229 67.34 202.589 67.508C202.949 67.676 203.255 67.91 203.507 68.21C203.771 68.498 203.975 68.84 204.119 69.236C204.263 69.62 204.335 70.028 204.335 70.46ZM210.671 67.4L201.455 80H199.673L208.889 67.4H210.671ZM211.949 76.904C211.949 77.348 211.877 77.768 211.733 78.164C211.589 78.548 211.385 78.89 211.121 79.19C210.857 79.478 210.539 79.712 210.167 79.892C209.807 80.06 209.405 80.144 208.961 80.144C208.517 80.144 208.115 80.06 207.755 79.892C207.395 79.724 207.083 79.496 206.819 79.208C206.567 78.908 206.369 78.566 206.225 78.182C206.081 77.786 206.009 77.372 206.009 76.94C206.009 76.496 206.081 76.082 206.225 75.698C206.369 75.302 206.573 74.96 206.837 74.672C207.101 74.372 207.413 74.138 207.773 73.97C208.145 73.79 208.553 73.7 208.997 73.7C209.441 73.7 209.843 73.784 210.203 73.952C210.563 74.12 210.869 74.354 211.121 74.654C211.385 74.942 211.589 75.284 211.733 75.68C211.877 76.064 211.949 76.472 211.949 76.904ZM202.733 70.496C202.733 69.968 202.601 69.53 202.337 69.182C202.085 68.822 201.755 68.642 201.347 68.642C200.927 68.642 200.597 68.822 200.357 69.182C200.117 69.53 199.997 69.956 199.997 70.46C199.997 70.988 200.123 71.432 200.375 71.792C200.639 72.14 200.975 72.314 201.383 72.314C201.803 72.314 202.133 72.14 202.373 71.792C202.613 71.432 202.733 71 202.733 70.496ZM210.347 76.94C210.347 76.412 210.215 75.974 209.951 75.626C209.699 75.266 209.369 75.086 208.961 75.086C208.541 75.086 208.211 75.266 207.971 75.626C207.731 75.974 207.611 76.4 207.611 76.904C207.611 77.432 207.737 77.876 207.989 78.236C208.253 78.584 208.589 78.758 208.997 78.758C209.417 78.758 209.747 78.584 209.987 78.236C210.227 77.876 210.347 77.444 210.347 76.94Z" fill="#123C61"/>
<path d="M33.6633 250.39L37.0473 249.31H38.5953V262H36.3993V251.56L34.1313 252.19L33.6633 250.39ZM42.024 255.574L42.384 249.4H49.908V251.362H44.292L44.094 254.314C44.394 254.206 44.694 254.122 44.994 254.062C45.306 253.99 45.672 253.954 46.092 253.954C46.704 253.954 47.274 254.038 47.802 254.206C48.342 254.362 48.81 254.608 49.206 254.944C49.602 255.268 49.908 255.682 50.124 256.186C50.352 256.678 50.466 257.26 50.466 257.932C50.466 258.58 50.352 259.168 50.124 259.696C49.908 260.224 49.596 260.674 49.188 261.046C48.78 261.418 48.288 261.706 47.712 261.91C47.136 262.114 46.5 262.216 45.804 262.216C44.832 262.216 43.968 262.042 43.212 261.694C42.456 261.334 41.778 260.866 41.178 260.29L42.546 258.688C43.05 259.156 43.566 259.528 44.094 259.804C44.634 260.068 45.198 260.2 45.786 260.2C46.542 260.2 47.148 260.002 47.604 259.606C48.06 259.21 48.288 258.676 48.288 258.004C48.288 257.356 48.048 256.846 47.568 256.474C47.1 256.09 46.47 255.898 45.678 255.898C45.222 255.898 44.802 255.952 44.418 256.06C44.034 256.168 43.68 256.3 43.356 256.456L42.024 255.574ZM58.3333 252.46C58.3333 252.904 58.2613 253.324 58.1173 253.72C57.9733 254.104 57.7693 254.446 57.5053 254.746C57.2413 255.034 56.9233 255.268 56.5513 255.448C56.1913 255.616 55.7893 255.7 55.3453 255.7C54.9013 255.7 54.4993 255.616 54.1393 255.448C53.7793 255.28 53.4673 255.052 53.2033 254.764C52.9513 254.464 52.7533 254.122 52.6093 253.738C52.4653 253.342 52.3933 252.928 52.3933 252.496C52.3933 252.052 52.4653 251.638 52.6093 251.254C52.7533 250.858 52.9573 250.516 53.2213 250.228C53.4853 249.928 53.7973 249.694 54.1573 249.526C54.5293 249.346 54.9373 249.256 55.3813 249.256C55.8253 249.256 56.2273 249.34 56.5873 249.508C56.9473 249.676 57.2533 249.91 57.5053 250.21C57.7693 250.498 57.9733 250.84 58.1173 251.236C58.2613 251.62 58.3333 252.028 58.3333 252.46ZM64.6693 249.4L55.4533 262H53.6713L62.8873 249.4H64.6693ZM65.9473 258.904C65.9473 259.348 65.8753 259.768 65.7313 260.164C65.5873 260.548 65.3833 260.89 65.1193 261.19C64.8553 261.478 64.5373 261.712 64.1653 261.892C63.8053 262.06 63.4033 262.144 62.9593 262.144C62.5153 262.144 62.1133 262.06 61.7533 261.892C61.3933 261.724 61.0813 261.496 60.8173 261.208C60.5653 260.908 60.3673 260.566 60.2233 260.182C60.0793 259.786 60.0073 259.372 60.0073 258.94C60.0073 258.496 60.0793 258.082 60.2233 257.698C60.3673 257.302 60.5713 256.96 60.8353 256.672C61.0993 256.372 61.4113 256.138 61.7713 255.97C62.1433 255.79 62.5513 255.7 62.9953 255.7C63.4393 255.7 63.8413 255.784 64.2013 255.952C64.5613 256.12 64.8673 256.354 65.1193 256.654C65.3833 256.942 65.5873 257.284 65.7313 257.68C65.8753 258.064 65.9473 258.472 65.9473 258.904ZM56.7313 252.496C56.7313 251.968 56.5993 251.53 56.3353 251.182C56.0833 250.822 55.7533 250.642 55.3453 250.642C54.9253 250.642 54.5953 250.822 54.3553 251.182C54.1153 251.53 53.9953 251.956 53.9953 252.46C53.9953 252.988 54.1213 253.432 54.3733 253.792C54.6373 254.14 54.9733 254.314 55.3813 254.314C55.8013 254.314 56.1313 254.14 56.3713 253.792C56.6113 253.432 56.7313 253 56.7313 252.496ZM64.3453 258.94C64.3453 258.412 64.2133 257.974 63.9493 257.626C63.6973 257.266 63.3673 257.086 62.9593 257.086C62.5393 257.086 62.2093 257.266 61.9693 257.626C61.7293 257.974 61.6093 258.4 61.6093 258.904C61.6093 259.432 61.7353 259.876 61.9873 260.236C62.2513 260.584 62.5873 260.758 62.9953 260.758C63.4153 260.758 63.7453 260.584 63.9853 260.236C64.2253 259.876 64.3453 259.444 64.3453 258.94Z" fill="#123C61"/>
<circle cx="10" cy="10" r="10" fill="#D28ABD"/>
<circle cx="124" cy="10" r="10" fill="#FF95E0"/>
<circle cx="248" cy="10" r="10" fill="#E834B2"/>
<circle cx="391" cy="10" r="10" fill="#AD3088"/>
<path d="M33.136 2.31L38.68 15H36.34L35.062 11.958H29.104L27.808 15H25.54L31.084 2.31H33.136ZM34.252 9.996L32.074 4.956L29.914 9.996H34.252ZM51.0107 5.964L47.0327 11.904H46.9607L43.0187 6V15H40.8407V2.4H43.1987L47.0327 8.358L50.8667 2.4H53.2247V15H51.0107V5.964ZM65.8097 2.4V4.38H58.6817V7.656H64.9997V9.636H58.6817V13.02H65.8997V15H56.4677V2.4H65.8097ZM75.0423 2.31L80.5863 15H78.2463L76.9683 11.958H71.0103L69.7143 15H67.4463L72.9903 2.31H75.0423ZM76.1582 9.996L73.9803 4.956L71.8203 9.996H76.1582Z" fill="black"/>
<path d="M150.962 2.4V4.38H143.834V7.656H150.152V9.636H143.834V13.02H151.052V15H141.62V2.4H150.962ZM159.673 10.86V5.496H161.851V15H159.673V13.524C159.361 13.98 158.971 14.376 158.503 14.712C158.035 15.036 157.435 15.198 156.703 15.198C155.623 15.198 154.789 14.868 154.201 14.208C153.613 13.548 153.319 12.66 153.319 11.544V5.496H155.497V10.896C155.497 11.64 155.671 12.216 156.019 12.624C156.379 13.02 156.883 13.218 157.531 13.218C158.167 13.218 158.683 13.014 159.079 12.606C159.475 12.186 159.673 11.604 159.673 10.86ZM166.767 11.382V15H164.589V5.496H166.767V7.638C167.067 6.918 167.493 6.342 168.045 5.91C168.597 5.478 169.293 5.28 170.133 5.316V7.62H170.007C169.527 7.62 169.089 7.698 168.693 7.854C168.297 8.01 167.955 8.244 167.667 8.556C167.379 8.868 167.157 9.264 167.001 9.744C166.845 10.212 166.767 10.758 166.767 11.382ZM181.32 10.248C181.32 10.932 181.188 11.574 180.924 12.174C180.672 12.774 180.318 13.302 179.862 13.758C179.418 14.202 178.884 14.556 178.26 14.82C177.636 15.084 176.958 15.216 176.226 15.216C175.506 15.216 174.834 15.09 174.21 14.838C173.598 14.574 173.064 14.22 172.608 13.776C172.164 13.32 171.816 12.798 171.564 12.21C171.312 11.61 171.186 10.968 171.186 10.284C171.186 9.6 171.312 8.958 171.564 8.358C171.828 7.746 172.182 7.218 172.626 6.774C173.082 6.318 173.616 5.958 174.228 5.694C174.852 5.43 175.53 5.298 176.262 5.298C176.994 5.298 177.666 5.43 178.278 5.694C178.902 5.946 179.436 6.3 179.88 6.756C180.336 7.2 180.69 7.722 180.942 8.322C181.194 8.922 181.32 9.564 181.32 10.248ZM179.142 10.284C179.142 9.864 179.07 9.468 178.926 9.096C178.782 8.724 178.578 8.4 178.314 8.124C178.062 7.836 177.756 7.614 177.396 7.458C177.048 7.29 176.658 7.206 176.226 7.206C175.794 7.206 175.398 7.29 175.038 7.458C174.69 7.614 174.39 7.83 174.138 8.106C173.886 8.382 173.694 8.706 173.562 9.078C173.43 9.438 173.364 9.828 173.364 10.248C173.364 10.668 173.436 11.07 173.58 11.454C173.724 11.826 173.922 12.15 174.174 12.426C174.438 12.702 174.744 12.924 175.092 13.092C175.452 13.248 175.842 13.326 176.262 13.326C176.706 13.326 177.102 13.248 177.45 13.092C177.81 12.924 178.116 12.702 178.368 12.426C178.62 12.15 178.812 11.832 178.944 11.472C179.076 11.1 179.142 10.704 179.142 10.284ZM193.366 10.248C193.366 11.04 193.24 11.742 192.988 12.354C192.748 12.966 192.418 13.488 191.998 13.92C191.59 14.34 191.116 14.658 190.576 14.874C190.048 15.09 189.502 15.198 188.938 15.198C188.158 15.198 187.51 15.03 186.994 14.694C186.478 14.358 186.052 13.968 185.716 13.524V17.88H183.538V5.496H185.716V7.08C186.064 6.576 186.496 6.156 187.012 5.82C187.528 5.472 188.17 5.298 188.938 5.298C189.502 5.298 190.048 5.406 190.576 5.622C191.104 5.838 191.572 6.162 191.98 6.594C192.4 7.014 192.736 7.53 192.988 8.142C193.24 8.754 193.366 9.456 193.366 10.248ZM191.152 10.248C191.152 9.78 191.08 9.36 190.936 8.988C190.792 8.604 190.594 8.28 190.342 8.016C190.102 7.752 189.814 7.548 189.478 7.404C189.154 7.26 188.806 7.188 188.434 7.188C188.062 7.188 187.708 7.26 187.372 7.404C187.036 7.548 186.742 7.758 186.49 8.034C186.238 8.298 186.034 8.616 185.878 8.988C185.734 9.36 185.662 9.78 185.662 10.248C185.662 10.716 185.734 11.136 185.878 11.508C186.034 11.88 186.238 12.204 186.49 12.48C186.742 12.744 187.036 12.948 187.372 13.092C187.708 13.236 188.062 13.308 188.434 13.308C188.806 13.308 189.154 13.236 189.478 13.092C189.814 12.948 190.102 12.744 190.342 12.48C190.594 12.216 190.792 11.898 190.936 11.526C191.08 11.142 191.152 10.716 191.152 10.248ZM197.253 11.022C197.385 11.802 197.697 12.402 198.189 12.822C198.681 13.23 199.281 13.434 199.989 13.434C200.529 13.434 200.997 13.338 201.393 13.146C201.789 12.954 202.179 12.672 202.563 12.3L203.841 13.434C203.385 13.974 202.839 14.406 202.203 14.73C201.579 15.054 200.829 15.216 199.953 15.216C199.269 15.216 198.627 15.096 198.027 14.856C197.439 14.616 196.923 14.28 196.479 13.848C196.047 13.416 195.705 12.9 195.453 12.3C195.201 11.688 195.075 11.01 195.075 10.266C195.075 9.582 195.189 8.94 195.417 8.34C195.645 7.74 195.963 7.218 196.371 6.774C196.791 6.318 197.283 5.958 197.847 5.694C198.411 5.43 199.035 5.298 199.719 5.298C200.475 5.298 201.135 5.436 201.699 5.712C202.275 5.988 202.749 6.36 203.121 6.828C203.505 7.296 203.793 7.842 203.985 8.466C204.177 9.09 204.273 9.744 204.273 10.428C204.273 10.524 204.267 10.62 204.255 10.716C204.255 10.812 204.249 10.914 204.237 11.022H197.253ZM197.235 9.582H202.113C202.077 9.234 201.999 8.91 201.879 8.61C201.759 8.298 201.597 8.034 201.393 7.818C201.189 7.59 200.943 7.41 200.655 7.278C200.379 7.146 200.061 7.08 199.701 7.08C199.029 7.08 198.471 7.314 198.027 7.782C197.595 8.238 197.331 8.838 197.235 9.582Z" fill="black"/>
<path d="M272.136 2.31L277.68 15H275.34L274.062 11.958H268.104L266.808 15H264.54L270.084 2.31H272.136ZM273.252 9.996L271.074 4.956L268.914 9.996H273.252ZM287.491 6.972C287.875 6.468 288.325 6.066 288.841 5.766C289.369 5.454 289.993 5.298 290.713 5.298C291.757 5.298 292.573 5.616 293.161 6.252C293.749 6.876 294.043 7.77 294.043 8.934V15H291.865V9.6C291.865 8.844 291.697 8.268 291.361 7.872C291.025 7.476 290.551 7.278 289.939 7.278C289.339 7.278 288.847 7.482 288.463 7.89C288.091 8.286 287.905 8.868 287.905 9.636V15H285.727V9.582C285.727 8.838 285.559 8.268 285.223 7.872C284.887 7.476 284.413 7.278 283.801 7.278C283.189 7.278 282.697 7.488 282.325 7.908C281.953 8.328 281.767 8.91 281.767 9.654V15H279.589V5.496H281.767V6.936C281.923 6.72 282.091 6.516 282.271 6.324C282.451 6.132 282.655 5.958 282.883 5.802C283.123 5.646 283.387 5.526 283.675 5.442C283.975 5.346 284.305 5.298 284.665 5.298C285.349 5.298 285.925 5.454 286.393 5.766C286.873 6.066 287.239 6.468 287.491 6.972ZM298.348 11.022C298.48 11.802 298.792 12.402 299.284 12.822C299.776 13.23 300.376 13.434 301.084 13.434C301.624 13.434 302.092 13.338 302.488 13.146C302.884 12.954 303.274 12.672 303.658 12.3L304.936 13.434C304.48 13.974 303.934 14.406 303.298 14.73C302.674 15.054 301.924 15.216 301.048 15.216C300.364 15.216 299.722 15.096 299.122 14.856C298.534 14.616 298.018 14.28 297.574 13.848C297.142 13.416 296.8 12.9 296.548 12.3C296.296 11.688 296.17 11.01 296.17 10.266C296.17 9.582 296.284 8.94 296.512 8.34C296.74 7.74 297.058 7.218 297.466 6.774C297.886 6.318 298.378 5.958 298.942 5.694C299.506 5.43 300.13 5.298 300.814 5.298C301.57 5.298 302.23 5.436 302.794 5.712C303.37 5.988 303.844 6.36 304.216 6.828C304.6 7.296 304.888 7.842 305.08 8.466C305.272 9.09 305.368 9.744 305.368 10.428C305.368 10.524 305.362 10.62 305.35 10.716C305.35 10.812 305.344 10.914 305.332 11.022H298.348ZM298.33 9.582H303.208C303.172 9.234 303.094 8.91 302.974 8.61C302.854 8.298 302.692 8.034 302.488 7.818C302.284 7.59 302.038 7.41 301.75 7.278C301.474 7.146 301.156 7.08 300.796 7.08C300.124 7.08 299.566 7.314 299.122 7.782C298.69 8.238 298.426 8.838 298.33 9.582ZM309.734 11.382V15H307.556V5.496H309.734V7.638C310.034 6.918 310.46 6.342 311.012 5.91C311.564 5.478 312.26 5.28 313.1 5.316V7.62H312.974C312.494 7.62 312.056 7.698 311.66 7.854C311.264 8.01 310.922 8.244 310.634 8.556C310.346 8.868 310.124 9.264 309.968 9.744C309.812 10.212 309.734 10.758 309.734 11.382ZM317.367 4.038H315.027V1.968H317.367V4.038ZM317.295 15H315.117V5.496H317.295V15ZM328.421 13.434C327.953 13.962 327.419 14.394 326.819 14.73C326.219 15.054 325.457 15.216 324.533 15.216C323.825 15.216 323.171 15.09 322.571 14.838C321.971 14.574 321.449 14.22 321.005 13.776C320.573 13.32 320.231 12.798 319.979 12.21C319.739 11.61 319.619 10.968 319.619 10.284C319.619 9.6 319.739 8.958 319.979 8.358C320.231 7.758 320.573 7.23 321.005 6.774C321.449 6.318 321.971 5.958 322.571 5.694C323.183 5.43 323.843 5.298 324.551 5.298C325.451 5.298 326.195 5.448 326.783 5.748C327.383 6.048 327.905 6.444 328.349 6.936L326.999 8.394C326.663 8.046 326.303 7.764 325.919 7.548C325.547 7.32 325.085 7.206 324.533 7.206C324.137 7.206 323.771 7.29 323.435 7.458C323.099 7.614 322.811 7.83 322.571 8.106C322.331 8.382 322.139 8.706 321.995 9.078C321.863 9.438 321.797 9.828 321.797 10.248C321.797 10.68 321.863 11.082 321.995 11.454C322.139 11.826 322.337 12.15 322.589 12.426C322.841 12.702 323.141 12.924 323.489 13.092C323.837 13.248 324.221 13.326 324.641 13.326C325.157 13.326 325.607 13.218 325.991 13.002C326.387 12.774 326.759 12.486 327.107 12.138L328.421 13.434ZM338.399 15H336.239V13.83C335.915 14.214 335.501 14.538 334.997 14.802C334.493 15.066 333.881 15.198 333.161 15.198C332.705 15.198 332.273 15.132 331.865 15C331.457 14.88 331.097 14.7 330.785 14.46C330.485 14.208 330.239 13.902 330.047 13.542C329.867 13.17 329.777 12.744 329.777 12.264V12.228C329.777 11.712 329.873 11.262 330.065 10.878C330.257 10.494 330.521 10.176 330.857 9.924C331.205 9.672 331.613 9.486 332.081 9.366C332.561 9.234 333.077 9.168 333.629 9.168C334.205 9.168 334.691 9.204 335.087 9.276C335.495 9.348 335.885 9.444 336.257 9.564V9.33C336.257 8.67 336.053 8.166 335.645 7.818C335.249 7.47 334.673 7.296 333.917 7.296C333.377 7.296 332.897 7.35 332.477 7.458C332.057 7.566 331.631 7.71 331.199 7.89L330.605 6.144C331.133 5.904 331.673 5.712 332.225 5.568C332.777 5.424 333.443 5.352 334.223 5.352C335.639 5.352 336.689 5.706 337.373 6.414C338.057 7.11 338.399 8.094 338.399 9.366V15ZM336.293 11.562V10.968C336.017 10.86 335.687 10.77 335.303 10.698C334.931 10.626 334.535 10.59 334.115 10.59C333.431 10.59 332.897 10.722 332.513 10.986C332.129 11.25 331.937 11.628 331.937 12.12V12.156C331.937 12.612 332.111 12.96 332.459 13.2C332.819 13.44 333.257 13.56 333.773 13.56C334.133 13.56 334.463 13.512 334.763 13.416C335.075 13.32 335.345 13.188 335.573 13.02C335.801 12.84 335.975 12.63 336.095 12.39C336.227 12.138 336.293 11.862 336.293 11.562ZM347.775 12.192C347.775 12.696 347.685 13.134 347.505 13.506C347.325 13.878 347.073 14.19 346.749 14.442C346.437 14.682 346.065 14.868 345.633 15C345.201 15.12 344.739 15.18 344.247 15.18C343.563 15.18 342.867 15.06 342.159 14.82C341.463 14.58 340.815 14.226 340.215 13.758L341.187 12.282C341.703 12.666 342.225 12.96 342.753 13.164C343.293 13.356 343.809 13.452 344.301 13.452C344.769 13.452 345.129 13.362 345.381 13.182C345.645 12.99 345.777 12.738 345.777 12.426V12.39C345.777 12.21 345.717 12.054 345.597 11.922C345.489 11.79 345.333 11.676 345.129 11.58C344.937 11.472 344.709 11.382 344.445 11.31C344.193 11.226 343.929 11.142 343.653 11.058C343.305 10.95 342.951 10.83 342.591 10.698C342.243 10.566 341.925 10.398 341.637 10.194C341.361 9.978 341.133 9.72 340.953 9.42C340.773 9.108 340.683 8.724 340.683 8.268V8.232C340.683 7.788 340.767 7.386 340.935 7.026C341.115 6.666 341.355 6.36 341.655 6.108C341.967 5.856 342.327 5.664 342.735 5.532C343.155 5.4 343.599 5.334 344.067 5.334C344.667 5.334 345.273 5.43 345.885 5.622C346.497 5.814 347.055 6.078 347.559 6.414L346.695 7.962C346.239 7.686 345.777 7.47 345.309 7.314C344.841 7.146 344.409 7.062 344.013 7.062C343.593 7.062 343.263 7.152 343.023 7.332C342.795 7.512 342.681 7.74 342.681 8.016V8.052C342.681 8.22 342.741 8.37 342.861 8.502C342.981 8.622 343.137 8.736 343.329 8.844C343.533 8.94 343.761 9.036 344.013 9.132C344.277 9.216 344.547 9.3 344.823 9.384C345.171 9.492 345.519 9.618 345.867 9.762C346.215 9.906 346.527 10.086 346.803 10.302C347.091 10.506 347.325 10.758 347.505 11.058C347.685 11.358 347.775 11.724 347.775 12.156V12.192Z" fill="black"/>
<path d="M408.746 2.4H410.96V15H408.746V2.4ZM416.259 9.636V15H414.081V5.496H416.259V6.972C416.415 6.744 416.583 6.534 416.763 6.342C416.955 6.138 417.171 5.958 417.411 5.802C417.663 5.646 417.933 5.526 418.221 5.442C418.521 5.346 418.857 5.298 419.229 5.298C420.309 5.298 421.143 5.628 421.731 6.288C422.319 6.948 422.613 7.836 422.613 8.952V15H420.435V9.6C420.435 8.856 420.255 8.286 419.895 7.89C419.547 7.482 419.049 7.278 418.401 7.278C417.765 7.278 417.249 7.488 416.853 7.908C416.457 8.316 416.259 8.892 416.259 9.636ZM434.585 15H432.407V13.416C432.059 13.908 431.621 14.328 431.093 14.676C430.577 15.024 429.935 15.198 429.167 15.198C428.603 15.198 428.057 15.09 427.529 14.874C427.001 14.658 426.533 14.34 426.125 13.92C425.717 13.488 425.387 12.966 425.135 12.354C424.883 11.742 424.757 11.04 424.757 10.248C424.757 9.456 424.877 8.754 425.117 8.142C425.369 7.53 425.699 7.014 426.107 6.594C426.515 6.162 426.983 5.838 427.511 5.622C428.051 5.406 428.603 5.298 429.167 5.298C429.947 5.298 430.595 5.466 431.111 5.802C431.627 6.138 432.059 6.528 432.407 6.972V1.86H434.585V15ZM432.443 10.248C432.443 9.78 432.365 9.36 432.209 8.988C432.065 8.616 431.867 8.298 431.615 8.034C431.363 7.758 431.069 7.548 430.733 7.404C430.397 7.26 430.049 7.188 429.689 7.188C429.317 7.188 428.963 7.26 428.627 7.404C428.303 7.536 428.015 7.734 427.763 7.998C427.511 8.262 427.313 8.586 427.169 8.97C427.025 9.342 426.953 9.768 426.953 10.248C426.953 10.716 427.025 11.142 427.169 11.526C427.313 11.898 427.511 12.216 427.763 12.48C428.015 12.744 428.303 12.948 428.627 13.092C428.963 13.236 429.317 13.308 429.689 13.308C430.049 13.308 430.397 13.236 430.733 13.092C431.069 12.948 431.363 12.744 431.615 12.48C431.867 12.204 432.065 11.88 432.209 11.508C432.365 11.136 432.443 10.716 432.443 10.248ZM439.678 4.038H437.338V1.968H439.678V4.038ZM439.606 15H437.428V5.496H439.606V15ZM450.426 15H448.266V13.83C447.942 14.214 447.528 14.538 447.024 14.802C446.52 15.066 445.908 15.198 445.188 15.198C444.732 15.198 444.3 15.132 443.892 15C443.484 14.88 443.124 14.7 442.812 14.46C442.512 14.208 442.266 13.902 442.074 13.542C441.894 13.17 441.804 12.744 441.804 12.264V12.228C441.804 11.712 441.9 11.262 442.092 10.878C442.284 10.494 442.548 10.176 442.884 9.924C443.232 9.672 443.64 9.486 444.108 9.366C444.588 9.234 445.104 9.168 445.656 9.168C446.232 9.168 446.718 9.204 447.114 9.276C447.522 9.348 447.912 9.444 448.284 9.564V9.33C448.284 8.67 448.08 8.166 447.672 7.818C447.276 7.47 446.7 7.296 445.944 7.296C445.404 7.296 444.924 7.35 444.504 7.458C444.084 7.566 443.658 7.71 443.226 7.89L442.632 6.144C443.16 5.904 443.7 5.712 444.252 5.568C444.804 5.424 445.47 5.352 446.25 5.352C447.666 5.352 448.716 5.706 449.4 6.414C450.084 7.11 450.426 8.094 450.426 9.366V15ZM448.32 11.562V10.968C448.044 10.86 447.714 10.77 447.33 10.698C446.958 10.626 446.562 10.59 446.142 10.59C445.458 10.59 444.924 10.722 444.54 10.986C444.156 11.25 443.964 11.628 443.964 12.12V12.156C443.964 12.612 444.138 12.96 444.486 13.2C444.846 13.44 445.284 13.56 445.8 13.56C446.16 13.56 446.49 13.512 446.79 13.416C447.102 13.32 447.372 13.188 447.6 13.02C447.828 12.84 448.002 12.63 448.122 12.39C448.254 12.138 448.32 11.862 448.32 11.562Z" fill="black"/>
<path opacity="0.5" d="M2 29H467" stroke="#B1B3B6"/>
</svg>
