<svg width="464" height="358" viewBox="0 0 464 358" fill="none" xmlns="http://www.w3.org/2000/svg">
<path opacity="0.5" d="M366.852 315.713L364.141 310.615L361.082 315.512L366.852 315.713ZM234.786 233.805L235.631 234.333L236.161 233.485L235.316 232.957L234.786 233.805ZM237.321 235.388L239.01 236.444L239.54 235.596L237.85 234.54L237.321 235.388ZM240.7 237.499L242.39 238.555L242.92 237.707L241.23 236.651L240.7 237.499ZM244.08 239.61L245.769 240.666L246.299 239.818L244.609 238.762L244.08 239.61ZM247.459 241.721L249.149 242.777L249.679 241.929L247.989 240.873L247.459 241.721ZM250.839 243.833L252.528 244.888L253.058 244.04L251.368 242.984L250.839 243.833ZM254.218 245.944L255.908 246.999L256.438 246.151L254.748 245.095L254.218 245.944ZM257.598 248.055L259.287 249.11L259.817 248.262L258.127 247.207L257.598 248.055ZM260.977 250.166L262.667 251.221L263.197 250.373L261.507 249.318L260.977 250.166ZM264.357 252.277L266.046 253.332L266.576 252.484L264.887 251.429L264.357 252.277ZM267.736 254.388L269.426 255.443L269.956 254.595L268.266 253.54L267.736 254.388ZM271.116 256.499L272.806 257.554L273.335 256.706L271.646 255.651L271.116 256.499ZM274.495 258.61L276.185 259.666L276.715 258.817L275.025 257.762L274.495 258.61ZM277.875 260.721L279.565 261.777L280.094 260.928L278.405 259.873L277.875 260.721ZM281.254 262.832L282.944 263.888L283.474 263.04L281.784 261.984L281.254 262.832ZM284.634 264.943L286.324 265.999L286.853 265.151L285.164 264.095L284.634 264.943ZM288.013 267.054L289.703 268.11L290.233 267.262L288.543 266.206L288.013 267.054ZM291.393 269.165L293.083 270.221L293.612 269.373L291.923 268.317L291.393 269.165ZM294.772 271.276L296.462 272.332L296.992 271.484L295.302 270.428L294.772 271.276ZM298.152 273.388L299.842 274.443L300.372 273.595L298.682 272.539L298.152 273.388ZM301.532 275.499L303.221 276.554L303.751 275.706L302.061 274.65L301.532 275.499ZM304.911 277.61L306.601 278.665L307.131 277.817L305.441 276.762L304.911 277.61ZM308.291 279.721L309.98 280.776L310.51 279.928L308.82 278.873L308.291 279.721ZM311.67 281.832L313.36 282.887L313.89 282.039L312.2 280.984L311.67 281.832ZM315.05 283.943L316.739 284.998L317.269 284.15L315.579 283.095L315.05 283.943ZM318.429 286.054L320.119 287.109L320.649 286.261L318.959 285.206L318.429 286.054ZM321.809 288.165L323.498 289.221L324.028 288.372L322.338 287.317L321.809 288.165ZM325.188 290.276L326.878 291.332L327.408 290.483L325.718 289.428L325.188 290.276ZM328.568 292.387L330.257 293.443L330.787 292.595L329.097 291.539L328.568 292.387ZM331.947 294.498L333.637 295.554L334.167 294.706L332.477 293.65L331.947 294.498ZM335.327 296.609L337.017 297.665L337.546 296.817L335.857 295.761L335.327 296.609ZM338.706 298.72L340.396 299.776L340.926 298.928L339.236 297.872L338.706 298.72ZM342.086 300.831L343.776 301.887L344.305 301.039L342.616 299.983L342.086 300.831ZM345.465 302.942L347.155 303.998L347.685 303.15L345.995 302.094L345.465 302.942ZM348.845 305.054L350.535 306.109L351.064 305.261L349.375 304.205L348.845 305.054ZM352.224 307.165L353.914 308.22L354.444 307.372L352.754 306.317L352.224 307.165ZM355.604 309.276L357.294 310.331L357.823 309.483L356.134 308.428L355.604 309.276ZM358.983 311.387L360.673 312.442L361.203 311.594L359.513 310.539L358.983 311.387ZM362.363 313.498L364.053 314.553L364.583 313.705L362.893 312.65L362.363 313.498Z" fill="#151515"/>
<path opacity="0.5" d="M126.019 123.135L127.489 128.718L131.589 124.653L126.019 123.135ZM235.781 233.147L235.08 232.439L234.369 233.143L235.071 233.851L235.781 233.147ZM233.677 231.024L232.274 229.609L231.564 230.313L232.967 231.728L233.677 231.024ZM230.872 228.194L229.469 226.779L228.759 227.483L230.161 228.898L230.872 228.194ZM228.066 225.364L226.664 223.95L225.953 224.654L227.356 226.068L228.066 225.364ZM225.261 222.535L223.858 221.12L223.148 221.824L224.551 223.239L225.261 222.535ZM222.456 219.705L221.053 218.29L220.343 218.994L221.745 220.409L222.456 219.705ZM219.65 216.875L218.248 215.46L217.537 216.164L218.94 217.579L219.65 216.875ZM216.845 214.045L215.442 212.63L214.732 213.334L216.135 214.749L216.845 214.045ZM214.04 211.215L212.637 209.8L211.927 210.504L213.33 211.919L214.04 211.215ZM211.234 208.385L209.832 206.97L209.122 207.674L210.524 209.089L211.234 208.385ZM208.429 205.556L207.026 204.141L206.316 204.845L207.719 206.26L208.429 205.556ZM205.624 202.726L204.221 201.311L203.511 202.015L204.914 203.43L205.624 202.726ZM202.818 199.896L201.416 198.481L200.706 199.185L202.108 200.6L202.818 199.896ZM200.013 197.066L198.61 195.651L197.9 196.355L199.303 197.77L200.013 197.066ZM197.208 194.236L195.805 192.821L195.095 193.525L196.498 194.94L197.208 194.236ZM194.402 191.406L193 189.991L192.29 190.695L193.692 192.11L194.402 191.406ZM191.597 188.576L190.195 187.162L189.484 187.866L190.887 189.28L191.597 188.576ZM188.792 185.747L187.389 184.332L186.679 185.036L188.082 186.451L188.792 185.747ZM185.987 182.917L184.584 181.502L183.874 182.206L185.276 183.621L185.987 182.917ZM183.181 180.087L181.779 178.672L181.068 179.376L182.471 180.791L183.181 180.087ZM180.376 177.257L178.973 175.842L178.263 176.546L179.666 177.961L180.376 177.257ZM177.571 174.427L176.168 173.012L175.458 173.716L176.86 175.131L177.571 174.427ZM174.765 171.597L173.363 170.182L172.652 170.886L174.055 172.301L174.765 171.597ZM171.96 168.768L170.557 167.353L169.847 168.057L171.25 169.472L171.96 168.768ZM169.155 165.938L167.752 164.523L167.042 165.227L168.445 166.642L169.155 165.938ZM166.349 163.108L164.947 161.693L164.237 162.397L165.639 163.812L166.349 163.108ZM163.544 160.278L162.141 158.863L161.431 159.567L162.834 160.982L163.544 160.278ZM160.739 157.448L159.336 156.033L158.626 156.737L160.029 158.152L160.739 157.448ZM157.933 154.618L156.531 153.203L155.821 153.907L157.223 155.322L157.933 154.618ZM155.128 151.788L153.725 150.374L153.015 151.078L154.418 152.492L155.128 151.788ZM152.323 148.959L150.92 147.544L150.21 148.248L151.613 149.663L152.323 148.959ZM149.517 146.129L148.115 144.714L147.405 145.418L148.807 146.833L149.517 146.129ZM146.712 143.299L145.31 141.884L144.599 142.588L146.002 144.003L146.712 143.299ZM143.907 140.469L142.504 139.054L141.794 139.758L143.197 141.173L143.907 140.469ZM141.102 137.639L139.699 136.224L138.989 136.928L140.391 138.343L141.102 137.639ZM138.296 134.809L136.894 133.394L136.183 134.098L137.586 135.513L138.296 134.809ZM135.491 131.98L134.088 130.565L133.378 131.269L134.781 132.684L135.491 131.98ZM132.686 129.15L131.283 127.735L130.573 128.439L131.975 129.854L132.686 129.15ZM129.88 126.32L128.478 124.905L127.767 125.609L129.17 127.024L129.88 126.32Z" fill="#151515"/>
<path opacity="0.5" d="M81.999 252.395L87.3237 254.626L86.5941 248.899L81.999 252.395ZM236.093 232.259L235.105 232.385L235.231 233.377L236.219 233.251L236.093 232.259ZM233.128 232.637L231.152 232.889L231.279 233.881L233.255 233.629L233.128 232.637ZM229.176 233.141L227.199 233.392L227.326 234.384L229.302 234.133L229.176 233.141ZM225.223 233.644L223.247 233.896L223.373 234.888L225.349 234.636L225.223 233.644ZM221.27 234.148L219.294 234.4L219.42 235.392L221.397 235.14L221.27 234.148ZM217.318 234.651L215.341 234.903L215.468 235.895L217.444 235.643L217.318 234.651ZM213.365 235.155L211.388 235.407L211.515 236.399L213.491 236.147L213.365 235.155ZM209.412 235.659L207.436 235.91L207.562 236.902L209.538 236.65L209.412 235.659ZM205.459 236.162L203.483 236.414L203.609 237.406L205.586 237.154L205.459 236.162ZM201.507 236.666L199.53 236.917L199.657 237.909L201.633 237.658L201.507 236.666ZM197.554 237.169L195.577 237.421L195.704 238.413L197.68 238.161L197.554 237.169ZM193.601 237.673L191.625 237.925L191.751 238.917L193.727 238.665L193.601 237.673ZM189.648 238.176L187.672 238.428L187.798 239.42L189.775 239.168L189.648 238.176ZM185.696 238.68L183.719 238.932L183.846 239.924L185.822 239.672L185.696 238.68ZM181.743 239.184L179.766 239.435L179.893 240.427L181.869 240.176L181.743 239.184ZM177.79 239.687L175.814 239.939L175.94 240.931L177.916 240.679L177.79 239.687ZM173.837 240.191L171.861 240.442L171.987 241.434L173.964 241.183L173.837 240.191ZM169.885 240.694L167.908 240.946L168.035 241.938L170.011 241.686L169.885 240.694ZM165.932 241.198L163.955 241.45L164.082 242.442L166.058 242.19L165.932 241.198ZM161.979 241.701L160.003 241.953L160.129 242.945L162.105 242.693L161.979 241.701ZM158.026 242.205L156.05 242.457L156.176 243.449L158.153 243.197L158.026 242.205ZM154.074 242.709L152.097 242.96L152.224 243.952L154.2 243.701L154.074 242.709ZM150.121 243.212L148.144 243.464L148.271 244.456L150.247 244.204L150.121 243.212ZM146.168 243.716L144.192 243.967L144.318 244.959L146.294 244.708L146.168 243.716ZM142.215 244.219L140.239 244.471L140.365 245.463L142.342 245.211L142.215 244.219ZM138.263 244.723L136.286 244.975L136.413 245.967L138.389 245.715L138.263 244.723ZM134.31 245.226L132.333 245.478L132.46 246.47L134.436 246.218L134.31 245.226ZM130.357 245.73L128.381 245.982L128.507 246.974L130.483 246.722L130.357 245.73ZM126.404 246.234L124.428 246.485L124.554 247.477L126.531 247.226L126.404 246.234ZM122.452 246.737L120.475 246.989L120.602 247.981L122.578 247.729L122.452 246.737ZM118.499 247.241L116.522 247.493L116.649 248.484L118.625 248.233L118.499 247.241ZM114.546 247.744L112.57 247.996L112.696 248.988L114.672 248.736L114.546 247.744ZM110.593 248.248L108.617 248.5L108.743 249.492L110.72 249.24L110.593 248.248ZM106.641 248.751L104.664 249.003L104.791 249.995L106.767 249.743L106.641 248.751ZM102.688 249.255L100.711 249.507L100.838 250.499L102.814 250.247L102.688 249.255ZM98.735 249.759L96.7586 250.01L96.885 251.002L98.8614 250.751L98.735 249.759ZM94.7823 250.262L92.8059 250.514L92.9323 251.506L94.9086 251.254L94.7823 250.262ZM90.8295 250.766L88.8531 251.018L88.9795 252.01L90.9559 251.758L90.8295 250.766ZM86.8767 251.269L84.9004 251.521L85.0267 252.513L87.0031 252.261L86.8767 251.269Z" fill="#151515"/>
<path d="M235.755 233.027L125.508 174.808C147.505 133.685 188.848 109 235.755 109V233.027Z" fill="#E834B2"/>
<path d="M235.756 233.239L140.39 313.113C106.79 273.176 101.301 220.96 125.846 174.912L235.756 233.239Z" fill="#FF95E0"/>
<path d="M235.381 233.381V109C303.892 109 359.428 164.686 359.428 233.381C359.428 302.076 303.892 357.762 235.381 357.762C197.001 357.762 165.008 342.8 140.348 313.334L235.381 233.381Z" fill="#AD3088"/>
<circle cx="236" cy="233" r="80" fill="#FFFCEF"/>
<rect x="373" y="317" width="62" height="27" rx="7" fill="#AD3088"/>
<rect x="64" y="88" width="62" height="27" rx="7" fill="#E834B2"/>
<rect x="16" y="241" width="62" height="27" rx="7" fill="#FF95E0"/>
<path d="M394.608 324.588L393.42 326.298C392.976 325.95 392.544 325.68 392.124 325.488C391.716 325.296 391.236 325.2 390.684 325.2C390.216 325.2 389.796 325.302 389.424 325.506C389.064 325.698 388.758 325.974 388.506 326.334C388.254 326.694 388.056 327.12 387.912 327.612C387.768 328.092 387.684 328.62 387.66 329.196C387.828 329.04 388.008 328.884 388.2 328.728C388.392 328.572 388.608 328.44 388.848 328.332C389.1 328.212 389.37 328.116 389.658 328.044C389.958 327.972 390.294 327.936 390.666 327.936C391.278 327.936 391.848 328.026 392.376 328.206C392.916 328.374 393.384 328.632 393.78 328.98C394.188 329.316 394.506 329.73 394.734 330.222C394.962 330.714 395.076 331.278 395.076 331.914C395.076 332.55 394.956 333.132 394.716 333.66C394.476 334.188 394.146 334.644 393.726 335.028C393.306 335.4 392.808 335.694 392.232 335.91C391.668 336.114 391.056 336.216 390.396 336.216C389.616 336.216 388.938 336.102 388.362 335.874C387.798 335.646 387.306 335.322 386.886 334.902C386.646 334.662 386.43 334.398 386.238 334.11C386.046 333.81 385.884 333.468 385.752 333.084C385.62 332.688 385.518 332.244 385.446 331.752C385.386 331.26 385.356 330.696 385.356 330.06C385.356 329.088 385.47 328.188 385.698 327.36C385.926 326.52 386.262 325.794 386.706 325.182C387.162 324.558 387.726 324.072 388.398 323.724C389.082 323.364 389.868 323.184 390.756 323.184C391.572 323.184 392.28 323.31 392.88 323.562C393.48 323.802 394.056 324.144 394.608 324.588ZM392.862 332.004C392.862 331.356 392.628 330.828 392.16 330.42C391.704 330 391.08 329.79 390.288 329.79C389.892 329.79 389.538 329.85 389.226 329.97C388.914 330.09 388.644 330.252 388.416 330.456C388.2 330.648 388.032 330.882 387.912 331.158C387.792 331.434 387.732 331.722 387.732 332.022C387.732 332.682 387.966 333.228 388.434 333.66C388.914 334.092 389.55 334.308 390.342 334.308C391.134 334.308 391.752 334.092 392.196 333.66C392.64 333.216 392.862 332.664 392.862 332.004ZM403.793 323.31H405.683V331.356H407.483V333.174H405.683V336H403.559V333.174H397.205L396.791 331.59L403.793 323.31ZM403.559 331.356V326.37L399.419 331.356H403.559ZM415.199 326.46C415.199 326.904 415.127 327.324 414.983 327.72C414.839 328.104 414.635 328.446 414.371 328.746C414.107 329.034 413.789 329.268 413.417 329.448C413.057 329.616 412.655 329.7 412.211 329.7C411.767 329.7 411.365 329.616 411.005 329.448C410.645 329.28 410.333 329.052 410.069 328.764C409.817 328.464 409.619 328.122 409.475 327.738C409.331 327.342 409.259 326.928 409.259 326.496C409.259 326.052 409.331 325.638 409.475 325.254C409.619 324.858 409.823 324.516 410.087 324.228C410.351 323.928 410.663 323.694 411.023 323.526C411.395 323.346 411.803 323.256 412.247 323.256C412.691 323.256 413.093 323.34 413.453 323.508C413.813 323.676 414.119 323.91 414.371 324.21C414.635 324.498 414.839 324.84 414.983 325.236C415.127 325.62 415.199 326.028 415.199 326.46ZM421.535 323.4L412.319 336H410.537L419.753 323.4H421.535ZM422.813 332.904C422.813 333.348 422.741 333.768 422.597 334.164C422.453 334.548 422.249 334.89 421.985 335.19C421.721 335.478 421.403 335.712 421.031 335.892C420.671 336.06 420.269 336.144 419.825 336.144C419.381 336.144 418.979 336.06 418.619 335.892C418.259 335.724 417.947 335.496 417.683 335.208C417.431 334.908 417.233 334.566 417.089 334.182C416.945 333.786 416.873 333.372 416.873 332.94C416.873 332.496 416.945 332.082 417.089 331.698C417.233 331.302 417.437 330.96 417.701 330.672C417.965 330.372 418.277 330.138 418.637 329.97C419.009 329.79 419.417 329.7 419.861 329.7C420.305 329.7 420.707 329.784 421.067 329.952C421.427 330.12 421.733 330.354 421.985 330.654C422.249 330.942 422.453 331.284 422.597 331.68C422.741 332.064 422.813 332.472 422.813 332.904ZM413.597 326.496C413.597 325.968 413.465 325.53 413.201 325.182C412.949 324.822 412.619 324.642 412.211 324.642C411.791 324.642 411.461 324.822 411.221 325.182C410.981 325.53 410.861 325.956 410.861 326.46C410.861 326.988 410.987 327.432 411.239 327.792C411.503 328.14 411.839 328.314 412.247 328.314C412.667 328.314 412.997 328.14 413.237 327.792C413.477 327.432 413.597 327 413.597 326.496ZM421.211 332.94C421.211 332.412 421.079 331.974 420.815 331.626C420.563 331.266 420.233 331.086 419.825 331.086C419.405 331.086 419.075 331.266 418.835 331.626C418.595 331.974 418.475 332.4 418.475 332.904C418.475 333.432 418.601 333.876 418.853 334.236C419.117 334.584 419.453 334.758 419.861 334.758C420.281 334.758 420.611 334.584 420.851 334.236C421.091 333.876 421.211 333.444 421.211 332.94Z" fill="white"/>
<path d="M78.7776 95.39L82.1616 94.31H83.7096V107H81.5136V96.56L79.2456 97.19L78.7776 95.39ZM86.6703 96.344V94.4H95.5263V96.074L89.8383 107H87.3543L93.0063 96.344H86.6703ZM103.219 97.46C103.219 97.904 103.147 98.324 103.003 98.72C102.859 99.104 102.655 99.446 102.391 99.746C102.127 100.034 101.809 100.268 101.437 100.448C101.077 100.616 100.675 100.7 100.231 100.7C99.787 100.7 99.385 100.616 99.025 100.448C98.665 100.28 98.353 100.052 98.089 99.764C97.837 99.464 97.639 99.122 97.495 98.738C97.351 98.342 97.279 97.928 97.279 97.496C97.279 97.052 97.351 96.638 97.495 96.254C97.639 95.858 97.843 95.516 98.107 95.228C98.371 94.928 98.683 94.694 99.043 94.526C99.415 94.346 99.823 94.256 100.267 94.256C100.711 94.256 101.113 94.34 101.473 94.508C101.833 94.676 102.139 94.91 102.391 95.21C102.655 95.498 102.859 95.84 103.003 96.236C103.147 96.62 103.219 97.028 103.219 97.46ZM109.555 94.4L100.339 107H98.557L107.773 94.4H109.555ZM110.833 103.904C110.833 104.348 110.761 104.768 110.617 105.164C110.473 105.548 110.269 105.89 110.005 106.19C109.741 106.478 109.423 106.712 109.051 106.892C108.691 107.06 108.289 107.144 107.845 107.144C107.401 107.144 106.999 107.06 106.639 106.892C106.279 106.724 105.967 106.496 105.703 106.208C105.451 105.908 105.253 105.566 105.109 105.182C104.965 104.786 104.893 104.372 104.893 103.94C104.893 103.496 104.965 103.082 105.109 102.698C105.253 102.302 105.457 101.96 105.721 101.672C105.985 101.372 106.297 101.138 106.657 100.97C107.029 100.79 107.437 100.7 107.881 100.7C108.325 100.7 108.727 100.784 109.087 100.952C109.447 101.12 109.753 101.354 110.005 101.654C110.269 101.942 110.473 102.284 110.617 102.68C110.761 103.064 110.833 103.472 110.833 103.904ZM101.617 97.496C101.617 96.968 101.485 96.53 101.221 96.182C100.969 95.822 100.639 95.642 100.231 95.642C99.811 95.642 99.481 95.822 99.241 96.182C99.001 96.53 98.881 96.956 98.881 97.46C98.881 97.988 99.007 98.432 99.259 98.792C99.523 99.14 99.859 99.314 100.267 99.314C100.687 99.314 101.017 99.14 101.257 98.792C101.497 98.432 101.617 98 101.617 97.496ZM109.231 103.94C109.231 103.412 109.099 102.974 108.835 102.626C108.583 102.266 108.253 102.086 107.845 102.086C107.425 102.086 107.095 102.266 106.855 102.626C106.615 102.974 106.495 103.4 106.495 103.904C106.495 104.432 106.621 104.876 106.873 105.236C107.137 105.584 107.473 105.758 107.881 105.758C108.301 105.758 108.631 105.584 108.871 105.236C109.111 104.876 109.231 104.444 109.231 103.94Z" fill="#123C61"/>
<path d="M30.8557 248.39L34.2397 247.31H35.7877V260H33.5917V249.56L31.3237 250.19L30.8557 248.39ZM48.3064 253.34C48.3064 254.36 48.1804 255.29 47.9284 256.13C47.6884 256.97 47.3344 257.696 46.8664 258.308C46.4104 258.908 45.8464 259.376 45.1744 259.712C44.5024 260.048 43.7464 260.216 42.9064 260.216C42.0304 260.216 41.2744 260.078 40.6384 259.802C40.0024 259.514 39.4144 259.148 38.8744 258.704L40.0804 257.012C40.5604 257.42 41.0224 257.72 41.4664 257.912C41.9224 258.104 42.4204 258.2 42.9604 258.2C43.4284 258.2 43.8424 258.104 44.2024 257.912C44.5744 257.72 44.8864 257.45 45.1384 257.102C45.4024 256.742 45.6064 256.322 45.7504 255.842C45.8944 255.35 45.9784 254.816 46.0024 254.24C45.6904 254.624 45.2884 254.942 44.7964 255.194C44.3164 255.446 43.7344 255.572 43.0504 255.572C42.3784 255.572 41.7664 255.482 41.2144 255.302C40.6744 255.11 40.2064 254.84 39.8104 254.492C39.4264 254.132 39.1264 253.706 38.9104 253.214C38.6944 252.722 38.5864 252.17 38.5864 251.558C38.5864 250.934 38.7004 250.358 38.9284 249.83C39.1564 249.29 39.4744 248.828 39.8824 248.444C40.3024 248.048 40.8004 247.742 41.3764 247.526C41.9524 247.298 42.5884 247.184 43.2844 247.184C44.0764 247.184 44.7424 247.298 45.2824 247.526C45.8344 247.742 46.3324 248.072 46.7764 248.516C47.2444 248.984 47.6164 249.596 47.8924 250.352C48.1684 251.096 48.3064 252.092 48.3064 253.34ZM45.9304 251.432C45.9304 251.096 45.8644 250.79 45.7324 250.514C45.6124 250.226 45.4384 249.98 45.2104 249.776C44.9824 249.56 44.7064 249.392 44.3824 249.272C44.0584 249.152 43.6984 249.092 43.3024 249.092C42.5104 249.092 41.8924 249.32 41.4484 249.776C41.0164 250.232 40.8004 250.79 40.8004 251.45C40.8004 252.122 41.0284 252.668 41.4844 253.088C41.9524 253.508 42.5824 253.718 43.3744 253.718C43.7704 253.718 44.1244 253.658 44.4364 253.538C44.7604 253.418 45.0304 253.256 45.2464 253.052C45.4744 252.836 45.6424 252.59 45.7504 252.314C45.8704 252.038 45.9304 251.744 45.9304 251.432ZM56.1409 250.46C56.1409 250.904 56.0689 251.324 55.9249 251.72C55.7809 252.104 55.5769 252.446 55.3129 252.746C55.0489 253.034 54.7309 253.268 54.3589 253.448C53.9989 253.616 53.5969 253.7 53.1529 253.7C52.7089 253.7 52.3069 253.616 51.9469 253.448C51.5869 253.28 51.2749 253.052 51.0109 252.764C50.7589 252.464 50.5609 252.122 50.4169 251.738C50.2729 251.342 50.2009 250.928 50.2009 250.496C50.2009 250.052 50.2729 249.638 50.4169 249.254C50.5609 248.858 50.7649 248.516 51.0289 248.228C51.2929 247.928 51.6049 247.694 51.9649 247.526C52.3369 247.346 52.7449 247.256 53.1889 247.256C53.6329 247.256 54.0349 247.34 54.3949 247.508C54.7549 247.676 55.0609 247.91 55.3129 248.21C55.5769 248.498 55.7809 248.84 55.9249 249.236C56.0689 249.62 56.1409 250.028 56.1409 250.46ZM62.4769 247.4L53.2609 260H51.4789L60.6949 247.4H62.4769ZM63.7549 256.904C63.7549 257.348 63.6829 257.768 63.5389 258.164C63.3949 258.548 63.1909 258.89 62.9269 259.19C62.6629 259.478 62.3449 259.712 61.9729 259.892C61.6129 260.06 61.2109 260.144 60.7669 260.144C60.3229 260.144 59.9209 260.06 59.5609 259.892C59.2009 259.724 58.8889 259.496 58.6249 259.208C58.3729 258.908 58.1749 258.566 58.0309 258.182C57.8869 257.786 57.8149 257.372 57.8149 256.94C57.8149 256.496 57.8869 256.082 58.0309 255.698C58.1749 255.302 58.3789 254.96 58.6429 254.672C58.9069 254.372 59.2189 254.138 59.5789 253.97C59.9509 253.79 60.3589 253.7 60.8029 253.7C61.2469 253.7 61.6489 253.784 62.0089 253.952C62.3689 254.12 62.6749 254.354 62.9269 254.654C63.1909 254.942 63.3949 255.284 63.5389 255.68C63.6829 256.064 63.7549 256.472 63.7549 256.904ZM54.5389 250.496C54.5389 249.968 54.4069 249.53 54.1429 249.182C53.8909 248.822 53.5609 248.642 53.1529 248.642C52.7329 248.642 52.4029 248.822 52.1629 249.182C51.9229 249.53 51.8029 249.956 51.8029 250.46C51.8029 250.988 51.9289 251.432 52.1809 251.792C52.4449 252.14 52.7809 252.314 53.1889 252.314C53.6089 252.314 53.9389 252.14 54.1789 251.792C54.4189 251.432 54.5389 251 54.5389 250.496ZM62.1529 256.94C62.1529 256.412 62.0209 255.974 61.7569 255.626C61.5049 255.266 61.1749 255.086 60.7669 255.086C60.3469 255.086 60.0169 255.266 59.7769 255.626C59.5369 255.974 59.4169 256.4 59.4169 256.904C59.4169 257.432 59.5429 257.876 59.7949 258.236C60.0589 258.584 60.3949 258.758 60.8029 258.758C61.2229 258.758 61.5529 258.584 61.7929 258.236C62.0329 257.876 62.1529 257.444 62.1529 256.94Z" fill="#123C61"/>
<circle cx="10" cy="10" r="10" fill="#FF95E0"/>
<circle cx="172" cy="10" r="10" fill="#E834B2"/>
<circle cx="334" cy="10" r="10" fill="#AD3088"/>
<path d="M37.582 12.984C37.258 13.332 36.916 13.644 36.556 13.92C36.208 14.184 35.83 14.418 35.422 14.622C35.014 14.814 34.564 14.958 34.072 15.054C33.592 15.162 33.058 15.216 32.47 15.216C31.546 15.216 30.694 15.048 29.914 14.712C29.134 14.376 28.456 13.92 27.88 13.344C27.316 12.756 26.872 12.066 26.548 11.274C26.224 10.482 26.062 9.63 26.062 8.718C26.062 7.818 26.218 6.972 26.53 6.18C26.854 5.388 27.304 4.698 27.88 4.11C28.456 3.51 29.14 3.042 29.932 2.706C30.724 2.358 31.6 2.184 32.56 2.184C33.136 2.184 33.658 2.232 34.126 2.328C34.606 2.424 35.044 2.562 35.44 2.742C35.836 2.91 36.202 3.114 36.538 3.354C36.874 3.594 37.192 3.858 37.492 4.146L36.07 5.784C35.566 5.316 35.032 4.938 34.468 4.65C33.904 4.362 33.262 4.218 32.542 4.218C31.942 4.218 31.384 4.338 30.868 4.578C30.364 4.806 29.926 5.124 29.554 5.532C29.182 5.928 28.894 6.396 28.69 6.936C28.486 7.476 28.384 8.058 28.384 8.682C28.384 9.306 28.486 9.894 28.69 10.446C28.894 10.986 29.182 11.46 29.554 11.868C29.926 12.276 30.364 12.6 30.868 12.84C31.384 13.068 31.942 13.182 32.542 13.182C33.31 13.182 33.97 13.038 34.522 12.75C35.074 12.45 35.62 12.048 36.16 11.544L37.582 12.984ZM47.6311 15H45.4711V13.83C45.1471 14.214 44.7331 14.538 44.2291 14.802C43.7251 15.066 43.1131 15.198 42.3931 15.198C41.9371 15.198 41.5051 15.132 41.0971 15C40.6891 14.88 40.3291 14.7 40.0171 14.46C39.7171 14.208 39.4711 13.902 39.2791 13.542C39.0991 13.17 39.0091 12.744 39.0091 12.264V12.228C39.0091 11.712 39.1051 11.262 39.2971 10.878C39.4891 10.494 39.7531 10.176 40.0891 9.924C40.4371 9.672 40.8451 9.486 41.3131 9.366C41.7931 9.234 42.3091 9.168 42.8611 9.168C43.4371 9.168 43.9231 9.204 44.3191 9.276C44.7271 9.348 45.1171 9.444 45.4891 9.564V9.33C45.4891 8.67 45.2851 8.166 44.8771 7.818C44.4811 7.47 43.9051 7.296 43.1491 7.296C42.6091 7.296 42.1291 7.35 41.7091 7.458C41.2891 7.566 40.8631 7.71 40.4311 7.89L39.8371 6.144C40.3651 5.904 40.9051 5.712 41.4571 5.568C42.0091 5.424 42.6751 5.352 43.4551 5.352C44.8711 5.352 45.9211 5.706 46.6051 6.414C47.2891 7.11 47.6311 8.094 47.6311 9.366V15ZM45.5251 11.562V10.968C45.2491 10.86 44.9191 10.77 44.5351 10.698C44.1631 10.626 43.7671 10.59 43.3471 10.59C42.6631 10.59 42.1291 10.722 41.7451 10.986C41.3611 11.25 41.1691 11.628 41.1691 12.12V12.156C41.1691 12.612 41.3431 12.96 41.6911 13.2C42.0511 13.44 42.4891 13.56 43.0051 13.56C43.3651 13.56 43.6951 13.512 43.9951 13.416C44.3071 13.32 44.5771 13.188 44.8051 13.02C45.0331 12.84 45.2071 12.63 45.3271 12.39C45.4591 12.138 45.5251 11.862 45.5251 11.562ZM52.7616 7.368V12.03C52.7616 12.45 52.8636 12.756 53.0676 12.948C53.2716 13.128 53.5596 13.218 53.9316 13.218C54.3996 13.218 54.8496 13.11 55.2816 12.894V14.676C55.0056 14.832 54.7116 14.952 54.3996 15.036C54.0876 15.12 53.7276 15.162 53.3196 15.162C52.9236 15.162 52.5576 15.114 52.2216 15.018C51.8856 14.922 51.5916 14.766 51.3396 14.55C51.0996 14.334 50.9136 14.052 50.7816 13.704C50.6496 13.344 50.5836 12.9 50.5836 12.372V7.368H49.3776V5.496H50.5836V2.886H52.7616V5.496H55.3176V7.368H52.7616ZM58.9088 11.022C59.0408 11.802 59.3528 12.402 59.8448 12.822C60.3368 13.23 60.9368 13.434 61.6448 13.434C62.1848 13.434 62.6528 13.338 63.0488 13.146C63.4448 12.954 63.8348 12.672 64.2188 12.3L65.4968 13.434C65.0408 13.974 64.4948 14.406 63.8588 14.73C63.2348 15.054 62.4848 15.216 61.6088 15.216C60.9248 15.216 60.2828 15.096 59.6828 14.856C59.0948 14.616 58.5788 14.28 58.1348 13.848C57.7028 13.416 57.3608 12.9 57.1088 12.3C56.8568 11.688 56.7308 11.01 56.7308 10.266C56.7308 9.582 56.8448 8.94 57.0728 8.34C57.3008 7.74 57.6188 7.218 58.0268 6.774C58.4468 6.318 58.9388 5.958 59.5028 5.694C60.0668 5.43 60.6908 5.298 61.3748 5.298C62.1308 5.298 62.7908 5.436 63.3548 5.712C63.9308 5.988 64.4048 6.36 64.7768 6.828C65.1608 7.296 65.4488 7.842 65.6408 8.466C65.8328 9.09 65.9288 9.744 65.9288 10.428C65.9288 10.524 65.9228 10.62 65.9108 10.716C65.9108 10.812 65.9048 10.914 65.8928 11.022H58.9088ZM58.8908 9.582H63.7688C63.7328 9.234 63.6548 8.91 63.5348 8.61C63.4148 8.298 63.2528 8.034 63.0488 7.818C62.8448 7.59 62.5988 7.41 62.3108 7.278C62.0348 7.146 61.7168 7.08 61.3568 7.08C60.6848 7.08 60.1268 7.314 59.6828 7.782C59.2508 8.238 58.9868 8.838 58.8908 9.582ZM77.458 13.056C77.458 14.736 77.014 15.966 76.126 16.746C75.238 17.526 73.978 17.916 72.346 17.916C70.762 17.916 69.346 17.538 68.098 16.782L68.908 15.144C69.412 15.456 69.94 15.702 70.492 15.882C71.044 16.062 71.644 16.152 72.292 16.152C73.264 16.152 74.008 15.906 74.524 15.414C75.04 14.922 75.298 14.196 75.298 13.236V12.498C74.902 13.014 74.44 13.434 73.912 13.758C73.384 14.082 72.73 14.244 71.95 14.244C71.386 14.244 70.846 14.148 70.33 13.956C69.814 13.752 69.352 13.458 68.944 13.074C68.548 12.69 68.23 12.222 67.99 11.67C67.75 11.118 67.63 10.488 67.63 9.78C67.63 9.072 67.75 8.442 67.99 7.89C68.23 7.338 68.548 6.87 68.944 6.486C69.352 6.102 69.814 5.808 70.33 5.604C70.858 5.4 71.398 5.298 71.95 5.298C72.754 5.298 73.414 5.46 73.93 5.784C74.458 6.096 74.908 6.474 75.28 6.918V5.496H77.458V13.056ZM75.316 9.78C75.316 9.384 75.238 9.024 75.082 8.7C74.938 8.364 74.74 8.082 74.488 7.854C74.236 7.626 73.936 7.452 73.588 7.332C73.252 7.2 72.898 7.134 72.526 7.134C72.142 7.134 71.788 7.2 71.464 7.332C71.14 7.452 70.852 7.626 70.6 7.854C70.36 8.082 70.168 8.358 70.024 8.682C69.892 9.006 69.826 9.366 69.826 9.762C69.826 10.158 69.898 10.518 70.042 10.842C70.186 11.166 70.378 11.448 70.618 11.688C70.858 11.916 71.14 12.096 71.464 12.228C71.8 12.348 72.154 12.408 72.526 12.408C72.898 12.408 73.252 12.348 73.588 12.228C73.936 12.096 74.236 11.916 74.488 11.688C74.74 11.448 74.938 11.172 75.082 10.86C75.238 10.536 75.316 10.176 75.316 9.78ZM89.7866 10.248C89.7866 10.932 89.6546 11.574 89.3906 12.174C89.1386 12.774 88.7846 13.302 88.3286 13.758C87.8846 14.202 87.3506 14.556 86.7266 14.82C86.1026 15.084 85.4246 15.216 84.6926 15.216C83.9726 15.216 83.3006 15.09 82.6766 14.838C82.0646 14.574 81.5306 14.22 81.0746 13.776C80.6306 13.32 80.2826 12.798 80.0306 12.21C79.7786 11.61 79.6526 10.968 79.6526 10.284C79.6526 9.6 79.7786 8.958 80.0306 8.358C80.2946 7.746 80.6486 7.218 81.0926 6.774C81.5486 6.318 82.0826 5.958 82.6946 5.694C83.3186 5.43 83.9966 5.298 84.7286 5.298C85.4606 5.298 86.1326 5.43 86.7446 5.694C87.3686 5.946 87.9026 6.3 88.3466 6.756C88.8026 7.2 89.1566 7.722 89.4086 8.322C89.6606 8.922 89.7866 9.564 89.7866 10.248ZM87.6086 10.284C87.6086 9.864 87.5366 9.468 87.3926 9.096C87.2486 8.724 87.0446 8.4 86.7806 8.124C86.5286 7.836 86.2226 7.614 85.8626 7.458C85.5146 7.29 85.1246 7.206 84.6926 7.206C84.2606 7.206 83.8646 7.29 83.5046 7.458C83.1566 7.614 82.8566 7.83 82.6046 8.106C82.3526 8.382 82.1606 8.706 82.0286 9.078C81.8966 9.438 81.8306 9.828 81.8306 10.248C81.8306 10.668 81.9026 11.07 82.0466 11.454C82.1906 11.826 82.3886 12.15 82.6406 12.426C82.9046 12.702 83.2106 12.924 83.5586 13.092C83.9186 13.248 84.3086 13.326 84.7286 13.326C85.1726 13.326 85.5686 13.248 85.9166 13.092C86.2766 12.924 86.5826 12.702 86.8346 12.426C87.0866 12.15 87.2786 11.832 87.4106 11.472C87.5426 11.1 87.6086 10.704 87.6086 10.284ZM94.1827 11.382V15H92.0047V5.496H94.1827V7.638C94.4827 6.918 94.9087 6.342 95.4607 5.91C96.0127 5.478 96.7087 5.28 97.5487 5.316V7.62H97.4227C96.9427 7.62 96.5047 7.698 96.1087 7.854C95.7127 8.01 95.3707 8.244 95.0827 8.556C94.7947 8.868 94.5727 9.264 94.4167 9.744C94.2607 10.212 94.1827 10.758 94.1827 11.382ZM108.296 5.496L104.516 15.27C104.324 15.762 104.126 16.176 103.922 16.512C103.718 16.848 103.49 17.118 103.238 17.322C102.986 17.538 102.71 17.694 102.41 17.79C102.11 17.886 101.768 17.934 101.384 17.934C100.928 17.934 100.52 17.88 100.16 17.772C99.8123 17.676 99.4703 17.538 99.1343 17.358L99.8723 15.738C100.076 15.846 100.28 15.93 100.484 15.99C100.7 16.062 100.922 16.098 101.15 16.098C101.462 16.098 101.72 16.02 101.924 15.864C102.128 15.708 102.32 15.42 102.5 15L98.5403 5.496H100.862L103.562 12.552L106.028 5.496H108.296ZM122.327 2.31L127.871 15H125.531L124.253 11.958H118.295L116.999 15H114.731L120.275 2.31H122.327ZM123.443 9.996L121.265 4.956L119.105 9.996H123.443Z" fill="black"/>
<path d="M200.582 12.984C200.258 13.332 199.916 13.644 199.556 13.92C199.208 14.184 198.83 14.418 198.422 14.622C198.014 14.814 197.564 14.958 197.072 15.054C196.592 15.162 196.058 15.216 195.47 15.216C194.546 15.216 193.694 15.048 192.914 14.712C192.134 14.376 191.456 13.92 190.88 13.344C190.316 12.756 189.872 12.066 189.548 11.274C189.224 10.482 189.062 9.63 189.062 8.718C189.062 7.818 189.218 6.972 189.53 6.18C189.854 5.388 190.304 4.698 190.88 4.11C191.456 3.51 192.14 3.042 192.932 2.706C193.724 2.358 194.6 2.184 195.56 2.184C196.136 2.184 196.658 2.232 197.126 2.328C197.606 2.424 198.044 2.562 198.44 2.742C198.836 2.91 199.202 3.114 199.538 3.354C199.874 3.594 200.192 3.858 200.492 4.146L199.07 5.784C198.566 5.316 198.032 4.938 197.468 4.65C196.904 4.362 196.262 4.218 195.542 4.218C194.942 4.218 194.384 4.338 193.868 4.578C193.364 4.806 192.926 5.124 192.554 5.532C192.182 5.928 191.894 6.396 191.69 6.936C191.486 7.476 191.384 8.058 191.384 8.682C191.384 9.306 191.486 9.894 191.69 10.446C191.894 10.986 192.182 11.46 192.554 11.868C192.926 12.276 193.364 12.6 193.868 12.84C194.384 13.068 194.942 13.182 195.542 13.182C196.31 13.182 196.97 13.038 197.522 12.75C198.074 12.45 198.62 12.048 199.16 11.544L200.582 12.984ZM210.631 15H208.471V13.83C208.147 14.214 207.733 14.538 207.229 14.802C206.725 15.066 206.113 15.198 205.393 15.198C204.937 15.198 204.505 15.132 204.097 15C203.689 14.88 203.329 14.7 203.017 14.46C202.717 14.208 202.471 13.902 202.279 13.542C202.099 13.17 202.009 12.744 202.009 12.264V12.228C202.009 11.712 202.105 11.262 202.297 10.878C202.489 10.494 202.753 10.176 203.089 9.924C203.437 9.672 203.845 9.486 204.313 9.366C204.793 9.234 205.309 9.168 205.861 9.168C206.437 9.168 206.923 9.204 207.319 9.276C207.727 9.348 208.117 9.444 208.489 9.564V9.33C208.489 8.67 208.285 8.166 207.877 7.818C207.481 7.47 206.905 7.296 206.149 7.296C205.609 7.296 205.129 7.35 204.709 7.458C204.289 7.566 203.863 7.71 203.431 7.89L202.837 6.144C203.365 5.904 203.905 5.712 204.457 5.568C205.009 5.424 205.675 5.352 206.455 5.352C207.871 5.352 208.921 5.706 209.605 6.414C210.289 7.11 210.631 8.094 210.631 9.366V15ZM208.525 11.562V10.968C208.249 10.86 207.919 10.77 207.535 10.698C207.163 10.626 206.767 10.59 206.347 10.59C205.663 10.59 205.129 10.722 204.745 10.986C204.361 11.25 204.169 11.628 204.169 12.12V12.156C204.169 12.612 204.343 12.96 204.691 13.2C205.051 13.44 205.489 13.56 206.005 13.56C206.365 13.56 206.695 13.512 206.995 13.416C207.307 13.32 207.577 13.188 207.805 13.02C208.033 12.84 208.207 12.63 208.327 12.39C208.459 12.138 208.525 11.862 208.525 11.562ZM215.762 7.368V12.03C215.762 12.45 215.864 12.756 216.068 12.948C216.272 13.128 216.56 13.218 216.932 13.218C217.4 13.218 217.85 13.11 218.282 12.894V14.676C218.006 14.832 217.712 14.952 217.4 15.036C217.088 15.12 216.728 15.162 216.32 15.162C215.924 15.162 215.558 15.114 215.222 15.018C214.886 14.922 214.592 14.766 214.34 14.55C214.1 14.334 213.914 14.052 213.782 13.704C213.65 13.344 213.584 12.9 213.584 12.372V7.368H212.378V5.496H213.584V2.886H215.762V5.496H218.318V7.368H215.762ZM221.909 11.022C222.041 11.802 222.353 12.402 222.845 12.822C223.337 13.23 223.937 13.434 224.645 13.434C225.185 13.434 225.653 13.338 226.049 13.146C226.445 12.954 226.835 12.672 227.219 12.3L228.497 13.434C228.041 13.974 227.495 14.406 226.859 14.73C226.235 15.054 225.485 15.216 224.609 15.216C223.925 15.216 223.283 15.096 222.683 14.856C222.095 14.616 221.579 14.28 221.135 13.848C220.703 13.416 220.361 12.9 220.109 12.3C219.857 11.688 219.731 11.01 219.731 10.266C219.731 9.582 219.845 8.94 220.073 8.34C220.301 7.74 220.619 7.218 221.027 6.774C221.447 6.318 221.939 5.958 222.503 5.694C223.067 5.43 223.691 5.298 224.375 5.298C225.131 5.298 225.791 5.436 226.355 5.712C226.931 5.988 227.405 6.36 227.777 6.828C228.161 7.296 228.449 7.842 228.641 8.466C228.833 9.09 228.929 9.744 228.929 10.428C228.929 10.524 228.923 10.62 228.911 10.716C228.911 10.812 228.905 10.914 228.893 11.022H221.909ZM221.891 9.582H226.769C226.733 9.234 226.655 8.91 226.535 8.61C226.415 8.298 226.253 8.034 226.049 7.818C225.845 7.59 225.599 7.41 225.311 7.278C225.035 7.146 224.717 7.08 224.357 7.08C223.685 7.08 223.127 7.314 222.683 7.782C222.251 8.238 221.987 8.838 221.891 9.582ZM240.458 13.056C240.458 14.736 240.014 15.966 239.126 16.746C238.238 17.526 236.978 17.916 235.346 17.916C233.762 17.916 232.346 17.538 231.098 16.782L231.908 15.144C232.412 15.456 232.94 15.702 233.492 15.882C234.044 16.062 234.644 16.152 235.292 16.152C236.264 16.152 237.008 15.906 237.524 15.414C238.04 14.922 238.298 14.196 238.298 13.236V12.498C237.902 13.014 237.44 13.434 236.912 13.758C236.384 14.082 235.73 14.244 234.95 14.244C234.386 14.244 233.846 14.148 233.33 13.956C232.814 13.752 232.352 13.458 231.944 13.074C231.548 12.69 231.23 12.222 230.99 11.67C230.75 11.118 230.63 10.488 230.63 9.78C230.63 9.072 230.75 8.442 230.99 7.89C231.23 7.338 231.548 6.87 231.944 6.486C232.352 6.102 232.814 5.808 233.33 5.604C233.858 5.4 234.398 5.298 234.95 5.298C235.754 5.298 236.414 5.46 236.93 5.784C237.458 6.096 237.908 6.474 238.28 6.918V5.496H240.458V13.056ZM238.316 9.78C238.316 9.384 238.238 9.024 238.082 8.7C237.938 8.364 237.74 8.082 237.488 7.854C237.236 7.626 236.936 7.452 236.588 7.332C236.252 7.2 235.898 7.134 235.526 7.134C235.142 7.134 234.788 7.2 234.464 7.332C234.14 7.452 233.852 7.626 233.6 7.854C233.36 8.082 233.168 8.358 233.024 8.682C232.892 9.006 232.826 9.366 232.826 9.762C232.826 10.158 232.898 10.518 233.042 10.842C233.186 11.166 233.378 11.448 233.618 11.688C233.858 11.916 234.14 12.096 234.464 12.228C234.8 12.348 235.154 12.408 235.526 12.408C235.898 12.408 236.252 12.348 236.588 12.228C236.936 12.096 237.236 11.916 237.488 11.688C237.74 11.448 237.938 11.172 238.082 10.86C238.238 10.536 238.316 10.176 238.316 9.78ZM252.787 10.248C252.787 10.932 252.655 11.574 252.391 12.174C252.139 12.774 251.785 13.302 251.329 13.758C250.885 14.202 250.351 14.556 249.727 14.82C249.103 15.084 248.425 15.216 247.693 15.216C246.973 15.216 246.301 15.09 245.677 14.838C245.065 14.574 244.531 14.22 244.075 13.776C243.631 13.32 243.283 12.798 243.031 12.21C242.779 11.61 242.653 10.968 242.653 10.284C242.653 9.6 242.779 8.958 243.031 8.358C243.295 7.746 243.649 7.218 244.093 6.774C244.549 6.318 245.083 5.958 245.695 5.694C246.319 5.43 246.997 5.298 247.729 5.298C248.461 5.298 249.133 5.43 249.745 5.694C250.369 5.946 250.903 6.3 251.347 6.756C251.803 7.2 252.157 7.722 252.409 8.322C252.661 8.922 252.787 9.564 252.787 10.248ZM250.609 10.284C250.609 9.864 250.537 9.468 250.393 9.096C250.249 8.724 250.045 8.4 249.781 8.124C249.529 7.836 249.223 7.614 248.863 7.458C248.515 7.29 248.125 7.206 247.693 7.206C247.261 7.206 246.865 7.29 246.505 7.458C246.157 7.614 245.857 7.83 245.605 8.106C245.353 8.382 245.161 8.706 245.029 9.078C244.897 9.438 244.831 9.828 244.831 10.248C244.831 10.668 244.903 11.07 245.047 11.454C245.191 11.826 245.389 12.15 245.641 12.426C245.905 12.702 246.211 12.924 246.559 13.092C246.919 13.248 247.309 13.326 247.729 13.326C248.173 13.326 248.569 13.248 248.917 13.092C249.277 12.924 249.583 12.702 249.835 12.426C250.087 12.15 250.279 11.832 250.411 11.472C250.543 11.1 250.609 10.704 250.609 10.284ZM257.183 11.382V15H255.005V5.496H257.183V7.638C257.483 6.918 257.909 6.342 258.461 5.91C259.013 5.478 259.709 5.28 260.549 5.316V7.62H260.423C259.943 7.62 259.505 7.698 259.109 7.854C258.713 8.01 258.371 8.244 258.083 8.556C257.795 8.868 257.573 9.264 257.417 9.744C257.261 10.212 257.183 10.758 257.183 11.382ZM271.296 5.496L267.516 15.27C267.324 15.762 267.126 16.176 266.922 16.512C266.718 16.848 266.49 17.118 266.238 17.322C265.986 17.538 265.71 17.694 265.41 17.79C265.11 17.886 264.768 17.934 264.384 17.934C263.928 17.934 263.52 17.88 263.16 17.772C262.812 17.676 262.47 17.538 262.134 17.358L262.872 15.738C263.076 15.846 263.28 15.93 263.484 15.99C263.7 16.062 263.922 16.098 264.15 16.098C264.462 16.098 264.72 16.02 264.924 15.864C265.128 15.708 265.32 15.42 265.5 15L261.54 5.496H263.862L266.562 12.552L269.028 5.496H271.296ZM284.463 2.4C285.735 2.4 286.743 2.688 287.487 3.264C288.231 3.84 288.603 4.626 288.603 5.622C288.603 6.006 288.549 6.348 288.441 6.648C288.345 6.948 288.213 7.212 288.045 7.44C287.889 7.656 287.697 7.848 287.469 8.016C287.253 8.184 287.031 8.328 286.803 8.448C287.175 8.58 287.511 8.736 287.811 8.916C288.123 9.084 288.387 9.288 288.603 9.528C288.831 9.768 289.005 10.056 289.125 10.392C289.245 10.716 289.305 11.094 289.305 11.526C289.305 12.09 289.191 12.588 288.963 13.02C288.747 13.452 288.435 13.818 288.027 14.118C287.619 14.406 287.127 14.628 286.551 14.784C285.975 14.928 285.339 15 284.643 15H278.811V2.4H284.463ZM284.013 7.71C284.733 7.71 285.309 7.572 285.741 7.296C286.173 7.008 286.389 6.57 286.389 5.982C286.389 5.466 286.197 5.07 285.813 4.794C285.441 4.506 284.895 4.362 284.175 4.362H280.989V7.71H284.013ZM284.661 13.038C285.417 13.038 286.011 12.894 286.443 12.606C286.875 12.306 287.091 11.868 287.091 11.292C287.091 10.752 286.875 10.332 286.443 10.032C286.023 9.732 285.375 9.582 284.499 9.582H280.989V13.038H284.661Z" fill="black"/>
<path d="M362.582 12.984C362.258 13.332 361.916 13.644 361.556 13.92C361.208 14.184 360.83 14.418 360.422 14.622C360.014 14.814 359.564 14.958 359.072 15.054C358.592 15.162 358.058 15.216 357.47 15.216C356.546 15.216 355.694 15.048 354.914 14.712C354.134 14.376 353.456 13.92 352.88 13.344C352.316 12.756 351.872 12.066 351.548 11.274C351.224 10.482 351.062 9.63 351.062 8.718C351.062 7.818 351.218 6.972 351.53 6.18C351.854 5.388 352.304 4.698 352.88 4.11C353.456 3.51 354.14 3.042 354.932 2.706C355.724 2.358 356.6 2.184 357.56 2.184C358.136 2.184 358.658 2.232 359.126 2.328C359.606 2.424 360.044 2.562 360.44 2.742C360.836 2.91 361.202 3.114 361.538 3.354C361.874 3.594 362.192 3.858 362.492 4.146L361.07 5.784C360.566 5.316 360.032 4.938 359.468 4.65C358.904 4.362 358.262 4.218 357.542 4.218C356.942 4.218 356.384 4.338 355.868 4.578C355.364 4.806 354.926 5.124 354.554 5.532C354.182 5.928 353.894 6.396 353.69 6.936C353.486 7.476 353.384 8.058 353.384 8.682C353.384 9.306 353.486 9.894 353.69 10.446C353.894 10.986 354.182 11.46 354.554 11.868C354.926 12.276 355.364 12.6 355.868 12.84C356.384 13.068 356.942 13.182 357.542 13.182C358.31 13.182 358.97 13.038 359.522 12.75C360.074 12.45 360.62 12.048 361.16 11.544L362.582 12.984ZM372.631 15H370.471V13.83C370.147 14.214 369.733 14.538 369.229 14.802C368.725 15.066 368.113 15.198 367.393 15.198C366.937 15.198 366.505 15.132 366.097 15C365.689 14.88 365.329 14.7 365.017 14.46C364.717 14.208 364.471 13.902 364.279 13.542C364.099 13.17 364.009 12.744 364.009 12.264V12.228C364.009 11.712 364.105 11.262 364.297 10.878C364.489 10.494 364.753 10.176 365.089 9.924C365.437 9.672 365.845 9.486 366.313 9.366C366.793 9.234 367.309 9.168 367.861 9.168C368.437 9.168 368.923 9.204 369.319 9.276C369.727 9.348 370.117 9.444 370.489 9.564V9.33C370.489 8.67 370.285 8.166 369.877 7.818C369.481 7.47 368.905 7.296 368.149 7.296C367.609 7.296 367.129 7.35 366.709 7.458C366.289 7.566 365.863 7.71 365.431 7.89L364.837 6.144C365.365 5.904 365.905 5.712 366.457 5.568C367.009 5.424 367.675 5.352 368.455 5.352C369.871 5.352 370.921 5.706 371.605 6.414C372.289 7.11 372.631 8.094 372.631 9.366V15ZM370.525 11.562V10.968C370.249 10.86 369.919 10.77 369.535 10.698C369.163 10.626 368.767 10.59 368.347 10.59C367.663 10.59 367.129 10.722 366.745 10.986C366.361 11.25 366.169 11.628 366.169 12.12V12.156C366.169 12.612 366.343 12.96 366.691 13.2C367.051 13.44 367.489 13.56 368.005 13.56C368.365 13.56 368.695 13.512 368.995 13.416C369.307 13.32 369.577 13.188 369.805 13.02C370.033 12.84 370.207 12.63 370.327 12.39C370.459 12.138 370.525 11.862 370.525 11.562ZM377.762 7.368V12.03C377.762 12.45 377.864 12.756 378.068 12.948C378.272 13.128 378.56 13.218 378.932 13.218C379.4 13.218 379.85 13.11 380.282 12.894V14.676C380.006 14.832 379.712 14.952 379.4 15.036C379.088 15.12 378.728 15.162 378.32 15.162C377.924 15.162 377.558 15.114 377.222 15.018C376.886 14.922 376.592 14.766 376.34 14.55C376.1 14.334 375.914 14.052 375.782 13.704C375.65 13.344 375.584 12.9 375.584 12.372V7.368H374.378V5.496H375.584V2.886H377.762V5.496H380.318V7.368H377.762ZM383.909 11.022C384.041 11.802 384.353 12.402 384.845 12.822C385.337 13.23 385.937 13.434 386.645 13.434C387.185 13.434 387.653 13.338 388.049 13.146C388.445 12.954 388.835 12.672 389.219 12.3L390.497 13.434C390.041 13.974 389.495 14.406 388.859 14.73C388.235 15.054 387.485 15.216 386.609 15.216C385.925 15.216 385.283 15.096 384.683 14.856C384.095 14.616 383.579 14.28 383.135 13.848C382.703 13.416 382.361 12.9 382.109 12.3C381.857 11.688 381.731 11.01 381.731 10.266C381.731 9.582 381.845 8.94 382.073 8.34C382.301 7.74 382.619 7.218 383.027 6.774C383.447 6.318 383.939 5.958 384.503 5.694C385.067 5.43 385.691 5.298 386.375 5.298C387.131 5.298 387.791 5.436 388.355 5.712C388.931 5.988 389.405 6.36 389.777 6.828C390.161 7.296 390.449 7.842 390.641 8.466C390.833 9.09 390.929 9.744 390.929 10.428C390.929 10.524 390.923 10.62 390.911 10.716C390.911 10.812 390.905 10.914 390.893 11.022H383.909ZM383.891 9.582H388.769C388.733 9.234 388.655 8.91 388.535 8.61C388.415 8.298 388.253 8.034 388.049 7.818C387.845 7.59 387.599 7.41 387.311 7.278C387.035 7.146 386.717 7.08 386.357 7.08C385.685 7.08 385.127 7.314 384.683 7.782C384.251 8.238 383.987 8.838 383.891 9.582ZM402.458 13.056C402.458 14.736 402.014 15.966 401.126 16.746C400.238 17.526 398.978 17.916 397.346 17.916C395.762 17.916 394.346 17.538 393.098 16.782L393.908 15.144C394.412 15.456 394.94 15.702 395.492 15.882C396.044 16.062 396.644 16.152 397.292 16.152C398.264 16.152 399.008 15.906 399.524 15.414C400.04 14.922 400.298 14.196 400.298 13.236V12.498C399.902 13.014 399.44 13.434 398.912 13.758C398.384 14.082 397.73 14.244 396.95 14.244C396.386 14.244 395.846 14.148 395.33 13.956C394.814 13.752 394.352 13.458 393.944 13.074C393.548 12.69 393.23 12.222 392.99 11.67C392.75 11.118 392.63 10.488 392.63 9.78C392.63 9.072 392.75 8.442 392.99 7.89C393.23 7.338 393.548 6.87 393.944 6.486C394.352 6.102 394.814 5.808 395.33 5.604C395.858 5.4 396.398 5.298 396.95 5.298C397.754 5.298 398.414 5.46 398.93 5.784C399.458 6.096 399.908 6.474 400.28 6.918V5.496H402.458V13.056ZM400.316 9.78C400.316 9.384 400.238 9.024 400.082 8.7C399.938 8.364 399.74 8.082 399.488 7.854C399.236 7.626 398.936 7.452 398.588 7.332C398.252 7.2 397.898 7.134 397.526 7.134C397.142 7.134 396.788 7.2 396.464 7.332C396.14 7.452 395.852 7.626 395.6 7.854C395.36 8.082 395.168 8.358 395.024 8.682C394.892 9.006 394.826 9.366 394.826 9.762C394.826 10.158 394.898 10.518 395.042 10.842C395.186 11.166 395.378 11.448 395.618 11.688C395.858 11.916 396.14 12.096 396.464 12.228C396.8 12.348 397.154 12.408 397.526 12.408C397.898 12.408 398.252 12.348 398.588 12.228C398.936 12.096 399.236 11.916 399.488 11.688C399.74 11.448 399.938 11.172 400.082 10.86C400.238 10.536 400.316 10.176 400.316 9.78ZM414.787 10.248C414.787 10.932 414.655 11.574 414.391 12.174C414.139 12.774 413.785 13.302 413.329 13.758C412.885 14.202 412.351 14.556 411.727 14.82C411.103 15.084 410.425 15.216 409.693 15.216C408.973 15.216 408.301 15.09 407.677 14.838C407.065 14.574 406.531 14.22 406.075 13.776C405.631 13.32 405.283 12.798 405.031 12.21C404.779 11.61 404.653 10.968 404.653 10.284C404.653 9.6 404.779 8.958 405.031 8.358C405.295 7.746 405.649 7.218 406.093 6.774C406.549 6.318 407.083 5.958 407.695 5.694C408.319 5.43 408.997 5.298 409.729 5.298C410.461 5.298 411.133 5.43 411.745 5.694C412.369 5.946 412.903 6.3 413.347 6.756C413.803 7.2 414.157 7.722 414.409 8.322C414.661 8.922 414.787 9.564 414.787 10.248ZM412.609 10.284C412.609 9.864 412.537 9.468 412.393 9.096C412.249 8.724 412.045 8.4 411.781 8.124C411.529 7.836 411.223 7.614 410.863 7.458C410.515 7.29 410.125 7.206 409.693 7.206C409.261 7.206 408.865 7.29 408.505 7.458C408.157 7.614 407.857 7.83 407.605 8.106C407.353 8.382 407.161 8.706 407.029 9.078C406.897 9.438 406.831 9.828 406.831 10.248C406.831 10.668 406.903 11.07 407.047 11.454C407.191 11.826 407.389 12.15 407.641 12.426C407.905 12.702 408.211 12.924 408.559 13.092C408.919 13.248 409.309 13.326 409.729 13.326C410.173 13.326 410.569 13.248 410.917 13.092C411.277 12.924 411.583 12.702 411.835 12.426C412.087 12.15 412.279 11.832 412.411 11.472C412.543 11.1 412.609 10.704 412.609 10.284ZM419.183 11.382V15H417.005V5.496H419.183V7.638C419.483 6.918 419.909 6.342 420.461 5.91C421.013 5.478 421.709 5.28 422.549 5.316V7.62H422.423C421.943 7.62 421.505 7.698 421.109 7.854C420.713 8.01 420.371 8.244 420.083 8.556C419.795 8.868 419.573 9.264 419.417 9.744C419.261 10.212 419.183 10.758 419.183 11.382ZM433.296 5.496L429.516 15.27C429.324 15.762 429.126 16.176 428.922 16.512C428.718 16.848 428.49 17.118 428.238 17.322C427.986 17.538 427.71 17.694 427.41 17.79C427.11 17.886 426.768 17.934 426.384 17.934C425.928 17.934 425.52 17.88 425.16 17.772C424.812 17.676 424.47 17.538 424.134 17.358L424.872 15.738C425.076 15.846 425.28 15.93 425.484 15.99C425.7 16.062 425.922 16.098 426.15 16.098C426.462 16.098 426.72 16.02 426.924 15.864C427.128 15.708 427.32 15.42 427.5 15L423.54 5.496H425.862L428.562 12.552L431.028 5.496H433.296ZM451.773 12.984C451.449 13.332 451.107 13.644 450.747 13.92C450.399 14.184 450.021 14.418 449.613 14.622C449.205 14.814 448.755 14.958 448.263 15.054C447.783 15.162 447.249 15.216 446.661 15.216C445.737 15.216 444.885 15.048 444.105 14.712C443.325 14.376 442.647 13.92 442.071 13.344C441.507 12.756 441.063 12.066 440.739 11.274C440.415 10.482 440.253 9.63 440.253 8.718C440.253 7.818 440.409 6.972 440.721 6.18C441.045 5.388 441.495 4.698 442.071 4.11C442.647 3.51 443.331 3.042 444.123 2.706C444.915 2.358 445.791 2.184 446.751 2.184C447.327 2.184 447.849 2.232 448.317 2.328C448.797 2.424 449.235 2.562 449.631 2.742C450.027 2.91 450.393 3.114 450.729 3.354C451.065 3.594 451.383 3.858 451.683 4.146L450.261 5.784C449.757 5.316 449.223 4.938 448.659 4.65C448.095 4.362 447.453 4.218 446.733 4.218C446.133 4.218 445.575 4.338 445.059 4.578C444.555 4.806 444.117 5.124 443.745 5.532C443.373 5.928 443.085 6.396 442.881 6.936C442.677 7.476 442.575 8.058 442.575 8.682C442.575 9.306 442.677 9.894 442.881 10.446C443.085 10.986 443.373 11.46 443.745 11.868C444.117 12.276 444.555 12.6 445.059 12.84C445.575 13.068 446.133 13.182 446.733 13.182C447.501 13.182 448.161 13.038 448.713 12.75C449.265 12.45 449.811 12.048 450.351 11.544L451.773 12.984Z" fill="black"/>
<path opacity="0.5" d="M2 29H464" stroke="#B1B3B6"/>
</svg>
