<svg width="194" height="194" viewBox="0 0 194 194" fill="none" xmlns="http://www.w3.org/2000/svg">
<circle cx="97" cy="97" r="97" fill="#3B91DC"/>
<path opacity="0.75" d="M132.983 84.6597C132.983 64.4982 116.621 48.0734 96.4892 48.0734C76.3571 48.0734 59.9957 64.4764 59.9957 84.6597C59.9957 97.6735 65.1534 105.517 69.7259 112.469C73.4966 118.204 76.7255 123.201 76.9422 130.241C75.3386 131.457 74.2984 133.369 74.2984 135.52V146.1C74.2984 152.618 79.4994 157.919 85.9356 158.071L86.434 160.526C87.3225 164.915 91.0498 168 95.514 168H97.486C101.95 168 105.699 164.915 106.566 160.526L107.064 158.071C113.522 157.897 118.702 152.596 118.702 146.1V135.52C118.702 133.347 117.64 131.457 116.058 130.241C116.275 123.18 119.503 118.183 123.274 112.469C127.803 105.517 132.961 97.6518 132.961 84.6597H132.983ZM97.486 164.546H95.514C92.7185 164.546 90.378 162.612 89.8146 159.875L89.4679 158.093H103.532L103.185 159.875C102.644 162.612 100.303 164.546 97.486 164.546ZM115.234 146.1C115.234 150.793 111.42 154.617 106.739 154.617H86.2823C81.6014 154.617 77.7874 150.793 77.7874 146.1V135.52C77.7874 133.782 79.196 132.348 80.9513 132.348H112.092C113.826 132.348 115.256 133.76 115.256 135.52V146.1H115.234ZM112.634 128.937C112.439 128.937 112.265 128.872 112.07 128.872H80.9296C80.7346 128.872 80.5612 128.915 80.3662 128.937C79.8244 121.507 76.3138 116.162 72.6298 110.535C68.1223 103.692 63.463 96.6089 63.463 84.638C63.463 66.3883 78.2858 51.5278 96.4892 51.5278C114.693 51.5278 129.515 66.3883 129.515 84.638C129.515 96.5872 124.878 103.67 120.349 110.535C116.665 116.162 113.176 121.507 112.612 128.937H112.634ZM94.7772 40.7953V27.7381C94.7772 26.7821 95.5573 26 96.5108 26C97.4643 26 98.2445 26.7821 98.2445 27.7381V40.7953C98.2445 41.7512 97.4643 42.5334 96.5108 42.5334C95.5573 42.5334 94.7772 41.773 94.7772 40.817V40.7953ZM137.88 43.1634C138.552 43.8369 138.552 44.9449 137.88 45.6184L128.67 54.8519C128.323 55.1995 127.89 55.3516 127.457 55.3516C127.023 55.3516 126.568 55.1778 126.243 54.8519C125.571 54.1784 125.571 53.0704 126.243 52.3969L135.453 43.1634C136.125 42.4899 137.208 42.4899 137.902 43.1634H137.88ZM155 84.638C155 85.5939 154.22 86.3761 153.266 86.3761H140.242C139.289 86.3761 138.509 85.5939 138.509 84.638C138.509 83.6821 139.289 82.8999 140.242 82.8999H153.266C154.22 82.8999 155 83.6821 155 84.638ZM137.88 123.658C138.552 124.331 138.552 125.439 137.88 126.113C137.533 126.46 137.1 126.612 136.667 126.612C136.233 126.612 135.778 126.438 135.453 126.113L126.243 116.879C125.571 116.206 125.571 115.098 126.243 114.424C126.915 113.751 128.02 113.751 128.692 114.424L137.902 123.658H137.88ZM55.1415 45.6401C54.4697 44.9666 54.4697 43.8586 55.1415 43.1851C55.8133 42.5116 56.9185 42.5116 57.5903 43.1851L66.8003 52.4186C67.4721 53.0921 67.4721 54.2001 66.8003 54.8736C66.4536 55.2212 66.0202 55.3733 65.5868 55.3733C65.1534 55.3733 64.6983 55.1995 64.3732 54.8736L55.1632 45.6401H55.1415ZM54.4914 84.6597C54.4914 85.6157 53.7112 86.3978 52.7577 86.3978H39.7337C38.7802 86.3978 38 85.6157 38 84.6597C38 83.7038 38.7802 82.9217 39.7337 82.9217H52.7577C53.7112 82.9217 54.4914 83.7038 54.4914 84.6597ZM66.8003 114.424C67.4721 115.098 67.4721 116.206 66.8003 116.879L57.5903 126.113C57.2436 126.46 56.8102 126.612 56.3767 126.612C55.9433 126.612 55.4882 126.438 55.1632 126.113C54.4914 125.439 54.4914 124.331 55.1632 123.658L64.3732 114.424C65.045 113.751 66.1502 113.751 66.822 114.424H66.8003ZM116.188 78.8372C113.587 78.8372 111.42 80.5536 110.683 82.9217H98.2228V80.1842H103.164C103.836 80.1842 104.442 79.7931 104.724 79.1848L107.52 73.1233C107.758 73.145 108.018 73.1885 108.256 73.1885C111.464 73.1885 114.042 70.5814 114.042 67.3877C114.042 64.194 111.442 61.5869 108.256 61.5869C105.071 61.5869 102.47 64.194 102.47 67.3877C102.47 69.0823 103.207 70.6031 104.399 71.6677L102.08 76.7081H98.2445V60.8265C98.2445 59.8706 97.4643 59.0884 96.5108 59.0884H94.0404C92.5451 59.0884 91.2882 60.153 91.0065 61.6086L90.5297 64.2157C89.0778 64.6502 87.6475 65.2368 86.3256 65.9755L84.1586 64.4764C82.945 63.6291 81.2763 63.7812 80.2362 64.8241L76.7472 68.3219C75.6853 69.3865 75.5336 71.0159 76.4004 72.2543L77.8957 74.4269C77.1589 75.7739 76.5738 77.186 76.1404 78.6417L73.5399 79.1196C72.088 79.3804 71.0261 80.6622 71.0261 82.1613V87.1147C71.0261 88.6138 72.088 89.8739 73.5399 90.1564L76.1404 90.6343C76.5738 92.09 77.1589 93.5239 77.8957 94.8491L76.4004 97.0217C75.5553 98.2384 75.707 99.9113 76.7472 100.954L80.2362 104.452C81.298 105.517 82.9233 105.647 84.1586 104.8L86.3256 103.3C87.6692 104.039 89.0778 104.626 90.5297 105.06L91.0065 107.667C91.2665 109.123 92.5451 110.188 94.0404 110.188H96.5325C97.486 110.188 98.2662 109.405 98.2662 108.45V92.5679H102.102L104.421 97.6083C103.25 98.6729 102.492 100.194 102.492 101.888C102.492 105.104 105.092 107.689 108.278 107.689C111.464 107.689 114.064 105.082 114.064 101.888C114.064 98.6946 111.464 96.0875 108.278 96.0875C108.018 96.0875 107.78 96.131 107.541 96.1527L104.746 90.0912C104.464 89.4829 103.857 89.0918 103.185 89.0918H98.2445V86.3543H110.705C111.442 88.7225 113.631 90.4388 116.209 90.4388C119.417 90.4388 121.996 87.8317 121.996 84.638C121.996 81.4226 119.417 78.8372 116.209 78.8372H116.188ZM108.278 65.0196C109.578 65.0196 110.618 66.0624 110.618 67.366C110.618 68.6695 109.578 69.7124 108.278 69.7124C106.978 69.7124 105.938 68.6695 105.938 67.366C105.938 66.0842 106.978 65.0196 108.278 65.0196ZM110.618 101.932C110.618 103.235 109.578 104.278 108.278 104.278C106.978 104.278 105.938 103.235 105.938 101.932C105.938 100.628 106.978 99.5854 108.278 99.5854C109.578 99.5854 110.618 100.628 110.618 101.932ZM94.3654 106.733L93.9104 104.213C93.6937 103.04 92.8485 102.127 91.7216 101.801C90.3564 101.41 89.0561 100.867 87.8209 100.172C86.8024 99.5854 85.5455 99.6505 84.5486 100.324L82.4466 101.78L79.4127 98.7381L80.8646 96.6307C81.5364 95.653 81.6014 94.4146 81.0163 93.3501C80.3228 92.1117 79.7811 90.7864 79.391 89.4394C79.0876 88.2879 78.1558 87.4624 76.9855 87.2451L74.4718 86.7889V82.4654L76.9855 82.0092C78.1558 81.7919 79.0659 80.9446 79.391 79.8149C79.7811 78.4461 80.3228 77.1426 81.0163 75.9042C81.6014 74.8831 81.5364 73.623 80.8646 72.6236L79.4127 70.5162L82.4466 67.4746L84.5486 68.9302C85.5238 69.6037 86.759 69.6689 87.8209 69.0823C89.0561 68.3871 90.378 67.8439 91.7216 67.4529C92.8702 67.1487 93.6937 66.2145 93.9104 65.0413L94.3654 62.5211H94.7772V71.6677C88.406 72.515 83.4651 77.9899 83.4651 84.5946C83.4651 91.1992 88.3843 96.6741 94.7772 97.5214V106.668H94.3654V106.711V106.733ZM94.7772 75.209V94.0887C90.3347 93.2632 86.9324 89.3525 86.9324 84.6597C86.9324 79.967 90.3347 76.0346 94.7772 75.2307V75.209ZM116.188 86.9844C114.888 86.9844 113.847 85.9416 113.847 84.638C113.847 83.3345 114.888 82.2916 116.188 82.2916C117.488 82.2916 118.528 83.3345 118.528 84.638C118.528 85.9416 117.488 86.9844 116.188 86.9844Z" fill="white"/>
</svg>
