<svg width="194" height="194" viewBox="0 0 194 194" fill="none" xmlns="http://www.w3.org/2000/svg">
<circle cx="97" cy="97" r="97" fill="#E036AE"/>
<path opacity="0.75" d="M129.872 107.658C129.088 109.817 127.141 111.355 124.844 111.598C124.844 113.217 124.195 114.756 123.032 115.889C121.302 117.563 118.788 118.102 116.518 117.32C116.22 118.129 115.734 118.858 115.112 119.479C113.328 121.206 110.679 121.746 108.354 120.801C107.083 123.959 103.488 125.47 100.325 124.202C99.5682 123.905 98.8653 123.446 98.2706 122.852L96.4324 121.017L92.3505 125.092C89.9717 127.494 86.106 127.521 83.7001 125.146C82.9702 124.445 82.4566 123.581 82.1593 122.609C81.6186 122.771 81.078 122.852 80.5373 122.852C77.4826 122.852 74.8875 120.639 74.482 117.616C74.4009 117.616 74.3469 117.616 74.2658 117.616C71.2652 117.616 68.6971 115.457 68.2105 112.489C68.1024 112.489 67.9942 112.516 67.8861 112.516C64.9666 112.516 62.4526 110.464 61.8579 107.604H56.3162C55.1538 107.604 54.2347 106.659 54.2347 105.526V78.8338C54.2347 77.7003 55.1538 76.7557 56.2892 76.7287L67.9402 76.5128L78.1044 67.9844C78.4828 67.6605 78.9694 67.4986 79.456 67.4986H113.49C113.977 67.4986 114.463 67.6605 114.842 67.9844L124.654 76.2159C124.898 76.4048 125.195 76.5128 125.492 76.5398L136.684 76.7557C137.819 76.7557 138.738 77.7003 138.738 78.8608V105.553C138.738 106.713 137.792 107.658 136.657 107.658H129.872ZM113.111 72.0327C112.868 71.8168 112.571 71.7088 112.246 71.7088H93.7832C93.0804 71.8168 92.4046 72.1676 91.891 72.6534C91.8369 72.7074 91.7828 72.7884 91.7288 72.8423L82.9162 81.6406C81.97 82.6392 81.9971 84.2046 82.9973 85.1492C83.9704 86.0668 85.4843 86.0668 86.4574 85.1492L94.3239 77.2955C94.7294 76.8906 95.243 76.6747 95.8107 76.6747H102.731C103.272 76.6747 103.812 76.8906 104.218 77.2685L130.737 103.447H134.548V82.2344C134.548 81.5057 133.954 80.9119 133.224 80.8849L124.195 80.723C123.708 80.723 123.249 80.5341 122.897 80.2372L113.111 72.0327ZM69.2648 107.793L79.0505 98.0227C79.8615 97.294 79.9156 96.0526 79.1857 95.2429C78.4558 94.4332 77.2123 94.3793 76.4013 95.108C76.3473 95.1619 76.3202 95.1889 76.2662 95.2429L66.4804 105.013C65.7235 105.768 65.7235 107.01 66.4804 107.793C67.2644 108.521 68.4808 108.521 69.2377 107.793H69.2648ZM75.6444 112.893L76.1851 112.381L83.2406 105.337L84.457 104.122C85.2139 103.366 85.2139 102.125 84.457 101.342C84.0786 100.964 83.592 100.776 83.0784 100.776C82.5648 100.776 82.0511 100.991 81.6997 101.342L79.5641 103.474L72.8871 110.141C72.1302 110.896 72.1302 112.138 72.8871 112.92C73.6711 113.649 74.8875 113.649 75.6715 112.92L75.6444 112.893ZM80.5373 118.669C81.0509 118.669 81.5645 118.48 81.916 118.102L83.619 116.402L88.1334 111.895L88.9444 111.085C89.7013 110.33 89.7013 109.088 88.9444 108.305C88.1875 107.55 86.944 107.55 86.1601 108.305L79.1046 115.349C78.3477 116.105 78.3477 117.347 79.1046 118.129C79.483 118.507 79.9696 118.696 80.4832 118.696L80.5373 118.669ZM94.4861 116.213C94.4861 115.134 93.621 114.243 92.5397 114.243C92.0261 114.243 91.5125 114.459 91.1611 114.81L89.6202 116.348L86.6467 119.317C85.8897 120.099 85.9438 121.341 86.7278 122.097C87.4847 122.798 88.6741 122.798 89.431 122.097L93.9454 117.59C94.3239 117.212 94.5131 116.726 94.5131 116.213H94.4861ZM104.029 117.104L89.1877 102.287C89.2147 102.773 89.1877 103.259 89.1336 103.744C90.1879 104.014 91.1611 104.554 91.945 105.31C93.1074 106.47 93.7562 108.036 93.7562 109.655C93.7562 109.817 93.7292 109.979 93.7021 110.168C94.9186 110.411 96.0269 110.977 96.892 111.868C98.0544 113.028 98.7031 114.594 98.7031 116.213C98.7031 116.537 98.6761 116.888 98.595 117.212L101.271 119.884C102.028 120.666 103.272 120.666 104.056 119.911C104.84 119.155 104.84 117.913 104.083 117.131L104.029 117.104ZM125.736 104.446L101.839 80.8849H96.6487L89.6473 87.875C87.1603 90.358 83.1324 90.8168 80.4292 88.6037C77.3204 86.0668 77.1312 81.4787 79.9156 78.6989L86.8899 71.7358H80.6995C80.3751 71.7358 80.0778 71.8438 79.8345 72.0597L70.0487 80.2642C69.6703 80.5611 69.2107 80.75 68.7512 80.75L59.7223 80.9119C58.9924 80.9119 58.3977 81.5327 58.3977 82.2614V102.125C58.3977 102.881 58.9924 103.474 59.7493 103.474H62.4796C62.7499 102.962 63.1014 102.476 63.5068 102.071L73.2926 92.3011C75.6985 89.8992 79.5912 89.8992 81.9971 92.3011C83.1595 93.4617 83.8082 95.054 83.7812 96.7003C84.9706 96.8352 86.106 97.321 87.0251 98.1037C87.1062 97.9148 87.2143 97.7528 87.3765 97.5909C88.1875 96.7813 89.5121 96.7813 90.3501 97.5909L106.948 114.162L109.3 116.51C110.084 117.239 111.3 117.239 112.084 116.51C112.841 115.754 112.841 114.513 112.084 113.757L95.4863 97.1861C94.6753 96.3764 94.6753 95.027 95.4863 94.2173C96.2973 93.4077 97.6489 93.4077 98.4599 94.2173L115.058 110.815L117.22 112.974C118.004 113.703 119.221 113.703 120.005 112.974C120.762 112.219 120.762 110.977 120.005 110.195L119.707 109.898L103.109 93.3267C102.298 92.5171 102.298 91.1676 103.109 90.358C103.92 89.5483 105.272 89.5483 106.083 90.358L122.681 106.929C123.438 107.712 124.681 107.712 125.465 106.956C126.141 106.308 126.249 105.283 125.736 104.5V104.446ZM109.786 148.653C111.49 150.786 112.138 153.592 111.571 156.264L110.084 163.686C109.327 167.896 105.65 171 101.379 171H91.5666C87.2684 171 83.592 167.896 82.8621 163.686L81.3753 156.264C81.1861 155.293 81.132 154.294 81.2402 153.295C63.1284 148.384 48.4227 135.186 41.5835 117.724C41.1239 117.805 40.6644 117.832 40.2048 117.859H30.392C26.0939 117.859 22.4175 114.756 21.6876 110.545L20.2008 103.124C19.6331 100.452 20.2819 97.6449 21.9849 95.5128C23.2284 93.8665 25.0396 92.733 27.0671 92.3011C23.4447 87.7671 24.2016 81.1548 28.7431 77.5653C32.2843 74.7585 37.2313 74.5156 41.0158 76.9716C44.2057 67.9574 49.5311 59.8878 56.5325 53.4105C57.3975 52.6009 58.7762 52.7088 59.5601 53.5994C60.29 54.4631 60.2089 55.7315 59.3709 56.5142C52.3695 62.9915 47.1522 71.223 44.3408 80.3722C46.6115 84.1236 46.3142 88.8736 43.5839 92.3011C45.6113 92.733 47.3955 93.8665 48.666 95.5128C50.3691 97.6449 51.0178 100.452 50.4502 103.124L48.9634 110.545C48.5308 112.759 47.2874 114.729 45.5032 116.105C51.8829 132.514 65.7235 144.875 82.754 149.382C82.9162 149.166 83.0513 148.923 83.2406 148.707C84.4841 147.061 86.2952 145.928 88.3227 145.496C84.2408 140.368 85.7276 132.649 91.918 129.518C95.3511 127.791 99.6493 128.142 102.758 130.436C107.759 134.134 108.462 140.935 104.812 145.496C106.84 145.928 108.624 147.088 109.895 148.707L109.786 148.653ZM28.9593 85.7429C28.9593 89.2244 31.7977 92.0582 35.2849 92.0582C38.7721 92.0582 41.6105 89.2244 41.6105 85.7429C41.6105 82.2614 38.7721 79.4276 35.2849 79.4276C31.7977 79.4276 28.9593 82.2614 28.9593 85.7429ZM40.2048 113.622C42.5026 113.595 44.4219 111.922 44.8004 109.682L46.2872 102.26C46.6115 100.776 46.2601 99.2372 45.314 98.0497C44.476 96.8892 43.1244 96.2145 41.6916 96.2415H28.9053C27.4725 96.2415 26.1209 96.8892 25.2829 98.0497C24.3368 99.2372 23.9853 100.776 24.3097 102.26L25.7965 109.682C26.175 111.949 28.0943 113.595 30.392 113.649H40.2048V113.622ZM90.1609 138.911C90.1609 142.392 92.9993 145.226 96.4865 145.226C99.9737 145.226 102.812 142.392 102.812 138.911C102.812 135.429 99.9737 132.595 96.4865 132.595C92.9993 132.595 90.1609 135.429 90.1609 138.911ZM106.489 151.217C105.65 150.057 104.299 149.382 102.866 149.409H90.1068C88.6741 149.409 87.3225 150.057 86.4845 151.217C85.5383 152.405 85.1869 153.943 85.5113 155.428L86.9981 162.849C87.3765 165.089 89.3229 166.763 91.5936 166.79H101.406C103.704 166.763 105.623 165.089 106.002 162.849L107.489 155.428C107.813 153.943 107.462 152.405 106.516 151.217H106.489ZM172.772 103.07L171.285 110.491C170.528 114.702 166.852 117.778 162.581 117.805H152.768C152.309 117.805 151.849 117.751 151.389 117.67C148.713 124.526 144.821 130.841 139.847 136.239C139.036 137.102 137.657 137.129 136.819 136.293C136.008 135.483 136.008 134.214 136.765 133.378C141.414 128.304 145.064 122.42 147.524 116.024C145.713 114.675 144.469 112.678 144.064 110.464L142.577 103.043C142.009 100.371 142.658 97.5909 144.361 95.4318C145.605 93.7855 147.416 92.652 149.443 92.2202C146.713 88.7926 146.388 84.0426 148.686 80.2912C143.091 62.5057 128.817 48.7955 110.814 43.8565C111.76 45.7188 112.03 47.8509 111.598 49.875L110.111 57.2699C109.354 61.5071 105.678 64.5838 101.406 64.6108H91.5936C87.2954 64.6108 83.619 61.5071 82.8891 57.2699L81.4024 49.875C80.8347 47.2031 81.4834 44.4233 83.1865 42.2642C84.43 40.6179 86.2412 39.4844 88.2686 39.0526C84.2137 33.9517 85.6735 26.26 91.8099 23.1293C95.1619 21.402 99.3519 21.6719 102.434 23.831C107.381 27.2585 108.381 33.7358 105.245 38.3779C126.709 41.6705 144.658 56.4602 151.984 76.8906C156.85 73.733 163.365 75.1094 166.528 79.9673C168.988 83.7457 168.771 88.6847 165.933 92.2202C167.96 92.652 169.745 93.7855 171.015 95.4318C172.718 97.5639 173.367 100.371 172.799 103.043L172.772 103.07ZM90.1609 32.5753C90.1609 36.0568 92.9993 38.8906 96.4865 38.8906C99.9737 38.8906 102.812 36.0568 102.812 32.5753C102.812 29.0938 99.9737 26.26 96.4865 26.26C92.9993 26.26 90.1609 29.0938 90.1609 32.5753ZM106.489 44.8821C105.65 43.7216 104.299 43.0739 102.866 43.0739H90.1068C88.6741 43.0739 87.3225 43.7216 86.4845 44.8821C85.5383 46.0696 85.1869 47.608 85.5113 49.0923L86.9981 56.4872C87.3765 58.7543 89.2958 60.4006 91.5936 60.4546H101.406C103.704 60.4276 105.623 58.7543 106.002 56.4872L107.489 49.0923C107.813 47.608 107.462 46.0696 106.516 44.8821H106.489ZM151.362 85.7429C151.362 89.2244 154.201 92.0582 157.688 92.0582C161.175 92.0582 164.014 89.2244 164.014 85.7429C164.014 82.2614 161.175 79.4276 157.688 79.4276C154.201 79.4276 151.362 82.2614 151.362 85.7429ZM167.69 98.0497C166.852 96.8892 165.5 96.2145 164.068 96.2415H151.281C149.849 96.2415 148.497 96.8892 147.659 98.0497C146.713 99.2372 146.361 100.776 146.686 102.26L148.173 109.682C148.551 111.922 150.47 113.595 152.768 113.649H162.581C164.879 113.622 166.798 111.949 167.176 109.709L168.663 102.287C168.988 100.803 168.663 99.2642 167.69 98.0767V98.0497Z" fill="white"/>
</svg>
