<svg width="98" height="98" viewBox="0 0 98 98" fill="none" xmlns="http://www.w3.org/2000/svg">
<path opacity="0.667" d="M56.8777 12.251H25.3753C23.4501 12.251 21.875 13.8261 21.875 15.7512V26.2521C21.875 28.1772 23.4501 29.7523 25.3753 29.7523H56.8777C58.8029 29.7523 60.378 28.1772 60.378 26.2521V15.7512C60.378 13.8261 58.8029 12.251 56.8777 12.251ZM55.0576 26.2521H27.1779C26.1803 26.2521 25.3578 25.447 25.3578 24.4319V17.5539C25.3578 16.5563 26.1628 15.7337 27.1779 15.7337H55.0576C56.0552 15.7337 56.8777 16.5388 56.8777 17.5539V24.4319C56.8777 25.4295 56.0727 26.2521 55.0576 26.2521Z" fill="#3D86C6"/>
<path opacity="0.667" d="M71.7556 40.3931V5.25041C71.7556 2.36268 69.3929 0 66.5052 0H5.25041C2.36268 0 0 2.36268 0 5.25041V80.5063C0 83.394 2.36268 85.7567 5.25041 85.7567H45.556C46.1336 86.5617 46.7286 87.3668 47.3937 88.0844C54.5692 96.7475 68.1853 100.51 79.0187 96.2225C107.791 85.1791 102.33 43.6484 71.7556 40.3756V40.3931ZM68.2903 44.401C68.5353 51.9616 67.8703 56.7044 61.1848 61.1848C59.6271 62.4099 57.4395 64.055 55.6543 63.0049C54.4467 61.9898 53.9392 60.0997 52.4866 59.0146C50.6839 57.562 48.5138 57.562 46.5011 57.737C50.5614 49.7039 58.7521 44.1209 68.2903 43.8059C68.2903 43.9984 68.2903 44.2084 68.2903 44.401ZM14.0011 63.0224V3.51777H66.5052C67.4678 3.51777 68.2553 4.30533 68.2553 5.26791V40.3231C56.3019 40.6907 46.1861 48.3213 42.1433 58.9621C39.2206 66.2602 39.7631 75.4484 43.4384 82.2914H14.0011V71.7906V63.0399V63.0224ZM10.5008 71.7731V82.2739H5.25041C4.28783 82.2739 3.50027 81.4864 3.50027 80.5238V5.25041C3.50027 4.28783 4.28783 3.50027 5.25041 3.50027H10.5008V71.7556V71.7731ZM51.349 87.2268C62.5324 81.3113 69.5329 81.2063 75.7809 93.5973C67.2577 96.1175 57.317 93.2998 51.349 87.2268ZM79.1062 92.4597C74.4858 82.1864 65.7176 76.5335 55.0593 81.7314C53.0291 82.5189 50.929 83.359 49.0213 84.5491C45.7311 80.2787 43.7534 74.9408 43.7534 69.1304C43.7534 66.4352 44.1909 63.8275 44.9785 61.3773C45.2935 61.3423 45.6261 61.3248 45.9411 61.2898C47.6737 61.1148 49.3188 60.9397 50.2814 61.7273C51.524 62.8999 51.9965 64.79 53.6592 65.8576C55.2343 66.9602 57.422 67.0477 59.2771 66.3827C60.8522 65.8226 62.1648 64.8251 63.3199 63.9325C65.8401 61.9723 68.9729 59.5571 70.3905 55.9869C71.8956 52.0316 71.8256 47.9362 71.7731 43.8934C78.6511 44.611 84.7066 48.0762 88.8369 53.1866C84.2341 55.1293 77.9336 57.8245 80.0687 64.0025C80.6813 65.7526 80.2262 66.6977 79.0712 68.2553C76.4635 71.3706 76.3584 75.8684 79.4037 79.1412C82.3614 82.2564 85.7392 83.2015 89.362 84.3566C86.7193 87.8743 83.2015 90.6921 79.1062 92.4422V92.4597ZM91.3921 81.2938C87.2793 80.1912 79.5612 77.9161 80.7688 72.3331C81.6439 70.1805 83.709 68.5878 83.849 65.8926C83.989 64.2825 83.2015 62.8999 83.184 61.4648C83.6915 58.5421 88.3994 57.4395 90.8671 56.1094C95.4524 63.3199 95.6975 73.8733 91.3921 81.2938Z" fill="#3D86C6"/>
</svg>
