<svg width="95" height="97" viewBox="0 0 95 97" fill="none" xmlns="http://www.w3.org/2000/svg">
<g opacity="0.6667" clip-path="url(#clip0_33_448)">
<path d="M55.0784 35.6408V20.6594C55.0784 19.9427 54.5018 19.3776 53.8016 19.3776H53.3211C48.2142 19.3914 43.3269 17.3516 39.7301 13.7269L39.332 13.3272C38.8377 12.831 38.014 12.831 37.5198 13.3272L37.1217 13.7269C33.5249 17.3516 28.6376 19.3914 23.5307 19.3776H23.0502C22.3363 19.3776 21.7734 19.9565 21.7734 20.6594V35.6408C21.7734 40.3681 24.121 44.7923 28.0473 47.4109L37.712 53.8886C38.1376 54.178 38.7005 54.178 39.1398 53.8886L48.8045 47.4109C52.7308 44.7923 55.0921 40.3681 55.0784 35.6408ZM38.4259 51.2699L29.4613 45.2746C26.2489 43.1246 24.3269 39.5136 24.3269 35.6408V21.9274C29.5849 21.7482 34.5957 19.6533 38.4259 16.0285C42.2561 19.6533 47.2669 21.7482 52.5249 21.9274V35.6408C52.5249 39.5136 50.6029 43.1246 47.3905 45.2746L38.4259 51.2699Z" fill="white"/>
<path d="M34.5814 38.1358L30.3668 33.9046L28.5547 35.7239L33.6754 40.8647C34.1696 41.3609 34.9933 41.3609 35.4875 40.8647L48.296 28.0058L46.4839 26.1865L34.5814 38.1358Z" fill="white"/>
<path fill-rule="evenodd" clip-rule="evenodd" d="M58.2905 0.124064C58.2905 0.124064 58.3316 0.137846 58.3454 0.151629L58.2905 0.124064ZM58.112 0.0689349C58.112 0.0689349 58.1532 0.0689349 58.1669 0.0827172H58.112V0.0689349ZM69.8772 15.2846L59.1142 4.43793V14.9401C59.1142 15.0365 59.1553 15.1192 59.2103 15.1744C59.2652 15.2295 59.3475 15.2708 59.4436 15.2708H69.8909L69.8772 15.2846ZM43.7796 85.5745C43.0658 85.5745 42.4892 84.9956 42.4892 84.2789C42.4892 83.5623 43.0658 82.9834 43.7796 82.9834H60.9263C61.6402 82.9834 62.2168 83.5623 62.2168 84.2789C62.2168 84.9956 61.6402 85.5745 60.9263 85.5745H43.7796ZM13.3302 85.5745C12.6163 85.5745 12.0397 84.9956 12.0397 84.2789C12.0397 83.5623 12.6163 82.9834 13.3302 82.9834H37.1351C37.849 82.9834 38.4256 83.5623 38.4256 84.2789C38.4256 84.9956 37.849 85.5745 37.1351 85.5745H13.3302ZM13.3302 65.852C12.6163 65.852 12.0397 65.2731 12.0397 64.5564C12.0397 63.8397 12.6163 63.2609 13.3302 63.2609H18.7666C19.4805 63.2609 20.0571 63.8397 20.0571 64.5564C20.0571 65.2731 19.4805 65.852 18.7666 65.852H13.3302ZM80.2421 81.426L53.8974 67.1613L53.0051 68.8152C52.909 69.0081 52.8952 69.2149 52.9501 69.4078C53.0188 69.6145 53.1561 69.7799 53.3483 69.8902L78.2514 83.3831C78.4574 83.4933 78.677 83.5071 78.8829 83.452C79.0751 83.3969 79.2536 83.2728 79.3497 83.0799L80.2421 81.426ZM79.4046 63.1644L89.0282 45.2612C89.3027 44.7512 89.6048 44.324 89.9754 43.9519C90.3461 43.5797 90.758 43.249 91.2522 42.9595C91.8425 42.615 92.3916 42.1877 92.8858 41.6778C93.3526 41.1954 93.7645 40.6303 94.1077 39.9963C95.0961 38.1495 95.2471 36.0821 94.698 34.2215C94.1488 32.3609 92.8721 30.707 91.0462 29.7147C89.2066 28.7224 87.1474 28.5708 85.2941 29.1221C83.4408 29.6734 81.7934 30.9551 80.8049 32.7882C80.4754 33.4084 80.2283 34.0699 80.0773 34.7315C79.9263 35.4206 79.8714 36.1097 79.8988 36.7988C79.9263 37.4053 79.9263 37.9841 79.8439 38.5216C79.7753 39.0178 79.6243 39.4864 79.3772 39.955L74.2565 49.4648V16.5526C74.2565 16.1667 74.078 15.8083 73.8172 15.574L58.8121 0.482405L58.7847 0.45484V0.427275H58.7572V0.399711L58.7023 0.344581L58.6749 0.317017L58.6474 0.289452L58.6199 0.261887H58.5925V0.248105L58.565 0.234323L58.5376 0.206758C58.5238 0.206758 58.5101 0.179193 58.4827 0.179193H58.4552V0.165411L58.4277 0.151629C58.4277 0.151629 58.414 0.151629 58.4003 0.151629H58.3728V0.137846H58.3454C58.3454 0.137846 58.3042 0.110282 58.2905 0.0964995C58.263 0.0964995 58.2356 0.0689349 58.2081 0.0689349H58.1806C58.1532 0.0689349 58.1395 0.0689349 58.1257 0.0551525C58.1257 0.0551525 58.0434 0.0413702 58.0022 0.0275879C58.0022 0.0275879 57.961 0.0275879 57.9473 0.0275879H57.9198H57.8512H3.36344C2.42991 0.0275879 1.59249 0.413493 0.988439 1.0337C0.384393 1.64012 0 2.49462 0 3.41804V93.6234C0 94.5468 0.370665 95.3875 0.988439 96.0077C1.60621 96.6279 2.44364 97 3.36344 97H70.8931C71.8129 97 72.6503 96.6141 73.2681 96.0077C73.8721 95.4013 74.2565 94.5468 74.2565 93.6234V84.1273L77.0434 85.6434C77.8533 86.0844 78.7731 86.1533 79.5968 85.919C80.4342 85.671 81.1756 85.1197 81.6012 84.2927L82.4935 82.6388L82.5621 82.6802C83.0426 82.9421 83.5918 82.9834 84.086 82.8318C84.5116 82.7078 84.8822 82.4459 85.1431 82.0738L85.1842 82.0324L87.5592 77.5945C88.2045 76.3955 88.3006 75.0448 87.9436 73.8319C87.5867 72.6191 86.763 71.5441 85.5686 70.8963L79.8027 67.7677L80.0361 67.3405C80.5029 66.486 80.5578 65.5212 80.3107 64.6529C80.146 64.0878 79.8302 63.5641 79.3909 63.1369L79.4046 63.1644ZM72.0462 59.0297L81.6286 41.1816C82.0405 40.4236 82.2601 39.6793 82.3699 38.9075C82.4798 38.1771 82.4798 37.4466 82.4386 36.6748C82.4111 36.22 82.4386 35.7514 82.5484 35.3103C82.6445 34.8831 82.8093 34.4421 83.0289 34.0286C83.6879 32.8157 84.7724 31.975 85.9942 31.6029C87.216 31.2308 88.5889 31.341 89.797 31.9888C91.0051 32.6503 91.8425 33.7392 92.2132 34.9658C92.5838 36.1924 92.474 37.5706 91.8288 38.7835C91.6091 39.197 91.3345 39.5691 91.0188 39.8999C90.703 40.2306 90.3461 40.5063 89.948 40.7406C89.2478 41.154 88.6438 41.6226 88.1221 42.1739C87.5867 42.7252 87.1474 43.3454 86.763 44.0621L77.2081 61.8413L72.0462 59.0435V59.0297ZM65.4978 60.0358L59.7319 56.9072C58.5376 56.2595 57.1922 56.163 55.9841 56.5213C54.776 56.8797 53.7052 57.7066 53.06 58.9057L50.7673 63.1644C50.7673 63.1644 50.7399 63.2333 50.7124 63.2747H25.4111C24.6973 63.2747 24.1207 63.8535 24.1207 64.5702C24.1207 65.2869 24.6973 65.8658 25.4111 65.8658H51.4949C51.4949 65.8658 51.5499 65.8933 51.5773 65.9071L51.646 65.9347L50.7536 67.5885C50.3143 68.4017 50.2457 69.3251 50.5065 70.1658C50.7536 70.9928 51.3302 71.7232 52.1402 72.1643L53.9386 73.1428H13.3302C12.6163 73.1428 12.0397 73.7217 12.0397 74.4246C12.0397 75.1275 12.6163 75.7201 13.3302 75.7201H58.716L71.6893 82.7491V93.6509C71.6893 93.8714 71.6069 94.0782 71.4559 94.216C71.3186 94.3538 71.1264 94.4503 70.9068 94.4503H3.34971C3.13006 94.4503 2.93786 94.3538 2.78685 94.216C2.64957 94.0782 2.55347 93.8714 2.55347 93.6509V3.40426C2.55347 3.18374 2.64957 2.97701 2.78685 2.83918C2.92413 2.70136 3.11633 2.60488 3.34971 2.60488H56.5332V14.9401C56.5332 15.7394 56.8627 16.4699 57.3844 16.9936C57.9061 17.5174 58.6337 17.8481 59.4299 17.8481H71.6756V54.2197L69.7262 57.8444C69.0809 57.6653 68.4082 57.6791 67.7905 57.872C66.9256 58.1339 66.1568 58.7265 65.7038 59.581L65.4841 60.0083L65.4978 60.0358ZM77.565 66.5686L67.7493 61.2487L67.9827 60.8214C68.1062 60.6009 68.3121 60.4355 68.5455 60.3666C68.7789 60.2977 69.0397 60.3115 69.2731 60.4355L77.414 64.8459C77.6337 64.9699 77.7984 65.1766 77.8671 65.4109C77.9357 65.6452 77.922 65.9071 77.7984 66.1414L77.565 66.5686ZM77.4827 69.4492L84.3743 73.1842C84.9371 73.4874 85.3353 74.0111 85.5 74.59C85.6785 75.1688 85.6236 75.8166 85.3215 76.3954L83.3035 80.158L82.5896 79.7721L53.9935 64.2808L53.2934 63.8949L55.3114 60.1323C55.6134 59.5672 56.1351 59.1675 56.7117 59.0022C57.2883 58.823 57.9335 58.8781 58.5101 59.1813L65.4155 62.9163L77.4827 69.4492Z" fill="white"/>
</g>
<defs>
<clipPath id="clip0_33_448">
<rect width="95" height="97" fill="white"/>
</clipPath>
</defs>
</svg>
