<svg width="102" height="102" viewBox="0 0 102 102" fill="none" xmlns="http://www.w3.org/2000/svg">
<path opacity="0.6667" d="M39.0748 21.809C34.4335 25.4835 31.4318 30.9159 30.8235 36.8109C42.4204 22.1791 62.9958 22.1791 74.6059 36.8109C73.7067 28.2063 68.0074 21.386 60.5627 18.5178C53.3296 15.7421 45.1179 17.0375 39.0748 21.809ZM18.3143 11.1821C16.6217 12.3981 14.2018 12.3981 12.5092 11.1821V13.6934C12.5092 17.5001 18.3143 17.5001 18.3143 13.6934V11.1821ZM12.5092 7.42828C12.5092 11.2349 18.3143 11.2349 18.3143 7.42828V1.81081H12.5092V7.42828ZM11.5968 0H19.2135C19.716 0 20.1259 0.409745 20.1259 0.912012V5.39277H78.4406C83.0423 5.39277 86.7977 9.14656 86.7977 13.7463V56.7166L99.0557 66.2333C100.709 67.5154 101.687 69.3658 101.938 71.2956C102.467 75.4723 99.5318 79.2526 95.34 79.7813C93.3962 80.0324 91.2672 79.5037 89.7201 78.2612L86.7977 75.9878V93.6465C86.7977 98.2462 83.0423 102 78.4406 102H8.35713C3.75543 102 0 98.2462 0 93.6465V13.7331C0 9.13334 3.75543 5.37955 8.35713 5.37955H10.6844V0.898795C10.6844 0.396527 11.0944 0 11.5968 0ZM20.1259 7.19036V13.6934C20.1259 19.8924 10.6977 19.8924 10.6977 13.6934V7.19036H8.35713C4.7604 7.19036 1.81161 10.1379 1.81161 13.7331V93.6333C1.81161 97.2285 4.7604 100.176 8.35713 100.176H78.4406C82.0373 100.176 84.9861 97.2285 84.9861 93.6333V74.5603L77.1183 68.467C75.6373 67.3171 75.2273 65.2816 76.0604 63.6823L73.2835 61.5278C63.6966 70.3307 49.508 72.0226 38.0831 65.7574C23.3523 57.6683 17.9572 39.1769 26.0367 24.4525C34.1161 9.72813 52.6155 4.33536 67.3595 12.4113C82.4737 20.6987 87.644 39.7849 78.9166 54.5621L81.5481 56.6109C82.5002 55.7649 83.7828 55.4609 84.9861 55.7385V13.7331C84.9861 10.1379 82.0373 7.19036 78.4406 7.19036H20.1259ZM52.7081 31.167C57.1246 31.167 59.1346 36.6788 55.8023 39.5338L56.8337 45.9311C56.9263 46.473 56.4899 46.9753 55.9478 46.9753H49.4684C48.8998 46.9753 48.4634 46.4862 48.5824 45.8518L49.6006 39.5338C46.2683 36.6788 48.2783 31.167 52.6948 31.167H52.7081ZM54.7841 33.837C52.9329 31.9865 49.7593 33.3083 49.7593 35.9121C49.7593 36.9167 50.2618 37.8287 51.0816 38.3838C51.4254 38.6614 51.5048 39.1372 51.4783 39.2826L50.5262 45.1644H54.8767L53.9378 39.3223C53.7527 38.3574 54.6651 38.4764 55.2998 37.3132C55.9213 36.1633 55.7098 34.749 54.7841 33.8238V33.837ZM30.8103 41.3313C32.2384 54.9851 45.6865 64.0259 58.8569 60.1796C67.5843 57.6418 73.6802 50.0814 74.5926 41.3313C62.9826 55.9632 42.4071 55.9764 30.8103 41.3313ZM64.7677 30.7573C57.1908 26.5938 48.2122 26.5938 40.6352 30.7573C37.0252 32.7531 33.8516 35.5949 31.3657 39.0711C42.3013 54.311 63.0884 54.311 74.0372 39.0711C71.538 35.6081 68.3777 32.7531 64.7677 30.7573ZM11.5968 32.9118C10.4067 32.9118 10.4067 31.0877 11.5968 31.0877H19.0812C20.2713 31.0877 20.2713 32.9118 19.0812 32.9118H11.5968ZM11.5968 40.8687C10.4067 40.8687 10.4067 39.0447 11.5968 39.0447H18.3672C19.5573 39.0447 19.5573 40.8687 18.3672 40.8687H11.5968ZM11.5968 48.8125C10.4067 48.8125 10.4067 47.0017 11.5968 47.0017H19.5176C20.7077 47.0017 20.7077 48.8125 19.5176 48.8125H11.5968ZM11.5968 56.7695C10.4067 56.7695 10.4067 54.9587 11.5968 54.9587H22.7441C23.9342 54.9587 23.9342 56.7695 22.7441 56.7695H11.5968ZM11.5968 64.7264C10.4067 64.7264 10.4067 62.9156 11.5968 62.9156H28.8929C30.083 62.9156 30.083 64.7264 28.8929 64.7264H11.5968ZM11.5968 72.6834C10.4067 72.6834 10.4067 70.8726 11.5968 70.8726H42.2485C43.4385 70.8726 43.4385 72.6834 42.2485 72.6834H11.5968ZM63.1545 72.6834C61.9644 72.6834 61.9644 70.8726 63.1545 70.8726H75.2009C76.391 70.8726 76.391 72.6834 75.2009 72.6834H63.1545ZM11.5968 80.6404C10.4067 80.6404 10.4067 78.8296 11.5968 78.8296H75.2009C76.391 78.8296 76.391 80.6404 75.2009 80.6404H11.5968ZM11.5968 88.5974C10.4067 88.5974 10.4067 86.7734 11.5968 86.7734H75.2009C76.391 86.7734 76.391 88.5974 75.2009 88.5974H11.5968ZM77.1051 62.2019L80.3844 57.9855L77.1712 55.4874C76.8009 55.2098 76.6951 54.6811 76.9596 54.2846C85.687 40.3929 80.9663 21.928 66.4868 13.9842C52.6287 6.38409 35.2269 11.4464 27.6235 25.3116C20.0201 39.1637 25.0846 56.558 38.9558 64.1581C49.9444 70.1853 63.5909 68.3745 72.5959 59.6773C72.9397 59.3072 73.5083 59.413 73.786 59.6112L77.1183 62.2019H77.1051ZM61.4222 16.9185C68.0736 19.5356 73.4687 25.087 75.5712 32.4227C79.2208 45.1512 71.9744 58.2631 59.3726 61.9375C46.7444 65.612 33.5343 58.3688 29.845 45.746C27.002 36.0047 30.7045 25.9064 38.2682 20.1304C44.8402 15.1209 53.6866 13.8917 61.409 16.9317L61.4222 16.9185ZM82.5002 58.2102L77.8588 64.1845C77.1844 65.0701 77.3299 66.339 78.2158 67.0263L90.7779 76.7677C92.2325 77.7193 93.33 78.2084 95.1152 77.9837C98.302 77.5739 100.55 74.6925 100.14 71.5071C99.9153 69.7227 99.1748 68.771 97.8921 67.6079L85.3432 57.8665C84.4572 57.1792 83.1878 57.3378 82.5002 58.2234V58.2102Z" fill="#3D86C6"/>
</svg>
