<svg width="81" height="100" viewBox="0 0 81 100" fill="none" xmlns="http://www.w3.org/2000/svg">
<path opacity="0.667" d="M3.63237 2.71765H77.3676C77.8839 2.71765 78.2896 3.12437 78.2896 3.64202V95.3765C78.2896 95.8941 77.8839 96.3008 77.3676 96.3008H3.63237C3.11609 96.3008 2.71045 95.8941 2.71045 95.3765V3.64202C2.71045 3.12437 3.11609 2.71765 3.63237 2.71765ZM13.1466 99.0185H80.0781C80.5944 99.0185 81 98.6118 81 98.0941V0.92437C81 0.406723 80.5944 0 80.0781 0H0.921921C0.405645 0 0 0.406723 0 0.92437V98.0756C0 98.5933 0.405645 99 0.921921 99H13.1466V99.0185ZM8.79513 9.87227C8.79513 9.13277 9.4036 8.52269 10.1411 8.52269H56.1266C56.8641 8.52269 57.4726 9.13277 57.4726 9.87227C57.4726 10.6118 56.8641 11.2218 56.1266 11.2218H10.1596C9.42204 11.2218 8.81357 10.6118 8.81357 9.87227H8.79513ZM8.79513 16.195C8.79513 15.4555 9.4036 14.8454 10.1411 14.8454H40.6936C41.4311 14.8454 42.0396 15.4555 42.0396 16.195C42.0396 16.9345 41.4311 17.5445 40.6936 17.5445H10.1596C9.42204 17.5445 8.81357 16.9345 8.81357 16.195H8.79513ZM59.1136 26.1042C59.1136 25.3647 59.7221 24.7546 60.4596 24.7546H72.9424C73.6799 24.7546 74.2884 25.3647 74.2884 26.1042C74.2884 26.8437 73.6799 27.4538 72.9424 27.4538H60.4596C59.7221 27.4538 59.1136 26.8437 59.1136 26.1042ZM55.9237 26.1042C55.9237 26.8437 55.3153 27.4538 54.5777 27.4538H51.1482C50.4107 27.4538 49.8022 26.8437 49.8022 26.1042C49.8022 25.3647 50.4107 24.7546 51.1482 24.7546H54.5777C55.3153 24.7546 55.9237 25.3647 55.9237 26.1042ZM59.1136 34.5529C59.1136 33.8134 59.7221 33.2034 60.4596 33.2034H72.9424C73.6799 33.2034 74.2884 33.8134 74.2884 34.5529C74.2884 35.2924 73.6799 35.9025 72.9424 35.9025H60.4596C59.7221 35.9025 59.1136 35.2924 59.1136 34.5529ZM55.9237 34.5529C55.9237 35.2924 55.3153 35.9025 54.5777 35.9025H51.1482C50.4107 35.9025 49.8022 35.2924 49.8022 34.5529C49.8022 33.8134 50.4107 33.2034 51.1482 33.2034H54.5777C55.3153 33.2034 55.9237 33.8134 55.9237 34.5529ZM55.9237 43.0017C55.9237 43.7412 55.3153 44.3513 54.5777 44.3513H51.1482C50.4107 44.3513 49.8022 43.7412 49.8022 43.0017C49.8022 42.2622 50.4107 41.6521 51.1482 41.6521H54.5777C55.3153 41.6521 55.9237 42.2622 55.9237 43.0017ZM59.1136 43.0017C59.1136 42.2622 59.7221 41.6521 60.4596 41.6521H72.9424C73.6799 41.6521 74.2884 42.2622 74.2884 43.0017C74.2884 43.7412 73.6799 44.3513 72.9424 44.3513H60.4596C59.7221 44.3513 59.1136 43.7412 59.1136 43.0017ZM59.1136 51.4504C59.1136 50.7109 59.7221 50.1008 60.4596 50.1008H72.9424C73.6799 50.1008 74.2884 50.7109 74.2884 51.4504C74.2884 52.1899 73.6799 52.8 72.9424 52.8H60.4596C59.7221 52.8 59.1136 52.1899 59.1136 51.4504ZM55.9237 51.4504C55.9237 52.1899 55.3153 52.8 54.5777 52.8H51.1482C50.4107 52.8 49.8022 52.1899 49.8022 51.4504C49.8022 50.7109 50.4107 50.1008 51.1482 50.1008H54.5777C55.3153 50.1008 55.9237 50.7109 55.9237 51.4504ZM29.3355 23.5899C15.0642 20.5765 2.82108 34.516 8.86888 49.0471C10.5468 53.0588 13.7735 56.2941 17.7562 57.958C32.2488 64.0403 46.1514 51.7462 43.1459 37.437C41.6893 30.4672 36.2684 25.0319 29.3171 23.5714L29.3355 23.5899ZM39.7532 40.0067H27.6945C27.1782 40.0067 26.7726 39.6 26.7726 39.0823V26.9916C26.7726 26.437 27.2704 25.9748 27.8236 26.0672C34.4245 27.1025 39.6426 32.3344 40.6752 38.9529C40.7674 39.5076 40.3064 39.9882 39.7532 39.9882V40.0067ZM12.0034 49.3244C6.43501 38.4723 13.2019 27.6017 23.048 26.0672C23.6012 25.9748 24.0806 26.437 24.0806 26.9916V41.3563C24.0806 41.5966 24.1543 41.837 24.265 42.0403L31.4375 54.4823C31.7141 54.963 31.5113 55.5916 30.995 55.795C27.252 57.2555 22.8268 57.2555 18.2725 55.2403C15.5805 54.0571 13.3494 51.9311 11.985 49.3059L12.0034 49.3244ZM33.7608 53.1143L28.5611 44.0924C28.2108 43.4823 28.6533 42.7059 29.354 42.7059H39.7348C40.288 42.7059 40.7489 43.205 40.6567 43.7597C40.0483 47.6235 38.02 51.0252 35.1068 53.3916C34.6827 53.7429 34.0189 53.595 33.7423 53.1143H33.7608ZM32.3041 65.7042C32.3041 66.4437 31.6957 67.0538 30.9581 67.0538H28.4136C27.6761 67.0538 27.0676 66.4437 27.0676 65.7042C27.0676 64.9647 27.6761 64.3546 28.4136 64.3546H30.9581C31.6957 64.3546 32.3041 64.9647 32.3041 65.7042ZM23.8593 65.7042C23.8593 66.4437 23.2509 67.0538 22.5133 67.0538H9.1639C8.42636 67.0538 7.81789 66.4437 7.81789 65.7042C7.81789 64.9647 8.42636 64.3546 9.1639 64.3546H22.5318C23.2693 64.3546 23.8778 64.9647 23.8778 65.7042H23.8593ZM23.8593 73.4689C23.8593 74.2084 23.2509 74.8185 22.5133 74.8185H9.1639C8.42636 74.8185 7.81789 74.2084 7.81789 73.4689C7.81789 72.7294 8.42636 72.1193 9.1639 72.1193H22.5318C23.2693 72.1193 23.8778 72.7294 23.8778 73.4689H23.8593ZM32.3041 73.4689C32.3041 74.2084 31.6957 74.8185 30.9581 74.8185H28.4136C27.6761 74.8185 27.0676 74.2084 27.0676 73.4689C27.0676 72.7294 27.6761 72.1193 28.4136 72.1193H30.9581C31.6957 72.1193 32.3041 72.7294 32.3041 73.4689ZM32.3041 81.2336C32.3041 81.9731 31.6957 82.5832 30.9581 82.5832H28.4136C27.6761 82.5832 27.0676 81.9731 27.0676 81.2336C27.0676 80.4941 27.6761 79.884 28.4136 79.884H30.9581C31.6957 79.884 32.3041 80.4941 32.3041 81.2336ZM23.8593 81.2336C23.8593 81.9731 23.2509 82.5832 22.5133 82.5832H9.1639C8.42636 82.5832 7.81789 81.9731 7.81789 81.2336C7.81789 80.4941 8.42636 79.884 9.1639 79.884H22.5318C23.2693 79.884 23.8778 80.4941 23.8778 81.2336H23.8593ZM32.3041 88.9983C32.3041 89.7378 31.6957 90.3479 30.9581 90.3479H28.4136C27.6761 90.3479 27.0676 89.7378 27.0676 88.9983C27.0676 88.2588 27.6761 87.6487 28.4136 87.6487H30.9581C31.6957 87.6487 32.3041 88.2588 32.3041 88.9983ZM23.8593 88.9983C23.8593 89.7378 23.2509 90.3479 22.5133 90.3479H9.1639C8.42636 90.3479 7.81789 89.7378 7.81789 88.9983C7.81789 88.2588 8.42636 87.6487 9.1639 87.6487H22.5318C23.2693 87.6487 23.8778 88.2588 23.8778 88.9983H23.8593ZM74.6019 66.0185H68.4066C67.8903 66.0185 67.4846 65.6118 67.4846 65.0941V60.0655C67.4846 59.5479 67.079 59.1412 66.5627 59.1412H57.6385C57.1222 59.1412 56.7166 59.5479 56.7166 60.0655V68.8471C56.7166 69.3647 56.311 69.7714 55.7947 69.7714H52.2914C51.7751 69.7714 51.3695 69.3647 51.3695 68.8471V63.5227C51.3695 63.005 50.9638 62.5983 50.4475 62.5983H41.5233C41.0071 62.5983 40.6014 63.005 40.6014 63.5227V91.1613C40.6014 91.679 41.0071 92.0857 41.5233 92.0857H74.6019C75.1181 92.0857 75.5238 91.679 75.5238 91.1613V66.9613C75.5238 66.4437 75.1181 66.037 74.6019 66.037V66.0185ZM47.7186 89.3681H44.2153C43.6991 89.3681 43.2934 88.9613 43.2934 88.4437V66.2218C43.2934 65.7042 43.6991 65.2975 44.2153 65.2975H47.7186C48.2349 65.2975 48.6406 65.7042 48.6406 66.2218V88.4437C48.6406 88.9613 48.2349 89.3681 47.7186 89.3681ZM56.6982 73.395V88.4437C56.6982 88.9613 56.2925 89.3681 55.7762 89.3681H52.2729C51.7567 89.3681 51.351 88.9613 51.351 88.4437V73.395C51.351 72.8773 51.7567 72.4706 52.2729 72.4706H55.7762C56.2925 72.4706 56.6982 72.8773 56.6982 73.395ZM63.8523 89.3681H60.349C59.8327 89.3681 59.427 88.9613 59.427 88.4437V62.7647C59.427 62.2471 59.8327 61.8403 60.349 61.8403H63.8523C64.3685 61.8403 64.7742 62.2471 64.7742 62.7647V88.4437C64.7742 88.9613 64.3685 89.3681 63.8523 89.3681ZM71.9099 89.3681H68.4066C67.8903 89.3681 67.4846 88.9613 67.4846 88.4437V69.6605C67.4846 69.1429 67.8903 68.7361 68.4066 68.7361H71.9099C72.4261 68.7361 72.8318 69.1429 72.8318 69.6605V88.4437C72.8318 88.9613 72.4261 89.3681 71.9099 89.3681Z" fill="white"/>
</svg>
