<svg width="78" height="104" viewBox="0 0 78 104" fill="none" xmlns="http://www.w3.org/2000/svg">
<g opacity="0.6667">
<path d="M67.7967 80.522V0H0V91.7967C0 97.6648 4.48351 102.494 10.2033 103.071V103.137H66.6593C72.9066 103.137 78 98.0604 78 91.7967C78 85.9286 73.533 81.0989 67.8132 80.522H67.7967ZM2.29121 91.7967V2.30769H65.489V80.456H11.3407V82.7637C16.3187 82.7637 20.3736 86.8187 20.3736 91.7967C20.3736 96.7747 16.3187 100.83 11.3407 100.83C6.36263 100.83 2.29121 96.7747 2.29121 91.7967ZM66.6429 100.83H18.1648C20.9011 98.7527 22.6813 95.489 22.6813 91.7967C22.6813 88.1044 20.9176 84.8407 18.1813 82.7637H66.6429C71.6209 82.7637 75.6758 86.8187 75.6758 91.7967C75.6758 96.7747 71.6209 100.83 66.6429 100.83Z" fill="#3D86C6"/>
<path d="M52.5964 12.4951H15.1953V14.8028H52.5964V12.4951Z" fill="#3D86C6"/>
<path d="M60.639 23.3066H26.3203V25.6143H60.639V23.3066Z" fill="#3D86C6"/>
<path d="M22.8581 23.3066H7.13281V25.6143H22.8581V23.3066Z" fill="#3D86C6"/>
<path d="M60.639 28.7959H26.3203V31.1036H60.639V28.7959Z" fill="#3D86C6"/>
<path d="M22.8581 28.7959H7.13281V31.1036H22.8581V28.7959Z" fill="#3D86C6"/>
<path d="M52.5964 39.9229H15.1953V42.2305H52.5964V39.9229Z" fill="#3D86C6"/>
<path d="M60.639 50.7529H26.3203V53.0606H60.639V50.7529Z" fill="#3D86C6"/>
<path d="M22.8581 50.7529H7.13281V53.0606H22.8581V50.7529Z" fill="#3D86C6"/>
<path d="M60.639 56.2256H26.3203V58.5333H60.639V56.2256Z" fill="#3D86C6"/>
<path d="M22.8581 56.2256H7.13281V58.5333H22.8581V56.2256Z" fill="#3D86C6"/>
<path d="M60.6432 73.8301H44.918V76.1378H60.6432V73.8301Z" fill="#3D86C6"/>
</g>
</svg>
