<svg width="194" height="194" viewBox="0 0 194 194" fill="none" xmlns="http://www.w3.org/2000/svg">
<circle cx="97" cy="97" r="97" fill="#3B91DC"/>
<g opacity="0.75">
<path fill-rule="evenodd" clip-rule="evenodd" d="M142.122 105.842C137.78 101.5 131.798 98.819 125.173 98.819C118.549 98.819 112.567 101.5 108.224 105.842C103.882 110.185 101.201 116.167 101.201 122.791C101.201 129.416 103.882 135.397 108.224 139.74C112.567 144.082 118.549 146.763 125.173 146.763C131.798 146.763 137.78 144.082 142.122 139.74C146.465 135.397 149.145 129.416 149.145 122.791C149.145 116.167 146.465 110.185 142.122 105.842ZM145.556 104.757C145.202 104.336 144.803 103.937 144.426 103.56C141.635 100.769 138.223 98.5753 134.412 97.2017V52.5808C134.412 51.6946 133.681 50.9635 132.795 50.9635H129.405L139.995 39.9301L150.585 50.9635H147.196C146.309 50.9635 145.578 51.6946 145.578 52.5808V104.779L145.556 104.757ZM116.843 96.8915C112.678 98.2208 108.956 100.547 105.942 103.56C105.854 103.649 105.787 103.715 105.699 103.804V63.7028C105.699 62.8166 104.968 62.0855 104.081 62.0855H100.692L111.282 51.0521L121.872 62.0855H118.482C117.596 62.0855 116.865 62.8166 116.865 63.7028V96.8915H116.843ZM101.223 135.685C102.11 137.303 103.129 138.832 104.303 140.249H31.2347V135.685H101.201H101.223ZM76.9854 132.451H88.1296V74.8469C88.1296 73.9607 88.8607 73.2296 89.7469 73.2296H93.1367L82.5464 62.1962L71.9562 73.2296H75.3459C76.2322 73.2296 76.9633 73.9607 76.9633 74.8469V132.451H76.9854ZM48.2721 132.451H59.4163V85.9689C59.4163 85.0827 60.1474 84.3516 61.0336 84.3516H64.4234L53.8331 73.3182L43.2429 84.3516H46.6326C47.5188 84.3516 48.25 85.0827 48.25 85.9689V132.451H48.2721ZM107.515 143.506C112.279 147.561 118.438 150.02 125.195 150.02C132.706 150.02 139.508 146.985 144.426 142.044C149.345 137.126 152.402 130.324 152.402 122.813C152.402 117.895 151.095 113.264 148.813 109.298V54.2203H154.374C154.773 54.2203 155.172 54.0652 155.504 53.7551C156.146 53.1347 156.169 52.1156 155.548 51.4731L141.169 36.4961L141.125 36.4517C140.483 35.8314 139.463 35.8535 138.843 36.4961L124.531 51.4066C124.198 51.6946 123.999 52.1377 123.999 52.603C123.999 53.4892 124.73 54.2203 125.616 54.2203H131.177V96.2711C129.25 95.828 127.256 95.6065 125.195 95.6065C123.445 95.6065 121.739 95.7616 120.1 96.0939V65.3645H125.661C126.06 65.3645 126.458 65.2094 126.791 64.8992C127.433 64.2788 127.455 63.2597 126.835 62.6172L112.456 47.6402L112.412 47.5959C111.769 46.9755 110.75 46.9977 110.13 47.6402L95.8175 62.5507C95.4851 62.8387 95.2857 63.2819 95.2857 63.7471C95.2857 64.6333 96.0169 65.3645 96.9031 65.3645H102.464V107.881C99.6282 112.179 97.9887 117.319 97.9887 122.858C97.9887 126.247 98.609 129.504 99.739 132.495H91.3643V76.5086H96.9252C97.324 76.5086 97.7228 76.3535 98.0552 76.0433C98.6977 75.423 98.7198 74.4038 98.0995 73.7613L83.7207 58.7843L83.6763 58.74C83.0338 58.1197 82.0147 58.1418 81.3944 58.7843L67.082 73.6949C66.7497 73.9829 66.5503 74.426 66.5503 74.8912C66.5503 75.7775 67.2814 76.5086 68.1676 76.5086H73.7286V132.495H62.6509V87.6306H68.2119C68.6107 87.6306 69.0095 87.4755 69.3419 87.1653C69.9844 86.5449 70.0065 85.5258 69.3862 84.8833L55.0073 69.9063L54.963 69.862C54.3205 69.2416 53.3014 69.2638 52.681 69.9063L38.3687 84.8168C38.0364 85.1049 37.837 85.548 37.837 86.0132C37.837 86.8994 38.5681 87.6306 39.4543 87.6306H45.0153V132.495H29.6173C28.7311 132.495 28 133.226 28 134.112V141.911C28 142.797 28.7311 143.528 29.6173 143.528H107.515V143.506Z" fill="white"/>
<path fill-rule="evenodd" clip-rule="evenodd" d="M130.866 136.903L122.137 126.49C122.226 126.49 122.315 126.49 122.403 126.49C126.657 126.49 130.18 123.322 130.734 119.223H134.589V116.542H130.667C130.379 114.947 129.626 113.507 128.562 112.377H134.566V109.696H115.734V112.377H123.644C125.749 112.842 127.41 114.46 127.942 116.542H115.734V119.223H127.964C127.388 121.771 125.106 123.654 122.381 123.654C121.029 123.654 119.789 123.189 118.814 122.413L118.748 122.48L116.687 124.186L116.643 124.23C116.731 124.297 116.798 124.385 116.886 124.452L128.784 138.631H132.572L130.844 136.903H130.866Z" fill="white"/>
</g>
</svg>
