<svg width="194" height="194" viewBox="0 0 194 194" fill="none" xmlns="http://www.w3.org/2000/svg">
<circle cx="97" cy="97" r="97" fill="#8CD3DA"/>
<g opacity="0.75">
<path fill-rule="evenodd" clip-rule="evenodd" d="M86.5969 101.229C85.9456 101.229 85.3733 100.776 85.2549 100.105C84.3471 95.3288 81.9 91.1648 80.0055 88.5203C79.3148 87.5731 78.6833 86.7047 78.0518 85.8759C74.6969 81.4159 72.2695 78.2189 72.2695 70.3053C72.2695 56.6489 83.3801 45.5581 97.0167 45.5581C110.673 45.5581 121.764 56.6687 121.764 70.3053C121.764 78.2189 119.337 81.4356 115.982 85.8956C115.35 86.7245 114.719 87.5928 114.028 88.5401C112.133 91.1845 109.686 95.3485 108.779 100.124C108.64 100.874 107.91 101.368 107.16 101.21C106.41 101.072 105.917 100.341 106.075 99.5914C107.081 94.3223 109.746 89.7833 111.798 86.9218C112.508 85.9351 113.16 85.0668 113.791 84.2182C117.047 79.8963 119.021 77.2913 119.021 70.2856C119.021 58.1488 109.154 48.2815 97.0167 48.2815C84.88 48.2815 75.0126 58.1488 75.0126 70.2856C75.0126 77.2716 76.9861 79.8766 80.2423 84.1985C80.8738 85.047 81.5448 85.9154 82.2355 86.9021C84.2879 89.7636 86.9521 94.3026 87.9586 99.5717C88.0967 100.322 87.6033 101.032 86.8732 101.19C86.7942 101.19 86.6955 101.21 86.6166 101.21L86.5969 101.229Z" fill="white"/>
<path fill-rule="evenodd" clip-rule="evenodd" d="M87.9658 101.229V106.617C87.9658 107.268 88.4986 107.801 89.1498 107.801H104.839C105.49 107.801 106.023 107.268 106.023 106.617V101.229H87.9658ZM104.859 110.564H89.1696C86.9988 110.564 85.2227 108.807 85.2227 106.617V99.8477C85.2227 99.0978 85.8344 98.4663 86.6041 98.4663H107.424C108.174 98.4663 108.805 99.0781 108.805 99.8477V106.617C108.805 108.788 107.049 110.564 104.878 110.564H104.859Z" fill="white"/>
<path fill-rule="evenodd" clip-rule="evenodd" d="M98.0257 120.016H95.9733C92.1645 120.016 89.0859 116.918 89.0859 113.129V109.182C89.0859 108.432 89.6977 107.801 90.4674 107.801C91.237 107.801 91.8488 108.413 91.8488 109.182V113.129C91.8488 115.418 93.7038 117.273 95.993 117.273H98.0455C100.335 117.273 102.19 115.418 102.19 113.129V109.182C102.19 108.432 102.801 107.801 103.571 107.801C104.341 107.801 104.953 108.413 104.953 109.182V113.129C104.953 116.938 101.854 120.016 98.0652 120.016H98.0257Z" fill="white"/>
<path fill-rule="evenodd" clip-rule="evenodd" d="M101.498 101.229C100.748 101.229 100.116 100.617 100.116 99.8476V88.7568H93.8605V99.8476C93.8605 100.598 93.2487 101.229 92.4791 101.229C91.7292 101.229 91.0977 100.617 91.0977 99.8476V88.2634C91.0977 87.0201 92.1041 86.0137 93.3474 86.0137H100.61C101.853 86.0137 102.859 87.0201 102.859 88.2634V99.8476C102.859 100.598 102.248 101.229 101.478 101.229H101.498Z" fill="white"/>
<path fill-rule="evenodd" clip-rule="evenodd" d="M100.636 88.7571C99.886 88.7571 99.2545 88.1454 99.2545 87.3757V79.9752H94.755V87.3757C94.755 88.1256 94.1433 88.7571 93.3736 88.7571C92.604 88.7571 91.9922 88.1454 91.9922 87.3757V78.5938C91.9922 77.8439 92.604 77.2124 93.3736 77.2124H100.636C101.386 77.2124 102.017 77.8242 102.017 78.5938V87.3757C102.017 88.1256 101.406 88.7571 100.636 88.7571Z" fill="white"/>
<path fill-rule="evenodd" clip-rule="evenodd" d="M93.37 79.9747C92.7582 79.9747 92.1859 79.5603 92.0281 78.9091C91.3965 76.2449 89.9954 73.8175 87.9035 71.7059C87.3707 71.1731 87.3707 70.3048 87.9035 69.7719C88.4364 69.2391 89.3047 69.2391 89.8375 69.7719C92.3043 72.2388 93.9423 75.1003 94.6922 78.2776C94.8698 79.0077 94.4159 79.7576 93.666 79.9353C93.5674 79.955 93.4489 79.9747 93.3503 79.9747H93.37Z" fill="white"/>
<path fill-rule="evenodd" clip-rule="evenodd" d="M100.633 79.975C100.535 79.975 100.416 79.975 100.318 79.9355C99.5873 79.7579 99.1137 79.008 99.2913 78.2778C100.041 75.1005 101.679 72.239 104.146 69.7722C104.679 69.2394 105.547 69.2394 106.1 69.7722C106.633 70.305 106.633 71.1733 106.1 71.7062C103.988 73.8178 102.607 76.2451 101.975 78.9093C101.817 79.5408 101.265 79.975 100.633 79.975Z" fill="white"/>
<path fill-rule="evenodd" clip-rule="evenodd" d="M97.0025 40.999C96.2526 40.999 95.6211 40.3872 95.6211 39.6176V33.3814C95.6408 32.6118 96.2526 32 97.0025 32C97.7525 32 98.384 32.6118 98.384 33.3814V39.6373C98.384 40.3872 97.7722 41.0187 97.0025 41.0187V40.999Z" fill="white"/>
<path fill-rule="evenodd" clip-rule="evenodd" d="M113.871 45.5178C113.634 45.5178 113.397 45.4586 113.18 45.3402C112.529 44.9652 112.292 44.1166 112.667 43.4654L115.805 38.0384C116.18 37.3871 117.028 37.1503 117.679 37.545C118.331 37.92 118.567 38.7686 118.173 39.4198L115.055 44.8468C114.798 45.281 114.344 45.5375 113.871 45.5375V45.5178Z" fill="white"/>
<path fill-rule="evenodd" clip-rule="evenodd" d="M126.227 57.8724C125.753 57.8724 125.299 57.6356 125.043 57.1817C124.668 56.5304 124.885 55.6818 125.536 55.3069L130.963 52.1691C131.614 51.7941 132.463 52.0112 132.838 52.6822C133.213 53.3334 132.996 54.182 132.325 54.557L126.898 57.6948C126.681 57.8132 126.444 57.8724 126.207 57.8724H126.227Z" fill="white"/>
<path fill-rule="evenodd" clip-rule="evenodd" d="M67.7721 57.8716C67.5352 57.8716 67.2984 57.8123 67.0814 57.6939L61.6544 54.5561C61.0031 54.1812 60.7663 53.3326 61.161 52.6814C61.5359 52.0301 62.3845 51.7933 63.0358 52.1683L68.4628 55.3061C69.114 55.681 69.3508 56.5296 68.9759 57.1808C68.7193 57.615 68.2654 57.8716 67.7918 57.8716H67.7721Z" fill="white"/>
<path fill-rule="evenodd" clip-rule="evenodd" d="M80.1296 45.5183C79.656 45.5183 79.2021 45.2814 78.9456 44.8276L75.8078 39.4005C75.4328 38.7493 75.6499 37.9007 76.3208 37.5258C76.9721 37.1508 77.8207 37.3679 78.1956 38.0191L81.3335 43.4461C81.7084 44.0974 81.4913 44.946 80.8203 45.3209C80.6033 45.4393 80.3665 45.4985 80.1296 45.4985V45.5183Z" fill="white"/>
<path fill-rule="evenodd" clip-rule="evenodd" d="M97 158.006C97 158.006 96.8224 158.006 96.7237 157.986L40.1052 146.54C39.4539 146.402 39 145.849 39 145.198V68.4104C39 67.996 39.1776 67.6013 39.5131 67.3448C39.8289 67.0882 40.2433 66.9895 40.6577 67.0685L74.3052 73.8769C75.0551 74.0348 75.5287 74.7452 75.3906 75.4952C75.2327 76.2451 74.5223 76.7187 73.7724 76.5806L41.7826 70.1076V144.073L97.0197 155.223L152.257 144.073V70.0879L120.247 76.5608C119.497 76.7187 118.767 76.2253 118.629 75.4754C118.471 74.7255 118.965 74.0151 119.695 73.8572L153.342 67.0488C153.737 66.9698 154.171 67.0685 154.487 67.325C154.803 67.5816 155 67.9763 155 68.3907V145.158C155 145.81 154.546 146.382 153.895 146.5L97.2763 157.927C97.2763 157.927 97.0987 157.946 97 157.946V158.006Z" fill="white"/>
<path fill-rule="evenodd" clip-rule="evenodd" d="M97.0016 149.263C97.0016 149.263 96.8239 149.263 96.7253 149.243L48.6715 139.533C48.0203 139.395 47.5664 138.843 47.5664 138.191V78.9087C47.5664 78.4943 47.744 78.0996 48.0795 77.8431C48.3952 77.5865 48.8097 77.4681 49.2241 77.5668L79.3391 83.645C80.089 83.8029 80.5627 84.5134 80.4048 85.2633C80.2469 86.0132 79.5364 86.4868 78.7865 86.3289L50.3095 80.5862V137.067L96.9818 146.5L143.654 137.067V80.5862L115.177 86.3289C114.427 86.4868 113.717 85.9934 113.559 85.2435C113.401 84.4936 113.894 83.7832 114.625 83.6253L144.74 77.547C145.134 77.4681 145.568 77.5668 145.884 77.8233C146.2 78.0799 146.397 78.4746 146.397 78.889V138.172C146.397 138.823 145.943 139.395 145.292 139.514L97.2384 149.223C97.2384 149.223 97.0608 149.243 96.9621 149.243L97.0016 149.263Z" fill="white"/>
<path fill-rule="evenodd" clip-rule="evenodd" d="M97.0025 149.263C96.2526 149.263 95.6211 148.652 95.6211 147.882V118.635C95.6211 117.885 96.2329 117.254 97.0025 117.254C97.7525 117.254 98.384 117.866 98.384 118.635V147.862C98.384 148.612 97.7722 149.244 97.0025 149.244V149.263Z" fill="white"/>
<path fill-rule="evenodd" clip-rule="evenodd" d="M112.649 132.351C112.017 132.351 111.425 131.897 111.307 131.246C111.149 130.496 111.642 129.785 112.392 129.627L132.186 125.621C132.936 125.463 133.646 125.957 133.804 126.707C133.962 127.457 133.469 128.167 132.739 128.325L112.964 132.331C112.964 132.331 112.787 132.351 112.688 132.351H112.649Z" fill="white"/>
<path fill-rule="evenodd" clip-rule="evenodd" d="M112.649 100.558C112.017 100.558 111.425 100.104 111.307 99.453C111.149 98.703 111.642 97.9926 112.392 97.8347L132.186 93.8483C132.936 93.6905 133.646 94.1838 133.804 94.914C133.962 95.6639 133.469 96.3744 132.739 96.5322L112.964 100.519C112.964 100.519 112.787 100.538 112.688 100.538L112.649 100.558Z" fill="white"/>
<path fill-rule="evenodd" clip-rule="evenodd" d="M112.649 116.444C112.017 116.444 111.425 115.99 111.307 115.339C111.149 114.589 111.642 113.879 112.392 113.721L132.186 109.735C132.936 109.577 133.646 110.07 133.804 110.8C133.962 111.55 133.469 112.261 132.739 112.418L112.964 116.405C112.964 116.405 112.787 116.425 112.688 116.425L112.649 116.444Z" fill="white"/>
<path fill-rule="evenodd" clip-rule="evenodd" d="M81.3511 132.35C81.3511 132.35 81.1735 132.35 81.0748 132.33L61.3007 128.324C60.5508 128.166 60.0772 127.456 60.2153 126.706C60.3732 125.956 61.0836 125.482 61.8336 125.621L81.6274 129.627C82.3773 129.785 82.8509 130.495 82.693 131.245C82.5549 131.896 81.9826 132.35 81.3511 132.35Z" fill="white"/>
<path fill-rule="evenodd" clip-rule="evenodd" d="M81.3511 100.558C81.3511 100.558 81.1735 100.558 81.0748 100.538L61.3007 96.5516C60.5508 96.3938 60.0772 95.6833 60.2153 94.9334C60.3732 94.1835 61.0836 93.7099 61.8336 93.8677L81.6274 97.8541C82.3773 98.012 82.8509 98.7224 82.693 99.4724C82.5549 100.124 81.9826 100.578 81.3511 100.578V100.558Z" fill="white"/>
<path fill-rule="evenodd" clip-rule="evenodd" d="M81.3511 116.445C81.3511 116.445 81.1735 116.445 81.0748 116.425L61.3007 112.439C60.5508 112.281 60.0772 111.57 60.2153 110.82C60.3732 110.07 61.0836 109.597 61.8336 109.755L81.6274 113.741C82.3773 113.899 82.8509 114.609 82.693 115.359C82.5549 116.011 81.9826 116.464 81.3511 116.464V116.445Z" fill="white"/>
</g>
</svg>
