<svg width="194" height="194" viewBox="0 0 194 194" fill="none" xmlns="http://www.w3.org/2000/svg">
<circle cx="97" cy="97" r="97" fill="#E036AE"/>
<path opacity="0.75" fill-rule="evenodd" clip-rule="evenodd" d="M69.4873 53.6091V74.9963C69.4873 77.4299 71.4332 79.4123 73.8415 79.4123H120.079C122.487 79.4123 124.449 77.4299 124.449 74.9963V53.593C125.502 52.497 126.14 50.9981 126.14 49.3542V39.7324C126.14 37.1698 124.082 35.0907 121.546 35.0907H106.952V31.7061C106.952 29.1113 104.863 27 102.295 27H91.641C89.0732 27 86.9838 29.1113 86.9838 31.7061V35.0907H72.3742C69.8542 35.0907 67.7808 37.1698 67.7808 39.7324V49.3542C67.7808 50.9981 68.4187 52.497 69.4714 53.593L69.4873 53.6091ZM120.095 75.1735H73.8575C73.7777 75.1735 73.698 75.093 73.698 75.0124V55.5753C79.2324 56.7358 85.1975 57.461 91.4815 57.7189V58.2508C91.4815 61.313 93.9377 63.795 96.9681 63.795C99.9985 63.795 102.471 61.2969 102.471 58.2508V57.7189C108.707 57.4449 114.784 56.7196 120.254 55.5753V75.0124C120.254 75.093 120.174 75.1735 120.095 75.1735ZM95.6762 58.2508V51.8846H98.276V58.2508C98.276 58.9599 97.6858 59.5562 96.9841 59.5562C96.2823 59.5562 95.6922 58.976 95.6922 58.2508H95.6762ZM91.1944 31.7384C91.1944 31.4966 91.4018 31.2871 91.641 31.2871H102.295C102.534 31.2871 102.742 31.4966 102.742 31.7384V35.1229H91.1944V31.7384ZM72.0073 39.7485C72.0073 39.539 72.1828 39.3617 72.3901 39.3617H121.546C121.753 39.3617 121.929 39.539 121.929 39.7485V49.3703C121.929 50.2567 121.355 50.982 120.493 51.1754C115.023 52.4003 108.834 53.1739 102.471 53.464V50.8531C102.471 49.0802 101.035 47.6458 99.2808 47.6458H94.6554C92.901 47.6458 91.4815 49.0802 91.4815 50.8531V53.464C85.1177 53.1739 78.9294 52.3842 73.4428 51.1754C72.5815 50.982 72.0073 50.2567 72.0073 49.3703V39.7485ZM55.2446 83.0708V69.452C55.2446 68.759 55.5795 68.1143 56.1377 67.7275L63.0279 62.7796C63.9689 62.1027 65.2927 62.3283 65.9625 63.2792C66.6324 64.2301 66.4091 65.5678 65.4681 66.2448L59.4552 70.5641V83.1031C59.4552 84.2796 58.5142 85.2305 57.3499 85.2305C56.1856 85.2305 55.2446 84.2796 55.2446 83.1031V83.0708ZM55.2446 91.7901C55.2446 90.6136 56.1856 89.6627 57.3499 89.6627C58.5142 89.6627 59.4552 90.6136 59.4552 91.7901C59.4552 92.9667 58.5142 93.9175 57.3499 93.9175C56.1856 93.9175 55.2446 92.9667 55.2446 91.7901ZM96.9841 83.8928C98.1484 83.8928 99.0894 84.8437 99.0894 86.0202C99.0894 87.1968 98.1484 88.1477 96.9841 88.1477C95.8198 88.1477 94.8787 87.1968 94.8787 86.0202C94.8787 84.8437 95.8198 83.8928 96.9841 83.8928ZM144.625 125.039H143.971C147.544 121.88 149.426 116.497 149.426 111.324C149.426 104.184 143.684 98.3819 136.618 98.3819C129.553 98.3819 123.811 104.184 123.811 111.324C123.811 116.497 125.693 121.88 129.266 125.039H128.612C124.576 125.039 120.781 126.522 117.926 129.165C114.847 127.006 111.035 125.732 106.921 125.732H104.656C106.283 124.556 107.718 122.976 108.93 121.01C111.099 117.464 112.391 112.662 112.391 108.181C112.391 99.5907 105.485 92.6121 96.9841 92.6121C88.483 92.6121 81.577 99.5907 81.577 108.181C81.577 112.839 82.8848 117.593 85.1496 121.204C86.3299 123.073 87.7494 124.604 89.3603 125.732H87.0316C82.9167 125.732 79.1208 127.006 76.0425 129.165C73.1876 126.522 69.3916 125.039 65.3724 125.039H64.7025C65.6914 124.169 66.5686 123.105 67.3342 121.864C69.1205 118.947 70.1732 114.999 70.1732 111.324C70.1732 104.184 64.4314 98.3819 57.3658 98.3819C50.3003 98.3819 44.5425 104.184 44.5425 111.324C44.5425 116.497 46.4246 121.88 50.0132 125.039H49.3433C40.8901 125.039 34 131.567 34 139.593V148.087C34 149.263 34.941 150.214 36.1053 150.214C37.2696 150.214 38.2106 149.263 38.2106 148.087V139.593C38.2106 133.92 43.2028 129.294 49.3433 129.294H65.3724C68.1795 129.294 70.8271 130.261 72.8686 132.002C70.1413 135.064 68.4825 139.013 68.4825 143.316V153.873C68.4825 155.049 69.4235 156 70.5879 156C71.7522 156 72.6932 155.049 72.6932 153.873V143.316C72.6932 135.967 79.1367 130.003 87.0476 130.003H106.952C114.863 130.003 121.307 135.983 121.307 143.316V153.873C121.307 155.049 122.248 156 123.412 156C124.576 156 125.517 155.049 125.517 153.873V143.316C125.517 139.013 123.875 135.064 121.147 132.002C123.189 130.261 125.836 129.294 128.644 129.294H144.657C150.797 129.294 155.789 133.92 155.789 139.593V148.087C155.789 149.263 156.73 150.214 157.895 150.214C159.059 150.214 160 149.263 160 148.087V139.593C160 131.567 153.126 125.039 144.657 125.039H144.625ZM128.006 111.324C128.006 106.521 131.865 102.621 136.618 102.621C141.371 102.621 145.231 106.521 145.231 111.324C145.231 116.417 142.551 123.573 136.618 123.573C130.35 123.573 128.006 116.062 128.006 111.324ZM85.7717 108.181C85.7717 101.928 90.7957 96.8508 96.9841 96.8508C103.172 96.8508 108.196 101.928 108.196 108.181C108.196 111.904 107.128 115.869 105.357 118.786C103.268 122.203 100.461 123.927 96.9841 123.927C93.5071 123.927 90.7957 122.251 88.7063 118.931C86.8722 116.03 85.7876 112.001 85.7876 108.181H85.7717ZM48.7372 111.324C48.7372 106.521 52.597 102.621 57.3499 102.621C62.1028 102.621 65.9625 106.521 65.9625 111.324C65.9625 116.127 63.618 123.573 57.3499 123.573C51.4008 123.573 48.7372 116.401 48.7372 111.324ZM85.022 145.057V153.84C85.022 155.017 84.081 155.968 82.9167 155.968C81.7524 155.968 80.8114 155.017 80.8114 153.84V145.057C80.8114 143.88 81.7524 142.929 82.9167 142.929C84.081 142.929 85.022 143.88 85.022 145.057ZM113.141 145.057V153.84C113.141 155.017 112.2 155.968 111.035 155.968C109.871 155.968 108.93 155.017 108.93 153.84V145.057C108.93 143.88 109.871 142.929 111.035 142.929C112.2 142.929 113.141 143.88 113.141 145.057ZM128.006 63.2631C128.675 62.3122 129.983 62.0866 130.94 62.7635L137.83 67.7114C138.389 68.1143 138.724 68.759 138.724 69.4359V83.0708C138.724 84.2474 137.783 85.1983 136.618 85.1983C135.454 85.1983 134.513 84.2474 134.513 83.0708V70.5319L128.5 66.2125C127.559 65.5356 127.336 64.214 128.006 63.247V63.2631ZM138.708 91.774C138.708 92.9344 137.767 93.9014 136.602 93.9014C135.438 93.9014 134.497 92.9505 134.497 91.774C134.497 90.5975 135.438 89.6466 136.602 89.6466C137.767 89.6466 138.708 90.5975 138.708 91.774Z" fill="white"/>
</svg>
