<svg width="184" height="213" viewBox="0 0 184 213" fill="none" xmlns="http://www.w3.org/2000/svg">
<path opacity="0.5" d="M93.5 140L125.976 122H61.024L93.5 140Z" fill="#F2BCE2"/>
<path d="M45.3323 169.7C45.3323 170.6 45.1643 171.446 44.8283 172.238C44.4923 173.018 44.0243 173.708 43.4243 174.308C42.8363 174.896 42.1283 175.364 41.3003 175.712C40.4843 176.048 39.5903 176.216 38.6183 176.216C37.6463 176.216 36.7523 176.048 35.9363 175.712C35.1203 175.364 34.4123 174.902 33.8123 174.326C33.2243 173.738 32.7623 173.054 32.4263 172.274C32.1023 171.482 31.9403 170.636 31.9403 169.736V169.7C31.9403 168.8 32.1083 167.96 32.4443 167.18C32.7803 166.388 33.2423 165.698 33.8303 165.11C34.4303 164.51 35.1383 164.042 35.9543 163.706C36.7823 163.358 37.6823 163.184 38.6543 163.184C39.6263 163.184 40.5203 163.358 41.3363 163.706C42.1523 164.042 42.8543 164.504 43.4423 165.092C44.0423 165.668 44.5043 166.352 44.8283 167.144C45.1643 167.924 45.3323 168.764 45.3323 169.664V169.7ZM42.4343 169.736V169.7C42.4343 169.16 42.3383 168.65 42.1463 168.17C41.9663 167.69 41.7023 167.27 41.3543 166.91C41.0183 166.55 40.6163 166.268 40.1483 166.064C39.6803 165.848 39.1703 165.74 38.6183 165.74C38.0543 165.74 37.5383 165.842 37.0703 166.046C36.6143 166.25 36.2183 166.532 35.8823 166.892C35.5583 167.252 35.3003 167.672 35.1083 168.152C34.9283 168.62 34.8383 169.124 34.8383 169.664V169.7C34.8383 170.24 34.9283 170.75 35.1083 171.23C35.3003 171.71 35.5643 172.13 35.9003 172.49C36.2483 172.85 36.6503 173.138 37.1063 173.354C37.5743 173.558 38.0903 173.66 38.6543 173.66C39.2063 173.66 39.7163 173.558 40.1843 173.354C40.6523 173.15 41.0483 172.868 41.3723 172.508C41.7083 172.148 41.9663 171.734 42.1463 171.266C42.3383 170.786 42.4343 170.276 42.4343 169.736ZM55.9993 174.452C55.5313 174.968 54.9973 175.394 54.3973 175.73C53.7973 176.054 53.0173 176.216 52.0573 176.216C51.3373 176.216 50.6653 176.084 50.0413 175.82C49.4293 175.556 48.9013 175.202 48.4573 174.758C48.0133 174.302 47.6653 173.774 47.4133 173.174C47.1613 172.562 47.0353 171.914 47.0353 171.23V171.194C47.0353 170.51 47.1613 169.862 47.4133 169.25C47.6653 168.638 48.0133 168.104 48.4573 167.648C48.9013 167.192 49.4293 166.832 50.0413 166.568C50.6653 166.304 51.3493 166.172 52.0933 166.172C53.0053 166.172 53.7613 166.316 54.3613 166.604C54.9613 166.892 55.4893 167.288 55.9453 167.792L54.2713 169.592C53.9593 169.268 53.6353 169.01 53.2993 168.818C52.9753 168.626 52.5673 168.53 52.0753 168.53C51.7273 168.53 51.4093 168.602 51.1213 168.746C50.8453 168.878 50.5993 169.064 50.3833 169.304C50.1793 169.544 50.0173 169.826 49.8973 170.15C49.7893 170.462 49.7353 170.798 49.7353 171.158V171.194C49.7353 171.566 49.7893 171.914 49.8973 172.238C50.0173 172.562 50.1853 172.844 50.4013 173.084C50.6173 173.324 50.8753 173.516 51.1753 173.66C51.4753 173.792 51.8113 173.858 52.1833 173.858C52.6393 173.858 53.0353 173.768 53.3713 173.588C53.7193 173.396 54.0613 173.144 54.3973 172.832L55.9993 174.452ZM66.2825 174.452C65.8145 174.968 65.2805 175.394 64.6805 175.73C64.0805 176.054 63.3005 176.216 62.3405 176.216C61.6205 176.216 60.9485 176.084 60.3245 175.82C59.7125 175.556 59.1845 175.202 58.7405 174.758C58.2965 174.302 57.9485 173.774 57.6965 173.174C57.4445 172.562 57.3185 171.914 57.3185 171.23V171.194C57.3185 170.51 57.4445 169.862 57.6965 169.25C57.9485 168.638 58.2965 168.104 58.7405 167.648C59.1845 167.192 59.7125 166.832 60.3245 166.568C60.9485 166.304 61.6325 166.172 62.3765 166.172C63.2885 166.172 64.0445 166.316 64.6445 166.604C65.2445 166.892 65.7725 167.288 66.2285 167.792L64.5545 169.592C64.2425 169.268 63.9185 169.01 63.5825 168.818C63.2585 168.626 62.8505 168.53 62.3585 168.53C62.0105 168.53 61.6925 168.602 61.4045 168.746C61.1285 168.878 60.8825 169.064 60.6665 169.304C60.4625 169.544 60.3005 169.826 60.1805 170.15C60.0725 170.462 60.0185 170.798 60.0185 171.158V171.194C60.0185 171.566 60.0725 171.914 60.1805 172.238C60.3005 172.562 60.4685 172.844 60.6845 173.084C60.9005 173.324 61.1585 173.516 61.4585 173.66C61.7585 173.792 62.0945 173.858 62.4665 173.858C62.9225 173.858 63.3185 173.768 63.6545 173.588C64.0025 173.396 64.3445 173.144 64.6805 172.832L66.2825 174.452ZM76.8357 176H74.0997V174.632C73.9437 174.836 73.7697 175.034 73.5777 175.226C73.3977 175.406 73.1937 175.568 72.9657 175.712C72.7377 175.856 72.4857 175.97 72.2097 176.054C71.9337 176.138 71.6217 176.18 71.2737 176.18C70.2297 176.18 69.4197 175.862 68.8437 175.226C68.2797 174.59 67.9977 173.714 67.9977 172.598V166.352H70.7337V171.734C70.7337 172.382 70.8777 172.874 71.1657 173.21C71.4537 173.534 71.8617 173.696 72.3897 173.696C72.9177 173.696 73.3317 173.534 73.6317 173.21C73.9437 172.874 74.0997 172.382 74.0997 171.734V166.352H76.8357V176ZM89.4185 171.194C89.4185 171.998 89.2925 172.712 89.0405 173.336C88.8005 173.948 88.4765 174.47 88.0685 174.902C87.6725 175.322 87.2105 175.64 86.6825 175.856C86.1545 176.072 85.6025 176.18 85.0265 176.18C84.2945 176.18 83.6885 176.036 83.2085 175.748C82.7405 175.46 82.3445 175.124 82.0205 174.74V178.88H79.2845V166.352H82.0205V167.738C82.3565 167.282 82.7585 166.91 83.2265 166.622C83.7065 166.322 84.3065 166.172 85.0265 166.172C85.5905 166.172 86.1365 166.28 86.6645 166.496C87.1925 166.712 87.6605 167.036 88.0685 167.468C88.4765 167.888 88.8005 168.41 89.0405 169.034C89.2925 169.646 89.4185 170.354 89.4185 171.158V171.194ZM86.6825 171.194V171.158C86.6825 170.762 86.6165 170.402 86.4845 170.078C86.3645 169.742 86.1965 169.46 85.9805 169.232C85.7645 168.992 85.5125 168.812 85.2245 168.692C84.9485 168.56 84.6485 168.494 84.3245 168.494C84.0005 168.494 83.6945 168.56 83.4065 168.692C83.1305 168.812 82.8845 168.992 82.6685 169.232C82.4645 169.46 82.2965 169.742 82.1645 170.078C82.0445 170.402 81.9845 170.762 81.9845 171.158V171.194C81.9845 171.59 82.0445 171.956 82.1645 172.292C82.2965 172.616 82.4645 172.898 82.6685 173.138C82.8845 173.366 83.1305 173.546 83.4065 173.678C83.6945 173.798 84.0005 173.858 84.3245 173.858C84.6485 173.858 84.9485 173.798 85.2245 173.678C85.5125 173.546 85.7645 173.366 85.9805 173.138C86.1965 172.898 86.3645 172.616 86.4845 172.292C86.6165 171.968 86.6825 171.602 86.6825 171.194ZM99.729 176H97.083V174.956C96.747 175.328 96.345 175.628 95.877 175.856C95.409 176.072 94.839 176.18 94.167 176.18C93.711 176.18 93.279 176.12 92.871 176C92.475 175.868 92.127 175.676 91.827 175.424C91.527 175.172 91.287 174.866 91.107 174.506C90.939 174.134 90.855 173.708 90.855 173.228V173.192C90.855 172.664 90.951 172.208 91.143 171.824C91.335 171.44 91.599 171.122 91.935 170.87C92.283 170.618 92.691 170.432 93.159 170.312C93.639 170.18 94.167 170.114 94.743 170.114C95.235 170.114 95.661 170.15 96.021 170.222C96.393 170.294 96.753 170.39 97.101 170.51V170.348C97.101 169.772 96.927 169.334 96.579 169.034C96.231 168.734 95.715 168.584 95.031 168.584C94.503 168.584 94.035 168.632 93.627 168.728C93.231 168.812 92.811 168.938 92.367 169.106L91.683 167.018C92.211 166.79 92.763 166.604 93.339 166.46C93.915 166.316 94.611 166.244 95.427 166.244C96.927 166.244 98.019 166.61 98.703 167.342C99.387 168.074 99.729 169.094 99.729 170.402V176ZM97.137 172.598V172.112C96.897 172.004 96.627 171.92 96.327 171.86C96.039 171.788 95.727 171.752 95.391 171.752C94.803 171.752 94.341 171.866 94.005 172.094C93.669 172.322 93.501 172.652 93.501 173.084V173.12C93.501 173.492 93.639 173.78 93.915 173.984C94.191 174.188 94.551 174.29 94.995 174.29C95.643 174.29 96.159 174.134 96.543 173.822C96.939 173.51 97.137 173.102 97.137 172.598ZM107.501 175.604C107.213 175.772 106.895 175.904 106.547 176C106.199 176.108 105.797 176.162 105.341 176.162C104.921 176.162 104.537 176.114 104.189 176.018C103.853 175.934 103.559 175.778 103.307 175.55C103.067 175.322 102.875 175.028 102.731 174.668C102.599 174.296 102.533 173.828 102.533 173.264V168.692H101.381V166.352H102.533V163.886H105.269V166.352H107.537V168.692H105.269V172.814C105.269 173.438 105.563 173.75 106.151 173.75C106.631 173.75 107.081 173.636 107.501 173.408V175.604ZM112.488 165.29H109.608V162.86H112.488V165.29ZM112.416 176H109.68V166.352H112.416V176ZM124.958 171.194C124.958 171.89 124.826 172.544 124.562 173.156C124.298 173.756 123.932 174.284 123.464 174.74C122.996 175.196 122.444 175.556 121.808 175.82C121.172 176.084 120.476 176.216 119.72 176.216C118.976 176.216 118.286 176.09 117.65 175.838C117.014 175.574 116.462 175.22 115.994 174.776C115.538 174.32 115.178 173.792 114.914 173.192C114.65 172.58 114.518 171.926 114.518 171.23V171.194C114.518 170.498 114.65 169.85 114.914 169.25C115.178 168.638 115.544 168.104 116.012 167.648C116.48 167.192 117.032 166.832 117.668 166.568C118.304 166.304 119 166.172 119.756 166.172C120.5 166.172 121.19 166.304 121.826 166.568C122.462 166.82 123.008 167.174 123.464 167.63C123.932 168.074 124.298 168.602 124.562 169.214C124.826 169.814 124.958 170.462 124.958 171.158V171.194ZM122.258 171.23V171.194C122.258 170.834 122.198 170.498 122.078 170.186C121.958 169.862 121.784 169.58 121.556 169.34C121.328 169.088 121.058 168.89 120.746 168.746C120.434 168.602 120.092 168.53 119.72 168.53C119.324 168.53 118.97 168.602 118.658 168.746C118.358 168.878 118.1 169.064 117.884 169.304C117.668 169.544 117.5 169.826 117.38 170.15C117.272 170.462 117.218 170.798 117.218 171.158V171.194C117.218 171.554 117.278 171.896 117.398 172.22C117.518 172.532 117.692 172.814 117.92 173.066C118.148 173.306 118.412 173.498 118.712 173.642C119.024 173.786 119.372 173.858 119.756 173.858C120.152 173.858 120.5 173.792 120.8 173.66C121.112 173.516 121.376 173.324 121.592 173.084C121.808 172.844 121.97 172.568 122.078 172.256C122.198 171.932 122.258 171.59 122.258 171.23ZM135.777 176H133.041V170.618C133.041 169.97 132.897 169.484 132.609 169.16C132.321 168.824 131.913 168.656 131.385 168.656C130.857 168.656 130.437 168.824 130.125 169.16C129.825 169.484 129.675 169.97 129.675 170.618V176H126.939V166.352H129.675V167.72C129.831 167.516 129.999 167.324 130.179 167.144C130.371 166.952 130.581 166.784 130.809 166.64C131.037 166.496 131.289 166.382 131.565 166.298C131.841 166.214 132.153 166.172 132.501 166.172C133.545 166.172 134.349 166.49 134.913 167.126C135.489 167.762 135.777 168.638 135.777 169.754V176ZM146.452 176H143.806V174.956C143.47 175.328 143.068 175.628 142.6 175.856C142.132 176.072 141.562 176.18 140.89 176.18C140.434 176.18 140.002 176.12 139.594 176C139.198 175.868 138.85 175.676 138.55 175.424C138.25 175.172 138.01 174.866 137.83 174.506C137.662 174.134 137.578 173.708 137.578 173.228V173.192C137.578 172.664 137.674 172.208 137.866 171.824C138.058 171.44 138.322 171.122 138.658 170.87C139.006 170.618 139.414 170.432 139.882 170.312C140.362 170.18 140.89 170.114 141.466 170.114C141.958 170.114 142.384 170.15 142.744 170.222C143.116 170.294 143.476 170.39 143.824 170.51V170.348C143.824 169.772 143.65 169.334 143.302 169.034C142.954 168.734 142.438 168.584 141.754 168.584C141.226 168.584 140.758 168.632 140.35 168.728C139.954 168.812 139.534 168.938 139.09 169.106L138.406 167.018C138.934 166.79 139.486 166.604 140.062 166.46C140.638 166.316 141.334 166.244 142.15 166.244C143.65 166.244 144.742 166.61 145.426 167.342C146.11 168.074 146.452 169.094 146.452 170.402V176ZM143.86 172.598V172.112C143.62 172.004 143.35 171.92 143.05 171.86C142.762 171.788 142.45 171.752 142.114 171.752C141.526 171.752 141.064 171.866 140.728 172.094C140.392 172.322 140.224 172.652 140.224 173.084V173.12C140.224 173.492 140.362 173.78 140.638 173.984C140.914 174.188 141.274 174.29 141.718 174.29C142.366 174.29 142.882 174.134 143.266 173.822C143.662 173.51 143.86 173.102 143.86 172.598ZM151.668 176H148.932V162.86H151.668V176ZM33.3985 204H30.6265V198.942H25.5145V204H22.7425V191.4H25.5145V196.386H30.6265V191.4H33.3985V204ZM45.1303 199.446C45.1303 199.578 45.1243 199.692 45.1123 199.788C45.1123 199.884 45.1063 199.998 45.0943 200.13H38.3803C38.5123 200.754 38.7823 201.228 39.1903 201.552C39.6103 201.864 40.1263 202.02 40.7383 202.02C41.1943 202.02 41.6023 201.942 41.9623 201.786C42.3223 201.63 42.6943 201.378 43.0783 201.03L44.6443 202.416C44.1883 202.98 43.6363 203.424 42.9883 203.748C42.3403 204.06 41.5783 204.216 40.7023 204.216C39.9823 204.216 39.3103 204.096 38.6863 203.856C38.0743 203.616 37.5403 203.274 37.0843 202.83C36.6403 202.386 36.2923 201.864 36.0403 201.264C35.7883 200.652 35.6623 199.974 35.6623 199.23V199.194C35.6623 198.51 35.7763 197.862 36.0043 197.25C36.2443 196.638 36.5743 196.104 36.9943 195.648C37.4143 195.192 37.9123 194.832 38.4883 194.568C39.0763 194.304 39.7243 194.172 40.4323 194.172C41.2363 194.172 41.9323 194.316 42.5203 194.604C43.1083 194.892 43.5943 195.282 43.9783 195.774C44.3743 196.254 44.6623 196.812 44.8423 197.448C45.0343 198.072 45.1303 198.726 45.1303 199.41V199.446ZM42.4663 198.42C42.3823 197.808 42.1663 197.316 41.8183 196.944C41.4703 196.56 41.0083 196.368 40.4323 196.368C39.8563 196.368 39.3883 196.554 39.0283 196.926C38.6803 197.298 38.4523 197.796 38.3443 198.42H42.4663ZM55.4673 204H52.8213V202.956C52.4853 203.328 52.0833 203.628 51.6153 203.856C51.1473 204.072 50.5773 204.18 49.9053 204.18C49.4493 204.18 49.0173 204.12 48.6093 204C48.2133 203.868 47.8653 203.676 47.5653 203.424C47.2653 203.172 47.0253 202.866 46.8453 202.506C46.6773 202.134 46.5933 201.708 46.5933 201.228V201.192C46.5933 200.664 46.6893 200.208 46.8813 199.824C47.0733 199.44 47.3373 199.122 47.6733 198.87C48.0213 198.618 48.4293 198.432 48.8973 198.312C49.3773 198.18 49.9053 198.114 50.4813 198.114C50.9733 198.114 51.3993 198.15 51.7593 198.222C52.1313 198.294 52.4913 198.39 52.8393 198.51V198.348C52.8393 197.772 52.6653 197.334 52.3173 197.034C51.9693 196.734 51.4533 196.584 50.7693 196.584C50.2413 196.584 49.7733 196.632 49.3653 196.728C48.9693 196.812 48.5493 196.938 48.1053 197.106L47.4213 195.018C47.9493 194.79 48.5013 194.604 49.0773 194.46C49.6533 194.316 50.3493 194.244 51.1653 194.244C52.6653 194.244 53.7573 194.61 54.4413 195.342C55.1253 196.074 55.4673 197.094 55.4673 198.402V204ZM52.8753 200.598V200.112C52.6353 200.004 52.3653 199.92 52.0653 199.86C51.7773 199.788 51.4653 199.752 51.1293 199.752C50.5413 199.752 50.0793 199.866 49.7433 200.094C49.4073 200.322 49.2393 200.652 49.2393 201.084V201.12C49.2393 201.492 49.3773 201.78 49.6533 201.984C49.9293 202.188 50.2893 202.29 50.7333 202.29C51.3813 202.29 51.8973 202.134 52.2813 201.822C52.6773 201.51 52.8753 201.102 52.8753 200.598ZM60.6837 204H57.9477V190.86H60.6837V204ZM68.6713 203.604C68.3833 203.772 68.0653 203.904 67.7173 204C67.3693 204.108 66.9673 204.162 66.5113 204.162C66.0913 204.162 65.7073 204.114 65.3593 204.018C65.0233 203.934 64.7293 203.778 64.4773 203.55C64.2373 203.322 64.0453 203.028 63.9013 202.668C63.7693 202.296 63.7033 201.828 63.7033 201.264V196.692H62.5513V194.352H63.7033V191.886H66.4393V194.352H68.7073V196.692H66.4393V200.814C66.4393 201.438 66.7333 201.75 67.3213 201.75C67.8013 201.75 68.2513 201.636 68.6713 201.408V203.604ZM79.562 204H76.826V198.618C76.826 197.97 76.682 197.484 76.394 197.16C76.106 196.824 75.698 196.656 75.17 196.656C74.642 196.656 74.222 196.824 73.91 197.16C73.61 197.484 73.46 197.97 73.46 198.618V204H70.724V190.86H73.46V195.72C73.616 195.516 73.784 195.324 73.964 195.144C74.156 194.952 74.366 194.784 74.594 194.64C74.822 194.496 75.074 194.382 75.35 194.298C75.626 194.214 75.938 194.172 76.286 194.172C77.33 194.172 78.134 194.49 78.698 195.126C79.274 195.762 79.562 196.638 79.562 197.754V204ZM96.7313 200.274C96.7313 200.898 96.6173 201.456 96.3893 201.948C96.1613 202.428 95.8433 202.836 95.4353 203.172C95.0273 203.496 94.5413 203.748 93.9773 203.928C93.4133 204.096 92.7893 204.18 92.1053 204.18C91.1453 204.18 90.2033 204.018 89.2793 203.694C88.3553 203.358 87.5153 202.848 86.7593 202.164L88.3973 200.202C88.9733 200.67 89.5613 201.042 90.1613 201.318C90.7733 201.594 91.4393 201.732 92.1593 201.732C92.7353 201.732 93.1793 201.63 93.4913 201.426C93.8153 201.21 93.9773 200.916 93.9773 200.544V200.508C93.9773 200.328 93.9413 200.172 93.8693 200.04C93.8093 199.896 93.6833 199.764 93.4913 199.644C93.3113 199.524 93.0533 199.404 92.7173 199.284C92.3933 199.164 91.9673 199.038 91.4393 198.906C90.8033 198.75 90.2273 198.576 89.7113 198.384C89.1953 198.192 88.7573 197.958 88.3973 197.682C88.0373 197.394 87.7553 197.04 87.5513 196.62C87.3593 196.2 87.2633 195.678 87.2633 195.054V195.018C87.2633 194.442 87.3713 193.926 87.5873 193.47C87.8033 193.002 88.1033 192.6 88.4873 192.264C88.8833 191.928 89.3513 191.67 89.8913 191.49C90.4313 191.31 91.0253 191.22 91.6733 191.22C92.5973 191.22 93.4433 191.358 94.2113 191.634C94.9913 191.91 95.7053 192.306 96.3533 192.822L94.9133 194.91C94.3493 194.526 93.7973 194.226 93.2573 194.01C92.7173 193.782 92.1773 193.668 91.6373 193.668C91.0973 193.668 90.6893 193.776 90.4133 193.992C90.1493 194.196 90.0173 194.454 90.0173 194.766V194.802C90.0173 195.006 90.0533 195.186 90.1253 195.342C90.2093 195.486 90.3533 195.618 90.5573 195.738C90.7613 195.858 91.0373 195.972 91.3853 196.08C91.7453 196.188 92.1953 196.314 92.7353 196.458C93.3713 196.626 93.9353 196.818 94.4273 197.034C94.9313 197.238 95.3513 197.49 95.6873 197.79C96.0353 198.078 96.2933 198.42 96.4613 198.816C96.6413 199.212 96.7313 199.686 96.7313 200.238V200.274ZM107.849 199.446C107.849 199.578 107.843 199.692 107.831 199.788C107.831 199.884 107.825 199.998 107.813 200.13H101.099C101.231 200.754 101.501 201.228 101.909 201.552C102.329 201.864 102.845 202.02 103.457 202.02C103.913 202.02 104.321 201.942 104.681 201.786C105.041 201.63 105.413 201.378 105.797 201.03L107.363 202.416C106.907 202.98 106.355 203.424 105.707 203.748C105.059 204.06 104.297 204.216 103.421 204.216C102.701 204.216 102.029 204.096 101.405 203.856C100.793 203.616 100.259 203.274 99.803 202.83C99.359 202.386 99.011 201.864 98.759 201.264C98.507 200.652 98.381 199.974 98.381 199.23V199.194C98.381 198.51 98.495 197.862 98.723 197.25C98.963 196.638 99.293 196.104 99.713 195.648C100.133 195.192 100.631 194.832 101.207 194.568C101.795 194.304 102.443 194.172 103.151 194.172C103.955 194.172 104.651 194.316 105.239 194.604C105.827 194.892 106.313 195.282 106.697 195.774C107.093 196.254 107.381 196.812 107.561 197.448C107.753 198.072 107.849 198.726 107.849 199.41V199.446ZM105.185 198.42C105.101 197.808 104.885 197.316 104.537 196.944C104.189 196.56 103.727 196.368 103.151 196.368C102.575 196.368 102.107 196.554 101.747 196.926C101.399 197.298 101.171 197.796 101.063 198.42H105.185ZM115.702 197.034H115.558C114.646 197.034 113.926 197.31 113.398 197.862C112.882 198.414 112.624 199.272 112.624 200.436V204H109.888V194.352H112.624V196.296C112.9 195.636 113.278 195.108 113.758 194.712C114.238 194.316 114.886 194.136 115.702 194.172V197.034ZM126.628 194.352L122.83 204.072H120.346L116.548 194.352H119.446L121.606 200.814L123.784 194.352H126.628ZM131.138 193.29H128.258V190.86H131.138V193.29ZM131.066 204H128.33V194.352H131.066V204ZM142.132 202.452C141.664 202.968 141.13 203.394 140.53 203.73C139.93 204.054 139.15 204.216 138.19 204.216C137.47 204.216 136.798 204.084 136.174 203.82C135.562 203.556 135.034 203.202 134.59 202.758C134.146 202.302 133.798 201.774 133.546 201.174C133.294 200.562 133.168 199.914 133.168 199.23V199.194C133.168 198.51 133.294 197.862 133.546 197.25C133.798 196.638 134.146 196.104 134.59 195.648C135.034 195.192 135.562 194.832 136.174 194.568C136.798 194.304 137.482 194.172 138.226 194.172C139.138 194.172 139.894 194.316 140.494 194.604C141.094 194.892 141.622 195.288 142.078 195.792L140.404 197.592C140.092 197.268 139.768 197.01 139.432 196.818C139.108 196.626 138.7 196.53 138.208 196.53C137.86 196.53 137.542 196.602 137.254 196.746C136.978 196.878 136.732 197.064 136.516 197.304C136.312 197.544 136.15 197.826 136.03 198.15C135.922 198.462 135.868 198.798 135.868 199.158V199.194C135.868 199.566 135.922 199.914 136.03 200.238C136.15 200.562 136.318 200.844 136.534 201.084C136.75 201.324 137.008 201.516 137.308 201.66C137.608 201.792 137.944 201.858 138.316 201.858C138.772 201.858 139.168 201.768 139.504 201.588C139.852 201.396 140.194 201.144 140.53 200.832L142.132 202.452ZM152.919 199.446C152.919 199.578 152.913 199.692 152.901 199.788C152.901 199.884 152.895 199.998 152.883 200.13H146.169C146.301 200.754 146.571 201.228 146.979 201.552C147.399 201.864 147.915 202.02 148.527 202.02C148.983 202.02 149.391 201.942 149.751 201.786C150.111 201.63 150.483 201.378 150.867 201.03L152.433 202.416C151.977 202.98 151.425 203.424 150.777 203.748C150.129 204.06 149.367 204.216 148.491 204.216C147.771 204.216 147.099 204.096 146.475 203.856C145.863 203.616 145.329 203.274 144.873 202.83C144.429 202.386 144.081 201.864 143.829 201.264C143.577 200.652 143.451 199.974 143.451 199.23V199.194C143.451 198.51 143.565 197.862 143.793 197.25C144.033 196.638 144.363 196.104 144.783 195.648C145.203 195.192 145.701 194.832 146.277 194.568C146.865 194.304 147.513 194.172 148.221 194.172C149.025 194.172 149.721 194.316 150.309 194.604C150.897 194.892 151.383 195.282 151.767 195.774C152.163 196.254 152.451 196.812 152.631 197.448C152.823 198.072 152.919 198.726 152.919 199.41V199.446ZM150.255 198.42C150.171 197.808 149.955 197.316 149.607 196.944C149.259 196.56 148.797 196.368 148.221 196.368C147.645 196.368 147.177 196.554 146.817 196.926C146.469 197.298 146.241 197.796 146.133 198.42H150.255ZM162.032 201.066C162.032 201.606 161.936 202.074 161.744 202.47C161.564 202.854 161.306 203.172 160.97 203.424C160.634 203.676 160.238 203.868 159.782 204C159.338 204.12 158.858 204.18 158.342 204.18C157.658 204.18 156.956 204.066 156.236 203.838C155.528 203.598 154.85 203.226 154.202 202.722L155.372 200.922C155.9 201.306 156.422 201.594 156.938 201.786C157.466 201.978 157.958 202.074 158.414 202.074C158.81 202.074 159.098 202.008 159.278 201.876C159.47 201.744 159.566 201.57 159.566 201.354V201.318C159.566 201.174 159.512 201.048 159.404 200.94C159.296 200.832 159.146 200.742 158.954 200.67C158.774 200.586 158.564 200.508 158.324 200.436C158.084 200.364 157.832 200.286 157.568 200.202C157.232 200.106 156.89 199.992 156.542 199.86C156.206 199.716 155.9 199.536 155.624 199.32C155.348 199.092 155.12 198.816 154.94 198.492C154.772 198.168 154.688 197.772 154.688 197.304V197.268C154.688 196.776 154.778 196.344 154.958 195.972C155.15 195.588 155.402 195.264 155.714 195C156.038 194.736 156.41 194.538 156.83 194.406C157.262 194.274 157.724 194.208 158.216 194.208C158.828 194.208 159.446 194.31 160.07 194.514C160.706 194.706 161.288 194.976 161.816 195.324L160.772 197.214C160.292 196.938 159.824 196.722 159.368 196.566C158.912 196.398 158.51 196.314 158.162 196.314C157.826 196.314 157.574 196.38 157.406 196.512C157.238 196.632 157.154 196.788 157.154 196.98V197.016C157.154 197.148 157.208 197.268 157.316 197.376C157.424 197.472 157.568 197.568 157.748 197.664C157.928 197.748 158.132 197.832 158.36 197.916C158.6 198 158.852 198.084 159.116 198.168C159.452 198.276 159.794 198.408 160.142 198.564C160.49 198.708 160.802 198.888 161.078 199.104C161.354 199.32 161.582 199.584 161.762 199.896C161.942 200.208 162.032 200.586 162.032 201.03V201.066Z" fill="#AD3088"/>
<path opacity="0.75" fill-rule="evenodd" clip-rule="evenodd" d="M118.287 47.2882L117.483 53.5027L123.485 51.55C123.348 51.4142 123.228 51.2784 123.091 51.1425C122.459 50.4973 121.758 49.8691 121.022 49.2578C120.287 48.6635 119.535 48.1032 118.765 47.5938C118.611 47.4919 118.44 47.39 118.287 47.2882ZM136.377 24.111C136.719 24.3148 137.044 24.5185 137.386 24.7393C138.207 25.2826 139.045 25.8939 139.882 26.5731C140.72 27.2522 141.49 27.9484 142.174 28.6615C142.464 28.9502 142.721 29.2389 142.994 29.5275L143.883 28.4578C143.559 28.0842 143.2 27.6937 142.823 27.3202C142.191 26.6749 141.49 26.0467 140.754 25.4354C140.019 24.8411 139.267 24.2808 138.497 23.7714C138.087 23.4998 137.677 23.2451 137.283 23.0243L136.377 24.111ZM121.741 46.1336C121.296 45.794 120.834 45.4883 120.39 45.1827C120.048 44.962 119.723 44.7412 119.381 44.5544L134.496 26.3863C134.924 26.624 135.351 26.8957 135.779 27.1673C136.155 27.4051 136.514 27.6598 136.873 27.9314L121.741 46.1336ZM140.447 32.5838C140.447 32.5838 140.549 32.448 140.601 32.3971L141.096 31.8028C140.772 31.4462 140.43 31.0727 140.07 30.7161C139.763 30.3935 139.438 30.0878 139.096 29.7822L123.963 47.9843C124.374 48.3579 124.784 48.7314 125.16 49.122C125.451 49.4106 125.707 49.6993 125.981 49.9879L140.43 32.6008L140.447 32.5838ZM142.276 17.8456C142.396 17.7946 142.516 17.7607 142.635 17.7437C143.251 17.6078 143.815 17.6758 144.208 17.9984L147.543 20.7321C147.936 21.0547 148.107 21.598 148.09 22.2093C148.056 22.9564 147.748 23.7884 147.132 24.5185L145.747 26.1825C145.474 25.8769 145.183 25.5713 144.892 25.2656C144.191 24.5525 143.422 23.8563 142.601 23.1771C141.763 22.498 140.925 21.8867 140.105 21.3433C139.78 21.1396 139.472 20.9358 139.147 20.7491L140.515 19.102C140.977 18.5587 141.524 18.1512 142.088 17.9135C142.157 17.8965 142.208 17.8625 142.259 17.8456H142.276ZM143.61 67.0185H43.9239V70.1597H143.593V67.0185H143.61ZM108.215 88.7184H79.3526L78.3609 90.9427H109.207L108.215 88.7184ZM110.472 86.5959L104.437 73.0632H109.532L121.997 101.029H116.902L112.815 91.8766C112.815 91.8766 112.781 91.7747 112.747 91.7238L110.524 86.7318C110.524 86.7318 110.49 86.6299 110.455 86.5789L110.472 86.5959ZM80.635 85.7979H106.916L101.239 73.0632H86.3118L80.635 85.7979ZM77.0101 86.7318L74.7872 91.7238C74.7872 91.7238 74.7359 91.8256 74.7188 91.8766L70.6322 101.029H65.5368L78.0018 73.0632H83.0973L77.0614 86.5959C77.0614 86.5959 77.0101 86.6978 76.993 86.7487L77.0101 86.7318ZM143.593 2.90351H43.9239V6.06171H143.593V2.90351ZM140.173 8.96522V15.6382C139.472 16.0457 138.822 16.5891 138.258 17.2682L116.064 43.9602C116.064 43.9602 115.944 44.096 115.876 44.1809L115.859 44.2318V44.2658V44.2998V44.3167V44.3507V44.3847C115.79 44.5375 115.739 44.6903 115.722 44.8601L114.371 55.4384C114.268 56.2364 114.833 56.9495 115.636 57.0514C115.859 57.0854 116.081 57.0514 116.269 56.9835L126.494 53.6555C126.802 53.5536 127.041 53.3669 127.229 53.1291L140.259 37.457V64.1149H47.3437V8.96522H140.19H140.173ZM42.4705 0H145.063C145.867 0 146.534 0.645225 146.534 1.46024V7.52196C146.534 8.32 145.884 8.9822 145.063 8.9822H143.114V14.7892C144.191 14.7722 145.217 15.0949 146.055 15.774L149.389 18.5078C150.518 19.4416 151.048 20.834 150.997 22.3282C150.945 23.6865 150.398 25.1638 149.372 26.3863L143.097 33.9422V64.1319H145.046C145.85 64.1319 146.517 64.7771 146.517 65.5922V71.6539C146.517 72.4519 145.867 73.1141 145.046 73.1141H112.695L125.519 101.878C125.622 102.081 125.673 102.302 125.673 102.54C125.673 103.338 125.024 104 124.203 104H115.91C115.346 104 114.816 103.677 114.576 103.134L110.472 93.9141H77.0272L72.9235 103.134C72.6841 103.677 72.154 104 71.5898 104H63.2968C62.4932 104 61.8263 103.355 61.8263 102.54C61.8263 102.302 61.8776 102.081 61.9802 101.878L74.8043 73.1141H42.4705C41.6669 73.1141 41 72.4689 41 71.6539V65.5922C41 64.7941 41.6498 64.1319 42.4705 64.1319H44.4198V8.96522H42.4705C41.6669 8.96522 41 8.32 41 7.50498V1.46024C41 0.662204 41.6498 0 42.4705 0ZM107.104 51.2953H60.1678C60.0652 51.2953 59.9626 51.3463 59.8771 51.4142C59.7916 51.4821 59.7574 51.584 59.7574 51.7029V53.265C59.7574 53.3669 59.8087 53.4687 59.8771 53.5536C59.9455 53.6385 60.0481 53.6725 60.1678 53.6725H107.087C107.189 53.6725 107.292 53.6216 107.378 53.5536C107.463 53.4857 107.497 53.3838 107.497 53.265V51.7029C107.497 51.601 107.446 51.4991 107.378 51.4142C107.309 51.3293 107.207 51.2953 107.087 51.2953H107.104ZM63.2113 48.3918H104.077C103.992 44.6563 102.898 41.1755 101.051 38.2041C99.4779 35.6911 97.3748 33.5347 94.8954 31.9047V38.1362C94.8954 38.9342 94.2457 39.5964 93.4249 39.5964C92.6042 39.5964 91.9544 38.9512 91.9544 38.1362V26.658C91.9544 26.658 91.886 26.641 91.8347 26.641H89.4238V41.4642C89.4238 42.2622 88.7741 42.9244 87.9533 42.9244C87.1326 42.9244 86.4828 42.2792 86.4828 41.4642V21.7169C86.4828 21.7169 86.4144 21.6829 86.3631 21.6829H80.8573C80.8573 21.6829 80.7718 21.6829 80.7376 21.7169V41.4642C80.7376 42.2622 80.0879 42.9244 79.2671 42.9244C78.4464 42.9244 77.7966 42.2792 77.7966 41.4642V26.641H75.3857C75.3857 26.641 75.3002 26.641 75.266 26.658V38.1362C75.266 38.9342 74.6162 39.5964 73.7955 39.5964C72.9748 39.5964 72.325 38.9512 72.325 38.1362V31.9047C69.8457 33.5347 67.7425 35.6911 66.1694 38.2041C64.3228 41.1755 63.2284 44.6563 63.143 48.3918H63.2113ZM60.1849 48.3918C59.2615 48.3918 58.4408 48.7654 57.8252 49.3597C57.2097 49.954 56.8506 50.786 56.8506 51.7029V53.265C56.8506 54.1819 57.2268 54.9969 57.8252 55.6082C58.4237 56.2194 59.2615 56.576 60.1849 56.576H107.104C108.027 56.576 108.848 56.2024 109.464 55.6082C110.062 55.0139 110.438 54.1819 110.438 53.265V51.7029C110.438 50.786 110.062 49.9709 109.464 49.3597C108.865 48.7484 108.027 48.3918 107.104 48.3918H107.018C106.933 44.113 105.668 40.1058 103.547 36.6759C101.427 33.28 98.452 30.4614 94.9125 28.5257V26.5391C94.9125 25.7241 94.5364 24.994 93.9379 24.4846C93.3907 24.0091 92.6555 23.7205 91.8689 23.7205H89.458V21.6999C89.458 20.8849 89.0989 20.1378 88.5347 19.5944C87.9875 19.0851 87.2352 18.7624 86.4144 18.7624H80.9086C80.0879 18.7624 79.3355 19.0851 78.7884 19.5944C78.2241 20.1208 77.865 20.8679 77.865 21.6999V23.7205H75.4541C74.6675 23.7205 73.9323 24.0091 73.3851 24.4846C72.7867 24.994 72.4105 25.7241 72.4105 26.5391V28.5257C68.8711 30.4614 65.8959 33.28 63.7756 36.6759C61.6383 40.1058 60.39 44.113 60.3045 48.3918H60.202H60.1849Z" fill="#CD94B9"/>
</svg>
