<svg width="322" height="214" viewBox="0 0 322 214" fill="none" xmlns="http://www.w3.org/2000/svg">
<path opacity="0.5" d="M161.5 141L193.976 123H129.024L161.5 141Z" fill="#F2BCE2"/>
<path d="M30.8994 179H28.1274V173.942H23.0154V179H20.2434V166.4H23.0154V171.386H28.1274V166.4H30.8994V179ZM42.6312 174.446C42.6312 174.716 42.6132 174.878 42.5952 175.13H35.8812C36.1512 176.372 37.0152 177.02 38.2392 177.02C39.1572 177.02 39.8232 176.732 40.5792 176.03L42.1452 177.416C41.2452 178.532 39.9492 179.216 38.2032 179.216C35.3052 179.216 33.1632 177.182 33.1632 174.23V174.194C33.1632 171.44 35.1252 169.172 37.9332 169.172C41.1552 169.172 42.6312 171.674 42.6312 174.41V174.446ZM39.9672 173.42C39.8052 172.196 39.0852 171.368 37.9332 171.368C36.7992 171.368 36.0612 172.178 35.8452 173.42H39.9672ZM52.9683 179H50.3223V177.956C49.6563 178.694 48.7383 179.18 47.4063 179.18C45.5883 179.18 44.0943 178.136 44.0943 176.228V176.192C44.0943 174.086 45.6963 173.114 47.9823 173.114C48.9543 173.114 49.6563 173.276 50.3403 173.51V173.348C50.3403 172.214 49.6383 171.584 48.2703 171.584C47.2263 171.584 46.4883 171.782 45.6063 172.106L44.9223 170.018C45.9843 169.55 47.0283 169.244 48.6663 169.244C51.6543 169.244 52.9683 170.792 52.9683 173.402V179ZM50.3763 175.598V175.112C49.9083 174.896 49.2963 174.752 48.6303 174.752C47.4603 174.752 46.7403 175.22 46.7403 176.084V176.12C46.7403 176.858 47.3523 177.29 48.2343 177.29C49.5123 177.29 50.3763 176.588 50.3763 175.598ZM58.1846 179H55.4486V165.86H58.1846V179ZM66.1723 178.604C65.5963 178.946 64.9303 179.162 64.0123 179.162C62.3383 179.162 61.2043 178.496 61.2043 176.264V171.692H60.0523V169.352H61.2043V166.886H63.9403V169.352H66.2083V171.692H63.9403V175.814C63.9403 176.444 64.2103 176.75 64.8223 176.75C65.3263 176.75 65.7763 176.624 66.1723 176.408V178.604ZM77.063 179H74.327V173.618C74.327 172.322 73.715 171.656 72.671 171.656C71.627 171.656 70.961 172.322 70.961 173.618V179H68.225V165.86H70.961V170.72C71.591 169.91 72.401 169.172 73.787 169.172C75.857 169.172 77.063 170.54 77.063 172.754V179ZM96.1943 176.966C94.8983 178.352 93.4583 179.216 91.0283 179.216C87.3203 179.216 84.5663 176.354 84.5663 172.736V172.7C84.5663 169.118 87.2663 166.184 91.1363 166.184C93.5123 166.184 94.9343 166.976 96.1043 168.128L94.3403 170.162C93.3683 169.28 92.3783 168.74 91.1183 168.74C88.9943 168.74 87.4643 170.504 87.4643 172.664V172.7C87.4643 174.86 88.9583 176.66 91.1183 176.66C92.5583 176.66 93.4403 176.084 94.4303 175.184L96.1943 176.966ZM107.922 174.194C107.922 176.966 105.69 179.216 102.684 179.216C99.6956 179.216 97.4816 177.002 97.4816 174.23V174.194C97.4816 171.422 99.7136 169.172 102.72 169.172C105.708 169.172 107.922 171.386 107.922 174.158V174.194ZM105.222 174.23V174.194C105.222 172.772 104.196 171.53 102.684 171.53C101.118 171.53 100.182 172.736 100.182 174.158V174.194C100.182 175.616 101.208 176.858 102.72 176.858C104.286 176.858 105.222 175.652 105.222 174.23ZM118.574 169.352L114.776 179.072H112.292L108.494 169.352H111.392L113.552 175.814L115.73 169.352H118.574ZM128.606 174.446C128.606 174.716 128.588 174.878 128.57 175.13H121.856C122.126 176.372 122.99 177.02 124.214 177.02C125.132 177.02 125.798 176.732 126.554 176.03L128.12 177.416C127.22 178.532 125.924 179.216 124.178 179.216C121.28 179.216 119.138 177.182 119.138 174.23V174.194C119.138 171.44 121.1 169.172 123.908 169.172C127.13 169.172 128.606 171.674 128.606 174.41V174.446ZM125.942 173.42C125.78 172.196 125.06 171.368 123.908 171.368C122.774 171.368 122.036 172.178 121.82 173.42H125.942ZM136.459 172.034H136.315C134.497 172.034 133.381 173.132 133.381 175.436V179H130.645V169.352H133.381V171.296C133.939 169.964 134.839 169.1 136.459 169.172V172.034ZM146.009 179H143.363V177.956C142.697 178.694 141.779 179.18 140.447 179.18C138.629 179.18 137.135 178.136 137.135 176.228V176.192C137.135 174.086 138.737 173.114 141.023 173.114C141.995 173.114 142.697 173.276 143.381 173.51V173.348C143.381 172.214 142.679 171.584 141.311 171.584C140.267 171.584 139.529 171.782 138.647 172.106L137.963 170.018C139.025 169.55 140.069 169.244 141.707 169.244C144.695 169.244 146.009 170.792 146.009 173.402V179ZM143.417 175.598V175.112C142.949 174.896 142.337 174.752 141.671 174.752C140.501 174.752 139.781 175.22 139.781 176.084V176.12C139.781 176.858 140.393 177.29 141.275 177.29C142.553 177.29 143.417 176.588 143.417 175.598ZM158.066 176.822C158.066 180.458 156.266 181.916 152.684 181.916C151.118 181.916 149.642 181.556 148.418 180.908L149.354 178.856C150.344 179.414 151.334 179.738 152.612 179.738C154.484 179.738 155.366 178.838 155.366 177.11V176.642C154.556 177.614 153.674 178.208 152.216 178.208C149.966 178.208 147.932 176.57 147.932 173.708V173.672C147.932 170.792 150.002 169.172 152.216 169.172C153.71 169.172 154.592 169.802 155.33 170.612V169.352H158.066V176.822ZM155.366 173.708V173.672C155.366 172.358 154.34 171.44 153.008 171.44C151.676 171.44 150.668 172.358 150.668 173.672V173.708C150.668 175.04 151.676 175.94 153.008 175.94C154.34 175.94 155.366 175.022 155.366 173.708ZM169.51 174.446C169.51 174.716 169.492 174.878 169.474 175.13H162.76C163.03 176.372 163.894 177.02 165.118 177.02C166.036 177.02 166.702 176.732 167.458 176.03L169.024 177.416C168.124 178.532 166.828 179.216 165.082 179.216C162.184 179.216 160.042 177.182 160.042 174.23V174.194C160.042 171.44 162.004 169.172 164.812 169.172C168.034 169.172 169.51 171.674 169.51 174.41V174.446ZM166.846 173.42C166.684 172.196 165.964 171.368 164.812 171.368C163.678 171.368 162.94 172.178 162.724 173.42H166.846ZM170.617 180.782C171.859 180.656 172.471 180.026 172.381 179H171.265V176.12H174.181V178.55C174.181 180.926 172.993 181.88 170.851 181.916L170.617 180.782ZM192.18 170.792C192.18 173.708 189.912 175.22 187.086 175.22H184.98V179H182.208V166.4H187.356C190.362 166.4 192.18 168.182 192.18 170.756V170.792ZM189.372 170.846V170.81C189.372 169.568 188.508 168.902 187.122 168.902H184.98V172.754H187.176C188.562 172.754 189.372 171.926 189.372 170.846ZM202.066 179H199.42V177.956C198.754 178.694 197.836 179.18 196.504 179.18C194.686 179.18 193.192 178.136 193.192 176.228V176.192C193.192 174.086 194.794 173.114 197.08 173.114C198.052 173.114 198.754 173.276 199.438 173.51V173.348C199.438 172.214 198.736 171.584 197.368 171.584C196.324 171.584 195.586 171.782 194.704 172.106L194.02 170.018C195.082 169.55 196.126 169.244 197.764 169.244C200.752 169.244 202.066 170.792 202.066 173.402V179ZM199.474 175.598V175.112C199.006 174.896 198.394 174.752 197.728 174.752C196.558 174.752 195.838 175.22 195.838 176.084V176.12C195.838 176.858 196.45 177.29 197.332 177.29C198.61 177.29 199.474 176.588 199.474 175.598ZM210.234 172.034H210.09C208.272 172.034 207.156 173.132 207.156 175.436V179H204.42V169.352H207.156V171.296C207.714 169.964 208.614 169.1 210.234 169.172V172.034ZM217.362 178.604C216.786 178.946 216.12 179.162 215.202 179.162C213.528 179.162 212.394 178.496 212.394 176.264V171.692H211.242V169.352H212.394V166.886H215.13V169.352H217.398V171.692H215.13V175.814C215.13 176.444 215.4 176.75 216.012 176.75C216.516 176.75 216.966 176.624 217.362 176.408V178.604ZM222.348 168.29H219.468V165.86H222.348V168.29ZM222.276 179H219.54V169.352H222.276V179ZM233.342 177.452C232.406 178.478 231.326 179.216 229.4 179.216C226.502 179.216 224.378 176.984 224.378 174.23V174.194C224.378 171.44 226.484 169.172 229.436 169.172C231.254 169.172 232.388 169.784 233.288 170.792L231.614 172.592C231.002 171.944 230.39 171.53 229.418 171.53C228.05 171.53 227.078 172.736 227.078 174.158V174.194C227.078 175.67 228.032 176.858 229.526 176.858C230.444 176.858 231.074 176.462 231.74 175.832L233.342 177.452ZM238.063 168.29H235.183V165.86H238.063V168.29ZM237.991 179H235.255V169.352H237.991V179ZM250.695 174.194C250.695 177.416 248.589 179.18 246.303 179.18C244.845 179.18 243.945 178.514 243.297 177.74V181.88H240.561V169.352H243.297V170.738C243.963 169.838 244.881 169.172 246.303 169.172C248.553 169.172 250.695 170.936 250.695 174.158V174.194ZM247.959 174.194V174.158C247.959 172.556 246.879 171.494 245.601 171.494C244.323 171.494 243.261 172.556 243.261 174.158V174.194C243.261 175.796 244.323 176.858 245.601 176.858C246.879 176.858 247.959 175.814 247.959 174.194ZM261.005 179H258.359V177.956C257.693 178.694 256.775 179.18 255.443 179.18C253.625 179.18 252.131 178.136 252.131 176.228V176.192C252.131 174.086 253.733 173.114 256.019 173.114C256.991 173.114 257.693 173.276 258.377 173.51V173.348C258.377 172.214 257.675 171.584 256.307 171.584C255.263 171.584 254.525 171.782 253.643 172.106L252.959 170.018C254.021 169.55 255.065 169.244 256.703 169.244C259.691 169.244 261.005 170.792 261.005 173.402V179ZM258.413 175.598V175.112C257.945 174.896 257.333 174.752 256.667 174.752C255.497 174.752 254.777 175.22 254.777 176.084V176.12C254.777 176.858 255.389 177.29 256.271 177.29C257.549 177.29 258.413 176.588 258.413 175.598ZM268.69 178.604C268.114 178.946 267.448 179.162 266.53 179.162C264.856 179.162 263.722 178.496 263.722 176.264V171.692H262.57V169.352H263.722V166.886H266.458V169.352H268.726V171.692H266.458V175.814C266.458 176.444 266.728 176.75 267.34 176.75C267.844 176.75 268.294 176.624 268.69 176.408V178.604ZM273.677 168.29H270.797V165.86H273.677V168.29ZM273.605 179H270.869V169.352H273.605V179ZM286.146 174.194C286.146 176.966 283.914 179.216 280.908 179.216C277.92 179.216 275.706 177.002 275.706 174.23V174.194C275.706 171.422 277.938 169.172 280.944 169.172C283.932 169.172 286.146 171.386 286.146 174.158V174.194ZM283.446 174.23V174.194C283.446 172.772 282.42 171.53 280.908 171.53C279.342 171.53 278.406 172.736 278.406 174.158V174.194C278.406 175.616 279.432 176.858 280.944 176.858C282.51 176.858 283.446 175.652 283.446 174.23ZM296.965 179H294.229V173.618C294.229 172.322 293.617 171.656 292.573 171.656C291.529 171.656 290.863 172.322 290.863 173.618V179H288.127V169.352H290.863V170.72C291.493 169.91 292.303 169.172 293.689 169.172C295.759 169.172 296.965 170.54 296.965 172.754V179ZM298.586 180.782C299.828 180.656 300.44 180.026 300.35 179H299.234V176.12H302.15V178.55C302.15 180.926 300.962 181.88 298.82 181.916L298.586 180.782ZM23.0152 207H20.3692V205.956C19.7032 206.694 18.7852 207.18 17.4532 207.18C15.6352 207.18 14.1412 206.136 14.1412 204.228V204.192C14.1412 202.086 15.7432 201.114 18.0292 201.114C19.0012 201.114 19.7032 201.276 20.3872 201.51V201.348C20.3872 200.214 19.6852 199.584 18.3172 199.584C17.2732 199.584 16.5352 199.782 15.6532 200.106L14.9692 198.018C16.0312 197.55 17.0752 197.244 18.7132 197.244C21.7012 197.244 23.0152 198.792 23.0152 201.402V207ZM20.4232 203.598V203.112C19.9552 202.896 19.3432 202.752 18.6772 202.752C17.5072 202.752 16.7872 203.22 16.7872 204.084V204.12C16.7872 204.858 17.3992 205.29 18.2812 205.29C19.5592 205.29 20.4232 204.588 20.4232 203.598ZM34.2075 207H31.4715V201.618C31.4715 200.322 30.8595 199.656 29.8155 199.656C28.7715 199.656 28.1055 200.322 28.1055 201.618V207H25.3695V197.352H28.1055V198.72C28.7355 197.91 29.5455 197.172 30.9315 197.172C33.0015 197.172 34.2075 198.54 34.2075 200.754V207ZM46.2864 207H43.5504V205.614C42.8844 206.514 41.9664 207.18 40.5444 207.18C38.2944 207.18 36.1524 205.416 36.1524 202.194V202.158C36.1524 198.936 38.2584 197.172 40.5444 197.172C42.0024 197.172 42.9024 197.838 43.5504 198.612V193.86H46.2864V207ZM43.5864 202.194V202.158C43.5864 200.556 42.5244 199.494 41.2464 199.494C39.9684 199.494 38.8884 200.538 38.8884 202.158V202.194C38.8884 203.796 39.9684 204.858 41.2464 204.858C42.5244 204.858 43.5864 203.796 43.5864 202.194ZM65.3053 207H62.0653L59.3653 202.968H57.1873V207H54.4153V194.4H60.1753C63.1453 194.4 64.9273 195.966 64.9273 198.558V198.594C64.9273 200.628 63.8293 201.906 62.2273 202.5L65.3053 207ZM62.1193 198.738V198.702C62.1193 197.514 61.2913 196.902 59.9413 196.902H57.1873V200.52H59.9953C61.3453 200.52 62.1193 199.8 62.1193 198.738ZM75.9594 202.446C75.9594 202.716 75.9414 202.878 75.9234 203.13H69.2094C69.4794 204.372 70.3434 205.02 71.5674 205.02C72.4854 205.02 73.1514 204.732 73.9074 204.03L75.4734 205.416C74.5734 206.532 73.2774 207.216 71.5314 207.216C68.6334 207.216 66.4914 205.182 66.4914 202.23V202.194C66.4914 199.44 68.4534 197.172 71.2614 197.172C74.4834 197.172 75.9594 199.674 75.9594 202.41V202.446ZM73.2954 201.42C73.1334 200.196 72.4134 199.368 71.2614 199.368C70.1274 199.368 69.3894 200.178 69.1734 201.42H73.2954ZM88.1324 202.194C88.1324 205.416 86.0264 207.18 83.7404 207.18C82.2824 207.18 81.3824 206.514 80.7344 205.74V209.88H77.9984V197.352H80.7344V198.738C81.4004 197.838 82.3184 197.172 83.7404 197.172C85.9904 197.172 88.1324 198.936 88.1324 202.158V202.194ZM85.3964 202.194V202.158C85.3964 200.556 84.3164 199.494 83.0384 199.494C81.7604 199.494 80.6984 200.556 80.6984 202.158V202.194C80.6984 203.796 81.7604 204.858 83.0384 204.858C84.3164 204.858 85.3964 203.814 85.3964 202.194ZM95.9589 200.034H95.8149C93.9969 200.034 92.8809 201.132 92.8809 203.436V207H90.1449V197.352H92.8809V199.296C93.4389 197.964 94.3389 197.1 95.9589 197.172V200.034ZM106.405 202.446C106.405 202.716 106.387 202.878 106.369 203.13H99.6547C99.9247 204.372 100.789 205.02 102.013 205.02C102.931 205.02 103.597 204.732 104.353 204.03L105.919 205.416C105.019 206.532 103.723 207.216 101.977 207.216C99.0787 207.216 96.9367 205.182 96.9367 202.23V202.194C96.9367 199.44 98.8987 197.172 101.707 197.172C104.929 197.172 106.405 199.674 106.405 202.41V202.446ZM103.741 201.42C103.579 200.196 102.859 199.368 101.707 199.368C100.573 199.368 99.8347 200.178 99.6187 201.42H103.741ZM115.518 204.066C115.518 206.208 113.916 207.18 111.828 207.18C110.478 207.18 108.966 206.73 107.688 205.722L108.858 203.922C109.902 204.678 111 205.074 111.9 205.074C112.692 205.074 113.052 204.786 113.052 204.354V204.318C113.052 203.724 112.116 203.526 111.054 203.202C109.704 202.806 108.174 202.176 108.174 200.304V200.268C108.174 198.306 109.758 197.208 111.702 197.208C112.926 197.208 114.258 197.622 115.302 198.324L114.258 200.214C113.304 199.656 112.35 199.314 111.648 199.314C110.982 199.314 110.64 199.602 110.64 199.98V200.016C110.64 200.556 111.558 200.808 112.602 201.168C113.952 201.618 115.518 202.266 115.518 204.03V204.066ZM126.479 202.446C126.479 202.716 126.461 202.878 126.443 203.13H119.729C119.999 204.372 120.863 205.02 122.087 205.02C123.005 205.02 123.671 204.732 124.427 204.03L125.993 205.416C125.093 206.532 123.797 207.216 122.051 207.216C119.153 207.216 117.011 205.182 117.011 202.23V202.194C117.011 199.44 118.973 197.172 121.781 197.172C125.003 197.172 126.479 199.674 126.479 202.41V202.446ZM123.815 201.42C123.653 200.196 122.933 199.368 121.781 199.368C120.647 199.368 119.909 200.178 119.693 201.42H123.815ZM137.356 207H134.62V201.618C134.62 200.322 134.008 199.656 132.964 199.656C131.92 199.656 131.254 200.322 131.254 201.618V207H128.518V197.352H131.254V198.72C131.884 197.91 132.694 197.172 134.08 197.172C136.15 197.172 137.356 198.54 137.356 200.754V207ZM145.151 206.604C144.575 206.946 143.909 207.162 142.991 207.162C141.317 207.162 140.183 206.496 140.183 204.264V199.692H139.031V197.352H140.183V194.886H142.919V197.352H145.187V199.692H142.919V203.814C142.919 204.444 143.189 204.75 143.801 204.75C144.305 204.75 144.755 204.624 145.151 204.408V206.604ZM155.501 207H152.855V205.956C152.189 206.694 151.271 207.18 149.939 207.18C148.121 207.18 146.627 206.136 146.627 204.228V204.192C146.627 202.086 148.229 201.114 150.515 201.114C151.487 201.114 152.189 201.276 152.873 201.51V201.348C152.873 200.214 152.171 199.584 150.803 199.584C149.759 199.584 149.021 199.782 148.139 200.106L147.455 198.018C148.517 197.55 149.561 197.244 151.199 197.244C154.187 197.244 155.501 198.792 155.501 201.402V207ZM152.909 203.598V203.112C152.441 202.896 151.829 202.752 151.163 202.752C149.993 202.752 149.273 203.22 149.273 204.084V204.12C149.273 204.858 149.885 205.29 150.767 205.29C152.045 205.29 152.909 204.588 152.909 203.598ZM163.186 206.604C162.61 206.946 161.944 207.162 161.026 207.162C159.352 207.162 158.218 206.496 158.218 204.264V199.692H157.066V197.352H158.218V194.886H160.954V197.352H163.222V199.692H160.954V203.814C160.954 204.444 161.224 204.75 161.836 204.75C162.34 204.75 162.79 204.624 163.186 204.408V206.604ZM168.173 196.29H165.293V193.86H168.173V196.29ZM168.101 207H165.365V197.352H168.101V207ZM180.642 202.194C180.642 204.966 178.41 207.216 175.404 207.216C172.416 207.216 170.202 205.002 170.202 202.23V202.194C170.202 199.422 172.434 197.172 175.44 197.172C178.428 197.172 180.642 199.386 180.642 202.158V202.194ZM177.942 202.23V202.194C177.942 200.772 176.916 199.53 175.404 199.53C173.838 199.53 172.902 200.736 172.902 202.158V202.194C172.902 203.616 173.928 204.858 175.44 204.858C177.006 204.858 177.942 203.652 177.942 202.23ZM191.461 207H188.725V201.618C188.725 200.322 188.113 199.656 187.069 199.656C186.025 199.656 185.359 200.322 185.359 201.618V207H182.623V197.352H185.359V198.72C185.989 197.91 186.799 197.172 188.185 197.172C190.255 197.172 191.461 198.54 191.461 200.754V207ZM210.593 204.966C209.297 206.352 207.857 207.216 205.427 207.216C201.719 207.216 198.965 204.354 198.965 200.736V200.7C198.965 197.118 201.665 194.184 205.535 194.184C207.911 194.184 209.333 194.976 210.503 196.128L208.739 198.162C207.767 197.28 206.777 196.74 205.517 196.74C203.393 196.74 201.863 198.504 201.863 200.664V200.7C201.863 202.86 203.357 204.66 205.517 204.66C206.957 204.66 207.839 204.084 208.829 203.184L210.593 204.966ZM222.32 202.194C222.32 204.966 220.088 207.216 217.082 207.216C214.094 207.216 211.88 205.002 211.88 202.23V202.194C211.88 199.422 214.112 197.172 217.118 197.172C220.106 197.172 222.32 199.386 222.32 202.158V202.194ZM219.62 202.23V202.194C219.62 200.772 218.594 199.53 217.082 199.53C215.516 199.53 214.58 200.736 214.58 202.158V202.194C214.58 203.616 215.606 204.858 217.118 204.858C218.684 204.858 219.62 203.652 219.62 202.23ZM239.025 207H236.289V201.618C236.289 200.322 235.713 199.656 234.687 199.656C233.661 199.656 233.031 200.322 233.031 201.618V207H230.295V201.618C230.295 200.322 229.719 199.656 228.693 199.656C227.667 199.656 227.037 200.322 227.037 201.618V207H224.301V197.352H227.037V198.72C227.667 197.91 228.495 197.172 229.881 197.172C231.141 197.172 232.095 197.73 232.599 198.702C233.445 197.712 234.453 197.172 235.767 197.172C237.801 197.172 239.025 198.396 239.025 200.718V207ZM256.129 207H253.393V201.618C253.393 200.322 252.817 199.656 251.791 199.656C250.765 199.656 250.135 200.322 250.135 201.618V207H247.399V201.618C247.399 200.322 246.823 199.656 245.797 199.656C244.771 199.656 244.141 200.322 244.141 201.618V207H241.405V197.352H244.141V198.72C244.771 197.91 245.599 197.172 246.985 197.172C248.245 197.172 249.199 197.73 249.703 198.702C250.549 197.712 251.557 197.172 252.871 197.172C254.905 197.172 256.129 198.396 256.129 200.718V207ZM261.442 196.29H258.562V193.86H261.442V196.29ZM261.37 207H258.634V197.352H261.37V207ZM269.358 206.604C268.782 206.946 268.116 207.162 267.198 207.162C265.524 207.162 264.39 206.496 264.39 204.264V199.692H263.238V197.352H264.39V194.886H267.126V197.352H269.394V199.692H267.126V203.814C267.126 204.444 267.396 204.75 268.008 204.75C268.512 204.75 268.962 204.624 269.358 204.408V206.604ZM276.829 206.604C276.253 206.946 275.587 207.162 274.669 207.162C272.995 207.162 271.861 206.496 271.861 204.264V199.692H270.709V197.352H271.861V194.886H274.597V197.352H276.865V199.692H274.597V203.814C274.597 204.444 274.867 204.75 275.479 204.75C275.983 204.75 276.433 204.624 276.829 204.408V206.604ZM287.618 202.446C287.618 202.716 287.6 202.878 287.582 203.13H280.868C281.138 204.372 282.002 205.02 283.226 205.02C284.144 205.02 284.81 204.732 285.566 204.03L287.132 205.416C286.232 206.532 284.936 207.216 283.19 207.216C280.292 207.216 278.15 205.182 278.15 202.23V202.194C278.15 199.44 280.112 197.172 282.92 197.172C286.142 197.172 287.618 199.674 287.618 202.41V202.446ZM284.954 201.42C284.792 200.196 284.072 199.368 282.92 199.368C281.786 199.368 281.048 200.178 280.832 201.42H284.954ZM298.657 202.446C298.657 202.716 298.639 202.878 298.621 203.13H291.907C292.177 204.372 293.041 205.02 294.265 205.02C295.183 205.02 295.849 204.732 296.605 204.03L298.171 205.416C297.271 206.532 295.975 207.216 294.229 207.216C291.331 207.216 289.189 205.182 289.189 202.23V202.194C289.189 199.44 291.151 197.172 293.959 197.172C297.181 197.172 298.657 199.674 298.657 202.41V202.446ZM295.993 201.42C295.831 200.196 295.111 199.368 293.959 199.368C292.825 199.368 292.087 200.178 291.871 201.42H295.993ZM307.77 204.066C307.77 206.208 306.168 207.18 304.08 207.18C302.73 207.18 301.218 206.73 299.94 205.722L301.11 203.922C302.154 204.678 303.252 205.074 304.152 205.074C304.944 205.074 305.304 204.786 305.304 204.354V204.318C305.304 203.724 304.368 203.526 303.306 203.202C301.956 202.806 300.426 202.176 300.426 200.304V200.268C300.426 198.306 302.01 197.208 303.954 197.208C305.178 197.208 306.51 197.622 307.554 198.324L306.51 200.214C305.556 199.656 304.602 199.314 303.9 199.314C303.234 199.314 302.892 199.602 302.892 199.98V200.016C302.892 200.556 303.81 200.808 304.854 201.168C306.204 201.618 307.77 202.266 307.77 204.03V204.066Z" fill="#AD3088"/>
<path opacity="0.75" fill-rule="evenodd" clip-rule="evenodd" d="M110.019 41.7041V41.4991C110.019 41.406 110.019 41.2942 110.037 41.201C110.13 39.9711 110.614 36.766 113.034 33.5981C116.087 29.6103 121.895 26.0511 132.654 26.0511C139.002 26.0511 143.655 27.281 147.025 29.1631C150.487 27.0574 155.401 25.5852 162.363 25.5852C169.325 25.5852 173.941 26.9642 177.366 28.9581C180.717 27.2064 185.24 26.0511 191.365 26.0511C202.124 26.0511 207.932 29.6103 210.984 33.5981C213.404 36.7846 213.888 39.9897 213.981 41.201C213.981 41.2942 214 41.406 214 41.4991V41.7041C214 44.1266 214 46.2323 213.87 47.9653C213.739 49.6983 213.46 51.2636 212.79 52.6053C211.301 55.5682 208.36 56.4999 204.32 56.8913H204.227H149.277H119.68C115.64 56.4999 112.699 55.5682 111.21 52.6053C110.54 51.2636 110.261 49.6983 110.13 47.9653C110 46.2323 110 44.1452 110 41.7041H110.019ZM119.977 53.0153H140.9C140.807 52.8662 140.714 52.6985 140.64 52.5308C139.97 51.1891 139.69 49.5865 139.541 47.8162C139.411 46.046 139.393 43.9216 139.393 41.4619V41.2383C139.393 41.1451 139.393 41.0333 139.411 40.9401C139.504 39.6916 139.988 36.4492 142.464 33.2068C142.836 32.7223 143.246 32.2378 143.692 31.7719C141.086 30.6538 137.512 29.8712 132.654 29.8712C122.807 29.8712 118.265 33.0763 116.106 35.9088C113.965 38.7226 113.872 41.5364 113.872 41.6855C113.872 44.1639 113.872 46.0832 114.002 47.6485C114.132 49.2138 114.356 50.2015 114.691 50.8537C115.193 51.8599 116.199 52.6426 119.996 53.0153H119.977ZM175.282 53.0153C179.135 52.6426 180.177 51.8413 180.698 50.7978C181.033 50.1269 181.275 49.1207 181.406 47.5181C181.536 45.9342 181.536 43.9775 181.536 41.4619C181.536 41.2382 181.424 38.3872 179.265 35.5547C177.069 32.6664 172.433 29.4053 162.4 29.4053C152.367 29.4053 147.75 32.6664 145.535 35.5547C143.339 38.4244 143.264 41.3128 143.264 41.4619C143.264 43.9775 143.264 45.9528 143.395 47.5181C143.525 49.1207 143.748 50.1083 144.102 50.7978C144.623 51.8413 145.666 52.6426 149.519 53.0153H175.319H175.282ZM204.06 53.0153C207.839 52.6426 208.844 51.8599 209.365 50.8537C209.7 50.2015 209.923 49.2138 210.054 47.6485C210.184 46.1019 210.184 44.1639 210.184 41.7041C210.184 41.555 210.091 38.7226 207.95 35.9274C205.791 33.095 201.249 29.8898 191.402 29.8898C186.841 29.8898 183.435 30.5793 180.885 31.5856C181.424 32.126 181.908 32.6664 182.318 33.2254C184.775 36.4492 185.259 39.7102 185.371 40.9587C185.371 41.0519 185.389 41.1637 185.389 41.2569V41.4246V41.4619C185.389 43.9403 185.389 46.0646 185.24 47.8349C185.11 49.5865 184.831 51.1891 184.142 52.5494C184.049 52.7171 183.975 52.8848 183.881 53.0339H204.078L204.06 53.0153ZM125.525 60.8604C125.636 63.1338 125.878 64.606 126.288 65.5936C126.641 66.4694 127.125 66.9726 127.889 67.3266C128.764 67.7366 130.104 68.0161 132.263 68.1652C134.385 68.3142 137.084 68.3142 140.584 68.3142H160.092V60.73C160.092 59.6678 160.948 58.8106 162.009 58.8106C163.07 58.8106 163.927 59.6678 163.927 60.73V68.3142H183.546C187.009 68.3142 189.671 68.3142 191.774 68.1652C193.933 68.0161 195.274 67.7366 196.149 67.3266C196.912 66.9539 197.377 66.4694 197.731 65.5563C198.14 64.5501 198.364 63.0593 198.494 60.73C198.55 59.6678 199.443 58.8479 200.504 58.9038C201.565 58.9597 202.384 59.8542 202.329 60.9163C202.217 63.3015 201.956 65.3327 201.305 66.9726C200.616 68.7242 199.481 69.9727 197.805 70.7926C196.242 71.538 194.287 71.8548 192.016 72.0039C189.745 72.153 186.934 72.153 183.528 72.153H163.908V76.1221C163.908 77.1843 163.052 78.0415 161.991 78.0415C160.93 78.0415 160.073 77.1843 160.073 76.1221V72.153H140.565C137.122 72.153 134.273 72.153 131.984 72.0039C129.732 71.8548 127.777 71.5567 126.213 70.8113C124.538 70.01 123.403 68.7615 122.695 67.0471C122.044 65.4259 121.783 63.4134 121.653 61.0654C121.597 60.0032 122.416 59.0901 123.477 59.0342C124.538 58.9783 125.45 59.7983 125.506 60.8604H125.525ZM162.493 0C168.878 0 174.053 5.1804 174.053 11.5721C174.053 17.9637 168.878 23.1441 162.493 23.1441C156.108 23.1441 150.934 17.9637 150.934 11.5721C150.934 5.1804 156.108 0 162.493 0ZM154.787 11.5721C154.787 15.8394 158.231 19.2868 162.493 19.2868C166.756 19.2868 170.2 15.8394 170.2 11.5721C170.2 7.30474 166.756 3.85735 162.493 3.85735C158.231 3.85735 154.787 7.30474 154.787 11.5721ZM133.361 0C139.746 0 144.921 5.1804 144.921 11.5721C144.921 17.9637 139.746 23.1441 133.361 23.1441C126.977 23.1441 121.802 17.9637 121.802 11.5721C121.802 5.1804 126.977 0 133.361 0ZM125.655 11.5721C125.655 15.8394 129.099 19.2868 133.361 19.2868C137.624 19.2868 141.068 15.8394 141.068 11.5721C141.068 7.30474 137.624 3.85735 133.361 3.85735C129.099 3.85735 125.655 7.30474 125.655 11.5721ZM190.657 0C197.042 0 202.217 5.1804 202.217 11.5721C202.217 17.9637 197.042 23.1441 190.657 23.1441C184.272 23.1441 179.098 17.9637 179.098 11.5721C179.098 5.1804 184.272 0 190.657 0ZM182.951 11.5721C182.951 15.8394 186.394 19.2868 190.657 19.2868C194.92 19.2868 198.364 15.8394 198.364 11.5721C198.364 7.30474 194.92 3.85735 190.657 3.85735C186.394 3.85735 182.951 7.30474 182.951 11.5721ZM162.121 80.0167C164.932 80.0167 167.203 80.0167 168.953 80.2031C170.684 80.3894 172.303 80.818 173.495 82.0293C174.686 83.2219 175.095 84.8617 175.282 86.6134C175.468 88.365 175.468 90.6571 175.468 93.5082C175.468 96.3592 175.468 98.6513 175.282 100.403C175.095 102.136 174.667 103.776 173.495 104.987C172.303 106.198 170.684 106.627 168.953 106.813C167.203 107.018 164.932 107 162.121 107C159.31 107 157.039 107 155.289 106.813C153.558 106.627 151.939 106.198 150.747 104.987C149.556 103.794 149.147 102.155 148.96 100.403C148.774 98.6513 148.774 96.3592 148.774 93.5082C148.774 90.6571 148.774 88.365 148.96 86.6134C149.147 84.8804 149.575 83.2405 150.747 82.0293C151.939 80.818 153.558 80.3894 155.289 80.2031C157.039 79.9981 159.31 80.0167 162.121 80.0167ZM152.609 93.5082C152.609 96.4524 152.609 98.4836 152.776 99.993C152.944 101.502 153.242 102.043 153.484 102.285C153.726 102.527 154.228 102.825 155.718 102.993C157.188 103.161 159.198 103.161 162.121 103.161C165.043 103.161 167.035 103.161 168.524 102.993C170.014 102.825 170.535 102.527 170.758 102.285C171 102.043 171.298 101.502 171.466 99.993C171.633 98.5022 171.633 96.4524 171.633 93.5082C171.633 90.5639 171.633 88.5327 171.466 87.0233C171.298 85.5139 171 84.9735 170.758 84.7313C170.516 84.489 170.014 84.1909 168.524 84.0232C167.054 83.8555 165.043 83.8555 162.121 83.8555C159.198 83.8555 157.207 83.8555 155.718 84.0232C154.228 84.1909 153.707 84.489 153.484 84.7313C153.242 84.9735 152.944 85.5139 152.776 87.0233C152.609 88.5141 152.609 90.5639 152.609 93.5082ZM156.22 91.5888H160.073V87.7314C160.073 86.6693 160.93 85.8121 161.991 85.8121C163.052 85.8121 163.908 86.6693 163.908 87.7314V91.5888H167.761C168.822 91.5888 169.679 92.446 169.679 93.5082C169.679 94.5703 168.822 95.4275 167.761 95.4275H163.908V99.2849C163.908 100.347 163.052 101.204 161.991 101.204C160.93 101.204 160.073 100.347 160.073 99.2849V95.4275H156.22C155.159 95.4275 154.303 94.5703 154.303 93.5082C154.303 92.446 155.159 91.5888 156.22 91.5888Z" fill="#CD94B9"/>
</svg>
