<svg width="219" height="215" viewBox="0 0 219 215" fill="none" xmlns="http://www.w3.org/2000/svg">
<path opacity="0.5" d="M109.5 142L141.976 124H77.024L109.5 142Z" fill="#F2BCE2"/>
<path d="M14.3721 178.218C13.0761 179.316 11.2941 180.216 8.99011 180.216C5.06611 180.216 2.36611 177.462 2.36611 173.736V173.7C2.36611 170.118 5.15611 167.184 8.97211 167.184C11.2401 167.184 12.6081 167.796 13.9221 168.912L12.1761 171.018C11.2041 170.208 10.3401 169.74 8.88211 169.74C6.86611 169.74 5.26411 171.522 5.26411 173.664V173.7C5.26411 176.004 6.84811 177.696 9.08011 177.696C10.0881 177.696 10.9881 177.444 11.6901 176.94V175.14H8.90011V172.746H14.3721V178.218ZM22.5653 173.034H22.4213C20.6033 173.034 19.4873 174.132 19.4873 176.436V180H16.7513V170.352H19.4873V172.296C20.0453 170.964 20.9453 170.1 22.5653 170.172V173.034ZM27.2088 169.29H24.3288V166.86H27.2088V169.29ZM27.1368 180H24.4008V170.352H27.1368V180ZM38.7064 175.446C38.7064 175.716 38.6884 175.878 38.6704 176.13H31.9564C32.2264 177.372 33.0904 178.02 34.3144 178.02C35.2324 178.02 35.8984 177.732 36.6544 177.03L38.2204 178.416C37.3204 179.532 36.0244 180.216 34.2784 180.216C31.3804 180.216 29.2384 178.182 29.2384 175.23V175.194C29.2384 172.44 31.2004 170.172 34.0084 170.172C37.2304 170.172 38.7064 172.674 38.7064 175.41V175.446ZM36.0424 174.42C35.8804 173.196 35.1604 172.368 34.0084 172.368C32.8744 172.368 32.1364 173.178 31.9204 174.42H36.0424ZM49.5045 170.352L45.7065 180.072H43.2225L39.4245 170.352H42.3225L44.4825 176.814L46.6605 170.352H49.5045ZM58.9224 180H56.2764V178.956C55.6104 179.694 54.6924 180.18 53.3604 180.18C51.5424 180.18 50.0484 179.136 50.0484 177.228V177.192C50.0484 175.086 51.6504 174.114 53.9364 174.114C54.9084 174.114 55.6104 174.276 56.2944 174.51V174.348C56.2944 173.214 55.5924 172.584 54.2244 172.584C53.1804 172.584 52.4424 172.782 51.5604 173.106L50.8764 171.018C51.9384 170.55 52.9824 170.244 54.6204 170.244C57.6084 170.244 58.9224 171.792 58.9224 174.402V180ZM56.3304 176.598V176.112C55.8624 175.896 55.2504 175.752 54.5844 175.752C53.4144 175.752 52.6944 176.22 52.6944 177.084V177.12C52.6944 177.858 53.3064 178.29 54.1884 178.29C55.4664 178.29 56.3304 177.588 56.3304 176.598ZM70.1147 180H67.3787V174.618C67.3787 173.322 66.7667 172.656 65.7227 172.656C64.6787 172.656 64.0127 173.322 64.0127 174.618V180H61.2767V170.352H64.0127V171.72C64.6427 170.91 65.4527 170.172 66.8387 170.172C68.9087 170.172 70.1147 171.54 70.1147 173.754V180ZM80.9876 178.452C80.0516 179.478 78.9716 180.216 77.0456 180.216C74.1476 180.216 72.0236 177.984 72.0236 175.23V175.194C72.0236 172.44 74.1296 170.172 77.0816 170.172C78.8996 170.172 80.0336 170.784 80.9336 171.792L79.2596 173.592C78.6476 172.944 78.0356 172.53 77.0636 172.53C75.6956 172.53 74.7236 173.736 74.7236 175.158V175.194C74.7236 176.67 75.6776 177.858 77.1716 177.858C78.0896 177.858 78.7196 177.462 79.3856 176.832L80.9876 178.452ZM91.5111 175.446C91.5111 175.716 91.4931 175.878 91.4751 176.13H84.7611C85.0311 177.372 85.8951 178.02 87.1191 178.02C88.0371 178.02 88.7031 177.732 89.4591 177.03L91.0251 178.416C90.1251 179.532 88.8291 180.216 87.0831 180.216C84.1851 180.216 82.0431 178.182 82.0431 175.23V175.194C82.0431 172.44 84.0051 170.172 86.8131 170.172C90.0351 170.172 91.5111 172.674 91.5111 175.41V175.446ZM88.8471 174.42C88.6851 173.196 87.9651 172.368 86.8131 172.368C85.6791 172.368 84.9411 173.178 84.7251 174.42H88.8471ZM110.125 180H106.885L104.185 175.968H102.007V180H99.2347V167.4H104.995C107.965 167.4 109.747 168.966 109.747 171.558V171.594C109.747 173.628 108.649 174.906 107.047 175.5L110.125 180ZM106.939 171.738V171.702C106.939 170.514 106.111 169.902 104.761 169.902H102.007V173.52H104.815C106.165 173.52 106.939 172.8 106.939 171.738ZM120.779 175.446C120.779 175.716 120.761 175.878 120.743 176.13H114.029C114.299 177.372 115.163 178.02 116.387 178.02C117.305 178.02 117.971 177.732 118.727 177.03L120.293 178.416C119.393 179.532 118.097 180.216 116.351 180.216C113.453 180.216 111.311 178.182 111.311 175.23V175.194C111.311 172.44 113.273 170.172 116.081 170.172C119.303 170.172 120.779 172.674 120.779 175.41V175.446ZM118.115 174.42C117.953 173.196 117.233 172.368 116.081 172.368C114.947 172.368 114.209 173.178 113.993 174.42H118.115ZM132.52 180H129.784V178.614C129.118 179.514 128.2 180.18 126.778 180.18C124.528 180.18 122.386 178.416 122.386 175.194V175.158C122.386 171.936 124.492 170.172 126.778 170.172C128.236 170.172 129.136 170.838 129.784 171.612V166.86H132.52V180ZM129.82 175.194V175.158C129.82 173.556 128.758 172.494 127.48 172.494C126.202 172.494 125.122 173.538 125.122 175.158V175.194C125.122 176.796 126.202 177.858 127.48 177.858C128.758 177.858 129.82 176.796 129.82 175.194ZM140.778 173.034H140.634C138.816 173.034 137.7 174.132 137.7 176.436V180H134.964V170.352H137.7V172.296C138.258 170.964 139.158 170.1 140.778 170.172V173.034ZM151.224 175.446C151.224 175.716 151.206 175.878 151.188 176.13H144.474C144.744 177.372 145.608 178.02 146.832 178.02C147.75 178.02 148.416 177.732 149.172 177.03L150.738 178.416C149.838 179.532 148.542 180.216 146.796 180.216C143.898 180.216 141.756 178.182 141.756 175.23V175.194C141.756 172.44 143.718 170.172 146.526 170.172C149.748 170.172 151.224 172.674 151.224 175.41V175.446ZM148.56 174.42C148.398 173.196 147.678 172.368 146.526 172.368C145.392 172.368 144.654 173.178 144.438 174.42H148.56ZM160.337 177.066C160.337 179.208 158.735 180.18 156.647 180.18C155.297 180.18 153.785 179.73 152.507 178.722L153.677 176.922C154.721 177.678 155.819 178.074 156.719 178.074C157.511 178.074 157.871 177.786 157.871 177.354V177.318C157.871 176.724 156.935 176.526 155.873 176.202C154.523 175.806 152.993 175.176 152.993 173.304V173.268C152.993 171.306 154.577 170.208 156.521 170.208C157.745 170.208 159.077 170.622 160.121 171.324L159.077 173.214C158.123 172.656 157.169 172.314 156.467 172.314C155.801 172.314 155.459 172.602 155.459 172.98V173.016C155.459 173.556 156.377 173.808 157.421 174.168C158.771 174.618 160.337 175.266 160.337 177.03V177.066ZM169.196 177.066C169.196 179.208 167.594 180.18 165.506 180.18C164.156 180.18 162.644 179.73 161.366 178.722L162.536 176.922C163.58 177.678 164.678 178.074 165.578 178.074C166.37 178.074 166.73 177.786 166.73 177.354V177.318C166.73 176.724 165.794 176.526 164.732 176.202C163.382 175.806 161.852 175.176 161.852 173.304V173.268C161.852 171.306 163.436 170.208 165.38 170.208C166.604 170.208 167.936 170.622 168.98 171.324L167.936 173.214C166.982 172.656 166.028 172.314 165.326 172.314C164.66 172.314 164.318 172.602 164.318 172.98V173.016C164.318 173.556 165.236 173.808 166.28 174.168C167.63 174.618 169.196 175.266 169.196 177.03V177.066ZM179.456 180H176.81V178.956C176.144 179.694 175.226 180.18 173.894 180.18C172.076 180.18 170.582 179.136 170.582 177.228V177.192C170.582 175.086 172.184 174.114 174.47 174.114C175.442 174.114 176.144 174.276 176.828 174.51V174.348C176.828 173.214 176.126 172.584 174.758 172.584C173.714 172.584 172.976 172.782 172.094 173.106L171.41 171.018C172.472 170.55 173.516 170.244 175.154 170.244C178.142 170.244 179.456 171.792 179.456 174.402V180ZM176.864 176.598V176.112C176.396 175.896 175.784 175.752 175.118 175.752C173.948 175.752 173.228 176.22 173.228 177.084V177.12C173.228 177.858 173.84 178.29 174.722 178.29C176 178.29 176.864 177.588 176.864 176.598ZM184.672 180H181.936V166.86H184.672V180ZM198.038 169.272C197.642 169.128 197.264 169.038 196.796 169.038C196.166 169.038 195.806 169.362 195.806 170.082V170.46H198.02V172.692H195.842V180H193.106V172.692H191.972V170.442H193.106V169.83C193.106 167.706 194.168 166.734 196.094 166.734C196.958 166.734 197.534 166.842 198.038 167.004V169.272ZM209.307 175.194C209.307 177.966 207.075 180.216 204.069 180.216C201.081 180.216 198.867 178.002 198.867 175.23V175.194C198.867 172.422 201.099 170.172 204.105 170.172C207.093 170.172 209.307 172.386 209.307 175.158V175.194ZM206.607 175.23V175.194C206.607 173.772 205.581 172.53 204.069 172.53C202.503 172.53 201.567 173.736 201.567 175.158V175.194C201.567 176.616 202.593 177.858 204.105 177.858C205.671 177.858 206.607 176.652 206.607 175.23ZM217.102 173.034H216.958C215.14 173.034 214.024 174.132 214.024 176.436V180H211.288V170.352H214.024V172.296C214.582 170.964 215.482 170.1 217.102 170.172V173.034ZM64.022 208H54.428V195.4H63.932V197.866H57.182V200.422H63.122V202.888H57.182V205.534H64.022V208ZM79.3206 201.7C79.3206 205.282 76.4946 208.216 72.6066 208.216C68.7186 208.216 65.9286 205.318 65.9286 201.736V201.7C65.9286 198.118 68.7546 195.184 72.6426 195.184C76.5306 195.184 79.3206 198.082 79.3206 201.664V201.7ZM76.4226 201.736V201.7C76.4226 199.54 74.8386 197.74 72.6066 197.74C70.3746 197.74 68.8266 199.504 68.8266 201.664V201.7C68.8266 203.86 70.4106 205.66 72.6426 205.66C74.8746 205.66 76.4226 203.896 76.4226 201.736ZM92.4356 208H89.6636V202.942H84.5516V208H81.7796V195.4H84.5516V200.386H89.6636V195.4H92.4356V208ZM104.563 204.274C104.563 206.776 102.655 208.18 99.9374 208.18C98.0294 208.18 96.1034 207.514 94.5914 206.164L96.2294 204.202C97.3634 205.138 98.5514 205.732 99.9914 205.732C101.125 205.732 101.809 205.282 101.809 204.544V204.508C101.809 203.806 101.377 203.446 99.2714 202.906C96.7334 202.258 95.0954 201.556 95.0954 199.054V199.018C95.0954 196.732 96.9314 195.22 99.5054 195.22C101.341 195.22 102.907 195.796 104.185 196.822L102.745 198.91C101.629 198.136 100.531 197.668 99.4694 197.668C98.4074 197.668 97.8494 198.154 97.8494 198.766V198.802C97.8494 199.63 98.3894 199.9 100.567 200.458C103.123 201.124 104.563 202.042 104.563 204.238V204.274ZM115.264 208H112.492V195.4H115.264V208ZM125.198 205.066C125.198 207.208 123.596 208.18 121.508 208.18C120.158 208.18 118.646 207.73 117.368 206.722L118.538 204.922C119.582 205.678 120.68 206.074 121.58 206.074C122.372 206.074 122.732 205.786 122.732 205.354V205.318C122.732 204.724 121.796 204.526 120.734 204.202C119.384 203.806 117.854 203.176 117.854 201.304V201.268C117.854 199.306 119.438 198.208 121.382 198.208C122.606 198.208 123.938 198.622 124.982 199.324L123.938 201.214C122.984 200.656 122.03 200.314 121.328 200.314C120.662 200.314 120.32 200.602 120.32 200.98V201.016C120.32 201.556 121.238 201.808 122.282 202.168C123.632 202.618 125.198 203.266 125.198 205.03V205.066ZM134.058 205.066C134.058 207.208 132.456 208.18 130.368 208.18C129.018 208.18 127.506 207.73 126.228 206.722L127.398 204.922C128.442 205.678 129.54 206.074 130.44 206.074C131.232 206.074 131.592 205.786 131.592 205.354V205.318C131.592 204.724 130.656 204.526 129.594 204.202C128.244 203.806 126.714 203.176 126.714 201.304V201.268C126.714 199.306 128.298 198.208 130.242 198.208C131.466 198.208 132.798 198.622 133.842 199.324L132.798 201.214C131.844 200.656 130.89 200.314 130.188 200.314C129.522 200.314 129.18 200.602 129.18 200.98V201.016C129.18 201.556 130.098 201.808 131.142 202.168C132.492 202.618 134.058 203.266 134.058 205.03V205.066ZM144.785 208H142.049V206.632C141.419 207.442 140.609 208.18 139.223 208.18C137.153 208.18 135.947 206.812 135.947 204.598V198.352H138.683V203.734C138.683 205.03 139.295 205.696 140.339 205.696C141.383 205.696 142.049 205.03 142.049 203.734V198.352H144.785V208ZM156.234 203.446C156.234 203.716 156.216 203.878 156.198 204.13H149.484C149.754 205.372 150.618 206.02 151.842 206.02C152.76 206.02 153.426 205.732 154.182 205.03L155.748 206.416C154.848 207.532 153.552 208.216 151.806 208.216C148.908 208.216 146.766 206.182 146.766 203.23V203.194C146.766 200.44 148.728 198.172 151.536 198.172C154.758 198.172 156.234 200.674 156.234 203.41V203.446ZM153.57 202.42C153.408 201.196 152.688 200.368 151.536 200.368C150.402 200.368 149.664 201.178 149.448 202.42H153.57ZM165.347 205.066C165.347 207.208 163.745 208.18 161.657 208.18C160.307 208.18 158.795 207.73 157.517 206.722L158.687 204.922C159.731 205.678 160.829 206.074 161.729 206.074C162.521 206.074 162.881 205.786 162.881 205.354V205.318C162.881 204.724 161.945 204.526 160.883 204.202C159.533 203.806 158.003 203.176 158.003 201.304V201.268C158.003 199.306 159.587 198.208 161.531 198.208C162.755 198.208 164.087 198.622 165.131 199.324L164.087 201.214C163.133 200.656 162.179 200.314 161.477 200.314C160.811 200.314 160.469 200.602 160.469 200.98V201.016C160.469 201.556 161.387 201.808 162.431 202.168C163.781 202.618 165.347 203.266 165.347 205.03V205.066Z" fill="#AD3088"/>
<path opacity="0.75" d="M164.406 54.0457C163.321 52.2697 161.396 51.1868 159.312 51.2012C157.735 51.2012 154.695 51.8654 152.119 56.2981L143.161 71.7766C142.959 71.6322 142.756 71.4878 142.539 71.3723C141.164 70.5926 138.212 69.6685 133.783 72.2386L121.54 79.4003C120.715 79.819 119.847 80.1511 118.95 80.3822C115.621 81.4218 110.599 82.9812 110.599 90.6049V107.672C110.599 108.394 111.193 108.986 111.916 108.986H131.569C132.293 108.986 132.886 108.394 132.886 107.672V95.9906L146.041 88.4102C146.852 87.9626 147.517 87.2839 147.966 86.4898L164.536 57.8575C165.202 56.6591 165.144 55.1863 164.406 54.0312V54.0457ZM113.233 106.372V100.467H130.267V106.372H113.233ZM162.264 56.558L145.708 85.1903C145.477 85.5946 145.144 85.9267 144.739 86.1577L130.918 94.1135C130.513 94.3445 130.267 94.7777 130.267 95.2542V97.8388H113.233V90.6193C113.233 84.9304 116.403 83.9486 119.746 82.8945C120.831 82.6057 121.887 82.2015 122.886 81.6817L135.129 74.5344C137.561 73.1194 139.731 72.8162 141.236 73.6825C142.235 74.2456 142.886 75.2852 142.944 76.4259C142.988 76.8591 142.799 77.2778 142.452 77.5377L130.918 84.1796C130.296 84.5406 130.079 85.3491 130.44 85.97C130.802 86.5909 131.613 86.8075 132.235 86.4465L143.769 79.8046C144.941 79.0971 145.636 77.7976 145.578 76.4259C145.578 75.5596 145.361 74.7077 144.97 73.9424L154.42 57.6121C155.839 55.1719 157.575 53.8146 159.326 53.8291C160.47 53.8291 161.541 54.4066 162.148 55.3596C162.395 55.7061 162.452 56.1682 162.279 56.558H162.264ZM101.048 80.3822C100.151 80.1367 99.2823 79.819 98.4574 79.4003L86.2141 72.2531C81.8001 69.6685 78.8334 70.5926 77.4585 71.3867C77.2415 71.5022 77.0389 71.6466 76.8362 71.791L67.8781 56.2981C64.8245 51.0279 60.5553 50.3493 57.6754 52.0098C55.3164 53.367 54.3468 55.9516 55.4611 57.872L72.0316 86.5042C72.4802 87.3128 73.1604 87.977 73.9563 88.4246L87.1113 96.005V107.686C87.1113 108.408 87.7047 109 88.4283 109H108.081C108.805 109 109.398 108.408 109.398 107.686V90.6193C109.398 82.9956 104.376 81.4362 101.048 80.3966V80.3822ZM75.2877 86.1433C74.8825 85.9122 74.5497 85.5802 74.3181 85.1759L57.7477 56.5436C57.3859 55.9227 57.9648 54.8542 58.9923 54.2622C60.6855 53.2804 63.3194 53.6558 65.606 57.5976L75.0562 73.9135C74.6654 74.6788 74.4484 75.5307 74.4484 76.397C74.376 77.7687 75.0707 79.0682 76.2429 79.7902L87.7771 86.432C88.4138 86.7786 89.2098 86.5476 89.5571 85.9122C89.89 85.2914 89.6873 84.5261 89.094 84.1651L77.5598 77.5233C77.2125 77.2634 77.0389 76.8446 77.0678 76.4115C77.1112 75.2564 77.7624 74.2168 78.761 73.6536C80.2806 72.7873 82.4514 73.0905 84.8682 74.5055L97.1259 81.6672C98.1245 82.187 99.1665 82.5913 100.266 82.8801C103.609 83.9197 106.779 84.9015 106.779 90.6049V97.8243H89.7452V95.2398C89.7452 94.7777 89.4992 94.3445 89.094 94.0991L75.2877 86.1433ZM89.7452 106.358V100.452H106.779V106.358H89.7452ZM110.006 14.7286C111.786 14.7286 113.233 13.2847 113.233 11.5087C113.233 9.73274 111.786 8.28885 110.006 8.28885C108.226 8.28885 106.779 9.73274 106.779 11.5087C106.779 13.2847 108.226 14.7286 110.006 14.7286ZM110.006 10.9023C110.339 10.9023 110.614 11.1766 110.614 11.5087C110.614 11.8408 110.339 12.1152 110.006 12.1152C109.673 12.1152 109.398 11.8408 109.398 11.5087C109.398 11.1766 109.673 10.9023 110.006 10.9023ZM66.7348 35.2607C66.6625 43.0288 72.9143 49.3819 80.6858 49.4541C88.4717 49.5263 94.8394 43.2887 94.9117 35.535C94.9117 35.4484 94.9117 35.3617 94.9117 35.2751C94.9117 31.4055 90.4544 24.1716 85.0708 15.8115L84.4485 14.8297H103.754C104.42 16.0714 105.447 17.0966 106.692 17.7608V59.4747H103.088C100.599 59.4747 98.5876 61.4961 98.5731 63.9796V65.8567H96.1708C93.6816 65.8567 91.67 67.8781 91.6555 70.3616V73.5526C91.6555 74.2745 92.2489 74.8665 92.9725 74.8665H127.04C127.763 74.8665 128.356 74.2745 128.356 73.5526V70.3616C128.356 67.8781 126.33 65.8711 123.841 65.8567H121.439V63.9796C121.439 61.4961 119.413 59.4891 116.924 59.4747H113.32V17.7608C114.565 17.0966 115.592 16.0714 116.258 14.8297H135.578L134.956 15.8115C129.572 24.1716 125.1 31.4199 125.1 35.2751C125.1 43.0432 131.41 49.3241 139.196 49.3241C146.967 49.3241 153.277 43.0288 153.277 35.2751C153.277 31.4055 148.82 24.1716 143.436 15.8115L142.756 14.7575C144.565 12.8082 144.464 9.77606 142.51 7.95676C140.556 6.13746 137.517 6.25297 135.694 8.20222H116.258C115.592 6.96048 114.565 5.93532 113.32 5.27113V3.24969C113.291 1.41595 111.772 -0.0423761 109.934 0.000940545C108.154 0.0298183 106.706 1.47371 106.677 3.24969V5.27113C105.433 5.93532 104.405 6.96048 103.74 8.20222H84.3038C82.4948 6.25297 79.4412 6.1519 77.4875 7.95676C75.5338 9.76162 75.4325 12.8082 77.2415 14.7575C77.0244 15.104 76.7928 15.4505 76.5613 15.8115C71.1777 24.1716 66.7203 31.4055 66.7203 35.2751L66.7348 35.2607ZM80.8305 46.6963C75.0128 46.6963 70.1213 42.3357 69.4411 36.5746H92.2055C91.5253 42.3357 86.6482 46.6963 80.8305 46.6963ZM92.0897 33.9612H69.5713C70.6278 29.9039 75.6495 22.1069 78.79 17.2265C79.036 16.8511 79.2675 16.4901 79.4846 16.1436C80.3529 16.3891 81.2791 16.3891 82.1475 16.1436L82.8421 17.2265C85.9825 22.0924 91.0043 29.9039 92.0608 33.9612H92.0897ZM125.737 70.3471V72.2242H94.2894V70.3471C94.2894 69.3075 95.1288 68.4701 96.1708 68.4701H123.841C124.883 68.4701 125.723 69.3075 125.723 70.3471H125.737ZM118.834 63.9652V65.8422H101.207V63.9652C101.207 62.9256 102.046 62.0881 103.088 62.0881H116.953C117.995 62.0881 118.834 62.9256 118.834 63.9652ZM110.715 59.4602H109.326V18.5693C109.789 18.6126 110.252 18.6126 110.715 18.5693V59.4891V59.4602ZM139.21 46.6963C133.393 46.6963 128.501 42.3357 127.821 36.5746H150.585C149.92 42.3357 145.028 46.6963 139.21 46.6963ZM150.47 33.9612H127.951C129.008 29.9039 134.029 22.1069 137.17 17.2265L137.865 16.1436C138.733 16.3891 139.659 16.3891 140.527 16.1436L141.222 17.2265C144.362 22.0924 149.384 29.9039 150.441 33.9612H150.47ZM139.21 9.32845C140.426 9.32845 141.396 10.3103 141.396 11.5087C141.396 12.7071 140.412 13.689 139.21 13.689C138.009 13.689 137.025 12.7071 137.025 11.5087C137.025 10.2959 138.009 9.32845 139.21 9.32845ZM134.449 10.8157C134.377 11.2777 134.377 11.7397 134.449 12.2018H117.083C117.126 11.7397 117.126 11.2777 117.083 10.8157H134.449ZM109.326 3.24969C109.34 2.85984 109.673 2.57106 110.049 2.5855C110.411 2.59994 110.701 2.88872 110.715 3.24969V4.47699C110.484 4.44811 110.252 4.44811 110.02 4.44811C109.789 4.44811 109.557 4.44811 109.326 4.47699V3.24969ZM110.02 7.06155C112.481 7.06155 114.478 9.05411 114.478 11.5087C114.478 13.9633 112.481 15.9559 110.02 15.9559C107.56 15.9559 105.563 13.9633 105.563 11.5087C105.563 9.05411 107.56 7.06155 110.02 7.06155ZM102.958 10.8157C102.929 11.0467 102.929 11.2777 102.929 11.5087C102.929 11.7397 102.929 11.9708 102.958 12.2018H85.5918C85.6641 11.7397 85.6641 11.2777 85.5918 10.8157H102.958ZM80.8305 9.32845C82.0461 9.32845 83.0158 10.3103 83.0158 11.5232C83.0158 12.736 82.0317 13.7034 80.816 13.7034C79.6004 13.7034 78.6308 12.7216 78.6308 11.5232C78.6308 10.3103 79.6149 9.34289 80.8305 9.34289V9.32845Z" fill="#CD94B9"/>
</svg>
