<svg width="194" height="194" viewBox="0 0 194 194" fill="none" xmlns="http://www.w3.org/2000/svg">
<circle cx="97" cy="97" r="97" fill="#8CD3DA"/>
<g opacity="0.75" clip-path="url(#clip0_52_1082)">
<path d="M152.663 99.181C152.663 99.1358 152.663 99.0679 152.663 99.0227L152.641 98.9549C151.163 85.9794 145.252 73.908 135.915 64.8206C138.198 60.2317 139.788 55.055 140.796 49.0194C141.714 43.3906 142.162 36.948 142.162 28.7423C142.162 28.0415 141.736 27.4085 141.087 27.1373C140.438 26.8886 139.699 27.0468 139.228 27.5668C135.825 31.2967 129.981 32.3817 123.196 33.6476C116.21 34.9588 108.284 36.4281 101.5 41.3335C98.1633 43.7523 95.4316 46.578 93.3716 49.7654C92.991 50.3531 92.6327 50.9408 92.2968 51.5512C91.8714 51.0087 91.4236 50.4887 90.931 49.9688C89.7443 48.7029 88.4008 47.5048 86.9454 46.4198C81.0341 42.0343 74.1377 41.1075 68.0697 40.3163C62.4496 39.5703 57.5907 38.9373 54.8142 35.8178C54.344 35.2978 53.6051 35.117 52.9334 35.3657C52.284 35.6143 51.8362 36.2473 51.8362 36.9707C51.8362 46.2841 52.4184 56.9991 56.6727 66.2448C50.0225 73.2073 45.2309 81.7974 42.7902 91.1108C41.5811 95.7675 40.9766 100.605 40.9766 105.465C40.9766 120.566 46.7982 134.762 57.3892 145.432C67.9578 156.102 82.0193 162.002 96.9766 162.002C111.934 162.002 125.995 156.124 136.564 145.432C147.132 134.762 152.977 120.566 152.977 105.465C152.977 103.363 152.865 101.238 152.641 99.181H152.663ZM148.319 93.6652C148.319 93.6652 148.319 93.6652 148.297 93.6652C148.207 93.6426 148.14 93.5974 148.051 93.5748C147.983 93.5522 147.894 93.5296 147.804 93.507C147.804 93.507 147.759 93.507 147.737 93.507C147.67 93.507 147.603 93.4844 147.513 93.4618C147.513 93.4618 147.491 93.4618 147.468 93.4618C147.379 93.4618 147.289 93.4392 147.2 93.4166C147.2 93.4166 147.155 93.4166 147.132 93.4166C147.065 93.4166 146.998 93.4166 146.931 93.4166C146.931 93.4166 146.886 93.4166 146.864 93.4166C146.774 93.4166 146.685 93.4166 146.595 93.4166C146.595 93.4166 146.438 93.4166 146.349 93.4166C146.326 93.4166 146.304 93.4166 146.282 93.4166C146.214 93.4166 146.147 93.4166 146.058 93.4166H146.013C145.923 93.4166 145.834 93.4392 145.767 93.4618C145.767 93.4618 145.722 93.4618 145.699 93.4618C145.632 93.4618 145.565 93.4844 145.498 93.507C145.498 93.507 145.453 93.507 145.431 93.507C145.341 93.5296 145.252 93.5522 145.184 93.5748C145.095 93.5974 145.028 93.6426 144.938 93.6652C144.938 93.6652 144.893 93.6652 144.871 93.6878C144.804 93.7104 144.737 93.7557 144.669 93.7783H144.625C144.625 93.7783 144.468 93.8913 144.401 93.9365C144.401 93.9365 144.356 93.9365 144.356 93.9591C144.289 94.0043 144.244 94.0495 144.177 94.0947L144.11 94.14C144.11 94.14 143.953 94.253 143.886 94.3208C142.923 95.1798 142.565 96.2875 142.274 97.1917C142.139 97.5986 142.005 98.0055 141.848 98.2994C141.781 98.435 141.691 98.5706 141.58 98.6837C141.266 99.0679 140.841 99.4296 140.415 99.8139C140.191 99.9948 139.967 100.198 139.743 100.424C137.84 102.187 137.549 103.838 137.639 104.9C137.751 106.189 138.602 107.364 139.833 107.907C140.012 107.975 140.191 108.042 140.37 108.088C140.729 111.252 140.751 114.078 139.43 116.339C138.803 117.424 137.863 118.35 136.877 119.345C136.161 120.068 135.4 120.814 134.728 121.651C133.093 123.708 132.063 126.149 131.101 128.478C129.891 131.349 128.772 134.084 126.6 135.779C125.503 136.638 124.294 137 123.376 136.751C122.055 136.39 121.248 134.694 121.136 133.225C121.025 131.755 121.36 130.218 121.696 128.568C121.786 128.139 121.898 127.686 121.987 127.234C122.211 126.127 122.368 124.996 122.502 123.889C122.614 122.759 122.681 121.651 122.681 120.521C122.681 118.283 122.502 116.022 122.122 113.784C121.987 113.083 121.719 111.524 120.733 110.348C120.398 109.941 119.995 109.602 119.48 109.331C119.412 109.286 119.323 109.263 119.256 109.218C119.233 109.218 119.211 109.218 119.188 109.195C119.144 109.195 119.099 109.15 119.032 109.127C119.009 109.127 118.965 109.127 118.942 109.105C118.897 109.105 118.853 109.082 118.808 109.06C118.785 109.06 118.741 109.06 118.718 109.037C118.673 109.037 118.629 109.014 118.584 108.992C118.562 108.992 118.539 108.992 118.494 108.992C118.427 108.992 118.382 108.969 118.315 108.947C118.315 108.947 118.293 108.947 118.27 108.947C118.203 108.947 118.136 108.947 118.069 108.924C118.047 108.924 118.024 108.924 118.002 108.924C117.957 108.924 117.912 108.924 117.867 108.924C117.845 108.924 117.8 108.924 117.778 108.924C117.733 108.924 117.688 108.924 117.643 108.924C117.643 108.924 117.621 108.924 117.599 108.924C117.599 108.924 117.576 108.924 117.554 108.924C117.487 108.924 117.42 108.924 117.352 108.924C117.352 108.924 117.33 108.924 117.308 108.924C117.24 108.924 117.151 108.924 117.084 108.924C117.061 108.924 117.039 108.924 117.017 108.924C116.949 108.924 116.905 108.924 116.837 108.947C116.815 108.947 116.793 108.947 116.77 108.947C116.703 108.947 116.614 108.969 116.546 108.992C116.546 108.992 116.502 108.992 116.479 108.992C116.412 108.992 116.367 109.014 116.3 109.037C116.278 109.037 116.255 109.037 116.233 109.037C116.166 109.037 116.099 109.082 116.031 109.105C116.031 109.105 116.031 109.105 115.987 109.105C115.919 109.105 115.83 109.15 115.763 109.173C115.74 109.173 115.718 109.173 115.695 109.195C115.651 109.195 115.584 109.24 115.539 109.263C115.539 109.263 115.494 109.263 115.472 109.286C115.404 109.308 115.337 109.353 115.27 109.376C115.27 109.376 115.225 109.376 115.203 109.399C115.158 109.421 115.091 109.444 115.046 109.466C115.046 109.466 115.001 109.466 114.979 109.489C114.912 109.512 114.845 109.557 114.8 109.579C114.8 109.579 114.8 109.579 114.777 109.579C114.71 109.602 114.643 109.647 114.576 109.67C114.576 109.67 114.531 109.67 114.509 109.693C114.464 109.715 114.419 109.738 114.352 109.76C114.352 109.76 114.307 109.76 114.307 109.783C114.24 109.806 114.173 109.851 114.128 109.873C114.128 109.873 114.083 109.873 114.061 109.896C114.016 109.896 113.971 109.941 113.927 109.964C113.904 109.964 113.859 109.986 113.837 110.009C113.837 110.009 113.792 110.009 113.77 110.054C113.747 110.054 113.703 110.099 113.68 110.099C113.524 110.19 113.367 110.28 113.21 110.348C112.986 110.461 112.762 110.574 112.538 110.687C109.851 111.885 106.067 110.371 104.455 107.409C102.933 104.629 103.022 100.741 104.701 97.2369C106.157 94.2078 108.306 91.4047 111.105 88.8729C111.284 88.7146 111.486 88.5338 111.665 88.3755C111.799 88.2625 111.889 88.1495 111.979 88.0139C112.359 87.4487 112.359 86.6801 111.979 86.0924C111.486 85.369 110.546 85.1204 109.784 85.5499C109.672 85.6177 109.292 85.8211 108.754 85.5046C108.709 85.482 108.687 85.4594 108.642 85.4368C108.642 85.4368 108.62 85.4368 108.598 85.4142C108.575 85.4142 108.553 85.369 108.53 85.3464C108.53 85.3464 108.508 85.3238 108.486 85.3012C108.486 85.3012 108.441 85.256 108.418 85.2334C108.418 85.2334 108.396 85.2108 108.374 85.1882C108.374 85.1882 108.329 85.143 108.306 85.1204C108.306 85.1204 108.284 85.0978 108.262 85.0751C108.262 85.0751 108.217 85.0299 108.217 85.0073C108.217 85.0073 108.194 84.9847 108.172 84.9621C108.172 84.9395 108.127 84.9169 108.127 84.8943C108.127 84.8943 108.105 84.8717 108.083 84.8491C108.083 84.8265 108.06 84.8039 108.038 84.7813C108.038 84.7813 108.038 84.7587 108.015 84.7361C108.015 84.7135 107.971 84.6682 107.971 84.6456C107.971 84.6456 107.971 84.623 107.971 84.6004C108.015 84.6004 108.038 84.6004 108.083 84.6004C108.217 84.6004 108.374 84.5552 108.508 84.5552C108.687 84.5552 108.866 84.51 109.023 84.4874C109.157 84.4874 109.314 84.4422 109.448 84.4196C109.627 84.397 109.784 84.3744 109.963 84.3292C110.098 84.3066 110.254 84.284 110.389 84.2613C110.568 84.2387 110.725 84.1935 110.904 84.1709C111.038 84.1483 111.172 84.1257 111.329 84.0805C111.508 84.0353 111.665 84.0127 111.844 83.9675C111.979 83.9449 112.113 83.8997 112.247 83.8771C112.404 83.8318 112.583 83.8092 112.74 83.764C112.874 83.7414 113.009 83.6962 113.143 83.6736C113.3 83.6284 113.479 83.5832 113.635 83.538C113.77 83.4928 113.904 83.4702 114.016 83.4249C114.173 83.3797 114.352 83.3345 114.509 83.2893C114.643 83.2441 114.755 83.2215 114.889 83.1763C115.046 83.1311 115.225 83.0633 115.382 83.018C115.494 82.9728 115.628 82.9502 115.74 82.905C115.897 82.8598 116.076 82.792 116.233 82.7242C116.345 82.679 116.457 82.6338 116.591 82.6111C116.77 82.5433 116.927 82.4755 117.106 82.4303C117.218 82.3851 117.33 82.3399 117.42 82.3173C117.599 82.2495 117.778 82.1816 117.957 82.1138C118.047 82.0686 118.158 82.046 118.248 82.0008C118.45 81.9104 118.651 81.82 118.853 81.7521C118.92 81.7295 118.987 81.6843 119.054 81.6617C119.592 81.4131 120.129 81.1644 120.644 80.8931C120.711 80.8705 120.778 80.8253 120.823 80.8027C121.025 80.7123 121.204 80.5993 121.405 80.4862C121.495 80.441 121.584 80.3958 121.674 80.328C121.831 80.2376 122.01 80.1471 122.166 80.0567C122.256 79.9889 122.368 79.9437 122.458 79.8759C122.614 79.7855 122.749 79.695 122.905 79.6046C122.995 79.5368 123.107 79.469 123.196 79.4238C123.331 79.3334 123.488 79.2429 123.622 79.1525C123.734 79.0847 123.823 79.0169 123.935 78.9491C124.07 78.8586 124.204 78.7682 124.338 78.6778C124.45 78.61 124.54 78.5422 124.652 78.4517C124.786 78.3613 124.921 78.2709 125.055 78.1579C125.167 78.09 125.256 77.9996 125.368 77.9318C125.503 77.8414 125.615 77.7284 125.749 77.6379C125.839 77.5701 125.951 77.4797 126.04 77.3893C126.174 77.2989 126.286 77.1858 126.421 77.0954C126.51 77.005 126.622 76.9372 126.712 76.8467C126.824 76.7337 126.958 76.6433 127.07 76.5303L127.361 76.2816C127.473 76.1686 127.608 76.0556 127.719 75.9651C127.809 75.8747 127.899 75.7843 128.011 75.6939C128.122 75.5808 128.234 75.4678 128.369 75.3548C128.458 75.2644 128.548 75.1739 128.637 75.0835C128.749 74.9705 128.861 74.8575 128.973 74.7218C129.063 74.6314 129.152 74.541 129.242 74.4506C129.354 74.3375 129.466 74.2019 129.578 74.0663C129.667 73.9758 129.757 73.8854 129.824 73.795C129.936 73.6594 130.071 73.5237 130.182 73.3881C130.25 73.2977 130.339 73.2073 130.406 73.1168C130.541 72.9586 130.653 72.823 130.787 72.6647C130.854 72.5969 130.921 72.5065 130.966 72.4387C131.145 72.2126 131.347 71.964 131.526 71.7379C131.75 71.4666 131.951 71.1728 132.153 70.8789C132.22 70.7885 132.265 70.7207 132.332 70.6302C132.489 70.4042 132.645 70.2007 132.802 69.9747C132.847 69.9069 132.914 69.8164 132.959 69.726C133.16 69.4321 133.362 69.1383 133.541 68.8444C133.564 68.7992 133.608 68.754 133.631 68.7088C133.787 68.4601 133.944 68.1888 134.123 67.9402C134.146 67.895 134.168 67.8498 134.213 67.8045C141.244 74.9253 146.125 83.8545 148.319 93.5748V93.6652ZM103.47 44.114C109.627 39.6607 116.837 38.3044 123.801 37.0159C129.354 35.976 134.683 34.9814 138.736 32.3817C138.467 46.8945 136.497 56.5922 132.332 64.3459C131.324 66.2448 130.138 68.0532 128.839 69.7486C127.496 71.5119 125.995 73.0716 124.361 74.428C119.457 78.5422 113.277 80.9157 105.911 81.5035C103.089 81.7295 100.089 81.6843 96.9542 81.3904C98.2081 77.2084 100.917 73.0716 105.06 69.0479C107.635 66.5386 110.546 64.2781 113.367 62.0854C115.18 60.6612 117.039 59.2145 118.83 57.6773C122.861 54.2413 126.6 50.3983 129.936 46.2389L127.294 44.0914C124.092 48.07 120.51 51.7773 116.636 55.0777C114.889 56.547 113.053 57.9938 111.284 59.3953C108.396 61.6559 105.418 63.9842 102.709 66.6065C98.835 70.3364 96.0809 74.2471 94.4688 78.2257C92.6103 73.1621 91.849 68.2341 92.2297 63.5773C92.2744 63.0574 92.3192 62.5375 92.4088 62.0175C92.4536 61.7011 92.4984 61.3846 92.5655 61.0681C92.5655 61.0003 92.5879 60.9325 92.6103 60.8647C92.879 59.3727 93.282 57.9259 93.797 56.5244C93.797 56.4792 93.8418 56.434 93.8418 56.3888C93.909 56.2079 93.9762 56.0271 94.0657 55.8462C94.1105 55.7558 94.1329 55.6654 94.1777 55.575C94.7598 54.2186 95.454 52.9075 96.2377 51.6642C98.0737 48.8385 100.514 46.3067 103.515 44.1366L103.47 44.114ZM67.6219 43.7071C73.5779 44.4983 79.7131 45.3121 84.9302 49.1776C86.2289 50.1497 87.4156 51.1895 88.468 52.3198C89.274 53.1788 90.0129 54.1056 90.6623 55.055C90.6623 55.055 90.6623 55.1003 90.6623 55.1229C90.5503 55.3941 90.4608 55.688 90.3488 55.9819C90.3488 56.0271 90.3264 56.0723 90.304 56.1175C90.2145 56.4114 90.1025 56.7053 90.0129 56.9991C90.0129 57.0443 90.0129 57.0669 89.9906 57.1121C89.901 57.4286 89.8114 57.7225 89.7219 58.039C89.6323 58.3555 89.5651 58.6719 89.498 58.9884C89.498 59.0336 89.498 59.0562 89.4756 59.1014C89.4084 59.3953 89.3412 59.7118 89.2964 60.0057C89.2964 60.0509 89.2964 60.1187 89.274 60.1639C89.2069 60.4578 89.1621 60.7742 89.1173 61.0681C89.1173 61.1133 89.1173 61.1811 89.0949 61.2263C89.0501 61.5428 89.0054 61.8367 88.983 62.1532C88.983 62.1984 88.983 62.221 88.983 62.2662C88.9382 62.6053 88.9158 62.9218 88.8934 63.2608C88.871 63.6225 88.8486 63.9616 88.8262 64.3233C88.8262 64.4363 88.8262 64.572 88.8262 64.685C88.8262 64.9337 88.8262 65.1597 88.8262 65.4084C88.8262 65.544 88.8262 65.7022 88.8262 65.8379C88.8262 66.0413 88.8262 66.2674 88.8262 66.4708C88.8262 66.6291 88.8262 66.7873 88.8262 66.9455C88.8262 67.149 88.8262 67.3524 88.8262 67.5559C88.8262 67.6689 88.8262 67.7593 88.8262 67.8724C87.0573 66.4256 85.2213 65.1823 83.5195 64.0972C82.9822 63.7582 82.4448 63.4191 81.885 63.08C78.0561 60.6838 74.4288 58.4007 71.6523 54.942L69.0101 57.0895C72.1449 61.0003 76.1753 63.5321 80.0937 65.9961C80.6311 66.3352 81.1685 66.6743 81.7059 67.0134C84.3032 68.6636 87.2365 70.6981 89.5427 73.2751C89.5651 73.3881 89.5875 73.5011 89.6323 73.6368C89.6771 73.8402 89.7219 74.0211 89.7666 74.2245C89.8114 74.4054 89.8562 74.5862 89.901 74.767C89.9458 74.9705 89.9906 75.1513 90.0577 75.3548C90.1025 75.5356 90.1473 75.7165 90.2145 75.8973C90.2592 76.1008 90.3264 76.2816 90.3936 76.4851C90.4384 76.6659 90.5055 76.8467 90.5503 77.0276C90.6175 77.231 90.6623 77.4119 90.7295 77.6153C90.7966 77.7962 90.8414 77.977 90.9086 78.1579C90.9758 78.3613 91.0429 78.5648 91.1101 78.7456C91.1773 78.9265 91.2445 79.1073 91.3116 79.2881C91.3788 79.4916 91.4684 79.695 91.5355 79.8985C91.6027 80.0793 91.6699 80.2602 91.7371 80.441C91.7818 80.5314 91.8042 80.6219 91.8266 80.7123C91.7371 80.9383 91.6475 81.1418 91.5579 81.3678C90.1697 81.5939 88.759 81.7521 87.3484 81.7973C86.6767 81.82 85.9826 81.82 85.3108 81.7973C84.6615 81.7973 84.0121 81.7521 83.3628 81.6843C83.0941 81.6843 82.8254 81.6391 82.5343 81.6165C80.6311 81.4131 78.7726 81.0288 76.9814 80.4862C73.7347 79.4916 70.8014 77.9544 68.2489 75.9651C67.913 75.6939 67.5771 75.4226 67.2413 75.1513C66.9502 74.9027 66.6591 74.6314 66.368 74.3601C65.4052 73.4333 64.5095 72.4161 63.6811 71.331C63.0541 70.472 62.4496 69.613 61.8898 68.7088C61.8898 68.7088 61.8674 68.6636 61.845 68.641C61.8226 68.5957 61.8002 68.5731 61.7778 68.5279C61.5091 68.0984 61.2628 67.6689 61.0165 67.2394C60.7479 66.7647 60.5016 66.29 60.2553 65.7927C57.0757 59.3953 55.5531 51.7094 55.2844 40.5197C58.7103 42.5316 63.0765 43.0967 67.6219 43.7071ZM73.2197 83.1763C73.2197 83.1763 73.1077 83.3571 73.0405 83.4702C73.0405 83.4928 72.9958 83.538 72.9958 83.5606C72.9286 83.6736 72.8614 83.8092 72.7942 83.9449C72.7942 83.9901 72.7495 84.0127 72.7495 84.0579C72.7047 84.1483 72.6599 84.2387 72.6151 84.3292C72.5927 84.3744 72.5703 84.4196 72.5479 84.4648C72.5032 84.5552 72.4808 84.623 72.436 84.7135C72.4136 84.7587 72.3912 84.8265 72.3688 84.8717C72.324 84.9395 72.3016 85.0299 72.2792 85.0978C72.2792 85.143 72.2345 85.1882 72.2121 85.256C72.1897 85.3464 72.1449 85.4142 72.1225 85.5046C72.1225 85.5499 72.0777 85.5951 72.0777 85.6403C72.0329 85.7533 72.0105 85.8437 71.9658 85.9342C71.9658 85.9568 71.9658 85.9794 71.9434 86.002C71.8986 86.1376 71.8538 86.2506 71.809 86.3637C71.809 86.4089 71.7866 86.4541 71.7642 86.4993C71.7419 86.5897 71.7195 86.6575 71.6971 86.748C71.6971 86.7932 71.6747 86.8384 71.6523 86.8836C71.6523 86.9514 71.6075 87.0418 71.5851 87.1096C71.5851 87.1549 71.5627 87.2001 71.5403 87.2453C71.5403 87.3131 71.4956 87.4035 71.4732 87.4713C71.4732 87.5165 71.4508 87.5617 71.4284 87.607C71.4284 87.6974 71.3836 87.7652 71.3612 87.833C71.3612 87.8782 71.3612 87.9008 71.3388 87.946C71.3164 88.0591 71.2716 88.1495 71.2493 88.2625V88.3303C70.7119 90.2066 70.2193 91.9924 69.1893 93.3035C69.0773 93.4392 68.9878 93.5522 68.8534 93.6878C68.0473 94.5468 66.995 95.2476 65.8754 95.971C65.5619 96.1744 65.2485 96.3779 64.935 96.6039C64.6215 96.8074 64.308 97.0335 63.9946 97.2595C63.1437 97.8925 62.3824 98.5932 61.7331 99.3392C60.3224 100.944 59.3596 102.73 58.9566 104.584C58.6431 106.076 58.7103 107.613 59.1133 108.992C58.7327 108.766 58.352 108.562 57.9938 108.359C57.6131 108.155 57.2549 107.952 56.919 107.748C56.807 107.681 56.6951 107.613 56.5831 107.545C56.3816 107.432 56.2025 107.319 56.0233 107.206C55.9562 107.161 55.889 107.115 55.8218 107.07C55.7099 107.002 55.5755 106.912 55.4636 106.822C55.3964 106.776 55.3292 106.731 55.2397 106.663C55.1277 106.596 55.0157 106.505 54.9038 106.437C54.8366 106.392 54.7471 106.324 54.6799 106.279C54.5679 106.211 54.4784 106.121 54.3664 106.053C54.2992 105.985 54.2097 105.94 54.1425 105.872C54.0529 105.804 53.941 105.714 53.8514 105.646C53.7842 105.578 53.6947 105.533 53.6275 105.465C53.5379 105.397 53.4484 105.307 53.3588 105.239C53.2916 105.171 53.2021 105.104 53.1349 105.036C53.0453 104.968 52.9558 104.878 52.8662 104.81C52.799 104.742 52.7095 104.674 52.6423 104.606C52.5527 104.538 52.4856 104.448 52.396 104.38C52.3288 104.312 52.2393 104.245 52.1721 104.177C52.1049 104.109 52.0153 104.019 51.9258 103.951C51.8586 103.883 51.7914 103.792 51.7019 103.725C51.6347 103.657 51.5451 103.566 51.478 103.499C51.4108 103.431 51.3436 103.34 51.2764 103.273C51.2093 103.205 51.1421 103.114 51.0525 103.024C50.9854 102.956 50.9182 102.866 50.851 102.798C50.7838 102.707 50.7167 102.64 50.6495 102.549C50.5823 102.481 50.5151 102.391 50.448 102.301C50.3808 102.21 50.3136 102.142 50.2465 102.052C50.1793 101.961 50.1121 101.894 50.0673 101.803C50.0002 101.713 49.933 101.645 49.8882 101.555C49.821 101.464 49.7762 101.396 49.7091 101.306C49.6419 101.215 49.5971 101.148 49.5299 101.057C49.4628 100.967 49.418 100.876 49.3508 100.809C49.2836 100.718 49.2389 100.628 49.1717 100.56C49.1045 100.469 49.0597 100.379 49.0149 100.311C48.9702 100.243 48.903 100.13 48.8582 100.063C48.8134 99.9948 48.7463 99.8817 48.7015 99.7913C48.6567 99.7009 48.5895 99.6105 48.5447 99.5201C48.5 99.4296 48.4552 99.3392 48.388 99.2488C48.3432 99.1584 48.2984 99.0679 48.2537 98.9775C48.2089 98.8871 48.1641 98.7967 48.1193 98.7063C48.0745 98.6158 48.0297 98.5254 47.985 98.435C47.9402 98.3446 47.8954 98.2541 47.8506 98.1637C47.8058 98.0733 47.761 97.9829 47.7163 97.8925C47.6715 97.802 47.6267 97.7116 47.6043 97.6212C47.5595 97.5308 47.5371 97.4404 47.4924 97.3499C47.4476 97.2595 47.4252 97.1691 47.3804 97.0787C47.3356 96.9882 47.3132 96.8978 47.2684 96.8074C47.2237 96.717 47.2013 96.6266 47.1565 96.5135C47.1341 96.4231 47.0893 96.3327 47.0669 96.2197C47.0445 96.1292 46.9998 96.0388 46.9774 95.9258C46.955 95.8128 46.9102 95.7449 46.8878 95.6319C46.8654 95.5189 46.8206 95.4511 46.7982 95.338C46.7758 95.2476 46.7535 95.1572 46.7311 95.0442C46.7087 94.9537 46.6863 94.8633 46.6639 94.7503C46.6415 94.6373 46.6191 94.5468 46.5967 94.4564C46.5967 94.366 46.5519 94.253 46.5295 94.1626C46.5295 94.0721 46.4848 93.9591 46.4624 93.8687C46.4624 93.7783 46.4176 93.6652 46.4176 93.5748C46.4176 93.4844 46.3728 93.3714 46.3728 93.2809C46.3728 93.1905 46.3504 93.0775 46.328 92.9871C46.328 92.8966 46.3056 92.7836 46.2832 92.6932C46.2832 92.6028 46.2832 92.4897 46.2608 92.3993C46.2608 92.3089 46.2608 92.1959 46.2385 92.1055C46.2385 92.015 46.2385 91.902 46.2385 91.8116C46.2385 91.7438 46.2385 91.6986 46.2385 91.6307C48.4328 83.3345 52.6199 75.6939 58.4192 69.3643C58.4192 69.3869 58.464 69.4321 58.4864 69.4548C58.6655 69.7712 58.8446 70.0651 59.0237 70.3816C59.0237 70.3816 59.0237 70.3816 59.0237 70.4042C59.2029 70.6981 59.382 70.9919 59.5835 71.2858C59.6507 71.3762 59.6955 71.4666 59.7626 71.5571C59.9194 71.7831 60.0537 71.9866 60.2105 72.2126C60.2776 72.303 60.3224 72.3935 60.3896 72.4613C60.5911 72.7552 60.7926 73.049 61.0165 73.3203C61.1957 73.5689 61.3748 73.795 61.5763 74.0211C61.5987 74.0663 61.6435 74.0889 61.6659 74.1341C61.845 74.3601 62.0241 74.5636 62.2033 74.7896C62.2481 74.8349 62.2704 74.8801 62.3152 74.9253C62.4944 75.1513 62.6959 75.3548 62.8974 75.5582C62.9198 75.5808 62.9422 75.6034 62.9646 75.6261C63.1437 75.8295 63.3452 76.033 63.5467 76.2364C63.5691 76.259 63.5915 76.2816 63.6139 76.3042C63.8154 76.5077 64.0169 76.7111 64.2409 76.9146C64.2856 76.9598 64.3304 76.9824 64.3752 77.0276C64.5767 77.2084 64.8006 77.4119 65.0022 77.5927C65.0469 77.6153 65.0693 77.6605 65.1141 77.6832C65.338 77.8866 65.5619 78.0674 65.7858 78.2483C66.0097 78.4291 66.2337 78.61 66.48 78.7908C66.5247 78.8134 66.5695 78.8586 66.5919 78.8812C66.8158 79.0621 67.0397 79.2203 67.286 79.3786C67.3308 79.4012 67.3756 79.4464 67.4204 79.469C67.6443 79.6272 67.8906 79.7855 68.1369 79.9663C68.1593 79.9663 68.2041 80.0115 68.2265 80.0341C68.4504 80.1924 68.6967 80.328 68.943 80.4862C68.9654 80.4862 69.0101 80.5314 69.0325 80.5314C69.2788 80.6897 69.5251 80.8253 69.7714 80.9609C69.8162 80.9836 69.861 81.0288 69.9282 81.0514C70.1745 81.187 70.4208 81.3226 70.6895 81.4583C70.7343 81.4809 70.779 81.5035 70.8238 81.5261C71.0925 81.6617 71.3612 81.7973 71.6299 81.933C71.8986 82.0686 72.1673 82.1816 72.436 82.3173C72.4808 82.3173 72.5255 82.3625 72.5703 82.3851C72.839 82.4981 73.1077 82.6111 73.3764 82.7242C73.3988 82.7242 73.4212 82.7242 73.4436 82.7468C73.3988 82.792 73.3764 82.8598 73.3316 82.905C73.3092 82.9502 73.2644 82.9954 73.2421 83.0407L73.2197 83.1763ZM97.0213 158.588C68.0249 158.588 44.4024 134.762 44.4024 105.465C44.4024 103.476 44.5143 101.509 44.7159 99.5427C44.7159 99.5879 44.7383 99.6105 44.7606 99.6331C44.8502 99.8365 44.9398 100.04 45.0517 100.221C45.0741 100.266 45.0965 100.334 45.1189 100.379C45.2533 100.628 45.3652 100.876 45.4996 101.102C45.5443 101.17 45.5667 101.238 45.6115 101.283C45.7235 101.464 45.813 101.645 45.925 101.826C45.9698 101.916 46.0145 101.984 46.0817 102.074C46.1937 102.233 46.2832 102.414 46.3952 102.572C46.44 102.64 46.4848 102.73 46.5295 102.798C46.6863 103.024 46.8206 103.25 46.9998 103.453C46.9998 103.453 46.9998 103.453 46.9998 103.476C47.1565 103.702 47.3356 103.928 47.5147 104.154C47.5595 104.222 47.6267 104.29 47.6715 104.358C47.8058 104.516 47.9178 104.674 48.0521 104.832C48.1193 104.9 48.1865 104.991 48.2313 105.058C48.3656 105.217 48.5 105.375 48.6343 105.533C48.6791 105.601 48.7463 105.646 48.791 105.714C48.9926 105.917 49.1717 106.121 49.3732 106.324C49.418 106.37 49.4404 106.392 49.4852 106.437C49.6419 106.596 49.821 106.776 50.0002 106.935C50.0673 107.002 50.1345 107.07 50.2017 107.138C50.3584 107.274 50.4928 107.409 50.6495 107.545C50.7167 107.613 50.7838 107.681 50.8734 107.726C51.0525 107.884 51.2317 108.02 51.4108 108.178C51.4556 108.223 51.5004 108.246 51.5451 108.291C51.769 108.472 52.0153 108.653 52.2393 108.834C52.3064 108.879 52.3736 108.924 52.4408 108.969C52.6199 109.105 52.799 109.218 52.9782 109.353C53.0677 109.421 53.1349 109.466 53.2245 109.534C53.4036 109.647 53.5827 109.783 53.7618 109.896C53.829 109.941 53.9186 109.986 53.9858 110.054C54.2321 110.212 54.5008 110.371 54.7471 110.529C55.2397 110.823 55.7547 111.117 56.2696 111.388C56.6727 111.614 57.0757 111.84 57.4788 112.066C59.1805 113.061 60.6359 114.101 61.1509 115.615C61.5539 116.836 61.3076 118.328 61.0389 119.888C60.9718 120.227 60.927 120.566 60.8598 120.927C60.7702 121.515 60.6807 122.103 60.6583 122.713C60.5911 124.115 60.7702 125.516 61.1733 126.873C61.2181 126.986 61.2405 127.099 61.2852 127.212C61.957 129.201 63.1213 131.055 64.6887 132.456C64.7782 132.524 64.8678 132.614 64.9574 132.682C65.6739 133.293 66.4128 133.767 67.1517 134.242C67.5323 134.491 67.913 134.739 68.2712 134.988C68.3832 135.056 68.4728 135.146 68.5847 135.214C68.8086 135.395 69.0325 135.553 69.2117 135.734C69.3012 135.802 69.3908 135.892 69.458 135.983C71.0701 137.61 71.7195 140.029 72.4136 142.584C72.4808 142.855 72.5703 143.126 72.6375 143.397C73.1749 145.319 73.7794 147.263 74.8766 149.026C74.9438 149.139 75.0109 149.23 75.0781 149.343C75.1005 149.388 75.1229 149.41 75.1453 149.433C75.1901 149.501 75.2349 149.569 75.2796 149.614C75.302 149.659 75.3468 149.682 75.3692 149.727C75.414 149.772 75.4588 149.84 75.5036 149.885C75.5259 149.93 75.5707 149.953 75.5931 149.998C75.6379 150.043 75.6827 150.089 75.7275 150.134C75.7722 150.179 75.7946 150.202 75.8394 150.247C75.8842 150.292 75.929 150.337 75.9738 150.382C76.0185 150.428 76.0409 150.45 76.0857 150.473C76.1305 150.518 76.1753 150.541 76.2201 150.586C76.2648 150.608 76.2872 150.654 76.332 150.676C76.3768 150.721 76.4216 150.744 76.4664 150.767C76.5111 150.789 76.5335 150.835 76.5783 150.857C76.6231 150.88 76.6679 150.925 76.7127 150.948C76.7574 150.97 76.8022 150.993 76.8246 151.015C76.8694 151.038 76.9142 151.061 76.959 151.083C77.0037 151.083 77.0485 151.128 77.0933 151.151C77.1381 151.151 77.1829 151.196 77.2277 151.219C77.2724 151.219 77.3172 151.264 77.362 151.264C77.4068 151.264 77.4516 151.309 77.4964 151.309C77.5411 151.309 77.5859 151.332 77.6307 151.354C77.6755 151.354 77.7203 151.377 77.765 151.4C77.8098 151.4 77.8546 151.422 77.8994 151.445C77.9442 151.445 77.989 151.445 78.0561 151.467C78.1009 151.467 78.1457 151.467 78.1905 151.49C78.2353 151.49 78.3024 151.49 78.3472 151.49C78.392 151.49 78.4368 151.49 78.4592 151.49C78.5263 151.49 78.5711 151.49 78.6383 151.49H78.7503C78.8398 151.49 78.9294 151.49 79.0189 151.49C81.1013 151.332 82.3776 149.456 82.7135 147.647C82.8254 147.037 82.8478 146.426 82.8702 145.884C82.8702 145.816 82.8702 145.726 82.8702 145.658C82.8702 145.115 82.8926 144.618 82.9822 144.166C83.3628 142.199 85.3108 140.798 87.3708 139.306C87.5275 139.193 87.6619 139.08 87.8186 138.967C87.9754 138.854 88.1321 138.741 88.2664 138.628C88.4904 138.447 88.7143 138.288 88.9606 138.108C89.498 137.701 90.0129 137.249 90.5056 136.774C90.6399 136.638 90.7742 136.503 90.9086 136.367C91.961 135.237 92.8118 133.926 93.1029 132.253C93.8642 128.161 90.9534 124.68 87.9754 122.759C86.7662 121.99 85.49 121.357 84.2584 120.769C83.6763 120.475 83.0941 120.204 82.5343 119.91C81.5939 119.413 80.7207 118.916 79.937 118.283C79.4444 117.898 78.9966 117.469 78.5263 117.017C78.2353 116.745 77.9666 116.452 77.6755 116.18C77.4964 115.999 77.2948 115.796 77.1157 115.615C76.9366 115.434 76.7351 115.231 76.5335 115.05C76.332 114.869 76.1529 114.688 75.9514 114.507C74.9438 113.603 73.8466 112.812 72.5032 112.27C71.6075 111.908 70.6895 111.727 69.7714 111.591C69.2341 111.524 68.6743 111.456 68.1369 111.411C66.5695 111.252 65.0917 111.117 63.9946 110.393C62.5167 109.444 61.7778 107.251 62.2257 105.217C62.6287 103.318 63.9722 101.419 65.9874 99.9043C66.5247 99.4974 67.0845 99.1358 67.6891 98.7289C69.1221 97.7794 70.6223 96.8074 71.7866 95.3154C73.2644 93.4392 73.8914 91.156 74.4512 89.1215V89.0537C75.0109 87.087 75.5483 85.369 76.6231 84.1257C76.6903 84.0579 76.7351 83.9901 76.8022 83.9223C77.0709 83.9901 77.3396 84.0579 77.6083 84.1257C77.6979 84.1257 77.7874 84.1709 77.8546 84.1935C78.0337 84.2387 78.2353 84.284 78.4144 84.3292C78.5263 84.3518 78.6159 84.3744 78.7279 84.397C78.907 84.4422 79.0637 84.4648 79.2429 84.51C79.3548 84.51 79.4668 84.5552 79.5787 84.5778C79.7578 84.6004 79.9146 84.6456 80.0937 84.6682C80.2057 84.6682 80.3176 84.7135 80.4296 84.7361C80.6087 84.7587 80.7654 84.7813 80.9446 84.8039C81.0565 84.8039 81.1685 84.8265 81.2804 84.8491C81.4596 84.8717 81.6611 84.8943 81.8402 84.9169C81.9298 84.9169 82.0193 84.9169 82.1313 84.9395C82.4224 84.9621 82.6911 85.0073 82.9822 85.0299C83.2956 85.0525 83.6315 85.0751 83.945 85.0978C84.0345 85.0978 84.1241 85.0978 84.1913 85.0978C84.5048 85.0978 84.7958 85.1204 85.1093 85.143C85.1317 85.143 85.1541 85.143 85.1765 85.143C85.4228 85.143 85.6915 85.143 85.9378 85.143C86.0049 85.143 86.0945 85.143 86.1617 85.143C86.2513 85.143 86.3184 85.143 86.408 85.143C86.7439 85.143 87.0573 85.143 87.3932 85.1204C89.2516 85.0525 91.1325 84.8265 92.9686 84.4648C93.0357 84.4648 93.1029 84.4422 93.1477 84.4196C93.1477 84.4196 93.1925 84.4196 93.2149 84.4196C93.2596 84.4196 93.3044 84.397 93.3268 84.3744C93.3492 84.3744 93.3716 84.3744 93.394 84.3292C93.4388 84.3292 93.4612 84.284 93.506 84.284C93.5283 84.284 93.5507 84.2613 93.5731 84.2387C93.5731 84.2387 93.6179 84.2161 93.6403 84.1935C93.6403 84.1935 93.6627 84.1935 93.6851 84.1935C93.6851 84.1935 93.7299 84.2161 93.7522 84.2387C93.797 84.2387 93.8194 84.284 93.8642 84.284C93.8642 84.284 93.909 84.284 93.9314 84.3066C93.9762 84.3066 94.0209 84.3292 94.0657 84.3518C94.0657 84.3518 94.1105 84.3518 94.1329 84.3518C94.2001 84.3518 94.2672 84.3744 94.3344 84.397C94.7375 84.4422 95.1181 84.4874 95.5211 84.5326C95.6331 84.5326 95.7674 84.5552 95.8794 84.5778C96.1705 84.6004 96.4392 84.6456 96.7303 84.6682C96.8646 84.6682 96.9766 84.6909 97.1109 84.7135C97.4244 84.7361 97.7379 84.7587 98.0513 84.7813C98.1185 84.7813 98.2081 84.7813 98.2752 84.7813C98.6559 84.8039 99.0365 84.8265 99.4172 84.8491C99.5291 84.8491 99.6187 84.8491 99.7307 84.8491C100.022 84.8491 100.29 84.8717 100.582 84.8717C100.716 84.8717 100.828 84.8717 100.962 84.8717C101.231 84.8717 101.522 84.8717 101.791 84.8717C101.903 84.8717 101.992 84.8717 102.104 84.8717C102.149 84.8717 102.171 84.8717 102.216 84.8717C102.552 84.8717 102.888 84.8717 103.246 84.8717C103.291 84.8717 103.313 84.8717 103.358 84.8717C103.694 84.8717 104.03 84.8717 104.366 84.8491C104.41 84.8491 104.433 84.8491 104.478 84.8491C104.478 84.8943 104.5 84.9395 104.522 84.9847C104.522 85.0073 104.522 85.0525 104.545 85.0751C104.567 85.1656 104.612 85.2786 104.634 85.369C104.657 85.4594 104.701 85.5499 104.746 85.6629C104.746 85.6855 104.769 85.7307 104.791 85.7533C104.813 85.8211 104.858 85.8889 104.881 85.9568C104.881 85.9794 104.903 86.0246 104.925 86.0472C104.97 86.115 104.993 86.1828 105.037 86.2506C105.037 86.2732 105.06 86.2958 105.082 86.3184C105.127 86.4089 105.194 86.4993 105.239 86.5897C105.239 86.5897 105.239 86.6123 105.261 86.6349C105.306 86.7027 105.351 86.7706 105.396 86.8384C105.396 86.861 105.44 86.8836 105.463 86.9288C105.508 86.9966 105.552 87.0418 105.597 87.1096C105.597 87.1322 105.642 87.1549 105.664 87.1775C105.709 87.2453 105.776 87.3131 105.821 87.3809C105.821 87.3809 105.843 87.4035 105.866 87.4261C105.933 87.4939 106 87.5844 106.067 87.6522C106.067 87.6522 106.112 87.6974 106.134 87.6974C106.179 87.7426 106.246 87.8104 106.314 87.8556C106.336 87.8556 106.358 87.9008 106.381 87.9234C106.448 87.9687 106.493 88.0139 106.56 88.0591C106.582 88.0591 106.605 88.1043 106.627 88.1043C106.717 88.1721 106.784 88.2173 106.873 88.2851C104.724 90.5683 102.977 93.0549 101.723 95.7223C99.5515 100.266 99.5067 105.239 101.567 109.037C101.858 109.557 102.194 110.054 102.552 110.529C103.671 111.93 105.194 113.083 106.873 113.762C107.478 114.01 108.083 114.191 108.709 114.327C108.866 114.349 109.023 114.394 109.157 114.417C109.605 114.485 110.075 114.53 110.523 114.53C111.732 114.53 112.897 114.304 113.994 113.807C114.307 113.671 114.621 113.513 114.912 113.355C115.069 113.287 115.203 113.196 115.337 113.129C116.009 112.767 116.591 112.473 117.039 112.315C117.084 112.315 117.151 112.292 117.196 112.27C117.285 112.247 117.375 112.224 117.464 112.224C117.643 112.224 117.778 112.224 117.912 112.292C118.27 112.496 118.562 113.174 118.785 114.327C119.009 115.57 119.166 116.836 119.233 118.124C119.278 118.893 119.3 119.662 119.3 120.43C119.3 122.487 119.077 124.522 118.673 126.511C118.651 126.647 118.606 126.805 118.584 126.941C118.517 127.212 118.472 127.506 118.405 127.777C118.002 129.585 117.599 131.439 117.778 133.428C117.89 134.672 118.27 136.005 118.965 137.158C119.009 137.226 119.054 137.316 119.099 137.384C119.883 138.582 121.002 139.554 122.48 139.961C122.973 140.097 123.488 140.165 124.025 140.165C124.137 140.165 124.249 140.165 124.361 140.165C124.406 140.165 124.428 140.165 124.473 140.165C124.562 140.165 124.652 140.165 124.719 140.142C124.764 140.142 124.786 140.142 124.831 140.142C124.943 140.142 125.055 140.12 125.167 140.097C125.167 140.097 125.189 140.097 125.212 140.097C125.324 140.097 125.436 140.052 125.548 140.029C125.592 140.029 125.615 140.029 125.659 140.006C125.749 140.006 125.839 139.961 125.906 139.939C125.951 139.939 125.973 139.939 126.018 139.893C126.13 139.848 126.242 139.826 126.354 139.78C126.354 139.78 126.354 139.78 126.376 139.78C126.488 139.735 126.6 139.69 126.712 139.645C126.757 139.645 126.779 139.622 126.824 139.6C126.913 139.554 127.003 139.532 127.07 139.487C127.115 139.487 127.137 139.441 127.182 139.441C127.294 139.374 127.406 139.328 127.518 139.261C127.63 139.193 127.742 139.125 127.854 139.057C127.899 139.057 127.921 139.012 127.966 138.989C128.055 138.944 128.145 138.876 128.212 138.808C128.257 138.786 128.279 138.763 128.302 138.741C128.414 138.65 128.526 138.582 128.637 138.492C131.504 136.231 132.869 132.976 134.19 129.811C135.108 127.596 136.004 125.494 137.348 123.798C137.907 123.098 138.534 122.465 139.228 121.786C140.326 120.679 141.468 119.549 142.318 118.079C144.58 114.191 143.953 109.444 143.505 105.985C143.416 105.375 143.035 104.855 142.475 104.629C142.027 104.448 141.512 104.471 141.087 104.674C141.065 104.652 141.042 104.606 141.02 104.584C141.02 104.335 141.132 104.041 141.356 103.702C141.535 103.453 141.759 103.205 142.027 102.933C142.206 102.753 142.408 102.594 142.61 102.414C142.901 102.165 143.192 101.916 143.483 101.622C143.975 101.148 144.446 100.605 144.804 99.9496C145.073 99.4522 145.252 98.9323 145.408 98.4576C145.408 98.3898 145.453 98.322 145.476 98.2541C145.632 97.7568 145.789 97.2595 145.991 96.9882C146.013 96.943 146.058 96.9204 146.08 96.8978C146.416 96.6039 147.244 96.7622 147.782 97.2143C147.871 97.2821 147.961 97.3725 148.028 97.463C148.051 97.4856 148.073 97.5308 148.095 97.5534C148.14 97.6212 148.207 97.6664 148.252 97.7342C148.274 97.7794 148.319 97.8246 148.342 97.8473C148.386 97.9151 148.431 97.9603 148.476 98.0281C148.498 98.0733 148.543 98.1185 148.566 98.1637C148.61 98.2315 148.633 98.2994 148.677 98.3446C148.7 98.3898 148.722 98.4576 148.767 98.5028C148.812 98.5706 148.834 98.6384 148.879 98.7063C148.901 98.7515 148.924 98.8193 148.946 98.8645C148.969 98.9323 149.013 99.0001 149.036 99.0679C149.058 99.1358 149.081 99.181 149.103 99.2488C149.125 99.3166 149.17 99.3844 149.192 99.4748C149.215 99.5427 149.237 99.5879 149.26 99.6557C149.26 99.6783 149.282 99.7235 149.304 99.7461C149.506 101.6 149.596 103.521 149.596 105.42C149.596 134.694 125.995 158.52 96.9766 158.52L97.0213 158.588ZM64.823 117.22C64.823 116.587 64.7782 115.954 64.6439 115.299C64.5767 115.05 64.5095 114.779 64.4424 114.53C64.4424 114.485 64.3976 114.417 64.3752 114.372C65.5395 114.711 66.7487 114.824 67.8458 114.937C68.7862 115.027 69.6819 115.118 70.5103 115.321C70.779 115.389 71.0477 115.48 71.294 115.57C72.7718 116.158 74.0034 117.401 75.302 118.712C76.1081 119.526 76.9366 120.362 77.877 121.108C79.422 122.329 81.1461 123.165 82.8254 123.979C83.8778 124.499 84.863 124.974 85.8034 125.539C85.9378 125.629 86.0721 125.697 86.2065 125.788C88.1545 127.031 90.2592 129.337 89.8114 131.755C89.4532 133.722 87.4828 135.146 85.4228 136.638C83.0269 138.379 80.3176 140.323 79.6683 143.623C79.5339 144.347 79.5115 145.07 79.4892 145.703C79.4892 146.223 79.4668 146.72 79.3772 147.15C79.2652 147.783 78.907 148.19 78.7726 148.19C78.6607 148.19 78.2353 147.964 77.765 147.218C76.7798 145.635 76.2648 143.714 75.7051 141.702C74.9214 138.831 74.1153 135.847 71.8538 133.587C71.7419 133.474 71.6299 133.36 71.5179 133.27C70.7119 132.524 69.8386 131.959 69.0101 131.394C68.6743 131.168 68.3608 130.964 68.0473 130.738C67.7339 130.512 67.4428 130.309 67.1517 130.06C65.1141 128.342 63.9274 125.607 64.0841 122.917C64.1289 122.148 64.2632 121.357 64.42 120.498C64.5991 119.458 64.8006 118.35 64.8006 117.22H64.823Z" fill="white"/>
</g>
<defs>
<clipPath id="clip0_52_1082">
<rect width="112" height="135" fill="white" transform="translate(41 27)"/>
</clipPath>
</defs>
</svg>
