<svg width="513" height="486" viewBox="0 0 513 486" fill="none" xmlns="http://www.w3.org/2000/svg">
<rect x="45" y="99" width="86" height="27" rx="7" fill="#9BB7E0"/>
<rect x="196" y="99" width="86" height="27" rx="7" fill="#9BB7E0"/>
<rect x="347" y="99" width="86" height="27" rx="7" fill="#2A5F8F"/>
<path d="M211.563 106.372L214.641 105.31H215.685V118H214.281V106.786L211.905 107.524L211.563 106.372ZM225.412 105.31H226.654V113.824H228.616V115.012H226.654V118H225.286V115.012H218.644L218.284 113.986L225.412 105.31ZM225.286 113.824V107.326L219.994 113.824H225.286ZM237.308 106.678H231.152V105.4H239.198V106.444L235.238 110.836C235.79 110.884 236.318 110.986 236.822 111.142C237.326 111.298 237.764 111.52 238.136 111.808C238.52 112.096 238.826 112.456 239.054 112.888C239.282 113.32 239.396 113.824 239.396 114.4C239.396 114.964 239.282 115.48 239.054 115.948C238.838 116.416 238.538 116.818 238.154 117.154C237.782 117.49 237.338 117.754 236.822 117.946C236.318 118.126 235.772 118.216 235.184 118.216C234.128 118.216 233.21 118.012 232.43 117.604C231.65 117.184 231.002 116.638 230.486 115.966L231.512 115.048C232.004 115.648 232.544 116.11 233.132 116.434C233.732 116.758 234.422 116.92 235.202 116.92C235.586 116.92 235.946 116.866 236.282 116.758C236.618 116.638 236.906 116.47 237.146 116.254C237.398 116.038 237.596 115.78 237.74 115.48C237.884 115.168 237.956 114.826 237.956 114.454C237.956 113.662 237.626 113.056 236.966 112.636C236.318 112.216 235.472 112.006 234.428 112.006H233.618L233.33 111.16L237.308 106.678ZM243.667 118H242.011V116.11H243.667V118ZM255.441 114.58C255.441 115.12 255.321 115.612 255.081 116.056C254.841 116.5 254.505 116.878 254.073 117.19C253.653 117.502 253.155 117.748 252.579 117.928C252.003 118.096 251.379 118.18 250.707 118.18C250.035 118.18 249.411 118.096 248.835 117.928C248.259 117.748 247.755 117.502 247.323 117.19C246.903 116.878 246.573 116.5 246.333 116.056C246.093 115.612 245.973 115.126 245.973 114.598C245.973 113.842 246.213 113.206 246.693 112.69C247.185 112.162 247.809 111.76 248.565 111.484C248.277 111.352 248.001 111.196 247.737 111.016C247.473 110.824 247.239 110.614 247.035 110.386C246.843 110.146 246.687 109.876 246.567 109.576C246.459 109.276 246.405 108.94 246.405 108.568C246.405 108.076 246.519 107.626 246.747 107.218C246.987 106.81 247.299 106.456 247.683 106.156C248.079 105.856 248.535 105.628 249.051 105.472C249.579 105.304 250.131 105.22 250.707 105.22C251.283 105.22 251.829 105.304 252.345 105.472C252.873 105.628 253.329 105.856 253.713 106.156C254.109 106.456 254.421 106.81 254.649 107.218C254.889 107.626 255.009 108.076 255.009 108.568C255.009 108.94 254.949 109.276 254.829 109.576C254.721 109.876 254.565 110.146 254.361 110.386C254.169 110.614 253.941 110.824 253.677 111.016C253.413 111.196 253.137 111.352 252.849 111.484C253.605 111.76 254.223 112.156 254.703 112.672C255.195 113.188 255.441 113.824 255.441 114.58ZM253.587 108.658C253.587 108.346 253.515 108.058 253.371 107.794C253.227 107.518 253.023 107.284 252.759 107.092C252.507 106.888 252.201 106.732 251.841 106.624C251.493 106.516 251.115 106.462 250.707 106.462C250.299 106.462 249.915 106.516 249.555 106.624C249.207 106.732 248.901 106.888 248.637 107.092C248.385 107.284 248.187 107.512 248.043 107.776C247.899 108.04 247.827 108.334 247.827 108.658C247.827 109.006 247.899 109.324 248.043 109.612C248.199 109.888 248.403 110.128 248.655 110.332C248.919 110.536 249.225 110.698 249.573 110.818C249.933 110.926 250.311 110.98 250.707 110.98C251.103 110.98 251.475 110.926 251.823 110.818C252.183 110.698 252.489 110.536 252.741 110.332C253.005 110.128 253.209 109.888 253.353 109.612C253.509 109.324 253.587 109.006 253.587 108.658ZM254.001 114.562C254.001 114.202 253.911 113.878 253.731 113.59C253.563 113.29 253.329 113.038 253.029 112.834C252.741 112.618 252.393 112.45 251.985 112.33C251.589 112.21 251.163 112.15 250.707 112.15C250.251 112.15 249.819 112.21 249.411 112.33C249.015 112.45 248.667 112.618 248.367 112.834C248.067 113.038 247.833 113.29 247.665 113.59C247.497 113.878 247.413 114.202 247.413 114.562C247.413 114.886 247.485 115.192 247.629 115.48C247.785 115.768 248.001 116.02 248.277 116.236C248.565 116.452 248.913 116.626 249.321 116.758C249.729 116.878 250.191 116.938 250.707 116.938C251.223 116.938 251.685 116.878 252.093 116.758C252.501 116.626 252.843 116.452 253.119 116.236C253.407 116.02 253.623 115.768 253.767 115.48C253.923 115.192 254.001 114.886 254.001 114.562ZM266.835 111.376C266.835 112.384 266.709 113.308 266.457 114.148C266.205 114.976 265.845 115.696 265.377 116.308C264.921 116.908 264.369 117.376 263.721 117.712C263.085 118.048 262.377 118.216 261.597 118.216C260.769 118.216 260.049 118.072 259.437 117.784C258.825 117.484 258.249 117.112 257.709 116.668L258.537 115.57C259.053 116.026 259.557 116.368 260.049 116.596C260.541 116.812 261.069 116.92 261.633 116.92C262.197 116.92 262.713 116.782 263.181 116.506C263.649 116.23 264.045 115.852 264.369 115.372C264.705 114.88 264.957 114.298 265.125 113.626C265.305 112.942 265.389 112.198 265.377 111.394C265.029 111.946 264.567 112.42 263.991 112.816C263.415 113.212 262.689 113.41 261.813 113.41C261.165 113.41 260.571 113.314 260.031 113.122C259.491 112.93 259.029 112.66 258.645 112.312C258.261 111.964 257.961 111.55 257.745 111.07C257.529 110.59 257.421 110.062 257.421 109.486C257.421 108.886 257.529 108.328 257.745 107.812C257.973 107.284 258.285 106.828 258.681 106.444C259.077 106.048 259.551 105.742 260.103 105.526C260.667 105.298 261.285 105.184 261.957 105.184C262.677 105.184 263.307 105.298 263.847 105.526C264.387 105.754 264.861 106.072 265.269 106.48C265.521 106.732 265.743 107.008 265.935 107.308C266.127 107.608 266.289 107.956 266.421 108.352C266.553 108.736 266.655 109.18 266.727 109.684C266.799 110.176 266.835 110.74 266.835 111.376ZM265.107 109.324C265.107 108.916 265.029 108.538 264.873 108.19C264.717 107.842 264.495 107.542 264.207 107.29C263.931 107.026 263.595 106.822 263.199 106.678C262.803 106.522 262.371 106.444 261.903 106.444C261.435 106.444 261.009 106.528 260.625 106.696C260.253 106.852 259.935 107.068 259.671 107.344C259.419 107.608 259.221 107.92 259.077 108.28C258.945 108.64 258.879 109.018 258.879 109.414C258.879 109.822 258.951 110.194 259.095 110.53C259.251 110.866 259.461 111.16 259.725 111.412C260.001 111.652 260.331 111.844 260.715 111.988C261.099 112.12 261.519 112.186 261.975 112.186C262.455 112.186 262.887 112.108 263.271 111.952C263.667 111.784 263.997 111.568 264.261 111.304C264.537 111.04 264.747 110.734 264.891 110.386C265.035 110.038 265.107 109.684 265.107 109.324Z" fill="#151515"/>
<path d="M238.5 133L232.005 125.5L244.995 125.5L238.5 133Z" fill="#9BB7E0"/>
<path d="M239 223V139" stroke="black" stroke-dasharray="2 2"/>
<path d="M226 228C226 224.134 229.134 221 233 221H252V463H226L226 228Z" fill="#9BB7E0"/>
<path d="M61.9894 106.372L65.0674 105.31H66.1114V118H64.7074V106.786L62.3314 107.524L61.9894 106.372ZM77.9985 106.624L77.1705 107.722C76.7025 107.326 76.2345 107.02 75.7665 106.804C75.2985 106.588 74.7765 106.48 74.2005 106.48C73.6245 106.48 73.1085 106.618 72.6525 106.894C72.1965 107.17 71.8065 107.554 71.4825 108.046C71.1705 108.538 70.9305 109.126 70.7625 109.81C70.5945 110.482 70.5105 111.226 70.5105 112.042C70.6785 111.79 70.8705 111.55 71.0865 111.322C71.3145 111.082 71.5725 110.878 71.8605 110.71C72.1605 110.53 72.4905 110.386 72.8505 110.278C73.2225 110.17 73.6365 110.116 74.0925 110.116C74.6805 110.116 75.2385 110.206 75.7665 110.386C76.2945 110.566 76.7565 110.83 77.1525 111.178C77.5485 111.514 77.8605 111.922 78.0885 112.402C78.3285 112.882 78.4485 113.416 78.4485 114.004C78.4485 114.616 78.3285 115.18 78.0885 115.696C77.8605 116.212 77.5425 116.656 77.1345 117.028C76.7385 117.4 76.2645 117.694 75.7125 117.91C75.1605 118.114 74.5665 118.216 73.9305 118.216C73.2345 118.216 72.6045 118.102 72.0405 117.874C71.4885 117.646 71.0145 117.334 70.6185 116.938C70.3665 116.686 70.1385 116.41 69.9345 116.11C69.7425 115.81 69.5805 115.468 69.4485 115.084C69.3165 114.7 69.2145 114.262 69.1425 113.77C69.0705 113.266 69.0345 112.69 69.0345 112.042C69.0345 111.082 69.1485 110.188 69.3765 109.36C69.6165 108.52 69.9585 107.794 70.4025 107.182C70.8585 106.558 71.4105 106.072 72.0585 105.724C72.7065 105.364 73.4445 105.184 74.2725 105.184C75.0285 105.184 75.7005 105.31 76.2885 105.562C76.8765 105.814 77.4465 106.168 77.9985 106.624ZM76.9905 114.058C76.9905 113.662 76.9125 113.302 76.7565 112.978C76.6125 112.642 76.4025 112.354 76.1265 112.114C75.8625 111.874 75.5385 111.688 75.1545 111.556C74.7825 111.412 74.3685 111.34 73.9125 111.34C73.4445 111.34 73.0125 111.418 72.6165 111.574C72.2325 111.73 71.9025 111.94 71.6265 112.204C71.3505 112.456 71.1345 112.75 70.9785 113.086C70.8345 113.41 70.7625 113.752 70.7625 114.112C70.7625 114.52 70.8405 114.898 70.9965 115.246C71.1525 115.594 71.3685 115.894 71.6445 116.146C71.9325 116.398 72.2685 116.596 72.6525 116.74C73.0485 116.884 73.4805 116.956 73.9485 116.956C74.4165 116.956 74.8365 116.884 75.2085 116.74C75.5805 116.584 75.8985 116.38 76.1625 116.128C76.4265 115.864 76.6305 115.558 76.7745 115.21C76.9185 114.85 76.9905 114.466 76.9905 114.058ZM79.796 106.372L82.874 105.31H83.918V118H82.514V106.786L80.138 107.524L79.796 106.372ZM88.7852 118H87.1292V116.11H88.7852V118ZM100.559 114.58C100.559 115.12 100.439 115.612 100.199 116.056C99.9593 116.5 99.6233 116.878 99.1913 117.19C98.7713 117.502 98.2733 117.748 97.6973 117.928C97.1213 118.096 96.4973 118.18 95.8253 118.18C95.1533 118.18 94.5293 118.096 93.9533 117.928C93.3773 117.748 92.8733 117.502 92.4413 117.19C92.0213 116.878 91.6913 116.5 91.4513 116.056C91.2113 115.612 91.0913 115.126 91.0913 114.598C91.0913 113.842 91.3313 113.206 91.8113 112.69C92.3033 112.162 92.9273 111.76 93.6833 111.484C93.3953 111.352 93.1193 111.196 92.8553 111.016C92.5913 110.824 92.3573 110.614 92.1533 110.386C91.9613 110.146 91.8053 109.876 91.6853 109.576C91.5773 109.276 91.5233 108.94 91.5233 108.568C91.5233 108.076 91.6373 107.626 91.8653 107.218C92.1053 106.81 92.4173 106.456 92.8013 106.156C93.1973 105.856 93.6533 105.628 94.1693 105.472C94.6973 105.304 95.2493 105.22 95.8253 105.22C96.4013 105.22 96.9473 105.304 97.4633 105.472C97.9913 105.628 98.4473 105.856 98.8313 106.156C99.2273 106.456 99.5393 106.81 99.7673 107.218C100.007 107.626 100.127 108.076 100.127 108.568C100.127 108.94 100.067 109.276 99.9473 109.576C99.8393 109.876 99.6833 110.146 99.4793 110.386C99.2873 110.614 99.0593 110.824 98.7953 111.016C98.5313 111.196 98.2553 111.352 97.9673 111.484C98.7233 111.76 99.3413 112.156 99.8213 112.672C100.313 113.188 100.559 113.824 100.559 114.58ZM98.7053 108.658C98.7053 108.346 98.6333 108.058 98.4893 107.794C98.3453 107.518 98.1413 107.284 97.8773 107.092C97.6253 106.888 97.3193 106.732 96.9593 106.624C96.6113 106.516 96.2333 106.462 95.8253 106.462C95.4173 106.462 95.0333 106.516 94.6733 106.624C94.3253 106.732 94.0193 106.888 93.7553 107.092C93.5033 107.284 93.3053 107.512 93.1613 107.776C93.0173 108.04 92.9453 108.334 92.9453 108.658C92.9453 109.006 93.0173 109.324 93.1613 109.612C93.3173 109.888 93.5213 110.128 93.7733 110.332C94.0373 110.536 94.3433 110.698 94.6913 110.818C95.0513 110.926 95.4293 110.98 95.8253 110.98C96.2213 110.98 96.5933 110.926 96.9413 110.818C97.3013 110.698 97.6073 110.536 97.8593 110.332C98.1233 110.128 98.3273 109.888 98.4713 109.612C98.6273 109.324 98.7053 109.006 98.7053 108.658ZM99.1193 114.562C99.1193 114.202 99.0293 113.878 98.8493 113.59C98.6813 113.29 98.4473 113.038 98.1473 112.834C97.8593 112.618 97.5113 112.45 97.1033 112.33C96.7073 112.21 96.2813 112.15 95.8253 112.15C95.3693 112.15 94.9373 112.21 94.5293 112.33C94.1333 112.45 93.7853 112.618 93.4853 112.834C93.1853 113.038 92.9513 113.29 92.7833 113.59C92.6153 113.878 92.5313 114.202 92.5313 114.562C92.5313 114.886 92.6033 115.192 92.7473 115.48C92.9033 115.768 93.1193 116.02 93.3953 116.236C93.6833 116.452 94.0313 116.626 94.4393 116.758C94.8473 116.878 95.3093 116.938 95.8253 116.938C96.3413 116.938 96.8033 116.878 97.2113 116.758C97.6193 116.626 97.9613 116.452 98.2373 116.236C98.5253 116.02 98.7413 115.768 98.8853 115.48C99.0413 115.192 99.1193 114.886 99.1193 114.562ZM103.275 111.538L103.635 105.4H110.889V106.714H104.877L104.607 110.746C104.979 110.578 105.351 110.446 105.723 110.35C106.107 110.242 106.563 110.188 107.091 110.188C107.703 110.188 108.273 110.278 108.801 110.458C109.329 110.638 109.791 110.896 110.187 111.232C110.583 111.556 110.889 111.958 111.105 112.438C111.333 112.918 111.447 113.458 111.447 114.058C111.447 114.682 111.333 115.252 111.105 115.768C110.889 116.272 110.583 116.71 110.187 117.082C109.791 117.442 109.317 117.724 108.765 117.928C108.213 118.12 107.607 118.216 106.947 118.216C106.047 118.216 105.213 118.03 104.445 117.658C103.689 117.274 103.023 116.794 102.447 116.218L103.383 115.192C103.935 115.732 104.505 116.158 105.093 116.47C105.693 116.77 106.317 116.92 106.965 116.92C107.409 116.92 107.817 116.854 108.189 116.722C108.573 116.578 108.897 116.38 109.161 116.128C109.425 115.876 109.629 115.582 109.773 115.246C109.929 114.898 110.007 114.52 110.007 114.112C110.007 113.716 109.929 113.356 109.773 113.032C109.629 112.708 109.419 112.432 109.143 112.204C108.867 111.964 108.537 111.778 108.153 111.646C107.769 111.514 107.343 111.448 106.875 111.448C106.335 111.448 105.849 111.52 105.417 111.664C104.997 111.796 104.601 111.964 104.229 112.168L103.275 111.538Z" fill="#151515"/>
<path d="M87.5 133L81.0048 125.5L93.9952 125.5L87.5 133Z" fill="#9BB7E0"/>
<path d="M88 194V139" stroke="black" stroke-dasharray="2 2"/>
<path d="M75 198C75 194.134 78.134 191 82 191H101V463H75V198Z" fill="#9BB7E0"/>
<path d="M78.9992 471.8V472.968H72.2152V476.968H78.2792V478.12H72.2152V483H70.9512V471.8H78.9992ZM86.2352 478.552V483H84.9552V478.568L80.2992 471.8H81.8352L85.6112 477.4L89.4192 471.8H90.8912L86.2352 478.552ZM96.2323 472.776C95.5923 472.776 95.043 472.941 94.5843 473.272C94.1256 473.592 93.6723 474.067 93.2243 474.696L92.2963 474.024C92.5523 473.651 92.8136 473.315 93.0803 473.016C93.347 472.717 93.635 472.467 93.9443 472.264C94.2643 472.061 94.6163 471.907 95.0003 471.8C95.395 471.693 95.8376 471.64 96.3283 471.64C96.8403 471.64 97.3043 471.72 97.7203 471.88C98.147 472.04 98.515 472.264 98.8243 472.552C99.1336 472.829 99.3736 473.165 99.5443 473.56C99.715 473.944 99.8003 474.365 99.8003 474.824C99.8003 475.24 99.7416 475.619 99.6243 475.96C99.5176 476.301 99.347 476.643 99.1123 476.984C98.8776 477.315 98.5843 477.661 98.2323 478.024C97.8803 478.376 97.459 478.765 96.9683 479.192L93.9763 481.848H99.9123V483H92.0883V482.024L96.1523 478.44C96.579 478.056 96.9416 477.709 97.2403 477.4C97.539 477.091 97.779 476.803 97.9603 476.536C98.1523 476.259 98.2856 475.992 98.3603 475.736C98.4456 475.469 98.4883 475.197 98.4883 474.92C98.4883 474.589 98.4243 474.296 98.2963 474.04C98.179 473.773 98.019 473.549 97.8163 473.368C97.6136 473.176 97.3736 473.032 97.0963 472.936C96.819 472.829 96.531 472.776 96.2323 472.776ZM101.346 472.664L104.082 471.72H105.01V483H103.762V473.032L101.65 473.688L101.346 472.664Z" fill="black"/>
<path d="M228.077 471.8V472.968H221.293V476.968H227.357V478.12H221.293V483H220.029V471.8H228.077ZM235.313 478.552V483H234.033V478.568L229.377 471.8H230.913L234.689 477.4L238.497 471.8H239.969L235.313 478.552ZM245.31 472.776C244.67 472.776 244.121 472.941 243.662 473.272C243.204 473.592 242.75 474.067 242.302 474.696L241.374 474.024C241.63 473.651 241.892 473.315 242.158 473.016C242.425 472.717 242.713 472.467 243.022 472.264C243.342 472.061 243.694 471.907 244.078 471.8C244.473 471.693 244.916 471.64 245.406 471.64C245.918 471.64 246.382 471.72 246.798 471.88C247.225 472.04 247.593 472.264 247.902 472.552C248.212 472.829 248.452 473.165 248.622 473.56C248.793 473.944 248.878 474.365 248.878 474.824C248.878 475.24 248.82 475.619 248.702 475.96C248.596 476.301 248.425 476.643 248.19 476.984C247.956 477.315 247.662 477.661 247.31 478.024C246.958 478.376 246.537 478.765 246.046 479.192L243.054 481.848H248.99V483H241.166V482.024L245.23 478.44C245.657 478.056 246.02 477.709 246.318 477.4C246.617 477.091 246.857 476.803 247.038 476.536C247.23 476.259 247.364 475.992 247.438 475.736C247.524 475.469 247.566 475.197 247.566 474.92C247.566 474.589 247.502 474.296 247.374 474.04C247.257 473.773 247.097 473.549 246.894 473.368C246.692 473.176 246.452 473.032 246.174 472.936C245.897 472.829 245.609 472.776 245.31 472.776ZM254.889 472.776C254.249 472.776 253.699 472.941 253.241 473.272C252.782 473.592 252.329 474.067 251.881 474.696L250.953 474.024C251.209 473.651 251.47 473.315 251.737 473.016C252.003 472.717 252.291 472.467 252.601 472.264C252.921 472.061 253.273 471.907 253.657 471.8C254.051 471.693 254.494 471.64 254.985 471.64C255.497 471.64 255.961 471.72 256.377 471.88C256.803 472.04 257.171 472.264 257.481 472.552C257.79 472.829 258.03 473.165 258.201 473.56C258.371 473.944 258.457 474.365 258.457 474.824C258.457 475.24 258.398 475.619 258.281 475.96C258.174 476.301 258.003 476.643 257.769 476.984C257.534 477.315 257.241 477.661 256.889 478.024C256.537 478.376 256.115 478.765 255.625 479.192L252.633 481.848H258.569V483H250.745V482.024L254.809 478.44C255.235 478.056 255.598 477.709 255.897 477.4C256.195 477.091 256.435 476.803 256.617 476.536C256.809 476.259 256.942 475.992 257.017 475.736C257.102 475.469 257.145 475.197 257.145 474.92C257.145 474.589 257.081 474.296 256.953 474.04C256.835 473.773 256.675 473.549 256.473 473.368C256.27 473.176 256.03 473.032 255.753 472.936C255.475 472.829 255.187 472.776 254.889 472.776Z" fill="black"/>
<path d="M367.704 106.39L371.088 105.31H372.636V118H370.44V107.56L368.172 108.19L367.704 106.39ZM381.303 107.326H375.849V105.4H384.183V107.056L380.673 110.656C381.153 110.716 381.615 110.83 382.059 110.998C382.515 111.154 382.911 111.376 383.247 111.664C383.595 111.94 383.871 112.288 384.075 112.708C384.279 113.128 384.381 113.632 384.381 114.22C384.381 114.808 384.273 115.348 384.057 115.84C383.841 116.32 383.541 116.74 383.157 117.1C382.773 117.448 382.305 117.724 381.753 117.928C381.213 118.12 380.619 118.216 379.971 118.216C378.867 118.216 377.919 118.012 377.127 117.604C376.347 117.184 375.687 116.65 375.147 116.002L376.695 114.562C377.151 115.102 377.637 115.516 378.153 115.804C378.681 116.08 379.299 116.218 380.007 116.218C380.631 116.218 381.147 116.044 381.555 115.696C381.975 115.348 382.185 114.88 382.185 114.292C382.185 113.656 381.927 113.17 381.411 112.834C380.895 112.498 380.187 112.33 379.287 112.33H378.261L377.901 110.944L381.303 107.326ZM395.778 106.588L394.59 108.298C394.146 107.95 393.714 107.68 393.294 107.488C392.886 107.296 392.406 107.2 391.854 107.2C391.386 107.2 390.966 107.302 390.594 107.506C390.234 107.698 389.928 107.974 389.676 108.334C389.424 108.694 389.226 109.12 389.082 109.612C388.938 110.092 388.854 110.62 388.83 111.196C388.998 111.04 389.178 110.884 389.37 110.728C389.562 110.572 389.778 110.44 390.018 110.332C390.27 110.212 390.54 110.116 390.828 110.044C391.128 109.972 391.464 109.936 391.836 109.936C392.448 109.936 393.018 110.026 393.546 110.206C394.086 110.374 394.554 110.632 394.95 110.98C395.358 111.316 395.676 111.73 395.904 112.222C396.132 112.714 396.246 113.278 396.246 113.914C396.246 114.55 396.126 115.132 395.886 115.66C395.646 116.188 395.316 116.644 394.896 117.028C394.476 117.4 393.978 117.694 393.402 117.91C392.838 118.114 392.226 118.216 391.566 118.216C390.786 118.216 390.108 118.102 389.532 117.874C388.968 117.646 388.476 117.322 388.056 116.902C387.816 116.662 387.6 116.398 387.408 116.11C387.216 115.81 387.054 115.468 386.922 115.084C386.79 114.688 386.688 114.244 386.616 113.752C386.556 113.26 386.526 112.696 386.526 112.06C386.526 111.088 386.64 110.188 386.868 109.36C387.096 108.52 387.432 107.794 387.876 107.182C388.332 106.558 388.896 106.072 389.568 105.724C390.252 105.364 391.038 105.184 391.926 105.184C392.742 105.184 393.45 105.31 394.05 105.562C394.65 105.802 395.226 106.144 395.778 106.588ZM394.032 114.004C394.032 113.356 393.798 112.828 393.33 112.42C392.874 112 392.25 111.79 391.458 111.79C391.062 111.79 390.708 111.85 390.396 111.97C390.084 112.09 389.814 112.252 389.586 112.456C389.37 112.648 389.202 112.882 389.082 113.158C388.962 113.434 388.902 113.722 388.902 114.022C388.902 114.682 389.136 115.228 389.604 115.66C390.084 116.092 390.72 116.308 391.512 116.308C392.304 116.308 392.922 116.092 393.366 115.66C393.81 115.216 394.032 114.664 394.032 114.004ZM400.931 118H398.537V115.534H400.931V118ZM403.019 107.344V105.4H411.875V107.074L406.187 118H403.703L409.355 107.344H403.019Z" fill="white"/>
<path d="M389.5 133L383.005 125.5L395.995 125.5L389.5 133Z" fill="#2A5F8F"/>
<path d="M390 232V139" stroke="black" stroke-dasharray="2 2"/>
<path d="M377 237C377 233.134 380.134 230 384 230H403V463H377V237Z" fill="#2A5F8F"/>
<path d="M378.96 471.8V472.968H372.176V476.968H378.24V478.12H372.176V483H370.912V471.8H378.96ZM386.196 478.552V483H384.916V478.568L380.26 471.8H381.796L385.572 477.4L389.38 471.8H390.852L386.196 478.552ZM396.193 472.776C395.553 472.776 395.004 472.941 394.545 473.272C394.087 473.592 393.633 474.067 393.185 474.696L392.257 474.024C392.513 473.651 392.775 473.315 393.041 473.016C393.308 472.717 393.596 472.467 393.905 472.264C394.225 472.061 394.577 471.907 394.961 471.8C395.356 471.693 395.799 471.64 396.289 471.64C396.801 471.64 397.265 471.72 397.681 471.88C398.108 472.04 398.476 472.264 398.785 472.552C399.095 472.829 399.335 473.165 399.505 473.56C399.676 473.944 399.761 474.365 399.761 474.824C399.761 475.24 399.703 475.619 399.585 475.96C399.479 476.301 399.308 476.643 399.073 476.984C398.839 477.315 398.545 477.661 398.193 478.024C397.841 478.376 397.42 478.765 396.929 479.192L393.937 481.848H399.873V483H392.049V482.024L396.113 478.44C396.54 478.056 396.903 477.709 397.201 477.4C397.5 477.091 397.74 476.803 397.921 476.536C398.113 476.259 398.247 475.992 398.321 475.736C398.407 475.469 398.449 475.197 398.449 474.92C398.449 474.589 398.385 474.296 398.257 474.04C398.14 473.773 397.98 473.549 397.777 473.368C397.575 473.176 397.335 473.032 397.057 472.936C396.78 472.829 396.492 472.776 396.193 472.776ZM407.723 472.936H402.251V471.8H409.403V472.728L405.883 476.632C406.374 476.675 406.843 476.765 407.291 476.904C407.739 477.043 408.129 477.24 408.459 477.496C408.801 477.752 409.073 478.072 409.275 478.456C409.478 478.84 409.579 479.288 409.579 479.8C409.579 480.301 409.478 480.76 409.275 481.176C409.083 481.592 408.817 481.949 408.475 482.248C408.145 482.547 407.75 482.781 407.291 482.952C406.843 483.112 406.358 483.192 405.835 483.192C404.897 483.192 404.081 483.011 403.387 482.648C402.694 482.275 402.118 481.789 401.659 481.192L402.571 480.376C403.009 480.909 403.489 481.32 404.011 481.608C404.545 481.896 405.158 482.04 405.851 482.04C406.193 482.04 406.513 481.992 406.811 481.896C407.11 481.789 407.366 481.64 407.579 481.448C407.803 481.256 407.979 481.027 408.107 480.76C408.235 480.483 408.299 480.179 408.299 479.848C408.299 479.144 408.006 478.605 407.419 478.232C406.843 477.859 406.091 477.672 405.163 477.672H404.443L404.187 476.92L407.723 472.936Z" fill="black"/>
<path d="M0 463H478" stroke="#B1B3B6"/>
<path d="M0 54L478 54" stroke="#B1B3B6"/>
<path d="M14.58 11C14.58 11.9867 14.4 12.9067 14.04 13.76C13.68 14.6133 13.1667 15.3533 12.5 15.98C11.8467 16.6067 11.06 17.1 10.14 17.46C9.23333 17.82 8.23333 18 7.14 18H1.68V4H7.14C8.23333 4 9.23333 4.18 10.14 4.54C11.06 4.88667 11.8467 5.37333 12.5 6C13.1667 6.62667 13.68 7.36667 14.04 8.22C14.4 9.06 14.58 9.97333 14.58 10.96V11ZM11.36 11.04V11C11.36 10.3867 11.2533 9.82 11.04 9.3C10.84 8.78 10.5533 8.33333 10.18 7.96C9.82 7.58667 9.38 7.3 8.86 7.1C8.34 6.88667 7.76667 6.78 7.14 6.78H4.76V15.22H7.14C7.76667 15.22 8.34 15.12 8.86 14.92C9.38 14.72 9.82 14.4333 10.18 14.06C10.5533 13.6867 10.84 13.2467 11.04 12.74C11.2533 12.2333 11.36 11.6667 11.36 11.04ZM22.5445 18H19.4645V4H22.5445V18ZM40.1433 18H36.5433L33.5433 13.52H31.1233V18H28.0433V4H34.4433C36.1099 4 37.4033 4.40667 38.3233 5.22C39.2566 6.03333 39.7233 7.16667 39.7233 8.62V8.66C39.7233 9.79333 39.4433 10.72 38.8833 11.44C38.3366 12.1467 37.6166 12.6667 36.7233 13L40.1433 18ZM36.6033 8.82V8.78C36.6033 8.11333 36.3899 7.61333 35.9633 7.28C35.5366 6.94667 34.9433 6.78 34.1833 6.78H31.1233V10.8H34.2433C35.0033 10.8 35.5833 10.62 35.9833 10.26C36.3966 9.9 36.6033 9.42 36.6033 8.82ZM55.1564 18H44.4964V4H55.0564V6.74H47.5564V9.58H54.1564V12.32H47.5564V15.26H55.1564V18ZM72.1948 15.74C71.8348 16.1267 71.4615 16.4733 71.0748 16.78C70.6882 17.0867 70.2615 17.3533 69.7948 17.58C69.3415 17.7933 68.8415 17.9533 68.2948 18.06C67.7482 18.18 67.1348 18.24 66.4548 18.24C65.4282 18.24 64.4748 18.0533 63.5948 17.68C62.7148 17.3067 61.9548 16.8 61.3148 16.16C60.6748 15.5067 60.1748 14.74 59.8148 13.86C59.4548 12.98 59.2748 12.04 59.2748 11.04V11C59.2748 10 59.4548 9.06667 59.8148 8.2C60.1748 7.32 60.6748 6.55333 61.3148 5.9C61.9548 5.23333 62.7215 4.71333 63.6148 4.34C64.5082 3.95333 65.4948 3.76 66.5748 3.76C67.2282 3.76 67.8215 3.81333 68.3548 3.92C68.9015 4.02667 69.3948 4.17333 69.8348 4.36C70.2748 4.54667 70.6815 4.77333 71.0548 5.04C71.4282 5.30667 71.7748 5.6 72.0948 5.92L70.1348 8.18C69.5882 7.68667 69.0282 7.3 68.4548 7.02C67.8948 6.74 67.2615 6.6 66.5548 6.6C65.9682 6.6 65.4215 6.71333 64.9148 6.94C64.4215 7.16667 63.9948 7.48 63.6348 7.88C63.2748 8.28 62.9948 8.74667 62.7948 9.28C62.5948 9.8 62.4948 10.36 62.4948 10.96V11C62.4948 11.6 62.5948 12.1667 62.7948 12.7C62.9948 13.2333 63.2682 13.7 63.6148 14.1C63.9748 14.5 64.4015 14.82 64.8948 15.06C65.4015 15.2867 65.9548 15.4 66.5548 15.4C67.3548 15.4 68.0282 15.2533 68.5748 14.96C69.1348 14.6667 69.6882 14.2667 70.2348 13.76L72.1948 15.74ZM87.2605 6.84H83.0005V18H79.9205V6.84H75.6605V4H87.2605V6.84ZM110.285 18H99.6253V4H110.185V6.74H102.685V9.58H109.285V12.32H102.685V15.26H110.285V18ZM127.324 15.74C126.964 16.1267 126.59 16.4733 126.204 16.78C125.817 17.0867 125.39 17.3533 124.924 17.58C124.47 17.7933 123.97 17.9533 123.424 18.06C122.877 18.18 122.264 18.24 121.584 18.24C120.557 18.24 119.604 18.0533 118.724 17.68C117.844 17.3067 117.084 16.8 116.444 16.16C115.804 15.5067 115.304 14.74 114.944 13.86C114.584 12.98 114.404 12.04 114.404 11.04V11C114.404 10 114.584 9.06667 114.944 8.2C115.304 7.32 115.804 6.55333 116.444 5.9C117.084 5.23333 117.85 4.71333 118.744 4.34C119.637 3.95333 120.624 3.76 121.704 3.76C122.357 3.76 122.95 3.81333 123.484 3.92C124.03 4.02667 124.524 4.17333 124.964 4.36C125.404 4.54667 125.81 4.77333 126.184 5.04C126.557 5.30667 126.904 5.6 127.224 5.92L125.264 8.18C124.717 7.68667 124.157 7.3 123.584 7.02C123.024 6.74 122.39 6.6 121.684 6.6C121.097 6.6 120.55 6.71333 120.044 6.94C119.55 7.16667 119.124 7.48 118.764 7.88C118.404 8.28 118.124 8.74667 117.924 9.28C117.724 9.8 117.624 10.36 117.624 10.96V11C117.624 11.6 117.724 12.1667 117.924 12.7C118.124 13.2333 118.397 13.7 118.744 14.1C119.104 14.5 119.53 14.82 120.024 15.06C120.53 15.2867 121.084 15.4 121.684 15.4C122.484 15.4 123.157 15.2533 123.704 14.96C124.264 14.6667 124.817 14.2667 125.364 13.76L127.324 15.74ZM146.049 11C146.049 12 145.863 12.94 145.489 13.82C145.116 14.6867 144.596 15.4533 143.929 16.12C143.276 16.7733 142.489 17.2933 141.569 17.68C140.663 18.0533 139.669 18.24 138.589 18.24C137.509 18.24 136.516 18.0533 135.609 17.68C134.703 17.2933 133.916 16.78 133.249 16.14C132.596 15.4867 132.083 14.7267 131.709 13.86C131.349 12.98 131.169 12.04 131.169 11.04V11C131.169 10 131.356 9.06667 131.729 8.2C132.103 7.32 132.616 6.55333 133.269 5.9C133.936 5.23333 134.723 4.71333 135.629 4.34C136.549 3.95333 137.549 3.76 138.629 3.76C139.709 3.76 140.703 3.95333 141.609 4.34C142.516 4.71333 143.296 5.22667 143.949 5.88C144.616 6.52 145.129 7.28 145.489 8.16C145.863 9.02667 146.049 9.96 146.049 10.96V11ZM142.829 11.04V11C142.829 10.4 142.723 9.83333 142.509 9.3C142.309 8.76667 142.016 8.3 141.629 7.9C141.256 7.5 140.809 7.18667 140.289 6.96C139.769 6.72 139.203 6.6 138.589 6.6C137.963 6.6 137.389 6.71333 136.869 6.94C136.363 7.16667 135.923 7.48 135.549 7.88C135.189 8.28 134.903 8.74667 134.689 9.28C134.489 9.8 134.389 10.36 134.389 10.96V11C134.389 11.6 134.489 12.1667 134.689 12.7C134.903 13.2333 135.196 13.7 135.569 14.1C135.956 14.5 136.403 14.82 136.909 15.06C137.429 15.2867 138.003 15.4 138.629 15.4C139.243 15.4 139.809 15.2867 140.329 15.06C140.849 14.8333 141.289 14.52 141.649 14.12C142.023 13.72 142.309 13.26 142.509 12.74C142.723 12.2067 142.829 11.64 142.829 11.04ZM163.222 18H160.602L153.822 9.1V18H150.782V4H153.622L160.182 12.62V4H163.222V18ZM182.842 11C182.842 12 182.656 12.94 182.282 13.82C181.909 14.6867 181.389 15.4533 180.722 16.12C180.069 16.7733 179.282 17.2933 178.362 17.68C177.456 18.0533 176.462 18.24 175.382 18.24C174.302 18.24 173.309 18.0533 172.402 17.68C171.496 17.2933 170.709 16.78 170.042 16.14C169.389 15.4867 168.876 14.7267 168.502 13.86C168.142 12.98 167.962 12.04 167.962 11.04V11C167.962 10 168.149 9.06667 168.522 8.2C168.896 7.32 169.409 6.55333 170.062 5.9C170.729 5.23333 171.516 4.71333 172.422 4.34C173.342 3.95333 174.342 3.76 175.422 3.76C176.502 3.76 177.496 3.95333 178.402 4.34C179.309 4.71333 180.089 5.22667 180.742 5.88C181.409 6.52 181.922 7.28 182.282 8.16C182.656 9.02667 182.842 9.96 182.842 10.96V11ZM179.622 11.04V11C179.622 10.4 179.516 9.83333 179.302 9.3C179.102 8.76667 178.809 8.3 178.422 7.9C178.049 7.5 177.602 7.18667 177.082 6.96C176.562 6.72 175.996 6.6 175.382 6.6C174.756 6.6 174.182 6.71333 173.662 6.94C173.156 7.16667 172.716 7.48 172.342 7.88C171.982 8.28 171.696 8.74667 171.482 9.28C171.282 9.8 171.182 10.36 171.182 10.96V11C171.182 11.6 171.282 12.1667 171.482 12.7C171.696 13.2333 171.989 13.7 172.362 14.1C172.749 14.5 173.196 14.82 173.702 15.06C174.222 15.2867 174.796 15.4 175.422 15.4C176.036 15.4 176.602 15.2867 177.122 15.06C177.642 14.8333 178.082 14.52 178.442 14.12C178.816 13.72 179.102 13.26 179.302 12.74C179.516 12.2067 179.622 11.64 179.622 11.04ZM201.575 18H198.515V8.86L194.575 14.84H194.495L190.595 8.92V18H187.575V4H190.895L194.575 9.92L198.255 4H201.575V18ZM210.158 18H207.078V4H210.158V18ZM227.957 15.74C227.597 16.1267 227.223 16.4733 226.837 16.78C226.45 17.0867 226.023 17.3533 225.557 17.58C225.103 17.7933 224.603 17.9533 224.057 18.06C223.51 18.18 222.897 18.24 222.217 18.24C221.19 18.24 220.237 18.0533 219.357 17.68C218.477 17.3067 217.717 16.8 217.077 16.16C216.437 15.5067 215.937 14.74 215.577 13.86C215.217 12.98 215.037 12.04 215.037 11.04V11C215.037 10 215.217 9.06667 215.577 8.2C215.937 7.32 216.437 6.55333 217.077 5.9C217.717 5.23333 218.483 4.71333 219.377 4.34C220.27 3.95333 221.257 3.76 222.337 3.76C222.99 3.76 223.583 3.81333 224.117 3.92C224.663 4.02667 225.157 4.17333 225.597 4.36C226.037 4.54667 226.443 4.77333 226.817 5.04C227.19 5.30667 227.537 5.6 227.857 5.92L225.897 8.18C225.35 7.68667 224.79 7.3 224.217 7.02C223.657 6.74 223.023 6.6 222.317 6.6C221.73 6.6 221.183 6.71333 220.677 6.94C220.183 7.16667 219.757 7.48 219.397 7.88C219.037 8.28 218.757 8.74667 218.557 9.28C218.357 9.8 218.257 10.36 218.257 10.96V11C218.257 11.6 218.357 12.1667 218.557 12.7C218.757 13.2333 219.03 13.7 219.377 14.1C219.737 14.5 220.163 14.82 220.657 15.06C221.163 15.2867 221.717 15.4 222.317 15.4C223.117 15.4 223.79 15.2533 224.337 14.96C224.897 14.6667 225.45 14.2667 225.997 13.76L227.957 15.74ZM253.258 4L247.598 18.1H244.878L239.218 4H242.618L246.278 13.86L249.938 4H253.258ZM271.058 18H267.838L266.558 14.86H260.638L259.358 18H256.218L262.218 3.9H265.058L271.058 18ZM265.458 12.14L263.598 7.6L261.738 12.14H265.458ZM285.279 18H275.219V4H278.299V15.2H285.279V18ZM301.582 11.9C301.582 12.9667 301.435 13.8933 301.142 14.68C300.862 15.4667 300.455 16.1267 299.922 16.66C299.389 17.18 298.742 17.5733 297.982 17.84C297.222 18.0933 296.375 18.22 295.442 18.22C293.562 18.22 292.082 17.7 291.002 16.66C289.922 15.62 289.382 14.0667 289.382 12V4H292.462V11.92C292.462 13.0667 292.729 13.9333 293.262 14.52C293.795 15.0933 294.535 15.38 295.482 15.38C296.429 15.38 297.169 15.1 297.702 14.54C298.235 13.98 298.502 13.14 298.502 12.02V4H301.582V11.9ZM317.379 18H306.719V4H317.279V6.74H309.779V9.58H316.379V12.32H309.779V15.26H317.379V18ZM342.214 18H338.614L335.614 13.52H333.194V18H330.114V4H336.514C338.18 4 339.474 4.40667 340.394 5.22C341.327 6.03333 341.794 7.16667 341.794 8.62V8.66C341.794 9.79333 341.514 10.72 340.954 11.44C340.407 12.1467 339.687 12.6667 338.794 13L342.214 18ZM338.674 8.82V8.78C338.674 8.11333 338.46 7.61333 338.034 7.28C337.607 6.94667 337.014 6.78 336.254 6.78H333.194V10.8H336.314C337.074 10.8 337.654 10.62 338.054 10.26C338.467 9.9 338.674 9.42 338.674 8.82ZM357.227 18H346.567V4H357.127V6.74H349.627V9.58H356.227V12.32H349.627V15.26H357.227V18ZM372.565 6.84H368.305V18H365.225V6.84H360.965V4H372.565V6.84ZM390.574 18H387.354L386.074 14.86H380.154L378.874 18H375.734L381.734 3.9H384.574L390.574 18ZM384.974 12.14L383.114 7.6L381.254 12.14H384.974ZM397.955 18H394.875V4H397.955V18ZM415.893 18H413.273L406.493 9.1V18H403.453V4H406.293L412.853 12.62V4H415.893V18ZM431.914 18H421.254V4H431.814V6.74H424.314V9.58H430.914V12.32H424.314V15.26H431.914V18ZM449.553 11C449.553 11.9867 449.373 12.9067 449.013 13.76C448.653 14.6133 448.139 15.3533 447.473 15.98C446.819 16.6067 446.033 17.1 445.113 17.46C444.206 17.82 443.206 18 442.113 18H436.653V4H442.113C443.206 4 444.206 4.18 445.113 4.54C446.033 4.88667 446.819 5.37333 447.473 6C448.139 6.62667 448.653 7.36667 449.013 8.22C449.373 9.06 449.553 9.97333 449.553 10.96V11ZM446.333 11.04V11C446.333 10.3867 446.226 9.82 446.013 9.3C445.813 8.78 445.526 8.33333 445.153 7.96C444.793 7.58667 444.353 7.3 443.833 7.1C443.313 6.88667 442.739 6.78 442.113 6.78H439.733V15.22H442.113C442.739 15.22 443.313 15.12 443.833 14.92C444.353 14.72 444.793 14.4333 445.153 14.06C445.526 13.6867 445.813 13.2467 446.013 12.74C446.226 12.2333 446.333 11.6667 446.333 11.04Z" fill="#2A5F8F"/>
<path d="M6.804 30.048C5.424 30.924 4.38 31.914 3.672 33.018C2.976 34.11 2.628 35.382 2.628 36.834C2.628 38.286 2.976 39.564 3.672 40.668C4.38 41.76 5.424 42.744 6.804 43.62L6.21 44.538C4.602 43.638 3.366 42.546 2.502 41.262C1.65 39.978 1.224 38.502 1.224 36.834C1.224 35.166 1.65 33.69 2.502 32.406C3.366 31.122 4.602 30.03 6.21 29.13L6.804 30.048ZM19.8827 29.4V36.618C19.8827 37.542 19.7567 38.352 19.5047 39.048C19.2527 39.744 18.8927 40.326 18.4247 40.794C17.9687 41.262 17.4167 41.616 16.7687 41.856C16.1327 42.084 15.4187 42.198 14.6267 42.198C13.8467 42.198 13.1327 42.084 12.4847 41.856C11.8487 41.616 11.2967 41.268 10.8287 40.812C10.3727 40.344 10.0187 39.768 9.76669 39.084C9.51469 38.4 9.38869 37.614 9.38869 36.726V29.4H10.8107V36.636C10.8107 38.004 11.1467 39.054 11.8187 39.786C12.5027 40.518 13.4507 40.884 14.6627 40.884C15.8267 40.884 16.7507 40.536 17.4347 39.84C18.1187 39.144 18.4607 38.106 18.4607 36.726V29.4H19.8827ZM24.3429 32.55C24.3429 32.85 24.3909 33.12 24.4869 33.36C24.5829 33.6 24.7569 33.822 25.0089 34.026C25.2609 34.218 25.6089 34.398 26.0529 34.566C26.4969 34.722 27.0669 34.872 27.7629 35.016C29.1669 35.328 30.1989 35.76 30.8589 36.312C31.5309 36.864 31.8669 37.626 31.8669 38.598C31.8669 39.138 31.7589 39.63 31.5429 40.074C31.3269 40.518 31.0269 40.896 30.6429 41.208C30.2709 41.52 29.8209 41.76 29.2929 41.928C28.7649 42.096 28.1889 42.18 27.5649 42.18C26.5569 42.18 25.6329 42.018 24.7929 41.694C23.9649 41.358 23.1729 40.848 22.4169 40.164L23.2989 39.12C23.9589 39.72 24.6249 40.17 25.2969 40.47C25.9689 40.758 26.7429 40.902 27.6189 40.902C28.4709 40.902 29.1489 40.704 29.6529 40.308C30.1689 39.912 30.4269 39.39 30.4269 38.742C30.4269 38.442 30.3789 38.178 30.2829 37.95C30.1869 37.71 30.0189 37.494 29.7789 37.302C29.5389 37.11 29.2029 36.936 28.7709 36.78C28.3509 36.624 27.8109 36.474 27.1509 36.33C26.4309 36.174 25.8009 35.994 25.2609 35.79C24.7329 35.586 24.2949 35.34 23.9469 35.052C23.5989 34.764 23.3409 34.428 23.1729 34.044C23.0049 33.66 22.9209 33.204 22.9209 32.676C22.9209 32.172 23.0229 31.71 23.2269 31.29C23.4309 30.87 23.7189 30.51 24.0909 30.21C24.4629 29.898 24.9009 29.658 25.4049 29.49C25.9089 29.31 26.4609 29.22 27.0609 29.22C27.9849 29.22 28.7889 29.352 29.4729 29.616C30.1689 29.868 30.8409 30.252 31.4889 30.768L30.6609 31.866C30.0729 31.386 29.4789 31.038 28.8789 30.822C28.2909 30.606 27.6729 30.498 27.0249 30.498C26.6169 30.498 26.2449 30.552 25.9089 30.66C25.5849 30.768 25.3029 30.912 25.0629 31.092C24.8349 31.272 24.6549 31.488 24.5229 31.74C24.4029 31.992 24.3429 32.262 24.3429 32.55ZM45.8286 35.682C45.8286 36.57 45.6666 37.404 45.3426 38.184C45.0186 38.952 44.5566 39.618 43.9566 40.182C43.3686 40.746 42.6606 41.19 41.8326 41.514C41.0166 41.838 40.1166 42 39.1326 42H34.7586V29.4H39.1326C40.1166 29.4 41.0166 29.562 41.8326 29.886C42.6606 30.198 43.3686 30.636 43.9566 31.2C44.5566 31.764 45.0186 32.43 45.3426 33.198C45.6666 33.966 45.8286 34.794 45.8286 35.682ZM44.3526 35.718C44.3526 35.022 44.2266 34.368 43.9746 33.756C43.7346 33.144 43.3866 32.616 42.9306 32.172C42.4866 31.716 41.9406 31.362 41.2926 31.11C40.6446 30.846 39.9246 30.714 39.1326 30.714H36.1806V40.686H39.1326C39.9246 40.686 40.6446 40.56 41.2926 40.308C41.9406 40.056 42.4866 39.708 42.9306 39.264C43.3866 38.808 43.7346 38.28 43.9746 37.68C44.2266 37.08 44.3526 36.426 44.3526 35.718ZM64.8731 31.794L60.2831 38.544H60.2111L55.6211 31.812V42H54.2351V29.4H55.6751L60.2651 36.276L64.8551 29.4H66.2951V42H64.8731V31.794ZM71.2481 30.66H69.6641V29.13H71.2481V30.66ZM71.1401 42H69.7541V32.694H71.1401V42ZM75.8686 42H74.4826V28.86H75.8686V42ZM80.5971 42H79.2111V28.86H80.5971V42ZM85.4336 30.66H83.8496V29.13H85.4336V30.66ZM85.3256 42H83.9396V32.694H85.3256V42ZM97.6681 37.338C97.6681 37.998 97.5421 38.628 97.2901 39.228C97.0501 39.816 96.7141 40.332 96.2821 40.776C95.8501 41.22 95.3341 41.574 94.7341 41.838C94.1341 42.09 93.4861 42.216 92.7901 42.216C92.0941 42.216 91.4521 42.09 90.8641 41.838C90.2761 41.574 89.7661 41.226 89.3341 40.794C88.9021 40.35 88.5661 39.834 88.3261 39.246C88.0861 38.658 87.9661 38.034 87.9661 37.374C87.9661 36.714 88.0861 36.09 88.3261 35.502C88.5661 34.902 88.9021 34.38 89.3341 33.936C89.7661 33.492 90.2761 33.144 90.8641 32.892C91.4641 32.628 92.1181 32.496 92.8261 32.496C93.5221 32.496 94.1641 32.628 94.7521 32.892C95.3521 33.144 95.8681 33.492 96.3001 33.936C96.7321 34.368 97.0681 34.878 97.3081 35.466C97.5481 36.054 97.6681 36.678 97.6681 37.338ZM96.2461 37.374C96.2461 36.87 96.1561 36.396 95.9761 35.952C95.8081 35.508 95.5681 35.124 95.2561 34.8C94.9441 34.464 94.5781 34.2 94.1581 34.008C93.7381 33.816 93.2821 33.72 92.7901 33.72C92.2861 33.72 91.8241 33.816 91.4041 34.008C90.9841 34.188 90.6241 34.446 90.3241 34.782C90.0361 35.106 89.8081 35.49 89.6401 35.934C89.4721 36.366 89.3881 36.834 89.3881 37.338C89.3881 37.842 89.4721 38.316 89.6401 38.76C89.8201 39.204 90.0601 39.588 90.3601 39.912C90.6721 40.236 91.0381 40.494 91.4581 40.686C91.8781 40.878 92.3341 40.974 92.8261 40.974C93.3301 40.974 93.7921 40.884 94.2121 40.704C94.6321 40.512 94.9921 40.254 95.2921 39.93C95.5921 39.606 95.8261 39.228 95.9941 38.796C96.1621 38.352 96.2461 37.878 96.2461 37.374ZM101.565 36.672V42H100.179V32.694H101.565V34.314C101.877 33.81 102.285 33.384 102.789 33.036C103.293 32.676 103.947 32.496 104.751 32.496C105.315 32.496 105.813 32.586 106.245 32.766C106.689 32.946 107.061 33.204 107.361 33.54C107.673 33.864 107.907 34.254 108.063 34.71C108.231 35.166 108.315 35.67 108.315 36.222V42H106.929V36.564C106.929 35.7 106.707 35.016 106.263 34.512C105.819 34.008 105.183 33.756 104.355 33.756C103.959 33.756 103.587 33.828 103.239 33.972C102.903 34.104 102.609 34.302 102.357 34.566C102.105 34.818 101.907 35.124 101.763 35.484C101.631 35.844 101.565 36.24 101.565 36.672ZM110.731 30.048L111.325 29.13C112.933 30.03 114.163 31.122 115.015 32.406C115.879 33.69 116.311 35.166 116.311 36.834C116.311 38.502 115.879 39.978 115.015 41.262C114.163 42.546 112.933 43.638 111.325 44.538L110.731 43.62C112.111 42.744 113.149 41.76 113.845 40.668C114.553 39.564 114.907 38.286 114.907 36.834C114.907 35.382 114.553 34.11 113.845 33.018C113.149 31.914 112.111 30.924 110.731 30.048Z" fill="#717171"/>
</svg>
