<svg width="513" height="486" viewBox="0 0 513 486" fill="none" xmlns="http://www.w3.org/2000/svg">
<rect x="196" y="99" width="86" height="27" rx="7" fill="#9BB7E0"/>
<rect x="347" y="99" width="86" height="27" rx="7" fill="#2A5F8F"/>
<path d="M209.738 106.498C209.018 106.498 208.4 106.684 207.884 107.056C207.368 107.416 206.858 107.95 206.354 108.658L205.31 107.902C205.598 107.482 205.892 107.104 206.192 106.768C206.492 106.432 206.816 106.15 207.164 105.922C207.524 105.694 207.92 105.52 208.352 105.4C208.796 105.28 209.294 105.22 209.846 105.22C210.422 105.22 210.944 105.31 211.412 105.49C211.892 105.67 212.306 105.922 212.654 106.246C213.002 106.558 213.272 106.936 213.464 107.38C213.656 107.812 213.752 108.286 213.752 108.802C213.752 109.27 213.686 109.696 213.554 110.08C213.434 110.464 213.242 110.848 212.978 111.232C212.714 111.604 212.384 111.994 211.988 112.402C211.592 112.798 211.118 113.236 210.566 113.716L207.2 116.704H213.878V118H205.076V116.902L209.648 112.87C210.128 112.438 210.536 112.048 210.872 111.7C211.208 111.352 211.478 111.028 211.682 110.728C211.898 110.416 212.048 110.116 212.132 109.828C212.228 109.528 212.276 109.222 212.276 108.91C212.276 108.538 212.204 108.208 212.06 107.92C211.928 107.62 211.748 107.368 211.52 107.164C211.292 106.948 211.022 106.786 210.71 106.678C210.398 106.558 210.074 106.498 209.738 106.498ZM215.815 119.566C216.271 119.398 216.595 119.188 216.787 118.936C216.979 118.696 217.057 118.384 217.021 118H216.373V116.11H218.029V117.73C218.029 118.462 217.867 119.014 217.543 119.386C217.219 119.77 216.715 120.04 216.031 120.196L215.815 119.566ZM224.925 106.498C224.205 106.498 223.587 106.684 223.071 107.056C222.555 107.416 222.045 107.95 221.541 108.658L220.497 107.902C220.785 107.482 221.079 107.104 221.379 106.768C221.679 106.432 222.003 106.15 222.351 105.922C222.711 105.694 223.107 105.52 223.539 105.4C223.983 105.28 224.481 105.22 225.033 105.22C225.609 105.22 226.131 105.31 226.599 105.49C227.079 105.67 227.493 105.922 227.841 106.246C228.189 106.558 228.459 106.936 228.651 107.38C228.843 107.812 228.939 108.286 228.939 108.802C228.939 109.27 228.873 109.696 228.741 110.08C228.621 110.464 228.429 110.848 228.165 111.232C227.901 111.604 227.571 111.994 227.175 112.402C226.779 112.798 226.305 113.236 225.753 113.716L222.387 116.704H229.065V118H220.263V116.902L224.835 112.87C225.315 112.438 225.723 112.048 226.059 111.7C226.395 111.352 226.665 111.028 226.869 110.728C227.085 110.416 227.235 110.116 227.319 109.828C227.415 109.528 227.463 109.222 227.463 108.91C227.463 108.538 227.391 108.208 227.247 107.92C227.115 107.62 226.935 107.368 226.707 107.164C226.479 106.948 226.209 106.786 225.897 106.678C225.585 106.558 225.261 106.498 224.925 106.498ZM240.579 114.58C240.579 115.12 240.459 115.612 240.219 116.056C239.979 116.5 239.643 116.878 239.211 117.19C238.791 117.502 238.293 117.748 237.717 117.928C237.141 118.096 236.517 118.18 235.845 118.18C235.173 118.18 234.549 118.096 233.973 117.928C233.397 117.748 232.893 117.502 232.461 117.19C232.041 116.878 231.711 116.5 231.471 116.056C231.231 115.612 231.111 115.126 231.111 114.598C231.111 113.842 231.351 113.206 231.831 112.69C232.323 112.162 232.947 111.76 233.703 111.484C233.415 111.352 233.139 111.196 232.875 111.016C232.611 110.824 232.377 110.614 232.173 110.386C231.981 110.146 231.825 109.876 231.705 109.576C231.597 109.276 231.543 108.94 231.543 108.568C231.543 108.076 231.657 107.626 231.885 107.218C232.125 106.81 232.437 106.456 232.821 106.156C233.217 105.856 233.673 105.628 234.189 105.472C234.717 105.304 235.269 105.22 235.845 105.22C236.421 105.22 236.967 105.304 237.483 105.472C238.011 105.628 238.467 105.856 238.851 106.156C239.247 106.456 239.559 106.81 239.787 107.218C240.027 107.626 240.147 108.076 240.147 108.568C240.147 108.94 240.087 109.276 239.967 109.576C239.859 109.876 239.703 110.146 239.499 110.386C239.307 110.614 239.079 110.824 238.815 111.016C238.551 111.196 238.275 111.352 237.987 111.484C238.743 111.76 239.361 112.156 239.841 112.672C240.333 113.188 240.579 113.824 240.579 114.58ZM238.725 108.658C238.725 108.346 238.653 108.058 238.509 107.794C238.365 107.518 238.161 107.284 237.897 107.092C237.645 106.888 237.339 106.732 236.979 106.624C236.631 106.516 236.253 106.462 235.845 106.462C235.437 106.462 235.053 106.516 234.693 106.624C234.345 106.732 234.039 106.888 233.775 107.092C233.523 107.284 233.325 107.512 233.181 107.776C233.037 108.04 232.965 108.334 232.965 108.658C232.965 109.006 233.037 109.324 233.181 109.612C233.337 109.888 233.541 110.128 233.793 110.332C234.057 110.536 234.363 110.698 234.711 110.818C235.071 110.926 235.449 110.98 235.845 110.98C236.241 110.98 236.613 110.926 236.961 110.818C237.321 110.698 237.627 110.536 237.879 110.332C238.143 110.128 238.347 109.888 238.491 109.612C238.647 109.324 238.725 109.006 238.725 108.658ZM239.139 114.562C239.139 114.202 239.049 113.878 238.869 113.59C238.701 113.29 238.467 113.038 238.167 112.834C237.879 112.618 237.531 112.45 237.123 112.33C236.727 112.21 236.301 112.15 235.845 112.15C235.389 112.15 234.957 112.21 234.549 112.33C234.153 112.45 233.805 112.618 233.505 112.834C233.205 113.038 232.971 113.29 232.803 113.59C232.635 113.878 232.551 114.202 232.551 114.562C232.551 114.886 232.623 115.192 232.767 115.48C232.923 115.768 233.139 116.02 233.415 116.236C233.703 116.452 234.051 116.626 234.459 116.758C234.867 116.878 235.329 116.938 235.845 116.938C236.361 116.938 236.823 116.878 237.231 116.758C237.639 116.626 237.981 116.452 238.257 116.236C238.545 116.02 238.761 115.768 238.905 115.48C239.061 115.192 239.139 114.886 239.139 114.562ZM251.973 111.376C251.973 112.384 251.847 113.308 251.595 114.148C251.343 114.976 250.983 115.696 250.515 116.308C250.059 116.908 249.507 117.376 248.859 117.712C248.223 118.048 247.515 118.216 246.735 118.216C245.907 118.216 245.187 118.072 244.575 117.784C243.963 117.484 243.387 117.112 242.847 116.668L243.675 115.57C244.191 116.026 244.695 116.368 245.187 116.596C245.679 116.812 246.207 116.92 246.771 116.92C247.335 116.92 247.851 116.782 248.319 116.506C248.787 116.23 249.183 115.852 249.507 115.372C249.843 114.88 250.095 114.298 250.263 113.626C250.443 112.942 250.527 112.198 250.515 111.394C250.167 111.946 249.705 112.42 249.129 112.816C248.553 113.212 247.827 113.41 246.951 113.41C246.303 113.41 245.709 113.314 245.169 113.122C244.629 112.93 244.167 112.66 243.783 112.312C243.399 111.964 243.099 111.55 242.883 111.07C242.667 110.59 242.559 110.062 242.559 109.486C242.559 108.886 242.667 108.328 242.883 107.812C243.111 107.284 243.423 106.828 243.819 106.444C244.215 106.048 244.689 105.742 245.241 105.526C245.805 105.298 246.423 105.184 247.095 105.184C247.815 105.184 248.445 105.298 248.985 105.526C249.525 105.754 249.999 106.072 250.407 106.48C250.659 106.732 250.881 107.008 251.073 107.308C251.265 107.608 251.427 107.956 251.559 108.352C251.691 108.736 251.793 109.18 251.865 109.684C251.937 110.176 251.973 110.74 251.973 111.376ZM250.245 109.324C250.245 108.916 250.167 108.538 250.011 108.19C249.855 107.842 249.633 107.542 249.345 107.29C249.069 107.026 248.733 106.822 248.337 106.678C247.941 106.522 247.509 106.444 247.041 106.444C246.573 106.444 246.147 106.528 245.763 106.696C245.391 106.852 245.073 107.068 244.809 107.344C244.557 107.608 244.359 107.92 244.215 108.28C244.083 108.64 244.017 109.018 244.017 109.414C244.017 109.822 244.089 110.194 244.233 110.53C244.389 110.866 244.599 111.16 244.863 111.412C245.139 111.652 245.469 111.844 245.853 111.988C246.237 112.12 246.657 112.186 247.113 112.186C247.593 112.186 248.025 112.108 248.409 111.952C248.805 111.784 249.135 111.568 249.399 111.304C249.675 111.04 249.885 110.734 250.029 110.386C250.173 110.038 250.245 109.684 250.245 109.324ZM255.945 118H254.289V116.11H255.945V118ZM259.097 111.538L259.457 105.4H266.711V106.714H260.699L260.429 110.746C260.801 110.578 261.173 110.446 261.545 110.35C261.929 110.242 262.385 110.188 262.913 110.188C263.525 110.188 264.095 110.278 264.623 110.458C265.151 110.638 265.613 110.896 266.009 111.232C266.405 111.556 266.711 111.958 266.927 112.438C267.155 112.918 267.269 113.458 267.269 114.058C267.269 114.682 267.155 115.252 266.927 115.768C266.711 116.272 266.405 116.71 266.009 117.082C265.613 117.442 265.139 117.724 264.587 117.928C264.035 118.12 263.429 118.216 262.769 118.216C261.869 118.216 261.035 118.03 260.267 117.658C259.511 117.274 258.845 116.794 258.269 116.218L259.205 115.192C259.757 115.732 260.327 116.158 260.915 116.47C261.515 116.77 262.139 116.92 262.787 116.92C263.231 116.92 263.639 116.854 264.011 116.722C264.395 116.578 264.719 116.38 264.983 116.128C265.247 115.876 265.451 115.582 265.595 115.246C265.751 114.898 265.829 114.52 265.829 114.112C265.829 113.716 265.751 113.356 265.595 113.032C265.451 112.708 265.241 112.432 264.965 112.204C264.689 111.964 264.359 111.778 263.975 111.646C263.591 111.514 263.165 111.448 262.697 111.448C262.157 111.448 261.671 111.52 261.239 111.664C260.819 111.796 260.423 111.964 260.051 112.168L259.097 111.538ZM268.841 106.372L271.919 105.31H272.963V118H271.559V106.786L269.183 107.524L268.841 106.372Z" fill="#151515"/>
<path d="M238.5 133L232.005 125.5L244.995 125.5L238.5 133Z" fill="#9BB7E0"/>
<path d="M239 194V139" stroke="black" stroke-dasharray="2 2"/>
<path d="M226 200C226 196.134 229.134 193 233 193H252V463H226V200Z" fill="#9BB7E0"/>
<rect x="45" y="99" width="86" height="27" rx="7" fill="#9BB7E0"/>
<path d="M59.9088 106.498C59.1888 106.498 58.5708 106.684 58.0548 107.056C57.5388 107.416 57.0288 107.95 56.5248 108.658L55.4808 107.902C55.7688 107.482 56.0628 107.104 56.3628 106.768C56.6628 106.432 56.9868 106.15 57.3348 105.922C57.6948 105.694 58.0908 105.52 58.5228 105.4C58.9668 105.28 59.4648 105.22 60.0168 105.22C60.5928 105.22 61.1148 105.31 61.5828 105.49C62.0628 105.67 62.4768 105.922 62.8248 106.246C63.1728 106.558 63.4428 106.936 63.6348 107.38C63.8268 107.812 63.9228 108.286 63.9228 108.802C63.9228 109.27 63.8568 109.696 63.7248 110.08C63.6048 110.464 63.4128 110.848 63.1488 111.232C62.8848 111.604 62.5548 111.994 62.1588 112.402C61.7628 112.798 61.2888 113.236 60.7368 113.716L57.3708 116.704H64.0488V118H55.2468V116.902L59.8188 112.87C60.2988 112.438 60.7068 112.048 61.0428 111.7C61.3788 111.352 61.6488 111.028 61.8528 110.728C62.0688 110.416 62.2188 110.116 62.3028 109.828C62.3988 109.528 62.4468 109.222 62.4468 108.91C62.4468 108.538 62.3748 108.208 62.2308 107.92C62.0988 107.62 61.9188 107.368 61.6908 107.164C61.4628 106.948 61.1928 106.786 60.8808 106.678C60.5688 106.558 60.2448 106.498 59.9088 106.498ZM72.8802 106.678H66.7242V105.4H74.7702V106.444L70.8102 110.836C71.3622 110.884 71.8902 110.986 72.3942 111.142C72.8982 111.298 73.3362 111.52 73.7082 111.808C74.0922 112.096 74.3982 112.456 74.6262 112.888C74.8542 113.32 74.9682 113.824 74.9682 114.4C74.9682 114.964 74.8542 115.48 74.6262 115.948C74.4102 116.416 74.1102 116.818 73.7262 117.154C73.3542 117.49 72.9102 117.754 72.3942 117.946C71.8902 118.126 71.3442 118.216 70.7562 118.216C69.7002 118.216 68.7822 118.012 68.0022 117.604C67.2222 117.184 66.5742 116.638 66.0582 115.966L67.0842 115.048C67.5762 115.648 68.1162 116.11 68.7042 116.434C69.3042 116.758 69.9942 116.92 70.7742 116.92C71.1582 116.92 71.5182 116.866 71.8542 116.758C72.1902 116.638 72.4782 116.47 72.7182 116.254C72.9702 116.038 73.1682 115.78 73.3122 115.48C73.4562 115.168 73.5282 114.826 73.5282 114.454C73.5282 113.662 73.1982 113.056 72.5382 112.636C71.8902 112.216 71.0442 112.006 70.0002 112.006H69.1902L68.9022 111.16L72.8802 106.678ZM81.7233 106.498C81.0033 106.498 80.3853 106.684 79.8693 107.056C79.3533 107.416 78.8433 107.95 78.3393 108.658L77.2953 107.902C77.5833 107.482 77.8773 107.104 78.1773 106.768C78.4773 106.432 78.8013 106.15 79.1493 105.922C79.5093 105.694 79.9053 105.52 80.3373 105.4C80.7813 105.28 81.2793 105.22 81.8313 105.22C82.4073 105.22 82.9293 105.31 83.3973 105.49C83.8773 105.67 84.2913 105.922 84.6393 106.246C84.9873 106.558 85.2573 106.936 85.4493 107.38C85.6413 107.812 85.7373 108.286 85.7373 108.802C85.7373 109.27 85.6713 109.696 85.5393 110.08C85.4193 110.464 85.2273 110.848 84.9633 111.232C84.6993 111.604 84.3693 111.994 83.9733 112.402C83.5773 112.798 83.1033 113.236 82.5513 113.716L79.1853 116.704H85.8633V118H77.0613V116.902L81.6333 112.87C82.1133 112.438 82.5213 112.048 82.8573 111.7C83.1933 111.352 83.4633 111.028 83.6673 110.728C83.8833 110.416 84.0333 110.116 84.1173 109.828C84.2133 109.528 84.2613 109.222 84.2613 108.91C84.2613 108.538 84.1893 108.208 84.0453 107.92C83.9133 107.62 83.7333 107.368 83.5053 107.164C83.2773 106.948 83.0073 106.786 82.6953 106.678C82.3833 106.558 82.0593 106.498 81.7233 106.498ZM94.4 105.31H95.642V113.824H97.604V115.012H95.642V118H94.274V115.012H87.632L87.272 113.986L94.4 105.31ZM94.274 113.824V107.326L88.982 113.824H94.274ZM101.616 118H99.9602V116.11H101.616V118ZM102.594 106.372L105.672 105.31H106.716V118H105.312V106.786L102.936 107.524L102.594 106.372ZM116.443 105.31H117.685V113.824H119.647V115.012H117.685V118H116.317V115.012H109.675L109.315 113.986L116.443 105.31ZM116.317 113.824V107.326L111.025 113.824H116.317Z" fill="#151515"/>
<path d="M87.5 133L81.0048 125.5L93.9952 125.5L87.5 133Z" fill="#9BB7E0"/>
<path d="M88 194V139" stroke="black" stroke-dasharray="2 2"/>
<path d="M75 194C75 190.134 78.134 187 82 187H101V463H75V194Z" fill="#9BB7E0"/>
<path d="M78.9992 471.8V472.968H72.2152V476.968H78.2792V478.12H72.2152V483H70.9512V471.8H78.9992ZM86.2352 478.552V483H84.9552V478.568L80.2992 471.8H81.8352L85.6112 477.4L89.4192 471.8H90.8912L86.2352 478.552ZM96.2323 472.776C95.5923 472.776 95.043 472.941 94.5843 473.272C94.1256 473.592 93.6723 474.067 93.2243 474.696L92.2963 474.024C92.5523 473.651 92.8136 473.315 93.0803 473.016C93.347 472.717 93.635 472.467 93.9443 472.264C94.2643 472.061 94.6163 471.907 95.0003 471.8C95.395 471.693 95.8376 471.64 96.3283 471.64C96.8403 471.64 97.3043 471.72 97.7203 471.88C98.147 472.04 98.515 472.264 98.8243 472.552C99.1336 472.829 99.3736 473.165 99.5443 473.56C99.715 473.944 99.8003 474.365 99.8003 474.824C99.8003 475.24 99.7416 475.619 99.6243 475.96C99.5176 476.301 99.347 476.643 99.1123 476.984C98.8776 477.315 98.5843 477.661 98.2323 478.024C97.8803 478.376 97.459 478.765 96.9683 479.192L93.9763 481.848H99.9123V483H92.0883V482.024L96.1523 478.44C96.579 478.056 96.9416 477.709 97.2403 477.4C97.539 477.091 97.779 476.803 97.9603 476.536C98.1523 476.259 98.2856 475.992 98.3603 475.736C98.4456 475.469 98.4883 475.197 98.4883 474.92C98.4883 474.589 98.4243 474.296 98.2963 474.04C98.179 473.773 98.019 473.549 97.8163 473.368C97.6136 473.176 97.3736 473.032 97.0963 472.936C96.819 472.829 96.531 472.776 96.2323 472.776ZM101.346 472.664L104.082 471.72H105.01V483H103.762V473.032L101.65 473.688L101.346 472.664Z" fill="black"/>
<path d="M228.077 471.8V472.968H221.293V476.968H227.357V478.12H221.293V483H220.029V471.8H228.077ZM235.313 478.552V483H234.033V478.568L229.377 471.8H230.913L234.689 477.4L238.497 471.8H239.969L235.313 478.552ZM245.31 472.776C244.67 472.776 244.121 472.941 243.662 473.272C243.204 473.592 242.75 474.067 242.302 474.696L241.374 474.024C241.63 473.651 241.892 473.315 242.158 473.016C242.425 472.717 242.713 472.467 243.022 472.264C243.342 472.061 243.694 471.907 244.078 471.8C244.473 471.693 244.916 471.64 245.406 471.64C245.918 471.64 246.382 471.72 246.798 471.88C247.225 472.04 247.593 472.264 247.902 472.552C248.212 472.829 248.452 473.165 248.622 473.56C248.793 473.944 248.878 474.365 248.878 474.824C248.878 475.24 248.82 475.619 248.702 475.96C248.596 476.301 248.425 476.643 248.19 476.984C247.956 477.315 247.662 477.661 247.31 478.024C246.958 478.376 246.537 478.765 246.046 479.192L243.054 481.848H248.99V483H241.166V482.024L245.23 478.44C245.657 478.056 246.02 477.709 246.318 477.4C246.617 477.091 246.857 476.803 247.038 476.536C247.23 476.259 247.364 475.992 247.438 475.736C247.524 475.469 247.566 475.197 247.566 474.92C247.566 474.589 247.502 474.296 247.374 474.04C247.257 473.773 247.097 473.549 246.894 473.368C246.692 473.176 246.452 473.032 246.174 472.936C245.897 472.829 245.609 472.776 245.31 472.776ZM254.889 472.776C254.249 472.776 253.699 472.941 253.241 473.272C252.782 473.592 252.329 474.067 251.881 474.696L250.953 474.024C251.209 473.651 251.47 473.315 251.737 473.016C252.003 472.717 252.291 472.467 252.601 472.264C252.921 472.061 253.273 471.907 253.657 471.8C254.051 471.693 254.494 471.64 254.985 471.64C255.497 471.64 255.961 471.72 256.377 471.88C256.803 472.04 257.171 472.264 257.481 472.552C257.79 472.829 258.03 473.165 258.201 473.56C258.371 473.944 258.457 474.365 258.457 474.824C258.457 475.24 258.398 475.619 258.281 475.96C258.174 476.301 258.003 476.643 257.769 476.984C257.534 477.315 257.241 477.661 256.889 478.024C256.537 478.376 256.115 478.765 255.625 479.192L252.633 481.848H258.569V483H250.745V482.024L254.809 478.44C255.235 478.056 255.598 477.709 255.897 477.4C256.195 477.091 256.435 476.803 256.617 476.536C256.809 476.259 256.942 475.992 257.017 475.736C257.102 475.469 257.145 475.197 257.145 474.92C257.145 474.589 257.081 474.296 256.953 474.04C256.835 473.773 256.675 473.549 256.473 473.368C256.27 473.176 256.03 473.032 255.753 472.936C255.475 472.829 255.187 472.776 254.889 472.776Z" fill="black"/>
<path d="M356.969 107.2C356.393 107.2 355.883 107.356 355.439 107.668C355.007 107.98 354.545 108.454 354.053 109.09L352.487 107.866C352.787 107.446 353.093 107.074 353.405 106.75C353.717 106.414 354.053 106.138 354.413 105.922C354.785 105.694 355.187 105.52 355.619 105.4C356.063 105.28 356.567 105.22 357.131 105.22C357.755 105.22 358.325 105.31 358.841 105.49C359.357 105.67 359.795 105.928 360.155 106.264C360.515 106.6 360.791 107.002 360.983 107.47C361.187 107.926 361.289 108.436 361.289 109C361.289 109.504 361.223 109.954 361.091 110.35C360.959 110.746 360.755 111.13 360.479 111.502C360.215 111.874 359.873 112.252 359.453 112.636C359.045 113.02 358.565 113.44 358.013 113.896L355.421 116.056H361.415V118H352.307V116.254L356.645 112.564C357.077 112.204 357.443 111.88 357.743 111.592C358.043 111.292 358.283 111.01 358.463 110.746C358.655 110.482 358.793 110.224 358.877 109.972C358.961 109.72 359.003 109.45 359.003 109.162C359.003 108.538 358.805 108.058 358.409 107.722C358.025 107.374 357.545 107.2 356.969 107.2ZM363.076 119.692C364.18 119.476 364.69 118.912 364.606 118H363.688V115.534H366.082V117.622C366.082 118.63 365.848 119.362 365.38 119.818C364.912 120.274 364.222 120.538 363.31 120.61L363.076 119.692ZM372.842 107.2C372.266 107.2 371.756 107.356 371.312 107.668C370.88 107.98 370.418 108.454 369.926 109.09L368.36 107.866C368.66 107.446 368.966 107.074 369.278 106.75C369.59 106.414 369.926 106.138 370.286 105.922C370.658 105.694 371.06 105.52 371.492 105.4C371.936 105.28 372.44 105.22 373.004 105.22C373.628 105.22 374.198 105.31 374.714 105.49C375.23 105.67 375.668 105.928 376.028 106.264C376.388 106.6 376.664 107.002 376.856 107.47C377.06 107.926 377.162 108.436 377.162 109C377.162 109.504 377.096 109.954 376.964 110.35C376.832 110.746 376.628 111.13 376.352 111.502C376.088 111.874 375.746 112.252 375.326 112.636C374.918 113.02 374.438 113.44 373.886 113.896L371.294 116.056H377.288V118H368.18V116.254L372.518 112.564C372.95 112.204 373.316 111.88 373.616 111.592C373.916 111.292 374.156 111.01 374.336 110.746C374.528 110.482 374.666 110.224 374.75 109.972C374.834 109.72 374.876 109.45 374.876 109.162C374.876 108.538 374.678 108.058 374.282 107.722C373.898 107.374 373.418 107.2 372.842 107.2ZM388.615 106.588L387.427 108.298C386.983 107.95 386.551 107.68 386.131 107.488C385.723 107.296 385.243 107.2 384.691 107.2C384.223 107.2 383.803 107.302 383.431 107.506C383.071 107.698 382.765 107.974 382.513 108.334C382.261 108.694 382.063 109.12 381.919 109.612C381.775 110.092 381.691 110.62 381.667 111.196C381.835 111.04 382.015 110.884 382.207 110.728C382.399 110.572 382.615 110.44 382.855 110.332C383.107 110.212 383.377 110.116 383.665 110.044C383.965 109.972 384.301 109.936 384.673 109.936C385.285 109.936 385.855 110.026 386.383 110.206C386.923 110.374 387.391 110.632 387.787 110.98C388.195 111.316 388.513 111.73 388.741 112.222C388.969 112.714 389.083 113.278 389.083 113.914C389.083 114.55 388.963 115.132 388.723 115.66C388.483 116.188 388.153 116.644 387.733 117.028C387.313 117.4 386.815 117.694 386.239 117.91C385.675 118.114 385.063 118.216 384.403 118.216C383.623 118.216 382.945 118.102 382.369 117.874C381.805 117.646 381.313 117.322 380.893 116.902C380.653 116.662 380.437 116.398 380.245 116.11C380.053 115.81 379.891 115.468 379.759 115.084C379.627 114.688 379.525 114.244 379.453 113.752C379.393 113.26 379.363 112.696 379.363 112.06C379.363 111.088 379.477 110.188 379.705 109.36C379.933 108.52 380.269 107.794 380.713 107.182C381.169 106.558 381.733 106.072 382.405 105.724C383.089 105.364 383.875 105.184 384.763 105.184C385.579 105.184 386.287 105.31 386.887 105.562C387.487 105.802 388.063 106.144 388.615 106.588ZM386.869 114.004C386.869 113.356 386.635 112.828 386.167 112.42C385.711 112 385.087 111.79 384.295 111.79C383.899 111.79 383.545 111.85 383.233 111.97C382.921 112.09 382.651 112.252 382.423 112.456C382.207 112.648 382.039 112.882 381.919 113.158C381.799 113.434 381.739 113.722 381.739 114.022C381.739 114.682 381.973 115.228 382.441 115.66C382.921 116.092 383.557 116.308 384.349 116.308C385.141 116.308 385.759 116.092 386.203 115.66C386.647 115.216 386.869 114.664 386.869 114.004ZM391.841 111.574L392.201 105.4H399.725V107.362H394.109L393.911 110.314C394.211 110.206 394.511 110.122 394.811 110.062C395.123 109.99 395.489 109.954 395.909 109.954C396.521 109.954 397.091 110.038 397.619 110.206C398.159 110.362 398.627 110.608 399.023 110.944C399.419 111.268 399.725 111.682 399.941 112.186C400.169 112.678 400.283 113.26 400.283 113.932C400.283 114.58 400.169 115.168 399.941 115.696C399.725 116.224 399.413 116.674 399.005 117.046C398.597 117.418 398.105 117.706 397.529 117.91C396.953 118.114 396.317 118.216 395.621 118.216C394.649 118.216 393.785 118.042 393.029 117.694C392.273 117.334 391.595 116.866 390.995 116.29L392.363 114.688C392.867 115.156 393.383 115.528 393.911 115.804C394.451 116.068 395.015 116.2 395.603 116.2C396.359 116.2 396.965 116.002 397.421 115.606C397.877 115.21 398.105 114.676 398.105 114.004C398.105 113.356 397.865 112.846 397.385 112.474C396.917 112.09 396.287 111.898 395.495 111.898C395.039 111.898 394.619 111.952 394.235 112.06C393.851 112.168 393.497 112.3 393.173 112.456L391.841 111.574ZM404.965 118H402.571V115.534H404.965V118ZM407.873 111.574L408.233 105.4H415.757V107.362H410.141L409.943 110.314C410.243 110.206 410.543 110.122 410.843 110.062C411.155 109.99 411.521 109.954 411.941 109.954C412.553 109.954 413.123 110.038 413.651 110.206C414.191 110.362 414.659 110.608 415.055 110.944C415.451 111.268 415.757 111.682 415.973 112.186C416.201 112.678 416.315 113.26 416.315 113.932C416.315 114.58 416.201 115.168 415.973 115.696C415.757 116.224 415.445 116.674 415.037 117.046C414.629 117.418 414.137 117.706 413.561 117.91C412.985 118.114 412.349 118.216 411.653 118.216C410.681 118.216 409.817 118.042 409.061 117.694C408.305 117.334 407.627 116.866 407.027 116.29L408.395 114.688C408.899 115.156 409.415 115.528 409.943 115.804C410.483 116.068 411.047 116.2 411.635 116.2C412.391 116.2 412.997 116.002 413.453 115.606C413.909 115.21 414.137 114.676 414.137 114.004C414.137 113.356 413.897 112.846 413.417 112.474C412.949 112.09 412.319 111.898 411.527 111.898C411.071 111.898 410.651 111.952 410.267 112.06C409.883 112.168 409.529 112.3 409.205 112.456L407.873 111.574ZM419.07 111.574L419.43 105.4H426.954V107.362H421.338L421.14 110.314C421.44 110.206 421.74 110.122 422.04 110.062C422.352 109.99 422.718 109.954 423.138 109.954C423.75 109.954 424.32 110.038 424.848 110.206C425.388 110.362 425.856 110.608 426.252 110.944C426.648 111.268 426.954 111.682 427.17 112.186C427.398 112.678 427.512 113.26 427.512 113.932C427.512 114.58 427.398 115.168 427.17 115.696C426.954 116.224 426.642 116.674 426.234 117.046C425.826 117.418 425.334 117.706 424.758 117.91C424.182 118.114 423.546 118.216 422.85 118.216C421.878 118.216 421.014 118.042 420.258 117.694C419.502 117.334 418.824 116.866 418.224 116.29L419.592 114.688C420.096 115.156 420.612 115.528 421.14 115.804C421.68 116.068 422.244 116.2 422.832 116.2C423.588 116.2 424.194 116.002 424.65 115.606C425.106 115.21 425.334 114.676 425.334 114.004C425.334 113.356 425.094 112.846 424.614 112.474C424.146 112.09 423.516 111.898 422.724 111.898C422.268 111.898 421.848 111.952 421.464 112.06C421.08 112.168 420.726 112.3 420.402 112.456L419.07 111.574Z" fill="white"/>
<path d="M389.5 133L383.005 125.5L395.995 125.5L389.5 133Z" fill="#2A5F8F"/>
<path d="M390 194V139" stroke="black" stroke-dasharray="2 2"/>
<path d="M377 200C377 196.134 380.134 193 384 193H403V463H377V200Z" fill="#2A5F8F"/>
<path d="M378.96 471.8V472.968H372.176V476.968H378.24V478.12H372.176V483H370.912V471.8H378.96ZM386.196 478.552V483H384.916V478.568L380.26 471.8H381.796L385.572 477.4L389.38 471.8H390.852L386.196 478.552ZM396.193 472.776C395.553 472.776 395.004 472.941 394.545 473.272C394.087 473.592 393.633 474.067 393.185 474.696L392.257 474.024C392.513 473.651 392.775 473.315 393.041 473.016C393.308 472.717 393.596 472.467 393.905 472.264C394.225 472.061 394.577 471.907 394.961 471.8C395.356 471.693 395.799 471.64 396.289 471.64C396.801 471.64 397.265 471.72 397.681 471.88C398.108 472.04 398.476 472.264 398.785 472.552C399.095 472.829 399.335 473.165 399.505 473.56C399.676 473.944 399.761 474.365 399.761 474.824C399.761 475.24 399.703 475.619 399.585 475.96C399.479 476.301 399.308 476.643 399.073 476.984C398.839 477.315 398.545 477.661 398.193 478.024C397.841 478.376 397.42 478.765 396.929 479.192L393.937 481.848H399.873V483H392.049V482.024L396.113 478.44C396.54 478.056 396.903 477.709 397.201 477.4C397.5 477.091 397.74 476.803 397.921 476.536C398.113 476.259 398.247 475.992 398.321 475.736C398.407 475.469 398.449 475.197 398.449 474.92C398.449 474.589 398.385 474.296 398.257 474.04C398.14 473.773 397.98 473.549 397.777 473.368C397.575 473.176 397.335 473.032 397.057 472.936C396.78 472.829 396.492 472.776 396.193 472.776ZM407.723 472.936H402.251V471.8H409.403V472.728L405.883 476.632C406.374 476.675 406.843 476.765 407.291 476.904C407.739 477.043 408.129 477.24 408.459 477.496C408.801 477.752 409.073 478.072 409.275 478.456C409.478 478.84 409.579 479.288 409.579 479.8C409.579 480.301 409.478 480.76 409.275 481.176C409.083 481.592 408.817 481.949 408.475 482.248C408.145 482.547 407.75 482.781 407.291 482.952C406.843 483.112 406.358 483.192 405.835 483.192C404.897 483.192 404.081 483.011 403.387 482.648C402.694 482.275 402.118 481.789 401.659 481.192L402.571 480.376C403.009 480.909 403.489 481.32 404.011 481.608C404.545 481.896 405.158 482.04 405.851 482.04C406.193 482.04 406.513 481.992 406.811 481.896C407.11 481.789 407.366 481.64 407.579 481.448C407.803 481.256 407.979 481.027 408.107 480.76C408.235 480.483 408.299 480.179 408.299 479.848C408.299 479.144 408.006 478.605 407.419 478.232C406.843 477.859 406.091 477.672 405.163 477.672H404.443L404.187 476.92L407.723 472.936Z" fill="black"/>
<path d="M0 463H478" stroke="#B1B3B6"/>
<path d="M0 54L478 54" stroke="#B1B3B6"/>
<path d="M14.58 11C14.58 11.9867 14.4 12.9067 14.04 13.76C13.68 14.6133 13.1667 15.3533 12.5 15.98C11.8467 16.6067 11.06 17.1 10.14 17.46C9.23333 17.82 8.23333 18 7.14 18H1.68V4H7.14C8.23333 4 9.23333 4.18 10.14 4.54C11.06 4.88667 11.8467 5.37333 12.5 6C13.1667 6.62667 13.68 7.36667 14.04 8.22C14.4 9.06 14.58 9.97333 14.58 10.96V11ZM11.36 11.04V11C11.36 10.3867 11.2533 9.82 11.04 9.3C10.84 8.78 10.5533 8.33333 10.18 7.96C9.82 7.58667 9.38 7.3 8.86 7.1C8.34 6.88667 7.76667 6.78 7.14 6.78H4.76V15.22H7.14C7.76667 15.22 8.34 15.12 8.86 14.92C9.38 14.72 9.82 14.4333 10.18 14.06C10.5533 13.6867 10.84 13.2467 11.04 12.74C11.2533 12.2333 11.36 11.6667 11.36 11.04ZM22.5445 18H19.4645V4H22.5445V18ZM40.1433 18H36.5433L33.5433 13.52H31.1233V18H28.0433V4H34.4433C36.1099 4 37.4033 4.40667 38.3233 5.22C39.2566 6.03333 39.7233 7.16667 39.7233 8.62V8.66C39.7233 9.79333 39.4433 10.72 38.8833 11.44C38.3366 12.1467 37.6166 12.6667 36.7233 13L40.1433 18ZM36.6033 8.82V8.78C36.6033 8.11333 36.3899 7.61333 35.9633 7.28C35.5366 6.94667 34.9433 6.78 34.1833 6.78H31.1233V10.8H34.2433C35.0033 10.8 35.5833 10.62 35.9833 10.26C36.3966 9.9 36.6033 9.42 36.6033 8.82ZM55.1564 18H44.4964V4H55.0564V6.74H47.5564V9.58H54.1564V12.32H47.5564V15.26H55.1564V18ZM72.1948 15.74C71.8348 16.1267 71.4615 16.4733 71.0748 16.78C70.6882 17.0867 70.2615 17.3533 69.7948 17.58C69.3415 17.7933 68.8415 17.9533 68.2948 18.06C67.7482 18.18 67.1348 18.24 66.4548 18.24C65.4282 18.24 64.4748 18.0533 63.5948 17.68C62.7148 17.3067 61.9548 16.8 61.3148 16.16C60.6748 15.5067 60.1748 14.74 59.8148 13.86C59.4548 12.98 59.2748 12.04 59.2748 11.04V11C59.2748 10 59.4548 9.06667 59.8148 8.2C60.1748 7.32 60.6748 6.55333 61.3148 5.9C61.9548 5.23333 62.7215 4.71333 63.6148 4.34C64.5082 3.95333 65.4948 3.76 66.5748 3.76C67.2282 3.76 67.8215 3.81333 68.3548 3.92C68.9015 4.02667 69.3948 4.17333 69.8348 4.36C70.2748 4.54667 70.6815 4.77333 71.0548 5.04C71.4282 5.30667 71.7748 5.6 72.0948 5.92L70.1348 8.18C69.5882 7.68667 69.0282 7.3 68.4548 7.02C67.8948 6.74 67.2615 6.6 66.5548 6.6C65.9682 6.6 65.4215 6.71333 64.9148 6.94C64.4215 7.16667 63.9948 7.48 63.6348 7.88C63.2748 8.28 62.9948 8.74667 62.7948 9.28C62.5948 9.8 62.4948 10.36 62.4948 10.96V11C62.4948 11.6 62.5948 12.1667 62.7948 12.7C62.9948 13.2333 63.2682 13.7 63.6148 14.1C63.9748 14.5 64.4015 14.82 64.8948 15.06C65.4015 15.2867 65.9548 15.4 66.5548 15.4C67.3548 15.4 68.0282 15.2533 68.5748 14.96C69.1348 14.6667 69.6882 14.2667 70.2348 13.76L72.1948 15.74ZM87.2605 6.84H83.0005V18H79.9205V6.84H75.6605V4H87.2605V6.84ZM110.285 18H99.6253V4H110.185V6.74H102.685V9.58H109.285V12.32H102.685V15.26H110.285V18ZM127.324 15.74C126.964 16.1267 126.59 16.4733 126.204 16.78C125.817 17.0867 125.39 17.3533 124.924 17.58C124.47 17.7933 123.97 17.9533 123.424 18.06C122.877 18.18 122.264 18.24 121.584 18.24C120.557 18.24 119.604 18.0533 118.724 17.68C117.844 17.3067 117.084 16.8 116.444 16.16C115.804 15.5067 115.304 14.74 114.944 13.86C114.584 12.98 114.404 12.04 114.404 11.04V11C114.404 10 114.584 9.06667 114.944 8.2C115.304 7.32 115.804 6.55333 116.444 5.9C117.084 5.23333 117.85 4.71333 118.744 4.34C119.637 3.95333 120.624 3.76 121.704 3.76C122.357 3.76 122.95 3.81333 123.484 3.92C124.03 4.02667 124.524 4.17333 124.964 4.36C125.404 4.54667 125.81 4.77333 126.184 5.04C126.557 5.30667 126.904 5.6 127.224 5.92L125.264 8.18C124.717 7.68667 124.157 7.3 123.584 7.02C123.024 6.74 122.39 6.6 121.684 6.6C121.097 6.6 120.55 6.71333 120.044 6.94C119.55 7.16667 119.124 7.48 118.764 7.88C118.404 8.28 118.124 8.74667 117.924 9.28C117.724 9.8 117.624 10.36 117.624 10.96V11C117.624 11.6 117.724 12.1667 117.924 12.7C118.124 13.2333 118.397 13.7 118.744 14.1C119.104 14.5 119.53 14.82 120.024 15.06C120.53 15.2867 121.084 15.4 121.684 15.4C122.484 15.4 123.157 15.2533 123.704 14.96C124.264 14.6667 124.817 14.2667 125.364 13.76L127.324 15.74ZM146.049 11C146.049 12 145.863 12.94 145.489 13.82C145.116 14.6867 144.596 15.4533 143.929 16.12C143.276 16.7733 142.489 17.2933 141.569 17.68C140.663 18.0533 139.669 18.24 138.589 18.24C137.509 18.24 136.516 18.0533 135.609 17.68C134.703 17.2933 133.916 16.78 133.249 16.14C132.596 15.4867 132.083 14.7267 131.709 13.86C131.349 12.98 131.169 12.04 131.169 11.04V11C131.169 10 131.356 9.06667 131.729 8.2C132.103 7.32 132.616 6.55333 133.269 5.9C133.936 5.23333 134.723 4.71333 135.629 4.34C136.549 3.95333 137.549 3.76 138.629 3.76C139.709 3.76 140.703 3.95333 141.609 4.34C142.516 4.71333 143.296 5.22667 143.949 5.88C144.616 6.52 145.129 7.28 145.489 8.16C145.863 9.02667 146.049 9.96 146.049 10.96V11ZM142.829 11.04V11C142.829 10.4 142.723 9.83333 142.509 9.3C142.309 8.76667 142.016 8.3 141.629 7.9C141.256 7.5 140.809 7.18667 140.289 6.96C139.769 6.72 139.203 6.6 138.589 6.6C137.963 6.6 137.389 6.71333 136.869 6.94C136.363 7.16667 135.923 7.48 135.549 7.88C135.189 8.28 134.903 8.74667 134.689 9.28C134.489 9.8 134.389 10.36 134.389 10.96V11C134.389 11.6 134.489 12.1667 134.689 12.7C134.903 13.2333 135.196 13.7 135.569 14.1C135.956 14.5 136.403 14.82 136.909 15.06C137.429 15.2867 138.003 15.4 138.629 15.4C139.243 15.4 139.809 15.2867 140.329 15.06C140.849 14.8333 141.289 14.52 141.649 14.12C142.023 13.72 142.309 13.26 142.509 12.74C142.723 12.2067 142.829 11.64 142.829 11.04ZM163.222 18H160.602L153.822 9.1V18H150.782V4H153.622L160.182 12.62V4H163.222V18ZM182.842 11C182.842 12 182.656 12.94 182.282 13.82C181.909 14.6867 181.389 15.4533 180.722 16.12C180.069 16.7733 179.282 17.2933 178.362 17.68C177.456 18.0533 176.462 18.24 175.382 18.24C174.302 18.24 173.309 18.0533 172.402 17.68C171.496 17.2933 170.709 16.78 170.042 16.14C169.389 15.4867 168.876 14.7267 168.502 13.86C168.142 12.98 167.962 12.04 167.962 11.04V11C167.962 10 168.149 9.06667 168.522 8.2C168.896 7.32 169.409 6.55333 170.062 5.9C170.729 5.23333 171.516 4.71333 172.422 4.34C173.342 3.95333 174.342 3.76 175.422 3.76C176.502 3.76 177.496 3.95333 178.402 4.34C179.309 4.71333 180.089 5.22667 180.742 5.88C181.409 6.52 181.922 7.28 182.282 8.16C182.656 9.02667 182.842 9.96 182.842 10.96V11ZM179.622 11.04V11C179.622 10.4 179.516 9.83333 179.302 9.3C179.102 8.76667 178.809 8.3 178.422 7.9C178.049 7.5 177.602 7.18667 177.082 6.96C176.562 6.72 175.996 6.6 175.382 6.6C174.756 6.6 174.182 6.71333 173.662 6.94C173.156 7.16667 172.716 7.48 172.342 7.88C171.982 8.28 171.696 8.74667 171.482 9.28C171.282 9.8 171.182 10.36 171.182 10.96V11C171.182 11.6 171.282 12.1667 171.482 12.7C171.696 13.2333 171.989 13.7 172.362 14.1C172.749 14.5 173.196 14.82 173.702 15.06C174.222 15.2867 174.796 15.4 175.422 15.4C176.036 15.4 176.602 15.2867 177.122 15.06C177.642 14.8333 178.082 14.52 178.442 14.12C178.816 13.72 179.102 13.26 179.302 12.74C179.516 12.2067 179.622 11.64 179.622 11.04ZM201.575 18H198.515V8.86L194.575 14.84H194.495L190.595 8.92V18H187.575V4H190.895L194.575 9.92L198.255 4H201.575V18ZM210.158 18H207.078V4H210.158V18ZM227.957 15.74C227.597 16.1267 227.223 16.4733 226.837 16.78C226.45 17.0867 226.023 17.3533 225.557 17.58C225.103 17.7933 224.603 17.9533 224.057 18.06C223.51 18.18 222.897 18.24 222.217 18.24C221.19 18.24 220.237 18.0533 219.357 17.68C218.477 17.3067 217.717 16.8 217.077 16.16C216.437 15.5067 215.937 14.74 215.577 13.86C215.217 12.98 215.037 12.04 215.037 11.04V11C215.037 10 215.217 9.06667 215.577 8.2C215.937 7.32 216.437 6.55333 217.077 5.9C217.717 5.23333 218.483 4.71333 219.377 4.34C220.27 3.95333 221.257 3.76 222.337 3.76C222.99 3.76 223.583 3.81333 224.117 3.92C224.663 4.02667 225.157 4.17333 225.597 4.36C226.037 4.54667 226.443 4.77333 226.817 5.04C227.19 5.30667 227.537 5.6 227.857 5.92L225.897 8.18C225.35 7.68667 224.79 7.3 224.217 7.02C223.657 6.74 223.023 6.6 222.317 6.6C221.73 6.6 221.183 6.71333 220.677 6.94C220.183 7.16667 219.757 7.48 219.397 7.88C219.037 8.28 218.757 8.74667 218.557 9.28C218.357 9.8 218.257 10.36 218.257 10.96V11C218.257 11.6 218.357 12.1667 218.557 12.7C218.757 13.2333 219.03 13.7 219.377 14.1C219.737 14.5 220.163 14.82 220.657 15.06C221.163 15.2867 221.717 15.4 222.317 15.4C223.117 15.4 223.79 15.2533 224.337 14.96C224.897 14.6667 225.45 14.2667 225.997 13.76L227.957 15.74ZM253.258 4L247.598 18.1H244.878L239.218 4H242.618L246.278 13.86L249.938 4H253.258ZM271.058 18H267.838L266.558 14.86H260.638L259.358 18H256.218L262.218 3.9H265.058L271.058 18ZM265.458 12.14L263.598 7.6L261.738 12.14H265.458ZM285.279 18H275.219V4H278.299V15.2H285.279V18ZM301.582 11.9C301.582 12.9667 301.435 13.8933 301.142 14.68C300.862 15.4667 300.455 16.1267 299.922 16.66C299.389 17.18 298.742 17.5733 297.982 17.84C297.222 18.0933 296.375 18.22 295.442 18.22C293.562 18.22 292.082 17.7 291.002 16.66C289.922 15.62 289.382 14.0667 289.382 12V4H292.462V11.92C292.462 13.0667 292.729 13.9333 293.262 14.52C293.795 15.0933 294.535 15.38 295.482 15.38C296.429 15.38 297.169 15.1 297.702 14.54C298.235 13.98 298.502 13.14 298.502 12.02V4H301.582V11.9ZM317.379 18H306.719V4H317.279V6.74H309.779V9.58H316.379V12.32H309.779V15.26H317.379V18ZM342.414 15.74C342.054 16.1267 341.68 16.4733 341.294 16.78C340.907 17.0867 340.48 17.3533 340.014 17.58C339.56 17.7933 339.06 17.9533 338.514 18.06C337.967 18.18 337.354 18.24 336.674 18.24C335.647 18.24 334.694 18.0533 333.814 17.68C332.934 17.3067 332.174 16.8 331.534 16.16C330.894 15.5067 330.394 14.74 330.034 13.86C329.674 12.98 329.494 12.04 329.494 11.04V11C329.494 10 329.674 9.06667 330.034 8.2C330.394 7.32 330.894 6.55333 331.534 5.9C332.174 5.23333 332.94 4.71333 333.834 4.34C334.727 3.95333 335.714 3.76 336.794 3.76C337.447 3.76 338.04 3.81333 338.574 3.92C339.12 4.02667 339.614 4.17333 340.054 4.36C340.494 4.54667 340.9 4.77333 341.274 5.04C341.647 5.30667 341.994 5.6 342.314 5.92L340.354 8.18C339.807 7.68667 339.247 7.3 338.674 7.02C338.114 6.74 337.48 6.6 336.774 6.6C336.187 6.6 335.64 6.71333 335.134 6.94C334.64 7.16667 334.214 7.48 333.854 7.88C333.494 8.28 333.214 8.74667 333.014 9.28C332.814 9.8 332.714 10.36 332.714 10.96V11C332.714 11.6 332.814 12.1667 333.014 12.7C333.214 13.2333 333.487 13.7 333.834 14.1C334.194 14.5 334.62 14.82 335.114 15.06C335.62 15.2867 336.174 15.4 336.774 15.4C337.574 15.4 338.247 15.2533 338.794 14.96C339.354 14.6667 339.907 14.2667 340.454 13.76L342.414 15.74ZM358.979 18H355.379L352.379 13.52H349.959V18H346.879V4H353.279C354.946 4 356.239 4.40667 357.159 5.22C358.093 6.03333 358.559 7.16667 358.559 8.62V8.66C358.559 9.79333 358.279 10.72 357.719 11.44C357.173 12.1467 356.453 12.6667 355.559 13L358.979 18ZM355.439 8.82V8.78C355.439 8.11333 355.226 7.61333 354.799 7.28C354.373 6.94667 353.779 6.78 353.019 6.78H349.959V10.8H353.079C353.839 10.8 354.419 10.62 354.819 10.26C355.233 9.9 355.439 9.42 355.439 8.82ZM373.992 18H363.332V4H373.892V6.74H366.392V9.58H372.992V12.32H366.392V15.26H373.992V18ZM392.371 18H389.151L387.871 14.86H381.951L380.671 18H377.531L383.531 3.9H386.371L392.371 18ZM386.771 12.14L384.911 7.6L383.051 12.14H386.771ZM407.132 6.84H402.872V18H399.792V6.84H395.532V4H407.132V6.84ZM422.16 18H411.5V4H422.06V6.74H414.56V9.58H421.16V12.32H414.56V15.26H422.16V18ZM439.799 11C439.799 11.9867 439.619 12.9067 439.259 13.76C438.899 14.6133 438.385 15.3533 437.719 15.98C437.065 16.6067 436.279 17.1 435.359 17.46C434.452 17.82 433.452 18 432.359 18H426.899V4H432.359C433.452 4 434.452 4.18 435.359 4.54C436.279 4.88667 437.065 5.37333 437.719 6C438.385 6.62667 438.899 7.36667 439.259 8.22C439.619 9.06 439.799 9.97333 439.799 10.96V11ZM436.579 11.04V11C436.579 10.3867 436.472 9.82 436.259 9.3C436.059 8.78 435.772 8.33333 435.399 7.96C435.039 7.58667 434.599 7.3 434.079 7.1C433.559 6.88667 432.985 6.78 432.359 6.78H429.979V15.22H432.359C432.985 15.22 433.559 15.12 434.079 14.92C434.599 14.72 435.039 14.4333 435.399 14.06C435.772 13.6867 436.059 13.2467 436.259 12.74C436.472 12.2333 436.579 11.6667 436.579 11.04Z" fill="#2A5F8F"/>
<path d="M6.804 30.048C5.424 30.924 4.38 31.914 3.672 33.018C2.976 34.11 2.628 35.382 2.628 36.834C2.628 38.286 2.976 39.564 3.672 40.668C4.38 41.76 5.424 42.744 6.804 43.62L6.21 44.538C4.602 43.638 3.366 42.546 2.502 41.262C1.65 39.978 1.224 38.502 1.224 36.834C1.224 35.166 1.65 33.69 2.502 32.406C3.366 31.122 4.602 30.03 6.21 29.13L6.804 30.048ZM19.8827 29.4V36.618C19.8827 37.542 19.7567 38.352 19.5047 39.048C19.2527 39.744 18.8927 40.326 18.4247 40.794C17.9687 41.262 17.4167 41.616 16.7687 41.856C16.1327 42.084 15.4187 42.198 14.6267 42.198C13.8467 42.198 13.1327 42.084 12.4847 41.856C11.8487 41.616 11.2967 41.268 10.8287 40.812C10.3727 40.344 10.0187 39.768 9.76669 39.084C9.51469 38.4 9.38869 37.614 9.38869 36.726V29.4H10.8107V36.636C10.8107 38.004 11.1467 39.054 11.8187 39.786C12.5027 40.518 13.4507 40.884 14.6627 40.884C15.8267 40.884 16.7507 40.536 17.4347 39.84C18.1187 39.144 18.4607 38.106 18.4607 36.726V29.4H19.8827ZM24.3429 32.55C24.3429 32.85 24.3909 33.12 24.4869 33.36C24.5829 33.6 24.7569 33.822 25.0089 34.026C25.2609 34.218 25.6089 34.398 26.0529 34.566C26.4969 34.722 27.0669 34.872 27.7629 35.016C29.1669 35.328 30.1989 35.76 30.8589 36.312C31.5309 36.864 31.8669 37.626 31.8669 38.598C31.8669 39.138 31.7589 39.63 31.5429 40.074C31.3269 40.518 31.0269 40.896 30.6429 41.208C30.2709 41.52 29.8209 41.76 29.2929 41.928C28.7649 42.096 28.1889 42.18 27.5649 42.18C26.5569 42.18 25.6329 42.018 24.7929 41.694C23.9649 41.358 23.1729 40.848 22.4169 40.164L23.2989 39.12C23.9589 39.72 24.6249 40.17 25.2969 40.47C25.9689 40.758 26.7429 40.902 27.6189 40.902C28.4709 40.902 29.1489 40.704 29.6529 40.308C30.1689 39.912 30.4269 39.39 30.4269 38.742C30.4269 38.442 30.3789 38.178 30.2829 37.95C30.1869 37.71 30.0189 37.494 29.7789 37.302C29.5389 37.11 29.2029 36.936 28.7709 36.78C28.3509 36.624 27.8109 36.474 27.1509 36.33C26.4309 36.174 25.8009 35.994 25.2609 35.79C24.7329 35.586 24.2949 35.34 23.9469 35.052C23.5989 34.764 23.3409 34.428 23.1729 34.044C23.0049 33.66 22.9209 33.204 22.9209 32.676C22.9209 32.172 23.0229 31.71 23.2269 31.29C23.4309 30.87 23.7189 30.51 24.0909 30.21C24.4629 29.898 24.9009 29.658 25.4049 29.49C25.9089 29.31 26.4609 29.22 27.0609 29.22C27.9849 29.22 28.7889 29.352 29.4729 29.616C30.1689 29.868 30.8409 30.252 31.4889 30.768L30.6609 31.866C30.0729 31.386 29.4789 31.038 28.8789 30.822C28.2909 30.606 27.6729 30.498 27.0249 30.498C26.6169 30.498 26.2449 30.552 25.9089 30.66C25.5849 30.768 25.3029 30.912 25.0629 31.092C24.8349 31.272 24.6549 31.488 24.5229 31.74C24.4029 31.992 24.3429 32.262 24.3429 32.55ZM45.8286 35.682C45.8286 36.57 45.6666 37.404 45.3426 38.184C45.0186 38.952 44.5566 39.618 43.9566 40.182C43.3686 40.746 42.6606 41.19 41.8326 41.514C41.0166 41.838 40.1166 42 39.1326 42H34.7586V29.4H39.1326C40.1166 29.4 41.0166 29.562 41.8326 29.886C42.6606 30.198 43.3686 30.636 43.9566 31.2C44.5566 31.764 45.0186 32.43 45.3426 33.198C45.6666 33.966 45.8286 34.794 45.8286 35.682ZM44.3526 35.718C44.3526 35.022 44.2266 34.368 43.9746 33.756C43.7346 33.144 43.3866 32.616 42.9306 32.172C42.4866 31.716 41.9406 31.362 41.2926 31.11C40.6446 30.846 39.9246 30.714 39.1326 30.714H36.1806V40.686H39.1326C39.9246 40.686 40.6446 40.56 41.2926 40.308C41.9406 40.056 42.4866 39.708 42.9306 39.264C43.3866 38.808 43.7346 38.28 43.9746 37.68C44.2266 37.08 44.3526 36.426 44.3526 35.718ZM64.8731 31.794L60.2831 38.544H60.2111L55.6211 31.812V42H54.2351V29.4H55.6751L60.2651 36.276L64.8551 29.4H66.2951V42H64.8731V31.794ZM71.2481 30.66H69.6641V29.13H71.2481V30.66ZM71.1401 42H69.7541V32.694H71.1401V42ZM75.8686 42H74.4826V28.86H75.8686V42ZM80.5971 42H79.2111V28.86H80.5971V42ZM85.4336 30.66H83.8496V29.13H85.4336V30.66ZM85.3256 42H83.9396V32.694H85.3256V42ZM97.6681 37.338C97.6681 37.998 97.5421 38.628 97.2901 39.228C97.0501 39.816 96.7141 40.332 96.2821 40.776C95.8501 41.22 95.3341 41.574 94.7341 41.838C94.1341 42.09 93.4861 42.216 92.7901 42.216C92.0941 42.216 91.4521 42.09 90.8641 41.838C90.2761 41.574 89.7661 41.226 89.3341 40.794C88.9021 40.35 88.5661 39.834 88.3261 39.246C88.0861 38.658 87.9661 38.034 87.9661 37.374C87.9661 36.714 88.0861 36.09 88.3261 35.502C88.5661 34.902 88.9021 34.38 89.3341 33.936C89.7661 33.492 90.2761 33.144 90.8641 32.892C91.4641 32.628 92.1181 32.496 92.8261 32.496C93.5221 32.496 94.1641 32.628 94.7521 32.892C95.3521 33.144 95.8681 33.492 96.3001 33.936C96.7321 34.368 97.0681 34.878 97.3081 35.466C97.5481 36.054 97.6681 36.678 97.6681 37.338ZM96.2461 37.374C96.2461 36.87 96.1561 36.396 95.9761 35.952C95.8081 35.508 95.5681 35.124 95.2561 34.8C94.9441 34.464 94.5781 34.2 94.1581 34.008C93.7381 33.816 93.2821 33.72 92.7901 33.72C92.2861 33.72 91.8241 33.816 91.4041 34.008C90.9841 34.188 90.6241 34.446 90.3241 34.782C90.0361 35.106 89.8081 35.49 89.6401 35.934C89.4721 36.366 89.3881 36.834 89.3881 37.338C89.3881 37.842 89.4721 38.316 89.6401 38.76C89.8201 39.204 90.0601 39.588 90.3601 39.912C90.6721 40.236 91.0381 40.494 91.4581 40.686C91.8781 40.878 92.3341 40.974 92.8261 40.974C93.3301 40.974 93.7921 40.884 94.2121 40.704C94.6321 40.512 94.9921 40.254 95.2921 39.93C95.5921 39.606 95.8261 39.228 95.9941 38.796C96.1621 38.352 96.2461 37.878 96.2461 37.374ZM101.565 36.672V42H100.179V32.694H101.565V34.314C101.877 33.81 102.285 33.384 102.789 33.036C103.293 32.676 103.947 32.496 104.751 32.496C105.315 32.496 105.813 32.586 106.245 32.766C106.689 32.946 107.061 33.204 107.361 33.54C107.673 33.864 107.907 34.254 108.063 34.71C108.231 35.166 108.315 35.67 108.315 36.222V42H106.929V36.564C106.929 35.7 106.707 35.016 106.263 34.512C105.819 34.008 105.183 33.756 104.355 33.756C103.959 33.756 103.587 33.828 103.239 33.972C102.903 34.104 102.609 34.302 102.357 34.566C102.105 34.818 101.907 35.124 101.763 35.484C101.631 35.844 101.565 36.24 101.565 36.672ZM110.731 30.048L111.325 29.13C112.933 30.03 114.163 31.122 115.015 32.406C115.879 33.69 116.311 35.166 116.311 36.834C116.311 38.502 115.879 39.978 115.015 41.262C114.163 42.546 112.933 43.638 111.325 44.538L110.731 43.62C112.111 42.744 113.149 41.76 113.845 40.668C114.553 39.564 114.907 38.286 114.907 36.834C114.907 35.382 114.553 34.11 113.845 33.018C113.149 31.914 112.111 30.924 110.731 30.048Z" fill="#717171"/>
</svg>
