<svg width="569" height="486" viewBox="0 0 569 486" fill="none" xmlns="http://www.w3.org/2000/svg">
<rect x="196" y="99" width="86" height="27" rx="7" fill="#9BB7E0"/>
<rect x="347" y="99" width="86" height="27" rx="7" fill="#2A5F8F"/>
<path d="M209.685 106.498C208.965 106.498 208.347 106.684 207.831 107.056C207.315 107.416 206.805 107.95 206.301 108.658L205.257 107.902C205.545 107.482 205.839 107.104 206.139 106.768C206.439 106.432 206.763 106.15 207.111 105.922C207.471 105.694 207.867 105.52 208.299 105.4C208.743 105.28 209.241 105.22 209.793 105.22C210.369 105.22 210.891 105.31 211.359 105.49C211.839 105.67 212.253 105.922 212.601 106.246C212.949 106.558 213.219 106.936 213.411 107.38C213.603 107.812 213.699 108.286 213.699 108.802C213.699 109.27 213.633 109.696 213.501 110.08C213.381 110.464 213.189 110.848 212.925 111.232C212.661 111.604 212.331 111.994 211.935 112.402C211.539 112.798 211.065 113.236 210.513 113.716L207.147 116.704H213.825V118H205.023V116.902L209.595 112.87C210.075 112.438 210.483 112.048 210.819 111.7C211.155 111.352 211.425 111.028 211.629 110.728C211.845 110.416 211.995 110.116 212.079 109.828C212.175 109.528 212.223 109.222 212.223 108.91C212.223 108.538 212.151 108.208 212.007 107.92C211.875 107.62 211.695 107.368 211.467 107.164C211.239 106.948 210.969 106.786 210.657 106.678C210.345 106.558 210.021 106.498 209.685 106.498ZM215.763 119.566C216.219 119.398 216.543 119.188 216.735 118.936C216.927 118.696 217.005 118.384 216.969 118H216.321V116.11H217.977V117.73C217.977 118.462 217.815 119.014 217.491 119.386C217.167 119.77 216.663 120.04 215.979 120.196L215.763 119.566ZM218.954 106.372L222.032 105.31H223.076V118H221.672V106.786L219.296 107.524L218.954 106.372ZM232.803 105.31H234.045V113.824H236.007V115.012H234.045V118H232.677V115.012H226.035L225.675 113.986L232.803 105.31ZM232.677 113.824V107.326L227.385 113.824H232.677ZM238.76 111.538L239.12 105.4H246.374V106.714H240.362L240.092 110.746C240.464 110.578 240.836 110.446 241.208 110.35C241.592 110.242 242.048 110.188 242.576 110.188C243.188 110.188 243.758 110.278 244.286 110.458C244.814 110.638 245.276 110.896 245.672 111.232C246.068 111.556 246.374 111.958 246.59 112.438C246.818 112.918 246.932 113.458 246.932 114.058C246.932 114.682 246.818 115.252 246.59 115.768C246.374 116.272 246.068 116.71 245.672 117.082C245.276 117.442 244.802 117.724 244.25 117.928C243.698 118.12 243.092 118.216 242.432 118.216C241.532 118.216 240.698 118.03 239.93 117.658C239.174 117.274 238.508 116.794 237.932 116.218L238.868 115.192C239.42 115.732 239.99 116.158 240.578 116.47C241.178 116.77 241.802 116.92 242.45 116.92C242.894 116.92 243.302 116.854 243.674 116.722C244.058 116.578 244.382 116.38 244.646 116.128C244.91 115.876 245.114 115.582 245.258 115.246C245.414 114.898 245.492 114.52 245.492 114.112C245.492 113.716 245.414 113.356 245.258 113.032C245.114 112.708 244.904 112.432 244.628 112.204C244.352 111.964 244.022 111.778 243.638 111.646C243.254 111.514 242.828 111.448 242.36 111.448C241.82 111.448 241.334 111.52 240.902 111.664C240.482 111.796 240.086 111.964 239.714 112.168L238.76 111.538ZM251.041 118H249.385V116.11H251.041V118ZM262.473 106.624L261.645 107.722C261.177 107.326 260.709 107.02 260.241 106.804C259.773 106.588 259.251 106.48 258.675 106.48C258.099 106.48 257.583 106.618 257.127 106.894C256.671 107.17 256.281 107.554 255.957 108.046C255.645 108.538 255.405 109.126 255.237 109.81C255.069 110.482 254.985 111.226 254.985 112.042C255.153 111.79 255.345 111.55 255.561 111.322C255.789 111.082 256.047 110.878 256.335 110.71C256.635 110.53 256.965 110.386 257.325 110.278C257.697 110.17 258.111 110.116 258.567 110.116C259.155 110.116 259.713 110.206 260.241 110.386C260.769 110.566 261.231 110.83 261.627 111.178C262.023 111.514 262.335 111.922 262.563 112.402C262.803 112.882 262.923 113.416 262.923 114.004C262.923 114.616 262.803 115.18 262.563 115.696C262.335 116.212 262.017 116.656 261.609 117.028C261.213 117.4 260.739 117.694 260.187 117.91C259.635 118.114 259.041 118.216 258.405 118.216C257.709 118.216 257.079 118.102 256.515 117.874C255.963 117.646 255.489 117.334 255.093 116.938C254.841 116.686 254.613 116.41 254.409 116.11C254.217 115.81 254.055 115.468 253.923 115.084C253.791 114.7 253.689 114.262 253.617 113.77C253.545 113.266 253.509 112.69 253.509 112.042C253.509 111.082 253.623 110.188 253.851 109.36C254.091 108.52 254.433 107.794 254.877 107.182C255.333 106.558 255.885 106.072 256.533 105.724C257.181 105.364 257.919 105.184 258.747 105.184C259.503 105.184 260.175 105.31 260.763 105.562C261.351 105.814 261.921 106.168 262.473 106.624ZM261.465 114.058C261.465 113.662 261.387 113.302 261.231 112.978C261.087 112.642 260.877 112.354 260.601 112.114C260.337 111.874 260.013 111.688 259.629 111.556C259.257 111.412 258.843 111.34 258.387 111.34C257.919 111.34 257.487 111.418 257.091 111.574C256.707 111.73 256.377 111.94 256.101 112.204C255.825 112.456 255.609 112.75 255.453 113.086C255.309 113.41 255.237 113.752 255.237 114.112C255.237 114.52 255.315 114.898 255.471 115.246C255.627 115.594 255.843 115.894 256.119 116.146C256.407 116.398 256.743 116.596 257.127 116.74C257.523 116.884 257.955 116.956 258.423 116.956C258.891 116.956 259.311 116.884 259.683 116.74C260.055 116.584 260.373 116.38 260.637 116.128C260.901 115.864 261.105 115.558 261.249 115.21C261.393 114.85 261.465 114.466 261.465 114.058ZM269.591 106.498C268.871 106.498 268.253 106.684 267.737 107.056C267.221 107.416 266.711 107.95 266.207 108.658L265.163 107.902C265.451 107.482 265.745 107.104 266.045 106.768C266.345 106.432 266.669 106.15 267.017 105.922C267.377 105.694 267.773 105.52 268.205 105.4C268.649 105.28 269.147 105.22 269.699 105.22C270.275 105.22 270.797 105.31 271.265 105.49C271.745 105.67 272.159 105.922 272.507 106.246C272.855 106.558 273.125 106.936 273.317 107.38C273.509 107.812 273.605 108.286 273.605 108.802C273.605 109.27 273.539 109.696 273.407 110.08C273.287 110.464 273.095 110.848 272.831 111.232C272.567 111.604 272.237 111.994 271.841 112.402C271.445 112.798 270.971 113.236 270.419 113.716L267.053 116.704H273.731V118H264.929V116.902L269.501 112.87C269.981 112.438 270.389 112.048 270.725 111.7C271.061 111.352 271.331 111.028 271.535 110.728C271.751 110.416 271.901 110.116 271.985 109.828C272.081 109.528 272.129 109.222 272.129 108.91C272.129 108.538 272.057 108.208 271.913 107.92C271.781 107.62 271.601 107.368 271.373 107.164C271.145 106.948 270.875 106.786 270.563 106.678C270.251 106.558 269.927 106.498 269.591 106.498Z" fill="#151515"/>
<path d="M238.5 133L232.005 125.5L244.995 125.5L238.5 133Z" fill="#9BB7E0"/>
<path d="M239 211V139" stroke="black" stroke-dasharray="2 2"/>
<path d="M226 216C226 212.134 229.134 209 233 209H252V463H226V216Z" fill="#9BB7E0"/>
<rect x="45" y="99" width="86" height="27" rx="7" fill="#9BB7E0"/>
<path d="M57.6774 106.498C56.9574 106.498 56.3394 106.684 55.8234 107.056C55.3074 107.416 54.7974 107.95 54.2934 108.658L53.2494 107.902C53.5374 107.482 53.8314 107.104 54.1314 106.768C54.4314 106.432 54.7554 106.15 55.1034 105.922C55.4634 105.694 55.8594 105.52 56.2914 105.4C56.7354 105.28 57.2334 105.22 57.7854 105.22C58.3614 105.22 58.8834 105.31 59.3514 105.49C59.8314 105.67 60.2454 105.922 60.5934 106.246C60.9414 106.558 61.2114 106.936 61.4034 107.38C61.5954 107.812 61.6914 108.286 61.6914 108.802C61.6914 109.27 61.6254 109.696 61.4934 110.08C61.3734 110.464 61.1814 110.848 60.9174 111.232C60.6534 111.604 60.3234 111.994 59.9274 112.402C59.5314 112.798 59.0574 113.236 58.5054 113.716L55.1394 116.704H61.8174V118H53.0154V116.902L57.5874 112.87C58.0674 112.438 58.4754 112.048 58.8114 111.7C59.1474 111.352 59.4174 111.028 59.6214 110.728C59.8374 110.416 59.9874 110.116 60.0714 109.828C60.1674 109.528 60.2154 109.222 60.2154 108.91C60.2154 108.538 60.1434 108.208 59.9994 107.92C59.8674 107.62 59.6874 107.368 59.4594 107.164C59.2314 106.948 58.9614 106.786 58.6494 106.678C58.3374 106.558 58.0134 106.498 57.6774 106.498ZM63.7548 119.566C64.2108 119.398 64.5348 119.188 64.7268 118.936C64.9188 118.696 64.9968 118.384 64.9608 118H64.3128V116.11H65.9688V117.73C65.9688 118.462 65.8068 119.014 65.4828 119.386C65.1588 119.77 64.6548 120.04 63.9708 120.196L63.7548 119.566ZM66.9464 106.372L70.0244 105.31H71.0684V118H69.6644V106.786L67.2884 107.524L66.9464 106.372ZM82.9556 106.624L82.1276 107.722C81.6596 107.326 81.1916 107.02 80.7236 106.804C80.2556 106.588 79.7336 106.48 79.1576 106.48C78.5816 106.48 78.0656 106.618 77.6096 106.894C77.1536 107.17 76.7636 107.554 76.4396 108.046C76.1276 108.538 75.8876 109.126 75.7196 109.81C75.5516 110.482 75.4676 111.226 75.4676 112.042C75.6356 111.79 75.8276 111.55 76.0436 111.322C76.2716 111.082 76.5296 110.878 76.8176 110.71C77.1176 110.53 77.4476 110.386 77.8076 110.278C78.1796 110.17 78.5936 110.116 79.0496 110.116C79.6376 110.116 80.1956 110.206 80.7236 110.386C81.2516 110.566 81.7136 110.83 82.1096 111.178C82.5056 111.514 82.8176 111.922 83.0456 112.402C83.2856 112.882 83.4056 113.416 83.4056 114.004C83.4056 114.616 83.2856 115.18 83.0456 115.696C82.8176 116.212 82.4996 116.656 82.0916 117.028C81.6956 117.4 81.2216 117.694 80.6696 117.91C80.1176 118.114 79.5236 118.216 78.8876 118.216C78.1916 118.216 77.5616 118.102 76.9976 117.874C76.4456 117.646 75.9716 117.334 75.5756 116.938C75.3236 116.686 75.0956 116.41 74.8916 116.11C74.6996 115.81 74.5376 115.468 74.4056 115.084C74.2736 114.7 74.1716 114.262 74.0996 113.77C74.0276 113.266 73.9916 112.69 73.9916 112.042C73.9916 111.082 74.1056 110.188 74.3336 109.36C74.5736 108.52 74.9156 107.794 75.3596 107.182C75.8156 106.558 76.3676 106.072 77.0156 105.724C77.6636 105.364 78.4016 105.184 79.2296 105.184C79.9856 105.184 80.6576 105.31 81.2456 105.562C81.8336 105.814 82.4036 106.168 82.9556 106.624ZM81.9476 114.058C81.9476 113.662 81.8696 113.302 81.7136 112.978C81.5696 112.642 81.3596 112.354 81.0836 112.114C80.8196 111.874 80.4956 111.688 80.1116 111.556C79.7396 111.412 79.3256 111.34 78.8696 111.34C78.4016 111.34 77.9696 111.418 77.5736 111.574C77.1896 111.73 76.8596 111.94 76.5836 112.204C76.3076 112.456 76.0916 112.75 75.9356 113.086C75.7916 113.41 75.7196 113.752 75.7196 114.112C75.7196 114.52 75.7976 114.898 75.9536 115.246C76.1096 115.594 76.3256 115.894 76.6016 116.146C76.8896 116.398 77.2256 116.596 77.6096 116.74C78.0056 116.884 78.4376 116.956 78.9056 116.956C79.3736 116.956 79.7936 116.884 80.1656 116.74C80.5376 116.584 80.8556 116.38 81.1196 116.128C81.3836 115.864 81.5876 115.558 81.7316 115.21C81.8756 114.85 81.9476 114.466 81.9476 114.058ZM90.0739 106.498C89.3539 106.498 88.7359 106.684 88.2199 107.056C87.7039 107.416 87.1939 107.95 86.6899 108.658L85.6459 107.902C85.9339 107.482 86.2279 107.104 86.5279 106.768C86.8279 106.432 87.1519 106.15 87.4999 105.922C87.8599 105.694 88.2559 105.52 88.6879 105.4C89.1319 105.28 89.6299 105.22 90.1819 105.22C90.7579 105.22 91.2799 105.31 91.7479 105.49C92.2279 105.67 92.6419 105.922 92.9899 106.246C93.3379 106.558 93.6079 106.936 93.7999 107.38C93.9919 107.812 94.0879 108.286 94.0879 108.802C94.0879 109.27 94.0219 109.696 93.8899 110.08C93.7699 110.464 93.5779 110.848 93.3139 111.232C93.0499 111.604 92.7199 111.994 92.3239 112.402C91.9279 112.798 91.4539 113.236 90.9019 113.716L87.5359 116.704H94.2139V118H85.4119V116.902L89.9839 112.87C90.4639 112.438 90.8719 112.048 91.2079 111.7C91.5439 111.352 91.8139 111.028 92.0179 110.728C92.2339 110.416 92.3839 110.116 92.4679 109.828C92.5639 109.528 92.6119 109.222 92.6119 108.91C92.6119 108.538 92.5399 108.208 92.3959 107.92C92.2639 107.62 92.0839 107.368 91.8559 107.164C91.6279 106.948 91.3579 106.786 91.0459 106.678C90.7339 106.558 90.4099 106.498 90.0739 106.498ZM98.3652 118H96.7092V116.11H98.3652V118ZM105.261 106.498C104.541 106.498 103.923 106.684 103.407 107.056C102.891 107.416 102.381 107.95 101.877 108.658L100.833 107.902C101.121 107.482 101.415 107.104 101.715 106.768C102.015 106.432 102.339 106.15 102.687 105.922C103.047 105.694 103.443 105.52 103.875 105.4C104.319 105.28 104.817 105.22 105.369 105.22C105.945 105.22 106.467 105.31 106.935 105.49C107.415 105.67 107.829 105.922 108.177 106.246C108.525 106.558 108.795 106.936 108.987 107.38C109.179 107.812 109.275 108.286 109.275 108.802C109.275 109.27 109.209 109.696 109.077 110.08C108.957 110.464 108.765 110.848 108.501 111.232C108.237 111.604 107.907 111.994 107.511 112.402C107.115 112.798 106.641 113.236 106.089 113.716L102.723 116.704H109.401V118H100.599V116.902L105.171 112.87C105.651 112.438 106.059 112.048 106.395 111.7C106.731 111.352 107.001 111.028 107.205 110.728C107.421 110.416 107.571 110.116 107.655 109.828C107.751 109.528 107.799 109.222 107.799 108.91C107.799 108.538 107.727 108.208 107.583 107.92C107.451 107.62 107.271 107.368 107.043 107.164C106.815 106.948 106.545 106.786 106.233 106.678C105.921 106.558 105.597 106.498 105.261 106.498ZM120.915 114.58C120.915 115.12 120.795 115.612 120.555 116.056C120.315 116.5 119.979 116.878 119.547 117.19C119.127 117.502 118.629 117.748 118.053 117.928C117.477 118.096 116.853 118.18 116.181 118.18C115.509 118.18 114.885 118.096 114.309 117.928C113.733 117.748 113.229 117.502 112.797 117.19C112.377 116.878 112.047 116.5 111.807 116.056C111.567 115.612 111.447 115.126 111.447 114.598C111.447 113.842 111.687 113.206 112.167 112.69C112.659 112.162 113.283 111.76 114.039 111.484C113.751 111.352 113.475 111.196 113.211 111.016C112.947 110.824 112.713 110.614 112.509 110.386C112.317 110.146 112.161 109.876 112.041 109.576C111.933 109.276 111.879 108.94 111.879 108.568C111.879 108.076 111.993 107.626 112.221 107.218C112.461 106.81 112.773 106.456 113.157 106.156C113.553 105.856 114.009 105.628 114.525 105.472C115.053 105.304 115.605 105.22 116.181 105.22C116.757 105.22 117.303 105.304 117.819 105.472C118.347 105.628 118.803 105.856 119.187 106.156C119.583 106.456 119.895 106.81 120.123 107.218C120.363 107.626 120.483 108.076 120.483 108.568C120.483 108.94 120.423 109.276 120.303 109.576C120.195 109.876 120.039 110.146 119.835 110.386C119.643 110.614 119.415 110.824 119.151 111.016C118.887 111.196 118.611 111.352 118.323 111.484C119.079 111.76 119.697 112.156 120.177 112.672C120.669 113.188 120.915 113.824 120.915 114.58ZM119.061 108.658C119.061 108.346 118.989 108.058 118.845 107.794C118.701 107.518 118.497 107.284 118.233 107.092C117.981 106.888 117.675 106.732 117.315 106.624C116.967 106.516 116.589 106.462 116.181 106.462C115.773 106.462 115.389 106.516 115.029 106.624C114.681 106.732 114.375 106.888 114.111 107.092C113.859 107.284 113.661 107.512 113.517 107.776C113.373 108.04 113.301 108.334 113.301 108.658C113.301 109.006 113.373 109.324 113.517 109.612C113.673 109.888 113.877 110.128 114.129 110.332C114.393 110.536 114.699 110.698 115.047 110.818C115.407 110.926 115.785 110.98 116.181 110.98C116.577 110.98 116.949 110.926 117.297 110.818C117.657 110.698 117.963 110.536 118.215 110.332C118.479 110.128 118.683 109.888 118.827 109.612C118.983 109.324 119.061 109.006 119.061 108.658ZM119.475 114.562C119.475 114.202 119.385 113.878 119.205 113.59C119.037 113.29 118.803 113.038 118.503 112.834C118.215 112.618 117.867 112.45 117.459 112.33C117.063 112.21 116.637 112.15 116.181 112.15C115.725 112.15 115.293 112.21 114.885 112.33C114.489 112.45 114.141 112.618 113.841 112.834C113.541 113.038 113.307 113.29 113.139 113.59C112.971 113.878 112.887 114.202 112.887 114.562C112.887 114.886 112.959 115.192 113.103 115.48C113.259 115.768 113.475 116.02 113.751 116.236C114.039 116.452 114.387 116.626 114.795 116.758C115.203 116.878 115.665 116.938 116.181 116.938C116.697 116.938 117.159 116.878 117.567 116.758C117.975 116.626 118.317 116.452 118.593 116.236C118.881 116.02 119.097 115.768 119.241 115.48C119.397 115.192 119.475 114.886 119.475 114.562Z" fill="#151515"/>
<path d="M87.5 133L81.0048 125.5L93.9952 125.5L87.5 133Z" fill="#9BB7E0"/>
<path d="M88 208V139" stroke="black" stroke-dasharray="2 2"/>
<path d="M75 213C75 209.134 78.134 206 82 206H101V463H75V213Z" fill="#9BB7E0"/>
<path d="M78.9992 471.8V472.968H72.2152V476.968H78.2792V478.12H72.2152V483H70.9512V471.8H78.9992ZM86.2352 478.552V483H84.9552V478.568L80.2992 471.8H81.8352L85.6112 477.4L89.4192 471.8H90.8912L86.2352 478.552ZM96.2323 472.776C95.5923 472.776 95.043 472.941 94.5843 473.272C94.1256 473.592 93.6723 474.067 93.2243 474.696L92.2963 474.024C92.5523 473.651 92.8136 473.315 93.0803 473.016C93.347 472.717 93.635 472.467 93.9443 472.264C94.2643 472.061 94.6163 471.907 95.0003 471.8C95.395 471.693 95.8376 471.64 96.3283 471.64C96.8403 471.64 97.3043 471.72 97.7203 471.88C98.147 472.04 98.515 472.264 98.8243 472.552C99.1336 472.829 99.3736 473.165 99.5443 473.56C99.715 473.944 99.8003 474.365 99.8003 474.824C99.8003 475.24 99.7416 475.619 99.6243 475.96C99.5176 476.301 99.347 476.643 99.1123 476.984C98.8776 477.315 98.5843 477.661 98.2323 478.024C97.8803 478.376 97.459 478.765 96.9683 479.192L93.9763 481.848H99.9123V483H92.0883V482.024L96.1523 478.44C96.579 478.056 96.9416 477.709 97.2403 477.4C97.539 477.091 97.779 476.803 97.9603 476.536C98.1523 476.259 98.2856 475.992 98.3603 475.736C98.4456 475.469 98.4883 475.197 98.4883 474.92C98.4883 474.589 98.4243 474.296 98.2963 474.04C98.179 473.773 98.019 473.549 97.8163 473.368C97.6136 473.176 97.3736 473.032 97.0963 472.936C96.819 472.829 96.531 472.776 96.2323 472.776ZM101.346 472.664L104.082 471.72H105.01V483H103.762V473.032L101.65 473.688L101.346 472.664Z" fill="black"/>
<path d="M228.077 471.8V472.968H221.293V476.968H227.357V478.12H221.293V483H220.029V471.8H228.077ZM235.313 478.552V483H234.033V478.568L229.377 471.8H230.913L234.689 477.4L238.497 471.8H239.969L235.313 478.552ZM245.31 472.776C244.67 472.776 244.121 472.941 243.662 473.272C243.204 473.592 242.75 474.067 242.302 474.696L241.374 474.024C241.63 473.651 241.892 473.315 242.158 473.016C242.425 472.717 242.713 472.467 243.022 472.264C243.342 472.061 243.694 471.907 244.078 471.8C244.473 471.693 244.916 471.64 245.406 471.64C245.918 471.64 246.382 471.72 246.798 471.88C247.225 472.04 247.593 472.264 247.902 472.552C248.212 472.829 248.452 473.165 248.622 473.56C248.793 473.944 248.878 474.365 248.878 474.824C248.878 475.24 248.82 475.619 248.702 475.96C248.596 476.301 248.425 476.643 248.19 476.984C247.956 477.315 247.662 477.661 247.31 478.024C246.958 478.376 246.537 478.765 246.046 479.192L243.054 481.848H248.99V483H241.166V482.024L245.23 478.44C245.657 478.056 246.02 477.709 246.318 477.4C246.617 477.091 246.857 476.803 247.038 476.536C247.23 476.259 247.364 475.992 247.438 475.736C247.524 475.469 247.566 475.197 247.566 474.92C247.566 474.589 247.502 474.296 247.374 474.04C247.257 473.773 247.097 473.549 246.894 473.368C246.692 473.176 246.452 473.032 246.174 472.936C245.897 472.829 245.609 472.776 245.31 472.776ZM254.889 472.776C254.249 472.776 253.699 472.941 253.241 473.272C252.782 473.592 252.329 474.067 251.881 474.696L250.953 474.024C251.209 473.651 251.47 473.315 251.737 473.016C252.003 472.717 252.291 472.467 252.601 472.264C252.921 472.061 253.273 471.907 253.657 471.8C254.051 471.693 254.494 471.64 254.985 471.64C255.497 471.64 255.961 471.72 256.377 471.88C256.803 472.04 257.171 472.264 257.481 472.552C257.79 472.829 258.03 473.165 258.201 473.56C258.371 473.944 258.457 474.365 258.457 474.824C258.457 475.24 258.398 475.619 258.281 475.96C258.174 476.301 258.003 476.643 257.769 476.984C257.534 477.315 257.241 477.661 256.889 478.024C256.537 478.376 256.115 478.765 255.625 479.192L252.633 481.848H258.569V483H250.745V482.024L254.809 478.44C255.235 478.056 255.598 477.709 255.897 477.4C256.195 477.091 256.435 476.803 256.617 476.536C256.809 476.259 256.942 475.992 257.017 475.736C257.102 475.469 257.145 475.197 257.145 474.92C257.145 474.589 257.081 474.296 256.953 474.04C256.835 473.773 256.675 473.549 256.473 473.368C256.27 473.176 256.03 473.032 255.753 472.936C255.475 472.829 255.187 472.776 254.889 472.776Z" fill="black"/>
<path d="M359.614 107.2C359.038 107.2 358.528 107.356 358.084 107.668C357.652 107.98 357.19 108.454 356.698 109.09L355.132 107.866C355.432 107.446 355.738 107.074 356.05 106.75C356.362 106.414 356.698 106.138 357.058 105.922C357.43 105.694 357.832 105.52 358.264 105.4C358.708 105.28 359.212 105.22 359.776 105.22C360.4 105.22 360.97 105.31 361.486 105.49C362.002 105.67 362.44 105.928 362.8 106.264C363.16 106.6 363.436 107.002 363.628 107.47C363.832 107.926 363.934 108.436 363.934 109C363.934 109.504 363.868 109.954 363.736 110.35C363.604 110.746 363.4 111.13 363.124 111.502C362.86 111.874 362.518 112.252 362.098 112.636C361.69 113.02 361.21 113.44 360.658 113.896L358.066 116.056H364.06V118H354.952V116.254L359.29 112.564C359.722 112.204 360.088 111.88 360.388 111.592C360.688 111.292 360.928 111.01 361.108 110.746C361.3 110.482 361.438 110.224 361.522 109.972C361.606 109.72 361.648 109.45 361.648 109.162C361.648 108.538 361.45 108.058 361.054 107.722C360.67 107.374 360.19 107.2 359.614 107.2ZM365.721 119.692C366.825 119.476 367.335 118.912 367.251 118H366.333V115.534H368.727V117.622C368.727 118.63 368.493 119.362 368.025 119.818C367.557 120.274 366.867 120.538 365.955 120.61L365.721 119.692ZM369.515 106.39L372.899 105.31H374.447V118H372.251V107.56L369.983 108.19L369.515 106.39ZM381.728 107.2C381.152 107.2 380.642 107.356 380.198 107.668C379.766 107.98 379.304 108.454 378.812 109.09L377.246 107.866C377.546 107.446 377.852 107.074 378.164 106.75C378.476 106.414 378.812 106.138 379.172 105.922C379.544 105.694 379.946 105.52 380.378 105.4C380.822 105.28 381.326 105.22 381.89 105.22C382.514 105.22 383.084 105.31 383.6 105.49C384.116 105.67 384.554 105.928 384.914 106.264C385.274 106.6 385.55 107.002 385.742 107.47C385.946 107.926 386.048 108.436 386.048 109C386.048 109.504 385.982 109.954 385.85 110.35C385.718 110.746 385.514 111.13 385.238 111.502C384.974 111.874 384.632 112.252 384.212 112.636C383.804 113.02 383.324 113.44 382.772 113.896L380.18 116.056H386.174V118H377.066V116.254L381.404 112.564C381.836 112.204 382.202 111.88 382.502 111.592C382.802 111.292 383.042 111.01 383.222 110.746C383.414 110.482 383.552 110.224 383.636 109.972C383.72 109.72 383.762 109.45 383.762 109.162C383.762 108.538 383.564 108.058 383.168 107.722C382.784 107.374 382.304 107.2 381.728 107.2ZM397.699 114.508C397.699 115.072 397.579 115.582 397.339 116.038C397.099 116.494 396.763 116.884 396.331 117.208C395.899 117.52 395.389 117.76 394.801 117.928C394.213 118.096 393.577 118.18 392.893 118.18C392.209 118.18 391.573 118.096 390.985 117.928C390.397 117.748 389.887 117.502 389.455 117.19C389.023 116.878 388.687 116.5 388.447 116.056C388.207 115.6 388.087 115.102 388.087 114.562C388.087 113.782 388.285 113.146 388.681 112.654C389.077 112.162 389.635 111.766 390.355 111.466C389.827 111.19 389.389 110.83 389.041 110.386C388.693 109.93 388.519 109.348 388.519 108.64C388.519 108.16 388.627 107.71 388.843 107.29C389.071 106.87 389.377 106.51 389.761 106.21C390.145 105.898 390.601 105.658 391.129 105.49C391.669 105.31 392.257 105.22 392.893 105.22C393.517 105.22 394.099 105.31 394.639 105.49C395.179 105.658 395.641 105.898 396.025 106.21C396.409 106.51 396.709 106.87 396.925 107.29C397.153 107.71 397.267 108.16 397.267 108.64C397.267 109.348 397.093 109.93 396.745 110.386C396.397 110.83 395.959 111.19 395.431 111.466C396.115 111.778 396.661 112.174 397.069 112.654C397.489 113.134 397.699 113.752 397.699 114.508ZM395.143 108.856C395.143 108.352 394.939 107.932 394.531 107.596C394.123 107.248 393.577 107.074 392.893 107.074C392.209 107.074 391.663 107.248 391.255 107.596C390.847 107.932 390.643 108.346 390.643 108.838C390.643 109.402 390.853 109.858 391.273 110.206C391.705 110.554 392.245 110.728 392.893 110.728C393.541 110.728 394.075 110.554 394.495 110.206C394.927 109.858 395.143 109.408 395.143 108.856ZM395.539 114.418C395.539 114.13 395.467 113.866 395.323 113.626C395.191 113.386 395.005 113.182 394.765 113.014C394.537 112.846 394.261 112.72 393.937 112.636C393.613 112.54 393.265 112.492 392.893 112.492C392.521 112.492 392.173 112.54 391.849 112.636C391.525 112.72 391.243 112.846 391.003 113.014C390.775 113.182 390.589 113.386 390.445 113.626C390.313 113.866 390.247 114.13 390.247 114.418C390.247 114.958 390.481 115.414 390.949 115.786C391.417 116.146 392.065 116.326 392.893 116.326C393.721 116.326 394.369 116.146 394.837 115.786C395.305 115.414 395.539 114.958 395.539 114.418ZM402.179 118H399.785V115.534H402.179V118ZM413.871 114.508C413.871 115.072 413.751 115.582 413.511 116.038C413.271 116.494 412.935 116.884 412.503 117.208C412.071 117.52 411.561 117.76 410.973 117.928C410.385 118.096 409.749 118.18 409.065 118.18C408.381 118.18 407.745 118.096 407.157 117.928C406.569 117.748 406.059 117.502 405.627 117.19C405.195 116.878 404.859 116.5 404.619 116.056C404.379 115.6 404.259 115.102 404.259 114.562C404.259 113.782 404.457 113.146 404.853 112.654C405.249 112.162 405.807 111.766 406.527 111.466C405.999 111.19 405.561 110.83 405.213 110.386C404.865 109.93 404.691 109.348 404.691 108.64C404.691 108.16 404.799 107.71 405.015 107.29C405.243 106.87 405.549 106.51 405.933 106.21C406.317 105.898 406.773 105.658 407.301 105.49C407.841 105.31 408.429 105.22 409.065 105.22C409.689 105.22 410.271 105.31 410.811 105.49C411.351 105.658 411.813 105.898 412.197 106.21C412.581 106.51 412.881 106.87 413.097 107.29C413.325 107.71 413.439 108.16 413.439 108.64C413.439 109.348 413.265 109.93 412.917 110.386C412.569 110.83 412.131 111.19 411.603 111.466C412.287 111.778 412.833 112.174 413.241 112.654C413.661 113.134 413.871 113.752 413.871 114.508ZM411.315 108.856C411.315 108.352 411.111 107.932 410.703 107.596C410.295 107.248 409.749 107.074 409.065 107.074C408.381 107.074 407.835 107.248 407.427 107.596C407.019 107.932 406.815 108.346 406.815 108.838C406.815 109.402 407.025 109.858 407.445 110.206C407.877 110.554 408.417 110.728 409.065 110.728C409.713 110.728 410.247 110.554 410.667 110.206C411.099 109.858 411.315 109.408 411.315 108.856ZM411.711 114.418C411.711 114.13 411.639 113.866 411.495 113.626C411.363 113.386 411.177 113.182 410.937 113.014C410.709 112.846 410.433 112.72 410.109 112.636C409.785 112.54 409.437 112.492 409.065 112.492C408.693 112.492 408.345 112.54 408.021 112.636C407.697 112.72 407.415 112.846 407.175 113.014C406.947 113.182 406.761 113.386 406.617 113.626C406.485 113.866 406.419 114.13 406.419 114.418C406.419 114.958 406.653 115.414 407.121 115.786C407.589 116.146 408.237 116.326 409.065 116.326C409.893 116.326 410.541 116.146 411.009 115.786C411.477 115.414 411.711 114.958 411.711 114.418ZM416.424 111.574L416.784 105.4H424.308V107.362H418.692L418.494 110.314C418.794 110.206 419.094 110.122 419.394 110.062C419.706 109.99 420.072 109.954 420.492 109.954C421.104 109.954 421.674 110.038 422.202 110.206C422.742 110.362 423.21 110.608 423.606 110.944C424.002 111.268 424.308 111.682 424.524 112.186C424.752 112.678 424.866 113.26 424.866 113.932C424.866 114.58 424.752 115.168 424.524 115.696C424.308 116.224 423.996 116.674 423.588 117.046C423.18 117.418 422.688 117.706 422.112 117.91C421.536 118.114 420.9 118.216 420.204 118.216C419.232 118.216 418.368 118.042 417.612 117.694C416.856 117.334 416.178 116.866 415.578 116.29L416.946 114.688C417.45 115.156 417.966 115.528 418.494 115.804C419.034 116.068 419.598 116.2 420.186 116.2C420.942 116.2 421.548 116.002 422.004 115.606C422.46 115.21 422.688 114.676 422.688 114.004C422.688 113.356 422.448 112.846 421.968 112.474C421.5 112.09 420.87 111.898 420.078 111.898C419.622 111.898 419.202 111.952 418.818 112.06C418.434 112.168 418.08 112.3 417.756 112.456L416.424 111.574Z" fill="white"/>
<path d="M389.5 133L383.005 125.5L395.995 125.5L389.5 133Z" fill="#2A5F8F"/>
<path d="M390 216V139" stroke="black" stroke-dasharray="2 2"/>
<path d="M377 221C377 217.134 380.134 214 384 214H403V463H377V221Z" fill="#2A5F8F"/>
<path d="M378.96 471.8V472.968H372.176V476.968H378.24V478.12H372.176V483H370.912V471.8H378.96ZM386.196 478.552V483H384.916V478.568L380.26 471.8H381.796L385.572 477.4L389.38 471.8H390.852L386.196 478.552ZM396.193 472.776C395.553 472.776 395.004 472.941 394.545 473.272C394.087 473.592 393.633 474.067 393.185 474.696L392.257 474.024C392.513 473.651 392.775 473.315 393.041 473.016C393.308 472.717 393.596 472.467 393.905 472.264C394.225 472.061 394.577 471.907 394.961 471.8C395.356 471.693 395.799 471.64 396.289 471.64C396.801 471.64 397.265 471.72 397.681 471.88C398.108 472.04 398.476 472.264 398.785 472.552C399.095 472.829 399.335 473.165 399.505 473.56C399.676 473.944 399.761 474.365 399.761 474.824C399.761 475.24 399.703 475.619 399.585 475.96C399.479 476.301 399.308 476.643 399.073 476.984C398.839 477.315 398.545 477.661 398.193 478.024C397.841 478.376 397.42 478.765 396.929 479.192L393.937 481.848H399.873V483H392.049V482.024L396.113 478.44C396.54 478.056 396.903 477.709 397.201 477.4C397.5 477.091 397.74 476.803 397.921 476.536C398.113 476.259 398.247 475.992 398.321 475.736C398.407 475.469 398.449 475.197 398.449 474.92C398.449 474.589 398.385 474.296 398.257 474.04C398.14 473.773 397.98 473.549 397.777 473.368C397.575 473.176 397.335 473.032 397.057 472.936C396.78 472.829 396.492 472.776 396.193 472.776ZM407.723 472.936H402.251V471.8H409.403V472.728L405.883 476.632C406.374 476.675 406.843 476.765 407.291 476.904C407.739 477.043 408.129 477.24 408.459 477.496C408.801 477.752 409.073 478.072 409.275 478.456C409.478 478.84 409.579 479.288 409.579 479.8C409.579 480.301 409.478 480.76 409.275 481.176C409.083 481.592 408.817 481.949 408.475 482.248C408.145 482.547 407.75 482.781 407.291 482.952C406.843 483.112 406.358 483.192 405.835 483.192C404.897 483.192 404.081 483.011 403.387 482.648C402.694 482.275 402.118 481.789 401.659 481.192L402.571 480.376C403.009 480.909 403.489 481.32 404.011 481.608C404.545 481.896 405.158 482.04 405.851 482.04C406.193 482.04 406.513 481.992 406.811 481.896C407.11 481.789 407.366 481.64 407.579 481.448C407.803 481.256 407.979 481.027 408.107 480.76C408.235 480.483 408.299 480.179 408.299 479.848C408.299 479.144 408.006 478.605 407.419 478.232C406.843 477.859 406.091 477.672 405.163 477.672H404.443L404.187 476.92L407.723 472.936Z" fill="black"/>
<path d="M0 463H478" stroke="#B1B3B6"/>
<path d="M0 54L478 54" stroke="#B1B3B6"/>
<path d="M14.58 11C14.58 11.9867 14.4 12.9067 14.04 13.76C13.68 14.6133 13.1667 15.3533 12.5 15.98C11.8467 16.6067 11.06 17.1 10.14 17.46C9.23333 17.82 8.23333 18 7.14 18H1.68V4H7.14C8.23333 4 9.23333 4.18 10.14 4.54C11.06 4.88667 11.8467 5.37333 12.5 6C13.1667 6.62667 13.68 7.36667 14.04 8.22C14.4 9.06 14.58 9.97333 14.58 10.96V11ZM11.36 11.04V11C11.36 10.3867 11.2533 9.82 11.04 9.3C10.84 8.78 10.5533 8.33333 10.18 7.96C9.82 7.58667 9.38 7.3 8.86 7.1C8.34 6.88667 7.76667 6.78 7.14 6.78H4.76V15.22H7.14C7.76667 15.22 8.34 15.12 8.86 14.92C9.38 14.72 9.82 14.4333 10.18 14.06C10.5533 13.6867 10.84 13.2467 11.04 12.74C11.2533 12.2333 11.36 11.6667 11.36 11.04ZM22.5445 18H19.4645V4H22.5445V18ZM40.1433 18H36.5433L33.5433 13.52H31.1233V18H28.0433V4H34.4433C36.1099 4 37.4033 4.40667 38.3233 5.22C39.2566 6.03333 39.7233 7.16667 39.7233 8.62V8.66C39.7233 9.79333 39.4433 10.72 38.8833 11.44C38.3366 12.1467 37.6166 12.6667 36.7233 13L40.1433 18ZM36.6033 8.82V8.78C36.6033 8.11333 36.3899 7.61333 35.9633 7.28C35.5366 6.94667 34.9433 6.78 34.1833 6.78H31.1233V10.8H34.2433C35.0033 10.8 35.5833 10.62 35.9833 10.26C36.3966 9.9 36.6033 9.42 36.6033 8.82ZM55.1564 18H44.4964V4H55.0564V6.74H47.5564V9.58H54.1564V12.32H47.5564V15.26H55.1564V18ZM72.1948 15.74C71.8348 16.1267 71.4615 16.4733 71.0748 16.78C70.6882 17.0867 70.2615 17.3533 69.7948 17.58C69.3415 17.7933 68.8415 17.9533 68.2948 18.06C67.7482 18.18 67.1348 18.24 66.4548 18.24C65.4282 18.24 64.4748 18.0533 63.5948 17.68C62.7148 17.3067 61.9548 16.8 61.3148 16.16C60.6748 15.5067 60.1748 14.74 59.8148 13.86C59.4548 12.98 59.2748 12.04 59.2748 11.04V11C59.2748 10 59.4548 9.06667 59.8148 8.2C60.1748 7.32 60.6748 6.55333 61.3148 5.9C61.9548 5.23333 62.7215 4.71333 63.6148 4.34C64.5082 3.95333 65.4948 3.76 66.5748 3.76C67.2282 3.76 67.8215 3.81333 68.3548 3.92C68.9015 4.02667 69.3948 4.17333 69.8348 4.36C70.2748 4.54667 70.6815 4.77333 71.0548 5.04C71.4282 5.30667 71.7748 5.6 72.0948 5.92L70.1348 8.18C69.5882 7.68667 69.0282 7.3 68.4548 7.02C67.8948 6.74 67.2615 6.6 66.5548 6.6C65.9682 6.6 65.4215 6.71333 64.9148 6.94C64.4215 7.16667 63.9948 7.48 63.6348 7.88C63.2748 8.28 62.9948 8.74667 62.7948 9.28C62.5948 9.8 62.4948 10.36 62.4948 10.96V11C62.4948 11.6 62.5948 12.1667 62.7948 12.7C62.9948 13.2333 63.2682 13.7 63.6148 14.1C63.9748 14.5 64.4015 14.82 64.8948 15.06C65.4015 15.2867 65.9548 15.4 66.5548 15.4C67.3548 15.4 68.0282 15.2533 68.5748 14.96C69.1348 14.6667 69.6882 14.2667 70.2348 13.76L72.1948 15.74ZM87.2605 6.84H83.0005V18H79.9205V6.84H75.6605V4H87.2605V6.84ZM110.285 18H99.6253V4H110.185V6.74H102.685V9.58H109.285V12.32H102.685V15.26H110.285V18ZM127.324 15.74C126.964 16.1267 126.59 16.4733 126.204 16.78C125.817 17.0867 125.39 17.3533 124.924 17.58C124.47 17.7933 123.97 17.9533 123.424 18.06C122.877 18.18 122.264 18.24 121.584 18.24C120.557 18.24 119.604 18.0533 118.724 17.68C117.844 17.3067 117.084 16.8 116.444 16.16C115.804 15.5067 115.304 14.74 114.944 13.86C114.584 12.98 114.404 12.04 114.404 11.04V11C114.404 10 114.584 9.06667 114.944 8.2C115.304 7.32 115.804 6.55333 116.444 5.9C117.084 5.23333 117.85 4.71333 118.744 4.34C119.637 3.95333 120.624 3.76 121.704 3.76C122.357 3.76 122.95 3.81333 123.484 3.92C124.03 4.02667 124.524 4.17333 124.964 4.36C125.404 4.54667 125.81 4.77333 126.184 5.04C126.557 5.30667 126.904 5.6 127.224 5.92L125.264 8.18C124.717 7.68667 124.157 7.3 123.584 7.02C123.024 6.74 122.39 6.6 121.684 6.6C121.097 6.6 120.55 6.71333 120.044 6.94C119.55 7.16667 119.124 7.48 118.764 7.88C118.404 8.28 118.124 8.74667 117.924 9.28C117.724 9.8 117.624 10.36 117.624 10.96V11C117.624 11.6 117.724 12.1667 117.924 12.7C118.124 13.2333 118.397 13.7 118.744 14.1C119.104 14.5 119.53 14.82 120.024 15.06C120.53 15.2867 121.084 15.4 121.684 15.4C122.484 15.4 123.157 15.2533 123.704 14.96C124.264 14.6667 124.817 14.2667 125.364 13.76L127.324 15.74ZM146.049 11C146.049 12 145.863 12.94 145.489 13.82C145.116 14.6867 144.596 15.4533 143.929 16.12C143.276 16.7733 142.489 17.2933 141.569 17.68C140.663 18.0533 139.669 18.24 138.589 18.24C137.509 18.24 136.516 18.0533 135.609 17.68C134.703 17.2933 133.916 16.78 133.249 16.14C132.596 15.4867 132.083 14.7267 131.709 13.86C131.349 12.98 131.169 12.04 131.169 11.04V11C131.169 10 131.356 9.06667 131.729 8.2C132.103 7.32 132.616 6.55333 133.269 5.9C133.936 5.23333 134.723 4.71333 135.629 4.34C136.549 3.95333 137.549 3.76 138.629 3.76C139.709 3.76 140.703 3.95333 141.609 4.34C142.516 4.71333 143.296 5.22667 143.949 5.88C144.616 6.52 145.129 7.28 145.489 8.16C145.863 9.02667 146.049 9.96 146.049 10.96V11ZM142.829 11.04V11C142.829 10.4 142.723 9.83333 142.509 9.3C142.309 8.76667 142.016 8.3 141.629 7.9C141.256 7.5 140.809 7.18667 140.289 6.96C139.769 6.72 139.203 6.6 138.589 6.6C137.963 6.6 137.389 6.71333 136.869 6.94C136.363 7.16667 135.923 7.48 135.549 7.88C135.189 8.28 134.903 8.74667 134.689 9.28C134.489 9.8 134.389 10.36 134.389 10.96V11C134.389 11.6 134.489 12.1667 134.689 12.7C134.903 13.2333 135.196 13.7 135.569 14.1C135.956 14.5 136.403 14.82 136.909 15.06C137.429 15.2867 138.003 15.4 138.629 15.4C139.243 15.4 139.809 15.2867 140.329 15.06C140.849 14.8333 141.289 14.52 141.649 14.12C142.023 13.72 142.309 13.26 142.509 12.74C142.723 12.2067 142.829 11.64 142.829 11.04ZM163.222 18H160.602L153.822 9.1V18H150.782V4H153.622L160.182 12.62V4H163.222V18ZM182.842 11C182.842 12 182.656 12.94 182.282 13.82C181.909 14.6867 181.389 15.4533 180.722 16.12C180.069 16.7733 179.282 17.2933 178.362 17.68C177.456 18.0533 176.462 18.24 175.382 18.24C174.302 18.24 173.309 18.0533 172.402 17.68C171.496 17.2933 170.709 16.78 170.042 16.14C169.389 15.4867 168.876 14.7267 168.502 13.86C168.142 12.98 167.962 12.04 167.962 11.04V11C167.962 10 168.149 9.06667 168.522 8.2C168.896 7.32 169.409 6.55333 170.062 5.9C170.729 5.23333 171.516 4.71333 172.422 4.34C173.342 3.95333 174.342 3.76 175.422 3.76C176.502 3.76 177.496 3.95333 178.402 4.34C179.309 4.71333 180.089 5.22667 180.742 5.88C181.409 6.52 181.922 7.28 182.282 8.16C182.656 9.02667 182.842 9.96 182.842 10.96V11ZM179.622 11.04V11C179.622 10.4 179.516 9.83333 179.302 9.3C179.102 8.76667 178.809 8.3 178.422 7.9C178.049 7.5 177.602 7.18667 177.082 6.96C176.562 6.72 175.996 6.6 175.382 6.6C174.756 6.6 174.182 6.71333 173.662 6.94C173.156 7.16667 172.716 7.48 172.342 7.88C171.982 8.28 171.696 8.74667 171.482 9.28C171.282 9.8 171.182 10.36 171.182 10.96V11C171.182 11.6 171.282 12.1667 171.482 12.7C171.696 13.2333 171.989 13.7 172.362 14.1C172.749 14.5 173.196 14.82 173.702 15.06C174.222 15.2867 174.796 15.4 175.422 15.4C176.036 15.4 176.602 15.2867 177.122 15.06C177.642 14.8333 178.082 14.52 178.442 14.12C178.816 13.72 179.102 13.26 179.302 12.74C179.516 12.2067 179.622 11.64 179.622 11.04ZM201.575 18H198.515V8.86L194.575 14.84H194.495L190.595 8.92V18H187.575V4H190.895L194.575 9.92L198.255 4H201.575V18ZM210.158 18H207.078V4H210.158V18ZM227.957 15.74C227.597 16.1267 227.223 16.4733 226.837 16.78C226.45 17.0867 226.023 17.3533 225.557 17.58C225.103 17.7933 224.603 17.9533 224.057 18.06C223.51 18.18 222.897 18.24 222.217 18.24C221.19 18.24 220.237 18.0533 219.357 17.68C218.477 17.3067 217.717 16.8 217.077 16.16C216.437 15.5067 215.937 14.74 215.577 13.86C215.217 12.98 215.037 12.04 215.037 11.04V11C215.037 10 215.217 9.06667 215.577 8.2C215.937 7.32 216.437 6.55333 217.077 5.9C217.717 5.23333 218.483 4.71333 219.377 4.34C220.27 3.95333 221.257 3.76 222.337 3.76C222.99 3.76 223.583 3.81333 224.117 3.92C224.663 4.02667 225.157 4.17333 225.597 4.36C226.037 4.54667 226.443 4.77333 226.817 5.04C227.19 5.30667 227.537 5.6 227.857 5.92L225.897 8.18C225.35 7.68667 224.79 7.3 224.217 7.02C223.657 6.74 223.023 6.6 222.317 6.6C221.73 6.6 221.183 6.71333 220.677 6.94C220.183 7.16667 219.757 7.48 219.397 7.88C219.037 8.28 218.757 8.74667 218.557 9.28C218.357 9.8 218.257 10.36 218.257 10.96V11C218.257 11.6 218.357 12.1667 218.557 12.7C218.757 13.2333 219.03 13.7 219.377 14.1C219.737 14.5 220.163 14.82 220.657 15.06C221.163 15.2867 221.717 15.4 222.317 15.4C223.117 15.4 223.79 15.2533 224.337 14.96C224.897 14.6667 225.45 14.2667 225.997 13.76L227.957 15.74ZM253.258 4L247.598 18.1H244.878L239.218 4H242.618L246.278 13.86L249.938 4H253.258ZM271.058 18H267.838L266.558 14.86H260.638L259.358 18H256.218L262.218 3.9H265.058L271.058 18ZM265.458 12.14L263.598 7.6L261.738 12.14H265.458ZM285.279 18H275.219V4H278.299V15.2H285.279V18ZM301.582 11.9C301.582 12.9667 301.435 13.8933 301.142 14.68C300.862 15.4667 300.455 16.1267 299.922 16.66C299.389 17.18 298.742 17.5733 297.982 17.84C297.222 18.0933 296.375 18.22 295.442 18.22C293.562 18.22 292.082 17.7 291.002 16.66C289.922 15.62 289.382 14.0667 289.382 12V4H292.462V11.92C292.462 13.0667 292.729 13.9333 293.262 14.52C293.795 15.0933 294.535 15.38 295.482 15.38C296.429 15.38 297.169 15.1 297.702 14.54C298.235 13.98 298.502 13.14 298.502 12.02V4H301.582V11.9ZM317.379 18H306.719V4H317.279V6.74H309.779V9.58H316.379V12.32H309.779V15.26H317.379V18ZM343.014 11C343.014 11.9867 342.834 12.9067 342.474 13.76C342.114 14.6133 341.6 15.3533 340.934 15.98C340.28 16.6067 339.494 17.1 338.574 17.46C337.667 17.82 336.667 18 335.574 18H330.114V4H335.574C336.667 4 337.667 4.18 338.574 4.54C339.494 4.88667 340.28 5.37333 340.934 6C341.6 6.62667 342.114 7.36667 342.474 8.22C342.834 9.06 343.014 9.97333 343.014 10.96V11ZM339.794 11.04V11C339.794 10.3867 339.687 9.82 339.474 9.3C339.274 8.78 338.987 8.33333 338.614 7.96C338.254 7.58667 337.814 7.3 337.294 7.1C336.774 6.88667 336.2 6.78 335.574 6.78H333.194V15.22H335.574C336.2 15.22 336.774 15.12 337.294 14.92C337.814 14.72 338.254 14.4333 338.614 14.06C338.987 13.6867 339.274 13.2467 339.474 12.74C339.687 12.2333 339.794 11.6667 339.794 11.04ZM350.978 18H347.898V4H350.978V18ZM366.597 13.86C366.597 14.5533 366.47 15.1733 366.217 15.72C365.964 16.2533 365.61 16.7067 365.157 17.08C364.704 17.44 364.164 17.72 363.537 17.92C362.91 18.1067 362.217 18.2 361.457 18.2C360.39 18.2 359.344 18.02 358.317 17.66C357.29 17.2867 356.357 16.72 355.517 15.96L357.337 13.78C357.977 14.3 358.63 14.7133 359.297 15.02C359.977 15.3267 360.717 15.48 361.517 15.48C362.157 15.48 362.65 15.3667 362.997 15.14C363.357 14.9 363.537 14.5733 363.537 14.16V14.12C363.537 13.92 363.497 13.7467 363.417 13.6C363.35 13.44 363.21 13.2933 362.997 13.16C362.797 13.0267 362.51 12.8933 362.137 12.76C361.777 12.6267 361.304 12.4867 360.717 12.34C360.01 12.1667 359.37 11.9733 358.797 11.76C358.224 11.5467 357.737 11.2867 357.337 10.98C356.937 10.66 356.624 10.2667 356.397 9.8C356.184 9.33333 356.077 8.75333 356.077 8.06V8.02C356.077 7.38 356.197 6.80667 356.437 6.3C356.677 5.78 357.01 5.33333 357.437 4.96C357.877 4.58667 358.397 4.3 358.997 4.1C359.597 3.9 360.257 3.8 360.977 3.8C362.004 3.8 362.944 3.95333 363.797 4.26C364.664 4.56667 365.457 5.00667 366.177 5.58L364.577 7.9C363.95 7.47333 363.337 7.14 362.737 6.9C362.137 6.64667 361.537 6.52 360.937 6.52C360.337 6.52 359.884 6.64 359.577 6.88C359.284 7.10667 359.137 7.39333 359.137 7.74V7.78C359.137 8.00667 359.177 8.20667 359.257 8.38C359.35 8.54 359.51 8.68667 359.737 8.82C359.964 8.95333 360.27 9.08 360.657 9.2C361.057 9.32 361.557 9.46 362.157 9.62C362.864 9.80667 363.49 10.02 364.037 10.26C364.597 10.4867 365.064 10.7667 365.437 11.1C365.824 11.42 366.11 11.8 366.297 12.24C366.497 12.68 366.597 13.2067 366.597 13.82V13.86ZM381.87 6.84H377.61V18H374.53V6.84H370.27V4H381.87V6.84ZM398.339 18H394.739L391.739 13.52H389.319V18H386.239V4H392.639C394.305 4 395.599 4.40667 396.519 5.22C397.452 6.03333 397.919 7.16667 397.919 8.62V8.66C397.919 9.79333 397.639 10.72 397.079 11.44C396.532 12.1467 395.812 12.6667 394.919 13L398.339 18ZM394.799 8.82V8.78C394.799 8.11333 394.585 7.61333 394.159 7.28C393.732 6.94667 393.139 6.78 392.379 6.78H389.319V10.8H392.439C393.199 10.8 393.779 10.62 394.179 10.26C394.592 9.9 394.799 9.42 394.799 8.82ZM405.912 18H402.832V4H405.912V18ZM423.31 14.16C423.31 14.8 423.184 15.36 422.93 15.84C422.69 16.32 422.337 16.72 421.87 17.04C421.417 17.36 420.864 17.6 420.21 17.76C419.57 17.92 418.857 18 418.07 18H411.41V4H417.91C419.35 4 420.477 4.32667 421.29 4.98C422.117 5.63333 422.53 6.51333 422.53 7.62V7.66C422.53 8.06 422.477 8.41333 422.37 8.72C422.277 9.02667 422.144 9.30667 421.97 9.56C421.81 9.8 421.617 10.0133 421.39 10.2C421.177 10.3867 420.944 10.5467 420.69 10.68C421.504 10.9867 422.144 11.4067 422.61 11.94C423.077 12.46 423.31 13.1867 423.31 14.12V14.16ZM419.47 8.18V8.14C419.47 7.67333 419.297 7.32 418.95 7.08C418.604 6.82667 418.104 6.7 417.45 6.7H414.41V9.66H417.25C417.93 9.66 418.47 9.54667 418.87 9.32C419.27 9.08 419.47 8.7 419.47 8.18ZM420.25 13.78V13.74C420.25 13.2733 420.07 12.9067 419.71 12.64C419.35 12.36 418.77 12.22 417.97 12.22H414.41V15.3H418.07C418.75 15.3 419.284 15.18 419.67 14.94C420.057 14.6867 420.25 14.3 420.25 13.78ZM439.824 11.9C439.824 12.9667 439.677 13.8933 439.384 14.68C439.104 15.4667 438.697 16.1267 438.164 16.66C437.631 17.18 436.984 17.5733 436.224 17.84C435.464 18.0933 434.617 18.22 433.684 18.22C431.804 18.22 430.324 17.7 429.244 16.66C428.164 15.62 427.624 14.0667 427.624 12V4H430.704V11.92C430.704 13.0667 430.971 13.9333 431.504 14.52C432.037 15.0933 432.777 15.38 433.724 15.38C434.671 15.38 435.411 15.1 435.944 14.54C436.477 13.98 436.744 13.14 436.744 12.02V4H439.824V11.9ZM455.561 6.84H451.301V18H448.221V6.84H443.961V4H455.561V6.84ZM470.59 18H459.93V4H470.49V6.74H462.99V9.58H469.59V12.32H462.99V15.26H470.59V18ZM488.228 11C488.228 11.9867 488.048 12.9067 487.688 13.76C487.328 14.6133 486.815 15.3533 486.148 15.98C485.495 16.6067 484.708 17.1 483.788 17.46C482.882 17.82 481.882 18 480.788 18H475.328V4H480.788C481.882 4 482.882 4.18 483.788 4.54C484.708 4.88667 485.495 5.37333 486.148 6C486.815 6.62667 487.328 7.36667 487.688 8.22C488.048 9.06 488.228 9.97333 488.228 10.96V11ZM485.008 11.04V11C485.008 10.3867 484.902 9.82 484.688 9.3C484.488 8.78 484.202 8.33333 483.828 7.96C483.468 7.58667 483.028 7.3 482.508 7.1C481.988 6.88667 481.415 6.78 480.788 6.78H478.408V15.22H480.788C481.415 15.22 481.988 15.12 482.508 14.92C483.028 14.72 483.468 14.4333 483.828 14.06C484.202 13.6867 484.488 13.2467 484.688 12.74C484.902 12.2333 485.008 11.6667 485.008 11.04Z" fill="#2A5F8F"/>
<path d="M6.804 30.048C5.424 30.924 4.38 31.914 3.672 33.018C2.976 34.11 2.628 35.382 2.628 36.834C2.628 38.286 2.976 39.564 3.672 40.668C4.38 41.76 5.424 42.744 6.804 43.62L6.21 44.538C4.602 43.638 3.366 42.546 2.502 41.262C1.65 39.978 1.224 38.502 1.224 36.834C1.224 35.166 1.65 33.69 2.502 32.406C3.366 31.122 4.602 30.03 6.21 29.13L6.804 30.048ZM19.8827 29.4V36.618C19.8827 37.542 19.7567 38.352 19.5047 39.048C19.2527 39.744 18.8927 40.326 18.4247 40.794C17.9687 41.262 17.4167 41.616 16.7687 41.856C16.1327 42.084 15.4187 42.198 14.6267 42.198C13.8467 42.198 13.1327 42.084 12.4847 41.856C11.8487 41.616 11.2967 41.268 10.8287 40.812C10.3727 40.344 10.0187 39.768 9.76669 39.084C9.51469 38.4 9.38869 37.614 9.38869 36.726V29.4H10.8107V36.636C10.8107 38.004 11.1467 39.054 11.8187 39.786C12.5027 40.518 13.4507 40.884 14.6627 40.884C15.8267 40.884 16.7507 40.536 17.4347 39.84C18.1187 39.144 18.4607 38.106 18.4607 36.726V29.4H19.8827ZM24.3429 32.55C24.3429 32.85 24.3909 33.12 24.4869 33.36C24.5829 33.6 24.7569 33.822 25.0089 34.026C25.2609 34.218 25.6089 34.398 26.0529 34.566C26.4969 34.722 27.0669 34.872 27.7629 35.016C29.1669 35.328 30.1989 35.76 30.8589 36.312C31.5309 36.864 31.8669 37.626 31.8669 38.598C31.8669 39.138 31.7589 39.63 31.5429 40.074C31.3269 40.518 31.0269 40.896 30.6429 41.208C30.2709 41.52 29.8209 41.76 29.2929 41.928C28.7649 42.096 28.1889 42.18 27.5649 42.18C26.5569 42.18 25.6329 42.018 24.7929 41.694C23.9649 41.358 23.1729 40.848 22.4169 40.164L23.2989 39.12C23.9589 39.72 24.6249 40.17 25.2969 40.47C25.9689 40.758 26.7429 40.902 27.6189 40.902C28.4709 40.902 29.1489 40.704 29.6529 40.308C30.1689 39.912 30.4269 39.39 30.4269 38.742C30.4269 38.442 30.3789 38.178 30.2829 37.95C30.1869 37.71 30.0189 37.494 29.7789 37.302C29.5389 37.11 29.2029 36.936 28.7709 36.78C28.3509 36.624 27.8109 36.474 27.1509 36.33C26.4309 36.174 25.8009 35.994 25.2609 35.79C24.7329 35.586 24.2949 35.34 23.9469 35.052C23.5989 34.764 23.3409 34.428 23.1729 34.044C23.0049 33.66 22.9209 33.204 22.9209 32.676C22.9209 32.172 23.0229 31.71 23.2269 31.29C23.4309 30.87 23.7189 30.51 24.0909 30.21C24.4629 29.898 24.9009 29.658 25.4049 29.49C25.9089 29.31 26.4609 29.22 27.0609 29.22C27.9849 29.22 28.7889 29.352 29.4729 29.616C30.1689 29.868 30.8409 30.252 31.4889 30.768L30.6609 31.866C30.0729 31.386 29.4789 31.038 28.8789 30.822C28.2909 30.606 27.6729 30.498 27.0249 30.498C26.6169 30.498 26.2449 30.552 25.9089 30.66C25.5849 30.768 25.3029 30.912 25.0629 31.092C24.8349 31.272 24.6549 31.488 24.5229 31.74C24.4029 31.992 24.3429 32.262 24.3429 32.55ZM45.8286 35.682C45.8286 36.57 45.6666 37.404 45.3426 38.184C45.0186 38.952 44.5566 39.618 43.9566 40.182C43.3686 40.746 42.6606 41.19 41.8326 41.514C41.0166 41.838 40.1166 42 39.1326 42H34.7586V29.4H39.1326C40.1166 29.4 41.0166 29.562 41.8326 29.886C42.6606 30.198 43.3686 30.636 43.9566 31.2C44.5566 31.764 45.0186 32.43 45.3426 33.198C45.6666 33.966 45.8286 34.794 45.8286 35.682ZM44.3526 35.718C44.3526 35.022 44.2266 34.368 43.9746 33.756C43.7346 33.144 43.3866 32.616 42.9306 32.172C42.4866 31.716 41.9406 31.362 41.2926 31.11C40.6446 30.846 39.9246 30.714 39.1326 30.714H36.1806V40.686H39.1326C39.9246 40.686 40.6446 40.56 41.2926 40.308C41.9406 40.056 42.4866 39.708 42.9306 39.264C43.3866 38.808 43.7346 38.28 43.9746 37.68C44.2266 37.08 44.3526 36.426 44.3526 35.718ZM64.8731 31.794L60.2831 38.544H60.2111L55.6211 31.812V42H54.2351V29.4H55.6751L60.2651 36.276L64.8551 29.4H66.2951V42H64.8731V31.794ZM71.2481 30.66H69.6641V29.13H71.2481V30.66ZM71.1401 42H69.7541V32.694H71.1401V42ZM75.8686 42H74.4826V28.86H75.8686V42ZM80.5971 42H79.2111V28.86H80.5971V42ZM85.4336 30.66H83.8496V29.13H85.4336V30.66ZM85.3256 42H83.9396V32.694H85.3256V42ZM97.6681 37.338C97.6681 37.998 97.5421 38.628 97.2901 39.228C97.0501 39.816 96.7141 40.332 96.2821 40.776C95.8501 41.22 95.3341 41.574 94.7341 41.838C94.1341 42.09 93.4861 42.216 92.7901 42.216C92.0941 42.216 91.4521 42.09 90.8641 41.838C90.2761 41.574 89.7661 41.226 89.3341 40.794C88.9021 40.35 88.5661 39.834 88.3261 39.246C88.0861 38.658 87.9661 38.034 87.9661 37.374C87.9661 36.714 88.0861 36.09 88.3261 35.502C88.5661 34.902 88.9021 34.38 89.3341 33.936C89.7661 33.492 90.2761 33.144 90.8641 32.892C91.4641 32.628 92.1181 32.496 92.8261 32.496C93.5221 32.496 94.1641 32.628 94.7521 32.892C95.3521 33.144 95.8681 33.492 96.3001 33.936C96.7321 34.368 97.0681 34.878 97.3081 35.466C97.5481 36.054 97.6681 36.678 97.6681 37.338ZM96.2461 37.374C96.2461 36.87 96.1561 36.396 95.9761 35.952C95.8081 35.508 95.5681 35.124 95.2561 34.8C94.9441 34.464 94.5781 34.2 94.1581 34.008C93.7381 33.816 93.2821 33.72 92.7901 33.72C92.2861 33.72 91.8241 33.816 91.4041 34.008C90.9841 34.188 90.6241 34.446 90.3241 34.782C90.0361 35.106 89.8081 35.49 89.6401 35.934C89.4721 36.366 89.3881 36.834 89.3881 37.338C89.3881 37.842 89.4721 38.316 89.6401 38.76C89.8201 39.204 90.0601 39.588 90.3601 39.912C90.6721 40.236 91.0381 40.494 91.4581 40.686C91.8781 40.878 92.3341 40.974 92.8261 40.974C93.3301 40.974 93.7921 40.884 94.2121 40.704C94.6321 40.512 94.9921 40.254 95.2921 39.93C95.5921 39.606 95.8261 39.228 95.9941 38.796C96.1621 38.352 96.2461 37.878 96.2461 37.374ZM101.565 36.672V42H100.179V32.694H101.565V34.314C101.877 33.81 102.285 33.384 102.789 33.036C103.293 32.676 103.947 32.496 104.751 32.496C105.315 32.496 105.813 32.586 106.245 32.766C106.689 32.946 107.061 33.204 107.361 33.54C107.673 33.864 107.907 34.254 108.063 34.71C108.231 35.166 108.315 35.67 108.315 36.222V42H106.929V36.564C106.929 35.7 106.707 35.016 106.263 34.512C105.819 34.008 105.183 33.756 104.355 33.756C103.959 33.756 103.587 33.828 103.239 33.972C102.903 34.104 102.609 34.302 102.357 34.566C102.105 34.818 101.907 35.124 101.763 35.484C101.631 35.844 101.565 36.24 101.565 36.672ZM110.731 30.048L111.325 29.13C112.933 30.03 114.163 31.122 115.015 32.406C115.879 33.69 116.311 35.166 116.311 36.834C116.311 38.502 115.879 39.978 115.015 41.262C114.163 42.546 112.933 43.638 111.325 44.538L110.731 43.62C112.111 42.744 113.149 41.76 113.845 40.668C114.553 39.564 114.907 38.286 114.907 36.834C114.907 35.382 114.553 34.11 113.845 33.018C113.149 31.914 112.111 30.924 110.731 30.048Z" fill="#717171"/>
</svg>
