<svg width="408" height="519" viewBox="0 0 408 519" fill="none" xmlns="http://www.w3.org/2000/svg">
<rect x="32.0078" y="101.03" width="62.0185" height="27.0081" rx="7" fill="#CD94B9"/>
<rect x="170.051" y="101.03" width="62.0185" height="27.0081" rx="7" fill="#CD94B9"/>
<rect x="294.086" y="101.03" width="62.0185" height="27.0081" rx="7" fill="#AD3088"/>
<path d="M53.9867 113.713C53.9867 114.601 53.8607 115.441 53.6087 116.233C53.3567 117.025 52.9967 117.721 52.5287 118.321C52.0727 118.909 51.5147 119.377 50.8547 119.725C50.1947 120.073 49.4627 120.247 48.6587 120.247C47.8427 120.247 47.1047 120.079 46.4447 119.743C45.7967 119.395 45.2387 118.927 44.7707 118.339C44.3147 117.739 43.9607 117.049 43.7087 116.269C43.4687 115.477 43.3487 114.637 43.3487 113.749C43.3487 112.861 43.4747 112.021 43.7267 111.229C43.9787 110.437 44.3327 109.747 44.7887 109.159C45.2567 108.559 45.8207 108.085 46.4807 107.737C47.1407 107.389 47.8787 107.215 48.6947 107.215C49.4987 107.215 50.2247 107.389 50.8727 107.737C51.5327 108.073 52.0907 108.541 52.5467 109.141C53.0147 109.729 53.3687 110.419 53.6087 111.211C53.8607 111.991 53.9867 112.825 53.9867 113.713ZM52.5107 113.749C52.5107 113.053 52.4207 112.393 52.2407 111.769C52.0607 111.133 51.8027 110.575 51.4667 110.095C51.1307 109.615 50.7227 109.231 50.2427 108.943C49.7747 108.655 49.2467 108.511 48.6587 108.511C48.0707 108.511 47.5367 108.655 47.0567 108.943C46.5887 109.219 46.1867 109.597 45.8507 110.077C45.5267 110.545 45.2747 111.097 45.0947 111.733C44.9147 112.357 44.8247 113.017 44.8247 113.713C44.8247 114.409 44.9147 115.075 45.0947 115.711C45.2747 116.347 45.5327 116.905 45.8687 117.385C46.2047 117.865 46.6127 118.249 47.0927 118.537C47.5727 118.813 48.1067 118.951 48.6947 118.951C49.2827 118.951 49.8107 118.813 50.2787 118.537C50.7587 118.249 51.1607 117.871 51.4847 117.403C51.8207 116.923 52.0727 116.371 52.2407 115.747C52.4207 115.111 52.5107 114.445 52.5107 113.749ZM57.7903 120.031H56.1343V118.141H57.7903V120.031ZM64.6864 108.529C63.9664 108.529 63.3484 108.715 62.8324 109.087C62.3164 109.447 61.8064 109.981 61.3024 110.689L60.2584 109.933C60.5464 109.513 60.8404 109.135 61.1404 108.799C61.4404 108.463 61.7644 108.181 62.1124 107.953C62.4724 107.725 62.8684 107.551 63.3004 107.431C63.7444 107.311 64.2424 107.251 64.7944 107.251C65.3704 107.251 65.8924 107.341 66.3604 107.521C66.8404 107.701 67.2544 107.953 67.6024 108.277C67.9504 108.589 68.2204 108.967 68.4124 109.411C68.6044 109.843 68.7004 110.317 68.7004 110.833C68.7004 111.301 68.6344 111.727 68.5024 112.111C68.3824 112.495 68.1904 112.879 67.9264 113.263C67.6624 113.635 67.3324 114.025 66.9364 114.433C66.5404 114.829 66.0664 115.267 65.5144 115.747L62.1484 118.735H68.8264V120.031H60.0244V118.933L64.5964 114.901C65.0764 114.469 65.4844 114.079 65.8204 113.731C66.1564 113.383 66.4264 113.059 66.6304 112.759C66.8464 112.447 66.9964 112.147 67.0804 111.859C67.1764 111.559 67.2244 111.253 67.2244 110.941C67.2244 110.569 67.1524 110.239 67.0084 109.951C66.8764 109.651 66.6964 109.399 66.4684 109.195C66.2404 108.979 65.9704 108.817 65.6584 108.709C65.3464 108.589 65.0224 108.529 64.6864 108.529ZM81.6898 113.713C81.6898 114.601 81.5638 115.441 81.3118 116.233C81.0598 117.025 80.6998 117.721 80.2318 118.321C79.7758 118.909 79.2178 119.377 78.5578 119.725C77.8978 120.073 77.1658 120.247 76.3618 120.247C75.5458 120.247 74.8078 120.079 74.1478 119.743C73.4998 119.395 72.9418 118.927 72.4738 118.339C72.0178 117.739 71.6638 117.049 71.4118 116.269C71.1718 115.477 71.0518 114.637 71.0518 113.749C71.0518 112.861 71.1778 112.021 71.4298 111.229C71.6818 110.437 72.0358 109.747 72.4918 109.159C72.9598 108.559 73.5238 108.085 74.1838 107.737C74.8438 107.389 75.5818 107.215 76.3978 107.215C77.2018 107.215 77.9278 107.389 78.5758 107.737C79.2358 108.073 79.7938 108.541 80.2498 109.141C80.7178 109.729 81.0718 110.419 81.3118 111.211C81.5638 111.991 81.6898 112.825 81.6898 113.713ZM80.2138 113.749C80.2138 113.053 80.1238 112.393 79.9438 111.769C79.7638 111.133 79.5058 110.575 79.1698 110.095C78.8338 109.615 78.4258 109.231 77.9458 108.943C77.4778 108.655 76.9498 108.511 76.3618 108.511C75.7738 108.511 75.2398 108.655 74.7598 108.943C74.2918 109.219 73.8898 109.597 73.5538 110.077C73.2298 110.545 72.9778 111.097 72.7978 111.733C72.6178 112.357 72.5278 113.017 72.5278 113.713C72.5278 114.409 72.6178 115.075 72.7978 115.711C72.9778 116.347 73.2358 116.905 73.5718 117.385C73.9078 117.865 74.3158 118.249 74.7958 118.537C75.2758 118.813 75.8098 118.951 76.3978 118.951C76.9858 118.951 77.5138 118.813 77.9818 118.537C78.4618 118.249 78.8638 117.871 79.1878 117.403C79.5238 116.923 79.7758 116.371 79.9438 115.747C80.1238 115.111 80.2138 114.445 80.2138 113.749Z" fill="#151515"/>
<path d="M192.43 113.905C192.43 114.793 192.304 115.633 192.052 116.425C191.8 117.217 191.44 117.913 190.972 118.513C190.516 119.101 189.958 119.569 189.298 119.917C188.638 120.265 187.906 120.439 187.102 120.439C186.286 120.439 185.548 120.271 184.888 119.935C184.24 119.587 183.682 119.119 183.214 118.531C182.758 117.931 182.404 117.241 182.152 116.461C181.912 115.669 181.792 114.829 181.792 113.941C181.792 113.053 181.918 112.213 182.17 111.421C182.422 110.629 182.776 109.939 183.232 109.351C183.7 108.751 184.264 108.277 184.924 107.929C185.584 107.581 186.322 107.407 187.138 107.407C187.942 107.407 188.668 107.581 189.316 107.929C189.976 108.265 190.534 108.733 190.99 109.333C191.458 109.921 191.812 110.611 192.052 111.403C192.304 112.183 192.43 113.017 192.43 113.905ZM190.954 113.941C190.954 113.245 190.864 112.585 190.684 111.961C190.504 111.325 190.246 110.767 189.91 110.287C189.574 109.807 189.166 109.423 188.686 109.135C188.218 108.847 187.69 108.703 187.102 108.703C186.514 108.703 185.98 108.847 185.5 109.135C185.032 109.411 184.63 109.789 184.294 110.269C183.97 110.737 183.718 111.289 183.538 111.925C183.358 112.549 183.268 113.209 183.268 113.905C183.268 114.601 183.358 115.267 183.538 115.903C183.718 116.539 183.976 117.097 184.312 117.577C184.648 118.057 185.056 118.441 185.536 118.729C186.016 119.005 186.55 119.143 187.138 119.143C187.726 119.143 188.254 119.005 188.722 118.729C189.202 118.441 189.604 118.063 189.928 117.595C190.264 117.115 190.516 116.563 190.684 115.939C190.864 115.303 190.954 114.637 190.954 113.941ZM196.233 120.223H194.577V118.333H196.233V120.223ZM203.13 108.721C202.41 108.721 201.792 108.907 201.276 109.279C200.76 109.639 200.25 110.173 199.746 110.881L198.702 110.125C198.99 109.705 199.284 109.327 199.584 108.991C199.884 108.655 200.208 108.373 200.556 108.145C200.916 107.917 201.312 107.743 201.744 107.623C202.188 107.503 202.686 107.443 203.238 107.443C203.814 107.443 204.336 107.533 204.804 107.713C205.284 107.893 205.698 108.145 206.046 108.469C206.394 108.781 206.664 109.159 206.856 109.603C207.048 110.035 207.144 110.509 207.144 111.025C207.144 111.493 207.078 111.919 206.946 112.303C206.826 112.687 206.634 113.071 206.37 113.455C206.106 113.827 205.776 114.217 205.38 114.625C204.984 115.021 204.51 115.459 203.958 115.939L200.592 118.927H207.27V120.223H198.468V119.125L203.04 115.093C203.52 114.661 203.928 114.271 204.264 113.923C204.6 113.575 204.87 113.251 205.074 112.951C205.29 112.639 205.44 112.339 205.524 112.051C205.62 111.751 205.668 111.445 205.668 111.133C205.668 110.761 205.596 110.431 205.452 110.143C205.32 109.843 205.14 109.591 204.912 109.387C204.684 109.171 204.414 109.009 204.102 108.901C203.79 108.781 203.466 108.721 203.13 108.721ZM220.133 113.905C220.133 114.793 220.007 115.633 219.755 116.425C219.503 117.217 219.143 117.913 218.675 118.513C218.219 119.101 217.661 119.569 217.001 119.917C216.341 120.265 215.609 120.439 214.805 120.439C213.989 120.439 213.251 120.271 212.591 119.935C211.943 119.587 211.385 119.119 210.917 118.531C210.461 117.931 210.107 117.241 209.855 116.461C209.615 115.669 209.495 114.829 209.495 113.941C209.495 113.053 209.621 112.213 209.873 111.421C210.125 110.629 210.479 109.939 210.935 109.351C211.403 108.751 211.967 108.277 212.627 107.929C213.287 107.581 214.025 107.407 214.841 107.407C215.645 107.407 216.371 107.581 217.019 107.929C217.679 108.265 218.237 108.733 218.693 109.333C219.161 109.921 219.515 110.611 219.755 111.403C220.007 112.183 220.133 113.017 220.133 113.905ZM218.657 113.941C218.657 113.245 218.567 112.585 218.387 111.961C218.207 111.325 217.949 110.767 217.613 110.287C217.277 109.807 216.869 109.423 216.389 109.135C215.921 108.847 215.393 108.703 214.805 108.703C214.217 108.703 213.683 108.847 213.203 109.135C212.735 109.411 212.333 109.789 211.997 110.269C211.673 110.737 211.421 111.289 211.241 111.925C211.061 112.549 210.971 113.209 210.971 113.905C210.971 114.601 211.061 115.267 211.241 115.903C211.421 116.539 211.679 117.097 212.015 117.577C212.351 118.057 212.759 118.441 213.239 118.729C213.719 119.005 214.253 119.143 214.841 119.143C215.429 119.143 215.957 119.005 216.425 118.729C216.905 118.441 217.307 118.063 217.631 117.595C217.967 117.115 218.219 116.563 218.387 115.939C218.567 115.303 218.657 114.637 218.657 113.941Z" fill="#151515"/>
<path d="M319.187 113.905C319.187 114.805 319.055 115.657 318.791 116.461C318.527 117.253 318.155 117.943 317.675 118.531C317.195 119.119 316.613 119.587 315.929 119.935C315.257 120.271 314.507 120.439 313.679 120.439C312.851 120.439 312.101 120.271 311.429 119.935C310.757 119.599 310.181 119.137 309.701 118.549C309.221 117.961 308.849 117.271 308.585 116.479C308.333 115.687 308.207 114.841 308.207 113.941C308.207 113.041 308.339 112.195 308.603 111.403C308.867 110.599 309.239 109.903 309.719 109.315C310.199 108.727 310.775 108.265 311.447 107.929C312.131 107.581 312.887 107.407 313.715 107.407C314.543 107.407 315.293 107.575 315.965 107.911C316.637 108.247 317.213 108.709 317.693 109.297C318.173 109.885 318.539 110.575 318.791 111.367C319.055 112.159 319.187 113.005 319.187 113.905ZM316.901 113.941C316.901 113.317 316.823 112.729 316.667 112.177C316.523 111.625 316.307 111.145 316.019 110.737C315.743 110.329 315.407 110.005 315.011 109.765C314.615 109.525 314.171 109.405 313.679 109.405C313.187 109.405 312.743 109.525 312.347 109.765C311.963 109.993 311.633 110.311 311.357 110.719C311.081 111.115 310.865 111.589 310.709 112.141C310.565 112.693 310.493 113.281 310.493 113.905C310.493 114.541 310.565 115.135 310.709 115.687C310.865 116.227 311.081 116.707 311.357 117.127C311.645 117.535 311.987 117.859 312.383 118.099C312.779 118.327 313.223 118.441 313.715 118.441C314.207 118.441 314.645 118.327 315.029 118.099C315.425 117.859 315.761 117.535 316.037 117.127C316.313 116.719 316.523 116.245 316.667 115.705C316.823 115.153 316.901 114.565 316.901 113.941ZM323.472 120.223H321.078V117.757H323.472V120.223ZM324.26 108.613L327.644 107.533H329.192V120.223H326.996V109.783L324.728 110.413L324.26 108.613ZM341.711 113.563C341.711 114.583 341.585 115.513 341.333 116.353C341.093 117.193 340.739 117.919 340.271 118.531C339.815 119.131 339.251 119.599 338.579 119.935C337.907 120.271 337.151 120.439 336.311 120.439C335.435 120.439 334.679 120.301 334.043 120.025C333.407 119.737 332.819 119.371 332.279 118.927L333.485 117.235C333.965 117.643 334.427 117.943 334.871 118.135C335.327 118.327 335.825 118.423 336.365 118.423C336.833 118.423 337.247 118.327 337.607 118.135C337.979 117.943 338.291 117.673 338.543 117.325C338.807 116.965 339.011 116.545 339.155 116.065C339.299 115.573 339.383 115.039 339.407 114.463C339.095 114.847 338.693 115.165 338.201 115.417C337.721 115.669 337.139 115.795 336.455 115.795C335.783 115.795 335.171 115.705 334.619 115.525C334.079 115.333 333.611 115.063 333.215 114.715C332.831 114.355 332.531 113.929 332.315 113.437C332.099 112.945 331.991 112.393 331.991 111.781C331.991 111.157 332.105 110.581 332.333 110.053C332.561 109.513 332.879 109.051 333.287 108.667C333.707 108.271 334.205 107.965 334.781 107.749C335.357 107.521 335.993 107.407 336.689 107.407C337.481 107.407 338.147 107.521 338.687 107.749C339.239 107.965 339.737 108.295 340.181 108.739C340.649 109.207 341.021 109.819 341.297 110.575C341.573 111.319 341.711 112.315 341.711 113.563ZM339.335 111.655C339.335 111.319 339.269 111.013 339.137 110.737C339.017 110.449 338.843 110.203 338.615 109.999C338.387 109.783 338.111 109.615 337.787 109.495C337.463 109.375 337.103 109.315 336.707 109.315C335.915 109.315 335.297 109.543 334.853 109.999C334.421 110.455 334.205 111.013 334.205 111.673C334.205 112.345 334.433 112.891 334.889 113.311C335.357 113.731 335.987 113.941 336.779 113.941C337.175 113.941 337.529 113.881 337.841 113.761C338.165 113.641 338.435 113.479 338.651 113.275C338.879 113.059 339.047 112.813 339.155 112.537C339.275 112.261 339.335 111.967 339.335 111.655Z" fill="white"/>
<path d="M62.5173 135.04L56.0202 127.538L69.0144 127.538L62.5173 135.04Z" fill="#CD94B9"/>
<path d="M200.56 135.04L194.063 127.538L207.057 127.538L200.56 135.04Z" fill="#CD94B9"/>
<path d="M324.595 135.04L318.098 127.538L331.093 127.538L324.595 135.04Z" fill="#AD3088"/>
<path d="M63.0195 235.07V141.042" stroke="black" stroke-dasharray="2 2"/>
<path d="M201.059 235.07V141.042" stroke="black" stroke-dasharray="2 2"/>
<path d="M324.961 229.223L324.961 141.223" stroke="black" stroke-dasharray="2 2"/>
<path d="M50.0156 205.059C50.0156 201.193 53.1496 198.059 57.0156 198.059H76.0234V495.147H50.0156V205.059Z" fill="#CD94B9"/>
<path d="M188.055 205.059C188.055 201.193 191.189 198.059 195.055 198.059H214.062V495.147H188.055V205.059Z" fill="#CD94B9"/>
<path d="M312.094 234.223C312.094 230.357 315.228 227.223 319.094 227.223H338.102V495.147H312.094L312.094 234.223Z" fill="#AD3088"/>
<path d="M54.0172 503.95V505.118H47.2332V509.118H53.2972V510.27H47.2332V515.15H45.9692V503.95H54.0172ZM61.2532 510.702V515.15H59.9732V510.718L55.3172 503.95H56.8532L60.6292 509.55L64.4372 503.95H65.9092L61.2532 510.702ZM71.2503 504.926C70.6103 504.926 70.061 505.092 69.6023 505.422C69.1436 505.742 68.6903 506.217 68.2423 506.846L67.3143 506.174C67.5703 505.801 67.8316 505.465 68.0983 505.166C68.365 504.868 68.653 504.617 68.9623 504.414C69.2823 504.212 69.6343 504.057 70.0183 503.95C70.413 503.844 70.8556 503.79 71.3463 503.79C71.8583 503.79 72.3223 503.87 72.7383 504.03C73.165 504.19 73.533 504.414 73.8423 504.702C74.1516 504.98 74.3916 505.316 74.5623 505.71C74.733 506.094 74.8183 506.516 74.8183 506.974C74.8183 507.39 74.7596 507.769 74.6423 508.11C74.5356 508.452 74.365 508.793 74.1303 509.134C73.8956 509.465 73.6023 509.812 73.2503 510.174C72.8983 510.526 72.477 510.916 71.9863 511.342L68.9943 513.998H74.9303V515.15H67.1063V514.174L71.1703 510.59C71.597 510.206 71.9596 509.86 72.2583 509.55C72.557 509.241 72.797 508.953 72.9783 508.686C73.1703 508.409 73.3036 508.142 73.3783 507.886C73.4636 507.62 73.5063 507.348 73.5063 507.07C73.5063 506.74 73.4423 506.446 73.3143 506.19C73.197 505.924 73.037 505.7 72.8343 505.518C72.6316 505.326 72.3916 505.182 72.1143 505.086C71.837 504.98 71.549 504.926 71.2503 504.926ZM76.3644 504.814L79.1004 503.87H80.0284V515.15H78.7804V505.182L76.6684 505.838L76.3644 504.814Z" fill="black"/>
<path d="M190.138 503.95V505.118H183.354V509.118H189.418V510.27H183.354V515.15H182.09V503.95H190.138ZM197.374 510.702V515.15H196.094V510.718L191.438 503.95H192.974L196.75 509.55L200.558 503.95H202.03L197.374 510.702ZM207.371 504.926C206.731 504.926 206.182 505.092 205.723 505.422C205.265 505.742 204.811 506.217 204.363 506.846L203.435 506.174C203.691 505.801 203.953 505.465 204.219 505.166C204.486 504.868 204.774 504.617 205.083 504.414C205.403 504.212 205.755 504.057 206.139 503.95C206.534 503.844 206.977 503.79 207.467 503.79C207.979 503.79 208.443 503.87 208.859 504.03C209.286 504.19 209.654 504.414 209.963 504.702C210.273 504.98 210.513 505.316 210.683 505.71C210.854 506.094 210.939 506.516 210.939 506.974C210.939 507.39 210.881 507.769 210.763 508.11C210.657 508.452 210.486 508.793 210.251 509.134C210.017 509.465 209.723 509.812 209.371 510.174C209.019 510.526 208.598 510.916 208.107 511.342L205.115 513.998H211.051V515.15H203.227V514.174L207.291 510.59C207.718 510.206 208.081 509.86 208.379 509.55C208.678 509.241 208.918 508.953 209.099 508.686C209.291 508.409 209.425 508.142 209.499 507.886C209.585 507.62 209.627 507.348 209.627 507.07C209.627 506.74 209.563 506.446 209.435 506.19C209.318 505.924 209.158 505.7 208.955 505.518C208.753 505.326 208.513 505.182 208.235 505.086C207.958 504.98 207.67 504.926 207.371 504.926ZM216.95 504.926C216.31 504.926 215.76 505.092 215.302 505.422C214.843 505.742 214.39 506.217 213.942 506.846L213.014 506.174C213.27 505.801 213.531 505.465 213.798 505.166C214.064 504.868 214.352 504.617 214.662 504.414C214.982 504.212 215.334 504.057 215.718 503.95C216.112 503.844 216.555 503.79 217.046 503.79C217.558 503.79 218.022 503.87 218.438 504.03C218.864 504.19 219.232 504.414 219.542 504.702C219.851 504.98 220.091 505.316 220.262 505.71C220.432 506.094 220.518 506.516 220.518 506.974C220.518 507.39 220.459 507.769 220.342 508.11C220.235 508.452 220.064 508.793 219.83 509.134C219.595 509.465 219.302 509.812 218.95 510.174C218.598 510.526 218.176 510.916 217.686 511.342L214.694 513.998H220.63V515.15H212.806V514.174L216.87 510.59C217.296 510.206 217.659 509.86 217.958 509.55C218.256 509.241 218.496 508.953 218.678 508.686C218.87 508.409 219.003 508.142 219.078 507.886C219.163 507.62 219.206 507.348 219.206 507.07C219.206 506.74 219.142 506.446 219.014 506.19C218.896 505.924 218.736 505.7 218.534 505.518C218.331 505.326 218.091 505.182 217.814 505.086C217.536 504.98 217.248 504.926 216.95 504.926Z" fill="black"/>
<path d="M314.056 503.95V505.118H307.272V509.118H313.336V510.27H307.272V515.15H306.008V503.95H314.056ZM321.292 510.702V515.15H320.012V510.718L315.356 503.95H316.892L320.668 509.55L324.476 503.95H325.948L321.292 510.702ZM331.289 504.926C330.649 504.926 330.1 505.092 329.641 505.422C329.183 505.742 328.729 506.217 328.281 506.846L327.353 506.174C327.609 505.801 327.871 505.465 328.137 505.166C328.404 504.868 328.692 504.617 329.001 504.414C329.321 504.212 329.673 504.057 330.057 503.95C330.452 503.844 330.895 503.79 331.385 503.79C331.897 503.79 332.361 503.87 332.777 504.03C333.204 504.19 333.572 504.414 333.881 504.702C334.191 504.98 334.431 505.316 334.601 505.71C334.772 506.094 334.857 506.516 334.857 506.974C334.857 507.39 334.799 507.769 334.681 508.11C334.575 508.452 334.404 508.793 334.169 509.134C333.935 509.465 333.641 509.812 333.289 510.174C332.937 510.526 332.516 510.916 332.025 511.342L329.033 513.998H334.969V515.15H327.145V514.174L331.209 510.59C331.636 510.206 331.999 509.86 332.297 509.55C332.596 509.241 332.836 508.953 333.017 508.686C333.209 508.409 333.343 508.142 333.417 507.886C333.503 507.62 333.545 507.348 333.545 507.07C333.545 506.74 333.481 506.446 333.353 506.19C333.236 505.924 333.076 505.7 332.873 505.518C332.671 505.326 332.431 505.182 332.153 505.086C331.876 504.98 331.588 504.926 331.289 504.926ZM342.819 505.086H337.347V503.95H344.499V504.878L340.979 508.782C341.47 508.825 341.939 508.916 342.387 509.054C342.835 509.193 343.225 509.39 343.555 509.646C343.897 509.902 344.169 510.222 344.371 510.606C344.574 510.99 344.675 511.438 344.675 511.95C344.675 512.452 344.574 512.91 344.371 513.326C344.179 513.742 343.913 514.1 343.571 514.398C343.241 514.697 342.846 514.932 342.387 515.102C341.939 515.262 341.454 515.342 340.931 515.342C339.993 515.342 339.177 515.161 338.483 514.798C337.79 514.425 337.214 513.94 336.755 513.342L337.667 512.526C338.105 513.06 338.585 513.47 339.107 513.758C339.641 514.046 340.254 514.19 340.947 514.19C341.289 514.19 341.609 514.142 341.907 514.046C342.206 513.94 342.462 513.79 342.675 513.598C342.899 513.406 343.075 513.177 343.203 512.91C343.331 512.633 343.395 512.329 343.395 511.998C343.395 511.294 343.102 510.756 342.515 510.382C341.939 510.009 341.187 509.822 340.259 509.822H339.539L339.283 509.07L342.819 505.086Z" fill="black"/>
<path d="M0 54.0156L388.116 54.0156" stroke="#B1B3B6"/>
<path d="M15.088 19H3.016V2.2H6.712V15.64H15.088V19ZM35.3954 5.608H30.2834V19H26.5874V5.608H21.4754V2.2H35.3954V5.608ZM46.9019 19H43.2059V2.2H46.9019V19ZM68.6924 5.56H59.5964V9.136H67.6124V12.496H59.5964V19H55.9004V2.2H68.6924V5.56ZM90.9704 19H86.6504L83.0504 13.624H80.1464V19H76.4504V2.2H84.1304C86.1304 2.2 87.6824 2.688 88.7864 3.664C89.9064 4.64 90.4664 6 90.4664 7.744V7.792C90.4664 9.152 90.1304 10.264 89.4584 11.128C88.8024 11.976 87.9384 12.6 86.8664 13L90.9704 19ZM86.7224 7.984V7.936C86.7224 7.136 86.4664 6.536 85.9544 6.136C85.4424 5.736 84.7304 5.536 83.8184 5.536H80.1464V10.36H83.8904C84.8024 10.36 85.4984 10.144 85.9784 9.712C86.4744 9.28 86.7224 8.704 86.7224 7.984Z" fill="#AD3088"/>
<path d="M7.804 31.048C6.424 31.924 5.38 32.914 4.672 34.018C3.976 35.11 3.628 36.382 3.628 37.834C3.628 39.286 3.976 40.564 4.672 41.668C5.38 42.76 6.424 43.744 7.804 44.62L7.21 45.538C5.602 44.638 4.366 43.546 3.502 42.262C2.65 40.978 2.224 39.502 2.224 37.834C2.224 36.166 2.65 34.69 3.502 33.406C4.366 32.122 5.602 31.03 7.21 30.13L7.804 31.048ZM19.7487 38.338C19.7487 39.106 19.6227 39.79 19.3707 40.39C19.1187 40.99 18.7827 41.5 18.3627 41.92C17.9547 42.328 17.4807 42.646 16.9407 42.874C16.4127 43.09 15.8667 43.198 15.3027 43.198C14.8707 43.198 14.4747 43.144 14.1147 43.036C13.7547 42.928 13.4307 42.784 13.1427 42.604C12.8547 42.424 12.5907 42.214 12.3507 41.974C12.1227 41.734 11.9187 41.482 11.7387 41.218V45.88H10.3527V33.694H11.7387V35.566C11.9307 35.29 12.1407 35.026 12.3687 34.774C12.6087 34.522 12.8727 34.306 13.1607 34.126C13.4487 33.934 13.7667 33.784 14.1147 33.676C14.4747 33.556 14.8707 33.496 15.3027 33.496C15.8547 33.496 16.3947 33.604 16.9227 33.82C17.4627 34.036 17.9427 34.354 18.3627 34.774C18.7827 35.182 19.1187 35.686 19.3707 36.286C19.6227 36.886 19.7487 37.57 19.7487 38.338ZM18.3267 38.356C18.3267 37.804 18.2367 37.306 18.0567 36.862C17.8887 36.418 17.6547 36.04 17.3547 35.728C17.0547 35.404 16.7067 35.158 16.3107 34.99C15.9147 34.822 15.4947 34.738 15.0507 34.738C14.6187 34.738 14.1987 34.828 13.7907 35.008C13.3947 35.176 13.0347 35.416 12.7107 35.728C12.3987 36.04 12.1467 36.418 11.9547 36.862C11.7747 37.306 11.6847 37.798 11.6847 38.338C11.6847 38.878 11.7747 39.376 11.9547 39.832C12.1467 40.276 12.3987 40.654 12.7107 40.966C13.0347 41.278 13.3947 41.524 13.7907 41.704C14.1987 41.872 14.6187 41.956 15.0507 41.956C15.4947 41.956 15.9147 41.878 16.3107 41.722C16.7187 41.554 17.0667 41.32 17.3547 41.02C17.6547 40.708 17.8887 40.33 18.0567 39.886C18.2367 39.43 18.3267 38.92 18.3267 38.356ZM23.1338 38.86C23.1818 39.364 23.3018 39.814 23.4938 40.21C23.6858 40.594 23.9318 40.924 24.2318 41.2C24.5318 41.464 24.8678 41.668 25.2398 41.812C25.6118 41.944 26.0018 42.01 26.4098 42.01C27.0578 42.01 27.6098 41.89 28.0658 41.65C28.5338 41.41 28.9598 41.092 29.3438 40.696L30.2078 41.47C29.7398 41.998 29.2058 42.424 28.6058 42.748C28.0058 43.06 27.2618 43.216 26.3738 43.216C25.7378 43.216 25.1378 43.102 24.5738 42.874C24.0098 42.634 23.5178 42.304 23.0978 41.884C22.6778 41.452 22.3418 40.936 22.0898 40.336C21.8498 39.736 21.7298 39.076 21.7298 38.356C21.7298 37.684 21.8378 37.054 22.0538 36.466C22.2818 35.866 22.5938 35.35 22.9898 34.918C23.3858 34.474 23.8538 34.126 24.3938 33.874C24.9458 33.622 25.5458 33.496 26.1938 33.496C26.8778 33.496 27.4898 33.628 28.0298 33.892C28.5698 34.144 29.0258 34.492 29.3978 34.936C29.7698 35.38 30.0518 35.902 30.2438 36.502C30.4358 37.102 30.5318 37.744 30.5318 38.428C30.5318 38.488 30.5318 38.554 30.5318 38.626C30.5318 38.698 30.5258 38.776 30.5138 38.86H23.1338ZM23.1338 37.834H29.1278C29.0918 37.414 29.0018 37.012 28.8578 36.628C28.7258 36.244 28.5338 35.908 28.2818 35.62C28.0418 35.332 27.7418 35.104 27.3818 34.936C27.0338 34.756 26.6258 34.666 26.1578 34.666C25.7498 34.666 25.3718 34.75 25.0238 34.918C24.6758 35.074 24.3698 35.296 24.1058 35.584C23.8418 35.86 23.6258 36.19 23.4578 36.574C23.2898 36.958 23.1818 37.378 23.1338 37.834ZM34.3442 39.292V43H32.9582V33.694H34.3442V36.124C34.5122 35.74 34.7222 35.386 34.9742 35.062C35.2262 34.738 35.5142 34.462 35.8382 34.234C36.1622 33.994 36.5162 33.814 36.9002 33.694C37.2842 33.574 37.6982 33.52 38.1422 33.532V35.026H38.0342C37.5302 35.026 37.0502 35.116 36.5942 35.296C36.1502 35.476 35.7602 35.746 35.4242 36.106C35.0882 36.466 34.8242 36.916 34.6322 37.456C34.4402 37.984 34.3442 38.596 34.3442 39.292ZM56.5216 32.794L51.9316 39.544H51.8596L47.2696 32.812V43H45.8836V30.4H47.3236L51.9136 37.276L56.5036 30.4H57.9436V43H56.5216V32.794ZM62.8965 31.66H61.3125V30.13H62.8965V31.66ZM62.7885 43H61.4025V33.694H62.7885V43ZM67.517 43H66.131V29.86H67.517V43ZM72.2455 43H70.8595V29.86H72.2455V43ZM77.0821 31.66H75.4981V30.13H77.0821V31.66ZM76.9741 43H75.5881V33.694H76.9741V43ZM89.3166 38.338C89.3166 38.998 89.1906 39.628 88.9386 40.228C88.6986 40.816 88.3626 41.332 87.9306 41.776C87.4986 42.22 86.9826 42.574 86.3826 42.838C85.7826 43.09 85.1346 43.216 84.4386 43.216C83.7426 43.216 83.1006 43.09 82.5126 42.838C81.9246 42.574 81.4146 42.226 80.9826 41.794C80.5506 41.35 80.2146 40.834 79.9746 40.246C79.7346 39.658 79.6146 39.034 79.6146 38.374C79.6146 37.714 79.7346 37.09 79.9746 36.502C80.2146 35.902 80.5506 35.38 80.9826 34.936C81.4146 34.492 81.9246 34.144 82.5126 33.892C83.1126 33.628 83.7666 33.496 84.4746 33.496C85.1706 33.496 85.8126 33.628 86.4006 33.892C87.0006 34.144 87.5166 34.492 87.9486 34.936C88.3806 35.368 88.7166 35.878 88.9566 36.466C89.1966 37.054 89.3166 37.678 89.3166 38.338ZM87.8946 38.374C87.8946 37.87 87.8046 37.396 87.6246 36.952C87.4566 36.508 87.2166 36.124 86.9046 35.8C86.5926 35.464 86.2266 35.2 85.8066 35.008C85.3866 34.816 84.9306 34.72 84.4386 34.72C83.9346 34.72 83.4726 34.816 83.0526 35.008C82.6326 35.188 82.2726 35.446 81.9726 35.782C81.6846 36.106 81.4566 36.49 81.2886 36.934C81.1206 37.366 81.0366 37.834 81.0366 38.338C81.0366 38.842 81.1206 39.316 81.2886 39.76C81.4686 40.204 81.7086 40.588 82.0086 40.912C82.3206 41.236 82.6866 41.494 83.1066 41.686C83.5266 41.878 83.9826 41.974 84.4746 41.974C84.9786 41.974 85.4406 41.884 85.8606 41.704C86.2806 41.512 86.6406 41.254 86.9406 40.93C87.2406 40.606 87.4746 40.228 87.6426 39.796C87.8106 39.352 87.8946 38.878 87.8946 38.374ZM93.2133 37.672V43H91.8273V33.694H93.2133V35.314C93.5253 34.81 93.9333 34.384 94.4373 34.036C94.9413 33.676 95.5953 33.496 96.3993 33.496C96.9633 33.496 97.4613 33.586 97.8933 33.766C98.3373 33.946 98.7093 34.204 99.0093 34.54C99.3213 34.864 99.5553 35.254 99.7113 35.71C99.8793 36.166 99.9633 36.67 99.9633 37.222V43H98.5773V37.564C98.5773 36.7 98.3553 36.016 97.9113 35.512C97.4673 35.008 96.8313 34.756 96.0033 34.756C95.6073 34.756 95.2353 34.828 94.8873 34.972C94.5513 35.104 94.2573 35.302 94.0053 35.566C93.7533 35.818 93.5553 36.124 93.4113 36.484C93.2793 36.844 93.2133 37.24 93.2133 37.672ZM119.188 32.794L114.598 39.544H114.526L109.936 32.812V43H108.55V30.4H109.99L114.58 37.276L119.17 30.4H120.61V43H119.188V32.794ZM127.309 34.792C126.757 34.792 126.253 34.858 125.797 34.99C125.353 35.11 124.915 35.272 124.483 35.476L124.069 34.342C124.585 34.102 125.107 33.916 125.635 33.784C126.163 33.64 126.769 33.568 127.453 33.568C128.725 33.568 129.703 33.886 130.387 34.522C131.071 35.146 131.413 36.076 131.413 37.312V43H130.081V41.596C129.757 42.016 129.319 42.388 128.767 42.712C128.227 43.036 127.543 43.198 126.715 43.198C126.283 43.198 125.857 43.138 125.437 43.018C125.029 42.898 124.657 42.718 124.321 42.478C123.997 42.226 123.733 41.92 123.529 41.56C123.337 41.2 123.241 40.774 123.241 40.282C123.241 39.79 123.337 39.358 123.529 38.986C123.721 38.602 123.991 38.284 124.339 38.032C124.699 37.78 125.119 37.588 125.599 37.456C126.091 37.324 126.631 37.258 127.219 37.258C127.819 37.258 128.341 37.294 128.785 37.366C129.229 37.438 129.661 37.534 130.081 37.654V37.33C130.081 36.49 129.835 35.86 129.343 35.44C128.863 35.008 128.185 34.792 127.309 34.792ZM127.363 38.284C126.487 38.284 125.815 38.458 125.347 38.806C124.879 39.154 124.645 39.628 124.645 40.228C124.645 40.528 124.705 40.792 124.825 41.02C124.957 41.248 125.131 41.446 125.347 41.614C125.563 41.77 125.809 41.89 126.085 41.974C126.373 42.058 126.673 42.1 126.985 42.1C127.417 42.1 127.819 42.04 128.191 41.92C128.575 41.788 128.905 41.614 129.181 41.398C129.469 41.17 129.691 40.906 129.847 40.606C130.015 40.294 130.099 39.952 130.099 39.58V38.68C129.751 38.584 129.349 38.494 128.893 38.41C128.449 38.326 127.939 38.284 127.363 38.284ZM135.752 37.672V43H134.366V33.694H135.752V35.314C136.064 34.81 136.472 34.384 136.976 34.036C137.48 33.676 138.134 33.496 138.938 33.496C139.502 33.496 140 33.586 140.432 33.766C140.876 33.946 141.248 34.204 141.548 34.54C141.86 34.864 142.094 35.254 142.25 35.71C142.418 36.166 142.502 36.67 142.502 37.222V43H141.116V37.564C141.116 36.7 140.894 36.016 140.45 35.512C140.006 35.008 139.37 34.756 138.542 34.756C138.146 34.756 137.774 34.828 137.426 34.972C137.09 35.104 136.796 35.302 136.544 35.566C136.292 35.818 136.094 36.124 135.95 36.484C135.818 36.844 135.752 37.24 135.752 37.672ZM146.844 37.672V43H145.458V29.86H146.844V35.314C147.156 34.81 147.564 34.384 148.068 34.036C148.572 33.676 149.226 33.496 150.03 33.496C150.594 33.496 151.092 33.586 151.524 33.766C151.968 33.946 152.34 34.204 152.64 34.54C152.952 34.864 153.186 35.254 153.342 35.71C153.51 36.166 153.594 36.67 153.594 37.222V43H152.208V37.564C152.208 36.7 151.986 36.016 151.542 35.512C151.098 35.008 150.462 34.756 149.634 34.756C149.238 34.756 148.866 34.828 148.518 34.972C148.182 35.104 147.888 35.302 147.636 35.566C147.384 35.818 147.186 36.124 147.042 36.484C146.91 36.844 146.844 37.24 146.844 37.672ZM165.676 38.338C165.676 38.998 165.55 39.628 165.298 40.228C165.058 40.816 164.722 41.332 164.29 41.776C163.858 42.22 163.342 42.574 162.742 42.838C162.142 43.09 161.494 43.216 160.798 43.216C160.102 43.216 159.46 43.09 158.872 42.838C158.284 42.574 157.774 42.226 157.342 41.794C156.91 41.35 156.574 40.834 156.334 40.246C156.094 39.658 155.974 39.034 155.974 38.374C155.974 37.714 156.094 37.09 156.334 36.502C156.574 35.902 156.91 35.38 157.342 34.936C157.774 34.492 158.284 34.144 158.872 33.892C159.472 33.628 160.126 33.496 160.834 33.496C161.53 33.496 162.172 33.628 162.76 33.892C163.36 34.144 163.876 34.492 164.308 34.936C164.74 35.368 165.076 35.878 165.316 36.466C165.556 37.054 165.676 37.678 165.676 38.338ZM164.254 38.374C164.254 37.87 164.164 37.396 163.984 36.952C163.816 36.508 163.576 36.124 163.264 35.8C162.952 35.464 162.586 35.2 162.166 35.008C161.746 34.816 161.29 34.72 160.798 34.72C160.294 34.72 159.832 34.816 159.412 35.008C158.992 35.188 158.632 35.446 158.332 35.782C158.044 36.106 157.816 36.49 157.648 36.934C157.48 37.366 157.396 37.834 157.396 38.338C157.396 38.842 157.48 39.316 157.648 39.76C157.828 40.204 158.068 40.588 158.368 40.912C158.68 41.236 159.046 41.494 159.466 41.686C159.886 41.878 160.342 41.974 160.834 41.974C161.338 41.974 161.8 41.884 162.22 41.704C162.64 41.512 163 41.254 163.3 40.93C163.6 40.606 163.834 40.228 164.002 39.796C164.17 39.352 164.254 38.878 164.254 38.374ZM174.793 39.022V33.694H176.161V43H174.793V41.38C174.481 41.884 174.073 42.316 173.569 42.676C173.065 43.024 172.411 43.198 171.607 43.198C171.043 43.198 170.539 43.108 170.095 42.928C169.663 42.748 169.291 42.496 168.979 42.172C168.679 41.836 168.445 41.44 168.277 40.984C168.121 40.528 168.043 40.024 168.043 39.472V33.694H169.429V39.13C169.429 39.994 169.651 40.678 170.095 41.182C170.539 41.686 171.175 41.938 172.003 41.938C172.399 41.938 172.765 41.872 173.101 41.74C173.449 41.596 173.743 41.398 173.983 41.146C174.235 40.882 174.433 40.57 174.577 40.21C174.721 39.85 174.793 39.454 174.793 39.022ZM180.664 39.292V43H179.278V33.694H180.664V36.124C180.832 35.74 181.042 35.386 181.294 35.062C181.546 34.738 181.834 34.462 182.158 34.234C182.482 33.994 182.836 33.814 183.22 33.694C183.604 33.574 184.018 33.52 184.462 33.532V35.026H184.354C183.85 35.026 183.37 35.116 182.914 35.296C182.47 35.476 182.08 35.746 181.744 36.106C181.408 36.466 181.144 36.916 180.952 37.456C180.76 37.984 180.664 38.596 180.664 39.292ZM192.963 40.39C192.963 40.834 192.873 41.23 192.693 41.578C192.525 41.914 192.291 42.202 191.991 42.442C191.703 42.682 191.355 42.868 190.947 43C190.551 43.12 190.119 43.18 189.651 43.18C188.979 43.18 188.301 43.06 187.617 42.82C186.933 42.568 186.327 42.232 185.799 41.812L186.501 40.822C187.005 41.206 187.527 41.5 188.067 41.704C188.619 41.908 189.171 42.01 189.723 42.01C190.287 42.01 190.749 41.878 191.109 41.614C191.469 41.35 191.649 40.99 191.649 40.534V40.498C191.649 40.27 191.583 40.072 191.451 39.904C191.331 39.736 191.163 39.592 190.947 39.472C190.731 39.34 190.479 39.226 190.191 39.13C189.915 39.034 189.627 38.944 189.327 38.86C188.967 38.752 188.601 38.638 188.229 38.518C187.869 38.386 187.539 38.224 187.239 38.032C186.951 37.84 186.711 37.6 186.519 37.312C186.339 37.024 186.249 36.664 186.249 36.232V36.196C186.249 35.8 186.327 35.44 186.483 35.116C186.639 34.78 186.855 34.498 187.131 34.27C187.419 34.03 187.755 33.85 188.139 33.73C188.535 33.598 188.961 33.532 189.417 33.532C189.993 33.532 190.575 33.628 191.163 33.82C191.751 34 192.285 34.246 192.765 34.558L192.135 35.602C191.703 35.326 191.247 35.11 190.767 34.954C190.299 34.786 189.837 34.702 189.381 34.702C188.829 34.702 188.391 34.834 188.067 35.098C187.743 35.35 187.581 35.668 187.581 36.052V36.088C187.581 36.304 187.647 36.496 187.779 36.664C187.911 36.82 188.085 36.958 188.301 37.078C188.529 37.198 188.787 37.306 189.075 37.402C189.363 37.498 189.663 37.594 189.975 37.69C190.335 37.798 190.689 37.918 191.037 38.05C191.397 38.182 191.721 38.35 192.009 38.554C192.297 38.758 192.525 39.004 192.693 39.292C192.873 39.58 192.963 39.934 192.963 40.354V40.39ZM205.345 40.894L208.801 30.364H209.971L213.427 40.894L217.027 30.4H218.521L214.021 43.09H212.815L209.359 32.866L205.885 43.09H204.697L200.197 30.4H201.745L205.345 40.894ZM228.817 38.338C228.817 38.998 228.691 39.628 228.439 40.228C228.199 40.816 227.863 41.332 227.431 41.776C226.999 42.22 226.483 42.574 225.883 42.838C225.283 43.09 224.635 43.216 223.939 43.216C223.243 43.216 222.601 43.09 222.013 42.838C221.425 42.574 220.915 42.226 220.483 41.794C220.051 41.35 219.715 40.834 219.475 40.246C219.235 39.658 219.115 39.034 219.115 38.374C219.115 37.714 219.235 37.09 219.475 36.502C219.715 35.902 220.051 35.38 220.483 34.936C220.915 34.492 221.425 34.144 222.013 33.892C222.613 33.628 223.267 33.496 223.975 33.496C224.671 33.496 225.313 33.628 225.901 33.892C226.501 34.144 227.017 34.492 227.449 34.936C227.881 35.368 228.217 35.878 228.457 36.466C228.697 37.054 228.817 37.678 228.817 38.338ZM227.395 38.374C227.395 37.87 227.305 37.396 227.125 36.952C226.957 36.508 226.717 36.124 226.405 35.8C226.093 35.464 225.727 35.2 225.307 35.008C224.887 34.816 224.431 34.72 223.939 34.72C223.435 34.72 222.973 34.816 222.553 35.008C222.133 35.188 221.773 35.446 221.473 35.782C221.185 36.106 220.957 36.49 220.789 36.934C220.621 37.366 220.537 37.834 220.537 38.338C220.537 38.842 220.621 39.316 220.789 39.76C220.969 40.204 221.209 40.588 221.509 40.912C221.821 41.236 222.187 41.494 222.607 41.686C223.027 41.878 223.483 41.974 223.975 41.974C224.479 41.974 224.941 41.884 225.361 41.704C225.781 41.512 226.141 41.254 226.441 40.93C226.741 40.606 226.975 40.228 227.143 39.796C227.311 39.352 227.395 38.878 227.395 38.374ZM232.713 39.292V43H231.327V33.694H232.713V36.124C232.881 35.74 233.091 35.386 233.343 35.062C233.595 34.738 233.883 34.462 234.207 34.234C234.531 33.994 234.885 33.814 235.269 33.694C235.653 33.574 236.067 33.52 236.511 33.532V35.026H236.403C235.899 35.026 235.419 35.116 234.963 35.296C234.519 35.476 234.129 35.746 233.793 36.106C233.457 36.466 233.193 36.916 233.001 37.456C232.809 37.984 232.713 38.596 232.713 39.292ZM242.852 37.69L246.884 43H245.228L241.898 38.662L240.008 40.57V43H238.622V29.86H240.008V38.932L245.03 33.694H246.758L242.852 37.69ZM249.241 38.86C249.289 39.364 249.409 39.814 249.601 40.21C249.793 40.594 250.039 40.924 250.339 41.2C250.639 41.464 250.975 41.668 251.347 41.812C251.719 41.944 252.109 42.01 252.517 42.01C253.165 42.01 253.717 41.89 254.173 41.65C254.641 41.41 255.067 41.092 255.451 40.696L256.315 41.47C255.847 41.998 255.313 42.424 254.713 42.748C254.113 43.06 253.369 43.216 252.481 43.216C251.845 43.216 251.245 43.102 250.681 42.874C250.117 42.634 249.625 42.304 249.205 41.884C248.785 41.452 248.449 40.936 248.197 40.336C247.957 39.736 247.837 39.076 247.837 38.356C247.837 37.684 247.945 37.054 248.161 36.466C248.389 35.866 248.701 35.35 249.097 34.918C249.493 34.474 249.961 34.126 250.501 33.874C251.053 33.622 251.653 33.496 252.301 33.496C252.985 33.496 253.597 33.628 254.137 33.892C254.677 34.144 255.133 34.492 255.505 34.936C255.877 35.38 256.159 35.902 256.351 36.502C256.543 37.102 256.639 37.744 256.639 38.428C256.639 38.488 256.639 38.554 256.639 38.626C256.639 38.698 256.633 38.776 256.621 38.86H249.241ZM249.241 37.834H255.235C255.199 37.414 255.109 37.012 254.965 36.628C254.833 36.244 254.641 35.908 254.389 35.62C254.149 35.332 253.849 35.104 253.489 34.936C253.141 34.756 252.733 34.666 252.265 34.666C251.857 34.666 251.479 34.75 251.131 34.918C250.783 35.074 250.477 35.296 250.213 35.584C249.949 35.86 249.733 36.19 249.565 36.574C249.397 36.958 249.289 37.378 249.241 37.834ZM267.922 43H266.536V41.128C266.344 41.404 266.128 41.668 265.888 41.92C265.66 42.172 265.402 42.394 265.114 42.586C264.826 42.778 264.502 42.928 264.142 43.036C263.794 43.144 263.404 43.198 262.972 43.198C262.408 43.198 261.862 43.09 261.334 42.874C260.806 42.658 260.332 42.346 259.912 41.938C259.492 41.518 259.156 41.008 258.904 40.408C258.652 39.808 258.526 39.124 258.526 38.356C258.526 37.588 258.652 36.904 258.904 36.304C259.156 35.704 259.492 35.2 259.912 34.792C260.332 34.372 260.806 34.054 261.334 33.838C261.862 33.61 262.408 33.496 262.972 33.496C263.404 33.496 263.8 33.55 264.16 33.658C264.52 33.766 264.844 33.91 265.132 34.09C265.42 34.27 265.678 34.48 265.906 34.72C266.146 34.96 266.356 35.212 266.536 35.476V29.86H267.922V43ZM266.59 38.338C266.59 37.798 266.494 37.306 266.302 36.862C266.122 36.418 265.87 36.04 265.546 35.728C265.234 35.416 264.874 35.176 264.466 35.008C264.07 34.828 263.656 34.738 263.224 34.738C262.768 34.738 262.342 34.822 261.946 34.99C261.55 35.146 261.202 35.38 260.902 35.692C260.614 35.992 260.38 36.37 260.2 36.826C260.032 37.27 259.948 37.774 259.948 38.338C259.948 38.89 260.032 39.388 260.2 39.832C260.38 40.276 260.62 40.66 260.92 40.984C261.22 41.296 261.568 41.536 261.964 41.704C262.36 41.872 262.78 41.956 263.224 41.956C263.656 41.956 264.07 41.872 264.466 41.704C264.874 41.524 265.234 41.278 265.546 40.966C265.87 40.654 266.122 40.276 266.302 39.832C266.494 39.376 266.59 38.878 266.59 38.338ZM270.479 31.048L271.073 30.13C272.681 31.03 273.911 32.122 274.763 33.406C275.627 34.69 276.059 36.166 276.059 37.834C276.059 39.502 275.627 40.978 274.763 42.262C273.911 43.546 272.681 44.638 271.073 45.538L270.479 44.62C271.859 43.744 272.897 42.76 273.593 41.668C274.301 40.564 274.655 39.286 274.655 37.834C274.655 36.382 274.301 35.11 273.593 34.018C272.897 32.914 271.859 31.924 270.479 31.048Z" fill="#717171"/>
<path d="M0 495.147L388.116 495.147" stroke="#B1B3B6"/>
</svg>
