<svg width="194" height="194" viewBox="0 0 194 194" fill="none" xmlns="http://www.w3.org/2000/svg">
<circle cx="97" cy="97" r="97" fill="#3B91DC"/>
<path opacity="0.75" d="M154.22 71.0647C153.745 70.338 153.291 69.6113 152.836 68.9239C155.9 65.8993 155.9 60.9891 152.856 57.9645C149.812 54.9202 144.871 54.9202 141.827 57.9449C141.728 58.0431 141.629 58.1413 141.53 58.2395H119.038V57.6503C119.038 53.6829 115.816 50.4815 111.824 50.4815C110.519 50.4815 109.254 50.835 108.128 51.4831V51.1492C108.128 47.1819 104.866 43.9804 100.894 44.0001C97.6918 44.0001 94.8852 46.1016 93.976 49.1655C90.6357 46.9854 86.1688 47.9086 83.9749 51.2278C83.8168 51.4831 83.6586 51.7385 83.5203 52.0134C80.3777 49.578 75.8318 50.1476 73.3809 53.2704C72.3927 54.5274 71.859 56.079 71.859 57.6895V58.2788H52.5486C49.7025 55.0773 44.7612 54.7631 41.5395 57.611C38.3179 60.4392 38.0016 65.3493 40.8675 68.5507C40.9861 68.6882 41.1245 68.8257 41.2629 68.9632C40.828 69.6506 40.3734 70.3577 39.8793 71.104C30.6491 85.3827 23 97.7366 23 104.218C23 117.259 33.6335 127.845 46.7772 127.845C59.9209 127.845 70.5545 117.279 70.5545 104.218C70.5545 97.7169 62.9055 85.3827 53.6753 71.104C53.2009 70.3773 52.7463 69.6506 52.2917 68.9632C52.3905 68.865 52.4696 68.7668 52.5684 68.6686H71.859V96.7938C71.859 100.918 74.0924 106.319 76.2468 111.544C77.0769 113.567 77.8873 115.511 78.5 117.24H77.1362C74.7447 117.24 72.7879 119.164 72.7879 121.561V129.377C72.7879 130.988 73.6971 132.481 75.1597 133.207V148.075C75.1597 149.136 76.0294 150 77.0967 150H115.915C116.982 150 117.852 149.136 117.852 148.075V133.207C119.315 132.481 120.224 130.988 120.224 129.377V121.561C120.224 119.184 118.287 117.24 115.876 117.24H114.452C116.567 110.66 119.255 104.277 122.477 98.1687C124.038 95.6154 125.165 92.8264 125.798 89.9196L128.881 74.7768C129.415 72.7538 128.94 70.613 127.636 68.9828C127.557 68.8846 127.458 68.7864 127.379 68.6882H141.471C141.55 68.7864 141.649 68.8846 141.748 68.9828C141.313 69.6703 140.839 70.397 140.364 71.1237C131.134 85.4023 123.485 97.7366 123.485 104.238C123.366 117.279 133.921 127.944 147.045 128.042C160.169 128.14 170.901 117.672 171 104.63C171 104.493 171 104.375 171 104.238C171 97.7366 163.351 85.4023 154.121 71.1237L154.22 71.0647ZM147.322 59.2019C149.693 59.2019 151.611 61.0873 151.611 63.4442C151.611 65.8011 149.713 67.7062 147.341 67.7062C144.97 67.7062 143.052 65.8207 143.052 63.4638C143.052 61.1266 144.97 59.2215 147.322 59.2215V59.2019ZM111.824 53.9971C113.86 53.9971 115.5 55.6273 115.5 57.6503V59.3786C113.168 58.4162 110.658 57.9841 108.147 58.102V57.6503C108.147 55.6273 109.808 53.9971 111.824 53.9971ZM98.3243 48.5763C99.7474 47.1426 102.08 47.1426 103.522 48.5763C104.214 49.2638 104.61 50.2065 104.61 51.1689V58.318C102.534 58.5144 100.123 58.8483 97.257 59.359V51.1296C97.257 50.1672 97.6522 49.2245 98.344 48.5371L98.3243 48.5763ZM97.2372 70.4166C97.3558 70.4559 97.4546 70.4755 97.5732 70.5148C99.8264 71.3397 102.198 71.8111 104.59 71.87V76.6819C104.55 78.7049 102.87 80.2958 100.834 80.2565C98.8579 80.2172 97.2767 78.646 97.2372 76.6819V70.4166ZM86.3269 55.1559C86.3269 53.1329 87.9674 51.5028 90.0032 51.5028C91.9599 51.5028 93.5807 53.0347 93.6795 54.9791V60.0464L93.3237 60.125C92.6517 60.2624 92.1181 60.7731 91.96 61.4409C91.4065 63.837 92.039 66.3314 93.6795 68.1776V72.8913C93.6795 72.8913 93.6795 72.9502 93.6795 72.9699C93.5214 74.9928 91.7425 76.4855 89.7265 76.3284C87.8093 76.1713 86.3467 74.6 86.3269 72.6949V55.1363V55.1559ZM75.4167 57.6503C75.4167 55.6273 77.0769 53.9971 79.093 53.9971C80.8916 53.9971 82.4135 55.2934 82.7297 57.0414C82.7297 57.12 82.7495 57.1789 82.789 57.2574V70.7505C82.7495 70.8487 82.7099 70.9469 82.6704 71.0647C82.1763 73.0288 80.18 74.2072 78.2035 73.7162C76.563 73.3038 75.4167 71.8504 75.4167 70.1613V57.6503ZM46.7772 59.2019C49.149 59.2019 51.0663 61.0873 51.0663 63.4442C51.0663 65.8011 49.1688 67.7062 46.797 67.7062C44.4252 67.7062 42.508 65.8207 42.508 63.4638C42.508 61.1266 44.4252 59.2215 46.7772 59.2215V59.2019ZM46.7772 124.291C36.3018 124.291 27.5657 116.316 26.6367 105.946H66.9375C66.0086 116.316 57.2725 124.271 46.797 124.291H46.7772ZM50.6907 72.9699C56.6202 82.142 65.3168 95.5957 66.7794 102.431H26.7553C28.2179 95.5957 36.9145 82.142 42.844 72.9699C43.3382 72.2235 43.7927 71.4968 44.2473 70.7898C45.8681 71.3397 47.6469 71.3397 49.2676 70.7898C49.7222 71.4968 50.1966 72.2235 50.6709 72.9699H50.6907ZM54.3868 61.7551H71.859V65.1137H54.3868C54.6437 64.0138 54.6437 62.855 54.3868 61.7551ZM78.6976 146.445V133.639H114.334V146.445H78.6976ZM116.706 121.521V129.338C116.706 129.77 116.35 130.124 115.895 130.143H77.1362C76.7014 130.143 76.3456 129.79 76.3259 129.338V121.521C76.3259 121.089 76.6817 120.736 77.1362 120.716H115.895C116.33 120.716 116.686 121.07 116.706 121.521ZM125.442 74.0305L122.358 89.1733C121.805 91.7266 120.797 94.1816 119.413 96.4207C115.876 103.059 112.99 110.032 110.776 117.22H82.2554C81.5834 115.118 80.5951 112.722 79.5476 110.189C77.6106 105.514 75.4167 100.211 75.4167 96.7938V76.3677C77.9664 77.88 81.188 77.6836 83.5203 75.8767C85.2596 79.4316 89.5684 80.885 93.1459 79.1566C93.4226 79.0191 93.6992 78.862 93.9562 78.6853C95.063 82.4955 99.0556 84.6953 102.89 83.5954C105.973 82.7116 108.108 79.903 108.108 76.7016V76.3677C109.669 77.2908 111.527 77.605 113.306 77.2122C113.444 77.5461 113.563 77.88 113.701 78.2532C109.946 80.6493 104.708 86.3058 103.404 89.6643C103.048 90.5678 103.483 91.5891 104.392 91.9623C105.301 92.3158 106.329 91.8837 106.705 90.9802V90.9409C107.851 87.9949 113.741 81.867 116.567 80.7082C117.437 80.3547 117.872 79.3727 117.556 78.4888C116.963 76.8783 116.429 75.5231 115.935 74.384C115.283 72.5967 114.275 70.9469 112.97 69.5524C111.428 68.2561 109.373 67.7848 107.416 68.2561C104.451 68.6489 101.427 68.2954 98.6603 67.2152C98.601 67.1955 98.5416 67.1759 98.4626 67.1563C96.664 66.7438 95.3595 65.1726 95.3002 63.3264L95.7944 63.2282C99.273 62.5015 102.791 62.0105 106.329 61.7355C106.329 61.7355 106.467 61.7355 106.547 61.7355C112.357 61.4016 114.275 62.6193 116.508 64.0334L116.725 64.1709C119.809 66.0957 122.576 68.4722 124.908 71.2415C125.541 72.0468 125.718 73.127 125.402 74.0894L125.442 74.0305ZM108.424 71.6343C109.689 71.5361 110.065 71.595 110.559 72.0468C111.053 72.5574 111.488 73.1663 111.804 73.8144C110.341 73.8144 109.017 72.9502 108.444 71.6343H108.424ZM123.94 65.1137C122.576 63.8959 121.113 62.7764 119.572 61.7551H139.653C139.396 62.855 139.396 64.0138 139.653 65.1137H123.94ZM143.369 72.9502C143.863 72.2039 144.317 71.4772 144.772 70.7701C146.393 71.3201 148.171 71.3201 149.792 70.7701C150.247 71.4772 150.721 72.2039 151.196 72.9502C157.125 82.1223 165.822 95.5761 167.284 102.411H127.26C128.723 95.5957 137.419 82.1223 143.349 72.9502H143.369ZM147.282 124.271C136.807 124.271 128.071 116.297 127.142 105.927H167.442C166.513 116.297 157.777 124.251 147.302 124.271H147.282Z" fill="white"/>
</svg>
