<svg width="329" height="304" viewBox="0 0 329 304" fill="none" xmlns="http://www.w3.org/2000/svg">
<path d="M328.227 104.482V303.126H38.1664C26.9984 303.126 17.485 298.532 10.729 291.457C9.21241 289.895 7.83365 288.149 6.59276 286.358C-1.08234 274.965 -2.69089 259.575 5.16804 246.007L147.257 0L325.01 102.599L328.227 104.482Z" fill="#B0BC25"/>
<g style="mix-blend-mode:overlay">
<mask id="mask0_1_54" style="mask-type:luminance" maskUnits="userSpaceOnUse" x="80" y="122" width="146" height="110">
<path d="M225.697 122.682H80.5195V231.449H225.697V122.682Z" fill="white"/>
</mask>
<g mask="url(#mask0_1_54)">
<path d="M213.089 175.444C211.28 173.148 208.151 172.383 205.457 173.606L202.268 175.047C200.714 175.752 199.468 176.975 198.763 178.506C198.058 180.037 197.938 181.755 198.433 183.376L199.303 186.243C199.604 187.211 199.303 188.254 198.568 188.967L195.514 191.819C193.87 193.365 192.91 195.526 192.91 197.762V200.501C192.91 201.252 192.655 201.972 192.174 202.557L189.225 206.234C188.205 207.51 187.567 209.041 187.387 210.647C187.267 211.81 186.456 212.793 185.338 213.176L179.89 215.044C178.704 215.457 177.391 215.074 176.625 214.091L172.738 209.124C171.605 207.668 170.975 205.859 170.975 204.021V192.464C170.975 191.128 170.359 189.875 169.316 189.02C168.251 188.164 166.877 187.841 165.549 188.127L158.112 189.657C156.694 189.95 155.208 189.395 154.353 188.232L149.715 181.966C149.13 181.185 148.83 180.262 148.83 179.287V176.18C148.83 174.371 149.903 172.735 151.599 172.007L163.103 166.98C166.097 165.674 169.519 165.951 172.243 167.745C174.051 168.938 176.235 169.493 178.411 169.351L180.865 169.171C181.781 169.111 182.674 169.351 183.424 169.861L184.085 170.319C185.21 171.084 186.614 171.362 187.942 171.084C189.27 170.807 190.441 169.981 191.146 168.833C192.535 166.552 191.777 163.565 189.458 162.184L173.954 152.977C172.326 152.008 170.359 151.768 168.536 152.301L161.444 154.372H161.399C160.919 154.02 160.619 153.487 160.574 152.902C160.529 152.316 160.709 151.753 161.114 151.311L165.196 146.853C169.069 142.636 174.367 139.957 180.115 139.326L191.371 138.073C195.124 140.174 198.568 142.778 201.667 145.825C206.155 150.237 209.674 155.37 212.143 161.089C214.612 166.822 215.903 172.915 215.978 179.189L213.044 175.452H213.089V175.444ZM132.62 213.724C128.133 209.311 124.613 204.178 122.144 198.46C121.649 197.297 121.199 196.119 120.801 194.948L132.876 202.948C135.329 204.583 136.898 207.285 137.063 210.197L137.498 217.949C135.795 216.658 134.159 215.255 132.605 213.746L132.62 213.731V213.724ZM109.53 166.252C107.706 168.27 103.481 170.019 100.134 169.441C98.0857 169.088 96.6298 167.925 95.8419 165.974C94.7763 163.385 94.3936 161.329 94.0334 159.505C93.6281 157.389 93.2529 155.46 91.8646 153.84C93.0053 153.577 94.4086 153.299 95.947 153.089C100.675 152.489 104.427 152.939 106.768 154.395C109.957 156.399 110.91 158.852 111.151 160.556C111.436 162.627 110.82 164.803 109.522 166.237L109.537 166.252H109.53ZM214.867 159.956C212.263 153.9 208.526 148.459 203.776 143.776C199.033 139.101 193.48 135.439 187.319 132.88C180.933 130.231 174.149 128.88 167.163 128.88C164.919 128.88 162.66 129.03 160.446 129.308C159.651 129.413 159.088 130.134 159.186 130.914C159.291 131.694 160.026 132.25 160.814 132.152C162.893 131.89 165.031 131.754 167.155 131.754C173.751 131.754 180.145 133.023 186.171 135.537C186.321 135.597 186.471 135.672 186.621 135.724L179.815 136.49C173.369 137.21 167.41 140.212 163.058 144.962L158.975 149.42C158.03 150.448 157.572 151.813 157.707 153.202C157.842 154.582 158.563 155.851 159.666 156.684C160.416 157.239 161.414 157.419 162.315 157.156L169.406 155.085C170.442 154.778 171.56 154.92 172.476 155.468L187.979 164.676C188.925 165.231 189.24 166.454 188.67 167.392C188.385 167.88 187.904 168.203 187.357 168.323C186.801 168.443 186.231 168.323 185.773 168.015L185.113 167.557C183.83 166.672 182.239 166.237 180.67 166.349L178.216 166.529C176.693 166.634 175.147 166.237 173.879 165.411C170.314 163.07 165.842 162.702 161.925 164.413L150.421 169.441C147.681 170.634 145.933 173.306 145.933 176.232V179.339C145.933 180.915 146.428 182.423 147.381 183.707L152.019 189.973C153.542 192.044 156.176 193.034 158.735 192.517L166.172 190.986C166.652 190.881 167.133 191.001 167.508 191.308C167.883 191.601 168.093 192.044 168.093 192.532V204.088C168.093 206.542 168.934 208.989 170.457 210.925L174.344 215.892C175.462 217.333 177.188 218.129 178.952 218.129C179.597 218.129 180.235 218.024 180.865 217.806L186.313 215.937C188.482 215.187 190.058 213.258 190.291 211.007C190.411 209.934 190.831 208.921 191.521 208.065L194.471 204.388C195.341 203.3 195.829 201.934 195.829 200.546V197.815C195.829 196.359 196.444 194.948 197.517 193.95L200.572 191.098C202.125 189.642 202.71 187.496 202.095 185.478L201.224 182.611C200.639 180.667 201.6 178.566 203.483 177.711L206.673 176.27C208.106 175.624 209.802 176.022 210.77 177.253L215.858 183.722C215.438 188.825 214.214 193.777 212.181 198.498C209.727 204.216 206.192 209.349 201.705 213.761C197.217 218.174 191.994 221.626 186.171 224.057C180.152 226.556 173.751 227.839 167.155 227.839C160.559 227.839 154.165 226.579 148.139 224.057C145.475 222.954 142.946 221.633 140.537 220.087L139.967 210.069C139.757 206.257 137.708 202.73 134.489 200.599L119.555 190.716C118.715 187.174 118.302 183.526 118.302 179.819C118.302 171.332 120.756 161.569 124.553 154.95C127.953 149.022 132.32 144.332 137.543 140.977C138.219 140.549 138.414 139.656 137.963 138.989C137.528 138.328 136.62 138.133 135.945 138.576C130.497 142.058 125.934 146.898 122.347 152.969C119.833 148.804 118.948 145.105 119.698 141.923C120.448 138.748 122.857 136.039 126.82 133.848C129.318 132.482 131.277 131.845 134.617 131.349C137.1 130.982 139.659 130.794 142.233 130.794H149.31C147.922 133.443 146.091 138.291 146.421 145.21C146.421 145.547 146.376 151.678 142.158 155.31C139.329 157.749 135.187 158.59 129.859 157.809C129.063 157.689 128.32 158.237 128.2 159.017C128.08 159.798 128.636 160.533 129.431 160.653C130.849 160.856 132.215 160.961 133.498 160.961C137.836 160.961 141.4 159.783 144.109 157.449C149.437 152.834 149.347 145.45 149.347 145.142V145.097C149.107 140.084 150.143 136.317 151.036 134.036C152.011 131.567 153.055 130.269 153.07 130.254C153.43 129.826 153.505 129.241 153.265 128.738C153.025 128.235 152.514 127.912 151.951 127.912H142.256C139.532 127.912 136.823 128.122 134.189 128.513C130.519 129.075 128.215 129.803 125.424 131.349C120.696 133.938 117.822 137.278 116.884 141.277C115.863 145.585 117.184 150.5 120.786 155.896C118.662 160.248 117.079 165.411 116.193 170.672C115.323 169.599 114.145 168.375 112.584 167.085C113.86 165.141 114.392 162.672 114.062 160.233C113.597 156.969 111.578 154.057 108.359 152.039C105.38 150.17 101.057 149.6 95.5342 150.305C91.5419 150.823 88.4127 151.851 88.2776 151.881C87.7223 152.061 87.332 152.541 87.287 153.119C87.227 153.689 87.5271 154.237 88.0374 154.5C90.3563 155.753 90.6414 157.194 91.1967 160.076C91.5569 161.929 91.9922 164.24 93.1704 167.092C94.3485 169.974 96.5998 171.782 99.6616 172.315C100.277 172.42 100.9 172.48 101.53 172.48C104.915 172.48 108.397 171.054 110.64 169.231C112.614 170.859 113.875 172.345 114.573 173.336C115.143 174.116 115.458 174.716 115.623 175.054C115.473 176.66 115.398 178.243 115.398 179.804C115.398 186.671 116.756 193.335 119.465 199.616C122.069 205.672 125.806 211.112 130.557 215.795C135.314 220.47 140.853 224.132 147.014 226.691C153.4 229.34 160.184 230.691 167.17 230.691C174.157 230.691 180.933 229.355 187.327 226.691C193.488 224.132 199.026 220.455 203.783 215.795C208.541 211.12 212.271 205.679 214.875 199.616C217.569 193.335 218.942 186.671 218.942 179.804C218.942 172.938 217.584 166.274 214.875 159.993V159.948L214.867 159.956Z" fill="white"/>
</g>
</g>
<path d="M119.791 262.176C119.791 263.152 119.615 264.008 119.263 264.744C118.911 265.48 118.423 266.096 117.799 266.592C117.191 267.088 116.471 267.464 115.639 267.72C114.823 267.96 113.943 268.08 112.999 268.08H110.191V273.12H106.495V256.32H113.359C114.367 256.32 115.263 256.464 116.047 256.752C116.847 257.024 117.519 257.416 118.063 257.928C118.623 258.44 119.047 259.056 119.335 259.776C119.639 260.48 119.791 261.264 119.791 262.128V262.176ZM116.047 262.248V262.2C116.047 261.368 115.775 260.736 115.231 260.304C114.703 259.872 113.975 259.656 113.047 259.656H110.191V264.792H113.119C114.047 264.792 114.767 264.552 115.279 264.072C115.791 263.576 116.047 262.968 116.047 262.248ZM139.399 273.12H127.327V256.32H131.023V269.76H139.399V273.12ZM163.354 273.12H159.49L157.954 269.352H150.85L149.314 273.12H145.546L152.746 256.2H156.154L163.354 273.12ZM156.634 266.088L154.402 260.64L152.17 266.088H156.634ZM185.675 273.12H182.531L174.395 262.44V273.12H170.747V256.32H174.155L182.027 266.664V256.32H185.675V273.12ZM207.3 273.12H194.508V256.32H207.18V259.608H198.18V263.016H206.1V266.304H198.18V269.832H207.3V273.12ZM228.106 259.728H222.994V273.12H219.298V259.728H214.186V256.32H228.106V259.728Z" fill="white"/>
</svg>
