<svg width="329" height="303" viewBox="0 0 329 303" fill="none" xmlns="http://www.w3.org/2000/svg">
<path d="M321.68 286.358C320.439 288.149 319.061 289.895 317.544 291.457C310.788 298.532 301.275 303.126 290.107 303.126H0V104.482L3.2631 102.599L181.016 0L323.105 246.007C330.964 259.559 329.355 274.949 321.68 286.358Z" fill="#00B3BD"/>
<g style="mix-blend-mode:overlay">
<mask id="mask0_136_230" style="mask-type:luminance" maskUnits="userSpaceOnUse" x="78" y="106" width="154" height="118">
<g style="mix-blend-mode:overlay">
<path d="M231.08 106.191H78.5559V223.787H231.08V106.191Z" fill="white"/>
</g>
</mask>
<g mask="url(#mask0_136_230)">
<path d="M187.896 166.792V169.914H151.433V166.792C151.433 166.417 151.808 163.173 154.18 160.051C157.302 156.056 162.544 153.928 169.538 153.928C176.532 153.928 181.774 155.926 184.896 160.051C187.521 163.173 187.896 166.295 187.896 166.792ZM191.271 166.539C191.271 166.417 190.024 150.431 169.669 150.431C149.314 150.431 148.067 166.417 148.067 166.539V171.537C148.067 172.531 148.817 173.281 149.811 173.281H189.64C190.643 173.281 191.385 172.531 191.385 171.537L191.263 166.539H191.271Z" fill="white"/>
<path d="M161.174 135.196C161.174 129.702 165.046 125.332 169.668 125.332C174.291 125.332 178.163 129.702 178.163 135.196C178.163 140.69 174.291 145.06 169.668 145.06C165.046 145.06 161.174 140.69 161.174 135.196ZM169.668 148.679C176.288 148.679 181.782 142.687 181.782 135.196C181.782 127.704 176.41 121.713 169.668 121.713C162.927 121.713 157.555 127.704 157.555 135.196C157.555 142.687 163.049 148.679 169.668 148.679Z" fill="white"/>
<path d="M137.069 141.439C137.069 136.948 140.313 133.198 144.185 133.198C148.057 133.198 151.302 136.939 151.302 141.439C151.302 145.939 148.057 149.681 144.185 149.681C140.313 149.681 137.069 145.939 137.069 141.439ZM144.185 152.681C149.801 152.681 154.302 147.684 154.302 141.439C154.302 135.195 149.81 130.198 144.185 130.198C138.56 130.198 134.068 135.195 134.068 141.439C134.068 147.684 138.56 152.681 144.185 152.681Z" fill="white"/>
<path d="M189.144 141.439C189.144 136.948 192.388 133.198 196.26 133.198C200.133 133.198 203.377 136.939 203.377 141.439C203.377 145.939 200.133 149.681 196.26 149.681C192.388 149.681 189.144 145.939 189.144 141.439ZM196.26 152.681C201.877 152.681 206.377 147.684 206.377 141.439C206.377 135.195 201.886 130.198 196.26 130.198C190.635 130.198 186.144 135.195 186.144 141.439C186.144 147.684 190.766 152.681 196.26 152.681Z" fill="white"/>
<path d="M159.435 218.919C147.949 218.919 123.722 209.43 118.106 207.058V182.831L168.549 192.572C170.171 192.572 171.549 193.95 171.549 195.572C171.549 197.194 170.171 198.572 168.549 198.572H140.083C138.958 198.572 138.086 199.444 138.086 200.569C138.086 201.694 138.958 202.567 140.083 202.567H168.427C170.921 202.567 173.049 201.319 174.296 199.322C176.415 198.45 184.282 195.572 194.773 193.2C202.387 191.447 206.634 193.697 208.631 195.319C200.512 200.439 170.546 218.919 159.435 218.919ZM97.2529 213.547V177.833H113.981V213.547H97.2529ZM213.254 194.691C213.001 194.316 207.637 186.328 193.771 189.45C185.407 191.325 178.788 193.566 175.168 194.822C174.793 191.578 172.046 188.953 168.671 188.709L117.853 178.845V175.976C117.853 174.851 116.981 173.979 115.856 173.979H95.3779C94.2529 173.979 93.3809 174.851 93.3809 175.976V215.683C93.3809 216.808 94.2529 217.68 95.3779 217.68H115.978C117.103 217.68 117.975 216.808 117.975 215.683V211.436C125.719 214.558 147.819 222.922 159.304 222.922C173.293 222.922 211.004 198.45 212.626 197.447C213.629 196.819 213.873 195.572 213.254 194.7" fill="white"/>
<path d="M214.112 167.665H214.365C214.365 167.543 213.362 154.182 196.26 154.182C192.641 154.182 189.763 154.81 187.522 155.682C188.272 156.432 189.022 157.182 189.519 158.054C191.516 157.426 193.766 157.051 196.26 157.051C202.13 157.051 206.499 158.804 209.124 162.171C211.121 164.796 211.374 167.412 211.496 167.787V170.412H193.016V172.409C193.016 172.784 192.894 173.037 192.763 173.281H212.865C213.615 173.281 214.243 172.653 214.243 171.781L214.365 167.656L214.112 167.665Z" fill="white"/>
<path d="M146.315 172.409V170.412H128.96V167.787C128.96 167.534 129.335 164.787 131.332 162.171C133.957 158.795 138.327 157.051 144.196 157.051C146.315 157.051 148.313 157.304 150.065 157.801C150.693 157.051 151.313 156.179 152.185 155.429C150.065 154.679 147.44 154.182 144.196 154.182C127.094 154.182 126.091 167.543 126.091 167.665V171.781C126.091 172.531 126.719 173.281 127.46 173.281H146.568C146.446 173.028 146.315 172.653 146.315 172.409Z" fill="white"/>
</g>
</g>
<path d="M77.731 270.409C77.299 270.873 76.851 271.289 76.387 271.657C75.923 272.025 75.411 272.345 74.851 272.617C74.307 272.873 73.707 273.065 73.051 273.193C72.395 273.337 71.659 273.409 70.843 273.409C69.611 273.409 68.467 273.185 67.411 272.737C66.355 272.289 65.443 271.681 64.675 270.913C63.907 270.129 63.307 269.209 62.875 268.153C62.443 267.097 62.2271 265.969 62.2271 264.769V264.721C62.2271 263.521 62.443 262.401 62.875 261.361C63.307 260.305 63.907 259.385 64.675 258.601C65.443 257.801 66.363 257.177 67.435 256.729C68.507 256.265 69.691 256.033 70.987 256.033C71.771 256.033 72.483 256.097 73.123 256.225C73.779 256.353 74.371 256.529 74.899 256.753C75.427 256.977 75.9151 257.249 76.3631 257.569C76.8111 257.889 77.227 258.241 77.611 258.625L75.259 261.337C74.603 260.745 73.931 260.281 73.243 259.945C72.571 259.609 71.811 259.441 70.963 259.441C70.259 259.441 69.603 259.577 68.995 259.849C68.403 260.121 67.891 260.497 67.459 260.977C67.027 261.457 66.691 262.017 66.451 262.657C66.211 263.281 66.091 263.953 66.091 264.673V264.721C66.091 265.441 66.211 266.121 66.451 266.761C66.691 267.401 67.019 267.961 67.435 268.441C67.867 268.921 68.379 269.305 68.971 269.593C69.579 269.865 70.243 270.001 70.963 270.001C71.923 270.001 72.731 269.825 73.387 269.473C74.059 269.121 74.723 268.641 75.379 268.033L77.731 270.409ZM102.602 264.721C102.602 265.921 102.378 267.049 101.93 268.105C101.482 269.145 100.858 270.065 100.058 270.865C99.274 271.649 98.33 272.273 97.226 272.737C96.138 273.185 94.946 273.409 93.65 273.409C92.354 273.409 91.1621 273.185 90.0741 272.737C88.9861 272.273 88.0421 271.657 87.2421 270.889C86.4581 270.105 85.842 269.193 85.394 268.153C84.962 267.097 84.746 265.969 84.746 264.769V264.721C84.746 263.521 84.97 262.401 85.418 261.361C85.866 260.305 86.4821 259.385 87.2661 258.601C88.0661 257.801 89.0101 257.177 90.0981 256.729C91.2021 256.265 92.402 256.033 93.698 256.033C94.994 256.033 96.186 256.265 97.274 256.729C98.362 257.177 99.298 257.793 100.082 258.577C100.882 259.345 101.498 260.257 101.93 261.313C102.378 262.353 102.602 263.473 102.602 264.673V264.721ZM98.7381 264.769V264.721C98.7381 264.001 98.61 263.321 98.354 262.681C98.114 262.041 97.762 261.481 97.298 261.001C96.85 260.521 96.314 260.145 95.69 259.873C95.066 259.585 94.386 259.441 93.65 259.441C92.898 259.441 92.21 259.577 91.586 259.849C90.978 260.121 90.45 260.497 90.002 260.977C89.57 261.457 89.226 262.017 88.97 262.657C88.73 263.281 88.61 263.953 88.61 264.673V264.721C88.61 265.441 88.73 266.121 88.97 266.761C89.226 267.401 89.578 267.961 90.026 268.441C90.49 268.921 91.026 269.305 91.634 269.593C92.258 269.865 92.946 270.001 93.698 270.001C94.434 270.001 95.1141 269.865 95.7381 269.593C96.3621 269.321 96.8901 268.945 97.3221 268.465C97.7701 267.985 98.114 267.433 98.354 266.809C98.61 266.169 98.7381 265.489 98.7381 264.769ZM127.481 273.121H123.809V262.153L119.081 269.329H118.985L114.305 262.225V273.121H110.681V256.321H114.665L119.081 263.425L123.497 256.321H127.481V273.121ZM153.117 273.121H149.445V262.153L144.717 269.329H144.621L139.941 262.225V273.121H136.317V256.321H140.301L144.717 263.425L149.133 256.321H153.117V273.121ZM176.329 265.801C176.329 267.081 176.153 268.193 175.801 269.137C175.465 270.081 174.977 270.873 174.337 271.513C173.697 272.137 172.921 272.609 172.009 272.929C171.097 273.233 170.081 273.385 168.961 273.385C166.705 273.385 164.929 272.761 163.633 271.513C162.337 270.265 161.689 268.401 161.689 265.921V256.321H165.385V265.825C165.385 267.201 165.705 268.241 166.345 268.945C166.985 269.633 167.873 269.977 169.009 269.977C170.145 269.977 171.033 269.641 171.673 268.969C172.313 268.297 172.633 267.289 172.633 265.945V256.321H176.329V265.801ZM199.821 273.121H196.677L188.541 262.441V273.121H184.893V256.321H188.301L196.173 266.665V256.321H199.821V273.121ZM212.518 273.121H208.822V256.321H212.518V273.121ZM234.237 259.729H229.125V273.121H225.429V259.729H220.317V256.321H234.237V259.729ZM256.759 256.321L250.303 266.425V273.121H246.607V266.497L240.151 256.321H244.471L248.479 263.065L252.559 256.321H256.759Z" fill="white"/>
</svg>
