<svg width="210" height="201" viewBox="0 0 210 201" fill="none" xmlns="http://www.w3.org/2000/svg">
<path d="M176.921 171.19C172.861 175.248 168.464 178.954 163.761 182.277C147.523 193.716 127.73 200.454 106.359 200.484C85.1567 200.515 64.2455 193.747 47.1488 181.236C42.9819 178.188 39.0754 174.835 35.4294 171.19C31.1246 166.887 27.2028 162.186 23.7405 157.163C18.6545 149.798 14.5488 141.712 11.5768 133.106C8.05331 122.877 6.12305 111.897 6.12305 100.474C6.12305 91.546 7.28734 82.9093 9.47804 74.6708C13.3692 60.0619 20.4775 46.77 30.0063 35.6067C31.7374 33.5853 33.5451 31.6253 35.4141 29.7417C39.0601 26.0972 42.9666 22.7436 47.1335 19.6962C64.2455 7.18531 85.1567 0.401558 106.344 0.447497C127.714 0.478124 147.507 7.21595 163.746 18.6549C168.449 21.9626 172.861 25.6837 176.906 29.7417C178.79 31.6253 180.598 33.57 182.313 35.6067C191.842 46.77 198.95 60.0619 202.842 74.6708C205.032 82.894 206.197 91.546 206.197 100.474C206.197 111.897 204.282 122.877 200.743 133.106C197.771 141.727 193.65 149.798 188.564 157.163C185.102 162.186 181.18 166.887 176.875 171.19H176.921Z" fill="url(#paint0_radial_1_57)"/>
<path d="M34.3058 96.288C33.8738 96.752 33.4258 97.168 32.9618 97.536C32.4978 97.904 31.9858 98.224 31.4258 98.496C30.8818 98.752 30.2818 98.944 29.6258 99.072C28.9698 99.216 28.2338 99.288 27.4178 99.288C26.1858 99.288 25.0418 99.064 23.9858 98.616C22.9298 98.168 22.0178 97.56 21.2498 96.792C20.4818 96.008 19.8818 95.088 19.4498 94.032C19.0178 92.976 18.8018 91.848 18.8018 90.648V90.6C18.8018 89.4 19.0178 88.28 19.4498 87.24C19.8818 86.184 20.4818 85.264 21.2498 84.48C22.0178 83.68 22.9378 83.056 24.0098 82.608C25.0818 82.144 26.2658 81.912 27.5618 81.912C28.3458 81.912 29.0578 81.976 29.6978 82.104C30.3538 82.232 30.9458 82.408 31.4738 82.632C32.0018 82.856 32.4898 83.128 32.9378 83.448C33.3858 83.768 33.8018 84.12 34.1858 84.504L31.8338 87.216C31.1778 86.624 30.5058 86.16 29.8178 85.824C29.1458 85.488 28.3858 85.32 27.5378 85.32C26.8338 85.32 26.1778 85.456 25.5698 85.728C24.9778 86 24.4658 86.376 24.0338 86.856C23.6018 87.336 23.2658 87.896 23.0258 88.536C22.7858 89.16 22.6658 89.832 22.6658 90.552V90.6C22.6658 91.32 22.7858 92 23.0258 92.64C23.2658 93.28 23.5938 93.84 24.0098 94.32C24.4418 94.8 24.9538 95.184 25.5458 95.472C26.1538 95.744 26.8178 95.88 27.5378 95.88C28.4978 95.88 29.3058 95.704 29.9618 95.352C30.6338 95 31.2978 94.52 31.9538 93.912L34.3058 96.288ZM56.0566 90.6C56.0566 91.8 55.8326 92.928 55.3846 93.984C54.9366 95.024 54.3126 95.944 53.5126 96.744C52.7286 97.528 51.7846 98.152 50.6806 98.616C49.5926 99.064 48.4006 99.288 47.1046 99.288C45.8086 99.288 44.6166 99.064 43.5286 98.616C42.4406 98.152 41.4966 97.536 40.6966 96.768C39.9126 95.984 39.2966 95.072 38.8486 94.032C38.4166 92.976 38.2006 91.848 38.2006 90.648V90.6C38.2006 89.4 38.4246 88.28 38.8726 87.24C39.3206 86.184 39.9366 85.264 40.7206 84.48C41.5206 83.68 42.4646 83.056 43.5526 82.608C44.6566 82.144 45.8566 81.912 47.1526 81.912C48.4486 81.912 49.6406 82.144 50.7286 82.608C51.8166 83.056 52.7526 83.672 53.5366 84.456C54.3366 85.224 54.9526 86.136 55.3846 87.192C55.8326 88.232 56.0566 89.352 56.0566 90.552V90.6ZM52.1926 90.648V90.6C52.1926 89.88 52.0646 89.2 51.8086 88.56C51.5686 87.92 51.2166 87.36 50.7526 86.88C50.3046 86.4 49.7686 86.024 49.1446 85.752C48.5206 85.464 47.8406 85.32 47.1046 85.32C46.3526 85.32 45.6646 85.456 45.0406 85.728C44.4326 86 43.9046 86.376 43.4566 86.856C43.0246 87.336 42.6806 87.896 42.4246 88.536C42.1846 89.16 42.0646 89.832 42.0646 90.552V90.6C42.0646 91.32 42.1846 92 42.4246 92.64C42.6806 93.28 43.0326 93.84 43.4806 94.32C43.9446 94.8 44.4806 95.184 45.0886 95.472C45.7126 95.744 46.4006 95.88 47.1526 95.88C47.8886 95.88 48.5686 95.744 49.1926 95.472C49.8166 95.2 50.3446 94.824 50.7766 94.344C51.2246 93.864 51.5686 93.312 51.8086 92.688C52.0646 92.048 52.1926 91.368 52.1926 90.648ZM75.5352 99H71.2152L67.6152 93.624H64.7112V99H61.0152V82.2H68.6952C70.6952 82.2 72.2472 82.688 73.3512 83.664C74.4712 84.64 75.0312 86 75.0312 87.744V87.792C75.0312 89.152 74.6952 90.264 74.0232 91.128C73.3672 91.976 72.5032 92.6 71.4312 93L75.5352 99ZM71.2872 87.984V87.936C71.2872 87.136 71.0312 86.536 70.5192 86.136C70.0072 85.736 69.2952 85.536 68.3832 85.536H64.7112V90.36H68.4552C69.3672 90.36 70.0632 90.144 70.5432 89.712C71.0392 89.28 71.2872 88.704 71.2872 87.984ZM93.335 88.056C93.335 89.032 93.159 89.888 92.807 90.624C92.455 91.36 91.967 91.976 91.343 92.472C90.735 92.968 90.015 93.344 89.183 93.6C88.367 93.84 87.487 93.96 86.543 93.96H83.735V99H80.039V82.2H86.903C87.911 82.2 88.807 82.344 89.591 82.632C90.391 82.904 91.063 83.296 91.607 83.808C92.167 84.32 92.591 84.936 92.879 85.656C93.183 86.36 93.335 87.144 93.335 88.008V88.056ZM89.591 88.128V88.08C89.591 87.248 89.319 86.616 88.775 86.184C88.247 85.752 87.519 85.536 86.591 85.536H83.735V90.672H86.663C87.591 90.672 88.311 90.432 88.823 89.952C89.335 89.456 89.591 88.848 89.591 88.128ZM114.862 90.6C114.862 91.8 114.638 92.928 114.19 93.984C113.742 95.024 113.118 95.944 112.318 96.744C111.534 97.528 110.59 98.152 109.486 98.616C108.398 99.064 107.206 99.288 105.91 99.288C104.614 99.288 103.422 99.064 102.334 98.616C101.246 98.152 100.302 97.536 99.5022 96.768C98.7182 95.984 98.1022 95.072 97.6542 94.032C97.2222 92.976 97.0062 91.848 97.0062 90.648V90.6C97.0062 89.4 97.2302 88.28 97.6782 87.24C98.1262 86.184 98.7422 85.264 99.5262 84.48C100.326 83.68 101.27 83.056 102.358 82.608C103.462 82.144 104.662 81.912 105.958 81.912C107.254 81.912 108.446 82.144 109.534 82.608C110.622 83.056 111.558 83.672 112.342 84.456C113.142 85.224 113.758 86.136 114.19 87.192C114.638 88.232 114.862 89.352 114.862 90.552V90.6ZM110.998 90.648V90.6C110.998 89.88 110.87 89.2 110.614 88.56C110.374 87.92 110.022 87.36 109.558 86.88C109.11 86.4 108.574 86.024 107.95 85.752C107.326 85.464 106.646 85.32 105.91 85.32C105.158 85.32 104.47 85.456 103.846 85.728C103.238 86 102.71 86.376 102.262 86.856C101.83 87.336 101.486 87.896 101.23 88.536C100.99 89.16 100.87 89.832 100.87 90.552V90.6C100.87 91.32 100.99 92 101.23 92.64C101.486 93.28 101.838 93.84 102.286 94.32C102.75 94.8 103.286 95.184 103.894 95.472C104.518 95.744 105.206 95.88 105.958 95.88C106.694 95.88 107.374 95.744 107.998 95.472C108.622 95.2 109.15 94.824 109.582 94.344C110.03 93.864 110.374 93.312 110.614 92.688C110.87 92.048 110.998 91.368 110.998 90.648ZM134.341 99H130.021L126.421 93.624H123.517V99H119.821V82.2H127.501C129.501 82.2 131.053 82.688 132.157 83.664C133.277 84.64 133.837 86 133.837 87.744V87.792C133.837 89.152 133.501 90.264 132.829 91.128C132.173 91.976 131.309 92.6 130.237 93L134.341 99ZM130.093 87.984V87.936C130.093 87.136 129.837 86.536 129.325 86.136C128.813 85.736 128.101 85.536 127.189 85.536H123.517V90.36H127.261C128.173 90.36 128.869 90.144 129.349 89.712C129.845 89.28 130.093 88.704 130.093 87.984ZM155.213 99H151.349L149.813 95.232H142.709L141.173 99H137.405L144.605 82.08H148.013L155.213 99ZM148.493 91.968L146.261 86.52L144.029 91.968H148.493ZM172.206 85.608H167.094V99H163.398V85.608H158.286V82.2H172.206V85.608ZM189.52 99H176.728V82.2H189.4V85.488H180.4V88.896H188.32V92.184H180.4V95.712H189.52V99ZM24.0638 120.624C23.1998 121.36 22.1678 121.992 20.9678 122.52C19.7838 123.032 18.4238 123.288 16.8878 123.288C15.5758 123.288 14.3758 123.072 13.2878 122.64C12.2158 122.208 11.2878 121.608 10.5038 120.84C9.73575 120.072 9.13575 119.16 8.70375 118.104C8.27175 117.048 8.05575 115.896 8.05575 114.648V114.6C8.05575 113.4 8.27175 112.28 8.70375 111.24C9.15175 110.184 9.76775 109.264 10.5518 108.48C11.3358 107.68 12.2638 107.056 13.3358 106.608C14.4078 106.144 15.5838 105.912 16.8638 105.912C17.6158 105.912 18.2958 105.968 18.9038 106.08C19.5278 106.176 20.1038 106.32 20.6318 106.512C21.1598 106.704 21.6558 106.944 22.1198 107.232C22.5838 107.52 23.0318 107.848 23.4638 108.216L21.1358 111.024C20.8158 110.752 20.4958 110.512 20.1758 110.304C19.8558 110.096 19.5198 109.92 19.1678 109.776C18.8318 109.632 18.4638 109.52 18.0638 109.44C17.6638 109.36 17.2238 109.32 16.7438 109.32C16.0718 109.32 15.4398 109.464 14.8478 109.752C14.2718 110.024 13.7598 110.4 13.3118 110.88C12.8798 111.344 12.5358 111.896 12.2798 112.536C12.0398 113.16 11.9198 113.832 11.9198 114.552V114.6C11.9198 115.368 12.0398 116.08 12.2798 116.736C12.5358 117.376 12.8878 117.936 13.3358 118.416C13.7998 118.896 14.3358 119.272 14.9438 119.544C15.5678 119.8 16.2558 119.928 17.0078 119.928C18.3838 119.928 19.5438 119.592 20.4878 118.92V116.52H16.7678V113.328H24.0638V120.624ZM46.4121 114.6C46.4121 115.8 46.1881 116.928 45.7401 117.984C45.2921 119.024 44.6681 119.944 43.8681 120.744C43.0841 121.528 42.1401 122.152 41.0361 122.616C39.9481 123.064 38.7561 123.288 37.4601 123.288C36.1641 123.288 34.9721 123.064 33.8841 122.616C32.7961 122.152 31.8521 121.536 31.0521 120.768C30.2681 119.984 29.6521 119.072 29.2041 118.032C28.7721 116.976 28.5561 115.848 28.5561 114.648V114.6C28.5561 113.4 28.7801 112.28 29.2281 111.24C29.6761 110.184 30.2921 109.264 31.0761 108.48C31.8761 107.68 32.8201 107.056 33.9081 106.608C35.0121 106.144 36.2121 105.912 37.5081 105.912C38.8041 105.912 39.9961 106.144 41.0841 106.608C42.1721 107.056 43.1081 107.672 43.8921 108.456C44.6921 109.224 45.3081 110.136 45.7401 111.192C46.1881 112.232 46.4121 113.352 46.4121 114.552V114.6ZM42.5481 114.648V114.6C42.5481 113.88 42.4201 113.2 42.1641 112.56C41.9241 111.92 41.5721 111.36 41.1081 110.88C40.6601 110.4 40.1241 110.024 39.5001 109.752C38.8761 109.464 38.1961 109.32 37.4601 109.32C36.7081 109.32 36.0201 109.456 35.3961 109.728C34.7881 110 34.2601 110.376 33.8121 110.856C33.3801 111.336 33.0361 111.896 32.7801 112.536C32.5401 113.16 32.4201 113.832 32.4201 114.552V114.6C32.4201 115.32 32.5401 116 32.7801 116.64C33.0361 117.28 33.3881 117.84 33.8361 118.32C34.3001 118.8 34.8361 119.184 35.4441 119.472C36.0681 119.744 36.7561 119.88 37.5081 119.88C38.2441 119.88 38.9241 119.744 39.5481 119.472C40.1721 119.2 40.7001 118.824 41.1321 118.344C41.5801 117.864 41.9241 117.312 42.1641 116.688C42.4201 116.048 42.5481 115.368 42.5481 114.648ZM66.7787 106.2L59.9867 123.12H56.7227L49.9307 106.2H54.0107L58.4027 118.032L62.7947 106.2H66.7787ZM83.8427 123H71.0507V106.2H83.7227V109.488H74.7227V112.896H82.6427V116.184H74.7227V119.712H83.8427V123ZM103.329 123H99.0088L95.4088 117.624H92.5048V123H88.8088V106.2H96.4888C98.4888 106.2 100.041 106.688 101.145 107.664C102.265 108.64 102.825 110 102.825 111.744V111.792C102.825 113.152 102.489 114.264 101.817 115.128C101.161 115.976 100.297 116.6 99.2248 117L103.329 123ZM99.0808 111.984V111.936C99.0808 111.136 98.8248 110.536 98.3128 110.136C97.8008 109.736 97.0888 109.536 96.1768 109.536H92.5048V114.36H96.2488C97.1608 114.36 97.8568 114.144 98.3368 113.712C98.8328 113.28 99.0808 112.704 99.0808 111.984ZM122.761 123H119.617L111.481 112.32V123H107.833V106.2H111.241L119.113 116.544V106.2H122.761V123ZM144.842 123H140.978L139.442 119.232H132.338L130.802 123H127.034L134.234 106.08H137.642L144.842 123ZM138.122 115.968L135.89 110.52L133.658 115.968H138.122ZM164.042 123H160.898L152.762 112.32V123H149.114V106.2H152.522L160.394 116.544V106.2H164.042V123ZM184.515 120.288C184.083 120.752 183.635 121.168 183.171 121.536C182.707 121.904 182.195 122.224 181.635 122.496C181.091 122.752 180.491 122.944 179.835 123.072C179.179 123.216 178.443 123.288 177.627 123.288C176.395 123.288 175.251 123.064 174.195 122.616C173.139 122.168 172.227 121.56 171.459 120.792C170.691 120.008 170.091 119.088 169.659 118.032C169.227 116.976 169.011 115.848 169.011 114.648V114.6C169.011 113.4 169.227 112.28 169.659 111.24C170.091 110.184 170.691 109.264 171.459 108.48C172.227 107.68 173.147 107.056 174.219 106.608C175.291 106.144 176.475 105.912 177.771 105.912C178.555 105.912 179.267 105.976 179.907 106.104C180.563 106.232 181.155 106.408 181.683 106.632C182.211 106.856 182.699 107.128 183.147 107.448C183.595 107.768 184.011 108.12 184.395 108.504L182.043 111.216C181.387 110.624 180.715 110.16 180.027 109.824C179.355 109.488 178.595 109.32 177.747 109.32C177.043 109.32 176.387 109.456 175.779 109.728C175.187 110 174.675 110.376 174.243 110.856C173.811 111.336 173.475 111.896 173.235 112.536C172.995 113.16 172.875 113.832 172.875 114.552V114.6C172.875 115.32 172.995 116 173.235 116.64C173.475 117.28 173.803 117.84 174.219 118.32C174.651 118.8 175.163 119.184 175.755 119.472C176.363 119.744 177.027 119.88 177.747 119.88C178.707 119.88 179.515 119.704 180.171 119.352C180.843 119 181.507 118.52 182.163 117.912L184.515 120.288ZM201.946 123H189.154V106.2H201.826V109.488H192.826V112.896H200.746V116.184H192.826V119.712H201.946V123Z" fill="white"/>
<defs>
<radialGradient id="paint0_radial_1_57" cx="0" cy="0" r="1" gradientUnits="userSpaceOnUse" gradientTransform="translate(106.16 100.466) rotate(90) scale(100.019 100.037)">
<stop stop-color="#D5D5D5"/>
<stop offset="0.0001" stop-color="#89C1F1"/>
<stop offset="0.965" stop-color="#3D86C6"/>
</radialGradient>
</defs>
</svg>
