<svg width="363" height="380" viewBox="0 0 363 380" fill="none" xmlns="http://www.w3.org/2000/svg">
<path d="M362.032 275.275L184.233 377.873L181.016 379.757L177.753 377.873L0 275.275L148.002 19.0535C154.666 7.47669 166.018 1.13701 177.738 0.172274C179.898 -0.0574246 182.058 -0.0574246 184.218 0.172274C195.937 1.09107 207.289 7.43075 213.999 19.0535L362.017 275.259L362.032 275.275Z" fill="#AD3088"/>
<g style="mix-blend-mode:overlay">
<path d="M180.824 121.334C171.616 121.334 164.211 128.924 164.211 138.368C164.211 147.811 171.616 155.402 180.824 155.402C190.033 155.402 197.437 147.811 197.437 138.368C197.437 128.924 190.033 121.334 180.824 121.334ZM180.824 159.496C169.415 159.496 160.206 150.061 160.206 138.36C160.206 126.659 169.415 117.223 180.824 117.223C192.234 117.223 201.443 126.659 201.443 138.36C201.443 150.061 192.234 159.496 180.824 159.496Z" fill="white"/>
<path d="M148.786 191.921H212.843C212.843 190.691 212.64 189.461 212.446 188.223C211.443 182.89 209.242 177.76 205.843 173.447C202.242 168.932 197.638 165.444 192.435 163.389C185.427 167.289 176.623 167.289 169.615 163.389C164.412 165.444 159.605 168.932 156.206 173.447C152.8 177.752 150.599 182.882 149.603 188.223C149.207 189.453 149.004 190.683 148.802 191.921M216.864 196.024H144.797V193.968C144.797 191.913 144.999 189.655 145.395 187.406C146.399 181.248 148.996 175.502 152.8 170.785C157.008 165.452 162.607 161.349 169.016 159.092L169.817 158.679L170.618 159.092C176.825 162.992 184.634 162.992 190.84 159.092L191.642 158.679L192.443 159.092C198.852 161.349 204.451 165.452 208.659 170.785C212.462 175.502 215.068 181.458 216.063 187.406C216.46 189.663 216.662 191.719 216.662 193.968V196.024H216.864Z" fill="white"/>
<path d="M236.27 127.484C228.866 127.484 222.854 133.642 222.854 141.232C222.854 148.823 228.858 154.981 236.27 154.981C243.683 154.981 249.679 148.823 249.679 141.232C249.679 133.642 243.675 127.484 236.27 127.484ZM236.27 159.084C226.665 159.084 218.856 151.08 218.856 141.232C218.856 131.384 226.665 123.381 236.27 123.381C245.876 123.381 253.684 131.384 253.684 141.232C253.684 151.08 245.876 159.084 236.27 159.084Z" fill="white"/>
<path d="M221.259 185.763H262.496C261.695 175.503 255.286 166.472 245.681 162.782C239.879 166.067 232.669 166.067 226.665 162.782C222.06 164.627 217.861 167.912 214.85 172.015C218.055 176.118 220.053 180.835 221.259 185.763ZM266.502 189.866H217.861L217.658 188.223C216.655 182.891 214.454 177.76 211.055 173.447L210.052 172.217L210.853 170.987C214.454 165.242 220.062 160.726 226.268 158.671L227.069 158.258L227.87 158.671C232.871 161.746 239.28 161.746 244.289 158.671L245.09 158.258L245.891 158.671C258.102 162.984 266.113 174.677 266.308 188.013L266.51 189.858L266.502 189.866Z" fill="white"/>
<path d="M125.369 127.484C117.965 127.484 111.952 133.642 111.952 141.233C111.952 148.823 117.957 154.981 125.369 154.981C132.781 154.981 138.778 148.823 138.778 141.233C138.778 133.642 132.773 127.484 125.369 127.484ZM125.369 159.084C115.764 159.084 107.955 151.081 107.955 141.233C107.955 131.384 115.764 123.381 125.369 123.381C134.974 123.381 142.783 131.384 142.783 141.233C142.783 151.081 134.974 159.084 125.369 159.084Z" fill="white"/>
<path d="M99.1428 185.763H140.38C141.586 180.835 143.584 176.118 146.587 172.015C143.584 167.912 139.579 164.627 134.772 162.782C128.97 166.067 121.76 166.067 115.756 162.782C106.547 166.472 99.9439 175.503 99.1428 185.763ZM143.787 189.866H95.1453V187.811C95.1453 174.677 103.351 162.984 115.562 158.469L116.363 158.056L117.164 158.469C122.165 161.544 128.574 161.544 133.583 158.469L134.384 158.056L135.185 158.469C141.594 160.727 146.999 165.032 150.6 170.777L151.401 172.007L150.398 173.237C146.991 177.55 144.79 182.672 143.795 188.013V189.858L143.787 189.866Z" fill="white"/>
</g>
<path d="M133.81 217.056C133.81 218.032 133.634 218.888 133.282 219.624C132.93 220.36 132.442 220.976 131.818 221.472C131.21 221.968 130.49 222.344 129.658 222.6C128.842 222.84 127.962 222.96 127.018 222.96H124.21V228H120.514V211.2H127.378C128.386 211.2 129.282 211.344 130.066 211.632C130.866 211.904 131.538 212.296 132.082 212.808C132.642 213.32 133.066 213.936 133.354 214.656C133.658 215.36 133.81 216.144 133.81 217.008V217.056ZM130.066 217.128V217.08C130.066 216.248 129.794 215.616 129.25 215.184C128.722 214.752 127.994 214.536 127.066 214.536H124.21V219.672H127.138C128.066 219.672 128.786 219.432 129.298 218.952C129.81 218.456 130.066 217.848 130.066 217.128ZM154.137 228H141.345V211.2H154.017V214.488H145.017V217.896H152.937V221.184H145.017V224.712H154.137V228ZM179.335 219.6C179.335 220.8 179.111 221.928 178.663 222.984C178.215 224.024 177.591 224.944 176.791 225.744C176.007 226.528 175.063 227.152 173.959 227.616C172.871 228.064 171.679 228.288 170.383 228.288C169.087 228.288 167.895 228.064 166.807 227.616C165.719 227.152 164.775 226.536 163.975 225.768C163.191 224.984 162.575 224.072 162.127 223.032C161.695 221.976 161.479 220.848 161.479 219.648V219.6C161.479 218.4 161.703 217.28 162.151 216.24C162.599 215.184 163.215 214.264 163.999 213.48C164.799 212.68 165.743 212.056 166.831 211.608C167.935 211.144 169.135 210.912 170.431 210.912C171.727 210.912 172.919 211.144 174.007 211.608C175.095 212.056 176.031 212.672 176.815 213.456C177.615 214.224 178.231 215.136 178.663 216.192C179.111 217.232 179.335 218.352 179.335 219.552V219.6ZM175.471 219.648V219.6C175.471 218.88 175.343 218.2 175.087 217.56C174.847 216.92 174.495 216.36 174.031 215.88C173.583 215.4 173.047 215.024 172.423 214.752C171.799 214.464 171.119 214.32 170.383 214.32C169.631 214.32 168.943 214.456 168.319 214.728C167.711 215 167.183 215.376 166.735 215.856C166.303 216.336 165.959 216.896 165.703 217.536C165.463 218.16 165.343 218.832 165.343 219.552V219.6C165.343 220.32 165.463 221 165.703 221.64C165.959 222.28 166.311 222.84 166.759 223.32C167.223 223.8 167.759 224.184 168.367 224.472C168.991 224.744 169.679 224.88 170.431 224.88C171.167 224.88 171.847 224.744 172.471 224.472C173.095 224.2 173.623 223.824 174.055 223.344C174.503 222.864 174.847 222.312 175.087 221.688C175.343 221.048 175.471 220.368 175.471 219.648ZM200.71 217.056C200.71 218.032 200.534 218.888 200.182 219.624C199.83 220.36 199.342 220.976 198.718 221.472C198.11 221.968 197.39 222.344 196.558 222.6C195.742 222.84 194.862 222.96 193.918 222.96H191.11V228H187.414V211.2H194.278C195.286 211.2 196.182 211.344 196.966 211.632C197.766 211.904 198.438 212.296 198.982 212.808C199.542 213.32 199.966 213.936 200.254 214.656C200.558 215.36 200.71 216.144 200.71 217.008V217.056ZM196.966 217.128V217.08C196.966 216.248 196.694 215.616 196.15 215.184C195.622 214.752 194.894 214.536 193.966 214.536H191.11V219.672H194.038C194.966 219.672 195.686 219.432 196.198 218.952C196.71 218.456 196.966 217.848 196.966 217.128ZM220.317 228H208.245V211.2H211.941V224.64H220.317V228ZM240.696 228H227.904V211.2H240.576V214.488H231.576V217.896H239.496V221.184H231.576V224.712H240.696V228Z" fill="white"/>
</svg>
