<svg width="194" height="194" viewBox="0 0 194 194" fill="none" xmlns="http://www.w3.org/2000/svg">
<circle cx="97" cy="97" r="97" fill="#3B91DC"/>
<path opacity="0.75" fill-rule="evenodd" clip-rule="evenodd" d="M151.707 61.6083C151.707 61.6083 151.707 61.4908 151.707 61.4321C151.707 61.4125 151.707 61.3929 151.707 61.3733C151.707 61.295 151.707 61.2167 151.707 61.1383C151.707 61.06 151.687 60.9817 151.668 60.9229C151.668 60.9229 151.668 60.8838 151.668 60.8642C151.668 60.8054 151.629 60.7467 151.609 60.6879C151.609 60.6879 151.609 60.6488 151.609 60.6292C151.57 60.5509 151.55 60.4921 151.511 60.4138L139.258 39.6753C139.179 39.5382 139.082 39.4207 138.964 39.3032C138.964 39.3032 138.945 39.2836 138.925 39.2641C138.886 39.2249 138.847 39.1857 138.788 39.1466C138.788 39.1466 138.749 39.127 138.73 39.1074C138.671 39.0682 138.613 39.0291 138.554 38.9899C138.495 38.9507 138.417 38.9116 138.339 38.892C138.339 38.892 138.3 38.892 138.28 38.8724C138.222 38.8528 138.163 38.8332 138.104 38.8136C138.104 38.8136 138.065 38.8136 138.046 38.8136C137.89 38.7745 137.733 38.7549 137.577 38.7549C137.577 38.7549 137.557 38.7549 137.538 38.7549C137.479 38.7549 137.42 38.7549 137.342 38.7549C137.323 38.7549 137.303 38.7549 137.284 38.7549C137.225 38.7549 137.166 38.7745 137.088 38.7941H137.049C130.795 40.537 128.509 39.6557 125.87 38.657C123.447 37.7366 120.73 36.7183 115.492 37.3057C114.32 33.6633 110.9 31 106.874 31C102.848 31 99.4276 33.6437 98.255 37.3057C93.0173 36.6987 90.3007 37.7366 87.8773 38.657C85.2389 39.6557 82.9523 40.537 76.6983 38.7941C76.6983 38.7941 76.6592 38.7941 76.6397 38.7941C76.5811 38.7941 76.5224 38.7745 76.4638 38.7549C76.4443 38.7549 76.4247 38.7549 76.3856 38.7549C76.327 38.7549 76.2684 38.7549 76.2097 38.7549C76.2097 38.7549 76.1902 38.7549 76.1707 38.7549C76.1707 38.7549 76.1706 38.7549 76.1511 38.7549C75.9947 38.7549 75.8384 38.7745 75.6821 38.8136C75.6625 38.8136 75.643 38.8136 75.6234 38.8136C75.5648 38.8136 75.5257 38.8528 75.4671 38.8724C75.4475 38.8724 75.428 38.8724 75.4084 38.892C75.3302 38.9311 75.2716 38.9507 75.213 38.9899C75.213 38.9899 75.213 38.9899 75.1935 38.9899C75.1348 39.0291 75.0762 39.0682 75.0176 39.1074C75.0176 39.1074 74.9785 39.1466 74.959 39.1466C74.9199 39.1857 74.8808 39.2249 74.8221 39.2641C74.8221 39.2641 74.783 39.2836 74.783 39.3032C74.6658 39.4207 74.568 39.5382 74.4899 39.6753C74.4899 39.6753 74.4899 39.6753 74.4899 39.6949L62.236 60.4334C62.1969 60.4921 62.1578 60.5704 62.1383 60.6488C62.1383 60.6488 62.1383 60.6879 62.1383 60.7075C62.1187 60.7663 62.0992 60.825 62.0796 60.8838V60.9425C62.0796 60.9425 62.021 61.0796 62.021 61.1579C62.021 61.2363 62.021 61.3146 62.021 61.3929C62.021 61.4125 62.021 61.4321 62.021 61.4517C62.021 61.5104 62.021 61.5692 62.021 61.6279C62.021 61.6475 62.021 61.6867 62.021 61.7063C62.021 61.7063 62.021 61.7454 62.021 61.765C63.2132 68.717 69.1935 73.7694 76.2488 73.7694C83.304 73.7694 89.2844 68.717 90.4766 61.765C90.4766 61.765 90.4766 61.7258 90.4766 61.7063C90.4766 61.6867 90.4766 61.6475 90.4766 61.6279C90.4766 61.5692 90.4766 61.5104 90.4766 61.4517C90.4766 61.4321 90.4766 61.4125 90.4766 61.3929C90.4766 61.3146 90.4766 61.2363 90.4766 61.1579C90.4766 61.0796 90.457 61.0013 90.4375 60.9425C90.4375 60.9425 90.4375 60.9033 90.4375 60.8838C90.4375 60.825 90.3984 60.7663 90.3789 60.7075C90.3789 60.7075 90.3789 60.6684 90.3789 60.6488C90.3398 60.5704 90.3203 60.5117 90.2812 60.4334L80.3335 43.6115C81.2911 43.729 82.151 43.7877 82.9523 43.7877C85.7666 43.7877 87.6232 43.0828 89.4408 42.3973C91.6296 41.5749 93.7208 40.772 98.0595 41.3007C98.5676 45.0606 101.382 48.0764 105.017 48.9185V85.0101C101.382 85.3234 97.8641 86.518 94.7762 88.4959C91.2192 90.7675 88.3659 93.9987 86.5288 97.7978C86.2356 98.4245 86.2747 99.1491 86.6265 99.7366C86.9783 100.324 87.6232 100.677 88.3268 100.677H125.733C126.417 100.677 127.062 100.324 127.434 99.7366C127.805 99.1491 127.844 98.4245 127.531 97.7978C125.694 93.9987 122.841 90.7871 119.284 88.4959C116.196 86.518 112.678 85.3234 109.024 85.0101V48.8793C112.659 48.0569 115.473 45.0215 115.981 41.2811C120.32 40.772 122.411 41.5553 124.6 42.3778C126.417 43.0632 128.274 43.7682 131.088 43.7682C131.87 43.7682 132.75 43.7094 133.707 43.5919L123.759 60.4138C123.72 60.4725 123.681 60.5509 123.642 60.6292V60.6684C123.623 60.7271 123.603 60.7858 123.584 60.8642C123.584 60.8642 123.584 60.9033 123.584 60.9229C123.584 61.0013 123.544 61.0796 123.544 61.1579C123.544 61.2363 123.544 61.3146 123.544 61.3929C123.544 61.3929 123.544 61.4321 123.544 61.4517C123.544 61.5104 123.544 61.5692 123.544 61.6279C123.544 61.6475 123.544 61.6867 123.544 61.7063C123.544 61.7258 123.544 61.7454 123.544 61.765C124.737 68.717 130.717 73.7694 137.772 73.7694C144.827 73.7694 150.808 68.717 152 61.765C152 61.765 152 61.7258 152 61.7063C152 61.6671 152 61.6475 152 61.6279L151.707 61.6083ZM76.0729 69.7549C71.7928 69.7549 68.0796 67.1895 66.4575 63.41H85.6688C84.0663 67.1895 80.3335 69.7549 76.0534 69.7549H76.0729ZM67.3174 59.415L76.0729 44.6102L84.8285 59.415H67.3174ZM121.981 96.6229H91.5906C95.0889 91.7859 100.659 88.868 106.796 88.868C112.932 88.868 118.502 91.7663 122 96.6229H121.981ZM106.776 45.0998C104.001 45.0998 101.734 42.8282 101.734 40.0474C101.734 37.2666 104.001 34.9949 106.776 34.9949C109.551 34.9949 111.818 37.2666 111.818 40.0474C111.818 42.8282 109.551 45.0998 106.776 45.0998ZM137.479 44.6102L146.235 59.415H128.724L137.479 44.6102ZM137.479 69.7549C133.199 69.7549 129.486 67.1895 127.864 63.41H147.075C145.472 67.1895 141.74 69.7549 137.46 69.7549H137.479ZM128.118 107.55L106.405 120.22C105.369 120.828 104.333 121.258 103.239 121.533C103.629 120.867 103.942 120.142 104.157 119.339C105.271 115.148 102.789 110.781 98.509 109.391C98.4309 109.371 98.3331 109.332 98.255 109.332C92.0205 108.196 85.8643 105.984 80.9197 104.182C79.1999 103.555 77.5778 102.968 76.1902 102.517C70.6007 100.696 65.5584 102.948 61.3761 105.376L45.2917 114.718L43.8063 112.074C43.1223 110.86 42.0083 109.998 40.6794 109.626C39.3309 109.254 37.9433 109.43 36.7316 110.116L30.6339 113.562C28.1519 114.972 27.2529 118.164 28.6796 120.651L46.5815 152.356C47.5392 154.04 49.2981 155 51.1157 155C51.9756 155 52.8551 154.785 53.6564 154.334L59.754 150.888C60.9657 150.202 61.8256 149.086 62.197 147.754C62.5683 146.403 62.3924 145.013 61.7084 143.798L59.8908 140.587L63.4868 138.511L91.2779 145.972C92.8609 146.403 94.4049 146.599 95.9098 146.599C98.939 146.599 101.812 145.757 104.528 144.073L143.928 119.75C147.544 117.518 148.697 111.878 146.352 107.942C145.199 106.023 140.508 100.344 128.137 107.55H128.118ZM58.3077 146.658C58.2296 146.971 58.0146 147.226 57.741 147.382L51.6434 150.829C51.0766 151.142 50.3339 150.946 50.0017 150.378L32.0997 118.673C31.787 118.105 31.9824 117.361 32.5492 117.028L38.6468 113.582C38.8227 113.484 39.0182 113.425 39.2331 113.425C39.3504 113.425 39.4481 113.425 39.5654 113.464C39.8781 113.543 40.1321 113.758 40.2885 114.032L58.1905 145.737C58.3468 146.011 58.3859 146.344 58.2882 146.658H58.3077ZM141.818 116.343L102.418 140.665C99.3103 142.584 95.8902 143.054 92.2746 142.095L63.7018 134.418C63.1937 134.281 62.6465 134.359 62.197 134.614L57.9169 137.101L47.246 118.203L63.3695 108.843C66.9851 106.747 70.8743 105.004 74.959 106.316C76.2684 106.747 77.7927 107.296 79.5517 107.942C84.5939 109.763 90.887 112.035 97.395 113.249C99.623 114.032 100.874 116.186 100.307 118.321C99.5644 121.121 97.2191 121.474 95.3625 121.258C92.1769 120.593 89.1281 119.731 85.9229 118.81C84.3985 118.38 82.8155 117.929 81.1933 117.479C80.138 117.185 79.024 117.831 78.7504 118.889C78.4572 119.946 79.1022 121.063 80.1575 121.337C81.7406 121.768 83.3041 122.218 84.8089 122.649C88.1313 123.589 91.2584 124.49 94.6199 125.175C94.6199 125.175 94.6394 125.175 94.6589 125.175C94.6589 125.175 94.6785 125.175 94.698 125.175L97.395 125.606C101.441 126.252 105.056 125.606 108.398 123.667L130.111 110.997C136.326 107.374 141.095 106.982 142.893 109.979C144.124 112.035 143.577 115.246 141.818 116.323V116.343ZM40.3862 119.653C40.5621 120.847 39.7413 121.944 38.5491 122.12C37.3569 122.296 36.2625 121.474 36.0866 120.279C35.9107 119.085 36.7316 117.988 37.9237 117.812C39.1159 117.636 40.2103 118.458 40.3862 119.653Z" fill="white"/>
</svg>
