<svg width="160" height="2" viewBox="0 0 160 2" fill="none" xmlns="http://www.w3.org/2000/svg">
<circle cx="1" cy="1" r="1" fill="#8CD3DA"/>
<circle cx="5" cy="1" r="1" fill="#8CD3DA"/>
<circle cx="9" cy="1" r="1" fill="#8CD3DA"/>
<circle cx="13" cy="1" r="1" fill="#8CD3DA"/>
<circle cx="17" cy="1" r="1" fill="#8CD3DA"/>
<circle cx="21" cy="1" r="1" fill="#8CD3DA"/>
<circle cx="25" cy="1" r="1" fill="#8CD3DA"/>
<circle cx="29" cy="1" r="1" fill="#8CD3DA"/>
<circle cx="33" cy="1" r="1" fill="#8CD3DA"/>
<circle cx="37" cy="1" r="1" fill="#8CD3DA"/>
<circle cx="41" cy="1" r="1" fill="#8CD3DA"/>
<circle cx="45" cy="1" r="1" fill="#8CD3DA"/>
<circle cx="49" cy="1" r="1" fill="#8CD3DA"/>
<circle cx="53" cy="1" r="1" fill="#8CD3DA"/>
<circle cx="57" cy="1" r="1" fill="#8CD3DA"/>
<circle cx="61" cy="1" r="1" fill="#8CD3DA"/>
<circle cx="65" cy="1" r="1" fill="#8CD3DA"/>
<circle cx="69" cy="1" r="1" fill="#8CD3DA"/>
<circle cx="73" cy="1" r="1" fill="#8CD3DA"/>
<circle cx="77" cy="1" r="1" fill="#8CD3DA"/>
<circle cx="81" cy="1" r="1" fill="#8CD3DA"/>
<circle cx="85" cy="1" r="1" fill="#8CD3DA"/>
<circle cx="89" cy="1" r="1" fill="#8CD3DA"/>
<circle cx="93" cy="1" r="1" fill="#8CD3DA"/>
<circle cx="97" cy="1" r="1" fill="#8CD3DA"/>
<circle cx="101" cy="1" r="1" fill="#8CD3DA"/>
<circle cx="105" cy="1" r="1" fill="#8CD3DA"/>
<circle cx="109" cy="1" r="1" fill="#8CD3DA"/>
<circle cx="113" cy="1" r="1" fill="#8CD3DA"/>
<circle cx="117" cy="1" r="1" fill="#8CD3DA"/>
<circle cx="121" cy="1" r="1" fill="#8CD3DA"/>
<circle cx="125" cy="1" r="1" fill="#8CD3DA"/>
<circle cx="129" cy="1" r="1" fill="#8CD3DA"/>
<circle cx="133" cy="1" r="1" fill="#8CD3DA"/>
<circle cx="137" cy="1" r="1" fill="#8CD3DA"/>
<circle cx="141" cy="1" r="1" fill="#8CD3DA"/>
<circle cx="145" cy="1" r="1" fill="#8CD3DA"/>
<circle cx="149" cy="1" r="1" fill="#8CD3DA"/>
<circle cx="153" cy="1" r="1" fill="#8CD3DA"/>
<circle cx="157" cy="1" r="1" fill="#8CD3DA"/>
</svg>
