<svg width="480" height="496" viewBox="0 0 480 496" fill="none" xmlns="http://www.w3.org/2000/svg">
<rect x="32" y="96" width="62" height="27" rx="7" fill="#D6D795"/>
<rect x="149" y="96" width="62" height="27" rx="7" fill="#9AA613"/>
<rect x="266" y="96" width="62" height="27" rx="7" fill="#D6D795"/>
<rect x="384" y="96" width="62" height="27" rx="7" fill="#9AA613"/>
<path d="M47.6759 103.372L50.7539 102.31H51.7979V115H50.3939V103.786L48.0179 104.524L47.6759 103.372ZM65.377 108.682C65.377 109.57 65.251 110.41 64.999 111.202C64.747 111.994 64.387 112.69 63.919 113.29C63.463 113.878 62.905 114.346 62.245 114.694C61.585 115.042 60.853 115.216 60.049 115.216C59.233 115.216 58.495 115.048 57.835 114.712C57.187 114.364 56.629 113.896 56.161 113.308C55.705 112.708 55.351 112.018 55.099 111.238C54.859 110.446 54.739 109.606 54.739 108.718C54.739 107.83 54.865 106.99 55.117 106.198C55.369 105.406 55.723 104.716 56.179 104.128C56.647 103.528 57.211 103.054 57.871 102.706C58.531 102.358 59.269 102.184 60.085 102.184C60.889 102.184 61.615 102.358 62.263 102.706C62.923 103.042 63.481 103.51 63.937 104.11C64.405 104.698 64.759 105.388 64.999 106.18C65.251 106.96 65.377 107.794 65.377 108.682ZM63.901 108.718C63.901 108.022 63.811 107.362 63.631 106.738C63.451 106.102 63.193 105.544 62.857 105.064C62.521 104.584 62.113 104.2 61.633 103.912C61.165 103.624 60.637 103.48 60.049 103.48C59.461 103.48 58.927 103.624 58.447 103.912C57.979 104.188 57.577 104.566 57.241 105.046C56.917 105.514 56.665 106.066 56.485 106.702C56.305 107.326 56.215 107.986 56.215 108.682C56.215 109.378 56.305 110.044 56.485 110.68C56.665 111.316 56.923 111.874 57.259 112.354C57.595 112.834 58.003 113.218 58.483 113.506C58.963 113.782 59.497 113.92 60.085 113.92C60.673 113.92 61.201 113.782 61.669 113.506C62.149 113.218 62.551 112.84 62.875 112.372C63.211 111.892 63.463 111.34 63.631 110.716C63.811 110.08 63.901 109.414 63.901 108.718ZM76.8942 111.58C76.8942 112.12 76.7742 112.612 76.5342 113.056C76.2942 113.5 75.9582 113.878 75.5262 114.19C75.1062 114.502 74.6082 114.748 74.0322 114.928C73.4562 115.096 72.8322 115.18 72.1602 115.18C71.4882 115.18 70.8642 115.096 70.2882 114.928C69.7122 114.748 69.2082 114.502 68.7762 114.19C68.3562 113.878 68.0262 113.5 67.7862 113.056C67.5462 112.612 67.4262 112.126 67.4262 111.598C67.4262 110.842 67.6662 110.206 68.1462 109.69C68.6382 109.162 69.2622 108.76 70.0182 108.484C69.7302 108.352 69.4542 108.196 69.1902 108.016C68.9262 107.824 68.6922 107.614 68.4882 107.386C68.2962 107.146 68.1402 106.876 68.0202 106.576C67.9122 106.276 67.8582 105.94 67.8582 105.568C67.8582 105.076 67.9722 104.626 68.2002 104.218C68.4402 103.81 68.7522 103.456 69.1362 103.156C69.5322 102.856 69.9882 102.628 70.5042 102.472C71.0322 102.304 71.5842 102.22 72.1602 102.22C72.7362 102.22 73.2822 102.304 73.7982 102.472C74.3262 102.628 74.7822 102.856 75.1662 103.156C75.5622 103.456 75.8742 103.81 76.1022 104.218C76.3422 104.626 76.4622 105.076 76.4622 105.568C76.4622 105.94 76.4022 106.276 76.2822 106.576C76.1742 106.876 76.0182 107.146 75.8142 107.386C75.6222 107.614 75.3942 107.824 75.1302 108.016C74.8662 108.196 74.5902 108.352 74.3022 108.484C75.0582 108.76 75.6762 109.156 76.1562 109.672C76.6482 110.188 76.8942 110.824 76.8942 111.58ZM75.0402 105.658C75.0402 105.346 74.9682 105.058 74.8242 104.794C74.6802 104.518 74.4762 104.284 74.2122 104.092C73.9602 103.888 73.6542 103.732 73.2942 103.624C72.9462 103.516 72.5682 103.462 72.1602 103.462C71.7522 103.462 71.3682 103.516 71.0082 103.624C70.6602 103.732 70.3542 103.888 70.0902 104.092C69.8382 104.284 69.6402 104.512 69.4962 104.776C69.3522 105.04 69.2802 105.334 69.2802 105.658C69.2802 106.006 69.3522 106.324 69.4962 106.612C69.6522 106.888 69.8562 107.128 70.1082 107.332C70.3722 107.536 70.6782 107.698 71.0262 107.818C71.3862 107.926 71.7642 107.98 72.1602 107.98C72.5562 107.98 72.9282 107.926 73.2762 107.818C73.6362 107.698 73.9422 107.536 74.1942 107.332C74.4582 107.128 74.6622 106.888 74.8062 106.612C74.9622 106.324 75.0402 106.006 75.0402 105.658ZM75.4542 111.562C75.4542 111.202 75.3642 110.878 75.1842 110.59C75.0162 110.29 74.7822 110.038 74.4822 109.834C74.1942 109.618 73.8462 109.45 73.4382 109.33C73.0422 109.21 72.6162 109.15 72.1602 109.15C71.7042 109.15 71.2722 109.21 70.8642 109.33C70.4682 109.45 70.1202 109.618 69.8202 109.834C69.5202 110.038 69.2862 110.29 69.1182 110.59C68.9502 110.878 68.8662 111.202 68.8662 111.562C68.8662 111.886 68.9382 112.192 69.0822 112.48C69.2382 112.768 69.4542 113.02 69.7302 113.236C70.0182 113.452 70.3662 113.626 70.7742 113.758C71.1822 113.878 71.6442 113.938 72.1602 113.938C72.6762 113.938 73.1382 113.878 73.5462 113.758C73.9542 113.626 74.2962 113.452 74.5722 113.236C74.8602 113.02 75.0762 112.768 75.2202 112.48C75.3762 112.192 75.4542 111.886 75.4542 111.562Z" fill="#151515"/>
<path d="M178.553 108.376C178.553 109.384 178.427 110.308 178.175 111.148C177.923 111.976 177.563 112.696 177.095 113.308C176.639 113.908 176.087 114.376 175.439 114.712C174.803 115.048 174.095 115.216 173.315 115.216C172.487 115.216 171.767 115.072 171.155 114.784C170.543 114.484 169.967 114.112 169.427 113.668L170.255 112.57C170.771 113.026 171.275 113.368 171.767 113.596C172.259 113.812 172.787 113.92 173.351 113.92C173.915 113.92 174.431 113.782 174.899 113.506C175.367 113.23 175.763 112.852 176.087 112.372C176.423 111.88 176.675 111.298 176.843 110.626C177.023 109.942 177.107 109.198 177.095 108.394C176.747 108.946 176.285 109.42 175.709 109.816C175.133 110.212 174.407 110.41 173.531 110.41C172.883 110.41 172.289 110.314 171.749 110.122C171.209 109.93 170.747 109.66 170.363 109.312C169.979 108.964 169.679 108.55 169.463 108.07C169.247 107.59 169.139 107.062 169.139 106.486C169.139 105.886 169.247 105.328 169.463 104.812C169.691 104.284 170.003 103.828 170.399 103.444C170.795 103.048 171.269 102.742 171.821 102.526C172.385 102.298 173.003 102.184 173.675 102.184C174.395 102.184 175.025 102.298 175.565 102.526C176.105 102.754 176.579 103.072 176.987 103.48C177.239 103.732 177.461 104.008 177.653 104.308C177.845 104.608 178.007 104.956 178.139 105.352C178.271 105.736 178.373 106.18 178.445 106.684C178.517 107.176 178.553 107.74 178.553 108.376ZM176.825 106.324C176.825 105.916 176.747 105.538 176.591 105.19C176.435 104.842 176.213 104.542 175.925 104.29C175.649 104.026 175.313 103.822 174.917 103.678C174.521 103.522 174.089 103.444 173.621 103.444C173.153 103.444 172.727 103.528 172.343 103.696C171.971 103.852 171.653 104.068 171.389 104.344C171.137 104.608 170.939 104.92 170.795 105.28C170.663 105.64 170.597 106.018 170.597 106.414C170.597 106.822 170.669 107.194 170.813 107.53C170.969 107.866 171.179 108.16 171.443 108.412C171.719 108.652 172.049 108.844 172.433 108.988C172.817 109.12 173.237 109.186 173.693 109.186C174.173 109.186 174.605 109.108 174.989 108.952C175.385 108.784 175.715 108.568 175.979 108.304C176.255 108.04 176.465 107.734 176.609 107.386C176.753 107.038 176.825 106.684 176.825 106.324ZM180.496 103.696V102.4H189.046V103.462L183.322 115H181.738L187.426 103.696H180.496Z" fill="#151515"/>
<path d="M300.721 108.376C300.721 109.384 300.595 110.308 300.343 111.148C300.091 111.976 299.731 112.696 299.263 113.308C298.807 113.908 298.255 114.376 297.607 114.712C296.971 115.048 296.263 115.216 295.483 115.216C294.655 115.216 293.935 115.072 293.323 114.784C292.711 114.484 292.135 114.112 291.595 113.668L292.423 112.57C292.939 113.026 293.443 113.368 293.935 113.596C294.427 113.812 294.955 113.92 295.519 113.92C296.083 113.92 296.599 113.782 297.067 113.506C297.535 113.23 297.931 112.852 298.255 112.372C298.591 111.88 298.843 111.298 299.011 110.626C299.191 109.942 299.275 109.198 299.263 108.394C298.915 108.946 298.453 109.42 297.877 109.816C297.301 110.212 296.575 110.41 295.699 110.41C295.051 110.41 294.457 110.314 293.917 110.122C293.377 109.93 292.915 109.66 292.531 109.312C292.147 108.964 291.847 108.55 291.631 108.07C291.415 107.59 291.307 107.062 291.307 106.486C291.307 105.886 291.415 105.328 291.631 104.812C291.859 104.284 292.171 103.828 292.567 103.444C292.963 103.048 293.437 102.742 293.989 102.526C294.553 102.298 295.171 102.184 295.843 102.184C296.563 102.184 297.193 102.298 297.733 102.526C298.273 102.754 298.747 103.072 299.155 103.48C299.407 103.732 299.629 104.008 299.821 104.308C300.013 104.608 300.175 104.956 300.307 105.352C300.439 105.736 300.541 106.18 300.613 106.684C300.685 107.176 300.721 107.74 300.721 108.376ZM298.993 106.324C298.993 105.916 298.915 105.538 298.759 105.19C298.603 104.842 298.381 104.542 298.093 104.29C297.817 104.026 297.481 103.822 297.085 103.678C296.689 103.522 296.257 103.444 295.789 103.444C295.321 103.444 294.895 103.528 294.511 103.696C294.139 103.852 293.821 104.068 293.557 104.344C293.305 104.608 293.107 104.92 292.963 105.28C292.831 105.64 292.765 106.018 292.765 106.414C292.765 106.822 292.837 107.194 292.981 107.53C293.137 107.866 293.347 108.16 293.611 108.412C293.887 108.652 294.217 108.844 294.601 108.988C294.985 109.12 295.405 109.186 295.861 109.186C296.341 109.186 296.773 109.108 297.157 108.952C297.553 108.784 297.883 108.568 298.147 108.304C298.423 108.04 298.633 107.734 298.777 107.386C298.921 107.038 298.993 106.684 298.993 106.324Z" fill="#151515"/>
<path d="M411.093 108.574L411.453 102.4H418.977V104.362H413.361L413.163 107.314C413.463 107.206 413.763 107.122 414.063 107.062C414.375 106.99 414.741 106.954 415.161 106.954C415.773 106.954 416.343 107.038 416.871 107.206C417.411 107.362 417.879 107.608 418.275 107.944C418.671 108.268 418.977 108.682 419.193 109.186C419.421 109.678 419.535 110.26 419.535 110.932C419.535 111.58 419.421 112.168 419.193 112.696C418.977 113.224 418.665 113.674 418.257 114.046C417.849 114.418 417.357 114.706 416.781 114.91C416.205 115.114 415.569 115.216 414.873 115.216C413.901 115.216 413.037 115.042 412.281 114.694C411.525 114.334 410.847 113.866 410.247 113.29L411.615 111.688C412.119 112.156 412.635 112.528 413.163 112.804C413.703 113.068 414.267 113.2 414.855 113.2C415.611 113.2 416.217 113.002 416.673 112.606C417.129 112.21 417.357 111.676 417.357 111.004C417.357 110.356 417.117 109.846 416.637 109.474C416.169 109.09 415.539 108.898 414.747 108.898C414.291 108.898 413.871 108.952 413.487 109.06C413.103 109.168 412.749 109.3 412.425 109.456L411.093 108.574Z" fill="white"/>
<path d="M62.5 130L56.0048 122.5L68.9952 122.5L62.5 130Z" fill="#D6D795"/>
<path d="M179.5 130L173.005 122.5L185.995 122.5L179.5 130Z" fill="#9AA613"/>
<path d="M296.5 130L290.005 122.5L302.995 122.5L296.5 130Z" fill="#D6D795"/>
<path d="M414.5 130L408.005 122.5L420.995 122.5L414.5 130Z" fill="#9AA613"/>
<path d="M63 204V136" stroke="black" stroke-dasharray="2 2"/>
<path d="M180 212V136" stroke="black" stroke-dasharray="2 2"/>
<path d="M297 425L297 136" stroke="black" stroke-dasharray="2 2"/>
<path d="M415 435V136" stroke="black" stroke-dasharray="2 2"/>
<path d="M167 211C167 207.134 170.134 204 174 204H193V448H167V211Z" fill="#9AA613"/>
<path d="M284 432C284 428.134 287.134 425 291 425H310V448H284V432Z" fill="#D6D795"/>
<path d="M401 442C401 438.134 404.134 435 408 435H427V448H401V442Z" fill="#9AA613"/>
<path d="M50 184C50 180.134 53.134 177 57 177H76V448H50V184Z" fill="#D6D795"/>
<path d="M33.8364 459.8C34.391 459.8 34.8924 459.869 35.3404 460.008C35.7884 460.136 36.1724 460.323 36.4924 460.568C36.8124 460.803 37.0577 461.096 37.2284 461.448C37.399 461.789 37.4844 462.173 37.4844 462.6C37.4844 462.973 37.431 463.299 37.3244 463.576C37.2284 463.853 37.095 464.099 36.9244 464.312C36.7537 464.525 36.5617 464.707 36.3484 464.856C36.1457 464.995 35.9324 465.112 35.7084 465.208C36.039 465.304 36.3484 465.432 36.6364 465.592C36.935 465.741 37.191 465.923 37.4044 466.136C37.6177 466.349 37.7884 466.605 37.9164 466.904C38.0444 467.203 38.1084 467.544 38.1084 467.928C38.1084 468.408 38.0124 468.84 37.8204 469.224C37.6284 469.608 37.351 469.933 36.9884 470.2C36.6364 470.456 36.2097 470.653 35.7084 470.792C35.207 470.931 34.6524 471 34.0444 471H29.0684V459.8H33.8364ZM33.6284 464.792C34.3857 464.792 35.0044 464.621 35.4844 464.28C35.9644 463.939 36.2044 463.437 36.2044 462.776C36.2044 462.211 35.991 461.763 35.5644 461.432C35.1377 461.101 34.5244 460.936 33.7244 460.936H30.3164V464.792H33.6284ZM34.0764 469.864C34.9297 469.864 35.6017 469.688 36.0924 469.336C36.583 468.984 36.8284 468.488 36.8284 467.848C36.8284 467.229 36.5777 466.755 36.0764 466.424C35.575 466.083 34.8337 465.912 33.8524 465.912H30.3164V469.864H34.0764ZM43.3993 463.704C42.9086 463.704 42.4606 463.763 42.0553 463.88C41.6606 463.987 41.2713 464.131 40.8873 464.312L40.5193 463.304C40.9779 463.091 41.4419 462.925 41.9113 462.808C42.3806 462.68 42.9193 462.616 43.5273 462.616C44.6579 462.616 45.5273 462.899 46.1353 463.464C46.7433 464.019 47.0473 464.845 47.0473 465.944V471H45.8633V469.752C45.5753 470.125 45.1859 470.456 44.6953 470.744C44.2153 471.032 43.6073 471.176 42.8713 471.176C42.4873 471.176 42.1086 471.123 41.7353 471.016C41.3726 470.909 41.0419 470.749 40.7433 470.536C40.4553 470.312 40.2206 470.04 40.0393 469.72C39.8686 469.4 39.7833 469.021 39.7833 468.584C39.7833 468.147 39.8686 467.763 40.0393 467.432C40.2099 467.091 40.4499 466.808 40.7593 466.584C41.0793 466.36 41.4526 466.189 41.8793 466.072C42.3166 465.955 42.7966 465.896 43.3193 465.896C43.8526 465.896 44.3166 465.928 44.7113 465.992C45.1059 466.056 45.4899 466.141 45.8633 466.248V465.96C45.8633 465.213 45.6446 464.653 45.2073 464.28C44.7806 463.896 44.1779 463.704 43.3993 463.704ZM43.4473 466.808C42.6686 466.808 42.0713 466.963 41.6553 467.272C41.2393 467.581 41.0312 468.003 41.0312 468.536C41.0312 468.803 41.0846 469.037 41.1913 469.24C41.3086 469.443 41.4633 469.619 41.6553 469.768C41.8473 469.907 42.0659 470.013 42.3113 470.088C42.5673 470.163 42.8339 470.2 43.1113 470.2C43.4953 470.2 43.8526 470.147 44.1833 470.04C44.5246 469.923 44.8179 469.768 45.0633 469.576C45.3193 469.373 45.5166 469.139 45.6553 468.872C45.8046 468.595 45.8793 468.291 45.8793 467.96V467.16C45.5699 467.075 45.2126 466.995 44.8073 466.92C44.4126 466.845 43.9593 466.808 43.4473 466.808ZM51.2588 463.816V468.648C51.2588 469.16 51.3868 469.517 51.6428 469.72C51.8988 469.923 52.2348 470.024 52.6508 470.024C52.8641 470.024 53.0614 470.003 53.2428 469.96C53.4348 469.917 53.6374 469.843 53.8508 469.736V470.792C53.6374 470.909 53.4081 470.995 53.1628 471.048C52.9281 471.112 52.6614 471.144 52.3628 471.144C52.0321 471.144 51.7228 471.101 51.4348 471.016C51.1468 470.931 50.8961 470.797 50.6828 470.616C50.4801 470.424 50.3201 470.179 50.2028 469.88C50.0854 469.581 50.0268 469.224 50.0268 468.808V463.816H48.8748V462.728H50.0268V460.232H51.2588V462.728H53.8828V463.816H51.2588ZM57.7275 463.816V468.648C57.7275 469.16 57.8555 469.517 58.1115 469.72C58.3675 469.923 58.7035 470.024 59.1195 470.024C59.3328 470.024 59.5302 470.003 59.7115 469.96C59.9035 469.917 60.1062 469.843 60.3195 469.736V470.792C60.1062 470.909 59.8768 470.995 59.6315 471.048C59.3968 471.112 59.1302 471.144 58.8315 471.144C58.5008 471.144 58.1915 471.101 57.9035 471.016C57.6155 470.931 57.3648 470.797 57.1515 470.616C56.9488 470.424 56.7888 470.179 56.6715 469.88C56.5542 469.581 56.4955 469.224 56.4955 468.808V463.816H55.3435V462.728H56.4955V460.232H57.7275V462.728H60.3515V463.816H57.7275ZM63.0339 467.32C63.0765 467.768 63.1832 468.168 63.3539 468.52C63.5245 468.861 63.7432 469.155 64.0099 469.4C64.2765 469.635 64.5752 469.816 64.9059 469.944C65.2365 470.061 65.5832 470.12 65.9459 470.12C66.5219 470.12 67.0125 470.013 67.4179 469.8C67.8339 469.587 68.2125 469.304 68.5539 468.952L69.3219 469.64C68.9059 470.109 68.4312 470.488 67.8979 470.776C67.3645 471.053 66.7032 471.192 65.9139 471.192C65.3485 471.192 64.8152 471.091 64.3139 470.888C63.8125 470.675 63.3752 470.381 63.0019 470.008C62.6285 469.624 62.3299 469.165 62.1059 468.632C61.8925 468.099 61.7859 467.512 61.7859 466.872C61.7859 466.275 61.8819 465.715 62.0739 465.192C62.2765 464.659 62.5539 464.2 62.9059 463.816C63.2579 463.421 63.6739 463.112 64.1539 462.888C64.6445 462.664 65.1779 462.552 65.7539 462.552C66.3619 462.552 66.9059 462.669 67.3859 462.904C67.8659 463.128 68.2712 463.437 68.6019 463.832C68.9325 464.227 69.1832 464.691 69.3539 465.224C69.5245 465.757 69.6099 466.328 69.6099 466.936C69.6099 466.989 69.6099 467.048 69.6099 467.112C69.6099 467.176 69.6045 467.245 69.5939 467.32H63.0339ZM63.0339 466.408H68.3619C68.3299 466.035 68.2499 465.677 68.1219 465.336C68.0045 464.995 67.8339 464.696 67.6099 464.44C67.3965 464.184 67.1299 463.981 66.8099 463.832C66.5005 463.672 66.1379 463.592 65.7219 463.592C65.3592 463.592 65.0232 463.667 64.7139 463.816C64.4045 463.955 64.1325 464.152 63.8979 464.408C63.6632 464.653 63.4712 464.947 63.3219 465.288C63.1725 465.629 63.0765 466.003 63.0339 466.408ZM72.9986 467.704V471H71.7666V462.728H72.9986V464.888C73.148 464.547 73.3346 464.232 73.5586 463.944C73.7826 463.656 74.0386 463.411 74.3266 463.208C74.6146 462.995 74.9293 462.835 75.2706 462.728C75.612 462.621 75.98 462.573 76.3746 462.584V463.912H76.2786C75.8306 463.912 75.404 463.992 74.9986 464.152C74.604 464.312 74.2573 464.552 73.9586 464.872C73.66 465.192 73.4253 465.592 73.2546 466.072C73.084 466.541 72.9986 467.085 72.9986 467.704ZM79.691 460.92H78.283V459.56H79.691V460.92ZM79.595 471H78.363V462.728H79.595V471ZM83.1901 467.32C83.2328 467.768 83.3395 468.168 83.5101 468.52C83.6808 468.861 83.8995 469.155 84.1661 469.4C84.4328 469.635 84.7315 469.816 85.0621 469.944C85.3928 470.061 85.7395 470.12 86.1021 470.12C86.6781 470.12 87.1688 470.013 87.5741 469.8C87.9901 469.587 88.3688 469.304 88.7101 468.952L89.4781 469.64C89.0621 470.109 88.5875 470.488 88.0541 470.776C87.5208 471.053 86.8595 471.192 86.0701 471.192C85.5048 471.192 84.9715 471.091 84.4701 470.888C83.9688 470.675 83.5315 470.381 83.1581 470.008C82.7848 469.624 82.4861 469.165 82.2621 468.632C82.0488 468.099 81.9421 467.512 81.9421 466.872C81.9421 466.275 82.0381 465.715 82.2301 465.192C82.4328 464.659 82.7101 464.2 83.0621 463.816C83.4141 463.421 83.8301 463.112 84.3101 462.888C84.8008 462.664 85.3341 462.552 85.9101 462.552C86.5181 462.552 87.0621 462.669 87.5421 462.904C88.0221 463.128 88.4275 463.437 88.7581 463.832C89.0888 464.227 89.3395 464.691 89.5101 465.224C89.6808 465.757 89.7661 466.328 89.7661 466.936C89.7661 466.989 89.7661 467.048 89.7661 467.112C89.7661 467.176 89.7608 467.245 89.7501 467.32H83.1901ZM83.1901 466.408H88.5181C88.4861 466.035 88.4061 465.677 88.2781 465.336C88.1608 464.995 87.9901 464.696 87.7661 464.44C87.5528 464.184 87.2861 463.981 86.9661 463.832C86.6568 463.672 86.2941 463.592 85.8781 463.592C85.5155 463.592 85.1795 463.667 84.8701 463.816C84.5608 463.955 84.2888 464.152 84.0541 464.408C83.8195 464.653 83.6275 464.947 83.4781 465.288C83.3288 465.629 83.2328 466.003 83.1901 466.408ZM97.6029 468.68C97.6029 469.075 97.5229 469.427 97.3629 469.736C97.2135 470.035 97.0055 470.291 96.7389 470.504C96.4829 470.717 96.1735 470.883 95.8109 471C95.4589 471.107 95.0749 471.16 94.6589 471.16C94.0615 471.16 93.4589 471.053 92.8509 470.84C92.2429 470.616 91.7042 470.317 91.2349 469.944L91.8589 469.064C92.3069 469.405 92.7709 469.667 93.2509 469.848C93.7415 470.029 94.2322 470.12 94.7229 470.12C95.2242 470.12 95.6349 470.003 95.9549 469.768C96.2749 469.533 96.4349 469.213 96.4349 468.808V468.776C96.4349 468.573 96.3762 468.397 96.2589 468.248C96.1522 468.099 96.0029 467.971 95.8109 467.864C95.6189 467.747 95.3949 467.645 95.1389 467.56C94.8935 467.475 94.6375 467.395 94.3709 467.32C94.0509 467.224 93.7255 467.123 93.3949 467.016C93.0749 466.899 92.7815 466.755 92.5149 466.584C92.2589 466.413 92.0455 466.2 91.8749 465.944C91.7149 465.688 91.6349 465.368 91.6349 464.984V464.952C91.6349 464.6 91.7042 464.28 91.8429 463.992C91.9815 463.693 92.1735 463.443 92.4189 463.24C92.6749 463.027 92.9735 462.867 93.3149 462.76C93.6669 462.643 94.0455 462.584 94.4509 462.584C94.9629 462.584 95.4802 462.669 96.0029 462.84C96.5255 463 97.0002 463.219 97.4269 463.496L96.8669 464.424C96.4829 464.179 96.0775 463.987 95.6509 463.848C95.2349 463.699 94.8242 463.624 94.4189 463.624C93.9282 463.624 93.5389 463.741 93.2509 463.976C92.9629 464.2 92.8189 464.483 92.8189 464.824V464.856C92.8189 465.048 92.8775 465.219 92.9949 465.368C93.1122 465.507 93.2669 465.629 93.4589 465.736C93.6615 465.843 93.8909 465.939 94.1469 466.024C94.4029 466.109 94.6695 466.195 94.9469 466.28C95.2669 466.376 95.5815 466.483 95.8909 466.6C96.2109 466.717 96.4989 466.867 96.7549 467.048C97.0109 467.229 97.2135 467.448 97.3629 467.704C97.5229 467.96 97.6029 468.275 97.6029 468.648V468.68Z" fill="black"/>
<path d="M158.008 459.8V460.952H151.176V464.776H157.288V465.928H151.176V469.848H158.088V471H149.912V459.8H158.008ZM164.535 466.84H160.087V465.544H164.535V466.84ZM172.83 462.696L175.07 469.368L177.246 462.728H178.526L175.614 471.064H174.542L172.318 464.536L170.078 471.064H168.99L166.094 462.728H167.406L169.582 469.368L171.806 462.696H172.83ZM183.259 463.704C182.768 463.704 182.32 463.763 181.915 463.88C181.52 463.987 181.131 464.131 180.747 464.312L180.379 463.304C180.837 463.091 181.301 462.925 181.771 462.808C182.24 462.68 182.779 462.616 183.387 462.616C184.517 462.616 185.387 462.899 185.995 463.464C186.603 464.019 186.907 464.845 186.907 465.944V471H185.723V469.752C185.435 470.125 185.045 470.456 184.555 470.744C184.075 471.032 183.467 471.176 182.731 471.176C182.347 471.176 181.968 471.123 181.595 471.016C181.232 470.909 180.901 470.749 180.603 470.536C180.315 470.312 180.08 470.04 179.899 469.72C179.728 469.4 179.643 469.021 179.643 468.584C179.643 468.147 179.728 467.763 179.899 467.432C180.069 467.091 180.309 466.808 180.619 466.584C180.939 466.36 181.312 466.189 181.739 466.072C182.176 465.955 182.656 465.896 183.179 465.896C183.712 465.896 184.176 465.928 184.571 465.992C184.965 466.056 185.349 466.141 185.723 466.248V465.96C185.723 465.213 185.504 464.653 185.067 464.28C184.64 463.896 184.037 463.704 183.259 463.704ZM183.307 466.808C182.528 466.808 181.931 466.963 181.515 467.272C181.099 467.581 180.891 468.003 180.891 468.536C180.891 468.803 180.944 469.037 181.051 469.24C181.168 469.443 181.323 469.619 181.515 469.768C181.707 469.907 181.925 470.013 182.171 470.088C182.427 470.163 182.693 470.2 182.971 470.2C183.355 470.2 183.712 470.147 184.043 470.04C184.384 469.923 184.677 469.768 184.923 469.576C185.179 469.373 185.376 469.139 185.515 468.872C185.664 468.595 185.739 468.291 185.739 467.96V467.16C185.429 467.075 185.072 466.995 184.667 466.92C184.272 466.845 183.819 466.808 183.307 466.808ZM195.212 468.68C195.212 469.075 195.132 469.427 194.972 469.736C194.823 470.035 194.615 470.291 194.348 470.504C194.092 470.717 193.783 470.883 193.42 471C193.068 471.107 192.684 471.16 192.268 471.16C191.671 471.16 191.068 471.053 190.46 470.84C189.852 470.616 189.314 470.317 188.844 469.944L189.468 469.064C189.916 469.405 190.38 469.667 190.86 469.848C191.351 470.029 191.842 470.12 192.332 470.12C192.834 470.12 193.244 470.003 193.564 469.768C193.884 469.533 194.044 469.213 194.044 468.808V468.776C194.044 468.573 193.986 468.397 193.868 468.248C193.762 468.099 193.612 467.971 193.42 467.864C193.228 467.747 193.004 467.645 192.748 467.56C192.503 467.475 192.247 467.395 191.98 467.32C191.66 467.224 191.335 467.123 191.004 467.016C190.684 466.899 190.391 466.755 190.124 466.584C189.868 466.413 189.655 466.2 189.484 465.944C189.324 465.688 189.244 465.368 189.244 464.984V464.952C189.244 464.6 189.314 464.28 189.452 463.992C189.591 463.693 189.783 463.443 190.028 463.24C190.284 463.027 190.583 462.867 190.924 462.76C191.276 462.643 191.655 462.584 192.06 462.584C192.572 462.584 193.09 462.669 193.612 462.84C194.135 463 194.61 463.219 195.036 463.496L194.476 464.424C194.092 464.179 193.687 463.987 193.26 463.848C192.844 463.699 192.434 463.624 192.028 463.624C191.538 463.624 191.148 463.741 190.86 463.976C190.572 464.2 190.428 464.483 190.428 464.824V464.856C190.428 465.048 190.487 465.219 190.604 465.368C190.722 465.507 190.876 465.629 191.068 465.736C191.271 465.843 191.5 465.939 191.756 466.024C192.012 466.109 192.279 466.195 192.556 466.28C192.876 466.376 193.191 466.483 193.5 466.6C193.82 466.717 194.108 466.867 194.364 467.048C194.62 467.229 194.823 467.448 194.972 467.704C195.132 467.96 195.212 468.275 195.212 468.648V468.68ZM199.009 463.816V468.648C199.009 469.16 199.137 469.517 199.393 469.72C199.649 469.923 199.985 470.024 200.401 470.024C200.614 470.024 200.811 470.003 200.993 469.96C201.185 469.917 201.387 469.843 201.601 469.736V470.792C201.387 470.909 201.158 470.995 200.913 471.048C200.678 471.112 200.411 471.144 200.113 471.144C199.782 471.144 199.473 471.101 199.185 471.016C198.897 470.931 198.646 470.797 198.433 470.616C198.23 470.424 198.07 470.179 197.953 469.88C197.835 469.581 197.777 469.224 197.777 468.808V463.816H196.625V462.728H197.777V460.232H199.009V462.728H201.633V463.816H199.009ZM204.315 467.32C204.358 467.768 204.464 468.168 204.635 468.52C204.806 468.861 205.024 469.155 205.291 469.4C205.558 469.635 205.856 469.816 206.187 469.944C206.518 470.061 206.864 470.12 207.227 470.12C207.803 470.12 208.294 470.013 208.699 469.8C209.115 469.587 209.494 469.304 209.835 468.952L210.603 469.64C210.187 470.109 209.712 470.488 209.179 470.776C208.646 471.053 207.984 471.192 207.195 471.192C206.63 471.192 206.096 471.091 205.595 470.888C205.094 470.675 204.656 470.381 204.283 470.008C203.91 469.624 203.611 469.165 203.387 468.632C203.174 468.099 203.067 467.512 203.067 466.872C203.067 466.275 203.163 465.715 203.355 465.192C203.558 464.659 203.835 464.2 204.187 463.816C204.539 463.421 204.955 463.112 205.435 462.888C205.926 462.664 206.459 462.552 207.035 462.552C207.643 462.552 208.187 462.669 208.667 462.904C209.147 463.128 209.552 463.437 209.883 463.832C210.214 464.227 210.464 464.691 210.635 465.224C210.806 465.757 210.891 466.328 210.891 466.936C210.891 466.989 210.891 467.048 210.891 467.112C210.891 467.176 210.886 467.245 210.875 467.32H204.315ZM204.315 466.408H209.643C209.611 466.035 209.531 465.677 209.403 465.336C209.286 464.995 209.115 464.696 208.891 464.44C208.678 464.184 208.411 463.981 208.091 463.832C207.782 463.672 207.419 463.592 207.003 463.592C206.64 463.592 206.304 463.667 205.995 463.816C205.686 463.955 205.414 464.152 205.179 464.408C204.944 464.653 204.752 464.947 204.603 465.288C204.454 465.629 204.358 466.003 204.315 466.408Z" fill="black"/>
<path d="M263.554 465.96H257.09V471H255.826V459.8H257.09V464.776H263.554V459.8H264.818V471H263.554V465.96ZM270.766 463.704C270.276 463.704 269.828 463.763 269.422 463.88C269.028 463.987 268.638 464.131 268.254 464.312L267.886 463.304C268.345 463.091 268.809 462.925 269.278 462.808C269.748 462.68 270.286 462.616 270.894 462.616C272.025 462.616 272.894 462.899 273.502 463.464C274.11 464.019 274.414 464.845 274.414 465.944V471H273.23V469.752C272.942 470.125 272.553 470.456 272.062 470.744C271.582 471.032 270.974 471.176 270.238 471.176C269.854 471.176 269.476 471.123 269.102 471.016C268.74 470.909 268.409 470.749 268.11 470.536C267.822 470.312 267.588 470.04 267.406 469.72C267.236 469.4 267.15 469.021 267.15 468.584C267.15 468.147 267.236 467.763 267.406 467.432C267.577 467.091 267.817 466.808 268.126 466.584C268.446 466.36 268.82 466.189 269.246 466.072C269.684 465.955 270.164 465.896 270.686 465.896C271.22 465.896 271.684 465.928 272.078 465.992C272.473 466.056 272.857 466.141 273.23 466.248V465.96C273.23 465.213 273.012 464.653 272.574 464.28C272.148 463.896 271.545 463.704 270.766 463.704ZM270.814 466.808C270.036 466.808 269.438 466.963 269.022 467.272C268.606 467.581 268.398 468.003 268.398 468.536C268.398 468.803 268.452 469.037 268.558 469.24C268.676 469.443 268.83 469.619 269.022 469.768C269.214 469.907 269.433 470.013 269.678 470.088C269.934 470.163 270.201 470.2 270.478 470.2C270.862 470.2 271.22 470.147 271.55 470.04C271.892 469.923 272.185 469.768 272.43 469.576C272.686 469.373 272.884 469.139 273.022 468.872C273.172 468.595 273.246 468.291 273.246 467.96V467.16C272.937 467.075 272.58 466.995 272.174 466.92C271.78 466.845 271.326 466.808 270.814 466.808ZM282.048 463.768H276.752V462.728H283.728V463.512L278.224 469.96H283.728V471H276.56V470.216L282.048 463.768ZM288.923 463.704C288.432 463.704 287.984 463.763 287.579 463.88C287.184 463.987 286.795 464.131 286.411 464.312L286.043 463.304C286.501 463.091 286.965 462.925 287.435 462.808C287.904 462.68 288.443 462.616 289.051 462.616C290.181 462.616 291.051 462.899 291.659 463.464C292.267 464.019 292.571 464.845 292.571 465.944V471H291.387V469.752C291.099 470.125 290.709 470.456 290.219 470.744C289.739 471.032 289.131 471.176 288.395 471.176C288.011 471.176 287.632 471.123 287.259 471.016C286.896 470.909 286.565 470.749 286.267 470.536C285.979 470.312 285.744 470.04 285.563 469.72C285.392 469.4 285.307 469.021 285.307 468.584C285.307 468.147 285.392 467.763 285.563 467.432C285.733 467.091 285.973 466.808 286.283 466.584C286.603 466.36 286.976 466.189 287.403 466.072C287.84 465.955 288.32 465.896 288.843 465.896C289.376 465.896 289.84 465.928 290.235 465.992C290.629 466.056 291.013 466.141 291.387 466.248V465.96C291.387 465.213 291.168 464.653 290.731 464.28C290.304 463.896 289.701 463.704 288.923 463.704ZM288.971 466.808C288.192 466.808 287.595 466.963 287.179 467.272C286.763 467.581 286.555 468.003 286.555 468.536C286.555 468.803 286.608 469.037 286.715 469.24C286.832 469.443 286.987 469.619 287.179 469.768C287.371 469.907 287.589 470.013 287.835 470.088C288.091 470.163 288.357 470.2 288.635 470.2C289.019 470.2 289.376 470.147 289.707 470.04C290.048 469.923 290.341 469.768 290.587 469.576C290.843 469.373 291.04 469.139 291.179 468.872C291.328 468.595 291.403 468.291 291.403 467.96V467.16C291.093 467.075 290.736 466.995 290.331 466.92C289.936 466.845 289.483 466.808 288.971 466.808ZM296.428 467.704V471H295.196V462.728H296.428V464.888C296.578 464.547 296.764 464.232 296.988 463.944C297.212 463.656 297.468 463.411 297.756 463.208C298.044 462.995 298.359 462.835 298.7 462.728C299.042 462.621 299.41 462.573 299.804 462.584V463.912H299.708C299.26 463.912 298.834 463.992 298.428 464.152C298.034 464.312 297.687 464.552 297.388 464.872C297.09 465.192 296.855 465.592 296.684 466.072C296.514 466.541 296.428 467.085 296.428 467.704ZM309.209 471H307.977V469.336C307.806 469.581 307.614 469.816 307.401 470.04C307.198 470.264 306.969 470.461 306.713 470.632C306.457 470.803 306.169 470.936 305.849 471.032C305.54 471.128 305.193 471.176 304.809 471.176C304.308 471.176 303.822 471.08 303.353 470.888C302.884 470.696 302.462 470.419 302.089 470.056C301.716 469.683 301.417 469.229 301.193 468.696C300.969 468.163 300.857 467.555 300.857 466.872C300.857 466.189 300.969 465.581 301.193 465.048C301.417 464.515 301.716 464.067 302.089 463.704C302.462 463.331 302.884 463.048 303.353 462.856C303.822 462.653 304.308 462.552 304.809 462.552C305.193 462.552 305.545 462.6 305.865 462.696C306.185 462.792 306.473 462.92 306.729 463.08C306.985 463.24 307.214 463.427 307.417 463.64C307.63 463.853 307.817 464.077 307.977 464.312V459.32H309.209V471ZM308.025 466.856C308.025 466.376 307.94 465.939 307.769 465.544C307.609 465.149 307.385 464.813 307.097 464.536C306.82 464.259 306.5 464.045 306.137 463.896C305.785 463.736 305.417 463.656 305.033 463.656C304.628 463.656 304.249 463.731 303.897 463.88C303.545 464.019 303.236 464.227 302.969 464.504C302.713 464.771 302.505 465.107 302.345 465.512C302.196 465.907 302.121 466.355 302.121 466.856C302.121 467.347 302.196 467.789 302.345 468.184C302.505 468.579 302.718 468.92 302.985 469.208C303.252 469.485 303.561 469.699 303.913 469.848C304.265 469.997 304.638 470.072 305.033 470.072C305.417 470.072 305.785 469.997 306.137 469.848C306.5 469.688 306.82 469.469 307.097 469.192C307.385 468.915 307.609 468.579 307.769 468.184C307.94 467.779 308.025 467.336 308.025 466.856ZM320.074 466.856C320.074 467.443 319.962 468.003 319.738 468.536C319.525 469.059 319.226 469.517 318.842 469.912C318.458 470.307 317.999 470.621 317.466 470.856C316.933 471.08 316.357 471.192 315.738 471.192C315.119 471.192 314.549 471.08 314.026 470.856C313.503 470.621 313.05 470.312 312.666 469.928C312.282 469.533 311.983 469.075 311.77 468.552C311.557 468.029 311.45 467.475 311.45 466.888C311.45 466.301 311.557 465.747 311.77 465.224C311.983 464.691 312.282 464.227 312.666 463.832C313.05 463.437 313.503 463.128 314.026 462.904C314.559 462.669 315.141 462.552 315.77 462.552C316.389 462.552 316.959 462.669 317.482 462.904C318.015 463.128 318.474 463.437 318.858 463.832C319.242 464.216 319.541 464.669 319.754 465.192C319.967 465.715 320.074 466.269 320.074 466.856ZM318.81 466.888C318.81 466.44 318.73 466.019 318.57 465.624C318.421 465.229 318.207 464.888 317.93 464.6C317.653 464.301 317.327 464.067 316.954 463.896C316.581 463.725 316.175 463.64 315.738 463.64C315.29 463.64 314.879 463.725 314.506 463.896C314.133 464.056 313.813 464.285 313.546 464.584C313.29 464.872 313.087 465.213 312.938 465.608C312.789 465.992 312.714 466.408 312.714 466.856C312.714 467.304 312.789 467.725 312.938 468.12C313.098 468.515 313.311 468.856 313.578 469.144C313.855 469.432 314.181 469.661 314.554 469.832C314.927 470.003 315.333 470.088 315.77 470.088C316.218 470.088 316.629 470.008 317.002 469.848C317.375 469.677 317.695 469.448 317.962 469.16C318.229 468.872 318.437 468.536 318.586 468.152C318.735 467.757 318.81 467.336 318.81 466.888ZM328.178 467.464V462.728H329.394V471H328.178V469.56C327.9 470.008 327.538 470.392 327.09 470.712C326.642 471.021 326.06 471.176 325.346 471.176C324.844 471.176 324.396 471.096 324.002 470.936C323.618 470.776 323.287 470.552 323.01 470.264C322.743 469.965 322.535 469.613 322.386 469.208C322.247 468.803 322.178 468.355 322.178 467.864V462.728H323.41V467.56C323.41 468.328 323.607 468.936 324.002 469.384C324.396 469.832 324.962 470.056 325.698 470.056C326.05 470.056 326.375 469.997 326.674 469.88C326.983 469.752 327.244 469.576 327.458 469.352C327.682 469.117 327.858 468.84 327.986 468.52C328.114 468.2 328.178 467.848 328.178 467.464ZM337.845 468.68C337.845 469.075 337.765 469.427 337.605 469.736C337.456 470.035 337.248 470.291 336.981 470.504C336.725 470.717 336.416 470.883 336.053 471C335.701 471.107 335.317 471.16 334.901 471.16C334.304 471.16 333.701 471.053 333.093 470.84C332.485 470.616 331.946 470.317 331.477 469.944L332.101 469.064C332.549 469.405 333.013 469.667 333.493 469.848C333.984 470.029 334.474 470.12 334.965 470.12C335.466 470.12 335.877 470.003 336.197 469.768C336.517 469.533 336.677 469.213 336.677 468.808V468.776C336.677 468.573 336.618 468.397 336.501 468.248C336.394 468.099 336.245 467.971 336.053 467.864C335.861 467.747 335.637 467.645 335.381 467.56C335.136 467.475 334.88 467.395 334.613 467.32C334.293 467.224 333.968 467.123 333.637 467.016C333.317 466.899 333.024 466.755 332.757 466.584C332.501 466.413 332.288 466.2 332.117 465.944C331.957 465.688 331.877 465.368 331.877 464.984V464.952C331.877 464.6 331.946 464.28 332.085 463.992C332.224 463.693 332.416 463.443 332.661 463.24C332.917 463.027 333.216 462.867 333.557 462.76C333.909 462.643 334.288 462.584 334.693 462.584C335.205 462.584 335.722 462.669 336.245 462.84C336.768 463 337.242 463.219 337.669 463.496L337.109 464.424C336.725 464.179 336.32 463.987 335.893 463.848C335.477 463.699 335.066 463.624 334.661 463.624C334.17 463.624 333.781 463.741 333.493 463.976C333.205 464.2 333.061 464.483 333.061 464.824V464.856C333.061 465.048 333.12 465.219 333.237 465.368C333.354 465.507 333.509 465.629 333.701 465.736C333.904 465.843 334.133 465.939 334.389 466.024C334.645 466.109 334.912 466.195 335.189 466.28C335.509 466.376 335.824 466.483 336.133 466.6C336.453 466.717 336.741 466.867 336.997 467.048C337.253 467.229 337.456 467.448 337.605 467.704C337.765 467.96 337.845 468.275 337.845 468.648V468.68ZM252.169 482.6C252.169 482.867 252.212 483.107 252.297 483.32C252.383 483.533 252.537 483.731 252.761 483.912C252.985 484.083 253.295 484.243 253.689 484.392C254.084 484.531 254.591 484.664 255.209 484.792C256.457 485.069 257.375 485.453 257.961 485.944C258.559 486.435 258.857 487.112 258.857 487.976C258.857 488.456 258.761 488.893 258.569 489.288C258.377 489.683 258.111 490.019 257.769 490.296C257.439 490.573 257.039 490.787 256.569 490.936C256.1 491.085 255.588 491.16 255.033 491.16C254.137 491.16 253.316 491.016 252.569 490.728C251.833 490.429 251.129 489.976 250.457 489.368L251.241 488.44C251.828 488.973 252.42 489.373 253.017 489.64C253.615 489.896 254.303 490.024 255.081 490.024C255.839 490.024 256.441 489.848 256.889 489.496C257.348 489.144 257.577 488.68 257.577 488.104C257.577 487.837 257.535 487.603 257.449 487.4C257.364 487.187 257.215 486.995 257.001 486.824C256.788 486.653 256.489 486.499 256.105 486.36C255.732 486.221 255.252 486.088 254.665 485.96C254.025 485.821 253.465 485.661 252.985 485.48C252.516 485.299 252.127 485.08 251.817 484.824C251.508 484.568 251.279 484.269 251.129 483.928C250.98 483.587 250.905 483.181 250.905 482.712C250.905 482.264 250.996 481.853 251.177 481.48C251.359 481.107 251.615 480.787 251.945 480.52C252.276 480.243 252.665 480.029 253.113 479.88C253.561 479.72 254.052 479.64 254.585 479.64C255.407 479.64 256.121 479.757 256.729 479.992C257.348 480.216 257.945 480.557 258.521 481.016L257.785 481.992C257.263 481.565 256.735 481.256 256.201 481.064C255.679 480.872 255.129 480.776 254.553 480.776C254.191 480.776 253.86 480.824 253.561 480.92C253.273 481.016 253.023 481.144 252.809 481.304C252.607 481.464 252.447 481.656 252.329 481.88C252.223 482.104 252.169 482.344 252.169 482.6ZM269.332 486.856C269.332 487.443 269.22 488.003 268.996 488.536C268.782 489.059 268.484 489.517 268.1 489.912C267.716 490.307 267.257 490.621 266.724 490.856C266.19 491.08 265.614 491.192 264.996 491.192C264.377 491.192 263.806 491.08 263.284 490.856C262.761 490.621 262.308 490.312 261.924 489.928C261.54 489.533 261.241 489.075 261.028 488.552C260.814 488.029 260.708 487.475 260.708 486.888C260.708 486.301 260.814 485.747 261.028 485.224C261.241 484.691 261.54 484.227 261.924 483.832C262.308 483.437 262.761 483.128 263.284 482.904C263.817 482.669 264.398 482.552 265.028 482.552C265.646 482.552 266.217 482.669 266.74 482.904C267.273 483.128 267.732 483.437 268.116 483.832C268.5 484.216 268.798 484.669 269.012 485.192C269.225 485.715 269.332 486.269 269.332 486.856ZM268.068 486.888C268.068 486.44 267.988 486.019 267.828 485.624C267.678 485.229 267.465 484.888 267.188 484.6C266.91 484.301 266.585 484.067 266.212 483.896C265.838 483.725 265.433 483.64 264.996 483.64C264.548 483.64 264.137 483.725 263.764 483.896C263.39 484.056 263.07 484.285 262.804 484.584C262.548 484.872 262.345 485.213 262.196 485.608C262.046 485.992 261.972 486.408 261.972 486.856C261.972 487.304 262.046 487.725 262.196 488.12C262.356 488.515 262.569 488.856 262.836 489.144C263.113 489.432 263.438 489.661 263.812 489.832C264.185 490.003 264.59 490.088 265.028 490.088C265.476 490.088 265.886 490.008 266.26 489.848C266.633 489.677 266.953 489.448 267.22 489.16C267.486 488.872 267.694 488.536 267.844 488.152C267.993 487.757 268.068 487.336 268.068 486.888ZM272.908 491H271.676V479.32H272.908V491ZM277.207 480.92H275.799V479.56H277.207V480.92ZM277.111 491H275.879V482.728H277.111V491ZM287.842 491H286.61V489.336C286.439 489.581 286.247 489.816 286.034 490.04C285.831 490.264 285.602 490.461 285.346 490.632C285.09 490.803 284.802 490.936 284.482 491.032C284.172 491.128 283.826 491.176 283.442 491.176C282.94 491.176 282.455 491.08 281.986 490.888C281.516 490.696 281.095 490.419 280.722 490.056C280.348 489.683 280.05 489.229 279.826 488.696C279.602 488.163 279.49 487.555 279.49 486.872C279.49 486.189 279.602 485.581 279.826 485.048C280.05 484.515 280.348 484.067 280.722 483.704C281.095 483.331 281.516 483.048 281.986 482.856C282.455 482.653 282.94 482.552 283.442 482.552C283.826 482.552 284.178 482.6 284.498 482.696C284.818 482.792 285.106 482.92 285.362 483.08C285.618 483.24 285.847 483.427 286.05 483.64C286.263 483.853 286.45 484.077 286.61 484.312V479.32H287.842V491ZM286.658 486.856C286.658 486.376 286.572 485.939 286.402 485.544C286.242 485.149 286.018 484.813 285.73 484.536C285.452 484.259 285.132 484.045 284.77 483.896C284.418 483.736 284.05 483.656 283.666 483.656C283.26 483.656 282.882 483.731 282.53 483.88C282.178 484.019 281.868 484.227 281.602 484.504C281.346 484.771 281.138 485.107 280.978 485.512C280.828 485.907 280.754 486.355 280.754 486.856C280.754 487.347 280.828 487.789 280.978 488.184C281.138 488.579 281.351 488.92 281.618 489.208C281.884 489.485 282.194 489.699 282.546 489.848C282.898 489.997 283.271 490.072 283.666 490.072C284.05 490.072 284.418 489.997 284.77 489.848C285.132 489.688 285.452 489.469 285.73 489.192C286.018 488.915 286.242 488.579 286.402 488.184C286.572 487.779 286.658 487.336 286.658 486.856ZM299.312 489.128L302.384 479.768H303.424L306.496 489.128L309.696 479.8H311.024L307.024 491.08H305.952L302.88 481.992L299.792 491.08H298.736L294.736 479.8H296.112L299.312 489.128ZM314.977 483.704C314.487 483.704 314.039 483.763 313.633 483.88C313.239 483.987 312.849 484.131 312.465 484.312L312.097 483.304C312.556 483.091 313.02 482.925 313.489 482.808C313.959 482.68 314.497 482.616 315.105 482.616C316.236 482.616 317.105 482.899 317.713 483.464C318.321 484.019 318.625 484.845 318.625 485.944V491H317.441V489.752C317.153 490.125 316.764 490.456 316.273 490.744C315.793 491.032 315.185 491.176 314.449 491.176C314.065 491.176 313.687 491.123 313.313 491.016C312.951 490.909 312.62 490.749 312.321 490.536C312.033 490.312 311.799 490.04 311.617 489.72C311.447 489.4 311.361 489.021 311.361 488.584C311.361 488.147 311.447 487.763 311.617 487.432C311.788 487.091 312.028 486.808 312.337 486.584C312.657 486.36 313.031 486.189 313.457 486.072C313.895 485.955 314.375 485.896 314.897 485.896C315.431 485.896 315.895 485.928 316.289 485.992C316.684 486.056 317.068 486.141 317.441 486.248V485.96C317.441 485.213 317.223 484.653 316.785 484.28C316.359 483.896 315.756 483.704 314.977 483.704ZM315.025 486.808C314.247 486.808 313.649 486.963 313.233 487.272C312.817 487.581 312.609 488.003 312.609 488.536C312.609 488.803 312.663 489.037 312.769 489.24C312.887 489.443 313.041 489.619 313.233 489.768C313.425 489.907 313.644 490.013 313.889 490.088C314.145 490.163 314.412 490.2 314.689 490.2C315.073 490.2 315.431 490.147 315.761 490.04C316.103 489.923 316.396 489.768 316.641 489.576C316.897 489.373 317.095 489.139 317.233 488.872C317.383 488.595 317.457 488.291 317.457 487.96V487.16C317.148 487.075 316.791 486.995 316.385 486.92C315.991 486.845 315.537 486.808 315.025 486.808ZM326.931 488.68C326.931 489.075 326.851 489.427 326.691 489.736C326.542 490.035 326.334 490.291 326.067 490.504C325.811 490.717 325.502 490.883 325.139 491C324.787 491.107 324.403 491.16 323.987 491.16C323.39 491.16 322.787 491.053 322.179 490.84C321.571 490.616 321.032 490.317 320.563 489.944L321.187 489.064C321.635 489.405 322.099 489.667 322.579 489.848C323.07 490.029 323.56 490.12 324.051 490.12C324.552 490.12 324.963 490.003 325.283 489.768C325.603 489.533 325.763 489.213 325.763 488.808V488.776C325.763 488.573 325.704 488.397 325.587 488.248C325.48 488.099 325.331 487.971 325.139 487.864C324.947 487.747 324.723 487.645 324.467 487.56C324.222 487.475 323.966 487.395 323.699 487.32C323.379 487.224 323.054 487.123 322.723 487.016C322.403 486.899 322.11 486.755 321.843 486.584C321.587 486.413 321.374 486.2 321.203 485.944C321.043 485.688 320.963 485.368 320.963 484.984V484.952C320.963 484.6 321.032 484.28 321.171 483.992C321.31 483.693 321.502 483.443 321.747 483.24C322.003 483.027 322.302 482.867 322.643 482.76C322.995 482.643 323.374 482.584 323.779 482.584C324.291 482.584 324.808 482.669 325.331 482.84C325.854 483 326.328 483.219 326.755 483.496L326.195 484.424C325.811 484.179 325.406 483.987 324.979 483.848C324.563 483.699 324.152 483.624 323.747 483.624C323.256 483.624 322.867 483.741 322.579 483.976C322.291 484.2 322.147 484.483 322.147 484.824V484.856C322.147 485.048 322.206 485.219 322.323 485.368C322.44 485.507 322.595 485.629 322.787 485.736C322.99 485.843 323.219 485.939 323.475 486.024C323.731 486.109 323.998 486.195 324.275 486.28C324.595 486.376 324.91 486.483 325.219 486.6C325.539 486.717 325.827 486.867 326.083 487.048C326.339 487.229 326.542 487.448 326.691 487.704C326.851 487.96 326.931 488.275 326.931 488.648V488.68ZM330.728 483.816V488.648C330.728 489.16 330.856 489.517 331.112 489.72C331.368 489.923 331.704 490.024 332.12 490.024C332.333 490.024 332.53 490.003 332.712 489.96C332.904 489.917 333.106 489.843 333.32 489.736V490.792C333.106 490.909 332.877 490.995 332.632 491.048C332.397 491.112 332.13 491.144 331.832 491.144C331.501 491.144 331.192 491.101 330.904 491.016C330.616 490.931 330.365 490.797 330.152 490.616C329.949 490.424 329.789 490.179 329.672 489.88C329.554 489.581 329.496 489.224 329.496 488.808V483.816H328.344V482.728H329.496V480.232H330.728V482.728H333.352V483.816H330.728ZM336.034 487.32C336.077 487.768 336.183 488.168 336.354 488.52C336.525 488.861 336.743 489.155 337.01 489.4C337.277 489.635 337.575 489.816 337.906 489.944C338.237 490.061 338.583 490.12 338.946 490.12C339.522 490.12 340.013 490.013 340.418 489.8C340.834 489.587 341.213 489.304 341.554 488.952L342.322 489.64C341.906 490.109 341.431 490.488 340.898 490.776C340.365 491.053 339.703 491.192 338.914 491.192C338.349 491.192 337.815 491.091 337.314 490.888C336.813 490.675 336.375 490.381 336.002 490.008C335.629 489.624 335.33 489.165 335.106 488.632C334.893 488.099 334.786 487.512 334.786 486.872C334.786 486.275 334.882 485.715 335.074 485.192C335.277 484.659 335.554 484.2 335.906 483.816C336.258 483.421 336.674 483.112 337.154 482.888C337.645 482.664 338.178 482.552 338.754 482.552C339.362 482.552 339.906 482.669 340.386 482.904C340.866 483.128 341.271 483.437 341.602 483.832C341.933 484.227 342.183 484.691 342.354 485.224C342.525 485.757 342.61 486.328 342.61 486.936C342.61 486.989 342.61 487.048 342.61 487.112C342.61 487.176 342.605 487.245 342.594 487.32H336.034ZM336.034 486.408H341.362C341.33 486.035 341.25 485.677 341.122 485.336C341.005 484.995 340.834 484.696 340.61 484.44C340.397 484.184 340.13 483.981 339.81 483.832C339.501 483.672 339.138 483.592 338.722 483.592C338.359 483.592 338.023 483.667 337.714 483.816C337.405 483.955 337.133 484.152 336.898 484.408C336.663 484.653 336.471 484.947 336.322 485.288C336.173 485.629 336.077 486.003 336.034 486.408Z" fill="black"/>
<path d="M382.054 465.96H375.59V471H374.326V459.8H375.59V464.776H382.054V459.8H383.318V471H382.054V465.96ZM389.266 463.704C388.776 463.704 388.328 463.763 387.922 463.88C387.528 463.987 387.138 464.131 386.754 464.312L386.386 463.304C386.845 463.091 387.309 462.925 387.778 462.808C388.248 462.68 388.786 462.616 389.394 462.616C390.525 462.616 391.394 462.899 392.002 463.464C392.61 464.019 392.914 464.845 392.914 465.944V471H391.73V469.752C391.442 470.125 391.053 470.456 390.562 470.744C390.082 471.032 389.474 471.176 388.738 471.176C388.354 471.176 387.976 471.123 387.602 471.016C387.24 470.909 386.909 470.749 386.61 470.536C386.322 470.312 386.088 470.04 385.906 469.72C385.736 469.4 385.65 469.021 385.65 468.584C385.65 468.147 385.736 467.763 385.906 467.432C386.077 467.091 386.317 466.808 386.626 466.584C386.946 466.36 387.32 466.189 387.746 466.072C388.184 465.955 388.664 465.896 389.186 465.896C389.72 465.896 390.184 465.928 390.578 465.992C390.973 466.056 391.357 466.141 391.73 466.248V465.96C391.73 465.213 391.512 464.653 391.074 464.28C390.648 463.896 390.045 463.704 389.266 463.704ZM389.314 466.808C388.536 466.808 387.938 466.963 387.522 467.272C387.106 467.581 386.898 468.003 386.898 468.536C386.898 468.803 386.952 469.037 387.058 469.24C387.176 469.443 387.33 469.619 387.522 469.768C387.714 469.907 387.933 470.013 388.178 470.088C388.434 470.163 388.701 470.2 388.978 470.2C389.362 470.2 389.72 470.147 390.05 470.04C390.392 469.923 390.685 469.768 390.93 469.576C391.186 469.373 391.384 469.139 391.522 468.872C391.672 468.595 391.746 468.291 391.746 467.96V467.16C391.437 467.075 391.08 466.995 390.674 466.92C390.28 466.845 389.826 466.808 389.314 466.808ZM400.548 463.768H395.252V462.728H402.228V463.512L396.724 469.96H402.228V471H395.06V470.216L400.548 463.768ZM407.423 463.704C406.932 463.704 406.484 463.763 406.079 463.88C405.684 463.987 405.295 464.131 404.911 464.312L404.543 463.304C405.001 463.091 405.465 462.925 405.935 462.808C406.404 462.68 406.943 462.616 407.551 462.616C408.681 462.616 409.551 462.899 410.159 463.464C410.767 464.019 411.071 464.845 411.071 465.944V471H409.887V469.752C409.599 470.125 409.209 470.456 408.719 470.744C408.239 471.032 407.631 471.176 406.895 471.176C406.511 471.176 406.132 471.123 405.759 471.016C405.396 470.909 405.065 470.749 404.767 470.536C404.479 470.312 404.244 470.04 404.063 469.72C403.892 469.4 403.807 469.021 403.807 468.584C403.807 468.147 403.892 467.763 404.063 467.432C404.233 467.091 404.473 466.808 404.783 466.584C405.103 466.36 405.476 466.189 405.903 466.072C406.34 465.955 406.82 465.896 407.343 465.896C407.876 465.896 408.34 465.928 408.735 465.992C409.129 466.056 409.513 466.141 409.887 466.248V465.96C409.887 465.213 409.668 464.653 409.231 464.28C408.804 463.896 408.201 463.704 407.423 463.704ZM407.471 466.808C406.692 466.808 406.095 466.963 405.679 467.272C405.263 467.581 405.055 468.003 405.055 468.536C405.055 468.803 405.108 469.037 405.215 469.24C405.332 469.443 405.487 469.619 405.679 469.768C405.871 469.907 406.089 470.013 406.335 470.088C406.591 470.163 406.857 470.2 407.135 470.2C407.519 470.2 407.876 470.147 408.207 470.04C408.548 469.923 408.841 469.768 409.087 469.576C409.343 469.373 409.54 469.139 409.679 468.872C409.828 468.595 409.903 468.291 409.903 467.96V467.16C409.593 467.075 409.236 466.995 408.831 466.92C408.436 466.845 407.983 466.808 407.471 466.808ZM414.928 467.704V471H413.696V462.728H414.928V464.888C415.078 464.547 415.264 464.232 415.488 463.944C415.712 463.656 415.968 463.411 416.256 463.208C416.544 462.995 416.859 462.835 417.2 462.728C417.542 462.621 417.91 462.573 418.304 462.584V463.912H418.208C417.76 463.912 417.334 463.992 416.928 464.152C416.534 464.312 416.187 464.552 415.888 464.872C415.59 465.192 415.355 465.592 415.184 466.072C415.014 466.541 414.928 467.085 414.928 467.704ZM427.709 471H426.477V469.336C426.306 469.581 426.114 469.816 425.901 470.04C425.698 470.264 425.469 470.461 425.213 470.632C424.957 470.803 424.669 470.936 424.349 471.032C424.04 471.128 423.693 471.176 423.309 471.176C422.808 471.176 422.322 471.08 421.853 470.888C421.384 470.696 420.962 470.419 420.589 470.056C420.216 469.683 419.917 469.229 419.693 468.696C419.469 468.163 419.357 467.555 419.357 466.872C419.357 466.189 419.469 465.581 419.693 465.048C419.917 464.515 420.216 464.067 420.589 463.704C420.962 463.331 421.384 463.048 421.853 462.856C422.322 462.653 422.808 462.552 423.309 462.552C423.693 462.552 424.045 462.6 424.365 462.696C424.685 462.792 424.973 462.92 425.229 463.08C425.485 463.24 425.714 463.427 425.917 463.64C426.13 463.853 426.317 464.077 426.477 464.312V459.32H427.709V471ZM426.525 466.856C426.525 466.376 426.44 465.939 426.269 465.544C426.109 465.149 425.885 464.813 425.597 464.536C425.32 464.259 425 464.045 424.637 463.896C424.285 463.736 423.917 463.656 423.533 463.656C423.128 463.656 422.749 463.731 422.397 463.88C422.045 464.019 421.736 464.227 421.469 464.504C421.213 464.771 421.005 465.107 420.845 465.512C420.696 465.907 420.621 466.355 420.621 466.856C420.621 467.347 420.696 467.789 420.845 468.184C421.005 468.579 421.218 468.92 421.485 469.208C421.752 469.485 422.061 469.699 422.413 469.848C422.765 469.997 423.138 470.072 423.533 470.072C423.917 470.072 424.285 469.997 424.637 469.848C425 469.688 425.32 469.469 425.597 469.192C425.885 468.915 426.109 468.579 426.269 468.184C426.44 467.779 426.525 467.336 426.525 466.856ZM438.574 466.856C438.574 467.443 438.462 468.003 438.238 468.536C438.025 469.059 437.726 469.517 437.342 469.912C436.958 470.307 436.499 470.621 435.966 470.856C435.433 471.08 434.857 471.192 434.238 471.192C433.619 471.192 433.049 471.08 432.526 470.856C432.003 470.621 431.55 470.312 431.166 469.928C430.782 469.533 430.483 469.075 430.27 468.552C430.057 468.029 429.95 467.475 429.95 466.888C429.95 466.301 430.057 465.747 430.27 465.224C430.483 464.691 430.782 464.227 431.166 463.832C431.55 463.437 432.003 463.128 432.526 462.904C433.059 462.669 433.641 462.552 434.27 462.552C434.889 462.552 435.459 462.669 435.982 462.904C436.515 463.128 436.974 463.437 437.358 463.832C437.742 464.216 438.041 464.669 438.254 465.192C438.467 465.715 438.574 466.269 438.574 466.856ZM437.31 466.888C437.31 466.44 437.23 466.019 437.07 465.624C436.921 465.229 436.707 464.888 436.43 464.6C436.153 464.301 435.827 464.067 435.454 463.896C435.081 463.725 434.675 463.64 434.238 463.64C433.79 463.64 433.379 463.725 433.006 463.896C432.633 464.056 432.313 464.285 432.046 464.584C431.79 464.872 431.587 465.213 431.438 465.608C431.289 465.992 431.214 466.408 431.214 466.856C431.214 467.304 431.289 467.725 431.438 468.12C431.598 468.515 431.811 468.856 432.078 469.144C432.355 469.432 432.681 469.661 433.054 469.832C433.427 470.003 433.833 470.088 434.27 470.088C434.718 470.088 435.129 470.008 435.502 469.848C435.875 469.677 436.195 469.448 436.462 469.16C436.729 468.872 436.937 468.536 437.086 468.152C437.235 467.757 437.31 467.336 437.31 466.888ZM446.678 467.464V462.728H447.894V471H446.678V469.56C446.4 470.008 446.038 470.392 445.59 470.712C445.142 471.021 444.56 471.176 443.846 471.176C443.344 471.176 442.896 471.096 442.502 470.936C442.118 470.776 441.787 470.552 441.51 470.264C441.243 469.965 441.035 469.613 440.886 469.208C440.747 468.803 440.678 468.355 440.678 467.864V462.728H441.91V467.56C441.91 468.328 442.107 468.936 442.502 469.384C442.896 469.832 443.462 470.056 444.198 470.056C444.55 470.056 444.875 469.997 445.174 469.88C445.483 469.752 445.744 469.576 445.958 469.352C446.182 469.117 446.358 468.84 446.486 468.52C446.614 468.2 446.678 467.848 446.678 467.464ZM456.345 468.68C456.345 469.075 456.265 469.427 456.105 469.736C455.956 470.035 455.748 470.291 455.481 470.504C455.225 470.717 454.916 470.883 454.553 471C454.201 471.107 453.817 471.16 453.401 471.16C452.804 471.16 452.201 471.053 451.593 470.84C450.985 470.616 450.446 470.317 449.977 469.944L450.601 469.064C451.049 469.405 451.513 469.667 451.993 469.848C452.484 470.029 452.974 470.12 453.465 470.12C453.966 470.12 454.377 470.003 454.697 469.768C455.017 469.533 455.177 469.213 455.177 468.808V468.776C455.177 468.573 455.118 468.397 455.001 468.248C454.894 468.099 454.745 467.971 454.553 467.864C454.361 467.747 454.137 467.645 453.881 467.56C453.636 467.475 453.38 467.395 453.113 467.32C452.793 467.224 452.468 467.123 452.137 467.016C451.817 466.899 451.524 466.755 451.257 466.584C451.001 466.413 450.788 466.2 450.617 465.944C450.457 465.688 450.377 465.368 450.377 464.984V464.952C450.377 464.6 450.446 464.28 450.585 463.992C450.724 463.693 450.916 463.443 451.161 463.24C451.417 463.027 451.716 462.867 452.057 462.76C452.409 462.643 452.788 462.584 453.193 462.584C453.705 462.584 454.222 462.669 454.745 462.84C455.268 463 455.742 463.219 456.169 463.496L455.609 464.424C455.225 464.179 454.82 463.987 454.393 463.848C453.977 463.699 453.566 463.624 453.161 463.624C452.67 463.624 452.281 463.741 451.993 463.976C451.705 464.2 451.561 464.483 451.561 464.824V464.856C451.561 465.048 451.62 465.219 451.737 465.368C451.854 465.507 452.009 465.629 452.201 465.736C452.404 465.843 452.633 465.939 452.889 466.024C453.145 466.109 453.412 466.195 453.689 466.28C454.009 466.376 454.324 466.483 454.633 466.6C454.953 466.717 455.241 466.867 455.497 467.048C455.753 467.229 455.956 467.448 456.105 467.704C456.265 467.96 456.345 468.275 456.345 468.648V468.68ZM364.787 491V479.8H366.051V489.832H372.355V491H364.787ZM375.925 480.92H374.517V479.56H375.925V480.92ZM375.829 491H374.597V482.728H375.829V491ZM386.561 493.56H385.329V489.336C385.158 489.581 384.966 489.816 384.753 490.04C384.55 490.264 384.321 490.461 384.065 490.632C383.809 490.803 383.521 490.936 383.201 491.032C382.891 491.128 382.545 491.176 382.161 491.176C381.659 491.176 381.174 491.08 380.705 490.888C380.235 490.696 379.814 490.419 379.441 490.056C379.067 489.683 378.769 489.229 378.545 488.696C378.321 488.163 378.209 487.555 378.209 486.872C378.209 486.189 378.321 485.581 378.545 485.048C378.769 484.515 379.067 484.067 379.441 483.704C379.814 483.331 380.235 483.048 380.705 482.856C381.174 482.653 381.659 482.552 382.161 482.552C382.545 482.552 382.897 482.6 383.217 482.696C383.537 482.792 383.825 482.92 384.081 483.08C384.337 483.24 384.566 483.427 384.769 483.64C384.982 483.853 385.169 484.077 385.329 484.312V482.728H386.561V493.56ZM385.377 486.856C385.377 486.376 385.291 485.939 385.121 485.544C384.961 485.149 384.737 484.813 384.449 484.536C384.171 484.259 383.851 484.045 383.489 483.896C383.137 483.736 382.769 483.656 382.385 483.656C381.979 483.656 381.601 483.731 381.249 483.88C380.897 484.019 380.587 484.227 380.321 484.504C380.065 484.771 379.857 485.107 379.697 485.512C379.547 485.907 379.473 486.355 379.473 486.856C379.473 487.347 379.547 487.789 379.697 488.184C379.857 488.579 380.07 488.92 380.337 489.208C380.603 489.485 380.913 489.699 381.265 489.848C381.617 489.997 381.99 490.072 382.385 490.072C382.769 490.072 383.137 489.997 383.489 489.848C383.851 489.688 384.171 489.469 384.449 489.192C384.737 488.915 384.961 488.579 385.121 488.184C385.291 487.779 385.377 487.336 385.377 486.856ZM395.186 487.464V482.728H396.402V491H395.186V489.56C394.908 490.008 394.546 490.392 394.098 490.712C393.65 491.021 393.068 491.176 392.354 491.176C391.852 491.176 391.404 491.096 391.01 490.936C390.626 490.776 390.295 490.552 390.018 490.264C389.751 489.965 389.543 489.613 389.394 489.208C389.255 488.803 389.186 488.355 389.186 487.864V482.728H390.418V487.56C390.418 488.328 390.615 488.936 391.01 489.384C391.404 489.832 391.97 490.056 392.706 490.056C393.058 490.056 393.383 489.997 393.682 489.88C393.991 489.752 394.252 489.576 394.466 489.352C394.69 489.117 394.866 488.84 394.994 488.52C395.122 488.2 395.186 487.848 395.186 487.464ZM400.613 480.92H399.205V479.56H400.613V480.92ZM400.517 491H399.285V482.728H400.517V491ZM411.248 491H410.016V489.336C409.845 489.581 409.653 489.816 409.44 490.04C409.237 490.264 409.008 490.461 408.752 490.632C408.496 490.803 408.208 490.936 407.888 491.032C407.579 491.128 407.232 491.176 406.848 491.176C406.347 491.176 405.861 491.08 405.392 490.888C404.923 490.696 404.501 490.419 404.128 490.056C403.755 489.683 403.456 489.229 403.232 488.696C403.008 488.163 402.896 487.555 402.896 486.872C402.896 486.189 403.008 485.581 403.232 485.048C403.456 484.515 403.755 484.067 404.128 483.704C404.501 483.331 404.923 483.048 405.392 482.856C405.861 482.653 406.347 482.552 406.848 482.552C407.232 482.552 407.584 482.6 407.904 482.696C408.224 482.792 408.512 482.92 408.768 483.08C409.024 483.24 409.253 483.427 409.456 483.64C409.669 483.853 409.856 484.077 410.016 484.312V479.32H411.248V491ZM410.064 486.856C410.064 486.376 409.979 485.939 409.808 485.544C409.648 485.149 409.424 484.813 409.136 484.536C408.859 484.259 408.539 484.045 408.176 483.896C407.824 483.736 407.456 483.656 407.072 483.656C406.667 483.656 406.288 483.731 405.936 483.88C405.584 484.019 405.275 484.227 405.008 484.504C404.752 484.771 404.544 485.107 404.384 485.512C404.235 485.907 404.16 486.355 404.16 486.856C404.16 487.347 404.235 487.789 404.384 488.184C404.544 488.579 404.757 488.92 405.024 489.208C405.291 489.485 405.6 489.699 405.952 489.848C406.304 489.997 406.677 490.072 407.072 490.072C407.456 490.072 407.824 489.997 408.176 489.848C408.539 489.688 408.859 489.469 409.136 489.192C409.424 488.915 409.648 488.579 409.808 488.184C409.979 487.779 410.064 487.336 410.064 486.856ZM422.718 489.128L425.79 479.768H426.83L429.902 489.128L433.102 479.8H434.43L430.43 491.08H429.358L426.286 481.992L423.198 491.08H422.142L418.142 479.8H419.518L422.718 489.128ZM438.384 483.704C437.893 483.704 437.445 483.763 437.04 483.88C436.645 483.987 436.256 484.131 435.872 484.312L435.504 483.304C435.962 483.091 436.426 482.925 436.896 482.808C437.365 482.68 437.904 482.616 438.512 482.616C439.642 482.616 440.512 482.899 441.12 483.464C441.728 484.019 442.032 484.845 442.032 485.944V491H440.848V489.752C440.56 490.125 440.17 490.456 439.68 490.744C439.2 491.032 438.592 491.176 437.856 491.176C437.472 491.176 437.093 491.123 436.72 491.016C436.357 490.909 436.026 490.749 435.728 490.536C435.44 490.312 435.205 490.04 435.024 489.72C434.853 489.4 434.768 489.021 434.768 488.584C434.768 488.147 434.853 487.763 435.024 487.432C435.194 487.091 435.434 486.808 435.744 486.584C436.064 486.36 436.437 486.189 436.864 486.072C437.301 485.955 437.781 485.896 438.304 485.896C438.837 485.896 439.301 485.928 439.696 485.992C440.09 486.056 440.474 486.141 440.848 486.248V485.96C440.848 485.213 440.629 484.653 440.192 484.28C439.765 483.896 439.162 483.704 438.384 483.704ZM438.432 486.808C437.653 486.808 437.056 486.963 436.64 487.272C436.224 487.581 436.016 488.003 436.016 488.536C436.016 488.803 436.069 489.037 436.176 489.24C436.293 489.443 436.448 489.619 436.64 489.768C436.832 489.907 437.05 490.013 437.296 490.088C437.552 490.163 437.818 490.2 438.096 490.2C438.48 490.2 438.837 490.147 439.168 490.04C439.509 489.923 439.802 489.768 440.048 489.576C440.304 489.373 440.501 489.139 440.64 488.872C440.789 488.595 440.864 488.291 440.864 487.96V487.16C440.554 487.075 440.197 486.995 439.792 486.92C439.397 486.845 438.944 486.808 438.432 486.808ZM450.337 488.68C450.337 489.075 450.257 489.427 450.097 489.736C449.948 490.035 449.74 490.291 449.473 490.504C449.217 490.717 448.908 490.883 448.545 491C448.193 491.107 447.809 491.16 447.393 491.16C446.796 491.16 446.193 491.053 445.585 490.84C444.977 490.616 444.439 490.317 443.969 489.944L444.593 489.064C445.041 489.405 445.505 489.667 445.985 489.848C446.476 490.029 446.967 490.12 447.457 490.12C447.959 490.12 448.369 490.003 448.689 489.768C449.009 489.533 449.169 489.213 449.169 488.808V488.776C449.169 488.573 449.111 488.397 448.993 488.248C448.887 488.099 448.737 487.971 448.545 487.864C448.353 487.747 448.129 487.645 447.873 487.56C447.628 487.475 447.372 487.395 447.105 487.32C446.785 487.224 446.46 487.123 446.129 487.016C445.809 486.899 445.516 486.755 445.249 486.584C444.993 486.413 444.78 486.2 444.609 485.944C444.449 485.688 444.369 485.368 444.369 484.984V484.952C444.369 484.6 444.439 484.28 444.577 483.992C444.716 483.693 444.908 483.443 445.153 483.24C445.409 483.027 445.708 482.867 446.049 482.76C446.401 482.643 446.78 482.584 447.185 482.584C447.697 482.584 448.215 482.669 448.737 482.84C449.26 483 449.735 483.219 450.161 483.496L449.601 484.424C449.217 484.179 448.812 483.987 448.385 483.848C447.969 483.699 447.559 483.624 447.153 483.624C446.663 483.624 446.273 483.741 445.985 483.976C445.697 484.2 445.553 484.483 445.553 484.824V484.856C445.553 485.048 445.612 485.219 445.729 485.368C445.847 485.507 446.001 485.629 446.193 485.736C446.396 485.843 446.625 485.939 446.881 486.024C447.137 486.109 447.404 486.195 447.681 486.28C448.001 486.376 448.316 486.483 448.625 486.6C448.945 486.717 449.233 486.867 449.489 487.048C449.745 487.229 449.948 487.448 450.097 487.704C450.257 487.96 450.337 488.275 450.337 488.648V488.68ZM454.134 483.816V488.648C454.134 489.16 454.262 489.517 454.518 489.72C454.774 489.923 455.11 490.024 455.526 490.024C455.739 490.024 455.936 490.003 456.118 489.96C456.31 489.917 456.512 489.843 456.726 489.736V490.792C456.512 490.909 456.283 490.995 456.038 491.048C455.803 491.112 455.536 491.144 455.238 491.144C454.907 491.144 454.598 491.101 454.31 491.016C454.022 490.931 453.771 490.797 453.558 490.616C453.355 490.424 453.195 490.179 453.078 489.88C452.96 489.581 452.902 489.224 452.902 488.808V483.816H451.75V482.728H452.902V480.232H454.134V482.728H456.758V483.816H454.134ZM459.44 487.32C459.483 487.768 459.589 488.168 459.76 488.52C459.931 488.861 460.149 489.155 460.416 489.4C460.683 489.635 460.981 489.816 461.312 489.944C461.643 490.061 461.989 490.12 462.352 490.12C462.928 490.12 463.419 490.013 463.824 489.8C464.24 489.587 464.619 489.304 464.96 488.952L465.728 489.64C465.312 490.109 464.837 490.488 464.304 490.776C463.771 491.053 463.109 491.192 462.32 491.192C461.755 491.192 461.221 491.091 460.72 490.888C460.219 490.675 459.781 490.381 459.408 490.008C459.035 489.624 458.736 489.165 458.512 488.632C458.299 488.099 458.192 487.512 458.192 486.872C458.192 486.275 458.288 485.715 458.48 485.192C458.683 484.659 458.96 484.2 459.312 483.816C459.664 483.421 460.08 483.112 460.56 482.888C461.051 482.664 461.584 482.552 462.16 482.552C462.768 482.552 463.312 482.669 463.792 482.904C464.272 483.128 464.677 483.437 465.008 483.832C465.339 484.227 465.589 484.691 465.76 485.224C465.931 485.757 466.016 486.328 466.016 486.936C466.016 486.989 466.016 487.048 466.016 487.112C466.016 487.176 466.011 487.245 466 487.32H459.44ZM459.44 486.408H464.768C464.736 486.035 464.656 485.677 464.528 485.336C464.411 484.995 464.24 484.696 464.016 484.44C463.803 484.184 463.536 483.981 463.216 483.832C462.907 483.672 462.544 483.592 462.128 483.592C461.765 483.592 461.429 483.667 461.12 483.816C460.811 483.955 460.539 484.152 460.304 484.408C460.069 484.653 459.877 484.947 459.728 485.288C459.579 485.629 459.483 486.003 459.44 486.408Z" fill="black"/>
<path d="M0 448H478" stroke="#B1B3B6"/>
<path d="M0 54L478 54" stroke="#B1B3B6"/>
<path d="M16.224 19H12.528V12.256H5.712V19H2.016V2.2H5.712V8.848H12.528V2.2H16.224V19ZM41.4184 19H37.5544L36.0184 15.232H28.9144L27.3784 19H23.6104L30.8104 2.08H34.2184L41.4184 19ZM34.6984 11.968L32.4664 6.52L30.2344 11.968H34.6984ZM62.2993 19H48.3073V16.192L57.5473 5.44H48.5953V2.2H62.2993V5.008L53.0593 15.76H62.2993V19ZM86.9715 19H83.1075L81.5715 15.232H74.4675L72.9315 19H69.1635L76.3635 2.08H79.7715L86.9715 19ZM80.2515 11.968L78.0195 6.52L75.7875 11.968H80.2515ZM108.884 19H104.564L100.964 13.624H98.0604V19H94.3644V2.2H102.044C104.044 2.2 105.596 2.688 106.7 3.664C107.82 4.64 108.38 6 108.38 7.744V7.792C108.38 9.152 108.044 10.264 107.372 11.128C106.716 11.976 105.852 12.6 104.78 13L108.884 19ZM104.636 7.984V7.936C104.636 7.136 104.38 6.536 103.868 6.136C103.356 5.736 102.644 5.536 101.732 5.536H98.0604V10.36H101.804C102.716 10.36 103.412 10.144 103.892 9.712C104.388 9.28 104.636 8.704 104.636 7.984ZM131.988 10.6C131.988 11.784 131.772 12.888 131.34 13.912C130.908 14.936 130.292 15.824 129.492 16.576C128.708 17.328 127.764 17.92 126.66 18.352C125.572 18.784 124.372 19 123.06 19H116.508V2.2H123.06C124.372 2.2 125.572 2.416 126.66 2.848C127.764 3.264 128.708 3.848 129.492 4.6C130.292 5.352 130.908 6.24 131.34 7.264C131.772 8.272 131.988 9.368 131.988 10.552V10.6ZM128.124 10.648V10.6C128.124 9.864 127.996 9.184 127.74 8.56C127.5 7.936 127.156 7.4 126.708 6.952C126.276 6.504 125.748 6.16 125.124 5.92C124.5 5.664 123.812 5.536 123.06 5.536H120.204V15.664H123.06C123.812 15.664 124.5 15.544 125.124 15.304C125.748 15.064 126.276 14.72 126.708 14.272C127.156 13.824 127.5 13.296 127.74 12.688C127.996 12.08 128.124 11.4 128.124 10.648ZM157.194 10.6C157.194 11.8 156.97 12.928 156.522 13.984C156.074 15.024 155.45 15.944 154.65 16.744C153.866 17.528 152.922 18.152 151.818 18.616C150.73 19.064 149.538 19.288 148.242 19.288C146.946 19.288 145.754 19.064 144.666 18.616C143.578 18.152 142.634 17.536 141.834 16.768C141.05 15.984 140.434 15.072 139.986 14.032C139.554 12.976 139.338 11.848 139.338 10.648V10.6C139.338 9.4 139.562 8.28 140.01 7.24C140.458 6.184 141.074 5.264 141.858 4.48C142.658 3.68 143.602 3.056 144.69 2.608C145.794 2.144 146.994 1.912 148.29 1.912C149.586 1.912 150.778 2.144 151.866 2.608C152.954 3.056 153.89 3.672 154.674 4.456C155.474 5.224 156.09 6.136 156.522 7.192C156.97 8.232 157.194 9.352 157.194 10.552V10.6ZM153.33 10.648V10.6C153.33 9.88 153.202 9.2 152.946 8.56C152.706 7.92 152.354 7.36 151.89 6.88C151.442 6.4 150.906 6.024 150.282 5.752C149.658 5.464 148.978 5.32 148.242 5.32C147.49 5.32 146.802 5.456 146.178 5.728C145.57 6 145.042 6.376 144.594 6.856C144.162 7.336 143.818 7.896 143.562 8.536C143.322 9.16 143.202 9.832 143.202 10.552V10.6C143.202 11.32 143.322 12 143.562 12.64C143.818 13.28 144.17 13.84 144.618 14.32C145.082 14.8 145.618 15.184 146.226 15.472C146.85 15.744 147.538 15.88 148.29 15.88C149.026 15.88 149.706 15.744 150.33 15.472C150.954 15.2 151.482 14.824 151.914 14.344C152.362 13.864 152.706 13.312 152.946 12.688C153.202 12.048 153.33 11.368 153.33 10.648ZM179.648 11.68C179.648 12.96 179.472 14.072 179.12 15.016C178.784 15.96 178.296 16.752 177.656 17.392C177.016 18.016 176.24 18.488 175.328 18.808C174.416 19.112 173.4 19.264 172.28 19.264C170.024 19.264 168.248 18.64 166.952 17.392C165.656 16.144 165.008 14.28 165.008 11.8V2.2H168.704V11.704C168.704 13.08 169.024 14.12 169.664 14.824C170.304 15.512 171.192 15.856 172.328 15.856C173.464 15.856 174.352 15.52 174.992 14.848C175.632 14.176 175.952 13.168 175.952 11.824V2.2H179.648V11.68ZM200.357 14.032C200.357 14.864 200.205 15.608 199.901 16.264C199.597 16.904 199.173 17.448 198.629 17.896C198.085 18.328 197.437 18.664 196.685 18.904C195.933 19.128 195.101 19.24 194.189 19.24C192.909 19.24 191.653 19.024 190.421 18.592C189.189 18.144 188.069 17.464 187.061 16.552L189.245 13.936C190.013 14.56 190.797 15.056 191.597 15.424C192.413 15.792 193.301 15.976 194.261 15.976C195.029 15.976 195.621 15.84 196.037 15.568C196.469 15.28 196.685 14.888 196.685 14.392V14.344C196.685 14.104 196.637 13.896 196.541 13.72C196.461 13.528 196.293 13.352 196.037 13.192C195.797 13.032 195.453 12.872 195.005 12.712C194.573 12.552 194.005 12.384 193.301 12.208C192.453 12 191.685 11.768 190.997 11.512C190.309 11.256 189.725 10.944 189.245 10.576C188.765 10.192 188.389 9.72 188.117 9.16C187.861 8.6 187.733 7.904 187.733 7.072V7.024C187.733 6.256 187.877 5.568 188.165 4.96C188.453 4.336 188.853 3.8 189.365 3.352C189.893 2.904 190.517 2.56 191.237 2.32C191.957 2.08 192.749 1.96 193.613 1.96C194.845 1.96 195.973 2.144 196.997 2.512C198.037 2.88 198.989 3.408 199.853 4.096L197.933 6.88C197.181 6.368 196.445 5.968 195.725 5.68C195.005 5.376 194.285 5.224 193.565 5.224C192.845 5.224 192.301 5.368 191.933 5.656C191.581 5.928 191.405 6.272 191.405 6.688V6.736C191.405 7.008 191.453 7.248 191.549 7.456C191.661 7.648 191.853 7.824 192.125 7.984C192.397 8.144 192.765 8.296 193.229 8.44C193.709 8.584 194.309 8.752 195.029 8.944C195.877 9.168 196.629 9.424 197.285 9.712C197.957 9.984 198.517 10.32 198.965 10.72C199.429 11.104 199.773 11.56 199.997 12.088C200.237 12.616 200.357 13.248 200.357 13.984V14.032ZM244.552 2.2L238.816 19.12H235.6L231.808 8.128L228.016 19.12H224.8L219.064 2.2H223.024L226.504 13.576L230.272 2.152H233.44L237.208 13.576L240.688 2.2H244.552ZM268.457 19H264.593L263.057 15.232H255.953L254.417 19H250.649L257.849 2.08H261.257L268.457 19ZM261.737 11.968L259.505 6.52L257.273 11.968H261.737ZM287.994 14.032C287.994 14.864 287.842 15.608 287.538 16.264C287.234 16.904 286.81 17.448 286.266 17.896C285.722 18.328 285.074 18.664 284.322 18.904C283.57 19.128 282.738 19.24 281.826 19.24C280.546 19.24 279.29 19.024 278.058 18.592C276.826 18.144 275.706 17.464 274.698 16.552L276.882 13.936C277.65 14.56 278.434 15.056 279.234 15.424C280.05 15.792 280.938 15.976 281.898 15.976C282.666 15.976 283.258 15.84 283.674 15.568C284.106 15.28 284.322 14.888 284.322 14.392V14.344C284.322 14.104 284.274 13.896 284.178 13.72C284.098 13.528 283.93 13.352 283.674 13.192C283.434 13.032 283.09 12.872 282.642 12.712C282.21 12.552 281.642 12.384 280.938 12.208C280.09 12 279.322 11.768 278.634 11.512C277.946 11.256 277.362 10.944 276.882 10.576C276.402 10.192 276.026 9.72 275.754 9.16C275.498 8.6 275.37 7.904 275.37 7.072V7.024C275.37 6.256 275.514 5.568 275.802 4.96C276.09 4.336 276.49 3.8 277.002 3.352C277.53 2.904 278.154 2.56 278.874 2.32C279.594 2.08 280.386 1.96 281.25 1.96C282.482 1.96 283.61 2.144 284.634 2.512C285.674 2.88 286.626 3.408 287.49 4.096L285.57 6.88C284.818 6.368 284.082 5.968 283.362 5.68C282.642 5.376 281.922 5.224 281.202 5.224C280.482 5.224 279.938 5.368 279.57 5.656C279.218 5.928 279.042 6.272 279.042 6.688V6.736C279.042 7.008 279.09 7.248 279.186 7.456C279.298 7.648 279.49 7.824 279.762 7.984C280.034 8.144 280.402 8.296 280.866 8.44C281.346 8.584 281.946 8.752 282.666 8.944C283.514 9.168 284.266 9.424 284.922 9.712C285.594 9.984 286.154 10.32 286.602 10.72C287.066 11.104 287.41 11.56 287.634 12.088C287.874 12.616 287.994 13.248 287.994 13.984V14.032ZM308.722 5.608H303.61V19H299.914V5.608H294.802V2.2H308.722V5.608ZM329.156 19H316.364V2.2H329.036V5.488H320.036V8.896H327.956V12.184H320.036V15.712H329.156V19ZM366.038 19H362.366V8.032L357.638 15.208H357.542L352.862 8.104V19H349.238V2.2H353.222L357.638 9.304L362.054 2.2H366.038V19ZM378.738 19H375.042V2.2H378.738V19ZM402.544 19H398.224L394.456 13.24L390.664 19H386.464L392.32 10.456L386.704 2.2H391.024L394.552 7.648L398.104 2.2H402.304L396.688 10.408L402.544 19Z" fill="#B0BC25"/>
<path d="M6.804 31.048C5.424 31.924 4.38 32.914 3.672 34.018C2.976 35.11 2.628 36.382 2.628 37.834C2.628 39.286 2.976 40.564 3.672 41.668C4.38 42.76 5.424 43.744 6.804 44.62L6.21 45.538C4.602 44.638 3.366 43.546 2.502 42.262C1.65 40.978 1.224 39.502 1.224 37.834C1.224 36.166 1.65 34.69 2.502 33.406C3.366 32.122 4.602 31.03 6.21 30.13L6.804 31.048ZM10.9727 31.66H9.38869V30.13H10.9727V31.66ZM10.8647 43H9.47869V33.694H10.8647V43ZM15.4672 37.672V43H14.0812V33.694H15.4672V35.314C15.7792 34.81 16.1872 34.384 16.6912 34.036C17.1952 33.676 17.8492 33.496 18.6532 33.496C19.2172 33.496 19.7152 33.586 20.1472 33.766C20.5912 33.946 20.9632 34.204 21.2632 34.54C21.5752 34.864 21.8092 35.254 21.9652 35.71C22.1332 36.166 22.2172 36.67 22.2172 37.222V43H20.8312V37.564C20.8312 36.7 20.6092 36.016 20.1652 35.512C19.7212 35.008 19.0852 34.756 18.2572 34.756C17.8612 34.756 17.4892 34.828 17.1412 34.972C16.8052 35.104 16.5112 35.302 16.2592 35.566C16.0072 35.818 15.8092 36.124 15.6652 36.484C15.5332 36.844 15.4672 37.24 15.4672 37.672ZM35.5735 31.714V43H34.1335V31.714H29.9035V30.4H39.8035V31.714H35.5735ZM49.0822 38.338C49.0822 38.998 48.9562 39.628 48.7042 40.228C48.4642 40.816 48.1282 41.332 47.6962 41.776C47.2642 42.22 46.7482 42.574 46.1482 42.838C45.5482 43.09 44.9002 43.216 44.2042 43.216C43.5082 43.216 42.8662 43.09 42.2782 42.838C41.6902 42.574 41.1802 42.226 40.7482 41.794C40.3162 41.35 39.9802 40.834 39.7402 40.246C39.5002 39.658 39.3802 39.034 39.3802 38.374C39.3802 37.714 39.5002 37.09 39.7402 36.502C39.9802 35.902 40.3162 35.38 40.7482 34.936C41.1802 34.492 41.6902 34.144 42.2782 33.892C42.8782 33.628 43.5322 33.496 44.2402 33.496C44.9362 33.496 45.5782 33.628 46.1662 33.892C46.7662 34.144 47.2822 34.492 47.7142 34.936C48.1462 35.368 48.4822 35.878 48.7222 36.466C48.9622 37.054 49.0822 37.678 49.0822 38.338ZM47.6602 38.374C47.6602 37.87 47.5702 37.396 47.3902 36.952C47.2222 36.508 46.9822 36.124 46.6702 35.8C46.3582 35.464 45.9922 35.2 45.5722 35.008C45.1522 34.816 44.6962 34.72 44.2042 34.72C43.7002 34.72 43.2382 34.816 42.8182 35.008C42.3982 35.188 42.0382 35.446 41.7382 35.782C41.4502 36.106 41.2222 36.49 41.0542 36.934C40.8862 37.366 40.8022 37.834 40.8022 38.338C40.8022 38.842 40.8862 39.316 41.0542 39.76C41.2342 40.204 41.4742 40.588 41.7742 40.912C42.0862 41.236 42.4522 41.494 42.8722 41.686C43.2922 41.878 43.7482 41.974 44.2402 41.974C44.7442 41.974 45.2062 41.884 45.6262 41.704C46.0462 41.512 46.4062 41.254 46.7062 40.93C47.0062 40.606 47.2402 40.228 47.4082 39.796C47.5762 39.352 47.6602 38.878 47.6602 38.374ZM52.9789 37.672V43H51.5929V33.694H52.9789V35.314C53.2909 34.81 53.6989 34.384 54.2029 34.036C54.7069 33.676 55.3609 33.496 56.1649 33.496C56.7289 33.496 57.2269 33.586 57.6589 33.766C58.1029 33.946 58.4749 34.204 58.7749 34.54C59.0869 34.864 59.3209 35.254 59.4769 35.71C59.6449 36.166 59.7289 36.67 59.7289 37.222V43H58.3429V37.564C58.3429 36.7 58.1209 36.016 57.6769 35.512C57.2329 35.008 56.5969 34.756 55.7689 34.756C55.3729 34.756 55.0009 34.828 54.6529 34.972C54.3169 35.104 54.0229 35.302 53.7709 35.566C53.5189 35.818 53.3209 36.124 53.1769 36.484C53.0449 36.844 52.9789 37.24 52.9789 37.672ZM64.0707 37.672V43H62.6847V33.694H64.0707V35.314C64.3827 34.81 64.7907 34.384 65.2947 34.036C65.7987 33.676 66.4527 33.496 67.2567 33.496C67.8207 33.496 68.3187 33.586 68.7507 33.766C69.1947 33.946 69.5667 34.204 69.8667 34.54C70.1787 34.864 70.4127 35.254 70.5687 35.71C70.7367 36.166 70.8207 36.67 70.8207 37.222V43H69.4347V37.564C69.4347 36.7 69.2127 36.016 68.7687 35.512C68.3247 35.008 67.6887 34.756 66.8607 34.756C66.4647 34.756 66.0927 34.828 65.7447 34.972C65.4087 35.104 65.1147 35.302 64.8627 35.566C64.6107 35.818 64.4127 36.124 64.2687 36.484C64.1367 36.844 64.0707 37.24 64.0707 37.672ZM74.6045 38.86C74.6525 39.364 74.7725 39.814 74.9645 40.21C75.1565 40.594 75.4025 40.924 75.7025 41.2C76.0025 41.464 76.3385 41.668 76.7105 41.812C77.0825 41.944 77.4725 42.01 77.8805 42.01C78.5285 42.01 79.0805 41.89 79.5365 41.65C80.0045 41.41 80.4305 41.092 80.8145 40.696L81.6785 41.47C81.2105 41.998 80.6765 42.424 80.0765 42.748C79.4765 43.06 78.7325 43.216 77.8445 43.216C77.2085 43.216 76.6085 43.102 76.0445 42.874C75.4805 42.634 74.9885 42.304 74.5685 41.884C74.1485 41.452 73.8125 40.936 73.5605 40.336C73.3205 39.736 73.2005 39.076 73.2005 38.356C73.2005 37.684 73.3085 37.054 73.5245 36.466C73.7525 35.866 74.0645 35.35 74.4605 34.918C74.8565 34.474 75.3245 34.126 75.8645 33.874C76.4165 33.622 77.0165 33.496 77.6645 33.496C78.3485 33.496 78.9605 33.628 79.5005 33.892C80.0405 34.144 80.4965 34.492 80.8685 34.936C81.2405 35.38 81.5225 35.902 81.7145 36.502C81.9065 37.102 82.0025 37.744 82.0025 38.428C82.0025 38.488 82.0025 38.554 82.0025 38.626C82.0025 38.698 81.9965 38.776 81.9845 38.86H74.6045ZM74.6045 37.834H80.5985C80.5625 37.414 80.4725 37.012 80.3285 36.628C80.1965 36.244 80.0045 35.908 79.7525 35.62C79.5125 35.332 79.2125 35.104 78.8525 34.936C78.5045 34.756 78.0965 34.666 77.6285 34.666C77.2205 34.666 76.8425 34.75 76.4945 34.918C76.1465 35.074 75.8405 35.296 75.5765 35.584C75.3125 35.86 75.0965 36.19 74.9285 36.574C74.7605 36.958 74.6525 37.378 74.6045 37.834ZM90.8189 40.39C90.8189 40.834 90.7289 41.23 90.5489 41.578C90.3809 41.914 90.1469 42.202 89.8469 42.442C89.5589 42.682 89.2109 42.868 88.8029 43C88.4069 43.12 87.9749 43.18 87.5069 43.18C86.8349 43.18 86.1569 43.06 85.4729 42.82C84.7889 42.568 84.1829 42.232 83.6549 41.812L84.3569 40.822C84.8609 41.206 85.3829 41.5 85.9229 41.704C86.4749 41.908 87.0269 42.01 87.5789 42.01C88.1429 42.01 88.6049 41.878 88.9649 41.614C89.3249 41.35 89.5049 40.99 89.5049 40.534V40.498C89.5049 40.27 89.4389 40.072 89.3069 39.904C89.1869 39.736 89.0189 39.592 88.8029 39.472C88.5869 39.34 88.3349 39.226 88.0469 39.13C87.7709 39.034 87.4829 38.944 87.1829 38.86C86.8229 38.752 86.4569 38.638 86.0849 38.518C85.7249 38.386 85.3949 38.224 85.0949 38.032C84.8069 37.84 84.5669 37.6 84.3749 37.312C84.1949 37.024 84.1049 36.664 84.1049 36.232V36.196C84.1049 35.8 84.1829 35.44 84.3389 35.116C84.4949 34.78 84.7109 34.498 84.9869 34.27C85.2749 34.03 85.6109 33.85 85.9949 33.73C86.3909 33.598 86.8169 33.532 87.2729 33.532C87.8489 33.532 88.4309 33.628 89.0189 33.82C89.6069 34 90.1409 34.246 90.6209 34.558L89.9909 35.602C89.5589 35.326 89.1029 35.11 88.6229 34.954C88.1549 34.786 87.6929 34.702 87.2369 34.702C86.6849 34.702 86.2469 34.834 85.9229 35.098C85.5989 35.35 85.4369 35.668 85.4369 36.052V36.088C85.4369 36.304 85.5029 36.496 85.6349 36.664C85.7669 36.82 85.9409 36.958 86.1569 37.078C86.3849 37.198 86.6429 37.306 86.9309 37.402C87.2189 37.498 87.5189 37.594 87.8309 37.69C88.1909 37.798 88.5449 37.918 88.8929 38.05C89.2529 38.182 89.5769 38.35 89.8649 38.554C90.1529 38.758 90.3809 39.004 90.5489 39.292C90.7289 39.58 90.8189 39.934 90.8189 40.354V40.39ZM92.5021 31.048L93.0961 30.13C94.7041 31.03 95.9341 32.122 96.7861 33.406C97.6501 34.69 98.0821 36.166 98.0821 37.834C98.0821 39.502 97.6501 40.978 96.7861 42.262C95.9341 43.546 94.7041 44.638 93.0961 45.538L92.5021 44.62C93.8821 43.744 94.9201 42.76 95.6161 41.668C96.3241 40.564 96.6781 39.286 96.6781 37.834C96.6781 36.382 96.3241 35.11 95.6161 34.018C94.9201 32.914 93.8821 31.924 92.5021 31.048Z" fill="#717171"/>
</svg>
