<svg width="683" height="198" viewBox="0 0 683 198" fill="none" xmlns="http://www.w3.org/2000/svg">
<g opacity="0.5">
<path d="M92.7379 194.582C92.6651 194.582 92.5892 194.576 92.5164 194.564C71.1571 191.187 53.6601 178.872 41.9155 158.953C34.2577 145.962 29.4761 130.343 28.0896 113.777C26.7274 97.5083 28.7116 81.4643 33.8269 67.3807C39.6886 51.2365 50.7384 36.5581 65.7809 24.9325C66.3998 24.4561 67.2888 24.5684 67.7651 25.1874C68.2445 25.8065 68.1292 26.6957 67.5103 27.1721C52.8925 38.4699 42.1643 52.7083 36.4847 68.3487C26.2935 96.4158 29.4549 132.248 44.3488 157.515C55.6504 176.684 72.4557 188.528 92.9533 191.769C93.7239 191.891 94.2519 192.616 94.1305 193.39C94.0213 194.088 93.4175 194.585 92.7349 194.585L92.7379 194.582Z" fill="#E855BD"/>
<path d="M71.1374 186.474C71.1374 186.474 84.5476 164.858 65.0148 134.13C64.2806 135.775 54.678 162.698 71.1374 186.474Z" fill="#D266B2"/>
<path d="M58.344 177.704C58.344 177.704 33.7626 184.231 10.0701 156.583C11.8572 156.358 40.407 155.026 58.344 177.704Z" fill="#D266B2"/>
<path d="M36.7477 146.432C36.7477 146.432 11.5201 143.206 0 108.663C1.73848 109.127 28.6834 118.662 36.7477 146.432Z" fill="#D266B2"/>
<path d="M28.626 111.741C28.626 111.741 5.77099 100.576 5.96213 64.1641C7.45789 65.1655 29.9125 82.8512 28.626 111.741Z" fill="#D266B2"/>
<path d="M32.2739 75.0311C32.2739 75.0311 13.2477 58.1496 23.1871 23.1211C24.3612 24.4867 41.2545 47.5436 32.2739 75.0311Z" fill="#D266B2"/>
<path d="M44.0624 48.9027C44.0624 48.9027 33.3038 27.0262 53.9593 0C54.5115 1.63262 61.2955 28.1339 44.0624 48.9027Z" fill="#D266B2"/>
<path d="M45.4895 162.803C45.4895 162.803 66.1965 144.013 55.89 106.266C54.5975 107.762 36.1873 131.999 45.4895 162.803Z" fill="#D266B2"/>
<path d="M30.4766 120.696C30.4766 120.696 52.1878 108.382 53.0039 71.6689C51.4475 72.7311 30.5281 89.124 30.4766 120.696Z" fill="#D266B2"/>
<path d="M51.2119 45.7892C57.4346 41.2677 64.5948 38.1511 71.9826 36.0117C71.9674 37.5442 71.755 39.0736 71.3576 40.5545C70.863 42.3874 70.0803 44.1323 69.2216 45.8226C62.3406 59.3448 48.3569 72.1539 33.0898 75.1552C33.1384 73.4345 34.3004 71.1313 34.7798 69.444C37.5468 59.6908 42.9534 51.7917 51.2149 45.7892H51.2119Z" fill="#D266B2"/>
<path d="M68.1913 22.0824C78.3339 13.8829 91.3345 9.29151 104.375 9.30668C104.687 13.4064 99.2866 17.1936 96.4559 19.333C89.9753 24.2339 83.1579 27.572 75.2331 29.7114C70.3545 31.0284 64.8721 32.0875 59.8083 32.0784C59.6566 32.0784 59.4837 32.0663 59.3927 31.9479C59.2592 31.778 59.3866 31.5322 59.514 31.3562C60.5153 29.9663 61.8108 28.8192 62.8636 27.4688C64.4382 25.4508 66.204 23.6907 68.1943 22.0824H68.1913Z" fill="#D266B2"/>
</g>
<g opacity="0.5">
<path d="M589.647 194.583C588.965 194.583 588.361 194.085 588.252 193.387C588.13 192.616 588.655 191.891 589.429 191.766C609.924 188.525 626.732 176.681 638.034 157.512C652.93 132.246 656.092 96.4129 645.898 68.3458C640.218 52.7054 629.49 38.467 614.872 27.1692C614.253 26.6897 614.141 25.8036 614.617 25.1845C615.097 24.5655 615.982 24.4532 616.601 24.9296C631.644 36.5552 642.694 51.2336 648.555 67.3777C653.671 81.4614 655.655 97.5053 654.293 113.774C652.906 130.337 648.128 145.959 640.467 158.95C628.722 178.869 611.225 191.184 589.866 194.561C589.79 194.573 589.717 194.579 589.644 194.579L589.647 194.583Z" fill="#E855BD"/>
<path d="M611.251 186.474C611.251 186.474 597.841 164.858 617.374 134.13C618.108 135.775 627.711 162.698 611.251 186.474Z" fill="#D266B2"/>
<path d="M624.043 177.704C624.043 177.704 648.624 184.232 672.317 156.583C670.53 156.359 641.98 155.027 624.043 177.704Z" fill="#D266B2"/>
<path d="M645.637 146.433C645.637 146.433 670.864 143.21 682.384 108.664C680.646 109.128 653.701 118.663 645.637 146.433Z" fill="#D266B2"/>
<path d="M653.76 111.741C653.76 111.741 676.615 100.579 676.424 64.1641C674.928 65.1655 652.474 82.8512 653.76 111.741Z" fill="#D266B2"/>
<path d="M650.112 75.0311C650.112 75.0311 669.138 58.1496 659.199 23.1211C658.025 24.4867 641.132 47.5436 650.112 75.0311Z" fill="#D266B2"/>
<path d="M638.324 48.9027C638.324 48.9027 649.083 27.0262 628.427 0C627.875 1.63262 621.091 28.1339 638.324 48.9027Z" fill="#D266B2"/>
<path d="M636.898 162.803C636.898 162.803 616.191 144.013 626.497 106.266C627.79 107.762 646.2 131.999 636.898 162.803Z" fill="#D266B2"/>
<path d="M651.914 120.695C651.914 120.695 630.203 108.381 629.387 71.668C630.943 72.7301 651.863 89.123 651.914 120.695Z" fill="#D266B2"/>
<path d="M631.173 45.7892C624.95 41.2677 617.79 38.1511 610.402 36.0117C610.418 37.5442 610.63 39.0736 611.027 40.5545C611.522 42.3874 612.305 44.1323 613.163 45.8226C620.044 59.3448 634.028 72.1539 649.295 75.1552C649.247 73.4345 648.085 71.1313 647.605 69.444C644.838 59.6908 639.432 51.7917 631.17 45.7892H631.173Z" fill="#D266B2"/>
<path d="M614.196 22.0834C604.054 13.8838 591.056 9.29248 578.013 9.30765C577.7 13.4074 583.101 17.1946 585.932 19.334C592.412 24.2349 599.23 27.573 607.154 29.7124C612.033 31.0294 617.516 32.0885 622.579 32.0794C622.731 32.0794 622.904 32.0672 622.995 31.9489C623.128 31.7789 623.001 31.5331 622.874 31.3571C621.872 29.9673 620.577 28.8202 619.524 27.4698C617.949 25.4518 616.184 23.6917 614.193 22.0834H614.196Z" fill="#D266B2"/>
</g>
<path d="M265.006 65.784C265.006 67.32 264.702 68.664 264.094 69.816C263.518 70.968 262.67 71.928 261.55 72.696C260.462 73.464 259.134 74.04 257.566 74.424C256.03 74.808 254.318 75 252.43 75H236.446V41.4H252.046C255.502 41.4 258.206 42.184 260.158 43.752C262.142 45.32 263.134 47.432 263.134 50.088V50.184C263.134 51.144 263.006 51.992 262.75 52.728C262.526 53.464 262.206 54.136 261.79 54.744C261.406 55.32 260.942 55.832 260.398 56.28C259.886 56.728 259.326 57.112 258.718 57.432C260.67 58.168 262.206 59.176 263.326 60.456C264.446 61.704 265.006 63.448 265.006 65.688V65.784ZM255.79 51.432V51.336C255.79 50.216 255.374 49.368 254.542 48.792C253.71 48.184 252.51 47.88 250.942 47.88H243.646V54.984H250.462C252.094 54.984 253.39 54.712 254.35 54.168C255.31 53.592 255.79 52.68 255.79 51.432ZM257.662 64.872V64.776C257.662 63.656 257.23 62.776 256.366 62.136C255.502 61.464 254.11 61.128 252.19 61.128H243.646V68.52H252.43C254.062 68.52 255.342 68.232 256.27 67.656C257.198 67.048 257.662 66.12 257.662 64.872ZM300.127 75H291.487L284.287 64.248H278.479V75H271.087V41.4H286.447C290.447 41.4 293.551 42.376 295.759 44.328C297.999 46.28 299.119 49 299.119 52.488V52.584C299.119 55.304 298.447 57.528 297.103 59.256C295.791 60.952 294.063 62.2 291.919 63L300.127 75ZM291.631 52.968V52.872C291.631 51.272 291.119 50.072 290.095 49.272C289.071 48.472 287.647 48.072 285.823 48.072H278.479V57.72H285.967C287.791 57.72 289.183 57.288 290.143 56.424C291.135 55.56 291.631 54.408 291.631 52.968ZM339.998 58.2C339.998 60.6 339.55 62.856 338.654 64.968C337.758 67.048 336.51 68.888 334.91 70.488C333.342 72.056 331.454 73.304 329.246 74.232C327.07 75.128 324.686 75.576 322.094 75.576C319.502 75.576 317.118 75.128 314.942 74.232C312.766 73.304 310.878 72.072 309.278 70.536C307.71 68.968 306.478 67.144 305.582 65.064C304.718 62.952 304.286 60.696 304.286 58.296V58.2C304.286 55.8 304.734 53.56 305.63 51.48C306.526 49.368 307.758 47.528 309.326 45.96C310.926 44.36 312.814 43.112 314.99 42.216C317.198 41.288 319.598 40.824 322.19 40.824C324.782 40.824 327.166 41.288 329.342 42.216C331.518 43.112 333.39 44.344 334.958 45.912C336.558 47.448 337.79 49.272 338.654 51.384C339.55 53.464 339.998 55.704 339.998 58.104V58.2ZM332.27 58.296V58.2C332.27 56.76 332.014 55.4 331.502 54.12C331.022 52.84 330.318 51.72 329.39 50.76C328.494 49.8 327.422 49.048 326.174 48.504C324.926 47.928 323.566 47.64 322.094 47.64C320.59 47.64 319.214 47.912 317.966 48.456C316.75 49 315.694 49.752 314.798 50.712C313.934 51.672 313.246 52.792 312.734 54.072C312.254 55.32 312.014 56.664 312.014 58.104V58.2C312.014 59.64 312.254 61 312.734 62.28C313.246 63.56 313.95 64.68 314.846 65.64C315.774 66.6 316.846 67.368 318.062 67.944C319.31 68.488 320.686 68.76 322.19 68.76C323.662 68.76 325.022 68.488 326.27 67.944C327.518 67.4 328.574 66.648 329.438 65.688C330.334 64.728 331.022 63.624 331.502 62.376C332.014 61.096 332.27 59.736 332.27 58.296ZM376.411 75H370.123L353.851 53.64V75H346.555V41.4H353.371L369.115 62.088V41.4H376.411V75ZM411.453 75H383.469V69.384L401.949 47.88H384.045V41.4H411.453V47.016L392.973 68.52H411.453V75ZM444.046 75H418.462V41.4H443.806V47.976H425.806V54.792H441.646V61.368H425.806V68.424H444.046V75ZM81.5593 94.2C82.3913 94.2 83.1433 94.304 83.8153 94.512C84.4873 94.704 85.0633 94.984 85.5433 95.352C86.0233 95.704 86.3913 96.144 86.6473 96.672C86.9033 97.184 87.0312 97.76 87.0312 98.4C87.0312 98.96 86.9513 99.448 86.7913 99.864C86.6473 100.28 86.4473 100.648 86.1913 100.968C85.9353 101.288 85.6473 101.56 85.3273 101.784C85.0233 101.992 84.7033 102.168 84.3672 102.312C84.8633 102.456 85.3273 102.648 85.7593 102.888C86.2073 103.112 86.5913 103.384 86.9113 103.704C87.2313 104.024 87.4873 104.408 87.6793 104.856C87.8713 105.304 87.9673 105.816 87.9673 106.392C87.9673 107.112 87.8233 107.76 87.5353 108.336C87.2473 108.912 86.8313 109.4 86.2873 109.8C85.7593 110.184 85.1193 110.48 84.3672 110.688C83.6153 110.896 82.7833 111 81.8713 111H74.4073V94.2H81.5593ZM81.2473 101.688C82.3833 101.688 83.3113 101.432 84.0312 100.92C84.7513 100.408 85.1113 99.656 85.1113 98.664C85.1113 97.816 84.7913 97.144 84.1512 96.648C83.5113 96.152 82.5913 95.904 81.3913 95.904H76.2793V101.688H81.2473ZM81.9193 109.296C83.1993 109.296 84.2073 109.032 84.9433 108.504C85.6793 107.976 86.0473 107.232 86.0473 106.272C86.0473 105.344 85.6713 104.632 84.9193 104.136C84.1673 103.624 83.0553 103.368 81.5833 103.368H76.2793V109.296H81.9193ZM92.5196 105.48C92.5836 106.152 92.7436 106.752 92.9996 107.28C93.2556 107.792 93.5836 108.232 93.9836 108.6C94.3836 108.952 94.8316 109.224 95.3276 109.416C95.8236 109.592 96.3436 109.68 96.8876 109.68C97.7516 109.68 98.4876 109.52 99.0956 109.2C99.7196 108.88 100.288 108.456 100.8 107.928L101.952 108.96C101.328 109.664 100.616 110.232 99.8156 110.664C99.0156 111.08 98.0236 111.288 96.8396 111.288C95.9916 111.288 95.1916 111.136 94.4396 110.832C93.6876 110.512 93.0316 110.072 92.4716 109.512C91.9116 108.936 91.4636 108.248 91.1276 107.448C90.8076 106.648 90.6476 105.768 90.6476 104.808C90.6476 103.912 90.7916 103.072 91.0796 102.288C91.3836 101.488 91.7996 100.8 92.3276 100.224C92.8556 99.632 93.4796 99.168 94.1996 98.832C94.9356 98.496 95.7356 98.328 96.5996 98.328C97.5116 98.328 98.3276 98.504 99.0476 98.856C99.7676 99.192 100.376 99.656 100.872 100.248C101.368 100.84 101.744 101.536 102 102.336C102.256 103.136 102.384 103.992 102.384 104.904C102.384 104.984 102.384 105.072 102.384 105.168C102.384 105.264 102.376 105.368 102.36 105.48H92.5196ZM92.5196 104.112H100.512C100.464 103.552 100.344 103.016 100.152 102.504C99.9756 101.992 99.7196 101.544 99.3836 101.16C99.0636 100.776 98.6636 100.472 98.1836 100.248C97.7196 100.008 97.1756 99.888 96.5516 99.888C96.0076 99.888 95.5036 100 95.0396 100.224C94.5756 100.432 94.1676 100.728 93.8156 101.112C93.4636 101.48 93.1756 101.92 92.9516 102.432C92.7276 102.944 92.5836 103.504 92.5196 104.112ZM114.139 107.52C114.139 108.112 114.019 108.64 113.779 109.104C113.555 109.552 113.243 109.936 112.843 110.256C112.459 110.576 111.995 110.824 111.451 111C110.923 111.16 110.347 111.24 109.723 111.24C108.827 111.24 107.923 111.08 107.011 110.76C106.099 110.424 105.291 109.976 104.587 109.416L105.523 108.096C106.195 108.608 106.891 109 107.611 109.272C108.347 109.544 109.083 109.68 109.819 109.68C110.571 109.68 111.187 109.504 111.667 109.152C112.147 108.8 112.387 108.32 112.387 107.712V107.664C112.387 107.36 112.299 107.096 112.123 106.872C111.963 106.648 111.739 106.456 111.451 106.296C111.163 106.12 110.827 105.968 110.443 105.84C110.075 105.712 109.691 105.592 109.291 105.48C108.811 105.336 108.323 105.184 107.827 105.024C107.347 104.848 106.907 104.632 106.507 104.376C106.123 104.12 105.803 103.8 105.547 103.416C105.307 103.032 105.187 102.552 105.187 101.976V101.928C105.187 101.4 105.291 100.92 105.499 100.488C105.707 100.04 105.995 99.664 106.363 99.36C106.747 99.04 107.195 98.8 107.707 98.64C108.235 98.464 108.803 98.376 109.411 98.376C110.179 98.376 110.955 98.504 111.739 98.76C112.523 99 113.235 99.328 113.875 99.744L113.035 101.136C112.459 100.768 111.851 100.48 111.211 100.272C110.587 100.048 109.971 99.936 109.363 99.936C108.627 99.936 108.043 100.112 107.611 100.464C107.179 100.8 106.963 101.224 106.963 101.736V101.784C106.963 102.072 107.051 102.328 107.227 102.552C107.403 102.76 107.635 102.944 107.923 103.104C108.227 103.264 108.571 103.408 108.955 103.536C109.339 103.664 109.739 103.792 110.155 103.92C110.635 104.064 111.107 104.224 111.571 104.4C112.051 104.576 112.483 104.8 112.867 105.072C113.251 105.344 113.555 105.672 113.779 106.056C114.019 106.44 114.139 106.912 114.139 107.472V107.52ZM119.833 100.224V107.472C119.833 108.24 120.025 108.776 120.409 109.08C120.793 109.384 121.297 109.536 121.921 109.536C122.241 109.536 122.537 109.504 122.809 109.44C123.097 109.376 123.401 109.264 123.721 109.104V110.688C123.401 110.864 123.057 110.992 122.689 111.072C122.337 111.168 121.937 111.216 121.489 111.216C120.993 111.216 120.529 111.152 120.097 111.024C119.665 110.896 119.289 110.696 118.969 110.424C118.665 110.136 118.425 109.768 118.249 109.32C118.073 108.872 117.985 108.336 117.985 107.712V100.224H116.257V98.592H117.985V94.848H119.833V98.592H123.769V100.224H119.833ZM134.548 111V94.2H136.444V109.248H145.9V111H134.548ZM149.965 105.48C150.029 106.152 150.189 106.752 150.445 107.28C150.701 107.792 151.029 108.232 151.429 108.6C151.829 108.952 152.277 109.224 152.773 109.416C153.269 109.592 153.789 109.68 154.333 109.68C155.197 109.68 155.933 109.52 156.541 109.2C157.165 108.88 157.733 108.456 158.245 107.928L159.397 108.96C158.773 109.664 158.061 110.232 157.261 110.664C156.461 111.08 155.469 111.288 154.285 111.288C153.437 111.288 152.637 111.136 151.885 110.832C151.133 110.512 150.477 110.072 149.917 109.512C149.357 108.936 148.909 108.248 148.573 107.448C148.253 106.648 148.093 105.768 148.093 104.808C148.093 103.912 148.237 103.072 148.525 102.288C148.829 101.488 149.245 100.8 149.773 100.224C150.301 99.632 150.925 99.168 151.645 98.832C152.381 98.496 153.181 98.328 154.045 98.328C154.957 98.328 155.773 98.504 156.493 98.856C157.213 99.192 157.821 99.656 158.317 100.248C158.813 100.84 159.189 101.536 159.445 102.336C159.701 103.136 159.829 103.992 159.829 104.904C159.829 104.984 159.829 105.072 159.829 105.168C159.829 105.264 159.821 105.368 159.805 105.48H149.965ZM149.965 104.112H157.957C157.909 103.552 157.789 103.016 157.597 102.504C157.421 101.992 157.165 101.544 156.829 101.16C156.509 100.776 156.109 100.472 155.629 100.248C155.165 100.008 154.621 99.888 153.997 99.888C153.453 99.888 152.949 100 152.485 100.224C152.021 100.432 151.613 100.728 151.261 101.112C150.909 101.48 150.621 101.92 150.397 102.432C150.173 102.944 150.029 103.504 149.965 104.112ZM167.552 100.056C166.816 100.056 166.144 100.144 165.536 100.32C164.944 100.48 164.36 100.696 163.784 100.968L163.232 99.456C163.92 99.136 164.616 98.888 165.32 98.712C166.024 98.52 166.832 98.424 167.744 98.424C169.44 98.424 170.744 98.848 171.656 99.696C172.568 100.528 173.024 101.768 173.024 103.416V111H171.248V109.128C170.816 109.688 170.232 110.184 169.496 110.616C168.776 111.048 167.864 111.264 166.76 111.264C166.184 111.264 165.616 111.184 165.056 111.024C164.512 110.864 164.016 110.624 163.568 110.304C163.136 109.968 162.784 109.56 162.512 109.08C162.256 108.6 162.128 108.032 162.128 107.376C162.128 106.72 162.256 106.144 162.512 105.648C162.768 105.136 163.128 104.712 163.592 104.376C164.072 104.04 164.632 103.784 165.272 103.608C165.928 103.432 166.648 103.344 167.432 103.344C168.232 103.344 168.928 103.392 169.52 103.488C170.112 103.584 170.688 103.712 171.248 103.872V103.44C171.248 102.32 170.92 101.48 170.264 100.92C169.624 100.344 168.72 100.056 167.552 100.056ZM167.624 104.712C166.456 104.712 165.56 104.944 164.936 105.408C164.312 105.872 164 106.504 164 107.304C164 107.704 164.08 108.056 164.24 108.36C164.416 108.664 164.648 108.928 164.936 109.152C165.224 109.36 165.552 109.52 165.92 109.632C166.304 109.744 166.704 109.8 167.12 109.8C167.696 109.8 168.232 109.72 168.728 109.56C169.24 109.384 169.68 109.152 170.048 108.864C170.432 108.56 170.728 108.208 170.936 107.808C171.16 107.392 171.272 106.936 171.272 106.44V105.24C170.808 105.112 170.272 104.992 169.664 104.88C169.072 104.768 168.392 104.712 167.624 104.712ZM178.81 106.056V111H176.962V98.592H178.81V101.832C179.034 101.32 179.314 100.848 179.65 100.416C179.986 99.984 180.37 99.616 180.802 99.312C181.234 98.992 181.706 98.752 182.218 98.592C182.73 98.432 183.282 98.36 183.874 98.376V100.368H183.73C183.058 100.368 182.418 100.488 181.81 100.728C181.218 100.968 180.698 101.328 180.25 101.808C179.802 102.288 179.45 102.888 179.194 103.608C178.938 104.312 178.81 105.128 178.81 106.056ZM188.537 103.896V111H186.689V98.592H188.537V100.752C188.953 100.08 189.497 99.512 190.169 99.048C190.841 98.568 191.713 98.328 192.785 98.328C193.537 98.328 194.201 98.448 194.777 98.688C195.369 98.928 195.865 99.272 196.265 99.72C196.681 100.152 196.993 100.672 197.201 101.28C197.425 101.888 197.537 102.56 197.537 103.296V111H195.689V103.752C195.689 102.6 195.393 101.688 194.801 101.016C194.209 100.344 193.361 100.008 192.257 100.008C191.729 100.008 191.233 100.104 190.769 100.296C190.321 100.472 189.929 100.736 189.593 101.088C189.257 101.424 188.993 101.832 188.801 102.312C188.625 102.792 188.537 103.32 188.537 103.896ZM203.638 95.88H201.526V93.84H203.638V95.88ZM203.494 111H201.646V98.592H203.494V111ZM209.631 103.896V111H207.783V98.592H209.631V100.752C210.047 100.08 210.591 99.512 211.263 99.048C211.935 98.568 212.807 98.328 213.879 98.328C214.631 98.328 215.295 98.448 215.871 98.688C216.463 98.928 216.959 99.272 217.359 99.72C217.775 100.152 218.087 100.672 218.295 101.28C218.519 101.888 218.631 102.56 218.631 103.296V111H216.783V103.752C216.783 102.6 216.487 101.688 215.895 101.016C215.303 100.344 214.455 100.008 213.351 100.008C212.823 100.008 212.327 100.104 211.863 100.296C211.415 100.472 211.023 100.736 210.687 101.088C210.351 101.424 210.087 101.832 209.895 102.312C209.719 102.792 209.631 103.32 209.631 103.896ZM234.38 108.84C234.38 109.848 234.228 110.728 233.924 111.48C233.636 112.232 233.212 112.856 232.652 113.352C232.108 113.864 231.444 114.248 230.66 114.504C229.892 114.76 229.028 114.888 228.068 114.888C227.028 114.888 226.036 114.744 225.092 114.456C224.148 114.168 223.26 113.736 222.428 113.16L223.268 111.72C223.988 112.232 224.74 112.624 225.524 112.896C226.308 113.168 227.148 113.304 228.044 113.304C229.42 113.304 230.516 112.928 231.332 112.176C232.148 111.44 232.556 110.344 232.556 108.888V107.424C232.012 108.144 231.348 108.76 230.564 109.272C229.78 109.784 228.82 110.04 227.684 110.04C226.932 110.04 226.204 109.912 225.5 109.656C224.812 109.384 224.196 109 223.652 108.504C223.108 107.992 222.668 107.376 222.332 106.656C222.012 105.936 221.852 105.12 221.852 104.208C221.852 103.296 222.012 102.48 222.332 101.76C222.668 101.024 223.108 100.408 223.652 99.912C224.196 99.4 224.82 99.008 225.524 98.736C226.228 98.464 226.948 98.328 227.684 98.328C228.26 98.328 228.788 98.4 229.268 98.544C229.764 98.672 230.204 98.848 230.588 99.072C230.988 99.296 231.348 99.56 231.668 99.864C231.988 100.168 232.276 100.488 232.532 100.824V98.592H234.38V108.84ZM232.604 104.184C232.604 103.544 232.476 102.968 232.22 102.456C231.964 101.928 231.62 101.48 231.188 101.112C230.772 100.744 230.292 100.464 229.748 100.272C229.204 100.064 228.636 99.96 228.044 99.96C227.452 99.96 226.892 100.056 226.364 100.248C225.852 100.44 225.396 100.72 224.996 101.088C224.612 101.456 224.308 101.904 224.084 102.432C223.86 102.944 223.748 103.52 223.748 104.16C223.748 104.8 223.86 105.384 224.084 105.912C224.324 106.424 224.636 106.872 225.02 107.256C225.42 107.624 225.876 107.912 226.388 108.12C226.916 108.312 227.468 108.408 228.044 108.408C228.636 108.408 229.204 108.312 229.748 108.12C230.292 107.912 230.772 107.624 231.188 107.256C231.62 106.888 231.964 106.448 232.22 105.936C232.476 105.408 232.604 104.824 232.604 104.184ZM258.593 99.552C258.593 100.464 258.417 101.264 258.065 101.952C257.713 102.64 257.233 103.216 256.625 103.68C256.033 104.144 255.337 104.496 254.537 104.736C253.737 104.96 252.889 105.072 251.993 105.072H247.913V111H246.017V94.2H252.305C253.249 94.2 254.105 94.328 254.873 94.584C255.657 94.824 256.321 95.176 256.865 95.64C257.425 96.088 257.849 96.648 258.137 97.32C258.441 97.976 258.593 98.72 258.593 99.552ZM256.673 99.624C256.673 98.408 256.257 97.496 255.425 96.888C254.609 96.264 253.521 95.952 252.161 95.952H247.913V103.344H252.065C252.753 103.344 253.377 103.256 253.937 103.08C254.513 102.904 255.001 102.656 255.401 102.336C255.817 102 256.129 101.608 256.337 101.16C256.561 100.696 256.673 100.184 256.673 99.624ZM263.584 106.056V111H261.736V98.592H263.584V101.832C263.808 101.32 264.088 100.848 264.424 100.416C264.76 99.984 265.144 99.616 265.576 99.312C266.008 98.992 266.48 98.752 266.992 98.592C267.504 98.432 268.056 98.36 268.648 98.376V100.368H268.504C267.832 100.368 267.192 100.488 266.584 100.728C265.992 100.968 265.472 101.328 265.024 101.808C264.576 102.288 264.224 102.888 263.968 103.608C263.712 104.312 263.584 105.128 263.584 106.056ZM283.091 104.784C283.091 105.664 282.923 106.504 282.587 107.304C282.267 108.088 281.819 108.776 281.243 109.368C280.667 109.96 279.979 110.432 279.179 110.784C278.379 111.12 277.515 111.288 276.587 111.288C275.659 111.288 274.803 111.12 274.019 110.784C273.235 110.432 272.555 109.968 271.979 109.392C271.403 108.8 270.955 108.112 270.635 107.328C270.315 106.544 270.155 105.712 270.155 104.832C270.155 103.952 270.315 103.12 270.635 102.336C270.955 101.536 271.403 100.84 271.979 100.248C272.555 99.656 273.235 99.192 274.019 98.856C274.819 98.504 275.691 98.328 276.635 98.328C277.563 98.328 278.419 98.504 279.203 98.856C280.003 99.192 280.691 99.656 281.267 100.248C281.843 100.824 282.291 101.504 282.611 102.288C282.931 103.072 283.091 103.904 283.091 104.784ZM281.195 104.832C281.195 104.16 281.075 103.528 280.835 102.936C280.611 102.344 280.291 101.832 279.875 101.4C279.459 100.952 278.971 100.6 278.411 100.344C277.851 100.088 277.243 99.96 276.587 99.96C275.915 99.96 275.299 100.088 274.739 100.344C274.179 100.584 273.699 100.928 273.299 101.376C272.915 101.808 272.611 102.32 272.387 102.912C272.163 103.488 272.051 104.112 272.051 104.784C272.051 105.456 272.163 106.088 272.387 106.68C272.627 107.272 272.947 107.784 273.347 108.216C273.763 108.648 274.251 108.992 274.811 109.248C275.371 109.504 275.979 109.632 276.635 109.632C277.307 109.632 277.923 109.512 278.483 109.272C279.043 109.016 279.523 108.672 279.923 108.24C280.323 107.808 280.635 107.304 280.859 106.728C281.083 106.136 281.195 105.504 281.195 104.832ZM298.247 108.84C298.247 109.848 298.095 110.728 297.791 111.48C297.503 112.232 297.079 112.856 296.519 113.352C295.975 113.864 295.311 114.248 294.527 114.504C293.759 114.76 292.895 114.888 291.935 114.888C290.895 114.888 289.903 114.744 288.959 114.456C288.015 114.168 287.127 113.736 286.295 113.16L287.135 111.72C287.855 112.232 288.607 112.624 289.391 112.896C290.175 113.168 291.015 113.304 291.911 113.304C293.287 113.304 294.383 112.928 295.199 112.176C296.015 111.44 296.423 110.344 296.423 108.888V107.424C295.879 108.144 295.215 108.76 294.431 109.272C293.647 109.784 292.687 110.04 291.551 110.04C290.799 110.04 290.071 109.912 289.367 109.656C288.679 109.384 288.063 109 287.519 108.504C286.975 107.992 286.535 107.376 286.199 106.656C285.879 105.936 285.719 105.12 285.719 104.208C285.719 103.296 285.879 102.48 286.199 101.76C286.535 101.024 286.975 100.408 287.519 99.912C288.063 99.4 288.687 99.008 289.391 98.736C290.095 98.464 290.815 98.328 291.551 98.328C292.127 98.328 292.655 98.4 293.135 98.544C293.631 98.672 294.071 98.848 294.455 99.072C294.855 99.296 295.215 99.56 295.535 99.864C295.855 100.168 296.143 100.488 296.399 100.824V98.592H298.247V108.84ZM296.471 104.184C296.471 103.544 296.343 102.968 296.087 102.456C295.831 101.928 295.487 101.48 295.055 101.112C294.639 100.744 294.159 100.464 293.615 100.272C293.071 100.064 292.503 99.96 291.911 99.96C291.319 99.96 290.759 100.056 290.231 100.248C289.719 100.44 289.263 100.72 288.863 101.088C288.479 101.456 288.175 101.904 287.951 102.432C287.727 102.944 287.615 103.52 287.615 104.16C287.615 104.8 287.727 105.384 287.951 105.912C288.191 106.424 288.503 106.872 288.887 107.256C289.287 107.624 289.743 107.912 290.255 108.12C290.783 108.312 291.335 108.408 291.911 108.408C292.503 108.408 293.071 108.312 293.615 108.12C294.159 107.912 294.639 107.624 295.055 107.256C295.487 106.888 295.831 106.448 296.087 105.936C296.343 105.408 296.471 104.824 296.471 104.184ZM304.225 106.056V111H302.377V98.592H304.225V101.832C304.449 101.32 304.729 100.848 305.065 100.416C305.401 99.984 305.785 99.616 306.217 99.312C306.649 98.992 307.121 98.752 307.633 98.592C308.145 98.432 308.697 98.36 309.289 98.376V100.368H309.145C308.473 100.368 307.833 100.488 307.225 100.728C306.633 100.968 306.113 101.328 305.665 101.808C305.217 102.288 304.865 102.888 304.609 103.608C304.353 104.312 304.225 105.128 304.225 106.056ZM315.982 100.056C315.246 100.056 314.574 100.144 313.966 100.32C313.374 100.48 312.79 100.696 312.214 100.968L311.662 99.456C312.35 99.136 313.046 98.888 313.75 98.712C314.454 98.52 315.262 98.424 316.174 98.424C317.87 98.424 319.174 98.848 320.086 99.696C320.998 100.528 321.454 101.768 321.454 103.416V111H319.678V109.128C319.246 109.688 318.662 110.184 317.926 110.616C317.206 111.048 316.294 111.264 315.19 111.264C314.614 111.264 314.046 111.184 313.486 111.024C312.942 110.864 312.446 110.624 311.998 110.304C311.566 109.968 311.214 109.56 310.942 109.08C310.686 108.6 310.558 108.032 310.558 107.376C310.558 106.72 310.686 106.144 310.942 105.648C311.198 105.136 311.558 104.712 312.022 104.376C312.502 104.04 313.062 103.784 313.702 103.608C314.358 103.432 315.078 103.344 315.862 103.344C316.662 103.344 317.358 103.392 317.95 103.488C318.542 103.584 319.118 103.712 319.678 103.872V103.44C319.678 102.32 319.35 101.48 318.694 100.92C318.054 100.344 317.15 100.056 315.982 100.056ZM316.054 104.712C314.886 104.712 313.99 104.944 313.366 105.408C312.742 105.872 312.43 106.504 312.43 107.304C312.43 107.704 312.51 108.056 312.67 108.36C312.846 108.664 313.078 108.928 313.366 109.152C313.654 109.36 313.982 109.52 314.35 109.632C314.734 109.744 315.134 109.8 315.55 109.8C316.126 109.8 316.662 109.72 317.158 109.56C317.67 109.384 318.11 109.152 318.478 108.864C318.862 108.56 319.158 108.208 319.366 107.808C319.59 107.392 319.702 106.936 319.702 106.44V105.24C319.238 105.112 318.702 104.992 318.094 104.88C317.502 104.768 316.822 104.712 316.054 104.712ZM335.232 100.8C335.456 100.464 335.704 100.144 335.976 99.84C336.264 99.536 336.584 99.272 336.936 99.048C337.288 98.824 337.68 98.648 338.112 98.52C338.56 98.392 339.056 98.328 339.6 98.328C341.04 98.328 342.168 98.776 342.984 99.672C343.8 100.552 344.208 101.768 344.208 103.32V111H342.36V103.752C342.36 102.552 342.072 101.632 341.496 100.992C340.936 100.336 340.152 100.008 339.144 100.008C338.68 100.008 338.24 100.096 337.824 100.272C337.408 100.432 337.04 100.68 336.72 101.016C336.416 101.336 336.168 101.736 335.976 102.216C335.8 102.696 335.712 103.24 335.712 103.848V111H333.888V103.704C333.888 102.536 333.6 101.632 333.024 100.992C332.464 100.336 331.688 100.008 330.696 100.008C330.2 100.008 329.744 100.104 329.328 100.296C328.912 100.488 328.544 100.76 328.224 101.112C327.92 101.464 327.68 101.88 327.504 102.36C327.328 102.824 327.24 103.344 327.24 103.92V111H325.392V98.592H327.24V100.68C327.448 100.376 327.672 100.08 327.912 99.792C328.168 99.504 328.456 99.256 328.776 99.048C329.096 98.824 329.456 98.648 329.856 98.52C330.256 98.392 330.72 98.328 331.248 98.328C332.256 98.328 333.088 98.568 333.744 99.048C334.4 99.512 334.896 100.096 335.232 100.8ZM357.192 98.4C357.192 98.8 357.256 99.16 357.384 99.48C357.512 99.8 357.744 100.096 358.08 100.368C358.416 100.624 358.88 100.864 359.472 101.088C360.064 101.296 360.824 101.496 361.752 101.688C363.624 102.104 365 102.68 365.88 103.416C366.776 104.152 367.224 105.168 367.224 106.464C367.224 107.184 367.08 107.84 366.792 108.432C366.504 109.024 366.104 109.528 365.592 109.944C365.096 110.36 364.496 110.68 363.792 110.904C363.088 111.128 362.32 111.24 361.488 111.24C360.144 111.24 358.912 111.024 357.792 110.592C356.688 110.144 355.632 109.464 354.624 108.552L355.8 107.16C356.68 107.96 357.568 108.56 358.464 108.96C359.36 109.344 360.392 109.536 361.56 109.536C362.696 109.536 363.6 109.272 364.272 108.744C364.96 108.216 365.304 107.52 365.304 106.656C365.304 106.256 365.24 105.904 365.112 105.6C364.984 105.28 364.76 104.992 364.44 104.736C364.12 104.48 363.672 104.248 363.096 104.04C362.536 103.832 361.816 103.632 360.936 103.44C359.976 103.232 359.136 102.992 358.416 102.72C357.712 102.448 357.128 102.12 356.664 101.736C356.2 101.352 355.856 100.904 355.632 100.392C355.408 99.88 355.296 99.272 355.296 98.568C355.296 97.896 355.432 97.28 355.704 96.72C355.976 96.16 356.36 95.68 356.856 95.28C357.352 94.864 357.936 94.544 358.608 94.32C359.28 94.08 360.016 93.96 360.816 93.96C362.048 93.96 363.12 94.136 364.032 94.488C364.96 94.824 365.856 95.336 366.72 96.024L365.616 97.488C364.832 96.848 364.04 96.384 363.24 96.096C362.456 95.808 361.632 95.664 360.768 95.664C360.224 95.664 359.728 95.736 359.28 95.88C358.848 96.024 358.472 96.216 358.152 96.456C357.848 96.696 357.608 96.984 357.432 97.32C357.272 97.656 357.192 98.016 357.192 98.4ZM379.575 105.696V98.592H381.399V111H379.575V108.84C379.159 109.512 378.615 110.088 377.943 110.568C377.271 111.032 376.399 111.264 375.327 111.264C374.575 111.264 373.903 111.144 373.311 110.904C372.735 110.664 372.239 110.328 371.823 109.896C371.423 109.448 371.111 108.92 370.887 108.312C370.679 107.704 370.575 107.032 370.575 106.296V98.592H372.423V105.84C372.423 106.992 372.719 107.904 373.311 108.576C373.903 109.248 374.751 109.584 375.855 109.584C376.383 109.584 376.871 109.496 377.319 109.32C377.783 109.128 378.175 108.864 378.495 108.528C378.831 108.176 379.095 107.76 379.287 107.28C379.479 106.8 379.575 106.272 379.575 105.696ZM398.084 104.784C398.084 105.808 397.916 106.72 397.58 107.52C397.244 108.32 396.796 109 396.236 109.56C395.692 110.104 395.06 110.528 394.34 110.832C393.636 111.12 392.908 111.264 392.156 111.264C391.58 111.264 391.052 111.192 390.572 111.048C390.092 110.904 389.66 110.712 389.276 110.472C388.892 110.232 388.54 109.952 388.22 109.632C387.916 109.312 387.644 108.976 387.404 108.624V114.84H385.556V98.592H387.404V101.088C387.66 100.72 387.94 100.368 388.244 100.032C388.564 99.696 388.916 99.408 389.3 99.168C389.684 98.912 390.108 98.712 390.572 98.568C391.052 98.408 391.58 98.328 392.156 98.328C392.892 98.328 393.612 98.472 394.316 98.76C395.036 99.048 395.676 99.472 396.236 100.032C396.796 100.576 397.244 101.248 397.58 102.048C397.916 102.848 398.084 103.76 398.084 104.784ZM396.188 104.808C396.188 104.072 396.068 103.408 395.828 102.816C395.604 102.224 395.292 101.72 394.892 101.304C394.492 100.872 394.028 100.544 393.5 100.32C392.972 100.096 392.412 99.984 391.82 99.984C391.244 99.984 390.684 100.104 390.14 100.344C389.612 100.568 389.132 100.888 388.7 101.304C388.284 101.72 387.948 102.224 387.692 102.816C387.452 103.408 387.332 104.064 387.332 104.784C387.332 105.504 387.452 106.168 387.692 106.776C387.948 107.368 388.284 107.872 388.7 108.288C389.132 108.704 389.612 109.032 390.14 109.272C390.684 109.496 391.244 109.608 391.82 109.608C392.412 109.608 392.972 109.504 393.5 109.296C394.044 109.072 394.508 108.76 394.892 108.36C395.292 107.944 395.604 107.44 395.828 106.848C396.068 106.24 396.188 105.56 396.188 104.808ZM414.022 104.784C414.022 105.808 413.854 106.72 413.518 107.52C413.182 108.32 412.734 109 412.174 109.56C411.63 110.104 410.998 110.528 410.278 110.832C409.574 111.12 408.846 111.264 408.094 111.264C407.518 111.264 406.99 111.192 406.51 111.048C406.03 110.904 405.598 110.712 405.214 110.472C404.83 110.232 404.478 109.952 404.158 109.632C403.854 109.312 403.582 108.976 403.342 108.624V114.84H401.494V98.592H403.342V101.088C403.598 100.72 403.878 100.368 404.182 100.032C404.502 99.696 404.854 99.408 405.238 99.168C405.622 98.912 406.046 98.712 406.51 98.568C406.99 98.408 407.518 98.328 408.094 98.328C408.83 98.328 409.55 98.472 410.254 98.76C410.974 99.048 411.614 99.472 412.174 100.032C412.734 100.576 413.182 101.248 413.518 102.048C413.854 102.848 414.022 103.76 414.022 104.784ZM412.126 104.808C412.126 104.072 412.006 103.408 411.766 102.816C411.542 102.224 411.23 101.72 410.83 101.304C410.43 100.872 409.966 100.544 409.438 100.32C408.91 100.096 408.35 99.984 407.758 99.984C407.182 99.984 406.622 100.104 406.078 100.344C405.55 100.568 405.07 100.888 404.638 101.304C404.222 101.72 403.886 102.224 403.63 102.816C403.39 103.408 403.27 104.064 403.27 104.784C403.27 105.504 403.39 106.168 403.63 106.776C403.886 107.368 404.222 107.872 404.638 108.288C405.07 108.704 405.55 109.032 406.078 109.272C406.622 109.496 407.182 109.608 407.758 109.608C408.35 109.608 408.91 109.504 409.438 109.296C409.982 109.072 410.446 108.76 410.83 108.36C411.23 107.944 411.542 107.44 411.766 106.848C412.006 106.24 412.126 105.56 412.126 104.808ZM429.599 104.784C429.599 105.664 429.431 106.504 429.095 107.304C428.775 108.088 428.327 108.776 427.751 109.368C427.175 109.96 426.487 110.432 425.687 110.784C424.887 111.12 424.023 111.288 423.095 111.288C422.167 111.288 421.311 111.12 420.527 110.784C419.743 110.432 419.063 109.968 418.487 109.392C417.911 108.8 417.463 108.112 417.143 107.328C416.823 106.544 416.663 105.712 416.663 104.832C416.663 103.952 416.823 103.12 417.143 102.336C417.463 101.536 417.911 100.84 418.487 100.248C419.063 99.656 419.743 99.192 420.527 98.856C421.327 98.504 422.199 98.328 423.143 98.328C424.071 98.328 424.927 98.504 425.711 98.856C426.511 99.192 427.199 99.656 427.775 100.248C428.351 100.824 428.799 101.504 429.119 102.288C429.439 103.072 429.599 103.904 429.599 104.784ZM427.703 104.832C427.703 104.16 427.583 103.528 427.343 102.936C427.119 102.344 426.799 101.832 426.383 101.4C425.967 100.952 425.479 100.6 424.919 100.344C424.359 100.088 423.751 99.96 423.095 99.96C422.423 99.96 421.807 100.088 421.247 100.344C420.687 100.584 420.207 100.928 419.807 101.376C419.423 101.808 419.119 102.32 418.895 102.912C418.671 103.488 418.559 104.112 418.559 104.784C418.559 105.456 418.671 106.088 418.895 106.68C419.135 107.272 419.455 107.784 419.855 108.216C420.271 108.648 420.759 108.992 421.319 109.248C421.879 109.504 422.487 109.632 423.143 109.632C423.815 109.632 424.431 109.512 424.991 109.272C425.551 109.016 426.031 108.672 426.431 108.24C426.831 107.808 427.143 107.304 427.367 106.728C427.591 106.136 427.703 105.504 427.703 104.832ZM434.795 106.056V111H432.947V98.592H434.795V101.832C435.019 101.32 435.299 100.848 435.635 100.416C435.971 99.984 436.355 99.616 436.787 99.312C437.219 98.992 437.691 98.752 438.203 98.592C438.715 98.432 439.267 98.36 439.859 98.376V100.368H439.715C439.043 100.368 438.403 100.488 437.795 100.728C437.203 100.968 436.683 101.328 436.235 101.808C435.787 102.288 435.435 102.888 435.179 103.608C434.923 104.312 434.795 105.128 434.795 106.056ZM445.169 100.224V107.472C445.169 108.24 445.361 108.776 445.745 109.08C446.129 109.384 446.633 109.536 447.257 109.536C447.577 109.536 447.873 109.504 448.145 109.44C448.433 109.376 448.737 109.264 449.057 109.104V110.688C448.737 110.864 448.393 110.992 448.025 111.072C447.673 111.168 447.273 111.216 446.825 111.216C446.329 111.216 445.865 111.152 445.433 111.024C445.001 110.896 444.625 110.696 444.305 110.424C444.001 110.136 443.761 109.768 443.585 109.32C443.409 108.872 443.321 108.336 443.321 107.712V100.224H441.593V98.592H443.321V94.848H445.169V98.592H449.105V100.224H445.169ZM454.537 95.88H452.425V93.84H454.537V95.88ZM454.393 111H452.545V98.592H454.393V111ZM460.529 103.896V111H458.681V98.592H460.529V100.752C460.945 100.08 461.489 99.512 462.161 99.048C462.833 98.568 463.705 98.328 464.777 98.328C465.529 98.328 466.193 98.448 466.769 98.688C467.361 98.928 467.857 99.272 468.257 99.72C468.673 100.152 468.985 100.672 469.193 101.28C469.417 101.888 469.529 102.56 469.529 103.296V111H467.681V103.752C467.681 102.6 467.385 101.688 466.793 101.016C466.201 100.344 465.353 100.008 464.249 100.008C463.721 100.008 463.225 100.104 462.761 100.296C462.313 100.472 461.921 100.736 461.585 101.088C461.249 101.424 460.985 101.832 460.793 102.312C460.617 102.792 460.529 103.32 460.529 103.896ZM485.278 108.84C485.278 109.848 485.126 110.728 484.822 111.48C484.534 112.232 484.11 112.856 483.55 113.352C483.006 113.864 482.342 114.248 481.558 114.504C480.79 114.76 479.926 114.888 478.966 114.888C477.926 114.888 476.934 114.744 475.99 114.456C475.046 114.168 474.158 113.736 473.326 113.16L474.166 111.72C474.886 112.232 475.638 112.624 476.422 112.896C477.206 113.168 478.046 113.304 478.942 113.304C480.318 113.304 481.414 112.928 482.23 112.176C483.046 111.44 483.454 110.344 483.454 108.888V107.424C482.91 108.144 482.246 108.76 481.462 109.272C480.678 109.784 479.718 110.04 478.582 110.04C477.83 110.04 477.102 109.912 476.398 109.656C475.71 109.384 475.094 109 474.55 108.504C474.006 107.992 473.566 107.376 473.23 106.656C472.91 105.936 472.75 105.12 472.75 104.208C472.75 103.296 472.91 102.48 473.23 101.76C473.566 101.024 474.006 100.408 474.55 99.912C475.094 99.4 475.718 99.008 476.422 98.736C477.126 98.464 477.846 98.328 478.582 98.328C479.158 98.328 479.686 98.4 480.166 98.544C480.662 98.672 481.102 98.848 481.486 99.072C481.886 99.296 482.246 99.56 482.566 99.864C482.886 100.168 483.174 100.488 483.43 100.824V98.592H485.278V108.84ZM483.502 104.184C483.502 103.544 483.374 102.968 483.118 102.456C482.862 101.928 482.518 101.48 482.086 101.112C481.67 100.744 481.19 100.464 480.646 100.272C480.102 100.064 479.534 99.96 478.942 99.96C478.35 99.96 477.79 100.056 477.262 100.248C476.75 100.44 476.294 100.72 475.894 101.088C475.51 101.456 475.206 101.904 474.982 102.432C474.758 102.944 474.646 103.52 474.646 104.16C474.646 104.8 474.758 105.384 474.982 105.912C475.222 106.424 475.534 106.872 475.918 107.256C476.318 107.624 476.774 107.912 477.286 108.12C477.814 108.312 478.366 108.408 478.942 108.408C479.534 108.408 480.102 108.312 480.646 108.12C481.19 107.912 481.67 107.624 482.086 107.256C482.518 106.888 482.862 106.448 483.118 105.936C483.374 105.408 483.502 104.824 483.502 104.184ZM501.091 100.056C500.355 100.056 499.683 100.144 499.075 100.32C498.483 100.48 497.899 100.696 497.323 100.968L496.771 99.456C497.459 99.136 498.155 98.888 498.859 98.712C499.563 98.52 500.371 98.424 501.283 98.424C502.979 98.424 504.283 98.848 505.195 99.696C506.107 100.528 506.563 101.768 506.563 103.416V111H504.787V109.128C504.355 109.688 503.771 110.184 503.035 110.616C502.315 111.048 501.403 111.264 500.299 111.264C499.723 111.264 499.155 111.184 498.595 111.024C498.051 110.864 497.555 110.624 497.107 110.304C496.675 109.968 496.323 109.56 496.051 109.08C495.795 108.6 495.667 108.032 495.667 107.376C495.667 106.72 495.795 106.144 496.051 105.648C496.307 105.136 496.667 104.712 497.131 104.376C497.611 104.04 498.171 103.784 498.811 103.608C499.467 103.432 500.187 103.344 500.971 103.344C501.771 103.344 502.467 103.392 503.059 103.488C503.651 103.584 504.227 103.712 504.787 103.872V103.44C504.787 102.32 504.459 101.48 503.803 100.92C503.163 100.344 502.259 100.056 501.091 100.056ZM501.163 104.712C499.995 104.712 499.099 104.944 498.475 105.408C497.851 105.872 497.539 106.504 497.539 107.304C497.539 107.704 497.619 108.056 497.779 108.36C497.955 108.664 498.187 108.928 498.475 109.152C498.763 109.36 499.091 109.52 499.459 109.632C499.843 109.744 500.243 109.8 500.659 109.8C501.235 109.8 501.771 109.72 502.267 109.56C502.779 109.384 503.219 109.152 503.587 108.864C503.971 108.56 504.267 108.208 504.475 107.808C504.699 107.392 504.811 106.936 504.811 106.44V105.24C504.347 105.112 503.811 104.992 503.203 104.88C502.611 104.768 501.931 104.712 501.163 104.712ZM532.409 108.336C531.977 108.784 531.521 109.192 531.041 109.56C530.577 109.912 530.073 110.216 529.529 110.472C528.985 110.728 528.401 110.928 527.777 111.072C527.153 111.216 526.457 111.288 525.689 111.288C524.473 111.288 523.353 111.064 522.329 110.616C521.305 110.168 520.417 109.56 519.665 108.792C518.913 108.008 518.321 107.088 517.889 106.032C517.473 104.976 517.265 103.84 517.265 102.624C517.265 101.424 517.473 100.296 517.889 99.24C518.321 98.184 518.913 97.264 519.665 96.48C520.417 95.68 521.313 95.056 522.353 94.608C523.393 94.144 524.529 93.912 525.761 93.912C526.529 93.912 527.217 93.976 527.825 94.104C528.449 94.232 529.025 94.416 529.553 94.656C530.081 94.88 530.569 95.16 531.017 95.496C531.465 95.816 531.897 96.176 532.313 96.576L531.017 97.968C530.297 97.296 529.521 96.744 528.689 96.312C527.873 95.88 526.889 95.664 525.737 95.664C524.809 95.664 523.945 95.84 523.145 96.192C522.361 96.544 521.673 97.032 521.081 97.656C520.505 98.28 520.049 99.016 519.713 99.864C519.393 100.696 519.233 101.6 519.233 102.576C519.233 103.552 519.393 104.464 519.713 105.312C520.049 106.16 520.505 106.896 521.081 107.52C521.673 108.144 522.361 108.64 523.145 109.008C523.945 109.36 524.809 109.536 525.737 109.536C526.889 109.536 527.881 109.328 528.713 108.912C529.545 108.48 530.361 107.88 531.161 107.112L532.409 108.336ZM537.264 103.896V111H535.416V93.48H537.264V100.752C537.68 100.08 538.224 99.512 538.896 99.048C539.568 98.568 540.44 98.328 541.512 98.328C542.264 98.328 542.928 98.448 543.504 98.688C544.096 98.928 544.592 99.272 544.992 99.72C545.408 100.152 545.72 100.672 545.928 101.28C546.152 101.888 546.264 102.56 546.264 103.296V111H544.416V103.752C544.416 102.6 544.12 101.688 543.528 101.016C542.936 100.344 542.088 100.008 540.984 100.008C540.456 100.008 539.96 100.104 539.496 100.296C539.048 100.472 538.656 100.736 538.32 101.088C537.984 101.424 537.72 101.832 537.528 102.312C537.352 102.792 537.264 103.32 537.264 103.896ZM554.693 100.056C553.957 100.056 553.285 100.144 552.677 100.32C552.085 100.48 551.501 100.696 550.925 100.968L550.373 99.456C551.061 99.136 551.757 98.888 552.461 98.712C553.165 98.52 553.973 98.424 554.885 98.424C556.581 98.424 557.885 98.848 558.797 99.696C559.709 100.528 560.165 101.768 560.165 103.416V111H558.389V109.128C557.957 109.688 557.373 110.184 556.637 110.616C555.917 111.048 555.005 111.264 553.901 111.264C553.325 111.264 552.757 111.184 552.197 111.024C551.653 110.864 551.157 110.624 550.709 110.304C550.277 109.968 549.925 109.56 549.653 109.08C549.397 108.6 549.269 108.032 549.269 107.376C549.269 106.72 549.397 106.144 549.653 105.648C549.909 105.136 550.269 104.712 550.733 104.376C551.213 104.04 551.773 103.784 552.413 103.608C553.069 103.432 553.789 103.344 554.573 103.344C555.373 103.344 556.069 103.392 556.661 103.488C557.253 103.584 557.829 103.712 558.389 103.872V103.44C558.389 102.32 558.061 101.48 557.405 100.92C556.765 100.344 555.861 100.056 554.693 100.056ZM554.765 104.712C553.597 104.712 552.701 104.944 552.077 105.408C551.453 105.872 551.141 106.504 551.141 107.304C551.141 107.704 551.221 108.056 551.381 108.36C551.557 108.664 551.789 108.928 552.077 109.152C552.365 109.36 552.693 109.52 553.061 109.632C553.445 109.744 553.845 109.8 554.261 109.8C554.837 109.8 555.373 109.72 555.869 109.56C556.381 109.384 556.821 109.152 557.189 108.864C557.573 108.56 557.869 108.208 558.077 107.808C558.301 107.392 558.413 106.936 558.413 106.44V105.24C557.949 105.112 557.413 104.992 556.805 104.88C556.213 104.768 555.533 104.712 554.765 104.712ZM565.951 103.896V111H564.103V98.592H565.951V100.752C566.367 100.08 566.911 99.512 567.583 99.048C568.255 98.568 569.127 98.328 570.199 98.328C570.951 98.328 571.615 98.448 572.191 98.688C572.783 98.928 573.279 99.272 573.679 99.72C574.095 100.152 574.407 100.672 574.615 101.28C574.839 101.888 574.951 102.56 574.951 103.296V111H573.103V103.752C573.103 102.6 572.807 101.688 572.215 101.016C571.623 100.344 570.775 100.008 569.671 100.008C569.143 100.008 568.647 100.104 568.183 100.296C567.735 100.472 567.343 100.736 567.007 101.088C566.671 101.424 566.407 101.832 566.215 102.312C566.039 102.792 565.951 103.32 565.951 103.896ZM590.7 108.84C590.7 109.848 590.548 110.728 590.244 111.48C589.956 112.232 589.532 112.856 588.972 113.352C588.428 113.864 587.764 114.248 586.98 114.504C586.212 114.76 585.348 114.888 584.388 114.888C583.348 114.888 582.356 114.744 581.412 114.456C580.468 114.168 579.58 113.736 578.748 113.16L579.588 111.72C580.308 112.232 581.06 112.624 581.844 112.896C582.628 113.168 583.468 113.304 584.364 113.304C585.74 113.304 586.836 112.928 587.652 112.176C588.468 111.44 588.876 110.344 588.876 108.888V107.424C588.332 108.144 587.668 108.76 586.884 109.272C586.1 109.784 585.14 110.04 584.004 110.04C583.252 110.04 582.524 109.912 581.82 109.656C581.132 109.384 580.516 109 579.972 108.504C579.428 107.992 578.988 107.376 578.652 106.656C578.332 105.936 578.172 105.12 578.172 104.208C578.172 103.296 578.332 102.48 578.652 101.76C578.988 101.024 579.428 100.408 579.972 99.912C580.516 99.4 581.14 99.008 581.844 98.736C582.548 98.464 583.268 98.328 584.004 98.328C584.58 98.328 585.108 98.4 585.588 98.544C586.084 98.672 586.524 98.848 586.908 99.072C587.308 99.296 587.668 99.56 587.988 99.864C588.308 100.168 588.596 100.488 588.852 100.824V98.592H590.7V108.84ZM588.924 104.184C588.924 103.544 588.796 102.968 588.54 102.456C588.284 101.928 587.94 101.48 587.508 101.112C587.092 100.744 586.612 100.464 586.068 100.272C585.524 100.064 584.956 99.96 584.364 99.96C583.772 99.96 583.212 100.056 582.684 100.248C582.172 100.44 581.716 100.72 581.316 101.088C580.932 101.456 580.628 101.904 580.404 102.432C580.18 102.944 580.068 103.52 580.068 104.16C580.068 104.8 580.18 105.384 580.404 105.912C580.644 106.424 580.956 106.872 581.34 107.256C581.74 107.624 582.196 107.912 582.708 108.12C583.236 108.312 583.788 108.408 584.364 108.408C584.956 108.408 585.524 108.312 586.068 108.12C586.612 107.912 587.092 107.624 587.508 107.256C587.94 106.888 588.284 106.448 588.54 105.936C588.796 105.408 588.924 104.824 588.924 104.184ZM595.934 105.48C595.998 106.152 596.158 106.752 596.414 107.28C596.67 107.792 596.998 108.232 597.398 108.6C597.798 108.952 598.246 109.224 598.742 109.416C599.238 109.592 599.758 109.68 600.302 109.68C601.166 109.68 601.902 109.52 602.51 109.2C603.134 108.88 603.702 108.456 604.214 107.928L605.366 108.96C604.742 109.664 604.03 110.232 603.23 110.664C602.43 111.08 601.438 111.288 600.254 111.288C599.406 111.288 598.606 111.136 597.854 110.832C597.102 110.512 596.446 110.072 595.886 109.512C595.326 108.936 594.878 108.248 594.542 107.448C594.222 106.648 594.062 105.768 594.062 104.808C594.062 103.912 594.206 103.072 594.494 102.288C594.798 101.488 595.214 100.8 595.742 100.224C596.27 99.632 596.894 99.168 597.614 98.832C598.35 98.496 599.15 98.328 600.014 98.328C600.926 98.328 601.742 98.504 602.462 98.856C603.182 99.192 603.79 99.656 604.286 100.248C604.782 100.84 605.158 101.536 605.414 102.336C605.67 103.136 605.798 103.992 605.798 104.904C605.798 104.984 605.798 105.072 605.798 105.168C605.798 105.264 605.79 105.368 605.774 105.48H595.934ZM595.934 104.112H603.926C603.878 103.552 603.758 103.016 603.566 102.504C603.39 101.992 603.134 101.544 602.798 101.16C602.478 100.776 602.078 100.472 601.598 100.248C601.134 100.008 600.59 99.888 599.966 99.888C599.422 99.888 598.918 100 598.454 100.224C597.99 100.432 597.582 100.728 597.23 101.112C596.878 101.48 596.59 101.92 596.366 102.432C596.142 102.944 595.998 103.504 595.934 104.112ZM148.806 131.952V147H146.886V131.952H141.246V130.2H154.446V131.952H148.806ZM157.412 142.056V147H155.564V134.592H157.412V137.832C157.636 137.32 157.916 136.848 158.252 136.416C158.588 135.984 158.972 135.616 159.404 135.312C159.836 134.992 160.308 134.752 160.82 134.592C161.332 134.432 161.884 134.36 162.476 134.376V136.368H162.332C161.66 136.368 161.02 136.488 160.412 136.728C159.82 136.968 159.3 137.328 158.852 137.808C158.404 138.288 158.052 138.888 157.796 139.608C157.54 140.312 157.412 141.128 157.412 142.056ZM169.169 136.056C168.433 136.056 167.761 136.144 167.153 136.32C166.561 136.48 165.977 136.696 165.401 136.968L164.849 135.456C165.537 135.136 166.233 134.888 166.937 134.712C167.641 134.52 168.449 134.424 169.361 134.424C171.057 134.424 172.361 134.848 173.273 135.696C174.185 136.528 174.641 137.768 174.641 139.416V147H172.865V145.128C172.433 145.688 171.849 146.184 171.113 146.616C170.393 147.048 169.481 147.264 168.377 147.264C167.801 147.264 167.233 147.184 166.673 147.024C166.129 146.864 165.633 146.624 165.185 146.304C164.753 145.968 164.401 145.56 164.129 145.08C163.873 144.6 163.745 144.032 163.745 143.376C163.745 142.72 163.873 142.144 164.129 141.648C164.385 141.136 164.745 140.712 165.209 140.376C165.689 140.04 166.249 139.784 166.889 139.608C167.545 139.432 168.265 139.344 169.049 139.344C169.849 139.344 170.545 139.392 171.137 139.488C171.729 139.584 172.305 139.712 172.865 139.872V139.44C172.865 138.32 172.537 137.48 171.881 136.92C171.241 136.344 170.337 136.056 169.169 136.056ZM169.241 140.712C168.073 140.712 167.177 140.944 166.553 141.408C165.929 141.872 165.617 142.504 165.617 143.304C165.617 143.704 165.697 144.056 165.857 144.36C166.033 144.664 166.265 144.928 166.553 145.152C166.841 145.36 167.169 145.52 167.537 145.632C167.921 145.744 168.321 145.8 168.737 145.8C169.313 145.8 169.849 145.72 170.345 145.56C170.857 145.384 171.297 145.152 171.665 144.864C172.049 144.56 172.345 144.208 172.553 143.808C172.777 143.392 172.889 142.936 172.889 142.44V141.24C172.425 141.112 171.889 140.992 171.281 140.88C170.689 140.768 170.009 140.712 169.241 140.712ZM180.428 139.896V147H178.58V134.592H180.428V136.752C180.844 136.08 181.388 135.512 182.06 135.048C182.732 134.568 183.604 134.328 184.676 134.328C185.428 134.328 186.092 134.448 186.668 134.688C187.26 134.928 187.756 135.272 188.156 135.72C188.572 136.152 188.884 136.672 189.092 137.28C189.316 137.888 189.428 138.56 189.428 139.296V147H187.58V139.752C187.58 138.6 187.284 137.688 186.692 137.016C186.1 136.344 185.252 136.008 184.148 136.008C183.62 136.008 183.124 136.104 182.66 136.296C182.212 136.472 181.82 136.736 181.484 137.088C181.148 137.424 180.884 137.832 180.692 138.312C180.516 138.792 180.428 139.32 180.428 139.896ZM201.889 143.52C201.889 144.112 201.769 144.64 201.529 145.104C201.305 145.552 200.993 145.936 200.593 146.256C200.209 146.576 199.745 146.824 199.201 147C198.673 147.16 198.097 147.24 197.473 147.24C196.577 147.24 195.673 147.08 194.761 146.76C193.849 146.424 193.041 145.976 192.337 145.416L193.273 144.096C193.945 144.608 194.641 145 195.361 145.272C196.097 145.544 196.833 145.68 197.569 145.68C198.321 145.68 198.937 145.504 199.417 145.152C199.897 144.8 200.137 144.32 200.137 143.712V143.664C200.137 143.36 200.049 143.096 199.873 142.872C199.713 142.648 199.489 142.456 199.201 142.296C198.913 142.12 198.577 141.968 198.193 141.84C197.825 141.712 197.441 141.592 197.041 141.48C196.561 141.336 196.073 141.184 195.577 141.024C195.097 140.848 194.657 140.632 194.257 140.376C193.873 140.12 193.553 139.8 193.297 139.416C193.057 139.032 192.937 138.552 192.937 137.976V137.928C192.937 137.4 193.041 136.92 193.249 136.488C193.457 136.04 193.745 135.664 194.113 135.36C194.497 135.04 194.945 134.8 195.457 134.64C195.985 134.464 196.553 134.376 197.161 134.376C197.929 134.376 198.705 134.504 199.489 134.76C200.273 135 200.985 135.328 201.625 135.744L200.785 137.136C200.209 136.768 199.601 136.48 198.961 136.272C198.337 136.048 197.721 135.936 197.113 135.936C196.377 135.936 195.793 136.112 195.361 136.464C194.929 136.8 194.713 137.224 194.713 137.736V137.784C194.713 138.072 194.801 138.328 194.977 138.552C195.153 138.76 195.385 138.944 195.673 139.104C195.977 139.264 196.321 139.408 196.705 139.536C197.089 139.664 197.489 139.792 197.905 139.92C198.385 140.064 198.857 140.224 199.321 140.4C199.801 140.576 200.233 140.8 200.617 141.072C201.001 141.344 201.305 141.672 201.529 142.056C201.769 142.44 201.889 142.912 201.889 143.472V143.52ZM207.842 134.64H211.778V136.224H207.866V147H206.018V136.224H204.314V134.616H206.018V133.536C206.018 132.176 206.338 131.144 206.978 130.44C207.634 129.736 208.562 129.384 209.762 129.384C210.194 129.384 210.562 129.408 210.866 129.456C211.186 129.504 211.498 129.584 211.802 129.696V131.304C211.466 131.208 211.162 131.136 210.89 131.088C210.618 131.024 210.322 130.992 210.002 130.992C208.562 130.992 207.842 131.872 207.842 133.632V134.64ZM226.068 140.784C226.068 141.664 225.9 142.504 225.564 143.304C225.244 144.088 224.796 144.776 224.22 145.368C223.644 145.96 222.956 146.432 222.156 146.784C221.356 147.12 220.492 147.288 219.564 147.288C218.636 147.288 217.78 147.12 216.996 146.784C216.212 146.432 215.532 145.968 214.956 145.392C214.38 144.8 213.932 144.112 213.612 143.328C213.292 142.544 213.132 141.712 213.132 140.832C213.132 139.952 213.292 139.12 213.612 138.336C213.932 137.536 214.38 136.84 214.956 136.248C215.532 135.656 216.212 135.192 216.996 134.856C217.796 134.504 218.668 134.328 219.612 134.328C220.54 134.328 221.396 134.504 222.18 134.856C222.98 135.192 223.668 135.656 224.244 136.248C224.82 136.824 225.268 137.504 225.588 138.288C225.908 139.072 226.068 139.904 226.068 140.784ZM224.172 140.832C224.172 140.16 224.052 139.528 223.812 138.936C223.588 138.344 223.268 137.832 222.852 137.4C222.436 136.952 221.948 136.6 221.388 136.344C220.828 136.088 220.22 135.96 219.564 135.96C218.892 135.96 218.276 136.088 217.716 136.344C217.156 136.584 216.676 136.928 216.276 137.376C215.892 137.808 215.588 138.32 215.364 138.912C215.14 139.488 215.028 140.112 215.028 140.784C215.028 141.456 215.14 142.088 215.364 142.68C215.604 143.272 215.924 143.784 216.324 144.216C216.74 144.648 217.228 144.992 217.788 145.248C218.348 145.504 218.956 145.632 219.612 145.632C220.284 145.632 220.9 145.512 221.46 145.272C222.02 145.016 222.5 144.672 222.9 144.24C223.3 143.808 223.612 143.304 223.836 142.728C224.06 142.136 224.172 141.504 224.172 140.832ZM231.264 142.056V147H229.416V134.592H231.264V137.832C231.488 137.32 231.768 136.848 232.104 136.416C232.44 135.984 232.824 135.616 233.256 135.312C233.688 134.992 234.16 134.752 234.672 134.592C235.184 134.432 235.736 134.36 236.328 134.376V136.368H236.184C235.512 136.368 234.872 136.488 234.264 136.728C233.672 136.968 233.152 137.328 232.704 137.808C232.256 138.288 231.904 138.888 231.648 139.608C231.392 140.312 231.264 141.128 231.264 142.056ZM248.982 136.8C249.206 136.464 249.454 136.144 249.726 135.84C250.014 135.536 250.334 135.272 250.686 135.048C251.038 134.824 251.43 134.648 251.862 134.52C252.31 134.392 252.806 134.328 253.35 134.328C254.79 134.328 255.918 134.776 256.734 135.672C257.55 136.552 257.958 137.768 257.958 139.32V147H256.11V139.752C256.11 138.552 255.822 137.632 255.246 136.992C254.686 136.336 253.902 136.008 252.894 136.008C252.43 136.008 251.99 136.096 251.574 136.272C251.158 136.432 250.79 136.68 250.47 137.016C250.166 137.336 249.918 137.736 249.726 138.216C249.55 138.696 249.462 139.24 249.462 139.848V147H247.638V139.704C247.638 138.536 247.35 137.632 246.774 136.992C246.214 136.336 245.438 136.008 244.446 136.008C243.95 136.008 243.494 136.104 243.078 136.296C242.662 136.488 242.294 136.76 241.974 137.112C241.67 137.464 241.43 137.88 241.254 138.36C241.078 138.824 240.99 139.344 240.99 139.92V147H239.142V134.592H240.99V136.68C241.198 136.376 241.422 136.08 241.662 135.792C241.918 135.504 242.206 135.256 242.526 135.048C242.846 134.824 243.206 134.648 243.606 134.52C244.006 134.392 244.47 134.328 244.998 134.328C246.006 134.328 246.838 134.568 247.494 135.048C248.15 135.512 248.646 136.096 248.982 136.8ZM266.458 136.056C265.722 136.056 265.05 136.144 264.442 136.32C263.85 136.48 263.266 136.696 262.69 136.968L262.138 135.456C262.826 135.136 263.522 134.888 264.226 134.712C264.93 134.52 265.738 134.424 266.65 134.424C268.346 134.424 269.65 134.848 270.562 135.696C271.474 136.528 271.93 137.768 271.93 139.416V147H270.154V145.128C269.722 145.688 269.138 146.184 268.402 146.616C267.682 147.048 266.77 147.264 265.666 147.264C265.09 147.264 264.522 147.184 263.962 147.024C263.418 146.864 262.922 146.624 262.474 146.304C262.042 145.968 261.69 145.56 261.418 145.08C261.162 144.6 261.034 144.032 261.034 143.376C261.034 142.72 261.162 142.144 261.418 141.648C261.674 141.136 262.034 140.712 262.498 140.376C262.978 140.04 263.538 139.784 264.178 139.608C264.834 139.432 265.554 139.344 266.338 139.344C267.138 139.344 267.834 139.392 268.426 139.488C269.018 139.584 269.594 139.712 270.154 139.872V139.44C270.154 138.32 269.826 137.48 269.17 136.92C268.53 136.344 267.626 136.056 266.458 136.056ZM266.53 140.712C265.362 140.712 264.466 140.944 263.842 141.408C263.218 141.872 262.906 142.504 262.906 143.304C262.906 143.704 262.986 144.056 263.146 144.36C263.322 144.664 263.554 144.928 263.842 145.152C264.13 145.36 264.458 145.52 264.826 145.632C265.21 145.744 265.61 145.8 266.026 145.8C266.602 145.8 267.138 145.72 267.634 145.56C268.146 145.384 268.586 145.152 268.954 144.864C269.338 144.56 269.634 144.208 269.842 143.808C270.066 143.392 270.178 142.936 270.178 142.44V141.24C269.714 141.112 269.178 140.992 268.57 140.88C267.978 140.768 267.298 140.712 266.53 140.712ZM278.248 136.224V143.472C278.248 144.24 278.44 144.776 278.824 145.08C279.208 145.384 279.712 145.536 280.336 145.536C280.656 145.536 280.952 145.504 281.224 145.44C281.512 145.376 281.816 145.264 282.136 145.104V146.688C281.816 146.864 281.472 146.992 281.104 147.072C280.752 147.168 280.352 147.216 279.904 147.216C279.408 147.216 278.944 147.152 278.512 147.024C278.08 146.896 277.704 146.696 277.384 146.424C277.08 146.136 276.84 145.768 276.664 145.32C276.488 144.872 276.4 144.336 276.4 143.712V136.224H274.672V134.592H276.4V130.848H278.248V134.592H282.184V136.224H278.248ZM287.615 131.88H285.503V129.84H287.615V131.88ZM287.471 147H285.623V134.592H287.471V147ZM303.927 140.784C303.927 141.664 303.759 142.504 303.423 143.304C303.103 144.088 302.655 144.776 302.079 145.368C301.503 145.96 300.815 146.432 300.015 146.784C299.215 147.12 298.351 147.288 297.423 147.288C296.495 147.288 295.639 147.12 294.855 146.784C294.071 146.432 293.391 145.968 292.815 145.392C292.239 144.8 291.791 144.112 291.471 143.328C291.151 142.544 290.991 141.712 290.991 140.832C290.991 139.952 291.151 139.12 291.471 138.336C291.791 137.536 292.239 136.84 292.815 136.248C293.391 135.656 294.071 135.192 294.855 134.856C295.655 134.504 296.527 134.328 297.471 134.328C298.399 134.328 299.255 134.504 300.039 134.856C300.839 135.192 301.527 135.656 302.103 136.248C302.679 136.824 303.127 137.504 303.447 138.288C303.767 139.072 303.927 139.904 303.927 140.784ZM302.031 140.832C302.031 140.16 301.911 139.528 301.671 138.936C301.447 138.344 301.127 137.832 300.711 137.4C300.295 136.952 299.807 136.6 299.247 136.344C298.687 136.088 298.079 135.96 297.423 135.96C296.751 135.96 296.135 136.088 295.575 136.344C295.015 136.584 294.535 136.928 294.135 137.376C293.751 137.808 293.447 138.32 293.223 138.912C292.999 139.488 292.887 140.112 292.887 140.784C292.887 141.456 292.999 142.088 293.223 142.68C293.463 143.272 293.783 143.784 294.183 144.216C294.599 144.648 295.087 144.992 295.647 145.248C296.207 145.504 296.815 145.632 297.471 145.632C298.143 145.632 298.759 145.512 299.319 145.272C299.879 145.016 300.359 144.672 300.759 144.24C301.159 143.808 301.471 143.304 301.695 142.728C301.919 142.136 302.031 141.504 302.031 140.832ZM309.123 139.896V147H307.275V134.592H309.123V136.752C309.539 136.08 310.083 135.512 310.755 135.048C311.427 134.568 312.299 134.328 313.371 134.328C314.123 134.328 314.787 134.448 315.363 134.688C315.955 134.928 316.451 135.272 316.851 135.72C317.267 136.152 317.579 136.672 317.787 137.28C318.011 137.888 318.123 138.56 318.123 139.296V147H316.275V139.752C316.275 138.6 315.979 137.688 315.387 137.016C314.795 136.344 313.947 136.008 312.843 136.008C312.315 136.008 311.819 136.104 311.355 136.296C310.907 136.472 310.515 136.736 310.179 137.088C309.843 137.424 309.579 137.832 309.387 138.312C309.211 138.792 309.123 139.32 309.123 139.896ZM336.723 130.2C337.555 130.2 338.307 130.304 338.979 130.512C339.651 130.704 340.227 130.984 340.707 131.352C341.187 131.704 341.555 132.144 341.811 132.672C342.067 133.184 342.195 133.76 342.195 134.4C342.195 134.96 342.115 135.448 341.955 135.864C341.811 136.28 341.611 136.648 341.355 136.968C341.099 137.288 340.811 137.56 340.491 137.784C340.187 137.992 339.867 138.168 339.531 138.312C340.027 138.456 340.491 138.648 340.923 138.888C341.371 139.112 341.755 139.384 342.075 139.704C342.395 140.024 342.651 140.408 342.843 140.856C343.035 141.304 343.131 141.816 343.131 142.392C343.131 143.112 342.987 143.76 342.699 144.336C342.411 144.912 341.995 145.4 341.451 145.8C340.923 146.184 340.283 146.48 339.531 146.688C338.779 146.896 337.947 147 337.035 147H329.571V130.2H336.723ZM336.411 137.688C337.547 137.688 338.475 137.432 339.195 136.92C339.915 136.408 340.275 135.656 340.275 134.664C340.275 133.816 339.955 133.144 339.315 132.648C338.675 132.152 337.755 131.904 336.555 131.904H331.443V137.688H336.411ZM337.083 145.296C338.363 145.296 339.371 145.032 340.107 144.504C340.843 143.976 341.211 143.232 341.211 142.272C341.211 141.344 340.835 140.632 340.083 140.136C339.331 139.624 338.219 139.368 336.747 139.368H331.443V145.296H337.083ZM355.388 141.696V134.592H357.212V147H355.388V144.84C354.972 145.512 354.428 146.088 353.756 146.568C353.084 147.032 352.212 147.264 351.14 147.264C350.388 147.264 349.716 147.144 349.124 146.904C348.548 146.664 348.052 146.328 347.636 145.896C347.236 145.448 346.924 144.92 346.7 144.312C346.492 143.704 346.388 143.032 346.388 142.296V134.592H348.236V141.84C348.236 142.992 348.532 143.904 349.124 144.576C349.716 145.248 350.564 145.584 351.668 145.584C352.196 145.584 352.684 145.496 353.132 145.32C353.596 145.128 353.988 144.864 354.308 144.528C354.644 144.176 354.908 143.76 355.1 143.28C355.292 142.8 355.388 142.272 355.388 141.696ZM369.889 143.52C369.889 144.112 369.769 144.64 369.529 145.104C369.305 145.552 368.993 145.936 368.593 146.256C368.209 146.576 367.745 146.824 367.201 147C366.673 147.16 366.097 147.24 365.473 147.24C364.577 147.24 363.673 147.08 362.761 146.76C361.849 146.424 361.041 145.976 360.337 145.416L361.273 144.096C361.945 144.608 362.641 145 363.361 145.272C364.097 145.544 364.833 145.68 365.569 145.68C366.321 145.68 366.937 145.504 367.417 145.152C367.897 144.8 368.137 144.32 368.137 143.712V143.664C368.137 143.36 368.049 143.096 367.873 142.872C367.713 142.648 367.489 142.456 367.201 142.296C366.913 142.12 366.577 141.968 366.193 141.84C365.825 141.712 365.441 141.592 365.041 141.48C364.561 141.336 364.073 141.184 363.577 141.024C363.097 140.848 362.657 140.632 362.257 140.376C361.873 140.12 361.553 139.8 361.297 139.416C361.057 139.032 360.937 138.552 360.937 137.976V137.928C360.937 137.4 361.041 136.92 361.249 136.488C361.457 136.04 361.745 135.664 362.113 135.36C362.497 135.04 362.945 134.8 363.457 134.64C363.985 134.464 364.553 134.376 365.161 134.376C365.929 134.376 366.705 134.504 367.489 134.76C368.273 135 368.985 135.328 369.625 135.744L368.785 137.136C368.209 136.768 367.601 136.48 366.961 136.272C366.337 136.048 365.721 135.936 365.113 135.936C364.377 135.936 363.793 136.112 363.361 136.464C362.929 136.8 362.713 137.224 362.713 137.736V137.784C362.713 138.072 362.801 138.328 362.977 138.552C363.153 138.76 363.385 138.944 363.673 139.104C363.977 139.264 364.321 139.408 364.705 139.536C365.089 139.664 365.489 139.792 365.905 139.92C366.385 140.064 366.857 140.224 367.321 140.4C367.801 140.576 368.233 140.8 368.617 141.072C369.001 141.344 369.305 141.672 369.529 142.056C369.769 142.44 369.889 142.912 369.889 143.472V143.52ZM375.482 131.88H373.37V129.84H375.482V131.88ZM375.338 147H373.49V134.592H375.338V147ZM381.475 139.896V147H379.627V134.592H381.475V136.752C381.891 136.08 382.435 135.512 383.107 135.048C383.779 134.568 384.651 134.328 385.723 134.328C386.475 134.328 387.139 134.448 387.715 134.688C388.307 134.928 388.803 135.272 389.203 135.72C389.619 136.152 389.931 136.672 390.139 137.28C390.363 137.888 390.475 138.56 390.475 139.296V147H388.627V139.752C388.627 138.6 388.331 137.688 387.739 137.016C387.147 136.344 386.299 136.008 385.195 136.008C384.667 136.008 384.171 136.104 383.707 136.296C383.259 136.472 382.867 136.736 382.531 137.088C382.195 137.424 381.931 137.832 381.739 138.312C381.563 138.792 381.475 139.32 381.475 139.896ZM395.52 141.48C395.584 142.152 395.744 142.752 396 143.28C396.256 143.792 396.584 144.232 396.984 144.6C397.384 144.952 397.832 145.224 398.328 145.416C398.824 145.592 399.344 145.68 399.888 145.68C400.752 145.68 401.488 145.52 402.096 145.2C402.72 144.88 403.288 144.456 403.8 143.928L404.952 144.96C404.328 145.664 403.616 146.232 402.816 146.664C402.016 147.08 401.024 147.288 399.84 147.288C398.992 147.288 398.192 147.136 397.44 146.832C396.688 146.512 396.032 146.072 395.472 145.512C394.912 144.936 394.464 144.248 394.128 143.448C393.808 142.648 393.648 141.768 393.648 140.808C393.648 139.912 393.792 139.072 394.08 138.288C394.384 137.488 394.8 136.8 395.328 136.224C395.856 135.632 396.48 135.168 397.2 134.832C397.936 134.496 398.736 134.328 399.6 134.328C400.512 134.328 401.328 134.504 402.048 134.856C402.768 135.192 403.376 135.656 403.872 136.248C404.368 136.84 404.744 137.536 405 138.336C405.256 139.136 405.384 139.992 405.384 140.904C405.384 140.984 405.384 141.072 405.384 141.168C405.384 141.264 405.376 141.368 405.36 141.48H395.52ZM395.52 140.112H403.512C403.464 139.552 403.344 139.016 403.152 138.504C402.976 137.992 402.72 137.544 402.384 137.16C402.064 136.776 401.664 136.472 401.184 136.248C400.72 136.008 400.176 135.888 399.552 135.888C399.008 135.888 398.504 136 398.04 136.224C397.576 136.432 397.168 136.728 396.816 137.112C396.464 137.48 396.176 137.92 395.952 138.432C395.728 138.944 395.584 139.504 395.52 140.112ZM417.139 143.52C417.139 144.112 417.019 144.64 416.779 145.104C416.555 145.552 416.243 145.936 415.843 146.256C415.459 146.576 414.995 146.824 414.451 147C413.923 147.16 413.347 147.24 412.723 147.24C411.827 147.24 410.923 147.08 410.011 146.76C409.099 146.424 408.291 145.976 407.587 145.416L408.523 144.096C409.195 144.608 409.891 145 410.611 145.272C411.347 145.544 412.083 145.68 412.819 145.68C413.571 145.68 414.187 145.504 414.667 145.152C415.147 144.8 415.387 144.32 415.387 143.712V143.664C415.387 143.36 415.299 143.096 415.123 142.872C414.963 142.648 414.739 142.456 414.451 142.296C414.163 142.12 413.827 141.968 413.443 141.84C413.075 141.712 412.691 141.592 412.291 141.48C411.811 141.336 411.323 141.184 410.827 141.024C410.347 140.848 409.907 140.632 409.507 140.376C409.123 140.12 408.803 139.8 408.547 139.416C408.307 139.032 408.187 138.552 408.187 137.976V137.928C408.187 137.4 408.291 136.92 408.499 136.488C408.707 136.04 408.995 135.664 409.363 135.36C409.747 135.04 410.195 134.8 410.707 134.64C411.235 134.464 411.803 134.376 412.411 134.376C413.179 134.376 413.955 134.504 414.739 134.76C415.523 135 416.235 135.328 416.875 135.744L416.035 137.136C415.459 136.768 414.851 136.48 414.211 136.272C413.587 136.048 412.971 135.936 412.363 135.936C411.627 135.936 411.043 136.112 410.611 136.464C410.179 136.8 409.963 137.224 409.963 137.736V137.784C409.963 138.072 410.051 138.328 410.227 138.552C410.403 138.76 410.635 138.944 410.923 139.104C411.227 139.264 411.571 139.408 411.955 139.536C412.339 139.664 412.739 139.792 413.155 139.92C413.635 140.064 414.107 140.224 414.571 140.4C415.051 140.576 415.483 140.8 415.867 141.072C416.251 141.344 416.555 141.672 416.779 142.056C417.019 142.44 417.139 142.912 417.139 143.472V143.52ZM428.857 143.52C428.857 144.112 428.737 144.64 428.497 145.104C428.273 145.552 427.961 145.936 427.561 146.256C427.177 146.576 426.713 146.824 426.169 147C425.641 147.16 425.065 147.24 424.441 147.24C423.545 147.24 422.641 147.08 421.729 146.76C420.817 146.424 420.009 145.976 419.305 145.416L420.241 144.096C420.913 144.608 421.609 145 422.329 145.272C423.065 145.544 423.801 145.68 424.537 145.68C425.289 145.68 425.905 145.504 426.385 145.152C426.865 144.8 427.105 144.32 427.105 143.712V143.664C427.105 143.36 427.017 143.096 426.841 142.872C426.681 142.648 426.457 142.456 426.169 142.296C425.881 142.12 425.545 141.968 425.161 141.84C424.793 141.712 424.409 141.592 424.009 141.48C423.529 141.336 423.041 141.184 422.545 141.024C422.065 140.848 421.625 140.632 421.225 140.376C420.841 140.12 420.521 139.8 420.265 139.416C420.025 139.032 419.905 138.552 419.905 137.976V137.928C419.905 137.4 420.009 136.92 420.217 136.488C420.425 136.04 420.713 135.664 421.081 135.36C421.465 135.04 421.913 134.8 422.425 134.64C422.953 134.464 423.521 134.376 424.129 134.376C424.897 134.376 425.673 134.504 426.457 134.76C427.241 135 427.953 135.328 428.593 135.744L427.753 137.136C427.177 136.768 426.569 136.48 425.929 136.272C425.305 136.048 424.689 135.936 424.081 135.936C423.345 135.936 422.761 136.112 422.329 136.464C421.897 136.8 421.681 137.224 421.681 137.736V137.784C421.681 138.072 421.769 138.328 421.945 138.552C422.121 138.76 422.353 138.944 422.641 139.104C422.945 139.264 423.289 139.408 423.673 139.536C424.057 139.664 424.457 139.792 424.873 139.92C425.353 140.064 425.825 140.224 426.289 140.4C426.769 140.576 427.201 140.8 427.585 141.072C427.969 141.344 428.273 141.672 428.497 142.056C428.737 142.44 428.857 142.912 428.857 143.472V143.52ZM441.262 134.4C441.262 134.8 441.326 135.16 441.454 135.48C441.582 135.8 441.814 136.096 442.15 136.368C442.486 136.624 442.95 136.864 443.542 137.088C444.134 137.296 444.894 137.496 445.822 137.688C447.694 138.104 449.07 138.68 449.95 139.416C450.846 140.152 451.294 141.168 451.294 142.464C451.294 143.184 451.15 143.84 450.862 144.432C450.574 145.024 450.174 145.528 449.662 145.944C449.166 146.36 448.566 146.68 447.862 146.904C447.158 147.128 446.39 147.24 445.558 147.24C444.214 147.24 442.982 147.024 441.862 146.592C440.758 146.144 439.702 145.464 438.694 144.552L439.87 143.16C440.75 143.96 441.638 144.56 442.534 144.96C443.43 145.344 444.462 145.536 445.63 145.536C446.766 145.536 447.67 145.272 448.342 144.744C449.03 144.216 449.374 143.52 449.374 142.656C449.374 142.256 449.31 141.904 449.182 141.6C449.054 141.28 448.83 140.992 448.51 140.736C448.19 140.48 447.742 140.248 447.166 140.04C446.606 139.832 445.886 139.632 445.006 139.44C444.046 139.232 443.206 138.992 442.486 138.72C441.782 138.448 441.198 138.12 440.734 137.736C440.27 137.352 439.926 136.904 439.702 136.392C439.478 135.88 439.366 135.272 439.366 134.568C439.366 133.896 439.502 133.28 439.774 132.72C440.046 132.16 440.43 131.68 440.926 131.28C441.422 130.864 442.006 130.544 442.678 130.32C443.35 130.08 444.086 129.96 444.886 129.96C446.118 129.96 447.19 130.136 448.102 130.488C449.03 130.824 449.926 131.336 450.79 132.024L449.686 133.488C448.902 132.848 448.11 132.384 447.31 132.096C446.526 131.808 445.702 131.664 444.838 131.664C444.294 131.664 443.798 131.736 443.35 131.88C442.918 132.024 442.542 132.216 442.222 132.456C441.918 132.696 441.678 132.984 441.502 133.32C441.342 133.656 441.262 134.016 441.262 134.4ZM457.216 136.224V143.472C457.216 144.24 457.408 144.776 457.792 145.08C458.176 145.384 458.68 145.536 459.304 145.536C459.624 145.536 459.92 145.504 460.192 145.44C460.48 145.376 460.784 145.264 461.104 145.104V146.688C460.784 146.864 460.44 146.992 460.072 147.072C459.72 147.168 459.32 147.216 458.872 147.216C458.376 147.216 457.912 147.152 457.48 147.024C457.048 146.896 456.672 146.696 456.352 146.424C456.048 146.136 455.808 145.768 455.632 145.32C455.456 144.872 455.368 144.336 455.368 143.712V136.224H453.64V134.592H455.368V130.848H457.216V134.592H461.152V136.224H457.216ZM466.271 142.056V147H464.423V134.592H466.271V137.832C466.495 137.32 466.775 136.848 467.111 136.416C467.447 135.984 467.831 135.616 468.263 135.312C468.695 134.992 469.167 134.752 469.679 134.592C470.191 134.432 470.743 134.36 471.335 134.376V136.368H471.191C470.519 136.368 469.879 136.488 469.271 136.728C468.679 136.968 468.159 137.328 467.711 137.808C467.263 138.288 466.911 138.888 466.655 139.608C466.399 140.312 466.271 141.128 466.271 142.056ZM478.029 136.056C477.293 136.056 476.621 136.144 476.013 136.32C475.421 136.48 474.837 136.696 474.261 136.968L473.709 135.456C474.397 135.136 475.093 134.888 475.797 134.712C476.501 134.52 477.309 134.424 478.221 134.424C479.917 134.424 481.221 134.848 482.133 135.696C483.045 136.528 483.501 137.768 483.501 139.416V147H481.725V145.128C481.293 145.688 480.709 146.184 479.973 146.616C479.253 147.048 478.341 147.264 477.237 147.264C476.661 147.264 476.093 147.184 475.533 147.024C474.989 146.864 474.493 146.624 474.045 146.304C473.613 145.968 473.261 145.56 472.989 145.08C472.733 144.6 472.605 144.032 472.605 143.376C472.605 142.72 472.733 142.144 472.989 141.648C473.245 141.136 473.605 140.712 474.069 140.376C474.549 140.04 475.109 139.784 475.749 139.608C476.405 139.432 477.125 139.344 477.909 139.344C478.709 139.344 479.405 139.392 479.997 139.488C480.589 139.584 481.165 139.712 481.725 139.872V139.44C481.725 138.32 481.397 137.48 480.741 136.92C480.101 136.344 479.197 136.056 478.029 136.056ZM478.101 140.712C476.933 140.712 476.037 140.944 475.413 141.408C474.789 141.872 474.477 142.504 474.477 143.304C474.477 143.704 474.557 144.056 474.717 144.36C474.893 144.664 475.125 144.928 475.413 145.152C475.701 145.36 476.029 145.52 476.397 145.632C476.781 145.744 477.181 145.8 477.597 145.8C478.173 145.8 478.709 145.72 479.205 145.56C479.717 145.384 480.157 145.152 480.525 144.864C480.909 144.56 481.205 144.208 481.413 143.808C481.637 143.392 481.749 142.936 481.749 142.44V141.24C481.285 141.112 480.749 140.992 480.141 140.88C479.549 140.768 478.869 140.712 478.101 140.712ZM489.818 136.224V143.472C489.818 144.24 490.01 144.776 490.394 145.08C490.778 145.384 491.282 145.536 491.906 145.536C492.226 145.536 492.522 145.504 492.794 145.44C493.082 145.376 493.386 145.264 493.706 145.104V146.688C493.386 146.864 493.042 146.992 492.674 147.072C492.322 147.168 491.922 147.216 491.474 147.216C490.978 147.216 490.514 147.152 490.082 147.024C489.65 146.896 489.274 146.696 488.954 146.424C488.65 146.136 488.41 145.768 488.234 145.32C488.058 144.872 487.97 144.336 487.97 143.712V136.224H486.242V134.592H487.97V130.848H489.818V134.592H493.754V136.224H489.818ZM497.777 141.48C497.841 142.152 498.001 142.752 498.257 143.28C498.513 143.792 498.841 144.232 499.241 144.6C499.641 144.952 500.089 145.224 500.585 145.416C501.081 145.592 501.601 145.68 502.145 145.68C503.009 145.68 503.745 145.52 504.353 145.2C504.977 144.88 505.545 144.456 506.057 143.928L507.209 144.96C506.585 145.664 505.873 146.232 505.073 146.664C504.273 147.08 503.281 147.288 502.097 147.288C501.249 147.288 500.449 147.136 499.697 146.832C498.945 146.512 498.289 146.072 497.729 145.512C497.169 144.936 496.721 144.248 496.385 143.448C496.065 142.648 495.905 141.768 495.905 140.808C495.905 139.912 496.049 139.072 496.337 138.288C496.641 137.488 497.057 136.8 497.585 136.224C498.113 135.632 498.737 135.168 499.457 134.832C500.193 134.496 500.993 134.328 501.857 134.328C502.769 134.328 503.585 134.504 504.305 134.856C505.025 135.192 505.633 135.656 506.129 136.248C506.625 136.84 507.001 137.536 507.257 138.336C507.513 139.136 507.641 139.992 507.641 140.904C507.641 140.984 507.641 141.072 507.641 141.168C507.641 141.264 507.633 141.368 507.617 141.48H497.777ZM497.777 140.112H505.769C505.721 139.552 505.601 139.016 505.409 138.504C505.233 137.992 504.977 137.544 504.641 137.16C504.321 136.776 503.921 136.472 503.441 136.248C502.977 136.008 502.433 135.888 501.809 135.888C501.265 135.888 500.761 136 500.297 136.224C499.833 136.432 499.425 136.728 499.073 137.112C498.721 137.48 498.433 137.92 498.209 138.432C497.985 138.944 497.841 139.504 497.777 140.112ZM522.685 144.84C522.685 145.848 522.533 146.728 522.229 147.48C521.941 148.232 521.517 148.856 520.957 149.352C520.413 149.864 519.749 150.248 518.965 150.504C518.197 150.76 517.333 150.888 516.373 150.888C515.333 150.888 514.341 150.744 513.397 150.456C512.453 150.168 511.565 149.736 510.733 149.16L511.573 147.72C512.293 148.232 513.045 148.624 513.829 148.896C514.613 149.168 515.453 149.304 516.349 149.304C517.725 149.304 518.821 148.928 519.637 148.176C520.453 147.44 520.861 146.344 520.861 144.888V143.424C520.317 144.144 519.653 144.76 518.869 145.272C518.085 145.784 517.125 146.04 515.989 146.04C515.237 146.04 514.509 145.912 513.805 145.656C513.117 145.384 512.501 145 511.957 144.504C511.413 143.992 510.973 143.376 510.637 142.656C510.317 141.936 510.157 141.12 510.157 140.208C510.157 139.296 510.317 138.48 510.637 137.76C510.973 137.024 511.413 136.408 511.957 135.912C512.501 135.4 513.125 135.008 513.829 134.736C514.533 134.464 515.253 134.328 515.989 134.328C516.565 134.328 517.093 134.4 517.573 134.544C518.069 134.672 518.509 134.848 518.893 135.072C519.293 135.296 519.653 135.56 519.973 135.864C520.293 136.168 520.581 136.488 520.837 136.824V134.592H522.685V144.84ZM520.909 140.184C520.909 139.544 520.781 138.968 520.525 138.456C520.269 137.928 519.925 137.48 519.493 137.112C519.077 136.744 518.597 136.464 518.053 136.272C517.509 136.064 516.941 135.96 516.349 135.96C515.757 135.96 515.197 136.056 514.669 136.248C514.157 136.44 513.701 136.72 513.301 137.088C512.917 137.456 512.613 137.904 512.389 138.432C512.165 138.944 512.053 139.52 512.053 140.16C512.053 140.8 512.165 141.384 512.389 141.912C512.629 142.424 512.941 142.872 513.325 143.256C513.725 143.624 514.181 143.912 514.693 144.12C515.221 144.312 515.773 144.408 516.349 144.408C516.941 144.408 517.509 144.312 518.053 144.12C518.597 143.912 519.077 143.624 519.493 143.256C519.925 142.888 520.269 142.448 520.525 141.936C520.781 141.408 520.909 140.824 520.909 140.184ZM538.07 134.592L532.862 147.408C532.334 148.688 531.742 149.592 531.086 150.12C530.446 150.648 529.662 150.912 528.734 150.912C528.222 150.912 527.758 150.856 527.342 150.744C526.926 150.648 526.51 150.496 526.094 150.288L526.718 148.824C527.022 148.984 527.318 149.096 527.606 149.16C527.91 149.24 528.262 149.28 528.662 149.28C529.222 149.28 529.694 149.112 530.078 148.776C530.462 148.44 530.838 147.832 531.206 146.952L525.566 134.592H527.606L532.118 144.936L536.102 134.592H538.07Z" fill="#AD3088"/>
</svg>
