<svg width="1340" height="461" viewBox="0 0 1340 461" fill="none" xmlns="http://www.w3.org/2000/svg">
<rect y="9" width="1340" height="452" fill="#FFFCEF"/>
<g opacity="0.5">
<path d="M232.738 379.582C232.665 379.582 232.589 379.576 232.516 379.564C211.157 376.187 193.66 363.872 181.916 343.953C174.258 330.962 169.476 315.343 168.09 298.777C166.727 282.508 168.712 266.464 173.827 252.381C179.689 236.237 190.738 221.558 205.781 209.933C206.4 209.456 207.289 209.568 207.765 210.187C208.244 210.807 208.129 211.696 207.51 212.172C192.892 223.47 182.164 237.708 176.485 253.349C166.293 281.416 169.455 317.248 184.349 342.515C195.65 361.684 212.456 373.528 232.953 376.769C233.724 376.891 234.252 377.616 234.131 378.39C234.021 379.088 233.418 379.585 232.735 379.585L232.738 379.582Z" fill="#E855BD"/>
<path d="M211.137 371.474C211.137 371.474 224.548 349.858 205.015 319.13C204.281 320.775 194.678 347.698 211.137 371.474Z" fill="#D266B2"/>
<path d="M198.344 362.704C198.344 362.704 173.763 369.232 150.07 341.583C151.857 341.359 180.407 340.027 198.344 362.704Z" fill="#D266B2"/>
<path d="M176.748 331.432C176.748 331.432 151.52 328.207 140 293.664C141.738 294.128 168.683 303.663 176.748 331.432Z" fill="#D266B2"/>
<path d="M168.626 296.741C168.626 296.741 145.771 285.576 145.962 249.164C147.458 250.165 169.912 267.851 168.626 296.741Z" fill="#D266B2"/>
<path d="M172.274 260.031C172.274 260.031 153.248 243.15 163.187 208.121C164.361 209.487 181.255 232.544 172.274 260.031Z" fill="#D266B2"/>
<path d="M184.062 233.903C184.062 233.903 173.304 212.026 193.959 185C194.511 186.633 201.295 213.134 184.062 233.903Z" fill="#D266B2"/>
<path d="M185.489 347.804C185.489 347.804 206.196 329.014 195.89 291.266C194.598 292.762 176.187 317 185.489 347.804Z" fill="#D266B2"/>
<path d="M170.476 305.696C170.476 305.696 192.188 293.381 193.004 256.668C191.447 257.731 170.528 274.124 170.476 305.696Z" fill="#D266B2"/>
<path d="M191.212 230.789C197.435 226.268 204.595 223.151 211.983 221.012C211.967 222.544 211.755 224.074 211.358 225.555C210.863 227.387 210.08 229.132 209.222 230.823C202.341 244.345 188.357 257.154 173.09 260.155C173.138 258.435 174.3 256.131 174.78 254.444C177.547 244.691 182.953 236.792 191.215 230.789H191.212Z" fill="#D266B2"/>
<path d="M208.191 207.083C218.334 198.883 231.335 194.292 244.375 194.307C244.687 198.407 239.287 202.194 236.456 204.334C229.975 209.234 223.158 212.572 215.233 214.712C210.354 216.029 204.872 217.088 199.808 217.079C199.657 217.079 199.484 217.067 199.393 216.948C199.259 216.778 199.387 216.533 199.514 216.357C200.515 214.967 201.811 213.82 202.864 212.469C204.438 210.451 206.204 208.691 208.194 207.083H208.191Z" fill="#D266B2"/>
</g>
<g opacity="0.5">
<path d="M436.647 379.582C435.965 379.582 435.361 379.084 435.252 378.386C435.13 377.616 435.655 376.89 436.429 376.766C456.924 373.525 473.732 361.681 485.034 342.511C499.93 317.245 503.092 281.412 492.898 253.345C487.218 237.705 476.49 223.467 461.872 212.169C461.253 211.689 461.141 210.803 461.617 210.184C462.097 209.565 462.982 209.453 463.601 209.929C478.644 221.555 489.694 236.233 495.555 252.377C500.671 266.461 502.655 282.505 501.293 298.773C499.906 315.336 495.128 330.958 487.467 343.95C475.722 363.869 458.225 376.183 436.866 379.561C436.79 379.573 436.717 379.579 436.644 379.579L436.647 379.582Z" fill="#E855BD"/>
<path d="M458.251 371.474C458.251 371.474 444.841 349.858 464.374 319.13C465.108 320.775 474.711 347.698 458.251 371.474Z" fill="#D266B2"/>
<path d="M471.043 362.704C471.043 362.704 495.624 369.231 519.317 341.583C517.53 341.358 488.98 340.026 471.043 362.704Z" fill="#D266B2"/>
<path d="M492.637 331.432C492.637 331.432 517.864 328.21 529.384 293.664C527.646 294.128 500.701 303.663 492.637 331.432Z" fill="#D266B2"/>
<path d="M500.76 296.74C500.76 296.74 523.615 285.579 523.424 249.164C521.928 250.165 499.474 267.851 500.76 296.74Z" fill="#D266B2"/>
<path d="M497.112 260.031C497.112 260.031 516.138 243.149 506.199 208.121C505.025 209.486 488.132 232.543 497.112 260.031Z" fill="#D266B2"/>
<path d="M485.324 233.903C485.324 233.903 496.083 212.026 475.427 185C474.875 186.633 468.091 213.134 485.324 233.903Z" fill="#D266B2"/>
<path d="M483.898 347.804C483.898 347.804 463.191 329.014 473.497 291.266C474.79 292.762 493.2 317 483.898 347.804Z" fill="#D266B2"/>
<path d="M498.914 305.696C498.914 305.696 477.203 293.381 476.387 256.668C477.943 257.731 498.863 274.124 498.914 305.696Z" fill="#D266B2"/>
<path d="M478.173 230.789C471.95 226.268 464.79 223.151 457.402 221.012C457.418 222.544 457.63 224.074 458.027 225.555C458.522 227.387 459.305 229.132 460.163 230.823C467.044 244.345 481.028 257.154 496.295 260.155C496.247 258.435 495.085 256.131 494.605 254.444C491.838 244.691 486.432 236.792 478.17 230.789H478.173Z" fill="#D266B2"/>
<path d="M461.196 207.083C451.054 198.883 438.056 194.292 425.013 194.307C424.7 198.407 430.101 202.194 432.932 204.334C439.412 209.234 446.23 212.572 454.154 214.712C459.033 216.029 464.516 217.088 469.579 217.079C469.731 217.079 469.904 217.067 469.995 216.948C470.128 216.778 470.001 216.533 469.874 216.357C468.872 214.967 467.577 213.82 466.524 212.469C464.949 210.451 463.184 208.691 461.193 207.083H461.196Z" fill="#D266B2"/>
</g>
<g opacity="0.5">
<path d="M902.738 379.582C902.665 379.582 902.589 379.576 902.516 379.564C881.157 376.187 863.66 363.872 851.916 343.953C844.258 330.962 839.476 315.343 838.09 298.777C836.727 282.508 838.712 266.464 843.827 252.381C849.689 236.237 860.738 221.558 875.781 209.933C876.4 209.456 877.289 209.568 877.765 210.187C878.244 210.807 878.129 211.696 877.51 212.172C862.892 223.47 852.164 237.708 846.485 253.349C836.293 281.416 839.455 317.248 854.349 342.515C865.65 361.684 882.456 373.528 902.953 376.769C903.724 376.891 904.252 377.616 904.131 378.39C904.021 379.088 903.418 379.585 902.735 379.585L902.738 379.582Z" fill="#E855BD"/>
<path d="M881.137 371.474C881.137 371.474 894.548 349.858 875.015 319.13C874.281 320.775 864.678 347.698 881.137 371.474Z" fill="#D266B2"/>
<path d="M868.344 362.704C868.344 362.704 843.763 369.232 820.07 341.583C821.857 341.359 850.407 340.027 868.344 362.704Z" fill="#D266B2"/>
<path d="M846.748 331.432C846.748 331.432 821.52 328.207 810 293.664C811.738 294.128 838.683 303.663 846.748 331.432Z" fill="#D266B2"/>
<path d="M838.626 296.741C838.626 296.741 815.771 285.576 815.962 249.164C817.458 250.165 839.912 267.851 838.626 296.741Z" fill="#D266B2"/>
<path d="M842.274 260.031C842.274 260.031 823.248 243.15 833.187 208.121C834.361 209.487 851.255 232.544 842.274 260.031Z" fill="#D266B2"/>
<path d="M854.062 233.903C854.062 233.903 843.304 212.026 863.959 185C864.511 186.633 871.295 213.134 854.062 233.903Z" fill="#D266B2"/>
<path d="M855.489 347.804C855.489 347.804 876.196 329.014 865.89 291.266C864.598 292.762 846.187 317 855.489 347.804Z" fill="#D266B2"/>
<path d="M840.476 305.696C840.476 305.696 862.188 293.381 863.004 256.668C861.447 257.731 840.528 274.124 840.476 305.696Z" fill="#D266B2"/>
<path d="M861.212 230.789C867.435 226.268 874.595 223.151 881.983 221.012C881.967 222.544 881.755 224.074 881.358 225.555C880.863 227.387 880.08 229.132 879.222 230.823C872.341 244.345 858.357 257.154 843.09 260.155C843.138 258.435 844.3 256.131 844.78 254.444C847.547 244.691 852.953 236.792 861.215 230.789H861.212Z" fill="#D266B2"/>
<path d="M878.191 207.083C888.334 198.883 901.335 194.292 914.375 194.307C914.687 198.407 909.287 202.194 906.456 204.334C899.975 209.234 893.158 212.572 885.233 214.712C880.354 216.029 874.872 217.088 869.808 217.079C869.657 217.079 869.484 217.067 869.393 216.948C869.259 216.778 869.387 216.533 869.514 216.357C870.515 214.967 871.811 213.82 872.864 212.469C874.438 210.451 876.204 208.691 878.194 207.083H878.191Z" fill="#D266B2"/>
</g>
<g opacity="0.5">
<path d="M1106.65 379.582C1105.96 379.582 1105.36 379.084 1105.25 378.386C1105.13 377.616 1105.66 376.89 1106.43 376.766C1126.92 373.525 1143.73 361.681 1155.03 342.511C1169.93 317.245 1173.09 281.412 1162.9 253.345C1157.22 237.705 1146.49 223.467 1131.87 212.169C1131.25 211.689 1131.14 210.803 1131.62 210.184C1132.1 209.565 1132.98 209.453 1133.6 209.929C1148.64 221.555 1159.69 236.233 1165.56 252.377C1170.67 266.461 1172.65 282.505 1171.29 298.773C1169.91 315.336 1165.13 330.958 1157.47 343.95C1145.72 363.869 1128.23 376.183 1106.87 379.561C1106.79 379.573 1106.72 379.579 1106.64 379.579L1106.65 379.582Z" fill="#E855BD"/>
<path d="M1128.25 371.474C1128.25 371.474 1114.84 349.858 1134.37 319.13C1135.11 320.775 1144.71 347.698 1128.25 371.474Z" fill="#D266B2"/>
<path d="M1141.04 362.704C1141.04 362.704 1165.62 369.231 1189.32 341.583C1187.53 341.358 1158.98 340.026 1141.04 362.704Z" fill="#D266B2"/>
<path d="M1162.64 331.432C1162.64 331.432 1187.86 328.21 1199.38 293.664C1197.65 294.128 1170.7 303.663 1162.64 331.432Z" fill="#D266B2"/>
<path d="M1170.76 296.74C1170.76 296.74 1193.62 285.579 1193.42 249.164C1191.93 250.165 1169.47 267.851 1170.76 296.74Z" fill="#D266B2"/>
<path d="M1167.11 260.031C1167.11 260.031 1186.14 243.149 1176.2 208.121C1175.02 209.486 1158.13 232.543 1167.11 260.031Z" fill="#D266B2"/>
<path d="M1155.32 233.903C1155.32 233.903 1166.08 212.026 1145.43 185C1144.88 186.633 1138.09 213.134 1155.32 233.903Z" fill="#D266B2"/>
<path d="M1153.9 347.804C1153.9 347.804 1133.19 329.014 1143.5 291.266C1144.79 292.762 1163.2 317 1153.9 347.804Z" fill="#D266B2"/>
<path d="M1168.91 305.696C1168.91 305.696 1147.2 293.381 1146.39 256.668C1147.94 257.731 1168.86 274.124 1168.91 305.696Z" fill="#D266B2"/>
<path d="M1148.17 230.789C1141.95 226.268 1134.79 223.151 1127.4 221.012C1127.42 222.544 1127.63 224.074 1128.03 225.555C1128.52 227.387 1129.3 229.132 1130.16 230.823C1137.04 244.345 1151.03 257.154 1166.3 260.155C1166.25 258.435 1165.08 256.131 1164.61 254.444C1161.84 244.691 1156.43 236.792 1148.17 230.789H1148.17Z" fill="#D266B2"/>
<path d="M1131.2 207.083C1121.05 198.883 1108.06 194.292 1095.01 194.307C1094.7 198.407 1100.1 202.194 1102.93 204.334C1109.41 209.234 1116.23 212.572 1124.15 214.712C1129.03 216.029 1134.52 217.088 1139.58 217.079C1139.73 217.079 1139.9 217.067 1139.99 216.948C1140.13 216.778 1140 216.533 1139.87 216.357C1138.87 214.967 1137.58 213.82 1136.52 212.469C1134.95 210.451 1133.18 208.691 1131.19 207.083H1131.2Z" fill="#D266B2"/>
</g>
<rect x="184" y="82" width="304" height="52" rx="26" fill="#AD3088"/>
<rect x="853" y="82" width="304" height="52" rx="26" fill="#AD3088"/>
<path d="M334.5 153L287.302 135L381.698 135L334.5 153Z" fill="#F59ADA"/>
<path d="M1004.5 153L957.302 135L1051.7 135L1004.5 153Z" fill="#F59ADA"/>
<path d="M307.014 245.784V239.4H331.206V244.968L316.134 273H307.782L322.806 245.784H307.014ZM361.309 242.52L357.421 248.232C356.877 247.816 356.349 247.448 355.837 247.128C355.325 246.776 354.797 246.488 354.253 246.264C353.709 246.04 353.133 245.864 352.525 245.736C351.917 245.608 351.261 245.544 350.557 245.544C349.501 245.544 348.573 245.752 347.773 246.168C347.005 246.552 346.333 247.096 345.757 247.8C345.213 248.472 344.781 249.288 344.461 250.248C344.141 251.208 343.917 252.232 343.789 253.32C344.621 252.776 345.565 252.28 346.621 251.832C347.709 251.384 349.085 251.16 350.749 251.16C352.413 251.16 353.965 251.4 355.405 251.88C356.845 252.328 358.093 253 359.149 253.896C360.205 254.792 361.037 255.912 361.645 257.256C362.253 258.6 362.557 260.152 362.557 261.912C362.557 263.64 362.221 265.224 361.549 266.664C360.909 268.072 360.013 269.304 358.861 270.36C357.741 271.384 356.397 272.184 354.829 272.76C353.261 273.304 351.565 273.576 349.741 273.576C347.533 273.576 345.661 273.272 344.125 272.664C342.589 272.056 341.229 271.16 340.045 269.976C338.829 268.76 337.853 267.176 337.117 265.224C336.413 263.24 336.061 260.568 336.061 257.208C336.061 254.616 336.349 252.2 336.925 249.96C337.533 247.72 338.445 245.784 339.661 244.152C340.877 242.488 342.413 241.192 344.269 240.264C346.125 239.304 348.301 238.824 350.797 238.824C351.949 238.824 353.005 238.904 353.965 239.064C354.925 239.224 355.821 239.464 356.653 239.784C357.485 240.104 358.285 240.504 359.053 240.984C359.821 241.432 360.573 241.944 361.309 242.52ZM355.213 262.248C355.213 260.808 354.685 259.624 353.629 258.696C352.605 257.768 351.181 257.304 349.357 257.304C347.533 257.304 346.109 257.768 345.085 258.696C344.093 259.592 343.597 260.76 343.597 262.2C343.597 263.672 344.109 264.888 345.133 265.848C346.189 266.776 347.629 267.24 349.453 267.24C351.277 267.24 352.685 266.776 353.677 265.848C354.701 264.92 355.213 263.72 355.213 262.248ZM277.838 288V290.19H265.118V297.69H276.488V299.85H265.118V309H262.748V288H277.838ZM291.406 300.66V309H289.006V300.69L280.276 288H283.156L290.236 298.5L297.376 288H300.136L291.406 300.66ZM310.15 289.83C308.95 289.83 307.92 290.14 307.06 290.76C306.2 291.36 305.35 292.25 304.51 293.43L302.77 292.17C303.25 291.47 303.74 290.84 304.24 290.28C304.74 289.72 305.28 289.25 305.86 288.87C306.46 288.49 307.12 288.2 307.84 288C308.58 287.8 309.41 287.7 310.33 287.7C311.29 287.7 312.16 287.85 312.94 288.15C313.74 288.45 314.43 288.87 315.01 289.41C315.59 289.93 316.04 290.56 316.36 291.3C316.68 292.02 316.84 292.81 316.84 293.67C316.84 294.45 316.73 295.16 316.51 295.8C316.31 296.44 315.99 297.08 315.55 297.72C315.11 298.34 314.56 298.99 313.9 299.67C313.24 300.33 312.45 301.06 311.53 301.86L305.92 306.84H317.05V309H302.38V307.17L310 300.45C310.8 299.73 311.48 299.08 312.04 298.5C312.6 297.92 313.05 297.38 313.39 296.88C313.75 296.36 314 295.86 314.14 295.38C314.3 294.88 314.38 294.37 314.38 293.85C314.38 293.23 314.26 292.68 314.02 292.2C313.8 291.7 313.5 291.28 313.12 290.94C312.74 290.58 312.29 290.31 311.77 290.13C311.25 289.93 310.71 289.83 310.15 289.83ZM331.769 290.13H321.509V288H334.919V289.74L328.319 297.06C329.239 297.14 330.119 297.31 330.959 297.57C331.799 297.83 332.529 298.2 333.149 298.68C333.789 299.16 334.299 299.76 334.679 300.48C335.059 301.2 335.249 302.04 335.249 303C335.249 303.94 335.059 304.8 334.679 305.58C334.319 306.36 333.819 307.03 333.179 307.59C332.559 308.15 331.819 308.59 330.959 308.91C330.119 309.21 329.209 309.36 328.229 309.36C326.469 309.36 324.939 309.02 323.639 308.34C322.339 307.64 321.259 306.73 320.399 305.61L322.109 304.08C322.929 305.08 323.829 305.85 324.809 306.39C325.809 306.93 326.959 307.2 328.259 307.2C328.899 307.2 329.499 307.11 330.059 306.93C330.619 306.73 331.099 306.45 331.499 306.09C331.919 305.73 332.249 305.3 332.489 304.8C332.729 304.28 332.849 303.71 332.849 303.09C332.849 301.77 332.299 300.76 331.199 300.06C330.119 299.36 328.709 299.01 326.969 299.01H325.619L325.139 297.6L331.769 290.13ZM364.712 304.83V288H367.022V309H365.132L351.572 291.78V309H349.262V288H351.482L364.712 304.83ZM388.683 294.69C388.683 295.83 388.463 296.83 388.023 297.69C387.583 298.55 386.983 299.27 386.223 299.85C385.483 300.43 384.613 300.87 383.613 301.17C382.613 301.45 381.553 301.59 380.433 301.59H375.333V309H372.963V288H380.823C382.003 288 383.073 288.16 384.033 288.48C385.013 288.78 385.843 289.22 386.523 289.8C387.223 290.36 387.753 291.06 388.113 291.9C388.493 292.72 388.683 293.65 388.683 294.69ZM386.283 294.78C386.283 293.26 385.763 292.12 384.723 291.36C383.703 290.58 382.343 290.19 380.643 290.19H375.333V299.43H380.523C381.383 299.43 382.163 299.32 382.863 299.1C383.583 298.88 384.193 298.57 384.693 298.17C385.213 297.75 385.603 297.26 385.863 296.7C386.143 296.12 386.283 295.48 386.283 294.78ZM394.832 293.25C394.832 293.75 394.912 294.2 395.072 294.6C395.232 295 395.522 295.37 395.942 295.71C396.362 296.03 396.942 296.33 397.682 296.61C398.422 296.87 399.372 297.12 400.532 297.36C402.872 297.88 404.592 298.6 405.692 299.52C406.812 300.44 407.372 301.71 407.372 303.33C407.372 304.23 407.192 305.05 406.832 305.79C406.472 306.53 405.972 307.16 405.332 307.68C404.712 308.2 403.962 308.6 403.082 308.88C402.202 309.16 401.242 309.3 400.202 309.3C398.522 309.3 396.982 309.03 395.582 308.49C394.202 307.93 392.882 307.08 391.622 305.94L393.092 304.2C394.192 305.2 395.302 305.95 396.422 306.45C397.542 306.93 398.832 307.17 400.292 307.17C401.712 307.17 402.842 306.84 403.682 306.18C404.542 305.52 404.972 304.65 404.972 303.57C404.972 303.07 404.892 302.63 404.732 302.25C404.572 301.85 404.292 301.49 403.892 301.17C403.492 300.85 402.932 300.56 402.212 300.3C401.512 300.04 400.612 299.79 399.512 299.55C398.312 299.29 397.262 298.99 396.362 298.65C395.482 298.31 394.752 297.9 394.172 297.42C393.592 296.94 393.162 296.38 392.882 295.74C392.602 295.1 392.462 294.34 392.462 293.46C392.462 292.62 392.632 291.85 392.972 291.15C393.312 290.45 393.792 289.85 394.412 289.35C395.032 288.83 395.762 288.43 396.602 288.15C397.442 287.85 398.362 287.7 399.362 287.7C400.902 287.7 402.242 287.92 403.382 288.36C404.542 288.78 405.662 289.42 406.742 290.28L405.362 292.11C404.382 291.31 403.392 290.73 402.392 290.37C401.412 290.01 400.382 289.83 399.302 289.83C398.622 289.83 398.002 289.92 397.442 290.1C396.902 290.28 396.432 290.52 396.032 290.82C395.652 291.12 395.352 291.48 395.132 291.9C394.932 292.32 394.832 292.77 394.832 293.25Z" fill="#AD3088"/>
<path d="M968.088 226.4L956.616 260.24H950.184L942.6 238.256L935.016 260.24H928.584L917.112 226.4H925.032L931.992 249.152L939.528 226.304H945.864L953.4 249.152L960.36 226.4H968.088ZM980.619 231.44H972.939V224.96H980.619V231.44ZM980.427 260H973.131V234.272H980.427V260ZM1010.85 260H1003.55V245.648C1003.55 243.92 1003.17 242.624 1002.4 241.76C1001.63 240.864 1000.54 240.416 999.136 240.416C997.728 240.416 996.608 240.864 995.776 241.76C994.976 242.624 994.576 243.92 994.576 245.648V260H987.28V234.272H994.576V237.92C994.992 237.376 995.44 236.864 995.92 236.384C996.432 235.872 996.992 235.424 997.6 235.04C998.208 234.656 998.88 234.352 999.616 234.128C1000.35 233.904 1001.18 233.792 1002.11 233.792C1004.9 233.792 1007.04 234.64 1008.54 236.336C1010.08 238.032 1010.85 240.368 1010.85 243.344V260ZM1040.75 260H1033.46V245.648C1033.46 243.92 1033.07 242.624 1032.31 241.76C1031.54 240.864 1030.45 240.416 1029.04 240.416C1027.63 240.416 1026.51 240.864 1025.68 241.76C1024.88 242.624 1024.48 243.92 1024.48 245.648V260H1017.19V234.272H1024.48V237.92C1024.9 237.376 1025.35 236.864 1025.83 236.384C1026.34 235.872 1026.9 235.424 1027.51 235.04C1028.11 234.656 1028.79 234.352 1029.52 234.128C1030.26 233.904 1031.09 233.792 1032.02 233.792C1034.8 233.792 1036.95 234.64 1038.45 236.336C1039.99 238.032 1040.75 240.368 1040.75 243.344V260ZM1071.09 247.856C1071.09 248.208 1071.08 248.512 1071.04 248.768C1071.04 249.024 1071.03 249.328 1071 249.68H1053.09C1053.44 251.344 1054.16 252.608 1055.25 253.472C1056.37 254.304 1057.75 254.72 1059.38 254.72C1060.6 254.72 1061.68 254.512 1062.64 254.096C1063.6 253.68 1064.6 253.008 1065.62 252.08L1069.8 255.776C1068.58 257.28 1067.11 258.464 1065.38 259.328C1063.65 260.16 1061.62 260.576 1059.28 260.576C1057.36 260.576 1055.57 260.256 1053.91 259.616C1052.28 258.976 1050.85 258.064 1049.64 256.88C1048.45 255.696 1047.52 254.304 1046.85 252.704C1046.18 251.072 1045.84 249.264 1045.84 247.28V247.184C1045.84 245.36 1046.15 243.632 1046.76 242C1047.4 240.368 1048.28 238.944 1049.4 237.728C1050.52 236.512 1051.84 235.552 1053.38 234.848C1054.95 234.144 1056.68 233.792 1058.56 233.792C1060.71 233.792 1062.56 234.176 1064.13 234.944C1065.7 235.712 1067 236.752 1068.02 238.064C1069.08 239.344 1069.84 240.832 1070.32 242.528C1070.84 244.192 1071.09 245.936 1071.09 247.76V247.856ZM1063.99 245.12C1063.76 243.488 1063.19 242.176 1062.26 241.184C1061.33 240.16 1060.1 239.648 1058.56 239.648C1057.03 239.648 1055.78 240.144 1054.82 241.136C1053.89 242.128 1053.28 243.456 1053 245.12H1063.99ZM1092.03 241.424H1091.65C1089.22 241.424 1087.3 242.16 1085.89 243.632C1084.51 245.104 1083.83 247.392 1083.83 250.496V260H1076.53V234.272H1083.83V239.456C1084.56 237.696 1085.57 236.288 1086.85 235.232C1088.13 234.176 1089.86 233.696 1092.03 233.792V241.424ZM894.79 288.23C894.79 289.33 894.58 290.38 894.16 291.38C893.76 292.36 893.2 293.22 892.48 293.96C891.76 294.7 890.9 295.29 889.9 295.73C888.9 296.15 887.82 296.36 886.66 296.36C885.5 296.36 884.43 296.15 883.45 295.73C882.47 295.29 881.62 294.71 880.9 293.99C880.18 293.25 879.62 292.39 879.22 291.41C878.82 290.43 878.62 289.39 878.62 288.29C878.62 287.19 878.82 286.15 879.22 285.17C879.62 284.17 880.18 283.3 880.9 282.56C881.62 281.82 882.47 281.24 883.45 280.82C884.45 280.38 885.54 280.16 886.72 280.16C887.88 280.16 888.95 280.38 889.93 280.82C890.93 281.24 891.79 281.82 892.51 282.56C893.23 283.28 893.79 284.13 894.19 285.11C894.59 286.09 894.79 287.13 894.79 288.23ZM892.42 288.29C892.42 287.45 892.27 286.66 891.97 285.92C891.69 285.18 891.29 284.54 890.77 284C890.25 283.44 889.64 283 888.94 282.68C888.24 282.36 887.48 282.2 886.66 282.2C885.82 282.2 885.05 282.36 884.35 282.68C883.65 282.98 883.05 283.41 882.55 283.97C882.07 284.51 881.69 285.15 881.41 285.89C881.13 286.61 880.99 287.39 880.99 288.23C880.99 289.07 881.13 289.86 881.41 290.6C881.71 291.34 882.11 291.98 882.61 292.52C883.13 293.06 883.74 293.49 884.44 293.81C885.14 294.13 885.9 294.29 886.72 294.29C887.56 294.29 888.33 294.14 889.03 293.84C889.73 293.52 890.33 293.09 890.83 292.55C891.33 292.01 891.72 291.38 892 290.66C892.28 289.92 892.42 289.13 892.42 288.29ZM902.125 280.55H907.045V282.53H902.155V296H899.845V282.53H897.715V280.52H899.845V279.17C899.845 277.47 900.245 276.18 901.045 275.3C901.865 274.42 903.025 273.98 904.525 273.98C905.065 273.98 905.525 274.01 905.905 274.07C906.305 274.13 906.695 274.23 907.075 274.37V276.38C906.655 276.26 906.275 276.17 905.935 276.11C905.595 276.03 905.225 275.99 904.825 275.99C903.025 275.99 902.125 277.09 902.125 279.29V280.55ZM927.684 293.09L935.184 275H937.734L928.704 296.15H926.604L917.574 275H920.214L927.684 293.09ZM944.985 282.32C944.065 282.32 943.225 282.43 942.465 282.65C941.725 282.85 940.995 283.12 940.275 283.46L939.585 281.57C940.445 281.17 941.315 280.86 942.195 280.64C943.075 280.4 944.085 280.28 945.225 280.28C947.345 280.28 948.975 280.81 950.115 281.87C951.255 282.91 951.825 284.46 951.825 286.52V296H949.605V293.66C949.065 294.36 948.335 294.98 947.415 295.52C946.515 296.06 945.375 296.33 943.995 296.33C943.275 296.33 942.565 296.23 941.865 296.03C941.185 295.83 940.565 295.53 940.005 295.13C939.465 294.71 939.025 294.2 938.685 293.6C938.365 293 938.205 292.29 938.205 291.47C938.205 290.65 938.365 289.93 938.685 289.31C939.005 288.67 939.455 288.14 940.035 287.72C940.635 287.3 941.335 286.98 942.135 286.76C942.955 286.54 943.855 286.43 944.835 286.43C945.835 286.43 946.705 286.49 947.445 286.61C948.185 286.73 948.905 286.89 949.605 287.09V286.55C949.605 285.15 949.195 284.1 948.375 283.4C947.575 282.68 946.445 282.32 944.985 282.32ZM945.075 288.14C943.615 288.14 942.495 288.43 941.715 289.01C940.935 289.59 940.545 290.38 940.545 291.38C940.545 291.88 940.645 292.32 940.845 292.7C941.065 293.08 941.355 293.41 941.715 293.69C942.075 293.95 942.485 294.15 942.945 294.29C943.425 294.43 943.925 294.5 944.445 294.5C945.165 294.5 945.835 294.4 946.455 294.2C947.095 293.98 947.645 293.69 948.105 293.33C948.585 292.95 948.955 292.51 949.215 292.01C949.495 291.49 949.635 290.92 949.635 290.3V288.8C949.055 288.64 948.385 288.49 947.625 288.35C946.885 288.21 946.035 288.14 945.075 288.14ZM959.058 289.82V296H956.748V280.49H959.058V284.54C959.338 283.9 959.688 283.31 960.108 282.77C960.528 282.23 961.008 281.77 961.548 281.39C962.088 280.99 962.678 280.69 963.318 280.49C963.958 280.29 964.648 280.2 965.388 280.22V282.71H965.208C964.368 282.71 963.568 282.86 962.808 283.16C962.068 283.46 961.418 283.91 960.858 284.51C960.298 285.11 959.858 285.86 959.538 286.76C959.218 287.64 959.058 288.66 959.058 289.82ZM971.606 277.1H968.966V274.55H971.606V277.1ZM971.426 296H969.116V280.49H971.426V296ZM991.997 288.23C991.997 289.33 991.787 290.38 991.367 291.38C990.967 292.36 990.407 293.22 989.687 293.96C988.967 294.7 988.107 295.29 987.107 295.73C986.107 296.15 985.027 296.36 983.867 296.36C982.707 296.36 981.637 296.15 980.657 295.73C979.677 295.29 978.827 294.71 978.107 293.99C977.387 293.25 976.827 292.39 976.427 291.41C976.027 290.43 975.827 289.39 975.827 288.29C975.827 287.19 976.027 286.15 976.427 285.17C976.827 284.17 977.387 283.3 978.107 282.56C978.827 281.82 979.677 281.24 980.657 280.82C981.657 280.38 982.747 280.16 983.927 280.16C985.087 280.16 986.157 280.38 987.137 280.82C988.137 281.24 988.997 281.82 989.717 282.56C990.437 283.28 990.997 284.13 991.397 285.11C991.797 286.09 991.997 287.13 991.997 288.23ZM989.627 288.29C989.627 287.45 989.477 286.66 989.177 285.92C988.897 285.18 988.497 284.54 987.977 284C987.457 283.44 986.847 283 986.147 282.68C985.447 282.36 984.687 282.2 983.867 282.2C983.027 282.2 982.257 282.36 981.557 282.68C980.857 282.98 980.257 283.41 979.757 283.97C979.277 284.51 978.897 285.15 978.617 285.89C978.337 286.61 978.197 287.39 978.197 288.23C978.197 289.07 978.337 289.86 978.617 290.6C978.917 291.34 979.317 291.98 979.817 292.52C980.337 293.06 980.947 293.49 981.647 293.81C982.347 294.13 983.107 294.29 983.927 294.29C984.767 294.29 985.537 294.14 986.237 293.84C986.937 293.52 987.537 293.09 988.037 292.55C988.537 292.01 988.927 291.38 989.207 290.66C989.487 289.92 989.627 289.13 989.627 288.29ZM1007.19 289.37V280.49H1009.47V296H1007.19V293.3C1006.67 294.14 1005.99 294.86 1005.15 295.46C1004.31 296.04 1003.22 296.33 1001.88 296.33C1000.94 296.33 1000.1 296.18 999.362 295.88C998.642 295.58 998.022 295.16 997.502 294.62C997.002 294.06 996.612 293.4 996.332 292.64C996.072 291.88 995.942 291.04 995.942 290.12V280.49H998.252V289.55C998.252 290.99 998.622 292.13 999.362 292.97C1000.1 293.81 1001.16 294.23 1002.54 294.23C1003.2 294.23 1003.81 294.12 1004.37 293.9C1004.95 293.66 1005.44 293.33 1005.84 292.91C1006.26 292.47 1006.59 291.95 1006.83 291.35C1007.07 290.75 1007.19 290.09 1007.19 289.37ZM1025.32 291.65C1025.32 292.39 1025.17 293.05 1024.87 293.63C1024.59 294.19 1024.2 294.67 1023.7 295.07C1023.22 295.47 1022.64 295.78 1021.96 296C1021.3 296.2 1020.58 296.3 1019.8 296.3C1018.68 296.3 1017.55 296.1 1016.41 295.7C1015.27 295.28 1014.26 294.72 1013.38 294.02L1014.55 292.37C1015.39 293.01 1016.26 293.5 1017.16 293.84C1018.08 294.18 1019 294.35 1019.92 294.35C1020.86 294.35 1021.63 294.13 1022.23 293.69C1022.83 293.25 1023.13 292.65 1023.13 291.89V291.83C1023.13 291.45 1023.02 291.12 1022.8 290.84C1022.6 290.56 1022.32 290.32 1021.96 290.12C1021.6 289.9 1021.18 289.71 1020.7 289.55C1020.24 289.39 1019.76 289.24 1019.26 289.1C1018.66 288.92 1018.05 288.73 1017.43 288.53C1016.83 288.31 1016.28 288.04 1015.78 287.72C1015.3 287.4 1014.9 287 1014.58 286.52C1014.28 286.04 1014.13 285.44 1014.13 284.72V284.66C1014.13 284 1014.26 283.4 1014.52 282.86C1014.78 282.3 1015.14 281.83 1015.6 281.45C1016.08 281.05 1016.64 280.75 1017.28 280.55C1017.94 280.33 1018.65 280.22 1019.41 280.22C1020.37 280.22 1021.34 280.38 1022.32 280.7C1023.3 281 1024.19 281.41 1024.99 281.93L1023.94 283.67C1023.22 283.21 1022.46 282.85 1021.66 282.59C1020.88 282.31 1020.11 282.17 1019.35 282.17C1018.43 282.17 1017.7 282.39 1017.16 282.83C1016.62 283.25 1016.35 283.78 1016.35 284.42V284.48C1016.35 284.84 1016.46 285.16 1016.68 285.44C1016.9 285.7 1017.19 285.93 1017.55 286.13C1017.93 286.33 1018.36 286.51 1018.84 286.67C1019.32 286.83 1019.82 286.99 1020.34 287.15C1020.94 287.33 1021.53 287.53 1022.11 287.75C1022.71 287.97 1023.25 288.25 1023.73 288.59C1024.21 288.93 1024.59 289.34 1024.87 289.82C1025.17 290.3 1025.32 290.89 1025.32 291.59V291.65ZM1057.17 293.15C1056.19 294.03 1054.98 294.79 1053.54 295.43C1052.12 296.05 1050.52 296.36 1048.74 296.36C1047.08 296.36 1045.59 296.08 1044.27 295.52C1042.97 294.96 1041.85 294.19 1040.91 293.21C1039.99 292.23 1039.28 291.08 1038.78 289.76C1038.3 288.44 1038.06 287.03 1038.06 285.53C1038.06 284.09 1038.31 282.71 1038.81 281.39C1039.33 280.07 1040.05 278.91 1040.97 277.91C1041.89 276.91 1042.99 276.12 1044.27 275.54C1045.57 274.94 1047.01 274.64 1048.59 274.64C1049.47 274.64 1050.27 274.7 1050.99 274.82C1051.73 274.94 1052.41 275.12 1053.03 275.36C1053.67 275.6 1054.26 275.9 1054.8 276.26C1055.36 276.6 1055.9 276.99 1056.42 277.43L1054.89 279.23C1054.49 278.87 1054.07 278.55 1053.63 278.27C1053.19 277.97 1052.71 277.72 1052.19 277.52C1051.69 277.3 1051.13 277.13 1050.51 277.01C1049.91 276.89 1049.24 276.83 1048.5 276.83C1047.34 276.83 1046.27 277.06 1045.29 277.52C1044.31 277.98 1043.47 278.6 1042.77 279.38C1042.07 280.16 1041.52 281.08 1041.12 282.14C1040.72 283.18 1040.52 284.29 1040.52 285.47C1040.52 286.73 1040.71 287.9 1041.09 288.98C1041.49 290.04 1042.05 290.96 1042.77 291.74C1043.49 292.52 1044.36 293.13 1045.38 293.57C1046.4 294.01 1047.55 294.23 1048.83 294.23C1050.03 294.23 1051.16 294.03 1052.22 293.63C1053.28 293.21 1054.17 292.71 1054.89 292.13V286.91H1048.5V284.78H1057.17V293.15ZM1064.65 296H1062.34V274.1H1064.65V296ZM1085.22 288.23C1085.22 289.33 1085.01 290.38 1084.59 291.38C1084.19 292.36 1083.63 293.22 1082.91 293.96C1082.19 294.7 1081.33 295.29 1080.33 295.73C1079.33 296.15 1078.25 296.36 1077.09 296.36C1075.93 296.36 1074.86 296.15 1073.88 295.73C1072.9 295.29 1072.05 294.71 1071.33 293.99C1070.61 293.25 1070.05 292.39 1069.65 291.41C1069.25 290.43 1069.05 289.39 1069.05 288.29C1069.05 287.19 1069.25 286.15 1069.65 285.17C1070.05 284.17 1070.61 283.3 1071.33 282.56C1072.05 281.82 1072.9 281.24 1073.88 280.82C1074.88 280.38 1075.97 280.16 1077.15 280.16C1078.31 280.16 1079.38 280.38 1080.36 280.82C1081.36 281.24 1082.22 281.82 1082.94 282.56C1083.66 283.28 1084.22 284.13 1084.62 285.11C1085.02 286.09 1085.22 287.13 1085.22 288.23ZM1082.85 288.29C1082.85 287.45 1082.7 286.66 1082.4 285.92C1082.12 285.18 1081.72 284.54 1081.2 284C1080.68 283.44 1080.07 283 1079.37 282.68C1078.67 282.36 1077.91 282.2 1077.09 282.2C1076.25 282.2 1075.48 282.36 1074.78 282.68C1074.08 282.98 1073.48 283.41 1072.98 283.97C1072.5 284.51 1072.12 285.15 1071.84 285.89C1071.56 286.61 1071.42 287.39 1071.42 288.23C1071.42 289.07 1071.56 289.86 1071.84 290.6C1072.14 291.34 1072.54 291.98 1073.04 292.52C1073.56 293.06 1074.17 293.49 1074.87 293.81C1075.57 294.13 1076.33 294.29 1077.15 294.29C1077.99 294.29 1078.76 294.14 1079.46 293.84C1080.16 293.52 1080.76 293.09 1081.26 292.55C1081.76 292.01 1082.15 291.38 1082.43 290.66C1082.71 289.92 1082.85 289.13 1082.85 288.29ZM1105.06 288.23C1105.06 289.51 1104.85 290.65 1104.43 291.65C1104.01 292.65 1103.45 293.5 1102.75 294.2C1102.07 294.88 1101.28 295.41 1100.38 295.79C1099.5 296.15 1098.59 296.33 1097.65 296.33C1096.93 296.33 1096.27 296.24 1095.67 296.06C1095.07 295.88 1094.53 295.64 1094.05 295.34C1093.57 295.04 1093.13 294.69 1092.73 294.29C1092.35 293.89 1092.01 293.47 1091.71 293.03V296H1089.4V274.1H1091.71V283.61C1092.03 283.15 1092.38 282.71 1092.76 282.29C1093.16 281.87 1093.6 281.51 1094.08 281.21C1094.56 280.89 1095.09 280.64 1095.67 280.46C1096.27 280.26 1096.93 280.16 1097.65 280.16C1098.57 280.16 1099.47 280.34 1100.35 280.7C1101.25 281.06 1102.05 281.59 1102.75 282.29C1103.45 282.97 1104.01 283.81 1104.43 284.81C1104.85 285.81 1105.06 286.95 1105.06 288.23ZM1102.69 288.26C1102.69 287.34 1102.54 286.51 1102.24 285.77C1101.96 285.03 1101.57 284.4 1101.07 283.88C1100.57 283.34 1099.99 282.93 1099.33 282.65C1098.67 282.37 1097.97 282.23 1097.23 282.23C1096.51 282.23 1095.81 282.38 1095.13 282.68C1094.47 282.96 1093.87 283.36 1093.33 283.88C1092.81 284.4 1092.39 285.03 1092.07 285.77C1091.77 286.51 1091.62 287.33 1091.62 288.23C1091.62 289.13 1091.77 289.96 1092.07 290.72C1092.39 291.46 1092.81 292.09 1093.33 292.61C1093.87 293.13 1094.47 293.54 1095.13 293.84C1095.81 294.12 1096.51 294.26 1097.23 294.26C1097.97 294.26 1098.67 294.13 1099.33 293.87C1100.01 293.59 1100.59 293.2 1101.07 292.7C1101.57 292.18 1101.96 291.55 1102.24 290.81C1102.54 290.05 1102.69 289.2 1102.69 288.26ZM1114.94 282.32C1114.02 282.32 1113.18 282.43 1112.42 282.65C1111.68 282.85 1110.95 283.12 1110.23 283.46L1109.54 281.57C1110.4 281.17 1111.27 280.86 1112.15 280.64C1113.03 280.4 1114.04 280.28 1115.18 280.28C1117.3 280.28 1118.93 280.81 1120.07 281.87C1121.21 282.91 1121.78 284.46 1121.78 286.52V296H1119.56V293.66C1119.02 294.36 1118.29 294.98 1117.37 295.52C1116.47 296.06 1115.33 296.33 1113.95 296.33C1113.23 296.33 1112.52 296.23 1111.82 296.03C1111.14 295.83 1110.52 295.53 1109.96 295.13C1109.42 294.71 1108.98 294.2 1108.64 293.6C1108.32 293 1108.16 292.29 1108.16 291.47C1108.16 290.65 1108.32 289.93 1108.64 289.31C1108.96 288.67 1109.41 288.14 1109.99 287.72C1110.59 287.3 1111.29 286.98 1112.09 286.76C1112.91 286.54 1113.81 286.43 1114.79 286.43C1115.79 286.43 1116.66 286.49 1117.4 286.61C1118.14 286.73 1118.86 286.89 1119.56 287.09V286.55C1119.56 285.15 1119.15 284.1 1118.33 283.4C1117.53 282.68 1116.4 282.32 1114.94 282.32ZM1115.03 288.14C1113.57 288.14 1112.45 288.43 1111.67 289.01C1110.89 289.59 1110.5 290.38 1110.5 291.38C1110.5 291.88 1110.6 292.32 1110.8 292.7C1111.02 293.08 1111.31 293.41 1111.67 293.69C1112.03 293.95 1112.44 294.15 1112.9 294.29C1113.38 294.43 1113.88 294.5 1114.4 294.5C1115.12 294.5 1115.79 294.4 1116.41 294.2C1117.05 293.98 1117.6 293.69 1118.06 293.33C1118.54 292.95 1118.91 292.51 1119.17 292.01C1119.45 291.49 1119.59 290.92 1119.59 290.3V288.8C1119.01 288.64 1118.34 288.49 1117.58 288.35C1116.84 288.21 1115.99 288.14 1115.03 288.14ZM1129.22 296H1126.91V274.1H1129.22V296ZM943.541 328.67C943.001 329.23 942.431 329.74 941.831 330.2C941.251 330.64 940.621 331.02 939.941 331.34C939.261 331.66 938.531 331.91 937.751 332.09C936.971 332.27 936.101 332.36 935.141 332.36C933.621 332.36 932.221 332.08 930.941 331.52C929.661 330.96 928.551 330.2 927.611 329.24C926.671 328.26 925.931 327.11 925.391 325.79C924.871 324.47 924.611 323.05 924.611 321.53C924.611 320.03 924.871 318.62 925.391 317.3C925.931 315.98 926.671 314.83 927.611 313.85C928.551 312.85 929.671 312.07 930.971 311.51C932.271 310.93 933.691 310.64 935.231 310.64C936.191 310.64 937.051 310.72 937.811 310.88C938.591 311.04 939.311 311.27 939.971 311.57C940.631 311.85 941.241 312.2 941.801 312.62C942.361 313.02 942.901 313.47 943.421 313.97L941.801 315.71C940.901 314.87 939.931 314.18 938.891 313.64C937.871 313.1 936.641 312.83 935.201 312.83C934.041 312.83 932.961 313.05 931.961 313.49C930.981 313.93 930.121 314.54 929.381 315.32C928.661 316.1 928.091 317.02 927.671 318.08C927.271 319.12 927.071 320.25 927.071 321.47C927.071 322.69 927.271 323.83 927.671 324.89C928.091 325.95 928.661 326.87 929.381 327.65C930.121 328.43 930.981 329.05 931.961 329.51C932.961 329.95 934.041 330.17 935.201 330.17C936.641 330.17 937.881 329.91 938.921 329.39C939.961 328.85 940.981 328.1 941.981 327.14L943.541 328.67ZM964.797 332H961.977L955.257 322.97L948.537 332H945.807L953.877 321.29L946.107 311H948.897L955.347 319.58L961.737 311H964.497L956.727 321.26L964.797 332ZM988.119 310.85L997.689 332H995.139L992.679 326.45H981.249L978.759 332H976.329L985.899 310.85H988.119ZM991.749 324.32L986.979 313.61L982.179 324.32H991.749ZM1011.31 316.43L1015.51 328.94L1019.59 316.49H1021.99L1016.53 332.12H1014.52L1010.35 319.88L1006.15 332.12H1004.11L998.685 316.49H1001.14L1005.22 328.94L1009.39 316.43H1011.31ZM1030.87 318.32C1029.95 318.32 1029.11 318.43 1028.35 318.65C1027.61 318.85 1026.88 319.12 1026.16 319.46L1025.47 317.57C1026.33 317.17 1027.2 316.86 1028.08 316.64C1028.96 316.4 1029.97 316.28 1031.11 316.28C1033.23 316.28 1034.86 316.81 1036 317.87C1037.14 318.91 1037.71 320.46 1037.71 322.52V332H1035.49V329.66C1034.95 330.36 1034.22 330.98 1033.3 331.52C1032.4 332.06 1031.26 332.33 1029.88 332.33C1029.16 332.33 1028.45 332.23 1027.75 332.03C1027.07 331.83 1026.45 331.53 1025.89 331.13C1025.35 330.71 1024.91 330.2 1024.57 329.6C1024.25 329 1024.09 328.29 1024.09 327.47C1024.09 326.65 1024.25 325.93 1024.57 325.31C1024.89 324.67 1025.34 324.14 1025.92 323.72C1026.52 323.3 1027.22 322.98 1028.02 322.76C1028.84 322.54 1029.74 322.43 1030.72 322.43C1031.72 322.43 1032.59 322.49 1033.33 322.61C1034.07 322.73 1034.79 322.89 1035.49 323.09V322.55C1035.49 321.15 1035.08 320.1 1034.26 319.4C1033.46 318.68 1032.33 318.32 1030.87 318.32ZM1030.96 324.14C1029.5 324.14 1028.38 324.43 1027.6 325.01C1026.82 325.59 1026.43 326.38 1026.43 327.38C1026.43 327.88 1026.53 328.32 1026.73 328.7C1026.95 329.08 1027.24 329.41 1027.6 329.69C1027.96 329.95 1028.37 330.15 1028.83 330.29C1029.31 330.43 1029.81 330.5 1030.33 330.5C1031.05 330.5 1031.72 330.4 1032.34 330.2C1032.98 329.98 1033.53 329.69 1033.99 329.33C1034.47 328.95 1034.84 328.51 1035.1 328.01C1035.38 327.49 1035.52 326.92 1035.52 326.3V324.8C1034.94 324.64 1034.27 324.49 1033.51 324.35C1032.77 324.21 1031.92 324.14 1030.96 324.14ZM1044.94 325.82V332H1042.63V316.49H1044.94V320.54C1045.22 319.9 1045.57 319.31 1045.99 318.77C1046.41 318.23 1046.89 317.77 1047.43 317.39C1047.97 316.99 1048.56 316.69 1049.2 316.49C1049.84 316.29 1050.53 316.2 1051.27 316.22V318.71H1051.09C1050.25 318.71 1049.45 318.86 1048.69 319.16C1047.95 319.46 1047.3 319.91 1046.74 320.51C1046.18 321.11 1045.74 321.86 1045.42 322.76C1045.1 323.64 1044.94 324.66 1044.94 325.82ZM1068.91 332H1066.6V328.88C1066.28 329.34 1065.92 329.78 1065.52 330.2C1065.14 330.62 1064.71 330.99 1064.23 331.31C1063.75 331.63 1063.21 331.88 1062.61 332.06C1062.03 332.24 1061.38 332.33 1060.66 332.33C1059.72 332.33 1058.81 332.15 1057.93 331.79C1057.05 331.43 1056.26 330.91 1055.56 330.23C1054.86 329.53 1054.3 328.68 1053.88 327.68C1053.46 326.68 1053.25 325.54 1053.25 324.26C1053.25 322.98 1053.46 321.84 1053.88 320.84C1054.3 319.84 1054.86 319 1055.56 318.32C1056.26 317.62 1057.05 317.09 1057.93 316.73C1058.81 316.35 1059.72 316.16 1060.66 316.16C1061.38 316.16 1062.04 316.25 1062.64 316.43C1063.24 316.61 1063.78 316.85 1064.26 317.15C1064.74 317.45 1065.17 317.8 1065.55 318.2C1065.95 318.6 1066.3 319.02 1066.6 319.46V310.1H1068.91V332ZM1066.69 324.23C1066.69 323.33 1066.53 322.51 1066.21 321.77C1065.91 321.03 1065.49 320.4 1064.95 319.88C1064.43 319.36 1063.83 318.96 1063.15 318.68C1062.49 318.38 1061.8 318.23 1061.08 318.23C1060.32 318.23 1059.61 318.37 1058.95 318.65C1058.29 318.91 1057.71 319.3 1057.21 319.82C1056.73 320.32 1056.34 320.95 1056.04 321.71C1055.76 322.45 1055.62 323.29 1055.62 324.23C1055.62 325.15 1055.76 325.98 1056.04 326.72C1056.34 327.46 1056.74 328.1 1057.24 328.64C1057.74 329.16 1058.32 329.56 1058.98 329.84C1059.64 330.12 1060.34 330.26 1061.08 330.26C1061.8 330.26 1062.49 330.12 1063.15 329.84C1063.83 329.54 1064.43 329.13 1064.95 328.61C1065.49 328.09 1065.91 327.46 1066.21 326.72C1066.53 325.96 1066.69 325.13 1066.69 324.23ZM1084.72 327.65C1084.72 328.39 1084.57 329.05 1084.27 329.63C1083.99 330.19 1083.6 330.67 1083.1 331.07C1082.62 331.47 1082.04 331.78 1081.36 332C1080.7 332.2 1079.98 332.3 1079.2 332.3C1078.08 332.3 1076.95 332.1 1075.81 331.7C1074.67 331.28 1073.66 330.72 1072.78 330.02L1073.95 328.37C1074.79 329.01 1075.66 329.5 1076.56 329.84C1077.48 330.18 1078.4 330.35 1079.32 330.35C1080.26 330.35 1081.03 330.13 1081.63 329.69C1082.23 329.25 1082.53 328.65 1082.53 327.89V327.83C1082.53 327.45 1082.42 327.12 1082.2 326.84C1082 326.56 1081.72 326.32 1081.36 326.12C1081 325.9 1080.58 325.71 1080.1 325.55C1079.64 325.39 1079.16 325.24 1078.66 325.1C1078.06 324.92 1077.45 324.73 1076.83 324.53C1076.23 324.31 1075.68 324.04 1075.18 323.72C1074.7 323.4 1074.3 323 1073.98 322.52C1073.68 322.04 1073.53 321.44 1073.53 320.72V320.66C1073.53 320 1073.66 319.4 1073.92 318.86C1074.18 318.3 1074.54 317.83 1075 317.45C1075.48 317.05 1076.04 316.75 1076.68 316.55C1077.34 316.33 1078.05 316.22 1078.81 316.22C1079.77 316.22 1080.74 316.38 1081.72 316.7C1082.7 317 1083.59 317.41 1084.39 317.93L1083.34 319.67C1082.62 319.21 1081.86 318.85 1081.06 318.59C1080.28 318.31 1079.51 318.17 1078.75 318.17C1077.83 318.17 1077.1 318.39 1076.56 318.83C1076.02 319.25 1075.75 319.78 1075.75 320.42V320.48C1075.75 320.84 1075.86 321.16 1076.08 321.44C1076.3 321.7 1076.59 321.93 1076.95 322.13C1077.33 322.33 1077.76 322.51 1078.24 322.67C1078.72 322.83 1079.22 322.99 1079.74 323.15C1080.34 323.33 1080.93 323.53 1081.51 323.75C1082.11 323.97 1082.65 324.25 1083.13 324.59C1083.61 324.93 1083.99 325.34 1084.27 325.82C1084.57 326.3 1084.72 326.89 1084.72 327.59V327.65Z" fill="#AD3088"/>
<path d="M236.496 111.74C236.136 112.127 235.762 112.473 235.376 112.78C234.989 113.087 234.562 113.353 234.096 113.58C233.642 113.793 233.142 113.953 232.596 114.06C232.049 114.18 231.436 114.24 230.756 114.24C229.729 114.24 228.776 114.053 227.896 113.68C227.016 113.307 226.256 112.8 225.616 112.16C224.976 111.507 224.476 110.74 224.116 109.86C223.756 108.98 223.576 108.04 223.576 107.04V107C223.576 106 223.756 105.067 224.116 104.2C224.476 103.32 224.976 102.553 225.616 101.9C226.256 101.233 227.022 100.713 227.916 100.34C228.809 99.9533 229.796 99.76 230.876 99.76C231.529 99.76 232.122 99.8133 232.656 99.92C233.202 100.027 233.696 100.173 234.136 100.36C234.576 100.547 234.982 100.773 235.356 101.04C235.729 101.307 236.076 101.6 236.396 101.92L234.436 104.18C233.889 103.687 233.329 103.3 232.756 103.02C232.196 102.74 231.562 102.6 230.856 102.6C230.269 102.6 229.722 102.713 229.216 102.94C228.722 103.167 228.296 103.48 227.936 103.88C227.576 104.28 227.296 104.747 227.096 105.28C226.896 105.8 226.796 106.36 226.796 106.96V107C226.796 107.6 226.896 108.167 227.096 108.7C227.296 109.233 227.569 109.7 227.916 110.1C228.276 110.5 228.702 110.82 229.196 111.06C229.702 111.287 230.256 111.4 230.856 111.4C231.656 111.4 232.329 111.253 232.876 110.96C233.436 110.667 233.989 110.267 234.536 109.76L236.496 111.74ZM248.381 114H245.341V112.48C245.168 112.707 244.975 112.927 244.761 113.14C244.561 113.34 244.335 113.52 244.081 113.68C243.828 113.84 243.548 113.967 243.241 114.06C242.935 114.153 242.588 114.2 242.201 114.2C241.041 114.2 240.141 113.847 239.501 113.14C238.875 112.433 238.561 111.46 238.561 110.22V103.28H241.601V109.26C241.601 109.98 241.761 110.527 242.081 110.9C242.401 111.26 242.855 111.44 243.441 111.44C244.028 111.44 244.488 111.26 244.821 110.9C245.168 110.527 245.341 109.98 245.341 109.26V103.28H248.381V114ZM258.962 110.74C258.962 111.34 258.856 111.86 258.642 112.3C258.442 112.727 258.156 113.08 257.782 113.36C257.409 113.64 256.969 113.853 256.462 114C255.969 114.133 255.436 114.2 254.862 114.2C254.102 114.2 253.322 114.073 252.522 113.82C251.736 113.553 250.982 113.14 250.262 112.58L251.562 110.58C252.149 111.007 252.729 111.327 253.302 111.54C253.889 111.753 254.436 111.86 254.942 111.86C255.382 111.86 255.702 111.787 255.902 111.64C256.116 111.493 256.222 111.3 256.222 111.06V111.02C256.222 110.86 256.162 110.72 256.042 110.6C255.922 110.48 255.756 110.38 255.542 110.3C255.342 110.207 255.109 110.12 254.842 110.04C254.576 109.96 254.296 109.873 254.002 109.78C253.629 109.673 253.249 109.547 252.862 109.4C252.489 109.24 252.149 109.04 251.842 108.8C251.536 108.547 251.282 108.24 251.082 107.88C250.896 107.52 250.802 107.08 250.802 106.56V106.52C250.802 105.973 250.902 105.493 251.102 105.08C251.316 104.653 251.596 104.293 251.942 104C252.302 103.707 252.716 103.487 253.182 103.34C253.662 103.193 254.176 103.12 254.722 103.12C255.402 103.12 256.089 103.233 256.782 103.46C257.489 103.673 258.136 103.973 258.722 104.36L257.562 106.46C257.029 106.153 256.509 105.913 256.002 105.74C255.496 105.553 255.049 105.46 254.662 105.46C254.289 105.46 254.009 105.533 253.822 105.68C253.636 105.813 253.542 105.987 253.542 106.2V106.24C253.542 106.387 253.602 106.52 253.722 106.64C253.842 106.747 254.002 106.853 254.202 106.96C254.402 107.053 254.629 107.147 254.882 107.24C255.149 107.333 255.429 107.427 255.722 107.52C256.096 107.64 256.476 107.787 256.862 107.96C257.249 108.12 257.596 108.32 257.902 108.56C258.209 108.8 258.462 109.093 258.662 109.44C258.862 109.787 258.962 110.207 258.962 110.7V110.74ZM267.161 113.56C266.841 113.747 266.488 113.893 266.101 114C265.715 114.12 265.268 114.18 264.761 114.18C264.295 114.18 263.868 114.127 263.481 114.02C263.108 113.927 262.781 113.753 262.501 113.5C262.235 113.247 262.021 112.92 261.861 112.52C261.715 112.107 261.641 111.587 261.641 110.96V105.88H260.361V103.28H261.641V100.54H264.681V103.28H267.201V105.88H264.681V110.46C264.681 111.153 265.008 111.5 265.661 111.5C266.195 111.5 266.695 111.373 267.161 111.12V113.56ZM280.522 108.66C280.522 109.433 280.375 110.16 280.082 110.84C279.789 111.507 279.382 112.093 278.862 112.6C278.342 113.107 277.729 113.507 277.022 113.8C276.315 114.093 275.542 114.24 274.702 114.24C273.875 114.24 273.109 114.1 272.402 113.82C271.695 113.527 271.082 113.133 270.562 112.64C270.055 112.133 269.655 111.547 269.362 110.88C269.069 110.2 268.922 109.473 268.922 108.7V108.66C268.922 107.887 269.069 107.167 269.362 106.5C269.655 105.82 270.062 105.227 270.582 104.72C271.102 104.213 271.715 103.813 272.422 103.52C273.129 103.227 273.902 103.08 274.742 103.08C275.569 103.08 276.335 103.227 277.042 103.52C277.749 103.8 278.355 104.193 278.862 104.7C279.382 105.193 279.789 105.78 280.082 106.46C280.375 107.127 280.522 107.847 280.522 108.62V108.66ZM277.522 108.7V108.66C277.522 108.26 277.455 107.887 277.322 107.54C277.189 107.18 276.995 106.867 276.742 106.6C276.489 106.32 276.189 106.1 275.842 105.94C275.495 105.78 275.115 105.7 274.702 105.7C274.262 105.7 273.869 105.78 273.522 105.94C273.189 106.087 272.902 106.293 272.662 106.56C272.422 106.827 272.235 107.14 272.102 107.5C271.982 107.847 271.922 108.22 271.922 108.62V108.66C271.922 109.06 271.989 109.44 272.122 109.8C272.255 110.147 272.449 110.46 272.702 110.74C272.955 111.007 273.249 111.22 273.582 111.38C273.929 111.54 274.315 111.62 274.742 111.62C275.182 111.62 275.569 111.547 275.902 111.4C276.249 111.24 276.542 111.027 276.782 110.76C277.022 110.493 277.202 110.187 277.322 109.84C277.455 109.48 277.522 109.1 277.522 108.7ZM299.083 114H296.043V108.02C296.043 107.3 295.89 106.76 295.583 106.4C295.277 106.027 294.837 105.84 294.263 105.84C293.69 105.84 293.237 106.027 292.903 106.4C292.583 106.76 292.423 107.3 292.423 108.02V114H289.383V108.02C289.383 107.3 289.23 106.76 288.923 106.4C288.617 106.027 288.177 105.84 287.603 105.84C287.03 105.84 286.577 106.027 286.243 106.4C285.923 106.76 285.763 107.3 285.763 108.02V114H282.723V103.28H285.763V104.8C285.937 104.573 286.123 104.36 286.323 104.16C286.537 103.947 286.77 103.76 287.023 103.6C287.277 103.44 287.557 103.313 287.863 103.22C288.183 103.127 288.537 103.08 288.923 103.08C289.63 103.08 290.237 103.227 290.743 103.52C291.263 103.813 291.663 104.233 291.943 104.78C292.41 104.22 292.93 103.8 293.503 103.52C294.077 103.227 294.73 103.08 295.463 103.08C296.597 103.08 297.483 103.413 298.123 104.08C298.763 104.747 299.083 105.727 299.083 107.02V114ZM311.727 108.94C311.727 109.087 311.721 109.213 311.707 109.32C311.707 109.427 311.701 109.553 311.687 109.7H304.227C304.374 110.393 304.674 110.92 305.127 111.28C305.594 111.627 306.167 111.8 306.847 111.8C307.354 111.8 307.807 111.713 308.207 111.54C308.607 111.367 309.021 111.087 309.447 110.7L311.187 112.24C310.681 112.867 310.067 113.36 309.347 113.72C308.627 114.067 307.781 114.24 306.807 114.24C306.007 114.24 305.261 114.107 304.567 113.84C303.887 113.573 303.294 113.193 302.787 112.7C302.294 112.207 301.907 111.627 301.627 110.96C301.347 110.28 301.207 109.527 301.207 108.7V108.66C301.207 107.9 301.334 107.18 301.587 106.5C301.854 105.82 302.221 105.227 302.687 104.72C303.154 104.213 303.707 103.813 304.347 103.52C305.001 103.227 305.721 103.08 306.507 103.08C307.401 103.08 308.174 103.24 308.827 103.56C309.481 103.88 310.021 104.313 310.447 104.86C310.887 105.393 311.207 106.013 311.407 106.72C311.621 107.413 311.727 108.14 311.727 108.9V108.94ZM308.767 107.8C308.674 107.12 308.434 106.573 308.047 106.16C307.661 105.733 307.147 105.52 306.507 105.52C305.867 105.52 305.347 105.727 304.947 106.14C304.561 106.553 304.307 107.107 304.187 107.8H308.767ZM320.453 106.26H320.293C319.279 106.26 318.479 106.567 317.893 107.18C317.319 107.793 317.033 108.747 317.033 110.04V114H313.993V103.28H317.033V105.44C317.339 104.707 317.759 104.12 318.293 103.68C318.826 103.24 319.546 103.04 320.453 103.08V106.26ZM340.768 114H337.168L334.168 109.52H331.748V114H328.668V100H335.068C336.735 100 338.028 100.407 338.948 101.22C339.882 102.033 340.348 103.167 340.348 104.62V104.66C340.348 105.793 340.068 106.72 339.508 107.44C338.962 108.147 338.242 108.667 337.348 109L340.768 114ZM337.228 104.82V104.78C337.228 104.113 337.015 103.613 336.588 103.28C336.162 102.947 335.568 102.78 334.808 102.78H331.748V106.8H334.868C335.628 106.8 336.208 106.62 336.608 106.26C337.022 105.9 337.228 105.42 337.228 104.82ZM352.801 108.94C352.801 109.087 352.795 109.213 352.781 109.32C352.781 109.427 352.775 109.553 352.761 109.7H345.301C345.448 110.393 345.748 110.92 346.201 111.28C346.668 111.627 347.241 111.8 347.921 111.8C348.428 111.8 348.881 111.713 349.281 111.54C349.681 111.367 350.095 111.087 350.521 110.7L352.261 112.24C351.755 112.867 351.141 113.36 350.421 113.72C349.701 114.067 348.855 114.24 347.881 114.24C347.081 114.24 346.335 114.107 345.641 113.84C344.961 113.573 344.368 113.193 343.861 112.7C343.368 112.207 342.981 111.627 342.701 110.96C342.421 110.28 342.281 109.527 342.281 108.7V108.66C342.281 107.9 342.408 107.18 342.661 106.5C342.928 105.82 343.295 105.227 343.761 104.72C344.228 104.213 344.781 103.813 345.421 103.52C346.075 103.227 346.795 103.08 347.581 103.08C348.475 103.08 349.248 103.24 349.901 103.56C350.555 103.88 351.095 104.313 351.521 104.86C351.961 105.393 352.281 106.013 352.481 106.72C352.695 107.413 352.801 108.14 352.801 108.9V108.94ZM349.841 107.8C349.748 107.12 349.508 106.573 349.121 106.16C348.735 105.733 348.221 105.52 347.581 105.52C346.941 105.52 346.421 105.727 346.021 106.14C345.635 106.553 345.381 107.107 345.261 107.8H349.841ZM364.507 112.28C363.987 112.853 363.394 113.327 362.727 113.7C362.06 114.06 361.194 114.24 360.127 114.24C359.327 114.24 358.58 114.093 357.887 113.8C357.207 113.507 356.62 113.113 356.127 112.62C355.634 112.113 355.247 111.527 354.967 110.86C354.687 110.18 354.547 109.46 354.547 108.7V108.66C354.547 107.9 354.687 107.18 354.967 106.5C355.247 105.82 355.634 105.227 356.127 104.72C356.62 104.213 357.207 103.813 357.887 103.52C358.58 103.227 359.34 103.08 360.167 103.08C361.18 103.08 362.02 103.24 362.687 103.56C363.354 103.88 363.94 104.32 364.447 104.88L362.587 106.88C362.24 106.52 361.88 106.233 361.507 106.02C361.147 105.807 360.694 105.7 360.147 105.7C359.76 105.7 359.407 105.78 359.087 105.94C358.78 106.087 358.507 106.293 358.267 106.56C358.04 106.827 357.86 107.14 357.727 107.5C357.607 107.847 357.547 108.22 357.547 108.62V108.66C357.547 109.073 357.607 109.46 357.727 109.82C357.86 110.18 358.047 110.493 358.287 110.76C358.527 111.027 358.814 111.24 359.147 111.4C359.48 111.547 359.854 111.62 360.267 111.62C360.774 111.62 361.214 111.52 361.587 111.32C361.974 111.107 362.354 110.827 362.727 110.48L364.507 112.28ZM377.573 108.66C377.573 109.433 377.426 110.16 377.133 110.84C376.839 111.507 376.433 112.093 375.913 112.6C375.393 113.107 374.779 113.507 374.073 113.8C373.366 114.093 372.593 114.24 371.753 114.24C370.926 114.24 370.159 114.1 369.453 113.82C368.746 113.527 368.133 113.133 367.613 112.64C367.106 112.133 366.706 111.547 366.413 110.88C366.119 110.2 365.973 109.473 365.973 108.7V108.66C365.973 107.887 366.119 107.167 366.413 106.5C366.706 105.82 367.113 105.227 367.633 104.72C368.153 104.213 368.766 103.813 369.473 103.52C370.179 103.227 370.953 103.08 371.793 103.08C372.619 103.08 373.386 103.227 374.093 103.52C374.799 103.8 375.406 104.193 375.913 104.7C376.433 105.193 376.839 105.78 377.133 106.46C377.426 107.127 377.573 107.847 377.573 108.62V108.66ZM374.573 108.7V108.66C374.573 108.26 374.506 107.887 374.373 107.54C374.239 107.18 374.046 106.867 373.793 106.6C373.539 106.32 373.239 106.1 372.893 105.94C372.546 105.78 372.166 105.7 371.753 105.7C371.313 105.7 370.919 105.78 370.573 105.94C370.239 106.087 369.953 106.293 369.713 106.56C369.473 106.827 369.286 107.14 369.153 107.5C369.033 107.847 368.973 108.22 368.973 108.62V108.66C368.973 109.06 369.039 109.44 369.173 109.8C369.306 110.147 369.499 110.46 369.753 110.74C370.006 111.007 370.299 111.22 370.633 111.38C370.979 111.54 371.366 111.62 371.793 111.62C372.233 111.62 372.619 111.547 372.953 111.4C373.299 111.24 373.593 111.027 373.833 110.76C374.073 110.493 374.253 110.187 374.373 109.84C374.506 109.48 374.573 109.1 374.573 108.7ZM390.554 111.58C390.554 112.593 390.427 113.453 390.174 114.16C389.934 114.88 389.561 115.467 389.054 115.92C388.561 116.373 387.941 116.707 387.194 116.92C386.447 117.133 385.574 117.24 384.574 117.24C383.694 117.24 382.854 117.14 382.054 116.94C381.254 116.753 380.514 116.48 379.834 116.12L380.874 113.84C381.434 114.147 381.994 114.387 382.554 114.56C383.127 114.733 383.774 114.82 384.494 114.82C385.534 114.82 386.301 114.573 386.794 114.08C387.301 113.587 387.554 112.86 387.554 111.9V111.38C387.101 111.927 386.607 112.353 386.074 112.66C385.541 112.967 384.867 113.12 384.054 113.12C383.427 113.12 382.827 113.013 382.254 112.8C381.681 112.573 381.174 112.247 380.734 111.82C380.294 111.393 379.941 110.873 379.674 110.26C379.421 109.633 379.294 108.92 379.294 108.12V108.08C379.294 107.28 379.427 106.573 379.694 105.96C379.961 105.333 380.314 104.807 380.754 104.38C381.194 103.953 381.701 103.633 382.274 103.42C382.847 103.193 383.441 103.08 384.054 103.08C384.881 103.08 385.561 103.233 386.094 103.54C386.627 103.847 387.101 104.227 387.514 104.68V103.28H390.554V111.58ZM387.554 108.12V108.08C387.554 107.72 387.487 107.387 387.354 107.08C387.221 106.773 387.034 106.513 386.794 106.3C386.567 106.073 386.294 105.9 385.974 105.78C385.654 105.66 385.307 105.6 384.934 105.6C384.561 105.6 384.214 105.66 383.894 105.78C383.587 105.9 383.314 106.073 383.074 106.3C382.847 106.513 382.667 106.773 382.534 107.08C382.401 107.387 382.334 107.72 382.334 108.08V108.12C382.334 108.867 382.581 109.467 383.074 109.92C383.567 110.373 384.187 110.6 384.934 110.6C385.307 110.6 385.654 110.54 385.974 110.42C386.294 110.3 386.567 110.133 386.794 109.92C387.034 109.693 387.221 109.427 387.354 109.12C387.487 108.813 387.554 108.48 387.554 108.12ZM403.09 114H400.05V108.02C400.05 107.3 399.89 106.76 399.57 106.4C399.25 106.027 398.797 105.84 398.21 105.84C397.623 105.84 397.157 106.027 396.81 106.4C396.477 106.76 396.31 107.3 396.31 108.02V114H393.27V103.28H396.31V104.8C396.483 104.573 396.67 104.36 396.87 104.16C397.083 103.947 397.317 103.76 397.57 103.6C397.823 103.44 398.103 103.313 398.41 103.22C398.717 103.127 399.063 103.08 399.45 103.08C400.61 103.08 401.503 103.433 402.13 104.14C402.77 104.847 403.09 105.82 403.09 107.06V114ZM408.991 102.1H405.791V99.4H408.991V102.1ZM408.911 114H405.871V103.28H408.911V114ZM417.786 113.56C417.466 113.747 417.113 113.893 416.726 114C416.34 114.12 415.893 114.18 415.386 114.18C414.92 114.18 414.493 114.127 414.106 114.02C413.733 113.927 413.406 113.753 413.126 113.5C412.86 113.247 412.646 112.92 412.486 112.52C412.34 112.107 412.266 111.587 412.266 110.96V105.88H410.986V103.28H412.266V100.54H415.306V103.28H417.826V105.88H415.306V110.46C415.306 111.153 415.633 111.5 416.286 111.5C416.82 111.5 417.32 111.373 417.786 111.12V113.56ZM423.327 102.1H420.127V99.4H423.327V102.1ZM423.247 114H420.207V103.28H423.247V114ZM437.182 108.66C437.182 109.433 437.036 110.16 436.742 110.84C436.449 111.507 436.042 112.093 435.522 112.6C435.002 113.107 434.389 113.507 433.682 113.8C432.976 114.093 432.202 114.24 431.362 114.24C430.536 114.24 429.769 114.1 429.062 113.82C428.356 113.527 427.742 113.133 427.222 112.64C426.716 112.133 426.316 111.547 426.022 110.88C425.729 110.2 425.582 109.473 425.582 108.7V108.66C425.582 107.887 425.729 107.167 426.022 106.5C426.316 105.82 426.722 105.227 427.242 104.72C427.762 104.213 428.376 103.813 429.082 103.52C429.789 103.227 430.562 103.08 431.402 103.08C432.229 103.08 432.996 103.227 433.702 103.52C434.409 103.8 435.016 104.193 435.522 104.7C436.042 105.193 436.449 105.78 436.742 106.46C437.036 107.127 437.182 107.847 437.182 108.62V108.66ZM434.182 108.7V108.66C434.182 108.26 434.116 107.887 433.982 107.54C433.849 107.18 433.656 106.867 433.402 106.6C433.149 106.32 432.849 106.1 432.502 105.94C432.156 105.78 431.776 105.7 431.362 105.7C430.922 105.7 430.529 105.78 430.182 105.94C429.849 106.087 429.562 106.293 429.322 106.56C429.082 106.827 428.896 107.14 428.762 107.5C428.642 107.847 428.582 108.22 428.582 108.62V108.66C428.582 109.06 428.649 109.44 428.782 109.8C428.916 110.147 429.109 110.46 429.362 110.74C429.616 111.007 429.909 111.22 430.242 111.38C430.589 111.54 430.976 111.62 431.402 111.62C431.842 111.62 432.229 111.547 432.562 111.4C432.909 111.24 433.202 111.027 433.442 110.76C433.682 110.493 433.862 110.187 433.982 109.84C434.116 109.48 434.182 109.1 434.182 108.7ZM449.203 114H446.163V108.02C446.163 107.3 446.003 106.76 445.683 106.4C445.363 106.027 444.91 105.84 444.323 105.84C443.737 105.84 443.27 106.027 442.923 106.4C442.59 106.76 442.423 107.3 442.423 108.02V114H439.383V103.28H442.423V104.8C442.597 104.573 442.783 104.36 442.983 104.16C443.197 103.947 443.43 103.76 443.683 103.6C443.937 103.44 444.217 103.313 444.523 103.22C444.83 103.127 445.177 103.08 445.563 103.08C446.723 103.08 447.617 103.433 448.243 104.14C448.883 104.847 449.203 105.82 449.203 107.06V114Z" fill="#FFCD00"/>
<path d="M920.953 113H917.893V103.86L913.953 109.84H913.873L909.973 103.92V113H906.953V99H910.273L913.953 104.92L917.633 99H920.953V113ZM933.217 113H930.277V111.84C929.903 112.253 929.457 112.587 928.937 112.84C928.417 113.08 927.783 113.2 927.037 113.2C926.53 113.2 926.05 113.133 925.597 113C925.157 112.853 924.77 112.64 924.437 112.36C924.103 112.08 923.837 111.74 923.637 111.34C923.45 110.927 923.357 110.453 923.357 109.92V109.88C923.357 109.293 923.463 108.787 923.677 108.36C923.89 107.933 924.183 107.58 924.557 107.3C924.943 107.02 925.397 106.813 925.917 106.68C926.45 106.533 927.037 106.46 927.677 106.46C928.223 106.46 928.697 106.5 929.097 106.58C929.51 106.66 929.91 106.767 930.297 106.9V106.72C930.297 106.08 930.103 105.593 929.717 105.26C929.33 104.927 928.757 104.76 927.997 104.76C927.41 104.76 926.89 104.813 926.437 104.92C925.997 105.013 925.53 105.153 925.037 105.34L924.277 103.02C924.863 102.767 925.477 102.56 926.117 102.4C926.757 102.24 927.53 102.16 928.437 102.16C930.103 102.16 931.317 102.567 932.077 103.38C932.837 104.193 933.217 105.327 933.217 106.78V113ZM930.337 109.22V108.68C930.07 108.56 929.77 108.467 929.437 108.4C929.117 108.32 928.77 108.28 928.397 108.28C927.743 108.28 927.23 108.407 926.857 108.66C926.483 108.913 926.297 109.28 926.297 109.76V109.8C926.297 110.213 926.45 110.533 926.757 110.76C927.063 110.987 927.463 111.1 927.957 111.1C928.677 111.1 929.25 110.927 929.677 110.58C930.117 110.233 930.337 109.78 930.337 109.22ZM942.293 105.26H942.133C941.119 105.26 940.319 105.567 939.733 106.18C939.159 106.793 938.873 107.747 938.873 109.04V113H935.833V102.28H938.873V104.44C939.179 103.707 939.599 103.12 940.133 102.68C940.666 102.24 941.386 102.04 942.293 102.08V105.26ZM954.572 113H951.092L948.292 108.62L947.232 109.74V113H944.192V98.4H947.232V106.18L950.792 102.28H954.432L950.352 106.5L954.572 113ZM966.028 107.94C966.028 108.087 966.021 108.213 966.008 108.32C966.008 108.427 966.001 108.553 965.988 108.7H958.528C958.675 109.393 958.975 109.92 959.428 110.28C959.895 110.627 960.468 110.8 961.148 110.8C961.655 110.8 962.108 110.713 962.508 110.54C962.908 110.367 963.321 110.087 963.748 109.7L965.488 111.24C964.981 111.867 964.368 112.36 963.648 112.72C962.928 113.067 962.081 113.24 961.108 113.24C960.308 113.24 959.561 113.107 958.868 112.84C958.188 112.573 957.595 112.193 957.088 111.7C956.595 111.207 956.208 110.627 955.928 109.96C955.648 109.28 955.508 108.527 955.508 107.7V107.66C955.508 106.9 955.635 106.18 955.888 105.5C956.155 104.82 956.521 104.227 956.988 103.72C957.455 103.213 958.008 102.813 958.648 102.52C959.301 102.227 960.021 102.08 960.808 102.08C961.701 102.08 962.475 102.24 963.128 102.56C963.781 102.88 964.321 103.313 964.748 103.86C965.188 104.393 965.508 105.013 965.708 105.72C965.921 106.413 966.028 107.14 966.028 107.9V107.94ZM963.068 106.8C962.975 106.12 962.735 105.573 962.348 105.16C961.961 104.733 961.448 104.52 960.808 104.52C960.168 104.52 959.648 104.727 959.248 105.14C958.861 105.553 958.608 106.107 958.488 106.8H963.068ZM974.314 112.56C973.994 112.747 973.64 112.893 973.254 113C972.867 113.12 972.42 113.18 971.914 113.18C971.447 113.18 971.02 113.127 970.634 113.02C970.26 112.927 969.934 112.753 969.654 112.5C969.387 112.247 969.174 111.92 969.014 111.52C968.867 111.107 968.794 110.587 968.794 109.96V104.88H967.514V102.28H968.794V99.54H971.834V102.28H974.354V104.88H971.834V109.46C971.834 110.153 972.16 110.5 972.814 110.5C973.347 110.5 973.847 110.373 974.314 110.12V112.56ZM995.01 113H991.41L988.41 108.52H985.99V113H982.91V99H989.31C990.977 99 992.27 99.4067 993.19 100.22C994.124 101.033 994.59 102.167 994.59 103.62V103.66C994.59 104.793 994.31 105.72 993.75 106.44C993.204 107.147 992.484 107.667 991.59 108L995.01 113ZM991.47 103.82V103.78C991.47 103.113 991.257 102.613 990.83 102.28C990.404 101.947 989.81 101.78 989.05 101.78H985.99V105.8H989.11C989.87 105.8 990.45 105.62 990.85 105.26C991.264 104.9 991.47 104.42 991.47 103.82ZM1007.04 107.94C1007.04 108.087 1007.04 108.213 1007.02 108.32C1007.02 108.427 1007.02 108.553 1007 108.7H999.544C999.69 109.393 999.99 109.92 1000.44 110.28C1000.91 110.627 1001.48 110.8 1002.16 110.8C1002.67 110.8 1003.12 110.713 1003.52 110.54C1003.92 110.367 1004.34 110.087 1004.76 109.7L1006.5 111.24C1006 111.867 1005.38 112.36 1004.66 112.72C1003.94 113.067 1003.1 113.24 1002.12 113.24C1001.32 113.24 1000.58 113.107 999.884 112.84C999.204 112.573 998.61 112.193 998.104 111.7C997.61 111.207 997.224 110.627 996.944 109.96C996.664 109.28 996.524 108.527 996.524 107.7V107.66C996.524 106.9 996.65 106.18 996.904 105.5C997.17 104.82 997.537 104.227 998.004 103.72C998.47 103.213 999.024 102.813 999.664 102.52C1000.32 102.227 1001.04 102.08 1001.82 102.08C1002.72 102.08 1003.49 102.24 1004.14 102.56C1004.8 102.88 1005.34 103.313 1005.76 103.86C1006.2 104.393 1006.52 105.013 1006.72 105.72C1006.94 106.413 1007.04 107.14 1007.04 107.9V107.94ZM1004.08 106.8C1003.99 106.12 1003.75 105.573 1003.36 105.16C1002.98 104.733 1002.46 104.52 1001.82 104.52C1001.18 104.52 1000.66 104.727 1000.26 105.14C999.877 105.553 999.624 106.107 999.504 106.8H1004.08ZM1018.75 111.28C1018.23 111.853 1017.64 112.327 1016.97 112.7C1016.3 113.06 1015.44 113.24 1014.37 113.24C1013.57 113.24 1012.82 113.093 1012.13 112.8C1011.45 112.507 1010.86 112.113 1010.37 111.62C1009.88 111.113 1009.49 110.527 1009.21 109.86C1008.93 109.18 1008.79 108.46 1008.79 107.7V107.66C1008.79 106.9 1008.93 106.18 1009.21 105.5C1009.49 104.82 1009.88 104.227 1010.37 103.72C1010.86 103.213 1011.45 102.813 1012.13 102.52C1012.82 102.227 1013.58 102.08 1014.41 102.08C1015.42 102.08 1016.26 102.24 1016.93 102.56C1017.6 102.88 1018.18 103.32 1018.69 103.88L1016.83 105.88C1016.48 105.52 1016.12 105.233 1015.75 105.02C1015.39 104.807 1014.94 104.7 1014.39 104.7C1014 104.7 1013.65 104.78 1013.33 104.94C1013.02 105.087 1012.75 105.293 1012.51 105.56C1012.28 105.827 1012.1 106.14 1011.97 106.5C1011.85 106.847 1011.79 107.22 1011.79 107.62V107.66C1011.79 108.073 1011.85 108.46 1011.97 108.82C1012.1 109.18 1012.29 109.493 1012.53 109.76C1012.77 110.027 1013.06 110.24 1013.39 110.4C1013.72 110.547 1014.1 110.62 1014.51 110.62C1015.02 110.62 1015.46 110.52 1015.83 110.32C1016.22 110.107 1016.6 109.827 1016.97 109.48L1018.75 111.28ZM1031.82 107.66C1031.82 108.433 1031.67 109.16 1031.38 109.84C1031.08 110.507 1030.68 111.093 1030.16 111.6C1029.64 112.107 1029.02 112.507 1028.32 112.8C1027.61 113.093 1026.84 113.24 1026 113.24C1025.17 113.24 1024.4 113.1 1023.7 112.82C1022.99 112.527 1022.38 112.133 1021.86 111.64C1021.35 111.133 1020.95 110.547 1020.66 109.88C1020.36 109.2 1020.22 108.473 1020.22 107.7V107.66C1020.22 106.887 1020.36 106.167 1020.66 105.5C1020.95 104.82 1021.36 104.227 1021.88 103.72C1022.4 103.213 1023.01 102.813 1023.72 102.52C1024.42 102.227 1025.2 102.08 1026.04 102.08C1026.86 102.08 1027.63 102.227 1028.34 102.52C1029.04 102.8 1029.65 103.193 1030.16 103.7C1030.68 104.193 1031.08 104.78 1031.38 105.46C1031.67 106.127 1031.82 106.847 1031.82 107.62V107.66ZM1028.82 107.7V107.66C1028.82 107.26 1028.75 106.887 1028.62 106.54C1028.48 106.18 1028.29 105.867 1028.04 105.6C1027.78 105.32 1027.48 105.1 1027.14 104.94C1026.79 104.78 1026.41 104.7 1026 104.7C1025.56 104.7 1025.16 104.78 1024.82 104.94C1024.48 105.087 1024.2 105.293 1023.96 105.56C1023.72 105.827 1023.53 106.14 1023.4 106.5C1023.28 106.847 1023.22 107.22 1023.22 107.62V107.66C1023.22 108.06 1023.28 108.44 1023.42 108.8C1023.55 109.147 1023.74 109.46 1024 109.74C1024.25 110.007 1024.54 110.22 1024.88 110.38C1025.22 110.54 1025.61 110.62 1026.04 110.62C1026.48 110.62 1026.86 110.547 1027.2 110.4C1027.54 110.24 1027.84 110.027 1028.08 109.76C1028.32 109.493 1028.5 109.187 1028.62 108.84C1028.75 108.48 1028.82 108.1 1028.82 107.7ZM1044.8 110.58C1044.8 111.593 1044.67 112.453 1044.42 113.16C1044.18 113.88 1043.8 114.467 1043.3 114.92C1042.8 115.373 1042.18 115.707 1041.44 115.92C1040.69 116.133 1039.82 116.24 1038.82 116.24C1037.94 116.24 1037.1 116.14 1036.3 115.94C1035.5 115.753 1034.76 115.48 1034.08 115.12L1035.12 112.84C1035.68 113.147 1036.24 113.387 1036.8 113.56C1037.37 113.733 1038.02 113.82 1038.74 113.82C1039.78 113.82 1040.54 113.573 1041.04 113.08C1041.54 112.587 1041.8 111.86 1041.8 110.9V110.38C1041.34 110.927 1040.85 111.353 1040.32 111.66C1039.78 111.967 1039.11 112.12 1038.3 112.12C1037.67 112.12 1037.07 112.013 1036.5 111.8C1035.92 111.573 1035.42 111.247 1034.98 110.82C1034.54 110.393 1034.18 109.873 1033.92 109.26C1033.66 108.633 1033.54 107.92 1033.54 107.12V107.08C1033.54 106.28 1033.67 105.573 1033.94 104.96C1034.2 104.333 1034.56 103.807 1035 103.38C1035.44 102.953 1035.94 102.633 1036.52 102.42C1037.09 102.193 1037.68 102.08 1038.3 102.08C1039.12 102.08 1039.8 102.233 1040.34 102.54C1040.87 102.847 1041.34 103.227 1041.76 103.68V102.28H1044.8V110.58ZM1041.8 107.12V107.08C1041.8 106.72 1041.73 106.387 1041.6 106.08C1041.46 105.773 1041.28 105.513 1041.04 105.3C1040.81 105.073 1040.54 104.9 1040.22 104.78C1039.9 104.66 1039.55 104.6 1039.18 104.6C1038.8 104.6 1038.46 104.66 1038.14 104.78C1037.83 104.9 1037.56 105.073 1037.32 105.3C1037.09 105.513 1036.91 105.773 1036.78 106.08C1036.64 106.387 1036.58 106.72 1036.58 107.08V107.12C1036.58 107.867 1036.82 108.467 1037.32 108.92C1037.81 109.373 1038.43 109.6 1039.18 109.6C1039.55 109.6 1039.9 109.54 1040.22 109.42C1040.54 109.3 1040.81 109.133 1041.04 108.92C1041.28 108.693 1041.46 108.427 1041.6 108.12C1041.73 107.813 1041.8 107.48 1041.8 107.12ZM1057.33 113H1054.29V107.02C1054.29 106.3 1054.13 105.76 1053.81 105.4C1053.49 105.027 1053.04 104.84 1052.45 104.84C1051.87 104.84 1051.4 105.027 1051.05 105.4C1050.72 105.76 1050.55 106.3 1050.55 107.02V113H1047.51V102.28H1050.55V103.8C1050.73 103.573 1050.91 103.36 1051.11 103.16C1051.33 102.947 1051.56 102.76 1051.81 102.6C1052.07 102.44 1052.35 102.313 1052.65 102.22C1052.96 102.127 1053.31 102.08 1053.69 102.08C1054.85 102.08 1055.75 102.433 1056.37 103.14C1057.01 103.847 1057.33 104.82 1057.33 106.06V113ZM1063.23 101.1H1060.03V98.4H1063.23V101.1ZM1063.15 113H1060.11V102.28H1063.15V113ZM1072.03 112.56C1071.71 112.747 1071.36 112.893 1070.97 113C1070.58 113.12 1070.14 113.18 1069.63 113.18C1069.16 113.18 1068.74 113.127 1068.35 113.02C1067.98 112.927 1067.65 112.753 1067.37 112.5C1067.1 112.247 1066.89 111.92 1066.73 111.52C1066.58 111.107 1066.51 110.587 1066.51 109.96V104.88H1065.23V102.28H1066.51V99.54H1069.55V102.28H1072.07V104.88H1069.55V109.46C1069.55 110.153 1069.88 110.5 1070.53 110.5C1071.06 110.5 1071.56 110.373 1072.03 110.12V112.56ZM1077.57 101.1H1074.37V98.4H1077.57V101.1ZM1077.49 113H1074.45V102.28H1077.49V113ZM1091.42 107.66C1091.42 108.433 1091.28 109.16 1090.98 109.84C1090.69 110.507 1090.28 111.093 1089.76 111.6C1089.24 112.107 1088.63 112.507 1087.92 112.8C1087.22 113.093 1086.44 113.24 1085.6 113.24C1084.78 113.24 1084.01 113.1 1083.3 112.82C1082.6 112.527 1081.98 112.133 1081.46 111.64C1080.96 111.133 1080.56 110.547 1080.26 109.88C1079.97 109.2 1079.82 108.473 1079.82 107.7V107.66C1079.82 106.887 1079.97 106.167 1080.26 105.5C1080.56 104.82 1080.96 104.227 1081.48 103.72C1082 103.213 1082.62 102.813 1083.32 102.52C1084.03 102.227 1084.8 102.08 1085.64 102.08C1086.47 102.08 1087.24 102.227 1087.94 102.52C1088.65 102.8 1089.26 103.193 1089.76 103.7C1090.28 104.193 1090.69 104.78 1090.98 105.46C1091.28 106.127 1091.42 106.847 1091.42 107.62V107.66ZM1088.42 107.7V107.66C1088.42 107.26 1088.36 106.887 1088.22 106.54C1088.09 106.18 1087.9 105.867 1087.64 105.6C1087.39 105.32 1087.09 105.1 1086.74 104.94C1086.4 104.78 1086.02 104.7 1085.6 104.7C1085.16 104.7 1084.77 104.78 1084.42 104.94C1084.09 105.087 1083.8 105.293 1083.56 105.56C1083.32 105.827 1083.14 106.14 1083 106.5C1082.88 106.847 1082.82 107.22 1082.82 107.62V107.66C1082.82 108.06 1082.89 108.44 1083.02 108.8C1083.16 109.147 1083.35 109.46 1083.6 109.74C1083.86 110.007 1084.15 110.22 1084.48 110.38C1084.83 110.54 1085.22 110.62 1085.64 110.62C1086.08 110.62 1086.47 110.547 1086.8 110.4C1087.15 110.24 1087.44 110.027 1087.68 109.76C1087.92 109.493 1088.1 109.187 1088.22 108.84C1088.36 108.48 1088.42 108.1 1088.42 107.7ZM1103.45 113H1100.41V107.02C1100.41 106.3 1100.25 105.76 1099.93 105.4C1099.61 105.027 1099.15 104.84 1098.57 104.84C1097.98 104.84 1097.51 105.027 1097.17 105.4C1096.83 105.76 1096.67 106.3 1096.67 107.02V113H1093.63V102.28H1096.67V103.8C1096.84 103.573 1097.03 103.36 1097.23 103.16C1097.44 102.947 1097.67 102.76 1097.93 102.6C1098.18 102.44 1098.46 102.313 1098.77 102.22C1099.07 102.127 1099.42 102.08 1099.81 102.08C1100.97 102.08 1101.86 102.433 1102.49 103.14C1103.13 103.847 1103.45 104.82 1103.45 106.06V113Z" fill="#FFCD00"/>
<path opacity="0.5" d="M669.5 34L483.738 8.49999L855.262 8.50003L669.5 34Z" fill="#F59ADA"/>
</svg>
