<svg width="126" height="129" viewBox="0 0 126 129" fill="none" xmlns="http://www.w3.org/2000/svg">
<path opacity="0.75" fill-rule="evenodd" clip-rule="evenodd" d="M35.4873 26.6091V47.9963C35.4873 50.4299 37.4332 52.4123 39.8415 52.4123H86.0787C88.4871 52.4123 90.4489 50.4299 90.4489 47.9963V26.593C91.5015 25.497 92.1395 23.9981 92.1395 22.3542V12.7324C92.1395 10.1698 90.082 8.09071 87.5461 8.09071H72.9524V4.70615C72.9524 2.11132 70.8631 0 68.2952 0H57.641C55.0732 0 52.9838 2.11132 52.9838 4.70615V8.09071H38.3742C35.8542 8.09071 33.7808 10.1698 33.7808 12.7324V22.3542C33.7808 23.9981 34.4187 25.497 35.4714 26.593L35.4873 26.6091ZM86.0947 48.1735H39.8575C39.7777 48.1735 39.698 48.093 39.698 48.0124V28.5753C45.2324 29.7358 51.1975 30.461 57.4815 30.7189V31.2508C57.4815 34.313 59.9377 36.795 62.9681 36.795C65.9985 36.795 68.4706 34.2969 68.4706 31.2508V30.7189C74.7068 30.4449 80.7835 29.7196 86.2542 28.5753V48.0124C86.2542 48.093 86.1744 48.1735 86.0947 48.1735ZM61.6762 31.2508V24.8846H64.276V31.2508C64.276 31.9599 63.6858 32.5562 62.9841 32.5562C62.2823 32.5562 61.6922 31.976 61.6922 31.2508H61.6762ZM57.1944 4.73838C57.1944 4.49663 57.4018 4.28711 57.641 4.28711H68.2952C68.5344 4.28711 68.7418 4.49663 68.7418 4.73838V8.12294H57.1944V4.73838ZM38.0073 12.7485C38.0073 12.539 38.1828 12.3617 38.3901 12.3617H87.5461C87.7534 12.3617 87.9289 12.539 87.9289 12.7485V22.3703C87.9289 23.2568 87.3547 23.982 86.4934 24.1754C81.0228 25.4003 74.8344 26.1739 68.4706 26.464V23.8531C68.4706 22.0802 67.0352 20.6458 65.2808 20.6458H60.6554C58.901 20.6458 57.4815 22.0802 57.4815 23.8531V26.464C51.1177 26.1739 44.9294 25.3842 39.4428 24.1754C38.5815 23.982 38.0073 23.2568 38.0073 22.3703V12.7485ZM21.2446 56.0708V42.452C21.2446 41.759 21.5795 41.1143 22.1377 40.7275L29.0279 35.7796C29.9689 35.1027 31.2927 35.3283 31.9625 36.2792C32.6324 37.2301 32.4091 38.5678 31.4681 39.2448L25.4552 43.5641V56.1031C25.4552 57.2796 24.5142 58.2305 23.3499 58.2305C22.1856 58.2305 21.2446 57.2796 21.2446 56.1031V56.0708ZM21.2446 64.7901C21.2446 63.6136 22.1856 62.6627 23.3499 62.6627C24.5142 62.6627 25.4552 63.6136 25.4552 64.7901C25.4552 65.9667 24.5142 66.9175 23.3499 66.9175C22.1856 66.9175 21.2446 65.9667 21.2446 64.7901ZM62.9841 56.8928C64.1484 56.8928 65.0894 57.8437 65.0894 59.0202C65.0894 60.1968 64.1484 61.1477 62.9841 61.1477C61.8198 61.1477 60.8787 60.1968 60.8787 59.0202C60.8787 57.8437 61.8198 56.8928 62.9841 56.8928ZM110.625 98.0394H109.971C113.544 94.8804 115.426 89.4974 115.426 84.3238C115.426 77.184 109.684 71.3819 102.618 71.3819C95.5527 71.3819 89.8109 77.184 89.8109 84.3238C89.8109 89.4974 91.6929 94.8804 95.2656 98.0394H94.6117C90.5765 98.0394 86.7805 99.5221 83.9256 102.165C80.8474 100.006 77.0354 98.7324 72.9205 98.7324H70.6557C72.2825 97.5559 73.718 95.9764 74.9301 94.0101C77.0993 90.4644 78.3912 85.6616 78.3912 81.181C78.3912 72.5907 71.4851 65.6121 62.9841 65.6121C54.483 65.6121 47.577 72.5907 47.577 81.181C47.577 85.8388 48.8848 90.5933 51.1496 94.2035C52.3299 96.0731 53.7494 97.6042 55.3603 98.7324H53.0316C48.9167 98.7324 45.1208 100.006 42.0425 102.165C39.1876 99.5221 35.3916 98.0394 31.3724 98.0394H30.7025C31.6914 97.1691 32.5686 96.1053 33.3342 94.8643C35.1205 91.9472 36.1732 87.9985 36.1732 84.3238C36.1732 77.184 30.4314 71.3819 23.3658 71.3819C16.3003 71.3819 10.5425 77.184 10.5425 84.3238C10.5425 89.4974 12.4246 94.8804 16.0132 98.0394H15.3433C6.89013 98.0394 0 104.567 0 112.593V121.087C0 122.263 0.941024 123.214 2.10533 123.214C3.26963 123.214 4.21064 122.263 4.21064 121.087V112.593C4.21064 106.92 9.20279 102.294 15.3433 102.294H31.3724C34.1795 102.294 36.8271 103.261 38.8686 105.002C36.1413 108.064 34.4825 112.013 34.4825 116.316V126.873C34.4825 128.049 35.4235 129 36.5879 129C37.7522 129 38.6932 128.049 38.6932 126.873V116.316C38.6932 108.967 45.1367 103.003 53.0476 103.003H72.9524C80.8633 103.003 87.3068 108.983 87.3068 116.316V126.873C87.3068 128.049 88.2478 129 89.4121 129C90.5765 129 91.5175 128.049 91.5175 126.873V116.316C91.5175 112.013 89.8747 108.064 87.1473 105.002C89.1889 103.261 91.8364 102.294 94.6435 102.294H110.657C116.797 102.294 121.789 106.92 121.789 112.593V121.087C121.789 122.263 122.73 123.214 123.895 123.214C125.059 123.214 126 122.263 126 121.087V112.593C126 104.567 119.126 98.0394 110.657 98.0394H110.625ZM94.0056 84.3238C94.0056 79.521 97.8653 75.6207 102.618 75.6207C107.371 75.6207 111.231 79.521 111.231 84.3238C111.231 89.4168 108.551 96.5727 102.618 96.5727C96.3501 96.5727 94.0056 89.0622 94.0056 84.3238ZM51.7717 81.181C51.7717 74.9277 56.7957 69.8508 62.9841 69.8508C69.1724 69.8508 74.1965 74.9277 74.1965 81.181C74.1965 84.9041 73.1279 88.8688 71.3575 91.786C69.2681 95.2028 66.461 96.9273 62.9841 96.9273C59.5071 96.9273 56.7957 95.2511 54.7063 91.931C52.8722 89.03 51.7876 85.0008 51.7876 81.181H51.7717ZM14.7372 84.3238C14.7372 79.521 18.597 75.6207 23.3499 75.6207C28.1028 75.6207 31.9625 79.521 31.9625 84.3238C31.9625 89.1267 29.618 96.5727 23.3499 96.5727C17.4008 96.5727 14.7372 89.4007 14.7372 84.3238ZM51.022 118.057V126.84C51.022 128.017 50.081 128.968 48.9167 128.968C47.7524 128.968 46.8114 128.017 46.8114 126.84V118.057C46.8114 116.88 47.7524 115.929 48.9167 115.929C50.081 115.929 51.022 116.88 51.022 118.057ZM79.1408 118.057V126.84C79.1408 128.017 78.1998 128.968 77.0354 128.968C75.8711 128.968 74.9301 128.017 74.9301 126.84V118.057C74.9301 116.88 75.8711 115.929 77.0354 115.929C78.1998 115.929 79.1408 116.88 79.1408 118.057ZM94.0056 36.2631C94.6754 35.3122 95.9833 35.0866 96.9403 35.7635L103.83 40.7114C104.389 41.1143 104.724 41.759 104.724 42.4359V56.0708C104.724 57.2474 103.783 58.1983 102.618 58.1983C101.454 58.1983 100.513 57.2474 100.513 56.0708V43.5319L94.5 39.2125C93.559 38.5356 93.3357 37.214 94.0056 36.247V36.2631ZM104.708 64.774C104.708 65.9344 103.767 66.9014 102.602 66.9014C101.438 66.9014 100.497 65.9505 100.497 64.774C100.497 63.5975 101.438 62.6466 102.602 62.6466C103.767 62.6466 104.708 63.5975 104.708 64.774Z" fill="white"/>
</svg>
