<svg width="1348" height="469" viewBox="0 0 1348 469" fill="none" xmlns="http://www.w3.org/2000/svg">
<g filter="url(#filter0_d_8_98)">
<rect x="4" y="9" width="1340" height="452" fill="#FFFCEF"/>
<g opacity="0.5">
<path d="M236.738 379.582C236.665 379.582 236.589 379.576 236.516 379.564C215.157 376.187 197.66 363.872 185.916 343.953C178.258 330.962 173.476 315.343 172.09 298.777C170.727 282.508 172.712 266.464 177.827 252.381C183.689 236.237 194.738 221.558 209.781 209.933C210.4 209.456 211.289 209.568 211.765 210.187C212.244 210.807 212.129 211.696 211.51 212.172C196.892 223.47 186.164 237.708 180.485 253.349C170.293 281.416 173.455 317.248 188.349 342.515C199.65 361.684 216.456 373.528 236.953 376.769C237.724 376.891 238.252 377.616 238.131 378.39C238.021 379.088 237.418 379.585 236.735 379.585L236.738 379.582Z" fill="#E855BD"/>
<path d="M215.137 371.474C215.137 371.474 228.548 349.858 209.015 319.13C208.281 320.775 198.678 347.698 215.137 371.474Z" fill="#D266B2"/>
<path d="M202.344 362.704C202.344 362.704 177.763 369.232 154.07 341.583C155.857 341.359 184.407 340.027 202.344 362.704Z" fill="#D266B2"/>
<path d="M180.748 331.432C180.748 331.432 155.52 328.207 144 293.664C145.738 294.128 172.683 303.663 180.748 331.432Z" fill="#D266B2"/>
<path d="M172.626 296.741C172.626 296.741 149.771 285.576 149.962 249.164C151.458 250.165 173.912 267.851 172.626 296.741Z" fill="#D266B2"/>
<path d="M176.274 260.031C176.274 260.031 157.248 243.15 167.187 208.121C168.361 209.487 185.255 232.544 176.274 260.031Z" fill="#D266B2"/>
<path d="M188.062 233.903C188.062 233.903 177.304 212.026 197.959 185C198.511 186.633 205.295 213.134 188.062 233.903Z" fill="#D266B2"/>
<path d="M189.489 347.804C189.489 347.804 210.196 329.014 199.89 291.266C198.598 292.762 180.187 317 189.489 347.804Z" fill="#D266B2"/>
<path d="M174.476 305.696C174.476 305.696 196.188 293.381 197.004 256.668C195.447 257.731 174.528 274.124 174.476 305.696Z" fill="#D266B2"/>
<path d="M195.212 230.789C201.435 226.268 208.595 223.151 215.983 221.012C215.967 222.544 215.755 224.074 215.358 225.555C214.863 227.387 214.08 229.132 213.222 230.823C206.341 244.345 192.357 257.154 177.09 260.155C177.138 258.435 178.3 256.131 178.78 254.444C181.547 244.691 186.953 236.792 195.215 230.789H195.212Z" fill="#D266B2"/>
<path d="M212.191 207.083C222.334 198.883 235.335 194.292 248.375 194.307C248.687 198.407 243.287 202.194 240.456 204.334C233.975 209.234 227.158 212.572 219.233 214.712C214.354 216.029 208.872 217.088 203.808 217.079C203.657 217.079 203.484 217.067 203.393 216.948C203.259 216.778 203.387 216.533 203.514 216.357C204.515 214.967 205.811 213.82 206.864 212.469C208.438 210.451 210.204 208.691 212.194 207.083H212.191Z" fill="#D266B2"/>
</g>
<g opacity="0.5">
<path d="M440.647 379.582C439.965 379.582 439.361 379.084 439.252 378.386C439.13 377.616 439.655 376.89 440.429 376.766C460.924 373.525 477.732 361.681 489.034 342.511C503.93 317.245 507.092 281.412 496.898 253.345C491.218 237.705 480.49 223.467 465.872 212.169C465.253 211.689 465.141 210.803 465.617 210.184C466.097 209.565 466.982 209.453 467.601 209.929C482.644 221.555 493.694 236.233 499.555 252.377C504.671 266.461 506.655 282.505 505.293 298.773C503.906 315.336 499.128 330.958 491.467 343.95C479.722 363.869 462.225 376.183 440.866 379.561C440.79 379.573 440.717 379.579 440.644 379.579L440.647 379.582Z" fill="#E855BD"/>
<path d="M462.251 371.474C462.251 371.474 448.841 349.858 468.374 319.13C469.108 320.775 478.711 347.698 462.251 371.474Z" fill="#D266B2"/>
<path d="M475.043 362.704C475.043 362.704 499.624 369.231 523.317 341.583C521.53 341.358 492.98 340.026 475.043 362.704Z" fill="#D266B2"/>
<path d="M496.637 331.432C496.637 331.432 521.864 328.21 533.384 293.664C531.646 294.128 504.701 303.663 496.637 331.432Z" fill="#D266B2"/>
<path d="M504.76 296.74C504.76 296.74 527.615 285.579 527.424 249.164C525.928 250.165 503.474 267.851 504.76 296.74Z" fill="#D266B2"/>
<path d="M501.112 260.031C501.112 260.031 520.138 243.149 510.199 208.121C509.025 209.486 492.132 232.543 501.112 260.031Z" fill="#D266B2"/>
<path d="M489.324 233.903C489.324 233.903 500.083 212.026 479.427 185C478.875 186.633 472.091 213.134 489.324 233.903Z" fill="#D266B2"/>
<path d="M487.898 347.804C487.898 347.804 467.191 329.014 477.497 291.266C478.79 292.762 497.2 317 487.898 347.804Z" fill="#D266B2"/>
<path d="M502.914 305.696C502.914 305.696 481.203 293.381 480.387 256.668C481.943 257.731 502.863 274.124 502.914 305.696Z" fill="#D266B2"/>
<path d="M482.173 230.789C475.95 226.268 468.79 223.151 461.402 221.012C461.418 222.544 461.63 224.074 462.027 225.555C462.522 227.387 463.305 229.132 464.163 230.823C471.044 244.345 485.028 257.154 500.295 260.155C500.247 258.435 499.085 256.131 498.605 254.444C495.838 244.691 490.432 236.792 482.17 230.789H482.173Z" fill="#D266B2"/>
<path d="M465.196 207.083C455.054 198.883 442.056 194.292 429.013 194.307C428.7 198.407 434.101 202.194 436.932 204.334C443.412 209.234 450.23 212.572 458.154 214.712C463.033 216.029 468.516 217.088 473.579 217.079C473.731 217.079 473.904 217.067 473.995 216.948C474.128 216.778 474.001 216.533 473.874 216.357C472.872 214.967 471.577 213.82 470.524 212.469C468.949 210.451 467.184 208.691 465.193 207.083H465.196Z" fill="#D266B2"/>
</g>
<g opacity="0.5">
<path d="M906.738 379.582C906.665 379.582 906.589 379.576 906.516 379.564C885.157 376.187 867.66 363.872 855.916 343.953C848.258 330.962 843.476 315.343 842.09 298.777C840.727 282.508 842.712 266.464 847.827 252.381C853.689 236.237 864.738 221.558 879.781 209.933C880.4 209.456 881.289 209.568 881.765 210.187C882.244 210.807 882.129 211.696 881.51 212.172C866.892 223.47 856.164 237.708 850.485 253.349C840.293 281.416 843.455 317.248 858.349 342.515C869.65 361.684 886.456 373.528 906.953 376.769C907.724 376.891 908.252 377.616 908.131 378.39C908.021 379.088 907.418 379.585 906.735 379.585L906.738 379.582Z" fill="#E855BD"/>
<path d="M885.137 371.474C885.137 371.474 898.548 349.858 879.015 319.13C878.281 320.775 868.678 347.698 885.137 371.474Z" fill="#D266B2"/>
<path d="M872.344 362.704C872.344 362.704 847.763 369.232 824.07 341.583C825.857 341.359 854.407 340.027 872.344 362.704Z" fill="#D266B2"/>
<path d="M850.748 331.432C850.748 331.432 825.52 328.207 814 293.664C815.738 294.128 842.683 303.663 850.748 331.432Z" fill="#D266B2"/>
<path d="M842.626 296.741C842.626 296.741 819.771 285.576 819.962 249.164C821.458 250.165 843.912 267.851 842.626 296.741Z" fill="#D266B2"/>
<path d="M846.274 260.031C846.274 260.031 827.248 243.15 837.187 208.121C838.361 209.487 855.255 232.544 846.274 260.031Z" fill="#D266B2"/>
<path d="M858.062 233.903C858.062 233.903 847.304 212.026 867.959 185C868.511 186.633 875.295 213.134 858.062 233.903Z" fill="#D266B2"/>
<path d="M859.489 347.804C859.489 347.804 880.196 329.014 869.89 291.266C868.598 292.762 850.187 317 859.489 347.804Z" fill="#D266B2"/>
<path d="M844.476 305.696C844.476 305.696 866.188 293.381 867.004 256.668C865.447 257.731 844.528 274.124 844.476 305.696Z" fill="#D266B2"/>
<path d="M865.212 230.789C871.435 226.268 878.595 223.151 885.983 221.012C885.967 222.544 885.755 224.074 885.358 225.555C884.863 227.387 884.08 229.132 883.222 230.823C876.341 244.345 862.357 257.154 847.09 260.155C847.138 258.435 848.3 256.131 848.78 254.444C851.547 244.691 856.953 236.792 865.215 230.789H865.212Z" fill="#D266B2"/>
<path d="M882.191 207.083C892.334 198.883 905.335 194.292 918.375 194.307C918.687 198.407 913.287 202.194 910.456 204.334C903.975 209.234 897.158 212.572 889.233 214.712C884.354 216.029 878.872 217.088 873.808 217.079C873.657 217.079 873.484 217.067 873.393 216.948C873.259 216.778 873.387 216.533 873.514 216.357C874.515 214.967 875.811 213.82 876.864 212.469C878.438 210.451 880.204 208.691 882.194 207.083H882.191Z" fill="#D266B2"/>
</g>
<g opacity="0.5">
<path d="M1110.65 379.582C1109.96 379.582 1109.36 379.084 1109.25 378.386C1109.13 377.616 1109.66 376.89 1110.43 376.766C1130.92 373.525 1147.73 361.681 1159.03 342.511C1173.93 317.245 1177.09 281.412 1166.9 253.345C1161.22 237.705 1150.49 223.467 1135.87 212.169C1135.25 211.689 1135.14 210.803 1135.62 210.184C1136.1 209.565 1136.98 209.453 1137.6 209.929C1152.64 221.555 1163.69 236.233 1169.56 252.377C1174.67 266.461 1176.65 282.505 1175.29 298.773C1173.91 315.336 1169.13 330.958 1161.47 343.95C1149.72 363.869 1132.23 376.183 1110.87 379.561C1110.79 379.573 1110.72 379.579 1110.64 379.579L1110.65 379.582Z" fill="#E855BD"/>
<path d="M1132.25 371.474C1132.25 371.474 1118.84 349.858 1138.37 319.13C1139.11 320.775 1148.71 347.698 1132.25 371.474Z" fill="#D266B2"/>
<path d="M1145.04 362.704C1145.04 362.704 1169.62 369.231 1193.32 341.583C1191.53 341.358 1162.98 340.026 1145.04 362.704Z" fill="#D266B2"/>
<path d="M1166.64 331.432C1166.64 331.432 1191.86 328.21 1203.38 293.664C1201.65 294.128 1174.7 303.663 1166.64 331.432Z" fill="#D266B2"/>
<path d="M1174.76 296.74C1174.76 296.74 1197.62 285.579 1197.42 249.164C1195.93 250.165 1173.47 267.851 1174.76 296.74Z" fill="#D266B2"/>
<path d="M1171.11 260.031C1171.11 260.031 1190.14 243.149 1180.2 208.121C1179.02 209.486 1162.13 232.543 1171.11 260.031Z" fill="#D266B2"/>
<path d="M1159.32 233.903C1159.32 233.903 1170.08 212.026 1149.43 185C1148.88 186.633 1142.09 213.134 1159.32 233.903Z" fill="#D266B2"/>
<path d="M1157.9 347.804C1157.9 347.804 1137.19 329.014 1147.5 291.266C1148.79 292.762 1167.2 317 1157.9 347.804Z" fill="#D266B2"/>
<path d="M1172.91 305.696C1172.91 305.696 1151.2 293.381 1150.39 256.668C1151.94 257.731 1172.86 274.124 1172.91 305.696Z" fill="#D266B2"/>
<path d="M1152.17 230.789C1145.95 226.268 1138.79 223.151 1131.4 221.012C1131.42 222.544 1131.63 224.074 1132.03 225.555C1132.52 227.387 1133.3 229.132 1134.16 230.823C1141.04 244.345 1155.03 257.154 1170.3 260.155C1170.25 258.435 1169.08 256.131 1168.61 254.444C1165.84 244.691 1160.43 236.792 1152.17 230.789H1152.17Z" fill="#D266B2"/>
<path d="M1135.2 207.083C1125.05 198.883 1112.06 194.292 1099.01 194.307C1098.7 198.407 1104.1 202.194 1106.93 204.334C1113.41 209.234 1120.23 212.572 1128.15 214.712C1133.03 216.029 1138.52 217.088 1143.58 217.079C1143.73 217.079 1143.9 217.067 1143.99 216.948C1144.13 216.778 1144 216.533 1143.87 216.357C1142.87 214.967 1141.58 213.82 1140.52 212.469C1138.95 210.451 1137.18 208.691 1135.19 207.083H1135.2Z" fill="#D266B2"/>
</g>
<rect x="188" y="82" width="304" height="52" rx="26" fill="#AD3088"/>
<rect x="857" y="82" width="304" height="52" rx="26" fill="#AD3088"/>
<path d="M338.5 153L291.302 135L385.698 135L338.5 153Z" fill="#F59ADA"/>
<path d="M1008.5 153L961.302 135L1055.7 135L1008.5 153Z" fill="#F59ADA"/>
<path d="M311.014 245.784V239.4H335.206V244.968L320.134 273H311.782L326.806 245.784H311.014ZM365.309 242.52L361.421 248.232C360.877 247.816 360.349 247.448 359.837 247.128C359.325 246.776 358.797 246.488 358.253 246.264C357.709 246.04 357.133 245.864 356.525 245.736C355.917 245.608 355.261 245.544 354.557 245.544C353.501 245.544 352.573 245.752 351.773 246.168C351.005 246.552 350.333 247.096 349.757 247.8C349.213 248.472 348.781 249.288 348.461 250.248C348.141 251.208 347.917 252.232 347.789 253.32C348.621 252.776 349.565 252.28 350.621 251.832C351.709 251.384 353.085 251.16 354.749 251.16C356.413 251.16 357.965 251.4 359.405 251.88C360.845 252.328 362.093 253 363.149 253.896C364.205 254.792 365.037 255.912 365.645 257.256C366.253 258.6 366.557 260.152 366.557 261.912C366.557 263.64 366.221 265.224 365.549 266.664C364.909 268.072 364.013 269.304 362.861 270.36C361.741 271.384 360.397 272.184 358.829 272.76C357.261 273.304 355.565 273.576 353.741 273.576C351.533 273.576 349.661 273.272 348.125 272.664C346.589 272.056 345.229 271.16 344.045 269.976C342.829 268.76 341.853 267.176 341.117 265.224C340.413 263.24 340.061 260.568 340.061 257.208C340.061 254.616 340.349 252.2 340.925 249.96C341.533 247.72 342.445 245.784 343.661 244.152C344.877 242.488 346.413 241.192 348.269 240.264C350.125 239.304 352.301 238.824 354.797 238.824C355.949 238.824 357.005 238.904 357.965 239.064C358.925 239.224 359.821 239.464 360.653 239.784C361.485 240.104 362.285 240.504 363.053 240.984C363.821 241.432 364.573 241.944 365.309 242.52ZM359.213 262.248C359.213 260.808 358.685 259.624 357.629 258.696C356.605 257.768 355.181 257.304 353.357 257.304C351.533 257.304 350.109 257.768 349.085 258.696C348.093 259.592 347.597 260.76 347.597 262.2C347.597 263.672 348.109 264.888 349.133 265.848C350.189 266.776 351.629 267.24 353.453 267.24C355.277 267.24 356.685 266.776 357.677 265.848C358.701 264.92 359.213 263.72 359.213 262.248ZM281.838 288V290.19H269.118V297.69H280.488V299.85H269.118V309H266.748V288H281.838ZM295.406 300.66V309H293.006V300.69L284.276 288H287.156L294.236 298.5L301.376 288H304.136L295.406 300.66ZM314.15 289.83C312.95 289.83 311.92 290.14 311.06 290.76C310.2 291.36 309.35 292.25 308.51 293.43L306.77 292.17C307.25 291.47 307.74 290.84 308.24 290.28C308.74 289.72 309.28 289.25 309.86 288.87C310.46 288.49 311.12 288.2 311.84 288C312.58 287.8 313.41 287.7 314.33 287.7C315.29 287.7 316.16 287.85 316.94 288.15C317.74 288.45 318.43 288.87 319.01 289.41C319.59 289.93 320.04 290.56 320.36 291.3C320.68 292.02 320.84 292.81 320.84 293.67C320.84 294.45 320.73 295.16 320.51 295.8C320.31 296.44 319.99 297.08 319.55 297.72C319.11 298.34 318.56 298.99 317.9 299.67C317.24 300.33 316.45 301.06 315.53 301.86L309.92 306.84H321.05V309H306.38V307.17L314 300.45C314.8 299.73 315.48 299.08 316.04 298.5C316.6 297.92 317.05 297.38 317.39 296.88C317.75 296.36 318 295.86 318.14 295.38C318.3 294.88 318.38 294.37 318.38 293.85C318.38 293.23 318.26 292.68 318.02 292.2C317.8 291.7 317.5 291.28 317.12 290.94C316.74 290.58 316.29 290.31 315.77 290.13C315.25 289.93 314.71 289.83 314.15 289.83ZM335.769 290.13H325.509V288H338.919V289.74L332.319 297.06C333.239 297.14 334.119 297.31 334.959 297.57C335.799 297.83 336.529 298.2 337.149 298.68C337.789 299.16 338.299 299.76 338.679 300.48C339.059 301.2 339.249 302.04 339.249 303C339.249 303.94 339.059 304.8 338.679 305.58C338.319 306.36 337.819 307.03 337.179 307.59C336.559 308.15 335.819 308.59 334.959 308.91C334.119 309.21 333.209 309.36 332.229 309.36C330.469 309.36 328.939 309.02 327.639 308.34C326.339 307.64 325.259 306.73 324.399 305.61L326.109 304.08C326.929 305.08 327.829 305.85 328.809 306.39C329.809 306.93 330.959 307.2 332.259 307.2C332.899 307.2 333.499 307.11 334.059 306.93C334.619 306.73 335.099 306.45 335.499 306.09C335.919 305.73 336.249 305.3 336.489 304.8C336.729 304.28 336.849 303.71 336.849 303.09C336.849 301.77 336.299 300.76 335.199 300.06C334.119 299.36 332.709 299.01 330.969 299.01H329.619L329.139 297.6L335.769 290.13ZM368.712 304.83V288H371.022V309H369.132L355.572 291.78V309H353.262V288H355.482L368.712 304.83ZM392.683 294.69C392.683 295.83 392.463 296.83 392.023 297.69C391.583 298.55 390.983 299.27 390.223 299.85C389.483 300.43 388.613 300.87 387.613 301.17C386.613 301.45 385.553 301.59 384.433 301.59H379.333V309H376.963V288H384.823C386.003 288 387.073 288.16 388.033 288.48C389.013 288.78 389.843 289.22 390.523 289.8C391.223 290.36 391.753 291.06 392.113 291.9C392.493 292.72 392.683 293.65 392.683 294.69ZM390.283 294.78C390.283 293.26 389.763 292.12 388.723 291.36C387.703 290.58 386.343 290.19 384.643 290.19H379.333V299.43H384.523C385.383 299.43 386.163 299.32 386.863 299.1C387.583 298.88 388.193 298.57 388.693 298.17C389.213 297.75 389.603 297.26 389.863 296.7C390.143 296.12 390.283 295.48 390.283 294.78ZM398.832 293.25C398.832 293.75 398.912 294.2 399.072 294.6C399.232 295 399.522 295.37 399.942 295.71C400.362 296.03 400.942 296.33 401.682 296.61C402.422 296.87 403.372 297.12 404.532 297.36C406.872 297.88 408.592 298.6 409.692 299.52C410.812 300.44 411.372 301.71 411.372 303.33C411.372 304.23 411.192 305.05 410.832 305.79C410.472 306.53 409.972 307.16 409.332 307.68C408.712 308.2 407.962 308.6 407.082 308.88C406.202 309.16 405.242 309.3 404.202 309.3C402.522 309.3 400.982 309.03 399.582 308.49C398.202 307.93 396.882 307.08 395.622 305.94L397.092 304.2C398.192 305.2 399.302 305.95 400.422 306.45C401.542 306.93 402.832 307.17 404.292 307.17C405.712 307.17 406.842 306.84 407.682 306.18C408.542 305.52 408.972 304.65 408.972 303.57C408.972 303.07 408.892 302.63 408.732 302.25C408.572 301.85 408.292 301.49 407.892 301.17C407.492 300.85 406.932 300.56 406.212 300.3C405.512 300.04 404.612 299.79 403.512 299.55C402.312 299.29 401.262 298.99 400.362 298.65C399.482 298.31 398.752 297.9 398.172 297.42C397.592 296.94 397.162 296.38 396.882 295.74C396.602 295.1 396.462 294.34 396.462 293.46C396.462 292.62 396.632 291.85 396.972 291.15C397.312 290.45 397.792 289.85 398.412 289.35C399.032 288.83 399.762 288.43 400.602 288.15C401.442 287.85 402.362 287.7 403.362 287.7C404.902 287.7 406.242 287.92 407.382 288.36C408.542 288.78 409.662 289.42 410.742 290.28L409.362 292.11C408.382 291.31 407.392 290.73 406.392 290.37C405.412 290.01 404.382 289.83 403.302 289.83C402.622 289.83 402.002 289.92 401.442 290.1C400.902 290.28 400.432 290.52 400.032 290.82C399.652 291.12 399.352 291.48 399.132 291.9C398.932 292.32 398.832 292.77 398.832 293.25Z" fill="#AD3088"/>
<path d="M972.088 226.4L960.616 260.24H954.184L946.6 238.256L939.016 260.24H932.584L921.112 226.4H929.032L935.992 249.152L943.528 226.304H949.864L957.4 249.152L964.36 226.4H972.088ZM984.619 231.44H976.939V224.96H984.619V231.44ZM984.427 260H977.131V234.272H984.427V260ZM1014.85 260H1007.55V245.648C1007.55 243.92 1007.17 242.624 1006.4 241.76C1005.63 240.864 1004.54 240.416 1003.14 240.416C1001.73 240.416 1000.61 240.864 999.776 241.76C998.976 242.624 998.576 243.92 998.576 245.648V260H991.28V234.272H998.576V237.92C998.992 237.376 999.44 236.864 999.92 236.384C1000.43 235.872 1000.99 235.424 1001.6 235.04C1002.21 234.656 1002.88 234.352 1003.62 234.128C1004.35 233.904 1005.18 233.792 1006.11 233.792C1008.9 233.792 1011.04 234.64 1012.54 236.336C1014.08 238.032 1014.85 240.368 1014.85 243.344V260ZM1044.75 260H1037.46V245.648C1037.46 243.92 1037.07 242.624 1036.31 241.76C1035.54 240.864 1034.45 240.416 1033.04 240.416C1031.63 240.416 1030.51 240.864 1029.68 241.76C1028.88 242.624 1028.48 243.92 1028.48 245.648V260H1021.19V234.272H1028.48V237.92C1028.9 237.376 1029.35 236.864 1029.83 236.384C1030.34 235.872 1030.9 235.424 1031.51 235.04C1032.11 234.656 1032.79 234.352 1033.52 234.128C1034.26 233.904 1035.09 233.792 1036.02 233.792C1038.8 233.792 1040.95 234.64 1042.45 236.336C1043.99 238.032 1044.75 240.368 1044.75 243.344V260ZM1075.09 247.856C1075.09 248.208 1075.08 248.512 1075.04 248.768C1075.04 249.024 1075.03 249.328 1075 249.68H1057.09C1057.44 251.344 1058.16 252.608 1059.25 253.472C1060.37 254.304 1061.75 254.72 1063.38 254.72C1064.6 254.72 1065.68 254.512 1066.64 254.096C1067.6 253.68 1068.6 253.008 1069.62 252.08L1073.8 255.776C1072.58 257.28 1071.11 258.464 1069.38 259.328C1067.65 260.16 1065.62 260.576 1063.28 260.576C1061.36 260.576 1059.57 260.256 1057.91 259.616C1056.28 258.976 1054.85 258.064 1053.64 256.88C1052.45 255.696 1051.52 254.304 1050.85 252.704C1050.18 251.072 1049.84 249.264 1049.84 247.28V247.184C1049.84 245.36 1050.15 243.632 1050.76 242C1051.4 240.368 1052.28 238.944 1053.4 237.728C1054.52 236.512 1055.84 235.552 1057.38 234.848C1058.95 234.144 1060.68 233.792 1062.56 233.792C1064.71 233.792 1066.56 234.176 1068.13 234.944C1069.7 235.712 1071 236.752 1072.02 238.064C1073.08 239.344 1073.84 240.832 1074.32 242.528C1074.84 244.192 1075.09 245.936 1075.09 247.76V247.856ZM1067.99 245.12C1067.76 243.488 1067.19 242.176 1066.26 241.184C1065.33 240.16 1064.1 239.648 1062.56 239.648C1061.03 239.648 1059.78 240.144 1058.82 241.136C1057.89 242.128 1057.28 243.456 1057 245.12H1067.99ZM1096.03 241.424H1095.65C1093.22 241.424 1091.3 242.16 1089.89 243.632C1088.51 245.104 1087.83 247.392 1087.83 250.496V260H1080.53V234.272H1087.83V239.456C1088.56 237.696 1089.57 236.288 1090.85 235.232C1092.13 234.176 1093.86 233.696 1096.03 233.792V241.424ZM898.79 288.23C898.79 289.33 898.58 290.38 898.16 291.38C897.76 292.36 897.2 293.22 896.48 293.96C895.76 294.7 894.9 295.29 893.9 295.73C892.9 296.15 891.82 296.36 890.66 296.36C889.5 296.36 888.43 296.15 887.45 295.73C886.47 295.29 885.62 294.71 884.9 293.99C884.18 293.25 883.62 292.39 883.22 291.41C882.82 290.43 882.62 289.39 882.62 288.29C882.62 287.19 882.82 286.15 883.22 285.17C883.62 284.17 884.18 283.3 884.9 282.56C885.62 281.82 886.47 281.24 887.45 280.82C888.45 280.38 889.54 280.16 890.72 280.16C891.88 280.16 892.95 280.38 893.93 280.82C894.93 281.24 895.79 281.82 896.51 282.56C897.23 283.28 897.79 284.13 898.19 285.11C898.59 286.09 898.79 287.13 898.79 288.23ZM896.42 288.29C896.42 287.45 896.27 286.66 895.97 285.92C895.69 285.18 895.29 284.54 894.77 284C894.25 283.44 893.64 283 892.94 282.68C892.24 282.36 891.48 282.2 890.66 282.2C889.82 282.2 889.05 282.36 888.35 282.68C887.65 282.98 887.05 283.41 886.55 283.97C886.07 284.51 885.69 285.15 885.41 285.89C885.13 286.61 884.99 287.39 884.99 288.23C884.99 289.07 885.13 289.86 885.41 290.6C885.71 291.34 886.11 291.98 886.61 292.52C887.13 293.06 887.74 293.49 888.44 293.81C889.14 294.13 889.9 294.29 890.72 294.29C891.56 294.29 892.33 294.14 893.03 293.84C893.73 293.52 894.33 293.09 894.83 292.55C895.33 292.01 895.72 291.38 896 290.66C896.28 289.92 896.42 289.13 896.42 288.29ZM906.125 280.55H911.045V282.53H906.155V296H903.845V282.53H901.715V280.52H903.845V279.17C903.845 277.47 904.245 276.18 905.045 275.3C905.865 274.42 907.025 273.98 908.525 273.98C909.065 273.98 909.525 274.01 909.905 274.07C910.305 274.13 910.695 274.23 911.075 274.37V276.38C910.655 276.26 910.275 276.17 909.935 276.11C909.595 276.03 909.225 275.99 908.825 275.99C907.025 275.99 906.125 277.09 906.125 279.29V280.55ZM931.684 293.09L939.184 275H941.734L932.704 296.15H930.604L921.574 275H924.214L931.684 293.09ZM948.985 282.32C948.065 282.32 947.225 282.43 946.465 282.65C945.725 282.85 944.995 283.12 944.275 283.46L943.585 281.57C944.445 281.17 945.315 280.86 946.195 280.64C947.075 280.4 948.085 280.28 949.225 280.28C951.345 280.28 952.975 280.81 954.115 281.87C955.255 282.91 955.825 284.46 955.825 286.52V296H953.605V293.66C953.065 294.36 952.335 294.98 951.415 295.52C950.515 296.06 949.375 296.33 947.995 296.33C947.275 296.33 946.565 296.23 945.865 296.03C945.185 295.83 944.565 295.53 944.005 295.13C943.465 294.71 943.025 294.2 942.685 293.6C942.365 293 942.205 292.29 942.205 291.47C942.205 290.65 942.365 289.93 942.685 289.31C943.005 288.67 943.455 288.14 944.035 287.72C944.635 287.3 945.335 286.98 946.135 286.76C946.955 286.54 947.855 286.43 948.835 286.43C949.835 286.43 950.705 286.49 951.445 286.61C952.185 286.73 952.905 286.89 953.605 287.09V286.55C953.605 285.15 953.195 284.1 952.375 283.4C951.575 282.68 950.445 282.32 948.985 282.32ZM949.075 288.14C947.615 288.14 946.495 288.43 945.715 289.01C944.935 289.59 944.545 290.38 944.545 291.38C944.545 291.88 944.645 292.32 944.845 292.7C945.065 293.08 945.355 293.41 945.715 293.69C946.075 293.95 946.485 294.15 946.945 294.29C947.425 294.43 947.925 294.5 948.445 294.5C949.165 294.5 949.835 294.4 950.455 294.2C951.095 293.98 951.645 293.69 952.105 293.33C952.585 292.95 952.955 292.51 953.215 292.01C953.495 291.49 953.635 290.92 953.635 290.3V288.8C953.055 288.64 952.385 288.49 951.625 288.35C950.885 288.21 950.035 288.14 949.075 288.14ZM963.058 289.82V296H960.748V280.49H963.058V284.54C963.338 283.9 963.688 283.31 964.108 282.77C964.528 282.23 965.008 281.77 965.548 281.39C966.088 280.99 966.678 280.69 967.318 280.49C967.958 280.29 968.648 280.2 969.388 280.22V282.71H969.208C968.368 282.71 967.568 282.86 966.808 283.16C966.068 283.46 965.418 283.91 964.858 284.51C964.298 285.11 963.858 285.86 963.538 286.76C963.218 287.64 963.058 288.66 963.058 289.82ZM975.606 277.1H972.966V274.55H975.606V277.1ZM975.426 296H973.116V280.49H975.426V296ZM995.997 288.23C995.997 289.33 995.787 290.38 995.367 291.38C994.967 292.36 994.407 293.22 993.687 293.96C992.967 294.7 992.107 295.29 991.107 295.73C990.107 296.15 989.027 296.36 987.867 296.36C986.707 296.36 985.637 296.15 984.657 295.73C983.677 295.29 982.827 294.71 982.107 293.99C981.387 293.25 980.827 292.39 980.427 291.41C980.027 290.43 979.827 289.39 979.827 288.29C979.827 287.19 980.027 286.15 980.427 285.17C980.827 284.17 981.387 283.3 982.107 282.56C982.827 281.82 983.677 281.24 984.657 280.82C985.657 280.38 986.747 280.16 987.927 280.16C989.087 280.16 990.157 280.38 991.137 280.82C992.137 281.24 992.997 281.82 993.717 282.56C994.437 283.28 994.997 284.13 995.397 285.11C995.797 286.09 995.997 287.13 995.997 288.23ZM993.627 288.29C993.627 287.45 993.477 286.66 993.177 285.92C992.897 285.18 992.497 284.54 991.977 284C991.457 283.44 990.847 283 990.147 282.68C989.447 282.36 988.687 282.2 987.867 282.2C987.027 282.2 986.257 282.36 985.557 282.68C984.857 282.98 984.257 283.41 983.757 283.97C983.277 284.51 982.897 285.15 982.617 285.89C982.337 286.61 982.197 287.39 982.197 288.23C982.197 289.07 982.337 289.86 982.617 290.6C982.917 291.34 983.317 291.98 983.817 292.52C984.337 293.06 984.947 293.49 985.647 293.81C986.347 294.13 987.107 294.29 987.927 294.29C988.767 294.29 989.537 294.14 990.237 293.84C990.937 293.52 991.537 293.09 992.037 292.55C992.537 292.01 992.927 291.38 993.207 290.66C993.487 289.92 993.627 289.13 993.627 288.29ZM1011.19 289.37V280.49H1013.47V296H1011.19V293.3C1010.67 294.14 1009.99 294.86 1009.15 295.46C1008.31 296.04 1007.22 296.33 1005.88 296.33C1004.94 296.33 1004.1 296.18 1003.36 295.88C1002.64 295.58 1002.02 295.16 1001.5 294.62C1001 294.06 1000.61 293.4 1000.33 292.64C1000.07 291.88 999.942 291.04 999.942 290.12V280.49H1002.25V289.55C1002.25 290.99 1002.62 292.13 1003.36 292.97C1004.1 293.81 1005.16 294.23 1006.54 294.23C1007.2 294.23 1007.81 294.12 1008.37 293.9C1008.95 293.66 1009.44 293.33 1009.84 292.91C1010.26 292.47 1010.59 291.95 1010.83 291.35C1011.07 290.75 1011.19 290.09 1011.19 289.37ZM1029.32 291.65C1029.32 292.39 1029.17 293.05 1028.87 293.63C1028.59 294.19 1028.2 294.67 1027.7 295.07C1027.22 295.47 1026.64 295.78 1025.96 296C1025.3 296.2 1024.58 296.3 1023.8 296.3C1022.68 296.3 1021.55 296.1 1020.41 295.7C1019.27 295.28 1018.26 294.72 1017.38 294.02L1018.55 292.37C1019.39 293.01 1020.26 293.5 1021.16 293.84C1022.08 294.18 1023 294.35 1023.92 294.35C1024.86 294.35 1025.63 294.13 1026.23 293.69C1026.83 293.25 1027.13 292.65 1027.13 291.89V291.83C1027.13 291.45 1027.02 291.12 1026.8 290.84C1026.6 290.56 1026.32 290.32 1025.96 290.12C1025.6 289.9 1025.18 289.71 1024.7 289.55C1024.24 289.39 1023.76 289.24 1023.26 289.1C1022.66 288.92 1022.05 288.73 1021.43 288.53C1020.83 288.31 1020.28 288.04 1019.78 287.72C1019.3 287.4 1018.9 287 1018.58 286.52C1018.28 286.04 1018.13 285.44 1018.13 284.72V284.66C1018.13 284 1018.26 283.4 1018.52 282.86C1018.78 282.3 1019.14 281.83 1019.6 281.45C1020.08 281.05 1020.64 280.75 1021.28 280.55C1021.94 280.33 1022.65 280.22 1023.41 280.22C1024.37 280.22 1025.34 280.38 1026.32 280.7C1027.3 281 1028.19 281.41 1028.99 281.93L1027.94 283.67C1027.22 283.21 1026.46 282.85 1025.66 282.59C1024.88 282.31 1024.11 282.17 1023.35 282.17C1022.43 282.17 1021.7 282.39 1021.16 282.83C1020.62 283.25 1020.35 283.78 1020.35 284.42V284.48C1020.35 284.84 1020.46 285.16 1020.68 285.44C1020.9 285.7 1021.19 285.93 1021.55 286.13C1021.93 286.33 1022.36 286.51 1022.84 286.67C1023.32 286.83 1023.82 286.99 1024.34 287.15C1024.94 287.33 1025.53 287.53 1026.11 287.75C1026.71 287.97 1027.25 288.25 1027.73 288.59C1028.21 288.93 1028.59 289.34 1028.87 289.82C1029.17 290.3 1029.32 290.89 1029.32 291.59V291.65ZM1061.17 293.15C1060.19 294.03 1058.98 294.79 1057.54 295.43C1056.12 296.05 1054.52 296.36 1052.74 296.36C1051.08 296.36 1049.59 296.08 1048.27 295.52C1046.97 294.96 1045.85 294.19 1044.91 293.21C1043.99 292.23 1043.28 291.08 1042.78 289.76C1042.3 288.44 1042.06 287.03 1042.06 285.53C1042.06 284.09 1042.31 282.71 1042.81 281.39C1043.33 280.07 1044.05 278.91 1044.97 277.91C1045.89 276.91 1046.99 276.12 1048.27 275.54C1049.57 274.94 1051.01 274.64 1052.59 274.64C1053.47 274.64 1054.27 274.7 1054.99 274.82C1055.73 274.94 1056.41 275.12 1057.03 275.36C1057.67 275.6 1058.26 275.9 1058.8 276.26C1059.36 276.6 1059.9 276.99 1060.42 277.43L1058.89 279.23C1058.49 278.87 1058.07 278.55 1057.63 278.27C1057.19 277.97 1056.71 277.72 1056.19 277.52C1055.69 277.3 1055.13 277.13 1054.51 277.01C1053.91 276.89 1053.24 276.83 1052.5 276.83C1051.34 276.83 1050.27 277.06 1049.29 277.52C1048.31 277.98 1047.47 278.6 1046.77 279.38C1046.07 280.16 1045.52 281.08 1045.12 282.14C1044.72 283.18 1044.52 284.29 1044.52 285.47C1044.52 286.73 1044.71 287.9 1045.09 288.98C1045.49 290.04 1046.05 290.96 1046.77 291.74C1047.49 292.52 1048.36 293.13 1049.38 293.57C1050.4 294.01 1051.55 294.23 1052.83 294.23C1054.03 294.23 1055.16 294.03 1056.22 293.63C1057.28 293.21 1058.17 292.71 1058.89 292.13V286.91H1052.5V284.78H1061.17V293.15ZM1068.65 296H1066.34V274.1H1068.65V296ZM1089.22 288.23C1089.22 289.33 1089.01 290.38 1088.59 291.38C1088.19 292.36 1087.63 293.22 1086.91 293.96C1086.19 294.7 1085.33 295.29 1084.33 295.73C1083.33 296.15 1082.25 296.36 1081.09 296.36C1079.93 296.36 1078.86 296.15 1077.88 295.73C1076.9 295.29 1076.05 294.71 1075.33 293.99C1074.61 293.25 1074.05 292.39 1073.65 291.41C1073.25 290.43 1073.05 289.39 1073.05 288.29C1073.05 287.19 1073.25 286.15 1073.65 285.17C1074.05 284.17 1074.61 283.3 1075.33 282.56C1076.05 281.82 1076.9 281.24 1077.88 280.82C1078.88 280.38 1079.97 280.16 1081.15 280.16C1082.31 280.16 1083.38 280.38 1084.36 280.82C1085.36 281.24 1086.22 281.82 1086.94 282.56C1087.66 283.28 1088.22 284.13 1088.62 285.11C1089.02 286.09 1089.22 287.13 1089.22 288.23ZM1086.85 288.29C1086.85 287.45 1086.7 286.66 1086.4 285.92C1086.12 285.18 1085.72 284.54 1085.2 284C1084.68 283.44 1084.07 283 1083.37 282.68C1082.67 282.36 1081.91 282.2 1081.09 282.2C1080.25 282.2 1079.48 282.36 1078.78 282.68C1078.08 282.98 1077.48 283.41 1076.98 283.97C1076.5 284.51 1076.12 285.15 1075.84 285.89C1075.56 286.61 1075.42 287.39 1075.42 288.23C1075.42 289.07 1075.56 289.86 1075.84 290.6C1076.14 291.34 1076.54 291.98 1077.04 292.52C1077.56 293.06 1078.17 293.49 1078.87 293.81C1079.57 294.13 1080.33 294.29 1081.15 294.29C1081.99 294.29 1082.76 294.14 1083.46 293.84C1084.16 293.52 1084.76 293.09 1085.26 292.55C1085.76 292.01 1086.15 291.38 1086.43 290.66C1086.71 289.92 1086.85 289.13 1086.85 288.29ZM1109.06 288.23C1109.06 289.51 1108.85 290.65 1108.43 291.65C1108.01 292.65 1107.45 293.5 1106.75 294.2C1106.07 294.88 1105.28 295.41 1104.38 295.79C1103.5 296.15 1102.59 296.33 1101.65 296.33C1100.93 296.33 1100.27 296.24 1099.67 296.06C1099.07 295.88 1098.53 295.64 1098.05 295.34C1097.57 295.04 1097.13 294.69 1096.73 294.29C1096.35 293.89 1096.01 293.47 1095.71 293.03V296H1093.4V274.1H1095.71V283.61C1096.03 283.15 1096.38 282.71 1096.76 282.29C1097.16 281.87 1097.6 281.51 1098.08 281.21C1098.56 280.89 1099.09 280.64 1099.67 280.46C1100.27 280.26 1100.93 280.16 1101.65 280.16C1102.57 280.16 1103.47 280.34 1104.35 280.7C1105.25 281.06 1106.05 281.59 1106.75 282.29C1107.45 282.97 1108.01 283.81 1108.43 284.81C1108.85 285.81 1109.06 286.95 1109.06 288.23ZM1106.69 288.26C1106.69 287.34 1106.54 286.51 1106.24 285.77C1105.96 285.03 1105.57 284.4 1105.07 283.88C1104.57 283.34 1103.99 282.93 1103.33 282.65C1102.67 282.37 1101.97 282.23 1101.23 282.23C1100.51 282.23 1099.81 282.38 1099.13 282.68C1098.47 282.96 1097.87 283.36 1097.33 283.88C1096.81 284.4 1096.39 285.03 1096.07 285.77C1095.77 286.51 1095.62 287.33 1095.62 288.23C1095.62 289.13 1095.77 289.96 1096.07 290.72C1096.39 291.46 1096.81 292.09 1097.33 292.61C1097.87 293.13 1098.47 293.54 1099.13 293.84C1099.81 294.12 1100.51 294.26 1101.23 294.26C1101.97 294.26 1102.67 294.13 1103.33 293.87C1104.01 293.59 1104.59 293.2 1105.07 292.7C1105.57 292.18 1105.96 291.55 1106.24 290.81C1106.54 290.05 1106.69 289.2 1106.69 288.26ZM1118.94 282.32C1118.02 282.32 1117.18 282.43 1116.42 282.65C1115.68 282.85 1114.95 283.12 1114.23 283.46L1113.54 281.57C1114.4 281.17 1115.27 280.86 1116.15 280.64C1117.03 280.4 1118.04 280.28 1119.18 280.28C1121.3 280.28 1122.93 280.81 1124.07 281.87C1125.21 282.91 1125.78 284.46 1125.78 286.52V296H1123.56V293.66C1123.02 294.36 1122.29 294.98 1121.37 295.52C1120.47 296.06 1119.33 296.33 1117.95 296.33C1117.23 296.33 1116.52 296.23 1115.82 296.03C1115.14 295.83 1114.52 295.53 1113.96 295.13C1113.42 294.71 1112.98 294.2 1112.64 293.6C1112.32 293 1112.16 292.29 1112.16 291.47C1112.16 290.65 1112.32 289.93 1112.64 289.31C1112.96 288.67 1113.41 288.14 1113.99 287.72C1114.59 287.3 1115.29 286.98 1116.09 286.76C1116.91 286.54 1117.81 286.43 1118.79 286.43C1119.79 286.43 1120.66 286.49 1121.4 286.61C1122.14 286.73 1122.86 286.89 1123.56 287.09V286.55C1123.56 285.15 1123.15 284.1 1122.33 283.4C1121.53 282.68 1120.4 282.32 1118.94 282.32ZM1119.03 288.14C1117.57 288.14 1116.45 288.43 1115.67 289.01C1114.89 289.59 1114.5 290.38 1114.5 291.38C1114.5 291.88 1114.6 292.32 1114.8 292.7C1115.02 293.08 1115.31 293.41 1115.67 293.69C1116.03 293.95 1116.44 294.15 1116.9 294.29C1117.38 294.43 1117.88 294.5 1118.4 294.5C1119.12 294.5 1119.79 294.4 1120.41 294.2C1121.05 293.98 1121.6 293.69 1122.06 293.33C1122.54 292.95 1122.91 292.51 1123.17 292.01C1123.45 291.49 1123.59 290.92 1123.59 290.3V288.8C1123.01 288.64 1122.34 288.49 1121.58 288.35C1120.84 288.21 1119.99 288.14 1119.03 288.14ZM1133.22 296H1130.91V274.1H1133.22V296ZM947.541 328.67C947.001 329.23 946.431 329.74 945.831 330.2C945.251 330.64 944.621 331.02 943.941 331.34C943.261 331.66 942.531 331.91 941.751 332.09C940.971 332.27 940.101 332.36 939.141 332.36C937.621 332.36 936.221 332.08 934.941 331.52C933.661 330.96 932.551 330.2 931.611 329.24C930.671 328.26 929.931 327.11 929.391 325.79C928.871 324.47 928.611 323.05 928.611 321.53C928.611 320.03 928.871 318.62 929.391 317.3C929.931 315.98 930.671 314.83 931.611 313.85C932.551 312.85 933.671 312.07 934.971 311.51C936.271 310.93 937.691 310.64 939.231 310.64C940.191 310.64 941.051 310.72 941.811 310.88C942.591 311.04 943.311 311.27 943.971 311.57C944.631 311.85 945.241 312.2 945.801 312.62C946.361 313.02 946.901 313.47 947.421 313.97L945.801 315.71C944.901 314.87 943.931 314.18 942.891 313.64C941.871 313.1 940.641 312.83 939.201 312.83C938.041 312.83 936.961 313.05 935.961 313.49C934.981 313.93 934.121 314.54 933.381 315.32C932.661 316.1 932.091 317.02 931.671 318.08C931.271 319.12 931.071 320.25 931.071 321.47C931.071 322.69 931.271 323.83 931.671 324.89C932.091 325.95 932.661 326.87 933.381 327.65C934.121 328.43 934.981 329.05 935.961 329.51C936.961 329.95 938.041 330.17 939.201 330.17C940.641 330.17 941.881 329.91 942.921 329.39C943.961 328.85 944.981 328.1 945.981 327.14L947.541 328.67ZM968.797 332H965.977L959.257 322.97L952.537 332H949.807L957.877 321.29L950.107 311H952.897L959.347 319.58L965.737 311H968.497L960.727 321.26L968.797 332ZM992.119 310.85L1001.69 332H999.139L996.679 326.45H985.249L982.759 332H980.329L989.899 310.85H992.119ZM995.749 324.32L990.979 313.61L986.179 324.32H995.749ZM1015.31 316.43L1019.51 328.94L1023.59 316.49H1025.99L1020.53 332.12H1018.52L1014.35 319.88L1010.15 332.12H1008.11L1002.68 316.49H1005.14L1009.22 328.94L1013.39 316.43H1015.31ZM1034.87 318.32C1033.95 318.32 1033.11 318.43 1032.35 318.65C1031.61 318.85 1030.88 319.12 1030.16 319.46L1029.47 317.57C1030.33 317.17 1031.2 316.86 1032.08 316.64C1032.96 316.4 1033.97 316.28 1035.11 316.28C1037.23 316.28 1038.86 316.81 1040 317.87C1041.14 318.91 1041.71 320.46 1041.71 322.52V332H1039.49V329.66C1038.95 330.36 1038.22 330.98 1037.3 331.52C1036.4 332.06 1035.26 332.33 1033.88 332.33C1033.16 332.33 1032.45 332.23 1031.75 332.03C1031.07 331.83 1030.45 331.53 1029.89 331.13C1029.35 330.71 1028.91 330.2 1028.57 329.6C1028.25 329 1028.09 328.29 1028.09 327.47C1028.09 326.65 1028.25 325.93 1028.57 325.31C1028.89 324.67 1029.34 324.14 1029.92 323.72C1030.52 323.3 1031.22 322.98 1032.02 322.76C1032.84 322.54 1033.74 322.43 1034.72 322.43C1035.72 322.43 1036.59 322.49 1037.33 322.61C1038.07 322.73 1038.79 322.89 1039.49 323.09V322.55C1039.49 321.15 1039.08 320.1 1038.26 319.4C1037.46 318.68 1036.33 318.32 1034.87 318.32ZM1034.96 324.14C1033.5 324.14 1032.38 324.43 1031.6 325.01C1030.82 325.59 1030.43 326.38 1030.43 327.38C1030.43 327.88 1030.53 328.32 1030.73 328.7C1030.95 329.08 1031.24 329.41 1031.6 329.69C1031.96 329.95 1032.37 330.15 1032.83 330.29C1033.31 330.43 1033.81 330.5 1034.33 330.5C1035.05 330.5 1035.72 330.4 1036.34 330.2C1036.98 329.98 1037.53 329.69 1037.99 329.33C1038.47 328.95 1038.84 328.51 1039.1 328.01C1039.38 327.49 1039.52 326.92 1039.52 326.3V324.8C1038.94 324.64 1038.27 324.49 1037.51 324.35C1036.77 324.21 1035.92 324.14 1034.96 324.14ZM1048.94 325.82V332H1046.63V316.49H1048.94V320.54C1049.22 319.9 1049.57 319.31 1049.99 318.77C1050.41 318.23 1050.89 317.77 1051.43 317.39C1051.97 316.99 1052.56 316.69 1053.2 316.49C1053.84 316.29 1054.53 316.2 1055.27 316.22V318.71H1055.09C1054.25 318.71 1053.45 318.86 1052.69 319.16C1051.95 319.46 1051.3 319.91 1050.74 320.51C1050.18 321.11 1049.74 321.86 1049.42 322.76C1049.1 323.64 1048.94 324.66 1048.94 325.82ZM1072.91 332H1070.6V328.88C1070.28 329.34 1069.92 329.78 1069.52 330.2C1069.14 330.62 1068.71 330.99 1068.23 331.31C1067.75 331.63 1067.21 331.88 1066.61 332.06C1066.03 332.24 1065.38 332.33 1064.66 332.33C1063.72 332.33 1062.81 332.15 1061.93 331.79C1061.05 331.43 1060.26 330.91 1059.56 330.23C1058.86 329.53 1058.3 328.68 1057.88 327.68C1057.46 326.68 1057.25 325.54 1057.25 324.26C1057.25 322.98 1057.46 321.84 1057.88 320.84C1058.3 319.84 1058.86 319 1059.56 318.32C1060.26 317.62 1061.05 317.09 1061.93 316.73C1062.81 316.35 1063.72 316.16 1064.66 316.16C1065.38 316.16 1066.04 316.25 1066.64 316.43C1067.24 316.61 1067.78 316.85 1068.26 317.15C1068.74 317.45 1069.17 317.8 1069.55 318.2C1069.95 318.6 1070.3 319.02 1070.6 319.46V310.1H1072.91V332ZM1070.69 324.23C1070.69 323.33 1070.53 322.51 1070.21 321.77C1069.91 321.03 1069.49 320.4 1068.95 319.88C1068.43 319.36 1067.83 318.96 1067.15 318.68C1066.49 318.38 1065.8 318.23 1065.08 318.23C1064.32 318.23 1063.61 318.37 1062.95 318.65C1062.29 318.91 1061.71 319.3 1061.21 319.82C1060.73 320.32 1060.34 320.95 1060.04 321.71C1059.76 322.45 1059.62 323.29 1059.62 324.23C1059.62 325.15 1059.76 325.98 1060.04 326.72C1060.34 327.46 1060.74 328.1 1061.24 328.64C1061.74 329.16 1062.32 329.56 1062.98 329.84C1063.64 330.12 1064.34 330.26 1065.08 330.26C1065.8 330.26 1066.49 330.12 1067.15 329.84C1067.83 329.54 1068.43 329.13 1068.95 328.61C1069.49 328.09 1069.91 327.46 1070.21 326.72C1070.53 325.96 1070.69 325.13 1070.69 324.23ZM1088.72 327.65C1088.72 328.39 1088.57 329.05 1088.27 329.63C1087.99 330.19 1087.6 330.67 1087.1 331.07C1086.62 331.47 1086.04 331.78 1085.36 332C1084.7 332.2 1083.98 332.3 1083.2 332.3C1082.08 332.3 1080.95 332.1 1079.81 331.7C1078.67 331.28 1077.66 330.72 1076.78 330.02L1077.95 328.37C1078.79 329.01 1079.66 329.5 1080.56 329.84C1081.48 330.18 1082.4 330.35 1083.32 330.35C1084.26 330.35 1085.03 330.13 1085.63 329.69C1086.23 329.25 1086.53 328.65 1086.53 327.89V327.83C1086.53 327.45 1086.42 327.12 1086.2 326.84C1086 326.56 1085.72 326.32 1085.36 326.12C1085 325.9 1084.58 325.71 1084.1 325.55C1083.64 325.39 1083.16 325.24 1082.66 325.1C1082.06 324.92 1081.45 324.73 1080.83 324.53C1080.23 324.31 1079.68 324.04 1079.18 323.72C1078.7 323.4 1078.3 323 1077.98 322.52C1077.68 322.04 1077.53 321.44 1077.53 320.72V320.66C1077.53 320 1077.66 319.4 1077.92 318.86C1078.18 318.3 1078.54 317.83 1079 317.45C1079.48 317.05 1080.04 316.75 1080.68 316.55C1081.34 316.33 1082.05 316.22 1082.81 316.22C1083.77 316.22 1084.74 316.38 1085.72 316.7C1086.7 317 1087.59 317.41 1088.39 317.93L1087.34 319.67C1086.62 319.21 1085.86 318.85 1085.06 318.59C1084.28 318.31 1083.51 318.17 1082.75 318.17C1081.83 318.17 1081.1 318.39 1080.56 318.83C1080.02 319.25 1079.75 319.78 1079.75 320.42V320.48C1079.75 320.84 1079.86 321.16 1080.08 321.44C1080.3 321.7 1080.59 321.93 1080.95 322.13C1081.33 322.33 1081.76 322.51 1082.24 322.67C1082.72 322.83 1083.22 322.99 1083.74 323.15C1084.34 323.33 1084.93 323.53 1085.51 323.75C1086.11 323.97 1086.65 324.25 1087.13 324.59C1087.61 324.93 1087.99 325.34 1088.27 325.82C1088.57 326.3 1088.72 326.89 1088.72 327.59V327.65Z" fill="#AD3088"/>
<path d="M240.496 111.74C240.136 112.127 239.762 112.473 239.376 112.78C238.989 113.087 238.562 113.353 238.096 113.58C237.642 113.793 237.142 113.953 236.596 114.06C236.049 114.18 235.436 114.24 234.756 114.24C233.729 114.24 232.776 114.053 231.896 113.68C231.016 113.307 230.256 112.8 229.616 112.16C228.976 111.507 228.476 110.74 228.116 109.86C227.756 108.98 227.576 108.04 227.576 107.04V107C227.576 106 227.756 105.067 228.116 104.2C228.476 103.32 228.976 102.553 229.616 101.9C230.256 101.233 231.022 100.713 231.916 100.34C232.809 99.9533 233.796 99.76 234.876 99.76C235.529 99.76 236.122 99.8133 236.656 99.92C237.202 100.027 237.696 100.173 238.136 100.36C238.576 100.547 238.982 100.773 239.356 101.04C239.729 101.307 240.076 101.6 240.396 101.92L238.436 104.18C237.889 103.687 237.329 103.3 236.756 103.02C236.196 102.74 235.562 102.6 234.856 102.6C234.269 102.6 233.722 102.713 233.216 102.94C232.722 103.167 232.296 103.48 231.936 103.88C231.576 104.28 231.296 104.747 231.096 105.28C230.896 105.8 230.796 106.36 230.796 106.96V107C230.796 107.6 230.896 108.167 231.096 108.7C231.296 109.233 231.569 109.7 231.916 110.1C232.276 110.5 232.702 110.82 233.196 111.06C233.702 111.287 234.256 111.4 234.856 111.4C235.656 111.4 236.329 111.253 236.876 110.96C237.436 110.667 237.989 110.267 238.536 109.76L240.496 111.74ZM252.381 114H249.341V112.48C249.168 112.707 248.975 112.927 248.761 113.14C248.561 113.34 248.335 113.52 248.081 113.68C247.828 113.84 247.548 113.967 247.241 114.06C246.935 114.153 246.588 114.2 246.201 114.2C245.041 114.2 244.141 113.847 243.501 113.14C242.875 112.433 242.561 111.46 242.561 110.22V103.28H245.601V109.26C245.601 109.98 245.761 110.527 246.081 110.9C246.401 111.26 246.855 111.44 247.441 111.44C248.028 111.44 248.488 111.26 248.821 110.9C249.168 110.527 249.341 109.98 249.341 109.26V103.28H252.381V114ZM262.962 110.74C262.962 111.34 262.856 111.86 262.642 112.3C262.442 112.727 262.156 113.08 261.782 113.36C261.409 113.64 260.969 113.853 260.462 114C259.969 114.133 259.436 114.2 258.862 114.2C258.102 114.2 257.322 114.073 256.522 113.82C255.736 113.553 254.982 113.14 254.262 112.58L255.562 110.58C256.149 111.007 256.729 111.327 257.302 111.54C257.889 111.753 258.436 111.86 258.942 111.86C259.382 111.86 259.702 111.787 259.902 111.64C260.116 111.493 260.222 111.3 260.222 111.06V111.02C260.222 110.86 260.162 110.72 260.042 110.6C259.922 110.48 259.756 110.38 259.542 110.3C259.342 110.207 259.109 110.12 258.842 110.04C258.576 109.96 258.296 109.873 258.002 109.78C257.629 109.673 257.249 109.547 256.862 109.4C256.489 109.24 256.149 109.04 255.842 108.8C255.536 108.547 255.282 108.24 255.082 107.88C254.896 107.52 254.802 107.08 254.802 106.56V106.52C254.802 105.973 254.902 105.493 255.102 105.08C255.316 104.653 255.596 104.293 255.942 104C256.302 103.707 256.716 103.487 257.182 103.34C257.662 103.193 258.176 103.12 258.722 103.12C259.402 103.12 260.089 103.233 260.782 103.46C261.489 103.673 262.136 103.973 262.722 104.36L261.562 106.46C261.029 106.153 260.509 105.913 260.002 105.74C259.496 105.553 259.049 105.46 258.662 105.46C258.289 105.46 258.009 105.533 257.822 105.68C257.636 105.813 257.542 105.987 257.542 106.2V106.24C257.542 106.387 257.602 106.52 257.722 106.64C257.842 106.747 258.002 106.853 258.202 106.96C258.402 107.053 258.629 107.147 258.882 107.24C259.149 107.333 259.429 107.427 259.722 107.52C260.096 107.64 260.476 107.787 260.862 107.96C261.249 108.12 261.596 108.32 261.902 108.56C262.209 108.8 262.462 109.093 262.662 109.44C262.862 109.787 262.962 110.207 262.962 110.7V110.74ZM271.161 113.56C270.841 113.747 270.488 113.893 270.101 114C269.715 114.12 269.268 114.18 268.761 114.18C268.295 114.18 267.868 114.127 267.481 114.02C267.108 113.927 266.781 113.753 266.501 113.5C266.235 113.247 266.021 112.92 265.861 112.52C265.715 112.107 265.641 111.587 265.641 110.96V105.88H264.361V103.28H265.641V100.54H268.681V103.28H271.201V105.88H268.681V110.46C268.681 111.153 269.008 111.5 269.661 111.5C270.195 111.5 270.695 111.373 271.161 111.12V113.56ZM284.522 108.66C284.522 109.433 284.375 110.16 284.082 110.84C283.789 111.507 283.382 112.093 282.862 112.6C282.342 113.107 281.729 113.507 281.022 113.8C280.315 114.093 279.542 114.24 278.702 114.24C277.875 114.24 277.109 114.1 276.402 113.82C275.695 113.527 275.082 113.133 274.562 112.64C274.055 112.133 273.655 111.547 273.362 110.88C273.069 110.2 272.922 109.473 272.922 108.7V108.66C272.922 107.887 273.069 107.167 273.362 106.5C273.655 105.82 274.062 105.227 274.582 104.72C275.102 104.213 275.715 103.813 276.422 103.52C277.129 103.227 277.902 103.08 278.742 103.08C279.569 103.08 280.335 103.227 281.042 103.52C281.749 103.8 282.355 104.193 282.862 104.7C283.382 105.193 283.789 105.78 284.082 106.46C284.375 107.127 284.522 107.847 284.522 108.62V108.66ZM281.522 108.7V108.66C281.522 108.26 281.455 107.887 281.322 107.54C281.189 107.18 280.995 106.867 280.742 106.6C280.489 106.32 280.189 106.1 279.842 105.94C279.495 105.78 279.115 105.7 278.702 105.7C278.262 105.7 277.869 105.78 277.522 105.94C277.189 106.087 276.902 106.293 276.662 106.56C276.422 106.827 276.235 107.14 276.102 107.5C275.982 107.847 275.922 108.22 275.922 108.62V108.66C275.922 109.06 275.989 109.44 276.122 109.8C276.255 110.147 276.449 110.46 276.702 110.74C276.955 111.007 277.249 111.22 277.582 111.38C277.929 111.54 278.315 111.62 278.742 111.62C279.182 111.62 279.569 111.547 279.902 111.4C280.249 111.24 280.542 111.027 280.782 110.76C281.022 110.493 281.202 110.187 281.322 109.84C281.455 109.48 281.522 109.1 281.522 108.7ZM303.083 114H300.043V108.02C300.043 107.3 299.89 106.76 299.583 106.4C299.277 106.027 298.837 105.84 298.263 105.84C297.69 105.84 297.237 106.027 296.903 106.4C296.583 106.76 296.423 107.3 296.423 108.02V114H293.383V108.02C293.383 107.3 293.23 106.76 292.923 106.4C292.617 106.027 292.177 105.84 291.603 105.84C291.03 105.84 290.577 106.027 290.243 106.4C289.923 106.76 289.763 107.3 289.763 108.02V114H286.723V103.28H289.763V104.8C289.937 104.573 290.123 104.36 290.323 104.16C290.537 103.947 290.77 103.76 291.023 103.6C291.277 103.44 291.557 103.313 291.863 103.22C292.183 103.127 292.537 103.08 292.923 103.08C293.63 103.08 294.237 103.227 294.743 103.52C295.263 103.813 295.663 104.233 295.943 104.78C296.41 104.22 296.93 103.8 297.503 103.52C298.077 103.227 298.73 103.08 299.463 103.08C300.597 103.08 301.483 103.413 302.123 104.08C302.763 104.747 303.083 105.727 303.083 107.02V114ZM315.727 108.94C315.727 109.087 315.721 109.213 315.707 109.32C315.707 109.427 315.701 109.553 315.687 109.7H308.227C308.374 110.393 308.674 110.92 309.127 111.28C309.594 111.627 310.167 111.8 310.847 111.8C311.354 111.8 311.807 111.713 312.207 111.54C312.607 111.367 313.021 111.087 313.447 110.7L315.187 112.24C314.681 112.867 314.067 113.36 313.347 113.72C312.627 114.067 311.781 114.24 310.807 114.24C310.007 114.24 309.261 114.107 308.567 113.84C307.887 113.573 307.294 113.193 306.787 112.7C306.294 112.207 305.907 111.627 305.627 110.96C305.347 110.28 305.207 109.527 305.207 108.7V108.66C305.207 107.9 305.334 107.18 305.587 106.5C305.854 105.82 306.221 105.227 306.687 104.72C307.154 104.213 307.707 103.813 308.347 103.52C309.001 103.227 309.721 103.08 310.507 103.08C311.401 103.08 312.174 103.24 312.827 103.56C313.481 103.88 314.021 104.313 314.447 104.86C314.887 105.393 315.207 106.013 315.407 106.72C315.621 107.413 315.727 108.14 315.727 108.9V108.94ZM312.767 107.8C312.674 107.12 312.434 106.573 312.047 106.16C311.661 105.733 311.147 105.52 310.507 105.52C309.867 105.52 309.347 105.727 308.947 106.14C308.561 106.553 308.307 107.107 308.187 107.8H312.767ZM324.453 106.26H324.293C323.279 106.26 322.479 106.567 321.893 107.18C321.319 107.793 321.033 108.747 321.033 110.04V114H317.993V103.28H321.033V105.44C321.339 104.707 321.759 104.12 322.293 103.68C322.826 103.24 323.546 103.04 324.453 103.08V106.26ZM344.768 114H341.168L338.168 109.52H335.748V114H332.668V100H339.068C340.735 100 342.028 100.407 342.948 101.22C343.882 102.033 344.348 103.167 344.348 104.62V104.66C344.348 105.793 344.068 106.72 343.508 107.44C342.962 108.147 342.242 108.667 341.348 109L344.768 114ZM341.228 104.82V104.78C341.228 104.113 341.015 103.613 340.588 103.28C340.162 102.947 339.568 102.78 338.808 102.78H335.748V106.8H338.868C339.628 106.8 340.208 106.62 340.608 106.26C341.022 105.9 341.228 105.42 341.228 104.82ZM356.801 108.94C356.801 109.087 356.795 109.213 356.781 109.32C356.781 109.427 356.775 109.553 356.761 109.7H349.301C349.448 110.393 349.748 110.92 350.201 111.28C350.668 111.627 351.241 111.8 351.921 111.8C352.428 111.8 352.881 111.713 353.281 111.54C353.681 111.367 354.095 111.087 354.521 110.7L356.261 112.24C355.755 112.867 355.141 113.36 354.421 113.72C353.701 114.067 352.855 114.24 351.881 114.24C351.081 114.24 350.335 114.107 349.641 113.84C348.961 113.573 348.368 113.193 347.861 112.7C347.368 112.207 346.981 111.627 346.701 110.96C346.421 110.28 346.281 109.527 346.281 108.7V108.66C346.281 107.9 346.408 107.18 346.661 106.5C346.928 105.82 347.295 105.227 347.761 104.72C348.228 104.213 348.781 103.813 349.421 103.52C350.075 103.227 350.795 103.08 351.581 103.08C352.475 103.08 353.248 103.24 353.901 103.56C354.555 103.88 355.095 104.313 355.521 104.86C355.961 105.393 356.281 106.013 356.481 106.72C356.695 107.413 356.801 108.14 356.801 108.9V108.94ZM353.841 107.8C353.748 107.12 353.508 106.573 353.121 106.16C352.735 105.733 352.221 105.52 351.581 105.52C350.941 105.52 350.421 105.727 350.021 106.14C349.635 106.553 349.381 107.107 349.261 107.8H353.841ZM368.507 112.28C367.987 112.853 367.394 113.327 366.727 113.7C366.06 114.06 365.194 114.24 364.127 114.24C363.327 114.24 362.58 114.093 361.887 113.8C361.207 113.507 360.62 113.113 360.127 112.62C359.634 112.113 359.247 111.527 358.967 110.86C358.687 110.18 358.547 109.46 358.547 108.7V108.66C358.547 107.9 358.687 107.18 358.967 106.5C359.247 105.82 359.634 105.227 360.127 104.72C360.62 104.213 361.207 103.813 361.887 103.52C362.58 103.227 363.34 103.08 364.167 103.08C365.18 103.08 366.02 103.24 366.687 103.56C367.354 103.88 367.94 104.32 368.447 104.88L366.587 106.88C366.24 106.52 365.88 106.233 365.507 106.02C365.147 105.807 364.694 105.7 364.147 105.7C363.76 105.7 363.407 105.78 363.087 105.94C362.78 106.087 362.507 106.293 362.267 106.56C362.04 106.827 361.86 107.14 361.727 107.5C361.607 107.847 361.547 108.22 361.547 108.62V108.66C361.547 109.073 361.607 109.46 361.727 109.82C361.86 110.18 362.047 110.493 362.287 110.76C362.527 111.027 362.814 111.24 363.147 111.4C363.48 111.547 363.854 111.62 364.267 111.62C364.774 111.62 365.214 111.52 365.587 111.32C365.974 111.107 366.354 110.827 366.727 110.48L368.507 112.28ZM381.573 108.66C381.573 109.433 381.426 110.16 381.133 110.84C380.839 111.507 380.433 112.093 379.913 112.6C379.393 113.107 378.779 113.507 378.073 113.8C377.366 114.093 376.593 114.24 375.753 114.24C374.926 114.24 374.159 114.1 373.453 113.82C372.746 113.527 372.133 113.133 371.613 112.64C371.106 112.133 370.706 111.547 370.413 110.88C370.119 110.2 369.973 109.473 369.973 108.7V108.66C369.973 107.887 370.119 107.167 370.413 106.5C370.706 105.82 371.113 105.227 371.633 104.72C372.153 104.213 372.766 103.813 373.473 103.52C374.179 103.227 374.953 103.08 375.793 103.08C376.619 103.08 377.386 103.227 378.093 103.52C378.799 103.8 379.406 104.193 379.913 104.7C380.433 105.193 380.839 105.78 381.133 106.46C381.426 107.127 381.573 107.847 381.573 108.62V108.66ZM378.573 108.7V108.66C378.573 108.26 378.506 107.887 378.373 107.54C378.239 107.18 378.046 106.867 377.793 106.6C377.539 106.32 377.239 106.1 376.893 105.94C376.546 105.78 376.166 105.7 375.753 105.7C375.313 105.7 374.919 105.78 374.573 105.94C374.239 106.087 373.953 106.293 373.713 106.56C373.473 106.827 373.286 107.14 373.153 107.5C373.033 107.847 372.973 108.22 372.973 108.62V108.66C372.973 109.06 373.039 109.44 373.173 109.8C373.306 110.147 373.499 110.46 373.753 110.74C374.006 111.007 374.299 111.22 374.633 111.38C374.979 111.54 375.366 111.62 375.793 111.62C376.233 111.62 376.619 111.547 376.953 111.4C377.299 111.24 377.593 111.027 377.833 110.76C378.073 110.493 378.253 110.187 378.373 109.84C378.506 109.48 378.573 109.1 378.573 108.7ZM394.554 111.58C394.554 112.593 394.427 113.453 394.174 114.16C393.934 114.88 393.561 115.467 393.054 115.92C392.561 116.373 391.941 116.707 391.194 116.92C390.447 117.133 389.574 117.24 388.574 117.24C387.694 117.24 386.854 117.14 386.054 116.94C385.254 116.753 384.514 116.48 383.834 116.12L384.874 113.84C385.434 114.147 385.994 114.387 386.554 114.56C387.127 114.733 387.774 114.82 388.494 114.82C389.534 114.82 390.301 114.573 390.794 114.08C391.301 113.587 391.554 112.86 391.554 111.9V111.38C391.101 111.927 390.607 112.353 390.074 112.66C389.541 112.967 388.867 113.12 388.054 113.12C387.427 113.12 386.827 113.013 386.254 112.8C385.681 112.573 385.174 112.247 384.734 111.82C384.294 111.393 383.941 110.873 383.674 110.26C383.421 109.633 383.294 108.92 383.294 108.12V108.08C383.294 107.28 383.427 106.573 383.694 105.96C383.961 105.333 384.314 104.807 384.754 104.38C385.194 103.953 385.701 103.633 386.274 103.42C386.847 103.193 387.441 103.08 388.054 103.08C388.881 103.08 389.561 103.233 390.094 103.54C390.627 103.847 391.101 104.227 391.514 104.68V103.28H394.554V111.58ZM391.554 108.12V108.08C391.554 107.72 391.487 107.387 391.354 107.08C391.221 106.773 391.034 106.513 390.794 106.3C390.567 106.073 390.294 105.9 389.974 105.78C389.654 105.66 389.307 105.6 388.934 105.6C388.561 105.6 388.214 105.66 387.894 105.78C387.587 105.9 387.314 106.073 387.074 106.3C386.847 106.513 386.667 106.773 386.534 107.08C386.401 107.387 386.334 107.72 386.334 108.08V108.12C386.334 108.867 386.581 109.467 387.074 109.92C387.567 110.373 388.187 110.6 388.934 110.6C389.307 110.6 389.654 110.54 389.974 110.42C390.294 110.3 390.567 110.133 390.794 109.92C391.034 109.693 391.221 109.427 391.354 109.12C391.487 108.813 391.554 108.48 391.554 108.12ZM407.09 114H404.05V108.02C404.05 107.3 403.89 106.76 403.57 106.4C403.25 106.027 402.797 105.84 402.21 105.84C401.623 105.84 401.157 106.027 400.81 106.4C400.477 106.76 400.31 107.3 400.31 108.02V114H397.27V103.28H400.31V104.8C400.483 104.573 400.67 104.36 400.87 104.16C401.083 103.947 401.317 103.76 401.57 103.6C401.823 103.44 402.103 103.313 402.41 103.22C402.717 103.127 403.063 103.08 403.45 103.08C404.61 103.08 405.503 103.433 406.13 104.14C406.77 104.847 407.09 105.82 407.09 107.06V114ZM412.991 102.1H409.791V99.4H412.991V102.1ZM412.911 114H409.871V103.28H412.911V114ZM421.786 113.56C421.466 113.747 421.113 113.893 420.726 114C420.34 114.12 419.893 114.18 419.386 114.18C418.92 114.18 418.493 114.127 418.106 114.02C417.733 113.927 417.406 113.753 417.126 113.5C416.86 113.247 416.646 112.92 416.486 112.52C416.34 112.107 416.266 111.587 416.266 110.96V105.88H414.986V103.28H416.266V100.54H419.306V103.28H421.826V105.88H419.306V110.46C419.306 111.153 419.633 111.5 420.286 111.5C420.82 111.5 421.32 111.373 421.786 111.12V113.56ZM427.327 102.1H424.127V99.4H427.327V102.1ZM427.247 114H424.207V103.28H427.247V114ZM441.182 108.66C441.182 109.433 441.036 110.16 440.742 110.84C440.449 111.507 440.042 112.093 439.522 112.6C439.002 113.107 438.389 113.507 437.682 113.8C436.976 114.093 436.202 114.24 435.362 114.24C434.536 114.24 433.769 114.1 433.062 113.82C432.356 113.527 431.742 113.133 431.222 112.64C430.716 112.133 430.316 111.547 430.022 110.88C429.729 110.2 429.582 109.473 429.582 108.7V108.66C429.582 107.887 429.729 107.167 430.022 106.5C430.316 105.82 430.722 105.227 431.242 104.72C431.762 104.213 432.376 103.813 433.082 103.52C433.789 103.227 434.562 103.08 435.402 103.08C436.229 103.08 436.996 103.227 437.702 103.52C438.409 103.8 439.016 104.193 439.522 104.7C440.042 105.193 440.449 105.78 440.742 106.46C441.036 107.127 441.182 107.847 441.182 108.62V108.66ZM438.182 108.7V108.66C438.182 108.26 438.116 107.887 437.982 107.54C437.849 107.18 437.656 106.867 437.402 106.6C437.149 106.32 436.849 106.1 436.502 105.94C436.156 105.78 435.776 105.7 435.362 105.7C434.922 105.7 434.529 105.78 434.182 105.94C433.849 106.087 433.562 106.293 433.322 106.56C433.082 106.827 432.896 107.14 432.762 107.5C432.642 107.847 432.582 108.22 432.582 108.62V108.66C432.582 109.06 432.649 109.44 432.782 109.8C432.916 110.147 433.109 110.46 433.362 110.74C433.616 111.007 433.909 111.22 434.242 111.38C434.589 111.54 434.976 111.62 435.402 111.62C435.842 111.62 436.229 111.547 436.562 111.4C436.909 111.24 437.202 111.027 437.442 110.76C437.682 110.493 437.862 110.187 437.982 109.84C438.116 109.48 438.182 109.1 438.182 108.7ZM453.203 114H450.163V108.02C450.163 107.3 450.003 106.76 449.683 106.4C449.363 106.027 448.91 105.84 448.323 105.84C447.737 105.84 447.27 106.027 446.923 106.4C446.59 106.76 446.423 107.3 446.423 108.02V114H443.383V103.28H446.423V104.8C446.597 104.573 446.783 104.36 446.983 104.16C447.197 103.947 447.43 103.76 447.683 103.6C447.937 103.44 448.217 103.313 448.523 103.22C448.83 103.127 449.177 103.08 449.563 103.08C450.723 103.08 451.617 103.433 452.243 104.14C452.883 104.847 453.203 105.82 453.203 107.06V114Z" fill="#FFCD00"/>
<path d="M924.953 113H921.893V103.86L917.953 109.84H917.873L913.973 103.92V113H910.953V99H914.273L917.953 104.92L921.633 99H924.953V113ZM937.217 113H934.277V111.84C933.903 112.253 933.457 112.587 932.937 112.84C932.417 113.08 931.783 113.2 931.037 113.2C930.53 113.2 930.05 113.133 929.597 113C929.157 112.853 928.77 112.64 928.437 112.36C928.103 112.08 927.837 111.74 927.637 111.34C927.45 110.927 927.357 110.453 927.357 109.92V109.88C927.357 109.293 927.463 108.787 927.677 108.36C927.89 107.933 928.183 107.58 928.557 107.3C928.943 107.02 929.397 106.813 929.917 106.68C930.45 106.533 931.037 106.46 931.677 106.46C932.223 106.46 932.697 106.5 933.097 106.58C933.51 106.66 933.91 106.767 934.297 106.9V106.72C934.297 106.08 934.103 105.593 933.717 105.26C933.33 104.927 932.757 104.76 931.997 104.76C931.41 104.76 930.89 104.813 930.437 104.92C929.997 105.013 929.53 105.153 929.037 105.34L928.277 103.02C928.863 102.767 929.477 102.56 930.117 102.4C930.757 102.24 931.53 102.16 932.437 102.16C934.103 102.16 935.317 102.567 936.077 103.38C936.837 104.193 937.217 105.327 937.217 106.78V113ZM934.337 109.22V108.68C934.07 108.56 933.77 108.467 933.437 108.4C933.117 108.32 932.77 108.28 932.397 108.28C931.743 108.28 931.23 108.407 930.857 108.66C930.483 108.913 930.297 109.28 930.297 109.76V109.8C930.297 110.213 930.45 110.533 930.757 110.76C931.063 110.987 931.463 111.1 931.957 111.1C932.677 111.1 933.25 110.927 933.677 110.58C934.117 110.233 934.337 109.78 934.337 109.22ZM946.293 105.26H946.133C945.119 105.26 944.319 105.567 943.733 106.18C943.159 106.793 942.873 107.747 942.873 109.04V113H939.833V102.28H942.873V104.44C943.179 103.707 943.599 103.12 944.133 102.68C944.666 102.24 945.386 102.04 946.293 102.08V105.26ZM958.572 113H955.092L952.292 108.62L951.232 109.74V113H948.192V98.4H951.232V106.18L954.792 102.28H958.432L954.352 106.5L958.572 113ZM970.028 107.94C970.028 108.087 970.021 108.213 970.008 108.32C970.008 108.427 970.001 108.553 969.988 108.7H962.528C962.675 109.393 962.975 109.92 963.428 110.28C963.895 110.627 964.468 110.8 965.148 110.8C965.655 110.8 966.108 110.713 966.508 110.54C966.908 110.367 967.321 110.087 967.748 109.7L969.488 111.24C968.981 111.867 968.368 112.36 967.648 112.72C966.928 113.067 966.081 113.24 965.108 113.24C964.308 113.24 963.561 113.107 962.868 112.84C962.188 112.573 961.595 112.193 961.088 111.7C960.595 111.207 960.208 110.627 959.928 109.96C959.648 109.28 959.508 108.527 959.508 107.7V107.66C959.508 106.9 959.635 106.18 959.888 105.5C960.155 104.82 960.521 104.227 960.988 103.72C961.455 103.213 962.008 102.813 962.648 102.52C963.301 102.227 964.021 102.08 964.808 102.08C965.701 102.08 966.475 102.24 967.128 102.56C967.781 102.88 968.321 103.313 968.748 103.86C969.188 104.393 969.508 105.013 969.708 105.72C969.921 106.413 970.028 107.14 970.028 107.9V107.94ZM967.068 106.8C966.975 106.12 966.735 105.573 966.348 105.16C965.961 104.733 965.448 104.52 964.808 104.52C964.168 104.52 963.648 104.727 963.248 105.14C962.861 105.553 962.608 106.107 962.488 106.8H967.068ZM978.314 112.56C977.994 112.747 977.64 112.893 977.254 113C976.867 113.12 976.42 113.18 975.914 113.18C975.447 113.18 975.02 113.127 974.634 113.02C974.26 112.927 973.934 112.753 973.654 112.5C973.387 112.247 973.174 111.92 973.014 111.52C972.867 111.107 972.794 110.587 972.794 109.96V104.88H971.514V102.28H972.794V99.54H975.834V102.28H978.354V104.88H975.834V109.46C975.834 110.153 976.16 110.5 976.814 110.5C977.347 110.5 977.847 110.373 978.314 110.12V112.56ZM999.01 113H995.41L992.41 108.52H989.99V113H986.91V99H993.31C994.977 99 996.27 99.4067 997.19 100.22C998.124 101.033 998.59 102.167 998.59 103.62V103.66C998.59 104.793 998.31 105.72 997.75 106.44C997.204 107.147 996.484 107.667 995.59 108L999.01 113ZM995.47 103.82V103.78C995.47 103.113 995.257 102.613 994.83 102.28C994.404 101.947 993.81 101.78 993.05 101.78H989.99V105.8H993.11C993.87 105.8 994.45 105.62 994.85 105.26C995.264 104.9 995.47 104.42 995.47 103.82ZM1011.04 107.94C1011.04 108.087 1011.04 108.213 1011.02 108.32C1011.02 108.427 1011.02 108.553 1011 108.7H1003.54C1003.69 109.393 1003.99 109.92 1004.44 110.28C1004.91 110.627 1005.48 110.8 1006.16 110.8C1006.67 110.8 1007.12 110.713 1007.52 110.54C1007.92 110.367 1008.34 110.087 1008.76 109.7L1010.5 111.24C1010 111.867 1009.38 112.36 1008.66 112.72C1007.94 113.067 1007.1 113.24 1006.12 113.24C1005.32 113.24 1004.58 113.107 1003.88 112.84C1003.2 112.573 1002.61 112.193 1002.1 111.7C1001.61 111.207 1001.22 110.627 1000.94 109.96C1000.66 109.28 1000.52 108.527 1000.52 107.7V107.66C1000.52 106.9 1000.65 106.18 1000.9 105.5C1001.17 104.82 1001.54 104.227 1002 103.72C1002.47 103.213 1003.02 102.813 1003.66 102.52C1004.32 102.227 1005.04 102.08 1005.82 102.08C1006.72 102.08 1007.49 102.24 1008.14 102.56C1008.8 102.88 1009.34 103.313 1009.76 103.86C1010.2 104.393 1010.52 105.013 1010.72 105.72C1010.94 106.413 1011.04 107.14 1011.04 107.9V107.94ZM1008.08 106.8C1007.99 106.12 1007.75 105.573 1007.36 105.16C1006.98 104.733 1006.46 104.52 1005.82 104.52C1005.18 104.52 1004.66 104.727 1004.26 105.14C1003.88 105.553 1003.62 106.107 1003.5 106.8H1008.08ZM1022.75 111.28C1022.23 111.853 1021.64 112.327 1020.97 112.7C1020.3 113.06 1019.44 113.24 1018.37 113.24C1017.57 113.24 1016.82 113.093 1016.13 112.8C1015.45 112.507 1014.86 112.113 1014.37 111.62C1013.88 111.113 1013.49 110.527 1013.21 109.86C1012.93 109.18 1012.79 108.46 1012.79 107.7V107.66C1012.79 106.9 1012.93 106.18 1013.21 105.5C1013.49 104.82 1013.88 104.227 1014.37 103.72C1014.86 103.213 1015.45 102.813 1016.13 102.52C1016.82 102.227 1017.58 102.08 1018.41 102.08C1019.42 102.08 1020.26 102.24 1020.93 102.56C1021.6 102.88 1022.18 103.32 1022.69 103.88L1020.83 105.88C1020.48 105.52 1020.12 105.233 1019.75 105.02C1019.39 104.807 1018.94 104.7 1018.39 104.7C1018 104.7 1017.65 104.78 1017.33 104.94C1017.02 105.087 1016.75 105.293 1016.51 105.56C1016.28 105.827 1016.1 106.14 1015.97 106.5C1015.85 106.847 1015.79 107.22 1015.79 107.62V107.66C1015.79 108.073 1015.85 108.46 1015.97 108.82C1016.1 109.18 1016.29 109.493 1016.53 109.76C1016.77 110.027 1017.06 110.24 1017.39 110.4C1017.72 110.547 1018.1 110.62 1018.51 110.62C1019.02 110.62 1019.46 110.52 1019.83 110.32C1020.22 110.107 1020.6 109.827 1020.97 109.48L1022.75 111.28ZM1035.82 107.66C1035.82 108.433 1035.67 109.16 1035.38 109.84C1035.08 110.507 1034.68 111.093 1034.16 111.6C1033.64 112.107 1033.02 112.507 1032.32 112.8C1031.61 113.093 1030.84 113.24 1030 113.24C1029.17 113.24 1028.4 113.1 1027.7 112.82C1026.99 112.527 1026.38 112.133 1025.86 111.64C1025.35 111.133 1024.95 110.547 1024.66 109.88C1024.36 109.2 1024.22 108.473 1024.22 107.7V107.66C1024.22 106.887 1024.36 106.167 1024.66 105.5C1024.95 104.82 1025.36 104.227 1025.88 103.72C1026.4 103.213 1027.01 102.813 1027.72 102.52C1028.42 102.227 1029.2 102.08 1030.04 102.08C1030.86 102.08 1031.63 102.227 1032.34 102.52C1033.04 102.8 1033.65 103.193 1034.16 103.7C1034.68 104.193 1035.08 104.78 1035.38 105.46C1035.67 106.127 1035.82 106.847 1035.82 107.62V107.66ZM1032.82 107.7V107.66C1032.82 107.26 1032.75 106.887 1032.62 106.54C1032.48 106.18 1032.29 105.867 1032.04 105.6C1031.78 105.32 1031.48 105.1 1031.14 104.94C1030.79 104.78 1030.41 104.7 1030 104.7C1029.56 104.7 1029.16 104.78 1028.82 104.94C1028.48 105.087 1028.2 105.293 1027.96 105.56C1027.72 105.827 1027.53 106.14 1027.4 106.5C1027.28 106.847 1027.22 107.22 1027.22 107.62V107.66C1027.22 108.06 1027.28 108.44 1027.42 108.8C1027.55 109.147 1027.74 109.46 1028 109.74C1028.25 110.007 1028.54 110.22 1028.88 110.38C1029.22 110.54 1029.61 110.62 1030.04 110.62C1030.48 110.62 1030.86 110.547 1031.2 110.4C1031.54 110.24 1031.84 110.027 1032.08 109.76C1032.32 109.493 1032.5 109.187 1032.62 108.84C1032.75 108.48 1032.82 108.1 1032.82 107.7ZM1048.8 110.58C1048.8 111.593 1048.67 112.453 1048.42 113.16C1048.18 113.88 1047.8 114.467 1047.3 114.92C1046.8 115.373 1046.18 115.707 1045.44 115.92C1044.69 116.133 1043.82 116.24 1042.82 116.24C1041.94 116.24 1041.1 116.14 1040.3 115.94C1039.5 115.753 1038.76 115.48 1038.08 115.12L1039.12 112.84C1039.68 113.147 1040.24 113.387 1040.8 113.56C1041.37 113.733 1042.02 113.82 1042.74 113.82C1043.78 113.82 1044.54 113.573 1045.04 113.08C1045.54 112.587 1045.8 111.86 1045.8 110.9V110.38C1045.34 110.927 1044.85 111.353 1044.32 111.66C1043.78 111.967 1043.11 112.12 1042.3 112.12C1041.67 112.12 1041.07 112.013 1040.5 111.8C1039.92 111.573 1039.42 111.247 1038.98 110.82C1038.54 110.393 1038.18 109.873 1037.92 109.26C1037.66 108.633 1037.54 107.92 1037.54 107.12V107.08C1037.54 106.28 1037.67 105.573 1037.94 104.96C1038.2 104.333 1038.56 103.807 1039 103.38C1039.44 102.953 1039.94 102.633 1040.52 102.42C1041.09 102.193 1041.68 102.08 1042.3 102.08C1043.12 102.08 1043.8 102.233 1044.34 102.54C1044.87 102.847 1045.34 103.227 1045.76 103.68V102.28H1048.8V110.58ZM1045.8 107.12V107.08C1045.8 106.72 1045.73 106.387 1045.6 106.08C1045.46 105.773 1045.28 105.513 1045.04 105.3C1044.81 105.073 1044.54 104.9 1044.22 104.78C1043.9 104.66 1043.55 104.6 1043.18 104.6C1042.8 104.6 1042.46 104.66 1042.14 104.78C1041.83 104.9 1041.56 105.073 1041.32 105.3C1041.09 105.513 1040.91 105.773 1040.78 106.08C1040.64 106.387 1040.58 106.72 1040.58 107.08V107.12C1040.58 107.867 1040.82 108.467 1041.32 108.92C1041.81 109.373 1042.43 109.6 1043.18 109.6C1043.55 109.6 1043.9 109.54 1044.22 109.42C1044.54 109.3 1044.81 109.133 1045.04 108.92C1045.28 108.693 1045.46 108.427 1045.6 108.12C1045.73 107.813 1045.8 107.48 1045.8 107.12ZM1061.33 113H1058.29V107.02C1058.29 106.3 1058.13 105.76 1057.81 105.4C1057.49 105.027 1057.04 104.84 1056.45 104.84C1055.87 104.84 1055.4 105.027 1055.05 105.4C1054.72 105.76 1054.55 106.3 1054.55 107.02V113H1051.51V102.28H1054.55V103.8C1054.73 103.573 1054.91 103.36 1055.11 103.16C1055.33 102.947 1055.56 102.76 1055.81 102.6C1056.07 102.44 1056.35 102.313 1056.65 102.22C1056.96 102.127 1057.31 102.08 1057.69 102.08C1058.85 102.08 1059.75 102.433 1060.37 103.14C1061.01 103.847 1061.33 104.82 1061.33 106.06V113ZM1067.23 101.1H1064.03V98.4H1067.23V101.1ZM1067.15 113H1064.11V102.28H1067.15V113ZM1076.03 112.56C1075.71 112.747 1075.36 112.893 1074.97 113C1074.58 113.12 1074.14 113.18 1073.63 113.18C1073.16 113.18 1072.74 113.127 1072.35 113.02C1071.98 112.927 1071.65 112.753 1071.37 112.5C1071.1 112.247 1070.89 111.92 1070.73 111.52C1070.58 111.107 1070.51 110.587 1070.51 109.96V104.88H1069.23V102.28H1070.51V99.54H1073.55V102.28H1076.07V104.88H1073.55V109.46C1073.55 110.153 1073.88 110.5 1074.53 110.5C1075.06 110.5 1075.56 110.373 1076.03 110.12V112.56ZM1081.57 101.1H1078.37V98.4H1081.57V101.1ZM1081.49 113H1078.45V102.28H1081.49V113ZM1095.42 107.66C1095.42 108.433 1095.28 109.16 1094.98 109.84C1094.69 110.507 1094.28 111.093 1093.76 111.6C1093.24 112.107 1092.63 112.507 1091.92 112.8C1091.22 113.093 1090.44 113.24 1089.6 113.24C1088.78 113.24 1088.01 113.1 1087.3 112.82C1086.6 112.527 1085.98 112.133 1085.46 111.64C1084.96 111.133 1084.56 110.547 1084.26 109.88C1083.97 109.2 1083.82 108.473 1083.82 107.7V107.66C1083.82 106.887 1083.97 106.167 1084.26 105.5C1084.56 104.82 1084.96 104.227 1085.48 103.72C1086 103.213 1086.62 102.813 1087.32 102.52C1088.03 102.227 1088.8 102.08 1089.64 102.08C1090.47 102.08 1091.24 102.227 1091.94 102.52C1092.65 102.8 1093.26 103.193 1093.76 103.7C1094.28 104.193 1094.69 104.78 1094.98 105.46C1095.28 106.127 1095.42 106.847 1095.42 107.62V107.66ZM1092.42 107.7V107.66C1092.42 107.26 1092.36 106.887 1092.22 106.54C1092.09 106.18 1091.9 105.867 1091.64 105.6C1091.39 105.32 1091.09 105.1 1090.74 104.94C1090.4 104.78 1090.02 104.7 1089.6 104.7C1089.16 104.7 1088.77 104.78 1088.42 104.94C1088.09 105.087 1087.8 105.293 1087.56 105.56C1087.32 105.827 1087.14 106.14 1087 106.5C1086.88 106.847 1086.82 107.22 1086.82 107.62V107.66C1086.82 108.06 1086.89 108.44 1087.02 108.8C1087.16 109.147 1087.35 109.46 1087.6 109.74C1087.86 110.007 1088.15 110.22 1088.48 110.38C1088.83 110.54 1089.22 110.62 1089.64 110.62C1090.08 110.62 1090.47 110.547 1090.8 110.4C1091.15 110.24 1091.44 110.027 1091.68 109.76C1091.92 109.493 1092.1 109.187 1092.22 108.84C1092.36 108.48 1092.42 108.1 1092.42 107.7ZM1107.45 113H1104.41V107.02C1104.41 106.3 1104.25 105.76 1103.93 105.4C1103.61 105.027 1103.15 104.84 1102.57 104.84C1101.98 104.84 1101.51 105.027 1101.17 105.4C1100.83 105.76 1100.67 106.3 1100.67 107.02V113H1097.63V102.28H1100.67V103.8C1100.84 103.573 1101.03 103.36 1101.23 103.16C1101.44 102.947 1101.67 102.76 1101.93 102.6C1102.18 102.44 1102.46 102.313 1102.77 102.22C1103.07 102.127 1103.42 102.08 1103.81 102.08C1104.97 102.08 1105.86 102.433 1106.49 103.14C1107.13 103.847 1107.45 104.82 1107.45 106.06V113Z" fill="#FFCD00"/>
<path opacity="0.5" d="M673.5 34L487.738 8.49999L859.262 8.50003L673.5 34Z" fill="#F59ADA"/>
</g>
<defs>
<filter id="filter0_d_8_98" x="0" y="8.5" width="1348" height="460.5" filterUnits="userSpaceOnUse" color-interpolation-filters="sRGB">
<feFlood flood-opacity="0" result="BackgroundImageFix"/>
<feColorMatrix in="SourceAlpha" type="matrix" values="0 0 0 0 0 0 0 0 0 0 0 0 0 0 0 0 0 0 127 0" result="hardAlpha"/>
<feOffset dy="4"/>
<feGaussianBlur stdDeviation="2"/>
<feComposite in2="hardAlpha" operator="out"/>
<feColorMatrix type="matrix" values="0 0 0 0 0 0 0 0 0 0 0 0 0 0 0 0 0 0 0.25 0"/>
<feBlend mode="normal" in2="BackgroundImageFix" result="effect1_dropShadow_8_98"/>
<feBlend mode="normal" in="SourceGraphic" in2="effect1_dropShadow_8_98" result="shape"/>
</filter>
</defs>
</svg>
