<svg width="477" height="195" viewBox="0 0 477 195" fill="none" xmlns="http://www.w3.org/2000/svg">
<g opacity="0.5">
<path d="M92.7379 194.582C92.6651 194.582 92.5892 194.576 92.5164 194.564C71.1571 191.187 53.6601 178.872 41.9155 158.953C34.2577 145.962 29.4761 130.343 28.0896 113.777C26.7274 97.5083 28.7116 81.4643 33.8269 67.3807C39.6886 51.2365 50.7384 36.5581 65.7809 24.9325C66.3998 24.4561 67.2888 24.5684 67.7651 25.1874C68.2445 25.8065 68.1292 26.6957 67.5103 27.1721C52.8925 38.4699 42.1643 52.7083 36.4847 68.3487C26.2935 96.4158 29.4549 132.248 44.3488 157.515C55.6504 176.684 72.4557 188.528 92.9533 191.769C93.7239 191.891 94.2519 192.616 94.1305 193.39C94.0213 194.088 93.4175 194.585 92.7349 194.585L92.7379 194.582Z" fill="#E855BD"/>
<path d="M71.1374 186.474C71.1374 186.474 84.5476 164.858 65.0148 134.13C64.2806 135.775 54.678 162.698 71.1374 186.474Z" fill="#D266B2"/>
<path d="M58.344 177.704C58.344 177.704 33.7626 184.231 10.0701 156.583C11.8572 156.358 40.407 155.026 58.344 177.704Z" fill="#D266B2"/>
<path d="M36.7477 146.432C36.7477 146.432 11.5201 143.206 0 108.663C1.73848 109.127 28.6834 118.662 36.7477 146.432Z" fill="#D266B2"/>
<path d="M28.626 111.741C28.626 111.741 5.77099 100.576 5.96213 64.1641C7.45789 65.1655 29.9125 82.8512 28.626 111.741Z" fill="#D266B2"/>
<path d="M32.2739 75.0311C32.2739 75.0311 13.2477 58.1496 23.1871 23.1211C24.3612 24.4867 41.2545 47.5436 32.2739 75.0311Z" fill="#D266B2"/>
<path d="M44.0624 48.9027C44.0624 48.9027 33.3038 27.0262 53.9593 0C54.5115 1.63262 61.2955 28.1339 44.0624 48.9027Z" fill="#D266B2"/>
<path d="M45.4895 162.803C45.4895 162.803 66.1965 144.013 55.89 106.266C54.5975 107.762 36.1873 131.999 45.4895 162.803Z" fill="#D266B2"/>
<path d="M30.4766 120.696C30.4766 120.696 52.1878 108.382 53.0039 71.6689C51.4475 72.7311 30.5281 89.124 30.4766 120.696Z" fill="#D266B2"/>
<path d="M51.2119 45.7892C57.4346 41.2677 64.5948 38.1511 71.9826 36.0117C71.9674 37.5442 71.755 39.0736 71.3576 40.5545C70.863 42.3874 70.0803 44.1323 69.2216 45.8226C62.3406 59.3448 48.3569 72.1539 33.0898 75.1552C33.1384 73.4345 34.3004 71.1313 34.7798 69.444C37.5468 59.6908 42.9534 51.7917 51.2149 45.7892H51.2119Z" fill="#D266B2"/>
<path d="M68.1913 22.0824C78.3339 13.8829 91.3345 9.29151 104.375 9.30668C104.687 13.4064 99.2866 17.1936 96.4559 19.333C89.9753 24.2339 83.1579 27.572 75.2331 29.7114C70.3545 31.0284 64.8721 32.0875 59.8083 32.0784C59.6566 32.0784 59.4837 32.0663 59.3927 31.9479C59.2592 31.778 59.3866 31.5322 59.514 31.3562C60.5153 29.9663 61.8108 28.8192 62.8636 27.4688C64.4382 25.4508 66.204 23.6907 68.1943 22.0824H68.1913Z" fill="#D266B2"/>
</g>
<g opacity="0.5">
<path d="M383.647 194.583C382.965 194.583 382.361 194.085 382.252 193.387C382.13 192.616 382.655 191.891 383.429 191.766C403.924 188.525 420.732 176.681 432.034 157.512C446.93 132.246 450.092 96.4129 439.898 68.3458C434.218 52.7054 423.49 38.467 408.872 27.1692C408.253 26.6897 408.141 25.8036 408.617 25.1845C409.097 24.5655 409.982 24.4532 410.601 24.9296C425.644 36.5552 436.694 51.2336 442.555 67.3777C447.671 81.4614 449.655 97.5053 448.293 113.774C446.906 130.337 442.128 145.959 434.467 158.95C422.722 178.869 405.225 191.184 383.866 194.561C383.79 194.573 383.717 194.579 383.644 194.579L383.647 194.583Z" fill="#E855BD"/>
<path d="M405.251 186.474C405.251 186.474 391.841 164.858 411.374 134.13C412.108 135.775 421.711 162.698 405.251 186.474Z" fill="#D266B2"/>
<path d="M418.043 177.704C418.043 177.704 442.624 184.232 466.317 156.583C464.53 156.359 435.98 155.027 418.043 177.704Z" fill="#D266B2"/>
<path d="M439.637 146.433C439.637 146.433 464.864 143.21 476.384 108.664C474.646 109.128 447.701 118.663 439.637 146.433Z" fill="#D266B2"/>
<path d="M447.76 111.741C447.76 111.741 470.615 100.579 470.424 64.1641C468.928 65.1655 446.474 82.8512 447.76 111.741Z" fill="#D266B2"/>
<path d="M444.112 75.0311C444.112 75.0311 463.138 58.1496 453.199 23.1211C452.025 24.4867 435.132 47.5436 444.112 75.0311Z" fill="#D266B2"/>
<path d="M432.324 48.9027C432.324 48.9027 443.083 27.0262 422.427 0C421.875 1.63262 415.091 28.1339 432.324 48.9027Z" fill="#D266B2"/>
<path d="M430.898 162.803C430.898 162.803 410.191 144.013 420.497 106.266C421.79 107.762 440.2 131.999 430.898 162.803Z" fill="#D266B2"/>
<path d="M445.914 120.695C445.914 120.695 424.203 108.381 423.387 71.668C424.943 72.7301 445.863 89.123 445.914 120.695Z" fill="#D266B2"/>
<path d="M425.173 45.7892C418.95 41.2677 411.79 38.1511 404.402 36.0117C404.418 37.5442 404.63 39.0736 405.027 40.5545C405.522 42.3874 406.305 44.1323 407.163 45.8226C414.044 59.3448 428.028 72.1539 443.295 75.1552C443.247 73.4345 442.085 71.1313 441.605 69.444C438.838 59.6908 433.432 51.7917 425.17 45.7892H425.173Z" fill="#D266B2"/>
<path d="M408.196 22.0834C398.054 13.8838 385.056 9.29248 372.013 9.30765C371.7 13.4074 377.101 17.1946 379.932 19.334C386.412 24.2349 393.23 27.573 401.154 29.7124C406.033 31.0294 411.516 32.0885 416.579 32.0794C416.731 32.0794 416.904 32.0672 416.995 31.9489C417.128 31.7789 417.001 31.5331 416.874 31.3571C415.872 29.9673 414.577 28.8202 413.524 27.4698C411.949 25.4518 410.184 23.6917 408.193 22.0834H408.196Z" fill="#D266B2"/>
</g>
<path d="M199.216 64.248C197.488 65.72 195.424 66.984 193.024 68.04C190.656 69.064 187.936 69.576 184.864 69.576C182.24 69.576 179.84 69.144 177.664 68.28C175.52 67.416 173.664 66.216 172.096 64.68C170.56 63.144 169.36 61.32 168.496 59.208C167.632 57.096 167.2 54.792 167.2 52.296V52.2C167.2 49.8 167.632 47.56 168.496 45.48C169.392 43.368 170.624 41.528 172.192 39.96C173.76 38.36 175.616 37.112 177.76 36.216C179.904 35.288 182.256 34.824 184.816 34.824C186.32 34.824 187.68 34.936 188.896 35.16C190.144 35.352 191.296 35.64 192.352 36.024C193.408 36.408 194.4 36.888 195.328 37.464C196.256 38.04 197.152 38.696 198.016 39.432L193.36 45.048C192.72 44.504 192.08 44.024 191.44 43.608C190.8 43.192 190.128 42.84 189.424 42.552C188.752 42.264 188.016 42.04 187.216 41.88C186.416 41.72 185.536 41.64 184.576 41.64C183.232 41.64 181.968 41.928 180.784 42.504C179.632 43.048 178.608 43.8 177.712 44.76C176.848 45.688 176.16 46.792 175.648 48.072C175.168 49.32 174.928 50.664 174.928 52.104V52.2C174.928 53.736 175.168 55.16 175.648 56.472C176.16 57.752 176.864 58.872 177.76 59.832C178.688 60.792 179.76 61.544 180.976 62.088C182.224 62.6 183.6 62.856 185.104 62.856C187.856 62.856 190.176 62.184 192.064 60.84V56.04H184.624V49.656H199.216V64.248ZM240.553 52.2C240.553 54.6 240.105 56.856 239.209 58.968C238.313 61.048 237.065 62.888 235.465 64.488C233.897 66.056 232.009 67.304 229.801 68.232C227.625 69.128 225.241 69.576 222.649 69.576C220.057 69.576 217.673 69.128 215.497 68.232C213.321 67.304 211.433 66.072 209.833 64.536C208.265 62.968 207.033 61.144 206.137 59.064C205.273 56.952 204.841 54.696 204.841 52.296V52.2C204.841 49.8 205.289 47.56 206.185 45.48C207.081 43.368 208.313 41.528 209.881 39.96C211.481 38.36 213.369 37.112 215.545 36.216C217.753 35.288 220.153 34.824 222.745 34.824C225.337 34.824 227.721 35.288 229.897 36.216C232.073 37.112 233.945 38.344 235.513 39.912C237.113 41.448 238.345 43.272 239.209 45.384C240.105 47.464 240.553 49.704 240.553 52.104V52.2ZM232.825 52.296V52.2C232.825 50.76 232.569 49.4 232.057 48.12C231.577 46.84 230.873 45.72 229.945 44.76C229.049 43.8 227.977 43.048 226.729 42.504C225.481 41.928 224.121 41.64 222.649 41.64C221.145 41.64 219.769 41.912 218.521 42.456C217.305 43 216.249 43.752 215.353 44.712C214.489 45.672 213.801 46.792 213.289 48.072C212.809 49.32 212.569 50.664 212.569 52.104V52.2C212.569 53.64 212.809 55 213.289 56.28C213.801 57.56 214.505 58.68 215.401 59.64C216.329 60.6 217.401 61.368 218.617 61.944C219.865 62.488 221.241 62.76 222.745 62.76C224.217 62.76 225.577 62.488 226.825 61.944C228.073 61.4 229.129 60.648 229.993 59.688C230.889 58.728 231.577 57.624 232.057 56.376C232.569 55.096 232.825 53.736 232.825 52.296ZM271.254 69H247.11V35.4H254.502V62.28H271.254V69ZM307.789 52.2C307.789 54.568 307.357 56.776 306.493 58.824C305.629 60.872 304.397 62.648 302.797 64.152C301.229 65.656 299.341 66.84 297.133 67.704C294.957 68.568 292.557 69 289.933 69H276.829V35.4H289.933C292.557 35.4 294.957 35.832 297.133 36.696C299.341 37.528 301.229 38.696 302.797 40.2C304.397 41.704 305.629 43.48 306.493 45.528C307.357 47.544 307.789 49.736 307.789 52.104V52.2ZM300.061 52.296V52.2C300.061 50.728 299.805 49.368 299.293 48.12C298.813 46.872 298.125 45.8 297.229 44.904C296.365 44.008 295.309 43.32 294.061 42.84C292.813 42.328 291.437 42.072 289.933 42.072H284.221V62.328H289.933C291.437 62.328 292.813 62.088 294.061 61.608C295.309 61.128 296.365 60.44 297.229 59.544C298.125 58.648 298.813 57.592 299.293 56.376C299.805 55.16 300.061 53.8 300.061 52.296ZM93.9343 88.2C94.7663 88.2 95.5183 88.304 96.1903 88.512C96.8623 88.704 97.4383 88.984 97.9183 89.352C98.3983 89.704 98.7663 90.144 99.0223 90.672C99.2783 91.184 99.4062 91.76 99.4062 92.4C99.4062 92.96 99.3263 93.448 99.1663 93.864C99.0223 94.28 98.8223 94.648 98.5663 94.968C98.3103 95.288 98.0223 95.56 97.7023 95.784C97.3983 95.992 97.0783 96.168 96.7422 96.312C97.2383 96.456 97.7023 96.648 98.1343 96.888C98.5823 97.112 98.9663 97.384 99.2863 97.704C99.6063 98.024 99.8623 98.408 100.054 98.856C100.246 99.304 100.342 99.816 100.342 100.392C100.342 101.112 100.198 101.76 99.9103 102.336C99.6223 102.912 99.2063 103.4 98.6623 103.8C98.1343 104.184 97.4943 104.48 96.7422 104.688C95.9903 104.896 95.1583 105 94.2463 105H86.7823V88.2H93.9343ZM93.6223 95.688C94.7583 95.688 95.6863 95.432 96.4062 94.92C97.1263 94.408 97.4863 93.656 97.4863 92.664C97.4863 91.816 97.1663 91.144 96.5262 90.648C95.8863 90.152 94.9663 89.904 93.7663 89.904H88.6543V95.688H93.6223ZM94.2943 103.296C95.5743 103.296 96.5823 103.032 97.3183 102.504C98.0543 101.976 98.4223 101.232 98.4223 100.272C98.4223 99.344 98.0463 98.632 97.2943 98.136C96.5423 97.624 95.4303 97.368 93.9583 97.368H88.6543V103.296H94.2943ZM104.895 99.48C104.959 100.152 105.119 100.752 105.375 101.28C105.631 101.792 105.959 102.232 106.359 102.6C106.759 102.952 107.207 103.224 107.703 103.416C108.199 103.592 108.719 103.68 109.263 103.68C110.127 103.68 110.863 103.52 111.471 103.2C112.095 102.88 112.663 102.456 113.175 101.928L114.327 102.96C113.703 103.664 112.991 104.232 112.191 104.664C111.391 105.08 110.399 105.288 109.215 105.288C108.367 105.288 107.567 105.136 106.815 104.832C106.063 104.512 105.407 104.072 104.847 103.512C104.287 102.936 103.839 102.248 103.503 101.448C103.183 100.648 103.023 99.768 103.023 98.808C103.023 97.912 103.167 97.072 103.455 96.288C103.759 95.488 104.175 94.8 104.703 94.224C105.231 93.632 105.855 93.168 106.575 92.832C107.311 92.496 108.111 92.328 108.975 92.328C109.887 92.328 110.703 92.504 111.423 92.856C112.143 93.192 112.751 93.656 113.247 94.248C113.743 94.84 114.119 95.536 114.375 96.336C114.631 97.136 114.759 97.992 114.759 98.904C114.759 98.984 114.759 99.072 114.759 99.168C114.759 99.264 114.751 99.368 114.735 99.48H104.895ZM104.895 98.112H112.887C112.839 97.552 112.719 97.016 112.527 96.504C112.351 95.992 112.095 95.544 111.759 95.16C111.439 94.776 111.039 94.472 110.559 94.248C110.095 94.008 109.551 93.888 108.927 93.888C108.383 93.888 107.879 94 107.415 94.224C106.951 94.432 106.543 94.728 106.191 95.112C105.839 95.48 105.551 95.92 105.327 96.432C105.103 96.944 104.959 97.504 104.895 98.112ZM126.514 101.52C126.514 102.112 126.394 102.64 126.154 103.104C125.93 103.552 125.618 103.936 125.218 104.256C124.834 104.576 124.37 104.824 123.826 105C123.298 105.16 122.722 105.24 122.098 105.24C121.202 105.24 120.298 105.08 119.386 104.76C118.474 104.424 117.666 103.976 116.962 103.416L117.898 102.096C118.57 102.608 119.266 103 119.986 103.272C120.722 103.544 121.458 103.68 122.194 103.68C122.946 103.68 123.562 103.504 124.042 103.152C124.522 102.8 124.762 102.32 124.762 101.712V101.664C124.762 101.36 124.674 101.096 124.498 100.872C124.338 100.648 124.114 100.456 123.826 100.296C123.538 100.12 123.202 99.968 122.818 99.84C122.45 99.712 122.066 99.592 121.666 99.48C121.186 99.336 120.698 99.184 120.202 99.024C119.722 98.848 119.282 98.632 118.882 98.376C118.498 98.12 118.178 97.8 117.922 97.416C117.682 97.032 117.562 96.552 117.562 95.976V95.928C117.562 95.4 117.666 94.92 117.874 94.488C118.082 94.04 118.37 93.664 118.738 93.36C119.122 93.04 119.57 92.8 120.082 92.64C120.61 92.464 121.178 92.376 121.786 92.376C122.554 92.376 123.33 92.504 124.114 92.76C124.898 93 125.61 93.328 126.25 93.744L125.41 95.136C124.834 94.768 124.226 94.48 123.586 94.272C122.962 94.048 122.346 93.936 121.738 93.936C121.002 93.936 120.418 94.112 119.986 94.464C119.554 94.8 119.338 95.224 119.338 95.736V95.784C119.338 96.072 119.426 96.328 119.602 96.552C119.778 96.76 120.01 96.944 120.298 97.104C120.602 97.264 120.946 97.408 121.33 97.536C121.714 97.664 122.114 97.792 122.53 97.92C123.01 98.064 123.482 98.224 123.946 98.4C124.426 98.576 124.858 98.8 125.242 99.072C125.626 99.344 125.93 99.672 126.154 100.056C126.394 100.44 126.514 100.912 126.514 101.472V101.52ZM132.208 94.224V101.472C132.208 102.24 132.4 102.776 132.784 103.08C133.168 103.384 133.672 103.536 134.296 103.536C134.616 103.536 134.912 103.504 135.184 103.44C135.472 103.376 135.776 103.264 136.096 103.104V104.688C135.776 104.864 135.432 104.992 135.064 105.072C134.712 105.168 134.312 105.216 133.864 105.216C133.368 105.216 132.904 105.152 132.472 105.024C132.04 104.896 131.664 104.696 131.344 104.424C131.04 104.136 130.8 103.768 130.624 103.32C130.448 102.872 130.36 102.336 130.36 101.712V94.224H128.632V92.592H130.36V88.848H132.208V92.592H136.144V94.224H132.208ZM160.651 88.2V97.824C160.651 99.056 160.483 100.136 160.147 101.064C159.811 101.992 159.331 102.768 158.707 103.392C158.099 104.016 157.363 104.488 156.499 104.808C155.651 105.112 154.699 105.264 153.643 105.264C152.603 105.264 151.651 105.112 150.787 104.808C149.939 104.488 149.203 104.024 148.579 103.416C147.971 102.792 147.499 102.024 147.163 101.112C146.827 100.2 146.659 99.152 146.659 97.968V88.2H148.555V97.848C148.555 99.672 149.003 101.072 149.899 102.048C150.811 103.024 152.075 103.512 153.691 103.512C155.243 103.512 156.475 103.048 157.387 102.12C158.299 101.192 158.755 99.808 158.755 97.968V88.2H160.651ZM166.67 97.896V105H164.822V92.592H166.67V94.752C167.086 94.08 167.63 93.512 168.302 93.048C168.974 92.568 169.846 92.328 170.918 92.328C171.67 92.328 172.334 92.448 172.91 92.688C173.502 92.928 173.998 93.272 174.398 93.72C174.814 94.152 175.126 94.672 175.334 95.28C175.558 95.888 175.67 96.56 175.67 97.296V105H173.822V97.752C173.822 96.6 173.526 95.688 172.934 95.016C172.342 94.344 171.494 94.008 170.39 94.008C169.862 94.008 169.366 94.104 168.902 94.296C168.454 94.472 168.062 94.736 167.726 95.088C167.39 95.424 167.126 95.832 166.934 96.312C166.758 96.792 166.67 97.32 166.67 97.896ZM181.771 89.88H179.659V87.84H181.771V89.88ZM181.627 105H179.779V92.592H181.627V105ZM197.724 108.84H195.876V102.504C195.62 102.872 195.332 103.224 195.012 103.56C194.708 103.896 194.364 104.192 193.98 104.448C193.596 104.704 193.164 104.904 192.684 105.048C192.22 105.192 191.7 105.264 191.124 105.264C190.372 105.264 189.644 105.12 188.94 104.832C188.236 104.544 187.604 104.128 187.044 103.584C186.484 103.024 186.036 102.344 185.7 101.544C185.364 100.744 185.196 99.832 185.196 98.808C185.196 97.784 185.364 96.872 185.7 96.072C186.036 95.272 186.484 94.6 187.044 94.056C187.604 93.496 188.236 93.072 188.94 92.784C189.644 92.48 190.372 92.328 191.124 92.328C191.7 92.328 192.228 92.4 192.708 92.544C193.188 92.688 193.62 92.88 194.004 93.12C194.388 93.36 194.732 93.64 195.036 93.96C195.356 94.28 195.636 94.616 195.876 94.968V92.592H197.724V108.84ZM195.948 98.784C195.948 98.064 195.82 97.408 195.564 96.816C195.324 96.224 194.988 95.72 194.556 95.304C194.14 94.888 193.66 94.568 193.116 94.344C192.588 94.104 192.036 93.984 191.46 93.984C190.852 93.984 190.284 94.096 189.756 94.32C189.228 94.528 188.764 94.84 188.364 95.256C187.98 95.656 187.668 96.16 187.428 96.768C187.204 97.36 187.092 98.032 187.092 98.784C187.092 99.52 187.204 100.184 187.428 100.776C187.668 101.368 187.988 101.88 188.388 102.312C188.788 102.728 189.252 103.048 189.78 103.272C190.308 103.496 190.868 103.608 191.46 103.608C192.036 103.608 192.588 103.496 193.116 103.272C193.66 103.032 194.14 102.704 194.556 102.288C194.988 101.872 195.324 101.368 195.564 100.776C195.82 100.168 195.948 99.504 195.948 98.784ZM210.661 99.696V92.592H212.485V105H210.661V102.84C210.245 103.512 209.701 104.088 209.029 104.568C208.357 105.032 207.485 105.264 206.413 105.264C205.661 105.264 204.989 105.144 204.397 104.904C203.821 104.664 203.325 104.328 202.909 103.896C202.509 103.448 202.197 102.92 201.973 102.312C201.765 101.704 201.661 101.032 201.661 100.296V92.592H203.509V99.84C203.509 100.992 203.805 101.904 204.397 102.576C204.989 103.248 205.837 103.584 206.941 103.584C207.469 103.584 207.957 103.496 208.405 103.32C208.869 103.128 209.261 102.864 209.581 102.528C209.917 102.176 210.181 101.76 210.373 101.28C210.565 100.8 210.661 100.272 210.661 99.696ZM217.746 99.48C217.81 100.152 217.97 100.752 218.226 101.28C218.482 101.792 218.81 102.232 219.21 102.6C219.61 102.952 220.058 103.224 220.554 103.416C221.05 103.592 221.57 103.68 222.114 103.68C222.978 103.68 223.714 103.52 224.322 103.2C224.946 102.88 225.514 102.456 226.026 101.928L227.178 102.96C226.554 103.664 225.842 104.232 225.042 104.664C224.242 105.08 223.25 105.288 222.066 105.288C221.218 105.288 220.418 105.136 219.666 104.832C218.914 104.512 218.258 104.072 217.698 103.512C217.138 102.936 216.69 102.248 216.354 101.448C216.034 100.648 215.874 99.768 215.874 98.808C215.874 97.912 216.018 97.072 216.306 96.288C216.61 95.488 217.026 94.8 217.554 94.224C218.082 93.632 218.706 93.168 219.426 92.832C220.162 92.496 220.962 92.328 221.826 92.328C222.738 92.328 223.554 92.504 224.274 92.856C224.994 93.192 225.602 93.656 226.098 94.248C226.594 94.84 226.97 95.536 227.226 96.336C227.482 97.136 227.61 97.992 227.61 98.904C227.61 98.984 227.61 99.072 227.61 99.168C227.61 99.264 227.602 99.368 227.586 99.48H217.746ZM217.746 98.112H225.738C225.69 97.552 225.57 97.016 225.378 96.504C225.202 95.992 224.946 95.544 224.61 95.16C224.29 94.776 223.89 94.472 223.41 94.248C222.946 94.008 222.402 93.888 221.778 93.888C221.234 93.888 220.73 94 220.266 94.224C219.802 94.432 219.394 94.728 219.042 95.112C218.69 95.48 218.402 95.92 218.178 96.432C217.954 96.944 217.81 97.504 217.746 98.112ZM250.209 98.784C250.209 99.664 250.041 100.504 249.705 101.304C249.385 102.088 248.937 102.776 248.361 103.368C247.785 103.96 247.097 104.432 246.297 104.784C245.497 105.12 244.633 105.288 243.705 105.288C242.777 105.288 241.921 105.12 241.137 104.784C240.353 104.432 239.673 103.968 239.097 103.392C238.521 102.8 238.073 102.112 237.753 101.328C237.433 100.544 237.273 99.712 237.273 98.832C237.273 97.952 237.433 97.12 237.753 96.336C238.073 95.536 238.521 94.84 239.097 94.248C239.673 93.656 240.353 93.192 241.137 92.856C241.937 92.504 242.809 92.328 243.753 92.328C244.681 92.328 245.537 92.504 246.321 92.856C247.121 93.192 247.809 93.656 248.385 94.248C248.961 94.824 249.409 95.504 249.729 96.288C250.049 97.072 250.209 97.904 250.209 98.784ZM248.313 98.832C248.313 98.16 248.193 97.528 247.953 96.936C247.729 96.344 247.409 95.832 246.993 95.4C246.577 94.952 246.089 94.6 245.529 94.344C244.969 94.088 244.361 93.96 243.705 93.96C243.033 93.96 242.417 94.088 241.857 94.344C241.297 94.584 240.817 94.928 240.417 95.376C240.033 95.808 239.729 96.32 239.505 96.912C239.281 97.488 239.169 98.112 239.169 98.784C239.169 99.456 239.281 100.088 239.505 100.68C239.745 101.272 240.065 101.784 240.465 102.216C240.881 102.648 241.369 102.992 241.929 103.248C242.489 103.504 243.097 103.632 243.753 103.632C244.425 103.632 245.041 103.512 245.601 103.272C246.161 103.016 246.641 102.672 247.041 102.24C247.441 101.808 247.753 101.304 247.977 100.728C248.201 100.136 248.313 99.504 248.313 98.832ZM255.404 100.056V105H253.556V92.592H255.404V95.832C255.628 95.32 255.908 94.848 256.244 94.416C256.58 93.984 256.964 93.616 257.396 93.312C257.828 92.992 258.3 92.752 258.812 92.592C259.324 92.432 259.876 92.36 260.468 92.376V94.368H260.324C259.652 94.368 259.012 94.488 258.404 94.728C257.812 94.968 257.292 95.328 256.844 95.808C256.396 96.288 256.044 96.888 255.788 97.608C255.532 98.312 255.404 99.128 255.404 100.056ZM270.958 88.2H272.854V105H270.958V88.2ZM279.31 97.896V105H277.462V92.592H279.31V94.752C279.726 94.08 280.27 93.512 280.942 93.048C281.614 92.568 282.486 92.328 283.558 92.328C284.31 92.328 284.974 92.448 285.55 92.688C286.142 92.928 286.638 93.272 287.038 93.72C287.454 94.152 287.766 94.672 287.974 95.28C288.198 95.888 288.31 96.56 288.31 97.296V105H286.462V97.752C286.462 96.6 286.166 95.688 285.574 95.016C284.982 94.344 284.134 94.008 283.03 94.008C282.502 94.008 282.006 94.104 281.542 94.296C281.094 94.472 280.702 94.736 280.366 95.088C280.03 95.424 279.766 95.832 279.574 96.312C279.398 96.792 279.31 97.32 279.31 97.896ZM294.1 97.896V105H292.252V92.592H294.1V94.752C294.516 94.08 295.06 93.512 295.732 93.048C296.404 92.568 297.276 92.328 298.348 92.328C299.1 92.328 299.764 92.448 300.34 92.688C300.932 92.928 301.428 93.272 301.828 93.72C302.244 94.152 302.556 94.672 302.764 95.28C302.988 95.888 303.1 96.56 303.1 97.296V105H301.252V97.752C301.252 96.6 300.956 95.688 300.364 95.016C299.772 94.344 298.924 94.008 297.82 94.008C297.292 94.008 296.796 94.104 296.332 94.296C295.884 94.472 295.492 94.736 295.156 95.088C294.82 95.424 294.556 95.832 294.364 96.312C294.188 96.792 294.1 97.32 294.1 97.896ZM319.209 98.784C319.209 99.664 319.041 100.504 318.705 101.304C318.385 102.088 317.937 102.776 317.361 103.368C316.785 103.96 316.097 104.432 315.297 104.784C314.497 105.12 313.633 105.288 312.705 105.288C311.777 105.288 310.921 105.12 310.137 104.784C309.353 104.432 308.673 103.968 308.097 103.392C307.521 102.8 307.073 102.112 306.753 101.328C306.433 100.544 306.273 99.712 306.273 98.832C306.273 97.952 306.433 97.12 306.753 96.336C307.073 95.536 307.521 94.84 308.097 94.248C308.673 93.656 309.353 93.192 310.137 92.856C310.937 92.504 311.809 92.328 312.753 92.328C313.681 92.328 314.537 92.504 315.321 92.856C316.121 93.192 316.809 93.656 317.385 94.248C317.961 94.824 318.409 95.504 318.729 96.288C319.049 97.072 319.209 97.904 319.209 98.784ZM317.313 98.832C317.313 98.16 317.193 97.528 316.953 96.936C316.729 96.344 316.409 95.832 315.993 95.4C315.577 94.952 315.089 94.6 314.529 94.344C313.969 94.088 313.361 93.96 312.705 93.96C312.033 93.96 311.417 94.088 310.857 94.344C310.297 94.584 309.817 94.928 309.417 95.376C309.033 95.808 308.729 96.32 308.505 96.912C308.281 97.488 308.169 98.112 308.169 98.784C308.169 99.456 308.281 100.088 308.505 100.68C308.745 101.272 309.065 101.784 309.465 102.216C309.881 102.648 310.369 102.992 310.929 103.248C311.489 103.504 312.097 103.632 312.753 103.632C313.425 103.632 314.041 103.512 314.601 103.272C315.161 103.016 315.641 102.672 316.041 102.24C316.441 101.808 316.753 101.304 316.977 100.728C317.201 100.136 317.313 99.504 317.313 98.832ZM326.822 102.888L331.022 92.592H333.014L327.614 105.096H325.982L320.606 92.592H322.646L326.822 102.888ZM339.794 94.056C339.058 94.056 338.386 94.144 337.778 94.32C337.186 94.48 336.602 94.696 336.026 94.968L335.474 93.456C336.162 93.136 336.858 92.888 337.562 92.712C338.266 92.52 339.074 92.424 339.986 92.424C341.682 92.424 342.986 92.848 343.898 93.696C344.81 94.528 345.266 95.768 345.266 97.416V105H343.49V103.128C343.058 103.688 342.474 104.184 341.738 104.616C341.018 105.048 340.106 105.264 339.002 105.264C338.426 105.264 337.858 105.184 337.298 105.024C336.754 104.864 336.258 104.624 335.81 104.304C335.378 103.968 335.026 103.56 334.754 103.08C334.498 102.6 334.37 102.032 334.37 101.376C334.37 100.72 334.498 100.144 334.754 99.648C335.01 99.136 335.37 98.712 335.834 98.376C336.314 98.04 336.874 97.784 337.514 97.608C338.17 97.432 338.89 97.344 339.674 97.344C340.474 97.344 341.17 97.392 341.762 97.488C342.354 97.584 342.93 97.712 343.49 97.872V97.44C343.49 96.32 343.162 95.48 342.506 94.92C341.866 94.344 340.962 94.056 339.794 94.056ZM339.866 98.712C338.698 98.712 337.802 98.944 337.178 99.408C336.554 99.872 336.242 100.504 336.242 101.304C336.242 101.704 336.322 102.056 336.482 102.36C336.658 102.664 336.89 102.928 337.178 103.152C337.466 103.36 337.794 103.52 338.162 103.632C338.546 103.744 338.946 103.8 339.362 103.8C339.938 103.8 340.474 103.72 340.97 103.56C341.482 103.384 341.922 103.152 342.29 102.864C342.674 102.56 342.97 102.208 343.178 101.808C343.402 101.392 343.514 100.936 343.514 100.44V99.24C343.05 99.112 342.514 98.992 341.906 98.88C341.314 98.768 340.634 98.712 339.866 98.712ZM351.583 94.224V101.472C351.583 102.24 351.775 102.776 352.159 103.08C352.543 103.384 353.047 103.536 353.671 103.536C353.991 103.536 354.287 103.504 354.559 103.44C354.847 103.376 355.151 103.264 355.471 103.104V104.688C355.151 104.864 354.807 104.992 354.439 105.072C354.087 105.168 353.687 105.216 353.239 105.216C352.743 105.216 352.279 105.152 351.847 105.024C351.415 104.896 351.039 104.696 350.719 104.424C350.415 104.136 350.175 103.768 349.999 103.32C349.823 102.872 349.735 102.336 349.735 101.712V94.224H348.007V92.592H349.735V88.848H351.583V92.592H355.519V94.224H351.583ZM360.951 89.88H358.839V87.84H360.951V89.88ZM360.807 105H358.959V92.592H360.807V105ZM370.087 102.888L374.287 92.592H376.279L370.879 105.096H369.247L363.871 92.592H365.911L370.087 102.888ZM379.559 99.48C379.623 100.152 379.783 100.752 380.039 101.28C380.295 101.792 380.623 102.232 381.023 102.6C381.423 102.952 381.871 103.224 382.367 103.416C382.863 103.592 383.383 103.68 383.927 103.68C384.791 103.68 385.527 103.52 386.135 103.2C386.759 102.88 387.327 102.456 387.839 101.928L388.991 102.96C388.367 103.664 387.655 104.232 386.855 104.664C386.055 105.08 385.063 105.288 383.879 105.288C383.031 105.288 382.231 105.136 381.479 104.832C380.727 104.512 380.071 104.072 379.511 103.512C378.951 102.936 378.503 102.248 378.167 101.448C377.847 100.648 377.687 99.768 377.687 98.808C377.687 97.912 377.831 97.072 378.119 96.288C378.423 95.488 378.839 94.8 379.367 94.224C379.895 93.632 380.519 93.168 381.239 92.832C381.975 92.496 382.775 92.328 383.639 92.328C384.551 92.328 385.367 92.504 386.087 92.856C386.807 93.192 387.415 93.656 387.911 94.248C388.407 94.84 388.783 95.536 389.039 96.336C389.295 97.136 389.423 97.992 389.423 98.904C389.423 98.984 389.423 99.072 389.423 99.168C389.423 99.264 389.415 99.368 389.399 99.48H379.559ZM379.559 98.112H387.551C387.503 97.552 387.383 97.016 387.191 96.504C387.015 95.992 386.759 95.544 386.423 95.16C386.103 94.776 385.703 94.472 385.223 94.248C384.759 94.008 384.215 93.888 383.591 93.888C383.047 93.888 382.543 94 382.079 94.224C381.615 94.432 381.207 94.728 380.855 95.112C380.503 95.48 380.215 95.92 379.991 96.432C379.767 96.944 379.623 97.504 379.559 98.112ZM132.884 141V124.2H134.78V139.248H144.236V141H132.884ZM148.301 135.48C148.365 136.152 148.525 136.752 148.781 137.28C149.037 137.792 149.365 138.232 149.765 138.6C150.165 138.952 150.613 139.224 151.109 139.416C151.605 139.592 152.125 139.68 152.669 139.68C153.533 139.68 154.269 139.52 154.877 139.2C155.501 138.88 156.069 138.456 156.581 137.928L157.733 138.96C157.109 139.664 156.397 140.232 155.597 140.664C154.797 141.08 153.805 141.288 152.621 141.288C151.773 141.288 150.973 141.136 150.221 140.832C149.469 140.512 148.813 140.072 148.253 139.512C147.693 138.936 147.245 138.248 146.909 137.448C146.589 136.648 146.429 135.768 146.429 134.808C146.429 133.912 146.573 133.072 146.861 132.288C147.165 131.488 147.581 130.8 148.109 130.224C148.637 129.632 149.261 129.168 149.981 128.832C150.717 128.496 151.517 128.328 152.381 128.328C153.293 128.328 154.109 128.504 154.829 128.856C155.549 129.192 156.157 129.656 156.653 130.248C157.149 130.84 157.525 131.536 157.781 132.336C158.037 133.136 158.165 133.992 158.165 134.904C158.165 134.984 158.165 135.072 158.165 135.168C158.165 135.264 158.157 135.368 158.141 135.48H148.301ZM148.301 134.112H156.293C156.245 133.552 156.125 133.016 155.933 132.504C155.757 131.992 155.501 131.544 155.165 131.16C154.845 130.776 154.445 130.472 153.965 130.248C153.501 130.008 152.957 129.888 152.333 129.888C151.789 129.888 151.285 130 150.821 130.224C150.357 130.432 149.949 130.728 149.597 131.112C149.245 131.48 148.957 131.92 148.733 132.432C148.509 132.944 148.365 133.504 148.301 134.112ZM165.888 130.056C165.152 130.056 164.48 130.144 163.872 130.32C163.28 130.48 162.696 130.696 162.12 130.968L161.568 129.456C162.256 129.136 162.952 128.888 163.656 128.712C164.36 128.52 165.168 128.424 166.08 128.424C167.776 128.424 169.08 128.848 169.992 129.696C170.904 130.528 171.36 131.768 171.36 133.416V141H169.584V139.128C169.152 139.688 168.568 140.184 167.832 140.616C167.112 141.048 166.2 141.264 165.096 141.264C164.52 141.264 163.952 141.184 163.392 141.024C162.848 140.864 162.352 140.624 161.904 140.304C161.472 139.968 161.12 139.56 160.848 139.08C160.592 138.6 160.464 138.032 160.464 137.376C160.464 136.72 160.592 136.144 160.848 135.648C161.104 135.136 161.464 134.712 161.928 134.376C162.408 134.04 162.968 133.784 163.608 133.608C164.264 133.432 164.984 133.344 165.768 133.344C166.568 133.344 167.264 133.392 167.856 133.488C168.448 133.584 169.024 133.712 169.584 133.872V133.44C169.584 132.32 169.256 131.48 168.6 130.92C167.96 130.344 167.056 130.056 165.888 130.056ZM165.96 134.712C164.792 134.712 163.896 134.944 163.272 135.408C162.648 135.872 162.336 136.504 162.336 137.304C162.336 137.704 162.416 138.056 162.576 138.36C162.752 138.664 162.984 138.928 163.272 139.152C163.56 139.36 163.888 139.52 164.256 139.632C164.64 139.744 165.04 139.8 165.456 139.8C166.032 139.8 166.568 139.72 167.064 139.56C167.576 139.384 168.016 139.152 168.384 138.864C168.768 138.56 169.064 138.208 169.272 137.808C169.496 137.392 169.608 136.936 169.608 136.44V135.24C169.144 135.112 168.608 134.992 168 134.88C167.408 134.768 166.728 134.712 165.96 134.712ZM177.146 136.056V141H175.298V128.592H177.146V131.832C177.37 131.32 177.65 130.848 177.986 130.416C178.322 129.984 178.706 129.616 179.138 129.312C179.57 128.992 180.042 128.752 180.554 128.592C181.066 128.432 181.618 128.36 182.21 128.376V130.368H182.066C181.394 130.368 180.754 130.488 180.146 130.728C179.554 130.968 179.034 131.328 178.586 131.808C178.138 132.288 177.786 132.888 177.53 133.608C177.274 134.312 177.146 135.128 177.146 136.056ZM186.873 133.896V141H185.025V128.592H186.873V130.752C187.289 130.08 187.833 129.512 188.505 129.048C189.177 128.568 190.049 128.328 191.121 128.328C191.873 128.328 192.537 128.448 193.113 128.688C193.705 128.928 194.201 129.272 194.601 129.72C195.017 130.152 195.329 130.672 195.537 131.28C195.761 131.888 195.873 132.56 195.873 133.296V141H194.025V133.752C194.025 132.6 193.729 131.688 193.137 131.016C192.545 130.344 191.697 130.008 190.593 130.008C190.065 130.008 189.569 130.104 189.105 130.296C188.657 130.472 188.265 130.736 187.929 131.088C187.593 131.424 187.329 131.832 187.137 132.312C186.961 132.792 186.873 133.32 186.873 133.896ZM201.974 125.88H199.862V123.84H201.974V125.88ZM201.83 141H199.982V128.592H201.83V141ZM207.967 133.896V141H206.119V128.592H207.967V130.752C208.383 130.08 208.927 129.512 209.599 129.048C210.271 128.568 211.143 128.328 212.215 128.328C212.967 128.328 213.631 128.448 214.207 128.688C214.799 128.928 215.295 129.272 215.695 129.72C216.111 130.152 216.423 130.672 216.631 131.28C216.855 131.888 216.967 132.56 216.967 133.296V141H215.119V133.752C215.119 132.6 214.823 131.688 214.231 131.016C213.639 130.344 212.791 130.008 211.687 130.008C211.159 130.008 210.663 130.104 210.199 130.296C209.751 130.472 209.359 130.736 209.023 131.088C208.687 131.424 208.423 131.832 208.231 132.312C208.055 132.792 207.967 133.32 207.967 133.896ZM232.716 138.84C232.716 139.848 232.564 140.728 232.26 141.48C231.972 142.232 231.548 142.856 230.988 143.352C230.444 143.864 229.78 144.248 228.996 144.504C228.228 144.76 227.364 144.888 226.404 144.888C225.364 144.888 224.372 144.744 223.428 144.456C222.484 144.168 221.596 143.736 220.764 143.16L221.604 141.72C222.324 142.232 223.076 142.624 223.86 142.896C224.644 143.168 225.484 143.304 226.38 143.304C227.756 143.304 228.852 142.928 229.668 142.176C230.484 141.44 230.892 140.344 230.892 138.888V137.424C230.348 138.144 229.684 138.76 228.9 139.272C228.116 139.784 227.156 140.04 226.02 140.04C225.268 140.04 224.54 139.912 223.836 139.656C223.148 139.384 222.532 139 221.988 138.504C221.444 137.992 221.004 137.376 220.668 136.656C220.348 135.936 220.188 135.12 220.188 134.208C220.188 133.296 220.348 132.48 220.668 131.76C221.004 131.024 221.444 130.408 221.988 129.912C222.532 129.4 223.156 129.008 223.86 128.736C224.564 128.464 225.284 128.328 226.02 128.328C226.596 128.328 227.124 128.4 227.604 128.544C228.1 128.672 228.54 128.848 228.924 129.072C229.324 129.296 229.684 129.56 230.004 129.864C230.324 130.168 230.612 130.488 230.868 130.824V128.592H232.716V138.84ZM230.94 134.184C230.94 133.544 230.812 132.968 230.556 132.456C230.3 131.928 229.956 131.48 229.524 131.112C229.108 130.744 228.628 130.464 228.084 130.272C227.54 130.064 226.972 129.96 226.38 129.96C225.788 129.96 225.228 130.056 224.7 130.248C224.188 130.44 223.732 130.72 223.332 131.088C222.948 131.456 222.644 131.904 222.42 132.432C222.196 132.944 222.084 133.52 222.084 134.16C222.084 134.8 222.196 135.384 222.42 135.912C222.66 136.424 222.972 136.872 223.356 137.256C223.756 137.624 224.212 137.912 224.724 138.12C225.252 138.312 225.804 138.408 226.38 138.408C226.972 138.408 227.54 138.312 228.084 138.12C228.628 137.912 229.108 137.624 229.524 137.256C229.956 136.888 230.3 136.448 230.556 135.936C230.812 135.408 230.94 134.824 230.94 134.184ZM256.929 129.552C256.929 130.464 256.753 131.264 256.401 131.952C256.049 132.64 255.569 133.216 254.961 133.68C254.369 134.144 253.673 134.496 252.873 134.736C252.073 134.96 251.225 135.072 250.329 135.072H246.249V141H244.353V124.2H250.641C251.585 124.2 252.441 124.328 253.209 124.584C253.993 124.824 254.657 125.176 255.201 125.64C255.761 126.088 256.185 126.648 256.473 127.32C256.777 127.976 256.929 128.72 256.929 129.552ZM255.009 129.624C255.009 128.408 254.593 127.496 253.761 126.888C252.945 126.264 251.857 125.952 250.497 125.952H246.249V133.344H250.401C251.089 133.344 251.713 133.256 252.273 133.08C252.849 132.904 253.337 132.656 253.737 132.336C254.153 132 254.465 131.608 254.673 131.16C254.897 130.696 255.009 130.184 255.009 129.624ZM261.92 136.056V141H260.072V128.592H261.92V131.832C262.144 131.32 262.424 130.848 262.76 130.416C263.096 129.984 263.48 129.616 263.912 129.312C264.344 128.992 264.816 128.752 265.328 128.592C265.84 128.432 266.392 128.36 266.984 128.376V130.368H266.84C266.168 130.368 265.528 130.488 264.92 130.728C264.328 130.968 263.808 131.328 263.36 131.808C262.912 132.288 262.56 132.888 262.304 133.608C262.048 134.312 261.92 135.128 261.92 136.056ZM281.427 134.784C281.427 135.664 281.259 136.504 280.923 137.304C280.603 138.088 280.155 138.776 279.579 139.368C279.003 139.96 278.315 140.432 277.515 140.784C276.715 141.12 275.851 141.288 274.923 141.288C273.995 141.288 273.139 141.12 272.355 140.784C271.571 140.432 270.891 139.968 270.315 139.392C269.739 138.8 269.291 138.112 268.971 137.328C268.651 136.544 268.491 135.712 268.491 134.832C268.491 133.952 268.651 133.12 268.971 132.336C269.291 131.536 269.739 130.84 270.315 130.248C270.891 129.656 271.571 129.192 272.355 128.856C273.155 128.504 274.027 128.328 274.971 128.328C275.899 128.328 276.755 128.504 277.539 128.856C278.339 129.192 279.027 129.656 279.603 130.248C280.179 130.824 280.627 131.504 280.947 132.288C281.267 133.072 281.427 133.904 281.427 134.784ZM279.531 134.832C279.531 134.16 279.411 133.528 279.171 132.936C278.947 132.344 278.627 131.832 278.211 131.4C277.795 130.952 277.307 130.6 276.747 130.344C276.187 130.088 275.579 129.96 274.923 129.96C274.251 129.96 273.635 130.088 273.075 130.344C272.515 130.584 272.035 130.928 271.635 131.376C271.251 131.808 270.947 132.32 270.723 132.912C270.499 133.488 270.387 134.112 270.387 134.784C270.387 135.456 270.499 136.088 270.723 136.68C270.963 137.272 271.283 137.784 271.683 138.216C272.099 138.648 272.587 138.992 273.147 139.248C273.707 139.504 274.315 139.632 274.971 139.632C275.643 139.632 276.259 139.512 276.819 139.272C277.379 139.016 277.859 138.672 278.259 138.24C278.659 137.808 278.971 137.304 279.195 136.728C279.419 136.136 279.531 135.504 279.531 134.832ZM296.583 138.84C296.583 139.848 296.431 140.728 296.127 141.48C295.839 142.232 295.415 142.856 294.855 143.352C294.311 143.864 293.647 144.248 292.863 144.504C292.095 144.76 291.231 144.888 290.271 144.888C289.231 144.888 288.239 144.744 287.295 144.456C286.351 144.168 285.463 143.736 284.631 143.16L285.471 141.72C286.191 142.232 286.943 142.624 287.727 142.896C288.511 143.168 289.351 143.304 290.247 143.304C291.623 143.304 292.719 142.928 293.535 142.176C294.351 141.44 294.759 140.344 294.759 138.888V137.424C294.215 138.144 293.551 138.76 292.767 139.272C291.983 139.784 291.023 140.04 289.887 140.04C289.135 140.04 288.407 139.912 287.703 139.656C287.015 139.384 286.399 139 285.855 138.504C285.311 137.992 284.871 137.376 284.535 136.656C284.215 135.936 284.055 135.12 284.055 134.208C284.055 133.296 284.215 132.48 284.535 131.76C284.871 131.024 285.311 130.408 285.855 129.912C286.399 129.4 287.023 129.008 287.727 128.736C288.431 128.464 289.151 128.328 289.887 128.328C290.463 128.328 290.991 128.4 291.471 128.544C291.967 128.672 292.407 128.848 292.791 129.072C293.191 129.296 293.551 129.56 293.871 129.864C294.191 130.168 294.479 130.488 294.735 130.824V128.592H296.583V138.84ZM294.807 134.184C294.807 133.544 294.679 132.968 294.423 132.456C294.167 131.928 293.823 131.48 293.391 131.112C292.975 130.744 292.495 130.464 291.951 130.272C291.407 130.064 290.839 129.96 290.247 129.96C289.655 129.96 289.095 130.056 288.567 130.248C288.055 130.44 287.599 130.72 287.199 131.088C286.815 131.456 286.511 131.904 286.287 132.432C286.063 132.944 285.951 133.52 285.951 134.16C285.951 134.8 286.063 135.384 286.287 135.912C286.527 136.424 286.839 136.872 287.223 137.256C287.623 137.624 288.079 137.912 288.591 138.12C289.119 138.312 289.671 138.408 290.247 138.408C290.839 138.408 291.407 138.312 291.951 138.12C292.495 137.912 292.975 137.624 293.391 137.256C293.823 136.888 294.167 136.448 294.423 135.936C294.679 135.408 294.807 134.824 294.807 134.184ZM302.56 136.056V141H300.712V128.592H302.56V131.832C302.784 131.32 303.064 130.848 303.4 130.416C303.736 129.984 304.12 129.616 304.552 129.312C304.984 128.992 305.456 128.752 305.968 128.592C306.48 128.432 307.032 128.36 307.624 128.376V130.368H307.48C306.808 130.368 306.168 130.488 305.56 130.728C304.968 130.968 304.448 131.328 304 131.808C303.552 132.288 303.2 132.888 302.944 133.608C302.688 134.312 302.56 135.128 302.56 136.056ZM314.318 130.056C313.582 130.056 312.91 130.144 312.302 130.32C311.71 130.48 311.126 130.696 310.55 130.968L309.998 129.456C310.686 129.136 311.382 128.888 312.086 128.712C312.79 128.52 313.598 128.424 314.51 128.424C316.206 128.424 317.51 128.848 318.422 129.696C319.334 130.528 319.79 131.768 319.79 133.416V141H318.014V139.128C317.582 139.688 316.998 140.184 316.262 140.616C315.542 141.048 314.63 141.264 313.526 141.264C312.95 141.264 312.382 141.184 311.822 141.024C311.278 140.864 310.782 140.624 310.334 140.304C309.902 139.968 309.55 139.56 309.278 139.08C309.022 138.6 308.894 138.032 308.894 137.376C308.894 136.72 309.022 136.144 309.278 135.648C309.534 135.136 309.894 134.712 310.358 134.376C310.838 134.04 311.398 133.784 312.038 133.608C312.694 133.432 313.414 133.344 314.198 133.344C314.998 133.344 315.694 133.392 316.286 133.488C316.878 133.584 317.454 133.712 318.014 133.872V133.44C318.014 132.32 317.686 131.48 317.03 130.92C316.39 130.344 315.486 130.056 314.318 130.056ZM314.39 134.712C313.222 134.712 312.326 134.944 311.702 135.408C311.078 135.872 310.766 136.504 310.766 137.304C310.766 137.704 310.846 138.056 311.006 138.36C311.182 138.664 311.414 138.928 311.702 139.152C311.99 139.36 312.318 139.52 312.686 139.632C313.07 139.744 313.47 139.8 313.886 139.8C314.462 139.8 314.998 139.72 315.494 139.56C316.006 139.384 316.446 139.152 316.814 138.864C317.198 138.56 317.494 138.208 317.702 137.808C317.926 137.392 318.038 136.936 318.038 136.44V135.24C317.574 135.112 317.038 134.992 316.43 134.88C315.838 134.768 315.158 134.712 314.39 134.712ZM333.568 130.8C333.792 130.464 334.04 130.144 334.312 129.84C334.6 129.536 334.92 129.272 335.272 129.048C335.624 128.824 336.016 128.648 336.448 128.52C336.896 128.392 337.392 128.328 337.936 128.328C339.376 128.328 340.504 128.776 341.32 129.672C342.136 130.552 342.544 131.768 342.544 133.32V141H340.696V133.752C340.696 132.552 340.408 131.632 339.832 130.992C339.272 130.336 338.488 130.008 337.48 130.008C337.016 130.008 336.576 130.096 336.16 130.272C335.744 130.432 335.376 130.68 335.056 131.016C334.752 131.336 334.504 131.736 334.312 132.216C334.136 132.696 334.048 133.24 334.048 133.848V141H332.224V133.704C332.224 132.536 331.936 131.632 331.36 130.992C330.8 130.336 330.024 130.008 329.032 130.008C328.536 130.008 328.08 130.104 327.664 130.296C327.248 130.488 326.88 130.76 326.56 131.112C326.256 131.464 326.016 131.88 325.84 132.36C325.664 132.824 325.576 133.344 325.576 133.92V141H323.728V128.592H325.576V130.68C325.784 130.376 326.008 130.08 326.248 129.792C326.504 129.504 326.792 129.256 327.112 129.048C327.432 128.824 327.792 128.648 328.192 128.52C328.592 128.392 329.056 128.328 329.584 128.328C330.592 128.328 331.424 128.568 332.08 129.048C332.736 129.512 333.232 130.096 333.568 130.8Z" fill="#AD3088"/>
</svg>
