<svg width="131" height="130" viewBox="0 0 131 130" fill="none" xmlns="http://www.w3.org/2000/svg">
<g opacity="0.75">
<path d="M64.6505 88.679C63.5564 88.679 62.6895 87.7914 62.6895 86.718C62.6895 85.6446 63.5771 84.757 64.6505 84.757C70.9463 84.757 76.0656 79.6377 76.0656 73.3419C76.0656 72.2478 76.9532 71.3809 78.0266 71.3809C79.1 71.3809 79.9876 72.2685 79.9876 73.3419C79.9876 81.7845 73.1138 88.679 64.6505 88.679Z" fill="white"/>
<path d="M64.9835 100.445C49.9973 100.445 37.8184 88.2662 37.8184 73.2799C37.8184 59.3464 59.534 33.7501 62.0111 30.8808C62.7335 30.0345 63.8276 29.5391 64.9835 29.5391C66.1395 29.5391 67.2335 30.0345 67.956 30.8808L66.4491 32.1813L68.0386 31.0047C73.6946 37.6721 92.1281 60.4198 92.1281 73.3006C92.1281 88.2455 79.9491 100.445 64.9629 100.445H64.9835ZM66.4904 32.14L64.9835 33.4404L65.0248 33.4817C56.9537 42.7707 41.7404 63.1033 41.7404 73.2799C41.7404 86.0988 52.1647 96.5024 64.9629 96.5024C77.7611 96.5024 88.1854 86.0781 88.1854 73.2799C88.1854 64.0941 75.7175 46.1148 65.0248 33.523L66.4904 32.14Z" fill="white"/>
<path d="M64.9835 100.445C49.9973 100.445 37.8184 88.2662 37.8184 73.2799C37.8184 59.3464 59.534 33.7501 62.0111 30.8808C62.7335 30.0345 63.8276 29.5391 64.9835 29.5391C66.1395 29.5391 67.2335 30.0345 67.956 30.8808L66.4491 32.1813L68.0386 31.0047C73.6946 37.6721 92.1281 60.4198 92.1281 73.3006C92.1281 88.2455 79.9491 100.445 64.9629 100.445H64.9835ZM66.4904 32.14L64.9835 33.4404L65.0248 33.4817C56.9537 42.7707 41.7404 63.1033 41.7404 73.2799C41.7404 86.0988 52.1647 96.5024 64.9629 96.5024C77.7611 96.5024 88.1854 86.0781 88.1854 73.2799C88.1854 64.0941 75.7175 46.1148 65.0248 33.523L66.4904 32.14Z" fill="white"/>
<path d="M64.9835 100.445C49.9973 100.445 37.8184 88.2662 37.8184 73.2799C37.8184 59.3464 59.534 33.7501 62.0111 30.8808C62.7335 30.0345 63.8276 29.5391 64.9835 29.5391C66.1395 29.5391 67.2335 30.0345 67.956 30.8808L66.4491 32.1813L68.0386 31.0047C73.6946 37.6721 92.1281 60.4198 92.1281 73.3006C92.1281 88.2455 79.9491 100.445 64.9629 100.445H64.9835ZM66.4904 32.14L64.9835 33.4404L65.0248 33.4817C56.9537 42.7707 41.7404 63.1033 41.7404 73.2799C41.7404 86.0988 52.1647 96.5024 64.9629 96.5024C77.7611 96.5024 88.1854 86.0781 88.1854 73.2799C88.1854 64.0941 75.7175 46.1148 65.0248 33.523L66.4904 32.14Z" fill="white"/>
<path d="M64.9835 100.445C49.9973 100.445 37.8184 88.2662 37.8184 73.2799C37.8184 59.3464 59.534 33.7501 62.0111 30.8808C62.7335 30.0345 63.8276 29.5391 64.9835 29.5391C66.1395 29.5391 67.2335 30.0345 67.956 30.8808L66.4491 32.1813L68.0386 31.0047C73.6946 37.6721 92.1281 60.4198 92.1281 73.3006C92.1281 88.2455 79.9491 100.445 64.9629 100.445H64.9835ZM66.4904 32.14L64.9835 33.4404L65.0248 33.4817C56.9537 42.7707 41.7404 63.1033 41.7404 73.2799C41.7404 86.0988 52.1647 96.5024 64.9629 96.5024C77.7611 96.5024 88.1854 86.0781 88.1854 73.2799C88.1854 64.0941 75.7175 46.1148 65.0248 33.523L66.4904 32.14Z" fill="white"/>
<path d="M70.3074 130.005H59.6147C56.4771 130.005 53.7317 127.652 53.2569 124.514L51.6468 114.152C47.4358 112.975 43.4106 111.282 39.6124 109.115L31.1904 115.328C30.8188 115.617 30.1996 116.009 29.4771 116.195C27.2271 117.062 24.6055 116.484 22.789 114.73L15.2752 107.133C13.0252 105.007 12.695 101.415 14.5734 98.8143L20.8074 90.3304C18.6812 86.5529 17.0092 82.507 15.8532 78.296L5.49083 76.7065C2.37386 76.2524 0 73.4863 0 70.2868V59.6973C0 56.5184 2.29129 53.8143 5.44955 53.2569L15.8532 51.7088C17.0298 47.4152 18.7019 43.39 20.8486 39.695L14.656 31.1904C12.7363 28.6308 13.0046 24.9977 15.3165 22.789L22.7684 15.2959C24.0276 13.9954 25.7409 13.3142 27.5574 13.3762C28.8785 13.4381 30.117 13.8716 31.1904 14.656L39.6331 20.8899C43.3487 18.7431 47.3946 17.0505 51.6881 15.8739L53.2982 5.53212C53.773 2.33257 56.4565 0 59.656 0H70.3281C73.4657 0 76.2111 2.37386 76.7065 5.51148L78.296 15.8532C82.5689 17.0298 86.5941 18.7225 90.3304 20.8693L98.7524 14.656C101.374 12.695 105.007 12.984 107.195 15.3165L114.668 22.789C116.918 24.9565 117.227 28.5688 115.349 31.1698L109.115 39.6124C110.126 41.3877 110.993 43.1216 111.716 44.8762L111.881 45.289C112.025 45.6193 112.149 45.9496 112.273 46.3212C112.975 47.9519 113.574 49.7271 114.11 51.6881L124.473 53.2363H124.514C127.713 53.773 130.025 56.4771 130.025 59.6767V70.2661C130.025 73.4863 127.631 76.2524 124.473 76.6859L114.131 78.2753C113.016 82.4451 111.324 86.5116 109.135 90.351L115.349 98.7731C117.268 101.374 116.979 104.986 114.647 107.174L107.174 114.688C104.986 116.959 101.353 117.248 98.773 115.307L90.351 109.094C86.5735 111.262 82.5483 112.954 78.3166 114.131L76.7271 124.493C76.1698 127.652 73.4244 130.005 70.3074 130.005ZM39.4886 104.78C39.8395 104.78 40.1904 104.883 40.5 105.069C44.6698 107.587 49.1698 109.466 53.8762 110.663C54.64 110.849 55.218 111.489 55.3418 112.273L57.1583 123.915C57.3441 125.154 58.3969 126.062 59.6147 126.062H70.2868C71.484 126.062 72.5781 125.113 72.7845 123.895L74.5804 112.273C74.7042 111.489 75.2822 110.849 76.046 110.663C80.7937 109.466 85.2937 107.587 89.4015 105.09C90.0827 104.677 90.9496 104.718 91.5896 105.193L101.064 112.191C102.055 112.934 103.479 112.83 104.305 111.984L111.86 104.388C112.768 103.541 112.872 102.138 112.149 101.168L105.151 91.6928C104.677 91.0529 104.635 90.1859 105.048 89.5047C107.608 85.273 109.466 80.773 110.58 76.1079C110.766 75.3235 111.406 74.7455 112.19 74.6217L123.833 72.8258C125.113 72.64 126.021 71.5872 126.021 70.3074V59.718C126.021 58.4794 125.071 57.3854 123.812 57.179L112.19 55.445C111.406 55.3212 110.766 54.7432 110.56 53.9588C109.982 51.6262 109.342 49.6239 108.557 47.828C108.557 47.7661 108.496 47.7042 108.475 47.6216C108.392 47.3326 108.289 47.0849 108.186 46.8372L108 46.3831C107.216 44.484 106.246 42.5643 105.028 40.562C104.615 39.8808 104.656 39.0138 105.131 38.3739L112.129 28.8991C112.872 27.8877 112.768 26.5046 111.881 25.6583L104.326 18.1032C103.459 17.195 102.076 17.0918 101.064 17.8555L91.5689 24.8532C90.929 25.328 90.0414 25.3693 89.3602 24.9565C85.2937 22.4587 80.7937 20.5803 76.0047 19.3831C75.2409 19.1973 74.6629 18.5574 74.5391 17.773L72.7432 6.17203C72.5368 4.93349 71.484 3.98395 70.2661 3.98395H59.6147C58.3762 3.98395 57.3441 4.91285 57.1583 6.17203L55.3418 17.7936C55.218 18.578 54.64 19.1973 53.8762 19.4037C49.0666 20.6216 44.5666 22.5 40.5207 24.9771C39.8395 25.3899 38.9725 25.3693 38.312 24.8739L28.8372 17.8762C28.4037 17.5665 27.8876 17.3808 27.3716 17.3601C26.6904 17.3188 26.0505 17.5872 25.5344 18.1032L18.0413 25.6376C17.1124 26.5253 17.0298 27.8877 17.7936 28.8991L24.7707 38.4771C25.2454 39.117 25.2661 39.984 24.8532 40.6652C22.3968 44.6698 20.5184 49.1491 19.3211 53.9794C19.1353 54.7432 18.4954 55.3418 17.6904 55.445L6.04817 57.179C4.85092 57.3854 3.90138 58.4794 3.90138 59.718V70.3074C3.90138 71.5666 4.80964 72.6606 6.02753 72.8258L17.6904 74.6217C18.4748 74.7455 19.1147 75.3235 19.3005 76.0873C20.4771 80.8143 22.3349 85.3143 24.812 89.4634C25.2248 90.1446 25.1835 90.9909 24.7087 91.6308L17.711 101.147C17.0092 102.117 17.133 103.521 17.9794 104.326L25.5138 111.943C26.2156 112.624 27.2477 112.851 28.0734 112.521C28.1973 112.479 28.3211 112.438 28.445 112.418C28.4656 112.418 28.5895 112.356 28.7753 112.211L38.2707 105.193C38.6629 104.904 39.0757 104.78 39.4886 104.78ZM64.7547 100.61C49.7684 100.61 37.5895 88.4313 37.5895 73.4451C37.5895 59.5115 59.3051 33.9152 61.7822 31.0459C62.5047 30.1996 63.5987 29.7042 64.7547 29.7042C65.9106 29.7042 67.0047 30.1996 67.7271 31.0459C73.4657 37.8166 91.8992 60.5643 91.8992 73.4451C91.9198 88.4107 79.7203 100.61 64.7547 100.61ZM64.8166 33.6881C56.7248 42.9358 41.5115 63.2478 41.5115 73.4244C41.5115 86.2432 51.9358 96.6469 64.734 96.6469C77.5322 96.6469 87.9565 86.2226 87.9565 73.4244C87.9772 64.2386 75.5093 46.2799 64.8166 33.6881Z" fill="white"/>
</g>
</svg>
