<svg width="194" height="194" viewBox="0 0 194 194" fill="none" xmlns="http://www.w3.org/2000/svg">
<circle cx="97" cy="97" r="97" fill="#B0BC25"/>
<g opacity="0.75" clip-path="url(#clip0_58_210)">
<path d="M157.945 81.0541C154.954 69.9317 148.991 59.8172 140.68 51.8098C140.185 51.3334 139.432 51.2051 138.809 51.48L128.607 55.9876C124.773 53.0008 120.535 50.5638 116.021 48.7498L114.737 37.7191C114.664 37.0228 114.168 36.4547 113.489 36.2715C102.371 33.2298 90.6287 33.2298 79.4919 36.2715C78.813 36.4547 78.3177 37.0228 78.2443 37.7191L76.96 48.7498C72.4465 50.5638 68.2083 53.0008 64.3554 55.9876L54.1727 51.48C53.5305 51.2051 52.7783 51.3334 52.2829 51.8098C44.0083 59.8355 38.0454 69.9317 35.0548 81.0541C34.8714 81.732 35.1282 82.4467 35.6786 82.8681L44.6321 89.6295C44.2285 92.1948 44.045 94.7967 44.045 97.3986C44.045 100.056 44.2468 102.694 44.6504 105.314L35.6786 112.167C35.1466 112.589 34.9081 113.267 35.0548 113.926C38.0454 125.049 44.0083 135.145 52.2829 143.171C52.7966 143.647 53.5305 143.775 54.1727 143.5L64.5022 138.938C68.3001 141.87 72.4832 144.252 76.9416 146.029L78.2259 157.261C78.3177 157.958 78.813 158.526 79.4735 158.709C90.592 161.769 102.353 161.769 113.471 158.709C114.132 158.526 114.627 157.939 114.719 157.261L116.003 146.029C120.461 144.252 124.644 141.87 128.442 138.938L138.772 143.5C139.414 143.775 140.166 143.647 140.662 143.171C148.936 135.163 154.899 125.049 157.89 113.926C158.073 113.248 157.816 112.534 157.266 112.112L148.294 105.259C148.679 102.639 148.881 100.001 148.881 97.3437C148.881 94.7417 148.698 92.1581 148.312 89.5745L157.266 82.8131C157.798 82.3917 158.036 81.7137 157.89 81.0541H157.945ZM145.487 87.5223C144.973 87.9071 144.716 88.5484 144.826 89.1714C145.303 91.8833 145.542 94.6318 145.524 97.3803C145.524 100.184 145.285 102.987 144.808 105.754C144.698 106.377 144.955 107.018 145.469 107.403L154.33 114.091C151.523 123.839 146.294 132.726 139.139 139.909L128.919 135.402C128.332 135.127 127.653 135.218 127.158 135.64C123.158 138.865 118.663 141.412 113.856 143.226C113.269 143.446 112.866 143.977 112.774 144.6L111.489 155.686C101.655 158.159 91.3626 158.159 81.5468 155.686L80.2625 144.6C80.1707 143.977 79.7671 143.464 79.18 143.226C74.373 141.43 69.8779 138.865 65.8782 135.64C65.3828 135.237 64.704 135.145 64.1169 135.402L53.8975 139.909C46.742 132.726 41.5131 123.839 38.7059 114.091L47.5677 107.403C48.0814 107.018 48.3382 106.395 48.2282 105.754C47.7511 102.987 47.5126 100.184 47.4943 97.3803C47.4943 94.6318 47.7328 91.8833 48.2098 89.1714C48.3199 88.5484 48.063 87.9071 47.5493 87.5223L38.7059 80.8342C41.5131 71.0861 46.742 62.2175 53.8975 55.0164L63.9701 59.469C64.5572 59.7256 65.2544 59.6339 65.7498 59.2308C69.7862 55.9509 74.3363 53.349 79.1983 51.5166C79.7854 51.2968 80.2074 50.7654 80.2992 50.1424L81.5651 39.1849C91.3809 36.7113 101.674 36.7113 111.489 39.1849L112.755 50.1424C112.847 50.7654 113.269 51.2784 113.856 51.5166C118.718 53.3673 123.268 55.9692 127.305 59.2308C127.819 59.6339 128.497 59.7256 129.085 59.469L139.157 55.0164C146.331 62.1992 151.56 71.0861 154.367 80.8342L145.524 87.5039L145.487 87.5223Z" fill="white"/>
<path d="M118.095 84.4819C118.682 84.4452 119.196 84.0971 119.471 83.584L129.158 66.0851C129.617 65.2605 129.324 64.2161 128.498 63.758C127.966 63.4648 127.324 63.4648 126.792 63.758L121.453 66.873L116.866 59.1222C115.471 56.9417 113.068 55.6224 110.481 55.5858C107.582 55.5858 93.1244 55.3475 87.3083 55.2559C86.9597 55.2376 86.6111 55.2376 86.2626 55.2559H84.8865C84.0425 55.2559 80.1713 55.146 76.2083 60.1116L76.0615 60.3315L67.4016 75.5583C67.1631 75.9798 67.108 76.4745 67.2548 76.9326C67.3832 77.3724 67.6768 77.7572 68.0804 77.977L86.024 87.8534C86.2809 87.9817 86.5561 88.0549 86.8497 88.0549C87.4735 88.0549 88.0422 87.7251 88.3358 87.1937L97.5828 70.7576L102.371 78.6733L95.9682 82.3014C95.1426 82.7778 94.8674 83.8222 95.3444 84.6468C95.6563 85.1965 96.2618 85.5263 96.904 85.4897L118.095 84.4635V84.4819ZM86.2075 84.0055L71.2545 75.7965L79.0337 62.1089C81.9876 58.4625 84.5196 58.6274 84.6113 58.6458H87.0882C89.2532 58.9573 91.1429 60.2216 92.2621 62.0906L95.5463 67.3677L86.1892 84.0238L86.2075 84.0055ZM99.0139 66.5065L95.2344 60.4415C94.9041 59.8734 94.5005 59.3421 94.0601 58.8473C100.537 58.9573 108.408 59.0672 110.518 59.0672C111.894 59.0855 113.178 59.7818 113.967 60.9179L119.453 70.1163C119.93 70.9225 120.976 71.1973 121.801 70.7393L123.287 69.8781L116.976 81.0737L103.949 81.7333L105.601 80.7805C106.004 80.5423 106.298 80.1759 106.408 79.7178C106.536 79.2597 106.463 78.7649 106.224 78.3435L99.0139 66.5065Z" fill="white"/>
<path d="M138.498 95.9517L129.617 80.7798C129.397 80.3767 129.012 80.1019 128.553 79.9919C128.113 79.882 127.636 79.9553 127.251 80.1752L109.692 90.7295C108.885 91.2059 108.628 92.2503 109.105 93.0566L117.894 107.972C117.417 108.265 117.123 108.778 117.105 109.346L109.417 109.474L109.491 102.127C109.491 101.174 108.702 100.404 107.748 100.404C107.105 100.404 106.537 100.752 106.243 101.32L96.519 120.102C96.2254 120.615 96.2254 121.256 96.519 121.769L106.812 138.92C107.124 139.433 107.674 139.763 108.28 139.763C108.426 139.781 108.591 139.781 108.738 139.763C109.472 139.562 109.986 138.884 109.986 138.114V131.847H118.976C121.6 131.719 123.966 130.29 125.306 128.018C126.755 125.507 134.223 113.139 137.213 108.155C137.397 107.88 137.58 107.587 137.764 107.257C138.112 106.671 138.351 106.268 138.442 106.14C138.938 105.443 140.901 102.108 138.608 96.2082L138.516 95.97L138.498 95.9517ZM122.352 126.24C121.636 127.413 120.407 128.183 119.031 128.274L108.335 128.348C107.399 128.348 106.628 129.099 106.628 130.052V131.829L99.9866 120.743L105.968 109.181V111.087C105.968 111.545 106.151 111.985 106.482 112.315C106.812 112.626 107.252 112.809 107.711 112.828L121.673 112.589L128.829 112.369C129.489 112.369 130.131 112.315 130.773 112.205C127.434 117.757 123.398 124.481 122.334 126.259L122.352 126.24ZM135.672 104.069L135.562 104.234L134.369 106.213C133.03 107.917 130.975 108.925 128.81 108.943L122.554 109.181L112.958 92.7451L127.581 83.9498L135.525 97.5275C137.158 101.943 135.727 104.069 135.69 104.124V104.069H135.672Z" fill="white"/>
<path d="M93.2711 107.879H74.4468L78.9786 99.8354L85.3084 103.61C86.1157 104.105 87.1798 103.83 87.6568 103.024C87.9871 102.474 87.9871 101.778 87.6385 101.228L76.2632 83.3992C75.9513 82.9045 75.4009 82.6113 74.8138 82.6113L54.7786 82.8312C53.8245 82.8312 53.0723 83.6191 53.0723 84.5536C53.0723 85.1583 53.4025 85.708 53.9162 86.0195L59.292 89.1528L54.7969 96.9403C53.6043 99.2307 53.641 101.961 54.8703 104.233C56.6133 107.293 66.4841 125.397 67.218 126.624C67.5666 127.394 69.4564 130.729 75.7128 131.773H93.5463C94.5004 131.773 95.2526 131.004 95.2526 130.069C95.2526 130.069 95.2526 130.051 95.2526 130.032L94.9957 109.565C94.959 108.631 94.2068 107.898 93.2711 107.916V107.879ZM66.4658 118.159C63.2366 112.277 58.9801 104.471 57.8609 102.529C57.2004 101.32 57.1637 99.872 57.7692 98.626L63.1082 89.3727C63.5852 88.5665 63.31 87.522 62.4844 87.0456L60.9983 86.1661L73.8781 86.0378L80.8684 96.9953L79.2171 96.0058C78.8135 95.7493 78.2997 95.6943 77.8411 95.8226C77.4007 95.9508 77.0154 96.2257 76.7769 96.6288L69.915 108.796C68.3005 111.746 67.1263 114.897 66.4291 118.177L66.4658 118.159ZM76.0614 128.328C71.4195 127.559 70.3187 125.268 70.282 125.195L70.2086 125.012C68.1904 121.311 70.8874 114.549 72.5387 111.324H91.5832L91.785 128.365L76.0614 128.328Z" fill="white"/>
</g>
<defs>
<clipPath id="clip0_58_210">
<rect width="123" height="127" fill="white" transform="translate(35 34)"/>
</clipPath>
</defs>
</svg>
