<svg width="123" height="127" viewBox="0 0 123 127" fill="none" xmlns="http://www.w3.org/2000/svg">
<g opacity="0.75" clip-path="url(#clip0_58_210)">
<path d="M122.945 47.0541C119.954 35.9317 113.991 25.8172 105.68 17.8098C105.185 17.3334 104.432 17.2051 103.809 17.48L93.6075 21.9876C89.7729 19.0008 85.5347 16.5638 81.0213 14.7498L79.737 3.71906C79.6636 3.02277 79.1682 2.45474 78.4893 2.27151C67.3709 -0.77019 55.6287 -0.77019 44.4919 2.27151C43.813 2.45474 43.3177 3.02277 43.2443 3.71906L41.96 14.7498C37.4465 16.5638 33.2083 19.0008 29.3554 21.9876L19.1727 17.48C18.5305 17.2051 17.7783 17.3334 17.2829 17.8098C9.00829 25.8355 3.04543 35.9317 0.0548305 47.0541C-0.128642 47.732 0.12822 48.4467 0.678637 48.8681L9.6321 55.6295C9.22846 58.1948 9.04498 60.7967 9.04498 63.3986C9.04498 66.0555 9.24681 68.6941 9.65044 71.3144L0.678637 78.1673C0.146567 78.5888 -0.0919476 79.2667 0.0548305 79.9264C3.04543 91.0487 9.00829 101.145 17.2829 109.171C17.7966 109.647 18.5305 109.775 19.1727 109.5L29.5022 104.938C33.3001 107.87 37.4832 110.252 41.9416 112.029L43.2259 123.261C43.3177 123.958 43.813 124.526 44.4735 124.709C55.592 127.769 67.3526 127.769 78.471 124.709C79.1315 124.526 79.6269 123.939 79.7186 123.261L81.0029 112.029C85.4613 110.252 89.6445 107.87 93.4424 104.938L103.772 109.5C104.414 109.775 105.166 109.647 105.662 109.171C113.936 101.163 119.899 91.0487 122.89 79.9264C123.073 79.2484 122.816 78.5338 122.266 78.1124L113.294 71.2594C113.679 68.6391 113.881 66.0006 113.881 63.3437C113.881 60.7417 113.698 58.1581 113.312 55.5745L122.266 48.8131C122.798 48.3917 123.036 47.7137 122.89 47.0541H122.945ZM110.487 53.5223C109.973 53.9071 109.716 54.5484 109.826 55.1714C110.303 57.8833 110.542 60.6318 110.524 63.3803C110.524 66.1838 110.285 68.9873 109.808 71.7541C109.698 72.3771 109.955 73.0184 110.469 73.4032L119.33 80.0913C116.523 89.8394 111.294 98.7263 104.139 105.909L93.9194 101.402C93.3323 101.127 92.6534 101.218 92.1581 101.64C88.1583 104.865 83.6633 107.412 78.8563 109.226C78.2692 109.446 77.8655 109.977 77.7738 110.6L76.4895 121.686C66.6554 124.159 56.3626 124.159 46.5468 121.686L45.2625 110.6C45.1707 109.977 44.7671 109.464 44.18 109.226C39.373 107.43 34.8779 104.865 30.8782 101.64C30.3828 101.237 29.704 101.145 29.1169 101.402L18.8975 105.909C11.742 98.7263 6.51306 89.8394 3.70593 80.0913L12.5677 73.4032C13.0814 73.0184 13.3382 72.3954 13.2282 71.7541C12.7511 68.9873 12.5126 66.1838 12.4943 63.3803C12.4943 60.6318 12.7328 57.8833 13.2098 55.1714C13.3199 54.5484 13.063 53.9071 12.5493 53.5223L3.70593 46.8342C6.51306 37.0861 11.742 28.2175 18.8975 21.0164L28.9701 25.469C29.5572 25.7256 30.2544 25.6339 30.7498 25.2308C34.7862 21.9509 39.3363 19.349 44.1983 17.5166C44.7854 17.2968 45.2074 16.7654 45.2992 16.1424L46.5651 5.18494C56.3809 2.71127 66.6737 2.71127 76.4895 5.18494L77.7555 16.1424C77.8472 16.7654 78.2692 17.2784 78.8563 17.5166C83.7183 19.3673 88.2684 21.9692 92.3048 25.2308C92.8186 25.6339 93.4974 25.7256 94.0845 25.469L104.157 21.0164C111.331 28.1992 116.56 37.0861 119.367 46.8342L110.524 53.5039L110.487 53.5223Z" fill="white"/>
<path d="M83.095 50.4819C83.6822 50.4452 84.1959 50.0971 84.4711 49.584L94.1584 32.0851C94.6171 31.2605 94.3236 30.2161 93.4979 29.758C92.9659 29.4648 92.3237 29.4648 91.7916 29.758L86.4526 32.873L81.8658 25.1222C80.4714 22.9417 78.0679 21.6224 75.4809 21.5858C72.5821 21.5858 58.1244 21.3475 52.3083 21.2559C51.9597 21.2376 51.6111 21.2376 51.2626 21.2559H49.8865C49.0425 21.2559 45.1713 21.146 41.2083 26.1116L41.0615 26.3315L32.4016 41.5583C32.1631 41.9798 32.108 42.4745 32.2548 42.9326C32.3832 43.3724 32.6768 43.7572 33.0804 43.977L51.024 53.8534C51.2809 53.9817 51.5561 54.0549 51.8497 54.0549C52.4735 54.0549 53.0422 53.7251 53.3358 53.1937L62.5828 36.7576L67.3714 44.6733L60.9682 48.3014C60.1426 48.7778 59.8674 49.8222 60.3444 50.6468C60.6563 51.1965 61.2618 51.5263 61.904 51.4897L83.095 50.4635V50.4819ZM51.2075 50.0055L36.2545 41.7965L44.0337 28.1089C46.9876 24.4625 49.5196 24.6274 49.6113 24.6458H52.0882C54.2532 24.9573 56.1429 26.2216 57.2621 28.0906L60.5463 33.3677L51.1892 50.0238L51.2075 50.0055ZM64.0139 32.5065L60.2344 26.4415C59.9041 25.8734 59.5005 25.3421 59.0601 24.8473C65.5367 24.9573 73.4077 25.0672 75.5176 25.0672C76.8937 25.0855 78.178 25.7818 78.9669 26.9179L84.4527 36.1163C84.9298 36.9225 85.9756 37.1973 86.8012 36.7393L88.2873 35.8781L81.9759 47.0737L68.9493 47.7333L70.6006 46.7805C71.0042 46.5423 71.2978 46.1759 71.4078 45.7178C71.5363 45.2597 71.4629 44.7649 71.2244 44.3435L64.0139 32.5065Z" fill="white"/>
<path d="M103.498 61.9517L94.6174 46.7798C94.3973 46.3767 94.012 46.1019 93.5533 45.9919C93.113 45.882 92.6359 45.9553 92.2506 46.1752L74.6923 56.7295C73.885 57.2059 73.6282 58.2503 74.1052 59.0566L82.8935 73.9719C82.4165 74.265 82.123 74.7781 82.1046 75.3461L74.4171 75.4744L74.4905 68.1267C74.4905 67.1739 73.7016 66.4043 72.7475 66.4043C72.1054 66.4043 71.5366 66.7524 71.243 67.3204L61.519 86.102C61.2254 86.6151 61.2254 87.2564 61.519 87.7694L71.8118 104.92C72.1237 105.433 72.6741 105.763 73.2796 105.763C73.4264 105.781 73.5915 105.781 73.7383 105.763C74.4722 105.562 74.9859 104.884 74.9859 104.114V97.8474H83.976C86.5997 97.7191 88.9665 96.2899 90.3058 94.0177C91.7553 91.5074 99.2226 79.1391 102.213 74.1551C102.397 73.8802 102.58 73.5871 102.764 73.2572C103.112 72.6709 103.351 72.2678 103.442 72.1395C103.938 71.4432 105.901 68.1084 103.608 62.2082L103.516 61.97L103.498 61.9517ZM87.3519 92.2404C86.6364 93.4131 85.4071 94.1827 84.0311 94.2743L73.3346 94.3476C72.3989 94.3476 71.6283 95.0988 71.6283 96.0516V97.829L64.9866 86.7433L70.9678 75.1812V77.0869C70.9678 77.5449 71.1513 77.9847 71.4816 78.3145C71.8118 78.626 72.2521 78.8093 72.7108 78.8276L86.6731 78.5894L93.8285 78.3695C94.489 78.3695 95.1312 78.3145 95.7733 78.2046C92.4341 83.7566 88.3977 90.4813 87.3336 92.2587L87.3519 92.2404ZM100.672 70.069L100.562 70.2339L99.3694 72.2128C98.03 73.9169 95.9751 74.9247 93.8102 74.943L87.5538 75.1812L77.9581 58.7451L92.5809 49.9498L100.525 63.5275C102.158 67.9434 100.727 70.069 100.69 70.1239V70.069H100.672Z" fill="white"/>
<path d="M58.2711 73.8794H39.4468L43.9786 65.8354L50.3084 69.61C51.1157 70.1048 52.1798 69.8299 52.6568 69.0237C52.9871 68.474 52.9871 67.7777 52.6385 67.228L41.2632 49.3992C40.9513 48.9045 40.4009 48.6113 39.8138 48.6113L19.7786 48.8312C18.8245 48.8312 18.0723 49.6191 18.0723 50.5536C18.0723 51.1583 18.4025 51.708 18.9162 52.0195L24.292 55.1528L19.7969 62.9403C18.6043 65.2307 18.641 67.9609 19.8703 70.233C21.6133 73.2931 31.4841 91.3966 32.218 92.6243C32.5666 93.3939 34.4564 96.7288 40.7128 97.7732H58.5463C59.5004 97.7732 60.2526 97.0036 60.2526 96.0691C60.2526 96.0691 60.2526 96.0508 60.2526 96.0325L59.9957 75.5652C59.959 74.6307 59.2068 73.8977 58.2711 73.916V73.8794ZM31.4658 84.1589C28.2366 78.277 23.9801 70.4712 22.8609 68.5289C22.2004 67.3196 22.1637 65.872 22.7692 64.626L28.1082 55.3727C28.5852 54.5665 28.31 53.522 27.4844 53.0456L25.9983 52.1661L38.8781 52.0378L45.8684 62.9953L44.2171 62.0058C43.8135 61.7493 43.2997 61.6943 42.8411 61.8226C42.4007 61.9508 42.0154 62.2257 41.7769 62.6288L34.915 74.7956C33.3005 77.7457 32.1263 80.8973 31.4291 84.1772L31.4658 84.1589ZM41.0614 94.3284C36.4195 93.5588 35.3187 91.2684 35.282 91.1951L35.2086 91.0118C33.1904 87.3105 35.8874 80.5491 37.5387 77.3242H56.5832L56.785 94.365L41.0614 94.3284Z" fill="white"/>
</g>
<defs>
<clipPath id="clip0_58_210">
<rect width="123" height="127" fill="white"/>
</clipPath>
</defs>
</svg>
