<svg width="406" height="548" viewBox="0 0 406 548" fill="none" xmlns="http://www.w3.org/2000/svg">
<rect x="32" y="111" width="62" height="27" rx="7" fill="#D6D795"/>
<rect x="120" y="111" width="62" height="27" rx="7" fill="#D6D795"/>
<rect x="208" y="111" width="62" height="27" rx="7" fill="#D6D795"/>
<rect x="296" y="111" width="62" height="27" rx="7" fill="#9AA613"/>
<path d="M55.7136 126.58C55.7136 127.12 55.5936 127.612 55.3536 128.056C55.1136 128.5 54.7776 128.878 54.3456 129.19C53.9256 129.502 53.4276 129.748 52.8516 129.928C52.2756 130.096 51.6516 130.18 50.9796 130.18C50.3076 130.18 49.6836 130.096 49.1076 129.928C48.5316 129.748 48.0276 129.502 47.5956 129.19C47.1756 128.878 46.8456 128.5 46.6056 128.056C46.3656 127.612 46.2456 127.126 46.2456 126.598C46.2456 125.842 46.4856 125.206 46.9656 124.69C47.4576 124.162 48.0816 123.76 48.8376 123.484C48.5496 123.352 48.2736 123.196 48.0096 123.016C47.7456 122.824 47.5116 122.614 47.3076 122.386C47.1156 122.146 46.9596 121.876 46.8396 121.576C46.7316 121.276 46.6776 120.94 46.6776 120.568C46.6776 120.076 46.7916 119.626 47.0196 119.218C47.2596 118.81 47.5716 118.456 47.9556 118.156C48.3516 117.856 48.8076 117.628 49.3236 117.472C49.8516 117.304 50.4036 117.22 50.9796 117.22C51.5556 117.22 52.1016 117.304 52.6176 117.472C53.1456 117.628 53.6016 117.856 53.9856 118.156C54.3816 118.456 54.6936 118.81 54.9216 119.218C55.1616 119.626 55.2816 120.076 55.2816 120.568C55.2816 120.94 55.2216 121.276 55.1016 121.576C54.9936 121.876 54.8376 122.146 54.6336 122.386C54.4416 122.614 54.2136 122.824 53.9496 123.016C53.6856 123.196 53.4096 123.352 53.1216 123.484C53.8776 123.76 54.4956 124.156 54.9756 124.672C55.4676 125.188 55.7136 125.824 55.7136 126.58ZM53.8596 120.658C53.8596 120.346 53.7876 120.058 53.6436 119.794C53.4996 119.518 53.2956 119.284 53.0316 119.092C52.7796 118.888 52.4736 118.732 52.1136 118.624C51.7656 118.516 51.3876 118.462 50.9796 118.462C50.5716 118.462 50.1876 118.516 49.8276 118.624C49.4796 118.732 49.1736 118.888 48.9096 119.092C48.6576 119.284 48.4596 119.512 48.3156 119.776C48.1716 120.04 48.0996 120.334 48.0996 120.658C48.0996 121.006 48.1716 121.324 48.3156 121.612C48.4716 121.888 48.6756 122.128 48.9276 122.332C49.1916 122.536 49.4976 122.698 49.8456 122.818C50.2056 122.926 50.5836 122.98 50.9796 122.98C51.3756 122.98 51.7476 122.926 52.0956 122.818C52.4556 122.698 52.7616 122.536 53.0136 122.332C53.2776 122.128 53.4816 121.888 53.6256 121.612C53.7816 121.324 53.8596 121.006 53.8596 120.658ZM54.2736 126.562C54.2736 126.202 54.1836 125.878 54.0036 125.59C53.8356 125.29 53.6016 125.038 53.3016 124.834C53.0136 124.618 52.6656 124.45 52.2576 124.33C51.8616 124.21 51.4356 124.15 50.9796 124.15C50.5236 124.15 50.0916 124.21 49.6836 124.33C49.2876 124.45 48.9396 124.618 48.6396 124.834C48.3396 125.038 48.1056 125.29 47.9376 125.59C47.7696 125.878 47.6856 126.202 47.6856 126.562C47.6856 126.886 47.7576 127.192 47.9016 127.48C48.0576 127.768 48.2736 128.02 48.5496 128.236C48.8376 128.452 49.1856 128.626 49.5936 128.758C50.0016 128.878 50.4636 128.938 50.9796 128.938C51.4956 128.938 51.9576 128.878 52.3656 128.758C52.7736 128.626 53.1156 128.452 53.3916 128.236C53.6796 128.02 53.8956 127.768 54.0396 127.48C54.1956 127.192 54.2736 126.886 54.2736 126.562ZM64.5495 117.31H65.7915V125.824H67.7535V127.012H65.7915V130H64.4235V127.012H57.7815L57.4215 125.986L64.5495 117.31ZM64.4235 125.824V119.326L59.1315 125.824H64.4235ZM71.7656 130H70.1096V128.11H71.7656V130ZM72.7433 118.372L75.8213 117.31H76.8653V130H75.4613V118.786L73.0853 119.524L72.7433 118.372Z" fill="#151515"/>
<path d="M140.76 126.58C140.76 127.12 140.64 127.612 140.4 128.056C140.16 128.5 139.824 128.878 139.392 129.19C138.972 129.502 138.474 129.748 137.898 129.928C137.322 130.096 136.698 130.18 136.026 130.18C135.354 130.18 134.73 130.096 134.154 129.928C133.578 129.748 133.074 129.502 132.642 129.19C132.222 128.878 131.892 128.5 131.652 128.056C131.412 127.612 131.292 127.126 131.292 126.598C131.292 125.842 131.532 125.206 132.012 124.69C132.504 124.162 133.128 123.76 133.884 123.484C133.596 123.352 133.32 123.196 133.056 123.016C132.792 122.824 132.558 122.614 132.354 122.386C132.162 122.146 132.006 121.876 131.886 121.576C131.778 121.276 131.724 120.94 131.724 120.568C131.724 120.076 131.838 119.626 132.066 119.218C132.306 118.81 132.618 118.456 133.002 118.156C133.398 117.856 133.854 117.628 134.37 117.472C134.898 117.304 135.45 117.22 136.026 117.22C136.602 117.22 137.148 117.304 137.664 117.472C138.192 117.628 138.648 117.856 139.032 118.156C139.428 118.456 139.74 118.81 139.968 119.218C140.208 119.626 140.328 120.076 140.328 120.568C140.328 120.94 140.268 121.276 140.148 121.576C140.04 121.876 139.884 122.146 139.68 122.386C139.488 122.614 139.26 122.824 138.996 123.016C138.732 123.196 138.456 123.352 138.168 123.484C138.924 123.76 139.542 124.156 140.022 124.672C140.514 125.188 140.76 125.824 140.76 126.58ZM138.906 120.658C138.906 120.346 138.834 120.058 138.69 119.794C138.546 119.518 138.342 119.284 138.078 119.092C137.826 118.888 137.52 118.732 137.16 118.624C136.812 118.516 136.434 118.462 136.026 118.462C135.618 118.462 135.234 118.516 134.874 118.624C134.526 118.732 134.22 118.888 133.956 119.092C133.704 119.284 133.506 119.512 133.362 119.776C133.218 120.04 133.146 120.334 133.146 120.658C133.146 121.006 133.218 121.324 133.362 121.612C133.518 121.888 133.722 122.128 133.974 122.332C134.238 122.536 134.544 122.698 134.892 122.818C135.252 122.926 135.63 122.98 136.026 122.98C136.422 122.98 136.794 122.926 137.142 122.818C137.502 122.698 137.808 122.536 138.06 122.332C138.324 122.128 138.528 121.888 138.672 121.612C138.828 121.324 138.906 121.006 138.906 120.658ZM139.32 126.562C139.32 126.202 139.23 125.878 139.05 125.59C138.882 125.29 138.648 125.038 138.348 124.834C138.06 124.618 137.712 124.45 137.304 124.33C136.908 124.21 136.482 124.15 136.026 124.15C135.57 124.15 135.138 124.21 134.73 124.33C134.334 124.45 133.986 124.618 133.686 124.834C133.386 125.038 133.152 125.29 132.984 125.59C132.816 125.878 132.732 126.202 132.732 126.562C132.732 126.886 132.804 127.192 132.948 127.48C133.104 127.768 133.32 128.02 133.596 128.236C133.884 128.452 134.232 128.626 134.64 128.758C135.048 128.878 135.51 128.938 136.026 128.938C136.542 128.938 137.004 128.878 137.412 128.758C137.82 128.626 138.162 128.452 138.438 128.236C138.726 128.02 138.942 127.768 139.086 127.48C139.242 127.192 139.32 126.886 139.32 126.562ZM153.448 123.682C153.448 124.57 153.322 125.41 153.07 126.202C152.818 126.994 152.458 127.69 151.99 128.29C151.534 128.878 150.976 129.346 150.316 129.694C149.656 130.042 148.924 130.216 148.12 130.216C147.304 130.216 146.566 130.048 145.906 129.712C145.258 129.364 144.7 128.896 144.232 128.308C143.776 127.708 143.422 127.018 143.17 126.238C142.93 125.446 142.81 124.606 142.81 123.718C142.81 122.83 142.936 121.99 143.188 121.198C143.44 120.406 143.794 119.716 144.25 119.128C144.718 118.528 145.282 118.054 145.942 117.706C146.602 117.358 147.34 117.184 148.156 117.184C148.96 117.184 149.686 117.358 150.334 117.706C150.994 118.042 151.552 118.51 152.008 119.11C152.476 119.698 152.83 120.388 153.07 121.18C153.322 121.96 153.448 122.794 153.448 123.682ZM151.972 123.718C151.972 123.022 151.882 122.362 151.702 121.738C151.522 121.102 151.264 120.544 150.928 120.064C150.592 119.584 150.184 119.2 149.704 118.912C149.236 118.624 148.708 118.48 148.12 118.48C147.532 118.48 146.998 118.624 146.518 118.912C146.05 119.188 145.648 119.566 145.312 120.046C144.988 120.514 144.736 121.066 144.556 121.702C144.376 122.326 144.286 122.986 144.286 123.682C144.286 124.378 144.376 125.044 144.556 125.68C144.736 126.316 144.994 126.874 145.33 127.354C145.666 127.834 146.074 128.218 146.554 128.506C147.034 128.782 147.568 128.92 148.156 128.92C148.744 128.92 149.272 128.782 149.74 128.506C150.22 128.218 150.622 127.84 150.946 127.372C151.282 126.892 151.534 126.34 151.702 125.716C151.882 125.08 151.972 124.414 151.972 123.718ZM157.252 130H155.596V128.11H157.252V130ZM160.404 123.538L160.764 117.4H168.018V118.714H162.006L161.736 122.746C162.108 122.578 162.48 122.446 162.852 122.35C163.236 122.242 163.692 122.188 164.22 122.188C164.832 122.188 165.402 122.278 165.93 122.458C166.458 122.638 166.92 122.896 167.316 123.232C167.712 123.556 168.018 123.958 168.234 124.438C168.462 124.918 168.576 125.458 168.576 126.058C168.576 126.682 168.462 127.252 168.234 127.768C168.018 128.272 167.712 128.71 167.316 129.082C166.92 129.442 166.446 129.724 165.894 129.928C165.342 130.12 164.736 130.216 164.076 130.216C163.176 130.216 162.342 130.03 161.574 129.658C160.818 129.274 160.152 128.794 159.576 128.218L160.512 127.192C161.064 127.732 161.634 128.158 162.222 128.47C162.822 128.77 163.446 128.92 164.094 128.92C164.538 128.92 164.946 128.854 165.318 128.722C165.702 128.578 166.026 128.38 166.29 128.128C166.554 127.876 166.758 127.582 166.902 127.246C167.058 126.898 167.136 126.52 167.136 126.112C167.136 125.716 167.058 125.356 166.902 125.032C166.758 124.708 166.548 124.432 166.272 124.204C165.996 123.964 165.666 123.778 165.282 123.646C164.898 123.514 164.472 123.448 164.004 123.448C163.464 123.448 162.978 123.52 162.546 123.664C162.126 123.796 161.73 123.964 161.358 124.168L160.404 123.538Z" fill="#151515"/>
<path d="M229.603 126.58C229.603 127.12 229.483 127.612 229.243 128.056C229.003 128.5 228.667 128.878 228.235 129.19C227.815 129.502 227.317 129.748 226.741 129.928C226.165 130.096 225.541 130.18 224.869 130.18C224.197 130.18 223.573 130.096 222.997 129.928C222.421 129.748 221.917 129.502 221.485 129.19C221.065 128.878 220.735 128.5 220.495 128.056C220.255 127.612 220.135 127.126 220.135 126.598C220.135 125.842 220.375 125.206 220.855 124.69C221.347 124.162 221.971 123.76 222.727 123.484C222.439 123.352 222.163 123.196 221.899 123.016C221.635 122.824 221.401 122.614 221.197 122.386C221.005 122.146 220.849 121.876 220.729 121.576C220.621 121.276 220.567 120.94 220.567 120.568C220.567 120.076 220.681 119.626 220.909 119.218C221.149 118.81 221.461 118.456 221.845 118.156C222.241 117.856 222.697 117.628 223.213 117.472C223.741 117.304 224.293 117.22 224.869 117.22C225.445 117.22 225.991 117.304 226.507 117.472C227.035 117.628 227.491 117.856 227.875 118.156C228.271 118.456 228.583 118.81 228.811 119.218C229.051 119.626 229.171 120.076 229.171 120.568C229.171 120.94 229.111 121.276 228.991 121.576C228.883 121.876 228.727 122.146 228.523 122.386C228.331 122.614 228.103 122.824 227.839 123.016C227.575 123.196 227.299 123.352 227.011 123.484C227.767 123.76 228.385 124.156 228.865 124.672C229.357 125.188 229.603 125.824 229.603 126.58ZM227.749 120.658C227.749 120.346 227.677 120.058 227.533 119.794C227.389 119.518 227.185 119.284 226.921 119.092C226.669 118.888 226.363 118.732 226.003 118.624C225.655 118.516 225.277 118.462 224.869 118.462C224.461 118.462 224.077 118.516 223.717 118.624C223.369 118.732 223.063 118.888 222.799 119.092C222.547 119.284 222.349 119.512 222.205 119.776C222.061 120.04 221.989 120.334 221.989 120.658C221.989 121.006 222.061 121.324 222.205 121.612C222.361 121.888 222.565 122.128 222.817 122.332C223.081 122.536 223.387 122.698 223.735 122.818C224.095 122.926 224.473 122.98 224.869 122.98C225.265 122.98 225.637 122.926 225.985 122.818C226.345 122.698 226.651 122.536 226.903 122.332C227.167 122.128 227.371 121.888 227.515 121.612C227.671 121.324 227.749 121.006 227.749 120.658ZM228.163 126.562C228.163 126.202 228.073 125.878 227.893 125.59C227.725 125.29 227.491 125.038 227.191 124.834C226.903 124.618 226.555 124.45 226.147 124.33C225.751 124.21 225.325 124.15 224.869 124.15C224.413 124.15 223.981 124.21 223.573 124.33C223.177 124.45 222.829 124.618 222.529 124.834C222.229 125.038 221.995 125.29 221.827 125.59C221.659 125.878 221.575 126.202 221.575 126.562C221.575 126.886 221.647 127.192 221.791 127.48C221.947 127.768 222.163 128.02 222.439 128.236C222.727 128.452 223.075 128.626 223.483 128.758C223.891 128.878 224.353 128.938 224.869 128.938C225.385 128.938 225.847 128.878 226.255 128.758C226.663 128.626 227.005 128.452 227.281 128.236C227.569 128.02 227.785 127.768 227.929 127.48C228.085 127.192 228.163 126.886 228.163 126.562ZM238.439 117.31H239.681V125.824H241.643V127.012H239.681V130H238.313V127.012H231.671L231.311 125.986L238.439 117.31ZM238.313 125.824V119.326L233.021 125.824H238.313ZM245.655 130H243.999V128.11H245.655V130ZM252.551 118.498C251.831 118.498 251.213 118.684 250.697 119.056C250.181 119.416 249.671 119.95 249.167 120.658L248.123 119.902C248.411 119.482 248.705 119.104 249.005 118.768C249.305 118.432 249.629 118.15 249.977 117.922C250.337 117.694 250.733 117.52 251.165 117.4C251.609 117.28 252.107 117.22 252.659 117.22C253.235 117.22 253.757 117.31 254.225 117.49C254.705 117.67 255.119 117.922 255.467 118.246C255.815 118.558 256.085 118.936 256.277 119.38C256.469 119.812 256.565 120.286 256.565 120.802C256.565 121.27 256.499 121.696 256.367 122.08C256.247 122.464 256.055 122.848 255.791 123.232C255.527 123.604 255.197 123.994 254.801 124.402C254.405 124.798 253.931 125.236 253.379 125.716L250.013 128.704H256.691V130H247.889V128.902L252.461 124.87C252.941 124.438 253.349 124.048 253.685 123.7C254.021 123.352 254.291 123.028 254.495 122.728C254.711 122.416 254.861 122.116 254.945 121.828C255.041 121.528 255.089 121.222 255.089 120.91C255.089 120.538 255.017 120.208 254.873 119.92C254.741 119.62 254.561 119.368 254.333 119.164C254.105 118.948 253.835 118.786 253.523 118.678C253.211 118.558 252.887 118.498 252.551 118.498Z" fill="#151515"/>
<path d="M310.626 126.58C310.626 127.12 310.506 127.612 310.266 128.056C310.026 128.5 309.69 128.878 309.258 129.19C308.838 129.502 308.34 129.748 307.764 129.928C307.188 130.096 306.564 130.18 305.892 130.18C305.22 130.18 304.596 130.096 304.02 129.928C303.444 129.748 302.94 129.502 302.508 129.19C302.088 128.878 301.758 128.5 301.518 128.056C301.278 127.612 301.158 127.126 301.158 126.598C301.158 125.842 301.398 125.206 301.878 124.69C302.37 124.162 302.994 123.76 303.75 123.484C303.462 123.352 303.186 123.196 302.922 123.016C302.658 122.824 302.424 122.614 302.22 122.386C302.028 122.146 301.872 121.876 301.752 121.576C301.644 121.276 301.59 120.94 301.59 120.568C301.59 120.076 301.704 119.626 301.932 119.218C302.172 118.81 302.484 118.456 302.868 118.156C303.264 117.856 303.72 117.628 304.236 117.472C304.764 117.304 305.316 117.22 305.892 117.22C306.468 117.22 307.014 117.304 307.53 117.472C308.058 117.628 308.514 117.856 308.898 118.156C309.294 118.456 309.606 118.81 309.834 119.218C310.074 119.626 310.194 120.076 310.194 120.568C310.194 120.94 310.134 121.276 310.014 121.576C309.906 121.876 309.75 122.146 309.546 122.386C309.354 122.614 309.126 122.824 308.862 123.016C308.598 123.196 308.322 123.352 308.034 123.484C308.79 123.76 309.408 124.156 309.888 124.672C310.38 125.188 310.626 125.824 310.626 126.58ZM308.772 120.658C308.772 120.346 308.7 120.058 308.556 119.794C308.412 119.518 308.208 119.284 307.944 119.092C307.692 118.888 307.386 118.732 307.026 118.624C306.678 118.516 306.3 118.462 305.892 118.462C305.484 118.462 305.1 118.516 304.74 118.624C304.392 118.732 304.086 118.888 303.822 119.092C303.57 119.284 303.372 119.512 303.228 119.776C303.084 120.04 303.012 120.334 303.012 120.658C303.012 121.006 303.084 121.324 303.228 121.612C303.384 121.888 303.588 122.128 303.84 122.332C304.104 122.536 304.41 122.698 304.758 122.818C305.118 122.926 305.496 122.98 305.892 122.98C306.288 122.98 306.66 122.926 307.008 122.818C307.368 122.698 307.674 122.536 307.926 122.332C308.19 122.128 308.394 121.888 308.538 121.612C308.694 121.324 308.772 121.006 308.772 120.658ZM309.186 126.562C309.186 126.202 309.096 125.878 308.916 125.59C308.748 125.29 308.514 125.038 308.214 124.834C307.926 124.618 307.578 124.45 307.17 124.33C306.774 124.21 306.348 124.15 305.892 124.15C305.436 124.15 305.004 124.21 304.596 124.33C304.2 124.45 303.852 124.618 303.552 124.834C303.252 125.038 303.018 125.29 302.85 125.59C302.682 125.878 302.598 126.202 302.598 126.562C302.598 126.886 302.67 127.192 302.814 127.48C302.97 127.768 303.186 128.02 303.462 128.236C303.75 128.452 304.098 128.626 304.506 128.758C304.914 128.878 305.376 128.938 305.892 128.938C306.408 128.938 306.87 128.878 307.278 128.758C307.686 128.626 308.028 128.452 308.304 128.236C308.592 128.02 308.808 127.768 308.952 127.48C309.108 127.192 309.186 126.886 309.186 126.562ZM319.462 117.31H320.704V125.824H322.666V127.012H320.704V130H319.336V127.012H312.694L312.334 125.986L319.462 117.31ZM319.336 125.824V119.326L314.044 125.824H319.336ZM326.678 130H325.022V128.11H326.678V130ZM338.11 118.624L337.282 119.722C336.814 119.326 336.346 119.02 335.878 118.804C335.41 118.588 334.888 118.48 334.312 118.48C333.736 118.48 333.22 118.618 332.764 118.894C332.308 119.17 331.918 119.554 331.594 120.046C331.282 120.538 331.042 121.126 330.874 121.81C330.706 122.482 330.622 123.226 330.622 124.042C330.79 123.79 330.982 123.55 331.198 123.322C331.426 123.082 331.684 122.878 331.972 122.71C332.272 122.53 332.602 122.386 332.962 122.278C333.334 122.17 333.748 122.116 334.204 122.116C334.792 122.116 335.35 122.206 335.878 122.386C336.406 122.566 336.868 122.83 337.264 123.178C337.66 123.514 337.972 123.922 338.2 124.402C338.44 124.882 338.56 125.416 338.56 126.004C338.56 126.616 338.44 127.18 338.2 127.696C337.972 128.212 337.654 128.656 337.246 129.028C336.85 129.4 336.376 129.694 335.824 129.91C335.272 130.114 334.678 130.216 334.042 130.216C333.346 130.216 332.716 130.102 332.152 129.874C331.6 129.646 331.126 129.334 330.73 128.938C330.478 128.686 330.25 128.41 330.046 128.11C329.854 127.81 329.692 127.468 329.56 127.084C329.428 126.7 329.326 126.262 329.254 125.77C329.182 125.266 329.146 124.69 329.146 124.042C329.146 123.082 329.26 122.188 329.488 121.36C329.728 120.52 330.07 119.794 330.514 119.182C330.97 118.558 331.522 118.072 332.17 117.724C332.818 117.364 333.556 117.184 334.384 117.184C335.14 117.184 335.812 117.31 336.4 117.562C336.988 117.814 337.558 118.168 338.11 118.624ZM337.102 126.058C337.102 125.662 337.024 125.302 336.868 124.978C336.724 124.642 336.514 124.354 336.238 124.114C335.974 123.874 335.65 123.688 335.266 123.556C334.894 123.412 334.48 123.34 334.024 123.34C333.556 123.34 333.124 123.418 332.728 123.574C332.344 123.73 332.014 123.94 331.738 124.204C331.462 124.456 331.246 124.75 331.09 125.086C330.946 125.41 330.874 125.752 330.874 126.112C330.874 126.52 330.952 126.898 331.108 127.246C331.264 127.594 331.48 127.894 331.756 128.146C332.044 128.398 332.38 128.596 332.764 128.74C333.16 128.884 333.592 128.956 334.06 128.956C334.528 128.956 334.948 128.884 335.32 128.74C335.692 128.584 336.01 128.38 336.274 128.128C336.538 127.864 336.742 127.558 336.886 127.21C337.03 126.85 337.102 126.466 337.102 126.058ZM347.604 117.31H348.846V125.824H350.808V127.012H348.846V130H347.478V127.012H340.836L340.476 125.986L347.604 117.31ZM347.478 125.824V119.326L342.186 125.824H347.478Z" fill="white"/>
<path d="M62.5 145L56.0048 137.5L68.9952 137.5L62.5 145Z" fill="#D6D795"/>
<path d="M150.5 145L144.005 137.5L156.995 137.5L150.5 145Z" fill="#D6D795"/>
<path d="M238.5 145L232.005 137.5L244.995 137.5L238.5 145Z" fill="#D6D795"/>
<path d="M326.5 145L320.005 137.5L332.995 137.5L326.5 145Z" fill="#9AA613"/>
<path d="M63 245V151" stroke="black" stroke-dasharray="2 2"/>
<path d="M151 245V151" stroke="black" stroke-dasharray="2 2"/>
<path d="M239 245V151" stroke="black" stroke-dasharray="2 2"/>
<path d="M327 245V151" stroke="black" stroke-dasharray="2 2"/>
<path d="M138 256C138 252.134 141.134 249 145 249H164V525H138V256Z" fill="#D6D795"/>
<path d="M226 241C226 237.134 229.134 234 233 234H252V525H226V241Z" fill="#D6D795"/>
<path d="M314 235C314 231.134 317.134 228 321 228H340V525H314V235Z" fill="#9AA613"/>
<path d="M50 241C50 237.134 53.134 234 57 234H76V525H50V241Z" fill="#D6D795"/>
<path d="M51.6476 533.8V534.968H44.8636V538.968H50.9276V540.12H44.8636V545H43.5996V533.8H51.6476ZM58.8836 540.552V545H57.6036V540.568L52.9476 533.8H54.4836L58.2596 539.4L62.0676 533.8H63.5396L58.8836 540.552ZM68.8808 534.776C68.2408 534.776 67.6914 534.941 67.2328 535.272C66.7741 535.592 66.3208 536.067 65.8728 536.696L64.9448 536.024C65.2008 535.651 65.4621 535.315 65.7288 535.016C65.9954 534.717 66.2834 534.467 66.5928 534.264C66.9128 534.061 67.2648 533.907 67.6488 533.8C68.0434 533.693 68.4861 533.64 68.9768 533.64C69.4888 533.64 69.9528 533.72 70.3688 533.88C70.7954 534.04 71.1634 534.264 71.4728 534.552C71.7821 534.829 72.0221 535.165 72.1927 535.56C72.3634 535.944 72.4488 536.365 72.4488 536.824C72.4488 537.24 72.3901 537.619 72.2728 537.96C72.1661 538.301 71.9954 538.643 71.7608 538.984C71.5261 539.315 71.2328 539.661 70.8808 540.024C70.5288 540.376 70.1074 540.765 69.6168 541.192L66.6248 543.848H72.5608V545H64.7368V544.024L68.8008 540.44C69.2274 540.056 69.5901 539.709 69.8888 539.4C70.1874 539.091 70.4274 538.803 70.6088 538.536C70.8008 538.259 70.9341 537.992 71.0088 537.736C71.0941 537.469 71.1368 537.197 71.1368 536.92C71.1368 536.589 71.0728 536.296 70.9448 536.04C70.8274 535.773 70.6674 535.549 70.4648 535.368C70.2621 535.176 70.0221 535.032 69.7448 534.936C69.4674 534.829 69.1794 534.776 68.8808 534.776ZM83.9949 539.384C83.9949 540.173 83.8829 540.92 83.6589 541.624C83.4349 542.328 83.1149 542.947 82.6989 543.48C82.2935 544.003 81.7975 544.419 81.2109 544.728C80.6242 545.037 79.9735 545.192 79.2589 545.192C78.5335 545.192 77.8775 545.043 77.2909 544.744C76.7149 544.435 76.2189 544.019 75.8029 543.496C75.3975 542.963 75.0829 542.349 74.8589 541.656C74.6455 540.952 74.5389 540.205 74.5389 539.416C74.5389 538.627 74.6509 537.88 74.8749 537.176C75.0989 536.472 75.4135 535.859 75.8189 535.336C76.2349 534.803 76.7362 534.381 77.3229 534.072C77.9095 533.763 78.5655 533.608 79.2909 533.608C80.0055 533.608 80.6509 533.763 81.2269 534.072C81.8135 534.371 82.3095 534.787 82.7149 535.32C83.1309 535.843 83.4455 536.456 83.6589 537.16C83.8829 537.853 83.9949 538.595 83.9949 539.384ZM82.6829 539.416C82.6829 538.797 82.6029 538.211 82.4429 537.656C82.2829 537.091 82.0535 536.595 81.7549 536.168C81.4562 535.741 81.0935 535.4 80.6669 535.144C80.2509 534.888 79.7815 534.76 79.2589 534.76C78.7362 534.76 78.2615 534.888 77.8349 535.144C77.4189 535.389 77.0615 535.725 76.7629 536.152C76.4749 536.568 76.2509 537.059 76.0909 537.624C75.9309 538.179 75.8509 538.765 75.8509 539.384C75.8509 540.003 75.9309 540.595 76.0909 541.16C76.2509 541.725 76.4802 542.221 76.7789 542.648C77.0775 543.075 77.4402 543.416 77.8669 543.672C78.2935 543.917 78.7682 544.04 79.2909 544.04C79.8135 544.04 80.2829 543.917 80.6989 543.672C81.1255 543.416 81.4829 543.08 81.7709 542.664C82.0695 542.237 82.2935 541.747 82.4429 541.192C82.6029 540.627 82.6829 540.035 82.6829 539.416Z" fill="black"/>
<path d="M141.999 533.8V534.968H135.215V538.968H141.279V540.12H135.215V545H133.951V533.8H141.999ZM149.235 540.552V545H147.955V540.568L143.299 533.8H144.835L148.611 539.4L152.419 533.8H153.891L149.235 540.552ZM159.232 534.776C158.592 534.776 158.043 534.941 157.584 535.272C157.126 535.592 156.672 536.067 156.224 536.696L155.296 536.024C155.552 535.651 155.814 535.315 156.08 535.016C156.347 534.717 156.635 534.467 156.944 534.264C157.264 534.061 157.616 533.907 158 533.8C158.395 533.693 158.838 533.64 159.328 533.64C159.84 533.64 160.304 533.72 160.72 533.88C161.147 534.04 161.515 534.264 161.824 534.552C162.134 534.829 162.374 535.165 162.544 535.56C162.715 535.944 162.8 536.365 162.8 536.824C162.8 537.24 162.742 537.619 162.624 537.96C162.518 538.301 162.347 538.643 162.112 538.984C161.878 539.315 161.584 539.661 161.232 540.024C160.88 540.376 160.459 540.765 159.968 541.192L156.976 543.848H162.912V545H155.088V544.024L159.152 540.44C159.579 540.056 159.942 539.709 160.24 539.4C160.539 539.091 160.779 538.803 160.96 538.536C161.152 538.259 161.286 537.992 161.36 537.736C161.446 537.469 161.488 537.197 161.488 536.92C161.488 536.589 161.424 536.296 161.296 536.04C161.179 535.773 161.019 535.549 160.816 535.368C160.614 535.176 160.374 535.032 160.096 534.936C159.819 534.829 159.531 534.776 159.232 534.776ZM164.346 534.664L167.082 533.72H168.01V545H166.762V535.032L164.65 535.688L164.346 534.664Z" fill="black"/>
<path d="M228.077 533.8V534.968H221.293V538.968H227.357V540.12H221.293V545H220.029V533.8H228.077ZM235.313 540.552V545H234.033V540.568L229.377 533.8H230.913L234.689 539.4L238.497 533.8H239.969L235.313 540.552ZM245.31 534.776C244.67 534.776 244.121 534.941 243.662 535.272C243.204 535.592 242.75 536.067 242.302 536.696L241.374 536.024C241.63 535.651 241.892 535.315 242.158 535.016C242.425 534.717 242.713 534.467 243.022 534.264C243.342 534.061 243.694 533.907 244.078 533.8C244.473 533.693 244.916 533.64 245.406 533.64C245.918 533.64 246.382 533.72 246.798 533.88C247.225 534.04 247.593 534.264 247.902 534.552C248.212 534.829 248.452 535.165 248.622 535.56C248.793 535.944 248.878 536.365 248.878 536.824C248.878 537.24 248.82 537.619 248.702 537.96C248.596 538.301 248.425 538.643 248.19 538.984C247.956 539.315 247.662 539.661 247.31 540.024C246.958 540.376 246.537 540.765 246.046 541.192L243.054 543.848H248.99V545H241.166V544.024L245.23 540.44C245.657 540.056 246.02 539.709 246.318 539.4C246.617 539.091 246.857 538.803 247.038 538.536C247.23 538.259 247.364 537.992 247.438 537.736C247.524 537.469 247.566 537.197 247.566 536.92C247.566 536.589 247.502 536.296 247.374 536.04C247.257 535.773 247.097 535.549 246.894 535.368C246.692 535.176 246.452 535.032 246.174 534.936C245.897 534.829 245.609 534.776 245.31 534.776ZM254.889 534.776C254.249 534.776 253.699 534.941 253.241 535.272C252.782 535.592 252.329 536.067 251.881 536.696L250.953 536.024C251.209 535.651 251.47 535.315 251.737 535.016C252.003 534.717 252.291 534.467 252.601 534.264C252.921 534.061 253.273 533.907 253.657 533.8C254.051 533.693 254.494 533.64 254.985 533.64C255.497 533.64 255.961 533.72 256.377 533.88C256.803 534.04 257.171 534.264 257.481 534.552C257.79 534.829 258.03 535.165 258.201 535.56C258.371 535.944 258.457 536.365 258.457 536.824C258.457 537.24 258.398 537.619 258.281 537.96C258.174 538.301 258.003 538.643 257.769 538.984C257.534 539.315 257.241 539.661 256.889 540.024C256.537 540.376 256.115 540.765 255.625 541.192L252.633 543.848H258.569V545H250.745V544.024L254.809 540.44C255.235 540.056 255.598 539.709 255.897 539.4C256.195 539.091 256.435 538.803 256.617 538.536C256.809 538.259 256.942 537.992 257.017 537.736C257.102 537.469 257.145 537.197 257.145 536.92C257.145 536.589 257.081 536.296 256.953 536.04C256.835 535.773 256.675 535.549 256.473 535.368C256.27 535.176 256.03 535.032 255.753 534.936C255.475 534.829 255.187 534.776 254.889 534.776Z" fill="black"/>
<path d="M315.96 533.8V534.968H309.176V538.968H315.24V540.12H309.176V545H307.912V533.8H315.96ZM323.196 540.552V545H321.916V540.568L317.26 533.8H318.796L322.572 539.4L326.38 533.8H327.852L323.196 540.552ZM333.193 534.776C332.553 534.776 332.004 534.941 331.545 535.272C331.087 535.592 330.633 536.067 330.185 536.696L329.257 536.024C329.513 535.651 329.775 535.315 330.041 535.016C330.308 534.717 330.596 534.467 330.905 534.264C331.225 534.061 331.577 533.907 331.961 533.8C332.356 533.693 332.799 533.64 333.289 533.64C333.801 533.64 334.265 533.72 334.681 533.88C335.108 534.04 335.476 534.264 335.785 534.552C336.095 534.829 336.335 535.165 336.505 535.56C336.676 535.944 336.761 536.365 336.761 536.824C336.761 537.24 336.703 537.619 336.585 537.96C336.479 538.301 336.308 538.643 336.073 538.984C335.839 539.315 335.545 539.661 335.193 540.024C334.841 540.376 334.42 540.765 333.929 541.192L330.937 543.848H336.873V545H329.049V544.024L333.113 540.44C333.54 540.056 333.903 539.709 334.201 539.4C334.5 539.091 334.74 538.803 334.921 538.536C335.113 538.259 335.247 537.992 335.321 537.736C335.407 537.469 335.449 537.197 335.449 536.92C335.449 536.589 335.385 536.296 335.257 536.04C335.14 535.773 334.98 535.549 334.777 535.368C334.575 535.176 334.335 535.032 334.057 534.936C333.78 534.829 333.492 534.776 333.193 534.776ZM344.723 534.936H339.251V533.8H346.403V534.728L342.883 538.632C343.374 538.675 343.843 538.765 344.291 538.904C344.739 539.043 345.129 539.24 345.459 539.496C345.801 539.752 346.073 540.072 346.275 540.456C346.478 540.84 346.579 541.288 346.579 541.8C346.579 542.301 346.478 542.76 346.275 543.176C346.083 543.592 345.817 543.949 345.475 544.248C345.145 544.547 344.75 544.781 344.291 544.952C343.843 545.112 343.358 545.192 342.835 545.192C341.897 545.192 341.081 545.011 340.387 544.648C339.694 544.275 339.118 543.789 338.659 543.192L339.571 542.376C340.009 542.909 340.489 543.32 341.011 543.608C341.545 543.896 342.158 544.04 342.851 544.04C343.193 544.04 343.513 543.992 343.811 543.896C344.11 543.789 344.366 543.64 344.579 543.448C344.803 543.256 344.979 543.027 345.107 542.76C345.235 542.483 345.299 542.179 345.299 541.848C345.299 541.144 345.006 540.605 344.419 540.232C343.843 539.859 343.091 539.672 342.163 539.672H341.443L341.187 538.92L344.723 534.936Z" fill="black"/>
<path d="M0 525H390" stroke="#B1B3B6"/>
<path d="M0 54L390 54" stroke="#B1B3B6"/>
<path d="M14.808 19H2.016V2.2H14.688V5.488H5.688V8.896H13.608V12.184H5.688V15.712H14.808V19ZM37.8221 19H34.6781L26.5421 8.32V19H22.8941V2.2H26.3021L34.1741 12.544V2.2H37.8221V19ZM59.4471 19H46.6551V2.2H59.3271V5.488H50.3271V8.896H58.2471V12.184H50.3271V15.712H59.4471V19ZM82.0532 19H77.7332L74.1332 13.624H71.2292V19H67.5332V2.2H75.2132C77.2132 2.2 78.7652 2.688 79.8692 3.664C80.9892 4.64 81.5492 6 81.5492 7.744V7.792C81.5492 9.152 81.2132 10.264 80.5412 11.128C79.8852 11.976 79.0212 12.6 77.9492 13L82.0532 19ZM77.8052 7.984V7.936C77.8052 7.136 77.5492 6.536 77.0372 6.136C76.5252 5.736 75.8132 5.536 74.9012 5.536H71.2292V10.36H74.9732C75.8852 10.36 76.5812 10.144 77.0612 9.712C77.5572 9.28 77.8052 8.704 77.8052 7.984ZM104.941 16.624C104.077 17.36 103.045 17.992 101.845 18.52C100.661 19.032 99.3009 19.288 97.7649 19.288C96.4529 19.288 95.2529 19.072 94.1649 18.64C93.0929 18.208 92.1649 17.608 91.3809 16.84C90.6129 16.072 90.0129 15.16 89.5809 14.104C89.1489 13.048 88.9329 11.896 88.9329 10.648V10.6C88.9329 9.4 89.1489 8.28 89.5809 7.24C90.0289 6.184 90.6449 5.264 91.4289 4.48C92.2129 3.68 93.1409 3.056 94.2129 2.608C95.2849 2.144 96.4609 1.912 97.7409 1.912C98.4929 1.912 99.1729 1.968 99.7809 2.08C100.405 2.176 100.981 2.32 101.509 2.512C102.037 2.704 102.533 2.944 102.997 3.232C103.461 3.52 103.909 3.848 104.341 4.216L102.013 7.024C101.693 6.752 101.373 6.512 101.053 6.304C100.733 6.096 100.397 5.92 100.045 5.776C99.7089 5.632 99.3409 5.52 98.9409 5.44C98.5409 5.36 98.1009 5.32 97.6209 5.32C96.9489 5.32 96.3169 5.464 95.7249 5.752C95.1489 6.024 94.6369 6.4 94.1889 6.88C93.7569 7.344 93.4129 7.896 93.1569 8.536C92.9169 9.16 92.7969 9.832 92.7969 10.552V10.6C92.7969 11.368 92.9169 12.08 93.1569 12.736C93.4129 13.376 93.7649 13.936 94.2129 14.416C94.6769 14.896 95.2129 15.272 95.8209 15.544C96.4449 15.8 97.1329 15.928 97.8849 15.928C99.2609 15.928 100.421 15.592 101.365 14.92V12.52H97.6449V9.328H104.941V16.624ZM128.177 2.2L121.721 12.304V19H118.025V12.376L111.569 2.2H115.889L119.897 8.944L123.977 2.2H128.177ZM151.136 19H147.44V2.2H151.136V19ZM175.063 19H171.919L163.783 8.32V19H160.135V2.2H163.543L171.415 12.544V2.2H175.063V19ZM196.616 5.608H191.504V19H187.808V5.608H182.696V2.2H196.616V5.608ZM217.05 19H204.258V2.2H216.93V5.488H207.93V8.896H215.85V12.184H207.93V15.712H217.05V19ZM240.064 19H236.92L228.784 8.32V19H225.136V2.2H228.544L236.416 12.544V2.2H240.064V19ZM261.041 14.032C261.041 14.864 260.889 15.608 260.585 16.264C260.281 16.904 259.857 17.448 259.313 17.896C258.769 18.328 258.121 18.664 257.369 18.904C256.617 19.128 255.785 19.24 254.873 19.24C253.593 19.24 252.337 19.024 251.105 18.592C249.873 18.144 248.753 17.464 247.745 16.552L249.929 13.936C250.697 14.56 251.481 15.056 252.281 15.424C253.097 15.792 253.985 15.976 254.945 15.976C255.713 15.976 256.305 15.84 256.721 15.568C257.153 15.28 257.369 14.888 257.369 14.392V14.344C257.369 14.104 257.321 13.896 257.225 13.72C257.145 13.528 256.977 13.352 256.721 13.192C256.481 13.032 256.137 12.872 255.689 12.712C255.257 12.552 254.689 12.384 253.985 12.208C253.137 12 252.369 11.768 251.681 11.512C250.993 11.256 250.409 10.944 249.929 10.576C249.449 10.192 249.073 9.72 248.801 9.16C248.545 8.6 248.417 7.904 248.417 7.072V7.024C248.417 6.256 248.561 5.568 248.849 4.96C249.137 4.336 249.537 3.8 250.049 3.352C250.577 2.904 251.201 2.56 251.921 2.32C252.641 2.08 253.433 1.96 254.297 1.96C255.529 1.96 256.657 2.144 257.681 2.512C258.721 2.88 259.673 3.408 260.537 4.096L258.617 6.88C257.865 6.368 257.129 5.968 256.409 5.68C255.689 5.376 254.969 5.224 254.249 5.224C253.529 5.224 252.985 5.368 252.617 5.656C252.265 5.928 252.089 6.272 252.089 6.688V6.736C252.089 7.008 252.137 7.248 252.233 7.456C252.345 7.648 252.537 7.824 252.809 7.984C253.081 8.144 253.449 8.296 253.913 8.44C254.393 8.584 254.993 8.752 255.713 8.944C256.561 9.168 257.313 9.424 257.969 9.712C258.641 9.984 259.201 10.32 259.649 10.72C260.113 11.104 260.457 11.56 260.681 12.088C260.921 12.616 261.041 13.248 261.041 13.984V14.032ZM272.913 19H269.217V2.2H272.913V19ZM294.631 5.608H289.519V19H285.823V5.608H280.711V2.2H294.631V5.608ZM317.154 2.2L310.698 12.304V19H307.002V12.376L300.546 2.2H304.866L308.874 8.944L312.954 2.2H317.154Z" fill="#B0BC25"/>
<path d="M6.804 31.048C5.424 31.924 4.38 32.914 3.672 34.018C2.976 35.11 2.628 36.382 2.628 37.834C2.628 39.286 2.976 40.564 3.672 41.668C4.38 42.76 5.424 43.744 6.804 44.62L6.21 45.538C4.602 44.638 3.366 43.546 2.502 42.262C1.65 40.978 1.224 39.502 1.224 37.834C1.224 36.166 1.65 34.69 2.502 33.406C3.366 32.122 4.602 31.03 6.21 30.13L6.804 31.048ZM20.2247 32.794L15.6347 39.544H15.5627L10.9727 32.812V43H9.58669V30.4H11.0267L15.6167 37.276L20.2067 30.4H21.6467V43H20.2247V32.794ZM29.3896 40.894L32.8456 30.364H34.0156L37.4716 40.894L41.0716 30.4H42.5656L38.0656 43.09H36.8596L33.4036 32.866L29.9296 43.09H28.7416L24.2416 30.4H25.7896L29.3896 40.894ZM46.2992 37.672V43H44.9132V29.86H46.2992V35.314C46.6112 34.81 47.0192 34.384 47.5232 34.036C48.0272 33.676 48.6812 33.496 49.4852 33.496C50.0492 33.496 50.5472 33.586 50.9792 33.766C51.4232 33.946 51.7952 34.204 52.0952 34.54C52.4072 34.864 52.6412 35.254 52.7972 35.71C52.9652 36.166 53.0492 36.67 53.0492 37.222V43H51.6632V37.564C51.6632 36.7 51.4412 36.016 50.9972 35.512C50.5532 35.008 49.9172 34.756 49.0892 34.756C48.6932 34.756 48.3212 34.828 47.9732 34.972C47.6372 35.104 47.3432 35.302 47.0912 35.566C46.8392 35.818 46.6412 36.124 46.4972 36.484C46.3652 36.844 46.2992 37.24 46.2992 37.672ZM70.7975 38.338C70.7975 39.106 70.6715 39.79 70.4195 40.39C70.1675 40.99 69.8315 41.5 69.4115 41.92C69.0035 42.328 68.5295 42.646 67.9895 42.874C67.4615 43.09 66.9155 43.198 66.3515 43.198C65.9195 43.198 65.5235 43.144 65.1635 43.036C64.8035 42.928 64.4795 42.784 64.1915 42.604C63.9035 42.424 63.6395 42.214 63.3995 41.974C63.1715 41.734 62.9675 41.482 62.7875 41.218V45.88H61.4015V33.694H62.7875V35.566C62.9795 35.29 63.1895 35.026 63.4175 34.774C63.6575 34.522 63.9215 34.306 64.2095 34.126C64.4975 33.934 64.8155 33.784 65.1635 33.676C65.5235 33.556 65.9195 33.496 66.3515 33.496C66.9035 33.496 67.4435 33.604 67.9715 33.82C68.5115 34.036 68.9915 34.354 69.4115 34.774C69.8315 35.182 70.1675 35.686 70.4195 36.286C70.6715 36.886 70.7975 37.57 70.7975 38.338ZM69.3755 38.356C69.3755 37.804 69.2855 37.306 69.1055 36.862C68.9375 36.418 68.7035 36.04 68.4035 35.728C68.1035 35.404 67.7555 35.158 67.3595 34.99C66.9635 34.822 66.5435 34.738 66.0995 34.738C65.6675 34.738 65.2475 34.828 64.8395 35.008C64.4435 35.176 64.0835 35.416 63.7595 35.728C63.4475 36.04 63.1955 36.418 63.0035 36.862C62.8235 37.306 62.7335 37.798 62.7335 38.338C62.7335 38.878 62.8235 39.376 63.0035 39.832C63.1955 40.276 63.4475 40.654 63.7595 40.966C64.0835 41.278 64.4435 41.524 64.8395 41.704C65.2475 41.872 65.6675 41.956 66.0995 41.956C66.5435 41.956 66.9635 41.878 67.3595 41.722C67.7675 41.554 68.1155 41.32 68.4035 41.02C68.7035 40.708 68.9375 40.33 69.1055 39.886C69.2855 39.43 69.3755 38.92 69.3755 38.356ZM74.1826 38.86C74.2306 39.364 74.3506 39.814 74.5426 40.21C74.7346 40.594 74.9806 40.924 75.2806 41.2C75.5806 41.464 75.9166 41.668 76.2886 41.812C76.6606 41.944 77.0506 42.01 77.4586 42.01C78.1066 42.01 78.6586 41.89 79.1146 41.65C79.5826 41.41 80.0086 41.092 80.3926 40.696L81.2566 41.47C80.7886 41.998 80.2546 42.424 79.6546 42.748C79.0546 43.06 78.3106 43.216 77.4226 43.216C76.7866 43.216 76.1866 43.102 75.6226 42.874C75.0586 42.634 74.5666 42.304 74.1466 41.884C73.7266 41.452 73.3906 40.936 73.1386 40.336C72.8986 39.736 72.7786 39.076 72.7786 38.356C72.7786 37.684 72.8866 37.054 73.1026 36.466C73.3306 35.866 73.6426 35.35 74.0386 34.918C74.4346 34.474 74.9026 34.126 75.4426 33.874C75.9946 33.622 76.5946 33.496 77.2426 33.496C77.9266 33.496 78.5386 33.628 79.0786 33.892C79.6186 34.144 80.0746 34.492 80.4466 34.936C80.8186 35.38 81.1006 35.902 81.2926 36.502C81.4846 37.102 81.5806 37.744 81.5806 38.428C81.5806 38.488 81.5806 38.554 81.5806 38.626C81.5806 38.698 81.5746 38.776 81.5626 38.86H74.1826ZM74.1826 37.834H80.1766C80.1406 37.414 80.0506 37.012 79.9066 36.628C79.7746 36.244 79.5826 35.908 79.3306 35.62C79.0906 35.332 78.7906 35.104 78.4306 34.936C78.0826 34.756 77.6746 34.666 77.2066 34.666C76.7986 34.666 76.4206 34.75 76.0726 34.918C75.7246 35.074 75.4186 35.296 75.1546 35.584C74.8906 35.86 74.6746 36.19 74.5066 36.574C74.3386 36.958 74.2306 37.378 74.1826 37.834ZM85.393 39.292V43H84.007V33.694H85.393V36.124C85.561 35.74 85.771 35.386 86.023 35.062C86.275 34.738 86.563 34.462 86.887 34.234C87.211 33.994 87.565 33.814 87.949 33.694C88.333 33.574 88.747 33.52 89.191 33.532V35.026H89.083C88.579 35.026 88.099 35.116 87.643 35.296C87.199 35.476 86.809 35.746 86.473 36.106C86.137 36.466 85.873 36.916 85.681 37.456C85.489 37.984 85.393 38.596 85.393 39.292ZM107.57 32.794L102.98 39.544H102.908L98.3184 32.812V43H96.9324V30.4H98.3724L102.962 37.276L107.552 30.4H108.992V43H107.57V32.794ZM113.945 31.66H112.361V30.13H113.945V31.66ZM113.837 43H112.451V33.694H113.837V43ZM118.566 43H117.18V29.86H118.566V43ZM123.294 43H121.908V29.86H123.294V43ZM128.131 31.66H126.547V30.13H128.131V31.66ZM128.023 43H126.637V33.694H128.023V43ZM140.365 38.338C140.365 38.998 140.239 39.628 139.987 40.228C139.747 40.816 139.411 41.332 138.979 41.776C138.547 42.22 138.031 42.574 137.431 42.838C136.831 43.09 136.183 43.216 135.487 43.216C134.791 43.216 134.149 43.09 133.561 42.838C132.973 42.574 132.463 42.226 132.031 41.794C131.599 41.35 131.263 40.834 131.023 40.246C130.783 39.658 130.663 39.034 130.663 38.374C130.663 37.714 130.783 37.09 131.023 36.502C131.263 35.902 131.599 35.38 132.031 34.936C132.463 34.492 132.973 34.144 133.561 33.892C134.161 33.628 134.815 33.496 135.523 33.496C136.219 33.496 136.861 33.628 137.449 33.892C138.049 34.144 138.565 34.492 138.997 34.936C139.429 35.368 139.765 35.878 140.005 36.466C140.245 37.054 140.365 37.678 140.365 38.338ZM138.943 38.374C138.943 37.87 138.853 37.396 138.673 36.952C138.505 36.508 138.265 36.124 137.953 35.8C137.641 35.464 137.275 35.2 136.855 35.008C136.435 34.816 135.979 34.72 135.487 34.72C134.983 34.72 134.521 34.816 134.101 35.008C133.681 35.188 133.321 35.446 133.021 35.782C132.733 36.106 132.505 36.49 132.337 36.934C132.169 37.366 132.085 37.834 132.085 38.338C132.085 38.842 132.169 39.316 132.337 39.76C132.517 40.204 132.757 40.588 133.057 40.912C133.369 41.236 133.735 41.494 134.155 41.686C134.575 41.878 135.031 41.974 135.523 41.974C136.027 41.974 136.489 41.884 136.909 41.704C137.329 41.512 137.689 41.254 137.989 40.93C138.289 40.606 138.523 40.228 138.691 39.796C138.859 39.352 138.943 38.878 138.943 38.374ZM144.262 37.672V43H142.876V33.694H144.262V35.314C144.574 34.81 144.982 34.384 145.486 34.036C145.99 33.676 146.644 33.496 147.448 33.496C148.012 33.496 148.51 33.586 148.942 33.766C149.386 33.946 149.758 34.204 150.058 34.54C150.37 34.864 150.604 35.254 150.76 35.71C150.928 36.166 151.012 36.67 151.012 37.222V43H149.626V37.564C149.626 36.7 149.404 36.016 148.96 35.512C148.516 35.008 147.88 34.756 147.052 34.756C146.656 34.756 146.284 34.828 145.936 34.972C145.6 35.104 145.306 35.302 145.054 35.566C144.802 35.818 144.604 36.124 144.46 36.484C144.328 36.844 144.262 37.24 144.262 37.672ZM169.894 30.4V37.618C169.894 38.542 169.768 39.352 169.516 40.048C169.264 40.744 168.904 41.326 168.436 41.794C167.98 42.262 167.428 42.616 166.78 42.856C166.144 43.084 165.43 43.198 164.638 43.198C163.858 43.198 163.144 43.084 162.496 42.856C161.86 42.616 161.308 42.268 160.84 41.812C160.384 41.344 160.03 40.768 159.778 40.084C159.526 39.4 159.4 38.614 159.4 37.726V30.4H160.822V37.636C160.822 39.004 161.158 40.054 161.83 40.786C162.514 41.518 163.462 41.884 164.674 41.884C165.838 41.884 166.762 41.536 167.446 40.84C168.13 40.144 168.472 39.106 168.472 37.726V30.4H169.894ZM174.409 37.672V43H173.023V33.694H174.409V35.314C174.721 34.81 175.129 34.384 175.633 34.036C176.137 33.676 176.791 33.496 177.595 33.496C178.159 33.496 178.657 33.586 179.089 33.766C179.533 33.946 179.905 34.204 180.205 34.54C180.517 34.864 180.751 35.254 180.907 35.71C181.075 36.166 181.159 36.67 181.159 37.222V43H179.773V37.564C179.773 36.7 179.551 36.016 179.107 35.512C178.663 35.008 178.027 34.756 177.199 34.756C176.803 34.756 176.431 34.828 176.083 34.972C175.747 35.104 175.453 35.302 175.201 35.566C174.949 35.818 174.751 36.124 174.607 36.484C174.475 36.844 174.409 37.24 174.409 37.672ZM185.734 31.66H184.15V30.13H185.734V31.66ZM185.626 43H184.24V33.694H185.626V43ZM190.715 34.918V40.354C190.715 40.93 190.859 41.332 191.147 41.56C191.435 41.788 191.813 41.902 192.281 41.902C192.521 41.902 192.743 41.878 192.947 41.83C193.163 41.782 193.391 41.698 193.631 41.578V42.766C193.391 42.898 193.133 42.994 192.857 43.054C192.593 43.126 192.293 43.162 191.957 43.162C191.585 43.162 191.237 43.114 190.913 43.018C190.589 42.922 190.307 42.772 190.067 42.568C189.839 42.352 189.659 42.076 189.527 41.74C189.395 41.404 189.329 41.002 189.329 40.534V34.918H188.033V33.694H189.329V30.886H190.715V33.694H193.667V34.918H190.715ZM212.173 43H210.427L206.773 38.104H203.173V43H201.751V30.4H207.169C207.865 30.4 208.489 30.49 209.041 30.67C209.605 30.85 210.085 31.108 210.481 31.444C210.877 31.768 211.183 32.164 211.399 32.632C211.615 33.088 211.723 33.598 211.723 34.162C211.723 34.69 211.639 35.164 211.471 35.584C211.303 35.992 211.063 36.352 210.751 36.664C210.451 36.964 210.091 37.216 209.671 37.42C209.251 37.624 208.795 37.768 208.303 37.852L212.173 43ZM210.283 34.216C210.283 33.424 210.001 32.812 209.437 32.38C208.873 31.936 208.081 31.714 207.061 31.714H203.173V36.826H207.043C207.511 36.826 207.943 36.766 208.339 36.646C208.735 36.526 209.077 36.358 209.365 36.142C209.653 35.914 209.875 35.638 210.031 35.314C210.199 34.99 210.283 34.624 210.283 34.216ZM215.177 38.86C215.225 39.364 215.345 39.814 215.537 40.21C215.729 40.594 215.975 40.924 216.275 41.2C216.575 41.464 216.911 41.668 217.283 41.812C217.655 41.944 218.045 42.01 218.453 42.01C219.101 42.01 219.653 41.89 220.109 41.65C220.577 41.41 221.003 41.092 221.387 40.696L222.251 41.47C221.783 41.998 221.249 42.424 220.649 42.748C220.049 43.06 219.305 43.216 218.417 43.216C217.781 43.216 217.181 43.102 216.617 42.874C216.053 42.634 215.561 42.304 215.141 41.884C214.721 41.452 214.385 40.936 214.133 40.336C213.893 39.736 213.773 39.076 213.773 38.356C213.773 37.684 213.881 37.054 214.097 36.466C214.325 35.866 214.637 35.35 215.033 34.918C215.429 34.474 215.897 34.126 216.437 33.874C216.989 33.622 217.589 33.496 218.237 33.496C218.921 33.496 219.533 33.628 220.073 33.892C220.613 34.144 221.069 34.492 221.441 34.936C221.813 35.38 222.095 35.902 222.287 36.502C222.479 37.102 222.575 37.744 222.575 38.428C222.575 38.488 222.575 38.554 222.575 38.626C222.575 38.698 222.569 38.776 222.557 38.86H215.177ZM215.177 37.834H221.171C221.135 37.414 221.045 37.012 220.901 36.628C220.769 36.244 220.577 35.908 220.325 35.62C220.085 35.332 219.785 35.104 219.425 34.936C219.077 34.756 218.669 34.666 218.201 34.666C217.793 34.666 217.415 34.75 217.067 34.918C216.719 35.074 216.413 35.296 216.149 35.584C215.885 35.86 215.669 36.19 215.501 36.574C215.333 36.958 215.225 37.378 215.177 37.834ZM228.288 41.416L231.438 33.694H232.932L228.882 43.072H227.658L223.626 33.694H225.156L228.288 41.416ZM235.392 38.86C235.44 39.364 235.56 39.814 235.752 40.21C235.944 40.594 236.19 40.924 236.49 41.2C236.79 41.464 237.126 41.668 237.498 41.812C237.87 41.944 238.26 42.01 238.668 42.01C239.316 42.01 239.868 41.89 240.324 41.65C240.792 41.41 241.218 41.092 241.602 40.696L242.466 41.47C241.998 41.998 241.464 42.424 240.864 42.748C240.264 43.06 239.52 43.216 238.632 43.216C237.996 43.216 237.396 43.102 236.832 42.874C236.268 42.634 235.776 42.304 235.356 41.884C234.936 41.452 234.6 40.936 234.348 40.336C234.108 39.736 233.988 39.076 233.988 38.356C233.988 37.684 234.096 37.054 234.312 36.466C234.54 35.866 234.852 35.35 235.248 34.918C235.644 34.474 236.112 34.126 236.652 33.874C237.204 33.622 237.804 33.496 238.452 33.496C239.136 33.496 239.748 33.628 240.288 33.892C240.828 34.144 241.284 34.492 241.656 34.936C242.028 35.38 242.31 35.902 242.502 36.502C242.694 37.102 242.79 37.744 242.79 38.428C242.79 38.488 242.79 38.554 242.79 38.626C242.79 38.698 242.784 38.776 242.772 38.86H235.392ZM235.392 37.834H241.386C241.35 37.414 241.26 37.012 241.116 36.628C240.984 36.244 240.792 35.908 240.54 35.62C240.3 35.332 240 35.104 239.64 34.936C239.292 34.756 238.884 34.666 238.416 34.666C238.008 34.666 237.63 34.75 237.282 34.918C236.934 35.074 236.628 35.296 236.364 35.584C236.1 35.86 235.884 36.19 235.716 36.574C235.548 36.958 235.44 37.378 235.392 37.834ZM246.602 37.672V43H245.216V33.694H246.602V35.314C246.914 34.81 247.322 34.384 247.826 34.036C248.33 33.676 248.984 33.496 249.788 33.496C250.352 33.496 250.85 33.586 251.282 33.766C251.726 33.946 252.098 34.204 252.398 34.54C252.71 34.864 252.944 35.254 253.1 35.71C253.268 36.166 253.352 36.67 253.352 37.222V43H251.966V37.564C251.966 36.7 251.744 36.016 251.3 35.512C250.856 35.008 250.22 34.756 249.392 34.756C248.996 34.756 248.624 34.828 248.276 34.972C247.94 35.104 247.646 35.302 247.394 35.566C247.142 35.818 246.944 36.124 246.8 36.484C246.668 36.844 246.602 37.24 246.602 37.672ZM262.914 39.022V33.694H264.282V43H262.914V41.38C262.602 41.884 262.194 42.316 261.69 42.676C261.186 43.024 260.532 43.198 259.728 43.198C259.164 43.198 258.66 43.108 258.216 42.928C257.784 42.748 257.412 42.496 257.1 42.172C256.8 41.836 256.566 41.44 256.398 40.984C256.242 40.528 256.164 40.024 256.164 39.472V33.694H257.55V39.13C257.55 39.994 257.772 40.678 258.216 41.182C258.66 41.686 259.296 41.938 260.124 41.938C260.52 41.938 260.886 41.872 261.222 41.74C261.57 41.596 261.864 41.398 262.104 41.146C262.356 40.882 262.554 40.57 262.698 40.21C262.842 39.85 262.914 39.454 262.914 39.022ZM268.228 38.86C268.276 39.364 268.396 39.814 268.588 40.21C268.78 40.594 269.026 40.924 269.326 41.2C269.626 41.464 269.962 41.668 270.334 41.812C270.706 41.944 271.096 42.01 271.504 42.01C272.152 42.01 272.704 41.89 273.16 41.65C273.628 41.41 274.054 41.092 274.438 40.696L275.302 41.47C274.834 41.998 274.3 42.424 273.7 42.748C273.1 43.06 272.356 43.216 271.468 43.216C270.832 43.216 270.232 43.102 269.668 42.874C269.104 42.634 268.612 42.304 268.192 41.884C267.772 41.452 267.436 40.936 267.184 40.336C266.944 39.736 266.824 39.076 266.824 38.356C266.824 37.684 266.932 37.054 267.148 36.466C267.376 35.866 267.688 35.35 268.084 34.918C268.48 34.474 268.948 34.126 269.488 33.874C270.04 33.622 270.64 33.496 271.288 33.496C271.972 33.496 272.584 33.628 273.124 33.892C273.664 34.144 274.12 34.492 274.492 34.936C274.864 35.38 275.146 35.902 275.338 36.502C275.53 37.102 275.626 37.744 275.626 38.428C275.626 38.488 275.626 38.554 275.626 38.626C275.626 38.698 275.62 38.776 275.608 38.86H268.228ZM268.228 37.834H274.222C274.186 37.414 274.096 37.012 273.952 36.628C273.82 36.244 273.628 35.908 273.376 35.62C273.136 35.332 272.836 35.104 272.476 34.936C272.128 34.756 271.72 34.666 271.252 34.666C270.844 34.666 270.466 34.75 270.118 34.918C269.77 35.074 269.464 35.296 269.2 35.584C268.936 35.86 268.72 36.19 268.552 36.574C268.384 36.958 268.276 37.378 268.228 37.834ZM285.068 31.66H283.484V30.13H285.068V31.66ZM284.96 43H283.574V33.694H284.96V43ZM289.563 37.672V43H288.177V33.694H289.563V35.314C289.875 34.81 290.283 34.384 290.787 34.036C291.291 33.676 291.945 33.496 292.749 33.496C293.313 33.496 293.811 33.586 294.243 33.766C294.687 33.946 295.059 34.204 295.359 34.54C295.671 34.864 295.905 35.254 296.061 35.71C296.229 36.166 296.313 36.67 296.313 37.222V43H294.927V37.564C294.927 36.7 294.705 36.016 294.261 35.512C293.817 35.008 293.181 34.756 292.353 34.756C291.957 34.756 291.585 34.828 291.237 34.972C290.901 35.104 290.607 35.302 290.355 35.566C290.103 35.818 289.905 36.124 289.761 36.484C289.629 36.844 289.563 37.24 289.563 37.672ZM315.195 30.4V37.618C315.195 38.542 315.069 39.352 314.817 40.048C314.565 40.744 314.205 41.326 313.737 41.794C313.281 42.262 312.729 42.616 312.081 42.856C311.445 43.084 310.731 43.198 309.939 43.198C309.159 43.198 308.445 43.084 307.797 42.856C307.161 42.616 306.609 42.268 306.141 41.812C305.685 41.344 305.331 40.768 305.079 40.084C304.827 39.4 304.701 38.614 304.701 37.726V30.4H306.123V37.636C306.123 39.004 306.459 40.054 307.131 40.786C307.815 41.518 308.763 41.884 309.975 41.884C311.139 41.884 312.063 41.536 312.747 40.84C313.431 40.144 313.773 39.106 313.773 37.726V30.4H315.195ZM319.655 33.55C319.655 33.85 319.703 34.12 319.799 34.36C319.895 34.6 320.069 34.822 320.321 35.026C320.573 35.218 320.921 35.398 321.365 35.566C321.809 35.722 322.379 35.872 323.075 36.016C324.479 36.328 325.511 36.76 326.171 37.312C326.843 37.864 327.179 38.626 327.179 39.598C327.179 40.138 327.071 40.63 326.855 41.074C326.639 41.518 326.339 41.896 325.955 42.208C325.583 42.52 325.133 42.76 324.605 42.928C324.077 43.096 323.501 43.18 322.877 43.18C321.869 43.18 320.945 43.018 320.105 42.694C319.277 42.358 318.485 41.848 317.729 41.164L318.611 40.12C319.271 40.72 319.937 41.17 320.609 41.47C321.281 41.758 322.055 41.902 322.931 41.902C323.783 41.902 324.461 41.704 324.965 41.308C325.481 40.912 325.739 40.39 325.739 39.742C325.739 39.442 325.691 39.178 325.595 38.95C325.499 38.71 325.331 38.494 325.091 38.302C324.851 38.11 324.515 37.936 324.083 37.78C323.663 37.624 323.123 37.474 322.463 37.33C321.743 37.174 321.113 36.994 320.573 36.79C320.045 36.586 319.607 36.34 319.259 36.052C318.911 35.764 318.653 35.428 318.485 35.044C318.317 34.66 318.233 34.204 318.233 33.676C318.233 33.172 318.335 32.71 318.539 32.29C318.743 31.87 319.031 31.51 319.403 31.21C319.775 30.898 320.213 30.658 320.717 30.49C321.221 30.31 321.773 30.22 322.373 30.22C323.297 30.22 324.101 30.352 324.785 30.616C325.481 30.868 326.153 31.252 326.801 31.768L325.973 32.866C325.385 32.386 324.791 32.038 324.191 31.822C323.603 31.606 322.985 31.498 322.337 31.498C321.929 31.498 321.557 31.552 321.221 31.66C320.897 31.768 320.615 31.912 320.375 32.092C320.147 32.272 319.967 32.488 319.835 32.74C319.715 32.992 319.655 33.262 319.655 33.55ZM341.141 36.682C341.141 37.57 340.979 38.404 340.655 39.184C340.331 39.952 339.869 40.618 339.269 41.182C338.681 41.746 337.973 42.19 337.145 42.514C336.329 42.838 335.429 43 334.445 43H330.071V30.4H334.445C335.429 30.4 336.329 30.562 337.145 30.886C337.973 31.198 338.681 31.636 339.269 32.2C339.869 32.764 340.331 33.43 340.655 34.198C340.979 34.966 341.141 35.794 341.141 36.682ZM339.665 36.718C339.665 36.022 339.539 35.368 339.287 34.756C339.047 34.144 338.699 33.616 338.243 33.172C337.799 32.716 337.253 32.362 336.605 32.11C335.957 31.846 335.237 31.714 334.445 31.714H331.493V41.686H334.445C335.237 41.686 335.957 41.56 336.605 41.308C337.253 41.056 337.799 40.708 338.243 40.264C338.699 39.808 339.047 39.28 339.287 38.68C339.539 38.08 339.665 37.426 339.665 36.718ZM342.832 31.048L343.426 30.13C345.034 31.03 346.264 32.122 347.116 33.406C347.98 34.69 348.412 36.166 348.412 37.834C348.412 39.502 347.98 40.978 347.116 42.262C346.264 43.546 345.034 44.638 343.426 45.538L342.832 44.62C344.212 43.744 345.25 42.76 345.946 41.668C346.654 40.564 347.008 39.286 347.008 37.834C347.008 36.382 346.654 35.11 345.946 34.018C345.25 32.914 344.212 31.924 342.832 31.048Z" fill="#717171"/>
</svg>
