<svg width="579" height="547" viewBox="0 0 579 547" fill="none" xmlns="http://www.w3.org/2000/svg">
<path opacity="0.5" d="M500.076 314.654L495.649 310.948L494.653 316.635L500.076 314.654ZM346.914 288.354L347.895 288.526L348.067 287.541L347.086 287.369L346.914 288.354ZM349.858 288.869L351.82 289.213L351.992 288.228L350.03 287.884L349.858 288.869ZM353.783 289.556L355.745 289.9L355.918 288.915L353.955 288.571L353.783 289.556ZM357.708 290.243L359.67 290.587L359.843 289.602L357.88 289.258L357.708 290.243ZM361.633 290.93L363.595 291.274L363.768 290.288L361.805 289.945L361.633 290.93ZM365.558 291.617L367.52 291.961L367.693 290.975L365.73 290.632L365.558 291.617ZM369.483 292.304L371.445 292.647L371.618 291.662L369.655 291.319L369.483 292.304ZM373.408 292.991L375.37 293.334L375.543 292.349L373.58 292.006L373.408 292.991ZM377.333 293.678L379.295 294.021L379.468 293.036L377.505 292.693L377.333 293.678ZM381.258 294.365L383.22 294.708L383.393 293.723L381.43 293.38L381.258 294.365ZM385.183 295.052L387.145 295.395L387.318 294.41L385.355 294.067L385.183 295.052ZM389.108 295.739L391.07 296.082L391.243 295.097L389.28 294.754L389.108 295.739ZM393.033 296.426L394.995 296.769L395.168 295.784L393.205 295.441L393.033 296.426ZM396.958 297.113L398.92 297.456L399.093 296.471L397.13 296.128L396.958 297.113ZM400.883 297.8L402.845 298.143L403.018 297.158L401.055 296.815L400.883 297.8ZM404.808 298.487L406.771 298.83L406.943 297.845L404.98 297.502L404.808 298.487ZM408.733 299.174L410.696 299.517L410.868 298.532L408.905 298.189L408.733 299.174ZM412.658 299.861L414.621 300.204L414.793 299.219L412.83 298.876L412.658 299.861ZM416.583 300.548L418.546 300.891L418.718 299.906L416.755 299.563L416.583 300.548ZM420.508 301.235L422.471 301.578L422.643 300.593L420.681 300.25L420.508 301.235ZM424.433 301.922L426.396 302.265L426.568 301.28L424.606 300.937L424.433 301.922ZM428.358 302.609L430.321 302.952L430.493 301.967L428.531 301.624L428.358 302.609ZM432.283 303.296L434.246 303.639L434.418 302.654L432.456 302.311L432.283 303.296ZM436.208 303.983L438.171 304.326L438.343 303.341L436.381 302.998L436.208 303.983ZM440.133 304.67L442.096 305.013L442.268 304.028L440.306 303.685L440.133 304.67ZM444.058 305.357L446.021 305.7L446.193 304.715L444.231 304.372L444.058 305.357ZM447.983 306.044L449.946 306.387L450.118 305.402L448.156 305.059L447.983 306.044ZM451.908 306.731L453.871 307.074L454.043 306.089L452.081 305.746L451.908 306.731ZM455.833 307.418L457.796 307.761L457.968 306.776L456.006 306.433L455.833 307.418ZM459.758 308.105L461.721 308.448L461.893 307.463L459.931 307.12L459.758 308.105ZM463.683 308.792L465.646 309.135L465.818 308.15L463.856 307.807L463.683 308.792ZM467.608 309.479L469.571 309.822L469.743 308.837L467.781 308.494L467.608 309.479ZM471.533 310.166L473.496 310.509L473.668 309.524L471.706 309.181L471.533 310.166ZM475.459 310.853L477.421 311.196L477.593 310.211L475.631 309.868L475.459 310.853ZM479.384 311.54L481.346 311.883L481.519 310.898L479.556 310.555L479.384 311.54ZM483.309 312.227L485.271 312.57L485.444 311.585L483.481 311.242L483.309 312.227ZM487.234 312.914L489.196 313.257L489.369 312.272L487.406 311.928L487.234 312.914ZM491.159 313.601L493.121 313.944L493.294 312.959L491.331 312.615L491.159 313.601ZM495.084 314.287L497.046 314.631L497.219 313.646L495.256 313.302L495.084 314.287Z" fill="#151515"/>
<path opacity="0.5" d="M225.93 76.3529L224.549 81.9587L230.095 80.352L225.93 76.3529ZM269.658 225.478L269.381 224.521L268.42 224.8L268.697 225.756L269.658 225.478ZM268.826 222.608L268.272 220.694L267.311 220.972L267.866 222.886L268.826 222.608ZM267.717 218.78L267.163 216.867L266.202 217.145L266.757 219.059L267.717 218.78ZM266.608 214.953L266.054 213.039L265.094 213.318L265.648 215.231L266.608 214.953ZM265.5 211.126L264.945 209.212L263.985 209.49L264.539 211.404L265.5 211.126ZM264.391 207.298L263.836 205.385L262.876 205.663L263.43 207.577L264.391 207.298ZM263.282 203.471L262.727 201.557L261.767 201.836L262.321 203.749L263.282 203.471ZM262.173 199.644L261.618 197.73L260.658 198.008L261.212 199.922L262.173 199.644ZM261.064 195.817L260.51 193.903L259.549 194.181L260.103 196.095L261.064 195.817ZM259.955 191.989L259.401 190.076L258.44 190.354L258.995 192.268L259.955 191.989ZM258.846 188.162L258.292 186.248L257.331 186.527L257.886 188.44L258.846 188.162ZM257.737 184.335L257.183 182.421L256.222 182.699L256.777 184.613L257.737 184.335ZM256.628 180.507L256.074 178.594L255.113 178.872L255.668 180.786L256.628 180.507ZM255.519 176.68L254.965 174.766L254.005 175.045L254.559 176.958L255.519 176.68ZM254.411 172.853L253.856 170.939L252.896 171.217L253.45 173.131L254.411 172.853ZM253.302 169.026L252.747 167.112L251.787 167.39L252.341 169.304L253.302 169.026ZM252.193 165.198L251.638 163.285L250.678 163.563L251.232 165.477L252.193 165.198ZM251.084 161.371L250.529 159.457L249.569 159.736L250.123 161.649L251.084 161.371ZM249.975 157.544L249.42 155.63L248.46 155.908L249.014 157.822L249.975 157.544ZM248.866 153.716L248.312 151.803L247.351 152.081L247.906 153.995L248.866 153.716ZM247.757 149.889L247.203 147.975L246.242 148.254L246.797 150.167L247.757 149.889ZM246.648 146.062L246.094 144.148L245.133 144.426L245.688 146.34L246.648 146.062ZM245.539 142.235L244.985 140.321L244.024 140.599L244.579 142.513L245.539 142.235ZM244.43 138.407L243.876 136.494L242.915 136.772L243.47 138.686L244.43 138.407ZM243.322 134.58L242.767 132.666L241.807 132.945L242.361 134.858L243.322 134.58ZM242.213 130.753L241.658 128.839L240.698 129.117L241.252 131.031L242.213 130.753ZM241.104 126.925L240.549 125.012L239.589 125.29L240.143 127.204L241.104 126.925ZM239.995 123.098L239.44 121.184L238.48 121.463L239.034 123.376L239.995 123.098ZM238.886 119.271L238.331 117.357L237.371 117.635L237.925 119.549L238.886 119.271ZM237.777 115.443L237.223 113.53L236.262 113.808L236.817 115.722L237.777 115.443ZM236.668 111.616L236.114 109.703L235.153 109.981L235.708 111.894L236.668 111.616ZM235.559 107.789L235.005 105.875L234.044 106.154L234.599 108.067L235.559 107.789ZM234.45 103.962L233.896 102.048L232.935 102.326L233.49 104.24L234.45 103.962ZM233.341 100.134L232.787 98.2207L231.826 98.499L232.381 100.413L233.341 100.134ZM232.232 96.307L231.678 94.3934L230.718 94.6717L231.272 96.5853L232.232 96.307ZM231.124 92.4797L230.569 90.5661L229.609 90.8444L230.163 92.758L231.124 92.4797ZM230.015 88.6524L229.46 86.7388L228.5 87.0171L229.054 88.9307L230.015 88.6524ZM228.906 84.8251L228.351 82.9115L227.391 83.1898L227.945 85.1034L228.906 84.8251ZM227.797 80.9978L227.242 79.0842L226.282 79.3625L226.836 81.2761L227.797 80.9978Z" fill="#151515"/>
<path opacity="0.5" d="M111.308 29.8924L111.688 35.6534L116.487 32.444L111.308 29.8924ZM282.265 284.636L281.712 283.808L280.88 284.364L281.434 285.192L282.265 284.636ZM280.604 282.152L279.497 280.496L278.665 281.052L279.773 282.708L280.604 282.152ZM278.389 278.84L277.282 277.184L276.451 277.74L277.558 279.396L278.389 278.84ZM276.174 275.528L275.067 273.872L274.236 274.428L275.343 276.084L276.174 275.528ZM273.96 272.216L272.852 270.56L272.021 271.116L273.128 272.772L273.96 272.216ZM271.745 268.904L270.637 267.248L269.806 267.804L270.914 269.46L271.745 268.904ZM269.53 265.592L268.423 263.936L267.591 264.492L268.699 266.148L269.53 265.592ZM267.315 262.28L266.208 260.624L265.376 261.18L266.484 262.836L267.315 262.28ZM265.1 258.968L263.993 257.312L263.162 257.868L264.269 259.524L265.1 258.968ZM262.885 255.656L261.778 254L260.947 254.556L262.054 256.212L262.885 255.656ZM260.671 252.344L259.563 250.688L258.732 251.244L259.839 252.9L260.671 252.344ZM258.456 249.032L257.348 247.376L256.517 247.932L257.625 249.588L258.456 249.032ZM256.241 245.72L255.134 244.065L254.302 244.62L255.41 246.276L256.241 245.72ZM254.026 242.409L252.919 240.753L252.088 241.308L253.195 242.964L254.026 242.409ZM251.811 239.097L250.704 237.441L249.873 237.996L250.98 239.652L251.811 239.097ZM249.597 235.785L248.489 234.129L247.658 234.684L248.765 236.34L249.597 235.785ZM247.382 232.473L246.274 230.817L245.443 231.373L246.55 233.029L247.382 232.473ZM245.167 229.161L244.059 227.505L243.228 228.061L244.336 229.717L245.167 229.161ZM242.952 225.849L241.845 224.193L241.013 224.749L242.121 226.405L242.952 225.849ZM240.737 222.537L239.63 220.881L238.799 221.437L239.906 223.093L240.737 222.537ZM238.522 219.225L237.415 217.569L236.584 218.125L237.691 219.781L238.522 219.225ZM236.308 215.913L235.2 214.257L234.369 214.813L235.476 216.469L236.308 215.913ZM234.093 212.601L232.985 210.945L232.154 211.501L233.261 213.157L234.093 212.601ZM231.878 209.289L230.77 207.633L229.939 208.189L231.047 209.845L231.878 209.289ZM229.663 205.977L228.556 204.321L227.724 204.877L228.832 206.533L229.663 205.977ZM227.448 202.665L226.341 201.009L225.51 201.565L226.617 203.221L227.448 202.665ZM225.233 199.353L224.126 197.697L223.295 198.253L224.402 199.909L225.233 199.353ZM223.019 196.041L221.911 194.385L221.08 194.941L222.187 196.597L223.019 196.041ZM220.804 192.729L219.696 191.073L218.865 191.629L219.973 193.285L220.804 192.729ZM218.589 189.417L217.482 187.761L216.65 188.317L217.758 189.973L218.589 189.417ZM216.374 186.105L215.267 184.449L214.435 185.005L215.543 186.661L216.374 186.105ZM214.159 182.793L213.052 181.137L212.221 181.693L213.328 183.349L214.159 182.793ZM211.944 179.481L210.837 177.825L210.006 178.381L211.113 180.037L211.944 179.481ZM209.73 176.169L208.622 174.513L207.791 175.069L208.898 176.725L209.73 176.169ZM207.515 172.857L206.407 171.201L205.576 171.757L206.684 173.413L207.515 172.857ZM205.3 169.545L204.193 167.889L203.361 168.445L204.469 170.101L205.3 169.545ZM203.085 166.233L201.978 164.577L201.146 165.133L202.254 166.789L203.085 166.233ZM200.87 162.921L199.763 161.265L198.932 161.821L200.039 163.477L200.87 162.921ZM198.656 159.609L197.548 157.953L196.717 158.509L197.824 160.165L198.656 159.609ZM196.441 156.297L195.333 154.641L194.502 155.197L195.609 156.853L196.441 156.297ZM194.226 152.985L193.118 151.329L192.287 151.885L193.395 153.541L194.226 152.985ZM192.011 149.673L190.904 148.017L190.072 148.573L191.18 150.229L192.011 149.673ZM189.796 146.361L188.689 144.705L187.858 145.261L188.965 146.917L189.796 146.361ZM187.581 143.049L186.474 141.394L185.643 141.949L186.75 143.605L187.581 143.049ZM185.367 139.738L184.259 138.082L183.428 138.637L184.535 140.293L185.367 139.738ZM183.152 136.426L182.044 134.77L181.213 135.325L182.321 136.981L183.152 136.426ZM180.937 133.114L179.83 131.458L178.998 132.014L180.106 133.67L180.937 133.114ZM178.722 129.802L177.615 128.146L176.783 128.702L177.891 130.358L178.722 129.802ZM176.507 126.49L175.4 124.834L174.569 125.39L175.676 127.046L176.507 126.49ZM174.292 123.178L173.185 121.522L172.354 122.078L173.461 123.734L174.292 123.178ZM172.078 119.866L170.97 118.21L170.139 118.766L171.246 120.422L172.078 119.866ZM169.863 116.554L168.755 114.898L167.924 115.454L169.032 117.11L169.863 116.554ZM167.648 113.242L166.541 111.586L165.709 112.142L166.817 113.798L167.648 113.242ZM165.433 109.93L164.326 108.274L163.495 108.83L164.602 110.486L165.433 109.93ZM163.218 106.618L162.111 104.962L161.28 105.518L162.387 107.174L163.218 106.618ZM161.004 103.306L159.896 101.65L159.065 102.206L160.172 103.862L161.004 103.306ZM158.789 99.994L157.681 98.338L156.85 98.8939L157.957 100.55L158.789 99.994ZM156.574 96.682L155.466 95.0261L154.635 95.582L155.743 97.2379L156.574 96.682ZM154.359 93.3701L153.252 91.7141L152.42 92.27L153.528 93.926L154.359 93.3701ZM152.144 90.0581L151.037 88.4022L150.206 88.958L151.313 90.614L152.144 90.0581ZM149.929 86.7462L148.822 85.0902L147.991 85.6461L149.098 87.3021L149.929 86.7462ZM147.715 83.4342L146.607 81.7782L145.776 82.3341L146.883 83.9901L147.715 83.4342ZM145.5 80.1222L144.392 78.4663L143.561 79.0222L144.669 80.6781L145.5 80.1222ZM143.285 76.8103L142.178 75.1543L141.346 75.7102L142.454 77.3662L143.285 76.8103ZM141.07 73.4983L139.963 71.8423L139.131 72.3982L140.239 74.0542L141.07 73.4983ZM138.855 70.1863L137.748 68.5304L136.917 69.0863L138.024 70.7422L138.855 70.1863ZM136.64 66.8744L135.533 65.2184L134.702 65.7743L135.809 67.4303L136.64 66.8744ZM134.426 63.5624L133.318 61.9064L132.487 62.4623L133.594 64.1183L134.426 63.5624ZM132.211 60.2504L131.103 58.5944L130.272 59.1503L131.38 60.8063L132.211 60.2504ZM129.996 56.9384L128.889 55.2824L128.057 55.8383L129.165 57.4943L129.996 56.9384ZM127.781 53.6264L126.674 51.9704L125.842 52.5263L126.95 54.1823L127.781 53.6264ZM125.566 50.3144L124.459 48.6584L123.628 49.2143L124.735 50.8703L125.566 50.3144ZM123.351 47.0024L122.244 45.3465L121.413 45.9024L122.52 47.5583L123.351 47.0024ZM121.137 43.6905L120.029 42.0345L119.198 42.5904L120.305 44.2464L121.137 43.6905ZM118.922 40.3785L117.814 38.7225L116.983 39.2784L118.091 40.9344L118.922 40.3785ZM116.707 37.0665L115.6 35.4105L114.768 35.9664L115.876 37.6224L116.707 37.0665ZM114.492 33.7545L113.385 32.0985L112.553 32.6544L113.661 34.3104L114.492 33.7545Z" fill="#151515"/>
<path opacity="0.5" d="M102.988 72.9023L106.128 77.7472L108.754 72.6053L102.988 72.9023ZM154.046 103.011L154.463 102.735L154.046 103.011ZM143.457 93.5671L143.684 93.1218L143.457 93.5671ZM242.405 235.126L241.855 234.298L241.022 234.852L241.572 235.679L242.405 235.126ZM240.756 232.643L239.657 230.988L238.824 231.542L239.923 233.197L240.756 232.643ZM238.557 229.334L237.458 227.679L236.625 228.232L237.724 229.887L238.557 229.334ZM236.359 226.024L235.259 224.369L234.427 224.922L235.526 226.577L236.359 226.024ZM234.16 222.714L233.061 221.059L232.228 221.612L233.327 223.267L234.16 222.714ZM231.962 219.404L230.862 217.749L230.029 218.303L231.129 219.958L231.962 219.404ZM229.763 216.094L228.664 214.44L227.831 214.993L228.93 216.648L229.763 216.094ZM227.565 212.785L226.465 211.13L225.632 211.683L226.732 213.338L227.565 212.785ZM225.366 209.475L224.267 207.82L223.434 208.373L224.533 210.028L225.366 209.475ZM223.167 206.165L222.068 204.51L221.235 205.064L222.334 206.718L223.167 206.165ZM220.969 202.855L219.87 201.2L219.037 201.754L220.136 203.409L220.969 202.855ZM218.77 199.546L217.671 197.891L216.838 198.444L217.937 200.099L218.77 199.546ZM216.572 196.236L215.473 194.581L214.64 195.134L215.739 196.789L216.572 196.236ZM214.373 192.926L213.274 191.271L212.441 191.824L213.54 193.479L214.373 192.926ZM212.175 189.616L211.075 187.961L210.242 188.515L211.342 190.17L212.175 189.616ZM209.976 186.306L208.877 184.652L208.044 185.205L209.143 186.86L209.976 186.306ZM207.778 182.997L206.678 181.342L205.845 181.895L206.945 183.55L207.778 182.997ZM205.579 179.687L204.48 178.032L203.647 178.585L204.746 180.24L205.579 179.687ZM203.38 176.377L202.281 174.722L201.448 175.276L202.548 176.93L203.38 176.377ZM201.182 173.067L200.083 171.412L199.25 171.966L200.349 173.621L201.182 173.067ZM198.983 169.758L197.884 168.103L197.051 168.656L198.15 170.311L198.983 169.758ZM196.785 166.448L195.686 164.793L194.853 165.346L195.952 167.001L196.785 166.448ZM194.586 163.138L193.487 161.483L192.654 162.036L193.753 163.691L194.586 163.138ZM192.388 159.828L191.288 158.173L190.455 158.727L191.555 160.382L192.388 159.828ZM190.189 156.518L189.09 154.864L188.257 155.417L189.356 157.072L190.189 156.518ZM187.991 153.209L186.891 151.554L186.058 152.107L187.158 153.762L187.991 153.209ZM185.792 149.899L184.693 148.244L183.86 148.797L184.959 150.452L185.792 149.899ZM183.593 146.589L182.494 144.934L181.661 145.488L182.76 147.142L183.593 146.589ZM181.395 143.279L180.296 141.624L179.463 142.178L180.562 143.833L181.395 143.279ZM179.196 139.97L178.097 138.315L177.264 138.868L178.363 140.523L179.196 139.97ZM176.998 136.66L175.899 135.005L175.066 135.558L176.165 137.213L176.998 136.66ZM174.799 133.35L173.7 131.695L172.867 132.248L173.966 133.903L174.799 133.35ZM172.601 130.04L171.501 128.385L170.668 128.939L171.768 130.594L172.601 130.04ZM170.402 126.73L169.303 125.076L168.47 125.629L169.569 127.284L170.402 126.73ZM168.204 123.421L167.104 121.766L166.271 122.319L167.371 123.974L168.204 123.421ZM166.005 120.111L164.906 118.456L164.073 119.009L165.172 120.664L166.005 120.111ZM163.806 116.801L162.707 115.146L161.874 115.7L162.974 117.354L163.806 116.801ZM161.608 113.491L160.509 111.836L159.676 112.39L160.775 114.045L161.608 113.491ZM159.409 110.182L158.31 108.527L157.477 109.08L158.576 110.735L159.409 110.182ZM157.211 106.872L156.112 105.217L155.279 105.77L156.378 107.425L157.211 106.872ZM155.012 103.562L154.463 102.735L153.63 103.288L154.179 104.115L155.012 103.562ZM154.463 102.735C154.294 102.481 154.122 102.23 153.946 101.983L153.131 102.562C153.301 102.801 153.467 103.043 153.63 103.288L154.463 102.735ZM152.841 100.53C152.457 100.058 152.058 99.5979 151.645 99.1516L150.911 99.8307C151.309 100.261 151.694 100.705 152.065 101.161L152.841 100.53ZM150.364 97.8523C149.923 97.433 149.469 97.0279 149.002 96.6377L148.36 97.4049C148.811 97.7815 149.249 98.1723 149.675 98.577L150.364 97.8523ZM147.565 95.5127C147.074 95.1535 146.572 94.8097 146.059 94.482L145.521 95.3248C146.016 95.6411 146.501 95.9728 146.974 96.3194L147.565 95.5127ZM144.49 93.5497C144.224 93.4029 143.955 93.2602 143.684 93.1218L143.229 94.0124C143.491 94.146 143.75 94.2837 144.007 94.4253L144.49 93.5497ZM143.684 93.1218L142.764 92.6521L142.31 93.5427L143.229 94.0124L143.684 93.1218ZM140.925 91.7128L139.085 90.7735L138.631 91.6641L140.47 92.6034L140.925 91.7128ZM137.246 89.8342L135.406 88.8949L134.952 89.7855L136.791 90.7248L137.246 89.8342ZM133.567 87.9556L131.727 87.0163L131.273 87.9069L133.112 88.8462L133.567 87.9556ZM129.888 86.077L128.049 85.1377L127.594 86.0283L129.433 86.9676L129.888 86.077ZM126.209 84.1984L124.37 83.259L123.915 84.1497L125.754 85.089L126.209 84.1984ZM122.53 82.3197L120.691 81.3804L120.236 82.271L122.075 83.2103L122.53 82.3197ZM118.851 80.4411L117.012 79.5018L116.557 80.3924L118.396 81.3317L118.851 80.4411ZM115.172 78.5625L113.333 77.6232L112.878 78.5138L114.717 79.4531L115.172 78.5625ZM111.493 76.6839L109.654 75.7446L109.199 76.6352L111.039 77.5745L111.493 76.6839ZM107.814 74.8053L105.975 73.866L105.52 74.7566L107.36 75.6959L107.814 74.8053Z" fill="#151515"/>
<path opacity="0.5" d="M206.633 517.301L206.633 511.527L201.633 514.414L206.633 517.301ZM191.438 467.893L191.895 468.097L191.438 467.893ZM192.768 493.285L193.201 493.035L192.768 493.285ZM272.535 284.572L272.128 285.488L273.041 285.894L273.449 284.979L272.535 284.572ZM271.312 287.319L270.497 289.15L271.41 289.557L272.226 287.726L271.312 287.319ZM269.681 290.981L268.866 292.812L269.779 293.219L270.595 291.388L269.681 290.981ZM268.05 294.643L267.234 296.475L268.148 296.881L268.963 295.05L268.05 294.643ZM266.419 298.306L265.603 300.137L266.517 300.544L267.332 298.713L266.419 298.306ZM264.788 301.968L263.972 303.799L264.886 304.206L265.701 302.375L264.788 301.968ZM263.157 305.631L262.341 307.462L263.255 307.869L264.07 306.037L263.157 305.631ZM261.526 309.293L260.71 311.124L261.624 311.531L262.439 309.7L261.526 309.293ZM259.895 312.955L259.079 314.786L259.993 315.193L260.808 313.362L259.895 312.955ZM258.264 316.618L257.448 318.449L258.361 318.856L259.177 317.024L258.264 316.618ZM256.632 320.28L255.817 322.111L256.73 322.518L257.546 320.687L256.632 320.28ZM255.001 323.942L254.186 325.773L255.099 326.18L255.915 324.349L255.001 323.942ZM253.37 327.605L252.555 329.436L253.468 329.843L254.284 328.011L253.37 327.605ZM251.739 331.267L250.924 333.098L251.837 333.505L252.653 331.674L251.739 331.267ZM250.108 334.929L249.293 336.761L250.206 337.167L251.022 335.336L250.108 334.929ZM248.477 338.592L247.662 340.423L248.575 340.83L249.391 338.999L248.477 338.592ZM246.846 342.254L246.03 344.085L246.944 344.492L247.759 342.661L246.846 342.254ZM245.215 345.916L244.399 347.748L245.313 348.154L246.128 346.323L245.215 345.916ZM243.584 349.579L242.768 351.41L243.682 351.817L244.497 349.986L243.584 349.579ZM241.953 353.241L241.137 355.072L242.051 355.479L242.866 353.648L241.953 353.241ZM240.322 356.904L239.506 358.735L240.42 359.142L241.235 357.31L240.322 356.904ZM238.691 360.566L237.875 362.397L238.789 362.804L239.604 360.973L238.691 360.566ZM237.059 364.228L236.244 366.059L237.157 366.466L237.973 364.635L237.059 364.228ZM235.428 367.891L234.613 369.722L235.526 370.129L236.342 368.297L235.428 367.891ZM233.797 371.553L232.982 373.384L233.895 373.791L234.711 371.96L233.797 371.553ZM232.166 375.215L231.351 377.047L232.264 377.453L233.08 375.622L232.166 375.215ZM230.535 378.878L229.72 380.709L230.633 381.116L231.449 379.285L230.535 378.878ZM228.904 382.54L228.089 384.371L229.002 384.778L229.818 382.947L228.904 382.54ZM227.273 386.202L226.457 388.034L227.371 388.44L228.186 386.609L227.273 386.202ZM225.642 389.865L224.826 391.696L225.74 392.103L226.555 390.272L225.642 389.865ZM224.011 393.527L223.195 395.358L224.109 395.765L224.924 393.934L224.011 393.527ZM222.38 397.19L221.564 399.021L222.478 399.428L223.293 397.596L222.38 397.19ZM220.749 400.852L219.933 402.683L220.847 403.09L221.662 401.259L220.749 400.852ZM219.118 404.514L218.302 406.345L219.216 406.752L220.031 404.921L219.118 404.514ZM217.487 408.177L216.671 410.008L217.584 410.415L218.4 408.583L217.487 408.177ZM215.855 411.839L215.04 413.67L215.953 414.077L216.769 412.246L215.855 411.839ZM214.224 415.501L213.409 417.333L214.322 417.739L215.138 415.908L214.224 415.501ZM212.593 419.164L211.778 420.995L212.691 421.402L213.507 419.571L212.593 419.164ZM210.962 422.826L210.147 424.657L211.06 425.064L211.876 423.233L210.962 422.826ZM209.331 426.488L208.516 428.32L209.429 428.726L210.245 426.895L209.331 426.488ZM207.7 430.151L206.884 431.982L207.798 432.389L208.614 430.558L207.7 430.151ZM206.069 433.813L205.253 435.644L206.167 436.051L206.982 434.22L206.069 433.813ZM204.438 437.476L203.622 439.307L204.536 439.714L205.351 437.882L204.438 437.476ZM202.807 441.138L201.991 442.969L202.905 443.376L203.72 441.545L202.807 441.138ZM201.176 444.8L200.36 446.631L201.274 447.038L202.089 445.207L201.176 444.8ZM199.545 448.463L198.729 450.294L199.643 450.701L200.458 448.869L199.545 448.463ZM197.914 452.125L197.098 453.956L198.012 454.363L198.827 452.532L197.914 452.125ZM196.282 455.787L195.467 457.619L196.38 458.025L197.196 456.194L196.282 455.787ZM194.651 459.45L193.836 461.281L194.749 461.688L195.565 459.857L194.651 459.45ZM193.02 463.112L192.205 464.943L193.118 465.35L193.934 463.519L193.02 463.112ZM191.389 466.774L190.982 467.69L191.895 468.097L192.303 467.181L191.389 466.774ZM190.982 467.69C190.851 467.983 190.726 468.277 190.606 468.573L191.533 468.949C191.648 468.663 191.769 468.379 191.895 468.097L190.982 467.69ZM189.945 470.374C189.744 470.983 189.565 471.597 189.407 472.215L190.375 472.463C190.528 471.867 190.701 471.275 190.895 470.687L189.945 470.374ZM188.994 474.089C188.877 474.719 188.782 475.351 188.708 475.986L189.701 476.101C189.772 475.489 189.864 474.879 189.977 474.271L188.994 474.089ZM188.55 477.898C188.519 478.537 188.509 479.177 188.521 479.816L189.521 479.797C189.51 479.18 189.519 478.563 189.549 477.946L188.55 477.898ZM188.622 481.732C188.676 482.369 188.753 483.004 188.85 483.636L189.839 483.484C189.744 482.874 189.671 482.261 189.618 481.646L188.622 481.732ZM189.207 485.522C189.347 486.145 189.507 486.764 189.689 487.378L190.648 487.094C190.473 486.502 190.317 485.904 190.183 485.303L189.207 485.522ZM190.296 489.198C190.518 489.796 190.76 490.389 191.023 490.974L191.935 490.563C191.681 489.999 191.447 489.428 191.233 488.851L190.296 489.198ZM191.869 492.696C192.019 492.977 192.174 493.257 192.335 493.535L193.201 493.035C193.046 492.767 192.896 492.497 192.751 492.225L191.869 492.696ZM192.335 493.535L192.83 494.392L193.696 493.892L193.201 493.035L192.335 493.535ZM193.82 496.108L194.811 497.823L195.677 497.323L194.686 495.608L193.82 496.108ZM195.801 499.539L196.791 501.254L197.657 500.754L196.667 499.039L195.801 499.539ZM197.782 502.97L198.772 504.685L199.638 504.185L198.648 502.47L197.782 502.97ZM199.763 506.4L200.753 508.116L201.619 507.616L200.629 505.9L199.763 506.4ZM201.743 509.831L202.734 511.547L203.6 511.047L202.609 509.331L201.743 509.831ZM203.724 513.262L204.715 514.978L205.581 514.478L204.59 512.762L203.724 513.262Z" fill="#151515"/>
<path opacity="0.5" d="M165 36.8523L167.36 42.1213L161.617 41.5309L165 36.8523ZM164.634 98.52L164.211 98.7861L164.634 98.52ZM160.487 80.7555L160.984 80.8067L160.487 80.7555ZM256.34 245.352L255.805 244.5L256.651 243.968L257.187 244.82L256.34 245.352ZM254.733 242.796L253.662 241.091L254.509 240.559L255.58 242.263L254.733 242.796ZM252.591 239.387L251.52 237.683L252.366 237.151L253.438 238.855L252.591 239.387ZM250.448 235.979L249.377 234.274L250.224 233.742L251.295 235.446L250.448 235.979ZM248.306 232.57L247.235 230.866L248.081 230.334L249.152 232.038L248.306 232.57ZM246.163 229.162L245.092 227.457L245.939 226.925L247.01 228.629L246.163 229.162ZM244.021 225.753L242.949 224.049L243.796 223.517L244.867 225.221L244.021 225.753ZM241.878 222.345L240.807 220.64L241.654 220.108L242.725 221.812L241.878 222.345ZM239.736 218.936L238.664 217.232L239.511 216.7L240.582 218.404L239.736 218.936ZM237.593 215.528L236.522 213.823L237.368 213.291L238.44 214.995L237.593 215.528ZM235.451 212.119L234.379 210.415L235.226 209.883L236.297 211.587L235.451 212.119ZM233.308 208.711L232.237 207.006L233.083 206.474L234.155 208.178L233.308 208.711ZM231.165 205.302L230.094 203.598L230.941 203.066L232.012 204.77L231.165 205.302ZM229.023 201.894L227.952 200.189L228.798 199.657L229.87 201.361L229.023 201.894ZM226.88 198.485L225.809 196.781L226.656 196.249L227.727 197.953L226.88 198.485ZM224.738 195.077L223.667 193.372L224.513 192.84L225.584 194.544L224.738 195.077ZM222.595 191.668L221.524 189.964L222.371 189.432L223.442 191.136L222.595 191.668ZM220.453 188.26L219.381 186.555L220.228 186.023L221.299 187.727L220.453 188.26ZM218.31 184.851L217.239 183.147L218.086 182.615L219.157 184.319L218.31 184.851ZM216.168 181.442L215.096 179.738L215.943 179.206L217.014 180.91L216.168 181.442ZM214.025 178.034L212.954 176.33L213.8 175.798L214.872 177.502L214.025 178.034ZM211.883 174.625L210.811 172.921L211.658 172.389L212.729 174.093L211.883 174.625ZM209.74 171.217L208.669 169.513L209.515 168.981L210.587 170.685L209.74 171.217ZM207.597 167.808L206.526 166.104L207.373 165.572L208.444 167.276L207.597 167.808ZM205.455 164.4L204.384 162.696L205.23 162.164L206.301 163.868L205.455 164.4ZM203.312 160.991L202.241 159.287L203.088 158.755L204.159 160.459L203.312 160.991ZM201.17 157.583L200.098 155.879L200.945 155.346L202.016 157.051L201.17 157.583ZM199.027 154.174L197.956 152.47L198.803 151.938L199.874 153.642L199.027 154.174ZM196.885 150.766L195.813 149.062L196.66 148.529L197.731 150.234L196.885 150.766ZM194.742 147.357L193.671 145.653L194.517 145.121L195.589 146.825L194.742 147.357ZM192.6 143.949L191.528 142.245L192.375 141.712L193.446 143.417L192.6 143.949ZM190.457 140.54L189.386 138.836L190.232 138.304L191.304 140.008L190.457 140.54ZM188.314 137.132L187.243 135.428L188.09 134.895L189.161 136.6L188.314 137.132ZM186.172 133.723L185.101 132.019L185.947 131.487L187.019 133.191L186.172 133.723ZM184.029 130.315L182.958 128.611L183.805 128.078L184.876 129.783L184.029 130.315ZM181.887 126.906L180.816 125.202L181.662 124.67L182.733 126.374L181.887 126.906ZM179.744 123.498L178.673 121.794L179.52 121.261L180.591 122.966L179.744 123.498ZM177.602 120.089L176.53 118.385L177.377 117.853L178.448 119.557L177.602 120.089ZM175.459 116.681L174.388 114.977L175.235 114.444L176.306 116.149L175.459 116.681ZM173.317 113.272L172.245 111.568L173.092 111.036L174.163 112.74L173.317 113.272ZM171.174 109.864L170.103 108.16L170.949 107.627L172.021 109.332L171.174 109.864ZM169.032 106.455L167.96 104.751L168.807 104.219L169.878 105.923L169.032 106.455ZM166.889 103.047L165.818 101.343L166.664 100.81L167.736 102.515L166.889 103.047ZM164.746 99.6383L164.211 98.7861L165.057 98.2539L165.593 99.1061L164.746 99.6383ZM164.211 98.7861C164.043 98.5188 163.879 98.2492 163.721 97.9772L164.585 97.4734C164.738 97.7358 164.895 97.996 165.057 98.2539L164.211 98.7861ZM162.823 96.3131C162.542 95.7477 162.28 95.174 162.037 94.5931L162.96 94.208C163.194 94.7686 163.447 95.3221 163.718 95.8677L162.823 96.3131ZM161.367 92.8247C161.164 92.2277 160.98 91.6244 160.816 91.0158L161.782 90.7563C161.94 91.3435 162.117 91.9257 162.314 92.5017L161.367 92.8247ZM160.386 89.1744C160.264 88.5564 160.161 87.9341 160.08 87.3085L161.071 87.1791C161.15 87.7826 161.249 88.3831 161.367 88.9795L160.386 89.1744ZM159.897 85.4264C159.857 84.7982 159.838 84.1678 159.84 83.5363L160.84 83.5392C160.838 84.1486 160.857 84.7568 160.895 85.363L159.897 85.4264ZM159.908 81.6466C159.93 81.3326 159.957 81.0184 159.989 80.7044L160.984 80.8067C160.953 81.1097 160.927 81.4128 160.906 81.7159L159.908 81.6466ZM159.989 80.7044L160.092 79.7066L161.087 79.8089L160.984 80.8067L159.989 80.7044ZM160.297 77.711L160.502 75.7154L161.497 75.8177L161.292 77.8133L160.297 77.711ZM160.707 73.7198L160.912 71.7242L161.907 71.8265L161.702 73.8221L160.707 73.7198ZM161.118 69.7286L161.323 67.733L162.317 67.8353L162.112 69.8309L161.118 69.7286ZM161.528 65.7374L161.733 63.7418L162.728 63.8441L162.523 65.8397L161.528 65.7374ZM161.938 61.7462L162.143 59.7506L163.138 59.8529L162.933 61.8485L161.938 61.7462ZM162.348 57.755L162.554 55.7594L163.548 55.8617L163.343 57.8573L162.348 57.755ZM162.759 53.7638L162.964 51.7682L163.959 51.8704L163.754 53.866L162.759 53.7638ZM163.169 49.7726L163.374 47.777L164.369 47.8792L164.164 49.8748L163.169 49.7726ZM163.579 45.7814L163.785 43.7858L164.779 43.888L164.574 45.8836L163.579 45.7814ZM163.99 41.7902L164.195 39.7946L165.19 39.8968L164.984 41.8924L163.99 41.7902Z" fill="#151515"/>
<path opacity="0.5" d="M145 485.852L149.306 482.006L150.484 487.658L145 485.852ZM187.178 466.857L186.737 466.62L187.178 466.857ZM168.225 481.013L168.123 480.524L168.225 481.013ZM290.54 275.588L290.064 276.475L289.183 276.001L289.659 275.115L290.54 275.588ZM289.111 278.248L288.158 280.021L287.277 279.548L288.23 277.775L289.111 278.248ZM287.205 281.794L286.252 283.568L285.371 283.094L286.324 281.321L287.205 281.794ZM285.299 285.341L284.346 287.114L283.465 286.641L284.418 284.867L285.299 285.341ZM283.393 288.887L282.44 290.66L281.559 290.187L282.512 288.414L283.393 288.887ZM281.487 292.434L280.534 294.207L279.653 293.733L280.606 291.96L281.487 292.434ZM279.581 295.98L278.628 297.753L277.747 297.28L278.7 295.507L279.581 295.98ZM277.675 299.526L276.722 301.3L275.841 300.826L276.794 299.053L277.675 299.526ZM275.769 303.073L274.816 304.846L273.935 304.373L274.888 302.599L275.769 303.073ZM273.863 306.619L272.91 308.392L272.029 307.919L272.982 306.146L273.863 306.619ZM271.957 310.166L271.004 311.939L270.123 311.465L271.076 309.692L271.957 310.166ZM270.051 313.712L269.098 315.485L268.217 315.012L269.17 313.239L270.051 313.712ZM268.145 317.258L267.192 319.032L266.311 318.558L267.264 316.785L268.145 317.258ZM266.239 320.805L265.286 322.578L264.405 322.105L265.358 320.331L266.239 320.805ZM264.333 324.351L263.38 326.124L262.499 325.651L263.452 323.878L264.333 324.351ZM262.427 327.898L261.474 329.671L260.593 329.197L261.546 327.424L262.427 327.898ZM260.521 331.444L259.568 333.217L258.687 332.744L259.64 330.971L260.521 331.444ZM258.615 334.99L257.662 336.764L256.781 336.29L257.734 334.517L258.615 334.99ZM256.709 338.537L255.756 340.31L254.875 339.837L255.828 338.063L256.709 338.537ZM254.803 342.083L253.85 343.856L252.969 343.383L253.922 341.61L254.803 342.083ZM252.897 345.63L251.944 347.403L251.063 346.929L252.016 345.156L252.897 345.63ZM250.991 349.176L250.038 350.949L249.158 350.476L250.11 348.703L250.991 349.176ZM249.085 352.722L248.132 354.495L247.252 354.022L248.205 352.249L249.085 352.722ZM247.179 356.269L246.226 358.042L245.346 357.568L246.299 355.795L247.179 356.269ZM245.273 359.815L244.32 361.588L243.44 361.115L244.393 359.342L245.273 359.815ZM243.368 363.361L242.415 365.135L241.534 364.661L242.487 362.888L243.368 363.361ZM241.462 366.908L240.509 368.681L239.628 368.208L240.581 366.434L241.462 366.908ZM239.556 370.454L238.603 372.227L237.722 371.754L238.675 369.981L239.556 370.454ZM237.65 374.001L236.697 375.774L235.816 375.3L236.769 373.527L237.65 374.001ZM235.744 377.547L234.791 379.32L233.91 378.847L234.863 377.074L235.744 377.547ZM233.838 381.093L232.885 382.867L232.004 382.393L232.957 380.62L233.838 381.093ZM231.932 384.64L230.979 386.413L230.098 385.94L231.051 384.166L231.932 384.64ZM230.026 388.186L229.073 389.959L228.192 389.486L229.145 387.713L230.026 388.186ZM228.12 391.733L227.167 393.506L226.286 393.032L227.239 391.259L228.12 391.733ZM226.214 395.279L225.261 397.052L224.38 396.579L225.333 394.806L226.214 395.279ZM224.308 398.825L223.355 400.599L222.474 400.125L223.427 398.352L224.308 398.825ZM222.402 402.372L221.449 404.145L220.568 403.672L221.521 401.898L222.402 402.372ZM220.496 405.918L219.543 407.691L218.662 407.218L219.615 405.445L220.496 405.918ZM218.59 409.465L217.637 411.238L216.756 410.764L217.709 408.991L218.59 409.465ZM216.684 413.011L215.731 414.784L214.85 414.311L215.803 412.538L216.684 413.011ZM214.778 416.557L213.825 418.331L212.944 417.857L213.897 416.084L214.778 416.557ZM212.872 420.104L211.919 421.877L211.038 421.404L211.991 419.63L212.872 420.104ZM210.966 423.65L210.013 425.423L209.132 424.95L210.085 423.177L210.966 423.65ZM209.06 427.197L208.107 428.97L207.226 428.496L208.179 426.723L209.06 427.197ZM207.154 430.743L206.201 432.516L205.32 432.043L206.273 430.27L207.154 430.743ZM205.248 434.289L204.295 436.063L203.414 435.589L204.367 433.816L205.248 434.289ZM203.342 437.836L202.389 439.609L201.508 439.136L202.461 437.362L203.342 437.836ZM201.436 441.382L200.483 443.155L199.602 442.682L200.555 440.909L201.436 441.382ZM199.53 444.929L198.577 446.702L197.697 446.228L198.65 444.455L199.53 444.929ZM197.624 448.475L196.671 450.248L195.791 449.775L196.744 448.002L197.624 448.475ZM195.718 452.021L194.765 453.795L193.885 453.321L194.838 451.548L195.718 452.021ZM193.812 455.568L192.859 457.341L191.979 456.868L192.932 455.094L193.812 455.568ZM191.906 459.114L190.954 460.887L190.073 460.414L191.026 458.641L191.906 459.114ZM190.001 462.661L189.048 464.434L188.167 463.96L189.12 462.187L190.001 462.661ZM188.095 466.207L187.618 467.094L186.737 466.62L187.214 465.734L188.095 466.207ZM187.618 467.094C187.454 467.398 187.285 467.7 187.111 467.997L186.248 467.492C186.416 467.205 186.579 466.914 186.737 466.62L187.618 467.094ZM186.001 469.745C185.609 470.316 185.197 470.871 184.767 471.409L183.986 470.784C184.401 470.265 184.798 469.73 185.177 469.179L186.001 469.745ZM183.415 472.977C182.944 473.485 182.457 473.974 181.952 474.444L181.27 473.713C181.757 473.259 182.228 472.787 182.681 472.298L183.415 472.977ZM180.387 475.801C179.849 476.234 179.296 476.647 178.728 477.04L178.159 476.218C178.707 475.839 179.241 475.44 179.76 475.022L180.387 475.801ZM176.983 478.156C176.389 478.506 175.781 478.835 175.162 479.142L174.718 478.246C175.316 477.95 175.902 477.632 176.475 477.294L176.983 478.156ZM173.273 479.993C172.636 480.253 171.987 480.49 171.328 480.705L171.019 479.754C171.654 479.547 172.28 479.318 172.896 479.067L173.273 479.993ZM169.337 481.273C169.002 481.355 168.665 481.432 168.327 481.503L168.123 480.524C168.45 480.455 168.775 480.382 169.097 480.302L169.337 481.273ZM168.327 481.503L167.359 481.704L167.155 480.725L168.123 480.524L168.327 481.503ZM165.424 482.107L163.488 482.511L163.284 481.532L165.22 481.128L165.424 482.107ZM161.553 482.914L159.617 483.317L159.413 482.338L161.349 481.935L161.553 482.914ZM157.682 483.72L155.747 484.123L155.543 483.144L157.478 482.741L157.682 483.72ZM153.811 484.527L151.876 484.93L151.672 483.951L153.607 483.548L153.811 484.527ZM149.94 485.333L148.005 485.736L147.801 484.757L149.736 484.354L149.94 485.333Z" fill="#151515"/>
<path opacity="0.5" d="M126.457 137.353L128.76 142.647L132.193 138.005L126.457 137.353ZM251.694 229.364L250.893 228.771L250.298 229.575L251.099 230.168L251.694 229.364ZM249.291 227.586L247.689 226.402L247.095 227.206L248.696 228.39L249.291 227.586ZM246.088 225.217L244.486 224.032L243.891 224.836L245.493 226.021L246.088 225.217ZM242.884 222.847L241.282 221.663L240.687 222.467L242.289 223.651L242.884 222.847ZM239.68 220.478L238.079 219.293L237.484 220.097L239.086 221.282L239.68 220.478ZM236.477 218.108L234.875 216.923L234.28 217.727L235.882 218.912L236.477 218.108ZM233.273 215.739L231.671 214.554L231.077 215.358L232.679 216.543L233.273 215.739ZM230.07 213.369L228.468 212.184L227.873 212.988L229.475 214.173L230.07 213.369ZM226.866 211L225.264 209.815L224.67 210.619L226.271 211.803L226.866 211ZM223.662 208.63L222.061 207.445L221.466 208.249L223.068 209.434L223.662 208.63ZM220.459 206.26L218.857 205.076L218.262 205.88L219.864 207.064L220.459 206.26ZM217.255 203.891L215.653 202.706L215.059 203.51L216.661 204.695L217.255 203.891ZM214.052 201.521L212.45 200.336L211.855 201.14L213.457 202.325L214.052 201.521ZM210.848 199.152L209.246 197.967L208.652 198.771L210.253 199.956L210.848 199.152ZM207.644 196.782L206.043 195.597L205.448 196.401L207.05 197.586L207.644 196.782ZM204.441 194.413L202.839 193.228L202.244 194.032L203.846 195.217L204.441 194.413ZM201.237 192.043L199.636 190.858L199.041 191.662L200.643 192.847L201.237 192.043ZM198.034 189.673L196.432 188.489L195.837 189.293L197.439 190.477L198.034 189.673ZM194.83 187.304L193.228 186.119L192.634 186.923L194.235 188.108L194.83 187.304ZM191.627 184.934L190.025 183.75L189.43 184.553L191.032 185.738L191.627 184.934ZM188.423 182.565L186.821 181.38L186.226 182.184L187.828 183.369L188.423 182.565ZM185.219 180.195L183.618 179.01L183.023 179.814L184.625 180.999L185.219 180.195ZM182.016 177.826L180.414 176.641L179.819 177.445L181.421 178.63L182.016 177.826ZM178.812 175.456L177.21 174.271L176.616 175.075L178.218 176.26L178.812 175.456ZM175.609 173.086L174.007 171.902L173.412 172.706L175.014 173.89L175.609 173.086ZM172.405 170.717L170.803 169.532L170.209 170.336L171.81 171.521L172.405 170.717ZM169.201 168.347L167.6 167.163L167.005 167.967L168.607 169.151L169.201 168.347ZM165.998 165.978L164.396 164.793L163.801 165.597L165.403 166.782L165.998 165.978ZM162.794 163.608L161.192 162.423L160.598 163.227L162.2 164.412L162.794 163.608ZM159.591 161.239L157.989 160.054L157.394 160.858L158.996 162.043L159.591 161.239ZM156.387 158.869L154.785 157.684L154.191 158.488L155.792 159.673L156.387 158.869ZM153.183 156.5L151.582 155.315L150.987 156.119L152.589 157.304L153.183 156.5ZM149.98 154.13L148.378 152.945L147.783 153.749L149.385 154.934L149.98 154.13ZM146.776 151.76L145.175 150.576L144.58 151.38L146.182 152.564L146.776 151.76ZM143.573 149.391L141.971 148.206L141.376 149.01L142.978 150.195L143.573 149.391ZM140.369 147.021L138.767 145.836L138.173 146.64L139.774 147.825L140.369 147.021ZM137.166 144.652L135.564 143.467L134.969 144.271L136.571 145.456L137.166 144.652ZM133.962 142.282L132.36 141.097L131.765 141.901L133.367 143.086L133.962 142.282ZM130.758 139.913L129.157 138.728L128.562 139.532L130.164 140.717L130.758 139.913Z" fill="#151515"/>
<path opacity="0.5" d="M70.9997 247.345L75.6485 250.769L76.2891 245.031L70.9997 247.345ZM225.499 264.091L224.509 263.98L224.398 264.974L225.388 265.085L225.499 264.091ZM222.529 263.759L220.549 263.538L220.438 264.532L222.418 264.753L222.529 263.759ZM218.569 263.317L216.589 263.096L216.478 264.09L218.458 264.311L218.569 263.317ZM214.609 262.875L212.629 262.654L212.518 263.648L214.498 263.869L214.609 262.875ZM210.648 262.433L208.668 262.212L208.557 263.206L210.538 263.427L210.648 262.433ZM206.688 261.991L204.708 261.77L204.597 262.764L206.577 262.985L206.688 261.991ZM202.728 261.549L200.748 261.328L200.637 262.321L202.617 262.543L202.728 261.549ZM198.768 261.107L196.788 260.886L196.677 261.879L198.657 262.1L198.768 261.107ZM194.808 260.664L192.828 260.443L192.717 261.437L194.697 261.658L194.808 260.664ZM190.848 260.222L188.868 260.001L188.757 260.995L190.737 261.216L190.848 260.222ZM186.888 259.78L184.908 259.559L184.797 260.553L186.777 260.774L186.888 259.78ZM182.928 259.338L180.948 259.117L180.837 260.111L182.817 260.332L182.928 259.338ZM178.968 258.896L176.988 258.675L176.877 259.669L178.857 259.89L178.968 258.896ZM175.008 258.454L173.028 258.233L172.917 259.227L174.897 259.448L175.008 258.454ZM171.048 258.012L169.068 257.791L168.957 258.784L170.937 259.006L171.048 258.012ZM167.087 257.57L165.107 257.349L164.996 258.342L166.977 258.563L167.087 257.57ZM163.127 257.127L161.147 256.906L161.036 257.9L163.016 258.121L163.127 257.127ZM159.167 256.685L157.187 256.464L157.076 257.458L159.056 257.679L159.167 256.685ZM155.207 256.243L153.227 256.022L153.116 257.016L155.096 257.237L155.207 256.243ZM151.247 255.801L149.267 255.58L149.156 256.574L151.136 256.795L151.247 255.801ZM147.287 255.359L145.307 255.138L145.196 256.132L147.176 256.353L147.287 255.359ZM143.327 254.917L141.347 254.696L141.236 255.69L143.216 255.911L143.327 254.917ZM139.367 254.475L137.387 254.254L137.276 255.247L139.256 255.468L139.367 254.475ZM135.407 254.033L133.427 253.811L133.316 254.805L135.296 255.026L135.407 254.033ZM131.447 253.59L129.467 253.369L129.356 254.363L131.336 254.584L131.447 253.59ZM127.487 253.148L125.507 252.927L125.396 253.921L127.376 254.142L127.487 253.148ZM123.526 252.706L121.546 252.485L121.435 253.479L123.416 253.7L123.526 252.706ZM119.566 252.264L117.586 252.043L117.475 253.037L119.455 253.258L119.566 252.264ZM115.606 251.822L113.626 251.601L113.515 252.595L115.495 252.816L115.606 251.822ZM111.646 251.38L109.666 251.159L109.555 252.153L111.535 252.374L111.646 251.38ZM107.686 250.938L105.706 250.717L105.595 251.71L107.575 251.931L107.686 250.938ZM103.726 250.496L101.746 250.274L101.635 251.268L103.615 251.489L103.726 250.496ZM99.7659 250.053L97.7859 249.832L97.6749 250.826L99.655 251.047L99.7659 250.053ZM95.8058 249.611L93.8258 249.39L93.7148 250.384L95.6949 250.605L95.8058 249.611ZM91.8457 249.169L89.8657 248.948L89.7547 249.942L91.7348 250.163L91.8457 249.169ZM87.8856 248.727L85.9056 248.506L85.7946 249.5L87.7746 249.721L87.8856 248.727ZM83.9255 248.285L81.9454 248.064L81.8345 249.058L83.8145 249.279L83.9255 248.285ZM79.9654 247.843L77.9853 247.622L77.8744 248.615L79.8544 248.837L79.9654 247.843ZM76.0053 247.401L74.0252 247.18L73.9143 248.173L75.8943 248.394L76.0053 247.401Z" fill="#151515"/>
<path opacity="0.5" d="M110.999 417.45L116.633 416.185L112.72 411.939L110.999 417.45ZM224.95 311.783L224.218 312.458L224.895 313.193L225.628 312.518L224.95 311.783ZM222.752 313.808L221.287 315.158L221.965 315.893L223.43 314.543L222.752 313.808ZM219.822 316.508L218.357 317.858L219.034 318.593L220.499 317.243L219.822 316.508ZM216.891 319.208L215.426 320.558L216.104 321.293L217.569 319.943L216.891 319.208ZM213.961 321.908L212.496 323.258L213.173 323.993L214.638 322.643L213.961 321.908ZM211.03 324.608L209.565 325.958L210.243 326.693L211.708 325.343L211.03 324.608ZM208.1 327.308L206.635 328.658L207.312 329.393L208.777 328.043L208.1 327.308ZM205.169 330.008L203.704 331.358L204.382 332.093L205.847 330.743L205.169 330.008ZM202.239 332.708L200.774 334.058L201.451 334.793L202.916 333.443L202.239 332.708ZM199.308 335.408L197.843 336.758L198.521 337.493L199.986 336.143L199.308 335.408ZM196.378 338.108L194.913 339.458L195.59 340.193L197.055 338.843L196.378 338.108ZM193.447 340.808L191.982 342.158L192.66 342.893L194.125 341.543L193.447 340.808ZM190.517 343.508L189.052 344.858L189.729 345.593L191.194 344.243L190.517 343.508ZM187.586 346.208L186.121 347.558L186.799 348.293L188.264 346.943L187.586 346.208ZM184.656 348.908L183.191 350.258L183.868 350.993L185.333 349.643L184.656 348.908ZM181.725 351.608L180.26 352.958L180.938 353.693L182.403 352.343L181.725 351.608ZM178.795 354.308L177.33 355.657L178.007 356.393L179.472 355.043L178.795 354.308ZM175.864 357.007L174.399 358.357L175.077 359.093L176.542 357.743L175.864 357.007ZM172.934 359.707L171.469 361.057L172.146 361.793L173.611 360.443L172.934 359.707ZM170.003 362.407L168.538 363.757L169.216 364.493L170.681 363.143L170.003 362.407ZM167.073 365.107L165.608 366.457L166.285 367.193L167.75 365.843L167.073 365.107ZM164.142 367.807L162.677 369.157L163.355 369.893L164.82 368.543L164.142 367.807ZM161.212 370.507L159.746 371.857L160.424 372.593L161.889 371.243L161.212 370.507ZM158.281 373.207L156.816 374.557L157.494 375.293L158.959 373.943L158.281 373.207ZM155.351 375.907L153.885 377.257L154.563 377.993L156.028 376.643L155.351 375.907ZM152.42 378.607L150.955 379.957L151.633 380.693L153.098 379.343L152.42 378.607ZM149.49 381.307L148.024 382.657L148.702 383.393L150.167 382.043L149.49 381.307ZM146.559 384.007L145.094 385.357L145.772 386.093L147.237 384.743L146.559 384.007ZM143.629 386.707L142.163 388.057L142.841 388.793L144.306 387.443L143.629 386.707ZM140.698 389.407L139.233 390.757L139.911 391.493L141.376 390.143L140.698 389.407ZM137.768 392.107L136.302 393.457L136.98 394.193L138.445 392.843L137.768 392.107ZM134.837 394.807L133.372 396.157L134.05 396.893L135.515 395.543L134.837 394.807ZM131.907 397.507L130.441 398.857L131.119 399.593L132.584 398.243L131.907 397.507ZM128.976 400.207L127.511 401.557L128.189 402.293L129.654 400.943L128.976 400.207ZM126.046 402.907L124.58 404.257L125.258 404.993L126.723 403.643L126.046 402.907ZM123.115 405.607L121.65 406.957L122.327 407.693L123.793 406.343L123.115 405.607ZM120.185 408.307L118.719 409.657L119.397 410.393L120.862 409.043L120.185 408.307ZM117.254 411.007L115.789 412.357L116.466 413.093L117.932 411.743L117.254 411.007ZM114.324 413.707L112.858 415.057L113.536 415.793L115.001 414.443L114.324 413.707Z" fill="#151515"/>
<rect x="506" y="303.352" width="73" height="27" rx="7" fill="#C9D63F"/>
<rect x="194" y="45.3516" width="70" height="27" rx="7" fill="#E4E589"/>
<rect x="62.707" width="47.9121" height="27" rx="7" fill="#9BB7E0"/>
<rect x="142.852" y="5.35156" width="47.0391" height="27" rx="7" fill="#63AB88"/>
<rect x="190" y="519.352" width="38" height="27" rx="7" fill="#DFDFDF"/>
<rect x="50.3926" y="57.3516" width="50" height="27" rx="7" fill="#9E92B4"/>
<rect x="92" y="473.352" width="48" height="27" rx="7" fill="#CD94B9"/>
<rect x="62" y="115.352" width="62" height="27" rx="7" fill="#008937"/>
<rect y="235.352" width="68" height="27" rx="7" fill="#9AA613"/>
<rect x="49" y="420.352" width="67" height="27" rx="7" fill="#4EE8BA"/>
<path d="M513.506 311.696V309.752H522.362V311.426L516.674 322.352H514.19L519.842 311.696H513.506ZM529.372 309.662H531.262V317.708H533.062V319.526H531.262V322.352H529.138V319.526H522.784L522.37 317.942L529.372 309.662ZM529.138 317.708V312.722L524.998 317.708H529.138ZM534.586 324.044C535.69 323.828 536.2 323.264 536.116 322.352H535.198V319.886H537.592V321.974C537.592 322.982 537.358 323.714 536.89 324.17C536.422 324.626 535.732 324.89 534.82 324.962L534.586 324.044ZM550.462 316.034C550.462 316.934 550.33 317.786 550.066 318.59C549.802 319.382 549.43 320.072 548.95 320.66C548.47 321.248 547.888 321.716 547.204 322.064C546.532 322.4 545.782 322.568 544.954 322.568C544.126 322.568 543.376 322.4 542.704 322.064C542.032 321.728 541.456 321.266 540.976 320.678C540.496 320.09 540.124 319.4 539.86 318.608C539.608 317.816 539.482 316.97 539.482 316.07C539.482 315.17 539.614 314.324 539.878 313.532C540.142 312.728 540.514 312.032 540.994 311.444C541.474 310.856 542.05 310.394 542.722 310.058C543.406 309.71 544.162 309.536 544.99 309.536C545.818 309.536 546.568 309.704 547.24 310.04C547.912 310.376 548.488 310.838 548.968 311.426C549.448 312.014 549.814 312.704 550.066 313.496C550.33 314.288 550.462 315.134 550.462 316.034ZM548.176 316.07C548.176 315.446 548.098 314.858 547.942 314.306C547.798 313.754 547.582 313.274 547.294 312.866C547.018 312.458 546.682 312.134 546.286 311.894C545.89 311.654 545.446 311.534 544.954 311.534C544.462 311.534 544.018 311.654 543.622 311.894C543.238 312.122 542.908 312.44 542.632 312.848C542.356 313.244 542.14 313.718 541.984 314.27C541.84 314.822 541.768 315.41 541.768 316.034C541.768 316.67 541.84 317.264 541.984 317.816C542.14 318.356 542.356 318.836 542.632 319.256C542.92 319.664 543.262 319.988 543.658 320.228C544.054 320.456 544.498 320.57 544.99 320.57C545.482 320.57 545.92 320.456 546.304 320.228C546.7 319.988 547.036 319.664 547.312 319.256C547.588 318.848 547.798 318.374 547.942 317.834C548.098 317.282 548.176 316.694 548.176 316.07ZM553.173 315.926L553.533 309.752H561.057V311.714H555.441L555.243 314.666C555.543 314.558 555.843 314.474 556.143 314.414C556.455 314.342 556.821 314.306 557.241 314.306C557.853 314.306 558.423 314.39 558.951 314.558C559.491 314.714 559.959 314.96 560.355 315.296C560.751 315.62 561.057 316.034 561.273 316.538C561.501 317.03 561.615 317.612 561.615 318.284C561.615 318.932 561.501 319.52 561.273 320.048C561.057 320.576 560.745 321.026 560.337 321.398C559.929 321.77 559.437 322.058 558.861 322.262C558.285 322.466 557.649 322.568 556.953 322.568C555.981 322.568 555.117 322.394 554.361 322.046C553.605 321.686 552.927 321.218 552.327 320.642L553.695 319.04C554.199 319.508 554.715 319.88 555.243 320.156C555.783 320.42 556.347 320.552 556.935 320.552C557.691 320.552 558.297 320.354 558.753 319.958C559.209 319.562 559.437 319.028 559.437 318.356C559.437 317.708 559.197 317.198 558.717 316.826C558.249 316.442 557.619 316.25 556.827 316.25C556.371 316.25 555.951 316.304 555.567 316.412C555.183 316.52 554.829 316.652 554.505 316.808L553.173 315.926ZM569.521 311.678H564.067V309.752H572.401V311.408L568.891 315.008C569.371 315.068 569.833 315.182 570.277 315.35C570.733 315.506 571.129 315.728 571.465 316.016C571.813 316.292 572.089 316.64 572.293 317.06C572.497 317.48 572.599 317.984 572.599 318.572C572.599 319.16 572.491 319.7 572.275 320.192C572.059 320.672 571.759 321.092 571.375 321.452C570.991 321.8 570.523 322.076 569.971 322.28C569.431 322.472 568.837 322.568 568.189 322.568C567.085 322.568 566.137 322.364 565.345 321.956C564.565 321.536 563.905 321.002 563.365 320.354L564.913 318.914C565.369 319.454 565.855 319.868 566.371 320.156C566.899 320.432 567.517 320.57 568.225 320.57C568.849 320.57 569.365 320.396 569.773 320.048C570.193 319.7 570.403 319.232 570.403 318.644C570.403 318.008 570.145 317.522 569.629 317.186C569.113 316.85 568.405 316.682 567.505 316.682H566.479L566.119 315.296L569.521 311.678Z" fill="white"/>
<path d="M201.755 52.7416L205.139 51.6616H206.687V64.3516H204.491V53.9116L202.223 54.5416L201.755 52.7416ZM220.43 58.0336C220.43 58.9336 220.298 59.7856 220.034 60.5896C219.77 61.3816 219.398 62.0716 218.918 62.6596C218.438 63.2476 217.856 63.7156 217.172 64.0636C216.5 64.3996 215.75 64.5676 214.922 64.5676C214.094 64.5676 213.344 64.3996 212.672 64.0636C212 63.7276 211.424 63.2656 210.944 62.6776C210.464 62.0896 210.092 61.3996 209.828 60.6076C209.576 59.8156 209.45 58.9696 209.45 58.0696C209.45 57.1696 209.582 56.3236 209.846 55.5316C210.11 54.7276 210.482 54.0316 210.962 53.4436C211.442 52.8556 212.018 52.3936 212.69 52.0576C213.374 51.7096 214.13 51.5356 214.958 51.5356C215.786 51.5356 216.536 51.7036 217.208 52.0396C217.88 52.3756 218.456 52.8376 218.936 53.4256C219.416 54.0136 219.782 54.7036 220.034 55.4956C220.298 56.2876 220.43 57.1336 220.43 58.0336ZM218.144 58.0696C218.144 57.4456 218.066 56.8576 217.91 56.3056C217.766 55.7536 217.55 55.2736 217.262 54.8656C216.986 54.4576 216.65 54.1336 216.254 53.8936C215.858 53.6536 215.414 53.5336 214.922 53.5336C214.43 53.5336 213.986 53.6536 213.59 53.8936C213.206 54.1216 212.876 54.4396 212.6 54.8476C212.324 55.2436 212.108 55.7176 211.952 56.2696C211.808 56.8216 211.736 57.4096 211.736 58.0336C211.736 58.6696 211.808 59.2636 211.952 59.8156C212.108 60.3556 212.324 60.8356 212.6 61.2556C212.888 61.6636 213.23 61.9876 213.626 62.2276C214.022 62.4556 214.466 62.5696 214.958 62.5696C215.45 62.5696 215.888 62.4556 216.272 62.2276C216.668 61.9876 217.004 61.6636 217.28 61.2556C217.556 60.8476 217.766 60.3736 217.91 59.8336C218.066 59.2816 218.144 58.6936 218.144 58.0696ZM221.71 66.0436C222.814 65.8276 223.324 65.2636 223.24 64.3516H222.322V61.8856H224.716V63.9736C224.716 64.9816 224.482 65.7136 224.014 66.1696C223.546 66.6256 222.856 66.8896 221.944 66.9616L221.71 66.0436ZM226.804 53.6956V51.7516H235.66V53.4256L229.972 64.3516H227.488L233.14 53.6956H226.804ZM237.784 57.9256L238.144 51.7516H245.668V53.7136H240.052L239.854 56.6656C240.154 56.5576 240.454 56.4736 240.754 56.4136C241.066 56.3416 241.432 56.3056 241.852 56.3056C242.464 56.3056 243.034 56.3896 243.562 56.5576C244.102 56.7136 244.57 56.9596 244.966 57.2956C245.362 57.6196 245.668 58.0336 245.884 58.5376C246.112 59.0296 246.226 59.6116 246.226 60.2836C246.226 60.9316 246.112 61.5196 245.884 62.0476C245.668 62.5756 245.356 63.0256 244.948 63.3976C244.54 63.7696 244.048 64.0576 243.472 64.2616C242.896 64.4656 242.26 64.5676 241.564 64.5676C240.592 64.5676 239.728 64.3936 238.972 64.0456C238.216 63.6856 237.538 63.2176 236.938 62.6416L238.306 61.0396C238.81 61.5076 239.326 61.8796 239.854 62.1556C240.394 62.4196 240.958 62.5516 241.546 62.5516C242.302 62.5516 242.908 62.3536 243.364 61.9576C243.82 61.5616 244.048 61.0276 244.048 60.3556C244.048 59.7076 243.808 59.1976 243.328 58.8256C242.86 58.4416 242.23 58.2496 241.438 58.2496C240.982 58.2496 240.562 58.3036 240.178 58.4116C239.794 58.5196 239.44 58.6516 239.116 58.8076L237.784 57.9256ZM247.968 53.6956V51.7516H256.824V53.4256L251.136 64.3516H248.652L254.304 53.6956H247.968Z" fill="#3E3E3E"/>
<path d="M77.5987 8.2C77.0227 8.2 76.5127 8.356 76.0687 8.668C75.6367 8.98 75.1747 9.454 74.6827 10.09L73.1167 8.866C73.4167 8.446 73.7227 8.074 74.0347 7.75C74.3467 7.414 74.6827 7.138 75.0427 6.922C75.4147 6.694 75.8167 6.52 76.2487 6.4C76.6927 6.28 77.1967 6.22 77.7607 6.22C78.3847 6.22 78.9547 6.31 79.4707 6.49C79.9867 6.67 80.4247 6.928 80.7847 7.264C81.1447 7.6 81.4207 8.002 81.6127 8.47C81.8167 8.926 81.9187 9.436 81.9187 10C81.9187 10.504 81.8527 10.954 81.7207 11.35C81.5887 11.746 81.3847 12.13 81.1087 12.502C80.8447 12.874 80.5027 13.252 80.0827 13.636C79.6747 14.02 79.1947 14.44 78.6427 14.896L76.0507 17.056H82.0447V19H72.9367V17.254L77.2747 13.564C77.7067 13.204 78.0727 12.88 78.3727 12.592C78.6727 12.292 78.9127 12.01 79.0927 11.746C79.2847 11.482 79.4227 11.224 79.5067 10.972C79.5907 10.72 79.6327 10.45 79.6327 10.162C79.6327 9.538 79.4347 9.058 79.0387 8.722C78.6547 8.374 78.1747 8.2 77.5987 8.2ZM83.5618 7.39L86.9458 6.31H88.4938V19H86.2978V8.56L84.0298 9.19L83.5618 7.39ZM95.7745 8.2C95.1985 8.2 94.6885 8.356 94.2445 8.668C93.8125 8.98 93.3505 9.454 92.8585 10.09L91.2925 8.866C91.5925 8.446 91.8985 8.074 92.2105 7.75C92.5225 7.414 92.8585 7.138 93.2185 6.922C93.5905 6.694 93.9925 6.52 94.4245 6.4C94.8685 6.28 95.3725 6.22 95.9365 6.22C96.5605 6.22 97.1305 6.31 97.6465 6.49C98.1625 6.67 98.6005 6.928 98.9605 7.264C99.3205 7.6 99.5965 8.002 99.7885 8.47C99.9925 8.926 100.094 9.436 100.094 10C100.094 10.504 100.028 10.954 99.8965 11.35C99.7645 11.746 99.5605 12.13 99.2845 12.502C99.0205 12.874 98.6785 13.252 98.2585 13.636C97.8505 14.02 97.3705 14.44 96.8185 14.896L94.2265 17.056H100.22V19H91.1125V17.254L95.4505 13.564C95.8825 13.204 96.2485 12.88 96.5485 12.592C96.8485 12.292 97.0885 12.01 97.2685 11.746C97.4605 11.482 97.5985 11.224 97.6825 10.972C97.7665 10.72 97.8085 10.45 97.8085 10.162C97.8085 9.538 97.6105 9.058 97.2145 8.722C96.8305 8.374 96.3505 8.2 95.7745 8.2Z" fill="white"/>
<path d="M152.328 14.6956V12.7516H161.184V14.4256L155.496 25.3516H153.012L158.664 14.6956H152.328ZM162.717 13.7416L166.101 12.6616H167.649V25.3516H165.453V14.9116L163.185 15.5416L162.717 13.7416ZM177.036 12.6616H178.926V20.7076H180.726V22.5256H178.926V25.3516H176.802V22.5256H170.448L170.034 20.9416L177.036 12.6616ZM176.802 20.7076V15.7216L172.662 20.7076H176.802Z" fill="white"/>
<path d="M208.944 531.692C208.944 532.712 208.818 533.642 208.566 534.482C208.326 535.322 207.972 536.048 207.504 536.66C207.048 537.26 206.484 537.728 205.812 538.064C205.14 538.4 204.384 538.568 203.544 538.568C202.668 538.568 201.912 538.43 201.276 538.154C200.64 537.866 200.052 537.5 199.512 537.056L200.718 535.364C201.198 535.772 201.66 536.072 202.104 536.264C202.56 536.456 203.058 536.552 203.598 536.552C204.066 536.552 204.48 536.456 204.84 536.264C205.212 536.072 205.524 535.802 205.776 535.454C206.04 535.094 206.244 534.674 206.388 534.194C206.532 533.702 206.616 533.168 206.64 532.592C206.328 532.976 205.926 533.294 205.434 533.546C204.954 533.798 204.372 533.924 203.688 533.924C203.016 533.924 202.404 533.834 201.852 533.654C201.312 533.462 200.844 533.192 200.448 532.844C200.064 532.484 199.764 532.058 199.548 531.566C199.332 531.074 199.224 530.522 199.224 529.91C199.224 529.286 199.338 528.71 199.566 528.182C199.794 527.642 200.112 527.18 200.52 526.796C200.94 526.4 201.438 526.094 202.014 525.878C202.59 525.65 203.226 525.536 203.922 525.536C204.714 525.536 205.38 525.65 205.92 525.878C206.472 526.094 206.97 526.424 207.414 526.868C207.882 527.336 208.254 527.948 208.53 528.704C208.806 529.448 208.944 530.444 208.944 531.692ZM206.568 529.784C206.568 529.448 206.502 529.142 206.37 528.866C206.25 528.578 206.076 528.332 205.848 528.128C205.62 527.912 205.344 527.744 205.02 527.624C204.696 527.504 204.336 527.444 203.94 527.444C203.148 527.444 202.53 527.672 202.086 528.128C201.654 528.584 201.438 529.142 201.438 529.802C201.438 530.474 201.666 531.02 202.122 531.44C202.59 531.86 203.22 532.07 204.012 532.07C204.408 532.07 204.762 532.01 205.074 531.89C205.398 531.77 205.668 531.608 205.884 531.404C206.112 531.188 206.28 530.942 206.388 530.666C206.508 530.39 206.568 530.096 206.568 529.784ZM215.343 527.552C214.767 527.552 214.257 527.708 213.813 528.02C213.381 528.332 212.919 528.806 212.427 529.442L210.861 528.218C211.161 527.798 211.467 527.426 211.779 527.102C212.091 526.766 212.427 526.49 212.787 526.274C213.159 526.046 213.561 525.872 213.993 525.752C214.437 525.632 214.941 525.572 215.505 525.572C216.129 525.572 216.699 525.662 217.215 525.842C217.731 526.022 218.169 526.28 218.529 526.616C218.889 526.952 219.165 527.354 219.357 527.822C219.561 528.278 219.663 528.788 219.663 529.352C219.663 529.856 219.597 530.306 219.465 530.702C219.333 531.098 219.129 531.482 218.853 531.854C218.589 532.226 218.247 532.604 217.827 532.988C217.419 533.372 216.939 533.792 216.387 534.248L213.795 536.408H219.789V538.352H210.681V536.606L215.019 532.916C215.451 532.556 215.817 532.232 216.117 531.944C216.417 531.644 216.657 531.362 216.837 531.098C217.029 530.834 217.167 530.576 217.251 530.324C217.335 530.072 217.377 529.802 217.377 529.514C217.377 528.89 217.179 528.41 216.783 528.074C216.399 527.726 215.919 527.552 215.343 527.552Z" fill="#123C61"/>
<path d="M68.7826 72.8596C68.7826 73.4236 68.6626 73.9336 68.4226 74.3896C68.1826 74.8456 67.8466 75.2356 67.4146 75.5596C66.9826 75.8716 66.4726 76.1116 65.8846 76.2796C65.2966 76.4476 64.6606 76.5316 63.9766 76.5316C63.2926 76.5316 62.6566 76.4476 62.0686 76.2796C61.4806 76.0996 60.9706 75.8536 60.5386 75.5416C60.1066 75.2296 59.7706 74.8516 59.5306 74.4076C59.2906 73.9516 59.1706 73.4536 59.1706 72.9136C59.1706 72.1336 59.3686 71.4976 59.7646 71.0056C60.1606 70.5136 60.7186 70.1176 61.4386 69.8176C60.9106 69.5416 60.4726 69.1816 60.1246 68.7376C59.7766 68.2816 59.6026 67.6996 59.6026 66.9916C59.6026 66.5116 59.7106 66.0616 59.9266 65.6416C60.1546 65.2216 60.4606 64.8616 60.8446 64.5616C61.2286 64.2496 61.6846 64.0096 62.2126 63.8416C62.7526 63.6616 63.3406 63.5716 63.9766 63.5716C64.6006 63.5716 65.1826 63.6616 65.7226 63.8416C66.2626 64.0096 66.7246 64.2496 67.1086 64.5616C67.4926 64.8616 67.7926 65.2216 68.0086 65.6416C68.2366 66.0616 68.3506 66.5116 68.3506 66.9916C68.3506 67.6996 68.1766 68.2816 67.8286 68.7376C67.4806 69.1816 67.0426 69.5416 66.5146 69.8176C67.1986 70.1296 67.7446 70.5256 68.1526 71.0056C68.5726 71.4856 68.7826 72.1036 68.7826 72.8596ZM66.2266 67.2076C66.2266 66.7036 66.0226 66.2836 65.6146 65.9476C65.2066 65.5996 64.6606 65.4256 63.9766 65.4256C63.2926 65.4256 62.7466 65.5996 62.3386 65.9476C61.9306 66.2836 61.7266 66.6976 61.7266 67.1896C61.7266 67.7536 61.9366 68.2096 62.3566 68.5576C62.7886 68.9056 63.3286 69.0796 63.9766 69.0796C64.6246 69.0796 65.1586 68.9056 65.5786 68.5576C66.0106 68.2096 66.2266 67.7596 66.2266 67.2076ZM66.6226 72.7696C66.6226 72.4816 66.5506 72.2176 66.4066 71.9776C66.2746 71.7376 66.0886 71.5336 65.8486 71.3656C65.6206 71.1976 65.3446 71.0716 65.0206 70.9876C64.6966 70.8916 64.3486 70.8436 63.9766 70.8436C63.6046 70.8436 63.2566 70.8916 62.9326 70.9876C62.6086 71.0716 62.3266 71.1976 62.0866 71.3656C61.8586 71.5336 61.6726 71.7376 61.5286 71.9776C61.3966 72.2176 61.3306 72.4816 61.3306 72.7696C61.3306 73.3096 61.5646 73.7656 62.0326 74.1376C62.5006 74.4976 63.1486 74.6776 63.9766 74.6776C64.8046 74.6776 65.4526 74.4976 65.9206 74.1376C66.3886 73.7656 66.6226 73.3096 66.6226 72.7696ZM80.3386 69.6916C80.3386 70.7116 80.2126 71.6416 79.9606 72.4816C79.7206 73.3216 79.3666 74.0476 78.8986 74.6596C78.4426 75.2596 77.8786 75.7276 77.2066 76.0636C76.5346 76.3996 75.7786 76.5676 74.9386 76.5676C74.0626 76.5676 73.3066 76.4296 72.6706 76.1536C72.0346 75.8656 71.4466 75.4996 70.9066 75.0556L72.1126 73.3636C72.5926 73.7716 73.0546 74.0716 73.4986 74.2636C73.9546 74.4556 74.4526 74.5516 74.9926 74.5516C75.4606 74.5516 75.8746 74.4556 76.2346 74.2636C76.6066 74.0716 76.9186 73.8016 77.1706 73.4536C77.4346 73.0936 77.6386 72.6736 77.7826 72.1936C77.9266 71.7016 78.0106 71.1676 78.0346 70.5916C77.7226 70.9756 77.3206 71.2936 76.8286 71.5456C76.3486 71.7976 75.7666 71.9236 75.0826 71.9236C74.4106 71.9236 73.7986 71.8336 73.2466 71.6536C72.7066 71.4616 72.2386 71.1916 71.8426 70.8436C71.4586 70.4836 71.1586 70.0576 70.9426 69.5656C70.7266 69.0736 70.6186 68.5216 70.6186 67.9096C70.6186 67.2856 70.7326 66.7096 70.9606 66.1816C71.1886 65.6416 71.5066 65.1796 71.9146 64.7956C72.3346 64.3996 72.8326 64.0936 73.4086 63.8776C73.9846 63.6496 74.6206 63.5356 75.3166 63.5356C76.1086 63.5356 76.7746 63.6496 77.3146 63.8776C77.8666 64.0936 78.3646 64.4236 78.8086 64.8676C79.2766 65.3356 79.6486 65.9476 79.9246 66.7036C80.2006 67.4476 80.3386 68.4436 80.3386 69.6916ZM77.9626 67.7836C77.9626 67.4476 77.8966 67.1416 77.7646 66.8656C77.6446 66.5776 77.4706 66.3316 77.2426 66.1276C77.0146 65.9116 76.7386 65.7436 76.4146 65.6236C76.0906 65.5036 75.7306 65.4436 75.3346 65.4436C74.5426 65.4436 73.9246 65.6716 73.4806 66.1276C73.0486 66.5836 72.8326 67.1416 72.8326 67.8016C72.8326 68.4736 73.0606 69.0196 73.5166 69.4396C73.9846 69.8596 74.6146 70.0696 75.4066 70.0696C75.8026 70.0696 76.1566 70.0096 76.4686 69.8896C76.7926 69.7696 77.0626 69.6076 77.2786 69.4036C77.5066 69.1876 77.6746 68.9416 77.7826 68.6656C77.9026 68.3896 77.9626 68.0956 77.9626 67.7836ZM82.9733 69.9256L83.3333 63.7516H90.8573V65.7136H85.2413L85.0433 68.6656C85.3433 68.5576 85.6433 68.4736 85.9433 68.4136C86.2553 68.3416 86.6213 68.3056 87.0413 68.3056C87.6533 68.3056 88.2233 68.3896 88.7513 68.5576C89.2913 68.7136 89.7593 68.9596 90.1553 69.2956C90.5513 69.6196 90.8573 70.0336 91.0733 70.5376C91.3013 71.0296 91.4153 71.6116 91.4153 72.2836C91.4153 72.9316 91.3013 73.5196 91.0733 74.0476C90.8573 74.5756 90.5453 75.0256 90.1373 75.3976C89.7293 75.7696 89.2373 76.0576 88.6613 76.2616C88.0853 76.4656 87.4493 76.5676 86.7533 76.5676C85.7813 76.5676 84.9173 76.3936 84.1613 76.0456C83.4053 75.6856 82.7273 75.2176 82.1273 74.6416L83.4953 73.0396C83.9993 73.5076 84.5153 73.8796 85.0433 74.1556C85.5833 74.4196 86.1473 74.5516 86.7353 74.5516C87.4913 74.5516 88.0973 74.3536 88.5533 73.9576C89.0093 73.5616 89.2373 73.0276 89.2373 72.3556C89.2373 71.7076 88.9973 71.1976 88.5173 70.8256C88.0493 70.4416 87.4193 70.2496 86.6273 70.2496C86.1713 70.2496 85.7513 70.3036 85.3673 70.4116C84.9833 70.5196 84.6293 70.6516 84.3053 70.8076L82.9733 69.9256Z" fill="white"/>
<path d="M106.099 481.678H100.645V479.752H108.979V481.408L105.469 485.008C105.949 485.068 106.411 485.182 106.855 485.35C107.311 485.506 107.707 485.728 108.043 486.016C108.391 486.292 108.667 486.64 108.871 487.06C109.075 487.48 109.177 487.984 109.177 488.572C109.177 489.16 109.069 489.7 108.853 490.192C108.637 490.672 108.337 491.092 107.953 491.452C107.569 491.8 107.101 492.076 106.549 492.28C106.009 492.472 105.415 492.568 104.767 492.568C103.663 492.568 102.715 492.364 101.923 491.956C101.143 491.536 100.483 491.002 99.9429 490.354L101.491 488.914C101.947 489.454 102.433 489.868 102.949 490.156C103.477 490.432 104.095 490.57 104.803 490.57C105.427 490.57 105.943 490.396 106.351 490.048C106.771 489.7 106.981 489.232 106.981 488.644C106.981 488.008 106.723 487.522 106.207 487.186C105.691 486.85 104.983 486.682 104.083 486.682H103.057L102.697 485.296L106.099 481.678ZM120.772 488.86C120.772 489.424 120.652 489.934 120.412 490.39C120.172 490.846 119.836 491.236 119.404 491.56C118.972 491.872 118.462 492.112 117.874 492.28C117.286 492.448 116.65 492.532 115.966 492.532C115.282 492.532 114.646 492.448 114.058 492.28C113.47 492.1 112.96 491.854 112.528 491.542C112.096 491.23 111.76 490.852 111.52 490.408C111.28 489.952 111.16 489.454 111.16 488.914C111.16 488.134 111.358 487.498 111.754 487.006C112.15 486.514 112.708 486.118 113.428 485.818C112.9 485.542 112.462 485.182 112.114 484.738C111.766 484.282 111.592 483.7 111.592 482.992C111.592 482.512 111.7 482.062 111.916 481.642C112.144 481.222 112.45 480.862 112.834 480.562C113.218 480.25 113.674 480.01 114.202 479.842C114.742 479.662 115.33 479.572 115.966 479.572C116.59 479.572 117.172 479.662 117.712 479.842C118.252 480.01 118.714 480.25 119.098 480.562C119.482 480.862 119.782 481.222 119.998 481.642C120.226 482.062 120.34 482.512 120.34 482.992C120.34 483.7 120.166 484.282 119.818 484.738C119.47 485.182 119.032 485.542 118.504 485.818C119.188 486.13 119.734 486.526 120.142 487.006C120.562 487.486 120.772 488.104 120.772 488.86ZM118.216 483.208C118.216 482.704 118.012 482.284 117.604 481.948C117.196 481.6 116.65 481.426 115.966 481.426C115.282 481.426 114.736 481.6 114.328 481.948C113.92 482.284 113.716 482.698 113.716 483.19C113.716 483.754 113.926 484.21 114.346 484.558C114.778 484.906 115.318 485.08 115.966 485.08C116.614 485.08 117.148 484.906 117.568 484.558C118 484.21 118.216 483.76 118.216 483.208ZM118.612 488.77C118.612 488.482 118.54 488.218 118.396 487.978C118.264 487.738 118.078 487.534 117.838 487.366C117.61 487.198 117.334 487.072 117.01 486.988C116.686 486.892 116.338 486.844 115.966 486.844C115.594 486.844 115.246 486.892 114.922 486.988C114.598 487.072 114.316 487.198 114.076 487.366C113.848 487.534 113.662 487.738 113.518 487.978C113.386 488.218 113.32 488.482 113.32 488.77C113.32 489.31 113.554 489.766 114.022 490.138C114.49 490.498 115.138 490.678 115.966 490.678C116.794 490.678 117.442 490.498 117.91 490.138C118.378 489.766 118.612 489.31 118.612 488.77ZM123.326 485.926L123.686 479.752H131.21V481.714H125.594L125.396 484.666C125.696 484.558 125.996 484.474 126.296 484.414C126.608 484.342 126.974 484.306 127.394 484.306C128.006 484.306 128.576 484.39 129.104 484.558C129.644 484.714 130.112 484.96 130.508 485.296C130.904 485.62 131.21 486.034 131.426 486.538C131.654 487.03 131.768 487.612 131.768 488.284C131.768 488.932 131.654 489.52 131.426 490.048C131.21 490.576 130.898 491.026 130.49 491.398C130.082 491.77 129.59 492.058 129.014 492.262C128.438 492.466 127.802 492.568 127.106 492.568C126.134 492.568 125.27 492.394 124.514 492.046C123.758 491.686 123.08 491.218 122.48 490.642L123.848 489.04C124.352 489.508 124.868 489.88 125.396 490.156C125.936 490.42 126.5 490.552 127.088 490.552C127.844 490.552 128.45 490.354 128.906 489.958C129.362 489.562 129.59 489.028 129.59 488.356C129.59 487.708 129.35 487.198 128.87 486.826C128.402 486.442 127.772 486.25 126.98 486.25C126.524 486.25 126.104 486.304 125.72 486.412C125.336 486.52 124.982 486.652 124.658 486.808L123.326 485.926Z" fill="white"/>
<path d="M77.7106 122.94L76.5226 124.65C76.0786 124.302 75.6466 124.032 75.2266 123.84C74.8186 123.648 74.3386 123.552 73.7866 123.552C73.3186 123.552 72.8986 123.654 72.5266 123.858C72.1666 124.05 71.8606 124.326 71.6086 124.686C71.3566 125.046 71.1586 125.472 71.0146 125.964C70.8706 126.444 70.7866 126.972 70.7626 127.548C70.9306 127.392 71.1106 127.236 71.3026 127.08C71.4946 126.924 71.7106 126.792 71.9506 126.684C72.2026 126.564 72.4726 126.468 72.7606 126.396C73.0606 126.324 73.3966 126.288 73.7686 126.288C74.3806 126.288 74.9506 126.378 75.4786 126.558C76.0186 126.726 76.4866 126.984 76.8826 127.332C77.2906 127.668 77.6086 128.082 77.8366 128.574C78.0646 129.066 78.1786 129.63 78.1786 130.266C78.1786 130.902 78.0586 131.484 77.8186 132.012C77.5786 132.54 77.2486 132.996 76.8286 133.38C76.4086 133.752 75.9106 134.046 75.3346 134.262C74.7706 134.466 74.1586 134.568 73.4986 134.568C72.7186 134.568 72.0406 134.454 71.4646 134.226C70.9006 133.998 70.4086 133.674 69.9886 133.254C69.7486 133.014 69.5326 132.75 69.3406 132.462C69.1486 132.162 68.9866 131.82 68.8546 131.436C68.7226 131.04 68.6206 130.596 68.5486 130.104C68.4886 129.612 68.4586 129.048 68.4586 128.412C68.4586 127.44 68.5726 126.54 68.8006 125.712C69.0286 124.872 69.3646 124.146 69.8086 123.534C70.2646 122.91 70.8286 122.424 71.5006 122.076C72.1846 121.716 72.9706 121.536 73.8586 121.536C74.6746 121.536 75.3826 121.662 75.9826 121.914C76.5826 122.154 77.1586 122.496 77.7106 122.94ZM75.9646 130.356C75.9646 129.708 75.7306 129.18 75.2626 128.772C74.8066 128.352 74.1826 128.142 73.3906 128.142C72.9946 128.142 72.6406 128.202 72.3286 128.322C72.0166 128.442 71.7466 128.604 71.5186 128.808C71.3026 129 71.1346 129.234 71.0146 129.51C70.8946 129.786 70.8346 130.074 70.8346 130.374C70.8346 131.034 71.0686 131.58 71.5366 132.012C72.0166 132.444 72.6526 132.66 73.4446 132.66C74.2366 132.66 74.8546 132.444 75.2986 132.012C75.7426 131.568 75.9646 131.016 75.9646 130.356ZM79.8571 136.044C80.9611 135.828 81.4711 135.264 81.3871 134.352H80.4691V131.886H82.8631V133.974C82.8631 134.982 82.6291 135.714 82.1611 136.17C81.6931 136.626 81.0031 136.89 80.0911 136.962L79.8571 136.044ZM94.5551 130.86C94.5551 131.424 94.4351 131.934 94.1951 132.39C93.9551 132.846 93.6191 133.236 93.1871 133.56C92.7551 133.872 92.2451 134.112 91.6571 134.28C91.0691 134.448 90.4331 134.532 89.7491 134.532C89.0651 134.532 88.4291 134.448 87.8411 134.28C87.2531 134.1 86.7431 133.854 86.3111 133.542C85.8791 133.23 85.5431 132.852 85.3031 132.408C85.0631 131.952 84.9431 131.454 84.9431 130.914C84.9431 130.134 85.1411 129.498 85.5371 129.006C85.9331 128.514 86.4911 128.118 87.2111 127.818C86.6831 127.542 86.2451 127.182 85.8971 126.738C85.5491 126.282 85.3751 125.7 85.3751 124.992C85.3751 124.512 85.4831 124.062 85.6991 123.642C85.9271 123.222 86.2331 122.862 86.6171 122.562C87.0011 122.25 87.4571 122.01 87.9851 121.842C88.5251 121.662 89.1131 121.572 89.7491 121.572C90.3731 121.572 90.9551 121.662 91.4951 121.842C92.0351 122.01 92.4971 122.25 92.8811 122.562C93.2651 122.862 93.5651 123.222 93.7811 123.642C94.0091 124.062 94.1231 124.512 94.1231 124.992C94.1231 125.7 93.9491 126.282 93.6011 126.738C93.2531 127.182 92.8151 127.542 92.2871 127.818C92.9711 128.13 93.5171 128.526 93.9251 129.006C94.3451 129.486 94.5551 130.104 94.5551 130.86ZM91.9991 125.208C91.9991 124.704 91.7951 124.284 91.3871 123.948C90.9791 123.6 90.4331 123.426 89.7491 123.426C89.0651 123.426 88.5191 123.6 88.1111 123.948C87.7031 124.284 87.4991 124.698 87.4991 125.19C87.4991 125.754 87.7091 126.21 88.1291 126.558C88.5611 126.906 89.1011 127.08 89.7491 127.08C90.3971 127.08 90.9311 126.906 91.3511 126.558C91.7831 126.21 91.9991 125.76 91.9991 125.208ZM92.3951 130.77C92.3951 130.482 92.3231 130.218 92.1791 129.978C92.0471 129.738 91.8611 129.534 91.6211 129.366C91.3931 129.198 91.1171 129.072 90.7931 128.988C90.4691 128.892 90.1211 128.844 89.7491 128.844C89.3771 128.844 89.0291 128.892 88.7051 128.988C88.3811 129.072 88.0991 129.198 87.8591 129.366C87.6311 129.534 87.4451 129.738 87.3011 129.978C87.1691 130.218 87.1031 130.482 87.1031 130.77C87.1031 131.31 87.3371 131.766 87.8051 132.138C88.2731 132.498 88.9211 132.678 89.7491 132.678C90.5771 132.678 91.2251 132.498 91.6931 132.138C92.1611 131.766 92.3951 131.31 92.3951 130.77ZM105.893 130.86C105.893 131.424 105.773 131.934 105.533 132.39C105.293 132.846 104.957 133.236 104.525 133.56C104.093 133.872 103.583 134.112 102.995 134.28C102.407 134.448 101.771 134.532 101.087 134.532C100.403 134.532 99.767 134.448 99.179 134.28C98.591 134.1 98.081 133.854 97.649 133.542C97.217 133.23 96.881 132.852 96.641 132.408C96.401 131.952 96.281 131.454 96.281 130.914C96.281 130.134 96.479 129.498 96.875 129.006C97.271 128.514 97.829 128.118 98.549 127.818C98.021 127.542 97.583 127.182 97.235 126.738C96.887 126.282 96.713 125.7 96.713 124.992C96.713 124.512 96.821 124.062 97.037 123.642C97.265 123.222 97.571 122.862 97.955 122.562C98.339 122.25 98.795 122.01 99.323 121.842C99.863 121.662 100.451 121.572 101.087 121.572C101.711 121.572 102.293 121.662 102.833 121.842C103.373 122.01 103.835 122.25 104.219 122.562C104.603 122.862 104.903 123.222 105.119 123.642C105.347 124.062 105.461 124.512 105.461 124.992C105.461 125.7 105.287 126.282 104.939 126.738C104.591 127.182 104.153 127.542 103.625 127.818C104.309 128.13 104.855 128.526 105.263 129.006C105.683 129.486 105.893 130.104 105.893 130.86ZM103.337 125.208C103.337 124.704 103.133 124.284 102.725 123.948C102.317 123.6 101.771 123.426 101.087 123.426C100.403 123.426 99.857 123.6 99.449 123.948C99.041 124.284 98.837 124.698 98.837 125.19C98.837 125.754 99.047 126.21 99.467 126.558C99.899 126.906 100.439 127.08 101.087 127.08C101.735 127.08 102.269 126.906 102.689 126.558C103.121 126.21 103.337 125.76 103.337 125.208ZM103.733 130.77C103.733 130.482 103.661 130.218 103.517 129.978C103.385 129.738 103.199 129.534 102.959 129.366C102.731 129.198 102.455 129.072 102.131 128.988C101.807 128.892 101.459 128.844 101.087 128.844C100.715 128.844 100.367 128.892 100.043 128.988C99.719 129.072 99.437 129.198 99.197 129.366C98.969 129.534 98.783 129.738 98.639 129.978C98.507 130.218 98.441 130.482 98.441 130.77C98.441 131.31 98.675 131.766 99.143 132.138C99.611 132.498 100.259 132.678 101.087 132.678C101.915 132.678 102.563 132.498 103.031 132.138C103.499 131.766 103.733 131.31 103.733 130.77ZM117.033 122.94L115.845 124.65C115.401 124.302 114.969 124.032 114.549 123.84C114.141 123.648 113.661 123.552 113.109 123.552C112.641 123.552 112.221 123.654 111.849 123.858C111.489 124.05 111.183 124.326 110.931 124.686C110.679 125.046 110.481 125.472 110.337 125.964C110.193 126.444 110.109 126.972 110.085 127.548C110.253 127.392 110.433 127.236 110.625 127.08C110.817 126.924 111.033 126.792 111.273 126.684C111.525 126.564 111.795 126.468 112.083 126.396C112.383 126.324 112.719 126.288 113.091 126.288C113.703 126.288 114.273 126.378 114.801 126.558C115.341 126.726 115.809 126.984 116.205 127.332C116.613 127.668 116.931 128.082 117.159 128.574C117.387 129.066 117.501 129.63 117.501 130.266C117.501 130.902 117.381 131.484 117.141 132.012C116.901 132.54 116.571 132.996 116.151 133.38C115.731 133.752 115.233 134.046 114.657 134.262C114.093 134.466 113.481 134.568 112.821 134.568C112.041 134.568 111.363 134.454 110.787 134.226C110.223 133.998 109.731 133.674 109.311 133.254C109.071 133.014 108.855 132.75 108.663 132.462C108.471 132.162 108.309 131.82 108.177 131.436C108.045 131.04 107.943 130.596 107.871 130.104C107.811 129.612 107.781 129.048 107.781 128.412C107.781 127.44 107.895 126.54 108.123 125.712C108.351 124.872 108.687 124.146 109.131 123.534C109.587 122.91 110.151 122.424 110.823 122.076C111.507 121.716 112.293 121.536 113.181 121.536C113.997 121.536 114.705 121.662 115.305 121.914C115.905 122.154 116.481 122.496 117.033 122.94ZM115.287 130.356C115.287 129.708 115.053 129.18 114.585 128.772C114.129 128.352 113.505 128.142 112.713 128.142C112.317 128.142 111.963 128.202 111.651 128.322C111.339 128.442 111.069 128.604 110.841 128.808C110.625 129 110.457 129.234 110.337 129.51C110.217 129.786 110.157 130.074 110.157 130.374C110.157 131.034 110.391 131.58 110.859 132.012C111.339 132.444 111.975 132.66 112.767 132.66C113.559 132.66 114.177 132.444 114.621 132.012C115.065 131.568 115.287 131.016 115.287 130.356Z" fill="white"/>
<path d="M5.77952 242.742L9.16352 241.662H10.7115V254.352H8.51552V243.912L6.24752 244.542L5.77952 242.742ZM22.7262 242.94L21.5382 244.65C21.0942 244.302 20.6622 244.032 20.2422 243.84C19.8342 243.648 19.3542 243.552 18.8022 243.552C18.3342 243.552 17.9142 243.654 17.5422 243.858C17.1822 244.05 16.8762 244.326 16.6242 244.686C16.3722 245.046 16.1742 245.472 16.0302 245.964C15.8862 246.444 15.8022 246.972 15.7782 247.548C15.9462 247.392 16.1262 247.236 16.3182 247.08C16.5102 246.924 16.7262 246.792 16.9662 246.684C17.2182 246.564 17.4882 246.468 17.7762 246.396C18.0762 246.324 18.4122 246.288 18.7842 246.288C19.3962 246.288 19.9662 246.378 20.4942 246.558C21.0342 246.726 21.5022 246.984 21.8982 247.332C22.3062 247.668 22.6242 248.082 22.8522 248.574C23.0802 249.066 23.1942 249.63 23.1942 250.266C23.1942 250.902 23.0742 251.484 22.8342 252.012C22.5942 252.54 22.2642 252.996 21.8442 253.38C21.4242 253.752 20.9262 254.046 20.3502 254.262C19.7862 254.466 19.1742 254.568 18.5142 254.568C17.7342 254.568 17.0562 254.454 16.4802 254.226C15.9162 253.998 15.4242 253.674 15.0042 253.254C14.7642 253.014 14.5482 252.75 14.3562 252.462C14.1642 252.162 14.0022 251.82 13.8702 251.436C13.7382 251.04 13.6362 250.596 13.5642 250.104C13.5042 249.612 13.4742 249.048 13.4742 248.412C13.4742 247.44 13.5882 246.54 13.8162 245.712C14.0442 244.872 14.3802 244.146 14.8242 243.534C15.2802 242.91 15.8442 242.424 16.5162 242.076C17.2002 241.716 17.9862 241.536 18.8742 241.536C19.6902 241.536 20.3982 241.662 20.9982 241.914C21.5982 242.154 22.1742 242.496 22.7262 242.94ZM20.9802 250.356C20.9802 249.708 20.7462 249.18 20.2782 248.772C19.8222 248.352 19.1982 248.142 18.4062 248.142C18.0102 248.142 17.6562 248.202 17.3442 248.322C17.0322 248.442 16.7622 248.604 16.5342 248.808C16.3182 249 16.1502 249.234 16.0302 249.51C15.9102 249.786 15.8502 250.074 15.8502 250.374C15.8502 251.034 16.0842 251.58 16.5522 252.012C17.0322 252.444 17.6682 252.66 18.4602 252.66C19.2522 252.66 19.8702 252.444 20.3142 252.012C20.7582 251.568 20.9802 251.016 20.9802 250.356ZM24.8727 256.044C25.9767 255.828 26.4867 255.264 26.4027 254.352H25.4847V251.886H27.8787V253.974C27.8787 254.982 27.6447 255.714 27.1767 256.17C26.7087 256.626 26.0187 256.89 25.1067 256.962L24.8727 256.044ZM36.7447 241.662H38.6347V249.708H40.4347V251.526H38.6347V254.352H36.5107V251.526H30.1567L29.7427 249.942L36.7447 241.662ZM36.5107 249.708V244.722L32.3707 249.708H36.5107ZM51.9529 247.692C51.9529 248.712 51.8269 249.642 51.5749 250.482C51.3349 251.322 50.9809 252.048 50.5129 252.66C50.0569 253.26 49.4929 253.728 48.8209 254.064C48.1489 254.4 47.3929 254.568 46.5529 254.568C45.6769 254.568 44.9209 254.43 44.2849 254.154C43.6489 253.866 43.0609 253.5 42.5209 253.056L43.7269 251.364C44.2069 251.772 44.6689 252.072 45.1129 252.264C45.5689 252.456 46.0669 252.552 46.6069 252.552C47.0749 252.552 47.4889 252.456 47.8489 252.264C48.2209 252.072 48.5329 251.802 48.7849 251.454C49.0489 251.094 49.2529 250.674 49.3969 250.194C49.5409 249.702 49.6249 249.168 49.6489 248.592C49.3369 248.976 48.9349 249.294 48.4429 249.546C47.9629 249.798 47.3809 249.924 46.6969 249.924C46.0249 249.924 45.4129 249.834 44.8609 249.654C44.3209 249.462 43.8529 249.192 43.4569 248.844C43.0729 248.484 42.7729 248.058 42.5569 247.566C42.3409 247.074 42.2329 246.522 42.2329 245.91C42.2329 245.286 42.3469 244.71 42.5749 244.182C42.8029 243.642 43.1209 243.18 43.5289 242.796C43.9489 242.4 44.4469 242.094 45.0229 241.878C45.5989 241.65 46.2349 241.536 46.9309 241.536C47.7229 241.536 48.3889 241.65 48.9289 241.878C49.4809 242.094 49.9789 242.424 50.4229 242.868C50.8909 243.336 51.2629 243.948 51.5389 244.704C51.8149 245.448 51.9529 246.444 51.9529 247.692ZM49.5769 245.784C49.5769 245.448 49.5109 245.142 49.3789 244.866C49.2589 244.578 49.0849 244.332 48.8569 244.128C48.6289 243.912 48.3529 243.744 48.0289 243.624C47.7049 243.504 47.3449 243.444 46.9489 243.444C46.1569 243.444 45.5389 243.672 45.0949 244.128C44.6629 244.584 44.4469 245.142 44.4469 245.802C44.4469 246.474 44.6749 247.02 45.1309 247.44C45.5989 247.86 46.2289 248.07 47.0209 248.07C47.4169 248.07 47.7709 248.01 48.0829 247.89C48.4069 247.77 48.6769 247.608 48.8929 247.404C49.1209 247.188 49.2889 246.942 49.3969 246.666C49.5169 246.39 49.5769 246.096 49.5769 245.784ZM53.9437 243.696V241.752H62.7997V243.426L57.1117 254.352H54.6277L60.2797 243.696H53.9437Z" fill="white"/>
<path d="M55.8362 427.742L59.2202 426.662H60.7682V439.352H58.5722V428.912L56.3042 429.542L55.8362 427.742ZM63.7289 428.696V426.752H72.5849V428.426L66.8969 439.352H64.4129L70.0649 428.696H63.7289ZM72.2927 441.044C73.3967 440.828 73.9067 440.264 73.8227 439.352H72.9047V436.886H75.2987V438.974C75.2987 439.982 75.0647 440.714 74.5967 441.17C74.1287 441.626 73.4387 441.89 72.5267 441.962L72.2927 441.044ZM77.3871 428.696V426.752H86.2431V428.426L80.5551 439.352H78.0711L83.7231 428.696H77.3871ZM97.0583 427.94L95.8703 429.65C95.4263 429.302 94.9943 429.032 94.5743 428.84C94.1663 428.648 93.6863 428.552 93.1343 428.552C92.6663 428.552 92.2463 428.654 91.8743 428.858C91.5143 429.05 91.2083 429.326 90.9563 429.686C90.7043 430.046 90.5063 430.472 90.3623 430.964C90.2183 431.444 90.1343 431.972 90.1103 432.548C90.2783 432.392 90.4583 432.236 90.6503 432.08C90.8423 431.924 91.0583 431.792 91.2983 431.684C91.5503 431.564 91.8203 431.468 92.1083 431.396C92.4083 431.324 92.7443 431.288 93.1163 431.288C93.7283 431.288 94.2983 431.378 94.8263 431.558C95.3663 431.726 95.8343 431.984 96.2303 432.332C96.6383 432.668 96.9563 433.082 97.1843 433.574C97.4123 434.066 97.5263 434.63 97.5263 435.266C97.5263 435.902 97.4063 436.484 97.1663 437.012C96.9263 437.54 96.5963 437.996 96.1763 438.38C95.7563 438.752 95.2583 439.046 94.6823 439.262C94.1183 439.466 93.5063 439.568 92.8463 439.568C92.0663 439.568 91.3883 439.454 90.8123 439.226C90.2483 438.998 89.7563 438.674 89.3363 438.254C89.0963 438.014 88.8803 437.75 88.6883 437.462C88.4963 437.162 88.3343 436.82 88.2023 436.436C88.0703 436.04 87.9683 435.596 87.8963 435.104C87.8363 434.612 87.8063 434.048 87.8063 433.412C87.8063 432.44 87.9203 431.54 88.1483 430.712C88.3763 429.872 88.7123 429.146 89.1563 428.534C89.6123 427.91 90.1763 427.424 90.8483 427.076C91.5323 426.716 92.3183 426.536 93.2063 426.536C94.0223 426.536 94.7303 426.662 95.3303 426.914C95.9303 427.154 96.5063 427.496 97.0583 427.94ZM95.3123 435.356C95.3123 434.708 95.0783 434.18 94.6103 433.772C94.1543 433.352 93.5303 433.142 92.7383 433.142C92.3423 433.142 91.9883 433.202 91.6763 433.322C91.3643 433.442 91.0943 433.604 90.8663 433.808C90.6503 434 90.4823 434.234 90.3623 434.51C90.2423 434.786 90.1823 435.074 90.1823 435.374C90.1823 436.034 90.4163 436.58 90.8843 437.012C91.3643 437.444 92.0003 437.66 92.7923 437.66C93.5843 437.66 94.2023 437.444 94.6463 437.012C95.0903 436.568 95.3123 436.016 95.3123 435.356ZM104.137 428.552C103.561 428.552 103.051 428.708 102.607 429.02C102.175 429.332 101.713 429.806 101.221 430.442L99.6548 429.218C99.9548 428.798 100.261 428.426 100.573 428.102C100.885 427.766 101.221 427.49 101.581 427.274C101.953 427.046 102.355 426.872 102.787 426.752C103.231 426.632 103.735 426.572 104.299 426.572C104.923 426.572 105.493 426.662 106.009 426.842C106.525 427.022 106.963 427.28 107.323 427.616C107.683 427.952 107.959 428.354 108.151 428.822C108.355 429.278 108.457 429.788 108.457 430.352C108.457 430.856 108.391 431.306 108.259 431.702C108.127 432.098 107.923 432.482 107.647 432.854C107.383 433.226 107.041 433.604 106.621 433.988C106.213 434.372 105.733 434.792 105.181 435.248L102.589 437.408H108.583V439.352H99.4748V437.606L103.813 433.916C104.245 433.556 104.611 433.232 104.911 432.944C105.211 432.644 105.451 432.362 105.631 432.098C105.823 431.834 105.961 431.576 106.045 431.324C106.129 431.072 106.171 430.802 106.171 430.514C106.171 429.89 105.973 429.41 105.577 429.074C105.193 428.726 104.713 428.552 104.137 428.552Z" fill="white"/>
<path d="M283.783 288.624L187.262 128.117C216.984 110.259 249.129 101.352 283.783 101.352V288.624Z" fill="#E4E589"/>
<path d="M283.784 288.624L181.725 131.576C183.628 130.322 185.315 129.285 187.262 128.117L283.784 288.668V288.624Z" fill="#63AB88"/>
<path d="M181.724 131.576C182.243 131.231 181.205 131.922 181.724 131.576Z" fill="#606060"/>
<path d="M283.782 288.622L173.633 137.109C175.75 135.594 175.891 135.541 177.924 134.154L283.782 288.622Z" fill="#9E92B4"/>
<path d="M282.453 286.017L177.82 134.213C179.836 132.813 179.913 132.767 181.732 131.58L282.453 286.017Z" fill="#9BB7E0"/>
<path d="M283.783 288.625L130.283 181.216C143.003 163.099 155.722 150.127 173.633 137.111L283.783 288.625Z" fill="#008937"/>
<path d="M283.783 288.623L99.8255 324.383C89.6585 272.192 99.739 224.758 130.283 181.215L283.783 288.623Z" fill="#9AA613"/>
<path d="M283.783 288.625L192.93 452.419C142.874 424.702 110.772 380.51 99.8262 324.385L283.783 288.668V288.625Z" fill="#4EE8BA"/>
<path d="M283.783 288.625L195.828 453.975C194.746 453.413 194.054 453.024 192.973 452.419L283.826 288.625H283.783Z" fill="#CD94B9"/>
<path d="M283.783 288.625L198.727 455.489C198.727 455.489 196.001 454.062 195.828 453.975L283.783 288.625Z" fill="#DFDFDF"/>
<path d="M283.783 288.624V101.352C387.27 101.352 471.158 185.194 471.158 288.624C471.158 392.055 387.27 475.897 283.783 475.897C251.811 475.897 227.194 469.974 198.727 455.488L283.783 288.624Z" fill="#C9D63F"/>
<circle cx="283.272" cy="288.624" r="124.354" fill="#F7F7F7"/>
</svg>
