<svg width="488" height="566" viewBox="0 0 488 566" fill="none" xmlns="http://www.w3.org/2000/svg">
<path d="M79 194L79 187" stroke="black" stroke-dasharray="2 2"/>
<path d="M79 294L79 286" stroke="black" stroke-dasharray="2 2"/>
<path d="M79 394L79 386" stroke="black" stroke-dasharray="2 2"/>
<path d="M80 494L80 486" stroke="black" stroke-dasharray="2 2"/>
<path d="M374 194L374 186" stroke="black" stroke-dasharray="2 2"/>
<path d="M330 294L330 286" stroke="black" stroke-dasharray="2 2"/>
<path d="M299 394L299 386" stroke="black" stroke-dasharray="2 2"/>
<path d="M277 494L277 486" stroke="black" stroke-dasharray="2 2"/>
<path d="M441 294C444.866 294 448 297.134 448 301L448 320L76 320L76 294L441 294Z" fill="#9AA613"/>
<path d="M401 394C404.866 394 408 397.134 408 401L408 420L76 420L76 394L401 394Z" fill="#9AA613"/>
<path d="M366 494C369.866 494 373 497.134 373 501L373 520L76 520L76 494L366 494Z" fill="#9AA613"/>
<path d="M481 194C484.866 194 488 197.134 488 201L488 220L79 220L79 194L481 194Z" fill="#9AA613"/>
<path d="M93 294C96.866 294 100 297.134 100 301L100 320L61 320L61 294L93 294Z" fill="#C9D63F"/>
<path d="M89 394C92.866 394 96 397.134 96 401L96 420L61 420L61 394L89 394Z" fill="#C9D63F"/>
<path d="M92 494C95.866 494 99 497.134 99 501L99 520L61 520L61 494L92 494Z" fill="#C9D63F"/>
<rect x="64" y="152" width="62" height="27" rx="7" fill="#C9D63F"/>
<rect x="64" y="252" width="62" height="27" rx="7" fill="#C9D63F"/>
<rect x="64" y="352" width="62" height="27" rx="7" fill="#C9D63F"/>
<rect x="64" y="452" width="62" height="27" rx="7" fill="#C9D63F"/>
<path d="M95 194C98.866 194 102 197.134 102 201L102 220L61 220L61 194L95 194Z" fill="#C9D63F"/>
<rect x="317" y="152" width="115" height="27" rx="7" fill="#9AA613"/>
<rect x="273" y="252" width="115" height="27" rx="7" fill="#9AA613"/>
<rect x="245" y="352" width="110" height="27" rx="7" fill="#9AA613"/>
<rect x="224" y="452" width="107" height="27" rx="7" fill="#9AA613"/>
<path d="M79.2485 159.624L78.4205 160.722C77.9525 160.326 77.4845 160.02 77.0165 159.804C76.5485 159.588 76.0265 159.48 75.4505 159.48C74.8745 159.48 74.3585 159.618 73.9025 159.894C73.4465 160.17 73.0565 160.554 72.7325 161.046C72.4205 161.538 72.1805 162.126 72.0125 162.81C71.8445 163.482 71.7605 164.226 71.7605 165.042C71.9285 164.79 72.1205 164.55 72.3365 164.322C72.5645 164.082 72.8225 163.878 73.1105 163.71C73.4105 163.53 73.7405 163.386 74.1005 163.278C74.4725 163.17 74.8865 163.116 75.3425 163.116C75.9305 163.116 76.4885 163.206 77.0165 163.386C77.5445 163.566 78.0065 163.83 78.4025 164.178C78.7985 164.514 79.1105 164.922 79.3385 165.402C79.5785 165.882 79.6985 166.416 79.6985 167.004C79.6985 167.616 79.5785 168.18 79.3385 168.696C79.1105 169.212 78.7925 169.656 78.3845 170.028C77.9885 170.4 77.5145 170.694 76.9625 170.91C76.4105 171.114 75.8165 171.216 75.1805 171.216C74.4845 171.216 73.8545 171.102 73.2905 170.874C72.7385 170.646 72.2645 170.334 71.8685 169.938C71.6165 169.686 71.3885 169.41 71.1845 169.11C70.9925 168.81 70.8305 168.468 70.6985 168.084C70.5665 167.7 70.4645 167.262 70.3925 166.77C70.3205 166.266 70.2845 165.69 70.2845 165.042C70.2845 164.082 70.3985 163.188 70.6265 162.36C70.8665 161.52 71.2085 160.794 71.6525 160.182C72.1085 159.558 72.6605 159.072 73.3085 158.724C73.9565 158.364 74.6945 158.184 75.5225 158.184C76.2785 158.184 76.9505 158.31 77.5385 158.562C78.1265 158.814 78.6965 159.168 79.2485 159.624ZM78.2405 167.058C78.2405 166.662 78.1625 166.302 78.0065 165.978C77.8625 165.642 77.6525 165.354 77.3765 165.114C77.1125 164.874 76.7885 164.688 76.4045 164.556C76.0325 164.412 75.6185 164.34 75.1625 164.34C74.6945 164.34 74.2625 164.418 73.8665 164.574C73.4825 164.73 73.1525 164.94 72.8765 165.204C72.6005 165.456 72.3845 165.75 72.2285 166.086C72.0845 166.41 72.0125 166.752 72.0125 167.112C72.0125 167.52 72.0905 167.898 72.2465 168.246C72.4025 168.594 72.6185 168.894 72.8945 169.146C73.1825 169.398 73.5185 169.596 73.9025 169.74C74.2985 169.884 74.7305 169.956 75.1985 169.956C75.6665 169.956 76.0865 169.884 76.4585 169.74C76.8305 169.584 77.1485 169.38 77.4125 169.128C77.6765 168.864 77.8805 168.558 78.0245 168.21C78.1685 167.85 78.2405 167.466 78.2405 167.058ZM81.6688 172.566C82.1248 172.398 82.4488 172.188 82.6408 171.936C82.8328 171.696 82.9108 171.384 82.8748 171H82.2268V169.11H83.8828V170.73C83.8828 171.462 83.7208 172.014 83.3968 172.386C83.0728 172.77 82.5688 173.04 81.8848 173.196L81.6688 172.566ZM92.9749 159.678H86.8189V158.4H94.8649V159.444L90.9049 163.836C91.4569 163.884 91.9849 163.986 92.4889 164.142C92.9929 164.298 93.4309 164.52 93.8029 164.808C94.1869 165.096 94.4929 165.456 94.7209 165.888C94.9489 166.32 95.0629 166.824 95.0629 167.4C95.0629 167.964 94.9489 168.48 94.7209 168.948C94.5049 169.416 94.2049 169.818 93.8209 170.154C93.4489 170.49 93.0049 170.754 92.4889 170.946C91.9849 171.126 91.4389 171.216 90.8509 171.216C89.7949 171.216 88.8769 171.012 88.0969 170.604C87.3169 170.184 86.6689 169.638 86.1529 168.966L87.1789 168.048C87.6709 168.648 88.2109 169.11 88.7989 169.434C89.3989 169.758 90.0889 169.92 90.8689 169.92C91.2529 169.92 91.6129 169.866 91.9489 169.758C92.2849 169.638 92.5729 169.47 92.8129 169.254C93.0649 169.038 93.2629 168.78 93.4069 168.48C93.5509 168.168 93.6229 167.826 93.6229 167.454C93.6229 166.662 93.2929 166.056 92.6329 165.636C91.9849 165.216 91.1389 165.006 90.0949 165.006H89.2849L88.9969 164.16L92.9749 159.678ZM106.354 159.624L105.526 160.722C105.058 160.326 104.59 160.02 104.122 159.804C103.654 159.588 103.132 159.48 102.556 159.48C101.98 159.48 101.464 159.618 101.008 159.894C100.552 160.17 100.162 160.554 99.838 161.046C99.526 161.538 99.286 162.126 99.118 162.81C98.95 163.482 98.866 164.226 98.866 165.042C99.034 164.79 99.226 164.55 99.442 164.322C99.67 164.082 99.928 163.878 100.216 163.71C100.516 163.53 100.846 163.386 101.206 163.278C101.578 163.17 101.992 163.116 102.448 163.116C103.036 163.116 103.594 163.206 104.122 163.386C104.65 163.566 105.112 163.83 105.508 164.178C105.904 164.514 106.216 164.922 106.444 165.402C106.684 165.882 106.804 166.416 106.804 167.004C106.804 167.616 106.684 168.18 106.444 168.696C106.216 169.212 105.898 169.656 105.49 170.028C105.094 170.4 104.62 170.694 104.068 170.91C103.516 171.114 102.922 171.216 102.286 171.216C101.59 171.216 100.96 171.102 100.396 170.874C99.844 170.646 99.37 170.334 98.974 169.938C98.722 169.686 98.494 169.41 98.29 169.11C98.098 168.81 97.936 168.468 97.804 168.084C97.672 167.7 97.57 167.262 97.498 166.77C97.426 166.266 97.39 165.69 97.39 165.042C97.39 164.082 97.504 163.188 97.732 162.36C97.972 161.52 98.314 160.794 98.758 160.182C99.214 159.558 99.766 159.072 100.414 158.724C101.062 158.364 101.8 158.184 102.628 158.184C103.384 158.184 104.056 158.31 104.644 158.562C105.232 158.814 105.802 159.168 106.354 159.624ZM105.346 167.058C105.346 166.662 105.268 166.302 105.112 165.978C104.968 165.642 104.758 165.354 104.482 165.114C104.218 164.874 103.894 164.688 103.51 164.556C103.138 164.412 102.724 164.34 102.268 164.34C101.8 164.34 101.368 164.418 100.972 164.574C100.588 164.73 100.258 164.94 99.982 165.204C99.706 165.456 99.49 165.75 99.334 166.086C99.19 166.41 99.118 166.752 99.118 167.112C99.118 167.52 99.196 167.898 99.352 168.246C99.508 168.594 99.724 168.894 100 169.146C100.288 169.398 100.624 169.596 101.008 169.74C101.404 169.884 101.836 169.956 102.304 169.956C102.772 169.956 103.192 169.884 103.564 169.74C103.936 169.584 104.254 169.38 104.518 169.128C104.782 168.864 104.986 168.558 105.13 168.21C105.274 167.85 105.346 167.466 105.346 167.058ZM119.7 164.682C119.7 165.57 119.574 166.41 119.322 167.202C119.07 167.994 118.71 168.69 118.242 169.29C117.786 169.878 117.228 170.346 116.568 170.694C115.908 171.042 115.176 171.216 114.372 171.216C113.556 171.216 112.818 171.048 112.158 170.712C111.51 170.364 110.952 169.896 110.484 169.308C110.028 168.708 109.674 168.018 109.422 167.238C109.182 166.446 109.062 165.606 109.062 164.718C109.062 163.83 109.188 162.99 109.44 162.198C109.692 161.406 110.046 160.716 110.502 160.128C110.97 159.528 111.534 159.054 112.194 158.706C112.854 158.358 113.592 158.184 114.408 158.184C115.212 158.184 115.938 158.358 116.586 158.706C117.246 159.042 117.804 159.51 118.26 160.11C118.728 160.698 119.082 161.388 119.322 162.18C119.574 162.96 119.7 163.794 119.7 164.682ZM118.224 164.718C118.224 164.022 118.134 163.362 117.954 162.738C117.774 162.102 117.516 161.544 117.18 161.064C116.844 160.584 116.436 160.2 115.956 159.912C115.488 159.624 114.96 159.48 114.372 159.48C113.784 159.48 113.25 159.624 112.77 159.912C112.302 160.188 111.9 160.566 111.564 161.046C111.24 161.514 110.988 162.066 110.808 162.702C110.628 163.326 110.538 163.986 110.538 164.682C110.538 165.378 110.628 166.044 110.808 166.68C110.988 167.316 111.246 167.874 111.582 168.354C111.918 168.834 112.326 169.218 112.806 169.506C113.286 169.782 113.82 169.92 114.408 169.92C114.996 169.92 115.524 169.782 115.992 169.506C116.472 169.218 116.874 168.84 117.198 168.372C117.534 167.892 117.786 167.34 117.954 166.716C118.134 166.08 118.224 165.414 118.224 164.718Z" fill="#151515"/>
<path d="M71.1023 264.538L71.4623 258.4H78.7163V259.714H72.7043L72.4343 263.746C72.8063 263.578 73.1783 263.446 73.5503 263.35C73.9343 263.242 74.3903 263.188 74.9183 263.188C75.5303 263.188 76.1003 263.278 76.6283 263.458C77.1563 263.638 77.6183 263.896 78.0143 264.232C78.4103 264.556 78.7163 264.958 78.9323 265.438C79.1603 265.918 79.2743 266.458 79.2743 267.058C79.2743 267.682 79.1603 268.252 78.9323 268.768C78.7163 269.272 78.4103 269.71 78.0143 270.082C77.6183 270.442 77.1443 270.724 76.5923 270.928C76.0403 271.12 75.4343 271.216 74.7743 271.216C73.8743 271.216 73.0403 271.03 72.2723 270.658C71.5163 270.274 70.8503 269.794 70.2743 269.218L71.2103 268.192C71.7623 268.732 72.3323 269.158 72.9203 269.47C73.5203 269.77 74.1443 269.92 74.7923 269.92C75.2363 269.92 75.6443 269.854 76.0163 269.722C76.4003 269.578 76.7243 269.38 76.9883 269.128C77.2523 268.876 77.4563 268.582 77.6003 268.246C77.7563 267.898 77.8343 267.52 77.8343 267.112C77.8343 266.716 77.7563 266.356 77.6003 266.032C77.4563 265.708 77.2463 265.432 76.9703 265.204C76.6943 264.964 76.3643 264.778 75.9803 264.646C75.5963 264.514 75.1703 264.448 74.7023 264.448C74.1623 264.448 73.6763 264.52 73.2443 264.664C72.8243 264.796 72.4283 264.964 72.0563 265.168L71.1023 264.538ZM81.1698 272.566C81.6258 272.398 81.9498 272.188 82.1418 271.936C82.3338 271.696 82.4118 271.384 82.3758 271H81.7278V269.11H83.3838V270.73C83.3838 271.462 83.2218 272.014 82.8978 272.386C82.5738 272.77 82.0698 273.04 81.3858 273.196L81.1698 272.566ZM95.1579 267.58C95.1579 268.12 95.0379 268.612 94.7979 269.056C94.5579 269.5 94.2219 269.878 93.7899 270.19C93.3699 270.502 92.8719 270.748 92.2959 270.928C91.7199 271.096 91.0959 271.18 90.4239 271.18C89.7519 271.18 89.1279 271.096 88.5519 270.928C87.9759 270.748 87.4719 270.502 87.0399 270.19C86.6199 269.878 86.2899 269.5 86.0499 269.056C85.8099 268.612 85.6899 268.126 85.6899 267.598C85.6899 266.842 85.9299 266.206 86.4099 265.69C86.9019 265.162 87.5259 264.76 88.2819 264.484C87.9939 264.352 87.7179 264.196 87.4539 264.016C87.1899 263.824 86.9559 263.614 86.7519 263.386C86.5599 263.146 86.4039 262.876 86.2839 262.576C86.1759 262.276 86.1219 261.94 86.1219 261.568C86.1219 261.076 86.2359 260.626 86.4639 260.218C86.7039 259.81 87.0159 259.456 87.3999 259.156C87.7959 258.856 88.2519 258.628 88.7679 258.472C89.2959 258.304 89.8479 258.22 90.4239 258.22C90.9999 258.22 91.5459 258.304 92.0619 258.472C92.5899 258.628 93.0459 258.856 93.4299 259.156C93.8259 259.456 94.1379 259.81 94.3659 260.218C94.6059 260.626 94.7259 261.076 94.7259 261.568C94.7259 261.94 94.6659 262.276 94.5459 262.576C94.4379 262.876 94.2819 263.146 94.0779 263.386C93.8859 263.614 93.6579 263.824 93.3939 264.016C93.1299 264.196 92.8539 264.352 92.5659 264.484C93.3219 264.76 93.9399 265.156 94.4199 265.672C94.9119 266.188 95.1579 266.824 95.1579 267.58ZM93.3039 261.658C93.3039 261.346 93.2319 261.058 93.0879 260.794C92.9439 260.518 92.7399 260.284 92.4759 260.092C92.2239 259.888 91.9179 259.732 91.5579 259.624C91.2099 259.516 90.8319 259.462 90.4239 259.462C90.0159 259.462 89.6319 259.516 89.2719 259.624C88.9239 259.732 88.6179 259.888 88.3539 260.092C88.1019 260.284 87.9039 260.512 87.7599 260.776C87.6159 261.04 87.5439 261.334 87.5439 261.658C87.5439 262.006 87.6159 262.324 87.7599 262.612C87.9159 262.888 88.1199 263.128 88.3719 263.332C88.6359 263.536 88.9419 263.698 89.2899 263.818C89.6499 263.926 90.0279 263.98 90.4239 263.98C90.8199 263.98 91.1919 263.926 91.5399 263.818C91.8999 263.698 92.2059 263.536 92.4579 263.332C92.7219 263.128 92.9259 262.888 93.0699 262.612C93.2259 262.324 93.3039 262.006 93.3039 261.658ZM93.7179 267.562C93.7179 267.202 93.6279 266.878 93.4479 266.59C93.2799 266.29 93.0459 266.038 92.7459 265.834C92.4579 265.618 92.1099 265.45 91.7019 265.33C91.3059 265.21 90.8799 265.15 90.4239 265.15C89.9679 265.15 89.5359 265.21 89.1279 265.33C88.7319 265.45 88.3839 265.618 88.0839 265.834C87.7839 266.038 87.5499 266.29 87.3819 266.59C87.2139 266.878 87.1299 267.202 87.1299 267.562C87.1299 267.886 87.2019 268.192 87.3459 268.48C87.5019 268.768 87.7179 269.02 87.9939 269.236C88.2819 269.452 88.6299 269.626 89.0379 269.758C89.4459 269.878 89.9079 269.938 90.4239 269.938C90.9399 269.938 91.4019 269.878 91.8099 269.758C92.2179 269.626 92.5599 269.452 92.8359 269.236C93.1239 269.02 93.3399 268.768 93.4839 268.48C93.6399 268.192 93.7179 267.886 93.7179 267.562ZM97.8738 264.538L98.2338 258.4H105.488V259.714H99.4758L99.2058 263.746C99.5778 263.578 99.9498 263.446 100.322 263.35C100.706 263.242 101.162 263.188 101.69 263.188C102.302 263.188 102.872 263.278 103.4 263.458C103.928 263.638 104.39 263.896 104.786 264.232C105.182 264.556 105.488 264.958 105.704 265.438C105.932 265.918 106.046 266.458 106.046 267.058C106.046 267.682 105.932 268.252 105.704 268.768C105.488 269.272 105.182 269.71 104.786 270.082C104.39 270.442 103.916 270.724 103.364 270.928C102.812 271.12 102.206 271.216 101.546 271.216C100.646 271.216 99.8118 271.03 99.0438 270.658C98.2878 270.274 97.6218 269.794 97.0458 269.218L97.9818 268.192C98.5338 268.732 99.1038 269.158 99.6918 269.47C100.292 269.77 100.916 269.92 101.564 269.92C102.008 269.92 102.416 269.854 102.788 269.722C103.172 269.578 103.496 269.38 103.76 269.128C104.024 268.876 104.228 268.582 104.372 268.246C104.528 267.898 104.606 267.52 104.606 267.112C104.606 266.716 104.528 266.356 104.372 266.032C104.228 265.708 104.018 265.432 103.742 265.204C103.466 264.964 103.136 264.778 102.752 264.646C102.368 264.514 101.942 264.448 101.474 264.448C100.934 264.448 100.448 264.52 100.016 264.664C99.5958 264.796 99.1998 264.964 98.8278 265.168L97.8738 264.538ZM117.573 264.376C117.573 265.384 117.447 266.308 117.195 267.148C116.943 267.976 116.583 268.696 116.115 269.308C115.659 269.908 115.107 270.376 114.459 270.712C113.823 271.048 113.115 271.216 112.335 271.216C111.507 271.216 110.787 271.072 110.175 270.784C109.563 270.484 108.987 270.112 108.447 269.668L109.275 268.57C109.791 269.026 110.295 269.368 110.787 269.596C111.279 269.812 111.807 269.92 112.371 269.92C112.935 269.92 113.451 269.782 113.919 269.506C114.387 269.23 114.783 268.852 115.107 268.372C115.443 267.88 115.695 267.298 115.863 266.626C116.043 265.942 116.127 265.198 116.115 264.394C115.767 264.946 115.305 265.42 114.729 265.816C114.153 266.212 113.427 266.41 112.551 266.41C111.903 266.41 111.309 266.314 110.769 266.122C110.229 265.93 109.767 265.66 109.383 265.312C108.999 264.964 108.699 264.55 108.483 264.07C108.267 263.59 108.159 263.062 108.159 262.486C108.159 261.886 108.267 261.328 108.483 260.812C108.711 260.284 109.023 259.828 109.419 259.444C109.815 259.048 110.289 258.742 110.841 258.526C111.405 258.298 112.023 258.184 112.695 258.184C113.415 258.184 114.045 258.298 114.585 258.526C115.125 258.754 115.599 259.072 116.007 259.48C116.259 259.732 116.481 260.008 116.673 260.308C116.865 260.608 117.027 260.956 117.159 261.352C117.291 261.736 117.393 262.18 117.465 262.684C117.537 263.176 117.573 263.74 117.573 264.376ZM115.845 262.324C115.845 261.916 115.767 261.538 115.611 261.19C115.455 260.842 115.233 260.542 114.945 260.29C114.669 260.026 114.333 259.822 113.937 259.678C113.541 259.522 113.109 259.444 112.641 259.444C112.173 259.444 111.747 259.528 111.363 259.696C110.991 259.852 110.673 260.068 110.409 260.344C110.157 260.608 109.959 260.92 109.815 261.28C109.683 261.64 109.617 262.018 109.617 262.414C109.617 262.822 109.689 263.194 109.833 263.53C109.989 263.866 110.199 264.16 110.463 264.412C110.739 264.652 111.069 264.844 111.453 264.988C111.837 265.12 112.257 265.186 112.713 265.186C113.193 265.186 113.625 265.108 114.009 264.952C114.405 264.784 114.735 264.568 114.999 264.304C115.275 264.04 115.485 263.734 115.629 263.386C115.773 263.038 115.845 262.684 115.845 262.324Z" fill="#151515"/>
<path d="M77.1608 358.31H78.4028V366.824H80.3648V368.012H78.4028V371H77.0348V368.012H70.3928L70.0328 366.986L77.1608 358.31ZM77.0348 366.824V360.326L71.7428 366.824H77.0348ZM82.163 372.566C82.619 372.398 82.943 372.188 83.135 371.936C83.327 371.696 83.405 371.384 83.369 371H82.721V369.11H84.377V370.73C84.377 371.462 84.215 372.014 83.891 372.386C83.567 372.77 83.063 373.04 82.379 373.196L82.163 372.566ZM86.6195 359.696V358.4H95.1695V359.462L89.4455 371H87.8615L93.5495 359.696H86.6195ZM102.491 358.31H103.733V366.824H105.695V368.012H103.733V371H102.365V368.012H95.7229L95.3629 366.986L102.491 358.31ZM102.365 366.824V360.326L97.0729 366.824H102.365ZM114.567 358.31H115.809V366.824H117.771V368.012H115.809V371H114.441V368.012H107.799L107.439 366.986L114.567 358.31ZM114.441 366.824V360.326L109.149 366.824H114.441Z" fill="#151515"/>
<path d="M70.9578 464.538L71.3178 458.4H78.5718V459.714H72.5598L72.2898 463.746C72.6618 463.578 73.0338 463.446 73.4058 463.35C73.7898 463.242 74.2458 463.188 74.7738 463.188C75.3858 463.188 75.9558 463.278 76.4838 463.458C77.0118 463.638 77.4738 463.896 77.8698 464.232C78.2658 464.556 78.5718 464.958 78.7878 465.438C79.0158 465.918 79.1298 466.458 79.1298 467.058C79.1298 467.682 79.0158 468.252 78.7878 468.768C78.5718 469.272 78.2658 469.71 77.8698 470.082C77.4738 470.442 76.9998 470.724 76.4478 470.928C75.8958 471.12 75.2898 471.216 74.6298 471.216C73.7298 471.216 72.8958 471.03 72.1278 470.658C71.3718 470.274 70.7058 469.794 70.1298 469.218L71.0658 468.192C71.6178 468.732 72.1878 469.158 72.7758 469.47C73.3758 469.77 73.9998 469.92 74.6478 469.92C75.0918 469.92 75.4998 469.854 75.8718 469.722C76.2558 469.578 76.5798 469.38 76.8438 469.128C77.1078 468.876 77.3118 468.582 77.4558 468.246C77.6118 467.898 77.6898 467.52 77.6898 467.112C77.6898 466.716 77.6118 466.356 77.4558 466.032C77.3118 465.708 77.1018 465.432 76.8258 465.204C76.5498 464.964 76.2198 464.778 75.8358 464.646C75.4518 464.514 75.0258 464.448 74.5578 464.448C74.0178 464.448 73.5318 464.52 73.0998 464.664C72.6798 464.796 72.2838 464.964 71.9118 465.168L70.9578 464.538ZM81.0253 472.566C81.4813 472.398 81.8053 472.188 81.9973 471.936C82.1893 471.696 82.2673 471.384 82.2313 471H81.5833V469.11H83.2393V470.73C83.2393 471.462 83.0773 472.014 82.7533 472.386C82.4293 472.77 81.9253 473.04 81.2413 473.196L81.0253 472.566ZM92.3314 459.678H86.1754V458.4H94.2214V459.444L90.2614 463.836C90.8134 463.884 91.3414 463.986 91.8454 464.142C92.3494 464.298 92.7874 464.52 93.1594 464.808C93.5434 465.096 93.8494 465.456 94.0774 465.888C94.3054 466.32 94.4194 466.824 94.4194 467.4C94.4194 467.964 94.3054 468.48 94.0774 468.948C93.8614 469.416 93.5614 469.818 93.1774 470.154C92.8054 470.49 92.3614 470.754 91.8454 470.946C91.3414 471.126 90.7954 471.216 90.2074 471.216C89.1514 471.216 88.2334 471.012 87.4534 470.604C86.6734 470.184 86.0254 469.638 85.5094 468.966L86.5354 468.048C87.0274 468.648 87.5674 469.11 88.1554 469.434C88.7554 469.758 89.4454 469.92 90.2254 469.92C90.6094 469.92 90.9694 469.866 91.3054 469.758C91.6414 469.638 91.9294 469.47 92.1694 469.254C92.4214 469.038 92.6194 468.78 92.7634 468.48C92.9074 468.168 92.9794 467.826 92.9794 467.454C92.9794 466.662 92.6494 466.056 91.9894 465.636C91.3414 465.216 90.4954 465.006 89.4514 465.006H88.6414L88.3534 464.16L92.3314 459.678ZM103.55 458.31H104.792V466.824H106.754V468.012H104.792V471H103.424V468.012H96.7824L96.4224 466.986L103.55 458.31ZM103.424 466.824V460.326L98.1324 466.824H103.424ZM107.877 459.372L110.955 458.31H111.999V471H110.595V459.786L108.219 460.524L107.877 459.372Z" fill="#151515"/>
<path d="M11.1661 200.4V201.714H3.53408V206.214H10.3561V207.51H3.53408V213H2.11208V200.4H11.1661ZM19.3066 207.996V213H17.8666V208.014L12.6286 200.4H14.3566L18.6046 206.7L22.8886 200.4H24.5446L19.3066 207.996ZM30.5533 201.498C29.8333 201.498 29.2153 201.684 28.6993 202.056C28.1833 202.416 27.6733 202.95 27.1693 203.658L26.1253 202.902C26.4133 202.482 26.7073 202.104 27.0073 201.768C27.3073 201.432 27.6313 201.15 27.9793 200.922C28.3393 200.694 28.7353 200.52 29.1673 200.4C29.6113 200.28 30.1093 200.22 30.6613 200.22C31.2373 200.22 31.7593 200.31 32.2273 200.49C32.7073 200.67 33.1213 200.922 33.4693 201.246C33.8173 201.558 34.0873 201.936 34.2793 202.38C34.4713 202.812 34.5673 203.286 34.5673 203.802C34.5673 204.27 34.5013 204.696 34.3693 205.08C34.2493 205.464 34.0573 205.848 33.7933 206.232C33.5293 206.604 33.1993 206.994 32.8033 207.402C32.4073 207.798 31.9333 208.236 31.3813 208.716L28.0153 211.704H34.6933V213H25.8913V211.902L30.4633 207.87C30.9433 207.438 31.3513 207.048 31.6873 206.7C32.0233 206.352 32.2933 206.028 32.4973 205.728C32.7133 205.416 32.8633 205.116 32.9473 204.828C33.0433 204.528 33.0913 204.222 33.0913 203.91C33.0913 203.538 33.0193 203.208 32.8753 202.92C32.7433 202.62 32.5633 202.368 32.3353 202.164C32.1073 201.948 31.8373 201.786 31.5253 201.678C31.2133 201.558 30.8893 201.498 30.5533 201.498ZM47.5567 206.682C47.5567 207.57 47.4307 208.41 47.1787 209.202C46.9267 209.994 46.5667 210.69 46.0987 211.29C45.6427 211.878 45.0847 212.346 44.4247 212.694C43.7647 213.042 43.0327 213.216 42.2287 213.216C41.4127 213.216 40.6747 213.048 40.0147 212.712C39.3667 212.364 38.8087 211.896 38.3407 211.308C37.8847 210.708 37.5307 210.018 37.2787 209.238C37.0387 208.446 36.9187 207.606 36.9187 206.718C36.9187 205.83 37.0447 204.99 37.2967 204.198C37.5487 203.406 37.9027 202.716 38.3587 202.128C38.8267 201.528 39.3907 201.054 40.0507 200.706C40.7107 200.358 41.4487 200.184 42.2647 200.184C43.0687 200.184 43.7947 200.358 44.4427 200.706C45.1027 201.042 45.6607 201.51 46.1167 202.11C46.5847 202.698 46.9387 203.388 47.1787 204.18C47.4307 204.96 47.5567 205.794 47.5567 206.682ZM46.0807 206.718C46.0807 206.022 45.9907 205.362 45.8107 204.738C45.6307 204.102 45.3727 203.544 45.0367 203.064C44.7007 202.584 44.2927 202.2 43.8127 201.912C43.3447 201.624 42.8167 201.48 42.2287 201.48C41.6407 201.48 41.1067 201.624 40.6267 201.912C40.1587 202.188 39.7567 202.566 39.4207 203.046C39.0967 203.514 38.8447 204.066 38.6647 204.702C38.4847 205.326 38.3947 205.986 38.3947 206.682C38.3947 207.378 38.4847 208.044 38.6647 208.68C38.8447 209.316 39.1027 209.874 39.4387 210.354C39.7747 210.834 40.1827 211.218 40.6627 211.506C41.1427 211.782 41.6767 211.92 42.2647 211.92C42.8527 211.92 43.3807 211.782 43.8487 211.506C44.3287 211.218 44.7307 210.84 45.0547 210.372C45.3907 209.892 45.6427 209.34 45.8107 208.716C45.9907 208.08 46.0807 207.414 46.0807 206.718Z" fill="black"/>
<path d="M14.8741 300.4V301.714H7.24209V306.214H14.0641V307.51H7.24209V313H5.82009V300.4H14.8741ZM23.0146 307.996V313H21.5746V308.014L16.3366 300.4H18.0646L22.3126 306.7L26.5966 300.4H28.2526L23.0146 307.996ZM34.2614 301.498C33.5414 301.498 32.9234 301.684 32.4074 302.056C31.8914 302.416 31.3814 302.95 30.8774 303.658L29.8334 302.902C30.1214 302.482 30.4154 302.104 30.7154 301.768C31.0154 301.432 31.3394 301.15 31.6874 300.922C32.0474 300.694 32.4434 300.52 32.8754 300.4C33.3194 300.28 33.8174 300.22 34.3694 300.22C34.9454 300.22 35.4674 300.31 35.9354 300.49C36.4154 300.67 36.8294 300.922 37.1774 301.246C37.5254 301.558 37.7954 301.936 37.9874 302.38C38.1794 302.812 38.2754 303.286 38.2754 303.802C38.2754 304.27 38.2094 304.696 38.0774 305.08C37.9574 305.464 37.7654 305.848 37.5014 306.232C37.2374 306.604 36.9074 306.994 36.5114 307.402C36.1154 307.798 35.6414 308.236 35.0894 308.716L31.7234 311.704H38.4014V313H29.5994V311.902L34.1714 307.87C34.6514 307.438 35.0594 307.048 35.3954 306.7C35.7314 306.352 36.0014 306.028 36.2054 305.728C36.4214 305.416 36.5714 305.116 36.6554 304.828C36.7514 304.528 36.7994 304.222 36.7994 303.91C36.7994 303.538 36.7274 303.208 36.5834 302.92C36.4514 302.62 36.2714 302.368 36.0434 302.164C35.8154 301.948 35.5454 301.786 35.2334 301.678C34.9214 301.558 34.5974 301.498 34.2614 301.498ZM40.0147 301.372L43.0927 300.31H44.1367V313H42.7327V301.786L40.3567 302.524L40.0147 301.372Z" fill="black"/>
<path d="M339.54 159.372L342.618 158.31H343.662V171H342.258V159.786L339.882 160.524L339.54 159.372ZM357.241 164.682C357.241 165.57 357.115 166.41 356.863 167.202C356.611 167.994 356.251 168.69 355.783 169.29C355.327 169.878 354.769 170.346 354.109 170.694C353.449 171.042 352.717 171.216 351.913 171.216C351.097 171.216 350.359 171.048 349.699 170.712C349.051 170.364 348.493 169.896 348.025 169.308C347.569 168.708 347.215 168.018 346.963 167.238C346.723 166.446 346.603 165.606 346.603 164.718C346.603 163.83 346.729 162.99 346.981 162.198C347.233 161.406 347.587 160.716 348.043 160.128C348.511 159.528 349.075 159.054 349.735 158.706C350.395 158.358 351.133 158.184 351.949 158.184C352.753 158.184 353.479 158.358 354.127 158.706C354.787 159.042 355.345 159.51 355.801 160.11C356.269 160.698 356.623 161.388 356.863 162.18C357.115 162.96 357.241 163.794 357.241 164.682ZM355.765 164.718C355.765 164.022 355.675 163.362 355.495 162.738C355.315 162.102 355.057 161.544 354.721 161.064C354.385 160.584 353.977 160.2 353.497 159.912C353.029 159.624 352.501 159.48 351.913 159.48C351.325 159.48 350.791 159.624 350.311 159.912C349.843 160.188 349.441 160.566 349.105 161.046C348.781 161.514 348.529 162.066 348.349 162.702C348.169 163.326 348.079 163.986 348.079 164.682C348.079 165.378 348.169 166.044 348.349 166.68C348.529 167.316 348.787 167.874 349.123 168.354C349.459 168.834 349.867 169.218 350.347 169.506C350.827 169.782 351.361 169.92 351.949 169.92C352.537 169.92 353.065 169.782 353.533 169.506C354.013 169.218 354.415 168.84 354.739 168.372C355.075 167.892 355.327 167.34 355.495 166.716C355.675 166.08 355.765 165.414 355.765 164.718ZM368.758 167.58C368.758 168.12 368.638 168.612 368.398 169.056C368.158 169.5 367.822 169.878 367.39 170.19C366.97 170.502 366.472 170.748 365.896 170.928C365.32 171.096 364.696 171.18 364.024 171.18C363.352 171.18 362.728 171.096 362.152 170.928C361.576 170.748 361.072 170.502 360.64 170.19C360.22 169.878 359.89 169.5 359.65 169.056C359.41 168.612 359.29 168.126 359.29 167.598C359.29 166.842 359.53 166.206 360.01 165.69C360.502 165.162 361.126 164.76 361.882 164.484C361.594 164.352 361.318 164.196 361.054 164.016C360.79 163.824 360.556 163.614 360.352 163.386C360.16 163.146 360.004 162.876 359.884 162.576C359.776 162.276 359.722 161.94 359.722 161.568C359.722 161.076 359.836 160.626 360.064 160.218C360.304 159.81 360.616 159.456 361 159.156C361.396 158.856 361.852 158.628 362.368 158.472C362.896 158.304 363.448 158.22 364.024 158.22C364.6 158.22 365.146 158.304 365.662 158.472C366.19 158.628 366.646 158.856 367.03 159.156C367.426 159.456 367.738 159.81 367.966 160.218C368.206 160.626 368.326 161.076 368.326 161.568C368.326 161.94 368.266 162.276 368.146 162.576C368.038 162.876 367.882 163.146 367.678 163.386C367.486 163.614 367.258 163.824 366.994 164.016C366.73 164.196 366.454 164.352 366.166 164.484C366.922 164.76 367.54 165.156 368.02 165.672C368.512 166.188 368.758 166.824 368.758 167.58ZM366.904 161.658C366.904 161.346 366.832 161.058 366.688 160.794C366.544 160.518 366.34 160.284 366.076 160.092C365.824 159.888 365.518 159.732 365.158 159.624C364.81 159.516 364.432 159.462 364.024 159.462C363.616 159.462 363.232 159.516 362.872 159.624C362.524 159.732 362.218 159.888 361.954 160.092C361.702 160.284 361.504 160.512 361.36 160.776C361.216 161.04 361.144 161.334 361.144 161.658C361.144 162.006 361.216 162.324 361.36 162.612C361.516 162.888 361.72 163.128 361.972 163.332C362.236 163.536 362.542 163.698 362.89 163.818C363.25 163.926 363.628 163.98 364.024 163.98C364.42 163.98 364.792 163.926 365.14 163.818C365.5 163.698 365.806 163.536 366.058 163.332C366.322 163.128 366.526 162.888 366.67 162.612C366.826 162.324 366.904 162.006 366.904 161.658ZM367.318 167.562C367.318 167.202 367.228 166.878 367.048 166.59C366.88 166.29 366.646 166.038 366.346 165.834C366.058 165.618 365.71 165.45 365.302 165.33C364.906 165.21 364.48 165.15 364.024 165.15C363.568 165.15 363.136 165.21 362.728 165.33C362.332 165.45 361.984 165.618 361.684 165.834C361.384 166.038 361.15 166.29 360.982 166.59C360.814 166.878 360.73 167.202 360.73 167.562C360.73 167.886 360.802 168.192 360.946 168.48C361.102 168.768 361.318 169.02 361.594 169.236C361.882 169.452 362.23 169.626 362.638 169.758C363.046 169.878 363.508 169.938 364.024 169.938C364.54 169.938 365.002 169.878 365.41 169.758C365.818 169.626 366.16 169.452 366.436 169.236C366.724 169.02 366.94 168.768 367.084 168.48C367.24 168.192 367.318 167.886 367.318 167.562ZM370.52 172.566C370.976 172.398 371.3 172.188 371.492 171.936C371.684 171.696 371.762 171.384 371.726 171H371.078V169.11H372.734V170.73C372.734 171.462 372.572 172.014 372.248 172.386C371.924 172.77 371.42 173.04 370.736 173.196L370.52 172.566ZM384.652 164.376C384.652 165.384 384.526 166.308 384.274 167.148C384.022 167.976 383.662 168.696 383.194 169.308C382.738 169.908 382.186 170.376 381.538 170.712C380.902 171.048 380.194 171.216 379.414 171.216C378.586 171.216 377.866 171.072 377.254 170.784C376.642 170.484 376.066 170.112 375.526 169.668L376.354 168.57C376.87 169.026 377.374 169.368 377.866 169.596C378.358 169.812 378.886 169.92 379.45 169.92C380.014 169.92 380.53 169.782 380.998 169.506C381.466 169.23 381.862 168.852 382.186 168.372C382.522 167.88 382.774 167.298 382.942 166.626C383.122 165.942 383.206 165.198 383.194 164.394C382.846 164.946 382.384 165.42 381.808 165.816C381.232 166.212 380.506 166.41 379.63 166.41C378.982 166.41 378.388 166.314 377.848 166.122C377.308 165.93 376.846 165.66 376.462 165.312C376.078 164.964 375.778 164.55 375.562 164.07C375.346 163.59 375.238 163.062 375.238 162.486C375.238 161.886 375.346 161.328 375.562 160.812C375.79 160.284 376.102 159.828 376.498 159.444C376.894 159.048 377.368 158.742 377.92 158.526C378.484 158.298 379.102 158.184 379.774 158.184C380.494 158.184 381.124 158.298 381.664 158.526C382.204 158.754 382.678 159.072 383.086 159.48C383.338 159.732 383.56 160.008 383.752 160.308C383.944 160.608 384.106 160.956 384.238 161.352C384.37 161.736 384.472 162.18 384.544 162.684C384.616 163.176 384.652 163.74 384.652 164.376ZM382.924 162.324C382.924 161.916 382.846 161.538 382.69 161.19C382.534 160.842 382.312 160.542 382.024 160.29C381.748 160.026 381.412 159.822 381.016 159.678C380.62 159.522 380.188 159.444 379.72 159.444C379.252 159.444 378.826 159.528 378.442 159.696C378.07 159.852 377.752 160.068 377.488 160.344C377.236 160.608 377.038 160.92 376.894 161.28C376.762 161.64 376.696 162.018 376.696 162.414C376.696 162.822 376.768 163.194 376.912 163.53C377.068 163.866 377.278 164.16 377.542 164.412C377.818 164.652 378.148 164.844 378.532 164.988C378.916 165.12 379.336 165.186 379.792 165.186C380.272 165.186 380.704 165.108 381.088 164.952C381.484 164.784 381.814 164.568 382.078 164.304C382.354 164.04 382.564 163.734 382.708 163.386C382.852 163.038 382.924 162.684 382.924 162.324ZM397.513 164.682C397.513 165.57 397.387 166.41 397.135 167.202C396.883 167.994 396.523 168.69 396.055 169.29C395.599 169.878 395.041 170.346 394.381 170.694C393.721 171.042 392.989 171.216 392.185 171.216C391.369 171.216 390.631 171.048 389.971 170.712C389.323 170.364 388.765 169.896 388.297 169.308C387.841 168.708 387.487 168.018 387.235 167.238C386.995 166.446 386.875 165.606 386.875 164.718C386.875 163.83 387.001 162.99 387.253 162.198C387.505 161.406 387.859 160.716 388.315 160.128C388.783 159.528 389.347 159.054 390.007 158.706C390.667 158.358 391.405 158.184 392.221 158.184C393.025 158.184 393.751 158.358 394.399 158.706C395.059 159.042 395.617 159.51 396.073 160.11C396.541 160.698 396.895 161.388 397.135 162.18C397.387 162.96 397.513 163.794 397.513 164.682ZM396.037 164.718C396.037 164.022 395.947 163.362 395.767 162.738C395.587 162.102 395.329 161.544 394.993 161.064C394.657 160.584 394.249 160.2 393.769 159.912C393.301 159.624 392.773 159.48 392.185 159.48C391.597 159.48 391.063 159.624 390.583 159.912C390.115 160.188 389.713 160.566 389.377 161.046C389.053 161.514 388.801 162.066 388.621 162.702C388.441 163.326 388.351 163.986 388.351 164.682C388.351 165.378 388.441 166.044 388.621 166.68C388.801 167.316 389.059 167.874 389.395 168.354C389.731 168.834 390.139 169.218 390.619 169.506C391.099 169.782 391.633 169.92 392.221 169.92C392.809 169.92 393.337 169.782 393.805 169.506C394.285 169.218 394.687 168.84 395.011 168.372C395.347 167.892 395.599 167.34 395.767 166.716C395.947 166.08 396.037 165.414 396.037 164.718ZM409.03 167.58C409.03 168.12 408.91 168.612 408.67 169.056C408.43 169.5 408.094 169.878 407.662 170.19C407.242 170.502 406.744 170.748 406.168 170.928C405.592 171.096 404.968 171.18 404.296 171.18C403.624 171.18 403 171.096 402.424 170.928C401.848 170.748 401.344 170.502 400.912 170.19C400.492 169.878 400.162 169.5 399.922 169.056C399.682 168.612 399.562 168.126 399.562 167.598C399.562 166.842 399.802 166.206 400.282 165.69C400.774 165.162 401.398 164.76 402.154 164.484C401.866 164.352 401.59 164.196 401.326 164.016C401.062 163.824 400.828 163.614 400.624 163.386C400.432 163.146 400.276 162.876 400.156 162.576C400.048 162.276 399.994 161.94 399.994 161.568C399.994 161.076 400.108 160.626 400.336 160.218C400.576 159.81 400.888 159.456 401.272 159.156C401.668 158.856 402.124 158.628 402.64 158.472C403.168 158.304 403.72 158.22 404.296 158.22C404.872 158.22 405.418 158.304 405.934 158.472C406.462 158.628 406.918 158.856 407.302 159.156C407.698 159.456 408.01 159.81 408.238 160.218C408.478 160.626 408.598 161.076 408.598 161.568C408.598 161.94 408.538 162.276 408.418 162.576C408.31 162.876 408.154 163.146 407.95 163.386C407.758 163.614 407.53 163.824 407.266 164.016C407.002 164.196 406.726 164.352 406.438 164.484C407.194 164.76 407.812 165.156 408.292 165.672C408.784 166.188 409.03 166.824 409.03 167.58ZM407.176 161.658C407.176 161.346 407.104 161.058 406.96 160.794C406.816 160.518 406.612 160.284 406.348 160.092C406.096 159.888 405.79 159.732 405.43 159.624C405.082 159.516 404.704 159.462 404.296 159.462C403.888 159.462 403.504 159.516 403.144 159.624C402.796 159.732 402.49 159.888 402.226 160.092C401.974 160.284 401.776 160.512 401.632 160.776C401.488 161.04 401.416 161.334 401.416 161.658C401.416 162.006 401.488 162.324 401.632 162.612C401.788 162.888 401.992 163.128 402.244 163.332C402.508 163.536 402.814 163.698 403.162 163.818C403.522 163.926 403.9 163.98 404.296 163.98C404.692 163.98 405.064 163.926 405.412 163.818C405.772 163.698 406.078 163.536 406.33 163.332C406.594 163.128 406.798 162.888 406.942 162.612C407.098 162.324 407.176 162.006 407.176 161.658ZM407.59 167.562C407.59 167.202 407.5 166.878 407.32 166.59C407.152 166.29 406.918 166.038 406.618 165.834C406.33 165.618 405.982 165.45 405.574 165.33C405.178 165.21 404.752 165.15 404.296 165.15C403.84 165.15 403.408 165.21 403 165.33C402.604 165.45 402.256 165.618 401.956 165.834C401.656 166.038 401.422 166.29 401.254 166.59C401.086 166.878 401.002 167.202 401.002 167.562C401.002 167.886 401.074 168.192 401.218 168.48C401.374 168.768 401.59 169.02 401.866 169.236C402.154 169.452 402.502 169.626 402.91 169.758C403.318 169.878 403.78 169.938 404.296 169.938C404.812 169.938 405.274 169.878 405.682 169.758C406.09 169.626 406.432 169.452 406.708 169.236C406.996 169.02 407.212 168.768 407.356 168.48C407.512 168.192 407.59 167.886 407.59 167.562Z" fill="white"/>
<path d="M309.865 264.376C309.865 265.384 309.739 266.308 309.487 267.148C309.235 267.976 308.875 268.696 308.407 269.308C307.951 269.908 307.399 270.376 306.751 270.712C306.115 271.048 305.407 271.216 304.627 271.216C303.799 271.216 303.079 271.072 302.467 270.784C301.855 270.484 301.279 270.112 300.739 269.668L301.567 268.57C302.083 269.026 302.587 269.368 303.079 269.596C303.571 269.812 304.099 269.92 304.663 269.92C305.227 269.92 305.743 269.782 306.211 269.506C306.679 269.23 307.075 268.852 307.399 268.372C307.735 267.88 307.987 267.298 308.155 266.626C308.335 265.942 308.419 265.198 308.407 264.394C308.059 264.946 307.597 265.42 307.021 265.816C306.445 266.212 305.719 266.41 304.843 266.41C304.195 266.41 303.601 266.314 303.061 266.122C302.521 265.93 302.059 265.66 301.675 265.312C301.291 264.964 300.991 264.55 300.775 264.07C300.559 263.59 300.451 263.062 300.451 262.486C300.451 261.886 300.559 261.328 300.775 260.812C301.003 260.284 301.315 259.828 301.711 259.444C302.107 259.048 302.581 258.742 303.133 258.526C303.697 258.298 304.315 258.184 304.987 258.184C305.707 258.184 306.337 258.298 306.877 258.526C307.417 258.754 307.891 259.072 308.299 259.48C308.551 259.732 308.773 260.008 308.965 260.308C309.157 260.608 309.319 260.956 309.451 261.352C309.583 261.736 309.685 262.18 309.757 262.684C309.829 263.176 309.865 263.74 309.865 264.376ZM308.137 262.324C308.137 261.916 308.059 261.538 307.903 261.19C307.747 260.842 307.525 260.542 307.237 260.29C306.961 260.026 306.625 259.822 306.229 259.678C305.833 259.522 305.401 259.444 304.933 259.444C304.465 259.444 304.039 259.528 303.655 259.696C303.283 259.852 302.965 260.068 302.701 260.344C302.449 260.608 302.251 260.92 302.107 261.28C301.975 261.64 301.909 262.018 301.909 262.414C301.909 262.822 301.981 263.194 302.125 263.53C302.281 263.866 302.491 264.16 302.755 264.412C303.031 264.652 303.361 264.844 303.745 264.988C304.129 265.12 304.549 265.186 305.005 265.186C305.485 265.186 305.917 265.108 306.301 264.952C306.697 264.784 307.027 264.568 307.291 264.304C307.567 264.04 307.777 263.734 307.921 263.386C308.065 263.038 308.137 262.684 308.137 262.324ZM321.376 267.58C321.376 268.12 321.256 268.612 321.016 269.056C320.776 269.5 320.44 269.878 320.008 270.19C319.588 270.502 319.09 270.748 318.514 270.928C317.938 271.096 317.314 271.18 316.642 271.18C315.97 271.18 315.346 271.096 314.77 270.928C314.194 270.748 313.69 270.502 313.258 270.19C312.838 269.878 312.508 269.5 312.268 269.056C312.028 268.612 311.908 268.126 311.908 267.598C311.908 266.842 312.148 266.206 312.628 265.69C313.12 265.162 313.744 264.76 314.5 264.484C314.212 264.352 313.936 264.196 313.672 264.016C313.408 263.824 313.174 263.614 312.97 263.386C312.778 263.146 312.622 262.876 312.502 262.576C312.394 262.276 312.34 261.94 312.34 261.568C312.34 261.076 312.454 260.626 312.682 260.218C312.922 259.81 313.234 259.456 313.618 259.156C314.014 258.856 314.47 258.628 314.986 258.472C315.514 258.304 316.066 258.22 316.642 258.22C317.218 258.22 317.764 258.304 318.28 258.472C318.808 258.628 319.264 258.856 319.648 259.156C320.044 259.456 320.356 259.81 320.584 260.218C320.824 260.626 320.944 261.076 320.944 261.568C320.944 261.94 320.884 262.276 320.764 262.576C320.656 262.876 320.5 263.146 320.296 263.386C320.104 263.614 319.876 263.824 319.612 264.016C319.348 264.196 319.072 264.352 318.784 264.484C319.54 264.76 320.158 265.156 320.638 265.672C321.13 266.188 321.376 266.824 321.376 267.58ZM319.522 261.658C319.522 261.346 319.45 261.058 319.306 260.794C319.162 260.518 318.958 260.284 318.694 260.092C318.442 259.888 318.136 259.732 317.776 259.624C317.428 259.516 317.05 259.462 316.642 259.462C316.234 259.462 315.85 259.516 315.49 259.624C315.142 259.732 314.836 259.888 314.572 260.092C314.32 260.284 314.122 260.512 313.978 260.776C313.834 261.04 313.762 261.334 313.762 261.658C313.762 262.006 313.834 262.324 313.978 262.612C314.134 262.888 314.338 263.128 314.59 263.332C314.854 263.536 315.16 263.698 315.508 263.818C315.868 263.926 316.246 263.98 316.642 263.98C317.038 263.98 317.41 263.926 317.758 263.818C318.118 263.698 318.424 263.536 318.676 263.332C318.94 263.128 319.144 262.888 319.288 262.612C319.444 262.324 319.522 262.006 319.522 261.658ZM319.936 267.562C319.936 267.202 319.846 266.878 319.666 266.59C319.498 266.29 319.264 266.038 318.964 265.834C318.676 265.618 318.328 265.45 317.92 265.33C317.524 265.21 317.098 265.15 316.642 265.15C316.186 265.15 315.754 265.21 315.346 265.33C314.95 265.45 314.602 265.618 314.302 265.834C314.002 266.038 313.768 266.29 313.6 266.59C313.432 266.878 313.348 267.202 313.348 267.562C313.348 267.886 313.42 268.192 313.564 268.48C313.72 268.768 313.936 269.02 314.212 269.236C314.5 269.452 314.848 269.626 315.256 269.758C315.664 269.878 316.126 269.938 316.642 269.938C317.158 269.938 317.62 269.878 318.028 269.758C318.436 269.626 318.778 269.452 319.054 269.236C319.342 269.02 319.558 268.768 319.702 268.48C319.858 268.192 319.936 267.886 319.936 267.562ZM323.138 272.566C323.594 272.398 323.918 272.188 324.11 271.936C324.302 271.696 324.38 271.384 324.344 271H323.696V269.11H325.352V270.73C325.352 271.462 325.19 272.014 324.866 272.386C324.542 272.77 324.038 273.04 323.354 273.196L323.138 272.566ZM334.624 258.31H335.866V266.824H337.828V268.012H335.866V271H334.498V268.012H327.856L327.496 266.986L334.624 258.31ZM334.498 266.824V260.326L329.206 266.824H334.498ZM349.202 267.58C349.202 268.12 349.082 268.612 348.842 269.056C348.602 269.5 348.266 269.878 347.834 270.19C347.414 270.502 346.916 270.748 346.34 270.928C345.764 271.096 345.14 271.18 344.468 271.18C343.796 271.18 343.172 271.096 342.596 270.928C342.02 270.748 341.516 270.502 341.084 270.19C340.664 269.878 340.334 269.5 340.094 269.056C339.854 268.612 339.734 268.126 339.734 267.598C339.734 266.842 339.974 266.206 340.454 265.69C340.946 265.162 341.57 264.76 342.326 264.484C342.038 264.352 341.762 264.196 341.498 264.016C341.234 263.824 341 263.614 340.796 263.386C340.604 263.146 340.448 262.876 340.328 262.576C340.22 262.276 340.166 261.94 340.166 261.568C340.166 261.076 340.28 260.626 340.508 260.218C340.748 259.81 341.06 259.456 341.444 259.156C341.84 258.856 342.296 258.628 342.812 258.472C343.34 258.304 343.892 258.22 344.468 258.22C345.044 258.22 345.59 258.304 346.106 258.472C346.634 258.628 347.09 258.856 347.474 259.156C347.87 259.456 348.182 259.81 348.41 260.218C348.65 260.626 348.77 261.076 348.77 261.568C348.77 261.94 348.71 262.276 348.59 262.576C348.482 262.876 348.326 263.146 348.122 263.386C347.93 263.614 347.702 263.824 347.438 264.016C347.174 264.196 346.898 264.352 346.61 264.484C347.366 264.76 347.984 265.156 348.464 265.672C348.956 266.188 349.202 266.824 349.202 267.58ZM347.348 261.658C347.348 261.346 347.276 261.058 347.132 260.794C346.988 260.518 346.784 260.284 346.52 260.092C346.268 259.888 345.962 259.732 345.602 259.624C345.254 259.516 344.876 259.462 344.468 259.462C344.06 259.462 343.676 259.516 343.316 259.624C342.968 259.732 342.662 259.888 342.398 260.092C342.146 260.284 341.948 260.512 341.804 260.776C341.66 261.04 341.588 261.334 341.588 261.658C341.588 262.006 341.66 262.324 341.804 262.612C341.96 262.888 342.164 263.128 342.416 263.332C342.68 263.536 342.986 263.698 343.334 263.818C343.694 263.926 344.072 263.98 344.468 263.98C344.864 263.98 345.236 263.926 345.584 263.818C345.944 263.698 346.25 263.536 346.502 263.332C346.766 263.128 346.97 262.888 347.114 262.612C347.27 262.324 347.348 262.006 347.348 261.658ZM347.762 267.562C347.762 267.202 347.672 266.878 347.492 266.59C347.324 266.29 347.09 266.038 346.79 265.834C346.502 265.618 346.154 265.45 345.746 265.33C345.35 265.21 344.924 265.15 344.468 265.15C344.012 265.15 343.58 265.21 343.172 265.33C342.776 265.45 342.428 265.618 342.128 265.834C341.828 266.038 341.594 266.29 341.426 266.59C341.258 266.878 341.174 267.202 341.174 267.562C341.174 267.886 341.246 268.192 341.39 268.48C341.546 268.768 341.762 269.02 342.038 269.236C342.326 269.452 342.674 269.626 343.082 269.758C343.49 269.878 343.952 269.938 344.468 269.938C344.984 269.938 345.446 269.878 345.854 269.758C346.262 269.626 346.604 269.452 346.88 269.236C347.168 269.02 347.384 268.768 347.528 268.48C347.684 268.192 347.762 267.886 347.762 267.562ZM351.184 259.696V258.4H359.734V259.462L354.01 271H352.426L358.114 259.696H351.184Z" fill="white"/>
<path d="M279.738 367.58C279.738 368.12 279.618 368.612 279.378 369.056C279.138 369.5 278.802 369.878 278.37 370.19C277.95 370.502 277.452 370.748 276.876 370.928C276.3 371.096 275.676 371.18 275.004 371.18C274.332 371.18 273.708 371.096 273.132 370.928C272.556 370.748 272.052 370.502 271.62 370.19C271.2 369.878 270.87 369.5 270.63 369.056C270.39 368.612 270.27 368.126 270.27 367.598C270.27 366.842 270.51 366.206 270.99 365.69C271.482 365.162 272.106 364.76 272.862 364.484C272.574 364.352 272.298 364.196 272.034 364.016C271.77 363.824 271.536 363.614 271.332 363.386C271.14 363.146 270.984 362.876 270.864 362.576C270.756 362.276 270.702 361.94 270.702 361.568C270.702 361.076 270.816 360.626 271.044 360.218C271.284 359.81 271.596 359.456 271.98 359.156C272.376 358.856 272.832 358.628 273.348 358.472C273.876 358.304 274.428 358.22 275.004 358.22C275.58 358.22 276.126 358.304 276.642 358.472C277.17 358.628 277.626 358.856 278.01 359.156C278.406 359.456 278.718 359.81 278.946 360.218C279.186 360.626 279.306 361.076 279.306 361.568C279.306 361.94 279.246 362.276 279.126 362.576C279.018 362.876 278.862 363.146 278.658 363.386C278.466 363.614 278.238 363.824 277.974 364.016C277.71 364.196 277.434 364.352 277.146 364.484C277.902 364.76 278.52 365.156 279 365.672C279.492 366.188 279.738 366.824 279.738 367.58ZM277.884 361.658C277.884 361.346 277.812 361.058 277.668 360.794C277.524 360.518 277.32 360.284 277.056 360.092C276.804 359.888 276.498 359.732 276.138 359.624C275.79 359.516 275.412 359.462 275.004 359.462C274.596 359.462 274.212 359.516 273.852 359.624C273.504 359.732 273.198 359.888 272.934 360.092C272.682 360.284 272.484 360.512 272.34 360.776C272.196 361.04 272.124 361.334 272.124 361.658C272.124 362.006 272.196 362.324 272.34 362.612C272.496 362.888 272.7 363.128 272.952 363.332C273.216 363.536 273.522 363.698 273.87 363.818C274.23 363.926 274.608 363.98 275.004 363.98C275.4 363.98 275.772 363.926 276.12 363.818C276.48 363.698 276.786 363.536 277.038 363.332C277.302 363.128 277.506 362.888 277.65 362.612C277.806 362.324 277.884 362.006 277.884 361.658ZM278.298 367.562C278.298 367.202 278.208 366.878 278.028 366.59C277.86 366.29 277.626 366.038 277.326 365.834C277.038 365.618 276.69 365.45 276.282 365.33C275.886 365.21 275.46 365.15 275.004 365.15C274.548 365.15 274.116 365.21 273.708 365.33C273.312 365.45 272.964 365.618 272.664 365.834C272.364 366.038 272.13 366.29 271.962 366.59C271.794 366.878 271.71 367.202 271.71 367.562C271.71 367.886 271.782 368.192 271.926 368.48C272.082 368.768 272.298 369.02 272.574 369.236C272.862 369.452 273.21 369.626 273.618 369.758C274.026 369.878 274.488 369.938 275.004 369.938C275.52 369.938 275.982 369.878 276.39 369.758C276.798 369.626 277.14 369.452 277.416 369.236C277.704 369.02 277.92 368.768 278.064 368.48C278.22 368.192 278.298 367.886 278.298 367.562ZM291.076 367.58C291.076 368.12 290.956 368.612 290.716 369.056C290.476 369.5 290.14 369.878 289.708 370.19C289.288 370.502 288.79 370.748 288.214 370.928C287.638 371.096 287.014 371.18 286.342 371.18C285.67 371.18 285.046 371.096 284.47 370.928C283.894 370.748 283.39 370.502 282.958 370.19C282.538 369.878 282.208 369.5 281.968 369.056C281.728 368.612 281.608 368.126 281.608 367.598C281.608 366.842 281.848 366.206 282.328 365.69C282.82 365.162 283.444 364.76 284.2 364.484C283.912 364.352 283.636 364.196 283.372 364.016C283.108 363.824 282.874 363.614 282.67 363.386C282.478 363.146 282.322 362.876 282.202 362.576C282.094 362.276 282.04 361.94 282.04 361.568C282.04 361.076 282.154 360.626 282.382 360.218C282.622 359.81 282.934 359.456 283.318 359.156C283.714 358.856 284.17 358.628 284.686 358.472C285.214 358.304 285.766 358.22 286.342 358.22C286.918 358.22 287.464 358.304 287.98 358.472C288.508 358.628 288.964 358.856 289.348 359.156C289.744 359.456 290.056 359.81 290.284 360.218C290.524 360.626 290.644 361.076 290.644 361.568C290.644 361.94 290.584 362.276 290.464 362.576C290.356 362.876 290.2 363.146 289.996 363.386C289.804 363.614 289.576 363.824 289.312 364.016C289.048 364.196 288.772 364.352 288.484 364.484C289.24 364.76 289.858 365.156 290.338 365.672C290.83 366.188 291.076 366.824 291.076 367.58ZM289.222 361.658C289.222 361.346 289.15 361.058 289.006 360.794C288.862 360.518 288.658 360.284 288.394 360.092C288.142 359.888 287.836 359.732 287.476 359.624C287.128 359.516 286.75 359.462 286.342 359.462C285.934 359.462 285.55 359.516 285.19 359.624C284.842 359.732 284.536 359.888 284.272 360.092C284.02 360.284 283.822 360.512 283.678 360.776C283.534 361.04 283.462 361.334 283.462 361.658C283.462 362.006 283.534 362.324 283.678 362.612C283.834 362.888 284.038 363.128 284.29 363.332C284.554 363.536 284.86 363.698 285.208 363.818C285.568 363.926 285.946 363.98 286.342 363.98C286.738 363.98 287.11 363.926 287.458 363.818C287.818 363.698 288.124 363.536 288.376 363.332C288.64 363.128 288.844 362.888 288.988 362.612C289.144 362.324 289.222 362.006 289.222 361.658ZM289.636 367.562C289.636 367.202 289.546 366.878 289.366 366.59C289.198 366.29 288.964 366.038 288.664 365.834C288.376 365.618 288.028 365.45 287.62 365.33C287.224 365.21 286.798 365.15 286.342 365.15C285.886 365.15 285.454 365.21 285.046 365.33C284.65 365.45 284.302 365.618 284.002 365.834C283.702 366.038 283.468 366.29 283.3 366.59C283.132 366.878 283.048 367.202 283.048 367.562C283.048 367.886 283.12 368.192 283.264 368.48C283.42 368.768 283.636 369.02 283.912 369.236C284.2 369.452 284.548 369.626 284.956 369.758C285.364 369.878 285.826 369.938 286.342 369.938C286.858 369.938 287.32 369.878 287.728 369.758C288.136 369.626 288.478 369.452 288.754 369.236C289.042 369.02 289.258 368.768 289.402 368.48C289.558 368.192 289.636 367.886 289.636 367.562ZM292.838 372.566C293.294 372.398 293.618 372.188 293.81 371.936C294.002 371.696 294.08 371.384 294.044 371H293.396V369.11H295.052V370.73C295.052 371.462 294.89 372.014 294.566 372.386C294.242 372.77 293.738 373.04 293.054 373.196L292.838 372.566ZM304.144 359.678H297.988V358.4H306.034V359.444L302.074 363.836C302.626 363.884 303.154 363.986 303.658 364.142C304.162 364.298 304.6 364.52 304.972 364.808C305.356 365.096 305.662 365.456 305.89 365.888C306.118 366.32 306.232 366.824 306.232 367.4C306.232 367.964 306.118 368.48 305.89 368.948C305.674 369.416 305.374 369.818 304.99 370.154C304.618 370.49 304.174 370.754 303.658 370.946C303.154 371.126 302.608 371.216 302.02 371.216C300.964 371.216 300.046 371.012 299.266 370.604C298.486 370.184 297.838 369.638 297.322 368.966L298.348 368.048C298.84 368.648 299.38 369.11 299.968 369.434C300.568 369.758 301.258 369.92 302.038 369.92C302.422 369.92 302.782 369.866 303.118 369.758C303.454 369.638 303.742 369.47 303.982 369.254C304.234 369.038 304.432 368.78 304.576 368.48C304.72 368.168 304.792 367.826 304.792 367.454C304.792 366.662 304.462 366.056 303.802 365.636C303.154 365.216 302.308 365.006 301.264 365.006H300.454L300.166 364.16L304.144 359.678ZM319.215 364.682C319.215 365.57 319.089 366.41 318.837 367.202C318.585 367.994 318.225 368.69 317.757 369.29C317.301 369.878 316.743 370.346 316.083 370.694C315.423 371.042 314.691 371.216 313.887 371.216C313.071 371.216 312.333 371.048 311.673 370.712C311.025 370.364 310.467 369.896 309.999 369.308C309.543 368.708 309.189 368.018 308.937 367.238C308.697 366.446 308.577 365.606 308.577 364.718C308.577 363.83 308.703 362.99 308.955 362.198C309.207 361.406 309.561 360.716 310.017 360.128C310.485 359.528 311.049 359.054 311.709 358.706C312.369 358.358 313.107 358.184 313.923 358.184C314.727 358.184 315.453 358.358 316.101 358.706C316.761 359.042 317.319 359.51 317.775 360.11C318.243 360.698 318.597 361.388 318.837 362.18C319.089 362.96 319.215 363.794 319.215 364.682ZM317.739 364.718C317.739 364.022 317.649 363.362 317.469 362.738C317.289 362.102 317.031 361.544 316.695 361.064C316.359 360.584 315.951 360.2 315.471 359.912C315.003 359.624 314.475 359.48 313.887 359.48C313.299 359.48 312.765 359.624 312.285 359.912C311.817 360.188 311.415 360.566 311.079 361.046C310.755 361.514 310.503 362.066 310.323 362.702C310.143 363.326 310.053 363.986 310.053 364.682C310.053 365.378 310.143 366.044 310.323 366.68C310.503 367.316 310.761 367.874 311.097 368.354C311.433 368.834 311.841 369.218 312.321 369.506C312.801 369.782 313.335 369.92 313.923 369.92C314.511 369.92 315.039 369.782 315.507 369.506C315.987 369.218 316.389 368.84 316.713 368.372C317.049 367.892 317.301 367.34 317.469 366.716C317.649 366.08 317.739 365.414 317.739 364.718ZM330.732 367.58C330.732 368.12 330.612 368.612 330.372 369.056C330.132 369.5 329.796 369.878 329.364 370.19C328.944 370.502 328.446 370.748 327.87 370.928C327.294 371.096 326.67 371.18 325.998 371.18C325.326 371.18 324.702 371.096 324.126 370.928C323.55 370.748 323.046 370.502 322.614 370.19C322.194 369.878 321.864 369.5 321.624 369.056C321.384 368.612 321.264 368.126 321.264 367.598C321.264 366.842 321.504 366.206 321.984 365.69C322.476 365.162 323.1 364.76 323.856 364.484C323.568 364.352 323.292 364.196 323.028 364.016C322.764 363.824 322.53 363.614 322.326 363.386C322.134 363.146 321.978 362.876 321.858 362.576C321.75 362.276 321.696 361.94 321.696 361.568C321.696 361.076 321.81 360.626 322.038 360.218C322.278 359.81 322.59 359.456 322.974 359.156C323.37 358.856 323.826 358.628 324.342 358.472C324.87 358.304 325.422 358.22 325.998 358.22C326.574 358.22 327.12 358.304 327.636 358.472C328.164 358.628 328.62 358.856 329.004 359.156C329.4 359.456 329.712 359.81 329.94 360.218C330.18 360.626 330.3 361.076 330.3 361.568C330.3 361.94 330.24 362.276 330.12 362.576C330.012 362.876 329.856 363.146 329.652 363.386C329.46 363.614 329.232 363.824 328.968 364.016C328.704 364.196 328.428 364.352 328.14 364.484C328.896 364.76 329.514 365.156 329.994 365.672C330.486 366.188 330.732 366.824 330.732 367.58ZM328.878 361.658C328.878 361.346 328.806 361.058 328.662 360.794C328.518 360.518 328.314 360.284 328.05 360.092C327.798 359.888 327.492 359.732 327.132 359.624C326.784 359.516 326.406 359.462 325.998 359.462C325.59 359.462 325.206 359.516 324.846 359.624C324.498 359.732 324.192 359.888 323.928 360.092C323.676 360.284 323.478 360.512 323.334 360.776C323.19 361.04 323.118 361.334 323.118 361.658C323.118 362.006 323.19 362.324 323.334 362.612C323.49 362.888 323.694 363.128 323.946 363.332C324.21 363.536 324.516 363.698 324.864 363.818C325.224 363.926 325.602 363.98 325.998 363.98C326.394 363.98 326.766 363.926 327.114 363.818C327.474 363.698 327.78 363.536 328.032 363.332C328.296 363.128 328.5 362.888 328.644 362.612C328.8 362.324 328.878 362.006 328.878 361.658ZM329.292 367.562C329.292 367.202 329.202 366.878 329.022 366.59C328.854 366.29 328.62 366.038 328.32 365.834C328.032 365.618 327.684 365.45 327.276 365.33C326.88 365.21 326.454 365.15 325.998 365.15C325.542 365.15 325.11 365.21 324.702 365.33C324.306 365.45 323.958 365.618 323.658 365.834C323.358 366.038 323.124 366.29 322.956 366.59C322.788 366.878 322.704 367.202 322.704 367.562C322.704 367.886 322.776 368.192 322.92 368.48C323.076 368.768 323.292 369.02 323.568 369.236C323.856 369.452 324.204 369.626 324.612 369.758C325.02 369.878 325.482 369.938 325.998 369.938C326.514 369.938 326.976 369.878 327.384 369.758C327.792 369.626 328.134 369.452 328.41 369.236C328.698 369.02 328.914 368.768 329.058 368.48C329.214 368.192 329.292 367.886 329.292 367.562Z" fill="white"/>
<path d="M251.696 459.696V458.4H260.246V459.462L254.522 471H252.938L258.626 459.696H251.696ZM262.418 459.696V458.4H270.968V459.462L265.244 471H263.66L269.348 459.696H262.418ZM270.952 472.566C271.408 472.398 271.732 472.188 271.924 471.936C272.116 471.696 272.194 471.384 272.158 471H271.51V469.11H273.166V470.73C273.166 471.462 273.004 472.014 272.68 472.386C272.356 472.77 271.852 473.04 271.168 473.196L270.952 472.566ZM275.409 459.696V458.4H283.959V459.462L278.235 471H276.651L282.339 459.696H275.409ZM292.278 459.678H286.122V458.4H294.168V459.444L290.208 463.836C290.76 463.884 291.288 463.986 291.792 464.142C292.296 464.298 292.734 464.52 293.106 464.808C293.49 465.096 293.796 465.456 294.024 465.888C294.252 466.32 294.366 466.824 294.366 467.4C294.366 467.964 294.252 468.48 294.024 468.948C293.808 469.416 293.508 469.818 293.124 470.154C292.752 470.49 292.308 470.754 291.792 470.946C291.288 471.126 290.742 471.216 290.154 471.216C289.098 471.216 288.18 471.012 287.4 470.604C286.62 470.184 285.972 469.638 285.456 468.966L286.482 468.048C286.974 468.648 287.514 469.11 288.102 469.434C288.702 469.758 289.392 469.92 290.172 469.92C290.556 469.92 290.916 469.866 291.252 469.758C291.588 469.638 291.876 469.47 292.116 469.254C292.368 469.038 292.566 468.78 292.71 468.48C292.854 468.168 292.926 467.826 292.926 467.454C292.926 466.662 292.596 466.056 291.936 465.636C291.288 465.216 290.442 465.006 289.398 465.006H288.588L288.3 464.16L292.278 459.678ZM297.289 464.538L297.649 458.4H304.903V459.714H298.891L298.621 463.746C298.993 463.578 299.365 463.446 299.737 463.35C300.121 463.242 300.577 463.188 301.105 463.188C301.717 463.188 302.287 463.278 302.815 463.458C303.343 463.638 303.805 463.896 304.201 464.232C304.597 464.556 304.903 464.958 305.119 465.438C305.347 465.918 305.461 466.458 305.461 467.058C305.461 467.682 305.347 468.252 305.119 468.768C304.903 469.272 304.597 469.71 304.201 470.082C303.805 470.442 303.331 470.724 302.779 470.928C302.227 471.12 301.621 471.216 300.961 471.216C300.061 471.216 299.227 471.03 298.459 470.658C297.703 470.274 297.037 469.794 296.461 469.218L297.397 468.192C297.949 468.732 298.519 469.158 299.107 469.47C299.707 469.77 300.331 469.92 300.979 469.92C301.423 469.92 301.831 469.854 302.203 469.722C302.587 469.578 302.911 469.38 303.175 469.128C303.439 468.876 303.643 468.582 303.787 468.246C303.943 467.898 304.021 467.52 304.021 467.112C304.021 466.716 303.943 466.356 303.787 466.032C303.643 465.708 303.433 465.432 303.157 465.204C302.881 464.964 302.551 464.778 302.167 464.646C301.783 464.514 301.357 464.448 300.889 464.448C300.349 464.448 299.863 464.52 299.431 464.664C299.011 464.796 298.615 464.964 298.243 465.168L297.289 464.538Z" fill="white"/>
<path d="M15.212 400.4V401.714H7.57998V406.214H14.402V407.51H7.57998V413H6.15798V400.4H15.212ZM23.3525 407.996V413H21.9125V408.014L16.6745 400.4H18.4025L22.6505 406.7L26.9345 400.4H28.5905L23.3525 407.996ZM34.5992 401.498C33.8792 401.498 33.2612 401.684 32.7452 402.056C32.2292 402.416 31.7192 402.95 31.2152 403.658L30.1712 402.902C30.4592 402.482 30.7532 402.104 31.0532 401.768C31.3532 401.432 31.6772 401.15 32.0252 400.922C32.3852 400.694 32.7812 400.52 33.2132 400.4C33.6572 400.28 34.1552 400.22 34.7072 400.22C35.2832 400.22 35.8052 400.31 36.2732 400.49C36.7532 400.67 37.1672 400.922 37.5152 401.246C37.8632 401.558 38.1332 401.936 38.3252 402.38C38.5172 402.812 38.6132 403.286 38.6132 403.802C38.6132 404.27 38.5472 404.696 38.4152 405.08C38.2952 405.464 38.1032 405.848 37.8392 406.232C37.5752 406.604 37.2452 406.994 36.8492 407.402C36.4532 407.798 35.9792 408.236 35.4272 408.716L32.0612 411.704H38.7392V413H29.9372V411.902L34.5092 407.87C34.9892 407.438 35.3972 407.048 35.7332 406.7C36.0692 406.352 36.3392 406.028 36.5432 405.728C36.7592 405.416 36.9092 405.116 36.9932 404.828C37.0892 404.528 37.1372 404.222 37.1372 403.91C37.1372 403.538 37.0652 403.208 36.9212 402.92C36.7892 402.62 36.6092 402.368 36.3812 402.164C36.1532 401.948 35.8832 401.786 35.5712 401.678C35.2592 401.558 34.9352 401.498 34.5992 401.498ZM45.3746 401.498C44.6546 401.498 44.0366 401.684 43.5206 402.056C43.0046 402.416 42.4946 402.95 41.9906 403.658L40.9466 402.902C41.2346 402.482 41.5286 402.104 41.8286 401.768C42.1286 401.432 42.4526 401.15 42.8006 400.922C43.1606 400.694 43.5566 400.52 43.9886 400.4C44.4326 400.28 44.9306 400.22 45.4826 400.22C46.0586 400.22 46.5806 400.31 47.0486 400.49C47.5286 400.67 47.9426 400.922 48.2906 401.246C48.6386 401.558 48.9086 401.936 49.1006 402.38C49.2926 402.812 49.3886 403.286 49.3886 403.802C49.3886 404.27 49.3226 404.696 49.1906 405.08C49.0706 405.464 48.8786 405.848 48.6146 406.232C48.3506 406.604 48.0206 406.994 47.6246 407.402C47.2286 407.798 46.7546 408.236 46.2026 408.716L42.8366 411.704H49.5146V413H40.7126V411.902L45.2846 407.87C45.7646 407.438 46.1726 407.048 46.5086 406.7C46.8446 406.352 47.1146 406.028 47.3186 405.728C47.5346 405.416 47.6846 405.116 47.7686 404.828C47.8646 404.528 47.9126 404.222 47.9126 403.91C47.9126 403.538 47.8406 403.208 47.6966 402.92C47.5646 402.62 47.3846 402.368 47.1566 402.164C46.9286 401.948 46.6586 401.786 46.3466 401.678C46.0346 401.558 45.7106 401.498 45.3746 401.498Z" fill="black"/>
<path d="M12.0801 497.4V498.714H4.44814V503.214H11.2701V504.51H4.44814V510H3.02614V497.4H12.0801ZM20.2206 504.996V510H18.7806V505.014L13.5426 497.4H15.2706L19.5186 503.7L23.8026 497.4H25.4586L20.2206 504.996ZM31.4674 498.498C30.7474 498.498 30.1294 498.684 29.6134 499.056C29.0974 499.416 28.5874 499.95 28.0834 500.658L27.0394 499.902C27.3274 499.482 27.6214 499.104 27.9214 498.768C28.2214 498.432 28.5454 498.15 28.8934 497.922C29.2534 497.694 29.6494 497.52 30.0814 497.4C30.5254 497.28 31.0234 497.22 31.5754 497.22C32.1514 497.22 32.6734 497.31 33.1414 497.49C33.6214 497.67 34.0354 497.922 34.3834 498.246C34.7314 498.558 35.0014 498.936 35.1934 499.38C35.3854 499.812 35.4814 500.286 35.4814 500.802C35.4814 501.27 35.4154 501.696 35.2834 502.08C35.1634 502.464 34.9714 502.848 34.7074 503.232C34.4434 503.604 34.1134 503.994 33.7174 504.402C33.3214 504.798 32.8474 505.236 32.2954 505.716L28.9294 508.704H35.6074V510H26.8054V508.902L31.3774 504.87C31.8574 504.438 32.2654 504.048 32.6014 503.7C32.9374 503.352 33.2074 503.028 33.4114 502.728C33.6274 502.416 33.7774 502.116 33.8614 501.828C33.9574 501.528 34.0054 501.222 34.0054 500.91C34.0054 500.538 33.9334 500.208 33.7894 499.92C33.6574 499.62 33.4774 499.368 33.2494 499.164C33.0214 498.948 32.7514 498.786 32.4394 498.678C32.1274 498.558 31.8034 498.498 31.4674 498.498ZM44.4388 498.678H38.2828V497.4H46.3288V498.444L42.3688 502.836C42.9208 502.884 43.4488 502.986 43.9528 503.142C44.4568 503.298 44.8948 503.52 45.2668 503.808C45.6508 504.096 45.9568 504.456 46.1848 504.888C46.4128 505.32 46.5268 505.824 46.5268 506.4C46.5268 506.964 46.4128 507.48 46.1848 507.948C45.9688 508.416 45.6688 508.818 45.2848 509.154C44.9128 509.49 44.4688 509.754 43.9528 509.946C43.4488 510.126 42.9028 510.216 42.3148 510.216C41.2588 510.216 40.3408 510.012 39.5608 509.604C38.7808 509.184 38.1328 508.638 37.6168 507.966L38.6428 507.048C39.1348 507.648 39.6748 508.11 40.2628 508.434C40.8628 508.758 41.5528 508.92 42.3328 508.92C42.7168 508.92 43.0768 508.866 43.4128 508.758C43.7488 508.638 44.0368 508.47 44.2768 508.254C44.5288 508.038 44.7268 507.78 44.8708 507.48C45.0148 507.168 45.0868 506.826 45.0868 506.454C45.0868 505.662 44.7568 505.056 44.0968 504.636C43.4488 504.216 42.6028 504.006 41.5588 504.006H40.7488L40.4608 503.16L44.4388 498.678Z" fill="black"/>
<path d="M79 186L72.0718 178.5L85.9282 178.5L79 186Z" fill="#C9D63F"/>
<path d="M79 286L72.0718 278.5L85.9282 278.5L79 286Z" fill="#C9D63F"/>
<path d="M79 386L72.0718 378.5L85.9282 378.5L79 386Z" fill="#C9D63F"/>
<path d="M80 486L73.0718 478.5L86.9282 478.5L80 486Z" fill="#C9D63F"/>
<path d="M374 186L367.072 178.5L380.928 178.5L374 186Z" fill="#9AA613"/>
<path d="M330 286L323.072 278.5L336.928 278.5L330 286Z" fill="#9AA613"/>
<path d="M299 386L292.072 378.5L305.928 378.5L299 386Z" fill="#9AA613"/>
<path d="M277 486L270.072 478.5L283.928 478.5L277 486Z" fill="#9AA613"/>
<path d="M61 566L61 148" stroke="#B1B3B6"/>
<path d="M0 54L488 54" stroke="#B1B3B6"/>
<path d="M14.16 14.032C14.16 14.864 14.008 15.608 13.704 16.264C13.4 16.904 12.976 17.448 12.432 17.896C11.888 18.328 11.24 18.664 10.488 18.904C9.736 19.128 8.904 19.24 7.992 19.24C6.712 19.24 5.456 19.024 4.224 18.592C2.992 18.144 1.872 17.464 0.864 16.552L3.048 13.936C3.816 14.56 4.6 15.056 5.4 15.424C6.216 15.792 7.104 15.976 8.064 15.976C8.832 15.976 9.424 15.84 9.84 15.568C10.272 15.28 10.488 14.888 10.488 14.392V14.344C10.488 14.104 10.44 13.896 10.344 13.72C10.264 13.528 10.096 13.352 9.84 13.192C9.6 13.032 9.256 12.872 8.808 12.712C8.376 12.552 7.808 12.384 7.104 12.208C6.256 12 5.488 11.768 4.8 11.512C4.112 11.256 3.528 10.944 3.048 10.576C2.568 10.192 2.192 9.72 1.92 9.16C1.664 8.6 1.536 7.904 1.536 7.072V7.024C1.536 6.256 1.68 5.568 1.968 4.96C2.256 4.336 2.656 3.8 3.168 3.352C3.696 2.904 4.32 2.56 5.04 2.32C5.76 2.08 6.552 1.96 7.416 1.96C8.648 1.96 9.776 2.144 10.8 2.512C11.84 2.88 12.792 3.408 13.656 4.096L11.736 6.88C10.984 6.368 10.248 5.968 9.528 5.68C8.808 5.376 8.088 5.224 7.368 5.224C6.648 5.224 6.104 5.368 5.736 5.656C5.384 5.928 5.208 6.272 5.208 6.688V6.736C5.208 7.008 5.256 7.248 5.352 7.456C5.464 7.648 5.656 7.824 5.928 7.984C6.2 8.144 6.568 8.296 7.032 8.44C7.512 8.584 8.112 8.752 8.832 8.944C9.68 9.168 10.432 9.424 11.088 9.712C11.76 9.984 12.32 10.32 12.768 10.72C13.232 11.104 13.576 11.56 13.8 12.088C14.04 12.616 14.16 13.248 14.16 13.984V14.032ZM36.9276 16.288C36.4956 16.752 36.0476 17.168 35.5836 17.536C35.1196 17.904 34.6076 18.224 34.0476 18.496C33.5036 18.752 32.9036 18.944 32.2476 19.072C31.5916 19.216 30.8556 19.288 30.0396 19.288C28.8076 19.288 27.6636 19.064 26.6076 18.616C25.5516 18.168 24.6396 17.56 23.8716 16.792C23.1036 16.008 22.5036 15.088 22.0716 14.032C21.6396 12.976 21.4236 11.848 21.4236 10.648V10.6C21.4236 9.4 21.6396 8.28 22.0716 7.24C22.5036 6.184 23.1036 5.264 23.8716 4.48C24.6396 3.68 25.5596 3.056 26.6316 2.608C27.7036 2.144 28.8876 1.912 30.1836 1.912C30.9676 1.912 31.6796 1.976 32.3196 2.104C32.9756 2.232 33.5676 2.408 34.0956 2.632C34.6236 2.856 35.1116 3.128 35.5596 3.448C36.0076 3.768 36.4236 4.12 36.8076 4.504L34.4556 7.216C33.7996 6.624 33.1276 6.16 32.4396 5.824C31.7676 5.488 31.0076 5.32 30.1596 5.32C29.4556 5.32 28.7996 5.456 28.1916 5.728C27.5996 6 27.0876 6.376 26.6556 6.856C26.2236 7.336 25.8876 7.896 25.6476 8.536C25.4076 9.16 25.2876 9.832 25.2876 10.552V10.6C25.2876 11.32 25.4076 12 25.6476 12.64C25.8876 13.28 26.2156 13.84 26.6316 14.32C27.0636 14.8 27.5756 15.184 28.1676 15.472C28.7756 15.744 29.4396 15.88 30.1596 15.88C31.1196 15.88 31.9276 15.704 32.5836 15.352C33.2556 15 33.9196 14.52 34.5756 13.912L36.9276 16.288ZM61.7983 10.6C61.7983 11.8 61.5743 12.928 61.1263 13.984C60.6783 15.024 60.0543 15.944 59.2543 16.744C58.4703 17.528 57.5263 18.152 56.4223 18.616C55.3343 19.064 54.1423 19.288 52.8463 19.288C51.5503 19.288 50.3583 19.064 49.2703 18.616C48.1823 18.152 47.2383 17.536 46.4383 16.768C45.6543 15.984 45.0383 15.072 44.5903 14.032C44.1583 12.976 43.9423 11.848 43.9423 10.648V10.6C43.9423 9.4 44.1663 8.28 44.6143 7.24C45.0623 6.184 45.6783 5.264 46.4623 4.48C47.2623 3.68 48.2063 3.056 49.2943 2.608C50.3983 2.144 51.5983 1.912 52.8943 1.912C54.1903 1.912 55.3823 2.144 56.4703 2.608C57.5583 3.056 58.4943 3.672 59.2783 4.456C60.0783 5.224 60.6943 6.136 61.1263 7.192C61.5743 8.232 61.7983 9.352 61.7983 10.552V10.6ZM57.9343 10.648V10.6C57.9343 9.88 57.8063 9.2 57.5503 8.56C57.3103 7.92 56.9583 7.36 56.4943 6.88C56.0463 6.4 55.5103 6.024 54.8863 5.752C54.2623 5.464 53.5823 5.32 52.8463 5.32C52.0943 5.32 51.4063 5.456 50.7823 5.728C50.1743 6 49.6463 6.376 49.1983 6.856C48.7663 7.336 48.4223 7.896 48.1663 8.536C47.9263 9.16 47.8063 9.832 47.8063 10.552V10.6C47.8063 11.32 47.9263 12 48.1663 12.64C48.4223 13.28 48.7743 13.84 49.2223 14.32C49.6863 14.8 50.2223 15.184 50.8303 15.472C51.4543 15.744 52.1423 15.88 52.8943 15.88C53.6303 15.88 54.3103 15.744 54.9343 15.472C55.5583 15.2 56.0863 14.824 56.5183 14.344C56.9663 13.864 57.3103 13.312 57.5503 12.688C57.8063 12.048 57.9343 11.368 57.9343 10.648ZM83.1729 8.056C83.1729 9.032 82.9969 9.888 82.6449 10.624C82.2929 11.36 81.8049 11.976 81.1809 12.472C80.5729 12.968 79.8529 13.344 79.0209 13.6C78.2049 13.84 77.3249 13.96 76.3809 13.96H73.5729V19H69.8769V2.2H76.7409C77.7489 2.2 78.6449 2.344 79.4289 2.632C80.2289 2.904 80.9009 3.296 81.4449 3.808C82.0049 4.32 82.4289 4.936 82.7169 5.656C83.0209 6.36 83.1729 7.144 83.1729 8.008V8.056ZM79.4289 8.128V8.08C79.4289 7.248 79.1569 6.616 78.6129 6.184C78.0849 5.752 77.3569 5.536 76.4289 5.536H73.5729V10.672H76.5009C77.4289 10.672 78.1489 10.432 78.6609 9.952C79.1729 9.456 79.4289 8.848 79.4289 8.128ZM103.5 19H90.7082V2.2H103.38V5.488H94.3802V8.896H102.3V12.184H94.3802V15.712H103.5V19ZM122.142 3.52L126.966 2.08H129.486V19H125.838V5.824L122.91 6.544L122.142 3.52ZM164.518 17.44L161.806 19.336L159.862 17.368C159.174 17.928 158.422 18.384 157.606 18.736C156.806 19.072 155.918 19.24 154.942 19.24C154.142 19.24 153.398 19.128 152.71 18.904C152.022 18.68 151.422 18.36 150.91 17.944C150.414 17.512 150.022 17 149.734 16.408C149.446 15.8 149.302 15.12 149.302 14.368C149.302 13.28 149.582 12.36 150.142 11.608C150.702 10.84 151.51 10.216 152.566 9.736C152.15 9.144 151.846 8.584 151.654 8.056C151.478 7.512 151.39 6.944 151.39 6.352C151.39 5.776 151.502 5.224 151.726 4.696C151.95 4.152 152.278 3.68 152.71 3.28C153.142 2.864 153.67 2.536 154.294 2.296C154.934 2.04 155.662 1.912 156.478 1.912C157.198 1.912 157.846 2.024 158.422 2.248C158.998 2.456 159.494 2.752 159.91 3.136C160.326 3.52 160.646 3.976 160.87 4.504C161.094 5.016 161.206 5.568 161.206 6.16C161.206 7.296 160.878 8.216 160.222 8.92C159.566 9.624 158.718 10.176 157.678 10.576L159.91 12.808C160.182 12.376 160.454 11.92 160.726 11.44C160.998 10.944 161.27 10.44 161.542 9.928L164.254 11.416C163.934 12.008 163.59 12.608 163.222 13.216C162.854 13.824 162.462 14.408 162.046 14.968L164.518 17.44ZM157.99 6.376C157.99 5.864 157.838 5.472 157.534 5.2C157.246 4.928 156.87 4.792 156.406 4.792C155.91 4.792 155.51 4.952 155.206 5.272C154.918 5.592 154.774 6.008 154.774 6.52C154.774 6.904 154.846 7.256 154.99 7.576C155.15 7.88 155.406 8.232 155.758 8.632C156.494 8.36 157.046 8.056 157.414 7.72C157.798 7.368 157.99 6.92 157.99 6.376ZM157.798 15.256L154.582 11.992C154.022 12.28 153.622 12.624 153.382 13.024C153.142 13.408 153.022 13.808 153.022 14.224C153.022 14.832 153.238 15.32 153.67 15.688C154.118 16.04 154.686 16.216 155.374 16.216C155.79 16.216 156.198 16.136 156.598 15.976C157.014 15.8 157.414 15.56 157.798 15.256ZM189.408 5.272C188.752 5.272 188.168 5.456 187.656 5.824C187.16 6.192 186.6 6.76 185.976 7.528L183.384 5.44C183.8 4.88 184.216 4.384 184.632 3.952C185.064 3.52 185.52 3.16 186 2.872C186.496 2.568 187.04 2.344 187.632 2.2C188.224 2.04 188.896 1.96 189.648 1.96C190.544 1.96 191.344 2.088 192.048 2.344C192.768 2.584 193.376 2.936 193.872 3.4C194.384 3.848 194.768 4.392 195.024 5.032C195.296 5.672 195.432 6.384 195.432 7.168C195.432 7.872 195.336 8.504 195.144 9.064C194.968 9.608 194.696 10.128 194.328 10.624C193.976 11.12 193.52 11.616 192.96 12.112C192.4 12.592 191.752 13.12 191.016 13.696L188.28 15.808H195.6V19H183.168V16.072L188.76 11.488C189.288 11.056 189.736 10.672 190.104 10.336C190.472 9.984 190.768 9.656 190.992 9.352C191.232 9.032 191.4 8.728 191.496 8.44C191.608 8.136 191.664 7.808 191.664 7.456C191.664 6.736 191.456 6.192 191.04 5.824C190.624 5.456 190.08 5.272 189.408 5.272ZM228.549 19H215.757V2.2H228.429V5.488H219.429V8.896H227.349V12.184H219.429V15.712H228.549V19ZM253.435 19H249.763V8.032L245.035 15.208H244.939L240.259 8.104V19H236.635V2.2H240.619L245.035 9.304L249.451 2.2H253.435V19ZM266.135 19H262.439V2.2H266.135V19ZM287.277 14.032C287.277 14.864 287.125 15.608 286.821 16.264C286.517 16.904 286.093 17.448 285.549 17.896C285.005 18.328 284.357 18.664 283.605 18.904C282.853 19.128 282.021 19.24 281.109 19.24C279.829 19.24 278.573 19.024 277.341 18.592C276.109 18.144 274.989 17.464 273.981 16.552L276.165 13.936C276.933 14.56 277.717 15.056 278.517 15.424C279.333 15.792 280.221 15.976 281.181 15.976C281.949 15.976 282.541 15.84 282.957 15.568C283.389 15.28 283.605 14.888 283.605 14.392V14.344C283.605 14.104 283.557 13.896 283.461 13.72C283.381 13.528 283.213 13.352 282.957 13.192C282.717 13.032 282.373 12.872 281.925 12.712C281.493 12.552 280.925 12.384 280.221 12.208C279.373 12 278.605 11.768 277.917 11.512C277.229 11.256 276.645 10.944 276.165 10.576C275.685 10.192 275.309 9.72 275.037 9.16C274.781 8.6 274.653 7.904 274.653 7.072V7.024C274.653 6.256 274.797 5.568 275.085 4.96C275.373 4.336 275.773 3.8 276.285 3.352C276.813 2.904 277.437 2.56 278.157 2.32C278.877 2.08 279.669 1.96 280.533 1.96C281.765 1.96 282.893 2.144 283.917 2.512C284.957 2.88 285.909 3.408 286.773 4.096L284.853 6.88C284.101 6.368 283.365 5.968 282.645 5.68C281.925 5.376 281.205 5.224 280.485 5.224C279.765 5.224 279.221 5.368 278.853 5.656C278.501 5.928 278.325 6.272 278.325 6.688V6.736C278.325 7.008 278.373 7.248 278.469 7.456C278.581 7.648 278.773 7.824 279.045 7.984C279.317 8.144 279.685 8.296 280.149 8.44C280.629 8.584 281.229 8.752 281.949 8.944C282.797 9.168 283.549 9.424 284.205 9.712C284.877 9.984 285.437 10.32 285.885 10.72C286.349 11.104 286.693 11.56 286.917 12.088C287.157 12.616 287.277 13.248 287.277 13.984V14.032ZM307.429 14.032C307.429 14.864 307.277 15.608 306.973 16.264C306.669 16.904 306.245 17.448 305.701 17.896C305.157 18.328 304.509 18.664 303.757 18.904C303.005 19.128 302.173 19.24 301.261 19.24C299.981 19.24 298.725 19.024 297.493 18.592C296.261 18.144 295.141 17.464 294.133 16.552L296.317 13.936C297.085 14.56 297.869 15.056 298.669 15.424C299.485 15.792 300.373 15.976 301.333 15.976C302.101 15.976 302.693 15.84 303.109 15.568C303.541 15.28 303.757 14.888 303.757 14.392V14.344C303.757 14.104 303.709 13.896 303.613 13.72C303.533 13.528 303.365 13.352 303.109 13.192C302.869 13.032 302.525 12.872 302.077 12.712C301.645 12.552 301.077 12.384 300.373 12.208C299.525 12 298.757 11.768 298.069 11.512C297.381 11.256 296.797 10.944 296.317 10.576C295.837 10.192 295.461 9.72 295.189 9.16C294.933 8.6 294.805 7.904 294.805 7.072V7.024C294.805 6.256 294.949 5.568 295.237 4.96C295.525 4.336 295.925 3.8 296.437 3.352C296.965 2.904 297.589 2.56 298.309 2.32C299.029 2.08 299.821 1.96 300.685 1.96C301.917 1.96 303.045 2.144 304.069 2.512C305.109 2.88 306.061 3.408 306.925 4.096L305.005 6.88C304.253 6.368 303.517 5.968 302.797 5.68C302.077 5.376 301.357 5.224 300.637 5.224C299.917 5.224 299.373 5.368 299.005 5.656C298.653 5.928 298.477 6.272 298.477 6.688V6.736C298.477 7.008 298.525 7.248 298.621 7.456C298.733 7.648 298.925 7.824 299.197 7.984C299.469 8.144 299.837 8.296 300.301 8.44C300.781 8.584 301.381 8.752 302.101 8.944C302.949 9.168 303.701 9.424 304.357 9.712C305.029 9.984 305.589 10.32 306.037 10.72C306.501 11.104 306.845 11.56 307.069 12.088C307.309 12.616 307.429 13.248 307.429 13.984V14.032ZM319.3 19H315.604V2.2H319.3V19ZM345.411 10.6C345.411 11.8 345.187 12.928 344.739 13.984C344.291 15.024 343.667 15.944 342.867 16.744C342.083 17.528 341.139 18.152 340.035 18.616C338.947 19.064 337.755 19.288 336.459 19.288C335.163 19.288 333.971 19.064 332.883 18.616C331.795 18.152 330.851 17.536 330.051 16.768C329.267 15.984 328.651 15.072 328.203 14.032C327.771 12.976 327.555 11.848 327.555 10.648V10.6C327.555 9.4 327.779 8.28 328.227 7.24C328.675 6.184 329.291 5.264 330.075 4.48C330.875 3.68 331.819 3.056 332.907 2.608C334.011 2.144 335.211 1.912 336.507 1.912C337.803 1.912 338.995 2.144 340.083 2.608C341.171 3.056 342.107 3.672 342.891 4.456C343.691 5.224 344.307 6.136 344.739 7.192C345.187 8.232 345.411 9.352 345.411 10.552V10.6ZM341.547 10.648V10.6C341.547 9.88 341.419 9.2 341.163 8.56C340.923 7.92 340.571 7.36 340.107 6.88C339.659 6.4 339.123 6.024 338.499 5.752C337.875 5.464 337.195 5.32 336.459 5.32C335.707 5.32 335.019 5.456 334.395 5.728C333.787 6 333.259 6.376 332.811 6.856C332.379 7.336 332.035 7.896 331.779 8.536C331.539 9.16 331.419 9.832 331.419 10.552V10.6C331.419 11.32 331.539 12 331.779 12.64C332.035 13.28 332.387 13.84 332.835 14.32C333.299 14.8 333.835 15.184 334.443 15.472C335.067 15.744 335.755 15.88 336.507 15.88C337.243 15.88 337.923 15.744 338.547 15.472C339.171 15.2 339.699 14.824 340.131 14.344C340.579 13.864 340.923 13.312 341.163 12.688C341.419 12.048 341.547 11.368 341.547 10.648ZM368.417 19H365.273L357.137 8.32V19H353.489V2.2H356.897L364.769 12.544V2.2H368.417V19ZM389.394 14.032C389.394 14.864 389.242 15.608 388.938 16.264C388.634 16.904 388.21 17.448 387.666 17.896C387.122 18.328 386.474 18.664 385.722 18.904C384.97 19.128 384.138 19.24 383.226 19.24C381.946 19.24 380.69 19.024 379.458 18.592C378.226 18.144 377.106 17.464 376.098 16.552L378.282 13.936C379.05 14.56 379.834 15.056 380.634 15.424C381.45 15.792 382.338 15.976 383.298 15.976C384.066 15.976 384.658 15.84 385.074 15.568C385.506 15.28 385.722 14.888 385.722 14.392V14.344C385.722 14.104 385.674 13.896 385.578 13.72C385.498 13.528 385.33 13.352 385.074 13.192C384.834 13.032 384.49 12.872 384.042 12.712C383.61 12.552 383.042 12.384 382.338 12.208C381.49 12 380.722 11.768 380.034 11.512C379.346 11.256 378.762 10.944 378.282 10.576C377.802 10.192 377.426 9.72 377.154 9.16C376.898 8.6 376.77 7.904 376.77 7.072V7.024C376.77 6.256 376.914 5.568 377.202 4.96C377.49 4.336 377.89 3.8 378.402 3.352C378.93 2.904 379.554 2.56 380.274 2.32C380.994 2.08 381.786 1.96 382.65 1.96C383.882 1.96 385.01 2.144 386.034 2.512C387.074 2.88 388.026 3.408 388.89 4.096L386.97 6.88C386.218 6.368 385.482 5.968 384.762 5.68C384.042 5.376 383.322 5.224 382.602 5.224C381.882 5.224 381.338 5.368 380.97 5.656C380.618 5.928 380.442 6.272 380.442 6.688V6.736C380.442 7.008 380.49 7.248 380.586 7.456C380.698 7.648 380.89 7.824 381.162 7.984C381.434 8.144 381.802 8.296 382.266 8.44C382.746 8.584 383.346 8.752 384.066 8.944C384.914 9.168 385.666 9.424 386.322 9.712C386.994 9.984 387.554 10.32 388.002 10.72C388.466 11.104 388.81 11.56 389.034 12.088C389.274 12.616 389.394 13.248 389.394 13.984V14.032Z" fill="#B0BC25"/>
<path d="M6.804 31.048C5.424 31.924 4.38 32.914 3.672 34.018C2.976 35.11 2.628 36.382 2.628 37.834C2.628 39.286 2.976 40.564 3.672 41.668C4.38 42.76 5.424 43.744 6.804 44.62L6.21 45.538C4.602 44.638 3.366 43.546 2.502 42.262C1.65 40.978 1.224 39.502 1.224 37.834C1.224 36.166 1.65 34.69 2.502 33.406C3.366 32.122 4.602 31.03 6.21 30.13L6.804 31.048ZM10.9727 31.66H9.38869V30.13H10.9727V31.66ZM10.8647 43H9.47869V33.694H10.8647V43ZM15.4672 37.672V43H14.0812V33.694H15.4672V35.314C15.7792 34.81 16.1872 34.384 16.6912 34.036C17.1952 33.676 17.8492 33.496 18.6532 33.496C19.2172 33.496 19.7152 33.586 20.1472 33.766C20.5912 33.946 20.9632 34.204 21.2632 34.54C21.5752 34.864 21.8092 35.254 21.9652 35.71C22.1332 36.166 22.2172 36.67 22.2172 37.222V43H20.8312V37.564C20.8312 36.7 20.6092 36.016 20.1652 35.512C19.7212 35.008 19.0852 34.756 18.2572 34.756C17.8612 34.756 17.4892 34.828 17.1412 34.972C16.8052 35.104 16.5112 35.302 16.2592 35.566C16.0072 35.818 15.8092 36.124 15.6652 36.484C15.5332 36.844 15.4672 37.24 15.4672 37.672ZM35.8975 35.908L41.5315 43H39.7495L34.9075 36.898L32.2255 39.616V43H30.8035V30.4H32.2255V37.924L39.4615 30.4H41.2975L35.8975 35.908ZM49.3965 33.658L51.9165 41.164L54.3645 33.694H55.8045L52.5285 43.072H51.3225L48.8205 35.728L46.3005 43.072H45.0765L41.8185 33.694H43.2945L45.7425 41.164L48.2445 33.658H49.3965ZM67.0424 37.33H59.7704V43H58.3484V30.4H59.7704V35.998H67.0424V30.4H68.4644V43H67.0424V37.33ZM71.3622 29.72L72.0222 28.7C73.8089 29.7 75.1755 30.9133 76.1222 32.34C77.0822 33.7667 77.5622 35.4067 77.5622 37.26C77.5622 39.1133 77.0822 40.7533 76.1222 42.18C75.1755 43.6067 73.8089 44.82 72.0222 45.82L71.3622 44.8C72.8955 43.8267 74.0489 42.7333 74.8222 41.52C75.6089 40.2933 76.0022 38.8733 76.0022 37.26C76.0022 35.6467 75.6089 34.2333 74.8222 33.02C74.0489 31.7933 72.8955 30.6933 71.3622 29.72Z" fill="#717171"/>
<rect y="78" width="20" height="20" rx="10" fill="#C9D63F"/>
<rect x="160" y="78" width="20" height="20" rx="10" fill="#9AA613"/>
<path d="M26.56 85.6C26.56 85.8667 26.6027 86.1067 26.688 86.32C26.7733 86.5333 26.928 86.7307 27.152 86.912C27.376 87.0827 27.6853 87.2427 28.08 87.392C28.4747 87.5307 28.9813 87.664 29.6 87.792C30.848 88.0693 31.7653 88.4533 32.352 88.944C32.9493 89.4347 33.248 90.112 33.248 90.976C33.248 91.456 33.152 91.8933 32.96 92.288C32.768 92.6827 32.5013 93.0187 32.16 93.296C31.8293 93.5733 31.4293 93.7867 30.96 93.936C30.4907 94.0853 29.9787 94.16 29.424 94.16C28.528 94.16 27.7067 94.016 26.96 93.728C26.224 93.4293 25.52 92.976 24.848 92.368L25.632 91.44C26.2187 91.9733 26.8107 92.3733 27.408 92.64C28.0053 92.896 28.6933 93.024 29.472 93.024C30.2293 93.024 30.832 92.848 31.28 92.496C31.7387 92.144 31.968 91.68 31.968 91.104C31.968 90.8373 31.9253 90.6027 31.84 90.4C31.7547 90.1867 31.6053 89.9947 31.392 89.824C31.1787 89.6533 30.88 89.4987 30.496 89.36C30.1227 89.2213 29.6427 89.088 29.056 88.96C28.416 88.8213 27.856 88.6613 27.376 88.48C26.9067 88.2987 26.5173 88.08 26.208 87.824C25.8987 87.568 25.6693 87.2693 25.52 86.928C25.3707 86.5867 25.296 86.1813 25.296 85.712C25.296 85.264 25.3867 84.8533 25.568 84.48C25.7493 84.1067 26.0053 83.7867 26.336 83.52C26.6667 83.2427 27.056 83.0293 27.504 82.88C27.952 82.72 28.4427 82.64 28.976 82.64C29.7973 82.64 30.512 82.7573 31.12 82.992C31.7387 83.216 32.336 83.5573 32.912 84.016L32.176 84.992C31.6533 84.5653 31.1253 84.256 30.592 84.064C30.0693 83.872 29.52 83.776 28.944 83.776C28.5813 83.776 28.2507 83.824 27.952 83.92C27.664 84.016 27.4133 84.144 27.2 84.304C26.9973 84.464 26.8373 84.656 26.72 84.88C26.6133 85.104 26.56 85.344 26.56 85.6ZM42.7144 92.592C42.2984 93.0613 41.8237 93.4453 41.2904 93.744C40.7677 94.0427 40.117 94.192 39.3384 94.192C38.7304 94.192 38.165 94.08 37.6424 93.856C37.1304 93.6213 36.6824 93.312 36.2984 92.928C35.925 92.5333 35.6317 92.0747 35.4184 91.552C35.205 91.0293 35.0984 90.4747 35.0984 89.888C35.0984 89.3013 35.205 88.7467 35.4184 88.224C35.6317 87.6907 35.925 87.2267 36.2984 86.832C36.6824 86.4373 37.1304 86.128 37.6424 85.904C38.165 85.6693 38.7304 85.552 39.3384 85.552C39.733 85.552 40.0904 85.5893 40.4104 85.664C40.7304 85.7387 41.0237 85.8453 41.2904 85.984C41.557 86.112 41.8024 86.2667 42.0264 86.448C42.2504 86.6293 42.4584 86.8213 42.6504 87.024L41.8344 87.888C41.5037 87.5467 41.141 87.2533 40.7464 87.008C40.3624 86.7627 39.8877 86.64 39.3224 86.64C38.9064 86.64 38.517 86.7253 38.1544 86.896C37.7917 87.056 37.477 87.2853 37.2104 87.584C36.9437 87.872 36.7357 88.2133 36.5864 88.608C36.437 88.992 36.3624 89.408 36.3624 89.856C36.3624 90.304 36.437 90.7253 36.5864 91.12C36.7464 91.5147 36.9597 91.8613 37.2264 92.16C37.5037 92.448 37.8237 92.6773 38.1864 92.848C38.5597 93.008 38.965 93.088 39.4024 93.088C39.9357 93.088 40.405 92.9707 40.8104 92.736C41.2264 92.5013 41.5997 92.208 41.9304 91.856L42.7144 92.592ZM52.6286 89.856C52.6286 90.4427 52.5166 91.0027 52.2926 91.536C52.0793 92.0587 51.7806 92.5173 51.3966 92.912C51.0126 93.3067 50.554 93.6213 50.0206 93.856C49.4873 94.08 48.9113 94.192 48.2926 94.192C47.674 94.192 47.1033 94.08 46.5806 93.856C46.058 93.6213 45.6046 93.312 45.2206 92.928C44.8366 92.5333 44.538 92.0747 44.3246 91.552C44.1113 91.0293 44.0046 90.4747 44.0046 89.888C44.0046 89.3013 44.1113 88.7467 44.3246 88.224C44.538 87.6907 44.8366 87.2267 45.2206 86.832C45.6046 86.4373 46.058 86.128 46.5806 85.904C47.114 85.6693 47.6953 85.552 48.3246 85.552C48.9433 85.552 49.514 85.6693 50.0366 85.904C50.57 86.128 51.0286 86.4373 51.4126 86.832C51.7966 87.216 52.0953 87.6693 52.3086 88.192C52.522 88.7147 52.6286 89.2693 52.6286 89.856ZM51.3646 89.888C51.3646 89.44 51.2846 89.0187 51.1246 88.624C50.9753 88.2293 50.762 87.888 50.4846 87.6C50.2073 87.3013 49.882 87.0667 49.5086 86.896C49.1353 86.7253 48.73 86.64 48.2926 86.64C47.8446 86.64 47.434 86.7253 47.0606 86.896C46.6873 87.056 46.3673 87.2853 46.1006 87.584C45.8446 87.872 45.642 88.2133 45.4926 88.608C45.3433 88.992 45.2686 89.408 45.2686 89.856C45.2686 90.304 45.3433 90.7253 45.4926 91.12C45.6526 91.5147 45.866 91.856 46.1326 92.144C46.41 92.432 46.7353 92.6613 47.1086 92.832C47.482 93.0027 47.8873 93.088 48.3246 93.088C48.7726 93.088 49.1833 93.008 49.5566 92.848C49.93 92.6773 50.25 92.448 50.5166 92.16C50.7833 91.872 50.9913 91.536 51.1406 91.152C51.29 90.7573 51.3646 90.336 51.3646 89.888ZM63.2124 89.856C63.2124 90.5387 63.1004 91.1467 62.8764 91.68C62.6524 92.2133 62.3537 92.6667 61.9804 93.04C61.6177 93.4027 61.1964 93.6853 60.7164 93.888C60.247 94.08 59.7617 94.176 59.2604 94.176C58.8764 94.176 58.5244 94.128 58.2044 94.032C57.8844 93.936 57.5964 93.808 57.3404 93.648C57.0844 93.488 56.8497 93.3013 56.6364 93.088C56.4337 92.8747 56.2524 92.6507 56.0924 92.416V96.56H54.8604V85.728H56.0924V87.392C56.263 87.1467 56.4497 86.912 56.6524 86.688C56.8657 86.464 57.1004 86.272 57.3564 86.112C57.6124 85.9413 57.895 85.808 58.2044 85.712C58.5244 85.6053 58.8764 85.552 59.2604 85.552C59.751 85.552 60.231 85.648 60.7004 85.84C61.1804 86.032 61.607 86.3147 61.9804 86.688C62.3537 87.0507 62.6524 87.4987 62.8764 88.032C63.1004 88.5653 63.2124 89.1733 63.2124 89.856ZM61.9484 89.872C61.9484 89.3813 61.8684 88.9387 61.7084 88.544C61.559 88.1493 61.351 87.8133 61.0844 87.536C60.8177 87.248 60.5084 87.0293 60.1564 86.88C59.8044 86.7307 59.431 86.656 59.0364 86.656C58.6524 86.656 58.279 86.736 57.9164 86.896C57.5644 87.0453 57.2444 87.2587 56.9564 87.536C56.679 87.8133 56.455 88.1493 56.2844 88.544C56.1244 88.9387 56.0444 89.376 56.0444 89.856C56.0444 90.336 56.1244 90.7787 56.2844 91.184C56.455 91.5787 56.679 91.9147 56.9564 92.192C57.2444 92.4693 57.5644 92.688 57.9164 92.848C58.279 92.9973 58.6524 93.072 59.0364 93.072C59.431 93.072 59.8044 93.0027 60.1564 92.864C60.519 92.7147 60.8284 92.5067 61.0844 92.24C61.351 91.9627 61.559 91.6267 61.7084 91.232C61.8684 90.8267 61.9484 90.3733 61.9484 89.872ZM66.2214 90.32C66.264 90.768 66.3707 91.168 66.5414 91.52C66.712 91.8613 66.9307 92.1547 67.1974 92.4C67.464 92.6347 67.7627 92.816 68.0934 92.944C68.424 93.0613 68.7707 93.12 69.1334 93.12C69.7094 93.12 70.2 93.0133 70.6054 92.8C71.0214 92.5867 71.4 92.304 71.7414 91.952L72.5094 92.64C72.0934 93.1093 71.6187 93.488 71.0854 93.776C70.552 94.0533 69.8907 94.192 69.1014 94.192C68.536 94.192 68.0027 94.0907 67.5014 93.888C67 93.6747 66.5627 93.3813 66.1894 93.008C65.816 92.624 65.5174 92.1653 65.2934 91.632C65.08 91.0987 64.9734 90.512 64.9734 89.872C64.9734 89.2747 65.0694 88.7147 65.2614 88.192C65.464 87.6587 65.7414 87.2 66.0934 86.816C66.4454 86.4213 66.8614 86.112 67.3414 85.888C67.832 85.664 68.3654 85.552 68.9414 85.552C69.5494 85.552 70.0934 85.6693 70.5734 85.904C71.0534 86.128 71.4587 86.4373 71.7894 86.832C72.12 87.2267 72.3707 87.6907 72.5414 88.224C72.712 88.7573 72.7974 89.328 72.7974 89.936C72.7974 89.9893 72.7974 90.048 72.7974 90.112C72.7974 90.176 72.792 90.2453 72.7814 90.32H66.2214ZM66.2214 89.408H71.5494C71.5174 89.0347 71.4374 88.6773 71.3094 88.336C71.192 87.9947 71.0214 87.696 70.7974 87.44C70.584 87.184 70.3174 86.9813 69.9974 86.832C69.688 86.672 69.3254 86.592 68.9094 86.592C68.5467 86.592 68.2107 86.6667 67.9014 86.816C67.592 86.9547 67.32 87.152 67.0854 87.408C66.8507 87.6533 66.6587 87.9467 66.5094 88.288C66.36 88.6293 66.264 89.0027 66.2214 89.408ZM83.863 89.84H79.415V88.544H83.863V89.84ZM90.1511 83.664L92.8871 82.72H93.8151V94H92.5671V84.032L90.4551 84.688L90.1511 83.664Z" fill="black"/>
<path d="M186.56 85.6C186.56 85.8667 186.603 86.1067 186.688 86.32C186.773 86.5333 186.928 86.7307 187.152 86.912C187.376 87.0827 187.685 87.2427 188.08 87.392C188.475 87.5307 188.981 87.664 189.6 87.792C190.848 88.0693 191.765 88.4533 192.352 88.944C192.949 89.4347 193.248 90.112 193.248 90.976C193.248 91.456 193.152 91.8933 192.96 92.288C192.768 92.6827 192.501 93.0187 192.16 93.296C191.829 93.5733 191.429 93.7867 190.96 93.936C190.491 94.0853 189.979 94.16 189.424 94.16C188.528 94.16 187.707 94.016 186.96 93.728C186.224 93.4293 185.52 92.976 184.848 92.368L185.632 91.44C186.219 91.9733 186.811 92.3733 187.408 92.64C188.005 92.896 188.693 93.024 189.472 93.024C190.229 93.024 190.832 92.848 191.28 92.496C191.739 92.144 191.968 91.68 191.968 91.104C191.968 90.8373 191.925 90.6027 191.84 90.4C191.755 90.1867 191.605 89.9947 191.392 89.824C191.179 89.6533 190.88 89.4987 190.496 89.36C190.123 89.2213 189.643 89.088 189.056 88.96C188.416 88.8213 187.856 88.6613 187.376 88.48C186.907 88.2987 186.517 88.08 186.208 87.824C185.899 87.568 185.669 87.2693 185.52 86.928C185.371 86.5867 185.296 86.1813 185.296 85.712C185.296 85.264 185.387 84.8533 185.568 84.48C185.749 84.1067 186.005 83.7867 186.336 83.52C186.667 83.2427 187.056 83.0293 187.504 82.88C187.952 82.72 188.443 82.64 188.976 82.64C189.797 82.64 190.512 82.7573 191.12 82.992C191.739 83.216 192.336 83.5573 192.912 84.016L192.176 84.992C191.653 84.5653 191.125 84.256 190.592 84.064C190.069 83.872 189.52 83.776 188.944 83.776C188.581 83.776 188.251 83.824 187.952 83.92C187.664 84.016 187.413 84.144 187.2 84.304C186.997 84.464 186.837 84.656 186.72 84.88C186.613 85.104 186.56 85.344 186.56 85.6ZM202.714 92.592C202.298 93.0613 201.824 93.4453 201.29 93.744C200.768 94.0427 200.117 94.192 199.338 94.192C198.73 94.192 198.165 94.08 197.642 93.856C197.13 93.6213 196.682 93.312 196.298 92.928C195.925 92.5333 195.632 92.0747 195.418 91.552C195.205 91.0293 195.098 90.4747 195.098 89.888C195.098 89.3013 195.205 88.7467 195.418 88.224C195.632 87.6907 195.925 87.2267 196.298 86.832C196.682 86.4373 197.13 86.128 197.642 85.904C198.165 85.6693 198.73 85.552 199.338 85.552C199.733 85.552 200.09 85.5893 200.41 85.664C200.73 85.7387 201.024 85.8453 201.29 85.984C201.557 86.112 201.802 86.2667 202.026 86.448C202.25 86.6293 202.458 86.8213 202.65 87.024L201.834 87.888C201.504 87.5467 201.141 87.2533 200.746 87.008C200.362 86.7627 199.888 86.64 199.322 86.64C198.906 86.64 198.517 86.7253 198.154 86.896C197.792 87.056 197.477 87.2853 197.21 87.584C196.944 87.872 196.736 88.2133 196.586 88.608C196.437 88.992 196.362 89.408 196.362 89.856C196.362 90.304 196.437 90.7253 196.586 91.12C196.746 91.5147 196.96 91.8613 197.226 92.16C197.504 92.448 197.824 92.6773 198.186 92.848C198.56 93.008 198.965 93.088 199.402 93.088C199.936 93.088 200.405 92.9707 200.81 92.736C201.226 92.5013 201.6 92.208 201.93 91.856L202.714 92.592ZM212.629 89.856C212.629 90.4427 212.517 91.0027 212.293 91.536C212.079 92.0587 211.781 92.5173 211.397 92.912C211.013 93.3067 210.554 93.6213 210.021 93.856C209.487 94.08 208.911 94.192 208.293 94.192C207.674 94.192 207.103 94.08 206.581 93.856C206.058 93.6213 205.605 93.312 205.221 92.928C204.837 92.5333 204.538 92.0747 204.325 91.552C204.111 91.0293 204.005 90.4747 204.005 89.888C204.005 89.3013 204.111 88.7467 204.325 88.224C204.538 87.6907 204.837 87.2267 205.221 86.832C205.605 86.4373 206.058 86.128 206.581 85.904C207.114 85.6693 207.695 85.552 208.325 85.552C208.943 85.552 209.514 85.6693 210.037 85.904C210.57 86.128 211.029 86.4373 211.413 86.832C211.797 87.216 212.095 87.6693 212.309 88.192C212.522 88.7147 212.629 89.2693 212.629 89.856ZM211.365 89.888C211.365 89.44 211.285 89.0187 211.125 88.624C210.975 88.2293 210.762 87.888 210.485 87.6C210.207 87.3013 209.882 87.0667 209.509 86.896C209.135 86.7253 208.73 86.64 208.293 86.64C207.845 86.64 207.434 86.7253 207.061 86.896C206.687 87.056 206.367 87.2853 206.101 87.584C205.845 87.872 205.642 88.2133 205.493 88.608C205.343 88.992 205.269 89.408 205.269 89.856C205.269 90.304 205.343 90.7253 205.493 91.12C205.653 91.5147 205.866 91.856 206.133 92.144C206.41 92.432 206.735 92.6613 207.109 92.832C207.482 93.0027 207.887 93.088 208.325 93.088C208.773 93.088 209.183 93.008 209.557 92.848C209.93 92.6773 210.25 92.448 210.517 92.16C210.783 91.872 210.991 91.536 211.141 91.152C211.29 90.7573 211.365 90.336 211.365 89.888ZM223.212 89.856C223.212 90.5387 223.1 91.1467 222.876 91.68C222.652 92.2133 222.354 92.6667 221.98 93.04C221.618 93.4027 221.196 93.6853 220.716 93.888C220.247 94.08 219.762 94.176 219.26 94.176C218.876 94.176 218.524 94.128 218.204 94.032C217.884 93.936 217.596 93.808 217.34 93.648C217.084 93.488 216.85 93.3013 216.636 93.088C216.434 92.8747 216.252 92.6507 216.092 92.416V96.56H214.86V85.728H216.092V87.392C216.263 87.1467 216.45 86.912 216.652 86.688C216.866 86.464 217.1 86.272 217.356 86.112C217.612 85.9413 217.895 85.808 218.204 85.712C218.524 85.6053 218.876 85.552 219.26 85.552C219.751 85.552 220.231 85.648 220.7 85.84C221.18 86.032 221.607 86.3147 221.98 86.688C222.354 87.0507 222.652 87.4987 222.876 88.032C223.1 88.5653 223.212 89.1733 223.212 89.856ZM221.948 89.872C221.948 89.3813 221.868 88.9387 221.708 88.544C221.559 88.1493 221.351 87.8133 221.084 87.536C220.818 87.248 220.508 87.0293 220.156 86.88C219.804 86.7307 219.431 86.656 219.036 86.656C218.652 86.656 218.279 86.736 217.916 86.896C217.564 87.0453 217.244 87.2587 216.956 87.536C216.679 87.8133 216.455 88.1493 216.284 88.544C216.124 88.9387 216.044 89.376 216.044 89.856C216.044 90.336 216.124 90.7787 216.284 91.184C216.455 91.5787 216.679 91.9147 216.956 92.192C217.244 92.4693 217.564 92.688 217.916 92.848C218.279 92.9973 218.652 93.072 219.036 93.072C219.431 93.072 219.804 93.0027 220.156 92.864C220.519 92.7147 220.828 92.5067 221.084 92.24C221.351 91.9627 221.559 91.6267 221.708 91.232C221.868 90.8267 221.948 90.3733 221.948 89.872ZM226.221 90.32C226.264 90.768 226.371 91.168 226.541 91.52C226.712 91.8613 226.931 92.1547 227.197 92.4C227.464 92.6347 227.763 92.816 228.093 92.944C228.424 93.0613 228.771 93.12 229.133 93.12C229.709 93.12 230.2 93.0133 230.605 92.8C231.021 92.5867 231.4 92.304 231.741 91.952L232.509 92.64C232.093 93.1093 231.619 93.488 231.085 93.776C230.552 94.0533 229.891 94.192 229.101 94.192C228.536 94.192 228.003 94.0907 227.501 93.888C227 93.6747 226.563 93.3813 226.189 93.008C225.816 92.624 225.517 92.1653 225.293 91.632C225.08 91.0987 224.973 90.512 224.973 89.872C224.973 89.2747 225.069 88.7147 225.261 88.192C225.464 87.6587 225.741 87.2 226.093 86.816C226.445 86.4213 226.861 86.112 227.341 85.888C227.832 85.664 228.365 85.552 228.941 85.552C229.549 85.552 230.093 85.6693 230.573 85.904C231.053 86.128 231.459 86.4373 231.789 86.832C232.12 87.2267 232.371 87.6907 232.541 88.224C232.712 88.7573 232.797 89.328 232.797 89.936C232.797 89.9893 232.797 90.048 232.797 90.112C232.797 90.176 232.792 90.2453 232.781 90.32H226.221ZM226.221 89.408H231.549C231.517 89.0347 231.437 88.6773 231.309 88.336C231.192 87.9947 231.021 87.696 230.797 87.44C230.584 87.184 230.317 86.9813 229.997 86.832C229.688 86.672 229.325 86.592 228.909 86.592C228.547 86.592 228.211 86.6667 227.901 86.816C227.592 86.9547 227.32 87.152 227.085 87.408C226.851 87.6533 226.659 87.9467 226.509 88.288C226.36 88.6293 226.264 89.0027 226.221 89.408ZM239.066 89.84H234.618V88.544H239.066V89.84ZM245.021 83.776C244.381 83.776 243.832 83.9413 243.373 84.272C242.915 84.592 242.461 85.0667 242.013 85.696L241.085 85.024C241.341 84.6507 241.603 84.3147 241.869 84.016C242.136 83.7173 242.424 83.4667 242.733 83.264C243.053 83.0613 243.405 82.9067 243.789 82.8C244.184 82.6933 244.627 82.64 245.117 82.64C245.629 82.64 246.093 82.72 246.509 82.88C246.936 83.04 247.304 83.264 247.613 83.552C247.923 83.8293 248.163 84.1653 248.333 84.56C248.504 84.944 248.589 85.3653 248.589 85.824C248.589 86.24 248.531 86.6187 248.413 86.96C248.307 87.3013 248.136 87.6427 247.901 87.984C247.667 88.3147 247.373 88.6613 247.021 89.024C246.669 89.376 246.248 89.7653 245.757 90.192L242.765 92.848H248.701V94H240.877V93.024L244.941 89.44C245.368 89.056 245.731 88.7093 246.029 88.4C246.328 88.0907 246.568 87.8027 246.749 87.536C246.941 87.2587 247.075 86.992 247.149 86.736C247.235 86.4693 247.277 86.1973 247.277 85.92C247.277 85.5893 247.213 85.296 247.085 85.04C246.968 84.7733 246.808 84.5493 246.605 84.368C246.403 84.176 246.163 84.032 245.885 83.936C245.608 83.8293 245.32 83.776 245.021 83.776Z" fill="black"/>
</svg>
