<svg width="390" height="550" viewBox="0 0 390 550" fill="none" xmlns="http://www.w3.org/2000/svg">
<path d="M63 245V151" stroke="black" stroke-dasharray="2 2"/>
<path d="M151 258V151" stroke="black" stroke-dasharray="2 2"/>
<path d="M239 313V151" stroke="black" stroke-dasharray="2 2"/>
<path d="M327 347L327 151" stroke="black" stroke-dasharray="2 2"/>
<path d="M138 265C138 261.134 141.134 258 145 258H164V525H138V265Z" fill="#D6D795"/>
<path d="M226 288C226 284.134 229.134 281 233 281H252V525H226V288Z" fill="#D6D795"/>
<path d="M314 313C314 309.134 317.134 306 321 306H340V525H314V313Z" fill="#9AA613"/>
<path d="M50 235C50 231.134 53.134 228 57 228H76V525H50V235Z" fill="#D6D795"/>
<rect x="32" y="111" width="62" height="27" rx="7" fill="#D6D795"/>
<rect x="120" y="111" width="62" height="27" rx="7" fill="#D6D795"/>
<rect x="208" y="111" width="62" height="27" rx="7" fill="#D6D795"/>
<rect x="296" y="111" width="62" height="27" rx="7" fill="#9AA613"/>
<path d="M41.9412 123.538L42.3012 117.4H49.5552V118.714H43.5432L43.2732 122.746C43.6452 122.578 44.0172 122.446 44.3892 122.35C44.7732 122.242 45.2292 122.188 45.7572 122.188C46.3692 122.188 46.9392 122.278 47.4672 122.458C47.9952 122.638 48.4572 122.896 48.8532 123.232C49.2492 123.556 49.5552 123.958 49.7712 124.438C49.9992 124.918 50.1132 125.458 50.1132 126.058C50.1132 126.682 49.9992 127.252 49.7712 127.768C49.5552 128.272 49.2492 128.71 48.8532 129.082C48.4572 129.442 47.9832 129.724 47.4312 129.928C46.8792 130.12 46.2732 130.216 45.6132 130.216C44.7132 130.216 43.8792 130.03 43.1112 129.658C42.3552 129.274 41.6892 128.794 41.1132 128.218L42.0492 127.192C42.6012 127.732 43.1712 128.158 43.7592 128.47C44.3592 128.77 44.9832 128.92 45.6312 128.92C46.0752 128.92 46.4832 128.854 46.8552 128.722C47.2392 128.578 47.5632 128.38 47.8272 128.128C48.0912 127.876 48.2952 127.582 48.4392 127.246C48.5952 126.898 48.6732 126.52 48.6732 126.112C48.6732 125.716 48.5952 125.356 48.4392 125.032C48.2952 124.708 48.0852 124.432 47.8092 124.204C47.5332 123.964 47.2032 123.778 46.8192 123.646C46.4352 123.514 46.0092 123.448 45.5412 123.448C45.0012 123.448 44.5152 123.52 44.0832 123.664C43.6632 123.796 43.2672 123.964 42.8952 124.168L41.9412 123.538ZM52.9627 123.538L53.3227 117.4H60.5767V118.714H54.5647L54.2947 122.746C54.6667 122.578 55.0387 122.446 55.4107 122.35C55.7947 122.242 56.2507 122.188 56.7787 122.188C57.3907 122.188 57.9607 122.278 58.4887 122.458C59.0167 122.638 59.4787 122.896 59.8747 123.232C60.2707 123.556 60.5767 123.958 60.7927 124.438C61.0207 124.918 61.1347 125.458 61.1347 126.058C61.1347 126.682 61.0207 127.252 60.7927 127.768C60.5767 128.272 60.2707 128.71 59.8747 129.082C59.4787 129.442 59.0047 129.724 58.4527 129.928C57.9007 130.12 57.2947 130.216 56.6347 130.216C55.7347 130.216 54.9007 130.03 54.1327 129.658C53.3767 129.274 52.7107 128.794 52.1347 128.218L53.0707 127.192C53.6227 127.732 54.1927 128.158 54.7807 128.47C55.3807 128.77 56.0047 128.92 56.6527 128.92C57.0967 128.92 57.5047 128.854 57.8767 128.722C58.2607 128.578 58.5847 128.38 58.8487 128.128C59.1127 127.876 59.3167 127.582 59.4607 127.246C59.6167 126.898 59.6947 126.52 59.6947 126.112C59.6947 125.716 59.6167 125.356 59.4607 125.032C59.3167 124.708 59.1067 124.432 58.8307 124.204C58.5547 123.964 58.2247 123.778 57.8407 123.646C57.4567 123.514 57.0307 123.448 56.5627 123.448C56.0227 123.448 55.5367 123.52 55.1047 123.664C54.6847 123.796 54.2887 123.964 53.9167 124.168L52.9627 123.538ZM65.2441 130H63.5881V128.11H65.2441V130ZM72.1403 118.498C71.4203 118.498 70.8023 118.684 70.2863 119.056C69.7703 119.416 69.2603 119.95 68.7563 120.658L67.7123 119.902C68.0003 119.482 68.2943 119.104 68.5943 118.768C68.8943 118.432 69.2183 118.15 69.5663 117.922C69.9263 117.694 70.3223 117.52 70.7543 117.4C71.1983 117.28 71.6963 117.22 72.2483 117.22C72.8243 117.22 73.3463 117.31 73.8143 117.49C74.2943 117.67 74.7083 117.922 75.0563 118.246C75.4043 118.558 75.6743 118.936 75.8663 119.38C76.0583 119.812 76.1543 120.286 76.1543 120.802C76.1543 121.27 76.0883 121.696 75.9563 122.08C75.8363 122.464 75.6443 122.848 75.3803 123.232C75.1163 123.604 74.7863 123.994 74.3903 124.402C73.9943 124.798 73.5203 125.236 72.9683 125.716L69.6023 128.704H76.2803V130H67.4783V128.902L72.0503 124.87C72.5303 124.438 72.9383 124.048 73.2743 123.7C73.6103 123.352 73.8803 123.028 74.0843 122.728C74.3003 122.416 74.4503 122.116 74.5343 121.828C74.6303 121.528 74.6783 121.222 74.6783 120.91C74.6783 120.538 74.6063 120.208 74.4623 119.92C74.3303 119.62 74.1503 119.368 73.9223 119.164C73.6943 118.948 73.4243 118.786 73.1123 118.678C72.8003 118.558 72.4763 118.498 72.1403 118.498ZM77.8936 118.372L80.9716 117.31H82.0156V130H80.6116V118.786L78.2356 119.524L77.8936 118.372Z" fill="#151515"/>
<path d="M50.1661 534.4V535.714H42.5341V540.214H49.3561V541.51H42.5341V547H41.1121V534.4H50.1661ZM58.3066 541.996V547H56.8666V542.014L51.6286 534.4H53.3566L57.6046 540.7L61.8886 534.4H63.5446L58.3066 541.996ZM69.5533 535.498C68.8333 535.498 68.2153 535.684 67.6993 536.056C67.1833 536.416 66.6733 536.95 66.1693 537.658L65.1253 536.902C65.4133 536.482 65.7073 536.104 66.0073 535.768C66.3073 535.432 66.6313 535.15 66.9793 534.922C67.3393 534.694 67.7353 534.52 68.1673 534.4C68.6113 534.28 69.1093 534.22 69.6613 534.22C70.2373 534.22 70.7593 534.31 71.2273 534.49C71.7073 534.67 72.1213 534.922 72.4693 535.246C72.8173 535.558 73.0873 535.936 73.2793 536.38C73.4713 536.812 73.5673 537.286 73.5673 537.802C73.5673 538.27 73.5013 538.696 73.3693 539.08C73.2493 539.464 73.0573 539.848 72.7933 540.232C72.5293 540.604 72.1993 540.994 71.8033 541.402C71.4073 541.798 70.9333 542.236 70.3813 542.716L67.0153 545.704H73.6933V547H64.8913V545.902L69.4633 541.87C69.9433 541.438 70.3513 541.048 70.6873 540.7C71.0233 540.352 71.2933 540.028 71.4973 539.728C71.7133 539.416 71.8633 539.116 71.9473 538.828C72.0433 538.528 72.0913 538.222 72.0913 537.91C72.0913 537.538 72.0193 537.208 71.8753 536.92C71.7433 536.62 71.5633 536.368 71.3353 536.164C71.1073 535.948 70.8373 535.786 70.5253 535.678C70.2133 535.558 69.8893 535.498 69.5533 535.498ZM86.5567 540.682C86.5567 541.57 86.4307 542.41 86.1787 543.202C85.9267 543.994 85.5667 544.69 85.0987 545.29C84.6427 545.878 84.0847 546.346 83.4247 546.694C82.7647 547.042 82.0327 547.216 81.2287 547.216C80.4127 547.216 79.6747 547.048 79.0147 546.712C78.3667 546.364 77.8087 545.896 77.3407 545.308C76.8847 544.708 76.5307 544.018 76.2787 543.238C76.0387 542.446 75.9187 541.606 75.9187 540.718C75.9187 539.83 76.0447 538.99 76.2967 538.198C76.5487 537.406 76.9027 536.716 77.3587 536.128C77.8267 535.528 78.3907 535.054 79.0507 534.706C79.7107 534.358 80.4487 534.184 81.2647 534.184C82.0687 534.184 82.7947 534.358 83.4427 534.706C84.1027 535.042 84.6607 535.51 85.1167 536.11C85.5847 536.698 85.9387 537.388 86.1787 538.18C86.4307 538.96 86.5567 539.794 86.5567 540.682ZM85.0807 540.718C85.0807 540.022 84.9907 539.362 84.8107 538.738C84.6307 538.102 84.3727 537.544 84.0367 537.064C83.7007 536.584 83.2927 536.2 82.8127 535.912C82.3447 535.624 81.8167 535.48 81.2287 535.48C80.6407 535.48 80.1067 535.624 79.6267 535.912C79.1587 536.188 78.7567 536.566 78.4207 537.046C78.0967 537.514 77.8447 538.066 77.6647 538.702C77.4847 539.326 77.3947 539.986 77.3947 540.682C77.3947 541.378 77.4847 542.044 77.6647 542.68C77.8447 543.316 78.1027 543.874 78.4387 544.354C78.7747 544.834 79.1827 545.218 79.6627 545.506C80.1427 545.782 80.6767 545.92 81.2647 545.92C81.8527 545.92 82.3807 545.782 82.8487 545.506C83.3287 545.218 83.7307 544.84 84.0547 544.372C84.3907 543.892 84.6427 543.34 84.8107 542.716C84.9907 542.08 85.0807 541.414 85.0807 540.718Z" fill="black"/>
<path d="M132.246 117.31H133.488V125.824H135.45V127.012H133.488V130H132.12V127.012H125.478L125.118 125.986L132.246 117.31ZM132.12 125.824V119.326L126.828 125.824H132.12ZM146.792 123.376C146.792 124.384 146.666 125.308 146.414 126.148C146.162 126.976 145.802 127.696 145.334 128.308C144.878 128.908 144.326 129.376 143.678 129.712C143.042 130.048 142.334 130.216 141.554 130.216C140.726 130.216 140.006 130.072 139.394 129.784C138.782 129.484 138.206 129.112 137.666 128.668L138.494 127.57C139.01 128.026 139.514 128.368 140.006 128.596C140.498 128.812 141.026 128.92 141.59 128.92C142.154 128.92 142.67 128.782 143.138 128.506C143.606 128.23 144.002 127.852 144.326 127.372C144.662 126.88 144.914 126.298 145.082 125.626C145.262 124.942 145.346 124.198 145.334 123.394C144.986 123.946 144.524 124.42 143.948 124.816C143.372 125.212 142.646 125.41 141.77 125.41C141.122 125.41 140.528 125.314 139.988 125.122C139.448 124.93 138.986 124.66 138.602 124.312C138.218 123.964 137.918 123.55 137.702 123.07C137.486 122.59 137.378 122.062 137.378 121.486C137.378 120.886 137.486 120.328 137.702 119.812C137.93 119.284 138.242 118.828 138.638 118.444C139.034 118.048 139.508 117.742 140.06 117.526C140.624 117.298 141.242 117.184 141.914 117.184C142.634 117.184 143.264 117.298 143.804 117.526C144.344 117.754 144.818 118.072 145.226 118.48C145.478 118.732 145.7 119.008 145.892 119.308C146.084 119.608 146.246 119.956 146.378 120.352C146.51 120.736 146.612 121.18 146.684 121.684C146.756 122.176 146.792 122.74 146.792 123.376ZM145.064 121.324C145.064 120.916 144.986 120.538 144.83 120.19C144.674 119.842 144.452 119.542 144.164 119.29C143.888 119.026 143.552 118.822 143.156 118.678C142.76 118.522 142.328 118.444 141.86 118.444C141.392 118.444 140.966 118.528 140.582 118.696C140.21 118.852 139.892 119.068 139.628 119.344C139.376 119.608 139.178 119.92 139.034 120.28C138.902 120.64 138.836 121.018 138.836 121.414C138.836 121.822 138.908 122.194 139.052 122.53C139.208 122.866 139.418 123.16 139.682 123.412C139.958 123.652 140.288 123.844 140.672 123.988C141.056 124.12 141.476 124.186 141.932 124.186C142.412 124.186 142.844 124.108 143.228 123.952C143.624 123.784 143.954 123.568 144.218 123.304C144.494 123.04 144.704 122.734 144.848 122.386C144.992 122.038 145.064 121.684 145.064 121.324ZM150.765 130H149.109V128.11H150.765V130ZM162.197 118.624L161.369 119.722C160.901 119.326 160.433 119.02 159.965 118.804C159.497 118.588 158.975 118.48 158.399 118.48C157.823 118.48 157.307 118.618 156.851 118.894C156.395 119.17 156.005 119.554 155.681 120.046C155.369 120.538 155.129 121.126 154.961 121.81C154.793 122.482 154.709 123.226 154.709 124.042C154.877 123.79 155.069 123.55 155.285 123.322C155.513 123.082 155.771 122.878 156.059 122.71C156.359 122.53 156.689 122.386 157.049 122.278C157.421 122.17 157.835 122.116 158.291 122.116C158.879 122.116 159.437 122.206 159.965 122.386C160.493 122.566 160.955 122.83 161.351 123.178C161.747 123.514 162.059 123.922 162.287 124.402C162.527 124.882 162.647 125.416 162.647 126.004C162.647 126.616 162.527 127.18 162.287 127.696C162.059 128.212 161.741 128.656 161.333 129.028C160.937 129.4 160.463 129.694 159.911 129.91C159.359 130.114 158.765 130.216 158.129 130.216C157.433 130.216 156.803 130.102 156.239 129.874C155.687 129.646 155.213 129.334 154.817 128.938C154.565 128.686 154.337 128.41 154.133 128.11C153.941 127.81 153.779 127.468 153.647 127.084C153.515 126.7 153.413 126.262 153.341 125.77C153.269 125.266 153.233 124.69 153.233 124.042C153.233 123.082 153.347 122.188 153.575 121.36C153.815 120.52 154.157 119.794 154.601 119.182C155.057 118.558 155.609 118.072 156.257 117.724C156.905 117.364 157.643 117.184 158.471 117.184C159.227 117.184 159.899 117.31 160.487 117.562C161.075 117.814 161.645 118.168 162.197 118.624ZM161.189 126.058C161.189 125.662 161.111 125.302 160.955 124.978C160.811 124.642 160.601 124.354 160.325 124.114C160.061 123.874 159.737 123.688 159.353 123.556C158.981 123.412 158.567 123.34 158.111 123.34C157.643 123.34 157.211 123.418 156.815 123.574C156.431 123.73 156.101 123.94 155.825 124.204C155.549 124.456 155.333 124.75 155.177 125.086C155.033 125.41 154.961 125.752 154.961 126.112C154.961 126.52 155.039 126.898 155.195 127.246C155.351 127.594 155.567 127.894 155.843 128.146C156.131 128.398 156.467 128.596 156.851 128.74C157.247 128.884 157.679 128.956 158.147 128.956C158.615 128.956 159.035 128.884 159.407 128.74C159.779 128.584 160.097 128.38 160.361 128.128C160.625 127.864 160.829 127.558 160.973 127.21C161.117 126.85 161.189 126.466 161.189 126.058ZM175.543 123.682C175.543 124.57 175.417 125.41 175.165 126.202C174.913 126.994 174.553 127.69 174.085 128.29C173.629 128.878 173.071 129.346 172.411 129.694C171.751 130.042 171.019 130.216 170.215 130.216C169.399 130.216 168.661 130.048 168.001 129.712C167.353 129.364 166.795 128.896 166.327 128.308C165.871 127.708 165.517 127.018 165.265 126.238C165.025 125.446 164.905 124.606 164.905 123.718C164.905 122.83 165.031 121.99 165.283 121.198C165.535 120.406 165.889 119.716 166.345 119.128C166.813 118.528 167.377 118.054 168.037 117.706C168.697 117.358 169.435 117.184 170.251 117.184C171.055 117.184 171.781 117.358 172.429 117.706C173.089 118.042 173.647 118.51 174.103 119.11C174.571 119.698 174.925 120.388 175.165 121.18C175.417 121.96 175.543 122.794 175.543 123.682ZM174.067 123.718C174.067 123.022 173.977 122.362 173.797 121.738C173.617 121.102 173.359 120.544 173.023 120.064C172.687 119.584 172.279 119.2 171.799 118.912C171.331 118.624 170.803 118.48 170.215 118.48C169.627 118.48 169.093 118.624 168.613 118.912C168.145 119.188 167.743 119.566 167.407 120.046C167.083 120.514 166.831 121.066 166.651 121.702C166.471 122.326 166.381 122.986 166.381 123.682C166.381 124.378 166.471 125.044 166.651 125.68C166.831 126.316 167.089 126.874 167.425 127.354C167.761 127.834 168.169 128.218 168.649 128.506C169.129 128.782 169.663 128.92 170.251 128.92C170.839 128.92 171.367 128.782 171.835 128.506C172.315 128.218 172.717 127.84 173.041 127.372C173.377 126.892 173.629 126.34 173.797 125.716C173.977 125.08 174.067 124.414 174.067 123.718Z" fill="#151515"/>
<path d="M140.874 534.4V535.714H133.242V540.214H140.064V541.51H133.242V547H131.82V534.4H140.874ZM149.015 541.996V547H147.575V542.014L142.337 534.4H144.065L148.313 540.7L152.597 534.4H154.253L149.015 541.996ZM160.261 535.498C159.541 535.498 158.923 535.684 158.407 536.056C157.891 536.416 157.381 536.95 156.877 537.658L155.833 536.902C156.121 536.482 156.415 536.104 156.715 535.768C157.015 535.432 157.339 535.15 157.687 534.922C158.047 534.694 158.443 534.52 158.875 534.4C159.319 534.28 159.817 534.22 160.369 534.22C160.945 534.22 161.467 534.31 161.935 534.49C162.415 534.67 162.829 534.922 163.177 535.246C163.525 535.558 163.795 535.936 163.987 536.38C164.179 536.812 164.275 537.286 164.275 537.802C164.275 538.27 164.209 538.696 164.077 539.08C163.957 539.464 163.765 539.848 163.501 540.232C163.237 540.604 162.907 540.994 162.511 541.402C162.115 541.798 161.641 542.236 161.089 542.716L157.723 545.704H164.401V547H155.599V545.902L160.171 541.87C160.651 541.438 161.059 541.048 161.395 540.7C161.731 540.352 162.001 540.028 162.205 539.728C162.421 539.416 162.571 539.116 162.655 538.828C162.751 538.528 162.799 538.222 162.799 537.91C162.799 537.538 162.727 537.208 162.583 536.92C162.451 536.62 162.271 536.368 162.043 536.164C161.815 535.948 161.545 535.786 161.233 535.678C160.921 535.558 160.597 535.498 160.261 535.498ZM166.015 535.372L169.093 534.31H170.137V547H168.733V535.786L166.357 536.524L166.015 535.372Z" fill="black"/>
<path d="M223.902 117.31H225.144V125.824H227.106V127.012H225.144V130H223.776V127.012H217.134L216.774 125.986L223.902 117.31ZM223.776 125.824V119.326L218.484 125.824H223.776ZM229.858 123.538L230.218 117.4H237.472V118.714H231.46L231.19 122.746C231.562 122.578 231.934 122.446 232.306 122.35C232.69 122.242 233.146 122.188 233.674 122.188C234.286 122.188 234.856 122.278 235.384 122.458C235.912 122.638 236.374 122.896 236.77 123.232C237.166 123.556 237.472 123.958 237.688 124.438C237.916 124.918 238.03 125.458 238.03 126.058C238.03 126.682 237.916 127.252 237.688 127.768C237.472 128.272 237.166 128.71 236.77 129.082C236.374 129.442 235.9 129.724 235.348 129.928C234.796 130.12 234.19 130.216 233.53 130.216C232.63 130.216 231.796 130.03 231.028 129.658C230.272 129.274 229.606 128.794 229.03 128.218L229.966 127.192C230.518 127.732 231.088 128.158 231.676 128.47C232.276 128.77 232.9 128.92 233.548 128.92C233.992 128.92 234.4 128.854 234.772 128.722C235.156 128.578 235.48 128.38 235.744 128.128C236.008 127.876 236.212 127.582 236.356 127.246C236.512 126.898 236.59 126.52 236.59 126.112C236.59 125.716 236.512 125.356 236.356 125.032C236.212 124.708 236.002 124.432 235.726 124.204C235.45 123.964 235.12 123.778 234.736 123.646C234.352 123.514 233.926 123.448 233.458 123.448C232.918 123.448 232.432 123.52 232 123.664C231.58 123.796 231.184 123.964 230.812 124.168L229.858 123.538ZM242.14 130H240.484V128.11H242.14V130ZM251.232 118.678H245.076V117.4H253.122V118.444L249.162 122.836C249.714 122.884 250.242 122.986 250.746 123.142C251.25 123.298 251.688 123.52 252.06 123.808C252.444 124.096 252.75 124.456 252.978 124.888C253.206 125.32 253.32 125.824 253.32 126.4C253.32 126.964 253.206 127.48 252.978 127.948C252.762 128.416 252.462 128.818 252.078 129.154C251.706 129.49 251.262 129.754 250.746 129.946C250.242 130.126 249.696 130.216 249.108 130.216C248.052 130.216 247.134 130.012 246.354 129.604C245.574 129.184 244.926 128.638 244.41 127.966L245.436 127.048C245.928 127.648 246.468 128.11 247.056 128.434C247.656 128.758 248.346 128.92 249.126 128.92C249.51 128.92 249.87 128.866 250.206 128.758C250.542 128.638 250.83 128.47 251.07 128.254C251.322 128.038 251.52 127.78 251.664 127.48C251.808 127.168 251.88 126.826 251.88 126.454C251.88 125.662 251.55 125.056 250.89 124.636C250.242 124.216 249.396 124.006 248.352 124.006H247.542L247.254 123.16L251.232 118.678ZM255.053 118.372L258.131 117.31H259.175V130H257.771V118.786L255.395 119.524L255.053 118.372Z" fill="#151515"/>
<path d="M227.212 534.4V535.714H219.58V540.214H226.402V541.51H219.58V547H218.158V534.4H227.212ZM235.352 541.996V547H233.912V542.014L228.674 534.4H230.402L234.65 540.7L238.934 534.4H240.59L235.352 541.996ZM246.599 535.498C245.879 535.498 245.261 535.684 244.745 536.056C244.229 536.416 243.719 536.95 243.215 537.658L242.171 536.902C242.459 536.482 242.753 536.104 243.053 535.768C243.353 535.432 243.677 535.15 244.025 534.922C244.385 534.694 244.781 534.52 245.213 534.4C245.657 534.28 246.155 534.22 246.707 534.22C247.283 534.22 247.805 534.31 248.273 534.49C248.753 534.67 249.167 534.922 249.515 535.246C249.863 535.558 250.133 535.936 250.325 536.38C250.517 536.812 250.613 537.286 250.613 537.802C250.613 538.27 250.547 538.696 250.415 539.08C250.295 539.464 250.103 539.848 249.839 540.232C249.575 540.604 249.245 540.994 248.849 541.402C248.453 541.798 247.979 542.236 247.427 542.716L244.061 545.704H250.739V547H241.937V545.902L246.509 541.87C246.989 541.438 247.397 541.048 247.733 540.7C248.069 540.352 248.339 540.028 248.543 539.728C248.759 539.416 248.909 539.116 248.993 538.828C249.089 538.528 249.137 538.222 249.137 537.91C249.137 537.538 249.065 537.208 248.921 536.92C248.789 536.62 248.609 536.368 248.381 536.164C248.153 535.948 247.883 535.786 247.571 535.678C247.259 535.558 246.935 535.498 246.599 535.498ZM257.375 535.498C256.655 535.498 256.037 535.684 255.521 536.056C255.005 536.416 254.495 536.95 253.991 537.658L252.947 536.902C253.235 536.482 253.529 536.104 253.829 535.768C254.129 535.432 254.453 535.15 254.801 534.922C255.161 534.694 255.557 534.52 255.989 534.4C256.433 534.28 256.931 534.22 257.483 534.22C258.059 534.22 258.581 534.31 259.049 534.49C259.529 534.67 259.943 534.922 260.291 535.246C260.639 535.558 260.909 535.936 261.101 536.38C261.293 536.812 261.389 537.286 261.389 537.802C261.389 538.27 261.323 538.696 261.191 539.08C261.071 539.464 260.879 539.848 260.615 540.232C260.351 540.604 260.021 540.994 259.625 541.402C259.229 541.798 258.755 542.236 258.203 542.716L254.837 545.704H261.515V547H252.713V545.902L257.285 541.87C257.765 541.438 258.173 541.048 258.509 540.7C258.845 540.352 259.115 540.028 259.319 539.728C259.535 539.416 259.685 539.116 259.769 538.828C259.865 538.528 259.913 538.222 259.913 537.91C259.913 537.538 259.841 537.208 259.697 536.92C259.565 536.62 259.385 536.368 259.157 536.164C258.929 535.948 258.659 535.786 258.347 535.678C258.035 535.558 257.711 535.498 257.375 535.498Z" fill="black"/>
<path d="M308.959 117.31H310.201V125.824H312.163V127.012H310.201V130H308.833V127.012H302.191L301.831 125.986L308.959 117.31ZM308.833 125.824V119.326L303.541 125.824H308.833ZM324.887 123.682C324.887 124.57 324.761 125.41 324.509 126.202C324.257 126.994 323.897 127.69 323.429 128.29C322.973 128.878 322.415 129.346 321.755 129.694C321.095 130.042 320.363 130.216 319.559 130.216C318.743 130.216 318.005 130.048 317.345 129.712C316.697 129.364 316.139 128.896 315.671 128.308C315.215 127.708 314.861 127.018 314.609 126.238C314.369 125.446 314.249 124.606 314.249 123.718C314.249 122.83 314.375 121.99 314.627 121.198C314.879 120.406 315.233 119.716 315.689 119.128C316.157 118.528 316.721 118.054 317.381 117.706C318.041 117.358 318.779 117.184 319.595 117.184C320.399 117.184 321.125 117.358 321.773 117.706C322.433 118.042 322.991 118.51 323.447 119.11C323.915 119.698 324.269 120.388 324.509 121.18C324.761 121.96 324.887 122.794 324.887 123.682ZM323.411 123.718C323.411 123.022 323.321 122.362 323.141 121.738C322.961 121.102 322.703 120.544 322.367 120.064C322.031 119.584 321.623 119.2 321.143 118.912C320.675 118.624 320.147 118.48 319.559 118.48C318.971 118.48 318.437 118.624 317.957 118.912C317.489 119.188 317.087 119.566 316.751 120.046C316.427 120.514 316.175 121.066 315.995 121.702C315.815 122.326 315.725 122.986 315.725 123.682C315.725 124.378 315.815 125.044 315.995 125.68C316.175 126.316 316.433 126.874 316.769 127.354C317.105 127.834 317.513 128.218 317.993 128.506C318.473 128.782 319.007 128.92 319.595 128.92C320.183 128.92 320.711 128.782 321.179 128.506C321.659 128.218 322.061 127.84 322.385 127.372C322.721 126.892 322.973 126.34 323.141 125.716C323.321 125.08 323.411 124.414 323.411 123.718ZM328.69 130H327.034V128.11H328.69V130ZM330.933 118.696V117.4H339.483V118.462L333.759 130H332.175L337.863 118.696H330.933ZM345.694 118.498C344.974 118.498 344.356 118.684 343.84 119.056C343.324 119.416 342.814 119.95 342.31 120.658L341.266 119.902C341.554 119.482 341.848 119.104 342.148 118.768C342.448 118.432 342.772 118.15 343.12 117.922C343.48 117.694 343.876 117.52 344.308 117.4C344.752 117.28 345.25 117.22 345.802 117.22C346.378 117.22 346.9 117.31 347.368 117.49C347.848 117.67 348.262 117.922 348.61 118.246C348.958 118.558 349.228 118.936 349.42 119.38C349.612 119.812 349.708 120.286 349.708 120.802C349.708 121.27 349.642 121.696 349.51 122.08C349.39 122.464 349.198 122.848 348.934 123.232C348.67 123.604 348.34 123.994 347.944 124.402C347.548 124.798 347.074 125.236 346.522 125.716L343.156 128.704H349.834V130H341.032V128.902L345.604 124.87C346.084 124.438 346.492 124.048 346.828 123.7C347.164 123.352 347.434 123.028 347.638 122.728C347.854 122.416 348.004 122.116 348.088 121.828C348.184 121.528 348.232 121.222 348.232 120.91C348.232 120.538 348.16 120.208 348.016 119.92C347.884 119.62 347.704 119.368 347.476 119.164C347.248 118.948 346.978 118.786 346.666 118.678C346.354 118.558 346.03 118.498 345.694 118.498Z" fill="white"/>
<path d="M315.08 534.4V535.714H307.448V540.214H314.27V541.51H307.448V547H306.026V534.4H315.08ZM323.221 541.996V547H321.781V542.014L316.543 534.4H318.271L322.519 540.7L326.803 534.4H328.459L323.221 541.996ZM334.467 535.498C333.747 535.498 333.129 535.684 332.613 536.056C332.097 536.416 331.587 536.95 331.083 537.658L330.039 536.902C330.327 536.482 330.621 536.104 330.921 535.768C331.221 535.432 331.545 535.15 331.893 534.922C332.253 534.694 332.649 534.52 333.081 534.4C333.525 534.28 334.023 534.22 334.575 534.22C335.151 534.22 335.673 534.31 336.141 534.49C336.621 534.67 337.035 534.922 337.383 535.246C337.731 535.558 338.001 535.936 338.193 536.38C338.385 536.812 338.481 537.286 338.481 537.802C338.481 538.27 338.415 538.696 338.283 539.08C338.163 539.464 337.971 539.848 337.707 540.232C337.443 540.604 337.113 540.994 336.717 541.402C336.321 541.798 335.847 542.236 335.295 542.716L331.929 545.704H338.607V547H329.805V545.902L334.377 541.87C334.857 541.438 335.265 541.048 335.601 540.7C335.937 540.352 336.207 540.028 336.411 539.728C336.627 539.416 336.777 539.116 336.861 538.828C336.957 538.528 337.005 538.222 337.005 537.91C337.005 537.538 336.933 537.208 336.789 536.92C336.657 536.62 336.477 536.368 336.249 536.164C336.021 535.948 335.751 535.786 335.439 535.678C335.127 535.558 334.803 535.498 334.467 535.498ZM347.439 535.678H341.283V534.4H349.329V535.444L345.369 539.836C345.921 539.884 346.449 539.986 346.953 540.142C347.457 540.298 347.895 540.52 348.267 540.808C348.651 541.096 348.957 541.456 349.185 541.888C349.413 542.32 349.527 542.824 349.527 543.4C349.527 543.964 349.413 544.48 349.185 544.948C348.969 545.416 348.669 545.818 348.285 546.154C347.913 546.49 347.469 546.754 346.953 546.946C346.449 547.126 345.903 547.216 345.315 547.216C344.259 547.216 343.341 547.012 342.561 546.604C341.781 546.184 341.133 545.638 340.617 544.966L341.643 544.048C342.135 544.648 342.675 545.11 343.263 545.434C343.863 545.758 344.553 545.92 345.333 545.92C345.717 545.92 346.077 545.866 346.413 545.758C346.749 545.638 347.037 545.47 347.277 545.254C347.529 545.038 347.727 544.78 347.871 544.48C348.015 544.168 348.087 543.826 348.087 543.454C348.087 542.662 347.757 542.056 347.097 541.636C346.449 541.216 345.603 541.006 344.559 541.006H343.749L343.461 540.16L347.439 535.678Z" fill="black"/>
<path d="M62.5 145L56.0048 137.5L68.9952 137.5L62.5 145Z" fill="#D6D795"/>
<path d="M150.5 145L144.005 137.5L156.995 137.5L150.5 145Z" fill="#D6D795"/>
<path d="M238.5 145L232.005 137.5L244.995 137.5L238.5 145Z" fill="#D6D795"/>
<path d="M326.5 145L320.005 137.5L332.995 137.5L326.5 145Z" fill="#9AA613"/>
<path d="M0 525H390" stroke="#B1B3B6"/>
<path d="M0 54L390 54" stroke="#B1B3B6"/>
<path d="M17.28 16.624C16.416 17.36 15.384 17.992 14.184 18.52C13 19.032 11.64 19.288 10.104 19.288C8.792 19.288 7.592 19.072 6.504 18.64C5.432 18.208 4.504 17.608 3.72 16.84C2.952 16.072 2.352 15.16 1.92 14.104C1.488 13.048 1.272 11.896 1.272 10.648V10.6C1.272 9.4 1.488 8.28 1.92 7.24C2.368 6.184 2.984 5.264 3.768 4.48C4.552 3.68 5.48 3.056 6.552 2.608C7.624 2.144 8.8 1.912 10.08 1.912C10.832 1.912 11.512 1.968 12.12 2.08C12.744 2.176 13.32 2.32 13.848 2.512C14.376 2.704 14.872 2.944 15.336 3.232C15.8 3.52 16.248 3.848 16.68 4.216L14.352 7.024C14.032 6.752 13.712 6.512 13.392 6.304C13.072 6.096 12.736 5.92 12.384 5.776C12.048 5.632 11.68 5.52 11.28 5.44C10.88 5.36 10.44 5.32 9.96 5.32C9.288 5.32 8.656 5.464 8.064 5.752C7.488 6.024 6.976 6.4 6.528 6.88C6.096 7.344 5.752 7.896 5.496 8.536C5.256 9.16 5.136 9.832 5.136 10.552V10.6C5.136 11.368 5.256 12.08 5.496 12.736C5.752 13.376 6.104 13.936 6.552 14.416C7.016 14.896 7.552 15.272 8.16 15.544C8.784 15.8 9.472 15.928 10.224 15.928C11.6 15.928 12.76 15.592 13.704 14.92V12.52H9.984V9.328H17.28V16.624ZM39.8443 19H36.1483V12.256H29.3323V19H25.6363V2.2H29.3323V8.848H36.1483V2.2H39.8443V19ZM63.9347 16.624C63.0707 17.36 62.0387 17.992 60.8387 18.52C59.6547 19.032 58.2947 19.288 56.7587 19.288C55.4467 19.288 54.2467 19.072 53.1587 18.64C52.0867 18.208 51.1587 17.608 50.3747 16.84C49.6067 16.072 49.0067 15.16 48.5747 14.104C48.1427 13.048 47.9267 11.896 47.9267 10.648V10.6C47.9267 9.4 48.1427 8.28 48.5747 7.24C49.0227 6.184 49.6387 5.264 50.4227 4.48C51.2067 3.68 52.1347 3.056 53.2067 2.608C54.2787 2.144 55.4547 1.912 56.7347 1.912C57.4867 1.912 58.1667 1.968 58.7747 2.08C59.3987 2.176 59.9747 2.32 60.5027 2.512C61.0307 2.704 61.5267 2.944 61.9907 3.232C62.4547 3.52 62.9027 3.848 63.3347 4.216L61.0067 7.024C60.6867 6.752 60.3667 6.512 60.0467 6.304C59.7267 6.096 59.3907 5.92 59.0387 5.776C58.7027 5.632 58.3347 5.52 57.9347 5.44C57.5347 5.36 57.0947 5.32 56.6147 5.32C55.9427 5.32 55.3107 5.464 54.7187 5.752C54.1427 6.024 53.6307 6.4 53.1827 6.88C52.7507 7.344 52.4067 7.896 52.1507 8.536C51.9107 9.16 51.7907 9.832 51.7907 10.552V10.6C51.7907 11.368 51.9107 12.08 52.1507 12.736C52.4067 13.376 52.7587 13.936 53.2067 14.416C53.6707 14.896 54.2067 15.272 54.8147 15.544C55.4387 15.8 56.1267 15.928 56.8787 15.928C58.2547 15.928 59.4147 15.592 60.3587 14.92V12.52H56.6387V9.328H63.9347V16.624ZM88.1503 19H84.4543V2.2H88.1503V19ZM112.077 19H108.933L100.797 8.32V19H97.1488V2.2H100.557L108.429 12.544V2.2H112.077V19ZM133.63 5.608H128.518V19H124.822V5.608H119.71V2.2H133.63V5.608ZM154.064 19H141.272V2.2H153.944V5.488H144.944V8.896H152.864V12.184H144.944V15.712H154.064V19ZM177.078 19H173.934L165.798 8.32V19H162.15V2.2H165.558L173.43 12.544V2.2H177.078V19ZM198.055 14.032C198.055 14.864 197.903 15.608 197.599 16.264C197.295 16.904 196.871 17.448 196.327 17.896C195.783 18.328 195.135 18.664 194.383 18.904C193.631 19.128 192.799 19.24 191.887 19.24C190.607 19.24 189.351 19.024 188.119 18.592C186.887 18.144 185.767 17.464 184.759 16.552L186.943 13.936C187.711 14.56 188.495 15.056 189.295 15.424C190.111 15.792 190.999 15.976 191.959 15.976C192.727 15.976 193.319 15.84 193.735 15.568C194.167 15.28 194.383 14.888 194.383 14.392V14.344C194.383 14.104 194.335 13.896 194.239 13.72C194.159 13.528 193.991 13.352 193.735 13.192C193.495 13.032 193.151 12.872 192.703 12.712C192.271 12.552 191.703 12.384 190.999 12.208C190.151 12 189.383 11.768 188.695 11.512C188.007 11.256 187.423 10.944 186.943 10.576C186.463 10.192 186.087 9.72 185.815 9.16C185.559 8.6 185.431 7.904 185.431 7.072V7.024C185.431 6.256 185.575 5.568 185.863 4.96C186.151 4.336 186.551 3.8 187.063 3.352C187.591 2.904 188.215 2.56 188.935 2.32C189.655 2.08 190.447 1.96 191.311 1.96C192.543 1.96 193.671 2.144 194.695 2.512C195.735 2.88 196.687 3.408 197.551 4.096L195.631 6.88C194.879 6.368 194.143 5.968 193.423 5.68C192.703 5.376 191.983 5.224 191.263 5.224C190.543 5.224 189.999 5.368 189.631 5.656C189.279 5.928 189.103 6.272 189.103 6.688V6.736C189.103 7.008 189.151 7.248 189.247 7.456C189.359 7.648 189.551 7.824 189.823 7.984C190.095 8.144 190.463 8.296 190.927 8.44C191.407 8.584 192.007 8.752 192.727 8.944C193.575 9.168 194.327 9.424 194.983 9.712C195.655 9.984 196.215 10.32 196.663 10.72C197.127 11.104 197.471 11.56 197.695 12.088C197.935 12.616 198.055 13.248 198.055 13.984V14.032ZM209.927 19H206.231V2.2H209.927V19ZM231.645 5.608H226.533V19H222.837V5.608H217.725V2.2H231.645V5.608ZM254.168 2.2L247.712 12.304V19H244.016V12.376L237.56 2.2H241.88L245.888 8.944L249.968 2.2H254.168Z" fill="#B0BC25"/>
<path d="M6.804 31.048C5.424 31.924 4.38 32.914 3.672 34.018C2.976 35.11 2.628 36.382 2.628 37.834C2.628 39.286 2.976 40.564 3.672 41.668C4.38 42.76 5.424 43.744 6.804 44.62L6.21 45.538C4.602 44.638 3.366 43.546 2.502 42.262C1.65 40.978 1.224 39.502 1.224 37.834C1.224 36.166 1.65 34.69 2.502 33.406C3.366 32.122 4.602 31.03 6.21 30.13L6.804 31.048ZM14.3567 31.714V43H12.9167V31.714H8.68669V30.4H18.5867V31.714H14.3567ZM27.8654 38.338C27.8654 38.998 27.7394 39.628 27.4874 40.228C27.2474 40.816 26.9114 41.332 26.4794 41.776C26.0474 42.22 25.5314 42.574 24.9314 42.838C24.3314 43.09 23.6834 43.216 22.9874 43.216C22.2914 43.216 21.6494 43.09 21.0614 42.838C20.4734 42.574 19.9634 42.226 19.5314 41.794C19.0994 41.35 18.7634 40.834 18.5234 40.246C18.2834 39.658 18.1634 39.034 18.1634 38.374C18.1634 37.714 18.2834 37.09 18.5234 36.502C18.7634 35.902 19.0994 35.38 19.5314 34.936C19.9634 34.492 20.4734 34.144 21.0614 33.892C21.6614 33.628 22.3154 33.496 23.0234 33.496C23.7194 33.496 24.3614 33.628 24.9494 33.892C25.5494 34.144 26.0654 34.492 26.4974 34.936C26.9294 35.368 27.2654 35.878 27.5054 36.466C27.7454 37.054 27.8654 37.678 27.8654 38.338ZM26.4434 38.374C26.4434 37.87 26.3534 37.396 26.1734 36.952C26.0054 36.508 25.7654 36.124 25.4534 35.8C25.1414 35.464 24.7754 35.2 24.3554 35.008C23.9354 34.816 23.4794 34.72 22.9874 34.72C22.4834 34.72 22.0214 34.816 21.6014 35.008C21.1814 35.188 20.8214 35.446 20.5214 35.782C20.2334 36.106 20.0054 36.49 19.8374 36.934C19.6694 37.366 19.5854 37.834 19.5854 38.338C19.5854 38.842 19.6694 39.316 19.8374 39.76C20.0174 40.204 20.2574 40.588 20.5574 40.912C20.8694 41.236 21.2354 41.494 21.6554 41.686C22.0754 41.878 22.5314 41.974 23.0234 41.974C23.5274 41.974 23.9894 41.884 24.4094 41.704C24.8294 41.512 25.1894 41.254 25.4894 40.93C25.7894 40.606 26.0234 40.228 26.1914 39.796C26.3594 39.352 26.4434 38.878 26.4434 38.374ZM31.7621 37.672V43H30.3761V33.694H31.7621V35.314C32.0741 34.81 32.4821 34.384 32.9861 34.036C33.4901 33.676 34.1441 33.496 34.9481 33.496C35.5121 33.496 36.0101 33.586 36.4421 33.766C36.8861 33.946 37.2581 34.204 37.5581 34.54C37.8701 34.864 38.1041 35.254 38.2601 35.71C38.4281 36.166 38.5121 36.67 38.5121 37.222V43H37.1261V37.564C37.1261 36.7 36.9041 36.016 36.4601 35.512C36.0161 35.008 35.3801 34.756 34.5521 34.756C34.1561 34.756 33.7841 34.828 33.4361 34.972C33.1001 35.104 32.8061 35.302 32.5541 35.566C32.3021 35.818 32.1041 36.124 31.9601 36.484C31.8281 36.844 31.7621 37.24 31.7621 37.672ZM42.8539 37.672V43H41.4679V33.694H42.8539V35.314C43.1659 34.81 43.5739 34.384 44.0779 34.036C44.5819 33.676 45.2359 33.496 46.0399 33.496C46.6039 33.496 47.1019 33.586 47.5339 33.766C47.9779 33.946 48.3499 34.204 48.6499 34.54C48.9619 34.864 49.1959 35.254 49.3519 35.71C49.5199 36.166 49.6039 36.67 49.6039 37.222V43H48.2179V37.564C48.2179 36.7 47.9959 36.016 47.5519 35.512C47.1079 35.008 46.4719 34.756 45.6439 34.756C45.2479 34.756 44.8759 34.828 44.5279 34.972C44.1919 35.104 43.8979 35.302 43.6459 35.566C43.3939 35.818 43.1959 36.124 43.0519 36.484C42.9199 36.844 42.8539 37.24 42.8539 37.672ZM53.3877 38.86C53.4357 39.364 53.5557 39.814 53.7477 40.21C53.9397 40.594 54.1857 40.924 54.4857 41.2C54.7857 41.464 55.1217 41.668 55.4937 41.812C55.8657 41.944 56.2557 42.01 56.6637 42.01C57.3117 42.01 57.8637 41.89 58.3197 41.65C58.7877 41.41 59.2137 41.092 59.5977 40.696L60.4617 41.47C59.9937 41.998 59.4597 42.424 58.8597 42.748C58.2597 43.06 57.5157 43.216 56.6277 43.216C55.9917 43.216 55.3917 43.102 54.8277 42.874C54.2637 42.634 53.7717 42.304 53.3517 41.884C52.9317 41.452 52.5957 40.936 52.3437 40.336C52.1037 39.736 51.9837 39.076 51.9837 38.356C51.9837 37.684 52.0917 37.054 52.3077 36.466C52.5357 35.866 52.8477 35.35 53.2437 34.918C53.6397 34.474 54.1077 34.126 54.6477 33.874C55.1997 33.622 55.7997 33.496 56.4477 33.496C57.1317 33.496 57.7437 33.628 58.2837 33.892C58.8237 34.144 59.2797 34.492 59.6517 34.936C60.0237 35.38 60.3057 35.902 60.4977 36.502C60.6897 37.102 60.7857 37.744 60.7857 38.428C60.7857 38.488 60.7857 38.554 60.7857 38.626C60.7857 38.698 60.7797 38.776 60.7677 38.86H53.3877ZM53.3877 37.834H59.3817C59.3457 37.414 59.2557 37.012 59.1117 36.628C58.9797 36.244 58.7877 35.908 58.5357 35.62C58.2957 35.332 57.9957 35.104 57.6357 34.936C57.2877 34.756 56.8797 34.666 56.4117 34.666C56.0037 34.666 55.6257 34.75 55.2777 34.918C54.9297 35.074 54.6237 35.296 54.3597 35.584C54.0957 35.86 53.8797 36.19 53.7117 36.574C53.5437 36.958 53.4357 37.378 53.3877 37.834ZM69.6021 40.39C69.6021 40.834 69.5121 41.23 69.3321 41.578C69.1641 41.914 68.9301 42.202 68.6301 42.442C68.3421 42.682 67.9941 42.868 67.5861 43C67.1901 43.12 66.7581 43.18 66.2901 43.18C65.6181 43.18 64.9401 43.06 64.2561 42.82C63.5721 42.568 62.9661 42.232 62.4381 41.812L63.1401 40.822C63.6441 41.206 64.1661 41.5 64.7061 41.704C65.2581 41.908 65.8101 42.01 66.3621 42.01C66.9261 42.01 67.3881 41.878 67.7481 41.614C68.1081 41.35 68.2881 40.99 68.2881 40.534V40.498C68.2881 40.27 68.2221 40.072 68.0901 39.904C67.9701 39.736 67.8021 39.592 67.5861 39.472C67.3701 39.34 67.1181 39.226 66.8301 39.13C66.5541 39.034 66.2661 38.944 65.9661 38.86C65.6061 38.752 65.2401 38.638 64.8681 38.518C64.5081 38.386 64.1781 38.224 63.8781 38.032C63.5901 37.84 63.3501 37.6 63.1581 37.312C62.9781 37.024 62.8881 36.664 62.8881 36.232V36.196C62.8881 35.8 62.9661 35.44 63.1221 35.116C63.2781 34.78 63.4941 34.498 63.7701 34.27C64.0581 34.03 64.3941 33.85 64.7781 33.73C65.1741 33.598 65.6001 33.532 66.0561 33.532C66.6321 33.532 67.2141 33.628 67.8021 33.82C68.3901 34 68.9241 34.246 69.4041 34.558L68.7741 35.602C68.3421 35.326 67.8861 35.11 67.4061 34.954C66.9381 34.786 66.4761 34.702 66.0201 34.702C65.4681 34.702 65.0301 34.834 64.7061 35.098C64.3821 35.35 64.2201 35.668 64.2201 36.052V36.088C64.2201 36.304 64.2861 36.496 64.4181 36.664C64.5501 36.82 64.7241 36.958 64.9401 37.078C65.1681 37.198 65.4261 37.306 65.7141 37.402C66.0021 37.498 66.3021 37.594 66.6141 37.69C66.9741 37.798 67.3281 37.918 67.6761 38.05C68.0361 38.182 68.3601 38.35 68.6481 38.554C68.9361 38.758 69.1641 39.004 69.3321 39.292C69.5121 39.58 69.6021 39.934 69.6021 40.354V40.39ZM86.9694 38.338C86.9694 39.106 86.8434 39.79 86.5914 40.39C86.3394 40.99 86.0034 41.5 85.5834 41.92C85.1754 42.328 84.7014 42.646 84.1614 42.874C83.6334 43.09 83.0874 43.198 82.5234 43.198C82.0914 43.198 81.6954 43.144 81.3354 43.036C80.9754 42.928 80.6514 42.784 80.3634 42.604C80.0754 42.424 79.8114 42.214 79.5714 41.974C79.3434 41.734 79.1394 41.482 78.9594 41.218V45.88H77.5734V33.694H78.9594V35.566C79.1514 35.29 79.3614 35.026 79.5894 34.774C79.8294 34.522 80.0934 34.306 80.3814 34.126C80.6694 33.934 80.9874 33.784 81.3354 33.676C81.6954 33.556 82.0914 33.496 82.5234 33.496C83.0754 33.496 83.6154 33.604 84.1434 33.82C84.6834 34.036 85.1634 34.354 85.5834 34.774C86.0034 35.182 86.3394 35.686 86.5914 36.286C86.8434 36.886 86.9694 37.57 86.9694 38.338ZM85.5474 38.356C85.5474 37.804 85.4574 37.306 85.2774 36.862C85.1094 36.418 84.8754 36.04 84.5754 35.728C84.2754 35.404 83.9274 35.158 83.5314 34.99C83.1354 34.822 82.7154 34.738 82.2714 34.738C81.8394 34.738 81.4194 34.828 81.0114 35.008C80.6154 35.176 80.2554 35.416 79.9314 35.728C79.6194 36.04 79.3674 36.418 79.1754 36.862C78.9954 37.306 78.9054 37.798 78.9054 38.338C78.9054 38.878 78.9954 39.376 79.1754 39.832C79.3674 40.276 79.6194 40.654 79.9314 40.966C80.2554 41.278 80.6154 41.524 81.0114 41.704C81.4194 41.872 81.8394 41.956 82.2714 41.956C82.7154 41.956 83.1354 41.878 83.5314 41.722C83.9394 41.554 84.2874 41.32 84.5754 41.02C84.8754 40.708 85.1094 40.33 85.2774 39.886C85.4574 39.43 85.5474 38.92 85.5474 38.356ZM90.3545 38.86C90.4025 39.364 90.5225 39.814 90.7145 40.21C90.9065 40.594 91.1525 40.924 91.4525 41.2C91.7525 41.464 92.0885 41.668 92.4605 41.812C92.8325 41.944 93.2225 42.01 93.6305 42.01C94.2785 42.01 94.8305 41.89 95.2865 41.65C95.7545 41.41 96.1805 41.092 96.5645 40.696L97.4285 41.47C96.9605 41.998 96.4265 42.424 95.8265 42.748C95.2265 43.06 94.4825 43.216 93.5945 43.216C92.9585 43.216 92.3585 43.102 91.7945 42.874C91.2305 42.634 90.7385 42.304 90.3185 41.884C89.8985 41.452 89.5625 40.936 89.3105 40.336C89.0705 39.736 88.9505 39.076 88.9505 38.356C88.9505 37.684 89.0585 37.054 89.2745 36.466C89.5025 35.866 89.8145 35.35 90.2105 34.918C90.6065 34.474 91.0745 34.126 91.6145 33.874C92.1665 33.622 92.7665 33.496 93.4145 33.496C94.0985 33.496 94.7105 33.628 95.2505 33.892C95.7905 34.144 96.2465 34.492 96.6185 34.936C96.9905 35.38 97.2725 35.902 97.4645 36.502C97.6565 37.102 97.7525 37.744 97.7525 38.428C97.7525 38.488 97.7525 38.554 97.7525 38.626C97.7525 38.698 97.7465 38.776 97.7345 38.86H90.3545ZM90.3545 37.834H96.3485C96.3125 37.414 96.2225 37.012 96.0785 36.628C95.9465 36.244 95.7545 35.908 95.5025 35.62C95.2625 35.332 94.9625 35.104 94.6025 34.936C94.2545 34.756 93.8465 34.666 93.3785 34.666C92.9705 34.666 92.5925 34.75 92.2445 34.918C91.8965 35.074 91.5905 35.296 91.3265 35.584C91.0625 35.86 90.8465 36.19 90.6785 36.574C90.5105 36.958 90.4025 37.378 90.3545 37.834ZM101.565 39.292V43H100.179V33.694H101.565V36.124C101.733 35.74 101.943 35.386 102.195 35.062C102.447 34.738 102.735 34.462 103.059 34.234C103.383 33.994 103.737 33.814 104.121 33.694C104.505 33.574 104.919 33.52 105.363 33.532V35.026H105.255C104.751 35.026 104.271 35.116 103.815 35.296C103.371 35.476 102.981 35.746 102.645 36.106C102.309 36.466 102.045 36.916 101.853 37.456C101.661 37.984 101.565 38.596 101.565 39.292ZM123.742 32.794L119.152 39.544H119.08L114.49 32.812V43H113.104V30.4H114.544L119.134 37.276L123.724 30.4H125.164V43H123.742V32.794ZM130.117 31.66H128.533V30.13H130.117V31.66ZM130.009 43H128.623V33.694H130.009V43ZM134.738 43H133.352V29.86H134.738V43ZM139.466 43H138.08V29.86H139.466V43ZM144.303 31.66H142.719V30.13H144.303V31.66ZM144.195 43H142.809V33.694H144.195V43ZM156.537 38.338C156.537 38.998 156.411 39.628 156.159 40.228C155.919 40.816 155.583 41.332 155.151 41.776C154.719 42.22 154.203 42.574 153.603 42.838C153.003 43.09 152.355 43.216 151.659 43.216C150.963 43.216 150.321 43.09 149.733 42.838C149.145 42.574 148.635 42.226 148.203 41.794C147.771 41.35 147.435 40.834 147.195 40.246C146.955 39.658 146.835 39.034 146.835 38.374C146.835 37.714 146.955 37.09 147.195 36.502C147.435 35.902 147.771 35.38 148.203 34.936C148.635 34.492 149.145 34.144 149.733 33.892C150.333 33.628 150.987 33.496 151.695 33.496C152.391 33.496 153.033 33.628 153.621 33.892C154.221 34.144 154.737 34.492 155.169 34.936C155.601 35.368 155.937 35.878 156.177 36.466C156.417 37.054 156.537 37.678 156.537 38.338ZM155.115 38.374C155.115 37.87 155.025 37.396 154.845 36.952C154.677 36.508 154.437 36.124 154.125 35.8C153.813 35.464 153.447 35.2 153.027 35.008C152.607 34.816 152.151 34.72 151.659 34.72C151.155 34.72 150.693 34.816 150.273 35.008C149.853 35.188 149.493 35.446 149.193 35.782C148.905 36.106 148.677 36.49 148.509 36.934C148.341 37.366 148.257 37.834 148.257 38.338C148.257 38.842 148.341 39.316 148.509 39.76C148.689 40.204 148.929 40.588 149.229 40.912C149.541 41.236 149.907 41.494 150.327 41.686C150.747 41.878 151.203 41.974 151.695 41.974C152.199 41.974 152.661 41.884 153.081 41.704C153.501 41.512 153.861 41.254 154.161 40.93C154.461 40.606 154.695 40.228 154.863 39.796C155.031 39.352 155.115 38.878 155.115 38.374ZM160.434 37.672V43H159.048V33.694H160.434V35.314C160.746 34.81 161.154 34.384 161.658 34.036C162.162 33.676 162.816 33.496 163.62 33.496C164.184 33.496 164.682 33.586 165.114 33.766C165.558 33.946 165.93 34.204 166.23 34.54C166.542 34.864 166.776 35.254 166.932 35.71C167.1 36.166 167.184 36.67 167.184 37.222V43H165.798V37.564C165.798 36.7 165.576 36.016 165.132 35.512C164.688 35.008 164.052 34.756 163.224 34.756C162.828 34.756 162.456 34.828 162.108 34.972C161.772 35.104 161.478 35.302 161.226 35.566C160.974 35.818 160.776 36.124 160.632 36.484C160.5 36.844 160.434 37.24 160.434 37.672ZM174.766 38.32H169.762V36.862H174.766V38.32ZM188.017 30.4V37.618C188.017 38.542 187.891 39.352 187.639 40.048C187.387 40.744 187.027 41.326 186.559 41.794C186.103 42.262 185.551 42.616 184.903 42.856C184.267 43.084 183.553 43.198 182.761 43.198C181.981 43.198 181.267 43.084 180.619 42.856C179.983 42.616 179.431 42.268 178.963 41.812C178.507 41.344 178.153 40.768 177.901 40.084C177.649 39.4 177.523 38.614 177.523 37.726V30.4H178.945V37.636C178.945 39.004 179.281 40.054 179.953 40.786C180.637 41.518 181.585 41.884 182.797 41.884C183.961 41.884 184.885 41.536 185.569 40.84C186.253 40.144 186.595 39.106 186.595 37.726V30.4H188.017ZM192.532 37.672V43H191.146V33.694H192.532V35.314C192.844 34.81 193.252 34.384 193.756 34.036C194.26 33.676 194.914 33.496 195.718 33.496C196.282 33.496 196.78 33.586 197.212 33.766C197.656 33.946 198.028 34.204 198.328 34.54C198.64 34.864 198.874 35.254 199.03 35.71C199.198 36.166 199.282 36.67 199.282 37.222V43H197.896V37.564C197.896 36.7 197.674 36.016 197.23 35.512C196.786 35.008 196.15 34.756 195.322 34.756C194.926 34.756 194.554 34.828 194.206 34.972C193.87 35.104 193.576 35.302 193.324 35.566C193.072 35.818 192.874 36.124 192.73 36.484C192.598 36.844 192.532 37.24 192.532 37.672ZM203.857 31.66H202.273V30.13H203.857V31.66ZM203.749 43H202.363V33.694H203.749V43ZM208.838 34.918V40.354C208.838 40.93 208.982 41.332 209.27 41.56C209.558 41.788 209.936 41.902 210.404 41.902C210.644 41.902 210.866 41.878 211.07 41.83C211.286 41.782 211.514 41.698 211.754 41.578V42.766C211.514 42.898 211.256 42.994 210.98 43.054C210.716 43.126 210.416 43.162 210.08 43.162C209.708 43.162 209.36 43.114 209.036 43.018C208.712 42.922 208.43 42.772 208.19 42.568C207.962 42.352 207.782 42.076 207.65 41.74C207.518 41.404 207.452 41.002 207.452 40.534V34.918H206.156V33.694H207.452V30.886H208.838V33.694H211.79V34.918H208.838ZM230.296 43H228.55L224.896 38.104H221.296V43H219.874V30.4H225.292C225.988 30.4 226.612 30.49 227.164 30.67C227.728 30.85 228.208 31.108 228.604 31.444C229 31.768 229.306 32.164 229.522 32.632C229.738 33.088 229.846 33.598 229.846 34.162C229.846 34.69 229.762 35.164 229.594 35.584C229.426 35.992 229.186 36.352 228.874 36.664C228.574 36.964 228.214 37.216 227.794 37.42C227.374 37.624 226.918 37.768 226.426 37.852L230.296 43ZM228.406 34.216C228.406 33.424 228.124 32.812 227.56 32.38C226.996 31.936 226.204 31.714 225.184 31.714H221.296V36.826H225.166C225.634 36.826 226.066 36.766 226.462 36.646C226.858 36.526 227.2 36.358 227.488 36.142C227.776 35.914 227.998 35.638 228.154 35.314C228.322 34.99 228.406 34.624 228.406 34.216ZM233.3 38.86C233.348 39.364 233.468 39.814 233.66 40.21C233.852 40.594 234.098 40.924 234.398 41.2C234.698 41.464 235.034 41.668 235.406 41.812C235.778 41.944 236.168 42.01 236.576 42.01C237.224 42.01 237.776 41.89 238.232 41.65C238.7 41.41 239.126 41.092 239.51 40.696L240.374 41.47C239.906 41.998 239.372 42.424 238.772 42.748C238.172 43.06 237.428 43.216 236.54 43.216C235.904 43.216 235.304 43.102 234.74 42.874C234.176 42.634 233.684 42.304 233.264 41.884C232.844 41.452 232.508 40.936 232.256 40.336C232.016 39.736 231.896 39.076 231.896 38.356C231.896 37.684 232.004 37.054 232.22 36.466C232.448 35.866 232.76 35.35 233.156 34.918C233.552 34.474 234.02 34.126 234.56 33.874C235.112 33.622 235.712 33.496 236.36 33.496C237.044 33.496 237.656 33.628 238.196 33.892C238.736 34.144 239.192 34.492 239.564 34.936C239.936 35.38 240.218 35.902 240.41 36.502C240.602 37.102 240.698 37.744 240.698 38.428C240.698 38.488 240.698 38.554 240.698 38.626C240.698 38.698 240.692 38.776 240.68 38.86H233.3ZM233.3 37.834H239.294C239.258 37.414 239.168 37.012 239.024 36.628C238.892 36.244 238.7 35.908 238.448 35.62C238.208 35.332 237.908 35.104 237.548 34.936C237.2 34.756 236.792 34.666 236.324 34.666C235.916 34.666 235.538 34.75 235.19 34.918C234.842 35.074 234.536 35.296 234.272 35.584C234.008 35.86 233.792 36.19 233.624 36.574C233.456 36.958 233.348 37.378 233.3 37.834ZM246.411 41.416L249.561 33.694H251.055L247.005 43.072H245.781L241.749 33.694H243.279L246.411 41.416ZM253.515 38.86C253.563 39.364 253.683 39.814 253.875 40.21C254.067 40.594 254.313 40.924 254.613 41.2C254.913 41.464 255.249 41.668 255.621 41.812C255.993 41.944 256.383 42.01 256.791 42.01C257.439 42.01 257.991 41.89 258.447 41.65C258.915 41.41 259.341 41.092 259.725 40.696L260.589 41.47C260.121 41.998 259.587 42.424 258.987 42.748C258.387 43.06 257.643 43.216 256.755 43.216C256.119 43.216 255.519 43.102 254.955 42.874C254.391 42.634 253.899 42.304 253.479 41.884C253.059 41.452 252.723 40.936 252.471 40.336C252.231 39.736 252.111 39.076 252.111 38.356C252.111 37.684 252.219 37.054 252.435 36.466C252.663 35.866 252.975 35.35 253.371 34.918C253.767 34.474 254.235 34.126 254.775 33.874C255.327 33.622 255.927 33.496 256.575 33.496C257.259 33.496 257.871 33.628 258.411 33.892C258.951 34.144 259.407 34.492 259.779 34.936C260.151 35.38 260.433 35.902 260.625 36.502C260.817 37.102 260.913 37.744 260.913 38.428C260.913 38.488 260.913 38.554 260.913 38.626C260.913 38.698 260.907 38.776 260.895 38.86H253.515ZM253.515 37.834H259.509C259.473 37.414 259.383 37.012 259.239 36.628C259.107 36.244 258.915 35.908 258.663 35.62C258.423 35.332 258.123 35.104 257.763 34.936C257.415 34.756 257.007 34.666 256.539 34.666C256.131 34.666 255.753 34.75 255.405 34.918C255.057 35.074 254.751 35.296 254.487 35.584C254.223 35.86 254.007 36.19 253.839 36.574C253.671 36.958 253.563 37.378 253.515 37.834ZM264.725 37.672V43H263.339V33.694H264.725V35.314C265.037 34.81 265.445 34.384 265.949 34.036C266.453 33.676 267.107 33.496 267.911 33.496C268.475 33.496 268.973 33.586 269.405 33.766C269.849 33.946 270.221 34.204 270.521 34.54C270.833 34.864 271.067 35.254 271.223 35.71C271.391 36.166 271.475 36.67 271.475 37.222V43H270.089V37.564C270.089 36.7 269.867 36.016 269.423 35.512C268.979 35.008 268.343 34.756 267.515 34.756C267.119 34.756 266.747 34.828 266.399 34.972C266.063 35.104 265.769 35.302 265.517 35.566C265.265 35.818 265.067 36.124 264.923 36.484C264.791 36.844 264.725 37.24 264.725 37.672ZM281.037 39.022V33.694H282.405V43H281.037V41.38C280.725 41.884 280.317 42.316 279.813 42.676C279.309 43.024 278.655 43.198 277.851 43.198C277.287 43.198 276.783 43.108 276.339 42.928C275.907 42.748 275.535 42.496 275.223 42.172C274.923 41.836 274.689 41.44 274.521 40.984C274.365 40.528 274.287 40.024 274.287 39.472V33.694H275.673V39.13C275.673 39.994 275.895 40.678 276.339 41.182C276.783 41.686 277.419 41.938 278.247 41.938C278.643 41.938 279.009 41.872 279.345 41.74C279.693 41.596 279.987 41.398 280.227 41.146C280.479 40.882 280.677 40.57 280.821 40.21C280.965 39.85 281.037 39.454 281.037 39.022ZM286.351 38.86C286.399 39.364 286.519 39.814 286.711 40.21C286.903 40.594 287.149 40.924 287.449 41.2C287.749 41.464 288.085 41.668 288.457 41.812C288.829 41.944 289.219 42.01 289.627 42.01C290.275 42.01 290.827 41.89 291.283 41.65C291.751 41.41 292.177 41.092 292.561 40.696L293.425 41.47C292.957 41.998 292.423 42.424 291.823 42.748C291.223 43.06 290.479 43.216 289.591 43.216C288.955 43.216 288.355 43.102 287.791 42.874C287.227 42.634 286.735 42.304 286.315 41.884C285.895 41.452 285.559 40.936 285.307 40.336C285.067 39.736 284.947 39.076 284.947 38.356C284.947 37.684 285.055 37.054 285.271 36.466C285.499 35.866 285.811 35.35 286.207 34.918C286.603 34.474 287.071 34.126 287.611 33.874C288.163 33.622 288.763 33.496 289.411 33.496C290.095 33.496 290.707 33.628 291.247 33.892C291.787 34.144 292.243 34.492 292.615 34.936C292.987 35.38 293.269 35.902 293.461 36.502C293.653 37.102 293.749 37.744 293.749 38.428C293.749 38.488 293.749 38.554 293.749 38.626C293.749 38.698 293.743 38.776 293.731 38.86H286.351ZM286.351 37.834H292.345C292.309 37.414 292.219 37.012 292.075 36.628C291.943 36.244 291.751 35.908 291.499 35.62C291.259 35.332 290.959 35.104 290.599 34.936C290.251 34.756 289.843 34.666 289.375 34.666C288.967 34.666 288.589 34.75 288.241 34.918C287.893 35.074 287.587 35.296 287.323 35.584C287.059 35.86 286.843 36.19 286.675 36.574C286.507 36.958 286.399 37.378 286.351 37.834ZM303.191 31.66H301.607V30.13H303.191V31.66ZM303.083 43H301.697V33.694H303.083V43ZM307.686 37.672V43H306.3V33.694H307.686V35.314C307.998 34.81 308.406 34.384 308.91 34.036C309.414 33.676 310.068 33.496 310.872 33.496C311.436 33.496 311.934 33.586 312.366 33.766C312.81 33.946 313.182 34.204 313.482 34.54C313.794 34.864 314.028 35.254 314.184 35.71C314.352 36.166 314.436 36.67 314.436 37.222V43H313.05V37.564C313.05 36.7 312.828 36.016 312.384 35.512C311.94 35.008 311.304 34.756 310.476 34.756C310.08 34.756 309.708 34.828 309.36 34.972C309.024 35.104 308.73 35.302 308.478 35.566C308.226 35.818 308.028 36.124 307.884 36.484C307.752 36.844 307.686 37.24 307.686 37.672ZM333.318 30.4V37.618C333.318 38.542 333.192 39.352 332.94 40.048C332.688 40.744 332.328 41.326 331.86 41.794C331.404 42.262 330.852 42.616 330.204 42.856C329.568 43.084 328.854 43.198 328.062 43.198C327.282 43.198 326.568 43.084 325.92 42.856C325.284 42.616 324.732 42.268 324.264 41.812C323.808 41.344 323.454 40.768 323.202 40.084C322.95 39.4 322.824 38.614 322.824 37.726V30.4H324.246V37.636C324.246 39.004 324.582 40.054 325.254 40.786C325.938 41.518 326.886 41.884 328.098 41.884C329.262 41.884 330.186 41.536 330.87 40.84C331.554 40.144 331.896 39.106 331.896 37.726V30.4H333.318ZM337.778 33.55C337.778 33.85 337.826 34.12 337.922 34.36C338.018 34.6 338.192 34.822 338.444 35.026C338.696 35.218 339.044 35.398 339.488 35.566C339.932 35.722 340.502 35.872 341.198 36.016C342.602 36.328 343.634 36.76 344.294 37.312C344.966 37.864 345.302 38.626 345.302 39.598C345.302 40.138 345.194 40.63 344.978 41.074C344.762 41.518 344.462 41.896 344.078 42.208C343.706 42.52 343.256 42.76 342.728 42.928C342.2 43.096 341.624 43.18 341 43.18C339.992 43.18 339.068 43.018 338.228 42.694C337.4 42.358 336.608 41.848 335.852 41.164L336.734 40.12C337.394 40.72 338.06 41.17 338.732 41.47C339.404 41.758 340.178 41.902 341.054 41.902C341.906 41.902 342.584 41.704 343.088 41.308C343.604 40.912 343.862 40.39 343.862 39.742C343.862 39.442 343.814 39.178 343.718 38.95C343.622 38.71 343.454 38.494 343.214 38.302C342.974 38.11 342.638 37.936 342.206 37.78C341.786 37.624 341.246 37.474 340.586 37.33C339.866 37.174 339.236 36.994 338.696 36.79C338.168 36.586 337.73 36.34 337.382 36.052C337.034 35.764 336.776 35.428 336.608 35.044C336.44 34.66 336.356 34.204 336.356 33.676C336.356 33.172 336.458 32.71 336.662 32.29C336.866 31.87 337.154 31.51 337.526 31.21C337.898 30.898 338.336 30.658 338.84 30.49C339.344 30.31 339.896 30.22 340.496 30.22C341.42 30.22 342.224 30.352 342.908 30.616C343.604 30.868 344.276 31.252 344.924 31.768L344.096 32.866C343.508 32.386 342.914 32.038 342.314 31.822C341.726 31.606 341.108 31.498 340.46 31.498C340.052 31.498 339.68 31.552 339.344 31.66C339.02 31.768 338.738 31.912 338.498 32.092C338.27 32.272 338.09 32.488 337.958 32.74C337.838 32.992 337.778 33.262 337.778 33.55ZM359.264 36.682C359.264 37.57 359.102 38.404 358.778 39.184C358.454 39.952 357.992 40.618 357.392 41.182C356.804 41.746 356.096 42.19 355.268 42.514C354.452 42.838 353.552 43 352.568 43H348.194V30.4H352.568C353.552 30.4 354.452 30.562 355.268 30.886C356.096 31.198 356.804 31.636 357.392 32.2C357.992 32.764 358.454 33.43 358.778 34.198C359.102 34.966 359.264 35.794 359.264 36.682ZM357.788 36.718C357.788 36.022 357.662 35.368 357.41 34.756C357.17 34.144 356.822 33.616 356.366 33.172C355.922 32.716 355.376 32.362 354.728 32.11C354.08 31.846 353.36 31.714 352.568 31.714H349.616V41.686H352.568C353.36 41.686 354.08 41.56 354.728 41.308C355.376 41.056 355.922 40.708 356.366 40.264C356.822 39.808 357.17 39.28 357.41 38.68C357.662 38.08 357.788 37.426 357.788 36.718ZM361.612 29.72L362.272 28.7C364.059 29.7 365.426 30.9133 366.372 32.34C367.332 33.7667 367.812 35.4067 367.812 37.26C367.812 39.1133 367.332 40.7533 366.372 42.18C365.426 43.6067 364.059 44.82 362.272 45.82L361.612 44.8C363.146 43.8267 364.299 42.7333 365.072 41.52C365.859 40.2933 366.252 38.8733 366.252 37.26C366.252 35.6467 365.859 34.2333 365.072 33.02C364.299 31.7933 363.146 30.6933 361.612 29.72Z" fill="#717171"/>
</svg>
