<svg width="194" height="194" viewBox="0 0 194 194" fill="none" xmlns="http://www.w3.org/2000/svg">
<circle cx="97" cy="97" r="97" fill="#B0BC25"/>
<path d="M156.104 90.9907L153.985 87.5628L147.272 91.7018V85.1449L160.015 76.5824L157.768 73.24L154.639 75.345V67.6075H150.6V78.0617L147.272 80.2947V71.6043H143.232V82.2433L141.839 80.3943L138.624 82.8265L143.232 88.9283V94.2762C141.568 91.1044 139.592 88.1318 137.316 85.4151V51.8908H126.194V75.5584C125.156 74.8899 124.103 74.2356 123.008 73.6382V39.5165H105.515V67.9204C104.078 67.7355 102.642 67.6075 101.177 67.5506V27H97.1379V67.5506C92.1032 67.7498 87.2534 68.7027 82.7022 70.31V61.4062C83.5271 61.6906 84.4089 61.8471 85.2907 61.8471C89.7707 61.8471 93.4116 58.2059 93.4116 53.7256C93.4116 52.4455 93.113 51.2223 92.5441 50.0986C93.113 49.1884 93.4116 48.1358 93.4116 47.0549C93.4116 44.0111 91.0649 41.5078 88.1067 41.2518C86.8409 37.0132 82.944 34.0121 78.336 34.0121C73.1733 34.0121 68.9066 37.8524 68.2239 42.8305C63.2034 42.5461 58.9083 46.6139 58.9083 51.649C58.9083 56.5134 62.8763 60.4817 67.7403 60.4817C68.8212 60.4817 69.8879 60.2825 70.8835 59.8985V76.3549C65.9625 79.7685 61.6816 84.0497 58.2683 88.9567C55.7936 86.0836 55.5234 82.0869 55.566 80.1809C56.4051 79.7685 57.2016 79.2564 57.8843 78.5879C63.303 79.1142 67.8257 74.8045 67.8257 69.4992C67.8257 64.6491 64.0141 60.6666 59.2354 60.3821C58.1972 56.7125 54.8265 54.0527 50.8584 54.0527C46.8904 54.0527 43.4486 56.7836 42.453 60.5243C38.2148 61.3208 34.9863 65.0473 34.9863 69.5135C34.9863 74.5627 39.0966 78.659 44.1313 78.659C44.4015 78.659 44.686 78.6306 44.9562 78.6021C45.0131 82.3998 45.8095 93.622 52.8353 99.0553C50.6024 104.702 49.3651 110.832 49.3651 117.261C49.3651 144.698 71.6799 167.014 99.1148 167.014C126.55 167.014 148.864 144.698 148.864 117.261C148.864 112.909 148.296 108.684 147.243 104.659V96.4524L156.075 91.0049L156.104 90.9907ZM144.854 117.247C144.854 117.531 144.84 117.83 144.825 118.114C144.029 117.901 143.446 117.531 142.749 117.048C141.469 116.18 139.876 115.085 136.889 115.085C133.903 115.085 132.31 116.18 131.03 117.048C129.963 117.787 129.181 118.314 127.446 118.314C125.711 118.314 124.943 117.787 123.862 117.048C122.582 116.166 120.989 115.085 118.002 115.085C115.015 115.085 113.422 116.18 112.157 117.048C111.09 117.773 110.322 118.314 108.587 118.314C106.852 118.314 106.084 117.787 105.017 117.048C104.064 116.393 102.926 115.611 101.163 115.27V110.135C101.717 110.363 102.201 110.676 102.741 111.046C104.021 111.927 105.614 113.008 108.601 113.008C111.588 113.008 113.181 111.913 114.446 111.046C115.513 110.32 116.281 109.78 118.016 109.78C119.751 109.78 120.519 110.306 121.6 111.046C122.88 111.927 124.473 113.008 127.46 113.008C130.447 113.008 132.039 111.913 133.319 111.046C134.386 110.306 135.168 109.78 136.904 109.78C138.639 109.78 139.421 110.306 140.488 111.046C141.497 111.742 142.72 112.553 144.655 112.866C144.797 114.303 144.868 115.768 144.868 117.247H144.854ZM141.369 134.742C140.288 134.144 138.909 133.646 136.889 133.646C133.903 133.646 132.31 134.742 131.03 135.609C129.963 136.349 129.181 136.875 127.446 136.875C125.711 136.875 124.943 136.349 123.862 135.609C122.582 134.727 120.989 133.646 118.002 133.646C115.015 133.646 113.422 134.742 112.157 135.609C111.09 136.335 110.322 136.875 108.587 136.875C106.852 136.875 106.084 136.349 105.017 135.609C104.064 134.955 102.926 134.173 101.163 133.831V128.697C101.717 128.924 102.201 129.237 102.741 129.607C104.021 130.489 105.614 131.57 108.601 131.57C111.588 131.57 113.181 130.475 114.446 129.607C115.513 128.882 116.281 128.341 118.016 128.341C119.751 128.341 120.519 128.867 121.6 129.607C122.88 130.489 124.473 131.57 127.46 131.57C130.447 131.57 132.039 130.475 133.319 129.607C134.386 128.867 135.168 128.341 136.904 128.341C138.639 128.341 139.421 128.867 140.488 129.607C141.128 130.048 141.853 130.531 142.777 130.915C142.365 132.21 141.896 133.49 141.384 134.742H141.369ZM135.723 141.654C132.736 141.654 131.143 142.749 129.863 143.617C128.797 144.356 128.015 144.883 126.279 144.883C124.544 144.883 123.776 144.356 122.695 143.617C121.415 142.735 119.822 141.654 116.836 141.654C113.849 141.654 112.256 142.749 110.99 143.617C109.924 144.342 109.156 144.883 107.421 144.883C105.685 144.883 104.917 144.356 103.851 143.617C103.125 143.119 102.286 142.564 101.163 142.166V138.027C101.717 138.255 102.201 138.568 102.741 138.937C104.021 139.819 105.614 140.9 108.601 140.9C111.588 140.9 113.181 139.805 114.446 138.937C115.513 138.212 116.281 137.672 118.016 137.672C119.751 137.672 120.519 138.198 121.6 138.937C122.88 139.819 124.473 140.9 127.46 140.9C130.447 140.9 132.039 139.805 133.319 138.937C134.386 138.198 135.168 137.672 136.904 137.672C138.169 137.672 138.923 137.956 139.663 138.397C139.051 139.577 138.383 140.715 137.672 141.825C137.103 141.711 136.463 141.64 135.751 141.64L135.723 141.654ZM86.3005 149.107C89.7992 148.083 93.4259 147.486 97.1379 147.329V162.904C96.8534 162.904 96.569 162.875 96.2988 162.861C92.345 158.679 89.0169 154.057 86.3147 149.107H86.3005ZM90.2258 162.079C84.1529 160.87 78.5066 158.466 73.5573 155.109C76.3591 153.203 79.3173 151.653 82.4178 150.43C84.608 154.54 87.2249 158.438 90.2258 162.079ZM141.014 98.9415H120.747C119.737 95.1865 118.443 91.5311 116.836 88.0038C120.818 86.4819 124.587 84.4479 128.114 81.9162C133.647 86.4676 138.098 92.2992 141.014 98.9415ZM113.01 89.2981C114.446 92.413 115.627 95.6417 116.566 98.9415H101.149V91.204C105.216 91.0475 109.17 90.4075 112.996 89.2981H113.01ZM101.163 87.1788V71.775C105.088 75.9708 108.459 80.6361 111.161 85.6427C107.918 86.5245 104.576 87.0366 101.163 87.1788ZM115.058 84.391C112.782 80.0814 110.08 75.9993 106.951 72.2159C113.451 73.3395 119.481 75.8286 124.743 79.3844C121.7 81.4468 118.457 83.1252 115.072 84.3768L115.058 84.391ZM97.1379 113.463H78.3075C78.7911 104.929 80.8818 96.6657 84.4373 89.0563C88.5192 90.3222 92.7716 91.0333 97.1237 91.204V113.449L97.1379 113.463ZM97.1379 117.503V143.304C92.7716 143.475 88.5192 144.2 84.4373 145.452C80.384 136.79 78.2222 127.289 78.1937 117.489H97.1379V117.503ZM101.177 156.02C101.319 156.105 101.447 156.19 101.589 156.29C102.869 157.172 104.462 158.253 107.449 158.253C110.436 158.253 112.029 157.157 113.294 156.29C114.361 155.564 115.129 155.024 116.864 155.024C118.599 155.024 119.367 155.55 120.448 156.29C120.804 156.532 121.202 156.788 121.643 157.044C115.556 160.5 108.601 162.591 101.191 162.918V156.02H101.177ZM142.763 126.279C141.483 125.411 139.89 124.316 136.904 124.316C133.917 124.316 132.324 125.411 131.044 126.279C129.977 127.018 129.195 127.545 127.46 127.545C125.725 127.545 124.957 127.018 123.876 126.279C122.596 125.397 121.003 124.316 118.016 124.316C115.03 124.316 113.437 125.411 112.171 126.279C111.104 127.004 110.336 127.545 108.601 127.545C106.866 127.545 106.098 127.018 105.031 126.279C104.078 125.624 102.941 124.842 101.177 124.501V119.48C101.732 119.707 102.215 120.02 102.756 120.39C104.036 121.272 105.629 122.353 108.615 122.353C111.602 122.353 113.195 121.258 114.461 120.39C115.527 119.665 116.295 119.124 118.03 119.124C119.766 119.124 120.534 119.651 121.615 120.39C122.895 121.272 124.487 122.353 127.474 122.353C130.461 122.353 132.054 121.258 133.334 120.39C134.4 119.651 135.183 119.124 136.918 119.124C138.653 119.124 139.435 119.651 140.502 120.39C141.497 121.073 142.706 121.884 144.612 122.211C144.441 123.818 144.171 125.397 143.844 126.947C143.488 126.748 143.147 126.535 142.777 126.279H142.763ZM142.763 107.717C141.483 106.85 139.89 105.754 136.904 105.754C133.917 105.754 132.324 106.85 131.044 107.717C129.977 108.457 129.195 108.983 127.46 108.983C125.725 108.983 124.957 108.457 123.876 107.717C122.596 106.835 121.003 105.754 118.016 105.754C115.03 105.754 113.437 106.85 112.171 107.717C111.104 108.443 110.336 108.983 108.601 108.983C106.866 108.983 106.098 108.457 105.031 107.717C104.078 107.063 102.941 106.281 101.177 105.939V102.981H142.578C143.161 104.759 143.645 106.594 144.015 108.471C143.602 108.258 143.204 108.016 142.763 107.717ZM130.247 55.9018H133.291V81.1055C132.31 80.1809 131.3 79.2849 130.247 78.4457V55.9018ZM109.554 43.5559H118.983V71.6327C117.291 70.8931 115.542 70.2388 113.764 69.6841H115.883V65.6447H112.669V69.3712C111.645 69.0868 110.606 68.8165 109.554 68.5889V43.5559ZM97.1379 87.1646C93.4259 87.0081 89.7992 86.4107 86.3005 85.3867C89.0027 80.437 92.345 75.8144 96.2845 71.6327C96.569 71.6185 96.8392 71.6043 97.1237 71.5901V87.1788L97.1379 87.1646ZM90.2401 72.415C87.2391 76.0562 84.6222 79.9534 82.432 84.0639C79.3315 82.8407 76.3733 81.2904 73.5715 79.3844C78.5209 76.0277 84.1671 73.6098 90.2401 72.415ZM67.7546 56.428C65.1092 56.428 62.9616 54.2803 62.9616 51.6348C62.9616 48.9892 65.1092 46.8415 67.7546 46.8415C68.3519 46.8415 68.935 46.9553 69.5039 47.1829C70.1724 47.4389 70.9261 47.3393 71.4808 46.8984C72.0355 46.4575 72.3342 45.7605 72.2346 45.0494C72.2062 44.7791 72.1635 44.5089 72.1635 44.2244C72.1635 40.8251 74.9368 38.0515 78.336 38.0515C81.536 38.0515 84.1671 40.441 84.4658 43.627C84.5227 44.2244 84.8498 44.7791 85.3476 45.1063C85.8454 45.4476 86.4854 45.533 87.0543 45.3623C87.2676 45.2912 87.4383 45.2627 87.5663 45.2627C88.5476 45.2627 89.3583 46.0735 89.3583 47.0549C89.3583 47.7518 88.96 48.2069 88.7183 48.4061C87.8934 49.1172 87.7654 50.3547 88.448 51.2081C88.8605 51.7343 89.3583 52.5877 89.3583 53.7398C89.3583 56.0013 87.5236 57.8361 85.2622 57.8361C84.0676 57.8361 82.9867 57.3241 82.176 56.3996C81.8204 56.0013 81.3227 55.7453 80.7964 55.7026C80.7538 55.7026 80.6969 55.7026 80.6542 55.7026C80.1706 55.7026 79.7013 55.8733 79.3315 56.2004C78.8053 56.6556 77.9235 57.2103 76.7146 57.2103C75.5057 57.2103 74.3822 56.6556 73.5999 55.6884C73.2586 55.2759 72.775 55.0057 72.2346 54.9488C71.7084 54.8919 71.1679 55.0484 70.7555 55.3897C69.8879 56.1009 68.8497 56.4707 67.7261 56.4707L67.7546 56.428ZM74.9368 60.9653C76.16 61.2355 77.44 61.2213 78.6631 60.9368V71.9456C77.3831 72.5288 76.1457 73.1546 74.9368 73.8231V60.9653ZM70.1724 81.9304C73.4577 84.2915 76.9564 86.2258 80.6258 87.7051C76.9137 95.7412 74.7377 104.474 74.2684 113.463H53.6034C54.6558 100.791 60.871 89.5683 70.1581 81.9304H70.1724ZM39.0397 69.4992C39.0397 66.6972 41.301 64.4215 44.0886 64.3788C44.1313 64.3788 44.1597 64.3788 44.2024 64.3788C45.2691 64.3788 46.1509 63.5539 46.222 62.4871C46.3784 60.0123 48.4264 58.0637 50.8869 58.0637C53.3473 58.0637 55.4523 60.0407 55.566 62.5583C55.5945 63.1414 55.8647 63.6677 56.3056 64.0375C56.7465 64.4073 57.3438 64.5637 57.9127 64.4642C58.1829 64.4215 58.4532 64.3788 58.7234 64.3788C61.5252 64.3788 63.815 66.6688 63.815 69.4708C63.815 72.2728 61.5252 74.5627 58.7234 74.5627C58.3821 74.5627 58.0123 74.5201 57.5998 74.4205C56.846 74.2498 56.0496 74.5201 55.5803 75.1317C54.5989 76.3691 53.1625 77.0803 51.6264 77.0803C50.0904 77.0803 48.6255 76.3549 47.6442 75.1032C47.2602 74.6054 46.6629 74.3209 46.0513 74.3209C45.8806 74.3209 45.6957 74.3494 45.5108 74.3921C44.9846 74.5343 44.5722 74.6054 44.1739 74.6054C41.3579 74.6054 39.0539 72.3155 39.0539 69.485L39.0397 69.4992ZM49.1375 80.7356C49.9055 80.9632 50.7162 81.1055 51.5411 81.1197C51.6264 84.0781 52.3945 88.9567 56.0496 92.4557C55.5376 93.3517 55.0398 94.262 54.5705 95.1865C50.5882 91.4458 49.4504 84.7608 49.1233 80.7356H49.1375ZM53.4469 117.489H74.1546C74.1831 127.758 76.416 137.714 80.6115 146.803C76.9422 148.282 73.4435 150.202 70.1724 152.563C60.0176 144.228 53.518 131.598 53.4469 117.474V117.489ZM126.023 154.199C124.502 154.142 123.719 153.644 122.71 152.962C121.43 152.094 119.837 150.999 116.85 150.999C113.863 150.999 112.27 152.094 111.005 152.962C109.938 153.687 109.17 154.227 107.435 154.227C105.7 154.227 104.932 153.701 103.865 152.962C103.14 152.464 102.301 151.909 101.177 151.511V146.689C101.319 146.774 101.447 146.86 101.589 146.959C102.869 147.841 104.462 148.922 107.449 148.922C110.436 148.922 112.029 147.827 113.294 146.959C114.361 146.234 115.129 145.693 116.864 145.693C118.599 145.693 119.367 146.22 120.448 146.959C121.728 147.841 123.321 148.922 126.308 148.922C129.295 148.922 130.887 147.827 132.167 146.959C133.035 146.376 133.718 145.921 134.855 145.765C132.31 148.951 129.337 151.781 126.038 154.199H126.023Z" fill="white" fill-opacity="0.75"/>
</svg>
