<svg width="126" height="141" viewBox="0 0 126 141" fill="none" xmlns="http://www.w3.org/2000/svg">
<path d="M121.117 63.9907L118.998 60.5628L112.285 64.7018V58.1449L125.028 49.5824L122.781 46.24L119.652 48.345V40.6075H115.613V51.0617L112.285 53.2947V44.6043H108.246V55.2433L106.852 53.3943L103.638 55.8265L108.246 61.9283V67.2762C106.582 64.1044 104.605 61.1318 102.33 58.4151V24.8908H91.2078V48.5584C90.1695 47.8899 89.1171 47.2356 88.022 46.6382V12.5165H70.5285V40.9204C69.092 40.7355 67.6556 40.6075 66.1907 40.5506V0H62.1516V40.5506C57.1168 40.7498 52.267 41.7027 47.7159 43.31V34.4062C48.5408 34.6906 49.4226 34.8471 50.3044 34.8471C54.7844 34.8471 58.4253 31.2059 58.4253 26.7256C58.4253 25.4455 58.1266 24.2223 57.5577 23.0986C58.1266 22.1884 58.4253 21.1358 58.4253 20.0549C58.4253 17.0111 56.0786 14.5078 53.1204 14.2518C51.8546 10.0132 47.9577 7.01209 43.3496 7.01209C38.1869 7.01209 33.9202 10.8524 33.2376 15.8305C28.2171 15.5461 23.9219 19.6139 23.9219 24.649C23.9219 29.5134 27.89 33.4817 32.754 33.4817C33.8349 33.4817 34.9016 33.2825 35.8971 32.8985V49.3549C30.9762 52.7685 26.6953 57.0497 23.2819 61.9567C20.8073 59.0836 20.537 55.0869 20.5797 53.1809C21.4188 52.7685 22.2153 52.2564 22.8979 51.5879C28.3166 52.1142 32.8393 47.8045 32.8393 42.4992C32.8393 37.6491 29.0278 33.6666 24.2491 33.3821C23.2108 29.7125 19.8401 27.0527 15.8721 27.0527C11.9041 27.0527 8.46228 29.7836 7.46672 33.5243C3.22847 34.3208 0 38.0473 0 42.5135C0 47.5627 4.11025 51.659 9.14495 51.659C9.41518 51.659 9.69963 51.6306 9.96985 51.6021C10.0267 55.3998 10.8232 66.622 17.849 72.0553C15.6161 77.7019 14.3788 83.8322 14.3788 90.2611C14.3788 117.698 36.6936 140.014 64.1285 140.014C91.5633 140.014 113.878 117.698 113.878 90.2611C113.878 85.9088 113.309 81.6844 112.257 77.6592V69.4524L121.089 64.0049L121.117 63.9907ZM109.867 90.2469C109.867 90.5313 109.853 90.83 109.839 91.1145C109.043 90.9011 108.459 90.5313 107.763 90.0477C106.483 89.1801 104.89 88.0849 101.903 88.0849C98.9163 88.0849 97.3234 89.1801 96.0434 90.0477C94.9767 90.7874 94.1945 91.3136 92.4593 91.3136C90.7242 91.3136 89.9562 90.7874 88.8753 90.0477C87.5953 89.1659 86.0024 88.0849 83.0157 88.0849C80.029 88.0849 78.4361 89.1801 77.1703 90.0477C76.1037 90.7731 75.3356 91.3136 73.6005 91.3136C71.8654 91.3136 71.0974 90.7874 70.0307 90.0477C69.0778 89.3935 67.94 88.6112 66.1765 88.2698V83.1352C66.7311 83.3628 67.2147 83.6757 67.7552 84.0455C69.0352 84.9274 70.6281 86.0083 73.6147 86.0083C76.6014 86.0083 78.1943 84.9131 79.4601 84.0455C80.5268 83.3201 81.2948 82.7796 83.0299 82.7796C84.765 82.7796 85.5331 83.3059 86.6139 84.0455C87.894 84.9274 89.4869 86.0083 92.4736 86.0083C95.4602 86.0083 97.0531 84.9131 98.3331 84.0455C99.3998 83.3059 100.182 82.7796 101.917 82.7796C103.652 82.7796 104.435 83.3059 105.501 84.0455C106.511 84.7425 107.734 85.5532 109.668 85.8661C109.811 87.3026 109.882 88.7676 109.882 90.2469H109.867ZM106.383 107.742C105.302 107.144 103.923 106.646 101.903 106.646C98.9163 106.646 97.3234 107.742 96.0434 108.609C94.9767 109.349 94.1945 109.875 92.4593 109.875C90.7242 109.875 89.9562 109.349 88.8753 108.609C87.5953 107.727 86.0024 106.646 83.0157 106.646C80.029 106.646 78.4361 107.742 77.1703 108.609C76.1037 109.335 75.3356 109.875 73.6005 109.875C71.8654 109.875 71.0974 109.349 70.0307 108.609C69.0778 107.955 67.94 107.173 66.1765 106.831V101.697C66.7311 101.924 67.2147 102.237 67.7552 102.607C69.0352 103.489 70.6281 104.57 73.6147 104.57C76.6014 104.57 78.1943 103.475 79.4601 102.607C80.5268 101.882 81.2948 101.341 83.0299 101.341C84.765 101.341 85.5331 101.867 86.6139 102.607C87.894 103.489 89.4869 104.57 92.4736 104.57C95.4602 104.57 97.0531 103.475 98.3331 102.607C99.3998 101.867 100.182 101.341 101.917 101.341C103.652 101.341 104.435 101.867 105.501 102.607C106.141 103.048 106.867 103.531 107.791 103.915C107.379 105.21 106.909 106.49 106.397 107.742H106.383ZM100.737 114.654C97.75 114.654 96.1571 115.749 94.8771 116.617C93.8104 117.356 93.0282 117.883 91.2931 117.883C89.558 117.883 88.79 117.356 87.7091 116.617C86.4291 115.735 84.8362 114.654 81.8495 114.654C78.8628 114.654 77.2699 115.749 76.0041 116.617C74.9374 117.342 74.1694 117.883 72.4343 117.883C70.6992 117.883 69.9312 117.356 68.8645 116.617C68.1392 116.119 67.3 115.564 66.1765 115.166V111.027C66.7311 111.255 67.2147 111.568 67.7552 111.937C69.0352 112.819 70.6281 113.9 73.6147 113.9C76.6014 113.9 78.1943 112.805 79.4601 111.937C80.5268 111.212 81.2948 110.672 83.0299 110.672C84.765 110.672 85.5331 111.198 86.6139 111.937C87.894 112.819 89.4869 113.9 92.4736 113.9C95.4602 113.9 97.0531 112.805 98.3331 111.937C99.3998 111.198 100.182 110.672 101.917 110.672C103.183 110.672 103.937 110.956 104.676 111.397C104.065 112.577 103.396 113.715 102.685 114.825C102.116 114.711 101.476 114.64 100.765 114.64L100.737 114.654ZM51.3141 122.107C54.8128 121.083 58.4395 120.486 62.1516 120.329V135.904C61.8671 135.904 61.5827 135.875 61.3124 135.861C57.3586 131.679 54.0306 127.057 51.3284 122.107H51.3141ZM55.2395 135.079C49.1666 133.87 43.5203 131.466 38.5709 128.109C41.3727 126.203 44.331 124.653 47.4314 123.43C49.6217 127.54 52.2386 131.438 55.2395 135.079ZM106.027 71.9415H85.7606C84.7508 68.1865 83.4566 64.5311 81.8495 61.0038C85.8317 59.4819 89.6006 57.4479 93.1278 54.9162C98.6603 59.4676 103.112 65.2992 106.027 71.9415ZM78.0237 62.2981C79.4601 65.413 80.6406 68.6417 81.5792 71.9415H66.1622V64.204C70.2298 64.0475 74.1836 63.4075 78.0094 62.2981H78.0237ZM66.1765 60.1788V44.775C70.1018 48.9708 73.4725 53.6361 76.1748 58.6427C72.9321 59.5245 69.5898 60.0366 66.1765 60.1788ZM80.0717 57.391C77.7961 53.0814 75.0939 48.9993 71.965 45.2159C78.4646 46.3395 84.4948 48.8286 89.7571 52.3844C86.7135 54.4468 83.4708 56.1252 80.0859 57.3768L80.0717 57.391ZM62.1516 86.4635H43.3212C43.8048 77.9295 45.8954 69.6657 49.451 62.0563C53.5328 63.3222 57.7853 64.0333 62.1373 64.204V86.4492L62.1516 86.4635ZM62.1516 90.5029V116.304C57.7853 116.475 53.5328 117.2 49.451 118.452C45.3977 109.79 43.2359 100.289 43.2074 90.4887H62.1516V90.5029ZM66.1907 129.02C66.3329 129.105 66.4609 129.19 66.6031 129.29C67.8831 130.172 69.476 131.253 72.4627 131.253C75.4494 131.253 77.0423 130.157 78.3081 129.29C79.3748 128.564 80.1428 128.024 81.8779 128.024C83.613 128.024 84.381 128.55 85.4619 129.29C85.8175 129.532 86.2157 129.788 86.6566 130.044C80.5695 133.5 73.6147 135.591 66.2049 135.918V129.02H66.1907ZM107.777 99.2787C106.497 98.4111 104.904 97.3159 101.917 97.3159C98.9305 97.3159 97.3376 98.4111 96.0576 99.2787C94.9909 100.018 94.2087 100.545 92.4736 100.545C90.7384 100.545 89.9704 100.018 88.8895 99.2787C87.6095 98.3968 86.0166 97.3159 83.0299 97.3159C80.0432 97.3159 78.4503 98.4111 77.1845 99.2787C76.1179 100.004 75.3499 100.545 73.6147 100.545C71.8796 100.545 71.1116 100.018 70.0449 99.2787C69.092 98.6244 67.9543 97.8421 66.1907 97.5008V92.4799C66.7454 92.7075 67.2289 93.0204 67.7694 93.3902C69.0494 94.2721 70.6423 95.353 73.629 95.353C76.6157 95.353 78.2086 94.2578 79.4743 93.3902C80.541 92.6648 81.309 92.1243 83.0441 92.1243C84.7793 92.1243 85.5473 92.6506 86.6282 93.3902C87.9082 94.2721 89.5011 95.353 92.4878 95.353C95.4745 95.353 97.0674 94.2578 98.3474 93.3902C99.414 92.6506 100.196 92.1243 101.931 92.1243C103.667 92.1243 104.449 92.6506 105.515 93.3902C106.511 94.0729 107.72 94.8837 109.626 95.2108C109.455 96.818 109.185 98.3968 108.858 99.9472C108.502 99.748 108.161 99.5347 107.791 99.2787H107.777ZM107.777 80.7173C106.497 79.8496 104.904 78.7544 101.917 78.7544C98.9305 78.7544 97.3376 79.8496 96.0576 80.7173C94.9909 81.4569 94.2087 81.9831 92.4736 81.9831C90.7384 81.9831 89.9704 81.4569 88.8895 80.7173C87.6095 79.8354 86.0166 78.7544 83.0299 78.7544C80.0432 78.7544 78.4503 79.8496 77.1845 80.7173C76.1179 81.4426 75.3499 81.9831 73.6147 81.9831C71.8796 81.9831 71.1116 81.4569 70.0449 80.7173C69.092 80.063 67.9543 79.2807 66.1907 78.9393V75.9809H107.592C108.175 77.7588 108.659 79.5936 109.028 81.4711C108.616 81.2577 108.218 81.0159 107.777 80.7173ZM95.2611 28.9018H98.3047V54.1055C97.3234 53.1809 96.3136 52.2849 95.2611 51.4457V28.9018ZM74.5676 16.5559H83.997V44.6327C82.3046 43.8931 80.5552 43.2388 78.7775 42.6841H80.8966V38.6447H77.6823V42.3712C76.6583 42.0868 75.6201 41.8165 74.5676 41.5889V16.5559ZM62.1516 60.1646C58.4395 60.0081 54.8128 59.4107 51.3141 58.3867C54.0164 53.437 57.3586 48.8144 61.2982 44.6327C61.5827 44.6185 61.8529 44.6043 62.1373 44.5901V60.1788L62.1516 60.1646ZM55.2537 45.415C52.2528 49.0562 49.6359 52.9534 47.4457 57.0639C44.3452 55.8407 41.387 54.2904 38.5852 52.3844C43.5345 49.0277 49.1808 46.6098 55.2537 45.415ZM32.7682 29.428C30.1229 29.428 27.9753 27.2803 27.9753 24.6348C27.9753 21.9892 30.1229 19.8415 32.7682 19.8415C33.3656 19.8415 33.9487 19.9553 34.5176 20.1829C35.186 20.4389 35.9398 20.3393 36.4945 19.8984C37.0492 19.4575 37.3478 18.7605 37.2483 18.0494C37.2198 17.7791 37.1772 17.5089 37.1772 17.2244C37.1772 13.8251 39.9505 11.0515 43.3496 11.0515C46.5497 11.0515 49.1808 13.441 49.4795 16.627C49.5363 17.2244 49.8635 17.7791 50.3612 18.1063C50.859 18.4476 51.499 18.533 52.0679 18.3623C52.2813 18.2912 52.4519 18.2627 52.5799 18.2627C53.5613 18.2627 54.3719 19.0735 54.3719 20.0549C54.3719 20.7518 53.9737 21.2069 53.7319 21.4061C52.907 22.1172 52.779 23.3547 53.4617 24.2081C53.8742 24.7343 54.3719 25.5877 54.3719 26.7398C54.3719 29.0013 52.5373 30.8361 50.2759 30.8361C49.0812 30.8361 48.0003 30.3241 47.1897 29.3996C46.8341 29.0013 46.3363 28.7453 45.8101 28.7026C45.7674 28.7026 45.7105 28.7026 45.6679 28.7026C45.1843 28.7026 44.715 28.8733 44.3452 29.2004C43.819 29.6556 42.9372 30.2103 41.7283 30.2103C40.5194 30.2103 39.3958 29.6556 38.6136 28.6884C38.2723 28.2759 37.7887 28.0057 37.2483 27.9488C36.722 27.8919 36.1816 28.0484 35.7691 28.3897C34.9016 29.1009 33.8634 29.4707 32.7398 29.4707L32.7682 29.428ZM39.9505 33.9653C41.1736 34.2355 42.4536 34.2213 43.6768 33.9368V44.9456C42.3967 45.5288 41.1594 46.1546 39.9505 46.8231V33.9653ZM35.186 54.9304C38.4714 57.2915 41.9701 59.2258 45.6394 60.7051C41.9274 68.7412 39.7514 77.4743 39.2821 86.4635H18.617C19.6695 73.7905 25.8846 62.5683 35.1718 54.9304H35.186ZM4.05336 42.4992C4.05336 39.6972 6.31471 37.4215 9.10229 37.3788C9.14495 37.3788 9.1734 37.3788 9.21607 37.3788C10.2827 37.3788 11.1645 36.5539 11.2356 35.4871C11.3921 33.0123 13.4401 31.0637 15.9006 31.0637C18.361 31.0637 20.4659 33.0407 20.5797 35.5583C20.6081 36.1414 20.8784 36.6677 21.3193 37.0375C21.7602 37.4073 22.3575 37.5637 22.9264 37.4642C23.1966 37.4215 23.4668 37.3788 23.7371 37.3788C26.5389 37.3788 28.8287 39.6688 28.8287 42.4708C28.8287 45.2728 26.5389 47.5627 23.7371 47.5627C23.3957 47.5627 23.0259 47.5201 22.6135 47.4205C21.8597 47.2498 21.0633 47.5201 20.5939 48.1317C19.6126 49.3691 18.1761 50.0803 16.6401 50.0803C15.1041 50.0803 13.6392 49.3549 12.6579 48.1032C12.2739 47.6054 11.6765 47.3209 11.065 47.3209C10.8943 47.3209 10.7094 47.3494 10.5245 47.3921C9.99829 47.5343 9.58585 47.6054 9.18762 47.6054C6.3716 47.6054 4.06758 45.3155 4.06758 42.485L4.05336 42.4992ZM14.1512 53.7356C14.9192 53.9632 15.7299 54.1055 16.5548 54.1197C16.6401 57.0781 17.4081 61.9567 21.0633 65.4557C20.5513 66.3517 20.0535 67.262 19.5841 68.1865C15.6019 64.4458 14.4641 57.7608 14.137 53.7356H14.1512ZM18.4606 90.4887H39.1683C39.1967 100.758 41.4296 110.714 45.6252 119.803C41.9559 121.282 38.4572 123.202 35.186 125.563C25.0313 117.228 18.5317 104.598 18.4606 90.4744V90.4887ZM91.0371 127.199C89.5153 127.142 88.7331 126.644 87.7233 125.962C86.4433 125.094 84.8504 123.999 81.8637 123.999C78.877 123.999 77.2841 125.094 76.0183 125.962C74.9516 126.687 74.1836 127.227 72.4485 127.227C70.7134 127.227 69.9454 126.701 68.8787 125.962C68.1534 125.464 67.3143 124.909 66.1907 124.511V119.689C66.3329 119.774 66.4609 119.86 66.6031 119.959C67.8831 120.841 69.476 121.922 72.4627 121.922C75.4494 121.922 77.0423 120.827 78.3081 119.959C79.3748 119.234 80.1428 118.693 81.8779 118.693C83.613 118.693 84.381 119.22 85.4619 119.959C86.742 120.841 88.3349 121.922 91.3215 121.922C94.3082 121.922 95.9011 120.827 97.1811 119.959C98.0487 119.376 98.7314 118.921 99.8692 118.765C97.3234 121.951 94.3509 124.781 91.0513 127.199H91.0371Z" fill="white" fill-opacity="0.75"/>
</svg>
