<svg width="194" height="194" viewBox="0 0 194 194" fill="none" xmlns="http://www.w3.org/2000/svg">
<circle cx="97" cy="97" r="97" fill="#3B91DC"/>
<path opacity="0.75" d="M152.294 128.903H139.346V122.463C148.67 118.06 154.019 108.07 152.507 97.8481C152.411 97.2856 152.042 96.8007 151.5 96.5679C148.941 95.5011 147.08 93.2316 146.576 90.4967C146.46 89.876 146.014 89.3716 145.413 89.1777C143.436 88.5376 141.401 88.1496 139.346 87.9751V54.1663C139.346 44.7006 132.737 37 124.596 37H52.0255C44.8343 37 39 43.7889 39 52.1296V66.4251C39 67.3562 39.756 68.1126 40.6864 68.1126H61.6976V137.166C61.6976 147.562 68.9857 156 77.9407 156H139.249C147.39 156 154 148.299 154 138.834V130.59C154 129.659 153.244 128.903 152.314 128.903H152.294ZM149.29 99.2447C150.162 107.799 145.471 115.965 137.66 119.534C129.849 115.965 125.158 107.818 126.03 99.2641C128.86 97.7899 130.953 95.2295 131.826 92.1454C135.644 91.0204 139.695 91.0204 143.494 92.1454C144.367 95.2101 146.46 97.7899 149.29 99.2641V99.2447ZM42.3533 64.7376V52.1296C42.3533 45.651 46.6951 40.3751 52.0255 40.3751C57.2395 40.3751 61.5813 45.651 61.6976 52.149V64.757H42.3727L42.3533 64.7376ZM65.0509 137.166V52.0908C65.0509 48.2502 63.7135 44.526 61.2712 41.5389C60.9223 41.1315 60.554 40.7242 60.1664 40.3557H124.596C130.876 40.3557 135.974 46.5433 135.974 54.1469V87.9557C133.919 88.1302 131.884 88.5376 129.907 89.1583C129.306 89.3522 128.86 89.8566 128.744 90.4773C128.24 93.2122 126.379 95.4817 123.821 96.5485C123.297 96.7813 122.909 97.2662 122.813 97.8287C122.599 99.1283 122.502 100.467 122.541 101.786H86.9538C86.0234 101.805 85.2869 102.581 85.3063 103.512C85.3256 104.404 86.0428 105.122 86.9538 105.161H122.871C124.208 112.706 129.093 119.126 135.993 122.443V128.883H91.1018C90.1714 128.883 89.4155 129.64 89.4155 130.571V138.814C89.4155 146.418 84.279 152.606 77.9601 152.606C70.8658 152.606 65.0897 145.681 65.0897 137.146L65.0509 137.166ZM150.608 138.834C150.608 146.437 145.51 152.625 139.23 152.625H86.7406C90.6366 149.114 92.8463 144.09 92.7494 138.834V132.278H150.608V138.834ZM70.5363 56.9982C70.5363 56.0672 71.2923 55.3107 72.2227 55.3107H88.6014C89.5318 55.2913 90.3071 56.0284 90.3265 56.9594C90.3459 57.8905 89.6093 58.6663 88.6789 58.6857C88.6402 58.6857 88.6208 58.6857 88.582 58.6857H72.2033C71.2729 58.6857 70.517 57.9293 70.517 56.9982H70.5363ZM70.5363 63.8647C70.5363 62.9337 71.2923 62.1772 72.2227 62.1772H105.077C106.007 62.1578 106.783 62.8949 106.802 63.8259C106.822 64.757 106.085 65.5328 105.155 65.5522C105.116 65.5522 105.096 65.5522 105.058 65.5522H72.2033C71.2729 65.5522 70.517 64.7958 70.517 63.8647H70.5363ZM70.5363 70.7312C70.5363 69.8002 71.2923 69.0437 72.2227 69.0437H115.137C116.067 69.0243 116.843 69.7614 116.862 70.6924C116.881 71.6235 116.145 72.3993 115.214 72.4187C115.176 72.4187 115.156 72.4187 115.117 72.4187H72.2033C71.2729 72.4187 70.517 71.6623 70.517 70.7312H70.5363ZM83.7556 78.49C84.4147 79.1495 84.4147 80.2163 83.7556 80.8758L76.6614 88.0139C76.3513 88.3242 75.9248 88.5182 75.4596 88.5182C75.0138 88.5182 74.5874 88.3436 74.2773 88.0333L70.5751 84.3284C69.9355 83.6496 69.9548 82.5827 70.6333 81.9426C71.2923 81.3219 72.3196 81.3219 72.9592 81.9426L75.4596 84.4448L81.3521 78.5094C82.0111 77.8499 83.0772 77.8499 83.7362 78.5094L83.7556 78.49ZM85.2481 81.3607C85.2481 80.4297 86.0041 79.6732 86.9345 79.6732H114.245C115.176 79.6732 115.932 80.4297 115.932 81.3607C115.932 82.2918 115.176 83.0482 114.245 83.0482H86.9345C86.0041 83.0482 85.2481 82.2918 85.2481 81.3607ZM86.9345 84.8328H128.802C129.732 84.8134 130.508 85.5504 130.527 86.4815C130.546 87.4126 129.81 88.1884 128.88 88.2078C128.841 88.2078 128.821 88.2078 128.783 88.2078H86.9151C85.9847 88.1884 85.2481 87.4126 85.2675 86.4815C85.2869 85.5892 86.004 84.8716 86.9151 84.8328H86.9345ZM70.5751 101.301C69.8967 100.661 69.8773 99.5938 70.517 98.9149C71.1566 98.236 72.2227 98.2166 72.9011 98.8567C72.9011 98.8567 72.9398 98.8955 72.9592 98.9149L75.4596 101.417L81.3521 95.4817C82.0305 94.8416 83.0966 94.861 83.7362 95.5205C84.3565 96.18 84.3565 97.208 83.7362 97.8481L76.642 104.986C76.3319 105.296 75.9054 105.49 75.4403 105.49C74.9944 105.49 74.568 105.316 74.2579 105.006L70.5557 101.301H70.5751ZM115.932 98.333C115.932 99.2641 115.176 100.021 114.245 100.021H86.9345C86.0041 100.021 85.2481 99.2641 85.2481 98.333C85.2481 97.402 86.0041 96.6455 86.9345 96.6455H114.245C115.176 96.6455 115.932 97.402 115.932 98.333ZM83.7556 112.435C84.4147 113.094 84.4147 114.161 83.7556 114.82L76.6614 121.958C76.3513 122.269 75.9248 122.463 75.4596 122.463C75.0138 122.463 74.5874 122.288 74.2773 121.978L70.5751 118.273C69.8773 117.652 69.7998 116.585 70.42 115.887C71.0403 115.189 72.1064 115.111 72.8042 115.732C72.8623 115.771 72.9011 115.829 72.9592 115.887L75.4596 118.389L81.3521 112.454C82.0111 111.794 83.0772 111.794 83.7362 112.454L83.7556 112.435ZM85.2481 115.305C85.2481 114.374 86.0041 113.618 86.9345 113.618H114.245C115.176 113.618 115.932 114.374 115.932 115.305C115.932 116.236 115.176 116.993 114.245 116.993H86.9345C86.0041 116.993 85.2481 116.236 85.2481 115.305ZM86.9345 118.777H128.802C129.732 118.777 130.488 119.534 130.488 120.465C130.488 121.396 129.732 122.152 128.802 122.152H86.9345C86.0041 122.152 85.2481 121.396 85.2481 120.465C85.2481 119.534 86.0041 118.777 86.9345 118.777ZM135.644 107.353L142.874 100.059C143.553 99.4192 144.619 99.4386 145.258 100.098C145.878 100.758 145.878 101.786 145.258 102.426L136.827 110.922C136.516 111.232 136.09 111.426 135.644 111.426C135.198 111.426 134.772 111.251 134.462 110.941L130.062 106.538C129.403 105.878 129.403 104.812 130.062 104.152C130.721 103.493 131.787 103.493 132.446 104.152L135.644 107.353Z" fill="white"/>
</svg>
