<svg width="194" height="194" viewBox="0 0 194 194" fill="none" xmlns="http://www.w3.org/2000/svg">
<circle cx="97" cy="97" r="97" fill="#3B91DC"/>
<g opacity="0.75" clip-path="url(#clip0_52_1028)">
<path d="M77.9728 102.61H121.129C123.529 102.61 125.748 101.3 126.897 99.1619C128.147 96.9436 128.087 94.2009 126.736 92.0431L105.157 57.3564C103.262 54.2709 99.2285 53.2828 96.143 55.1784C95.2557 55.7229 94.5095 56.4691 93.965 57.3564L72.3867 92.0633C71.0557 94.2413 70.9952 96.9638 72.2253 99.1821C73.3748 101.3 75.5932 102.61 77.993 102.61H77.9728ZM75.7948 94.1808L97.3732 59.4941C98.079 58.2841 99.6318 57.8808 100.842 58.6068C101.205 58.8286 101.507 59.1311 101.729 59.4941L123.307 94.1808C123.892 95.1084 123.912 96.2579 123.368 97.2058C122.924 98.0326 122.077 98.5569 121.129 98.5771H77.9728C77.025 98.5771 76.178 98.0326 75.7343 97.2058C75.1898 96.2579 75.2302 95.1084 75.7948 94.1808Z" fill="white"/>
<path d="M149.382 109.245C147.748 108.781 145.994 108.983 144.522 109.81L140.267 112.21C140.085 111.685 139.803 111.181 139.46 110.738L133.874 103.478C134.64 101.925 135.306 100.332 135.85 98.678L144.945 97.4882C147.244 97.2058 149.1 95.4513 149.463 93.1523C150.128 88.6955 150.128 84.1782 149.463 79.7415C149.1 77.4425 147.264 75.6477 144.945 75.3653L135.85 74.1755C135.306 72.542 134.64 70.9488 133.874 69.396L139.46 62.136C140.872 60.3008 140.912 57.7397 139.581 55.844C138.25 54.0492 136.778 52.335 135.205 50.7418C133.612 49.1487 131.897 47.6765 130.082 46.3455C128.187 45.0145 125.646 45.075 123.811 46.4867L116.551 52.0728C114.998 51.3065 113.405 50.6612 111.771 50.0965L110.581 41.0013C110.299 38.7023 108.524 36.847 106.225 36.484C101.768 35.8185 97.251 35.8185 92.7942 36.484C90.4952 36.847 88.7205 38.6822 88.4382 41.0013L87.2483 50.0965C85.6148 50.641 84.0015 51.3065 82.4487 52.0728L75.1887 46.4867C73.3535 45.0548 70.7923 44.9943 68.9168 46.3455C67.1018 47.6765 65.4078 49.1487 63.8147 50.7418C62.2417 52.335 60.7695 54.0492 59.4183 55.844C58.0672 57.7397 58.1075 60.3008 59.5393 62.1158L65.1255 69.3557C64.3592 70.9085 63.7138 72.5017 63.1492 74.1352L54.0338 75.325C51.7348 75.6275 49.8997 77.4022 49.5165 79.7012C48.8712 84.158 48.8712 88.6753 49.5165 93.1322C49.8997 95.411 51.7348 97.1655 54.0338 97.4478L63.1492 98.6377C63.6937 100.271 64.3592 101.884 65.1255 103.437L59.5393 110.717C59.1158 111.282 58.8133 111.927 58.6318 112.613L57.0185 113.299C56.4135 110.536 53.9532 108.56 51.1298 108.539H39.05C35.7023 108.539 33 111.242 33 114.589V142.823C33 146.17 35.7023 148.873 39.05 148.873H51.15C54.3363 148.873 56.958 146.392 57.1597 143.206C57.563 143.206 57.9865 143.246 58.3697 143.367L99.4492 156.516C102.595 157.444 105.983 156.818 108.565 154.802L151.56 120.317C153.093 119.107 153.98 117.251 153.98 115.315C153.98 114.226 153.698 113.158 153.173 112.21C152.346 110.738 150.975 109.649 149.362 109.185L149.382 109.245ZM64.9843 94.8665L54.5985 93.5153C54.0943 93.4548 53.6708 93.0918 53.5498 92.5877C52.965 88.5342 52.965 84.4202 53.5498 80.3667C53.6507 79.8423 54.0742 79.4592 54.5985 79.3987L64.9843 78.0475C65.7708 77.9467 66.4162 77.4022 66.6582 76.6358C67.3237 74.3973 68.211 72.2395 69.3202 70.1825C69.7033 69.4767 69.6227 68.6297 69.1387 67.9843L62.766 59.716C62.4232 59.3127 62.403 58.748 62.6853 58.3043C63.9155 56.6507 65.2465 55.0978 66.6985 53.6458C68.1505 52.1938 69.7033 50.8628 71.3368 49.6528C71.7805 49.3705 72.3452 49.3907 72.7485 49.7335L81.037 56.1062C81.6622 56.5902 82.5293 56.6507 83.2352 56.2877C85.2922 55.1785 87.4702 54.2912 89.7087 53.6257C90.475 53.4038 91.0195 52.7383 91.1203 51.9518L92.4715 41.5862C92.532 41.0618 92.9152 40.6383 93.4193 40.5375C97.4728 39.9325 101.607 39.9325 105.661 40.5375C106.165 40.6383 106.568 41.0618 106.608 41.5862L107.96 51.9518C108.06 52.7383 108.605 53.3837 109.371 53.6257C111.61 54.2912 113.768 55.1987 115.845 56.2877C116.551 56.6708 117.398 56.5902 118.043 56.1062L126.311 49.7335C126.715 49.4108 127.279 49.3705 127.723 49.6528C131.03 52.0728 133.934 54.997 136.374 58.3043C136.677 58.748 136.657 59.3328 136.314 59.7563L129.941 68.0247C129.457 68.6498 129.377 69.517 129.76 70.2228C130.869 72.2798 131.756 74.4377 132.422 76.6762C132.644 77.4425 133.309 77.987 134.096 78.0878L144.461 79.439C144.986 79.4793 145.429 79.8827 145.51 80.407C145.812 82.4237 145.974 84.4605 145.974 86.5175C145.974 88.5745 145.812 90.6113 145.51 92.6482C145.409 93.1523 144.986 93.5355 144.461 93.5758L134.096 94.927C133.309 95.0278 132.664 95.5723 132.422 96.3387C131.756 98.5772 130.849 100.735 129.76 102.812C129.377 103.518 129.457 104.365 129.941 105.01L136.334 113.319C136.576 113.662 136.637 114.085 136.475 114.489L125.565 120.66C124.859 118.32 122.883 116.586 120.483 116.203L117.035 115.618C117.035 115.618 116.934 115.618 116.873 115.618L75.4508 108.923C72.1032 108.398 68.695 108.721 65.5087 109.85L69.2193 105.03C69.7033 104.405 69.7638 103.538 69.4008 102.832C68.2917 100.775 67.4043 98.5973 66.7388 96.379C66.517 95.6127 65.8515 95.0682 65.065 94.9673L64.9843 94.8665ZM53.1667 142.883C53.1667 143.992 52.2592 144.9 51.15 144.9H39.05C37.9408 144.9 37.0333 143.992 37.0333 142.883V114.65C37.0333 113.541 37.9408 112.633 39.05 112.633H51.15C52.2592 112.633 53.1667 113.541 53.1667 114.65V142.883ZM149.059 117.231L106.064 151.696C104.531 152.886 102.515 153.269 100.639 152.725L59.5797 139.596C58.8133 139.354 58.0268 139.233 57.2403 139.233H57.1798V117.695L66.759 113.541C69.3202 112.633 72.0628 112.371 74.7248 112.815L119.737 120.095C120.866 120.276 121.693 121.244 121.713 122.394C121.713 122.696 121.653 122.999 121.552 123.281C121.451 123.584 121.27 123.826 121.068 124.027C120.624 124.471 120.019 124.733 119.374 124.733H81.0773C79.9682 124.733 79.0607 125.641 79.0607 126.75C79.0607 127.859 79.9682 128.767 81.0773 128.767H88.5592L100.296 136.047C102.131 137.075 104.37 137.095 106.225 136.047L119.152 128.746H119.374C121.068 128.746 122.681 128.081 123.891 126.891C124.315 126.468 124.678 126.004 124.96 125.479L146.478 113.319C147.607 112.694 149.019 113.097 149.664 114.206C149.866 114.569 149.967 114.952 149.967 115.356C149.967 116.082 149.624 116.767 149.059 117.211V117.231ZM110.964 128.767L104.269 132.558C103.684 132.881 102.958 132.901 102.353 132.578L96.2225 128.767H110.964Z" fill="white"/>
<path d="M47.1203 116.667H43.087C41.9778 116.667 41.0703 117.574 41.0703 118.683C41.0703 119.792 41.9778 120.7 43.087 120.7H47.1203C48.2295 120.7 49.137 119.792 49.137 118.683C49.137 117.574 48.2295 116.667 47.1203 116.667Z" fill="white"/>
<path d="M47.1203 136.833H43.087C41.9778 136.833 41.0703 137.741 41.0703 138.85C41.0703 139.959 41.9778 140.867 43.087 140.867H47.1203C48.2295 140.867 49.137 139.959 49.137 138.85C49.137 137.741 48.2295 136.833 47.1203 136.833Z" fill="white"/>
<path d="M99.5479 84.4606C100.657 84.4606 101.565 83.5531 101.565 82.4439V66.3106C101.565 65.2014 100.657 64.2939 99.5479 64.2939C98.4387 64.2939 97.5312 65.2014 97.5312 66.3106V82.4439C97.5312 83.5531 98.4387 84.4606 99.5479 84.4606Z" fill="white"/>
<path d="M99.5479 94.5437C100.657 94.5437 101.565 93.6362 101.565 92.527V90.5103C101.565 89.4012 100.657 88.4937 99.5479 88.4937C98.4387 88.4937 97.5312 89.4012 97.5312 90.5103V92.527C97.5312 93.6362 98.4387 94.5437 99.5479 94.5437Z" fill="white"/>
</g>
<defs>
<clipPath id="clip0_52_1028">
<rect width="121" height="121" fill="white" transform="translate(33 36)"/>
</clipPath>
</defs>
</svg>
