<svg width="138" height="89" viewBox="0 0 138 89" fill="none" xmlns="http://www.w3.org/2000/svg">
<path opacity="0.6667" d="M120.772 8.68715L123.077 14.4909L129.294 14.879C130.825 14.9715 131.415 16.8937 130.271 17.8549L125.457 21.8473L127.006 27.9098C127.375 29.3515 125.77 30.6268 124.368 29.6842L119.204 26.4126L113.928 29.7581C112.655 30.5714 111.032 29.3884 111.419 27.9283L112.969 21.8657L108.173 17.8733C107.011 16.9122 107.601 14.9715 109.206 14.8975L115.367 14.5094L117.673 8.70563C118.226 7.3009 120.237 7.3009 120.79 8.70563L120.772 8.68715ZM120.347 16.7274L119.222 13.8625L118.134 16.6165C117.931 17.2634 117.359 17.744 116.64 17.7809L113.578 17.9658L115.883 19.888C116.4 20.2947 116.676 20.9601 116.51 21.6439L115.754 24.6197L118.318 22.9932C118.853 22.642 119.554 22.6051 120.144 22.9747L122.745 24.6197L121.989 21.6439C121.841 21.034 122.044 20.3686 122.542 19.925L124.903 17.9473L121.823 17.7624C121.214 17.707 120.624 17.3188 120.384 16.6904L120.347 16.7274ZM119.222 0C129.589 0 138 8.42838 138 18.816C138 29.2036 129.589 37.632 119.222 37.632C110.294 37.632 102.713 31.3661 100.868 22.8084H78.2537C76.778 29.6842 68.2007 32.2903 63.1834 27.2444C61.9844 26.043 61.1359 24.5273 60.7669 22.8084H43.3171C39.1299 22.8084 35.2747 24.8046 32.8214 28.0946C39.0008 31.4955 39.0008 40.423 32.8214 43.8239C35.2747 47.0954 39.1299 49.0916 43.3171 49.0916H76.1693C81.3526 49.0916 86.167 51.5499 89.2659 55.6162C94.4308 55.3205 98.7471 59.4238 98.7471 64.5806C98.7471 69.2199 95.2055 73.0829 90.6309 73.508C87.7718 78.7388 82.238 82.1398 76.1693 82.1398H17.6589C16.0356 88.8862 7.58742 91.3444 2.62547 86.3724C-3.00053 80.735 1.02066 71.0498 8.9524 71.0498C13.4348 71.0498 17.1978 74.3768 17.8065 78.7573H76.1509C80.5226 78.7573 84.5069 76.5948 86.9233 73.0829C79.4527 70.5692 78.641 60.237 85.6689 56.5958C83.2156 53.9897 79.8216 52.4741 76.1509 52.4741H43.2987C37.6543 52.4741 32.471 49.5537 29.4643 44.8774C24.1519 45.4319 19.5588 41.2732 19.5588 35.95C19.5588 30.6268 24.1519 26.4681 29.4643 27.0226C32.471 22.3463 37.6543 19.4259 43.2987 19.4259H60.6563C61.8368 12.2914 70.654 9.37103 75.8188 14.5464C77.11 15.8402 77.9955 17.5406 78.3275 19.4259H100.444C100.094 8.77956 108.616 0 119.204 0H119.222ZM130.124 7.89237C124.11 1.86681 114.334 1.86681 108.321 7.89237C102.307 13.9179 102.307 23.7141 108.321 29.7211C114.334 35.7467 124.11 35.7467 130.124 29.7211C136.137 23.6956 136.137 13.9179 130.124 7.89237ZM12.9183 76.0403C9.41359 72.5284 3.38176 75.0237 3.38176 79.9957C3.38176 84.9677 9.41359 87.4629 12.9183 83.9511C15.0949 81.7516 15.0949 78.2028 12.9183 76.0403ZM93.7482 60.6067C90.2435 57.0949 84.2117 59.5901 84.2117 64.5621C84.2117 69.5341 90.2435 72.0479 93.7482 68.5176C95.9249 66.3181 95.9249 62.7693 93.7482 60.6067ZM32.4709 31.9946C28.9662 28.4828 22.9344 30.978 22.9344 35.95C22.9344 40.922 28.9478 43.4357 32.4709 39.9054C34.6475 37.7059 34.6475 34.1571 32.4709 31.9946ZM73.4577 16.9492C69.953 13.4374 63.9212 15.9326 63.9212 20.9046C63.9212 25.8766 69.9346 28.3903 73.4577 24.86C75.6344 22.6605 75.6344 19.1302 73.4577 16.9492Z" fill="#FAFAFA"/>
</svg>
