<svg width="78" height="99" viewBox="0 0 78 99" fill="none" xmlns="http://www.w3.org/2000/svg">
<path opacity="0.6667" d="M73.8372 0H12.5768C12.193 0 11.824 0.178943 11.5731 0.47718L0.280469 14.3005C0.280469 14.3005 0.1919 14.4198 0.162377 14.4794C0.132854 14.554 0.103331 14.6136 0.0738077 14.6882V14.718C0.0738077 14.718 0.0295231 14.8522 0.0147615 14.9119V14.9417C0.0147615 14.9417 0 15.0759 0 15.1505V94.8098C0 97.1211 1.85995 99 4.14799 99H73.852C76.1401 99 78 97.1211 78 94.8098V4.19024C78 1.8789 76.1401 0 73.852 0H73.8372ZM11.6173 4.56304V12.2576C11.6173 13.1225 10.9235 13.8233 10.0674 13.8233H4.04466L11.6173 4.56304ZM75.3872 94.7948C75.3872 95.6597 74.6934 96.3457 73.8372 96.3457H4.13323C3.27706 96.3457 2.58327 95.6448 2.58327 94.7799V16.4627H10.0674C12.3554 16.4627 14.2154 14.5838 14.2154 12.2725V2.6394H73.8225C74.6787 2.6394 75.3724 3.34026 75.3724 4.20515V94.8098L75.3872 94.7948ZM69.1726 84.0583C69.1726 84.789 68.5821 85.3854 67.8588 85.3854H64.4341C63.7108 85.4302 63.0908 84.8784 63.0466 84.1478C63.0023 83.4171 63.5485 82.7908 64.2718 82.746C64.3308 82.746 64.3899 82.746 64.4341 82.746H67.8588C68.5821 82.746 69.1578 83.3276 69.1578 84.0583H69.1726ZM59.8876 84.0583C59.8876 84.789 59.2971 85.3854 58.5738 85.3854H33.4054C32.6821 85.4302 32.0621 84.8784 32.0178 84.1478C31.9735 83.4171 32.5197 82.7908 33.243 82.746C33.302 82.746 33.3611 82.746 33.4054 82.746H58.5738C59.2971 82.746 59.8728 83.3276 59.8728 84.0583H59.8876ZM67.8736 51.5653H55.2229C55.2229 51.5653 55.1491 51.4758 55.1048 51.4311L51.5473 47.6286C50.204 46.197 47.9603 46.1225 46.5284 47.4794L42.2475 51.5653H33.4054C32.6821 51.5653 32.0916 52.1618 32.0916 52.8925C32.0916 53.6231 32.6821 54.2196 33.4054 54.2196H39.4871L21.2271 71.6367C21.1385 71.7113 21.0647 71.8007 21.0057 71.8902C20.9909 71.92 20.9762 71.9498 20.9466 71.9797C16.1934 70.2946 10.9826 72.8296 9.31453 77.6462C7.64648 82.4478 10.1559 87.7117 14.9239 89.3967C19.6771 91.0818 24.888 88.5468 26.556 83.7302C26.807 82.9995 26.9693 82.239 27.0284 81.4785L29.036 81.0014H29.0507C29.2721 80.9417 29.4788 80.8373 29.6412 80.6733L33.3611 77.1243H67.8736C68.5969 77.169 69.2169 76.6173 69.2612 75.8866C69.3055 75.1559 68.7593 74.5296 68.036 74.4849C67.9769 74.4849 67.9179 74.4849 67.8736 74.4849H36.1363L48.6836 62.5106H58.5738C59.2971 62.5106 59.8876 61.9141 59.8876 61.1835C59.8876 60.4528 59.2971 59.8563 58.5738 59.8563H51.444L54.9572 56.516C55.592 55.9047 55.9758 55.0994 56.0496 54.2196H67.8736C68.5969 54.2196 69.1874 53.6231 69.1874 52.8925C69.1874 52.1618 68.5969 51.5653 67.8736 51.5653ZM20.9909 80.1961L21.7585 77.6164L22.6294 75.0813L26.246 78.9435L21.0057 80.1961H20.9909ZM17.9353 87.2494C14.3335 87.2494 11.4107 84.3118 11.4107 80.6733C11.4107 77.0348 14.3187 74.0822 17.9205 74.0822C18.6586 74.0822 19.3819 74.2015 20.0757 74.455L19.2786 76.7813C19.2786 76.7813 19.2786 76.8111 19.2638 76.8409L17.8467 81.6426C17.64 82.3434 18.0386 83.0741 18.7324 83.2829C18.9538 83.3425 19.1752 83.3574 19.3967 83.2978L24.3123 82.1197C23.6332 85.117 21.0057 87.2643 17.95 87.2643L17.9353 87.2494ZM53.1711 54.5775L28.7998 77.8251L23.958 72.6358L48.3441 49.3882C48.5212 49.2092 48.7721 49.1197 49.0231 49.1347C49.274 49.1347 49.5102 49.254 49.6874 49.4329L53.2449 53.2354C53.5992 53.6231 53.5844 54.2196 53.2006 54.5775H53.1711ZM69.1726 61.1536C69.1726 61.8843 68.5821 62.4808 67.8588 62.4808H64.4341C63.7108 62.4808 63.1204 61.8843 63.1204 61.1536C63.1204 60.423 63.7108 59.8265 64.4341 59.8265H67.8588C68.5821 59.8265 69.1578 60.423 69.1578 61.1387L69.1726 61.1536ZM17.9353 66.9842C22.969 66.9842 27.0579 62.8685 27.0579 57.7686C27.0579 56.0836 26.6003 54.4433 25.7441 53.0117L27.4565 51.1329C27.9731 50.6258 27.9879 49.7908 27.5008 49.2689C26.9989 48.747 26.1722 48.732 25.6556 49.2241C25.6113 49.2689 25.5818 49.2987 25.5375 49.3434L24.0761 50.9539C20.3562 47.5242 14.5844 47.7926 11.1745 51.5504C7.76457 55.3082 8.04504 61.1387 11.765 64.5834C13.4478 66.1342 15.6472 66.9842 17.9205 66.9842H17.9353ZM17.9353 51.1776C19.559 51.1776 21.1238 51.789 22.3195 52.8925L18.0829 57.5599L15.4701 55.8897C14.8796 55.4573 14.0678 55.5915 13.6397 56.188C13.2116 56.7845 13.3444 57.6046 13.9349 58.0371C13.9792 58.0669 14.0235 58.0967 14.0825 58.1265L17.6253 60.3782C18.1567 60.7212 18.8505 60.6317 19.2786 60.1545L23.8989 55.0696C25.3751 58.3949 23.8989 62.2869 20.6071 63.7781C17.3153 65.2693 13.4625 63.7781 11.9864 60.4528C10.5102 57.1274 11.9864 53.2354 15.2782 51.7442C16.1196 51.3714 17.0201 51.1627 17.9353 51.1627V51.1776ZM69.1726 29.9878C69.1726 30.7185 68.5821 31.315 67.8588 31.315H33.3906C32.6673 31.315 32.0768 30.7185 32.0768 30.0027C32.0768 29.272 32.6673 28.6756 33.3759 28.6756H67.8441C68.5674 28.6756 69.1431 29.272 69.1431 30.0027L69.1726 29.9878ZM69.1726 38.2639C69.1726 38.9946 68.5821 39.5911 67.8588 39.5911H64.4341C63.7108 39.5911 63.1204 38.9946 63.1204 38.2639C63.1204 37.5332 63.7108 36.9367 64.4341 36.9367H67.8588C68.5821 36.9367 69.1578 37.5332 69.1578 38.249L69.1726 38.2639ZM32.0916 38.2639C32.0916 37.5332 32.6821 36.9367 33.4054 36.9367H58.5738C59.2971 36.9367 59.8876 37.5332 59.8876 38.2639C59.8876 38.9946 59.2971 39.5911 58.5738 39.5911H33.4054C32.6821 39.5911 32.1064 38.9946 32.1064 38.2639H32.0916ZM17.9353 44.0944C22.969 44.0944 27.0579 39.9638 27.0579 34.8789C27.0579 33.1939 26.6003 31.5535 25.7441 30.122L27.4565 28.2431C27.9731 27.7361 27.9879 26.901 27.5008 26.3791C27.0136 25.8572 26.1722 25.8423 25.6556 26.3344C25.6113 26.3791 25.5818 26.4089 25.5375 26.4537L24.0761 28.0642C20.3562 24.6344 14.5844 24.9028 11.1745 28.6606C7.76457 32.4184 8.04504 38.249 11.765 41.6936C13.4478 43.2445 15.6472 44.1094 17.9205 44.1094L17.9353 44.0944ZM17.9353 28.2878C19.559 28.2878 21.1238 28.8992 22.3195 30.0027L18.0681 34.6701L15.4553 33C14.8649 32.5676 14.053 32.7018 13.6249 33.2982C13.1968 33.8947 13.3297 34.7149 13.9201 35.1473C13.9644 35.1771 14.0087 35.207 14.0678 35.2368L17.6105 37.5034C18.1419 37.8464 18.8357 37.7569 19.2638 37.2797L23.8842 32.1948C25.3603 35.5201 23.8842 39.4121 20.5924 40.9033C17.3005 42.3945 13.4478 40.9033 11.9716 37.5779C10.4955 34.2526 11.9716 30.3606 15.2634 28.8694C16.1048 28.4966 17.0053 28.2878 17.9205 28.3028L17.9353 28.2878Z" fill="#FAFAFA"/>
</svg>
