<svg width="84" height="115" viewBox="0 0 84 115" fill="none" xmlns="http://www.w3.org/2000/svg">
<g opacity="0.6667">
<path d="M75.8548 114.238H7.72365C3.45422 114.238 0 110.77 0 106.514V26.1828C0 21.9134 3.46804 18.4591 7.72365 18.4591H18.2245C18.943 18.4591 19.5233 19.0256 19.5233 19.7579C19.5233 20.4902 18.9568 21.0567 18.2245 21.0567H7.72365C4.87737 21.0567 2.58376 23.3641 2.58376 26.1966V106.528C2.58376 109.374 4.89118 111.668 7.72365 111.668H75.841C78.6872 111.668 80.9808 109.361 80.9808 106.528V26.1828C80.9808 23.3365 78.6734 21.0429 75.841 21.0429H65.3401C64.6216 21.0429 64.0413 20.4764 64.0413 19.7441C64.0413 19.0118 64.6078 18.4453 65.3401 18.4453H75.841C80.1104 18.4453 83.5646 21.9134 83.5646 26.169V106.5C83.5646 110.77 80.0966 114.224 75.841 114.224L75.8548 114.238Z" fill="#7A63AB"/>
<path d="M74.1716 106.128H9.43941C8.72093 106.128 8.14062 105.561 8.14062 104.829V27.8964C8.14062 27.178 8.70712 26.5977 9.43941 26.5977H74.1716C74.8901 26.5977 75.4704 27.1641 75.4704 27.8964V104.829C75.4704 105.534 74.8762 106.128 74.1716 106.128ZM10.7244 103.544H72.8728V29.1814H10.7382V103.53L10.7244 103.544Z" fill="#7A63AB"/>
<path d="M65.354 29.1803C64.6355 29.1803 64.0552 28.6138 64.0552 27.8815V19.6605C64.0552 15.8332 60.9464 12.7382 57.133 12.7382H26.4456C22.6183 12.7382 19.5234 15.847 19.5234 19.6605V27.8815C19.5234 28.6 18.9569 29.1803 18.2246 29.1803C17.4923 29.1803 16.9258 28.6138 16.9258 27.8815V19.6605C16.9258 14.41 21.1952 10.1406 26.4456 10.1406H57.1053C62.3557 10.1406 66.6252 14.41 66.6252 19.6605V27.8815C66.6528 28.5862 66.0587 29.1803 65.354 29.1803Z" fill="#7A63AB"/>
<path d="M51.9654 12.7392C51.2469 12.7392 50.6666 12.1727 50.6666 11.4404C50.6666 6.54921 46.6873 2.56994 41.7962 2.56994C36.905 2.56994 32.9257 6.54921 32.9257 11.4404C32.9257 12.1589 32.3592 12.7392 31.6269 12.7392C30.8946 12.7392 30.3281 12.1727 30.3281 11.4404C30.3558 5.13989 35.4956 0 41.81 0C48.1243 0 53.2642 5.13989 53.2642 11.4542C53.2642 12.1589 52.6977 12.753 51.9654 12.753V12.7392Z" fill="#7A63AB"/>
<path d="M54.4311 20.9609H29.1738C28.4553 20.9609 27.875 20.3944 27.875 19.6621C27.875 18.9298 28.4415 18.3633 29.1738 18.3633H54.4311C55.1496 18.3633 55.7299 18.9298 55.7299 19.6621C55.7299 20.3944 55.1634 20.9609 54.4311 20.9609Z" fill="#7A63AB"/>
<path d="M41.8089 86.3013C30.8244 86.3013 21.8711 77.3618 21.8711 66.3636C21.8711 55.3653 30.8106 46.4258 41.8089 46.4258C52.8071 46.4258 61.7467 55.3653 61.7467 66.3636C61.7467 77.3618 52.8071 86.3013 41.8089 86.3013ZM41.8089 49.0234C32.2476 49.0234 24.4549 56.8023 24.4549 66.3774C24.4549 75.9525 32.2338 83.7314 41.8089 83.7314C51.384 83.7314 59.1629 75.9525 59.1629 66.3774C59.1629 56.8161 51.384 49.0234 41.8089 49.0234Z" fill="#7A63AB"/>
<path d="M57.4237 57.4648H26.1699C25.4514 57.4648 24.8711 56.8983 24.8711 56.166C24.8711 55.4337 25.4376 54.8672 26.1699 54.8672H57.4237C58.1422 54.8672 58.7225 55.4337 58.7225 56.166C58.7225 56.8983 58.156 57.4648 57.4237 57.4648Z" fill="#7A63AB"/>
<path d="M60.4482 67.6601H23.1425C22.4241 67.6601 21.8438 67.0936 21.8438 66.3613C21.8438 65.629 22.4102 65.0625 23.1425 65.0625H60.4205C61.139 65.0625 61.7193 65.629 61.7193 66.3613C61.7193 67.0936 61.1528 67.6601 60.4482 67.6601Z" fill="#7A63AB"/>
<path d="M57.4237 77.8163H26.1699C25.4514 77.8163 24.8711 77.2498 24.8711 76.5175C24.8711 75.7852 25.4376 75.2188 26.1699 75.2188H57.4237C58.1422 75.2188 58.7225 75.7852 58.7225 76.5175C58.7225 77.2498 58.156 77.8163 57.4237 77.8163Z" fill="#7A63AB"/>
<path d="M41.8133 86.3013C36.2312 86.3013 31.8789 77.5414 31.8789 66.3636C31.8789 55.1857 36.245 46.4258 41.8133 46.4258C47.3815 46.4258 51.7476 55.1857 51.7476 66.3636C51.7476 77.5276 47.3815 86.3013 41.8133 86.3013ZM41.8133 49.0234C38.3452 49.0234 34.4765 56.1529 34.4765 66.3774C34.4765 76.6019 38.359 83.7314 41.8133 83.7314C45.2675 83.7314 49.15 76.6019 49.15 66.3774C49.15 56.1529 45.2675 49.0234 41.8133 49.0234Z" fill="#7A63AB"/>
<path d="M67.6362 35.703H15.9472C15.2287 35.703 14.6484 35.1366 14.6484 34.4043C14.6484 33.672 15.2149 33.1055 15.9472 33.1055H67.6224C68.3409 33.1055 68.9212 33.672 68.9212 34.4043C68.9212 35.1366 68.3547 35.703 67.6224 35.703H67.6362Z" fill="#7A63AB"/>
<path d="M67.6362 42.998H15.9472C15.2287 42.998 14.6484 42.4315 14.6484 41.6992C14.6484 40.9669 15.2149 40.4004 15.9472 40.4004H67.6224C68.3409 40.4004 68.9212 40.9669 68.9212 41.6992C68.9212 42.4315 68.3547 42.998 67.6224 42.998H67.6362Z" fill="#7A63AB"/>
<path d="M67.6362 92.3241H15.9472C15.2287 92.3241 14.6484 91.7576 14.6484 91.0253C14.6484 90.293 15.2149 89.7266 15.9472 89.7266H67.6224C68.3409 89.7266 68.9212 90.293 68.9212 91.0253C68.9212 91.7576 68.3547 92.3241 67.6224 92.3241H67.6362Z" fill="#7A63AB"/>
<path d="M67.6362 99.578H15.9472C15.2287 99.578 14.6484 99.0115 14.6484 98.2793C14.6484 97.547 15.2149 96.9805 15.9472 96.9805H67.6224C68.3409 96.9805 68.9212 97.547 68.9212 98.2793C68.9212 99.0115 68.3547 99.578 67.6224 99.578H67.6362Z" fill="#7A63AB"/>
</g>
</svg>
