<svg width="91" height="97" viewBox="0 0 91 97" fill="none" xmlns="http://www.w3.org/2000/svg">
<path opacity="0.6667" d="M13.7045 76.0097C13.262 75.417 13.385 74.5897 13.9749 74.1576C14.5526 73.7131 15.3761 73.8366 15.8186 74.4169L17.6499 76.8863L24.7541 67.3049C25.1966 66.7245 26.0078 66.6011 26.5978 67.0456C27.1755 67.4777 27.2984 68.305 26.8682 68.8977L18.7192 79.8744C18.203 80.5905 17.1337 80.6152 16.5929 79.8991L13.7045 76.0097ZM23.9921 75.3676C23.7586 74.6762 24.1273 73.923 24.8156 73.7007C25.5039 73.4785 26.2413 73.8489 26.4749 74.5403C28.4906 80.5782 23.9675 86.653 17.736 86.653C12.6475 86.653 8.51771 82.5043 8.51771 77.3926C8.51771 71.6387 13.6799 67.2802 19.3461 68.2679C19.8623 68.3544 20.3662 68.4902 20.8702 68.6754C21.5462 68.9223 21.8903 69.6879 21.6445 70.367C21.3987 71.0461 20.6367 71.3918 19.9606 71.1449C17.6376 70.2682 14.8476 70.9349 13.09 72.7006C10.5211 75.2812 10.5211 79.4792 13.09 82.0598C15.6834 84.6651 19.8623 84.6281 22.4434 82.0598C24.2379 80.2695 24.7787 77.6889 24.0044 75.3553L23.9921 75.3676ZM30.8259 58.2667C30.1007 58.2667 29.5108 57.674 29.5108 56.9455C29.5108 56.217 30.1007 55.6244 30.8259 55.6244H42.9203C43.6454 55.6244 44.2354 56.217 44.2354 56.9455C44.2354 57.674 43.6454 58.2667 42.9203 58.2667H30.8259ZM30.8259 50.3768C30.1007 50.3768 29.5108 49.7841 29.5108 49.0556C29.5108 48.3271 30.1007 47.7345 30.8259 47.7345H48.9552C49.6803 47.7345 50.2703 48.3271 50.2703 49.0556C50.2703 49.7841 49.6803 50.3768 48.9552 50.3768H30.8259ZM13.7045 52.2906C13.262 51.6979 13.385 50.8707 13.9749 50.4385C14.5526 49.994 15.3761 50.1175 15.8186 50.6978L17.6499 53.1673L24.7541 43.5858C25.1966 43.0055 26.0078 42.882 26.5978 43.3265C27.1755 43.7587 27.2984 44.5859 26.8682 45.1786L18.7192 56.1553C18.203 56.8714 17.1337 56.8961 16.5929 56.18L13.7045 52.2906ZM23.9921 51.6485C23.7586 50.9571 24.1273 50.2163 24.8156 49.9817C25.5039 49.7471 26.2413 50.1175 26.4749 50.8089C28.4906 56.8467 23.9675 62.9216 17.736 62.9216C12.6475 62.9216 8.51771 58.7729 8.51771 53.6611C8.51771 47.9073 13.6799 43.5488 19.3461 44.5365C19.8623 44.623 20.3662 44.7588 20.8702 44.944C21.5462 45.1909 21.8903 45.9565 21.6445 46.6356C21.3987 47.3147 20.6367 47.6604 19.9606 47.4134C17.6376 46.5368 14.8476 47.2035 13.09 48.9692C10.5211 51.5498 10.5211 55.7478 13.09 58.3284C15.6834 60.9337 19.8623 60.8966 22.4434 58.3284C24.2379 56.5381 24.7787 53.9575 24.0044 51.6238L23.9921 51.6485ZM13.7045 28.2752C13.262 27.6949 13.385 26.8676 13.9749 26.4231C14.5526 25.991 15.3761 26.1144 15.8186 26.6948L17.6499 29.1642L24.7541 19.5951C25.1966 19.0148 26.0078 18.8913 26.5978 19.3234C27.1878 19.7556 27.2984 20.5829 26.8682 21.1755L18.7192 32.1522C18.203 32.8684 17.1337 32.8931 16.5929 32.1769L13.7045 28.2875V28.2752ZM23.9921 27.6208C23.7586 26.9294 24.1273 26.1885 24.8156 25.9539C25.5039 25.7193 26.2413 26.1021 26.4749 26.7812C28.4906 32.819 23.9675 38.9062 17.736 38.9062C12.6475 38.9062 8.51771 34.7575 8.51771 29.6457C8.51771 23.8919 13.6799 19.5334 19.3461 20.5211C19.8623 20.6199 20.3662 20.7557 20.8702 20.9409C21.5462 21.1879 21.8903 21.9534 21.6445 22.6325C21.3987 23.3116 20.6367 23.6573 19.9606 23.398C17.6376 22.5214 14.8476 23.1881 13.09 24.9538C10.5211 27.5344 10.5211 31.7324 13.09 34.313C15.6834 36.9183 19.8623 36.8812 22.4434 34.313C24.2379 32.5227 24.7787 29.9421 24.0044 27.6085L23.9921 27.6208ZM30.8259 81.9857C30.1007 81.9857 29.5108 81.3931 29.5108 80.6646C29.5108 79.9361 30.1007 79.3434 30.8259 79.3434H40.9045C41.6297 79.3434 42.2197 79.9361 42.2197 80.6646C42.2197 81.3931 41.6297 81.9857 40.9045 81.9857H30.8259ZM30.8259 74.0958C30.1007 74.0958 29.5108 73.5032 29.5108 72.7747C29.5108 72.0462 30.1007 71.4535 30.8259 71.4535H37.9916C38.7167 71.4535 39.3067 72.0462 39.3067 72.7747C39.3067 73.5032 38.7167 74.0958 37.9916 74.0958H30.8259ZM30.8259 26.3614C30.1007 26.3614 29.5108 25.7687 29.5108 25.0402C29.5108 24.3117 30.1007 23.7191 30.8259 23.7191H56.3175C57.0426 23.7191 57.6326 24.3117 57.6326 25.0402C57.6326 25.7687 57.0426 26.3614 56.3175 26.3614H30.8259ZM30.8259 34.2513C30.1007 34.2513 29.5108 33.6586 29.5108 32.9301C29.5108 32.2016 30.1007 31.609 30.8259 31.609H42.6622C43.3873 31.609 43.9773 32.2016 43.9773 32.9301C43.9773 33.6586 43.3873 34.2513 42.6622 34.2513H30.8259ZM4.49852 13.866H10.558C12.3525 13.866 13.8151 12.3966 13.8151 10.5939V4.50675L4.51082 13.866H4.49852ZM16.4331 2.64231V10.5939C16.4331 13.8536 13.7905 16.4959 10.5457 16.4959H2.6303V91.0857C2.6303 92.8884 4.09292 94.3577 5.88741 94.3577H63.3356C65.1301 94.3577 66.5928 92.8884 66.5928 91.0857V59.8965L58.7142 73.602C58.6036 73.7872 58.4561 73.9477 58.284 74.0465L45.612 82.8501C44.6902 83.4921 43.4488 82.7389 43.5594 81.6277L45.2187 66.3788C45.2433 66.1566 45.317 65.959 45.4276 65.7738L66.5805 28.979V5.91433C66.5805 4.11163 65.1179 2.64231 63.3234 2.64231H16.4208H16.4331ZM69.0879 29.8803C69.051 29.9544 69.0141 30.0285 68.9649 30.0902L47.7875 66.9344L46.4723 79.0471L56.5756 72.0215L66.7034 54.3896C66.7034 54.3896 66.7648 54.2785 66.8017 54.2291L83.1611 25.7564L74.3853 20.6693L69.0879 29.8803ZM69.2107 55.3157V91.0857C69.2107 94.3453 66.5682 97 63.3234 97H5.87511C2.63028 97 0 94.3453 0 91.0857V15.1871C0 14.792 0.135198 14.5698 0.381019 14.2487L14.1715 0.395112C14.4174 0.148167 14.737 0 15.118 0H63.3234C66.5682 0 69.2107 2.65466 69.2107 5.91433V24.4229L77.4949 9.98893C77.8514 9.35922 78.6503 9.13697 79.2894 9.50738L90.339 15.9156C90.9781 16.2737 91.1871 17.1009 90.8184 17.7183L69.2107 55.3157ZM87.5735 27.0034C87.93 26.3737 88.7289 26.1638 89.368 26.5219C89.9949 26.88 90.2161 27.6949 89.8474 28.3246L82.8661 40.4743C82.5096 41.104 81.6984 41.3139 81.0716 40.9558C80.4448 40.5978 80.2235 39.7828 80.5922 39.1531L87.5858 26.9911L87.5735 27.0034ZM75.7004 18.3974L84.4762 23.4845L87.8931 17.5331L79.1173 12.446L75.7004 18.3974Z" fill="#7A63AB"/>
</svg>
