<svg width="105" height="112" viewBox="0 0 105 112" fill="none" xmlns="http://www.w3.org/2000/svg">
<path opacity="0.6667" d="M0.780872 81.0723C13.8081 88.6329 13.3227 88.4492 13.9262 88.4492C15.0938 88.4492 15.3037 87.5829 16.9305 84.7607L20.1709 86.8872C17.0748 91.2188 19.9741 95.7735 23.9623 96.1542C22.5717 100.131 25.8515 104.2 30.0627 103.61C30.3251 107.574 34.5363 110.173 38.2621 108.23C39.7839 112.562 45.5039 113.336 48.167 109.635L48.9936 108.48C53.1917 110.147 60.9319 112.654 63.5295 108.755C64.2642 107.666 64.579 106.406 64.4872 105.172C67.544 105.224 70.0891 102.914 70.2202 99.777C73.605 100.63 76.9635 98.2675 77.1996 94.6709C81.5289 96.0229 85.6745 91.9276 84.2052 87.5041L87.6424 84.0126C89.7808 87.7141 89.912 88.4492 91.0796 88.4492C91.7093 88.4492 91.2239 88.6067 104.238 81.0723C104.973 80.6523 105.209 79.7203 104.802 78.9853L85.8845 46.1176C85.4646 45.3825 84.5332 45.1331 83.7985 45.5532L71.401 52.7331C70.6663 53.1532 70.4302 54.0851 70.8368 54.8202L73.382 59.2437C71.8864 59.7162 70.2727 59.6899 68.7772 59.1518C56.1041 54.5051 60.0923 54.912 45.1759 57.1829C42.3553 57.616 39.9414 59.2699 38.4983 61.7376C38.2228 62.1051 38.6557 62.0133 36.1106 62.0133C34.7331 62.0133 34.3133 61.567 31.4008 59.5981L34.1427 54.8333C34.5625 54.0982 34.3133 53.1794 33.5786 52.7462C20.289 45.0544 20.9056 45.1856 20.0266 45.4219C19.6461 45.5269 19.305 45.7763 19.0951 46.1307L0.203628 78.9984C-0.216183 79.7335 0.0330904 80.6523 0.76776 81.0855L0.780872 81.0723ZM30.7711 54.6233L13.3752 84.8526L3.62771 79.2084L21.0236 48.9791L30.7711 54.6233ZM41.1352 63.3127C42.0929 61.6195 43.7459 60.4775 45.6613 60.1887C60.2629 57.9704 55.7105 57.6029 67.7539 62.0264C70.1022 62.8796 72.6604 62.8402 74.9431 61.9345L86.0812 81.2823L82.4735 84.9314C82.0012 84.5507 82.3423 84.787 56.5502 68.3269C54.7922 67.2112 52.6275 66.8962 50.6334 67.4868C46.9995 68.55 47.7341 68.2088 43.2605 73.4986C41.66 75.3887 39.0362 76.1107 36.701 75.31L33.4999 73.853C33.29 73.7348 40.7941 63.9428 41.1483 63.3127H41.1352ZM84.0084 48.9659L101.404 79.1822L91.6569 84.8264C91.3682 84.3276 88.6395 79.5891 74.2609 54.597L84.0084 48.9528V48.9659ZM30.9942 71.9103C29.7872 73.5248 30.4038 75.835 32.2142 76.6488C35.0086 77.9089 35.5071 78.1452 35.5989 78.1715C39.1411 79.4184 43.1424 78.3421 45.5564 75.4675C49.7938 70.4533 48.7312 71.2146 51.4731 70.414C52.6275 70.0727 53.887 70.2564 54.8972 70.8996L80.3088 87.1234C81.4896 87.9241 81.8044 89.5518 81.0173 90.7331C80.217 91.9276 78.6165 92.2295 77.4226 91.4288L61.7716 83.33C59.9743 82.3981 58.5705 85.1283 60.3678 86.0471L73.8149 93.0039C75.1924 95.406 72.398 98.005 70.1415 96.4692C69.9579 96.3511 70.1416 96.443 57.2192 90.7594C55.3694 89.9455 54.1494 92.7414 55.986 93.5552L66.8487 98.3462C68.1474 100.801 65.3268 103.177 63.1491 101.707C62.926 101.549 63.1491 101.667 53.0998 97.7424C51.9978 97.3093 50.8433 98.2412 51.0401 99.4226C50.1087 98.005 48.6656 97.073 46.842 96.9024C48.1015 93.2008 45.3333 89.3418 41.3582 89.4336C41.7912 84.3013 35.7433 81.3611 31.9781 84.787C30.8892 82.4768 28.4228 81.2298 25.9695 81.6367C24.0148 81.9649 22.9915 82.9756 21.9551 84.4326L18.4654 82.1355L29.9053 62.2627C32.3061 63.8772 33.5917 65.0454 36.0712 65.0716L31.0073 71.9234V71.8972L30.9942 71.9103ZM54.7397 107.233C53.6771 106.983 52.0634 106.393 50.8171 105.907C52.1421 104.043 52.2602 102.022 51.4993 100.236C51.8142 100.538 51.4993 100.355 60.9451 104.043C61.601 104.922 61.6404 106.104 61.0107 107.036C60.5777 107.692 58.6755 108.151 54.7528 107.219L54.7397 107.233ZM47.17 105.762C45.7925 107.705 45.3596 108.69 43.9821 108.913C41.5419 109.307 40.1906 106.406 41.437 104.857L44.2313 100.932C45.6875 98.95 48.9017 99.9345 48.9017 102.468C48.9017 103.741 48.1015 104.319 47.1569 105.749L47.17 105.762ZM37.7767 104.739C36.9371 105.907 35.3366 106.169 34.169 105.342C32.962 104.489 32.7521 102.862 33.5655 101.707L39.3904 93.5158C40.2169 92.3608 41.8174 92.072 42.9981 92.912C44.2051 93.7784 44.4019 95.4191 43.6016 96.5348L37.7767 104.712V104.739ZM27.1765 96.4955C34.0903 86.8215 33.9066 86.6115 35.3366 86.3753C36.9109 86.1259 38.3409 87.3466 38.3409 88.9348C38.3409 90.0506 38.1309 90.0506 34.2215 95.5373C31.2959 99.6326 31.086 100.328 29.6954 100.565C27.4782 100.932 25.799 98.4119 27.1765 96.4823V96.4955ZM22.388 89.0267C24.7757 85.6927 25.0643 84.8526 26.4681 84.6295C28.6458 84.262 30.3382 86.664 29.0132 88.6855L26.5861 92.072C25.7596 93.2271 24.1591 93.5158 22.9784 92.6627C21.8239 91.8488 21.5615 90.1818 22.388 89.0399V89.0267ZM30.1808 13.0005H29.3936C27.3733 13.0005 27.3733 9.9421 29.3936 9.9421H33.8016C34.6413 9.9421 35.3235 10.6247 35.3235 11.4647V15.8882C35.3235 17.9096 32.2667 17.9096 32.2667 15.8882V15.5207C24.6445 30.5369 35.5465 48.5984 52.5095 48.5984C57.7702 48.5984 62.8998 46.7476 66.9536 43.4005C68.5148 42.1141 70.4564 44.4637 68.8952 45.75C64.2904 49.5566 58.4787 51.6568 52.4964 51.6568C32.6996 51.6568 20.3677 30.0906 30.1676 13.0005H30.1808ZM36.1237 5.91239C52.7325 -7.85687 78.2623 3.91723 78.2623 25.8378C78.2623 30.3925 77.0684 34.7766 74.8382 38.662H75.6253C77.6457 38.662 77.6457 41.7203 75.6253 41.7203H71.2173C70.3777 41.7203 69.6955 41.0378 69.6955 40.1977V35.7742C69.6955 33.7528 72.7522 33.7528 72.7522 35.7742V36.1418C74.3659 32.9652 75.2055 29.4606 75.2055 25.8378C75.2055 6.47681 52.68 -3.84029 38.0653 8.26196C36.5042 9.54832 34.5626 7.19875 36.1237 5.91239ZM50.6466 42.3898H54.3724C56.2484 42.3898 57.7833 40.8671 57.7833 38.9901C57.7833 36.6537 57.3504 38.0844 59.9349 36.2468C61.273 37.0343 62.2045 37.7694 63.805 37.3362C65.5499 36.8637 65.891 35.7086 67.7539 32.5058C68.6853 30.8782 68.1212 28.7911 66.4944 27.8592L65.2088 27.111C65.5499 23.9082 64.461 25.0371 66.4944 23.8689C68.1212 22.9369 68.6984 20.8499 67.7539 19.2091L65.8778 15.9801C64.9595 14.3656 62.8998 13.7618 61.2205 14.72C59.2264 15.8751 60.6695 15.5338 57.7965 14.2343V12.7248C57.7965 10.8478 56.2747 9.32517 54.3855 9.32517H50.6597C48.7837 9.32517 47.2487 10.8478 47.2487 12.7248C47.2487 15.0613 47.6816 13.6305 45.0972 15.4682C43.759 14.6806 42.8145 13.9456 41.2271 14.3787C39.4822 14.8513 39.1411 16.0063 37.2782 19.2091C36.3467 20.8367 36.9109 22.9238 38.5245 23.8557L39.8233 24.6039C39.4822 27.8067 40.5711 26.6779 38.5376 27.8461C36.9109 28.778 36.3336 30.8651 37.2782 32.5058L39.1542 35.7348C40.0857 37.3625 42.1585 37.94 43.8115 36.9949C45.8056 35.8399 44.3625 36.1811 47.2356 37.4806V38.9901C47.2356 40.8671 48.7574 42.3898 50.6466 42.3898ZM44.4543 33.0834C42.0798 34.4616 42.211 34.4354 42.0273 34.3829C41.8174 34.3304 41.9486 34.4485 39.9283 30.9701C39.6921 30.55 40.0595 30.4844 42.2503 29.2112C43.7722 28.3317 42.3684 27.3473 42.985 24.0658C43.1031 23.4357 42.8145 22.7925 42.2503 22.4644L40.0595 21.1911C39.6265 20.9418 39.8364 20.8499 41.8043 17.4633C42.3291 16.5314 44.5855 19.826 46.2254 18.4347C48.6787 16.3214 50.3055 16.9383 50.3055 15.2188C50.3055 12.738 50.1743 12.331 50.6597 12.331C54.6479 12.331 54.7397 12.2129 54.7397 12.6723C54.7397 14.825 54.4249 16.177 55.763 16.6495C58.8066 17.7259 59.0953 19.4454 60.5908 18.5791C62.926 17.2139 62.8342 17.2402 63.0179 17.2796C63.2278 17.3321 63.0966 17.2139 65.1169 20.6924C65.3531 21.0993 64.9989 21.1649 62.7949 22.4513C61.273 23.3307 62.6768 24.3152 62.0602 27.5967C61.9421 28.2267 62.2307 28.8699 62.7949 29.1981C65.012 30.4975 65.34 30.5632 65.1301 30.9438C63.0704 34.501 63.2278 34.3041 63.0179 34.3697C62.8211 34.4222 62.9654 34.4616 60.5908 33.0703C59.1215 32.2039 58.8066 33.9234 55.763 34.9998C55.1464 35.2098 54.7397 35.7873 54.7397 36.4305V38.9639C54.7397 39.4233 54.5823 39.3051 50.6597 39.3051C50.1874 39.3051 50.3055 39.0164 50.3055 36.4174C50.3055 34.711 48.6918 35.3017 46.2254 33.2015C45.7269 32.7684 45.0185 32.7158 44.4675 33.044L44.4543 33.0834ZM52.5095 31.4689C55.6056 31.4689 58.1113 28.9487 58.1113 25.8378C58.1113 22.7269 55.5925 20.2198 52.5095 20.2198C49.4265 20.2198 46.9076 22.74 46.9076 25.8378C46.9076 28.9355 49.4265 31.4689 52.5095 31.4689ZM52.5095 23.2782C53.9132 23.2782 55.0677 24.4333 55.0677 25.8378C55.0677 27.2423 53.9263 28.4105 52.5095 28.4105C51.0926 28.4105 49.9512 27.2554 49.9512 25.8378C49.9512 24.4202 51.0926 23.2782 52.5095 23.2782Z" fill="#7A63AB"/>
</svg>
