<svg width="112" height="94" viewBox="0 0 112 94" fill="none" xmlns="http://www.w3.org/2000/svg">
<g opacity="0.6667" clip-path="url(#clip0_51_849)">
<path d="M59.8876 29.5858C59.8876 29.5858 59.7336 29.5858 59.6374 29.5858C59.5412 29.5858 59.4449 29.6242 59.3487 29.6434C59.2525 29.6818 59.137 29.7586 59.0986 29.893C59.0986 29.893 59.0601 29.9506 58.9638 29.989C58.8869 30.0274 58.7907 30.0658 58.7907 30.0658C58.7907 30.0658 58.6944 30.1042 58.5982 30.181C58.5405 30.2194 58.502 30.277 58.4635 30.3538C58.4443 30.4114 58.4635 30.469 58.502 30.5458C58.4635 30.5458 58.4058 30.5842 58.4058 30.5842L58.2133 30.6226L58.2518 30.8146C58.2518 30.8146 58.2518 30.8722 58.2518 30.9106C58.2518 30.949 58.2518 30.9874 58.2518 30.9874C58.1748 31.0642 57.9632 31.0834 57.7515 31.045C57.636 31.0066 57.5206 30.9874 57.4436 30.949C57.3666 30.9106 57.2896 30.8722 57.3089 30.8914V30.853L56.7893 30.6418L56.2312 30.277L55.5384 30.5842L55.4037 30.7186H54.7109L54.634 31.5826L55.7309 31.6978L55.7693 32.2161L55.5962 32.1585H55.4037L55.2882 31.9281L54.7109 31.8321V33.0417L55.0188 33.2913L55.269 33.5409L55.5769 33.5793L55.6539 34.0785L56.6931 34.1169L56.8085 34.3089L57.4436 34.3473L58.4635 35.384L58.425 35.5568L58.1748 35.7104V35.768C58.0786 35.768 57.9247 35.7296 57.9247 35.7296L57.6745 35.6528V36.3248L58.0786 36.3824L58.502 36.632L58.9638 35.8256C58.9638 35.8256 59.0793 35.768 59.0986 35.768C59.137 35.768 59.1563 35.768 59.1755 35.8064C59.214 35.8448 59.2525 35.9408 59.2718 36.0368L59.0793 35.9984V36.9392L59.3872 37.0352C59.3872 37.0352 59.4642 37.1696 59.4642 37.208C59.4642 37.2464 59.4642 37.2848 59.4257 37.3232C59.368 37.4 59.2718 37.4576 59.2718 37.4576L59.1948 37.496L59.0601 37.9759C59.0216 38.0911 58.9639 38.1103 58.8869 38.1295C58.8099 38.1295 58.7329 38.1295 58.7329 38.1295L58.5982 38.0911L58.4058 38.3791L58.0016 38.4751V38.8591L59.137 38.9935L59.1755 38.8207C59.214 38.7055 59.2525 38.6671 59.2718 38.6671C59.291 38.7055 59.3295 38.7823 59.3295 38.8399C59.3295 38.9167 59.3295 38.9743 59.3295 38.9743V39.1471L59.5604 39.1855L59.5219 39.6079L59.7721 39.7039V40.9326L60.1955 41.4126L60.3302 41.355C60.2532 41.4318 60.1955 41.5278 60.1762 41.6238C60.157 41.739 60.157 41.8542 60.157 41.9694C60.157 42.123 60.1762 42.1998 60.1955 42.2766L60.003 42.4686V42.7566L59.7721 42.9102V43.2174C59.6374 43.179 59.4834 43.1214 59.368 43.1406C59.214 43.1406 59.0986 43.2174 58.9831 43.275C58.7522 43.1598 58.502 43.1022 58.2711 43.1214C58.1364 43.1214 58.0209 43.1598 57.9054 43.1982C57.8477 43.2366 57.79 43.2558 57.7515 43.2942C57.713 43.3518 57.6553 43.4094 57.6553 43.5053V43.5629L57.6937 43.6205C57.6937 43.6205 57.6937 43.6205 57.6937 43.6589C57.636 43.6973 57.5398 43.7165 57.5398 43.7165H57.4628L57.0394 44.1965L57.0972 44.3117L57.1357 44.4269L57.0587 44.4653H56.8855V45.3293L56.4044 45.7709L56.4429 46.9036C56.4429 47.038 56.5199 47.1724 56.6161 47.23C56.7123 47.3068 56.8085 47.326 56.924 47.3452C56.924 47.3452 56.9432 47.3452 56.9625 47.3452L56.924 47.9596L56.77 48.1516L55.9618 48.9772H56.2889C56.2889 48.9772 56.1542 49.0156 56.1927 49.0156L56.135 49.3611C56.135 49.3611 56.135 49.3612 56.135 49.3228C56.135 49.246 56.1735 49.246 56.135 49.2652C56.0388 49.3036 55.7501 49.3419 55.3267 49.2076L55.0573 49.1308V49.5147L54.5377 49.5723L55.1151 50.2443L55.3075 50.2827L55.2305 50.7819C55.2305 50.7819 55.2305 50.7819 55.2305 50.8203C55.2305 50.8203 55.2113 50.8203 55.1728 50.8587C55.0958 50.8971 54.9419 50.8971 54.7879 50.8587C54.634 50.8587 54.4608 50.8011 54.3453 50.7627C54.2876 50.7627 54.2298 50.7243 54.1913 50.7051C54.1529 50.7051 54.1336 50.6667 54.1529 50.7051L53.8257 50.3787L53.768 51.3963L53.4986 51.4347L53.5563 52.0875L53.4986 53.009L53.9604 52.9322V53.1626L55.3267 53.2202L56.9047 51.5499L57.8862 51.3387V51.2619L58.0401 51.3771L58.1171 51.4539H58.2326C58.3865 51.4539 58.425 51.4923 58.4635 51.5115C58.502 51.5499 58.502 51.5499 58.502 51.5499L58.5405 51.6651L59.1755 51.7611C59.1755 51.7611 59.214 51.7611 59.2525 51.7995C59.2525 51.8379 59.214 51.8763 59.2333 51.9339C59.2718 52.1067 59.4065 52.2411 59.5219 52.2603C59.6374 52.2986 59.7336 52.2219 59.7336 52.2219L59.8491 52.1835L59.9068 51.7419L60.3109 51.8187C60.3109 51.8187 60.3494 51.9147 60.3879 51.9339C60.4841 51.9915 60.5803 51.9915 60.5803 51.9915H60.5996L60.8305 51.9531L60.946 52.2219H61.3116L61.4271 52.4714H62.3508L62.2161 52.6058L61.6773 52.6442L61.5233 52.8938L61.2346 52.9322H61.1962C61.1962 52.9322 61.023 53.009 60.869 53.1434C60.792 53.2202 60.7151 53.297 60.6766 53.4314C60.6573 53.5082 60.6766 53.6234 60.7343 53.7194C60.6766 53.7194 60.5996 53.7578 60.4841 53.7194C60.2147 53.681 59.8683 53.5466 59.8106 53.4506L59.5412 53.0282L59.4449 53.5274V53.5658C59.4449 53.5658 59.4449 53.5658 59.4257 53.5658C59.3487 53.5274 59.2525 53.4698 59.2525 53.4698L59.214 53.4314L58.8676 53.3354L58.8291 52.8554C58.7907 52.7018 58.6944 52.5674 58.579 52.4906C58.4635 52.4138 58.3288 52.3754 58.2133 52.3754C58.0786 52.3754 57.9632 52.3754 57.8477 52.433C57.7515 52.4714 57.6745 52.5866 57.6553 52.7018H57.5975C57.4821 52.7018 57.3089 52.7402 57.1357 52.7402C56.7893 52.7402 56.4236 52.7018 56.4236 52.7018H56.3659L55.8271 52.9706L55.3075 53.2778L55.269 53.4314L54.6532 53.5082L54.48 53.585L54.403 53.4122H53.8642L53.5178 53.8922C53.1137 53.9306 52.7288 54.0458 52.4401 54.1802C52.2862 54.257 52.1515 54.353 52.0553 54.449C51.9975 54.5066 51.959 54.545 51.9398 54.6026C51.9013 54.6602 51.8821 54.7562 51.9398 54.8522V54.8138C51.9398 54.8138 51.9013 54.8522 51.8628 54.8906C51.8051 54.9482 51.7281 54.9866 51.7281 54.9866L51.324 55.121L51.0931 55.4857L50.5542 55.6585L50.4773 56.5417L50.2271 56.7145V57.0409L49.9577 57.1177V57.2905L49.4766 57.3481L49.8422 58.2696L50.2656 58.4808H50.3041C50.4003 58.4808 50.4388 58.5192 50.458 58.5576C50.4773 58.596 50.4965 58.6344 50.4965 58.7112C50.4965 58.8456 50.458 58.98 50.458 58.98L50.381 59.2104L50.8236 59.268L50.9391 59.6136L51.2663 60.2664C51.3432 60.5352 51.5357 60.6888 51.7089 60.7272C51.8628 60.7656 51.9783 60.7272 52.0553 60.6888C52.0553 60.7272 52.0937 60.7464 52.113 60.804C52.1707 60.9192 52.2092 61.0344 52.2092 61.0344L52.2477 61.1687L53.8449 61.2071C53.9027 61.3031 53.9797 61.3991 54.1336 61.4375C54.2491 61.4759 54.403 61.4951 54.6147 61.4951C54.8264 61.4951 55.0958 61.5335 55.346 61.5335C55.5962 61.5335 55.8463 61.5335 56.0388 61.5335C56.135 61.5335 56.212 61.5335 56.2889 61.4951C56.3274 61.4951 56.3659 61.4951 56.3852 61.4567C56.4236 61.4567 56.4621 61.4567 56.5199 61.3607L56.5584 61.2839V61.2263C56.6161 61.1879 56.7315 61.1687 56.8663 61.1495C57.1357 61.1112 57.5013 61.2071 57.636 61.3031C58.0786 61.6295 58.5212 61.5335 58.7137 61.4759L59.214 62.0903L59.6374 63.0311L60.4071 63.2615L60.7728 63.3575L60.946 64.0678L61.3116 64.1062L61.4078 64.4902L61.4656 64.5286C61.4656 64.5286 61.5425 64.6054 61.5425 64.6822C61.5425 64.7398 61.5425 64.8358 61.4848 64.9318C61.4078 65.1046 61.2924 65.2582 61.2924 65.2582L61.2539 65.3158V66.391L61.5618 66.5446L61.5233 66.8326L62.1583 67.4853L62.7549 67.5237L64.2559 69.1173L65.3913 69.4629L65.603 70.1732L66.1419 70.0964L66.3728 69.9045L67.335 69.8661L67.8161 69.4053L68.3357 69.3285L73.012 65.3734L72.4731 65.047V64.3366C72.8195 64.0486 73.012 63.6839 73.0312 63.3383C73.0312 63.1463 72.9927 62.9543 72.8772 62.8007C72.7618 62.6471 72.5886 62.5511 72.3577 62.5127C72.2614 62.5127 72.2422 62.4743 72.2422 62.4743C72.2422 62.4743 72.2422 62.4743 72.2422 62.4359C72.2614 62.3783 72.3962 62.2439 72.5501 62.2055H72.5693L72.9927 62.0135V61.6103L73.9164 60.7656V59.94L71.8188 58.212H71.7803C71.6264 58.1545 71.5687 58.0585 71.5494 57.8857C71.5302 57.7129 71.5494 57.4633 71.6456 57.2329C71.7226 57.0025 71.8573 56.7721 71.992 56.5993C72.1267 56.4457 72.2614 56.3881 72.2999 56.3881C72.4539 56.3881 72.6078 56.2729 72.6656 56.1577C72.7233 56.0425 72.7425 55.9081 72.7618 55.7545C72.781 55.4473 72.7618 55.0634 72.7233 54.6794C72.6463 53.9114 72.4731 53.1626 72.4731 53.1626V53.0666L72.1652 52.913L72.2614 51.8571H71.5109L70.7027 52.8938L70.5487 53.4314V52.9706L70.8181 52.721L70.7797 52.2411L71.0491 52.0107V51.6651L71.28 51.5883L71.3185 50.7243L71.5302 50.6859V48.4972L70.6065 47.614L70.5487 47.9404C70.5102 47.9404 70.4333 47.9788 70.3755 47.9788H70.1446C70.1446 47.9788 70.2986 47.8444 70.4525 47.6908C70.568 47.5756 70.7027 47.4412 70.7989 47.3068C70.8951 47.1724 70.9913 47.038 71.0106 46.8844C71.0106 46.7308 71.1068 46.4045 71.2608 46.1357C71.3377 46.0013 71.4147 45.8861 71.4917 45.8093C71.5687 45.7325 71.6456 45.6941 71.7226 45.6941H72.8388C73.1082 45.5789 73.2236 45.3293 73.2429 45.1373C73.2429 45.0605 73.2429 45.0605 73.2429 45.0029L73.4161 44.9645L73.4931 45.2141H73.6278C73.6278 45.2141 73.8202 45.2525 74.0126 45.2525C74.1089 45.2525 74.2243 45.2525 74.3205 45.2525C74.359 45.2525 74.4168 45.2525 74.4553 45.2141C74.513 45.2141 74.5707 45.1757 74.6092 45.0989C74.6477 45.0221 74.7054 44.9453 74.7632 44.9069C74.7824 44.9069 74.8016 44.8685 74.8016 44.8685C74.9364 44.9453 75.0518 44.9261 75.148 44.9069C75.2635 44.8685 75.3597 44.8301 75.4559 44.7917C75.6484 44.6957 75.8216 44.5997 75.8216 44.5997L75.8986 44.5421V44.4845H75.9563C75.9563 44.4845 76.1487 44.4461 76.2642 44.4461C76.4951 44.4461 76.7453 44.4845 76.7453 44.4845H76.9185L77.1302 43.8701L77.0724 43.7933C77.0724 43.7933 76.8992 43.5629 76.7068 43.3326C76.6106 43.2174 76.5144 43.1022 76.4374 43.0062C76.3989 42.9486 76.3604 42.9102 76.3219 42.891C76.3027 42.891 76.2834 42.8526 76.2449 42.8334C76.2257 42.8334 76.1872 42.795 76.1102 42.795C76.168 42.795 76.1487 42.795 76.1295 42.795C76.1295 42.795 76.0718 42.7566 76.0525 42.7374C75.9755 42.6798 75.8793 42.6222 75.7831 42.5646C75.6869 42.507 75.5907 42.4494 75.4752 42.411C75.4175 42.411 75.3597 42.3726 75.2827 42.3726C75.2827 42.3726 75.2828 42.3726 75.2635 42.3726C75.0711 42.2958 74.9748 42.1422 74.9171 41.9502C74.8594 41.739 74.8594 41.547 74.8594 41.547V41.5086L74.6092 40.9134C74.6092 40.7982 74.5515 40.7022 74.4937 40.587C74.436 40.4719 74.3398 40.3375 74.2628 40.2223C74.1666 40.1071 74.0896 40.0111 73.9934 39.9535C73.9549 39.9151 73.8972 39.8767 73.8394 39.8575C73.8394 39.8575 73.8202 39.8575 73.801 39.8575C73.57 39.6847 73.57 39.5503 73.6085 39.4351C73.6085 39.3775 73.6663 39.3199 73.7047 39.2623C73.7432 39.2239 73.801 39.2047 73.7625 39.2047C73.8972 39.1663 73.9357 39.1087 74.0126 39.0511C74.0896 38.9743 74.1474 38.8975 74.2051 38.8207C74.3206 38.6671 74.436 38.5327 74.436 38.5327V38.4943L74.6285 37.9951L75.3212 37.7839L75.4559 36.92L75.2058 36.8816C75.2058 36.8816 75.225 36.8432 75.2635 36.8048C75.3212 36.728 75.379 36.632 75.4367 36.5744C75.4944 36.5168 75.5329 36.5168 75.4752 36.5168H76.3219C76.5144 36.5168 76.6876 36.5168 76.8415 36.4784C76.9185 36.4784 76.9762 36.4784 77.034 36.44C77.0917 36.44 77.1302 36.44 77.2071 36.3824C77.3034 36.3056 77.3419 36.248 77.3803 36.152C77.4188 36.0752 77.4766 35.9792 77.5151 35.8832C77.5535 35.7872 77.592 35.6912 77.6113 35.5952C77.6113 35.5376 77.6305 35.4992 77.6498 35.4416C77.6498 35.4416 77.669 35.4416 77.7075 35.4032C77.7845 35.3648 77.8807 35.3648 77.9769 35.3264C77.9769 35.3264 78.1116 35.2496 78.1501 35.2112C78.2078 35.1536 78.2656 35.1152 78.3041 35.0576C78.4003 34.9424 78.4965 34.8272 78.5542 34.712C78.5542 34.712 78.5927 34.5777 78.5927 34.5201C78.5927 34.4625 78.5927 34.4049 78.5927 34.3473C78.5735 34.2129 78.535 34.0785 78.4965 33.9441C78.458 33.8097 78.4003 33.6945 78.3425 33.5985L78.535 33.4065H78.0346C78.0346 33.4065 77.9192 33.4449 77.8807 33.4833C77.8807 33.4833 77.746 33.5793 77.6498 33.6177C77.5535 33.6561 77.4766 33.6753 77.4766 33.6753L77.3611 33.7137L77.2264 34.2129L76.9762 34.4241L77.0147 34.5585C77.0147 34.5585 77.0147 34.5585 77.0147 34.6161C77.0147 34.6737 77.0147 34.7504 77.0147 34.8848C77.0147 35.0192 76.726 35.1728 76.726 35.1728H76.6876L76.5529 35.3456C76.5529 35.3456 76.3604 35.3456 76.1487 35.3456C76.014 35.3456 75.8986 35.3456 75.8023 35.3456C75.7446 35.3456 75.7061 35.3456 75.6869 35.3456H75.6676C75.5137 35.2688 75.7254 35.1344 75.6676 35.1344C75.7446 35.1344 75.8601 35.1344 75.9178 35.0576C75.9755 35 75.9948 34.9232 75.9948 34.8656C75.9948 34.7504 75.9948 34.6545 75.9755 34.5585C75.9755 34.4817 75.9563 34.4817 75.937 34.4049L76.1872 34.3665V34.1937C76.1872 34.1937 76.2065 34.0209 76.2257 33.8481C76.2257 33.7713 76.245 33.6753 76.2642 33.6177C76.2642 33.6177 76.2642 33.6177 76.2642 33.5793C76.2642 33.5793 76.3027 33.5793 76.3219 33.5409C76.3797 33.4833 76.3989 33.4065 76.3989 33.3681C76.3989 33.2721 76.3604 33.2337 76.3412 33.1761C76.2834 33.0801 76.1872 32.9649 76.091 32.8881C76.091 32.8881 75.9563 32.7345 75.8601 32.6193C75.8023 32.5617 75.7639 32.5041 75.6869 32.4465C75.6099 32.3889 75.5137 32.3313 75.379 32.3697H75.225C75.225 32.3697 75.0518 32.3697 74.9748 32.3697H74.513L74.3783 32.6385L73.8587 32.7345V32.9265C73.8587 32.9265 73.8972 33.0033 73.8972 33.0801C73.8972 33.1185 73.8972 33.1569 73.8972 33.1761C73.8972 33.1761 73.57 33.4449 73.4353 33.5025C73.4353 33.4641 73.4353 33.4257 73.4931 33.2529L73.6278 32.9841V32.3889L72.7618 32.3313C72.7618 32.3313 72.7041 32.2929 72.6271 32.2737C72.5886 32.2737 72.5693 32.2353 72.5501 32.2161C72.5501 32.2161 72.5501 32.2161 72.5501 32.2545C72.5501 32.0625 72.5116 31.8513 72.5116 31.8513V31.7937L71.5687 30.7762L70.6257 30.661L70.5487 30.469L69.8559 30.373C69.4711 30.181 69.0862 30.1618 68.7975 30.2962C68.4896 30.4498 68.3164 30.7954 68.3742 31.1602C68.4319 31.4674 68.5089 31.6786 68.5281 31.7745C68.5281 31.7745 68.5281 31.7745 68.5089 31.7745C68.3549 31.7745 68.3164 31.717 68.2779 31.6786C68.2395 31.6402 68.2394 31.6018 68.2394 31.6018V31.5058L68.124 31.4674C68.124 31.4674 68.0278 31.429 67.9123 31.4098H67.7006C67.7006 31.4098 67.5274 31.5634 67.5274 31.6786C67.5274 31.717 67.5082 31.8321 67.4889 31.9665C67.4889 32.1009 67.4697 32.2545 67.5659 32.3889C67.5082 32.3313 67.4312 32.2545 67.3735 32.1585C67.335 32.1009 67.3157 32.0625 67.2965 32.0241C67.335 31.9473 67.2965 31.8897 67.2965 31.8513C67.2965 31.7937 67.258 31.7554 67.2388 31.6978C67.2003 31.6018 67.1425 31.5058 67.1233 31.4098C67.0848 31.3138 67.0848 31.237 67.1041 31.2178C67.1041 31.1794 67.1041 31.1794 67.2195 31.1602C67.412 31.1218 67.5467 31.0642 67.6236 30.9298C67.7006 30.7954 67.6429 30.6418 67.6236 30.565C67.6236 30.5266 67.6236 30.5266 67.5852 30.5074L67.7583 30.4306H68.1047L68.7013 29.9314L67.7391 29.7778L67.412 29.7394L66.7384 29.701L66.6807 29.7394C66.3535 29.9698 66.1611 30.2002 66.0456 30.3922C65.9494 30.5458 65.9109 30.661 65.9109 30.6994C65.8532 30.7954 65.834 30.7954 65.7955 30.7954C65.757 30.7954 65.68 30.757 65.603 30.6994C65.526 30.6418 65.4683 30.5458 65.4491 30.469C65.4298 30.3922 65.4491 30.373 65.4491 30.3538C65.5068 30.2962 65.5645 30.2194 65.526 30.085C65.526 30.0274 65.4683 29.9698 65.4298 29.9314C65.3913 29.893 65.3529 29.893 65.3144 29.8738C65.1797 29.8354 65.045 29.8738 64.891 29.8738C64.737 29.9122 64.5831 29.9506 64.4291 29.989C64.2944 30.0466 64.179 30.0658 64.0827 30.1618C64.0827 30.1618 63.8903 30.2194 63.7364 30.2194H63.4477L63.2745 30.181L63.2168 30.3346C63.2168 30.3346 63.1783 30.3346 63.159 30.2962C63.1206 30.2578 63.0821 30.2386 63.0821 30.2002C63.1783 30.0658 63.2168 29.9506 63.236 29.8546C63.2553 29.7586 63.2553 29.6818 63.2553 29.6818V29.509L62.7549 29.413L62.4663 29.9314C62.2353 29.9698 62.0236 30.0082 61.9082 30.1234C61.812 30.2386 61.8505 30.373 61.8697 30.5074C61.8312 30.5074 61.812 30.5074 61.7735 30.5458C61.6965 30.6034 61.6195 30.6802 61.6003 30.7954C61.6003 30.7954 61.5618 30.949 61.5618 31.0258C61.5618 31.1026 61.6003 31.1986 61.658 31.2562C61.735 31.333 61.812 31.3522 61.8889 31.3906C61.8889 31.3906 61.8889 31.3906 61.8889 31.429C61.8697 31.525 61.8889 31.6402 61.9659 31.717C61.9659 31.717 62.0814 31.7745 62.1583 31.7937C62.0814 31.8321 62.0236 31.8513 61.9467 31.8705C61.7927 31.8705 61.6773 31.8321 61.6773 31.8321L61.4656 31.7745V32.0049C61.4656 32.0049 61.4463 32.0049 61.4078 32.0433C61.3693 32.0817 61.2924 32.0817 61.2154 32.0817C61.1384 32.0817 61.0422 32.0817 60.9845 32.0817H60.9267C60.8498 31.9857 60.7151 31.8129 60.5611 31.621C60.4071 31.429 60.2532 31.237 60.2532 31.237L60.1955 31.1602L59.5412 31.1218C59.5412 31.1218 59.5412 31.1218 59.5989 31.0834C59.6951 31.045 59.9453 30.949 60.0608 30.661C60.234 30.181 60.3109 29.4514 60.3109 29.4514V29.2402H60.1185C60.1185 29.2402 60.08 29.2402 60.003 29.2402V29.5282L59.8876 29.5858ZM64.8718 46.2509C64.8333 46.4237 64.814 46.558 64.8333 46.6732C64.8525 46.7884 64.9102 46.8844 64.9102 46.8844L65.0449 47.0572L65.2181 46.9036C65.4298 46.7116 65.5453 46.7308 65.6608 46.7884C65.7185 46.8268 65.757 46.8652 65.7762 46.8844C65.7762 46.8844 65.7762 46.8844 65.7762 46.9228C65.7762 46.9228 65.7762 46.8844 65.7762 46.8652C65.7762 46.8652 65.7762 46.9036 65.7762 46.9228C65.7762 47.0188 65.8147 47.0956 65.8724 47.1532C65.9302 47.2108 66.0072 47.2492 66.0649 47.2684C66.1996 47.3068 66.3535 47.3068 66.4882 47.23C66.4882 47.23 66.5267 47.2684 66.546 47.3068C66.6037 47.4028 66.6037 47.5372 66.6037 47.5756C66.6037 47.5756 66.6037 47.5756 66.5652 47.5756C66.5267 47.5756 66.4498 47.614 66.3728 47.614C66.2958 47.614 66.2188 47.5756 66.1803 47.5756H66.1611C66.1611 47.5756 66.1226 47.4412 66.0841 47.3836C66.0264 47.326 65.9302 47.2684 65.834 47.2684C65.6608 47.3068 65.603 47.3836 65.5453 47.4796C65.5453 47.4796 65.5068 47.518 65.4106 47.518C65.3336 47.518 65.2759 47.518 65.2181 47.4796C65.2181 47.4412 65.2181 47.4412 65.2181 47.4028C65.2181 47.326 65.1797 47.2684 65.1219 47.2108C65.0065 47.0956 64.8525 47.0956 64.7755 47.0956C64.6986 47.0956 64.6793 47.0956 64.6216 47.0572C64.6216 47.0572 64.6216 47.0572 64.6216 47.0188C64.6216 46.9612 64.6216 46.8652 64.6216 46.7692C64.6216 46.6732 64.6408 46.5772 64.6601 46.4812C64.6601 46.4236 64.6601 46.3661 64.6601 46.3085C64.6986 46.2701 64.7563 46.2509 64.814 46.2509H64.8718ZM62.7934 48.6316L64.102 48.7468H64.1405C64.2944 48.8428 64.3137 48.9196 64.3137 48.958C64.3137 49.0156 64.2367 49.0924 64.2175 49.0924C64.179 49.0924 64.0827 49.1308 64.0058 49.15H63.7364L63.6594 49.3228L62.5817 49.3995L62.5047 49.8219C62.3508 49.8603 62.2161 49.8987 62.1006 49.9947L62.0236 49.15L62.8319 49.1884L62.7934 48.9388C62.7742 48.766 62.7934 48.6892 62.7934 48.5932V48.6316ZM59.0601 50.8395C59.0601 50.8395 59.1563 50.8395 59.2333 50.8395H59.6566C59.6951 50.8971 59.7721 50.9931 59.8876 51.1851C59.9068 51.2235 59.926 51.2619 59.9453 51.3003L59.8683 51.2235L59.3872 50.9931L59.0216 50.8395H59.0601ZM61.3693 50.9931L61.9082 51.0891V51.2043L61.8312 51.3387L61.3693 51.2235C61.3693 51.1083 61.3693 51.0315 61.3693 50.9931ZM66.7769 53.2778C66.7769 53.2778 66.9886 53.2394 67.1233 53.4122C67.2388 53.5466 67.3927 53.585 67.5274 53.585C67.6814 53.585 67.8353 53.585 67.9893 53.585C68.2395 53.585 68.3742 53.5274 68.4511 53.5274L68.6821 53.7386L69.1824 53.9306L70.3755 53.969C70.3755 53.969 70.3563 54.0266 70.2986 54.0458C70.0869 54.1418 69.779 54.1994 69.4711 54.2186C69.1632 54.257 68.8553 54.2186 68.6051 54.2186C68.4896 54.2186 68.3934 54.1802 68.3164 54.1802H68.2394C68.2394 54.1802 68.1047 54.0842 68.0278 54.0458C67.9315 53.9882 67.8161 53.9306 67.7006 53.873C67.4889 53.777 67.2965 53.7002 67.2773 53.681C67.258 53.681 67.1233 53.5466 66.9501 53.4506C66.8539 53.393 66.7769 53.3354 66.6614 53.297H66.7577L66.7769 53.2778Z" fill="#7A63AB"/>
<path d="M26.5167 3.43717C22.5524 4.97312 18.261 6.56666 15.6438 10.6753C14.1043 13.0944 13.8926 15.9167 12.7188 18.3167L13.0459 18.5471C15.2205 16.5119 17.7799 14.9952 19.6658 12.4993C21.9174 9.54256 23.8418 6.27867 26.7284 3.76356L26.5167 3.41797V3.43717Z" fill="#7A63AB"/>
<path d="M85.4812 3.4375L85.2695 3.78309C88.1369 6.2982 90.0805 9.56209 92.3128 12.5188C94.1987 15.0147 96.7582 16.5315 98.9328 18.5666L99.2599 18.3362C98.1053 15.9363 97.8743 13.114 96.3348 10.6949C93.7176 6.58619 89.4262 4.99265 85.462 3.4567L85.4812 3.4375Z" fill="#7A63AB"/>
<path d="M25.7684 4.16602C23.2282 6.62353 21.3808 9.58023 19.3602 12.2681C17.6859 14.4569 15.4536 15.9352 13.3945 17.7592C14.3375 15.4552 14.6646 12.9977 15.9925 10.905C18.321 7.21871 22.0928 5.62517 25.7684 4.18521V4.16602Z" fill="#7A63AB"/>
<path d="M86.25 4.16568C89.9256 5.60563 93.6974 7.19918 96.0259 10.8855C97.3538 12.9782 97.7002 15.4549 98.6239 17.7396C96.5648 15.9349 94.3325 14.4565 92.6583 12.2486C90.6184 9.5607 88.7902 6.604 86.25 4.14648V4.16568Z" fill="#7A63AB"/>
<path d="M15.8557 8.79264C13.7773 9.33022 12.0646 10.655 10.5251 12.3445C7.2921 15.9156 7.58076 21.157 8.00413 25.7649C8.13883 27.1664 8.06186 28.3568 7.90791 29.8159L8.29279 29.9311C9.23574 28.0112 10.7753 26.168 12.6034 24.7857C16.7217 21.6754 21.3017 17.6243 21.3595 12.2485L20.9746 12.1717C20.3203 14.0149 18.9732 15.3204 17.4337 16.5108C15.8942 17.7011 14.1622 18.7379 12.7574 20.0435C11.6797 21.061 10.8715 22.2514 10.1979 23.4801C10.5251 22.501 10.8907 21.541 11.1794 20.5426C11.7952 18.5075 12.0261 16.2996 12.6034 14.2836C13.1808 12.2677 14.0852 10.4438 15.9904 9.13823L15.8172 8.77344L15.8557 8.79264Z" fill="#7A63AB"/>
<path d="M96.1438 8.79297L95.9706 9.15776C97.8758 10.4633 98.7803 12.2872 99.3576 14.3032C99.9349 16.3191 100.185 18.527 100.782 20.5622C101.09 21.5605 101.436 22.5397 101.763 23.4997C101.109 22.2709 100.281 21.0806 99.2036 20.063C97.7988 18.7382 96.0668 17.7015 94.5273 16.5303C92.9878 15.3399 91.6407 14.0344 90.9864 12.1913L90.6016 12.2681C90.6593 17.6439 95.2394 21.6949 99.3576 24.8052C101.186 26.1684 102.725 28.0307 103.668 29.9506L104.053 29.8355C103.899 28.3763 103.822 27.1859 103.957 25.7844C104.38 21.1765 104.669 15.9351 101.436 12.364C99.9156 10.6745 98.1837 9.34975 96.1053 8.81217L96.1438 8.79297Z" fill="#7A63AB"/>
<path d="M14.953 9.54297C13.5482 10.8293 12.7399 12.4421 12.2588 14.1892C11.6622 16.2435 11.4121 18.4515 10.8348 20.429C10.4114 21.8882 9.75709 23.2513 9.4107 24.8065V24.9216L9.79558 25.248L9.8918 24.9984C10.5269 23.3089 11.643 21.6962 13.0671 20.333C14.4141 19.0658 16.1461 18.0099 17.7049 16.8195C18.9557 15.8596 20.0911 14.7844 20.8609 13.402C20.2066 17.9907 16.1846 21.6002 12.3935 24.4609C10.777 25.6896 9.39146 27.264 8.41001 28.9535C8.50623 27.8783 8.54472 26.8416 8.4485 25.728C8.02513 21.1202 7.77496 16.0323 10.8732 12.6149C12.1049 11.2517 13.4519 10.1765 14.9915 9.54297H14.953Z" fill="#7A63AB"/>
<path d="M97.0491 9.54297C98.5694 10.1765 99.9357 11.2517 101.167 12.6149C104.266 16.0323 103.996 21.1394 103.592 25.728C103.496 26.8608 103.534 27.8783 103.631 28.9535C102.649 27.264 101.264 25.6704 99.647 24.4609C95.856 21.6002 91.834 17.9907 91.1797 13.402C91.9494 14.7844 93.0848 15.8596 94.3357 16.8195C95.8945 18.0291 97.6264 19.0658 98.9735 20.333C100.417 21.677 101.514 23.3089 102.149 24.9984L102.245 25.248L102.649 24.9216V24.8065C102.264 23.2705 101.629 21.8882 101.187 20.429C100.59 18.4515 100.34 16.2435 99.7625 14.1892C99.2622 12.4613 98.4732 10.8485 97.0683 9.54297H97.0491Z" fill="#7A63AB"/>
<path d="M7.58127 15.9746C7.46581 15.9746 7.36959 15.9746 7.31186 16.0322C7.25413 16.0706 7.21564 16.0898 7.21564 16.0898L7.17715 16.1282V16.1666C4.40602 19.6609 2.55859 23.52 2.55859 28.243C2.55859 31.1613 3.40533 33.638 4.29055 36.0379C5.17578 38.4378 6.09949 40.7802 6.31117 43.4489H6.71529C7.56203 37.9003 12.2768 33.9068 14.7593 28.8766C15.7215 26.9182 16.3373 24.7103 16.6067 22.56L16.2218 22.464C15.8754 23.3472 15.3366 24.1727 14.6053 24.8639C11.4108 27.8782 7.60052 30.8733 6.85 35.27V35.3084L7.11942 31.6989C7.31186 29.0686 6.71529 26.3231 6.46512 23.6927C6.21495 21.0432 6.27268 18.5281 7.73523 16.301L7.90842 16.0514L7.60052 15.9938L7.58127 15.9746Z" fill="#7A63AB"/>
<path d="M104.416 15.9735L104.108 16.0311L104.282 16.2807C105.744 18.5078 105.821 21.023 105.552 23.6725C105.302 26.322 104.705 29.0483 104.897 31.6786L105.167 35.2881V35.2497C104.436 30.8722 100.606 27.8579 97.4115 24.8436C96.6803 24.1524 96.1414 23.3269 95.795 22.4437L95.4102 22.5397C95.6796 24.69 96.2761 26.898 97.2576 28.8563C99.7401 33.8865 104.474 37.88 105.302 43.4286H105.706C105.917 40.7599 106.841 38.4176 107.726 36.0176C108.612 33.6177 109.458 31.141 109.458 28.2227C109.458 23.4997 107.611 19.6406 104.859 16.1463V16.1079L104.782 16.0695C104.782 16.0695 104.743 16.0311 104.686 16.0119C104.628 15.9735 104.532 15.9351 104.416 15.9543V15.9735Z" fill="#7A63AB"/>
<path d="M6.583 17.6641C5.85173 19.584 5.83249 21.6383 6.04417 23.7119C6.31358 26.3806 6.8909 29.1069 6.69846 31.6604L6.29434 37.0938L6.37132 37.1514C6.37132 37.1514 6.37132 37.1898 6.4098 37.2282C6.42905 37.2666 6.48678 37.3242 6.56376 37.3434C6.64073 37.3818 6.71771 37.3434 6.79468 37.3434L6.87166 37.305V37.209C7.08334 36.5946 7.14108 35.961 7.2373 35.3467C7.94932 31.1612 11.6634 28.2045 14.8579 25.171C15.262 24.787 15.6084 24.3454 15.9163 23.9039C15.5892 25.5742 15.1273 27.2253 14.3961 28.7229C12.106 33.3307 7.81462 37.1706 6.56376 42.3736C6.21736 40.0697 5.44761 37.9962 4.67785 35.9034C3.79262 33.5035 2.98438 31.0844 2.98438 28.2429C2.98438 24.1726 4.42767 20.7936 6.60224 17.6833L6.583 17.6641Z" fill="#7A63AB"/>
<path d="M105.42 17.6641C107.613 20.7744 109.037 24.1534 109.037 28.2237C109.037 31.0652 108.21 33.4843 107.344 35.8842C106.574 37.9578 105.804 40.0505 105.458 42.3544C104.207 37.1706 99.8965 33.3115 97.6257 28.7037C96.8752 27.2061 96.4134 25.5358 96.1055 23.8847C96.3941 24.3454 96.7405 24.7678 97.1639 25.1518C100.378 28.1853 104.092 31.142 104.785 35.3275C104.881 35.9226 104.938 36.5562 105.131 37.1898V37.2858L105.246 37.3242C105.304 37.3626 105.4 37.3626 105.477 37.3242C105.554 37.2858 105.593 37.2474 105.631 37.209C105.65 37.1706 105.67 37.1514 105.67 37.1514L105.747 37.0938L105.343 31.6604C105.15 29.1069 105.727 26.3806 105.997 23.7119C106.209 21.6383 106.189 19.584 105.458 17.6641H105.42Z" fill="#7A63AB"/>
<path d="M1.5381 30.4505C0.883809 31.8137 0.633637 33.3496 0.287245 34.7896C-0.424783 38.6102 0.287245 42.6421 1.32642 46.1172C2.63501 50.533 6.90718 53.6433 9.04326 57.56V57.5984L9.79377 58.1744L9.7168 57.6752C9.40889 55.5249 9.25494 53.2401 9.85151 51.2242C10.7752 47.9411 11.9491 44.7348 12.5649 41.2981C13.046 38.6486 13.6041 35.6535 13.2769 33.0424L12.8921 33.004C12.5457 34.3864 12.18 35.7303 11.4295 36.8823C8.98553 40.6646 6.48381 45.0612 6.98415 49.8034C6.73398 48.6899 6.5223 47.5379 6.23364 46.4052C5.52161 43.6981 4.13604 41.2597 3.09687 38.7062C2.05769 36.1719 1.34566 33.5608 1.92298 30.5273L1.5381 30.4121V30.4505Z" fill="#7A63AB"/>
<path d="M110.462 30.4492L110.077 30.5644C110.673 33.5979 109.961 36.209 108.903 38.7433C107.864 41.2777 106.478 43.7352 105.766 46.4423C105.478 47.575 105.266 48.7078 105.016 49.8406C105.535 45.0983 103.034 40.7017 100.57 36.9194C99.8391 35.7866 99.4734 34.4235 99.1078 33.0411L98.7229 33.0795C98.3958 35.6906 98.9538 38.6857 99.4349 41.3353C100.051 44.7719 101.225 47.9782 102.148 51.2613C102.745 53.2772 102.591 55.562 102.283 57.7123L102.206 58.2115L102.937 57.6355V57.5971C105.073 53.6804 109.365 50.5701 110.673 46.1543C111.713 42.6792 112.425 38.6473 111.713 34.8267C111.385 33.3675 111.116 31.8508 110.462 30.4876V30.4492Z" fill="#7A63AB"/>
<path d="M1.34707 32.2161C1.23161 34.6353 1.84741 36.824 2.69415 38.9167C3.75257 41.4894 5.11889 43.9277 5.81168 46.558C6.33126 48.5548 6.50446 50.6859 7.35119 52.6058V52.6634L7.44741 52.7018C7.56288 52.7594 7.69759 52.7402 7.75532 52.6634C7.81305 52.6058 7.85154 52.5674 7.89003 52.529L7.94776 52.433L7.90927 52.337C5.9079 46.75 8.83298 41.5854 11.7388 37.112C12.2969 36.248 12.624 35.288 12.9127 34.3089C12.9704 36.536 12.5471 38.9935 12.1429 41.2398C11.5271 44.6381 10.3725 47.8252 9.42954 51.1275C8.85222 53.0666 8.98693 55.1786 9.2371 57.1945C7.02405 53.2586 2.92508 50.1867 1.67422 46.0013C0.654287 42.5454 -0.0384963 38.5711 0.654287 34.8656C0.865971 33.9633 1.07765 33.0609 1.32783 32.1777L1.34707 32.2161Z" fill="#7A63AB"/>
<path d="M110.653 32.2168C110.903 33.1 111.115 33.9831 111.327 34.9047C112.019 38.6294 111.327 42.6036 110.307 46.0403C109.075 50.2066 104.976 53.2977 102.763 57.2143C103.032 55.1984 103.148 53.0673 102.57 51.1474C101.647 47.8451 100.473 44.658 99.8571 41.2597C99.453 39.0134 99.0296 36.575 99.0873 34.3287C99.376 35.3079 99.7031 36.2679 100.261 37.1318C103.148 41.6053 106.073 46.7699 104.091 52.3569L104.052 52.4529L104.11 52.5489C104.11 52.5489 104.168 52.6257 104.245 52.6833C104.302 52.7409 104.456 52.7601 104.553 52.7217L104.61 52.6833V52.6257C105.476 50.7058 105.65 48.5554 106.169 46.5779C106.862 43.9476 108.228 41.5093 109.287 38.9366C110.153 36.8438 110.749 34.6551 110.634 32.236L110.653 32.2168Z" fill="#7A63AB"/>
<path d="M12.568 45.8105L12.1832 45.9257C12.7027 49.3624 11.3172 52.4343 10.99 55.8326C10.7206 58.6165 11.2017 61.3236 12.2986 63.6467C12.3948 63.8579 12.5295 64.0499 12.645 64.2419C12.1447 63.5891 11.6636 62.898 11.2402 62.1876C9.54673 59.4613 6.96803 57.2342 4.75497 54.8918C2.54192 52.5495 0.732981 50.0728 0.482809 46.8857H0.0979292C-0.132999 49.804 0.0979292 52.9143 1.09862 55.5446C2.46494 59.1733 5.08212 61.9572 8.10343 64.3187C11.221 66.757 14.9158 68.6578 17.7062 70.7889L18.2835 71.2305L18.0141 70.5585C17.456 69.1378 16.5515 67.8514 16.2051 66.4114C14.5694 59.7877 15.4931 52.0503 12.5873 45.8105H12.568Z" fill="#7A63AB"/>
<path d="M99.4345 45.8105C96.5287 52.0503 97.4716 59.7877 95.8166 66.4114C95.4702 67.8322 94.5658 69.1186 94.0077 70.5585L93.7383 71.2305L94.3156 70.7889C97.106 68.677 100.801 66.7762 103.918 64.3187C106.92 61.9572 109.557 59.1733 110.923 55.5446C111.905 52.9143 112.155 49.8232 111.924 46.8857H111.52C111.289 50.092 109.461 52.5495 107.248 54.8918C105.035 57.2342 102.456 59.4613 100.762 62.1876C100.32 62.898 99.8579 63.5891 99.3383 64.2419C99.4537 64.0499 99.5885 63.8579 99.6847 63.6467C100.762 61.3044 101.263 58.5973 100.993 55.8326C100.666 52.4535 99.2806 49.3816 99.8001 45.9257L99.4153 45.8105H99.4345Z" fill="#7A63AB"/>
<path d="M12.6255 47.0762C14.8963 52.9896 14.2227 60.1701 15.7815 66.4867C16.1086 67.7731 16.7629 68.8866 17.3018 70.0386C14.5499 68.0611 11.2014 66.2371 8.31481 63.9908C5.33199 61.6485 2.77254 58.9222 1.44471 55.3895C0.674947 53.3352 0.367044 50.9544 0.405532 48.5929C1.05983 51.108 2.61859 53.22 4.44677 55.1591C6.67907 57.5398 9.23852 59.7477 10.8743 62.3973C11.5863 63.5492 12.3176 64.7396 13.376 65.6995L13.8571 66.1219L13.7224 65.5075C13.5492 64.7396 12.9526 64.106 12.664 63.4724C11.6055 61.2069 11.1437 58.5766 11.3938 55.8695C11.6825 52.9704 12.7409 50.1673 12.6255 47.0954V47.0762Z" fill="#7A63AB"/>
<path d="M99.3758 47.0758C99.2603 50.1477 100.319 52.9316 100.607 55.8499C100.877 58.557 100.396 61.1874 99.3373 63.4529C99.0486 64.0865 98.4521 64.72 98.2789 65.488L98.1442 66.1024L98.6253 65.68C99.6837 64.72 100.415 63.5297 101.127 62.3777C102.763 59.7282 105.322 57.5203 107.554 55.1396C109.383 53.2004 110.941 51.0885 111.596 48.5734C111.634 50.9349 111.326 53.3156 110.557 55.37C109.229 58.9026 106.669 61.6289 103.686 63.9713C100.819 66.2368 97.4514 68.0415 94.7188 70.0191C95.2576 68.8863 95.9119 67.7535 96.239 66.4672C97.817 60.1314 97.1242 52.9508 99.395 47.0566L99.3758 47.0758Z" fill="#7A63AB"/>
<path d="M16.145 56.9453L15.8179 57.1757C17.011 59.5372 17.3574 62.2827 17.7808 65.009C18.2234 67.7353 18.743 70.4617 20.3402 72.7848C21.0907 73.8599 22.0529 74.8775 23.0344 75.8183C22.3416 75.3767 21.6488 74.8775 20.9753 74.3207C18.2041 72.0168 14.7402 70.7304 11.6034 69.0985C8.46667 67.4666 5.61856 65.5082 4.00207 61.8411L3.61719 61.9563C4.52165 67.4858 8.89004 72.3432 13.6048 75.4151C18.1272 78.3718 23.8426 78.0454 28.7498 79.6389L28.9423 79.2934C24.4392 75.6839 23.7656 70.2121 21.7065 65.3546C20.4364 62.3211 18.3581 59.5948 16.145 56.9645V56.9453Z" fill="#7A63AB"/>
<path d="M95.8558 56.945C93.662 59.5753 91.5837 62.2824 90.2943 65.3351C88.2352 70.2117 87.5617 75.6643 83.0586 79.2738L83.251 79.6194C88.139 78.0067 93.8737 78.3331 98.3768 75.3956C103.092 72.3237 107.46 67.4662 108.364 61.9368L107.98 61.8216C106.363 65.4695 103.534 67.447 100.378 69.079C97.2414 70.7109 93.7775 71.9973 91.0064 74.3012C90.3328 74.858 89.64 75.3572 88.9473 75.7987C89.9095 74.858 90.8909 73.8596 91.6222 72.7652C93.2194 70.4421 93.739 67.7158 94.1816 64.9895C94.6242 62.2632 94.9514 59.5177 96.1445 57.1562L95.8174 56.9258L95.8558 56.945Z" fill="#7A63AB"/>
<path d="M16.7213 58.3652C18.5494 60.6308 20.2429 62.9539 21.3206 65.4882C23.245 70.0768 24.0147 75.3375 28.1137 79.0621C23.3027 77.6606 17.9914 77.7758 13.8154 75.0687C9.56249 72.2848 5.63672 68.0225 4.32812 63.2035C6.04084 66.1794 8.60029 67.9841 11.3907 69.4433C14.5659 71.0944 17.9914 72.3808 20.6855 74.6271C21.7247 75.4911 22.7831 76.2974 23.957 76.8542L24.0917 76.9118L24.3996 76.6046L24.2457 76.4702C22.9755 75.3375 21.6285 73.9743 20.6663 72.5728C19.1268 70.3456 18.6072 67.6961 18.1838 64.9698C17.8374 62.7427 17.5103 60.4964 16.7405 58.3844L16.7213 58.3652Z" fill="#7A63AB"/>
<path d="M95.2758 58.3669C94.5061 60.4596 94.1789 62.7251 93.8325 64.9522C93.4092 67.6785 92.8703 70.3281 91.3501 72.5552C90.3879 73.9567 89.0215 75.3007 87.7707 76.4526L87.6167 76.587L87.9246 76.8942L88.0593 76.8366C89.2332 76.299 90.2724 75.4735 91.3308 74.6095C94.0442 72.3632 97.4504 71.0768 100.626 69.4257C103.416 67.9665 105.975 66.1426 107.707 63.1859C106.399 68.0049 102.473 72.2672 98.2202 75.0511C94.0635 77.7774 88.7329 77.6622 83.9219 79.0446C88.0208 75.3391 88.7906 70.0593 90.715 65.4706C91.7927 62.9171 93.4861 60.6132 95.3143 58.3477L95.2758 58.3669Z" fill="#7A63AB"/>
<path d="M23.998 68.6562L23.7285 68.9442C25.1911 70.9218 26.1533 73.3601 27.4426 75.6064C28.7127 77.8335 30.3292 79.8495 33.1196 80.9054C33.7162 81.1358 34.332 81.2702 34.9093 81.4238C34.3512 81.347 33.7932 81.2126 33.1966 81.0974C29.6557 80.3487 25.7492 80.4446 22.0736 80.0031C18.4172 79.5615 15.011 78.5631 12.4131 75.6064L12.0859 75.8368L12.1052 75.8752C14.145 79.8303 18.2633 82.9214 22.266 84.2269C28.4818 86.2621 34.9093 83.9965 40.644 82.5758C41.433 82.3838 42.4337 82.4606 43.2804 82.1534L43.954 81.9038L43.2612 81.7694C40.0667 81.1166 37.0261 80.1567 34.5822 77.9295C31.022 74.6848 27.866 71.2098 24.0172 68.6755L23.998 68.6562Z" fill="#7A63AB"/>
<path d="M88.0032 68.6559C84.1544 71.2094 80.9984 74.6653 77.4382 77.91C74.9942 80.1371 71.9537 81.0971 68.7592 81.7499L68.0664 81.8843L68.74 82.1339C69.5674 82.441 70.5874 82.3643 71.3764 82.5562C77.1111 83.977 83.5386 86.2617 89.7544 84.2074C93.7379 82.9018 97.8753 79.8107 99.9152 75.8557L99.9345 75.8173L99.6073 75.5869C97.0094 78.5244 93.6224 79.5227 89.9468 79.9835C86.2905 80.4251 82.3839 80.3291 78.8238 81.0779C78.2272 81.1931 77.6692 81.3275 77.1111 81.4043C77.6884 81.2507 78.3042 81.0971 78.9008 80.8859C81.6912 79.8491 83.2884 77.814 84.5778 75.5869C85.8479 73.3598 86.8101 70.9022 88.2918 68.9247L88.0224 68.6367L88.0032 68.6559Z" fill="#7A63AB"/>
<path d="M24.5741 69.597C27.9996 72.0545 30.9631 75.2032 34.2924 78.2175C36.5631 80.291 39.3535 81.2702 42.2209 81.923C41.682 81.9806 41.0855 82.0382 40.5466 82.1726C34.7735 83.5933 28.4422 85.8204 22.3803 83.8429C18.9357 82.7101 15.4525 80.1566 13.3164 76.9503C15.8181 79.1007 18.8202 80.003 22.0147 80.387C25.7095 80.8478 29.6161 80.7326 33.0992 81.4814C34.0614 81.6926 35.0044 82.019 36.1205 81.8462L36.6594 81.7694L36.1975 81.4814C35.293 80.9054 34.1769 80.867 33.2532 80.5022C30.5783 79.5039 29.0387 77.5839 27.7879 75.376C26.691 73.4753 25.7865 71.4209 24.5934 69.5586L24.5741 69.597Z" fill="#7A63AB"/>
<path d="M87.4244 69.5977C86.2312 71.4408 85.3075 73.5143 84.2299 75.4151C82.979 77.6038 81.4395 79.5237 78.7646 80.5413C77.8409 80.8869 76.7247 80.9445 75.8202 81.5204L75.3584 81.8084L75.8972 81.8852C77.0134 82.058 77.9563 81.7124 78.9185 81.5204C82.4017 80.7717 86.289 80.8869 90.0031 80.4261C93.1976 80.0421 96.1996 79.1397 98.7013 76.9894C96.546 80.1957 93.0629 82.7492 89.6374 83.882C83.5948 85.8787 77.2443 83.6516 71.4711 82.2116C70.913 82.0772 70.3357 82.0196 69.7969 81.962C72.6835 81.3093 75.4546 80.3301 77.7254 78.2566C81.0354 75.2423 83.9989 72.0744 87.4436 69.6361L87.4244 69.5977Z" fill="#7A63AB"/>
<path d="M50.2058 82C52.1495 82 54.0739 82.3264 55.9405 82.8832H56.056C57.9227 82.3264 59.8471 82 61.7907 82C67.1213 82 71.913 84.5727 76.6663 86.5503C80.5921 88.163 85.6148 88.0286 89.3866 86.0511C87.6739 87.779 85.5955 88.9502 83.4402 89.7757C78.7062 91.6573 73.1447 90.2173 69.0842 87.6254C66.1591 85.7631 63.5996 83.0368 59.9818 83.0368C59.3467 83.0368 58.7117 83.1136 58.0766 83.248L57.4223 83.3824L58.0381 83.6319C62.8684 85.5711 67.2752 88.9502 70.7392 92.2333C70.1618 92.8476 69.4691 93.4428 68.7763 94.0188C64.9082 90.0253 60.5206 85.7247 56.0945 83.9199L56.0175 83.8815L55.9405 83.9199C51.5144 85.7247 47.1268 90.0253 43.2587 94.0188C42.566 93.462 41.8732 92.8668 41.2959 92.2333C44.7598 88.9502 49.1666 85.5519 53.9969 83.6319L54.6127 83.3824L53.9584 83.248C53.3234 83.1136 52.6883 83.0368 52.0532 83.0368C48.4354 83.0368 45.8759 85.7631 42.9508 87.6254C38.8904 90.2173 33.3288 91.6573 28.5948 89.7757C26.4395 88.9502 24.3612 87.779 22.6484 86.0511C26.4395 88.0286 31.4622 88.1822 35.3687 86.5503C40.122 84.5919 44.9137 82 50.2443 82H50.2058Z" fill="#7A63AB"/>
<path d="M56.0005 0C61.0424 0 65.9304 0.959967 70.472 2.74551L70.2603 3.26389C65.9304 1.55515 61.2733 0.614379 56.4623 0.556781H56.2507V8.04453H56.4431C60.2919 8.10212 64.0252 8.8701 67.4891 10.2525L67.2967 10.7516C63.8905 9.38848 60.2149 8.65891 56.4431 8.60131H56.2314V15.4363H56.4239C59.3297 15.4939 62.1393 16.0699 64.7757 17.1258L64.5641 17.6442C62.0046 16.6266 59.2527 16.0507 56.4239 15.9931H56.2122V23.4808H56.4046C58.2905 23.5384 60.0995 23.9416 61.8122 24.6136V24.652L61.6197 25.1319C59.984 24.4792 58.2328 24.0952 56.4239 24.0376H56.2122V30.8725H56.4046C58.3098 30.9685 60.0802 31.7173 61.485 32.9653L61.6197 33.0997L66.4692 28.2614L66.3153 28.127C65.0259 26.9175 63.5634 25.9767 61.9661 25.2855L62.1586 24.7864C63.8135 25.4967 65.3531 26.4951 66.7001 27.7623L66.8349 27.8966L72.1462 22.5976L71.9922 22.4632C69.8946 20.4665 67.5084 18.9114 64.8912 17.817L65.0837 17.3178C67.7586 18.4314 70.2218 20.0441 72.3771 22.0984L72.5118 22.2328L77.3421 17.4138L77.1881 17.2794C74.3593 14.5531 71.107 12.4412 67.5661 10.982L67.7586 10.4828C71.3572 11.9612 74.6864 14.1307 77.573 16.8954L77.7077 17.0298L83.019 11.7308L82.8651 11.5964C79.2472 8.06373 75.052 5.35662 70.4912 3.49428L70.7029 2.9759C75.4754 4.91503 79.8438 7.79493 83.5964 11.5388C87.3297 15.2635 90.2163 19.6217 92.1599 24.364L91.6403 24.5752C89.7737 20.0441 87.0603 15.8587 83.5386 12.2684L83.4039 12.1148L78.0926 17.4138L78.2273 17.5482C81.0754 20.4665 83.25 23.8456 84.751 27.5319L84.2507 27.7431C82.7881 24.1336 80.652 20.8121 77.8617 17.9322L77.7269 17.7786L72.8967 22.5976L73.0314 22.732C75.206 24.9783 76.861 27.5895 77.9771 30.4118L77.6115 30.5654L77.4575 30.623C76.3606 27.8583 74.7441 25.3239 72.6273 23.116L72.4926 22.9624L67.1812 28.2614L67.316 28.3958C68.74 29.9126 69.8369 31.6597 70.5489 33.5605L70.0486 33.7717C69.3558 31.9477 68.3166 30.239 66.9311 28.7798L66.7964 28.6262L61.9469 33.4645L62.0816 33.5989C63.3517 35.0196 64.083 36.7859 64.1792 38.6675V38.8595H71.03V38.6483C70.9723 37.0931 70.6837 35.5764 70.1833 34.1364L70.6836 33.9252C71.2225 35.442 71.5304 37.0355 71.5689 38.6675V38.8595H79.0933V38.6483C79.0355 35.9796 78.516 33.3877 77.5922 30.9493L78.0926 30.7382C79.0355 33.2341 79.5744 35.9028 79.6321 38.6483V38.8403H86.483V38.6291C86.4252 34.9428 85.694 31.3525 84.3854 28.0118L84.8857 27.8007C86.2135 31.2181 86.9641 34.866 87.0218 38.6291V38.8211H94.5462V38.6099C94.4885 33.8101 93.5455 29.1638 91.8135 24.8248L92.3331 24.6136C94.1421 29.1638 95.1235 34.0596 95.1235 39.1091C95.1235 45.0609 93.7957 50.7823 91.294 55.9853L90.7936 55.7165C93.1414 50.8207 94.5077 45.3489 94.5654 39.5891V39.3779H87.0603V39.5699C86.9833 43.9665 86.0019 48.2288 84.2122 52.1262L83.7118 51.8574C85.4438 48.1136 86.4445 43.9665 86.5214 39.5891V39.3779H79.6898V39.5699C79.6321 42.7185 78.9393 45.752 77.7077 48.5743L77.2074 48.3056C78.3812 45.6176 79.0548 42.6801 79.1318 39.5891V39.3779H71.6266V39.5699C71.5689 41.3554 71.2032 43.0641 70.5874 44.6961L70.1063 44.4273C70.6837 42.9105 71.03 41.2978 71.0878 39.5891V39.3779H64.2369V39.5699C64.1215 41.4706 63.3902 43.2369 62.1201 44.6385L61.9854 44.7729L66.8156 49.5919L66.9503 49.4383C68.2204 48.0944 69.2211 46.5008 69.9331 44.7729L70.4335 45.0417C69.7022 46.7888 68.6823 48.4207 67.3544 49.8415L67.2197 49.9759L72.5311 55.2749L72.6658 55.1213C74.4747 53.2398 75.9565 51.0511 77.0534 48.6511L77.5538 48.9199C76.4568 51.3199 74.9558 53.5662 73.0699 55.5245L72.9352 55.6589L77.7654 60.4779L77.9001 60.3243C80.2094 57.9436 82.1146 55.1981 83.5579 52.1838L84.0582 52.4526C82.6149 55.4669 80.6905 58.27 78.285 60.7275L78.1503 60.8619L83.4424 66.1417L83.5771 65.9882C86.4252 63.0699 88.8115 59.71 90.6204 56.0237L91.14 56.2925C89.2541 60.1132 86.7524 63.6458 83.6541 66.7369C80.7098 69.6744 77.3613 72.0743 73.7627 73.9175L73.4933 73.3991C76.9572 71.6328 80.1325 69.348 82.9036 66.6601L83.0575 66.5257L77.7654 61.2459L77.6307 61.3803C75.3599 63.569 72.8197 65.3738 70.0871 66.7561L69.8177 66.2569C72.5503 64.8554 75.052 63.0891 77.2266 60.9771L77.3806 60.8427L72.5503 56.0237L72.4156 56.1581C70.7029 57.8092 68.7785 59.1532 66.7001 60.19L66.45 59.6908C68.4898 58.654 70.3757 57.3292 72.0115 55.7549L72.1654 55.6205L66.8541 50.3215L66.7194 50.4559C65.6032 51.5118 64.3524 52.3566 63.0053 53.0478L62.7551 52.5486C64.0637 51.8958 65.2568 51.0703 66.3153 50.0719L66.4692 49.9375L61.639 45.1185L61.5043 45.2529C60.0802 46.52 58.3098 47.2496 56.4239 47.3648H56.2314V54.1998H56.4431C58.5792 54.123 60.5806 53.6046 62.4087 52.7406L62.6589 53.2398C60.7153 54.1614 58.6177 54.6797 56.4239 54.7565H56.2314V62.2443H56.4431C59.907 62.1675 63.1785 61.3227 66.1228 59.902L66.373 60.4011C63.3132 61.8987 59.9455 62.7243 56.4431 62.8011H56.2507V69.636H56.4623C61.1386 69.5592 65.5648 68.4265 69.529 66.4681L69.7792 66.9673C65.6802 68.9833 61.1579 70.116 56.4623 70.1736H56.2699V77.6806H56.4816C62.505 77.6038 68.1819 76.1446 73.2431 73.6103L73.5125 74.1287C68.1434 76.7974 62.1971 78.2373 56.0197 78.2373C49.8424 78.2373 44.4541 76.951 39.2967 74.5127L39.5661 74.0327C44.5118 76.3558 49.9194 77.623 55.5386 77.6806H55.7503V70.1928H55.5579C51.2472 70.116 47.1098 69.1752 43.2802 67.4857L43.5496 67.0057C47.283 68.6761 51.3434 69.5784 55.5386 69.6552H55.7503V62.8395H55.5579C52.5558 62.7819 49.65 62.1483 46.9366 61.0347L47.206 60.5547C49.8232 61.6299 52.6328 62.2251 55.5386 62.2827H55.7503V54.7949H55.5579C53.9606 54.7373 52.4211 54.4493 50.9393 53.9502L51.2087 53.4702C52.5943 53.931 54.0376 54.1998 55.5386 54.2574H55.7503V47.4224H55.5579C53.6527 47.3264 51.8823 46.5776 50.4775 45.3105L50.3428 45.1761L45.4933 50.0143L45.6472 50.1487C47.1675 51.5694 48.938 52.6254 50.8431 53.3166L50.5737 53.7966C48.63 53.067 46.8211 51.9726 45.2623 50.5135L45.1276 50.3791L39.8163 55.6781L39.9703 55.8125C42.0101 57.7708 44.3386 59.2876 46.8596 60.3627L46.5902 60.8427C44.0307 59.7292 41.6445 58.174 39.5661 56.1965L39.4314 56.0621L34.6012 60.8811L34.7551 61.0155C37.2761 63.4538 40.1434 65.393 43.2225 66.8137L42.9531 67.2937C39.8163 65.8346 36.9105 63.8762 34.351 61.3995L34.2163 61.2651L28.905 66.5641L29.0589 66.6985C32.0995 69.6552 35.5441 72.0551 39.2582 73.8407L38.9888 74.3207C35.0823 72.4391 31.4837 69.9048 28.3276 66.7561C23.6514 62.0907 20.3221 56.4461 18.4747 50.3023L19.0136 50.1679C20.784 56.0813 23.94 61.4955 28.3661 66.0266L28.5008 66.1801L33.8122 60.8811L33.6775 60.7467C30.2136 57.1949 27.7311 52.9518 26.2878 48.3632L26.8266 48.2288C28.2314 52.7406 30.6754 56.8877 34.0623 60.3627L34.1971 60.5163L39.0273 55.6973L38.8926 55.5629C36.3909 52.971 34.5627 49.8991 33.4658 46.5776L34.0046 46.4432C35.0823 49.6687 36.8527 52.6446 39.2775 55.1597L39.4122 55.3133L44.7235 50.0143L44.5888 49.8799C43.1263 48.344 42.0486 46.5392 41.3173 44.6001L41.8562 44.4657C42.5489 46.3088 43.5881 48.0176 44.9737 49.4767L45.1084 49.6303L49.9579 44.7921L49.8232 44.6577C48.5531 43.2369 47.8218 41.4706 47.7256 39.5891V39.3971H40.8555V39.6082C40.9132 41.1634 41.2019 42.6609 41.7022 44.1009L41.1634 44.2353C40.663 42.7569 40.3551 41.2018 40.3166 39.5891V39.3971H32.7922V39.6082C32.85 41.8354 33.2156 44.0049 33.8699 46.0784L33.3311 46.2128C32.6768 44.1009 32.2919 41.8738 32.2534 39.6082V39.4163H25.4026V39.6274C25.441 42.469 25.9029 45.2337 26.6919 47.9024L26.1531 48.0368C25.3448 45.3297 24.9022 42.5266 24.8637 39.6274V39.4355H17.3393V39.6466C17.3778 43.1601 17.9166 46.5968 18.8596 49.8799L18.3208 50.0143C17.3201 46.5392 16.7812 42.8913 16.7812 39.1667C16.7812 33.0421 18.2053 27.2439 20.7455 22.0792L21.2074 22.3288C18.7634 27.3783 17.4163 32.9269 17.3393 38.6867V38.8979H24.8445V38.7059C24.9215 34.1364 25.9799 29.8166 27.8273 25.9191L28.2892 26.1687C26.461 30.047 25.4603 34.29 25.3833 38.6867V38.8979H32.2149V38.7059C32.2919 35.4036 33.0424 32.2741 34.3318 29.4326L34.7936 29.6822C33.5235 32.4853 32.8307 35.538 32.7538 38.6867V38.8979H40.2589V38.7059C40.3166 36.7859 40.74 34.962 41.4328 33.2725L41.9139 33.5221C41.2596 35.154 40.8747 36.8819 40.817 38.6867V38.8979H47.6678V38.7059C47.7833 36.7667 48.5531 35.0004 49.7847 33.6373L49.9194 33.5029L45.0699 28.6646L44.9352 28.8182C43.7228 30.1046 42.7799 31.5829 42.0871 33.1573L41.606 32.9077C42.3373 31.2565 43.3379 29.7398 44.5696 28.4342L44.7043 28.2998L39.3929 23.0008L39.2582 23.1544C37.4878 24.9975 36.0637 27.0903 35.0053 29.3558L34.5434 29.1062C35.6596 26.7639 37.1221 24.6136 38.8926 22.7704L39.0273 22.636L34.1778 17.7978L34.0431 17.9514C31.7531 20.3129 29.9056 22.9816 28.5008 25.8615L28.0197 25.6119C29.4823 22.636 31.3874 19.9289 33.6775 17.5866L33.8122 17.4522L28.4816 12.134L28.3469 12.2876C25.4988 15.2059 23.1703 18.5082 21.3998 22.06L20.9187 21.8105C24.6905 14.3035 30.8101 8.15972 38.296 4.33905L38.5462 4.81904C35.0823 6.56618 31.8685 8.8509 29.0204 11.6348L28.8665 11.7692L34.1971 17.0874L34.3318 16.953C36.6026 14.7643 39.2005 12.9212 42.0486 11.5004L42.2988 11.9612C39.5469 13.3435 36.9874 15.1291 34.7166 17.3178L34.5627 17.4522L39.4122 22.2904L39.5469 22.156C41.2788 20.4857 43.2802 19.1033 45.4548 18.009L45.705 18.489C43.6074 19.5257 41.6637 20.8697 39.9318 22.5208L39.7778 22.6552L45.0892 27.9542L45.2239 27.8199C46.3785 26.7255 47.7256 25.8231 49.1689 25.1127L49.419 25.5927C48.0335 26.2647 46.7441 27.1095 45.6087 28.1846L45.4548 28.319L50.3043 33.1573L50.439 33.0229C51.074 32.4469 51.8053 31.9861 52.5943 31.6405L52.8445 32.1205C51.9785 32.5045 51.1702 33.0229 50.4775 33.7141C49.0149 35.1732 48.1874 37.1315 48.1874 39.2051C48.1874 41.2786 48.9957 43.2369 50.4775 44.6961C51.94 46.1552 53.9029 46.9808 55.9812 46.9808C60.2727 46.9808 63.7751 43.4865 63.7751 39.2051C63.7751 37.1315 62.9668 35.1732 61.485 33.7141C60.0225 32.2549 58.0596 31.4293 55.9812 31.4293C55.019 31.4293 54.0761 31.6213 53.2101 31.9477L52.9599 31.4677C53.7682 31.1605 54.6149 30.9493 55.5194 30.8917H55.7118V24.0568H55.5001C53.4988 24.1144 51.5551 24.5944 49.7654 25.3815L49.5153 24.9016C51.3627 24.076 53.3641 23.5576 55.5001 23.5H55.6926V16.0123H55.4809C52.1517 16.0891 48.9379 16.857 46.0129 18.2394L45.8397 17.8938L45.7627 17.7594C48.7263 16.3578 52.017 15.5131 55.5001 15.4555H55.6926V8.62051H55.4809C50.9393 8.6973 46.5517 9.75327 42.5682 11.6924L42.318 11.2316C46.3015 9.29248 50.7661 8.15972 55.4809 8.08292H55.6733V0.57598H55.4617C49.5922 0.652778 43.9345 2.03513 38.8156 4.56944L38.5654 4.08946C43.8768 1.47835 49.7654 0 56.0005 0Z" fill="#7A63AB"/>
<path d="M58.0195 30.0469V30.3349H58.2697V30.0469H58.0195Z" fill="#7A63AB"/>
<path d="M57.6758 29.6621H58.0029V29.9117H57.6758V29.6621Z" fill="#7A63AB"/>
<path d="M57.3668 29.6239L57.4053 29.3743L57.1166 29.3359L57.0781 29.5663L57.3668 29.6047V29.6239Z" fill="#7A63AB"/>
<path d="M56.8671 29.4911L56.5977 29.4527L56.6361 29.2031L56.9056 29.2415L56.8671 29.4911Z" fill="#7A63AB"/>
<path d="M54.5586 29.1836H54.8857V29.4332H54.5586V29.1836Z" fill="#7A63AB"/>
<path d="M54.1522 29.7021L54.1907 29.4525L53.9213 29.4141L53.8828 29.6637L54.1522 29.7021Z" fill="#7A63AB"/>
<path d="M53.9014 30.0279L53.5742 29.9511L53.632 29.7207L53.9591 29.7975L53.9014 30.0279Z" fill="#7A63AB"/>
<path d="M53.3236 30.3153L53.2852 30.0657L53.5161 30.0273L53.5546 30.2769L53.3236 30.3153Z" fill="#7A63AB"/>
<path d="M21.9776 54.6406H21.7852V55.0438H22.1123V55.5622H22.3432L22.3047 54.967L21.9776 54.8518V54.6406Z" fill="#7A63AB"/>
<path d="M24.0543 57.2139L23.7656 56.4844L24.3622 56.7724L24.5546 57.3291L24.824 57.5403L25.1127 58.1355L24.9588 58.4235L24.5161 58.0203L24.189 57.5787L24.035 57.2139H24.0543Z" fill="#7A63AB"/>
<path d="M33.1592 68.8687L32.832 68.3887L33.3131 68.4655L33.8327 68.9071L34.0252 69.4254L33.7365 69.579L33.5825 69.3294L33.1784 69.2142L33.1399 68.8495L33.1592 68.8687Z" fill="#7A63AB"/>
<path d="M52.8645 30.931L52.9029 31.3534H54.2693V31.4878L54.0191 31.6606L54.1346 32.8509H54.5194L54.4809 33.1581C54.4809 33.1581 54.3847 33.2157 54.327 33.3117C54.3077 33.3501 54.2885 33.3885 54.2693 33.4461C54.2693 33.5037 54.2693 33.5997 54.3077 33.6573C54.3462 33.7341 54.4425 33.7149 54.5002 33.7341L54.5387 33.8493L53.8844 34.4445L53.2878 34.4829L53.1531 34.7324L52.7297 34.9244H51.9985L51.96 35.3852L51.7098 35.462V35.9036C51.7098 35.9036 51.5174 36.0956 51.3442 36.1916C51.2864 36.23 51.2287 36.2876 51.1902 36.3644C51.171 36.4412 51.171 36.4988 51.1902 36.5564C51.2095 36.6716 51.2864 36.7484 51.3827 36.8252C51.4789 36.8828 51.6328 36.9212 51.7675 36.8252C51.8445 36.7868 51.8638 36.6908 51.9023 36.614H52.1524V36.8828C52.1524 36.8828 52.0562 36.8828 51.9792 36.8828C51.883 36.9212 51.7675 36.9596 51.6906 37.0748C51.6328 37.1516 51.6328 37.2476 51.6328 37.3436C51.5751 37.382 51.5174 37.4012 51.4404 37.5164C51.3249 37.6699 51.2864 37.9387 51.4404 38.2267C51.4404 38.2267 51.3634 38.3995 51.2672 38.5147C51.2095 38.5915 51.1517 38.6491 51.1325 38.6491C51.1325 38.6491 51.1325 38.6491 51.171 38.6491C51.2095 38.6491 51.248 38.6875 51.2672 38.6875C51.171 38.5723 50.9978 38.5531 50.8823 38.5723C50.7669 38.6107 50.6706 38.6683 50.5937 38.7643C50.5167 38.8603 50.4782 39.0139 50.5167 39.1483C50.5359 39.2251 50.6322 39.2827 50.7091 39.3403L50.6129 39.5515C50.4397 39.4363 50.2473 39.3787 50.0356 39.3979C49.7662 39.4363 49.5352 39.6283 49.4005 39.9163H49.3428L49.2658 39.6667V39.4939L49.5545 39.3595L49.4775 38.8987L49.0541 38.5723L48.804 38.3611H48.7847C48.7847 38.3611 48.6115 38.2843 48.4383 38.3611C48.2844 38.4379 48.1882 38.6299 48.1497 38.8987L47.6108 39.0523H46.9565L46.8218 39.8203L46.7256 39.9739L46.206 40.1275L46.283 40.953H47.3414L47.4184 40.665L47.8418 40.5499L47.9572 40.0315H48.3229L48.3614 40.4539L48.9002 40.5115L49.1311 40.7226C49.1311 40.7226 49.2273 40.9722 49.3236 41.1834C49.1888 41.145 49.0349 41.241 48.9579 41.3562C48.8617 41.529 48.9579 41.721 49.0926 41.8746C49.0926 41.9322 49.0926 42.105 49.0157 42.3354C48.9772 42.4698 48.9387 42.6042 48.8809 42.681C48.8232 42.777 48.7655 42.8154 48.7077 42.8346C48.7077 42.8346 48.4191 42.9114 48.1882 43.1994C47.9957 43.4298 47.8803 43.8521 47.9187 44.4281C47.861 44.4281 47.784 44.4281 47.7263 44.5049C47.6878 44.5433 47.7071 44.6009 47.6878 44.6393L47.2067 44.7353L47.2452 44.9273C47.2452 44.9273 47.3029 45.1769 47.2452 45.4073C47.226 45.5225 47.1875 45.6377 47.1105 45.7145C47.0913 45.7529 47.0143 45.7529 46.9758 45.7721L46.9373 45.0425L46.6102 44.7737L46.7641 44.5433C46.8796 44.2937 46.8796 44.0633 46.7641 43.9097C46.6486 43.7561 46.4754 43.6985 46.3023 43.6793C46.1483 43.6793 45.9751 43.7177 45.8789 43.8713C45.8212 43.9481 45.8212 44.0825 45.8789 44.1785C45.8981 44.2361 45.9559 44.2553 45.9751 44.2937V44.3321C45.9366 44.2937 45.9174 44.2745 45.8789 44.2553H45.6864C45.6864 44.2553 45.6672 44.1785 45.6287 44.1401C45.5517 44.0057 45.3593 43.8521 45.1476 43.6793C45.2246 43.6025 45.3401 43.5449 45.3401 43.4489C45.3401 43.257 45.2053 43.1226 45.0706 43.0458C44.859 42.9498 44.5895 42.9882 44.3394 43.1226C44.3201 43.0458 44.3394 43.0458 44.2816 42.9306C44.1854 42.7002 44.0122 42.4122 43.7428 42.2394L43.6851 42.201H43.6273C43.6273 42.201 43.2232 42.2394 42.8383 42.2394C42.6459 42.2394 42.4535 42.2394 42.2995 42.2394C42.2418 42.2394 42.2225 42.2394 42.184 42.2394C42.1648 42.201 42.1263 42.1434 42.0878 42.0858C42.0108 41.9898 41.9146 41.8554 41.7992 41.7402C41.6837 41.625 41.5682 41.529 41.4143 41.4714C41.2603 41.4138 41.0679 41.3946 40.9139 41.529L40.0672 42.201C40.0672 42.1626 40.0672 42.105 40.0672 42.0666C40.0287 41.9514 39.9132 41.817 39.7401 41.7978H39.7593C39.5861 41.7594 39.5476 41.6826 39.5476 41.5674C39.5476 41.4714 39.6053 41.337 39.7593 41.241L40.3751 40.7034L40.1634 39.3211C40.1634 39.3211 40.1442 39.1483 40.1442 38.9371C40.1442 38.7259 40.2019 38.4763 40.2019 38.4571C40.2019 38.4571 40.4136 38.1691 40.5098 37.8043C40.5483 37.6124 40.5868 37.4012 40.5098 37.1708C40.4521 36.9404 40.2981 36.7292 40.0672 36.5564L40.0095 36.518L39.3937 36.5564C39.3937 36.5564 39.182 36.4028 38.8741 36.3836C38.4892 36.3452 38.0081 36.5372 37.604 37.1324V37.1708L37.5655 37.2092C37.5655 37.2092 37.5078 37.4972 37.5078 37.8043C37.5078 37.9579 37.5078 38.1499 37.5847 38.3035C37.6425 38.4763 37.7387 38.6299 37.9119 38.7451L37.9504 38.7835L38.2198 38.8219L38.1813 39.0523L37.9311 39.5131L37.5078 39.4747L37.604 39.5131C37.604 39.5131 37.45 39.4171 37.2383 39.4171C37.0267 39.4171 36.7572 39.5323 36.6225 39.8587V39.8971L36.6418 40.7802H36.3339L36.1222 41.1066L35.4871 41.1642L35.4102 40.5499L36.0067 39.8971L35.9297 39.2635L36.6418 38.5147V38.0539L37.1229 37.7275V36.6716L37.3346 36.5948L37.4308 36.1148C37.4308 36.1148 37.5078 36.0188 37.5655 35.9228C37.604 35.8652 37.6425 35.7884 37.6617 35.7116C37.6809 35.6348 37.7194 35.5196 37.6425 35.4044C37.6425 35.4044 37.6425 35.462 37.6617 35.4428C37.6617 35.4044 37.6809 35.366 37.7194 35.3468C37.7387 35.3084 37.7772 35.27 37.7964 35.2508C37.8157 35.2508 37.8349 35.2508 37.7579 35.2508C37.8926 35.2508 37.9504 35.174 38.0081 35.1164C38.0466 35.0588 38.0851 35.0012 38.1043 34.9244C38.1236 34.8668 38.1428 34.79 38.162 34.7324C38.162 34.694 38.162 34.6365 38.162 34.5981C38.162 34.5981 38.162 34.5981 38.162 34.5597C38.1813 34.5213 38.239 34.4829 38.2775 34.4253C38.3545 34.3485 38.393 34.3293 38.4122 34.2909L39.2012 34.3293L39.4514 34.0029H39.9517L40.1634 33.7917L40.6445 33.7533H40.5868C40.76 33.7917 40.8562 33.6957 40.9524 33.6189C41.0486 33.5421 41.1064 33.4461 41.1641 33.3309C41.2218 33.2349 41.2603 33.1389 41.2603 33.0045C41.2603 32.9469 41.2411 32.8509 41.1641 32.7741C41.0871 32.7165 40.9909 32.6973 40.9139 32.7165H40.8177L40.8754 32.5821C40.8754 32.5821 40.9524 32.5821 41.0486 32.5821C41.2218 32.5437 41.472 32.4669 41.5682 32.2173C41.5682 32.2173 41.5682 32.2173 41.626 32.1789H41.8761C42.0686 32.1789 42.2418 32.2557 42.2418 32.2557H42.2225C42.2225 32.2557 42.4727 32.3709 42.7421 32.4285C42.8768 32.4669 43.0308 32.4669 43.1655 32.3901C43.3194 32.3133 43.4157 32.1405 43.4157 31.9293V31.9869C43.4349 31.9485 43.4926 31.9101 43.5504 31.8717C43.6658 31.7757 43.839 31.6797 44.0122 31.603C44.3779 31.4494 44.7627 31.411 45.0899 31.7182L46.4947 32.7357C46.4947 32.7357 46.6871 32.9085 46.8988 33.0237C47.0143 33.0813 47.1105 33.1389 47.2645 33.1389C47.3414 33.1389 47.4376 33.1005 47.4954 33.0237C47.5146 32.9853 47.4954 32.9661 47.5146 32.9469C47.5531 32.9469 47.6108 32.9085 47.6878 32.8893H47.8225L47.861 32.9277C47.861 32.9277 47.9765 33.0429 48.1304 33.1197C48.2074 33.1581 48.3229 33.1965 48.4383 33.1581C48.4961 33.1581 48.5346 33.0621 48.5923 33.0237L50.8438 33.1005L52.0947 32.0637V31.6414H52.3641V31.411L52.7297 31.3342L52.8067 30.931V30.8926L52.8645 30.931Z" fill="#7A63AB"/>
<path d="M48.5926 38.7829L48.8043 38.9557L49.1122 39.1861L48.9005 39.2821L48.8428 39.7428L48.939 40.1268L48.6696 40.0884L48.6311 39.6276H47.5727L47.438 40.242L47.207 39.7812L47.2648 39.4932H47.6496L48.4964 39.2437V39.1093C48.5156 38.8021 48.5926 38.7637 48.6118 38.7637V38.8021L48.5926 38.7829Z" fill="#7A63AB"/>
<path d="M47.1094 40.127L46.9747 40.6069H46.5898V40.4725L46.9362 40.3765L47.1094 40.127Z" fill="#7A63AB"/>
<path d="M35.1796 41.375L35.2181 42.239C35.1411 42.2006 35.0449 42.2006 34.9871 42.239H35.0834H34.9102L35.0256 41.6246L35.0641 41.4518L35.1796 41.4134V41.375Z" fill="#7A63AB"/>
<path d="M39.5078 42.1621C39.5078 42.1621 39.5655 42.2005 39.604 42.2197C39.604 42.2197 39.604 42.2197 39.604 42.2581C39.604 42.2581 39.5655 42.2581 39.5078 42.1813V42.1621Z" fill="#7A63AB"/>
<path d="M35.3906 42.5641C35.3906 42.5641 35.4099 42.6025 35.4291 42.6217C35.4484 42.6793 35.4676 42.7177 35.4484 42.7369C35.4484 42.7369 35.4484 42.7369 35.4099 42.7753H35.3906C35.3906 42.7753 35.4099 42.6985 35.4099 42.6601C35.4099 42.6217 35.4099 42.5833 35.4099 42.5449L35.3906 42.5641Z" fill="#7A63AB"/>
<path d="M39.7952 42.584C39.7952 42.584 39.7952 42.68 39.7952 42.6992C39.7952 42.6992 39.7182 42.6608 39.6797 42.6608C39.7374 42.6608 39.7567 42.6032 39.7952 42.584Z" fill="#7A63AB"/>
<path d="M32.6744 42.6035C32.8283 42.6035 32.9438 42.6611 33.0015 42.7187C33.0015 42.7571 33.04 42.8147 33.0977 42.8915C33.1362 42.9491 33.1747 43.0067 33.2325 43.0643C33.2709 43.1027 33.3094 43.1219 33.3672 43.1411C33.4249 43.1411 33.5211 43.1411 33.5788 43.1027C33.5211 43.1411 33.5404 43.1027 33.5788 43.1411C33.6173 43.1411 33.6751 43.1795 33.7136 43.1987C33.7713 43.2371 33.8098 43.2563 33.829 43.2947C33.8483 43.3331 33.8483 43.3331 33.8483 43.3331C33.8483 43.4291 33.8867 43.5059 33.9445 43.5635C34.0022 43.6211 34.0407 43.6403 34.0984 43.6595C34.2139 43.7171 34.3294 43.7363 34.4256 43.7363H34.7335C34.7335 43.7363 34.7912 43.7363 34.8297 43.6787C34.8682 43.6403 34.9067 43.5827 34.9259 43.5251C34.9259 43.4483 34.9067 43.4099 34.8682 43.3715C34.9452 43.3331 35.0414 43.2755 35.1184 43.2371C35.1953 43.1987 35.1953 43.1411 35.2338 43.0835C35.2338 43.1411 35.2146 43.1411 35.1953 43.1987C35.1953 43.2755 35.1953 43.3715 35.2146 43.4867C35.2531 43.5827 35.3493 43.6979 35.484 43.7363L35.3685 43.6595L36.7733 45.6562L36.8503 47.6529L37.4854 47.7297L37.5239 48.1713L37.6008 48.2289C37.6008 48.2289 37.6971 48.3057 37.7548 48.4017C37.8125 48.4977 37.8125 48.6129 37.7548 48.7665C37.6778 48.7665 37.6008 48.7665 37.4661 48.8625C37.3699 48.9393 37.2544 49.0737 37.2737 49.2273C37.2737 49.3617 37.3892 49.4769 37.4854 49.5921V50.2065V50.1681C37.4854 50.1681 37.2544 51.224 38.0819 51.7808L38.0242 51.7232C38.0242 51.7232 38.3321 52.2608 38.2744 52.6256V52.7408L38.3514 52.8176C38.3514 52.8176 38.4861 52.9328 38.563 53.0672C38.6015 53.1248 38.6015 53.1824 38.6015 53.2208C38.6015 53.2592 38.6015 53.2976 38.4861 53.336L38.4476 53.3743V53.4127C38.4476 53.4127 38.2551 53.6623 38.1782 53.9503C38.1397 54.0847 38.1204 54.2575 38.1782 54.4111C38.2551 54.5839 38.4476 54.6799 38.6593 54.6799L38.5246 54.6223L41.3342 57.2334C41.3342 57.2334 41.238 57.483 41.1802 57.7518C41.1417 57.9246 41.1032 58.1166 41.1225 58.2894C41.1225 58.4622 41.1802 58.6542 41.3342 58.7886L41.3919 58.827C41.3919 58.827 41.4304 58.8846 41.4689 58.9422C41.5266 59.0574 41.5843 59.211 41.6036 59.3645C41.6228 59.5181 41.6036 59.6525 41.5651 59.7293C41.5266 59.8061 41.4496 59.8637 41.238 59.8829L39.1404 59.9213L38.3514 60.6125L36.1191 60.6509C36.1191 60.6509 36.0421 60.6125 36.0036 60.3437C35.9651 59.9981 35.8111 59.7485 35.6187 59.6333C35.5225 59.5757 35.407 59.5373 35.3108 59.5565C35.1953 59.5565 35.0991 59.6525 35.0414 59.7677C35.0414 59.7293 35.0799 59.7101 35.0991 59.7101C35.0606 59.7101 34.9837 59.6717 34.9067 59.6333C34.8297 59.5949 34.7527 59.5373 34.695 59.4797C34.6373 59.4221 34.5988 59.3645 34.5988 59.3645C34.5603 59.211 34.4641 59.1342 34.3486 59.0382C34.2331 58.9422 34.0792 58.827 33.9252 58.7694C33.7713 58.6926 33.5981 58.6542 33.4057 58.6926C33.2902 58.731 33.2132 58.8462 33.1362 58.9614H32.8476L32.174 59.0382L31.2118 58.251L30.1342 58.0014C30.1342 58.0014 29.884 57.7902 29.6338 57.5406C29.4991 57.4062 29.3644 57.2718 29.2874 57.1758C29.2489 57.1182 29.2105 57.0606 29.1912 57.0414C29.1912 56.9838 29.172 57.003 29.1912 57.0414C29.1912 56.907 29.1335 56.811 29.0758 56.715C29.018 56.619 28.941 56.523 28.8448 56.4462C28.7486 56.3694 28.6524 56.2926 28.4792 56.331C28.4022 56.331 28.306 56.427 28.2867 56.4846V56.523L27.9211 56.5614C27.9211 56.5614 27.2861 56.3502 27.0359 55.5439C26.9012 55.0639 26.7665 54.7759 26.5355 54.6031C26.3623 54.4687 26.1122 54.4687 25.862 54.4687L25.785 53.8735H25.0922C25.0922 53.8735 24.9383 53.7199 24.7651 53.5471C24.6689 53.4511 24.5534 53.3359 24.4764 53.24C24.3995 53.144 24.3417 53.048 24.3225 53.0096C24.284 52.9328 24.2648 52.856 24.2263 52.7792C24.1878 52.7024 24.1493 52.6256 24.0531 52.568C23.9953 52.5296 23.9184 52.5104 23.8606 52.5296C23.7837 52.5296 23.7259 52.5872 23.6874 52.6256C23.6105 52.7216 23.5527 52.8176 23.495 52.9904C23.4565 53.1056 23.418 53.144 23.3795 53.1632H23.2448C23.1294 53.1056 22.9562 52.9136 22.9369 52.6832V52.5488L22.783 52.5104C22.783 52.5104 22.6867 52.472 22.5905 52.4336C22.4943 52.376 22.4366 52.3184 22.4366 52.2992C22.4366 52.2032 22.3404 52.1264 22.2826 52.088C22.2249 52.0496 22.1479 52.0304 22.0902 52.0304C21.9555 52.0304 21.8208 52.0304 21.6861 52.1072C21.5514 52.1648 21.4166 52.2992 21.3782 52.472C21.3397 52.6448 21.4166 52.8368 21.5898 53.0288L21.5321 52.9136L21.5706 53.7199H21.2627L21.1857 53.5855V53.0864L20.8971 52.9136L20.8586 52.2224L20.7623 52.1648C20.7623 52.1648 20.7046 52.1264 20.6661 52.0688C20.6276 52.0112 20.5892 51.9728 20.6661 51.8384L20.7816 51.6464L20.5892 51.5504C20.5892 51.5504 20.5699 51.5504 20.5122 51.4928C20.4737 51.4544 20.4544 51.3776 20.416 51.3008C20.4544 51.2624 20.4737 51.2624 20.5122 51.2432C20.5699 51.1856 20.6469 51.1472 20.6661 50.9936C20.6661 50.9168 20.6276 50.8208 20.5699 50.7632C20.5507 50.7248 20.5122 50.7248 20.4929 50.7248C20.4929 50.7248 20.3967 50.6288 20.339 50.5328C20.3005 50.4752 20.2812 50.4176 20.2812 50.3792C20.2812 50.3409 20.2812 50.3408 20.2812 50.3217H20.3005C20.3005 50.3217 20.3967 50.1873 20.4544 50.0145C20.5122 49.8417 20.5314 49.5537 20.3197 49.3425L20.3582 49.3809C20.3582 49.3809 20.3005 49.2849 20.2812 49.1889C20.2812 49.1505 20.2812 49.1121 20.2812 49.0929L20.6276 48.9969V48.3825L21.128 48.3441L21.2819 48.1137L22.1287 48.1521C22.1287 48.1521 21.9362 48.1905 21.8593 48.2289C21.8015 48.2673 21.7245 48.3249 21.7053 48.4017C21.6861 48.4785 21.7053 48.5361 21.7053 48.5937C21.7245 48.6897 21.7823 48.7665 21.84 48.8433C21.8977 48.9201 21.9555 48.9969 21.994 49.0545C22.0325 49.1121 22.0902 49.1697 22.0902 49.1889C22.1287 49.2849 22.2634 49.3425 22.3404 49.3233C22.4173 49.3233 22.4751 49.2849 22.5136 49.2657C22.6098 49.2081 22.7252 49.1313 22.8215 49.0161C22.9754 48.8625 23.0909 48.6513 23.1486 48.4401L23.7644 48.4017L23.8799 48.1521H24.1685L24.207 48.5553L24.6496 48.6513L24.7459 48.8817H26.7857L27.1514 49.2465L27.517 48.8817L28.5754 48.9201L28.7678 48.6513L29.6916 48.3441V48.1713C29.6916 48.1713 29.6531 48.0753 29.6916 47.9793C29.6916 47.9409 29.7108 47.9025 29.73 47.8833C29.73 47.8833 29.7685 47.8449 29.8263 47.8449H29.9995V47.6721C29.9995 47.6721 30.0187 47.5377 29.9995 47.4034C29.9995 47.3266 29.961 47.2498 29.9032 47.173C29.884 47.1346 29.8263 47.1346 29.807 47.1154L29.7685 46.309L29.961 46.0402V45.253C30.0187 45.253 30.0764 45.2146 30.1342 45.1186C30.1727 45.061 30.1727 45.0034 30.1727 44.9266C30.1727 44.869 30.1342 44.8306 30.0957 44.7922C30.1342 44.8306 30.1149 44.869 30.1342 44.8306C30.1342 44.7922 30.1727 44.7538 30.2111 44.6962C30.2881 44.581 30.4228 44.4659 30.5575 44.4275L30.6538 44.3891L30.6922 44.2931C30.6922 44.2931 30.75 44.1203 30.8654 43.9475C30.9809 43.7747 31.1349 43.6211 31.2503 43.6019L31.3658 43.5635L31.5775 42.9107C31.5775 42.9107 31.8661 42.8147 32.174 42.7571C32.3665 42.7187 32.5589 42.6995 32.7129 42.7187V42.6035H32.6744Z" fill="#7A63AB"/>
<path d="M33.4827 42.7768H33.3672C33.3672 42.7768 33.4634 42.7384 33.4827 42.7768Z" fill="#7A63AB"/>
<path d="M46.2422 44.1191C46.2999 44.1191 46.3577 44.1575 46.3769 44.1767C46.3769 44.2151 46.4154 44.2535 46.3384 44.4071L46.2807 44.5031L46.3192 44.3495V44.2343L46.2422 44.1575V44.1191Z" fill="#7A63AB"/>
<path d="M29.7695 44.8105C29.7695 44.8105 29.7695 44.8873 29.7888 44.9065C29.7888 44.9065 29.7695 44.9065 29.7695 44.8489V44.8105Z" fill="#7A63AB"/>
<path d="M22.7071 48.3434C22.6686 48.4394 22.6494 48.5354 22.5531 48.6314C22.4954 48.689 22.4377 48.7274 22.3992 48.7658C22.3992 48.7274 22.3799 48.7274 22.3607 48.689C22.303 48.6122 22.2645 48.5546 22.2067 48.497C22.2067 48.497 22.2003 48.4842 22.1875 48.4586C22.1875 48.4586 22.3607 48.401 22.4569 48.3818C22.5916 48.3434 22.7071 48.3434 22.7263 48.3242L22.7071 48.3434Z" fill="#7A63AB"/>
<path d="M38.7367 40.6256L38.0247 40.5488L38.0632 40.8368H38.2556C38.5827 41.3936 38.2941 42.776 38.2941 42.776C38.2941 42.776 37.813 42.8144 37.736 42.584C37.659 42.3344 37.4666 43.1023 37.6205 43.2367C37.7745 43.3519 38.3326 43.2367 38.3711 43.6783C38.4095 44.1199 38.7367 43.3903 38.7367 43.3903V40.6448V40.6256Z" fill="#7A63AB"/>
<path d="M38.8927 45.1379L38.9697 44.7731L38.6811 44.6579L38.7196 44.0627L38.9505 44.0243L38.989 43.7363L38.3924 44.1395L37.9883 43.8899V44.8499L38.6233 45.6947L38.8543 45.1379H38.8927Z" fill="#7A63AB"/>
<path d="M39.0462 46.1738L38.7768 46.2122L38.7383 46.5386L39.0654 46.577V46.1738H39.0462Z" fill="#7A63AB"/>
<path d="M38.6823 48.2285L38.3359 48.2669V48.5549L38.6823 48.5165V48.2285Z" fill="#7A63AB"/>
<path d="M39.1615 47.2694C39.1615 47.2694 39.3347 47.1926 39.3347 47.0966C39.3347 47.0006 39.2577 46.9238 39.1615 46.9238C39.0653 46.9238 38.9883 47.0006 38.9883 47.0966C38.9883 47.1926 39.0653 47.2694 39.1615 47.2694Z" fill="#7A63AB"/>
<path d="M39.6042 47.96C39.6042 47.96 39.5272 48.1328 39.431 48.1328C39.431 48.1328 39.2578 48.056 39.2578 47.96C39.2578 47.864 39.3348 47.7872 39.431 47.7872C39.431 47.7872 39.6042 47.864 39.6042 47.96Z" fill="#7A63AB"/>
<path d="M39.6237 43.3525C39.6237 43.3525 39.5468 43.5253 39.4505 43.5253C39.4505 43.5253 39.2773 43.4485 39.2773 43.3525C39.2773 43.2565 39.3543 43.1797 39.4505 43.1797C39.4505 43.1797 39.6237 43.2565 39.6237 43.3525Z" fill="#7A63AB"/>
<path d="M51.825 40.0489L52.3061 39.9721L52.4986 39.7225L52.5755 39.2425V38.8777L52.768 38.6282L53.2491 38.4362V37.6682H53.0181L52.9797 37.3802L52.537 37.3418L52.4601 37.5338H52.2676L52.2291 37.8602H52.4601L52.4986 38.1098L52.3446 38.2634L52.2676 38.4554L51.9405 38.5322L51.2285 39.2233L51.19 39.5497L50.9975 39.8377L50.7666 40.4329L49.9391 40.4713L49.7852 41.2009L49.9006 41.796L50.6126 42.084L50.6896 41.6808L50.9205 41.5657L50.959 41.1625L51.113 40.8745L51.3439 40.5865L51.4209 40.2601L51.825 40.0105V40.0489Z" fill="#7A63AB"/>
<path d="M54.095 40.1266V39.5698L54.018 39.0514L53.4214 38.7634L52.9788 39.1666L52.9018 39.7234V40.0882L52.4977 40.165L52.4207 41.2593L52.0936 41.3745L52.1321 41.7777L51.6895 41.8929L51.2469 42.0081L51.1699 42.5265L50.8427 42.7185L50.6888 43.1985L50.4963 44.3696C50.4963 44.3696 50.862 45.0608 51.0544 44.7344C51.2469 44.408 51.574 44.3696 51.574 44.3696L51.6895 44.0816L52.7671 44.12C52.8441 43.6785 53.3637 43.8321 53.3637 44.0432C53.3637 44.2544 53.7678 44.0816 53.7678 44.0816L54.0372 43.6401H54.4798L54.5183 43.1601L54.7108 43.0449V42.3153C55.3458 42.1233 55.2688 41.5089 55.2688 41.5089L55.4228 41.3169L55.3458 41.029C55.0187 40.9138 55.1919 40.6258 55.3843 40.7026C55.5768 40.7794 55.1149 40.3378 55.1149 40.3378C54.884 40.5298 54.6723 40.0882 54.6723 40.0882H54.0757L54.095 40.1266Z" fill="#7A63AB"/>
<path d="M54.7299 45.0033C54.6914 45.4832 54.0948 45.656 54.0948 45.656L53.6522 45.5408L53.4213 45.3488L53.3828 44.7921L53.7484 44.7537L53.8254 45.0033L54.7491 45.0417L54.7299 45.0033Z" fill="#7A63AB"/>
<path d="M56.8645 42.4306C56.9415 42.7762 56.9415 41.8738 57.0954 41.9122C57.2494 41.9506 57.1339 41.3555 57.1339 41.3555L56.4219 41.8738C56.7875 41.9122 56.826 42.277 56.8645 42.4306Z" fill="#7A63AB"/>
<path d="M58.9828 40.3387C59.1368 40.7034 59.0983 41.2218 59.6949 41.625C59.8873 41.7594 59.5794 42.0282 59.3677 41.913C59.1753 41.7978 58.6172 40.9146 58.6172 40.9146V40.3963C58.7327 40.0699 58.9058 40.2043 58.9828 40.3579V40.3387Z" fill="#7A63AB"/>
<path d="M59.5043 52.4713L59.2733 52.3945L59.0039 52.6057L59.1194 52.7209L59.2348 52.9129L59.5235 52.4713H59.5043Z" fill="#7A63AB"/>
<path d="M75.2617 59.7491L75.6274 59.9027L75.6658 60.5939C76.1469 61.0738 77.6865 60.6707 77.6865 60.5555C77.6865 60.4403 77.6095 59.0579 77.6095 59.0579L77.417 58.8659L77.3786 57.8675C77.5325 57.3492 76.628 56.5812 76.5511 56.7348C76.4741 56.8884 75.9545 56.7732 75.9545 56.9268C75.9545 57.0804 75.6274 57.8867 75.8005 58.1747C75.9545 58.4627 75.6851 58.4627 75.6466 58.7315C75.6081 59.0195 75.204 59.4995 75.281 59.7491H75.2617Z" fill="#7A63AB"/>
<path d="M74.3789 58.1349C74.3019 58.4421 74.0133 58.6149 73.8593 58.4997C73.7054 58.3845 74.0517 58.6917 74.1287 58.8645C74.2057 59.0181 74.4559 59.0181 74.5328 58.8645C74.6098 58.7109 74.5713 58.3461 74.6483 58.1733C74.7253 58.0197 74.4174 57.9813 74.3596 58.1349H74.3789Z" fill="#7A63AB"/>
<path d="M72.5312 50.7441H72.8007V51.5121H72.5312V50.7441Z" fill="#7A63AB"/>
<path d="M76.6497 42.9865C76.4765 42.7561 77.4387 42.3338 77.6119 42.8329C77.7658 43.3129 77.6119 43.2361 77.4579 43.1977C77.304 43.1593 76.8998 43.3129 76.6689 43.0057L76.6497 42.9865Z" fill="#7A63AB"/>
<path d="M77.457 37.842L77.8996 37.9188L77.9381 37.6884L77.4955 37.6116L77.457 37.842Z" fill="#7A63AB"/>
<path d="M76.4001 38.0143L76.1114 38.1871L75.8613 38.0143L75.7266 38.2255L76.0537 38.4175L76.1114 38.4559L76.1692 38.4175L76.4001 38.2831L76.4386 38.3599L76.6503 38.2639L76.5733 38.0719L76.5156 37.9375L76.4001 38.0143Z" fill="#7A63AB"/>
<path d="M77.8794 28.4912H77.2828C77.2828 28.4912 77.4752 28.568 76.9172 28.0496C76.3591 27.5312 75.9934 28.1648 75.9934 28.1648L75.3584 28.2416V28.8944L75.0312 29.0096L75.0697 29.4128L75.5123 29.3744C75.5123 29.3744 75.5123 29.8543 75.6278 29.6623C75.7433 29.4704 76.744 29.7007 76.667 30.1807C76.6285 30.3727 77.6677 30.9103 77.533 31.5439C78.0526 31.6207 77.9371 32.1583 77.9371 32.1583L78.6106 32.2351L78.8031 31.8319L78.9955 31.8703V31.6207L78.5529 31.5055L78.4759 30.2191L78.2065 30.0271L78.2835 29.7007L77.9563 29.5856L78.1103 29.0672L77.8216 28.5104L77.8794 28.4912Z" fill="#7A63AB"/>
<path d="M79.6301 32.6009L79.3029 32.5625L78.5909 32.6777L78.1868 33.4457C78.1868 33.4457 78.3792 33.5609 78.5524 33.8489C78.7063 34.1368 78.7833 35.788 78.3215 36.0568C77.8404 36.3448 78.36 36.172 78.36 36.172L78.283 37.0551C78.3984 37.4583 78.6101 37.2471 78.7256 37.0551C78.8411 36.8632 78.9565 36.8056 79.1297 36.6136C79.2837 36.4216 79.5338 36.0568 79.5723 35.7688C79.6108 35.4808 79.8033 35.0392 79.6878 34.924C79.5723 34.8088 79.8033 34.2328 79.8033 34.2328C79.8033 34.2328 79.9572 33.9065 79.8033 33.5801C79.6493 33.2537 79.8417 32.8889 79.9572 32.7353L79.6301 32.5817V32.6009Z" fill="#7A63AB"/>
<path d="M80.1133 34.2522L80.1518 33.9258L80.3827 33.9642L80.3442 34.2906L80.1133 34.2522Z" fill="#7A63AB"/>
<path d="M80.0945 35.3648L79.8828 35.2496L79.9983 35L80.21 35.1152L80.0945 35.3648Z" fill="#7A63AB"/>
<path d="M79.7478 32.1595L79.5939 31.7947C79.5939 31.7947 79.5939 31.4683 79.6708 31.3148C79.7478 31.1612 79.5169 30.9884 79.4014 30.95C79.2859 30.9116 79.3244 30.5852 79.286 30.4316C79.2475 30.278 78.9588 30.1436 78.9588 30.1436C78.9588 30.1436 78.8818 29.5484 78.8818 29.414C78.8818 29.2796 78.5162 29.126 78.6509 29.0108C78.7664 28.8956 78.8433 28.7228 78.978 28.646C79.0935 28.5692 78.8626 27.9933 79.055 28.1277C79.2475 28.2429 79.2475 28.4541 79.3244 28.6076C79.4014 28.7612 79.2859 29.3372 79.4784 29.4524C79.6708 29.5676 79.4399 29.9708 79.7478 29.9708C80.0557 29.9708 79.8633 30.7388 79.8633 30.7388C79.8633 30.7388 79.7863 31.2956 79.9787 31.334C80.1712 31.3724 80.0557 32.3323 80.0557 32.3323L79.7286 32.1403L79.7478 32.1595Z" fill="#7A63AB"/>
<path d="M77.1674 25.6302C77.2829 25.7838 77.533 25.9182 77.533 26.0718C77.533 26.2254 77.456 26.3598 77.687 26.3982C77.9179 26.4366 78.0911 26.3598 78.1681 26.5518C78.2451 26.7438 78.2451 27.0701 78.2066 27.2429C78.1681 27.3965 78.2451 27.6461 78.4375 27.6461C78.6299 27.6461 78.6684 27.6845 78.6684 27.7997C78.6684 27.9149 78.8993 27.3581 78.8993 27.3581C78.7069 27.2045 78.5337 26.8398 78.5337 26.8398C78.5337 26.8398 78.3413 26.283 78.3413 26.187C78.3413 26.091 78.0719 26.0334 77.9372 25.995C77.8024 25.9566 77.61 25.5918 77.61 25.5918L77.1289 25.6302H77.1674Z" fill="#7A63AB"/>
<path d="M77.572 25.2656C77.4566 25.112 77.3411 24.9776 77.1679 24.9008C77.014 24.824 76.8985 24.7472 76.7253 24.7472C76.5521 24.7472 76.3982 24.5936 76.4944 24.3824C76.5713 24.1904 76.3789 24.0944 76.3789 23.9408C76.3789 23.7872 76.4944 23.7872 76.7061 23.9024C76.8985 24.0176 76.86 24.056 77.0332 24.2672C77.1872 24.4592 77.2641 24.6704 77.4373 24.632C77.5913 24.5936 77.726 24.9968 77.8799 24.8816C78.0339 24.7664 77.9954 25.1696 77.9954 25.1696L77.5913 25.2848L77.572 25.2656Z" fill="#7A63AB"/>
<path d="M72.9158 29.8166C73.1275 30.047 71.7227 29.9702 71.7227 29.8166C71.7227 29.663 71.8381 29.087 72.2038 29.2022C72.5694 29.3174 72.6079 28.4726 72.6079 28.4726C72.6079 28.4726 72.2807 28.511 72.5694 28.3574C72.8388 28.2038 72.5694 27.9542 72.4539 27.8391C72.3385 27.7239 72.223 27.5127 72.223 27.5127H72.7811C73.012 27.3591 73.1082 26.5911 73.1082 26.5911C73.5893 26.7447 73.8203 26.4375 73.8203 26.4375C73.8203 26.4375 73.8972 26.6871 74.0512 26.8791C74.2051 27.0711 73.6471 27.1671 73.8587 27.2823C74.0512 27.3975 74.1282 27.7623 74.0512 27.8775C73.9742 27.9926 73.5316 27.9158 73.5316 27.7623C73.5316 27.6087 73.3776 27.9542 73.5316 28.1654C73.6855 28.3574 73.3391 28.6454 73.2622 28.6454C73.1852 28.6454 72.6656 28.7222 73.1082 28.9718C73.5508 29.2214 74.0319 29.087 74.0319 29.087C74.0319 29.087 74.3976 29.0486 74.513 29.2406C74.6285 29.4326 74.4745 29.4902 74.2821 29.4902C74.0897 29.4902 73.1275 29.4134 73.1275 29.4134C73.1275 29.4134 72.858 29.7014 72.9735 29.8166H72.9158Z" fill="#7A63AB"/>
<path d="M70.3569 30.181C70.5493 30.1426 71.0304 30.1042 71.1074 30.2194C71.1843 30.3346 70.838 30.5074 70.838 30.5074L70.3569 30.5842C70.2029 30.3922 70.1644 30.2194 70.3569 30.181Z" fill="#7A63AB"/>
<path d="M75.4961 26.8018C75.8232 26.6482 76.4968 26.6482 76.4583 26.3987C76.4198 26.1491 76.8624 26.0723 76.8624 26.0723L76.9779 26.5522L77.3435 26.8018L77.382 27.2434C77.382 27.2434 77.4975 27.1666 77.0549 27.2818C76.6122 27.397 76.9009 27.6082 76.9009 27.6082L75.9387 27.6466L75.8232 27.2434L75.4961 26.8018Z" fill="#7A63AB"/>
<path d="M73.9336 24.6321C74.1838 24.6321 73.8567 25.5536 74.4917 25.4768C75.1268 25.4 74.5302 25.7648 75.0113 25.8032C75.4924 25.8416 75.3769 25.4384 75.5309 25.1504C75.6848 24.8625 75.6079 24.7089 75.3385 24.6321C75.146 24.5809 75.0241 24.4465 74.9728 24.2289C74.8958 23.9025 74.5687 23.8257 74.5687 23.8257L74.4532 23.3457L73.9336 23.6721L73.4141 24.3633C73.4141 24.8817 73.6835 24.6513 73.9336 24.6513V24.6321Z" fill="#7A63AB"/>
<path d="M74.9922 28.0308L75.1076 27.7812L75.3193 27.8964L75.2039 28.146L74.9922 28.0308Z" fill="#7A63AB"/>
<path d="M74.5703 27.6465H74.8012V27.9345H74.5703V27.6465Z" fill="#7A63AB"/>
<path d="M74.7817 22.2715L74.8202 22.6363L74.5893 22.6747L74.5508 22.3099L74.7817 22.2715Z" fill="#7A63AB"/>
<path d="M74.1094 26.0352H74.3403V26.2271H74.1094V26.0352Z" fill="#7A63AB"/>
<path d="M73.4727 26.0341V25.7845L73.8383 25.7461V25.9957L73.4727 26.0341Z" fill="#7A63AB"/>
<path d="M70.2039 29.9133L69.9922 29.8173L70.1077 29.5293L70.3193 29.6253L70.2039 29.9133Z" fill="#7A63AB"/>
<path d="M68.9531 29.163V28.9134L69.3188 28.875V29.1246L68.9531 29.163Z" fill="#7A63AB"/>
<path d="M61.1562 29.1439V29.3935L62.0415 29.3551V29.1055L61.1562 29.1439Z" fill="#7A63AB"/>
<path d="M60.5809 29.4517L60.5039 29.0869L60.7348 29.0293L60.8118 29.3941L60.5809 29.4517Z" fill="#7A63AB"/>
<path d="M60.4051 29.7004L60.3281 29.47L60.4436 29.4316L60.5206 29.662L60.4051 29.7004Z" fill="#7A63AB"/>
<path d="M62.4096 29.0097L62.3711 29.2977L62.8137 29.3361C62.8137 29.3361 63.0061 29.4897 63.0061 29.6241C63.0061 29.7585 63.2948 29.8737 63.4488 29.8737C63.6027 29.8737 64.0453 29.5473 64.0453 29.5473C64.0453 29.5473 64.2378 28.9905 64.0838 29.0289C63.9299 29.0673 63.6027 29.3169 63.5642 29.0673C63.5257 28.8178 63.0446 28.9521 63.0446 28.9521L62.4096 29.0289V29.0097Z" fill="#7A63AB"/>
<path d="M64.3901 28.5688C64.3901 28.684 64.3131 28.8568 64.544 28.8952C64.7749 28.9336 65.2175 28.7416 65.256 28.972C65.2945 29.2216 65.2945 29.3752 65.6217 29.4904C65.9488 29.6056 66.1413 29.644 66.3722 29.644C66.6031 29.644 67.1227 29.5672 67.1227 29.5672C67.1227 29.5672 67.6808 29.6632 67.7962 29.7592C68.2388 30.2007 68.5083 30.3159 68.6237 30.1239C68.7392 29.9319 68.5852 29.4712 68.5468 29.3176C68.5083 29.164 67.9502 28.396 67.7577 28.5496C67.5653 28.7032 67.5268 28.5496 67.1612 28.6648C66.7956 28.78 66.045 28.7032 66.0065 28.5496C65.9681 28.396 65.41 28.3 65.41 28.1464C65.41 27.9928 65.0059 27.7816 65.0443 28.0312C65.0828 28.2808 64.7749 28.396 64.6787 28.3192C64.6017 28.2424 64.3516 28.5688 64.3516 28.5688H64.3901Z" fill="#7A63AB"/>
<path d="M73.55 23.4237L73.8387 22.5405C73.4346 22.4637 73.5115 22.0221 73.5115 22.0221C73.4731 21.6574 72.915 21.2542 72.7225 21.3694C72.5301 21.4846 72.6071 20.5246 72.6071 20.5246C72.6071 20.5246 72.9727 20.275 73.1267 20.4094C73.2806 20.5246 71.7796 18.3935 71.4524 18.6047C71.1253 18.7967 70.4133 18.4127 70.4517 18.0479C70.4902 17.6831 69.0277 16.4735 69.0277 16.4735C69.0277 16.4735 68.5466 16.1471 68.4696 16.3967C68.3926 16.6463 68.2387 16.7999 68.4696 16.9151C68.7005 17.0303 68.6621 16.7231 68.9507 16.9919C69.2394 17.2607 69.7397 17.6447 69.5473 17.8751C69.3548 18.1247 69.1047 18.2015 69.1047 18.2015L69.3933 18.5279H69.8359L69.9129 19.219C69.9129 19.219 70.394 19.4686 70.5095 19.7374C70.6249 20.0254 70.6249 20.179 70.5095 20.3326C70.394 20.4862 70.1438 20.7742 70.1823 21.0622C70.2208 21.3502 70.548 21.4654 70.548 21.4654L70.8751 21.5038L71.106 21.619V22.1373C71.4332 22.0605 71.9335 22.5021 71.895 22.7901C71.8566 23.0781 71.972 22.9053 72.3761 23.1933C72.7803 23.4813 72.6648 23.5197 72.9342 23.7117C73.2036 23.9037 73.4538 23.7885 73.5693 23.4237H73.55Z" fill="#7A63AB"/>
<path d="M66.9874 17.932C66.949 17.7784 66.872 17.2025 67.1029 17.2409C67.3338 17.2793 67.1799 17.2409 67.4685 17.3561C67.738 17.4713 67.7957 17.1641 67.7957 17.1641H68.2383L68.7964 17.6056L68.7194 17.9704L68.3153 18.0088C68.1228 17.6824 67.7187 17.8168 67.7957 18.0856C67.8727 18.3736 67.6033 18.892 67.4301 18.9304C67.2761 18.9688 66.7565 18.9688 66.795 18.7384C66.8335 18.508 66.9874 17.932 66.9874 17.932Z" fill="#7A63AB"/>
<path d="M66.6603 16.858V16.5316C66.6603 16.5316 66.6218 16.2052 66.4294 16.2052C66.237 16.2052 65.8713 15.9556 65.9483 15.802C66.0253 15.6484 65.2747 15.4756 65.2747 15.4756C65.2747 15.4756 64.6012 14.8228 64.8321 14.9188C65.0631 14.9956 64.9476 14.6308 64.9476 14.6308C64.9476 14.6308 64.4665 14.7076 64.351 14.6692C64.2356 14.6308 64.2741 14.266 64.2741 14.266C64.2741 14.266 63.793 14.1508 63.793 14.266C63.793 14.3812 63.9469 14.3812 64.0239 14.6308C64.1009 14.8804 64.0624 15.2836 64.428 15.3604C64.7937 15.4372 64.8706 15.514 64.9091 15.6868C64.9476 15.8404 65.3902 15.8788 65.3902 15.8788L65.7174 16.0324L66.6796 16.8388L66.6603 16.858Z" fill="#7A63AB"/>
<path d="M62.2529 12.4225L61.9258 12.3457V12.7105L62.3684 12.7489L62.2529 12.4225Z" fill="#7A63AB"/>
<path d="M62.2349 11.0402C61.8115 10.733 62.793 11.2897 62.793 11.2897C63.1201 11.2897 63.3126 11.5393 63.3126 11.6545C63.3126 11.7697 63.7552 11.7313 63.7552 11.7313L63.7937 11.4433L63.4665 11.0402L63.1971 10.8482C63.1971 10.8482 62.7545 10.8098 62.7545 10.6946C62.7545 10.5794 62.3889 11.1745 62.2349 11.0594V11.0402Z" fill="#7A63AB"/>
<path d="M69.5654 11.2892C69.45 11.6348 69.4115 12.1339 69.1998 12.1339C68.9881 12.1339 69.0843 12.6523 69.0843 12.6523C69.0843 12.6523 69.6039 12.6523 69.7579 12.6907C69.9118 12.7291 69.9118 13.1323 69.9118 13.1323C70.5084 13.0939 70.7393 13.9003 70.6623 14.0923C70.5854 14.2843 70.8933 14.2843 70.8933 14.2843C70.8933 14.2843 70.8933 14.937 70.8163 15.0906C70.7393 15.2442 71.3359 15.3786 71.4898 15.609C71.6438 15.8586 71.4128 16.665 71.2974 16.7034C71.1819 16.7418 71.6245 16.857 71.5668 17.0682C71.5283 17.2602 71.6823 17.0682 71.7207 17.3946C71.7592 17.7209 71.8362 18.3929 71.8362 18.3929L72.3943 18.4313C72.4713 17.9129 73.4912 17.8937 73.6644 17.9513C74.3379 18.2009 74.8575 19.2377 74.8575 19.4873C74.8575 19.7369 74.4149 19.7753 74.4149 19.7753L74.4919 20.9464C75.1654 21.1384 75.7235 22.1176 75.6465 22.2712C75.5695 22.4248 76.1276 22.3864 76.1276 22.3864C76.2046 21.6568 76.8781 21.9064 76.9166 22.1368C76.9551 22.3864 77.0706 22.9048 77.0706 22.9048L77.263 23.2696L77.5324 23.5575L77.975 23.5191L78.0905 23.7687L78.6101 23.8455C78.6101 23.8455 79.0527 24.3255 79.0912 24.4407C79.1297 24.5559 79.7262 24.5175 79.8802 24.5559C80.0341 24.5943 80.2843 24.7095 80.3228 24.9207C80.3613 25.1127 80.6115 25.4391 80.6115 25.4391C80.6115 25.4391 81.0926 25.5543 81.1311 25.7271C81.1695 25.8807 81.362 26.2455 81.362 26.2455L81.7661 26.5718L81.8046 26.9366L82.2472 26.975L82.3627 27.455L83.0747 27.4166L83.4788 27.1286C83.9984 26.8406 84.3448 26.4758 84.4025 26.3223C84.441 26.1687 84.518 25.5543 84.9221 25.6695C85.3262 25.7847 85.0376 24.7863 85.0376 24.7863C85.0376 24.7863 84.4795 24.3831 84.518 24.1911C84.5565 23.9991 83.9599 23.5959 83.9984 23.4232C84.0369 23.2696 83.4788 22.9432 83.5173 22.7704C83.5558 22.6168 83.2479 22.1752 83.2479 22.1752L82.6513 21.6184L82.5744 21.2536L82.0933 21.2152L81.1311 20.0441L81.1695 19.7177L80.9001 19.6793V19.2377L80.6307 19.0841L80.1881 19.0457L79.3221 18.0857L79.2451 17.6441H78.8025L78.8795 16.7994C79.1489 16.4346 78.995 15.7434 78.995 15.7434C78.995 15.7434 78.4369 16.0314 78.1675 15.897C77.8788 15.7818 78.2829 15.4938 78.2829 15.4938V15.1674L78.052 14.9178C78.052 14.9178 77.3785 14.9946 77.34 14.8794C77.3015 14.7642 77.186 14.2267 77.186 14.2267L77.1475 13.5355L76.8781 13.4203L76.8396 13.1707L76.397 13.2091V12.7291L76.1661 12.6523L75.9352 12.5371L75.8967 12.0571L75.0307 12.0187L74.7613 11.6156L74.4341 11.1356L73.4335 11.0588L73.2025 10.8092L72.7984 10.7324L72.529 10.6172L72.4135 10.8092L71.663 10.8476L71.6245 11.0972C71.2204 11.2892 69.6424 11.1356 69.6039 11.2508L69.5654 11.2892Z" fill="#7A63AB"/>
<path d="M73.7411 10.2342C73.6834 9.90784 74.5301 9.63904 74.7418 9.86944C74.9342 10.119 75.4923 10.1574 75.5693 11.367C75.5885 11.8086 74.8573 10.9254 74.8573 10.9254L74.2607 10.7334C73.9335 10.6566 73.7796 10.4454 73.7411 10.2534V10.2342Z" fill="#7A63AB"/>
<path d="M62.0828 10.7323L61.8711 10.6363L62.025 10.2715L62.2367 10.3675L62.0828 10.7323Z" fill="#7A63AB"/>
<path d="M60.0203 6.77706L59.5007 6.25868V5.8171L59.3468 5.6635L59.1928 5.10672L58.6732 4.95312L58.1537 5.14512L57.5956 5.50991L56.999 5.5867L56.6719 5.95149L57.942 6.06669L58.1729 6.46987L59.0966 6.54667L59.6932 7.14185C60.2128 7.29545 60.3282 7.06505 60.0203 6.77706Z" fill="#7A63AB"/>
<path d="M59.9461 4.8006C59.8498 4.45501 59.3495 5.24218 59.8691 5.39578C60.3887 5.54937 60.9083 5.39578 60.9083 5.39578L61.0237 5.14619L63.0059 5.18459C63.1598 5.03099 63.2368 4.7814 63.2368 4.7814C63.2368 4.7814 63.7179 4.62781 63.9103 4.7046C64.1028 4.7814 63.9488 4.14782 63.7564 4.22462C63.5639 4.30142 63.1598 4.26302 63.1598 4.26302H62.4478C62.4093 3.97503 61.7742 4.10942 61.7357 4.26302C61.6973 4.41661 61.4663 4.45501 61.4663 4.45501L60.5426 4.53181C60.4656 4.7814 59.9845 4.93499 59.9461 4.7814V4.8006Z" fill="#7A63AB"/>
<path d="M56 11.5957C56.6158 11.7877 56.8275 11.6533 56.8852 11.4805C56.9237 11.3269 56.9622 11.2885 57.2124 11.2309C57.4433 11.1925 57.1739 10.7125 56.943 10.7509C56.712 10.7893 56.4619 10.6741 56.4234 10.4629C56.3849 10.2709 55.9808 9.73336 55.9423 10.1365C55.9038 10.5397 55.6729 10.5397 55.7113 10.8277C55.7498 11.1157 55.8653 11.5381 56.0385 11.5765L56 11.5957Z" fill="#7A63AB"/>
<path d="M51.4183 12.058C51.3991 11.9044 52.2073 11.9044 52.342 12.0196C52.4575 12.1348 52.3805 12.346 52.7461 12.346C53.1118 12.346 52.9386 12.5956 52.9001 12.7108C52.8616 12.826 52.4575 12.7876 52.419 12.6724C52.3805 12.5572 51.7839 12.5188 51.7839 12.5188C51.7839 12.5188 51.4568 12.2692 51.4183 12.0772V12.058Z" fill="#7A63AB"/>
<path d="M64.6388 3.66723L64.4271 3.45604L64.2539 3.62883L64.5233 3.91682L64.6003 3.99362L64.6773 3.91682L65.0814 3.59043L64.9275 3.39844L64.6195 3.64803L64.6388 3.66723Z" fill="#7A63AB"/>
<path d="M62.5058 2.5335L62.3711 2.74469L62.6982 2.93668L62.756 2.97508L62.8137 2.93668L63.2563 2.64869L63.1216 2.4375L62.756 2.68709L62.5058 2.5335Z" fill="#7A63AB"/>
<path d="M61.4276 10.9622L61.0234 10.9238V11.1734L61.3313 11.2118L61.5815 11.5958L61.774 11.4614L61.5045 11.0198L61.4661 10.9622H61.4083H61.4276Z" fill="#7A63AB"/>
<path d="M48.3225 22.2129L48.361 22.6545H48.9576C49.1885 22.6545 48.7651 22.3665 48.7651 22.3665C48.7651 22.3665 48.284 22.4049 48.3225 22.2129Z" fill="#7A63AB"/>
<path d="M49.0703 22.2135L49.2243 22.0215L49.4552 22.2135L49.3012 22.4055L49.0703 22.2135Z" fill="#7A63AB"/>
<path d="M41.8359 14.6884L42.0091 14.5156L42.2401 14.7652L42.0669 14.938L41.8359 14.6884Z" fill="#7A63AB"/>
<path d="M50.1511 63.4547L49.9202 63.6467L49.8047 63.7427L49.9394 63.8387L50.2281 64.0307L50.3628 63.8387L50.2088 63.7235L50.3243 63.6275L50.1703 63.4355L50.1511 63.4547Z" fill="#7A63AB"/>
<path d="M79.9005 55.9853C79.8428 55.7741 79.6118 55.6973 79.5926 55.6973L79.5156 55.9277C79.5156 55.9277 79.5541 55.9661 79.5926 55.9661L79.6503 56.1772C79.6503 56.1772 79.6118 56.2348 79.5926 56.254L79.7658 56.4268C79.9005 56.2924 79.939 56.1389 79.9005 56.0237V55.9853Z" fill="#7A63AB"/>
<path d="M79.8633 55.1988L79.9018 54.834L80.2867 54.8916L80.2482 55.218H79.8633V55.1988Z" fill="#7A63AB"/>
<path d="M89.4856 52.0887C89.6588 51.9735 89.8705 51.7815 89.8512 52.2422C89.8127 52.703 89.6395 52.5494 89.4856 52.703C89.3316 52.8566 89.2547 52.2422 89.4856 52.1079V52.0887Z" fill="#7A63AB"/>
<path d="M91.5038 50.3795C91.5038 50.3795 91.5038 50.3411 91.5038 50.3219C91.5038 50.2643 91.5038 50.1683 91.4461 50.0723L91.2344 50.1875C91.2344 50.1875 91.2729 50.3027 91.2729 50.3603C91.2729 50.4371 91.2729 50.5139 91.3498 50.5522C91.3883 50.5906 91.4461 50.5906 91.5038 50.5906L91.4653 50.3603C91.4653 50.3603 91.5038 50.3603 91.523 50.3987L91.5038 50.3795Z" fill="#7A63AB"/>
<path d="M90.9648 50.5716C91.0226 50.8212 91.1188 51.0516 91.1188 51.0708L91.3497 50.994C91.3497 50.994 91.2535 50.7636 91.1958 50.5332L90.9648 50.5908V50.5716Z" fill="#7A63AB"/>
<path d="M90.0986 51.5306L89.8677 51.4922C89.8485 51.6842 89.887 51.9146 90.0794 51.953L90.1179 51.7226C90.1179 51.7226 90.0794 51.6074 90.0986 51.5114V51.5306Z" fill="#7A63AB"/>
<path d="M89.063 46.7112C89.063 46.7112 89.0053 46.5768 88.9283 46.5384C88.7551 46.4616 88.4472 46.596 88.3125 46.692L88.4472 46.884C88.6012 46.788 88.7936 46.7304 88.8321 46.7496L89.063 46.7112Z" fill="#7A63AB"/>
<path d="M76.1311 33.484C76.1311 33.484 76.0541 33.5224 76.0156 33.5608C76.0156 33.5608 76.0156 33.5608 76.0156 33.5224C76.0541 33.484 76.1118 33.4648 76.1311 33.4648V33.484Z" fill="#7A63AB"/>
<path d="M58.0977 43.486L58.1361 43.6012C58.1361 43.6012 58.1361 43.5052 58.0977 43.4668V43.486Z" fill="#7A63AB"/>
<path d="M71.7998 52.3763H71.9153L71.8383 53.2595L72.1847 53.4323C72.1847 53.4323 72.3387 54.1426 72.4156 54.8338C72.4541 55.1986 72.4734 55.5634 72.4541 55.813C72.4541 55.9282 72.4156 56.0434 72.3964 56.0818C72.3771 56.1202 72.3964 56.0818 72.4156 56.0818C72.1462 56.0818 71.9538 56.2354 71.7806 56.4465C71.6074 56.6577 71.4534 56.9073 71.3572 57.1953C71.261 57.4833 71.2033 57.7713 71.2417 58.0401C71.2802 58.3089 71.4342 58.5777 71.7228 58.6929L71.6651 58.6545L73.5895 60.248V60.7088L72.6658 61.5536V61.88L72.5118 61.9568H72.5503C72.2424 62.0144 72.0115 62.1872 71.9153 62.4367C71.8768 62.5519 71.8768 62.7055 71.9538 62.8399C72.0307 62.9743 72.1847 63.0319 72.3387 63.0511C72.4541 63.0511 72.5311 63.1087 72.5696 63.1663C72.6081 63.2239 72.6466 63.3199 72.6466 63.4351C72.6466 63.6655 72.4734 63.9919 72.1655 64.2223L72.0885 64.2799V65.3742L72.3387 65.5278L68.1819 69.0605L67.6624 69.1373L67.2005 69.5789L66.2576 69.6173L66.0074 69.8285H65.9112L65.738 69.2525L64.4871 68.8685L62.9668 67.2366L62.3703 67.1982L61.9661 66.795L62.0046 66.4302L61.6775 66.2574V65.547C61.6775 65.547 61.8122 65.3934 61.8892 65.1823C61.9469 65.0671 61.9854 64.9135 61.9661 64.7599C61.9661 64.6063 61.8699 64.4335 61.716 64.3183L61.7929 64.4335L61.639 63.8575L61.2926 63.8191L61.1387 63.1471L60.5421 62.9935L59.9648 62.8207L59.5991 61.9952L58.9063 61.1504L58.7716 61.1888C58.7716 61.1888 58.2521 61.3424 57.9249 61.0928C57.6362 60.8816 57.2321 60.824 56.8857 60.8624C56.7125 60.8624 56.5393 60.92 56.4046 60.9776C56.3277 61.016 56.2699 61.0736 56.2314 61.1504C56.2314 61.1504 56.2314 61.208 56.2314 61.2272H56.039C55.8658 61.2272 55.6156 61.2272 55.3655 61.2272C55.1153 61.2272 54.8651 61.1888 54.6534 61.1888C54.4417 61.1888 54.2685 61.1504 54.2493 61.1312H54.1916L54.307 60.9008L52.5366 60.8624C52.5366 60.8624 52.5173 60.7856 52.4789 60.7088C52.4404 60.632 52.4019 60.5552 52.3441 60.4976C52.3057 60.4592 52.2864 60.4208 52.2287 60.4016C52.171 60.3632 52.094 60.3632 52.017 60.3632C51.9208 60.4016 51.8246 60.4016 51.7668 60.4016C51.7091 60.4016 51.6706 60.4016 51.6129 60.1904V60.152L51.2857 59.4992L51.0933 58.9425L50.8431 58.9041C50.8431 58.9041 50.8816 58.8081 50.8624 58.7121C50.8624 58.5969 50.8239 58.4625 50.7469 58.3473C50.6507 58.2321 50.516 58.1361 50.3235 58.1169H50.3813L50.1311 57.9825L50.0156 57.6945L50.3235 57.6561V57.4257L50.5929 57.3489V56.9457L50.8239 56.7921L50.9009 55.9858L51.3242 55.8514L51.5551 55.4866L51.863 55.3906C51.863 55.3906 51.9785 55.333 52.094 55.237C52.1517 55.1794 52.2094 55.141 52.2479 55.045C52.2864 54.949 52.3249 54.8338 52.2672 54.7186V54.7954C52.2672 54.7954 52.2672 54.757 52.3057 54.7378C52.3634 54.6802 52.4596 54.6034 52.5943 54.5458C52.8637 54.4114 53.2486 54.277 53.6335 54.2578H53.7297L54.0376 53.8162H54.1338L54.2878 54.1234L54.7496 53.893L55.5771 53.797L55.6349 53.5474L55.9813 53.3363L56.4046 53.1251C56.4046 53.1251 56.751 53.1635 57.0974 53.1635C57.2899 53.1635 57.4823 53.1635 57.6362 53.1251C57.7132 53.1251 57.7902 53.0867 57.8672 53.0483C57.9441 53.0099 58.0211 52.8755 58.0019 52.7603C58.0019 52.7603 57.9634 52.8179 58.0019 52.8179C58.0019 52.8179 58.0789 52.7795 58.1558 52.8179C58.2328 52.8179 58.2905 52.8563 58.3483 52.8755C58.3868 52.9139 58.406 52.9331 58.4252 52.9715L58.4637 53.701L59.0218 53.8546C59.0218 53.8546 59.118 53.9314 59.2527 53.989C59.3297 54.0274 59.4452 54.0466 59.5799 53.989C59.6184 53.989 59.6184 53.9122 59.6376 53.893C59.8685 54.0658 60.1572 54.1618 60.4266 54.2002C60.5998 54.2002 60.7538 54.2002 60.9077 54.1426C60.9847 54.1042 61.0617 54.0658 61.1002 53.9698C61.1386 53.8738 61.1002 53.7394 61.0424 53.6818C61.0232 53.6434 61.0232 53.6434 61.0424 53.6242C61.0424 53.5858 61.0809 53.5666 61.1194 53.5282C61.1964 53.4515 61.2926 53.4131 61.3118 53.3939L61.716 53.3363L61.8699 53.1059L62.3703 53.0675L62.5627 52.8755H63.7173V52.7987L65.0452 53.2595C65.0644 53.2595 65.1606 53.3555 65.2954 53.4323C65.3723 53.4707 65.4301 53.5282 65.507 53.5474C65.5455 53.5474 65.584 53.5858 65.661 53.5858C65.6802 53.5858 65.7187 53.5474 65.738 53.5474C65.7765 53.5474 65.8342 53.5858 65.8919 53.605C65.9689 53.6434 66.0651 53.6626 66.1613 53.6818C66.2191 53.6818 66.2575 53.6818 66.3153 53.6818C66.3538 53.6818 66.373 53.6434 66.4115 53.6242C66.4115 53.6242 66.4115 53.6242 66.4307 53.6242C66.4885 53.6242 66.5655 53.6818 66.6424 53.7394C66.7964 53.8354 66.9503 53.9698 66.9503 53.9698H66.9888C66.9888 53.9698 67.2005 54.0658 67.4122 54.1618C67.5277 54.2194 67.6431 54.277 67.7201 54.3154C67.8163 54.373 67.8933 54.4306 67.874 54.4114C67.9318 54.469 67.9703 54.469 68.0088 54.4882C68.0472 54.4882 68.0857 54.4882 68.1242 54.5266C68.2204 54.5266 68.3167 54.565 68.4514 54.565C68.7015 54.565 69.0479 54.6034 69.3751 54.565C69.7022 54.5266 70.0486 54.4882 70.318 54.373C70.5874 54.2578 70.8376 54.0466 70.8761 53.7394V53.7778L71.0493 53.1635L71.6844 52.3379V52.4147L71.7998 52.3763Z" fill="#7A63AB"/>
<path d="M55.9985 48.3815C55.9985 48.3815 56.1139 48.5543 56.2294 48.5351C56.3449 48.4967 56.4026 48.7463 56.2871 48.7463C56.1717 48.7463 56.1717 48.8999 56.1717 48.9575C56.1717 49.0151 56.1717 49.1687 56.0754 49.2647C55.9792 49.3607 55.9023 49.3031 55.7675 49.2263C55.6521 49.1687 55.5944 49.1687 55.4404 49.1687C55.2864 49.1687 55.4019 49.4183 55.4019 49.4183C55.4019 49.4183 54.7669 49.3799 54.9016 49.3031C55.017 49.2071 55.1325 49.1879 55.0555 49.1303C54.9593 49.0727 55.0555 49.0151 55.0555 48.8807C55.0555 48.7463 55.3634 48.8231 55.2672 48.7271C55.171 48.6311 55.2672 48.2855 55.4212 48.4775L55.5174 48.2663C55.5174 48.2663 55.4981 48.1511 55.3057 48.0935C55.1325 48.0359 55.2672 47.6711 55.2672 47.6711L55.3057 47.4215C55.3634 47.1143 55.96 47.0951 55.9985 47.3639C56.0177 47.6327 55.9985 47.8247 55.9985 47.8247L56.1717 47.8823C56.1717 47.8823 56.1332 48.0551 55.9985 48.0551C55.8638 48.0551 55.9985 48.1511 55.9023 48.2279L55.9985 48.3815Z" fill="#7A63AB"/>
<path d="M54.0195 48.6699C54.1158 48.4971 54.3274 47.7099 54.5584 47.9403C54.7893 48.1899 54.9432 47.9403 54.9432 47.9403C54.9432 47.9403 55.0587 48.0555 55.001 48.3051C54.9432 48.5547 54.8855 48.7851 54.7316 48.8235C54.5776 48.8619 54.4621 48.9387 54.2889 48.9771C54.1157 49.0155 54.0195 48.6699 54.0195 48.6699Z" fill="#7A63AB"/>
</g>
<defs>
<clipPath id="clip0_51_849">
<rect width="112" height="94" fill="white"/>
</clipPath>
</defs>
</svg>
