<svg width="543" height="144" viewBox="0 0 543 144" fill="none" xmlns="http://www.w3.org/2000/svg">
<rect width="543" height="144" rx="28" fill="white"/>
<rect x="433" width="110" height="144" rx="28" fill="#F59ADA"/>
<path d="M38.28 62.22V51H39.82V65H38.56L29.52 53.52V65H27.98V51H29.46L38.28 62.22ZM44.4408 60.4C44.4941 60.96 44.6274 61.46 44.8408 61.9C45.0541 62.3267 45.3274 62.6933 45.6608 63C45.9941 63.2933 46.3674 63.52 46.7808 63.68C47.1941 63.8267 47.6274 63.9 48.0808 63.9C48.8008 63.9 49.4141 63.7667 49.9208 63.5C50.4408 63.2333 50.9141 62.88 51.3408 62.44L52.3008 63.3C51.7808 63.8867 51.1874 64.36 50.5208 64.72C49.8541 65.0667 49.0274 65.24 48.0408 65.24C47.3341 65.24 46.6674 65.1133 46.0408 64.86C45.4141 64.5933 44.8674 64.2267 44.4008 63.76C43.9341 63.28 43.5608 62.7067 43.2808 62.04C43.0141 61.3733 42.8808 60.64 42.8808 59.84C42.8808 59.0933 43.0008 58.3933 43.2408 57.74C43.4941 57.0733 43.8408 56.5 44.2808 56.02C44.7208 55.5267 45.2408 55.14 45.8408 54.86C46.4541 54.58 47.1208 54.44 47.8408 54.44C48.6008 54.44 49.2808 54.5867 49.8808 54.88C50.4808 55.16 50.9874 55.5467 51.4008 56.04C51.8141 56.5333 52.1274 57.1133 52.3408 57.78C52.5541 58.4467 52.6608 59.16 52.6608 59.92C52.6608 59.9867 52.6608 60.06 52.6608 60.14C52.6608 60.22 52.6541 60.3067 52.6408 60.4H44.4408ZM44.4408 59.26H51.1008C51.0608 58.7933 50.9608 58.3467 50.8008 57.92C50.6541 57.4933 50.4408 57.12 50.1608 56.8C49.8941 56.48 49.5608 56.2267 49.1608 56.04C48.7741 55.84 48.3208 55.74 47.8008 55.74C47.3474 55.74 46.9274 55.8333 46.5408 56.02C46.1541 56.1933 45.8141 56.44 45.5208 56.76C45.2274 57.0667 44.9874 57.4333 44.8008 57.86C44.6141 58.2867 44.4941 58.7533 44.4408 59.26ZM57.4367 56.02V62.06C57.4367 62.7 57.5967 63.1467 57.9167 63.4C58.2367 63.6533 58.6567 63.78 59.1767 63.78C59.4434 63.78 59.6901 63.7533 59.9167 63.7C60.1567 63.6467 60.4101 63.5533 60.6767 63.42V64.74C60.4101 64.8867 60.1234 64.9933 59.8167 65.06C59.5234 65.14 59.1901 65.18 58.8167 65.18C58.4034 65.18 58.0167 65.1267 57.6567 65.02C57.2967 64.9133 56.9834 64.7467 56.7167 64.52C56.4634 64.28 56.2634 63.9733 56.1167 63.6C55.9701 63.2267 55.8967 62.78 55.8967 62.26V56.02H54.4567V54.66H55.8967V51.54H57.4367V54.66H60.7167V56.02H57.4367ZM70.9827 54.62L73.7827 62.96L76.5027 54.66H78.1027L74.4627 65.08H73.1227L70.3427 56.92L67.5427 65.08H66.1827L62.5627 54.66H64.2027L66.9227 62.96L69.7027 54.62H70.9827ZM90.3014 59.82C90.3014 60.5533 90.1614 61.2533 89.8814 61.92C89.6147 62.5733 89.2414 63.1467 88.7614 63.64C88.2814 64.1333 87.7081 64.5267 87.0414 64.82C86.3747 65.1 85.6547 65.24 84.8814 65.24C84.1081 65.24 83.3947 65.1 82.7414 64.82C82.0881 64.5267 81.5214 64.14 81.0414 63.66C80.5614 63.1667 80.1881 62.5933 79.9214 61.94C79.6547 61.2867 79.5214 60.5933 79.5214 59.86C79.5214 59.1267 79.6547 58.4333 79.9214 57.78C80.1881 57.1133 80.5614 56.5333 81.0414 56.04C81.5214 55.5467 82.0881 55.16 82.7414 54.88C83.4081 54.5867 84.1347 54.44 84.9214 54.44C85.6947 54.44 86.4081 54.5867 87.0614 54.88C87.7281 55.16 88.3014 55.5467 88.7814 56.04C89.2614 56.52 89.6347 57.0867 89.9014 57.74C90.1681 58.3933 90.3014 59.0867 90.3014 59.82ZM88.7214 59.86C88.7214 59.3 88.6214 58.7733 88.4214 58.28C88.2347 57.7867 87.9681 57.36 87.6214 57C87.2747 56.6267 86.8681 56.3333 86.4014 56.12C85.9347 55.9067 85.4281 55.8 84.8814 55.8C84.3214 55.8 83.8081 55.9067 83.3414 56.12C82.8747 56.32 82.4747 56.6067 82.1414 56.98C81.8214 57.34 81.5681 57.7667 81.3814 58.26C81.1947 58.74 81.1014 59.26 81.1014 59.82C81.1014 60.38 81.1947 60.9067 81.3814 61.4C81.5814 61.8933 81.8481 62.32 82.1814 62.68C82.5281 63.04 82.9347 63.3267 83.4014 63.54C83.8681 63.7533 84.3747 63.86 84.9214 63.86C85.4814 63.86 85.9947 63.76 86.4614 63.56C86.9281 63.3467 87.3281 63.06 87.6614 62.7C87.9947 62.34 88.2547 61.92 88.4414 61.44C88.6281 60.9467 88.7214 60.42 88.7214 59.86ZM94.6311 60.88V65H93.0911V54.66H94.6311V57.36C94.8178 56.9333 95.0511 56.54 95.3311 56.18C95.6111 55.82 95.9311 55.5133 96.2911 55.26C96.6511 54.9933 97.0444 54.7933 97.4711 54.66C97.8978 54.5267 98.3578 54.4667 98.8511 54.48V56.14H98.7311C98.1711 56.14 97.6378 56.24 97.1311 56.44C96.6378 56.64 96.2044 56.94 95.8311 57.34C95.4578 57.74 95.1644 58.24 94.9511 58.84C94.7378 59.4267 94.6311 60.1067 94.6311 60.88ZM105.897 59.1L110.377 65H108.537L104.837 60.18L102.737 62.3V65H101.197V50.4H102.737V60.48L108.317 54.66H110.237L105.897 59.1ZM119.499 60.4C119.553 60.96 119.686 61.46 119.899 61.9C120.113 62.3267 120.386 62.6933 120.719 63C121.053 63.2933 121.426 63.52 121.839 63.68C122.253 63.8267 122.686 63.9 123.139 63.9C123.859 63.9 124.473 63.7667 124.979 63.5C125.499 63.2333 125.973 62.88 126.399 62.44L127.359 63.3C126.839 63.8867 126.246 64.36 125.579 64.72C124.913 65.0667 124.086 65.24 123.099 65.24C122.393 65.24 121.726 65.1133 121.099 64.86C120.473 64.5933 119.926 64.2267 119.459 63.76C118.993 63.28 118.619 62.7067 118.339 62.04C118.073 61.3733 117.939 60.64 117.939 59.84C117.939 59.0933 118.059 58.3933 118.299 57.74C118.553 57.0733 118.899 56.5 119.339 56.02C119.779 55.5267 120.299 55.14 120.899 54.86C121.513 54.58 122.179 54.44 122.899 54.44C123.659 54.44 124.339 54.5867 124.939 54.88C125.539 55.16 126.046 55.5467 126.459 56.04C126.873 56.5333 127.186 57.1133 127.399 57.78C127.613 58.4467 127.719 59.16 127.719 59.92C127.719 59.9867 127.719 60.06 127.719 60.14C127.719 60.22 127.713 60.3067 127.699 60.4H119.499ZM119.499 59.26H126.159C126.119 58.7933 126.019 58.3467 125.859 57.92C125.713 57.4933 125.499 57.12 125.219 56.8C124.953 56.48 124.619 56.2267 124.219 56.04C123.833 55.84 123.379 55.74 122.859 55.74C122.406 55.74 121.986 55.8333 121.599 56.02C121.213 56.1933 120.873 56.44 120.579 56.76C120.286 57.0667 120.046 57.4333 119.859 57.86C119.673 58.2867 119.553 58.7533 119.499 59.26ZM140.255 68.2H138.715V62.92C138.502 63.2267 138.262 63.52 137.995 63.8C137.742 64.08 137.455 64.3267 137.135 64.54C136.815 64.7533 136.455 64.92 136.055 65.04C135.669 65.16 135.235 65.22 134.755 65.22C134.129 65.22 133.522 65.1 132.935 64.86C132.349 64.62 131.822 64.2733 131.355 63.82C130.889 63.3533 130.515 62.7867 130.235 62.12C129.955 61.4533 129.815 60.6933 129.815 59.84C129.815 58.9867 129.955 58.2267 130.235 57.56C130.515 56.8933 130.889 56.3333 131.355 55.88C131.822 55.4133 132.349 55.06 132.935 54.82C133.522 54.5667 134.129 54.44 134.755 54.44C135.235 54.44 135.675 54.5 136.075 54.62C136.475 54.74 136.835 54.9 137.155 55.1C137.475 55.3 137.762 55.5333 138.015 55.8C138.282 56.0667 138.515 56.3467 138.715 56.64V54.66H140.255V68.2ZM138.775 59.82C138.775 59.22 138.669 58.6733 138.455 58.18C138.255 57.6867 137.975 57.2667 137.615 56.92C137.269 56.5733 136.869 56.3067 136.415 56.12C135.975 55.92 135.515 55.82 135.035 55.82C134.529 55.82 134.055 55.9133 133.615 56.1C133.175 56.2733 132.789 56.5333 132.455 56.88C132.135 57.2133 131.875 57.6333 131.675 58.14C131.489 58.6333 131.395 59.1933 131.395 59.82C131.395 60.4333 131.489 60.9867 131.675 61.48C131.875 61.9733 132.142 62.4 132.475 62.76C132.809 63.1067 133.195 63.3733 133.635 63.56C134.075 63.7467 134.542 63.84 135.035 63.84C135.515 63.84 135.975 63.7467 136.415 63.56C136.869 63.36 137.269 63.0867 137.615 62.74C137.975 62.3933 138.255 61.9733 138.455 61.48C138.669 60.9733 138.775 60.42 138.775 59.82ZM151.037 60.58V54.66H152.557V65H151.037V63.2C150.69 63.76 150.237 64.24 149.677 64.64C149.117 65.0267 148.39 65.22 147.497 65.22C146.87 65.22 146.31 65.12 145.817 64.92C145.337 64.72 144.923 64.44 144.577 64.08C144.243 63.7067 143.983 63.2667 143.797 62.76C143.623 62.2533 143.537 61.6933 143.537 61.08V54.66H145.077V60.7C145.077 61.66 145.323 62.42 145.817 62.98C146.31 63.54 147.017 63.82 147.937 63.82C148.377 63.82 148.783 63.7467 149.157 63.6C149.543 63.44 149.87 63.22 150.137 62.94C150.417 62.6467 150.637 62.3 150.797 61.9C150.957 61.5 151.037 61.06 151.037 60.58ZM157.821 52.4H156.061V50.7H157.821V52.4ZM157.701 65H156.161V54.66H157.701V65ZM171.715 59.82C171.715 60.6733 171.575 61.4333 171.295 62.1C171.015 62.7667 170.641 63.3333 170.175 63.8C169.721 64.2533 169.195 64.6067 168.595 64.86C168.008 65.1 167.401 65.22 166.775 65.22C166.295 65.22 165.855 65.16 165.455 65.04C165.055 64.92 164.695 64.76 164.375 64.56C164.055 64.36 163.761 64.1267 163.495 63.86C163.241 63.5933 163.015 63.3133 162.815 63.02V68.2H161.275V54.66H162.815V56.74C163.028 56.4333 163.261 56.14 163.515 55.86C163.781 55.58 164.075 55.34 164.395 55.14C164.715 54.9267 165.068 54.76 165.455 54.64C165.855 54.5067 166.295 54.44 166.775 54.44C167.388 54.44 167.988 54.56 168.575 54.8C169.175 55.04 169.708 55.3933 170.175 55.86C170.641 56.3133 171.015 56.8733 171.295 57.54C171.575 58.2067 171.715 58.9667 171.715 59.82ZM170.135 59.84C170.135 59.2267 170.035 58.6733 169.835 58.18C169.648 57.6867 169.388 57.2667 169.055 56.92C168.721 56.56 168.335 56.2867 167.895 56.1C167.455 55.9133 166.988 55.82 166.495 55.82C166.015 55.82 165.548 55.92 165.095 56.12C164.655 56.3067 164.255 56.5733 163.895 56.92C163.548 57.2667 163.268 57.6867 163.055 58.18C162.855 58.6733 162.755 59.22 162.755 59.82C162.755 60.42 162.855 60.9733 163.055 61.48C163.268 61.9733 163.548 62.3933 163.895 62.74C164.255 63.0867 164.655 63.36 165.095 63.56C165.548 63.7467 166.015 63.84 166.495 63.84C166.988 63.84 167.455 63.7533 167.895 63.58C168.348 63.3933 168.735 63.1333 169.055 62.8C169.388 62.4533 169.648 62.0333 169.835 61.54C170.035 61.0333 170.135 60.4667 170.135 59.84ZM182.756 56.5C182.943 56.22 183.149 55.9533 183.376 55.7C183.616 55.4467 183.883 55.2267 184.176 55.04C184.469 54.8533 184.796 54.7067 185.156 54.6C185.529 54.4933 185.943 54.44 186.396 54.44C187.596 54.44 188.536 54.8133 189.216 55.56C189.896 56.2933 190.236 57.3067 190.236 58.6V65H188.696V58.96C188.696 57.96 188.456 57.1933 187.976 56.66C187.509 56.1133 186.856 55.84 186.016 55.84C185.629 55.84 185.263 55.9133 184.916 56.06C184.569 56.1933 184.263 56.4 183.996 56.68C183.743 56.9467 183.536 57.28 183.376 57.68C183.229 58.08 183.156 58.5333 183.156 59.04V65H181.636V58.92C181.636 57.9467 181.396 57.1933 180.916 56.66C180.449 56.1133 179.803 55.84 178.976 55.84C178.563 55.84 178.183 55.92 177.836 56.08C177.489 56.24 177.183 56.4667 176.916 56.76C176.663 57.0533 176.463 57.4 176.316 57.8C176.169 58.1867 176.096 58.62 176.096 59.1V65H174.556V54.66H176.096V56.4C176.269 56.1467 176.456 55.9 176.656 55.66C176.869 55.42 177.109 55.2133 177.376 55.04C177.643 54.8533 177.943 54.7067 178.276 54.6C178.609 54.4933 178.996 54.44 179.436 54.44C180.276 54.44 180.969 54.64 181.516 55.04C182.063 55.4267 182.476 55.9133 182.756 56.5ZM194.499 60.4C194.553 60.96 194.686 61.46 194.899 61.9C195.113 62.3267 195.386 62.6933 195.719 63C196.053 63.2933 196.426 63.52 196.839 63.68C197.253 63.8267 197.686 63.9 198.139 63.9C198.859 63.9 199.473 63.7667 199.979 63.5C200.499 63.2333 200.973 62.88 201.399 62.44L202.359 63.3C201.839 63.8867 201.246 64.36 200.579 64.72C199.913 65.0667 199.086 65.24 198.099 65.24C197.393 65.24 196.726 65.1133 196.099 64.86C195.473 64.5933 194.926 64.2267 194.459 63.76C193.993 63.28 193.619 62.7067 193.339 62.04C193.073 61.3733 192.939 60.64 192.939 59.84C192.939 59.0933 193.059 58.3933 193.299 57.74C193.553 57.0733 193.899 56.5 194.339 56.02C194.779 55.5267 195.299 55.14 195.899 54.86C196.513 54.58 197.179 54.44 197.899 54.44C198.659 54.44 199.339 54.5867 199.939 54.88C200.539 55.16 201.046 55.5467 201.459 56.04C201.873 56.5333 202.186 57.1133 202.399 57.78C202.613 58.4467 202.719 59.16 202.719 59.92C202.719 59.9867 202.719 60.06 202.719 60.14C202.719 60.22 202.713 60.3067 202.699 60.4H194.499ZM194.499 59.26H201.159C201.119 58.7933 201.019 58.3467 200.859 57.92C200.713 57.4933 200.499 57.12 200.219 56.8C199.953 56.48 199.619 56.2267 199.219 56.04C198.833 55.84 198.379 55.74 197.859 55.74C197.406 55.74 196.986 55.8333 196.599 56.02C196.213 56.1933 195.873 56.44 195.579 56.76C195.286 57.0667 195.046 57.4333 194.859 57.86C194.673 58.2867 194.553 58.7533 194.499 59.26ZM206.955 59.08V65H205.415V54.66H206.955V56.46C207.302 55.9 207.755 55.4267 208.315 55.04C208.875 54.64 209.602 54.44 210.495 54.44C211.122 54.44 211.675 54.54 212.155 54.74C212.649 54.94 213.062 55.2267 213.395 55.6C213.742 55.96 214.002 56.3933 214.175 56.9C214.362 57.4067 214.455 57.9667 214.455 58.58V65H212.915V58.96C212.915 58 212.669 57.24 212.175 56.68C211.682 56.12 210.975 55.84 210.055 55.84C209.615 55.84 209.202 55.92 208.815 56.08C208.442 56.2267 208.115 56.4467 207.835 56.74C207.555 57.02 207.335 57.36 207.175 57.76C207.029 58.16 206.955 58.6 206.955 59.08ZM219.82 56.02V62.06C219.82 62.7 219.98 63.1467 220.3 63.4C220.62 63.6533 221.04 63.78 221.56 63.78C221.826 63.78 222.073 63.7533 222.3 63.7C222.54 63.6467 222.793 63.5533 223.06 63.42V64.74C222.793 64.8867 222.506 64.9933 222.2 65.06C221.906 65.14 221.573 65.18 221.2 65.18C220.786 65.18 220.4 65.1267 220.04 65.02C219.68 64.9133 219.366 64.7467 219.1 64.52C218.846 64.28 218.646 63.9733 218.5 63.6C218.353 63.2267 218.28 62.78 218.28 62.26V56.02H216.84V54.66H218.28V51.54H219.82V54.66H223.1V56.02H219.82ZM235.562 55.88C234.948 55.88 234.388 55.9533 233.882 56.1C233.388 56.2333 232.902 56.4133 232.422 56.64L231.962 55.38C232.535 55.1133 233.115 54.9067 233.702 54.76C234.288 54.6 234.962 54.52 235.722 54.52C237.135 54.52 238.222 54.8733 238.982 55.58C239.742 56.2733 240.122 57.3067 240.122 58.68V65H238.642V63.44C238.282 63.9067 237.795 64.32 237.182 64.68C236.582 65.04 235.822 65.22 234.902 65.22C234.422 65.22 233.948 65.1533 233.482 65.02C233.028 64.8867 232.615 64.6867 232.242 64.42C231.882 64.14 231.588 63.8 231.362 63.4C231.148 63 231.042 62.5267 231.042 61.98C231.042 61.4333 231.148 60.9533 231.362 60.54C231.575 60.1133 231.875 59.76 232.262 59.48C232.662 59.2 233.128 58.9867 233.662 58.84C234.208 58.6933 234.808 58.62 235.462 58.62C236.128 58.62 236.708 58.66 237.202 58.74C237.695 58.82 238.175 58.9267 238.642 59.06V58.7C238.642 57.7667 238.368 57.0667 237.822 56.6C237.288 56.12 236.535 55.88 235.562 55.88ZM235.622 59.76C234.648 59.76 233.902 59.9533 233.382 60.34C232.862 60.7267 232.602 61.2533 232.602 61.92C232.602 62.2533 232.668 62.5467 232.802 62.8C232.948 63.0533 233.142 63.2733 233.382 63.46C233.622 63.6333 233.895 63.7667 234.202 63.86C234.522 63.9533 234.855 64 235.202 64C235.682 64 236.128 63.9333 236.542 63.8C236.968 63.6533 237.335 63.46 237.642 63.22C237.962 62.9667 238.208 62.6733 238.382 62.34C238.568 61.9933 238.662 61.6133 238.662 61.2V60.2C238.275 60.0933 237.828 59.9933 237.322 59.9C236.828 59.8067 236.262 59.76 235.622 59.76ZM244.944 59.08V65H243.404V54.66H244.944V56.46C245.29 55.9 245.744 55.4267 246.304 55.04C246.864 54.64 247.59 54.44 248.484 54.44C249.11 54.44 249.664 54.54 250.144 54.74C250.637 54.94 251.05 55.2267 251.384 55.6C251.73 55.96 251.99 56.3933 252.164 56.9C252.35 57.4067 252.444 57.9667 252.444 58.58V65H250.904V58.96C250.904 58 250.657 57.24 250.164 56.68C249.67 56.12 248.964 55.84 248.044 55.84C247.604 55.84 247.19 55.92 246.804 56.08C246.43 56.2267 246.104 56.4467 245.824 56.74C245.544 57.02 245.324 57.36 245.164 57.76C245.017 58.16 244.944 58.6 244.944 59.08ZM265.568 65H264.028V62.92C263.814 63.2267 263.574 63.52 263.308 63.8C263.054 64.08 262.768 64.3267 262.448 64.54C262.128 64.7533 261.768 64.92 261.368 65.04C260.981 65.16 260.548 65.22 260.068 65.22C259.441 65.22 258.834 65.1 258.248 64.86C257.661 64.62 257.134 64.2733 256.668 63.82C256.201 63.3533 255.828 62.7867 255.548 62.12C255.268 61.4533 255.128 60.6933 255.128 59.84C255.128 58.9867 255.268 58.2267 255.548 57.56C255.828 56.8933 256.201 56.3333 256.668 55.88C257.134 55.4133 257.661 55.06 258.248 54.82C258.834 54.5667 259.441 54.44 260.068 54.44C260.548 54.44 260.988 54.5 261.388 54.62C261.788 54.74 262.148 54.9 262.468 55.1C262.788 55.3 263.074 55.5333 263.328 55.8C263.594 56.0667 263.828 56.3467 264.028 56.64V50.4H265.568V65ZM264.088 59.82C264.088 59.22 263.981 58.6733 263.768 58.18C263.568 57.6867 263.288 57.2667 262.928 56.92C262.581 56.5733 262.181 56.3067 261.728 56.12C261.288 55.92 260.828 55.82 260.348 55.82C259.841 55.82 259.368 55.9133 258.928 56.1C258.488 56.2733 258.101 56.5333 257.768 56.88C257.448 57.2133 257.188 57.6333 256.988 58.14C256.801 58.6333 256.708 59.1933 256.708 59.82C256.708 60.4333 256.801 60.9867 256.988 61.48C257.188 61.9733 257.454 62.4 257.788 62.76C258.121 63.1067 258.508 63.3733 258.948 63.56C259.388 63.7467 259.854 63.84 260.348 63.84C260.828 63.84 261.288 63.7467 261.728 63.56C262.181 63.36 262.581 63.0867 262.928 62.74C263.288 62.3933 263.568 61.9733 263.768 61.48C263.981 60.9733 264.088 60.42 264.088 59.82ZM282.105 62.1C282.105 62.5933 282.005 63.0333 281.805 63.42C281.618 63.7933 281.358 64.1133 281.025 64.38C280.705 64.6467 280.318 64.8533 279.865 65C279.425 65.1333 278.945 65.2 278.425 65.2C277.678 65.2 276.925 65.0667 276.165 64.8C275.405 64.52 274.732 64.1467 274.145 63.68L274.925 62.58C275.485 63.0067 276.065 63.3333 276.665 63.56C277.278 63.7867 277.892 63.9 278.505 63.9C279.132 63.9 279.645 63.7533 280.045 63.46C280.445 63.1667 280.645 62.7667 280.645 62.26V62.22C280.645 61.9667 280.572 61.7467 280.425 61.56C280.292 61.3733 280.105 61.2133 279.865 61.08C279.625 60.9333 279.345 60.8067 279.025 60.7C278.718 60.5933 278.398 60.4933 278.065 60.4C277.665 60.28 277.258 60.1533 276.845 60.02C276.445 59.8733 276.078 59.6933 275.745 59.48C275.425 59.2667 275.158 59 274.945 58.68C274.745 58.36 274.645 57.96 274.645 57.48V57.44C274.645 57 274.732 56.6 274.905 56.24C275.078 55.8667 275.318 55.5533 275.625 55.3C275.945 55.0333 276.318 54.8333 276.745 54.7C277.185 54.5533 277.658 54.48 278.165 54.48C278.805 54.48 279.452 54.5867 280.105 54.8C280.758 55 281.352 55.2733 281.885 55.62L281.185 56.78C280.705 56.4733 280.198 56.2333 279.665 56.06C279.145 55.8733 278.632 55.78 278.125 55.78C277.512 55.78 277.025 55.9267 276.665 56.22C276.305 56.5 276.125 56.8533 276.125 57.28V57.32C276.125 57.56 276.198 57.7733 276.345 57.96C276.492 58.1333 276.685 58.2867 276.925 58.42C277.178 58.5533 277.465 58.6733 277.785 58.78C278.105 58.8867 278.438 58.9933 278.785 59.1C279.185 59.22 279.578 59.3533 279.965 59.5C280.365 59.6467 280.725 59.8333 281.045 60.06C281.365 60.2867 281.618 60.56 281.805 60.88C282.005 61.2 282.105 61.5933 282.105 62.06V62.1ZM285.886 60.4C285.939 60.96 286.073 61.46 286.286 61.9C286.499 62.3267 286.773 62.6933 287.106 63C287.439 63.2933 287.813 63.52 288.226 63.68C288.639 63.8267 289.073 63.9 289.526 63.9C290.246 63.9 290.859 63.7667 291.366 63.5C291.886 63.2333 292.359 62.88 292.786 62.44L293.746 63.3C293.226 63.8867 292.633 64.36 291.966 64.72C291.299 65.0667 290.473 65.24 289.486 65.24C288.779 65.24 288.113 65.1133 287.486 64.86C286.859 64.5933 286.313 64.2267 285.846 63.76C285.379 63.28 285.006 62.7067 284.726 62.04C284.459 61.3733 284.326 60.64 284.326 59.84C284.326 59.0933 284.446 58.3933 284.686 57.74C284.939 57.0733 285.286 56.5 285.726 56.02C286.166 55.5267 286.686 55.14 287.286 54.86C287.899 54.58 288.566 54.44 289.286 54.44C290.046 54.44 290.726 54.5867 291.326 54.88C291.926 55.16 292.433 55.5467 292.846 56.04C293.259 56.5333 293.573 57.1133 293.786 57.78C293.999 58.4467 294.106 59.16 294.106 59.92C294.106 59.9867 294.106 60.06 294.106 60.14C294.106 60.22 294.099 60.3067 294.086 60.4H285.886ZM285.886 59.26H292.546C292.506 58.7933 292.406 58.3467 292.246 57.92C292.099 57.4933 291.886 57.12 291.606 56.8C291.339 56.48 291.006 56.2267 290.606 56.04C290.219 55.84 289.766 55.74 289.246 55.74C288.793 55.74 288.373 55.8333 287.986 56.02C287.599 56.1933 287.259 56.44 286.966 56.76C286.673 57.0667 286.433 57.4333 286.246 57.86C286.059 58.2867 285.939 58.7533 285.886 59.26ZM298.342 60.88V65H296.802V54.66H298.342V57.36C298.529 56.9333 298.762 56.54 299.042 56.18C299.322 55.82 299.642 55.5133 300.002 55.26C300.362 54.9933 300.755 54.7933 301.182 54.66C301.609 54.5267 302.069 54.4667 302.562 54.48V56.14H302.442C301.882 56.14 301.349 56.24 300.842 56.44C300.349 56.64 299.915 56.94 299.542 57.34C299.169 57.74 298.875 58.24 298.662 58.84C298.449 59.4267 298.342 60.1067 298.342 60.88ZM309.067 63.24L312.568 54.66H314.228L309.728 65.08H308.368L303.888 54.66H305.588L309.067 63.24ZM318.446 52.4H316.686V50.7H318.446V52.4ZM318.326 65H316.786V54.66H318.326V65ZM330.78 63.24C330.26 63.8267 329.666 64.3067 329 64.68C328.346 65.0533 327.533 65.24 326.56 65.24C325.8 65.24 325.093 65.1 324.44 64.82C323.8 64.5267 323.24 64.14 322.76 63.66C322.293 63.1667 321.926 62.5933 321.66 61.94C321.393 61.2867 321.26 60.5933 321.26 59.86C321.26 59.1267 321.393 58.4333 321.66 57.78C321.926 57.1133 322.293 56.5333 322.76 56.04C323.24 55.5467 323.8 55.16 324.44 54.88C325.093 54.5867 325.8 54.44 326.56 54.44C327.053 54.44 327.5 54.4867 327.9 54.58C328.3 54.6733 328.666 54.8067 329 54.98C329.333 55.14 329.64 55.3333 329.92 55.56C330.2 55.7867 330.46 56.0267 330.7 56.28L329.68 57.36C329.266 56.9333 328.813 56.5667 328.32 56.26C327.84 55.9533 327.246 55.8 326.54 55.8C326.02 55.8 325.533 55.9067 325.08 56.12C324.626 56.32 324.233 56.6067 323.9 56.98C323.566 57.34 323.306 57.7667 323.12 58.26C322.933 58.74 322.84 59.26 322.84 59.82C322.84 60.38 322.933 60.9067 323.12 61.4C323.32 61.8933 323.586 62.3267 323.92 62.7C324.266 63.06 324.666 63.3467 325.12 63.56C325.586 63.76 326.093 63.86 326.64 63.86C327.306 63.86 327.893 63.7133 328.4 63.42C328.92 63.1267 329.386 62.76 329.8 62.32L330.78 63.24ZM333.952 60.4C334.006 60.96 334.139 61.46 334.353 61.9C334.566 62.3267 334.839 62.6933 335.173 63C335.506 63.2933 335.879 63.52 336.293 63.68C336.706 63.8267 337.139 63.9 337.593 63.9C338.313 63.9 338.926 63.7667 339.433 63.5C339.953 63.2333 340.426 62.88 340.853 62.44L341.813 63.3C341.293 63.8867 340.699 64.36 340.033 64.72C339.366 65.0667 338.539 65.24 337.553 65.24C336.846 65.24 336.179 65.1133 335.553 64.86C334.926 64.5933 334.379 64.2267 333.913 63.76C333.446 63.28 333.073 62.7067 332.793 62.04C332.526 61.3733 332.393 60.64 332.393 59.84C332.393 59.0933 332.513 58.3933 332.753 57.74C333.006 57.0733 333.353 56.5 333.793 56.02C334.233 55.5267 334.753 55.14 335.353 54.86C335.966 54.58 336.633 54.44 337.353 54.44C338.113 54.44 338.793 54.5867 339.393 54.88C339.993 55.16 340.499 55.5467 340.913 56.04C341.326 56.5333 341.639 57.1133 341.853 57.78C342.066 58.4467 342.173 59.16 342.173 59.92C342.173 59.9867 342.173 60.06 342.173 60.14C342.173 60.22 342.166 60.3067 342.153 60.4H333.952ZM333.952 59.26H340.613C340.573 58.7933 340.473 58.3467 340.313 57.92C340.166 57.4933 339.953 57.12 339.673 56.8C339.406 56.48 339.073 56.2267 338.673 56.04C338.286 55.84 337.833 55.74 337.313 55.74C336.859 55.74 336.439 55.8333 336.053 56.02C335.666 56.1933 335.326 56.44 335.033 56.76C334.739 57.0667 334.499 57.4333 334.313 57.86C334.126 58.2867 334.006 58.7533 333.952 59.26ZM351.968 62.1C351.968 62.5933 351.868 63.0333 351.668 63.42C351.482 63.7933 351.222 64.1133 350.888 64.38C350.568 64.6467 350.182 64.8533 349.728 65C349.288 65.1333 348.808 65.2 348.288 65.2C347.542 65.2 346.788 65.0667 346.028 64.8C345.268 64.52 344.595 64.1467 344.008 63.68L344.788 62.58C345.348 63.0067 345.928 63.3333 346.528 63.56C347.142 63.7867 347.755 63.9 348.368 63.9C348.995 63.9 349.508 63.7533 349.908 63.46C350.308 63.1667 350.508 62.7667 350.508 62.26V62.22C350.508 61.9667 350.435 61.7467 350.288 61.56C350.155 61.3733 349.968 61.2133 349.728 61.08C349.488 60.9333 349.208 60.8067 348.888 60.7C348.582 60.5933 348.262 60.4933 347.928 60.4C347.528 60.28 347.122 60.1533 346.708 60.02C346.308 59.8733 345.942 59.6933 345.608 59.48C345.288 59.2667 345.022 59 344.808 58.68C344.608 58.36 344.508 57.96 344.508 57.48V57.44C344.508 57 344.595 56.6 344.768 56.24C344.942 55.8667 345.182 55.5533 345.488 55.3C345.808 55.0333 346.182 54.8333 346.608 54.7C347.048 54.5533 347.522 54.48 348.028 54.48C348.668 54.48 349.315 54.5867 349.968 54.8C350.622 55 351.215 55.2733 351.748 55.62L351.048 56.78C350.568 56.4733 350.062 56.2333 349.528 56.06C349.008 55.8733 348.495 55.78 347.988 55.78C347.375 55.78 346.888 55.9267 346.528 56.22C346.168 56.5 345.988 56.8533 345.988 57.28V57.32C345.988 57.56 346.062 57.7733 346.208 57.96C346.355 58.1333 346.548 58.2867 346.788 58.42C347.042 58.5533 347.328 58.6733 347.648 58.78C347.968 58.8867 348.302 58.9933 348.648 59.1C349.048 59.22 349.442 59.3533 349.828 59.5C350.228 59.6467 350.588 59.8333 350.908 60.06C351.228 60.2867 351.482 60.56 351.668 60.88C351.868 61.2 351.968 61.5933 351.968 62.06V62.1ZM34.82 88.1C34.82 88.5933 34.72 89.0333 34.52 89.42C34.3333 89.7933 34.0733 90.1133 33.74 90.38C33.42 90.6467 33.0333 90.8533 32.58 91C32.14 91.1333 31.66 91.2 31.14 91.2C30.3933 91.2 29.64 91.0667 28.88 90.8C28.12 90.52 27.4467 90.1467 26.86 89.68L27.64 88.58C28.2 89.0067 28.78 89.3333 29.38 89.56C29.9933 89.7867 30.6067 89.9 31.22 89.9C31.8467 89.9 32.36 89.7533 32.76 89.46C33.16 89.1667 33.36 88.7667 33.36 88.26V88.22C33.36 87.9667 33.2867 87.7467 33.14 87.56C33.0067 87.3733 32.82 87.2133 32.58 87.08C32.34 86.9333 32.06 86.8067 31.74 86.7C31.4333 86.5933 31.1133 86.4933 30.78 86.4C30.38 86.28 29.9733 86.1533 29.56 86.02C29.16 85.8733 28.7933 85.6933 28.46 85.48C28.14 85.2667 27.8733 85 27.66 84.68C27.46 84.36 27.36 83.96 27.36 83.48V83.44C27.36 83 27.4467 82.6 27.62 82.24C27.7933 81.8667 28.0333 81.5533 28.34 81.3C28.66 81.0333 29.0333 80.8333 29.46 80.7C29.9 80.5533 30.3733 80.48 30.88 80.48C31.52 80.48 32.1667 80.5867 32.82 80.8C33.4733 81 34.0667 81.2733 34.6 81.62L33.9 82.78C33.42 82.4733 32.9133 82.2333 32.38 82.06C31.86 81.8733 31.3467 81.78 30.84 81.78C30.2267 81.78 29.74 81.9267 29.38 82.22C29.02 82.5 28.84 82.8533 28.84 83.28V83.32C28.84 83.56 28.9133 83.7733 29.06 83.96C29.2067 84.1333 29.4 84.2867 29.64 84.42C29.8933 84.5533 30.18 84.6733 30.5 84.78C30.82 84.8867 31.1533 84.9933 31.5 85.1C31.9 85.22 32.2933 85.3533 32.68 85.5C33.08 85.6467 33.44 85.8333 33.76 86.06C34.08 86.2867 34.3333 86.56 34.52 86.88C34.72 87.2 34.82 87.5933 34.82 88.06V88.1ZM48.1209 85.82C48.1209 86.6733 47.9809 87.4333 47.7009 88.1C47.4209 88.7667 47.0476 89.3333 46.5809 89.8C46.1276 90.2533 45.6009 90.6067 45.0009 90.86C44.4143 91.1 43.8076 91.22 43.1809 91.22C42.7009 91.22 42.2609 91.16 41.8609 91.04C41.4609 90.92 41.1009 90.76 40.7809 90.56C40.4609 90.36 40.1676 90.1267 39.9009 89.86C39.6476 89.5933 39.4209 89.3133 39.2209 89.02V94.2H37.6809V80.66H39.2209V82.74C39.4343 82.4333 39.6676 82.14 39.9209 81.86C40.1876 81.58 40.4809 81.34 40.8009 81.14C41.1209 80.9267 41.4743 80.76 41.8609 80.64C42.2609 80.5067 42.7009 80.44 43.1809 80.44C43.7943 80.44 44.3943 80.56 44.9809 80.8C45.5809 81.04 46.1143 81.3933 46.5809 81.86C47.0476 82.3133 47.4209 82.8733 47.7009 83.54C47.9809 84.2067 48.1209 84.9667 48.1209 85.82ZM46.5409 85.84C46.5409 85.2267 46.4409 84.6733 46.2409 84.18C46.0543 83.6867 45.7943 83.2667 45.4609 82.92C45.1276 82.56 44.7409 82.2867 44.3009 82.1C43.8609 81.9133 43.3943 81.82 42.9009 81.82C42.4209 81.82 41.9543 81.92 41.5009 82.12C41.0609 82.3067 40.6609 82.5733 40.3009 82.92C39.9543 83.2667 39.6743 83.6867 39.4609 84.18C39.2609 84.6733 39.1609 85.22 39.1609 85.82C39.1609 86.42 39.2609 86.9733 39.4609 87.48C39.6743 87.9733 39.9543 88.3933 40.3009 88.74C40.6609 89.0867 41.0609 89.36 41.5009 89.56C41.9543 89.7467 42.4209 89.84 42.9009 89.84C43.3943 89.84 43.8609 89.7533 44.3009 89.58C44.7543 89.3933 45.1409 89.1333 45.4609 88.8C45.7943 88.4533 46.0543 88.0333 46.2409 87.54C46.4409 87.0333 46.5409 86.4667 46.5409 85.84ZM54.7022 81.88C54.0889 81.88 53.5289 81.9533 53.0222 82.1C52.5289 82.2333 52.0422 82.4133 51.5622 82.64L51.1022 81.38C51.6755 81.1133 52.2555 80.9067 52.8422 80.76C53.4289 80.6 54.1022 80.52 54.8622 80.52C56.2755 80.52 57.3622 80.8733 58.1222 81.58C58.8822 82.2733 59.2622 83.3067 59.2622 84.68V91H57.7822V89.44C57.4222 89.9067 56.9355 90.32 56.3222 90.68C55.7222 91.04 54.9622 91.22 54.0422 91.22C53.5622 91.22 53.0889 91.1533 52.6222 91.02C52.1689 90.8867 51.7555 90.6867 51.3822 90.42C51.0222 90.14 50.7289 89.8 50.5022 89.4C50.2889 89 50.1822 88.5267 50.1822 87.98C50.1822 87.4333 50.2889 86.9533 50.5022 86.54C50.7155 86.1133 51.0155 85.76 51.4022 85.48C51.8022 85.2 52.2689 84.9867 52.8022 84.84C53.3489 84.6933 53.9489 84.62 54.6022 84.62C55.2689 84.62 55.8489 84.66 56.3422 84.74C56.8355 84.82 57.3155 84.9267 57.7822 85.06V84.7C57.7822 83.7667 57.5089 83.0667 56.9622 82.6C56.4289 82.12 55.6755 81.88 54.7022 81.88ZM54.7622 85.76C53.7889 85.76 53.0422 85.9533 52.5222 86.34C52.0022 86.7267 51.7422 87.2533 51.7422 87.92C51.7422 88.2533 51.8089 88.5467 51.9422 88.8C52.0889 89.0533 52.2822 89.2733 52.5222 89.46C52.7622 89.6333 53.0355 89.7667 53.3422 89.86C53.6622 89.9533 53.9955 90 54.3422 90C54.8222 90 55.2689 89.9333 55.6822 89.8C56.1089 89.6533 56.4755 89.46 56.7822 89.22C57.1022 88.9667 57.3489 88.6733 57.5222 88.34C57.7089 87.9933 57.8022 87.6133 57.8022 87.2V86.2C57.4155 86.0933 56.9689 85.9933 56.4622 85.9C55.9689 85.8067 55.4022 85.76 54.7622 85.76ZM64.0842 85.08V91H62.5442V80.66H64.0842V82.46C64.4309 81.9 64.8842 81.4267 65.4442 81.04C66.0042 80.64 66.7309 80.44 67.6242 80.44C68.2509 80.44 68.8042 80.54 69.2842 80.74C69.7776 80.94 70.1909 81.2267 70.5242 81.6C70.8709 81.96 71.1309 82.3933 71.3042 82.9C71.4909 83.4067 71.5842 83.9667 71.5842 84.58V91H70.0442V84.96C70.0442 84 69.7976 83.24 69.3042 82.68C68.8109 82.12 68.1042 81.84 67.1842 81.84C66.7442 81.84 66.3309 81.92 65.9442 82.08C65.5709 82.2267 65.2442 82.4467 64.9642 82.74C64.6842 83.02 64.4642 83.36 64.3042 83.76C64.1576 84.16 64.0842 84.6 64.0842 85.08ZM76.4084 85.08V91H74.8684V80.66H76.4084V82.46C76.7551 81.9 77.2084 81.4267 77.7684 81.04C78.3284 80.64 79.0551 80.44 79.9484 80.44C80.5751 80.44 81.1284 80.54 81.6084 80.74C82.1018 80.94 82.5151 81.2267 82.8484 81.6C83.1951 81.96 83.4551 82.3933 83.6284 82.9C83.8151 83.4067 83.9084 83.9667 83.9084 84.58V91H82.3684V84.96C82.3684 84 82.1218 83.24 81.6284 82.68C81.1351 82.12 80.4284 81.84 79.5084 81.84C79.0684 81.84 78.6551 81.92 78.2684 82.08C77.8951 82.2267 77.5684 82.4467 77.2884 82.74C77.0084 83.02 76.7884 83.36 76.6284 83.76C76.4818 84.16 76.4084 84.6 76.4084 85.08ZM88.9927 78.4H87.2327V76.7H88.9927V78.4ZM88.8727 91H87.3327V80.66H88.8727V91ZM93.9866 85.08V91H92.4466V80.66H93.9866V82.46C94.3332 81.9 94.7866 81.4267 95.3466 81.04C95.9066 80.64 96.6332 80.44 97.5266 80.44C98.1532 80.44 98.7066 80.54 99.1866 80.74C99.6799 80.94 100.093 81.2267 100.427 81.6C100.773 81.96 101.033 82.3933 101.207 82.9C101.393 83.4067 101.487 83.9667 101.487 84.58V91H99.9466V84.96C99.9466 84 99.6999 83.24 99.2066 82.68C98.7132 82.12 98.0066 81.84 97.0866 81.84C96.6466 81.84 96.2332 81.92 95.8466 82.08C95.4732 82.2267 95.1466 82.4467 94.8666 82.74C94.5866 83.02 94.3666 83.36 94.2066 83.76C94.0599 84.16 93.9866 84.6 93.9866 85.08ZM114.611 89.2C114.611 90.04 114.484 90.7733 114.231 91.4C113.991 92.0267 113.637 92.5467 113.171 92.96C112.717 93.3867 112.164 93.7067 111.511 93.92C110.871 94.1333 110.151 94.24 109.351 94.24C108.484 94.24 107.657 94.12 106.871 93.88C106.084 93.64 105.344 93.28 104.651 92.8L105.351 91.6C105.951 92.0267 106.577 92.3533 107.231 92.58C107.884 92.8067 108.584 92.92 109.331 92.92C110.477 92.92 111.391 92.6067 112.071 91.98C112.751 91.3667 113.091 90.4533 113.091 89.24V88.02C112.637 88.62 112.084 89.1333 111.431 89.56C110.777 89.9867 109.977 90.2 109.031 90.2C108.404 90.2 107.797 90.0933 107.211 89.88C106.637 89.6533 106.124 89.3333 105.671 88.92C105.217 88.4933 104.851 87.98 104.571 87.38C104.304 86.78 104.171 86.1 104.171 85.34C104.171 84.58 104.304 83.9 104.571 83.3C104.851 82.6867 105.217 82.1733 105.671 81.76C106.124 81.3333 106.644 81.0067 107.231 80.78C107.817 80.5533 108.417 80.44 109.031 80.44C109.511 80.44 109.951 80.5 110.351 80.62C110.764 80.7267 111.131 80.8733 111.451 81.06C111.784 81.2467 112.084 81.4667 112.351 81.72C112.617 81.9733 112.857 82.24 113.071 82.52V80.66H114.611V89.2ZM113.131 85.32C113.131 84.7867 113.024 84.3067 112.811 83.88C112.597 83.44 112.311 83.0667 111.951 82.76C111.604 82.4533 111.204 82.22 110.751 82.06C110.297 81.8867 109.824 81.8 109.331 81.8C108.837 81.8 108.371 81.88 107.931 82.04C107.504 82.2 107.124 82.4333 106.791 82.74C106.471 83.0467 106.217 83.42 106.031 83.86C105.844 84.2867 105.751 84.7667 105.751 85.3C105.751 85.8333 105.844 86.32 106.031 86.76C106.231 87.1867 106.491 87.56 106.811 87.88C107.144 88.1867 107.524 88.4267 107.951 88.6C108.391 88.76 108.851 88.84 109.331 88.84C109.824 88.84 110.297 88.76 110.751 88.6C111.204 88.4267 111.604 88.1867 111.951 87.88C112.311 87.5733 112.597 87.2067 112.811 86.78C113.024 86.34 113.131 85.8533 113.131 85.32Z" fill="#3E3E3E"/>
<path d="M129.744 77.272C129.088 77.272 128.504 77.456 127.992 77.824C127.496 78.192 126.936 78.76 126.312 79.528L123.72 77.44C124.136 76.88 124.552 76.384 124.968 75.952C125.4 75.52 125.856 75.16 126.336 74.872C126.832 74.568 127.376 74.344 127.968 74.2C128.56 74.04 129.232 73.96 129.984 73.96C130.88 73.96 131.68 74.088 132.384 74.344C133.104 74.584 133.712 74.936 134.208 75.4C134.72 75.848 135.104 76.392 135.36 77.032C135.632 77.672 135.768 78.384 135.768 79.168C135.768 79.872 135.672 80.504 135.48 81.064C135.304 81.608 135.032 82.128 134.664 82.624C134.312 83.12 133.856 83.616 133.296 84.112C132.736 84.592 132.088 85.12 131.352 85.696L128.616 87.808H135.936V91H123.504V88.072L129.096 83.488C129.624 83.056 130.072 82.672 130.44 82.336C130.808 81.984 131.104 81.656 131.328 81.352C131.568 81.032 131.736 80.728 131.832 80.44C131.944 80.136 132 79.808 132 79.456C132 78.736 131.792 78.192 131.376 77.824C130.96 77.456 130.416 77.272 129.744 77.272ZM137.857 75.52L142.681 74.08H145.201V91H141.553V77.824L138.625 78.544L137.857 75.52ZM154.822 77.272C154.166 77.272 153.582 77.456 153.07 77.824C152.574 78.192 152.014 78.76 151.39 79.528L148.798 77.44C149.214 76.88 149.63 76.384 150.046 75.952C150.478 75.52 150.934 75.16 151.414 74.872C151.91 74.568 152.454 74.344 153.046 74.2C153.638 74.04 154.31 73.96 155.062 73.96C155.958 73.96 156.758 74.088 157.462 74.344C158.182 74.584 158.79 74.936 159.286 75.4C159.798 75.848 160.182 76.392 160.438 77.032C160.71 77.672 160.846 78.384 160.846 79.168C160.846 79.872 160.75 80.504 160.558 81.064C160.382 81.608 160.11 82.128 159.742 82.624C159.39 83.12 158.934 83.616 158.374 84.112C157.814 84.592 157.166 85.12 156.43 85.696L153.694 87.808H161.014V91H148.582V88.072L154.174 83.488C154.702 83.056 155.15 82.672 155.518 82.336C155.886 81.984 156.182 81.656 156.406 81.352C156.646 81.032 156.814 80.728 156.91 80.44C157.022 80.136 157.078 79.808 157.078 79.456C157.078 78.736 156.87 78.192 156.454 77.824C156.038 77.456 155.494 77.272 154.822 77.272ZM180.619 87.088C180.619 87.808 180.491 88.432 180.235 88.96C179.995 89.472 179.651 89.896 179.203 90.232C178.755 90.568 178.227 90.824 177.619 91C177.027 91.16 176.387 91.24 175.699 91.24C174.787 91.24 173.851 91.088 172.891 90.784C171.947 90.464 171.043 89.968 170.179 89.296L171.739 86.896C172.443 87.408 173.139 87.792 173.827 88.048C174.531 88.304 175.187 88.432 175.795 88.432C176.323 88.432 176.707 88.344 176.947 88.168C177.203 87.992 177.331 87.76 177.331 87.472V87.424C177.331 87.232 177.259 87.064 177.115 86.92C176.971 86.776 176.771 86.656 176.515 86.56C176.275 86.448 175.995 86.344 175.675 86.248C175.355 86.152 175.019 86.048 174.667 85.936C174.219 85.808 173.763 85.656 173.299 85.48C172.851 85.288 172.443 85.048 172.075 84.76C171.707 84.456 171.403 84.088 171.163 83.656C170.939 83.224 170.827 82.696 170.827 82.072V82.024C170.827 81.368 170.947 80.792 171.187 80.296C171.443 79.784 171.779 79.352 172.195 79C172.627 78.648 173.123 78.384 173.683 78.208C174.259 78.032 174.875 77.944 175.531 77.944C176.347 77.944 177.171 78.08 178.003 78.352C178.851 78.608 179.627 78.968 180.331 79.432L178.939 81.952C178.299 81.584 177.675 81.296 177.067 81.088C176.459 80.864 175.923 80.752 175.459 80.752C175.011 80.752 174.675 80.84 174.451 81.016C174.227 81.176 174.115 81.384 174.115 81.64V81.688C174.115 81.864 174.187 82.024 174.331 82.168C174.475 82.296 174.667 82.424 174.907 82.552C175.147 82.664 175.419 82.776 175.723 82.888C176.043 83 176.379 83.112 176.731 83.224C177.179 83.368 177.635 83.544 178.099 83.752C178.563 83.944 178.979 84.184 179.347 84.472C179.715 84.76 180.019 85.112 180.259 85.528C180.499 85.944 180.619 86.448 180.619 87.04V87.088ZM194.922 91H191.274V89.176C191.066 89.448 190.834 89.712 190.578 89.968C190.338 90.208 190.066 90.424 189.762 90.616C189.458 90.808 189.122 90.96 188.754 91.072C188.386 91.184 187.97 91.24 187.506 91.24C186.114 91.24 185.034 90.816 184.266 89.968C183.514 89.12 183.138 87.952 183.138 86.464V78.136H186.786V85.312C186.786 86.176 186.978 86.832 187.362 87.28C187.746 87.712 188.29 87.928 188.994 87.928C189.698 87.928 190.25 87.712 190.65 87.28C191.066 86.832 191.274 86.176 191.274 85.312V78.136H194.922V91ZM211.699 84.592C211.699 85.664 211.531 86.616 211.195 87.448C210.875 88.264 210.443 88.96 209.899 89.536C209.371 90.096 208.755 90.52 208.051 90.808C207.347 91.096 206.611 91.24 205.843 91.24C204.867 91.24 204.059 91.048 203.419 90.664C202.795 90.28 202.267 89.832 201.835 89.32V94.84H198.187V78.136H201.835V79.984C202.283 79.376 202.819 78.88 203.443 78.496C204.083 78.096 204.883 77.896 205.843 77.896C206.595 77.896 207.323 78.04 208.027 78.328C208.731 78.616 209.355 79.048 209.899 79.624C210.443 80.184 210.875 80.88 211.195 81.712C211.531 82.528 211.699 83.472 211.699 84.544V84.592ZM208.051 84.592V84.544C208.051 84.016 207.963 83.536 207.787 83.104C207.627 82.656 207.403 82.28 207.115 81.976C206.827 81.656 206.491 81.416 206.107 81.256C205.739 81.08 205.339 80.992 204.907 80.992C204.475 80.992 204.067 81.08 203.683 81.256C203.315 81.416 202.987 81.656 202.699 81.976C202.427 82.28 202.203 82.656 202.027 83.104C201.867 83.536 201.787 84.016 201.787 84.544V84.592C201.787 85.12 201.867 85.608 202.027 86.056C202.203 86.488 202.427 86.864 202.699 87.184C202.987 87.488 203.315 87.728 203.683 87.904C204.067 88.064 204.475 88.144 204.907 88.144C205.339 88.144 205.739 88.064 206.107 87.904C206.491 87.728 206.827 87.488 207.115 87.184C207.403 86.864 207.627 86.488 207.787 86.056C207.963 85.624 208.051 85.136 208.051 84.592ZM227.894 84.592C227.894 85.664 227.726 86.616 227.39 87.448C227.07 88.264 226.638 88.96 226.094 89.536C225.566 90.096 224.95 90.52 224.246 90.808C223.542 91.096 222.806 91.24 222.038 91.24C221.062 91.24 220.254 91.048 219.614 90.664C218.99 90.28 218.462 89.832 218.03 89.32V94.84H214.382V78.136H218.03V79.984C218.478 79.376 219.014 78.88 219.638 78.496C220.278 78.096 221.078 77.896 222.038 77.896C222.79 77.896 223.518 78.04 224.222 78.328C224.926 78.616 225.55 79.048 226.094 79.624C226.638 80.184 227.07 80.88 227.39 81.712C227.726 82.528 227.894 83.472 227.894 84.544V84.592ZM224.246 84.592V84.544C224.246 84.016 224.158 83.536 223.982 83.104C223.822 82.656 223.598 82.28 223.31 81.976C223.022 81.656 222.686 81.416 222.302 81.256C221.934 81.08 221.534 80.992 221.102 80.992C220.67 80.992 220.262 81.08 219.878 81.256C219.51 81.416 219.182 81.656 218.894 81.976C218.622 82.28 218.398 82.656 218.222 83.104C218.062 83.536 217.982 84.016 217.982 84.544V84.592C217.982 85.12 218.062 85.608 218.222 86.056C218.398 86.488 218.622 86.864 218.894 87.184C219.182 87.488 219.51 87.728 219.878 87.904C220.262 88.064 220.67 88.144 221.102 88.144C221.534 88.144 221.934 88.064 222.302 87.904C222.686 87.728 223.022 87.488 223.31 87.184C223.598 86.864 223.822 86.488 223.982 86.056C224.158 85.624 224.246 85.136 224.246 84.592ZM234.393 91H230.745V73.48H234.393V91ZM241.732 76.72H237.892V73.48H241.732V76.72ZM241.636 91H237.988V78.136H241.636V91ZM257.062 84.928C257.062 85.104 257.054 85.256 257.038 85.384C257.038 85.512 257.03 85.664 257.014 85.84H248.062C248.238 86.672 248.598 87.304 249.142 87.736C249.702 88.152 250.39 88.36 251.206 88.36C251.814 88.36 252.358 88.256 252.838 88.048C253.318 87.84 253.814 87.504 254.326 87.04L256.414 88.888C255.806 89.64 255.07 90.232 254.206 90.664C253.342 91.08 252.326 91.288 251.158 91.288C250.198 91.288 249.302 91.128 248.47 90.808C247.654 90.488 246.942 90.032 246.334 89.44C245.742 88.848 245.278 88.152 244.942 87.352C244.606 86.536 244.438 85.632 244.438 84.64V84.592C244.438 83.68 244.59 82.816 244.894 82C245.214 81.184 245.654 80.472 246.214 79.864C246.774 79.256 247.438 78.776 248.206 78.424C248.99 78.072 249.854 77.896 250.798 77.896C251.87 77.896 252.798 78.088 253.582 78.472C254.366 78.856 255.014 79.376 255.526 80.032C256.054 80.672 256.438 81.416 256.678 82.264C256.934 83.096 257.062 83.968 257.062 84.88V84.928ZM253.51 83.56C253.398 82.744 253.11 82.088 252.646 81.592C252.182 81.08 251.566 80.824 250.798 80.824C250.03 80.824 249.406 81.072 248.926 81.568C248.462 82.064 248.158 82.728 248.014 83.56H253.51ZM267.532 81.712H267.34C266.124 81.712 265.164 82.08 264.46 82.816C263.772 83.552 263.428 84.696 263.428 86.248V91H259.78V78.136H263.428V80.728C263.796 79.848 264.3 79.144 264.94 78.616C265.58 78.088 266.444 77.848 267.532 77.896V81.712ZM279.244 87.088C279.244 87.808 279.116 88.432 278.86 88.96C278.62 89.472 278.276 89.896 277.828 90.232C277.38 90.568 276.852 90.824 276.244 91C275.652 91.16 275.012 91.24 274.324 91.24C273.412 91.24 272.476 91.088 271.516 90.784C270.572 90.464 269.668 89.968 268.804 89.296L270.364 86.896C271.068 87.408 271.764 87.792 272.452 88.048C273.156 88.304 273.812 88.432 274.42 88.432C274.948 88.432 275.332 88.344 275.572 88.168C275.828 87.992 275.956 87.76 275.956 87.472V87.424C275.956 87.232 275.884 87.064 275.74 86.92C275.596 86.776 275.396 86.656 275.14 86.56C274.9 86.448 274.62 86.344 274.3 86.248C273.98 86.152 273.644 86.048 273.292 85.936C272.844 85.808 272.388 85.656 271.924 85.48C271.476 85.288 271.068 85.048 270.7 84.76C270.332 84.456 270.028 84.088 269.788 83.656C269.564 83.224 269.452 82.696 269.452 82.072V82.024C269.452 81.368 269.572 80.792 269.812 80.296C270.068 79.784 270.404 79.352 270.82 79C271.252 78.648 271.748 78.384 272.308 78.208C272.884 78.032 273.5 77.944 274.156 77.944C274.972 77.944 275.796 78.08 276.628 78.352C277.476 78.608 278.252 78.968 278.956 79.432L277.564 81.952C276.924 81.584 276.3 81.296 275.692 81.088C275.084 80.864 274.548 80.752 274.084 80.752C273.636 80.752 273.3 80.84 273.076 81.016C272.852 81.176 272.74 81.384 272.74 81.64V81.688C272.74 81.864 272.812 82.024 272.956 82.168C273.1 82.296 273.292 82.424 273.532 82.552C273.772 82.664 274.044 82.776 274.348 82.888C274.668 83 275.004 83.112 275.356 83.224C275.804 83.368 276.26 83.544 276.724 83.752C277.188 83.944 277.604 84.184 277.972 84.472C278.34 84.76 278.644 85.112 278.884 85.528C279.124 85.944 279.244 86.448 279.244 87.04V87.088ZM285.603 91H281.715V87.16H285.603V91Z" fill="#AD3088"/>
<path opacity="0.75" d="M518.381 79.8232V72.8454H457.597V86.35H518.381V82.7428C518.133 82.8894 517.84 82.9683 517.536 82.9683H507.403C506.467 82.9683 505.712 82.213 505.712 81.2774C505.712 80.3417 506.467 79.5865 507.403 79.5865H517.536C517.84 79.5865 518.133 79.6654 518.381 79.8119V79.8232ZM486.304 89.7318H457.597C455.737 89.7318 454.215 88.2213 454.215 86.35V72.8454C454.215 70.9855 455.726 69.4637 457.597 69.4637V37.3818C457.597 35.5218 459.107 34 460.978 34H464.359C466.219 34 467.74 35.5105 467.74 37.3818V69.4637H508.26V37.3818C508.26 35.5218 509.77 34 511.641 34H515.022C516.882 34 518.403 35.5105 518.403 37.3818V69.4637C520.263 69.4637 521.785 70.9742 521.785 72.8454V86.35C521.785 88.21 520.274 89.7318 518.403 89.7318H489.696V96.4841H524.309C525.245 96.4841 526 97.2394 526 98.175C526 99.1107 525.245 99.8659 524.309 99.8659H451.702C450.766 99.8659 450.011 99.1107 450.011 98.175C450.011 97.2394 450.766 96.4841 451.702 96.4841H486.315V89.7318H486.304ZM460.978 37.3818V69.4637H464.359V37.3818H460.978ZM511.63 37.3818V69.4637H515.011V37.3818H511.63ZM451.691 106.618H524.298C525.234 106.618 525.989 107.373 525.989 108.309C525.989 109.245 525.234 110 524.298 110H451.691C450.755 110 450 109.245 450 108.309C450 107.373 450.755 106.618 451.691 106.618ZM462.669 76.216H466.05C466.985 76.216 467.74 76.9712 467.74 77.9069C467.74 78.8425 466.985 79.5977 466.05 79.5977H462.669C461.733 79.5977 460.978 78.8425 460.978 77.9069C460.978 76.9712 461.733 76.216 462.669 76.216ZM472.801 76.216H476.182C477.118 76.216 477.873 76.9712 477.873 77.9069C477.873 78.8425 477.118 79.5977 476.182 79.5977H472.801C471.866 79.5977 471.11 78.8425 471.11 77.9069C471.11 76.9712 471.866 76.216 472.801 76.216Z" fill="white"/>
</svg>
