<svg width="543" height="144" viewBox="0 0 543 144" fill="none" xmlns="http://www.w3.org/2000/svg">
<rect width="543" height="144" rx="28" fill="white"/>
<rect x="433" width="110" height="144" rx="28" fill="#F59ADA"/>
<path d="M33.776 52.31L39.518 65H37.988L36.512 61.67H29.654L28.16 65H26.702L32.444 52.31H33.776ZM35.954 60.392L33.092 53.966L30.212 60.392H35.954ZM49.3037 63.416C48.8357 63.944 48.3017 64.376 47.7017 64.712C47.1137 65.048 46.3817 65.216 45.5057 65.216C44.8217 65.216 44.1857 65.09 43.5977 64.838C43.0217 64.574 42.5177 64.226 42.0857 63.794C41.6657 63.35 41.3357 62.834 41.0957 62.246C40.8557 61.658 40.7357 61.034 40.7357 60.374C40.7357 59.714 40.8557 59.09 41.0957 58.502C41.3357 57.902 41.6657 57.38 42.0857 56.936C42.5177 56.492 43.0217 56.144 43.5977 55.892C44.1857 55.628 44.8217 55.496 45.5057 55.496C45.9497 55.496 46.3517 55.538 46.7117 55.622C47.0717 55.706 47.4017 55.826 47.7017 55.982C48.0017 56.126 48.2777 56.3 48.5297 56.504C48.7817 56.708 49.0157 56.924 49.2317 57.152L48.3137 58.124C47.9417 57.74 47.5337 57.41 47.0897 57.134C46.6577 56.858 46.1237 56.72 45.4877 56.72C45.0197 56.72 44.5817 56.816 44.1737 57.008C43.7657 57.188 43.4117 57.446 43.1117 57.782C42.8117 58.106 42.5777 58.49 42.4097 58.934C42.2417 59.366 42.1577 59.834 42.1577 60.338C42.1577 60.842 42.2417 61.316 42.4097 61.76C42.5897 62.204 42.8297 62.594 43.1297 62.93C43.4417 63.254 43.8017 63.512 44.2097 63.704C44.6297 63.884 45.0857 63.974 45.5777 63.974C46.1777 63.974 46.7057 63.842 47.1617 63.578C47.6297 63.314 48.0497 62.984 48.4217 62.588L49.3037 63.416ZM59.3232 63.416C58.8552 63.944 58.3212 64.376 57.7212 64.712C57.1332 65.048 56.4012 65.216 55.5252 65.216C54.8412 65.216 54.2052 65.09 53.6172 64.838C53.0412 64.574 52.5372 64.226 52.1052 63.794C51.6852 63.35 51.3552 62.834 51.1152 62.246C50.8752 61.658 50.7552 61.034 50.7552 60.374C50.7552 59.714 50.8752 59.09 51.1152 58.502C51.3552 57.902 51.6852 57.38 52.1052 56.936C52.5372 56.492 53.0412 56.144 53.6172 55.892C54.2052 55.628 54.8412 55.496 55.5252 55.496C55.9692 55.496 56.3712 55.538 56.7312 55.622C57.0912 55.706 57.4212 55.826 57.7212 55.982C58.0212 56.126 58.2972 56.3 58.5492 56.504C58.8012 56.708 59.0352 56.924 59.2512 57.152L58.3332 58.124C57.9612 57.74 57.5532 57.41 57.1092 57.134C56.6772 56.858 56.1432 56.72 55.5072 56.72C55.0392 56.72 54.6012 56.816 54.1932 57.008C53.7852 57.188 53.4312 57.446 53.1312 57.782C52.8312 58.106 52.5972 58.49 52.4292 58.934C52.2612 59.366 52.1772 59.834 52.1772 60.338C52.1772 60.842 52.2612 61.316 52.4292 61.76C52.6092 62.204 52.8492 62.594 53.1492 62.93C53.4612 63.254 53.8212 63.512 54.2292 63.704C54.6492 63.884 55.1052 63.974 55.5972 63.974C56.1972 63.974 56.7252 63.842 57.1812 63.578C57.6492 63.314 58.0692 62.984 58.4412 62.588L59.3232 63.416ZM62.1787 60.86C62.2267 61.364 62.3467 61.814 62.5387 62.21C62.7307 62.594 62.9767 62.924 63.2767 63.2C63.5767 63.464 63.9127 63.668 64.2847 63.812C64.6567 63.944 65.0467 64.01 65.4547 64.01C66.1027 64.01 66.6547 63.89 67.1107 63.65C67.5787 63.41 68.0047 63.092 68.3887 62.696L69.2527 63.47C68.7847 63.998 68.2507 64.424 67.6507 64.748C67.0507 65.06 66.3067 65.216 65.4187 65.216C64.7827 65.216 64.1827 65.102 63.6187 64.874C63.0547 64.634 62.5627 64.304 62.1427 63.884C61.7227 63.452 61.3867 62.936 61.1347 62.336C60.8947 61.736 60.7747 61.076 60.7747 60.356C60.7747 59.684 60.8827 59.054 61.0987 58.466C61.3267 57.866 61.6387 57.35 62.0347 56.918C62.4307 56.474 62.8987 56.126 63.4387 55.874C63.9907 55.622 64.5907 55.496 65.2387 55.496C65.9227 55.496 66.5347 55.628 67.0747 55.892C67.6147 56.144 68.0707 56.492 68.4427 56.936C68.8147 57.38 69.0967 57.902 69.2887 58.502C69.4807 59.102 69.5767 59.744 69.5767 60.428C69.5767 60.488 69.5767 60.554 69.5767 60.626C69.5767 60.698 69.5707 60.776 69.5587 60.86H62.1787ZM62.1787 59.834H68.1727C68.1367 59.414 68.0467 59.012 67.9027 58.628C67.7707 58.244 67.5787 57.908 67.3267 57.62C67.0867 57.332 66.7867 57.104 66.4267 56.936C66.0787 56.756 65.6707 56.666 65.2027 56.666C64.7947 56.666 64.4167 56.75 64.0687 56.918C63.7207 57.074 63.4147 57.296 63.1507 57.584C62.8867 57.86 62.6707 58.19 62.5027 58.574C62.3347 58.958 62.2267 59.378 62.1787 59.834ZM78.3931 62.39C78.3931 62.834 78.3031 63.23 78.1231 63.578C77.9551 63.914 77.7211 64.202 77.4211 64.442C77.1331 64.682 76.7851 64.868 76.3771 65C75.9811 65.12 75.5491 65.18 75.0811 65.18C74.4091 65.18 73.7311 65.06 73.0471 64.82C72.3631 64.568 71.7571 64.232 71.2291 63.812L71.9311 62.822C72.4351 63.206 72.9571 63.5 73.4971 63.704C74.0491 63.908 74.6011 64.01 75.1531 64.01C75.7171 64.01 76.1791 63.878 76.5391 63.614C76.8991 63.35 77.0791 62.99 77.0791 62.534V62.498C77.0791 62.27 77.0131 62.072 76.8811 61.904C76.7611 61.736 76.5931 61.592 76.3771 61.472C76.1611 61.34 75.9091 61.226 75.6211 61.13C75.3451 61.034 75.0571 60.944 74.7571 60.86C74.3971 60.752 74.0311 60.638 73.6591 60.518C73.2991 60.386 72.9691 60.224 72.6691 60.032C72.3811 59.84 72.1411 59.6 71.9491 59.312C71.7691 59.024 71.6791 58.664 71.6791 58.232V58.196C71.6791 57.8 71.7571 57.44 71.9131 57.116C72.0691 56.78 72.2851 56.498 72.5611 56.27C72.8491 56.03 73.1851 55.85 73.5691 55.73C73.9651 55.598 74.3911 55.532 74.8471 55.532C75.4231 55.532 76.0051 55.628 76.5931 55.82C77.1811 56 77.7151 56.246 78.1951 56.558L77.5651 57.602C77.1331 57.326 76.6771 57.11 76.1971 56.954C75.7291 56.786 75.2671 56.702 74.8111 56.702C74.2591 56.702 73.8211 56.834 73.4971 57.098C73.1731 57.35 73.0111 57.668 73.0111 58.052V58.088C73.0111 58.304 73.0771 58.496 73.2091 58.664C73.3411 58.82 73.5151 58.958 73.7311 59.078C73.9591 59.198 74.2171 59.306 74.5051 59.402C74.7931 59.498 75.0931 59.594 75.4051 59.69C75.7651 59.798 76.1191 59.918 76.4671 60.05C76.8271 60.182 77.1511 60.35 77.4391 60.554C77.7271 60.758 77.9551 61.004 78.1231 61.292C78.3031 61.58 78.3931 61.934 78.3931 62.354V62.39ZM87.1821 62.39C87.1821 62.834 87.0921 63.23 86.9121 63.578C86.7441 63.914 86.5101 64.202 86.2101 64.442C85.9221 64.682 85.5741 64.868 85.1661 65C84.7701 65.12 84.3381 65.18 83.8701 65.18C83.1981 65.18 82.5201 65.06 81.8361 64.82C81.1521 64.568 80.5461 64.232 80.0181 63.812L80.7201 62.822C81.2241 63.206 81.7461 63.5 82.2861 63.704C82.8381 63.908 83.3901 64.01 83.9421 64.01C84.5061 64.01 84.9681 63.878 85.3281 63.614C85.6881 63.35 85.8681 62.99 85.8681 62.534V62.498C85.8681 62.27 85.8021 62.072 85.6701 61.904C85.5501 61.736 85.3821 61.592 85.1661 61.472C84.9501 61.34 84.6981 61.226 84.4101 61.13C84.1341 61.034 83.8461 60.944 83.5461 60.86C83.1861 60.752 82.8201 60.638 82.4481 60.518C82.0881 60.386 81.7581 60.224 81.4581 60.032C81.1701 59.84 80.9301 59.6 80.7381 59.312C80.5581 59.024 80.4681 58.664 80.4681 58.232V58.196C80.4681 57.8 80.5461 57.44 80.7021 57.116C80.8581 56.78 81.0741 56.498 81.3501 56.27C81.6381 56.03 81.9741 55.85 82.3581 55.73C82.7541 55.598 83.1801 55.532 83.6361 55.532C84.2121 55.532 84.7941 55.628 85.3821 55.82C85.9701 56 86.5041 56.246 86.9841 56.558L86.3541 57.602C85.9221 57.326 85.4661 57.11 84.9861 56.954C84.5181 56.786 84.0561 56.702 83.6001 56.702C83.0481 56.702 82.6101 56.834 82.2861 57.098C81.9621 57.35 81.8001 57.668 81.8001 58.052V58.088C81.8001 58.304 81.8661 58.496 81.9981 58.664C82.1301 58.82 82.3041 58.958 82.5201 59.078C82.7481 59.198 83.0061 59.306 83.2941 59.402C83.5821 59.498 83.8821 59.594 84.1941 59.69C84.5541 59.798 84.9081 59.918 85.2561 60.05C85.6161 60.182 85.9401 60.35 86.2281 60.554C86.5161 60.758 86.7441 61.004 86.9121 61.292C87.0921 61.58 87.1821 61.934 87.1821 62.354V62.39ZM100.409 53.048C99.0295 53.924 97.9855 54.914 97.2775 56.018C96.5815 57.11 96.2335 58.382 96.2335 59.834C96.2335 61.286 96.5815 62.564 97.2775 63.668C97.9855 64.76 99.0295 65.744 100.409 66.62L99.8155 67.538C98.2075 66.638 96.9715 65.546 96.1075 64.262C95.2555 62.978 94.8295 61.502 94.8295 59.834C94.8295 58.166 95.2555 56.69 96.1075 55.406C96.9715 54.122 98.2075 53.03 99.8155 52.13L100.409 53.048ZM104.47 65H103.084V51.86H104.47V65ZM111.053 56.792C110.501 56.792 109.997 56.858 109.541 56.99C109.097 57.11 108.659 57.272 108.227 57.476L107.813 56.342C108.329 56.102 108.851 55.916 109.379 55.784C109.907 55.64 110.513 55.568 111.197 55.568C112.469 55.568 113.447 55.886 114.131 56.522C114.815 57.146 115.157 58.076 115.157 59.312V65H113.825V63.596C113.501 64.016 113.063 64.388 112.511 64.712C111.971 65.036 111.287 65.198 110.459 65.198C110.027 65.198 109.601 65.138 109.181 65.018C108.773 64.898 108.401 64.718 108.065 64.478C107.741 64.226 107.477 63.92 107.273 63.56C107.081 63.2 106.985 62.774 106.985 62.282C106.985 61.79 107.081 61.358 107.273 60.986C107.465 60.602 107.735 60.284 108.083 60.032C108.443 59.78 108.863 59.588 109.343 59.456C109.835 59.324 110.375 59.258 110.963 59.258C111.563 59.258 112.085 59.294 112.529 59.366C112.973 59.438 113.405 59.534 113.825 59.654V59.33C113.825 58.49 113.579 57.86 113.087 57.44C112.607 57.008 111.929 56.792 111.053 56.792ZM111.107 60.284C110.231 60.284 109.559 60.458 109.091 60.806C108.623 61.154 108.389 61.628 108.389 62.228C108.389 62.528 108.449 62.792 108.569 63.02C108.701 63.248 108.875 63.446 109.091 63.614C109.307 63.77 109.553 63.89 109.829 63.974C110.117 64.058 110.417 64.1 110.729 64.1C111.161 64.1 111.563 64.04 111.935 63.92C112.319 63.788 112.649 63.614 112.925 63.398C113.213 63.17 113.435 62.906 113.591 62.606C113.759 62.294 113.843 61.952 113.843 61.58V60.68C113.495 60.584 113.093 60.494 112.637 60.41C112.193 60.326 111.683 60.284 111.107 60.284ZM124.501 62.39C124.501 62.834 124.411 63.23 124.231 63.578C124.063 63.914 123.829 64.202 123.529 64.442C123.241 64.682 122.893 64.868 122.485 65C122.089 65.12 121.657 65.18 121.188 65.18C120.517 65.18 119.839 65.06 119.155 64.82C118.471 64.568 117.865 64.232 117.337 63.812L118.039 62.822C118.543 63.206 119.065 63.5 119.605 63.704C120.157 63.908 120.709 64.01 121.261 64.01C121.825 64.01 122.287 63.878 122.647 63.614C123.007 63.35 123.187 62.99 123.187 62.534V62.498C123.187 62.27 123.121 62.072 122.989 61.904C122.869 61.736 122.701 61.592 122.485 61.472C122.269 61.34 122.017 61.226 121.729 61.13C121.452 61.034 121.165 60.944 120.865 60.86C120.505 60.752 120.139 60.638 119.767 60.518C119.407 60.386 119.077 60.224 118.777 60.032C118.489 59.84 118.249 59.6 118.057 59.312C117.877 59.024 117.787 58.664 117.787 58.232V58.196C117.787 57.8 117.865 57.44 118.021 57.116C118.177 56.78 118.393 56.498 118.669 56.27C118.957 56.03 119.293 55.85 119.677 55.73C120.073 55.598 120.499 55.532 120.955 55.532C121.531 55.532 122.113 55.628 122.701 55.82C123.289 56 123.823 56.246 124.303 56.558L123.673 57.602C123.241 57.326 122.785 57.11 122.305 56.954C121.837 56.786 121.375 56.702 120.919 56.702C120.367 56.702 119.929 56.834 119.605 57.098C119.281 57.35 119.119 57.668 119.119 58.052V58.088C119.119 58.304 119.185 58.496 119.317 58.664C119.449 58.82 119.623 58.958 119.839 59.078C120.067 59.198 120.325 59.306 120.613 59.402C120.901 59.498 121.201 59.594 121.513 59.69C121.873 59.798 122.227 59.918 122.575 60.05C122.935 60.182 123.259 60.35 123.547 60.554C123.835 60.758 124.063 61.004 124.231 61.292C124.411 61.58 124.501 61.934 124.501 62.354V62.39ZM128.772 56.918V62.354C128.772 62.93 128.916 63.332 129.204 63.56C129.492 63.788 129.87 63.902 130.338 63.902C130.578 63.902 130.8 63.878 131.004 63.83C131.22 63.782 131.448 63.698 131.688 63.578V64.766C131.448 64.898 131.19 64.994 130.914 65.054C130.65 65.126 130.35 65.162 130.014 65.162C129.642 65.162 129.294 65.114 128.97 65.018C128.646 64.922 128.364 64.772 128.124 64.568C127.896 64.352 127.716 64.076 127.584 63.74C127.452 63.404 127.386 63.002 127.386 62.534V56.918H126.09V55.694H127.386V52.886H128.772V55.694H131.724V56.918H128.772ZM146.953 57.35C147.121 57.098 147.307 56.858 147.511 56.63C147.727 56.402 147.967 56.204 148.231 56.036C148.495 55.868 148.789 55.736 149.113 55.64C149.449 55.544 149.821 55.496 150.229 55.496C151.309 55.496 152.155 55.832 152.767 56.504C153.379 57.164 153.685 58.076 153.685 59.24V65H152.299V59.564C152.299 58.664 152.083 57.974 151.651 57.494C151.231 57.002 150.643 56.756 149.887 56.756C149.539 56.756 149.209 56.822 148.897 56.954C148.585 57.074 148.309 57.26 148.069 57.512C147.841 57.752 147.655 58.052 147.511 58.412C147.379 58.772 147.313 59.18 147.313 59.636V65H145.945V59.528C145.945 58.652 145.729 57.974 145.297 57.494C144.877 57.002 144.295 56.756 143.551 56.756C143.179 56.756 142.837 56.828 142.525 56.972C142.213 57.116 141.937 57.32 141.697 57.584C141.469 57.848 141.289 58.16 141.157 58.52C141.025 58.868 140.959 59.258 140.959 59.69V65H139.573V55.694H140.959V57.26C141.115 57.032 141.283 56.81 141.463 56.594C141.655 56.378 141.871 56.192 142.111 56.036C142.351 55.868 142.621 55.736 142.921 55.64C143.221 55.544 143.569 55.496 143.965 55.496C144.721 55.496 145.345 55.676 145.837 56.036C146.329 56.384 146.701 56.822 146.953 57.35ZM158.314 53.66H156.73V52.13H158.314V53.66ZM158.206 65H156.82V55.694H158.206V65ZM162.935 65H161.549V51.86H162.935V65ZM166.98 60.86C167.028 61.364 167.148 61.814 167.34 62.21C167.532 62.594 167.778 62.924 168.078 63.2C168.378 63.464 168.714 63.668 169.086 63.812C169.458 63.944 169.848 64.01 170.256 64.01C170.904 64.01 171.456 63.89 171.912 63.65C172.38 63.41 172.806 63.092 173.19 62.696L174.054 63.47C173.586 63.998 173.052 64.424 172.452 64.748C171.852 65.06 171.108 65.216 170.22 65.216C169.584 65.216 168.984 65.102 168.42 64.874C167.856 64.634 167.364 64.304 166.944 63.884C166.524 63.452 166.188 62.936 165.936 62.336C165.696 61.736 165.576 61.076 165.576 60.356C165.576 59.684 165.684 59.054 165.9 58.466C166.128 57.866 166.44 57.35 166.836 56.918C167.232 56.474 167.7 56.126 168.24 55.874C168.792 55.622 169.392 55.496 170.04 55.496C170.724 55.496 171.336 55.628 171.876 55.892C172.416 56.144 172.872 56.492 173.244 56.936C173.616 57.38 173.898 57.902 174.09 58.502C174.282 59.102 174.378 59.744 174.378 60.428C174.378 60.488 174.378 60.554 174.378 60.626C174.378 60.698 174.372 60.776 174.36 60.86H166.98ZM166.98 59.834H172.974C172.938 59.414 172.848 59.012 172.704 58.628C172.572 58.244 172.38 57.908 172.128 57.62C171.888 57.332 171.588 57.104 171.228 56.936C170.88 56.756 170.472 56.666 170.004 56.666C169.596 56.666 169.218 56.75 168.87 56.918C168.522 57.074 168.216 57.296 167.952 57.584C167.688 57.86 167.472 58.19 167.304 58.574C167.136 58.958 167.028 59.378 166.98 59.834ZM191.326 60.338C191.326 60.998 191.2 61.628 190.948 62.228C190.708 62.816 190.372 63.332 189.94 63.776C189.508 64.22 188.992 64.574 188.392 64.838C187.792 65.09 187.144 65.216 186.448 65.216C185.752 65.216 185.11 65.09 184.522 64.838C183.934 64.574 183.424 64.226 182.992 63.794C182.56 63.35 182.224 62.834 181.984 62.246C181.744 61.658 181.624 61.034 181.624 60.374C181.624 59.714 181.744 59.09 181.984 58.502C182.224 57.902 182.56 57.38 182.992 56.936C183.424 56.492 183.934 56.144 184.522 55.892C185.122 55.628 185.776 55.496 186.484 55.496C187.18 55.496 187.822 55.628 188.41 55.892C189.01 56.144 189.526 56.492 189.958 56.936C190.39 57.368 190.726 57.878 190.966 58.466C191.206 59.054 191.326 59.678 191.326 60.338ZM189.904 60.374C189.904 59.87 189.814 59.396 189.634 58.952C189.466 58.508 189.226 58.124 188.914 57.8C188.602 57.464 188.236 57.2 187.816 57.008C187.396 56.816 186.94 56.72 186.448 56.72C185.944 56.72 185.482 56.816 185.062 57.008C184.642 57.188 184.282 57.446 183.982 57.782C183.694 58.106 183.466 58.49 183.298 58.934C183.13 59.366 183.046 59.834 183.046 60.338C183.046 60.842 183.13 61.316 183.298 61.76C183.478 62.204 183.718 62.588 184.018 62.912C184.33 63.236 184.696 63.494 185.116 63.686C185.536 63.878 185.992 63.974 186.484 63.974C186.988 63.974 187.45 63.884 187.87 63.704C188.29 63.512 188.65 63.254 188.95 62.93C189.25 62.606 189.484 62.228 189.652 61.796C189.82 61.352 189.904 60.878 189.904 60.374ZM195.727 55.73H198.679V56.918H195.745V65H194.359V56.918H193.081V55.712H194.359V54.902C194.359 53.882 194.599 53.108 195.079 52.58C195.571 52.052 196.267 51.788 197.167 51.788C197.491 51.788 197.767 51.806 197.995 51.842C198.235 51.878 198.469 51.938 198.697 52.022V53.228C198.445 53.156 198.217 53.102 198.013 53.066C197.809 53.018 197.587 52.994 197.347 52.994C196.267 52.994 195.727 53.654 195.727 54.974V55.73ZM202.336 55.73H205.288V56.918H202.354V65H200.968V56.918H199.69V55.712H200.968V54.902C200.968 53.882 201.208 53.108 201.688 52.58C202.18 52.052 202.876 51.788 203.776 51.788C204.1 51.788 204.376 51.806 204.604 51.842C204.844 51.878 205.078 51.938 205.306 52.022V53.228C205.054 53.156 204.826 53.102 204.622 53.066C204.418 53.018 204.196 52.994 203.956 52.994C202.876 52.994 202.336 53.654 202.336 54.974V55.73ZM214.324 56.918V62.354C214.324 62.93 214.468 63.332 214.756 63.56C215.044 63.788 215.422 63.902 215.89 63.902C216.13 63.902 216.352 63.878 216.556 63.83C216.772 63.782 217 63.698 217.24 63.578V64.766C217 64.898 216.742 64.994 216.466 65.054C216.202 65.126 215.902 65.162 215.566 65.162C215.194 65.162 214.846 65.114 214.522 65.018C214.198 64.922 213.916 64.772 213.676 64.568C213.448 64.352 213.268 64.076 213.136 63.74C213.004 63.404 212.938 63.002 212.938 62.534V56.918H211.642V55.694H212.938V52.886H214.324V55.694H217.276V56.918H214.324ZM221.116 59.672V65H219.73V51.86H221.116V57.314C221.428 56.81 221.836 56.384 222.34 56.036C222.844 55.676 223.498 55.496 224.302 55.496C224.866 55.496 225.364 55.586 225.796 55.766C226.24 55.946 226.612 56.204 226.912 56.54C227.224 56.864 227.458 57.254 227.614 57.71C227.782 58.166 227.866 58.67 227.866 59.222V65H226.48V59.564C226.48 58.7 226.258 58.016 225.814 57.512C225.37 57.008 224.734 56.756 223.906 56.756C223.51 56.756 223.138 56.828 222.79 56.972C222.454 57.104 222.16 57.302 221.908 57.566C221.656 57.818 221.458 58.124 221.314 58.484C221.182 58.844 221.116 59.24 221.116 59.672ZM231.649 60.86C231.697 61.364 231.817 61.814 232.009 62.21C232.201 62.594 232.447 62.924 232.747 63.2C233.047 63.464 233.383 63.668 233.755 63.812C234.127 63.944 234.517 64.01 234.925 64.01C235.573 64.01 236.125 63.89 236.581 63.65C237.049 63.41 237.475 63.092 237.859 62.696L238.723 63.47C238.255 63.998 237.721 64.424 237.121 64.748C236.521 65.06 235.777 65.216 234.889 65.216C234.253 65.216 233.653 65.102 233.089 64.874C232.525 64.634 232.033 64.304 231.613 63.884C231.193 63.452 230.857 62.936 230.605 62.336C230.365 61.736 230.245 61.076 230.245 60.356C230.245 59.684 230.353 59.054 230.569 58.466C230.797 57.866 231.109 57.35 231.505 56.918C231.901 56.474 232.369 56.126 232.909 55.874C233.461 55.622 234.061 55.496 234.709 55.496C235.393 55.496 236.005 55.628 236.545 55.892C237.085 56.144 237.541 56.492 237.913 56.936C238.285 57.38 238.567 57.902 238.759 58.502C238.951 59.102 239.047 59.744 239.047 60.428C239.047 60.488 239.047 60.554 239.047 60.626C239.047 60.698 239.041 60.776 239.029 60.86H231.649ZM231.649 59.834H237.643C237.607 59.414 237.517 59.012 237.373 58.628C237.241 58.244 237.049 57.908 236.797 57.62C236.557 57.332 236.257 57.104 235.897 56.936C235.549 56.756 235.141 56.666 234.673 56.666C234.265 56.666 233.887 56.75 233.539 56.918C233.191 57.074 232.885 57.296 232.621 57.584C232.357 57.86 232.141 58.19 231.973 58.574C231.805 58.958 231.697 59.378 231.649 59.834ZM248.256 59.672V65H246.87V55.694H248.256V57.314C248.568 56.81 248.976 56.384 249.48 56.036C249.984 55.676 250.638 55.496 251.442 55.496C252.006 55.496 252.504 55.586 252.936 55.766C253.38 55.946 253.752 56.204 254.052 56.54C254.364 56.864 254.598 57.254 254.754 57.71C254.922 58.166 255.006 58.67 255.006 59.222V65H253.62V59.564C253.62 58.7 253.398 58.016 252.954 57.512C252.51 57.008 251.874 56.756 251.046 56.756C250.65 56.756 250.278 56.828 249.93 56.972C249.594 57.104 249.3 57.302 249.048 57.566C248.796 57.818 248.598 58.124 248.454 58.484C248.322 58.844 248.256 59.24 248.256 59.672ZM258.79 60.86C258.838 61.364 258.958 61.814 259.15 62.21C259.342 62.594 259.588 62.924 259.888 63.2C260.188 63.464 260.524 63.668 260.896 63.812C261.268 63.944 261.658 64.01 262.066 64.01C262.714 64.01 263.266 63.89 263.722 63.65C264.19 63.41 264.616 63.092 265 62.696L265.864 63.47C265.396 63.998 264.862 64.424 264.262 64.748C263.662 65.06 262.918 65.216 262.03 65.216C261.394 65.216 260.794 65.102 260.23 64.874C259.666 64.634 259.174 64.304 258.754 63.884C258.334 63.452 257.998 62.936 257.746 62.336C257.506 61.736 257.386 61.076 257.386 60.356C257.386 59.684 257.494 59.054 257.71 58.466C257.938 57.866 258.25 57.35 258.646 56.918C259.042 56.474 259.51 56.126 260.05 55.874C260.602 55.622 261.202 55.496 261.85 55.496C262.534 55.496 263.146 55.628 263.686 55.892C264.226 56.144 264.682 56.492 265.054 56.936C265.426 57.38 265.708 57.902 265.9 58.502C266.092 59.102 266.188 59.744 266.188 60.428C266.188 60.488 266.188 60.554 266.188 60.626C266.188 60.698 266.182 60.776 266.17 60.86H258.79ZM258.79 59.834H264.784C264.748 59.414 264.658 59.012 264.514 58.628C264.382 58.244 264.19 57.908 263.938 57.62C263.698 57.332 263.398 57.104 263.038 56.936C262.69 56.756 262.282 56.666 261.814 56.666C261.406 56.666 261.028 56.75 260.68 56.918C260.332 57.074 260.026 57.296 259.762 57.584C259.498 57.86 259.282 58.19 259.114 58.574C258.946 58.958 258.838 59.378 258.79 59.834ZM270.486 56.918V62.354C270.486 62.93 270.63 63.332 270.918 63.56C271.206 63.788 271.584 63.902 272.052 63.902C272.292 63.902 272.514 63.878 272.718 63.83C272.934 63.782 273.162 63.698 273.402 63.578V64.766C273.162 64.898 272.904 64.994 272.628 65.054C272.364 65.126 272.064 65.162 271.728 65.162C271.356 65.162 271.008 65.114 270.684 65.018C270.36 64.922 270.078 64.772 269.838 64.568C269.61 64.352 269.43 64.076 269.298 63.74C269.166 63.404 269.1 63.002 269.1 62.534V56.918H267.804V55.694H269.1V52.886H270.486V55.694H273.438V56.918H270.486ZM284.654 56.792C284.102 56.792 283.598 56.858 283.142 56.99C282.698 57.11 282.26 57.272 281.828 57.476L281.414 56.342C281.93 56.102 282.452 55.916 282.98 55.784C283.508 55.64 284.114 55.568 284.798 55.568C286.07 55.568 287.048 55.886 287.732 56.522C288.416 57.146 288.758 58.076 288.758 59.312V65H287.426V63.596C287.102 64.016 286.664 64.388 286.112 64.712C285.572 65.036 284.888 65.198 284.06 65.198C283.628 65.198 283.202 65.138 282.782 65.018C282.374 64.898 282.002 64.718 281.666 64.478C281.342 64.226 281.078 63.92 280.874 63.56C280.682 63.2 280.586 62.774 280.586 62.282C280.586 61.79 280.682 61.358 280.874 60.986C281.066 60.602 281.336 60.284 281.684 60.032C282.044 59.78 282.464 59.588 282.944 59.456C283.436 59.324 283.976 59.258 284.564 59.258C285.164 59.258 285.686 59.294 286.13 59.366C286.574 59.438 287.006 59.534 287.426 59.654V59.33C287.426 58.49 287.18 57.86 286.688 57.44C286.208 57.008 285.53 56.792 284.654 56.792ZM284.708 60.284C283.832 60.284 283.16 60.458 282.692 60.806C282.224 61.154 281.99 61.628 281.99 62.228C281.99 62.528 282.05 62.792 282.17 63.02C282.302 63.248 282.476 63.446 282.692 63.614C282.908 63.77 283.154 63.89 283.43 63.974C283.718 64.058 284.018 64.1 284.33 64.1C284.762 64.1 285.164 64.04 285.536 63.92C285.92 63.788 286.25 63.614 286.526 63.398C286.814 63.17 287.036 62.906 287.192 62.606C287.36 62.294 287.444 61.952 287.444 61.58V60.68C287.096 60.584 286.694 60.494 286.238 60.41C285.794 60.326 285.284 60.284 284.708 60.284ZM293.098 59.672V65H291.712V55.694H293.098V57.314C293.41 56.81 293.818 56.384 294.322 56.036C294.826 55.676 295.48 55.496 296.284 55.496C296.848 55.496 297.346 55.586 297.778 55.766C298.222 55.946 298.594 56.204 298.894 56.54C299.206 56.864 299.44 57.254 299.596 57.71C299.764 58.166 299.848 58.67 299.848 59.222V65H298.462V59.564C298.462 58.7 298.24 58.016 297.796 57.512C297.352 57.008 296.716 56.756 295.888 56.756C295.492 56.756 295.12 56.828 294.772 56.972C294.436 57.104 294.142 57.302 293.89 57.566C293.638 57.818 293.44 58.124 293.296 58.484C293.164 58.844 293.098 59.24 293.098 59.672ZM311.66 65H310.274V63.128C310.082 63.404 309.866 63.668 309.626 63.92C309.398 64.172 309.14 64.394 308.852 64.586C308.564 64.778 308.24 64.928 307.88 65.036C307.532 65.144 307.142 65.198 306.71 65.198C306.146 65.198 305.6 65.09 305.072 64.874C304.544 64.658 304.07 64.346 303.65 63.938C303.23 63.518 302.894 63.008 302.642 62.408C302.39 61.808 302.264 61.124 302.264 60.356C302.264 59.588 302.39 58.904 302.642 58.304C302.894 57.704 303.23 57.2 303.65 56.792C304.07 56.372 304.544 56.054 305.072 55.838C305.6 55.61 306.146 55.496 306.71 55.496C307.142 55.496 307.538 55.55 307.898 55.658C308.258 55.766 308.582 55.91 308.87 56.09C309.158 56.27 309.416 56.48 309.644 56.72C309.884 56.96 310.094 57.212 310.274 57.476V51.86H311.66V65ZM310.328 60.338C310.328 59.798 310.232 59.306 310.04 58.862C309.86 58.418 309.608 58.04 309.284 57.728C308.972 57.416 308.612 57.176 308.204 57.008C307.808 56.828 307.394 56.738 306.962 56.738C306.506 56.738 306.08 56.822 305.684 56.99C305.288 57.146 304.94 57.38 304.64 57.692C304.352 57.992 304.118 58.37 303.938 58.826C303.77 59.27 303.686 59.774 303.686 60.338C303.686 60.89 303.77 61.388 303.938 61.832C304.118 62.276 304.358 62.66 304.658 62.984C304.958 63.296 305.306 63.536 305.702 63.704C306.098 63.872 306.518 63.956 306.962 63.956C307.394 63.956 307.808 63.872 308.204 63.704C308.612 63.524 308.972 63.278 309.284 62.966C309.608 62.654 309.86 62.276 310.04 61.832C310.232 61.376 310.328 60.878 310.328 60.338ZM329.549 60.338C329.549 61.106 329.423 61.79 329.171 62.39C328.919 62.99 328.583 63.5 328.163 63.92C327.755 64.328 327.281 64.646 326.741 64.874C326.213 65.09 325.667 65.198 325.103 65.198C324.671 65.198 324.275 65.144 323.915 65.036C323.555 64.928 323.231 64.784 322.943 64.604C322.655 64.424 322.391 64.214 322.151 63.974C321.923 63.734 321.719 63.482 321.539 63.218V65H320.153V51.86H321.539V57.566C321.731 57.29 321.941 57.026 322.169 56.774C322.409 56.522 322.673 56.306 322.961 56.126C323.249 55.934 323.567 55.784 323.915 55.676C324.275 55.556 324.671 55.496 325.103 55.496C325.655 55.496 326.195 55.604 326.723 55.82C327.263 56.036 327.743 56.354 328.163 56.774C328.583 57.182 328.919 57.686 329.171 58.286C329.423 58.886 329.549 59.57 329.549 60.338ZM328.127 60.356C328.127 59.804 328.037 59.306 327.857 58.862C327.689 58.418 327.455 58.04 327.155 57.728C326.855 57.404 326.507 57.158 326.111 56.99C325.715 56.822 325.295 56.738 324.851 56.738C324.419 56.738 323.999 56.828 323.591 57.008C323.195 57.176 322.835 57.416 322.511 57.728C322.199 58.04 321.947 58.418 321.755 58.862C321.575 59.306 321.485 59.798 321.485 60.338C321.485 60.878 321.575 61.376 321.755 61.832C321.947 62.276 322.199 62.654 322.511 62.966C322.835 63.278 323.195 63.524 323.591 63.704C323.999 63.872 324.419 63.956 324.851 63.956C325.295 63.956 325.715 63.878 326.111 63.722C326.519 63.554 326.867 63.32 327.155 63.02C327.455 62.708 327.689 62.33 327.857 61.886C328.037 61.43 328.127 60.92 328.127 60.356ZM335.473 56.792C334.921 56.792 334.417 56.858 333.961 56.99C333.517 57.11 333.079 57.272 332.647 57.476L332.233 56.342C332.749 56.102 333.271 55.916 333.799 55.784C334.327 55.64 334.933 55.568 335.617 55.568C336.889 55.568 337.867 55.886 338.551 56.522C339.235 57.146 339.577 58.076 339.577 59.312V65H338.245V63.596C337.921 64.016 337.483 64.388 336.931 64.712C336.391 65.036 335.707 65.198 334.879 65.198C334.447 65.198 334.021 65.138 333.601 65.018C333.193 64.898 332.821 64.718 332.485 64.478C332.161 64.226 331.897 63.92 331.693 63.56C331.501 63.2 331.405 62.774 331.405 62.282C331.405 61.79 331.501 61.358 331.693 60.986C331.885 60.602 332.155 60.284 332.503 60.032C332.863 59.78 333.283 59.588 333.763 59.456C334.255 59.324 334.795 59.258 335.383 59.258C335.983 59.258 336.505 59.294 336.949 59.366C337.393 59.438 337.825 59.534 338.245 59.654V59.33C338.245 58.49 337.999 57.86 337.507 57.44C337.027 57.008 336.349 56.792 335.473 56.792ZM335.527 60.284C334.651 60.284 333.979 60.458 333.511 60.806C333.043 61.154 332.809 61.628 332.809 62.228C332.809 62.528 332.869 62.792 332.989 63.02C333.121 63.248 333.295 63.446 333.511 63.614C333.727 63.77 333.973 63.89 334.249 63.974C334.537 64.058 334.837 64.1 335.149 64.1C335.581 64.1 335.983 64.04 336.355 63.92C336.739 63.788 337.069 63.614 337.345 63.398C337.633 63.17 337.855 62.906 338.011 62.606C338.179 62.294 338.263 61.952 338.263 61.58V60.68C337.915 60.584 337.513 60.494 337.057 60.41C336.613 60.326 336.103 60.284 335.527 60.284ZM350.522 63.416C350.054 63.944 349.52 64.376 348.92 64.712C348.332 65.048 347.6 65.216 346.724 65.216C346.04 65.216 345.404 65.09 344.816 64.838C344.24 64.574 343.736 64.226 343.304 63.794C342.884 63.35 342.554 62.834 342.314 62.246C342.074 61.658 341.954 61.034 341.954 60.374C341.954 59.714 342.074 59.09 342.314 58.502C342.554 57.902 342.884 57.38 343.304 56.936C343.736 56.492 344.24 56.144 344.816 55.892C345.404 55.628 346.04 55.496 346.724 55.496C347.168 55.496 347.57 55.538 347.93 55.622C348.29 55.706 348.62 55.826 348.92 55.982C349.22 56.126 349.496 56.3 349.748 56.504C350 56.708 350.234 56.924 350.45 57.152L349.532 58.124C349.16 57.74 348.752 57.41 348.308 57.134C347.876 56.858 347.342 56.72 346.706 56.72C346.238 56.72 345.8 56.816 345.392 57.008C344.984 57.188 344.63 57.446 344.33 57.782C344.03 58.106 343.796 58.49 343.628 58.934C343.46 59.366 343.376 59.834 343.376 60.338C343.376 60.842 343.46 61.316 343.628 61.76C343.808 62.204 344.048 62.594 344.348 62.93C344.66 63.254 345.02 63.512 345.428 63.704C345.848 63.884 346.304 63.974 346.796 63.974C347.396 63.974 347.924 63.842 348.38 63.578C348.848 63.314 349.268 62.984 349.64 62.588L350.522 63.416ZM357.044 59.69L361.076 65H359.42L356.09 60.662L354.2 62.57V65H352.814V51.86H354.2V60.932L359.222 55.694H360.95L357.044 59.69ZM372.458 60.338C372.458 61.106 372.332 61.79 372.08 62.39C371.828 62.99 371.492 63.5 371.072 63.92C370.664 64.328 370.19 64.646 369.65 64.874C369.122 65.09 368.576 65.198 368.012 65.198C367.58 65.198 367.184 65.144 366.824 65.036C366.464 64.928 366.14 64.784 365.852 64.604C365.564 64.424 365.3 64.214 365.06 63.974C364.832 63.734 364.628 63.482 364.448 63.218V65H363.062V51.86H364.448V57.566C364.64 57.29 364.85 57.026 365.078 56.774C365.318 56.522 365.582 56.306 365.87 56.126C366.158 55.934 366.476 55.784 366.824 55.676C367.184 55.556 367.58 55.496 368.012 55.496C368.564 55.496 369.104 55.604 369.632 55.82C370.172 56.036 370.652 56.354 371.072 56.774C371.492 57.182 371.828 57.686 372.08 58.286C372.332 58.886 372.458 59.57 372.458 60.338ZM371.036 60.356C371.036 59.804 370.946 59.306 370.766 58.862C370.598 58.418 370.364 58.04 370.064 57.728C369.764 57.404 369.416 57.158 369.02 56.99C368.624 56.822 368.204 56.738 367.76 56.738C367.328 56.738 366.908 56.828 366.5 57.008C366.104 57.176 365.744 57.416 365.42 57.728C365.108 58.04 364.856 58.418 364.664 58.862C364.484 59.306 364.394 59.798 364.394 60.338C364.394 60.878 364.484 61.376 364.664 61.832C364.856 62.276 365.108 62.654 365.42 62.966C365.744 63.278 366.104 63.524 366.5 63.704C366.908 63.872 367.328 63.956 367.76 63.956C368.204 63.956 368.624 63.878 369.02 63.722C369.428 63.554 369.776 63.32 370.064 63.02C370.364 62.708 370.598 62.33 370.766 61.886C370.946 61.43 371.036 60.92 371.036 60.356ZM384.141 60.338C384.141 60.998 384.015 61.628 383.763 62.228C383.523 62.816 383.187 63.332 382.755 63.776C382.323 64.22 381.807 64.574 381.207 64.838C380.607 65.09 379.959 65.216 379.263 65.216C378.567 65.216 377.925 65.09 377.337 64.838C376.749 64.574 376.239 64.226 375.807 63.794C375.375 63.35 375.039 62.834 374.799 62.246C374.559 61.658 374.439 61.034 374.439 60.374C374.439 59.714 374.559 59.09 374.799 58.502C375.039 57.902 375.375 57.38 375.807 56.936C376.239 56.492 376.749 56.144 377.337 55.892C377.937 55.628 378.591 55.496 379.299 55.496C379.995 55.496 380.637 55.628 381.225 55.892C381.825 56.144 382.341 56.492 382.773 56.936C383.205 57.368 383.541 57.878 383.781 58.466C384.021 59.054 384.141 59.678 384.141 60.338ZM382.719 60.374C382.719 59.87 382.629 59.396 382.449 58.952C382.281 58.508 382.041 58.124 381.729 57.8C381.417 57.464 381.051 57.2 380.631 57.008C380.211 56.816 379.755 56.72 379.263 56.72C378.759 56.72 378.297 56.816 377.877 57.008C377.457 57.188 377.097 57.446 376.797 57.782C376.509 58.106 376.281 58.49 376.113 58.934C375.945 59.366 375.861 59.834 375.861 60.338C375.861 60.842 375.945 61.316 376.113 61.76C376.293 62.204 376.533 62.588 376.833 62.912C377.145 63.236 377.511 63.494 377.931 63.686C378.351 63.878 378.807 63.974 379.299 63.974C379.803 63.974 380.265 63.884 380.685 63.704C381.105 63.512 381.465 63.254 381.765 62.93C382.065 62.606 382.299 62.228 382.467 61.796C382.635 61.352 382.719 60.878 382.719 60.374ZM388.038 59.672V65H386.652V55.694H388.038V57.314C388.35 56.81 388.758 56.384 389.262 56.036C389.766 55.676 390.42 55.496 391.224 55.496C391.788 55.496 392.286 55.586 392.718 55.766C393.162 55.946 393.534 56.204 393.834 56.54C394.146 56.864 394.38 57.254 394.536 57.71C394.704 58.166 394.788 58.67 394.788 59.222V65H393.402V59.564C393.402 58.7 393.18 58.016 392.736 57.512C392.292 57.008 391.656 56.756 390.828 56.756C390.432 56.756 390.06 56.828 389.712 56.972C389.376 57.104 389.082 57.302 388.83 57.566C388.578 57.818 388.38 58.124 388.236 58.484C388.104 58.844 388.038 59.24 388.038 59.672ZM398.571 60.86C398.619 61.364 398.739 61.814 398.931 62.21C399.123 62.594 399.369 62.924 399.669 63.2C399.969 63.464 400.305 63.668 400.677 63.812C401.049 63.944 401.439 64.01 401.847 64.01C402.495 64.01 403.047 63.89 403.503 63.65C403.971 63.41 404.397 63.092 404.781 62.696L405.645 63.47C405.177 63.998 404.643 64.424 404.043 64.748C403.443 65.06 402.699 65.216 401.811 65.216C401.175 65.216 400.575 65.102 400.011 64.874C399.447 64.634 398.955 64.304 398.535 63.884C398.115 63.452 397.779 62.936 397.527 62.336C397.287 61.736 397.167 61.076 397.167 60.356C397.167 59.684 397.275 59.054 397.491 58.466C397.719 57.866 398.031 57.35 398.427 56.918C398.823 56.474 399.291 56.126 399.831 55.874C400.383 55.622 400.983 55.496 401.631 55.496C402.315 55.496 402.927 55.628 403.467 55.892C404.007 56.144 404.463 56.492 404.835 56.936C405.207 57.38 405.489 57.902 405.681 58.502C405.873 59.102 405.969 59.744 405.969 60.428C405.969 60.488 405.969 60.554 405.969 60.626C405.969 60.698 405.963 60.776 405.951 60.86H398.571ZM398.571 59.834H404.565C404.529 59.414 404.439 59.012 404.295 58.628C404.163 58.244 403.971 57.908 403.719 57.62C403.479 57.332 403.179 57.104 402.819 56.936C402.471 56.756 402.063 56.666 401.595 56.666C401.187 56.666 400.809 56.75 400.461 56.918C400.113 57.074 399.807 57.296 399.543 57.584C399.279 57.86 399.063 58.19 398.895 58.574C398.727 58.958 398.619 59.378 398.571 59.834ZM407.311 53.048L407.905 52.13C409.513 53.03 410.743 54.122 411.595 55.406C412.459 56.69 412.891 58.166 412.891 59.834C412.891 61.502 412.459 62.978 411.595 64.262C410.743 65.546 409.513 66.638 407.905 67.538L407.311 66.62C408.691 65.744 409.729 64.76 410.425 63.668C411.133 62.564 411.487 61.286 411.487 59.834C411.487 58.382 411.133 57.11 410.425 56.018C409.729 54.914 408.691 53.924 407.311 53.048ZM33.938 88.39C33.938 88.834 33.848 89.23 33.668 89.578C33.5 89.914 33.266 90.202 32.966 90.442C32.678 90.682 32.33 90.868 31.922 91C31.526 91.12 31.094 91.18 30.626 91.18C29.954 91.18 29.276 91.06 28.592 90.82C27.908 90.568 27.302 90.232 26.774 89.812L27.476 88.822C27.98 89.206 28.502 89.5 29.042 89.704C29.594 89.908 30.146 90.01 30.698 90.01C31.262 90.01 31.724 89.878 32.084 89.614C32.444 89.35 32.624 88.99 32.624 88.534V88.498C32.624 88.27 32.558 88.072 32.426 87.904C32.306 87.736 32.138 87.592 31.922 87.472C31.706 87.34 31.454 87.226 31.166 87.13C30.89 87.034 30.602 86.944 30.302 86.86C29.942 86.752 29.576 86.638 29.204 86.518C28.844 86.386 28.514 86.224 28.214 86.032C27.926 85.84 27.686 85.6 27.494 85.312C27.314 85.024 27.224 84.664 27.224 84.232V84.196C27.224 83.8 27.302 83.44 27.458 83.116C27.614 82.78 27.83 82.498 28.106 82.27C28.394 82.03 28.73 81.85 29.114 81.73C29.51 81.598 29.936 81.532 30.392 81.532C30.968 81.532 31.55 81.628 32.138 81.82C32.726 82 33.26 82.246 33.74 82.558L33.11 83.602C32.678 83.326 32.222 83.11 31.742 82.954C31.274 82.786 30.812 82.702 30.356 82.702C29.804 82.702 29.366 82.834 29.042 83.098C28.718 83.35 28.556 83.668 28.556 84.052V84.088C28.556 84.304 28.622 84.496 28.754 84.664C28.886 84.82 29.06 84.958 29.276 85.078C29.504 85.198 29.762 85.306 30.05 85.402C30.338 85.498 30.638 85.594 30.95 85.69C31.31 85.798 31.664 85.918 32.012 86.05C32.372 86.182 32.696 86.35 32.984 86.554C33.272 86.758 33.5 87.004 33.668 87.292C33.848 87.58 33.938 87.934 33.938 88.354V88.39ZM45.9088 86.338C45.9088 87.106 45.7828 87.79 45.5308 88.39C45.2788 88.99 44.9428 89.5 44.5228 89.92C44.1148 90.328 43.6408 90.646 43.1008 90.874C42.5728 91.09 42.0268 91.198 41.4628 91.198C41.0308 91.198 40.6348 91.144 40.2748 91.036C39.9148 90.928 39.5908 90.784 39.3028 90.604C39.0148 90.424 38.7508 90.214 38.5108 89.974C38.2828 89.734 38.0788 89.482 37.8988 89.218V93.88H36.5128V81.694H37.8988V83.566C38.0908 83.29 38.3008 83.026 38.5288 82.774C38.7688 82.522 39.0328 82.306 39.3208 82.126C39.6088 81.934 39.9268 81.784 40.2748 81.676C40.6348 81.556 41.0308 81.496 41.4628 81.496C42.0148 81.496 42.5548 81.604 43.0828 81.82C43.6228 82.036 44.1028 82.354 44.5228 82.774C44.9428 83.182 45.2788 83.686 45.5308 84.286C45.7828 84.886 45.9088 85.57 45.9088 86.338ZM44.4868 86.356C44.4868 85.804 44.3968 85.306 44.2168 84.862C44.0488 84.418 43.8148 84.04 43.5148 83.728C43.2148 83.404 42.8668 83.158 42.4708 82.99C42.0748 82.822 41.6548 82.738 41.2108 82.738C40.7788 82.738 40.3588 82.828 39.9508 83.008C39.5548 83.176 39.1948 83.416 38.8708 83.728C38.5588 84.04 38.3068 84.418 38.1148 84.862C37.9348 85.306 37.8448 85.798 37.8448 86.338C37.8448 86.878 37.9348 87.376 38.1148 87.832C38.3068 88.276 38.5588 88.654 38.8708 88.966C39.1948 89.278 39.5548 89.524 39.9508 89.704C40.3588 89.872 40.7788 89.956 41.2108 89.956C41.6548 89.956 42.0748 89.878 42.4708 89.722C42.8788 89.554 43.2268 89.32 43.5148 89.02C43.8148 88.708 44.0488 88.33 44.2168 87.886C44.3968 87.43 44.4868 86.92 44.4868 86.356ZM51.832 82.792C51.28 82.792 50.776 82.858 50.32 82.99C49.876 83.11 49.438 83.272 49.006 83.476L48.592 82.342C49.108 82.102 49.63 81.916 50.158 81.784C50.686 81.64 51.292 81.568 51.976 81.568C53.248 81.568 54.226 81.886 54.91 82.522C55.594 83.146 55.936 84.076 55.936 85.312V91H54.604V89.596C54.28 90.016 53.842 90.388 53.29 90.712C52.75 91.036 52.066 91.198 51.238 91.198C50.806 91.198 50.38 91.138 49.96 91.018C49.552 90.898 49.18 90.718 48.844 90.478C48.52 90.226 48.256 89.92 48.052 89.56C47.86 89.2 47.764 88.774 47.764 88.282C47.764 87.79 47.86 87.358 48.052 86.986C48.244 86.602 48.514 86.284 48.862 86.032C49.222 85.78 49.642 85.588 50.122 85.456C50.614 85.324 51.154 85.258 51.742 85.258C52.342 85.258 52.864 85.294 53.308 85.366C53.752 85.438 54.184 85.534 54.604 85.654V85.33C54.604 84.49 54.358 83.86 53.866 83.44C53.386 83.008 52.708 82.792 51.832 82.792ZM51.886 86.284C51.01 86.284 50.338 86.458 49.87 86.806C49.402 87.154 49.168 87.628 49.168 88.228C49.168 88.528 49.228 88.792 49.348 89.02C49.48 89.248 49.654 89.446 49.87 89.614C50.086 89.77 50.332 89.89 50.608 89.974C50.896 90.058 51.196 90.1 51.508 90.1C51.94 90.1 52.342 90.04 52.714 89.92C53.098 89.788 53.428 89.614 53.704 89.398C53.992 89.17 54.214 88.906 54.37 88.606C54.538 88.294 54.622 87.952 54.622 87.58V86.68C54.274 86.584 53.872 86.494 53.416 86.41C52.972 86.326 52.462 86.284 51.886 86.284ZM60.2758 85.672V91H58.8898V81.694H60.2758V83.314C60.5878 82.81 60.9958 82.384 61.4998 82.036C62.0038 81.676 62.6578 81.496 63.4618 81.496C64.0258 81.496 64.5238 81.586 64.9558 81.766C65.3998 81.946 65.7718 82.204 66.0718 82.54C66.3838 82.864 66.6178 83.254 66.7738 83.71C66.9418 84.166 67.0258 84.67 67.0258 85.222V91H65.6398V85.564C65.6398 84.7 65.4178 84.016 64.9738 83.512C64.5298 83.008 63.8938 82.756 63.0658 82.756C62.6698 82.756 62.2978 82.828 61.9498 82.972C61.6138 83.104 61.3198 83.302 61.0678 83.566C60.8158 83.818 60.6178 84.124 60.4738 84.484C60.3418 84.844 60.2758 85.24 60.2758 85.672ZM71.3676 85.672V91H69.9816V81.694H71.3676V83.314C71.6796 82.81 72.0876 82.384 72.5916 82.036C73.0956 81.676 73.7496 81.496 74.5536 81.496C75.1176 81.496 75.6156 81.586 76.0476 81.766C76.4916 81.946 76.8636 82.204 77.1636 82.54C77.4756 82.864 77.7096 83.254 77.8656 83.71C78.0336 84.166 78.1176 84.67 78.1176 85.222V91H76.7316V85.564C76.7316 84.7 76.5096 84.016 76.0656 83.512C75.6216 83.008 74.9856 82.756 74.1576 82.756C73.7616 82.756 73.3896 82.828 73.0416 82.972C72.7056 83.104 72.4116 83.302 72.1596 83.566C71.9076 83.818 71.7096 84.124 71.5656 84.484C71.4336 84.844 71.3676 85.24 71.3676 85.672ZM82.6934 79.66H81.1094V78.13H82.6934V79.66ZM82.5854 91H81.1994V81.694H82.5854V91ZM87.1879 85.672V91H85.8019V81.694H87.1879V83.314C87.4999 82.81 87.9079 82.384 88.4119 82.036C88.9159 81.676 89.5699 81.496 90.3739 81.496C90.9379 81.496 91.4359 81.586 91.8679 81.766C92.3119 81.946 92.6839 82.204 92.9839 82.54C93.2959 82.864 93.5299 83.254 93.6859 83.71C93.8539 84.166 93.9379 84.67 93.9379 85.222V91H92.5519V85.564C92.5519 84.7 92.3299 84.016 91.8859 83.512C91.4419 83.008 90.8059 82.756 89.9779 82.756C89.5819 82.756 89.2099 82.828 88.8619 82.972C88.5259 83.104 88.2319 83.302 87.9799 83.566C87.7279 83.818 87.5299 84.124 87.3859 84.484C87.2539 84.844 87.1879 85.24 87.1879 85.672ZM105.75 89.38C105.75 90.136 105.636 90.796 105.408 91.36C105.192 91.924 104.874 92.392 104.454 92.764C104.046 93.148 103.548 93.436 102.96 93.628C102.384 93.82 101.736 93.916 101.016 93.916C100.236 93.916 99.4917 93.808 98.7837 93.592C98.0757 93.376 97.4097 93.052 96.7857 92.62L97.4157 91.54C97.9557 91.924 98.5197 92.218 99.1077 92.422C99.6957 92.626 100.326 92.728 100.998 92.728C102.03 92.728 102.852 92.446 103.464 91.882C104.076 91.33 104.382 90.508 104.382 89.416V88.318C103.974 88.858 103.476 89.32 102.888 89.704C102.3 90.088 101.58 90.28 100.728 90.28C100.164 90.28 99.6177 90.184 99.0897 89.992C98.5737 89.788 98.1117 89.5 97.7037 89.128C97.2957 88.744 96.9657 88.282 96.7137 87.742C96.4737 87.202 96.3537 86.59 96.3537 85.906C96.3537 85.222 96.4737 84.61 96.7137 84.07C96.9657 83.518 97.2957 83.056 97.7037 82.684C98.1117 82.3 98.5797 82.006 99.1077 81.802C99.6357 81.598 100.176 81.496 100.728 81.496C101.16 81.496 101.556 81.55 101.916 81.658C102.288 81.754 102.618 81.886 102.906 82.054C103.206 82.222 103.476 82.42 103.716 82.648C103.956 82.876 104.172 83.116 104.364 83.368V81.694H105.75V89.38ZM104.418 85.888C104.418 85.408 104.322 84.976 104.13 84.592C103.938 84.196 103.68 83.86 103.356 83.584C103.044 83.308 102.684 83.098 102.276 82.954C101.868 82.798 101.442 82.72 100.998 82.72C100.554 82.72 100.134 82.792 99.7377 82.936C99.3537 83.08 99.0117 83.29 98.7117 83.566C98.4237 83.842 98.1957 84.178 98.0277 84.574C97.8597 84.958 97.7757 85.39 97.7757 85.87C97.7757 86.35 97.8597 86.788 98.0277 87.184C98.2077 87.568 98.4417 87.904 98.7297 88.192C99.0297 88.468 99.3717 88.684 99.7557 88.84C100.152 88.984 100.566 89.056 100.998 89.056C101.442 89.056 101.868 88.984 102.276 88.84C102.684 88.684 103.044 88.468 103.356 88.192C103.68 87.916 103.938 87.586 104.13 87.202C104.322 86.806 104.418 86.368 104.418 85.888Z" fill="#3E3E3E"/>
<path d="M120.111 77.272C119.455 77.272 118.871 77.456 118.359 77.824C117.863 78.192 117.303 78.76 116.679 79.528L114.087 77.44C114.503 76.88 114.919 76.384 115.335 75.952C115.767 75.52 116.223 75.16 116.703 74.872C117.199 74.568 117.743 74.344 118.335 74.2C118.927 74.04 119.599 73.96 120.351 73.96C121.247 73.96 122.047 74.088 122.751 74.344C123.471 74.584 124.079 74.936 124.575 75.4C125.087 75.848 125.471 76.392 125.727 77.032C125.999 77.672 126.135 78.384 126.135 79.168C126.135 79.872 126.039 80.504 125.847 81.064C125.671 81.608 125.399 82.128 125.031 82.624C124.679 83.12 124.223 83.616 123.663 84.112C123.103 84.592 122.455 85.12 121.719 85.696L118.983 87.808H126.303V91H113.871V88.072L119.463 83.488C119.991 83.056 120.439 82.672 120.807 82.336C121.175 81.984 121.471 81.656 121.695 81.352C121.935 81.032 122.103 80.728 122.199 80.44C122.311 80.136 122.367 79.808 122.367 79.456C122.367 78.736 122.159 78.192 121.743 77.824C121.327 77.456 120.783 77.272 120.111 77.272ZM137.608 74.08H140.728V84.376H142.984V87.376H140.728V91H137.2V87.376H128.992L128.392 84.76L137.608 74.08ZM137.2 84.376V79.144L132.736 84.376H137.2ZM158.115 75.76L156.171 78.616C155.899 78.408 155.635 78.224 155.379 78.064C155.123 77.888 154.859 77.744 154.587 77.632C154.315 77.52 154.027 77.432 153.723 77.368C153.419 77.304 153.091 77.272 152.739 77.272C152.211 77.272 151.747 77.376 151.347 77.584C150.963 77.776 150.627 78.048 150.339 78.4C150.067 78.736 149.851 79.144 149.691 79.624C149.531 80.104 149.419 80.616 149.355 81.16C149.771 80.888 150.243 80.64 150.771 80.416C151.315 80.192 152.003 80.08 152.835 80.08C153.667 80.08 154.443 80.2 155.163 80.44C155.883 80.664 156.507 81 157.035 81.448C157.563 81.896 157.979 82.456 158.283 83.128C158.587 83.8 158.739 84.576 158.739 85.456C158.739 86.32 158.571 87.112 158.235 87.832C157.915 88.536 157.467 89.152 156.891 89.68C156.331 90.192 155.659 90.592 154.875 90.88C154.091 91.152 153.243 91.288 152.331 91.288C151.227 91.288 150.291 91.136 149.523 90.832C148.755 90.528 148.075 90.08 147.483 89.488C146.875 88.88 146.387 88.088 146.019 87.112C145.667 86.12 145.491 84.784 145.491 83.104C145.491 81.808 145.635 80.6 145.923 79.48C146.227 78.36 146.683 77.392 147.291 76.576C147.899 75.744 148.667 75.096 149.595 74.632C150.523 74.152 151.611 73.912 152.859 73.912C153.435 73.912 153.963 73.952 154.443 74.032C154.923 74.112 155.371 74.232 155.787 74.392C156.203 74.552 156.603 74.752 156.987 74.992C157.371 75.216 157.747 75.472 158.115 75.76ZM155.067 85.624C155.067 84.904 154.803 84.312 154.275 83.848C153.763 83.384 153.051 83.152 152.139 83.152C151.227 83.152 150.515 83.384 150.003 83.848C149.507 84.296 149.259 84.88 149.259 85.6C149.259 86.336 149.515 86.944 150.027 87.424C150.555 87.888 151.275 88.12 152.187 88.12C153.099 88.12 153.803 87.888 154.299 87.424C154.811 86.96 155.067 86.36 155.067 85.624ZM178.345 87.088C178.345 87.808 178.217 88.432 177.961 88.96C177.721 89.472 177.377 89.896 176.929 90.232C176.481 90.568 175.953 90.824 175.345 91C174.753 91.16 174.113 91.24 173.425 91.24C172.513 91.24 171.577 91.088 170.617 90.784C169.673 90.464 168.769 89.968 167.905 89.296L169.465 86.896C170.169 87.408 170.865 87.792 171.553 88.048C172.257 88.304 172.913 88.432 173.521 88.432C174.049 88.432 174.433 88.344 174.673 88.168C174.929 87.992 175.057 87.76 175.057 87.472V87.424C175.057 87.232 174.985 87.064 174.841 86.92C174.697 86.776 174.497 86.656 174.241 86.56C174.001 86.448 173.721 86.344 173.401 86.248C173.081 86.152 172.745 86.048 172.393 85.936C171.945 85.808 171.489 85.656 171.025 85.48C170.577 85.288 170.169 85.048 169.801 84.76C169.433 84.456 169.129 84.088 168.889 83.656C168.665 83.224 168.553 82.696 168.553 82.072V82.024C168.553 81.368 168.673 80.792 168.913 80.296C169.169 79.784 169.505 79.352 169.921 79C170.353 78.648 170.849 78.384 171.409 78.208C171.985 78.032 172.601 77.944 173.257 77.944C174.073 77.944 174.897 78.08 175.729 78.352C176.577 78.608 177.353 78.968 178.057 79.432L176.665 81.952C176.025 81.584 175.401 81.296 174.793 81.088C174.185 80.864 173.649 80.752 173.185 80.752C172.737 80.752 172.401 80.84 172.177 81.016C171.953 81.176 171.841 81.384 171.841 81.64V81.688C171.841 81.864 171.913 82.024 172.057 82.168C172.201 82.296 172.393 82.424 172.633 82.552C172.873 82.664 173.145 82.776 173.449 82.888C173.769 83 174.105 83.112 174.457 83.224C174.905 83.368 175.361 83.544 175.825 83.752C176.289 83.944 176.705 84.184 177.073 84.472C177.441 84.76 177.745 85.112 177.985 85.528C178.225 85.944 178.345 86.448 178.345 87.04V87.088ZM192.648 91H189V89.176C188.792 89.448 188.56 89.712 188.304 89.968C188.064 90.208 187.792 90.424 187.488 90.616C187.184 90.808 186.848 90.96 186.48 91.072C186.112 91.184 185.696 91.24 185.232 91.24C183.84 91.24 182.76 90.816 181.992 89.968C181.24 89.12 180.864 87.952 180.864 86.464V78.136H184.512V85.312C184.512 86.176 184.704 86.832 185.088 87.28C185.472 87.712 186.016 87.928 186.72 87.928C187.424 87.928 187.976 87.712 188.376 87.28C188.792 86.832 189 86.176 189 85.312V78.136H192.648V91ZM209.425 84.592C209.425 85.664 209.257 86.616 208.921 87.448C208.601 88.264 208.169 88.96 207.625 89.536C207.097 90.096 206.481 90.52 205.777 90.808C205.073 91.096 204.337 91.24 203.569 91.24C202.593 91.24 201.785 91.048 201.145 90.664C200.521 90.28 199.993 89.832 199.561 89.32V94.84H195.913V78.136H199.561V79.984C200.009 79.376 200.545 78.88 201.169 78.496C201.809 78.096 202.609 77.896 203.569 77.896C204.321 77.896 205.049 78.04 205.753 78.328C206.457 78.616 207.081 79.048 207.625 79.624C208.169 80.184 208.601 80.88 208.921 81.712C209.257 82.528 209.425 83.472 209.425 84.544V84.592ZM205.777 84.592V84.544C205.777 84.016 205.689 83.536 205.513 83.104C205.353 82.656 205.129 82.28 204.841 81.976C204.553 81.656 204.217 81.416 203.833 81.256C203.465 81.08 203.065 80.992 202.633 80.992C202.201 80.992 201.793 81.08 201.409 81.256C201.041 81.416 200.713 81.656 200.425 81.976C200.153 82.28 199.929 82.656 199.753 83.104C199.593 83.536 199.513 84.016 199.513 84.544V84.592C199.513 85.12 199.593 85.608 199.753 86.056C199.929 86.488 200.153 86.864 200.425 87.184C200.713 87.488 201.041 87.728 201.409 87.904C201.793 88.064 202.201 88.144 202.633 88.144C203.065 88.144 203.465 88.064 203.833 87.904C204.217 87.728 204.553 87.488 204.841 87.184C205.129 86.864 205.353 86.488 205.513 86.056C205.689 85.624 205.777 85.136 205.777 84.592ZM225.621 84.592C225.621 85.664 225.453 86.616 225.117 87.448C224.797 88.264 224.365 88.96 223.821 89.536C223.293 90.096 222.677 90.52 221.973 90.808C221.269 91.096 220.533 91.24 219.765 91.24C218.789 91.24 217.981 91.048 217.341 90.664C216.717 90.28 216.189 89.832 215.757 89.32V94.84H212.109V78.136H215.757V79.984C216.205 79.376 216.741 78.88 217.365 78.496C218.005 78.096 218.805 77.896 219.765 77.896C220.517 77.896 221.245 78.04 221.949 78.328C222.653 78.616 223.277 79.048 223.821 79.624C224.365 80.184 224.797 80.88 225.117 81.712C225.453 82.528 225.621 83.472 225.621 84.544V84.592ZM221.973 84.592V84.544C221.973 84.016 221.885 83.536 221.709 83.104C221.549 82.656 221.325 82.28 221.037 81.976C220.749 81.656 220.413 81.416 220.029 81.256C219.661 81.08 219.261 80.992 218.829 80.992C218.397 80.992 217.989 81.08 217.605 81.256C217.237 81.416 216.909 81.656 216.621 81.976C216.349 82.28 216.125 82.656 215.949 83.104C215.789 83.536 215.709 84.016 215.709 84.544V84.592C215.709 85.12 215.789 85.608 215.949 86.056C216.125 86.488 216.349 86.864 216.621 87.184C216.909 87.488 217.237 87.728 217.605 87.904C217.989 88.064 218.397 88.144 218.829 88.144C219.261 88.144 219.661 88.064 220.029 87.904C220.413 87.728 220.749 87.488 221.037 87.184C221.325 86.864 221.549 86.488 221.709 86.056C221.885 85.624 221.973 85.136 221.973 84.592ZM232.12 91H228.472V73.48H232.12V91ZM239.458 76.72H235.618V73.48H239.458V76.72ZM239.362 91H235.714V78.136H239.362V91ZM254.788 84.928C254.788 85.104 254.78 85.256 254.764 85.384C254.764 85.512 254.756 85.664 254.74 85.84H245.788C245.964 86.672 246.324 87.304 246.868 87.736C247.428 88.152 248.116 88.36 248.932 88.36C249.54 88.36 250.084 88.256 250.564 88.048C251.044 87.84 251.54 87.504 252.052 87.04L254.14 88.888C253.532 89.64 252.796 90.232 251.932 90.664C251.068 91.08 250.052 91.288 248.884 91.288C247.924 91.288 247.028 91.128 246.196 90.808C245.38 90.488 244.668 90.032 244.06 89.44C243.468 88.848 243.004 88.152 242.668 87.352C242.332 86.536 242.164 85.632 242.164 84.64V84.592C242.164 83.68 242.316 82.816 242.62 82C242.94 81.184 243.38 80.472 243.94 79.864C244.5 79.256 245.164 78.776 245.932 78.424C246.716 78.072 247.58 77.896 248.524 77.896C249.596 77.896 250.524 78.088 251.308 78.472C252.092 78.856 252.74 79.376 253.252 80.032C253.78 80.672 254.164 81.416 254.404 82.264C254.66 83.096 254.788 83.968 254.788 84.88V84.928ZM251.236 83.56C251.124 82.744 250.836 82.088 250.372 81.592C249.908 81.08 249.292 80.824 248.524 80.824C247.756 80.824 247.132 81.072 246.652 81.568C246.188 82.064 245.884 82.728 245.74 83.56H251.236ZM265.259 81.712H265.067C263.851 81.712 262.891 82.08 262.187 82.816C261.499 83.552 261.155 84.696 261.155 86.248V91H257.507V78.136H261.155V80.728C261.523 79.848 262.027 79.144 262.667 78.616C263.307 78.088 264.171 77.848 265.259 77.896V81.712ZM276.97 87.088C276.97 87.808 276.842 88.432 276.586 88.96C276.346 89.472 276.002 89.896 275.554 90.232C275.106 90.568 274.578 90.824 273.97 91C273.378 91.16 272.738 91.24 272.05 91.24C271.138 91.24 270.202 91.088 269.242 90.784C268.298 90.464 267.394 89.968 266.53 89.296L268.09 86.896C268.794 87.408 269.49 87.792 270.178 88.048C270.882 88.304 271.538 88.432 272.146 88.432C272.674 88.432 273.058 88.344 273.298 88.168C273.554 87.992 273.682 87.76 273.682 87.472V87.424C273.682 87.232 273.61 87.064 273.466 86.92C273.322 86.776 273.122 86.656 272.866 86.56C272.626 86.448 272.346 86.344 272.026 86.248C271.706 86.152 271.37 86.048 271.018 85.936C270.57 85.808 270.114 85.656 269.65 85.48C269.202 85.288 268.794 85.048 268.426 84.76C268.058 84.456 267.754 84.088 267.514 83.656C267.29 83.224 267.178 82.696 267.178 82.072V82.024C267.178 81.368 267.298 80.792 267.538 80.296C267.794 79.784 268.13 79.352 268.546 79C268.978 78.648 269.474 78.384 270.034 78.208C270.61 78.032 271.226 77.944 271.882 77.944C272.698 77.944 273.522 78.08 274.354 78.352C275.202 78.608 275.978 78.968 276.682 79.432L275.29 81.952C274.65 81.584 274.026 81.296 273.418 81.088C272.81 80.864 272.274 80.752 271.81 80.752C271.362 80.752 271.026 80.84 270.802 81.016C270.578 81.176 270.466 81.384 270.466 81.64V81.688C270.466 81.864 270.538 82.024 270.682 82.168C270.826 82.296 271.018 82.424 271.258 82.552C271.498 82.664 271.77 82.776 272.074 82.888C272.394 83 272.73 83.112 273.082 83.224C273.53 83.368 273.986 83.544 274.45 83.752C274.914 83.944 275.33 84.184 275.698 84.472C276.066 84.76 276.37 85.112 276.61 85.528C276.85 85.944 276.97 86.448 276.97 87.04V87.088ZM283.329 91H279.441V87.16H283.329V91Z" fill="#AD3088"/>
<g opacity="0.75">
<path fill-rule="evenodd" clip-rule="evenodd" d="M501.407 89.5483H474.535C471.916 89.5483 469.77 87.4129 469.77 84.783V59.3385C469.77 56.7198 471.905 54.5732 474.535 54.5732H501.407C504.025 54.5732 506.172 56.7086 506.172 59.3385V84.8055C506.172 87.4241 504.036 89.5483 501.407 89.5483ZM474.535 56.9109C473.197 56.9109 472.085 58.0011 472.085 59.361V84.8055C472.085 86.1429 473.175 87.2556 474.535 87.2556H501.407C502.744 87.2556 503.857 86.1654 503.857 84.828V59.3385C503.857 58.0011 502.767 56.8884 501.407 56.8884H474.535V56.9109Z" fill="white"/>
<path fill-rule="evenodd" clip-rule="evenodd" d="M499.25 56.9218H476.727C476.098 56.9218 475.559 56.4161 475.559 55.753V46.9305C475.559 40.0749 481.122 34.5117 487.977 34.5117C494.833 34.5117 500.396 40.0749 500.396 46.9305V55.753C500.396 56.4048 499.89 56.9218 499.25 56.9218ZM477.896 54.6179H498.115V46.9418C498.115 41.3786 493.574 36.8381 488.011 36.8381C482.448 36.8381 477.907 41.3786 477.907 46.9418V54.6179H477.896Z" fill="white"/>
<path fill-rule="evenodd" clip-rule="evenodd" d="M488.217 79.0283H487.711C486.419 79.0283 485.408 77.9831 485.408 76.7244V72.7121C484.385 71.9366 483.755 70.6667 483.778 69.363C483.778 68.2503 484.216 67.2051 485.014 66.3959C485.79 65.6205 486.88 65.1597 488.004 65.1597C489.128 65.1597 490.195 65.598 490.993 66.3959C491.769 67.1714 492.229 68.2616 492.229 69.3854C492.229 70.5093 491.791 71.577 490.993 72.375L490.971 72.3974C490.847 72.5211 490.723 72.611 490.577 72.7121V76.7244C490.555 77.9831 489.51 79.0283 488.217 79.0283ZM487.97 67.4636C487.464 67.4636 486.97 67.6547 486.61 68.0256C486.25 68.3964 486.048 68.8572 486.048 69.3854C486.048 70.0935 486.442 70.7453 487.048 71.06C487.442 71.2511 487.678 71.6444 487.678 72.0827V76.7244H488.184L488.206 76.7019V72.0603C488.206 71.622 488.453 71.2286 488.835 71.0375C488.981 70.9701 489.128 70.8465 489.296 70.7004C489.633 70.3407 489.836 69.8687 489.836 69.363C489.836 68.8572 489.645 68.3627 489.274 68.0031C488.959 67.6659 488.498 67.4636 487.959 67.4636H487.97Z" fill="white"/>
<path fill-rule="evenodd" clip-rule="evenodd" d="M523.365 74.9036H508.395C507.766 74.9036 507.227 74.3978 507.227 73.7347C507.227 73.0717 507.732 72.5659 508.395 72.5659H523.365C523.995 72.5659 524.534 73.0717 524.534 73.7347C524.534 74.3978 523.995 74.9036 523.365 74.9036Z" fill="white"/>
<path fill-rule="evenodd" clip-rule="evenodd" d="M467.611 74.9036H452.641C452.012 74.9036 451.473 74.3978 451.473 73.7347C451.473 73.0717 451.978 72.5659 452.641 72.5659H467.611C468.241 72.5659 468.78 73.0717 468.78 73.7347C468.78 74.3978 468.241 74.9036 467.611 74.9036Z" fill="white"/>
<path fill-rule="evenodd" clip-rule="evenodd" d="M453.325 93.9984C452.696 93.9984 452.156 93.4927 452.156 92.8296V85.4232C452.156 84.7939 452.662 84.2544 453.325 84.2544H468.318C468.947 84.2544 469.486 84.7601 469.486 85.4232C469.486 86.0863 468.981 86.5921 468.318 86.5921H454.471V92.8408C454.471 93.4702 453.966 94.0096 453.325 94.0096V93.9984Z" fill="white"/>
<path fill-rule="evenodd" clip-rule="evenodd" d="M523.345 93.9984C522.716 93.9984 522.176 93.4927 522.176 92.8296V86.5808H508.352C507.723 86.5808 507.184 86.0751 507.184 85.412C507.184 84.7489 507.689 84.2432 508.352 84.2432H523.322C523.952 84.2432 524.491 84.7489 524.491 85.412V92.8183C524.491 93.4477 523.986 93.9872 523.345 93.9872V93.9984Z" fill="white"/>
<path fill-rule="evenodd" clip-rule="evenodd" d="M468.31 64.328H453.317C452.688 64.328 452.148 63.8222 452.148 63.1592V55.7528C452.148 55.1234 452.654 54.584 453.317 54.584C453.98 54.584 454.486 55.0897 454.486 55.7528V62.0016H468.332C468.962 62.0016 469.501 62.5073 469.501 63.1704C469.501 63.8335 468.939 64.3392 468.31 64.3392V64.328Z" fill="white"/>
<path fill-rule="evenodd" clip-rule="evenodd" d="M523.346 63.2152H508.376C507.747 63.2152 507.207 62.7095 507.207 62.0464C507.207 61.3833 507.713 60.8775 508.376 60.8775H522.2V54.6288C522.2 53.9994 522.705 53.46 523.368 53.46C524.031 53.46 524.537 53.9657 524.537 54.6288V62.0351C524.492 62.6645 523.975 63.204 523.346 63.204V63.2152Z" fill="white"/>
<path fill-rule="evenodd" clip-rule="evenodd" d="M453.328 56.9215C450.361 56.9215 447.934 54.494 447.934 51.5269C447.934 48.5599 450.361 46.1323 453.328 46.1323C456.295 46.1323 458.723 48.5599 458.723 51.5269C458.723 54.494 456.295 56.9215 453.328 56.9215ZM453.328 48.4363C451.631 48.4363 450.238 49.8186 450.238 51.5269C450.238 53.2352 451.62 54.6176 453.328 54.6176C455.036 54.6176 456.419 53.2352 456.419 51.5269C456.419 49.8186 455.036 48.4363 453.328 48.4363Z" fill="white"/>
<path fill-rule="evenodd" clip-rule="evenodd" d="M448.395 79.1295C445.428 79.1295 443 76.702 443 73.7349C443 70.7679 445.428 68.3403 448.395 68.3403C451.362 68.3403 453.789 70.7679 453.789 73.7349C453.789 76.702 451.362 79.1295 448.395 79.1295ZM448.395 70.6443C446.698 70.6443 445.304 72.0266 445.304 73.7349C445.304 75.4432 446.686 76.8256 448.395 76.8256C450.103 76.8256 451.485 75.4432 451.485 73.7349C451.485 72.0266 450.103 70.6443 448.395 70.6443Z" fill="white"/>
<path fill-rule="evenodd" clip-rule="evenodd" d="M453.328 102.45C450.361 102.45 447.934 100.023 447.934 97.0557C447.934 94.0887 450.361 91.6611 453.328 91.6611C456.295 91.6611 458.723 94.0887 458.723 97.0557C458.723 100.023 456.295 102.45 453.328 102.45ZM453.328 93.9988C451.631 93.9988 450.238 95.3812 450.238 97.0895C450.238 98.7977 451.62 100.18 453.328 100.18C455.036 100.18 456.419 98.7977 456.419 97.0895C456.419 95.3812 455.036 93.9988 453.328 93.9988Z" fill="white"/>
<path fill-rule="evenodd" clip-rule="evenodd" d="M523.348 102.45C520.381 102.45 517.953 100.023 517.953 97.0557C517.953 94.0887 520.381 91.6611 523.348 91.6611C526.315 91.6611 528.742 94.0887 528.742 97.0557C528.742 100.023 526.315 102.45 523.348 102.45ZM523.348 93.9988C521.651 93.9988 520.257 95.3812 520.257 97.0895C520.257 98.7977 521.639 100.18 523.348 100.18C525.056 100.18 526.438 98.7977 526.438 97.0895C526.438 95.3812 525.056 93.9988 523.348 93.9988Z" fill="white"/>
<path fill-rule="evenodd" clip-rule="evenodd" d="M527.606 79.1295C524.638 79.1295 522.211 76.702 522.211 73.7349C522.211 70.7679 524.638 68.3403 527.606 68.3403C530.573 68.3403 533 70.7679 533 73.7349C533 76.702 530.573 79.1295 527.606 79.1295ZM527.606 70.6443C525.908 70.6443 524.515 72.0266 524.515 73.7349C524.515 75.4432 525.897 76.8256 527.606 76.8256C529.314 76.8256 530.696 75.4432 530.696 73.7349C530.696 72.0266 529.314 70.6443 527.606 70.6443Z" fill="white"/>
<path fill-rule="evenodd" clip-rule="evenodd" d="M523.348 55.7975C520.381 55.7975 517.953 53.3699 517.953 50.4029C517.953 47.4359 520.381 45.0083 523.348 45.0083C526.315 45.0083 528.742 47.4359 528.742 50.4029C528.742 53.3699 526.315 55.7975 523.348 55.7975ZM523.348 47.3122C521.651 47.3122 520.257 48.6946 520.257 50.4029C520.257 52.1112 521.639 53.4936 523.348 53.4936C525.056 53.4936 526.438 52.1112 526.438 50.4029C526.438 48.6946 525.056 47.3122 523.348 47.3122Z" fill="white"/>
</g>
</svg>
