<svg width="194" height="194" viewBox="0 0 194 194" fill="none" xmlns="http://www.w3.org/2000/svg">
<circle cx="97" cy="97" r="97" fill="#E036AE"/>
<path opacity="0.75" d="M156.062 121.944C153.028 120.197 149.169 120.7 146.693 123.187L128.061 112.498V80.8283L146.693 70.1393C148.157 71.5945 150.127 72.4147 152.203 72.4147C156.488 72.4147 159.949 68.9487 159.949 64.689C159.949 63.3397 159.576 62.0168 158.911 60.8262C156.781 57.1221 152.017 55.8786 148.317 57.9952C145.256 59.7414 143.792 63.3132 144.697 66.6998L126.065 77.3888L98.4623 61.5406V40.1891C102.615 39.1044 105.063 34.8711 103.972 30.7437C102.881 26.6163 98.622 24.1557 94.4963 25.2669C90.3706 26.3782 87.8952 30.585 88.9865 34.7124C89.7052 37.3846 91.8079 39.4748 94.4963 40.1891V61.567L66.894 77.4152L48.2618 66.7263C49.3797 62.6253 46.9309 58.3656 42.8052 57.2544C39.3982 56.3284 35.8048 57.81 34.0481 60.8527C31.8921 64.5303 33.1697 69.2662 36.8961 71.3829C38.0673 72.0708 39.3982 72.4147 40.7557 72.4147C42.8318 72.4147 44.8015 71.5945 46.2655 70.1393L64.8977 80.8283V112.498L46.2655 123.187C43.2311 120.171 38.3335 120.171 35.2991 123.187C32.2647 126.203 32.2647 131.072 35.2991 134.088C38.3335 137.104 43.2311 137.104 46.2655 134.088C48.2352 132.13 49.0071 129.299 48.2884 126.627L66.9206 115.938L94.5229 131.759V152.82C90.3706 153.905 87.9218 158.138 89.0131 162.265C90.1044 166.393 94.3632 168.827 98.5155 167.742C102.668 166.657 105.117 162.424 104.025 158.297C103.307 155.624 101.204 153.534 98.5155 152.82V131.759L126.118 115.938L144.75 126.627C143.632 130.728 146.081 134.987 150.207 136.099C153.614 137.025 157.207 135.543 158.964 132.5C161.093 128.796 159.842 124.087 156.116 121.944H156.062ZM96.466 94.3482L70.86 79.6641L96.466 64.9801L122.072 79.6641L96.466 94.3482ZM150.286 61.4347C152.096 60.4029 154.386 61.0114 155.424 62.8105C156.462 64.6097 155.85 66.885 154.04 67.9169C152.23 68.9487 149.94 68.3402 148.902 66.5411C147.864 64.7684 148.476 62.493 150.26 61.4347C150.26 61.4347 150.26 61.4347 150.286 61.4347ZM92.7129 32.728C92.7129 30.6643 94.3898 28.971 96.4926 28.971C98.5954 28.971 100.272 30.6379 100.272 32.728C100.272 34.7917 98.5954 36.485 96.4926 36.485C94.4164 36.485 92.7129 34.7917 92.7129 32.728ZM38.8924 67.9169C37.0825 66.885 36.4703 64.5832 37.5083 62.8105C38.5464 61.0114 40.8621 60.4029 42.6455 61.4347C44.4555 62.4666 45.0677 64.7684 44.0296 66.5411C43.0182 68.3402 40.7291 68.9487 38.9191 67.9433C38.9191 67.9433 38.9191 67.9433 38.8924 67.9433V67.9169ZM42.6721 131.865C40.8621 132.897 38.573 132.289 37.535 130.49C36.4969 128.69 37.1091 126.389 38.9191 125.357C40.7291 124.325 43.0448 124.933 44.0829 126.733C45.1209 128.532 44.5087 130.833 42.6987 131.865H42.6721ZM68.8903 83.1036L94.4963 97.7877V127.156L68.8903 112.472V83.1036ZM100.272 160.281C100.272 162.345 98.5954 164.038 96.4926 164.038C94.4164 164.038 92.7129 162.371 92.7129 160.281C92.7129 158.217 94.3898 156.524 96.4926 156.524C98.5688 156.524 100.272 158.191 100.272 160.281ZM98.5155 127.182V97.8142L124.122 83.1301V112.498L98.5155 127.182ZM155.477 130.49C154.439 132.289 152.123 132.897 150.34 131.865C148.53 130.833 147.918 128.532 148.956 126.759C149.994 124.96 152.309 124.351 154.093 125.383C154.945 125.886 155.583 126.706 155.85 127.659C156.116 128.611 155.956 129.643 155.477 130.49Z" fill="white"/>
</svg>
