<svg width="539" height="144" viewBox="0 0 539 144" fill="none" xmlns="http://www.w3.org/2000/svg">
<rect width="539" height="144" rx="28" fill="white"/>
<rect x="429" width="110" height="144" rx="28" fill="#F59ADA"/>
<path d="M35.8 40.66L30.7 48.16H30.62L25.52 40.68V52H23.98V38H25.58L30.68 45.64L35.78 38H37.38V52H35.8V40.66ZM44.8233 42.88C44.2099 42.88 43.6499 42.9533 43.1433 43.1C42.6499 43.2333 42.1633 43.4133 41.6833 43.64L41.2233 42.38C41.7966 42.1133 42.3766 41.9067 42.9633 41.76C43.5499 41.6 44.2233 41.52 44.9833 41.52C46.3966 41.52 47.4833 41.8733 48.2433 42.58C49.0033 43.2733 49.3833 44.3067 49.3833 45.68V52H47.9033V50.44C47.5433 50.9067 47.0566 51.32 46.4433 51.68C45.8433 52.04 45.0833 52.22 44.1633 52.22C43.6833 52.22 43.2099 52.1533 42.7433 52.02C42.2899 51.8867 41.8766 51.6867 41.5033 51.42C41.1433 51.14 40.8499 50.8 40.6233 50.4C40.4099 50 40.3033 49.5267 40.3033 48.98C40.3033 48.4333 40.4099 47.9533 40.6233 47.54C40.8366 47.1133 41.1366 46.76 41.5233 46.48C41.9233 46.2 42.3899 45.9867 42.9233 45.84C43.4699 45.6933 44.0699 45.62 44.7233 45.62C45.3899 45.62 45.9699 45.66 46.4633 45.74C46.9566 45.82 47.4366 45.9267 47.9033 46.06V45.7C47.9033 44.7667 47.6299 44.0667 47.0833 43.6C46.5499 43.12 45.7966 42.88 44.8233 42.88ZM44.8833 46.76C43.9099 46.76 43.1633 46.9533 42.6433 47.34C42.1233 47.7267 41.8633 48.2533 41.8633 48.92C41.8633 49.2533 41.9299 49.5467 42.0633 49.8C42.2099 50.0533 42.4033 50.2733 42.6433 50.46C42.8833 50.6333 43.1566 50.7667 43.4633 50.86C43.7833 50.9533 44.1166 51 44.4633 51C44.9433 51 45.3899 50.9333 45.8033 50.8C46.2299 50.6533 46.5966 50.46 46.9033 50.22C47.2233 49.9667 47.4699 49.6733 47.6433 49.34C47.8299 48.9933 47.9233 48.6133 47.9233 48.2V47.2C47.5366 47.0933 47.0899 46.9933 46.5833 46.9C46.0899 46.8067 45.5233 46.76 44.8833 46.76ZM54.2053 46.08V52H52.6653V41.66H54.2053V43.46C54.552 42.9 55.0053 42.4267 55.5653 42.04C56.1253 41.64 56.852 41.44 57.7453 41.44C58.372 41.44 58.9253 41.54 59.4053 41.74C59.8986 41.94 60.312 42.2267 60.6453 42.6C60.992 42.96 61.252 43.3933 61.4253 43.9C61.612 44.4067 61.7053 44.9667 61.7053 45.58V52H60.1653V45.96C60.1653 45 59.9186 44.24 59.4253 43.68C58.932 43.12 58.2253 42.84 57.3053 42.84C56.8653 42.84 56.452 42.92 56.0653 43.08C55.692 43.2267 55.3653 43.4467 55.0853 43.74C54.8053 44.02 54.5853 44.36 54.4253 44.76C54.2786 45.16 54.2053 45.6 54.2053 46.08ZM68.7295 42.88C68.1162 42.88 67.5562 42.9533 67.0495 43.1C66.5562 43.2333 66.0695 43.4133 65.5895 43.64L65.1295 42.38C65.7029 42.1133 66.2829 41.9067 66.8695 41.76C67.4562 41.6 68.1295 41.52 68.8895 41.52C70.3029 41.52 71.3895 41.8733 72.1495 42.58C72.9095 43.2733 73.2895 44.3067 73.2895 45.68V52H71.8095V50.44C71.4495 50.9067 70.9629 51.32 70.3495 51.68C69.7495 52.04 68.9895 52.22 68.0695 52.22C67.5895 52.22 67.1162 52.1533 66.6495 52.02C66.1962 51.8867 65.7829 51.6867 65.4095 51.42C65.0495 51.14 64.7562 50.8 64.5295 50.4C64.3162 50 64.2095 49.5267 64.2095 48.98C64.2095 48.4333 64.3162 47.9533 64.5295 47.54C64.7429 47.1133 65.0429 46.76 65.4295 46.48C65.8295 46.2 66.2962 45.9867 66.8295 45.84C67.3762 45.6933 67.9762 45.62 68.6295 45.62C69.2962 45.62 69.8762 45.66 70.3695 45.74C70.8629 45.82 71.3429 45.9267 71.8095 46.06V45.7C71.8095 44.7667 71.5362 44.0667 70.9895 43.6C70.4562 43.12 69.7029 42.88 68.7295 42.88ZM68.7895 46.76C67.8162 46.76 67.0695 46.9533 66.5495 47.34C66.0295 47.7267 65.7695 48.2533 65.7695 48.92C65.7695 49.2533 65.8362 49.5467 65.9695 49.8C66.1162 50.0533 66.3095 50.2733 66.5495 50.46C66.7895 50.6333 67.0629 50.7667 67.3695 50.86C67.6895 50.9533 68.0229 51 68.3695 51C68.8495 51 69.2962 50.9333 69.7095 50.8C70.1362 50.6533 70.5029 50.46 70.8095 50.22C71.1295 49.9667 71.3762 49.6733 71.5495 49.34C71.7362 48.9933 71.8295 48.6133 71.8295 48.2V47.2C71.4429 47.0933 70.9962 46.9933 70.4895 46.9C69.9962 46.8067 69.4295 46.76 68.7895 46.76ZM86.4116 50.2C86.4116 51.04 86.2849 51.7733 86.0316 52.4C85.7916 53.0267 85.4382 53.5467 84.9716 53.96C84.5182 54.3867 83.9649 54.7067 83.3116 54.92C82.6716 55.1333 81.9516 55.24 81.1516 55.24C80.2849 55.24 79.4582 55.12 78.6716 54.88C77.8849 54.64 77.1449 54.28 76.4516 53.8L77.1516 52.6C77.7516 53.0267 78.3782 53.3533 79.0316 53.58C79.6849 53.8067 80.3849 53.92 81.1316 53.92C82.2782 53.92 83.1916 53.6067 83.8716 52.98C84.5516 52.3667 84.8916 51.4533 84.8916 50.24V49.02C84.4382 49.62 83.8849 50.1333 83.2316 50.56C82.5782 50.9867 81.7782 51.2 80.8316 51.2C80.2049 51.2 79.5982 51.0933 79.0116 50.88C78.4382 50.6533 77.9249 50.3333 77.4716 49.92C77.0182 49.4933 76.6516 48.98 76.3716 48.38C76.1049 47.78 75.9716 47.1 75.9716 46.34C75.9716 45.58 76.1049 44.9 76.3716 44.3C76.6516 43.6867 77.0182 43.1733 77.4716 42.76C77.9249 42.3333 78.4449 42.0067 79.0316 41.78C79.6182 41.5533 80.2182 41.44 80.8316 41.44C81.3116 41.44 81.7516 41.5 82.1516 41.62C82.5649 41.7267 82.9316 41.8733 83.2516 42.06C83.5849 42.2467 83.8849 42.4667 84.1516 42.72C84.4182 42.9733 84.6582 43.24 84.8716 43.52V41.66H86.4116V50.2ZM84.9316 46.32C84.9316 45.7867 84.8249 45.3067 84.6116 44.88C84.3982 44.44 84.1116 44.0667 83.7516 43.76C83.4049 43.4533 83.0049 43.22 82.5516 43.06C82.0982 42.8867 81.6249 42.8 81.1316 42.8C80.6382 42.8 80.1716 42.88 79.7316 43.04C79.3049 43.2 78.9249 43.4333 78.5916 43.74C78.2716 44.0467 78.0182 44.42 77.8316 44.86C77.6449 45.2867 77.5516 45.7667 77.5516 46.3C77.5516 46.8333 77.6449 47.32 77.8316 47.76C78.0316 48.1867 78.2916 48.56 78.6116 48.88C78.9449 49.1867 79.3249 49.4267 79.7516 49.6C80.1916 49.76 80.6516 49.84 81.1316 49.84C81.6249 49.84 82.0982 49.76 82.5516 49.6C83.0049 49.4267 83.4049 49.1867 83.7516 48.88C84.1116 48.5733 84.3982 48.2067 84.6116 47.78C84.8249 47.34 84.9316 46.8533 84.9316 46.32ZM90.7728 47.4C90.8261 47.96 90.9595 48.46 91.1728 48.9C91.3861 49.3267 91.6595 49.6933 91.9928 50C92.3261 50.2933 92.6995 50.52 93.1128 50.68C93.5261 50.8267 93.9595 50.9 94.4128 50.9C95.1328 50.9 95.7461 50.7667 96.2528 50.5C96.7728 50.2333 97.2461 49.88 97.6728 49.44L98.6328 50.3C98.1128 50.8867 97.5195 51.36 96.8528 51.72C96.1861 52.0667 95.3595 52.24 94.3728 52.24C93.6661 52.24 92.9995 52.1133 92.3728 51.86C91.7461 51.5933 91.1995 51.2267 90.7328 50.76C90.2661 50.28 89.8928 49.7067 89.6128 49.04C89.3461 48.3733 89.2128 47.64 89.2128 46.84C89.2128 46.0933 89.3328 45.3933 89.5728 44.74C89.8261 44.0733 90.1728 43.5 90.6128 43.02C91.0528 42.5267 91.5728 42.14 92.1728 41.86C92.7861 41.58 93.4528 41.44 94.1728 41.44C94.9328 41.44 95.6128 41.5867 96.2128 41.88C96.8128 42.16 97.3195 42.5467 97.7328 43.04C98.1461 43.5333 98.4595 44.1133 98.6728 44.78C98.8861 45.4467 98.9928 46.16 98.9928 46.92C98.9928 46.9867 98.9928 47.06 98.9928 47.14C98.9928 47.22 98.9861 47.3067 98.9728 47.4H90.7728ZM90.7728 46.26H97.4328C97.3928 45.7933 97.2928 45.3467 97.1328 44.92C96.9861 44.4933 96.7728 44.12 96.4928 43.8C96.2261 43.48 95.8928 43.2267 95.4928 43.04C95.1061 42.84 94.6528 42.74 94.1328 42.74C93.6795 42.74 93.2595 42.8333 92.8728 43.02C92.4861 43.1933 92.1461 43.44 91.8528 43.76C91.5595 44.0667 91.3195 44.4333 91.1328 44.86C90.9461 45.2867 90.8261 45.7533 90.7728 46.26ZM111.529 52H109.989V49.92C109.775 50.2267 109.535 50.52 109.269 50.8C109.015 51.08 108.729 51.3267 108.409 51.54C108.089 51.7533 107.729 51.92 107.329 52.04C106.942 52.16 106.509 52.22 106.029 52.22C105.402 52.22 104.795 52.1 104.209 51.86C103.622 51.62 103.095 51.2733 102.629 50.82C102.162 50.3533 101.789 49.7867 101.509 49.12C101.229 48.4533 101.089 47.6933 101.089 46.84C101.089 45.9867 101.229 45.2267 101.509 44.56C101.789 43.8933 102.162 43.3333 102.629 42.88C103.095 42.4133 103.622 42.06 104.209 41.82C104.795 41.5667 105.402 41.44 106.029 41.44C106.509 41.44 106.949 41.5 107.349 41.62C107.749 41.74 108.109 41.9 108.429 42.1C108.749 42.3 109.035 42.5333 109.289 42.8C109.555 43.0667 109.789 43.3467 109.989 43.64V37.4H111.529V52ZM110.049 46.82C110.049 46.22 109.942 45.6733 109.729 45.18C109.529 44.6867 109.249 44.2667 108.889 43.92C108.542 43.5733 108.142 43.3067 107.689 43.12C107.249 42.92 106.789 42.82 106.309 42.82C105.802 42.82 105.329 42.9133 104.889 43.1C104.449 43.2733 104.062 43.5333 103.729 43.88C103.409 44.2133 103.149 44.6333 102.949 45.14C102.762 45.6333 102.669 46.1933 102.669 46.82C102.669 47.4333 102.762 47.9867 102.949 48.48C103.149 48.9733 103.415 49.4 103.749 49.76C104.082 50.1067 104.469 50.3733 104.909 50.56C105.349 50.7467 105.815 50.84 106.309 50.84C106.789 50.84 107.249 50.7467 107.689 50.56C108.142 50.36 108.542 50.0867 108.889 49.74C109.249 49.3933 109.529 48.9733 109.729 48.48C109.942 47.9733 110.049 47.42 110.049 46.82ZM128.066 49.1C128.066 49.5933 127.966 50.0333 127.766 50.42C127.579 50.7933 127.319 51.1133 126.986 51.38C126.666 51.6467 126.279 51.8533 125.826 52C125.386 52.1333 124.906 52.2 124.386 52.2C123.639 52.2 122.886 52.0667 122.126 51.8C121.366 51.52 120.693 51.1467 120.106 50.68L120.886 49.58C121.446 50.0067 122.026 50.3333 122.626 50.56C123.239 50.7867 123.853 50.9 124.466 50.9C125.093 50.9 125.606 50.7533 126.006 50.46C126.406 50.1667 126.606 49.7667 126.606 49.26V49.22C126.606 48.9667 126.533 48.7467 126.386 48.56C126.253 48.3733 126.066 48.2133 125.826 48.08C125.586 47.9333 125.306 47.8067 124.986 47.7C124.679 47.5933 124.359 47.4933 124.026 47.4C123.626 47.28 123.219 47.1533 122.806 47.02C122.406 46.8733 122.039 46.6933 121.706 46.48C121.386 46.2667 121.119 46 120.906 45.68C120.706 45.36 120.606 44.96 120.606 44.48V44.44C120.606 44 120.693 43.6 120.866 43.24C121.039 42.8667 121.279 42.5533 121.586 42.3C121.906 42.0333 122.279 41.8333 122.706 41.7C123.146 41.5533 123.619 41.48 124.126 41.48C124.766 41.48 125.413 41.5867 126.066 41.8C126.719 42 127.313 42.2733 127.846 42.62L127.146 43.78C126.666 43.4733 126.159 43.2333 125.626 43.06C125.106 42.8733 124.593 42.78 124.086 42.78C123.473 42.78 122.986 42.9267 122.626 43.22C122.266 43.5 122.086 43.8533 122.086 44.28V44.32C122.086 44.56 122.159 44.7733 122.306 44.96C122.453 45.1333 122.646 45.2867 122.886 45.42C123.139 45.5533 123.426 45.6733 123.746 45.78C124.066 45.8867 124.399 45.9933 124.746 46.1C125.146 46.22 125.539 46.3533 125.926 46.5C126.326 46.6467 126.686 46.8333 127.006 47.06C127.326 47.2867 127.579 47.56 127.766 47.88C127.966 48.2 128.066 48.5933 128.066 49.06V49.1ZM131.847 47.4C131.9 47.96 132.034 48.46 132.247 48.9C132.46 49.3267 132.734 49.6933 133.067 50C133.4 50.2933 133.774 50.52 134.187 50.68C134.6 50.8267 135.034 50.9 135.487 50.9C136.207 50.9 136.82 50.7667 137.327 50.5C137.847 50.2333 138.32 49.88 138.747 49.44L139.707 50.3C139.187 50.8867 138.594 51.36 137.927 51.72C137.26 52.0667 136.434 52.24 135.447 52.24C134.74 52.24 134.074 52.1133 133.447 51.86C132.82 51.5933 132.274 51.2267 131.807 50.76C131.34 50.28 130.967 49.7067 130.687 49.04C130.42 48.3733 130.287 47.64 130.287 46.84C130.287 46.0933 130.407 45.3933 130.647 44.74C130.9 44.0733 131.247 43.5 131.687 43.02C132.127 42.5267 132.647 42.14 133.247 41.86C133.86 41.58 134.527 41.44 135.247 41.44C136.007 41.44 136.687 41.5867 137.287 41.88C137.887 42.16 138.394 42.5467 138.807 43.04C139.22 43.5333 139.534 44.1133 139.747 44.78C139.96 45.4467 140.067 46.16 140.067 46.92C140.067 46.9867 140.067 47.06 140.067 47.14C140.067 47.22 140.06 47.3067 140.047 47.4H131.847ZM131.847 46.26H138.507C138.467 45.7933 138.367 45.3467 138.207 44.92C138.06 44.4933 137.847 44.12 137.567 43.8C137.3 43.48 136.967 43.2267 136.567 43.04C136.18 42.84 135.727 42.74 135.207 42.74C134.754 42.74 134.334 42.8333 133.947 43.02C133.56 43.1933 133.22 43.44 132.927 43.76C132.634 44.0667 132.394 44.4333 132.207 44.86C132.02 45.2867 131.9 45.7533 131.847 46.26ZM144.303 47.88V52H142.763V41.66H144.303V44.36C144.49 43.9333 144.723 43.54 145.003 43.18C145.283 42.82 145.603 42.5133 145.963 42.26C146.323 41.9933 146.716 41.7933 147.143 41.66C147.57 41.5267 148.03 41.4667 148.523 41.48V43.14H148.403C147.843 43.14 147.31 43.24 146.803 43.44C146.31 43.64 145.876 43.94 145.503 44.34C145.13 44.74 144.836 45.24 144.623 45.84C144.41 46.4267 144.303 47.1067 144.303 47.88ZM155.028 50.24L158.528 41.66H160.188L155.688 52.08H154.328L149.848 41.66H151.548L155.028 50.24ZM164.407 39.4H162.647V37.7H164.407V39.4ZM164.287 52H162.747V41.66H164.287V52ZM176.741 50.24C176.221 50.8267 175.627 51.3067 174.961 51.68C174.307 52.0533 173.494 52.24 172.521 52.24C171.761 52.24 171.054 52.1 170.401 51.82C169.761 51.5267 169.201 51.14 168.721 50.66C168.254 50.1667 167.887 49.5933 167.621 48.94C167.354 48.2867 167.221 47.5933 167.221 46.86C167.221 46.1267 167.354 45.4333 167.621 44.78C167.887 44.1133 168.254 43.5333 168.721 43.04C169.201 42.5467 169.761 42.16 170.401 41.88C171.054 41.5867 171.761 41.44 172.521 41.44C173.014 41.44 173.461 41.4867 173.861 41.58C174.261 41.6733 174.627 41.8067 174.961 41.98C175.294 42.14 175.601 42.3333 175.881 42.56C176.161 42.7867 176.421 43.0267 176.661 43.28L175.641 44.36C175.227 43.9333 174.774 43.5667 174.281 43.26C173.801 42.9533 173.207 42.8 172.501 42.8C171.981 42.8 171.494 42.9067 171.041 43.12C170.587 43.32 170.194 43.6067 169.861 43.98C169.527 44.34 169.267 44.7667 169.081 45.26C168.894 45.74 168.801 46.26 168.801 46.82C168.801 47.38 168.894 47.9067 169.081 48.4C169.281 48.8933 169.547 49.3267 169.881 49.7C170.227 50.06 170.627 50.3467 171.081 50.56C171.547 50.76 172.054 50.86 172.601 50.86C173.267 50.86 173.854 50.7133 174.361 50.42C174.881 50.1267 175.347 49.76 175.761 49.32L176.741 50.24ZM179.913 47.4C179.967 47.96 180.1 48.46 180.313 48.9C180.527 49.3267 180.8 49.6933 181.133 50C181.467 50.2933 181.84 50.52 182.253 50.68C182.667 50.8267 183.1 50.9 183.553 50.9C184.273 50.9 184.887 50.7667 185.393 50.5C185.913 50.2333 186.387 49.88 186.813 49.44L187.773 50.3C187.253 50.8867 186.66 51.36 185.993 51.72C185.327 52.0667 184.5 52.24 183.513 52.24C182.807 52.24 182.14 52.1133 181.513 51.86C180.887 51.5933 180.34 51.2267 179.873 50.76C179.407 50.28 179.033 49.7067 178.753 49.04C178.487 48.3733 178.353 47.64 178.353 46.84C178.353 46.0933 178.473 45.3933 178.713 44.74C178.967 44.0733 179.313 43.5 179.753 43.02C180.193 42.5267 180.713 42.14 181.313 41.86C181.927 41.58 182.593 41.44 183.313 41.44C184.073 41.44 184.753 41.5867 185.353 41.88C185.953 42.16 186.46 42.5467 186.873 43.04C187.287 43.5333 187.6 44.1133 187.813 44.78C188.027 45.4467 188.133 46.16 188.133 46.92C188.133 46.9867 188.133 47.06 188.133 47.14C188.133 47.22 188.127 47.3067 188.113 47.4H179.913ZM179.913 46.26H186.573C186.533 45.7933 186.433 45.3467 186.273 44.92C186.127 44.4933 185.913 44.12 185.633 43.8C185.367 43.48 185.033 43.2267 184.633 43.04C184.247 42.84 183.793 42.74 183.273 42.74C182.82 42.74 182.4 42.8333 182.013 43.02C181.627 43.1933 181.287 43.44 180.993 43.76C180.7 44.0667 180.46 44.4333 180.273 44.86C180.087 45.2867 179.967 45.7533 179.913 46.26ZM197.929 49.1C197.929 49.5933 197.829 50.0333 197.629 50.42C197.443 50.7933 197.183 51.1133 196.849 51.38C196.529 51.6467 196.143 51.8533 195.689 52C195.249 52.1333 194.769 52.2 194.249 52.2C193.503 52.2 192.749 52.0667 191.989 51.8C191.229 51.52 190.556 51.1467 189.969 50.68L190.749 49.58C191.309 50.0067 191.889 50.3333 192.489 50.56C193.103 50.7867 193.716 50.9 194.329 50.9C194.956 50.9 195.469 50.7533 195.869 50.46C196.269 50.1667 196.469 49.7667 196.469 49.26V49.22C196.469 48.9667 196.396 48.7467 196.249 48.56C196.116 48.3733 195.929 48.2133 195.689 48.08C195.449 47.9333 195.169 47.8067 194.849 47.7C194.543 47.5933 194.223 47.4933 193.889 47.4C193.489 47.28 193.083 47.1533 192.669 47.02C192.269 46.8733 191.903 46.6933 191.569 46.48C191.249 46.2667 190.983 46 190.769 45.68C190.569 45.36 190.469 44.96 190.469 44.48V44.44C190.469 44 190.556 43.6 190.729 43.24C190.903 42.8667 191.143 42.5533 191.449 42.3C191.769 42.0333 192.143 41.8333 192.569 41.7C193.009 41.5533 193.483 41.48 193.989 41.48C194.629 41.48 195.276 41.5867 195.929 41.8C196.583 42 197.176 42.2733 197.709 42.62L197.009 43.78C196.529 43.4733 196.023 43.2333 195.489 43.06C194.969 42.8733 194.456 42.78 193.949 42.78C193.336 42.78 192.849 42.9267 192.489 43.22C192.129 43.5 191.949 43.8533 191.949 44.28V44.32C191.949 44.56 192.023 44.7733 192.169 44.96C192.316 45.1333 192.509 45.2867 192.749 45.42C193.003 45.5533 193.289 45.6733 193.609 45.78C193.929 45.8867 194.263 45.9933 194.609 46.1C195.009 46.22 195.403 46.3533 195.789 46.5C196.189 46.6467 196.549 46.8333 196.869 47.06C197.189 47.2867 197.443 47.56 197.629 47.88C197.829 48.2 197.929 48.5933 197.929 49.06V49.1ZM212.626 38.72C211.093 39.6933 209.933 40.7933 209.146 42.02C208.373 43.2333 207.986 44.6467 207.986 46.26C207.986 47.8733 208.373 49.2933 209.146 50.52C209.933 51.7333 211.093 52.8267 212.626 53.8L211.966 54.82C210.18 53.82 208.806 52.6067 207.846 51.18C206.9 49.7533 206.426 48.1133 206.426 46.26C206.426 44.4067 206.9 42.7667 207.846 41.34C208.806 39.9133 210.18 38.7 211.966 37.7L212.626 38.72ZM222.265 49.1C222.265 49.5933 222.165 50.0333 221.965 50.42C221.779 50.7933 221.519 51.1133 221.185 51.38C220.865 51.6467 220.479 51.8533 220.025 52C219.585 52.1333 219.105 52.2 218.585 52.2C217.839 52.2 217.085 52.0667 216.325 51.8C215.565 51.52 214.892 51.1467 214.305 50.68L215.085 49.58C215.645 50.0067 216.225 50.3333 216.825 50.56C217.439 50.7867 218.052 50.9 218.665 50.9C219.292 50.9 219.805 50.7533 220.205 50.46C220.605 50.1667 220.805 49.7667 220.805 49.26V49.22C220.805 48.9667 220.732 48.7467 220.585 48.56C220.452 48.3733 220.265 48.2133 220.025 48.08C219.785 47.9333 219.505 47.8067 219.185 47.7C218.879 47.5933 218.559 47.4933 218.225 47.4C217.825 47.28 217.419 47.1533 217.005 47.02C216.605 46.8733 216.239 46.6933 215.905 46.48C215.585 46.2667 215.319 46 215.105 45.68C214.905 45.36 214.805 44.96 214.805 44.48V44.44C214.805 44 214.892 43.6 215.065 43.24C215.239 42.8667 215.479 42.5533 215.785 42.3C216.105 42.0333 216.479 41.8333 216.905 41.7C217.345 41.5533 217.819 41.48 218.325 41.48C218.965 41.48 219.612 41.5867 220.265 41.8C220.919 42 221.512 42.2733 222.045 42.62L221.345 43.78C220.865 43.4733 220.359 43.2333 219.825 43.06C219.305 42.8733 218.792 42.78 218.285 42.78C217.672 42.78 217.185 42.9267 216.825 43.22C216.465 43.5 216.285 43.8533 216.285 44.28V44.32C216.285 44.56 216.359 44.7733 216.505 44.96C216.652 45.1333 216.845 45.2867 217.085 45.42C217.339 45.5533 217.625 45.6733 217.945 45.78C218.265 45.8867 218.599 45.9933 218.945 46.1C219.345 46.22 219.739 46.3533 220.125 46.5C220.525 46.6467 220.885 46.8333 221.205 47.06C221.525 47.2867 221.779 47.56 221.965 47.88C222.165 48.2 222.265 48.5933 222.265 49.06V49.1ZM227.011 43.02V49.06C227.011 49.7 227.171 50.1467 227.491 50.4C227.811 50.6533 228.231 50.78 228.751 50.78C229.018 50.78 229.264 50.7533 229.491 50.7C229.731 50.6467 229.984 50.5533 230.251 50.42V51.74C229.984 51.8867 229.698 51.9933 229.391 52.06C229.098 52.14 228.764 52.18 228.391 52.18C227.978 52.18 227.591 52.1267 227.231 52.02C226.871 51.9133 226.558 51.7467 226.291 51.52C226.038 51.28 225.838 50.9733 225.691 50.6C225.544 50.2267 225.471 49.78 225.471 49.26V43.02H224.031V41.66H225.471V38.54H227.011V41.66H230.291V43.02H227.011ZM236.757 42.88C236.144 42.88 235.584 42.9533 235.077 43.1C234.584 43.2333 234.097 43.4133 233.617 43.64L233.157 42.38C233.73 42.1133 234.31 41.9067 234.897 41.76C235.484 41.6 236.157 41.52 236.917 41.52C238.33 41.52 239.417 41.8733 240.177 42.58C240.937 43.2733 241.317 44.3067 241.317 45.68V52H239.837V50.44C239.477 50.9067 238.99 51.32 238.377 51.68C237.777 52.04 237.017 52.22 236.097 52.22C235.617 52.22 235.144 52.1533 234.677 52.02C234.224 51.8867 233.81 51.6867 233.437 51.42C233.077 51.14 232.784 50.8 232.557 50.4C232.344 50 232.237 49.5267 232.237 48.98C232.237 48.4333 232.344 47.9533 232.557 47.54C232.77 47.1133 233.07 46.76 233.457 46.48C233.857 46.2 234.324 45.9867 234.857 45.84C235.404 45.6933 236.004 45.62 236.657 45.62C237.324 45.62 237.904 45.66 238.397 45.74C238.89 45.82 239.37 45.9267 239.837 46.06V45.7C239.837 44.7667 239.564 44.0667 239.017 43.6C238.484 43.12 237.73 42.88 236.757 42.88ZM236.817 46.76C235.844 46.76 235.097 46.9533 234.577 47.34C234.057 47.7267 233.797 48.2533 233.797 48.92C233.797 49.2533 233.864 49.5467 233.997 49.8C234.144 50.0533 234.337 50.2733 234.577 50.46C234.817 50.6333 235.09 50.7667 235.397 50.86C235.717 50.9533 236.05 51 236.397 51C236.877 51 237.324 50.9333 237.737 50.8C238.164 50.6533 238.53 50.46 238.837 50.22C239.157 49.9667 239.404 49.6733 239.577 49.34C239.764 48.9933 239.857 48.6133 239.857 48.2V47.2C239.47 47.0933 239.024 46.9933 238.517 46.9C238.024 46.8067 237.457 46.76 236.817 46.76ZM246.139 46.08V52H244.599V41.66H246.139V43.46C246.486 42.9 246.939 42.4267 247.499 42.04C248.059 41.64 248.786 41.44 249.679 41.44C250.306 41.44 250.859 41.54 251.339 41.74C251.832 41.94 252.246 42.2267 252.579 42.6C252.926 42.96 253.186 43.3933 253.359 43.9C253.546 44.4067 253.639 44.9667 253.639 45.58V52H252.099V45.96C252.099 45 251.852 44.24 251.359 43.68C250.866 43.12 250.159 42.84 249.239 42.84C248.799 42.84 248.386 42.92 247.999 43.08C247.626 43.2267 247.299 43.4467 247.019 43.74C246.739 44.02 246.519 44.36 246.359 44.76C246.212 45.16 246.139 45.6 246.139 46.08ZM266.763 52H265.223V49.92C265.01 50.2267 264.77 50.52 264.503 50.8C264.25 51.08 263.963 51.3267 263.643 51.54C263.323 51.7533 262.963 51.92 262.563 52.04C262.176 52.16 261.743 52.22 261.263 52.22C260.636 52.22 260.03 52.1 259.443 51.86C258.856 51.62 258.33 51.2733 257.863 50.82C257.396 50.3533 257.023 49.7867 256.743 49.12C256.463 48.4533 256.323 47.6933 256.323 46.84C256.323 45.9867 256.463 45.2267 256.743 44.56C257.023 43.8933 257.396 43.3333 257.863 42.88C258.33 42.4133 258.856 42.06 259.443 41.82C260.03 41.5667 260.636 41.44 261.263 41.44C261.743 41.44 262.183 41.5 262.583 41.62C262.983 41.74 263.343 41.9 263.663 42.1C263.983 42.3 264.27 42.5333 264.523 42.8C264.79 43.0667 265.023 43.3467 265.223 43.64V37.4H266.763V52ZM265.283 46.82C265.283 46.22 265.176 45.6733 264.963 45.18C264.763 44.6867 264.483 44.2667 264.123 43.92C263.776 43.5733 263.376 43.3067 262.923 43.12C262.483 42.92 262.023 42.82 261.543 42.82C261.036 42.82 260.563 42.9133 260.123 43.1C259.683 43.2733 259.296 43.5333 258.963 43.88C258.643 44.2133 258.383 44.6333 258.183 45.14C257.996 45.6333 257.903 46.1933 257.903 46.82C257.903 47.4333 257.996 47.9867 258.183 48.48C258.383 48.9733 258.65 49.4 258.983 49.76C259.316 50.1067 259.703 50.3733 260.143 50.56C260.583 50.7467 261.05 50.84 261.543 50.84C262.023 50.84 262.483 50.7467 262.923 50.56C263.376 50.36 263.776 50.0867 264.123 49.74C264.483 49.3933 264.763 48.9733 264.963 48.48C265.176 47.9733 265.283 47.42 265.283 46.82ZM273.944 42.88C273.331 42.88 272.771 42.9533 272.264 43.1C271.771 43.2333 271.284 43.4133 270.804 43.64L270.344 42.38C270.918 42.1133 271.498 41.9067 272.084 41.76C272.671 41.6 273.344 41.52 274.104 41.52C275.518 41.52 276.604 41.8733 277.364 42.58C278.124 43.2733 278.504 44.3067 278.504 45.68V52H277.024V50.44C276.664 50.9067 276.178 51.32 275.564 51.68C274.964 52.04 274.204 52.22 273.284 52.22C272.804 52.22 272.331 52.1533 271.864 52.02C271.411 51.8867 270.998 51.6867 270.624 51.42C270.264 51.14 269.971 50.8 269.744 50.4C269.531 50 269.424 49.5267 269.424 48.98C269.424 48.4333 269.531 47.9533 269.744 47.54C269.958 47.1133 270.258 46.76 270.644 46.48C271.044 46.2 271.511 45.9867 272.044 45.84C272.591 45.6933 273.191 45.62 273.844 45.62C274.511 45.62 275.091 45.66 275.584 45.74C276.078 45.82 276.558 45.9267 277.024 46.06V45.7C277.024 44.7667 276.751 44.0667 276.204 43.6C275.671 43.12 274.918 42.88 273.944 42.88ZM274.004 46.76C273.031 46.76 272.284 46.9533 271.764 47.34C271.244 47.7267 270.984 48.2533 270.984 48.92C270.984 49.2533 271.051 49.5467 271.184 49.8C271.331 50.0533 271.524 50.2733 271.764 50.46C272.004 50.6333 272.278 50.7667 272.584 50.86C272.904 50.9533 273.238 51 273.584 51C274.064 51 274.511 50.9333 274.924 50.8C275.351 50.6533 275.718 50.46 276.024 50.22C276.344 49.9667 276.591 49.6733 276.764 49.34C276.951 48.9933 277.044 48.6133 277.044 48.2V47.2C276.658 47.0933 276.211 46.9933 275.704 46.9C275.211 46.8067 274.644 46.76 274.004 46.76ZM283.326 47.88V52H281.786V41.66H283.326V44.36C283.513 43.9333 283.746 43.54 284.026 43.18C284.306 42.82 284.626 42.5133 284.986 42.26C285.346 41.9933 285.74 41.7933 286.166 41.66C286.593 41.5267 287.053 41.4667 287.546 41.48V43.14H287.426C286.866 43.14 286.333 43.24 285.826 43.44C285.333 43.64 284.9 43.94 284.526 44.34C284.153 44.74 283.86 45.24 283.646 45.84C283.433 46.4267 283.326 47.1067 283.326 47.88ZM299.302 52H297.762V49.92C297.549 50.2267 297.309 50.52 297.042 50.8C296.789 51.08 296.502 51.3267 296.182 51.54C295.862 51.7533 295.502 51.92 295.102 52.04C294.716 52.16 294.282 52.22 293.802 52.22C293.176 52.22 292.569 52.1 291.982 51.86C291.396 51.62 290.869 51.2733 290.402 50.82C289.936 50.3533 289.562 49.7867 289.282 49.12C289.002 48.4533 288.862 47.6933 288.862 46.84C288.862 45.9867 289.002 45.2267 289.282 44.56C289.562 43.8933 289.936 43.3333 290.402 42.88C290.869 42.4133 291.396 42.06 291.982 41.82C292.569 41.5667 293.176 41.44 293.802 41.44C294.282 41.44 294.722 41.5 295.122 41.62C295.522 41.74 295.882 41.9 296.202 42.1C296.522 42.3 296.809 42.5333 297.062 42.8C297.329 43.0667 297.562 43.3467 297.762 43.64V37.4H299.302V52ZM297.822 46.82C297.822 46.22 297.716 45.6733 297.502 45.18C297.302 44.6867 297.022 44.2667 296.662 43.92C296.316 43.5733 295.916 43.3067 295.462 43.12C295.022 42.92 294.562 42.82 294.082 42.82C293.576 42.82 293.102 42.9133 292.662 43.1C292.222 43.2733 291.836 43.5333 291.502 43.88C291.182 44.2133 290.922 44.6333 290.722 45.14C290.536 45.6333 290.442 46.1933 290.442 46.82C290.442 47.4333 290.536 47.9867 290.722 48.48C290.922 48.9733 291.189 49.4 291.522 49.76C291.856 50.1067 292.242 50.3733 292.682 50.56C293.122 50.7467 293.589 50.84 294.082 50.84C294.562 50.84 295.022 50.7467 295.462 50.56C295.916 50.36 296.316 50.0867 296.662 49.74C297.022 49.3933 297.302 48.9733 297.502 48.48C297.716 47.9733 297.822 47.42 297.822 46.82ZM312.48 42.88C311.866 42.88 311.306 42.9533 310.8 43.1C310.306 43.2333 309.82 43.4133 309.34 43.64L308.88 42.38C309.453 42.1133 310.033 41.9067 310.62 41.76C311.206 41.6 311.88 41.52 312.64 41.52C314.053 41.52 315.14 41.8733 315.9 42.58C316.66 43.2733 317.04 44.3067 317.04 45.68V52H315.56V50.44C315.2 50.9067 314.713 51.32 314.1 51.68C313.5 52.04 312.74 52.22 311.82 52.22C311.34 52.22 310.866 52.1533 310.4 52.02C309.946 51.8867 309.533 51.6867 309.16 51.42C308.8 51.14 308.506 50.8 308.28 50.4C308.066 50 307.96 49.5267 307.96 48.98C307.96 48.4333 308.066 47.9533 308.28 47.54C308.493 47.1133 308.793 46.76 309.18 46.48C309.58 46.2 310.046 45.9867 310.58 45.84C311.126 45.6933 311.726 45.62 312.38 45.62C313.046 45.62 313.626 45.66 314.12 45.74C314.613 45.82 315.093 45.9267 315.56 46.06V45.7C315.56 44.7667 315.286 44.0667 314.74 43.6C314.206 43.12 313.453 42.88 312.48 42.88ZM312.54 46.76C311.566 46.76 310.82 46.9533 310.3 47.34C309.78 47.7267 309.52 48.2533 309.52 48.92C309.52 49.2533 309.586 49.5467 309.72 49.8C309.866 50.0533 310.06 50.2733 310.3 50.46C310.54 50.6333 310.813 50.7667 311.12 50.86C311.44 50.9533 311.773 51 312.12 51C312.6 51 313.046 50.9333 313.46 50.8C313.886 50.6533 314.253 50.46 314.56 50.22C314.88 49.9667 315.126 49.6733 315.3 49.34C315.486 48.9933 315.58 48.6133 315.58 48.2V47.2C315.193 47.0933 314.746 46.9933 314.24 46.9C313.746 46.8067 313.18 46.76 312.54 46.76ZM321.862 46.08V52H320.322V41.66H321.862V43.46C322.208 42.9 322.662 42.4267 323.222 42.04C323.782 41.64 324.508 41.44 325.402 41.44C326.028 41.44 326.582 41.54 327.062 41.74C327.555 41.94 327.968 42.2267 328.302 42.6C328.648 42.96 328.908 43.3933 329.082 43.9C329.268 44.4067 329.362 44.9667 329.362 45.58V52H327.822V45.96C327.822 45 327.575 44.24 327.082 43.68C326.588 43.12 325.882 42.84 324.962 42.84C324.522 42.84 324.108 42.92 323.722 43.08C323.348 43.2267 323.022 43.4467 322.742 43.74C322.462 44.02 322.242 44.36 322.082 44.76C321.935 45.16 321.862 45.6 321.862 46.08ZM342.486 52H340.946V49.92C340.732 50.2267 340.492 50.52 340.226 50.8C339.972 51.08 339.686 51.3267 339.366 51.54C339.046 51.7533 338.686 51.92 338.286 52.04C337.899 52.16 337.466 52.22 336.986 52.22C336.359 52.22 335.752 52.1 335.166 51.86C334.579 51.62 334.052 51.2733 333.586 50.82C333.119 50.3533 332.746 49.7867 332.466 49.12C332.186 48.4533 332.046 47.6933 332.046 46.84C332.046 45.9867 332.186 45.2267 332.466 44.56C332.746 43.8933 333.119 43.3333 333.586 42.88C334.052 42.4133 334.579 42.06 335.166 41.82C335.752 41.5667 336.359 41.44 336.986 41.44C337.466 41.44 337.906 41.5 338.306 41.62C338.706 41.74 339.066 41.9 339.386 42.1C339.706 42.3 339.992 42.5333 340.246 42.8C340.512 43.0667 340.746 43.3467 340.946 43.64V37.4H342.486V52ZM341.006 46.82C341.006 46.22 340.899 45.6733 340.686 45.18C340.486 44.6867 340.206 44.2667 339.846 43.92C339.499 43.5733 339.099 43.3067 338.646 43.12C338.206 42.92 337.746 42.82 337.266 42.82C336.759 42.82 336.286 42.9133 335.846 43.1C335.406 43.2733 335.019 43.5333 334.686 43.88C334.366 44.2133 334.106 44.6333 333.906 45.14C333.719 45.6333 333.626 46.1933 333.626 46.82C333.626 47.4333 333.719 47.9867 333.906 48.48C334.106 48.9733 334.372 49.4 334.706 49.76C335.039 50.1067 335.426 50.3733 335.866 50.56C336.306 50.7467 336.772 50.84 337.266 50.84C337.746 50.84 338.206 50.7467 338.646 50.56C339.099 50.36 339.499 50.0867 339.846 49.74C340.206 49.3933 340.486 48.9733 340.686 48.48C340.899 47.9733 341.006 47.42 341.006 46.82ZM25.26 72.08V78H23.72V67.66H25.26V69.46C25.6067 68.9 26.06 68.4267 26.62 68.04C27.18 67.64 27.9067 67.44 28.8 67.44C29.4267 67.44 29.98 67.54 30.46 67.74C30.9533 67.94 31.3667 68.2267 31.7 68.6C32.0467 68.96 32.3067 69.3933 32.48 69.9C32.6667 70.4067 32.76 70.9667 32.76 71.58V78H31.22V71.96C31.22 71 30.9733 70.24 30.48 69.68C29.9867 69.12 29.28 68.84 28.36 68.84C27.92 68.84 27.5067 68.92 27.12 69.08C26.7467 69.2267 26.42 69.4467 26.14 69.74C25.86 70.02 25.64 70.36 25.48 70.76C25.3333 71.16 25.26 71.6 25.26 72.08ZM46.1842 72.82C46.1842 73.5533 46.0442 74.2533 45.7642 74.92C45.4976 75.5733 45.1242 76.1467 44.6442 76.64C44.1642 77.1333 43.5909 77.5267 42.9242 77.82C42.2576 78.1 41.5376 78.24 40.7642 78.24C39.9909 78.24 39.2776 78.1 38.6242 77.82C37.9709 77.5267 37.4042 77.14 36.9242 76.66C36.4442 76.1667 36.0709 75.5933 35.8042 74.94C35.5376 74.2867 35.4042 73.5933 35.4042 72.86C35.4042 72.1267 35.5376 71.4333 35.8042 70.78C36.0709 70.1133 36.4442 69.5333 36.9242 69.04C37.4042 68.5467 37.9709 68.16 38.6242 67.88C39.2909 67.5867 40.0176 67.44 40.8042 67.44C41.5776 67.44 42.2909 67.5867 42.9442 67.88C43.6109 68.16 44.1842 68.5467 44.6642 69.04C45.1442 69.52 45.5176 70.0867 45.7842 70.74C46.0509 71.3933 46.1842 72.0867 46.1842 72.82ZM44.6042 72.86C44.6042 72.3 44.5042 71.7733 44.3042 71.28C44.1176 70.7867 43.8509 70.36 43.5042 70C43.1576 69.6267 42.7509 69.3333 42.2842 69.12C41.8176 68.9067 41.3109 68.8 40.7642 68.8C40.2042 68.8 39.6909 68.9067 39.2242 69.12C38.7576 69.32 38.3576 69.6067 38.0242 69.98C37.7042 70.34 37.4509 70.7667 37.2642 71.26C37.0776 71.74 36.9842 72.26 36.9842 72.82C36.9842 73.38 37.0776 73.9067 37.2642 74.4C37.4642 74.8933 37.7309 75.32 38.0642 75.68C38.4109 76.04 38.8176 76.3267 39.2842 76.54C39.7509 76.7533 40.2576 76.86 40.8042 76.86C41.3642 76.86 41.8776 76.76 42.3442 76.56C42.8109 76.3467 43.2109 76.06 43.5442 75.7C43.8776 75.34 44.1376 74.92 44.3242 74.44C44.5109 73.9467 44.6042 73.42 44.6042 72.86ZM50.5139 72.08V78H48.9739V67.66H50.5139V69.46C50.8606 68.9 51.3139 68.4267 51.8739 68.04C52.4339 67.64 53.1606 67.44 54.0539 67.44C54.6806 67.44 55.2339 67.54 55.7139 67.74C56.2072 67.94 56.6206 68.2267 56.9539 68.6C57.3006 68.96 57.5606 69.3933 57.7339 69.9C57.9206 70.4067 58.0139 70.9667 58.0139 71.58V78H56.4739V71.96C56.4739 71 56.2272 70.24 55.7339 69.68C55.2406 69.12 54.5339 68.84 53.6139 68.84C53.1739 68.84 52.7606 68.92 52.3739 69.08C52.0006 69.2267 51.6739 69.4467 51.3939 69.74C51.1139 70.02 50.8939 70.36 50.7339 70.76C50.5872 71.16 50.5139 71.6 50.5139 72.08ZM68.3981 75.1C68.3981 75.5933 68.2981 76.0333 68.0981 76.42C67.9115 76.7933 67.6515 77.1133 67.3181 77.38C66.9981 77.6467 66.6115 77.8533 66.1581 78C65.7181 78.1333 65.2381 78.2 64.7181 78.2C63.9715 78.2 63.2181 78.0667 62.4581 77.8C61.6981 77.52 61.0248 77.1467 60.4381 76.68L61.2181 75.58C61.7781 76.0067 62.3581 76.3333 62.9581 76.56C63.5715 76.7867 64.1848 76.9 64.7981 76.9C65.4248 76.9 65.9381 76.7533 66.3381 76.46C66.7381 76.1667 66.9381 75.7667 66.9381 75.26V75.22C66.9381 74.9667 66.8648 74.7467 66.7181 74.56C66.5848 74.3733 66.3981 74.2133 66.1581 74.08C65.9181 73.9333 65.6381 73.8067 65.3181 73.7C65.0115 73.5933 64.6915 73.4933 64.3581 73.4C63.9581 73.28 63.5515 73.1533 63.1381 73.02C62.7381 72.8733 62.3715 72.6933 62.0381 72.48C61.7181 72.2667 61.4515 72 61.2381 71.68C61.0381 71.36 60.9381 70.96 60.9381 70.48V70.44C60.9381 70 61.0248 69.6 61.1981 69.24C61.3715 68.8667 61.6115 68.5533 61.9181 68.3C62.2381 68.0333 62.6115 67.8333 63.0381 67.7C63.4781 67.5533 63.9515 67.48 64.4581 67.48C65.0981 67.48 65.7448 67.5867 66.3981 67.8C67.0515 68 67.6448 68.2733 68.1781 68.62L67.4781 69.78C66.9981 69.4733 66.4915 69.2333 65.9581 69.06C65.4381 68.8733 64.9248 68.78 64.4181 68.78C63.8048 68.78 63.3181 68.9267 62.9581 69.22C62.5981 69.5 62.4181 69.8533 62.4181 70.28V70.32C62.4181 70.56 62.4915 70.7733 62.6381 70.96C62.7848 71.1333 62.9781 71.2867 63.2181 71.42C63.4715 71.5533 63.7581 71.6733 64.0781 71.78C64.3981 71.8867 64.7315 71.9933 65.0781 72.1C65.4781 72.22 65.8715 72.3533 66.2581 72.5C66.6581 72.6467 67.0181 72.8333 67.3381 73.06C67.6581 73.2867 67.9115 73.56 68.0981 73.88C68.2981 74.2 68.3981 74.5933 68.3981 75.06V75.1ZM73.1438 69.02V75.06C73.1438 75.7 73.3038 76.1467 73.6238 76.4C73.9438 76.6533 74.3638 76.78 74.8838 76.78C75.1504 76.78 75.3971 76.7533 75.6238 76.7C75.8638 76.6467 76.1171 76.5533 76.3838 76.42V77.74C76.1171 77.8867 75.8304 77.9933 75.5238 78.06C75.2304 78.14 74.8971 78.18 74.5238 78.18C74.1104 78.18 73.7238 78.1267 73.3638 78.02C73.0038 77.9133 72.6904 77.7467 72.4238 77.52C72.1704 77.28 71.9704 76.9733 71.8238 76.6C71.6771 76.2267 71.6038 75.78 71.6038 75.26V69.02H70.1638V67.66H71.6038V64.54H73.1438V67.66H76.4238V69.02H73.1438ZM82.8897 68.88C82.2764 68.88 81.7164 68.9533 81.2097 69.1C80.7164 69.2333 80.2297 69.4133 79.7497 69.64L79.2897 68.38C79.863 68.1133 80.443 67.9067 81.0297 67.76C81.6164 67.6 82.2897 67.52 83.0497 67.52C84.463 67.52 85.5497 67.8733 86.3097 68.58C87.0697 69.2733 87.4497 70.3067 87.4497 71.68V78H85.9697V76.44C85.6097 76.9067 85.123 77.32 84.5097 77.68C83.9097 78.04 83.1497 78.22 82.2297 78.22C81.7497 78.22 81.2764 78.1533 80.8097 78.02C80.3564 77.8867 79.943 77.6867 79.5697 77.42C79.2097 77.14 78.9164 76.8 78.6897 76.4C78.4764 76 78.3697 75.5267 78.3697 74.98C78.3697 74.4333 78.4764 73.9533 78.6897 73.54C78.903 73.1133 79.203 72.76 79.5897 72.48C79.9897 72.2 80.4564 71.9867 80.9897 71.84C81.5364 71.6933 82.1364 71.62 82.7897 71.62C83.4564 71.62 84.0364 71.66 84.5297 71.74C85.023 71.82 85.503 71.9267 85.9697 72.06V71.7C85.9697 70.7667 85.6964 70.0667 85.1497 69.6C84.6164 69.12 83.863 68.88 82.8897 68.88ZM82.9497 72.76C81.9764 72.76 81.2297 72.9533 80.7097 73.34C80.1897 73.7267 79.9297 74.2533 79.9297 74.92C79.9297 75.2533 79.9964 75.5467 80.1297 75.8C80.2764 76.0533 80.4697 76.2733 80.7097 76.46C80.9497 76.6333 81.223 76.7667 81.5297 76.86C81.8497 76.9533 82.183 77 82.5297 77C83.0097 77 83.4564 76.9333 83.8697 76.8C84.2964 76.6533 84.663 76.46 84.9697 76.22C85.2897 75.9667 85.5364 75.6733 85.7097 75.34C85.8964 74.9933 85.9897 74.6133 85.9897 74.2V73.2C85.603 73.0933 85.1564 72.9933 84.6497 72.9C84.1564 72.8067 83.5897 72.76 82.9497 72.76ZM92.2717 72.08V78H90.7317V67.66H92.2717V69.46C92.6184 68.9 93.0717 68.4267 93.6317 68.04C94.1917 67.64 94.9184 67.44 95.8117 67.44C96.4384 67.44 96.9917 67.54 97.4717 67.74C97.9651 67.94 98.3784 68.2267 98.7117 68.6C99.0584 68.96 99.3184 69.3933 99.4917 69.9C99.6784 70.4067 99.7717 70.9667 99.7717 71.58V78H98.2317V71.96C98.2317 71 97.9851 70.24 97.4917 69.68C96.9984 69.12 96.2917 68.84 95.3717 68.84C94.9317 68.84 94.5184 68.92 94.1317 69.08C93.7584 69.2267 93.4317 69.4467 93.1517 69.74C92.8717 70.02 92.6517 70.36 92.4917 70.76C92.3451 71.16 92.2717 71.6 92.2717 72.08ZM112.896 78H111.356V75.92C111.143 76.2267 110.903 76.52 110.636 76.8C110.383 77.08 110.096 77.3267 109.776 77.54C109.456 77.7533 109.096 77.92 108.696 78.04C108.309 78.16 107.876 78.22 107.396 78.22C106.769 78.22 106.163 78.1 105.576 77.86C104.989 77.62 104.463 77.2733 103.996 76.82C103.529 76.3533 103.156 75.7867 102.876 75.12C102.596 74.4533 102.456 73.6933 102.456 72.84C102.456 71.9867 102.596 71.2267 102.876 70.56C103.156 69.8933 103.529 69.3333 103.996 68.88C104.463 68.4133 104.989 68.06 105.576 67.82C106.163 67.5667 106.769 67.44 107.396 67.44C107.876 67.44 108.316 67.5 108.716 67.62C109.116 67.74 109.476 67.9 109.796 68.1C110.116 68.3 110.403 68.5333 110.656 68.8C110.923 69.0667 111.156 69.3467 111.356 69.64V63.4H112.896V78ZM111.416 72.82C111.416 72.22 111.309 71.6733 111.096 71.18C110.896 70.6867 110.616 70.2667 110.256 69.92C109.909 69.5733 109.509 69.3067 109.056 69.12C108.616 68.92 108.156 68.82 107.676 68.82C107.169 68.82 106.696 68.9133 106.256 69.1C105.816 69.2733 105.429 69.5333 105.096 69.88C104.776 70.2133 104.516 70.6333 104.316 71.14C104.129 71.6333 104.036 72.1933 104.036 72.82C104.036 73.4333 104.129 73.9867 104.316 74.48C104.516 74.9733 104.783 75.4 105.116 75.76C105.449 76.1067 105.836 76.3733 106.276 76.56C106.716 76.7467 107.183 76.84 107.676 76.84C108.156 76.84 108.616 76.7467 109.056 76.56C109.509 76.36 109.909 76.0867 110.256 75.74C110.616 75.3933 110.896 74.9733 111.096 74.48C111.309 73.9733 111.416 73.42 111.416 72.82ZM120.077 68.88C119.464 68.88 118.904 68.9533 118.397 69.1C117.904 69.2333 117.417 69.4133 116.937 69.64L116.477 68.38C117.051 68.1133 117.631 67.9067 118.217 67.76C118.804 67.6 119.477 67.52 120.237 67.52C121.651 67.52 122.737 67.8733 123.497 68.58C124.257 69.2733 124.637 70.3067 124.637 71.68V78H123.157V76.44C122.797 76.9067 122.311 77.32 121.697 77.68C121.097 78.04 120.337 78.22 119.417 78.22C118.937 78.22 118.464 78.1533 117.997 78.02C117.544 77.8867 117.131 77.6867 116.757 77.42C116.397 77.14 116.104 76.8 115.877 76.4C115.664 76 115.557 75.5267 115.557 74.98C115.557 74.4333 115.664 73.9533 115.877 73.54C116.091 73.1133 116.391 72.76 116.777 72.48C117.177 72.2 117.644 71.9867 118.177 71.84C118.724 71.6933 119.324 71.62 119.977 71.62C120.644 71.62 121.224 71.66 121.717 71.74C122.211 71.82 122.691 71.9267 123.157 72.06V71.7C123.157 70.7667 122.884 70.0667 122.337 69.6C121.804 69.12 121.051 68.88 120.077 68.88ZM120.137 72.76C119.164 72.76 118.417 72.9533 117.897 73.34C117.377 73.7267 117.117 74.2533 117.117 74.92C117.117 75.2533 117.184 75.5467 117.317 75.8C117.464 76.0533 117.657 76.2733 117.897 76.46C118.137 76.6333 118.411 76.7667 118.717 76.86C119.037 76.9533 119.371 77 119.717 77C120.197 77 120.644 76.9333 121.057 76.8C121.484 76.6533 121.851 76.46 122.157 76.22C122.477 75.9667 122.724 75.6733 122.897 75.34C123.084 74.9933 123.177 74.6133 123.177 74.2V73.2C122.791 73.0933 122.344 72.9933 121.837 72.9C121.344 72.8067 120.777 72.76 120.137 72.76ZM129.459 73.88V78H127.919V67.66H129.459V70.36C129.646 69.9333 129.879 69.54 130.159 69.18C130.439 68.82 130.759 68.5133 131.119 68.26C131.479 67.9933 131.873 67.7933 132.299 67.66C132.726 67.5267 133.186 67.4667 133.679 67.48V69.14H133.559C132.999 69.14 132.466 69.24 131.959 69.44C131.466 69.64 131.033 69.94 130.659 70.34C130.286 70.74 129.993 71.24 129.779 71.84C129.566 72.4267 129.459 73.1067 129.459 73.88ZM145.435 78H143.895V75.92C143.682 76.2267 143.442 76.52 143.175 76.8C142.922 77.08 142.635 77.3267 142.315 77.54C141.995 77.7533 141.635 77.92 141.235 78.04C140.848 78.16 140.415 78.22 139.935 78.22C139.308 78.22 138.702 78.1 138.115 77.86C137.528 77.62 137.002 77.2733 136.535 76.82C136.068 76.3533 135.695 75.7867 135.415 75.12C135.135 74.4533 134.995 73.6933 134.995 72.84C134.995 71.9867 135.135 71.2267 135.415 70.56C135.695 69.8933 136.068 69.3333 136.535 68.88C137.002 68.4133 137.528 68.06 138.115 67.82C138.702 67.5667 139.308 67.44 139.935 67.44C140.415 67.44 140.855 67.5 141.255 67.62C141.655 67.74 142.015 67.9 142.335 68.1C142.655 68.3 142.942 68.5333 143.195 68.8C143.462 69.0667 143.695 69.3467 143.895 69.64V63.4H145.435V78ZM143.955 72.82C143.955 72.22 143.848 71.6733 143.635 71.18C143.435 70.6867 143.155 70.2667 142.795 69.92C142.448 69.5733 142.048 69.3067 141.595 69.12C141.155 68.92 140.695 68.82 140.215 68.82C139.708 68.82 139.235 68.9133 138.795 69.1C138.355 69.2733 137.968 69.5333 137.635 69.88C137.315 70.2133 137.055 70.6333 136.855 71.14C136.668 71.6333 136.575 72.1933 136.575 72.82C136.575 73.4333 136.668 73.9867 136.855 74.48C137.055 74.9733 137.322 75.4 137.655 75.76C137.988 76.1067 138.375 76.3733 138.815 76.56C139.255 76.7467 139.722 76.84 140.215 76.84C140.695 76.84 141.155 76.7467 141.595 76.56C142.048 76.36 142.448 76.0867 142.795 75.74C143.155 75.3933 143.435 74.9733 143.635 74.48C143.848 73.9733 143.955 73.42 143.955 72.82ZM165.312 72.82C165.312 73.6733 165.172 74.4333 164.892 75.1C164.612 75.7667 164.239 76.3333 163.772 76.8C163.319 77.2533 162.792 77.6067 162.192 77.86C161.606 78.1 160.999 78.22 160.372 78.22C159.892 78.22 159.452 78.16 159.052 78.04C158.652 77.92 158.292 77.76 157.972 77.56C157.652 77.36 157.359 77.1267 157.092 76.86C156.839 76.5933 156.612 76.3133 156.412 76.02V81.2H154.872V67.66H156.412V69.74C156.626 69.4333 156.859 69.14 157.112 68.86C157.379 68.58 157.672 68.34 157.992 68.14C158.312 67.9267 158.666 67.76 159.052 67.64C159.452 67.5067 159.892 67.44 160.372 67.44C160.986 67.44 161.586 67.56 162.172 67.8C162.772 68.04 163.306 68.3933 163.772 68.86C164.239 69.3133 164.612 69.8733 164.892 70.54C165.172 71.2067 165.312 71.9667 165.312 72.82ZM163.732 72.84C163.732 72.2267 163.632 71.6733 163.432 71.18C163.246 70.6867 162.986 70.2667 162.652 69.92C162.319 69.56 161.932 69.2867 161.492 69.1C161.052 68.9133 160.586 68.82 160.092 68.82C159.612 68.82 159.146 68.92 158.692 69.12C158.252 69.3067 157.852 69.5733 157.492 69.92C157.146 70.2667 156.866 70.6867 156.652 71.18C156.452 71.6733 156.352 72.22 156.352 72.82C156.352 73.42 156.452 73.9733 156.652 74.48C156.866 74.9733 157.146 75.3933 157.492 75.74C157.852 76.0867 158.252 76.36 158.692 76.56C159.146 76.7467 159.612 76.84 160.092 76.84C160.586 76.84 161.052 76.7533 161.492 76.58C161.946 76.3933 162.332 76.1333 162.652 75.8C162.986 75.4533 163.246 75.0333 163.432 74.54C163.632 74.0333 163.732 73.4667 163.732 72.84ZM175.494 73.58V67.66H177.014V78H175.494V76.2C175.147 76.76 174.694 77.24 174.134 77.64C173.574 78.0267 172.847 78.22 171.954 78.22C171.327 78.22 170.767 78.12 170.274 77.92C169.794 77.72 169.38 77.44 169.034 77.08C168.7 76.7067 168.44 76.2667 168.254 75.76C168.08 75.2533 167.994 74.6933 167.994 74.08V67.66H169.534V73.7C169.534 74.66 169.78 75.42 170.274 75.98C170.767 76.54 171.474 76.82 172.394 76.82C172.834 76.82 173.24 76.7467 173.614 76.6C174 76.44 174.327 76.22 174.594 75.94C174.874 75.6467 175.094 75.3 175.254 74.9C175.414 74.5 175.494 74.06 175.494 73.58ZM182.018 73.88V78H180.478V67.66H182.018V70.36C182.204 69.9333 182.438 69.54 182.718 69.18C182.998 68.82 183.318 68.5133 183.678 68.26C184.038 67.9933 184.431 67.7933 184.858 67.66C185.284 67.5267 185.744 67.4667 186.238 67.48V69.14H186.118C185.558 69.14 185.024 69.24 184.518 69.44C184.024 69.64 183.591 69.94 183.218 70.34C182.844 70.74 182.551 71.24 182.338 71.84C182.124 72.4267 182.018 73.1067 182.018 73.88ZM197.014 76.24C196.494 76.8267 195.901 77.3067 195.234 77.68C194.581 78.0533 193.767 78.24 192.794 78.24C192.034 78.24 191.327 78.1 190.674 77.82C190.034 77.5267 189.474 77.14 188.994 76.66C188.527 76.1667 188.161 75.5933 187.894 74.94C187.627 74.2867 187.494 73.5933 187.494 72.86C187.494 72.1267 187.627 71.4333 187.894 70.78C188.161 70.1133 188.527 69.5333 188.994 69.04C189.474 68.5467 190.034 68.16 190.674 67.88C191.327 67.5867 192.034 67.44 192.794 67.44C193.287 67.44 193.734 67.4867 194.134 67.58C194.534 67.6733 194.901 67.8067 195.234 67.98C195.567 68.14 195.874 68.3333 196.154 68.56C196.434 68.7867 196.694 69.0267 196.934 69.28L195.914 70.36C195.501 69.9333 195.047 69.5667 194.554 69.26C194.074 68.9533 193.481 68.8 192.774 68.8C192.254 68.8 191.767 68.9067 191.314 69.12C190.861 69.32 190.467 69.6067 190.134 69.98C189.801 70.34 189.541 70.7667 189.354 71.26C189.167 71.74 189.074 72.26 189.074 72.82C189.074 73.38 189.167 73.9067 189.354 74.4C189.554 74.8933 189.821 75.3267 190.154 75.7C190.501 76.06 190.901 76.3467 191.354 76.56C191.821 76.76 192.327 76.86 192.874 76.86C193.541 76.86 194.127 76.7133 194.634 76.42C195.154 76.1267 195.621 75.76 196.034 75.32L197.014 76.24ZM201.1 72.08V78H199.56V63.4H201.1V69.46C201.447 68.9 201.9 68.4267 202.46 68.04C203.02 67.64 203.747 67.44 204.64 67.44C205.267 67.44 205.82 67.54 206.3 67.74C206.793 67.94 207.207 68.2267 207.54 68.6C207.887 68.96 208.147 69.3933 208.32 69.9C208.507 70.4067 208.6 70.9667 208.6 71.58V78H207.06V71.96C207.06 71 206.813 70.24 206.32 69.68C205.827 69.12 205.12 68.84 204.2 68.84C203.76 68.84 203.347 68.92 202.96 69.08C202.587 69.2267 202.26 69.4467 201.98 69.74C201.7 70.02 201.48 70.36 201.32 70.76C201.173 71.16 201.1 71.6 201.1 72.08ZM215.624 68.88C215.011 68.88 214.451 68.9533 213.944 69.1C213.451 69.2333 212.964 69.4133 212.484 69.64L212.024 68.38C212.597 68.1133 213.177 67.9067 213.764 67.76C214.351 67.6 215.024 67.52 215.784 67.52C217.197 67.52 218.284 67.8733 219.044 68.58C219.804 69.2733 220.184 70.3067 220.184 71.68V78H218.704V76.44C218.344 76.9067 217.857 77.32 217.244 77.68C216.644 78.04 215.884 78.22 214.964 78.22C214.484 78.22 214.011 78.1533 213.544 78.02C213.091 77.8867 212.677 77.6867 212.304 77.42C211.944 77.14 211.651 76.8 211.424 76.4C211.211 76 211.104 75.5267 211.104 74.98C211.104 74.4333 211.211 73.9533 211.424 73.54C211.637 73.1133 211.937 72.76 212.324 72.48C212.724 72.2 213.191 71.9867 213.724 71.84C214.271 71.6933 214.871 71.62 215.524 71.62C216.191 71.62 216.771 71.66 217.264 71.74C217.757 71.82 218.237 71.9267 218.704 72.06V71.7C218.704 70.7667 218.431 70.0667 217.884 69.6C217.351 69.12 216.597 68.88 215.624 68.88ZM215.684 72.76C214.711 72.76 213.964 72.9533 213.444 73.34C212.924 73.7267 212.664 74.2533 212.664 74.92C212.664 75.2533 212.731 75.5467 212.864 75.8C213.011 76.0533 213.204 76.2733 213.444 76.46C213.684 76.6333 213.957 76.7667 214.264 76.86C214.584 76.9533 214.917 77 215.264 77C215.744 77 216.191 76.9333 216.604 76.8C217.031 76.6533 217.397 76.46 217.704 76.22C218.024 75.9667 218.271 75.6733 218.444 75.34C218.631 74.9933 218.724 74.6133 218.724 74.2V73.2C218.337 73.0933 217.891 72.9933 217.384 72.9C216.891 72.8067 216.324 72.76 215.684 72.76ZM230.566 75.1C230.566 75.5933 230.466 76.0333 230.266 76.42C230.079 76.7933 229.819 77.1133 229.486 77.38C229.166 77.6467 228.779 77.8533 228.326 78C227.886 78.1333 227.406 78.2 226.886 78.2C226.139 78.2 225.386 78.0667 224.626 77.8C223.866 77.52 223.193 77.1467 222.606 76.68L223.386 75.58C223.946 76.0067 224.526 76.3333 225.126 76.56C225.739 76.7867 226.353 76.9 226.966 76.9C227.593 76.9 228.106 76.7533 228.506 76.46C228.906 76.1667 229.106 75.7667 229.106 75.26V75.22C229.106 74.9667 229.033 74.7467 228.886 74.56C228.753 74.3733 228.566 74.2133 228.326 74.08C228.086 73.9333 227.806 73.8067 227.486 73.7C227.179 73.5933 226.859 73.4933 226.526 73.4C226.126 73.28 225.719 73.1533 225.306 73.02C224.906 72.8733 224.539 72.6933 224.206 72.48C223.886 72.2667 223.619 72 223.406 71.68C223.206 71.36 223.106 70.96 223.106 70.48V70.44C223.106 70 223.193 69.6 223.366 69.24C223.539 68.8667 223.779 68.5533 224.086 68.3C224.406 68.0333 224.779 67.8333 225.206 67.7C225.646 67.5533 226.119 67.48 226.626 67.48C227.266 67.48 227.913 67.5867 228.566 67.8C229.219 68 229.813 68.2733 230.346 68.62L229.646 69.78C229.166 69.4733 228.659 69.2333 228.126 69.06C227.606 68.8733 227.093 68.78 226.586 68.78C225.973 68.78 225.486 68.9267 225.126 69.22C224.766 69.5 224.586 69.8533 224.586 70.28V70.32C224.586 70.56 224.659 70.7733 224.806 70.96C224.953 71.1333 225.146 71.2867 225.386 71.42C225.639 71.5533 225.926 71.6733 226.246 71.78C226.566 71.8867 226.899 71.9933 227.246 72.1C227.646 72.22 228.039 72.3533 228.426 72.5C228.826 72.6467 229.186 72.8333 229.506 73.06C229.826 73.2867 230.079 73.56 230.266 73.88C230.466 74.2 230.566 74.5933 230.566 75.06V75.1ZM234.347 73.4C234.4 73.96 234.534 74.46 234.747 74.9C234.96 75.3267 235.234 75.6933 235.567 76C235.9 76.2933 236.274 76.52 236.687 76.68C237.1 76.8267 237.534 76.9 237.987 76.9C238.707 76.9 239.32 76.7667 239.827 76.5C240.347 76.2333 240.82 75.88 241.247 75.44L242.207 76.3C241.687 76.8867 241.094 77.36 240.427 77.72C239.76 78.0667 238.934 78.24 237.947 78.24C237.24 78.24 236.574 78.1133 235.947 77.86C235.32 77.5933 234.774 77.2267 234.307 76.76C233.84 76.28 233.467 75.7067 233.187 75.04C232.92 74.3733 232.787 73.64 232.787 72.84C232.787 72.0933 232.907 71.3933 233.147 70.74C233.4 70.0733 233.747 69.5 234.187 69.02C234.627 68.5267 235.147 68.14 235.747 67.86C236.36 67.58 237.027 67.44 237.747 67.44C238.507 67.44 239.187 67.5867 239.787 67.88C240.387 68.16 240.894 68.5467 241.307 69.04C241.72 69.5333 242.034 70.1133 242.247 70.78C242.46 71.4467 242.567 72.16 242.567 72.92C242.567 72.9867 242.567 73.06 242.567 73.14C242.567 73.22 242.56 73.3067 242.547 73.4H234.347ZM234.347 72.26H241.007C240.967 71.7933 240.867 71.3467 240.707 70.92C240.56 70.4933 240.347 70.12 240.067 69.8C239.8 69.48 239.467 69.2267 239.067 69.04C238.68 68.84 238.227 68.74 237.707 68.74C237.254 68.74 236.834 68.8333 236.447 69.02C236.06 69.1933 235.72 69.44 235.427 69.76C235.134 70.0667 234.894 70.4333 234.707 70.86C234.52 71.2867 234.4 71.7533 234.347 72.26ZM252.363 75.1C252.363 75.5933 252.263 76.0333 252.063 76.42C251.876 76.7933 251.616 77.1133 251.283 77.38C250.963 77.6467 250.576 77.8533 250.123 78C249.683 78.1333 249.203 78.2 248.683 78.2C247.936 78.2 247.183 78.0667 246.423 77.8C245.663 77.52 244.99 77.1467 244.403 76.68L245.183 75.58C245.743 76.0067 246.323 76.3333 246.923 76.56C247.536 76.7867 248.15 76.9 248.763 76.9C249.39 76.9 249.903 76.7533 250.303 76.46C250.703 76.1667 250.903 75.7667 250.903 75.26V75.22C250.903 74.9667 250.83 74.7467 250.683 74.56C250.55 74.3733 250.363 74.2133 250.123 74.08C249.883 73.9333 249.603 73.8067 249.283 73.7C248.976 73.5933 248.656 73.4933 248.323 73.4C247.923 73.28 247.516 73.1533 247.103 73.02C246.703 72.8733 246.336 72.6933 246.003 72.48C245.683 72.2667 245.416 72 245.203 71.68C245.003 71.36 244.903 70.96 244.903 70.48V70.44C244.903 70 244.99 69.6 245.163 69.24C245.336 68.8667 245.576 68.5533 245.883 68.3C246.203 68.0333 246.576 67.8333 247.003 67.7C247.443 67.5533 247.916 67.48 248.423 67.48C249.063 67.48 249.71 67.5867 250.363 67.8C251.016 68 251.61 68.2733 252.143 68.62L251.443 69.78C250.963 69.4733 250.456 69.2333 249.923 69.06C249.403 68.8733 248.89 68.78 248.383 68.78C247.77 68.78 247.283 68.9267 246.923 69.22C246.563 69.5 246.383 69.8533 246.383 70.28V70.32C246.383 70.56 246.456 70.7733 246.603 70.96C246.75 71.1333 246.943 71.2867 247.183 71.42C247.436 71.5533 247.723 71.6733 248.043 71.78C248.363 71.8867 248.696 71.9933 249.043 72.1C249.443 72.22 249.836 72.3533 250.223 72.5C250.623 72.6467 250.983 72.8333 251.303 73.06C251.623 73.2867 251.876 73.56 252.063 73.88C252.263 74.2 252.363 74.5933 252.363 75.06V75.1ZM263.32 67.7H266.6V69.02H263.34V78H261.8V69.02H260.38V67.68H261.8V66.78C261.8 65.6467 262.067 64.7867 262.6 64.2C263.147 63.6133 263.92 63.32 264.92 63.32C265.28 63.32 265.587 63.34 265.84 63.38C266.107 63.42 266.367 63.4867 266.62 63.58V64.92C266.34 64.84 266.087 64.78 265.86 64.74C265.633 64.6867 265.387 64.66 265.12 64.66C263.92 64.66 263.32 65.3933 263.32 66.86V67.7ZM278.508 72.82C278.508 73.5533 278.368 74.2533 278.088 74.92C277.822 75.5733 277.448 76.1467 276.968 76.64C276.488 77.1333 275.915 77.5267 275.248 77.82C274.582 78.1 273.862 78.24 273.088 78.24C272.315 78.24 271.602 78.1 270.948 77.82C270.295 77.5267 269.728 77.14 269.248 76.66C268.768 76.1667 268.395 75.5933 268.128 74.94C267.862 74.2867 267.728 73.5933 267.728 72.86C267.728 72.1267 267.862 71.4333 268.128 70.78C268.395 70.1133 268.768 69.5333 269.248 69.04C269.728 68.5467 270.295 68.16 270.948 67.88C271.615 67.5867 272.342 67.44 273.128 67.44C273.902 67.44 274.615 67.5867 275.268 67.88C275.935 68.16 276.508 68.5467 276.988 69.04C277.468 69.52 277.842 70.0867 278.108 70.74C278.375 71.3933 278.508 72.0867 278.508 72.82ZM276.928 72.86C276.928 72.3 276.828 71.7733 276.628 71.28C276.442 70.7867 276.175 70.36 275.828 70C275.482 69.6267 275.075 69.3333 274.608 69.12C274.142 68.9067 273.635 68.8 273.088 68.8C272.528 68.8 272.015 68.9067 271.548 69.12C271.082 69.32 270.682 69.6067 270.348 69.98C270.028 70.34 269.775 70.7667 269.588 71.26C269.402 71.74 269.308 72.26 269.308 72.82C269.308 73.38 269.402 73.9067 269.588 74.4C269.788 74.8933 270.055 75.32 270.388 75.68C270.735 76.04 271.142 76.3267 271.608 76.54C272.075 76.7533 272.582 76.86 273.128 76.86C273.688 76.86 274.202 76.76 274.668 76.56C275.135 76.3467 275.535 76.06 275.868 75.7C276.202 75.34 276.462 74.92 276.648 74.44C276.835 73.9467 276.928 73.42 276.928 72.86ZM282.838 73.88V78H281.298V67.66H282.838V70.36C283.025 69.9333 283.258 69.54 283.538 69.18C283.818 68.82 284.138 68.5133 284.498 68.26C284.858 67.9933 285.251 67.7933 285.678 67.66C286.105 67.5267 286.565 67.4667 287.058 67.48V69.14H286.938C286.378 69.14 285.845 69.24 285.338 69.44C284.845 69.64 284.411 69.94 284.038 70.34C283.665 70.74 283.371 71.24 283.158 71.84C282.945 72.4267 282.838 73.1067 282.838 73.88ZM304.28 76.24C303.76 76.8267 303.166 77.3067 302.5 77.68C301.846 78.0533 301.033 78.24 300.06 78.24C299.3 78.24 298.593 78.1 297.94 77.82C297.3 77.5267 296.74 77.14 296.26 76.66C295.793 76.1667 295.426 75.5933 295.16 74.94C294.893 74.2867 294.76 73.5933 294.76 72.86C294.76 72.1267 294.893 71.4333 295.16 70.78C295.426 70.1133 295.793 69.5333 296.26 69.04C296.74 68.5467 297.3 68.16 297.94 67.88C298.593 67.5867 299.3 67.44 300.06 67.44C300.553 67.44 301 67.4867 301.4 67.58C301.8 67.6733 302.166 67.8067 302.5 67.98C302.833 68.14 303.14 68.3333 303.42 68.56C303.7 68.7867 303.96 69.0267 304.2 69.28L303.18 70.36C302.766 69.9333 302.313 69.5667 301.82 69.26C301.34 68.9533 300.746 68.8 300.04 68.8C299.52 68.8 299.033 68.9067 298.58 69.12C298.126 69.32 297.733 69.6067 297.4 69.98C297.066 70.34 296.806 70.7667 296.62 71.26C296.433 71.74 296.34 72.26 296.34 72.82C296.34 73.38 296.433 73.9067 296.62 74.4C296.82 74.8933 297.086 75.3267 297.42 75.7C297.766 76.06 298.166 76.3467 298.62 76.56C299.086 76.76 299.593 76.86 300.14 76.86C300.806 76.86 301.393 76.7133 301.9 76.42C302.42 76.1267 302.886 75.76 303.3 75.32L304.28 76.24ZM314.165 73.58V67.66H315.685V78H314.165V76.2C313.819 76.76 313.365 77.24 312.805 77.64C312.245 78.0267 311.519 78.22 310.625 78.22C309.999 78.22 309.439 78.12 308.945 77.92C308.465 77.72 308.052 77.44 307.705 77.08C307.372 76.7067 307.112 76.2667 306.925 75.76C306.752 75.2533 306.665 74.6933 306.665 74.08V67.66H308.205V73.7C308.205 74.66 308.452 75.42 308.945 75.98C309.439 76.54 310.145 76.82 311.065 76.82C311.505 76.82 311.912 76.7467 312.285 76.6C312.672 76.44 312.999 76.22 313.265 75.94C313.545 75.6467 313.765 75.3 313.925 74.9C314.085 74.5 314.165 74.06 314.165 73.58ZM326.25 75.1C326.25 75.5933 326.15 76.0333 325.95 76.42C325.763 76.7933 325.503 77.1133 325.17 77.38C324.85 77.6467 324.463 77.8533 324.01 78C323.57 78.1333 323.09 78.2 322.57 78.2C321.823 78.2 321.07 78.0667 320.31 77.8C319.55 77.52 318.876 77.1467 318.29 76.68L319.07 75.58C319.63 76.0067 320.21 76.3333 320.81 76.56C321.423 76.7867 322.036 76.9 322.65 76.9C323.276 76.9 323.79 76.7533 324.19 76.46C324.59 76.1667 324.79 75.7667 324.79 75.26V75.22C324.79 74.9667 324.716 74.7467 324.57 74.56C324.436 74.3733 324.25 74.2133 324.01 74.08C323.77 73.9333 323.49 73.8067 323.17 73.7C322.863 73.5933 322.543 73.4933 322.21 73.4C321.81 73.28 321.403 73.1533 320.99 73.02C320.59 72.8733 320.223 72.6933 319.89 72.48C319.57 72.2667 319.303 72 319.09 71.68C318.89 71.36 318.79 70.96 318.79 70.48V70.44C318.79 70 318.876 69.6 319.05 69.24C319.223 68.8667 319.463 68.5533 319.77 68.3C320.09 68.0333 320.463 67.8333 320.89 67.7C321.33 67.5533 321.803 67.48 322.31 67.48C322.95 67.48 323.596 67.5867 324.25 67.8C324.903 68 325.496 68.2733 326.03 68.62L325.33 69.78C324.85 69.4733 324.343 69.2333 323.81 69.06C323.29 68.8733 322.776 68.78 322.27 68.78C321.656 68.78 321.17 68.9267 320.81 69.22C320.45 69.5 320.27 69.8533 320.27 70.28V70.32C320.27 70.56 320.343 70.7733 320.49 70.96C320.636 71.1333 320.83 71.2867 321.07 71.42C321.323 71.5533 321.61 71.6733 321.93 71.78C322.25 71.8867 322.583 71.9933 322.93 72.1C323.33 72.22 323.723 72.3533 324.11 72.5C324.51 72.6467 324.87 72.8333 325.19 73.06C325.51 73.2867 325.763 73.56 325.95 73.88C326.15 74.2 326.25 74.5933 326.25 75.06V75.1ZM330.995 69.02V75.06C330.995 75.7 331.155 76.1467 331.475 76.4C331.795 76.6533 332.215 76.78 332.735 76.78C333.002 76.78 333.249 76.7533 333.475 76.7C333.715 76.6467 333.969 76.5533 334.235 76.42V77.74C333.969 77.8867 333.682 77.9933 333.375 78.06C333.082 78.14 332.749 78.18 332.375 78.18C331.962 78.18 331.575 78.1267 331.215 78.02C330.855 77.9133 330.542 77.7467 330.275 77.52C330.022 77.28 329.822 76.9733 329.675 76.6C329.529 76.2267 329.455 75.78 329.455 75.26V69.02H328.015V67.66H329.455V64.54H330.995V67.66H334.275V69.02H330.995ZM346.848 72.82C346.848 73.5533 346.708 74.2533 346.428 74.92C346.162 75.5733 345.788 76.1467 345.308 76.64C344.828 77.1333 344.255 77.5267 343.588 77.82C342.922 78.1 342.202 78.24 341.428 78.24C340.655 78.24 339.942 78.1 339.288 77.82C338.635 77.5267 338.068 77.14 337.588 76.66C337.108 76.1667 336.735 75.5933 336.468 74.94C336.202 74.2867 336.068 73.5933 336.068 72.86C336.068 72.1267 336.202 71.4333 336.468 70.78C336.735 70.1133 337.108 69.5333 337.588 69.04C338.068 68.5467 338.635 68.16 339.288 67.88C339.955 67.5867 340.682 67.44 341.468 67.44C342.242 67.44 342.955 67.5867 343.608 67.88C344.275 68.16 344.848 68.5467 345.328 69.04C345.808 69.52 346.182 70.0867 346.448 70.74C346.715 71.3933 346.848 72.0867 346.848 72.82ZM345.268 72.86C345.268 72.3 345.168 71.7733 344.968 71.28C344.782 70.7867 344.515 70.36 344.168 70C343.822 69.6267 343.415 69.3333 342.948 69.12C342.482 68.9067 341.975 68.8 341.428 68.8C340.868 68.8 340.355 68.9067 339.888 69.12C339.422 69.32 339.022 69.6067 338.688 69.98C338.368 70.34 338.115 70.7667 337.928 71.26C337.742 71.74 337.648 72.26 337.648 72.82C337.648 73.38 337.742 73.9067 337.928 74.4C338.128 74.8933 338.395 75.32 338.728 75.68C339.075 76.04 339.482 76.3267 339.948 76.54C340.415 76.7533 340.922 76.86 341.468 76.86C342.028 76.86 342.542 76.76 343.008 76.56C343.475 76.3467 343.875 76.06 344.208 75.7C344.542 75.34 344.802 74.92 344.988 74.44C345.175 73.9467 345.268 73.42 345.268 72.86ZM357.838 69.5C358.025 69.22 358.231 68.9533 358.458 68.7C358.698 68.4467 358.965 68.2267 359.258 68.04C359.551 67.8533 359.878 67.7067 360.238 67.6C360.611 67.4933 361.025 67.44 361.478 67.44C362.678 67.44 363.618 67.8133 364.298 68.56C364.978 69.2933 365.318 70.3067 365.318 71.6V78H363.778V71.96C363.778 70.96 363.538 70.1933 363.058 69.66C362.591 69.1133 361.938 68.84 361.098 68.84C360.711 68.84 360.345 68.9133 359.998 69.06C359.651 69.1933 359.345 69.4 359.078 69.68C358.825 69.9467 358.618 70.28 358.458 70.68C358.311 71.08 358.238 71.5333 358.238 72.04V78H356.718V71.92C356.718 70.9467 356.478 70.1933 355.998 69.66C355.531 69.1133 354.885 68.84 354.058 68.84C353.645 68.84 353.265 68.92 352.918 69.08C352.571 69.24 352.265 69.4667 351.998 69.76C351.745 70.0533 351.545 70.4 351.398 70.8C351.251 71.1867 351.178 71.62 351.178 72.1V78H349.638V67.66H351.178V69.4C351.351 69.1467 351.538 68.9 351.738 68.66C351.951 68.42 352.191 68.2133 352.458 68.04C352.725 67.8533 353.025 67.7067 353.358 67.6C353.691 67.4933 354.078 67.44 354.518 67.44C355.358 67.44 356.051 67.64 356.598 68.04C357.145 68.4267 357.558 68.9133 357.838 69.5ZM369.581 73.4C369.635 73.96 369.768 74.46 369.981 74.9C370.195 75.3267 370.468 75.6933 370.801 76C371.135 76.2933 371.508 76.52 371.921 76.68C372.335 76.8267 372.768 76.9 373.221 76.9C373.941 76.9 374.555 76.7667 375.061 76.5C375.581 76.2333 376.055 75.88 376.481 75.44L377.441 76.3C376.921 76.8867 376.328 77.36 375.661 77.72C374.995 78.0667 374.168 78.24 373.181 78.24C372.475 78.24 371.808 78.1133 371.181 77.86C370.555 77.5933 370.008 77.2267 369.541 76.76C369.075 76.28 368.701 75.7067 368.421 75.04C368.155 74.3733 368.021 73.64 368.021 72.84C368.021 72.0933 368.141 71.3933 368.381 70.74C368.635 70.0733 368.981 69.5 369.421 69.02C369.861 68.5267 370.381 68.14 370.981 67.86C371.595 67.58 372.261 67.44 372.981 67.44C373.741 67.44 374.421 67.5867 375.021 67.88C375.621 68.16 376.128 68.5467 376.541 69.04C376.955 69.5333 377.268 70.1133 377.481 70.78C377.695 71.4467 377.801 72.16 377.801 72.92C377.801 72.9867 377.801 73.06 377.801 73.14C377.801 73.22 377.795 73.3067 377.781 73.4H369.581ZM369.581 72.26H376.241C376.201 71.7933 376.101 71.3467 375.941 70.92C375.795 70.4933 375.581 70.12 375.301 69.8C375.035 69.48 374.701 69.2267 374.301 69.04C373.915 68.84 373.461 68.74 372.941 68.74C372.488 68.74 372.068 68.8333 371.681 69.02C371.295 69.1933 370.955 69.44 370.661 69.76C370.368 70.0667 370.128 70.4333 369.941 70.86C369.755 71.2867 369.635 71.7533 369.581 72.26ZM382.037 73.88V78H380.497V67.66H382.037V70.36C382.224 69.9333 382.457 69.54 382.737 69.18C383.017 68.82 383.337 68.5133 383.697 68.26C384.057 67.9933 384.451 67.7933 384.877 67.66C385.304 67.5267 385.764 67.4667 386.257 67.48V69.14H386.137C385.577 69.14 385.044 69.24 384.537 69.44C384.044 69.64 383.611 69.94 383.237 70.34C382.864 70.74 382.571 71.24 382.357 71.84C382.144 72.4267 382.037 73.1067 382.037 73.88ZM395.703 75.1C395.703 75.5933 395.603 76.0333 395.403 76.42C395.216 76.7933 394.956 77.1133 394.623 77.38C394.303 77.6467 393.916 77.8533 393.463 78C393.023 78.1333 392.543 78.2 392.023 78.2C391.276 78.2 390.523 78.0667 389.763 77.8C389.003 77.52 388.329 77.1467 387.743 76.68L388.523 75.58C389.083 76.0067 389.663 76.3333 390.263 76.56C390.876 76.7867 391.489 76.9 392.103 76.9C392.729 76.9 393.243 76.7533 393.643 76.46C394.043 76.1667 394.243 75.7667 394.243 75.26V75.22C394.243 74.9667 394.169 74.7467 394.023 74.56C393.889 74.3733 393.703 74.2133 393.463 74.08C393.223 73.9333 392.943 73.8067 392.623 73.7C392.316 73.5933 391.996 73.4933 391.663 73.4C391.263 73.28 390.856 73.1533 390.443 73.02C390.043 72.8733 389.676 72.6933 389.343 72.48C389.023 72.2667 388.756 72 388.543 71.68C388.343 71.36 388.243 70.96 388.243 70.48V70.44C388.243 70 388.329 69.6 388.503 69.24C388.676 68.8667 388.916 68.5533 389.223 68.3C389.543 68.0333 389.916 67.8333 390.343 67.7C390.783 67.5533 391.256 67.48 391.763 67.48C392.403 67.48 393.049 67.5867 393.703 67.8C394.356 68 394.949 68.2733 395.483 68.62L394.783 69.78C394.303 69.4733 393.796 69.2333 393.263 69.06C392.743 68.8733 392.229 68.78 391.723 68.78C391.109 68.78 390.623 68.9267 390.263 69.22C389.903 69.5 389.723 69.8533 389.723 70.28V70.32C389.723 70.56 389.796 70.7733 389.943 70.96C390.089 71.1333 390.283 71.2867 390.523 71.42C390.776 71.5533 391.063 71.6733 391.383 71.78C391.703 71.8867 392.036 71.9933 392.383 72.1C392.783 72.22 393.176 72.3533 393.563 72.5C393.963 72.6467 394.323 72.8333 394.643 73.06C394.963 73.2867 395.216 73.56 395.403 73.88C395.603 74.2 395.703 74.5933 395.703 75.06V75.1ZM397.573 64.72L398.233 63.7C400.02 64.7 401.386 65.9133 402.333 67.34C403.293 68.7667 403.773 70.4067 403.773 72.26C403.773 74.1133 403.293 75.7533 402.333 77.18C401.386 78.6067 400.02 79.82 398.233 80.82L397.573 79.8C399.106 78.8267 400.26 77.7333 401.033 76.52C401.82 75.2933 402.213 73.8733 402.213 72.26C402.213 70.6467 401.82 69.2333 401.033 68.02C400.26 66.7933 399.106 65.6933 397.573 64.72ZM30.82 101.1C30.82 101.593 30.72 102.033 30.52 102.42C30.3333 102.793 30.0733 103.113 29.74 103.38C29.42 103.647 29.0333 103.853 28.58 104C28.14 104.133 27.66 104.2 27.14 104.2C26.3933 104.2 25.64 104.067 24.88 103.8C24.12 103.52 23.4467 103.147 22.86 102.68L23.64 101.58C24.2 102.007 24.78 102.333 25.38 102.56C25.9933 102.787 26.6067 102.9 27.22 102.9C27.8467 102.9 28.36 102.753 28.76 102.46C29.16 102.167 29.36 101.767 29.36 101.26V101.22C29.36 100.967 29.2867 100.747 29.14 100.56C29.0067 100.373 28.82 100.213 28.58 100.08C28.34 99.9333 28.06 99.8067 27.74 99.7C27.4333 99.5933 27.1133 99.4933 26.78 99.4C26.38 99.28 25.9733 99.1533 25.56 99.02C25.16 98.8733 24.7933 98.6933 24.46 98.48C24.14 98.2667 23.8733 98 23.66 97.68C23.46 97.36 23.36 96.96 23.36 96.48V96.44C23.36 96 23.4467 95.6 23.62 95.24C23.7933 94.8667 24.0333 94.5533 24.34 94.3C24.66 94.0333 25.0333 93.8333 25.46 93.7C25.9 93.5533 26.3733 93.48 26.88 93.48C27.52 93.48 28.1667 93.5867 28.82 93.8C29.4733 94 30.0667 94.2733 30.6 94.62L29.9 95.78C29.42 95.4733 28.9133 95.2333 28.38 95.06C27.86 94.8733 27.3467 94.78 26.84 94.78C26.2267 94.78 25.74 94.9267 25.38 95.22C25.02 95.5 24.84 95.8533 24.84 96.28V96.32C24.84 96.56 24.9133 96.7733 25.06 96.96C25.2067 97.1333 25.4 97.2867 25.64 97.42C25.8933 97.5533 26.18 97.6733 26.5 97.78C26.82 97.8867 27.1533 97.9933 27.5 98.1C27.9 98.22 28.2933 98.3533 28.68 98.5C29.08 98.6467 29.44 98.8333 29.76 99.06C30.08 99.2867 30.3333 99.56 30.52 99.88C30.72 100.2 30.82 100.593 30.82 101.06V101.1ZM44.1209 98.82C44.1209 99.6733 43.9809 100.433 43.7009 101.1C43.4209 101.767 43.0476 102.333 42.5809 102.8C42.1276 103.253 41.6009 103.607 41.0009 103.86C40.4143 104.1 39.8076 104.22 39.1809 104.22C38.7009 104.22 38.2609 104.16 37.8609 104.04C37.4609 103.92 37.1009 103.76 36.7809 103.56C36.4609 103.36 36.1676 103.127 35.9009 102.86C35.6476 102.593 35.4209 102.313 35.2209 102.02V107.2H33.6809V93.66H35.2209V95.74C35.4343 95.4333 35.6676 95.14 35.9209 94.86C36.1876 94.58 36.4809 94.34 36.8009 94.14C37.1209 93.9267 37.4743 93.76 37.8609 93.64C38.2609 93.5067 38.7009 93.44 39.1809 93.44C39.7943 93.44 40.3943 93.56 40.9809 93.8C41.5809 94.04 42.1143 94.3933 42.5809 94.86C43.0476 95.3133 43.4209 95.8733 43.7009 96.54C43.9809 97.2067 44.1209 97.9667 44.1209 98.82ZM42.5409 98.84C42.5409 98.2267 42.4409 97.6733 42.2409 97.18C42.0543 96.6867 41.7943 96.2667 41.4609 95.92C41.1276 95.56 40.7409 95.2867 40.3009 95.1C39.8609 94.9133 39.3943 94.82 38.9009 94.82C38.4209 94.82 37.9543 94.92 37.5009 95.12C37.0609 95.3067 36.6609 95.5733 36.3009 95.92C35.9543 96.2667 35.6743 96.6867 35.4609 97.18C35.2609 97.6733 35.1609 98.22 35.1609 98.82C35.1609 99.42 35.2609 99.9733 35.4609 100.48C35.6743 100.973 35.9543 101.393 36.3009 101.74C36.6609 102.087 37.0609 102.36 37.5009 102.56C37.9543 102.747 38.4209 102.84 38.9009 102.84C39.3943 102.84 39.8609 102.753 40.3009 102.58C40.7543 102.393 41.1409 102.133 41.4609 101.8C41.7943 101.453 42.0543 101.033 42.2409 100.54C42.4409 100.033 42.5409 99.4667 42.5409 98.84ZM50.7022 94.88C50.0889 94.88 49.5289 94.9533 49.0222 95.1C48.5289 95.2333 48.0422 95.4133 47.5622 95.64L47.1022 94.38C47.6755 94.1133 48.2555 93.9067 48.8422 93.76C49.4289 93.6 50.1022 93.52 50.8622 93.52C52.2755 93.52 53.3622 93.8733 54.1222 94.58C54.8822 95.2733 55.2622 96.3067 55.2622 97.68V104H53.7822V102.44C53.4222 102.907 52.9355 103.32 52.3222 103.68C51.7222 104.04 50.9622 104.22 50.0422 104.22C49.5622 104.22 49.0889 104.153 48.6222 104.02C48.1689 103.887 47.7555 103.687 47.3822 103.42C47.0222 103.14 46.7289 102.8 46.5022 102.4C46.2889 102 46.1822 101.527 46.1822 100.98C46.1822 100.433 46.2889 99.9533 46.5022 99.54C46.7155 99.1133 47.0155 98.76 47.4022 98.48C47.8022 98.2 48.2689 97.9867 48.8022 97.84C49.3489 97.6933 49.9489 97.62 50.6022 97.62C51.2689 97.62 51.8489 97.66 52.3422 97.74C52.8355 97.82 53.3155 97.9267 53.7822 98.06V97.7C53.7822 96.7667 53.5089 96.0667 52.9622 95.6C52.4289 95.12 51.6755 94.88 50.7022 94.88ZM50.7622 98.76C49.7889 98.76 49.0422 98.9533 48.5222 99.34C48.0022 99.7267 47.7422 100.253 47.7422 100.92C47.7422 101.253 47.8089 101.547 47.9422 101.8C48.0889 102.053 48.2822 102.273 48.5222 102.46C48.7622 102.633 49.0355 102.767 49.3422 102.86C49.6622 102.953 49.9955 103 50.3422 103C50.8222 103 51.2689 102.933 51.6822 102.8C52.1089 102.653 52.4755 102.46 52.7822 102.22C53.1022 101.967 53.3489 101.673 53.5222 101.34C53.7089 100.993 53.8022 100.613 53.8022 100.2V99.2C53.4155 99.0933 52.9689 98.9933 52.4622 98.9C51.9689 98.8067 51.4022 98.76 50.7622 98.76ZM60.0842 98.08V104H58.5442V93.66H60.0842V95.46C60.4309 94.9 60.8842 94.4267 61.4442 94.04C62.0042 93.64 62.7309 93.44 63.6242 93.44C64.2509 93.44 64.8042 93.54 65.2842 93.74C65.7776 93.94 66.1909 94.2267 66.5242 94.6C66.8709 94.96 67.1309 95.3933 67.3042 95.9C67.4909 96.4067 67.5842 96.9667 67.5842 97.58V104H66.0442V97.96C66.0442 97 65.7976 96.24 65.3042 95.68C64.8109 95.12 64.1042 94.84 63.1842 94.84C62.7442 94.84 62.3309 94.92 61.9442 95.08C61.5709 95.2267 61.2442 95.4467 60.9642 95.74C60.6842 96.02 60.4642 96.36 60.3042 96.76C60.1576 97.16 60.0842 97.6 60.0842 98.08ZM72.4084 98.08V104H70.8684V93.66H72.4084V95.46C72.7551 94.9 73.2084 94.4267 73.7684 94.04C74.3284 93.64 75.0551 93.44 75.9484 93.44C76.5751 93.44 77.1284 93.54 77.6084 93.74C78.1018 93.94 78.5151 94.2267 78.8484 94.6C79.1951 94.96 79.4551 95.3933 79.6284 95.9C79.8151 96.4067 79.9084 96.9667 79.9084 97.58V104H78.3684V97.96C78.3684 97 78.1218 96.24 77.6284 95.68C77.1351 95.12 76.4284 94.84 75.5084 94.84C75.0684 94.84 74.6551 94.92 74.2684 95.08C73.8951 95.2267 73.5684 95.4467 73.2884 95.74C73.0084 96.02 72.7884 96.36 72.6284 96.76C72.4818 97.16 72.4084 97.6 72.4084 98.08ZM84.9927 91.4H83.2327V89.7H84.9927V91.4ZM84.8727 104H83.3327V93.66H84.8727V104ZM89.9866 98.08V104H88.4466V93.66H89.9866V95.46C90.3332 94.9 90.7866 94.4267 91.3466 94.04C91.9066 93.64 92.6332 93.44 93.5266 93.44C94.1532 93.44 94.7066 93.54 95.1866 93.74C95.6799 93.94 96.0932 94.2267 96.4266 94.6C96.7732 94.96 97.0332 95.3933 97.2066 95.9C97.3932 96.4067 97.4866 96.9667 97.4866 97.58V104H95.9466V97.96C95.9466 97 95.6999 96.24 95.2066 95.68C94.7132 95.12 94.0066 94.84 93.0866 94.84C92.6466 94.84 92.2332 94.92 91.8466 95.08C91.4732 95.2267 91.1466 95.4467 90.8666 95.74C90.5866 96.02 90.3666 96.36 90.2066 96.76C90.0599 97.16 89.9866 97.6 89.9866 98.08ZM110.611 102.2C110.611 103.04 110.484 103.773 110.231 104.4C109.991 105.027 109.637 105.547 109.171 105.96C108.717 106.387 108.164 106.707 107.511 106.92C106.871 107.133 106.151 107.24 105.351 107.24C104.484 107.24 103.657 107.12 102.871 106.88C102.084 106.64 101.344 106.28 100.651 105.8L101.351 104.6C101.951 105.027 102.577 105.353 103.231 105.58C103.884 105.807 104.584 105.92 105.331 105.92C106.477 105.92 107.391 105.607 108.071 104.98C108.751 104.367 109.091 103.453 109.091 102.24V101.02C108.637 101.62 108.084 102.133 107.431 102.56C106.777 102.987 105.977 103.2 105.031 103.2C104.404 103.2 103.797 103.093 103.211 102.88C102.637 102.653 102.124 102.333 101.671 101.92C101.217 101.493 100.851 100.98 100.571 100.38C100.304 99.78 100.171 99.1 100.171 98.34C100.171 97.58 100.304 96.9 100.571 96.3C100.851 95.6867 101.217 95.1733 101.671 94.76C102.124 94.3333 102.644 94.0067 103.231 93.78C103.817 93.5533 104.417 93.44 105.031 93.44C105.511 93.44 105.951 93.5 106.351 93.62C106.764 93.7267 107.131 93.8733 107.451 94.06C107.784 94.2467 108.084 94.4667 108.351 94.72C108.617 94.9733 108.857 95.24 109.071 95.52V93.66H110.611V102.2ZM109.131 98.32C109.131 97.7867 109.024 97.3067 108.811 96.88C108.597 96.44 108.311 96.0667 107.951 95.76C107.604 95.4533 107.204 95.22 106.751 95.06C106.297 94.8867 105.824 94.8 105.331 94.8C104.837 94.8 104.371 94.88 103.931 95.04C103.504 95.2 103.124 95.4333 102.791 95.74C102.471 96.0467 102.217 96.42 102.031 96.86C101.844 97.2867 101.751 97.7667 101.751 98.3C101.751 98.8333 101.844 99.32 102.031 99.76C102.231 100.187 102.491 100.56 102.811 100.88C103.144 101.187 103.524 101.427 103.951 101.6C104.391 101.76 104.851 101.84 105.331 101.84C105.824 101.84 106.297 101.76 106.751 101.6C107.204 101.427 107.604 101.187 107.951 100.88C108.311 100.573 108.597 100.207 108.811 99.78C109.024 99.34 109.131 98.8533 109.131 98.32Z" fill="#3E3E3E"/>
<path d="M125.744 90.272C125.088 90.272 124.504 90.456 123.992 90.824C123.496 91.192 122.936 91.76 122.312 92.528L119.72 90.44C120.136 89.88 120.552 89.384 120.968 88.952C121.4 88.52 121.856 88.16 122.336 87.872C122.832 87.568 123.376 87.344 123.968 87.2C124.56 87.04 125.232 86.96 125.984 86.96C126.88 86.96 127.68 87.088 128.384 87.344C129.104 87.584 129.712 87.936 130.208 88.4C130.72 88.848 131.104 89.392 131.36 90.032C131.632 90.672 131.768 91.384 131.768 92.168C131.768 92.872 131.672 93.504 131.48 94.064C131.304 94.608 131.032 95.128 130.664 95.624C130.312 96.12 129.856 96.616 129.296 97.112C128.736 97.592 128.088 98.12 127.352 98.696L124.616 100.808H131.936V104H119.504V101.072L125.096 96.488C125.624 96.056 126.072 95.672 126.44 95.336C126.808 94.984 127.104 94.656 127.328 94.352C127.568 94.032 127.736 93.728 127.832 93.44C127.944 93.136 128 92.808 128 92.456C128 91.736 127.792 91.192 127.376 90.824C126.96 90.456 126.416 90.272 125.744 90.272ZM133.857 88.52L138.681 87.08H141.201V104H137.553V90.824L134.625 91.544L133.857 88.52ZM145.038 90.392V87.2H157.134V89.984L149.598 104H145.422L152.934 90.392H145.038ZM176.525 100.088C176.525 100.808 176.397 101.432 176.141 101.96C175.901 102.472 175.557 102.896 175.109 103.232C174.661 103.568 174.133 103.824 173.525 104C172.933 104.16 172.293 104.24 171.605 104.24C170.693 104.24 169.757 104.088 168.797 103.784C167.853 103.464 166.949 102.968 166.085 102.296L167.645 99.896C168.349 100.408 169.045 100.792 169.733 101.048C170.437 101.304 171.093 101.432 171.701 101.432C172.229 101.432 172.613 101.344 172.853 101.168C173.109 100.992 173.237 100.76 173.237 100.472V100.424C173.237 100.232 173.165 100.064 173.021 99.92C172.877 99.776 172.677 99.656 172.421 99.56C172.181 99.448 171.901 99.344 171.581 99.248C171.261 99.152 170.925 99.048 170.573 98.936C170.125 98.808 169.669 98.656 169.205 98.48C168.757 98.288 168.349 98.048 167.981 97.76C167.613 97.456 167.309 97.088 167.069 96.656C166.845 96.224 166.733 95.696 166.733 95.072V95.024C166.733 94.368 166.853 93.792 167.093 93.296C167.349 92.784 167.685 92.352 168.101 92C168.533 91.648 169.029 91.384 169.589 91.208C170.165 91.032 170.781 90.944 171.437 90.944C172.253 90.944 173.077 91.08 173.909 91.352C174.757 91.608 175.533 91.968 176.237 92.432L174.845 94.952C174.205 94.584 173.581 94.296 172.973 94.088C172.365 93.864 171.829 93.752 171.365 93.752C170.917 93.752 170.581 93.84 170.357 94.016C170.133 94.176 170.021 94.384 170.021 94.64V94.688C170.021 94.864 170.093 95.024 170.237 95.168C170.381 95.296 170.573 95.424 170.813 95.552C171.053 95.664 171.325 95.776 171.629 95.888C171.949 96 172.285 96.112 172.637 96.224C173.085 96.368 173.541 96.544 174.005 96.752C174.469 96.944 174.885 97.184 175.253 97.472C175.621 97.76 175.925 98.112 176.165 98.528C176.405 98.944 176.525 99.448 176.525 100.04V100.088ZM190.828 104H187.18V102.176C186.972 102.448 186.74 102.712 186.484 102.968C186.244 103.208 185.972 103.424 185.668 103.616C185.364 103.808 185.028 103.96 184.66 104.072C184.292 104.184 183.876 104.24 183.412 104.24C182.02 104.24 180.94 103.816 180.172 102.968C179.42 102.12 179.044 100.952 179.044 99.464V91.136H182.692V98.312C182.692 99.176 182.884 99.832 183.268 100.28C183.652 100.712 184.196 100.928 184.9 100.928C185.604 100.928 186.156 100.712 186.556 100.28C186.972 99.832 187.18 99.176 187.18 98.312V91.136H190.828V104ZM207.605 97.592C207.605 98.664 207.437 99.616 207.101 100.448C206.781 101.264 206.349 101.96 205.805 102.536C205.277 103.096 204.661 103.52 203.957 103.808C203.253 104.096 202.517 104.24 201.749 104.24C200.773 104.24 199.965 104.048 199.325 103.664C198.701 103.28 198.173 102.832 197.741 102.32V107.84H194.093V91.136H197.741V92.984C198.189 92.376 198.725 91.88 199.349 91.496C199.989 91.096 200.789 90.896 201.749 90.896C202.501 90.896 203.229 91.04 203.933 91.328C204.637 91.616 205.261 92.048 205.805 92.624C206.349 93.184 206.781 93.88 207.101 94.712C207.437 95.528 207.605 96.472 207.605 97.544V97.592ZM203.957 97.592V97.544C203.957 97.016 203.869 96.536 203.693 96.104C203.533 95.656 203.309 95.28 203.021 94.976C202.733 94.656 202.397 94.416 202.013 94.256C201.645 94.08 201.245 93.992 200.813 93.992C200.381 93.992 199.973 94.08 199.589 94.256C199.221 94.416 198.893 94.656 198.605 94.976C198.333 95.28 198.109 95.656 197.933 96.104C197.773 96.536 197.693 97.016 197.693 97.544V97.592C197.693 98.12 197.773 98.608 197.933 99.056C198.109 99.488 198.333 99.864 198.605 100.184C198.893 100.488 199.221 100.728 199.589 100.904C199.973 101.064 200.381 101.144 200.813 101.144C201.245 101.144 201.645 101.064 202.013 100.904C202.397 100.728 202.733 100.488 203.021 100.184C203.309 99.864 203.533 99.488 203.693 99.056C203.869 98.624 203.957 98.136 203.957 97.592ZM223.8 97.592C223.8 98.664 223.632 99.616 223.296 100.448C222.976 101.264 222.544 101.96 222 102.536C221.472 103.096 220.856 103.52 220.152 103.808C219.448 104.096 218.712 104.24 217.944 104.24C216.968 104.24 216.16 104.048 215.52 103.664C214.896 103.28 214.368 102.832 213.936 102.32V107.84H210.288V91.136H213.936V92.984C214.384 92.376 214.92 91.88 215.544 91.496C216.184 91.096 216.984 90.896 217.944 90.896C218.696 90.896 219.424 91.04 220.128 91.328C220.832 91.616 221.456 92.048 222 92.624C222.544 93.184 222.976 93.88 223.296 94.712C223.632 95.528 223.8 96.472 223.8 97.544V97.592ZM220.152 97.592V97.544C220.152 97.016 220.064 96.536 219.888 96.104C219.728 95.656 219.504 95.28 219.216 94.976C218.928 94.656 218.592 94.416 218.208 94.256C217.84 94.08 217.44 93.992 217.008 93.992C216.576 93.992 216.168 94.08 215.784 94.256C215.416 94.416 215.088 94.656 214.8 94.976C214.528 95.28 214.304 95.656 214.128 96.104C213.968 96.536 213.888 97.016 213.888 97.544V97.592C213.888 98.12 213.968 98.608 214.128 99.056C214.304 99.488 214.528 99.864 214.8 100.184C215.088 100.488 215.416 100.728 215.784 100.904C216.168 101.064 216.576 101.144 217.008 101.144C217.44 101.144 217.84 101.064 218.208 100.904C218.592 100.728 218.928 100.488 219.216 100.184C219.504 99.864 219.728 99.488 219.888 99.056C220.064 98.624 220.152 98.136 220.152 97.592ZM230.3 104H226.652V86.48H230.3V104ZM237.638 89.72H233.798V86.48H237.638V89.72ZM237.542 104H233.894V91.136H237.542V104ZM252.968 97.928C252.968 98.104 252.96 98.256 252.944 98.384C252.944 98.512 252.936 98.664 252.92 98.84H243.968C244.144 99.672 244.504 100.304 245.048 100.736C245.608 101.152 246.296 101.36 247.112 101.36C247.72 101.36 248.264 101.256 248.744 101.048C249.224 100.84 249.72 100.504 250.232 100.04L252.32 101.888C251.712 102.64 250.976 103.232 250.112 103.664C249.248 104.08 248.232 104.288 247.064 104.288C246.104 104.288 245.208 104.128 244.376 103.808C243.56 103.488 242.848 103.032 242.24 102.44C241.648 101.848 241.184 101.152 240.848 100.352C240.512 99.536 240.344 98.632 240.344 97.64V97.592C240.344 96.68 240.496 95.816 240.8 95C241.12 94.184 241.56 93.472 242.12 92.864C242.68 92.256 243.344 91.776 244.112 91.424C244.896 91.072 245.76 90.896 246.704 90.896C247.776 90.896 248.704 91.088 249.488 91.472C250.272 91.856 250.92 92.376 251.432 93.032C251.96 93.672 252.344 94.416 252.584 95.264C252.84 96.096 252.968 96.968 252.968 97.88V97.928ZM249.416 96.56C249.304 95.744 249.016 95.088 248.552 94.592C248.088 94.08 247.472 93.824 246.704 93.824C245.936 93.824 245.312 94.072 244.832 94.568C244.368 95.064 244.064 95.728 243.92 96.56H249.416ZM263.439 94.712H263.247C262.031 94.712 261.071 95.08 260.367 95.816C259.679 96.552 259.335 97.696 259.335 99.248V104H255.687V91.136H259.335V93.728C259.703 92.848 260.207 92.144 260.847 91.616C261.487 91.088 262.351 90.848 263.439 90.896V94.712ZM275.15 100.088C275.15 100.808 275.022 101.432 274.766 101.96C274.526 102.472 274.182 102.896 273.734 103.232C273.286 103.568 272.758 103.824 272.15 104C271.558 104.16 270.918 104.24 270.23 104.24C269.318 104.24 268.382 104.088 267.422 103.784C266.478 103.464 265.574 102.968 264.71 102.296L266.27 99.896C266.974 100.408 267.67 100.792 268.358 101.048C269.062 101.304 269.718 101.432 270.326 101.432C270.854 101.432 271.238 101.344 271.478 101.168C271.734 100.992 271.862 100.76 271.862 100.472V100.424C271.862 100.232 271.79 100.064 271.646 99.92C271.502 99.776 271.302 99.656 271.046 99.56C270.806 99.448 270.526 99.344 270.206 99.248C269.886 99.152 269.55 99.048 269.198 98.936C268.75 98.808 268.294 98.656 267.83 98.48C267.382 98.288 266.974 98.048 266.606 97.76C266.238 97.456 265.934 97.088 265.694 96.656C265.47 96.224 265.358 95.696 265.358 95.072V95.024C265.358 94.368 265.478 93.792 265.718 93.296C265.974 92.784 266.31 92.352 266.726 92C267.158 91.648 267.654 91.384 268.214 91.208C268.79 91.032 269.406 90.944 270.062 90.944C270.878 90.944 271.702 91.08 272.534 91.352C273.382 91.608 274.158 91.968 274.862 92.432L273.47 94.952C272.83 94.584 272.206 94.296 271.598 94.088C270.99 93.864 270.454 93.752 269.99 93.752C269.542 93.752 269.206 93.84 268.982 94.016C268.758 94.176 268.646 94.384 268.646 94.64V94.688C268.646 94.864 268.718 95.024 268.862 95.168C269.006 95.296 269.198 95.424 269.438 95.552C269.678 95.664 269.95 95.776 270.254 95.888C270.574 96 270.91 96.112 271.262 96.224C271.71 96.368 272.166 96.544 272.63 96.752C273.094 96.944 273.51 97.184 273.878 97.472C274.246 97.76 274.55 98.112 274.79 98.528C275.03 98.944 275.15 99.448 275.15 100.04V100.088ZM281.509 104H277.621V100.16H281.509V104Z" fill="#AD3088"/>
<path opacity="0.75" d="M459.223 58.6391C460.422 58.6391 461.444 57.9187 461.899 56.888H467.574V60.49H461.166C460.533 60.49 460.012 61.011 460.012 61.6427V65.81C458.979 66.2533 458.257 67.2841 458.257 68.4811C458.257 70.0771 459.567 71.3849 461.166 71.3849C462.766 71.3849 464.076 70.0771 464.076 68.4811C464.076 67.2841 463.354 66.2644 462.321 65.81V62.8064H467.574V68.8801C467.574 70.3874 468.806 71.6176 470.317 71.6176H475.58V76.86H472.56C472.116 75.8293 471.083 75.1089 469.884 75.1089C468.285 75.1089 466.974 76.4167 466.974 78.0127C466.974 79.6087 468.285 80.9165 469.884 80.9165C471.083 80.9165 472.105 80.1961 472.56 79.1653H476.735C477.368 79.1653 477.89 78.6444 477.89 78.0127V71.6176H481.499V77.2923C480.466 77.7356 479.745 78.7663 479.745 79.9522C479.745 81.5482 481.055 82.8561 482.654 82.8561C484.253 82.8561 485.564 81.5482 485.564 79.9522C485.564 78.7663 484.842 77.7356 483.809 77.2923V71.6176H487.707V78.0127C487.707 78.6444 488.229 79.1653 488.862 79.1653H493.037C493.481 80.1961 494.514 80.9165 495.713 80.9165C497.312 80.9165 498.623 79.6087 498.623 78.0127C498.623 76.4167 497.312 75.1089 495.713 75.1089C494.514 75.1089 493.492 75.8293 493.037 76.86H490.017V71.6176H495.28C496.79 71.6176 498.023 70.3874 498.023 68.8801V62.8064H503.287V65.8211C502.254 66.2644 501.532 67.2952 501.532 68.4921C501.532 70.0881 502.843 71.396 504.442 71.396C506.041 71.396 507.351 70.0881 507.351 68.4921C507.351 67.2952 506.629 66.2755 505.608 65.8322V61.6649C505.608 61.0331 505.086 60.5122 504.453 60.5122H498.045V56.9101H503.731C504.175 57.9409 505.208 58.6613 506.407 58.6613C508.006 58.6613 509.317 57.3535 509.317 55.7575C509.317 54.1615 508.006 52.8537 506.407 52.8537C505.208 52.8537 504.186 53.5741 503.731 54.6048H498.045V50.7146H504.453C505.086 50.7146 505.608 50.1937 505.608 49.5619V45.3946C506.629 44.9513 507.351 43.9206 507.351 42.7347C507.351 41.1387 506.052 39.8308 504.442 39.8308C502.831 39.8308 501.532 41.1387 501.532 42.7347C501.532 43.9317 502.254 44.9513 503.287 45.4057V48.4204H498.034V43.976C498.034 42.4687 496.802 41.2384 495.291 41.2384H490.028V35.996H493.048C493.492 37.0268 494.525 37.7472 495.724 37.7472C497.323 37.7472 498.634 36.4394 498.634 34.8434C498.634 33.2474 497.323 31.9396 495.724 31.9396C494.525 31.9396 493.503 32.66 493.048 33.6907H488.873C488.24 33.6907 487.718 34.2116 487.718 34.8434V41.2384H483.82V35.5749C484.842 35.1315 485.575 34.1008 485.575 32.9038C485.575 31.3078 484.264 30 482.665 30C481.066 30 479.756 31.3078 479.756 32.9038C479.756 34.1008 480.478 35.1205 481.51 35.5749V41.2384H477.901V34.8434C477.901 34.2116 477.379 33.6907 476.746 33.6907H472.571C472.127 32.66 471.094 31.9396 469.895 31.9396C468.296 31.9396 466.985 33.2474 466.985 34.8434C466.985 36.4394 468.296 37.7472 469.895 37.7472C471.094 37.7472 472.116 37.0268 472.571 35.996H475.591V41.2384H470.328C468.818 41.2384 467.585 42.4687 467.585 43.976V48.4093H462.332V45.3946C463.365 44.9513 464.087 43.9206 464.087 42.7236C464.087 41.1276 462.777 39.8198 461.178 39.8198C459.578 39.8198 458.268 41.1276 458.268 42.7236C458.268 43.9206 458.99 44.9402 460.023 45.3946V49.5619C460.023 50.1937 460.545 50.7146 461.178 50.7146H467.585V54.6048H461.91C461.466 53.5741 460.434 52.8537 459.234 52.8537C457.635 52.8537 456.325 54.1615 456.325 55.7575C456.325 57.3646 457.624 58.6724 459.234 58.6724L459.223 58.6391ZM461.166 69.0796C460.833 69.0796 460.567 68.8136 460.567 68.4811C460.567 68.1486 460.833 67.8826 461.166 67.8826C461.5 67.8826 461.766 68.1486 461.766 68.4811C461.766 68.8136 461.5 69.0796 461.166 69.0796ZM469.884 78.6001C469.551 78.6001 469.284 78.3341 469.284 78.0016C469.284 77.6691 469.551 77.4031 469.884 77.4031C470.217 77.4031 470.483 77.6691 470.483 78.0016C470.483 78.3341 470.217 78.6001 469.884 78.6001ZM482.654 80.5396C482.321 80.5396 482.054 80.2737 482.054 79.9412C482.054 79.6087 482.321 79.3537 482.654 79.3537C482.987 79.3537 483.254 79.6197 483.254 79.9412C483.254 80.2626 482.987 80.5396 482.654 80.5396ZM495.702 77.4031C496.035 77.4031 496.302 77.6691 496.302 78.0016C496.302 78.3341 496.035 78.6001 495.702 78.6001C495.369 78.6001 495.103 78.3341 495.103 78.0016C495.103 77.6691 495.369 77.4031 495.702 77.4031ZM504.431 69.0796C504.097 69.0796 503.831 68.8136 503.831 68.4811C503.831 68.1486 504.097 67.8826 504.431 67.8826C504.764 67.8826 505.019 68.1486 505.019 68.4811C505.019 68.8136 504.753 69.0796 504.431 69.0796ZM506.374 55.1368C506.707 55.1368 506.974 55.4028 506.974 55.7353C506.974 56.0678 506.707 56.3338 506.374 56.3338C506.041 56.3338 505.774 56.0678 505.774 55.7353C505.774 55.4028 506.041 55.1368 506.374 55.1368ZM504.431 42.114C504.764 42.114 505.019 42.38 505.019 42.7125C505.019 43.045 504.753 43.311 504.431 43.311C504.108 43.311 503.831 43.045 503.831 42.7125C503.831 42.38 504.097 42.114 504.431 42.114ZM495.702 34.2227C496.035 34.2227 496.302 34.4887 496.302 34.8212C496.302 35.1537 496.035 35.4197 495.702 35.4197C495.369 35.4197 495.103 35.1537 495.103 34.8212C495.103 34.4998 495.369 34.2227 495.702 34.2227ZM482.654 32.2832C482.987 32.2832 483.254 32.5491 483.254 32.8816C483.254 33.2141 482.987 33.4801 482.654 33.4801C482.321 33.4801 482.054 33.2141 482.054 32.8816C482.054 32.5491 482.321 32.2832 482.654 32.2832ZM469.884 35.4197C469.551 35.4197 469.284 35.1537 469.284 34.8212C469.284 34.4887 469.551 34.2227 469.884 34.2227C470.217 34.2227 470.483 34.4887 470.483 34.8212C470.483 35.1426 470.217 35.4197 469.884 35.4197ZM461.166 42.114C461.5 42.114 461.766 42.38 461.766 42.7125C461.766 43.045 461.5 43.311 461.166 43.311C460.833 43.311 460.567 43.045 460.567 42.7125C460.567 42.38 460.833 42.114 461.166 42.114ZM469.884 43.9538C469.884 43.7211 470.084 43.5216 470.317 43.5216H495.291C495.525 43.5216 495.713 43.7211 495.713 43.9538V68.869C495.713 69.1017 495.525 69.3012 495.291 69.3012H470.317C470.084 69.3012 469.884 69.1017 469.884 68.869V43.9538ZM459.223 55.1368C459.556 55.1368 459.823 55.4028 459.823 55.7353C459.823 56.0678 459.556 56.3338 459.223 56.3338C458.89 56.3338 458.623 56.0678 458.623 55.7353C458.623 55.4028 458.89 55.1368 459.223 55.1368ZM519 82.8006C519 83.111 518.878 83.3991 518.656 83.6097L497.623 104.601C495.802 106.419 493.67 107.428 491.105 107.694L490.594 107.749C490.594 107.749 490.527 107.749 490.494 107.749L467.774 108.07L464.32 113.468C464.109 113.812 463.732 114 463.354 114C463.143 114 462.921 113.945 462.732 113.823C462.199 113.479 462.033 112.77 462.377 112.227L466.164 106.308C466.375 105.976 466.73 105.787 467.119 105.776L490.405 105.444L490.861 105.399C492.87 105.2 494.547 104.402 495.98 102.972L516.19 82.8006L513.759 80.3734C513.237 79.8525 512.448 79.7417 511.882 79.7417C510.494 79.7417 508.906 80.3734 507.995 81.2711L494.125 95.1252C494.125 95.1252 494.07 95.1806 494.037 95.2028C494.025 95.2028 494.014 95.225 493.992 95.236C493.97 95.2471 493.959 95.2582 493.948 95.2693L493.892 95.3025C493.892 95.3025 493.859 95.3247 493.848 95.3247C493.825 95.3247 493.814 95.3469 493.792 95.3469C493.77 95.3469 493.759 95.369 493.737 95.369C493.726 95.369 493.714 95.369 493.703 95.3801C493.626 95.4023 493.548 95.4355 493.47 95.4355C493.448 95.4355 493.437 95.4355 493.415 95.4355C493.392 95.4355 493.381 95.4355 493.359 95.4355C493.337 95.4355 493.315 95.4355 493.304 95.4355H477.179C476.547 95.4355 476.025 94.9257 476.025 94.294C476.025 93.6622 476.547 93.1413 477.179 93.1413H492.726C493.081 92.5871 493.281 91.9443 493.281 91.2793C493.281 89.3952 491.738 87.8546 489.85 87.8546H467.74C463.909 87.8546 462.766 89.6944 460.855 92.7534C460.656 93.0748 460.456 93.3962 460.245 93.7287L454.137 103.282C453.793 103.826 453.082 103.981 452.538 103.637C451.994 103.294 451.838 102.584 452.183 102.041L458.29 92.4874C458.501 92.166 458.701 91.8446 458.89 91.5342C460.811 88.4531 462.632 85.5493 467.74 85.5493H489.85C492.726 85.5493 495.125 87.6773 495.536 90.437L506.363 79.6308C507.684 78.3119 509.905 77.4253 511.882 77.4253C513.325 77.4253 514.536 77.8797 515.391 78.7331L518.634 81.9694C518.845 82.1911 518.978 82.4903 518.978 82.7895L519 82.8006Z" fill="white"/>
</svg>
