<svg width="539" height="144" viewBox="0 0 539 144" fill="none" xmlns="http://www.w3.org/2000/svg">
<rect width="539" height="144" rx="28" fill="white"/>
<rect x="429" width="110" height="144" rx="28" fill="#F59ADA"/>
<path d="M24.12 51H25.7V65H24.12V51ZM35.1003 52.46V65H33.5003V52.46H28.8003V51H39.8003V52.46H35.1003ZM49.4252 60.4C49.4785 60.96 49.6118 61.46 49.8252 61.9C50.0385 62.3267 50.3118 62.6933 50.6452 63C50.9785 63.2933 51.3518 63.52 51.7652 63.68C52.1785 63.8267 52.6118 63.9 53.0652 63.9C53.7852 63.9 54.3985 63.7667 54.9052 63.5C55.4252 63.2333 55.8985 62.88 56.3252 62.44L57.2852 63.3C56.7652 63.8867 56.1718 64.36 55.5052 64.72C54.8385 65.0667 54.0118 65.24 53.0252 65.24C52.3185 65.24 51.6518 65.1133 51.0252 64.86C50.3985 64.5933 49.8518 64.2267 49.3852 63.76C48.9185 63.28 48.5452 62.7067 48.2652 62.04C47.9985 61.3733 47.8652 60.64 47.8652 59.84C47.8652 59.0933 47.9852 58.3933 48.2252 57.74C48.4785 57.0733 48.8252 56.5 49.2652 56.02C49.7052 55.5267 50.2252 55.14 50.8252 54.86C51.4385 54.58 52.1052 54.44 52.8252 54.44C53.5852 54.44 54.2652 54.5867 54.8652 54.88C55.4652 55.16 55.9718 55.5467 56.3852 56.04C56.7985 56.5333 57.1118 57.1133 57.3252 57.78C57.5385 58.4467 57.6452 59.16 57.6452 59.92C57.6452 59.9867 57.6452 60.06 57.6452 60.14C57.6452 60.22 57.6385 60.3067 57.6252 60.4H49.4252ZM49.4252 59.26H56.0852C56.0452 58.7933 55.9452 58.3467 55.7852 57.92C55.6385 57.4933 55.4252 57.12 55.1452 56.8C54.8785 56.48 54.5452 56.2267 54.1452 56.04C53.7585 55.84 53.3052 55.74 52.7852 55.74C52.3318 55.74 51.9118 55.8333 51.5252 56.02C51.1385 56.1933 50.7985 56.44 50.5052 56.76C50.2118 57.0667 49.9718 57.4333 49.7852 57.86C49.5985 58.2867 49.4785 58.7533 49.4252 59.26ZM70.1811 68.2H68.6411V62.92C68.4278 63.2267 68.1878 63.52 67.9211 63.8C67.6678 64.08 67.3811 64.3267 67.0611 64.54C66.7411 64.7533 66.3811 64.92 65.9811 65.04C65.5944 65.16 65.1611 65.22 64.6811 65.22C64.0544 65.22 63.4478 65.1 62.8611 64.86C62.2744 64.62 61.7478 64.2733 61.2811 63.82C60.8144 63.3533 60.4411 62.7867 60.1611 62.12C59.8811 61.4533 59.7411 60.6933 59.7411 59.84C59.7411 58.9867 59.8811 58.2267 60.1611 57.56C60.4411 56.8933 60.8144 56.3333 61.2811 55.88C61.7478 55.4133 62.2744 55.06 62.8611 54.82C63.4478 54.5667 64.0544 54.44 64.6811 54.44C65.1611 54.44 65.6011 54.5 66.0011 54.62C66.4011 54.74 66.7611 54.9 67.0811 55.1C67.4011 55.3 67.6878 55.5333 67.9411 55.8C68.2078 56.0667 68.4411 56.3467 68.6411 56.64V54.66H70.1811V68.2ZM68.7011 59.82C68.7011 59.22 68.5944 58.6733 68.3811 58.18C68.1811 57.6867 67.9011 57.2667 67.5411 56.92C67.1944 56.5733 66.7944 56.3067 66.3411 56.12C65.9011 55.92 65.4411 55.82 64.9611 55.82C64.4544 55.82 63.9811 55.9133 63.5411 56.1C63.1011 56.2733 62.7144 56.5333 62.3811 56.88C62.0611 57.2133 61.8011 57.6333 61.6011 58.14C61.4144 58.6333 61.3211 59.1933 61.3211 59.82C61.3211 60.4333 61.4144 60.9867 61.6011 61.48C61.8011 61.9733 62.0678 62.4 62.4011 62.76C62.7344 63.1067 63.1211 63.3733 63.5611 63.56C64.0011 63.7467 64.4678 63.84 64.9611 63.84C65.4411 63.84 65.9011 63.7467 66.3411 63.56C66.7944 63.36 67.1944 63.0867 67.5411 62.74C67.9011 62.3933 68.1811 61.9733 68.3811 61.48C68.5944 60.9733 68.7011 60.42 68.7011 59.82ZM80.9623 60.58V54.66H82.4823V65H80.9623V63.2C80.6157 63.76 80.1623 64.24 79.6023 64.64C79.0423 65.0267 78.3157 65.22 77.4223 65.22C76.7957 65.22 76.2357 65.12 75.7423 64.92C75.2623 64.72 74.849 64.44 74.5023 64.08C74.169 63.7067 73.909 63.2667 73.7223 62.76C73.549 62.2533 73.4623 61.6933 73.4623 61.08V54.66H75.0023V60.7C75.0023 61.66 75.249 62.42 75.7423 62.98C76.2357 63.54 76.9423 63.82 77.8623 63.82C78.3023 63.82 78.709 63.7467 79.0823 63.6C79.469 63.44 79.7957 63.22 80.0623 62.94C80.3423 62.6467 80.5623 62.3 80.7223 61.9C80.8823 61.5 80.9623 61.06 80.9623 60.58ZM87.7466 52.4H85.9866V50.7H87.7466V52.4ZM87.6266 65H86.0866V54.66H87.6266V65ZM101.64 59.82C101.64 60.6733 101.5 61.4333 101.22 62.1C100.94 62.7667 100.567 63.3333 100.1 63.8C99.6471 64.2533 99.1205 64.6067 98.5205 64.86C97.9338 65.1 97.3271 65.22 96.7005 65.22C96.2205 65.22 95.7805 65.16 95.3805 65.04C94.9805 64.92 94.6205 64.76 94.3005 64.56C93.9805 64.36 93.6871 64.1267 93.4205 63.86C93.1671 63.5933 92.9405 63.3133 92.7405 63.02V68.2H91.2005V54.66H92.7405V56.74C92.9538 56.4333 93.1871 56.14 93.4405 55.86C93.7071 55.58 94.0005 55.34 94.3205 55.14C94.6405 54.9267 94.9938 54.76 95.3805 54.64C95.7805 54.5067 96.2205 54.44 96.7005 54.44C97.3138 54.44 97.9138 54.56 98.5005 54.8C99.1005 55.04 99.6338 55.3933 100.1 55.86C100.567 56.3133 100.94 56.8733 101.22 57.54C101.5 58.2067 101.64 58.9667 101.64 59.82ZM100.06 59.84C100.06 59.2267 99.9605 58.6733 99.7605 58.18C99.5738 57.6867 99.3138 57.2667 98.9805 56.92C98.6471 56.56 98.2605 56.2867 97.8205 56.1C97.3805 55.9133 96.9138 55.82 96.4205 55.82C95.9405 55.82 95.4738 55.92 95.0205 56.12C94.5805 56.3067 94.1805 56.5733 93.8205 56.92C93.4738 57.2667 93.1938 57.6867 92.9805 58.18C92.7805 58.6733 92.6805 59.22 92.6805 59.82C92.6805 60.42 92.7805 60.9733 92.9805 61.48C93.1938 61.9733 93.4738 62.3933 93.8205 62.74C94.1805 63.0867 94.5805 63.36 95.0205 63.56C95.4738 63.7467 95.9405 63.84 96.4205 63.84C96.9138 63.84 97.3805 63.7533 97.8205 63.58C98.2738 63.3933 98.6605 63.1333 98.9805 62.8C99.3138 62.4533 99.5738 62.0333 99.7605 61.54C99.9605 61.0333 100.06 60.4667 100.06 59.84ZM112.682 56.5C112.868 56.22 113.075 55.9533 113.302 55.7C113.542 55.4467 113.808 55.2267 114.102 55.04C114.395 54.8533 114.722 54.7067 115.082 54.6C115.455 54.4933 115.868 54.44 116.322 54.44C117.522 54.44 118.462 54.8133 119.142 55.56C119.822 56.2933 120.162 57.3067 120.162 58.6V65H118.622V58.96C118.622 57.96 118.382 57.1933 117.902 56.66C117.435 56.1133 116.782 55.84 115.942 55.84C115.555 55.84 115.188 55.9133 114.842 56.06C114.495 56.1933 114.188 56.4 113.922 56.68C113.668 56.9467 113.462 57.28 113.302 57.68C113.155 58.08 113.082 58.5333 113.082 59.04V65H111.562V58.92C111.562 57.9467 111.322 57.1933 110.842 56.66C110.375 56.1133 109.728 55.84 108.902 55.84C108.488 55.84 108.108 55.92 107.762 56.08C107.415 56.24 107.108 56.4667 106.842 56.76C106.588 57.0533 106.388 57.4 106.242 57.8C106.095 58.1867 106.022 58.62 106.022 59.1V65H104.482V54.66H106.022V56.4C106.195 56.1467 106.382 55.9 106.582 55.66C106.795 55.42 107.035 55.2133 107.302 55.04C107.568 54.8533 107.868 54.7067 108.202 54.6C108.535 54.4933 108.922 54.44 109.362 54.44C110.202 54.44 110.895 54.64 111.442 55.04C111.988 55.4267 112.402 55.9133 112.682 56.5ZM124.425 60.4C124.478 60.96 124.612 61.46 124.825 61.9C125.038 62.3267 125.312 62.6933 125.645 63C125.978 63.2933 126.352 63.52 126.765 63.68C127.178 63.8267 127.612 63.9 128.065 63.9C128.785 63.9 129.398 63.7667 129.905 63.5C130.425 63.2333 130.898 62.88 131.325 62.44L132.285 63.3C131.765 63.8867 131.172 64.36 130.505 64.72C129.838 65.0667 129.012 65.24 128.025 65.24C127.318 65.24 126.652 65.1133 126.025 64.86C125.398 64.5933 124.852 64.2267 124.385 63.76C123.918 63.28 123.545 62.7067 123.265 62.04C122.998 61.3733 122.865 60.64 122.865 59.84C122.865 59.0933 122.985 58.3933 123.225 57.74C123.478 57.0733 123.825 56.5 124.265 56.02C124.705 55.5267 125.225 55.14 125.825 54.86C126.438 54.58 127.105 54.44 127.825 54.44C128.585 54.44 129.265 54.5867 129.865 54.88C130.465 55.16 130.972 55.5467 131.385 56.04C131.798 56.5333 132.112 57.1133 132.325 57.78C132.538 58.4467 132.645 59.16 132.645 59.92C132.645 59.9867 132.645 60.06 132.645 60.14C132.645 60.22 132.638 60.3067 132.625 60.4H124.425ZM124.425 59.26H131.085C131.045 58.7933 130.945 58.3467 130.785 57.92C130.638 57.4933 130.425 57.12 130.145 56.8C129.878 56.48 129.545 56.2267 129.145 56.04C128.758 55.84 128.305 55.74 127.785 55.74C127.332 55.74 126.912 55.8333 126.525 56.02C126.138 56.1933 125.798 56.44 125.505 56.76C125.212 57.0667 124.972 57.4333 124.785 57.86C124.598 58.2867 124.478 58.7533 124.425 59.26ZM136.881 59.08V65H135.341V54.66H136.881V56.46C137.228 55.9 137.681 55.4267 138.241 55.04C138.801 54.64 139.528 54.44 140.421 54.44C141.048 54.44 141.601 54.54 142.081 54.74C142.574 54.94 142.988 55.2267 143.321 55.6C143.668 55.96 143.928 56.3933 144.101 56.9C144.288 57.4067 144.381 57.9667 144.381 58.58V65H142.841V58.96C142.841 58 142.594 57.24 142.101 56.68C141.608 56.12 140.901 55.84 139.981 55.84C139.541 55.84 139.128 55.92 138.741 56.08C138.368 56.2267 138.041 56.4467 137.761 56.74C137.481 57.02 137.261 57.36 137.101 57.76C136.954 58.16 136.881 58.6 136.881 59.08ZM149.745 56.02V62.06C149.745 62.7 149.905 63.1467 150.225 63.4C150.545 63.6533 150.965 63.78 151.485 63.78C151.752 63.78 151.999 63.7533 152.225 63.7C152.465 63.6467 152.719 63.5533 152.985 63.42V64.74C152.719 64.8867 152.432 64.9933 152.125 65.06C151.832 65.14 151.499 65.18 151.125 65.18C150.712 65.18 150.325 65.1267 149.965 65.02C149.605 64.9133 149.292 64.7467 149.025 64.52C148.772 64.28 148.572 63.9733 148.425 63.6C148.279 63.2267 148.205 62.78 148.205 62.26V56.02H146.765V54.66H148.205V51.54H149.745V54.66H153.025V56.02H149.745ZM165.487 55.88C164.874 55.88 164.314 55.9533 163.807 56.1C163.314 56.2333 162.827 56.4133 162.347 56.64L161.887 55.38C162.461 55.1133 163.041 54.9067 163.627 54.76C164.214 54.6 164.887 54.52 165.647 54.52C167.061 54.52 168.147 54.8733 168.907 55.58C169.667 56.2733 170.047 57.3067 170.047 58.68V65H168.567V63.44C168.207 63.9067 167.721 64.32 167.107 64.68C166.507 65.04 165.747 65.22 164.827 65.22C164.347 65.22 163.874 65.1533 163.407 65.02C162.954 64.8867 162.541 64.6867 162.167 64.42C161.807 64.14 161.514 63.8 161.287 63.4C161.074 63 160.967 62.5267 160.967 61.98C160.967 61.4333 161.074 60.9533 161.287 60.54C161.501 60.1133 161.801 59.76 162.187 59.48C162.587 59.2 163.054 58.9867 163.587 58.84C164.134 58.6933 164.734 58.62 165.387 58.62C166.054 58.62 166.634 58.66 167.127 58.74C167.621 58.82 168.101 58.9267 168.567 59.06V58.7C168.567 57.7667 168.294 57.0667 167.747 56.6C167.214 56.12 166.461 55.88 165.487 55.88ZM165.547 59.76C164.574 59.76 163.827 59.9533 163.307 60.34C162.787 60.7267 162.527 61.2533 162.527 61.92C162.527 62.2533 162.594 62.5467 162.727 62.8C162.874 63.0533 163.067 63.2733 163.307 63.46C163.547 63.6333 163.821 63.7667 164.127 63.86C164.447 63.9533 164.781 64 165.127 64C165.607 64 166.054 63.9333 166.467 63.8C166.894 63.6533 167.261 63.46 167.567 63.22C167.887 62.9667 168.134 62.6733 168.307 62.34C168.494 61.9933 168.587 61.6133 168.587 61.2V60.2C168.201 60.0933 167.754 59.9933 167.247 59.9C166.754 59.8067 166.187 59.76 165.547 59.76ZM174.869 59.08V65H173.329V54.66H174.869V56.46C175.216 55.9 175.669 55.4267 176.229 55.04C176.789 54.64 177.516 54.44 178.409 54.44C179.036 54.44 179.589 54.54 180.069 54.74C180.563 54.94 180.976 55.2267 181.309 55.6C181.656 55.96 181.916 56.3933 182.089 56.9C182.276 57.4067 182.369 57.9667 182.369 58.58V65H180.829V58.96C180.829 58 180.583 57.24 180.089 56.68C179.596 56.12 178.889 55.84 177.969 55.84C177.529 55.84 177.116 55.92 176.729 56.08C176.356 56.2267 176.029 56.4467 175.749 56.74C175.469 57.02 175.249 57.36 175.089 57.76C174.943 58.16 174.869 58.6 174.869 59.08ZM195.494 65H193.954V62.92C193.74 63.2267 193.5 63.52 193.234 63.8C192.98 64.08 192.694 64.3267 192.374 64.54C192.054 64.7533 191.694 64.92 191.294 65.04C190.907 65.16 190.474 65.22 189.994 65.22C189.367 65.22 188.76 65.1 188.174 64.86C187.587 64.62 187.06 64.2733 186.594 63.82C186.127 63.3533 185.754 62.7867 185.474 62.12C185.194 61.4533 185.054 60.6933 185.054 59.84C185.054 58.9867 185.194 58.2267 185.474 57.56C185.754 56.8933 186.127 56.3333 186.594 55.88C187.06 55.4133 187.587 55.06 188.174 54.82C188.76 54.5667 189.367 54.44 189.994 54.44C190.474 54.44 190.914 54.5 191.314 54.62C191.714 54.74 192.074 54.9 192.394 55.1C192.714 55.3 193 55.5333 193.254 55.8C193.52 56.0667 193.754 56.3467 193.954 56.64V50.4H195.494V65ZM194.014 59.82C194.014 59.22 193.907 58.6733 193.694 58.18C193.494 57.6867 193.214 57.2667 192.854 56.92C192.507 56.5733 192.107 56.3067 191.654 56.12C191.214 55.92 190.754 55.82 190.274 55.82C189.767 55.82 189.294 55.9133 188.854 56.1C188.414 56.2733 188.027 56.5333 187.694 56.88C187.374 57.2133 187.114 57.6333 186.914 58.14C186.727 58.6333 186.634 59.1933 186.634 59.82C186.634 60.4333 186.727 60.9867 186.914 61.48C187.114 61.9733 187.38 62.4 187.714 62.76C188.047 63.1067 188.434 63.3733 188.874 63.56C189.314 63.7467 189.78 63.84 190.274 63.84C190.754 63.84 191.214 63.7467 191.654 63.56C192.107 63.36 192.507 63.0867 192.854 62.74C193.214 62.3933 193.494 61.9733 193.694 61.48C193.907 60.9733 194.014 60.42 194.014 59.82ZM212.031 62.1C212.031 62.5933 211.931 63.0333 211.731 63.42C211.544 63.7933 211.284 64.1133 210.951 64.38C210.631 64.6467 210.244 64.8533 209.791 65C209.351 65.1333 208.871 65.2 208.351 65.2C207.604 65.2 206.851 65.0667 206.091 64.8C205.331 64.52 204.658 64.1467 204.071 63.68L204.851 62.58C205.411 63.0067 205.991 63.3333 206.591 63.56C207.204 63.7867 207.818 63.9 208.431 63.9C209.058 63.9 209.571 63.7533 209.971 63.46C210.371 63.1667 210.571 62.7667 210.571 62.26V62.22C210.571 61.9667 210.498 61.7467 210.351 61.56C210.218 61.3733 210.031 61.2133 209.791 61.08C209.551 60.9333 209.271 60.8067 208.951 60.7C208.644 60.5933 208.324 60.4933 207.991 60.4C207.591 60.28 207.184 60.1533 206.771 60.02C206.371 59.8733 206.004 59.6933 205.671 59.48C205.351 59.2667 205.084 59 204.871 58.68C204.671 58.36 204.571 57.96 204.571 57.48V57.44C204.571 57 204.658 56.6 204.831 56.24C205.004 55.8667 205.244 55.5533 205.551 55.3C205.871 55.0333 206.244 54.8333 206.671 54.7C207.111 54.5533 207.584 54.48 208.091 54.48C208.731 54.48 209.378 54.5867 210.031 54.8C210.684 55 211.278 55.2733 211.811 55.62L211.111 56.78C210.631 56.4733 210.124 56.2333 209.591 56.06C209.071 55.8733 208.558 55.78 208.051 55.78C207.438 55.78 206.951 55.9267 206.591 56.22C206.231 56.5 206.051 56.8533 206.051 57.28V57.32C206.051 57.56 206.124 57.7733 206.271 57.96C206.418 58.1333 206.611 58.2867 206.851 58.42C207.104 58.5533 207.391 58.6733 207.711 58.78C208.031 58.8867 208.364 58.9933 208.711 59.1C209.111 59.22 209.504 59.3533 209.891 59.5C210.291 59.6467 210.651 59.8333 210.971 60.06C211.291 60.2867 211.544 60.56 211.731 60.88C211.931 61.2 212.031 61.5933 212.031 62.06V62.1ZM225.332 59.82C225.332 60.6733 225.192 61.4333 224.912 62.1C224.632 62.7667 224.259 63.3333 223.792 63.8C223.339 64.2533 222.812 64.6067 222.212 64.86C221.625 65.1 221.019 65.22 220.392 65.22C219.912 65.22 219.472 65.16 219.072 65.04C218.672 64.92 218.312 64.76 217.992 64.56C217.672 64.36 217.379 64.1267 217.112 63.86C216.859 63.5933 216.632 63.3133 216.432 63.02V68.2H214.892V54.66H216.432V56.74C216.645 56.4333 216.879 56.14 217.132 55.86C217.399 55.58 217.692 55.34 218.012 55.14C218.332 54.9267 218.685 54.76 219.072 54.64C219.472 54.5067 219.912 54.44 220.392 54.44C221.005 54.44 221.605 54.56 222.192 54.8C222.792 55.04 223.325 55.3933 223.792 55.86C224.259 56.3133 224.632 56.8733 224.912 57.54C225.192 58.2067 225.332 58.9667 225.332 59.82ZM223.752 59.84C223.752 59.2267 223.652 58.6733 223.452 58.18C223.265 57.6867 223.005 57.2667 222.672 56.92C222.339 56.56 221.952 56.2867 221.512 56.1C221.072 55.9133 220.605 55.82 220.112 55.82C219.632 55.82 219.165 55.92 218.712 56.12C218.272 56.3067 217.872 56.5733 217.512 56.92C217.165 57.2667 216.885 57.6867 216.672 58.18C216.472 58.6733 216.372 59.22 216.372 59.82C216.372 60.42 216.472 60.9733 216.672 61.48C216.885 61.9733 217.165 62.3933 217.512 62.74C217.872 63.0867 218.272 63.36 218.712 63.56C219.165 63.7467 219.632 63.84 220.112 63.84C220.605 63.84 221.072 63.7533 221.512 63.58C221.965 63.3933 222.352 63.1333 222.672 62.8C223.005 62.4533 223.265 62.0333 223.452 61.54C223.652 61.0333 223.752 60.4667 223.752 59.84ZM229.093 60.4C229.146 60.96 229.28 61.46 229.493 61.9C229.706 62.3267 229.98 62.6933 230.313 63C230.646 63.2933 231.02 63.52 231.433 63.68C231.846 63.8267 232.28 63.9 232.733 63.9C233.453 63.9 234.066 63.7667 234.573 63.5C235.093 63.2333 235.566 62.88 235.993 62.44L236.953 63.3C236.433 63.8867 235.84 64.36 235.173 64.72C234.506 65.0667 233.68 65.24 232.693 65.24C231.986 65.24 231.32 65.1133 230.693 64.86C230.066 64.5933 229.52 64.2267 229.053 63.76C228.586 63.28 228.213 62.7067 227.933 62.04C227.666 61.3733 227.533 60.64 227.533 59.84C227.533 59.0933 227.653 58.3933 227.893 57.74C228.146 57.0733 228.493 56.5 228.933 56.02C229.373 55.5267 229.893 55.14 230.493 54.86C231.106 54.58 231.773 54.44 232.493 54.44C233.253 54.44 233.933 54.5867 234.533 54.88C235.133 55.16 235.64 55.5467 236.053 56.04C236.466 56.5333 236.78 57.1133 236.993 57.78C237.206 58.4467 237.313 59.16 237.313 59.92C237.313 59.9867 237.313 60.06 237.313 60.14C237.313 60.22 237.306 60.3067 237.293 60.4H229.093ZM229.093 59.26H235.753C235.713 58.7933 235.613 58.3467 235.453 57.92C235.306 57.4933 235.093 57.12 234.813 56.8C234.546 56.48 234.213 56.2267 233.813 56.04C233.426 55.84 232.973 55.74 232.453 55.74C232 55.74 231.58 55.8333 231.193 56.02C230.806 56.1933 230.466 56.44 230.173 56.76C229.88 57.0667 229.64 57.4333 229.453 57.86C229.266 58.2867 229.146 58.7533 229.093 59.26ZM241.549 59.08V65H240.009V54.66H241.549V56.46C241.896 55.9 242.349 55.4267 242.909 55.04C243.469 54.64 244.196 54.44 245.089 54.44C245.716 54.44 246.269 54.54 246.749 54.74C247.242 54.94 247.656 55.2267 247.989 55.6C248.336 55.96 248.596 56.3933 248.769 56.9C248.956 57.4067 249.049 57.9667 249.049 58.58V65H247.509V58.96C247.509 58 247.262 57.24 246.769 56.68C246.276 56.12 245.569 55.84 244.649 55.84C244.209 55.84 243.796 55.92 243.409 56.08C243.036 56.2267 242.709 56.4467 242.429 56.74C242.149 57.02 241.929 57.36 241.769 57.76C241.622 58.16 241.549 58.6 241.549 59.08ZM262.173 65H260.633V62.92C260.42 63.2267 260.18 63.52 259.913 63.8C259.66 64.08 259.373 64.3267 259.053 64.54C258.733 64.7533 258.373 64.92 257.973 65.04C257.587 65.16 257.153 65.22 256.673 65.22C256.047 65.22 255.44 65.1 254.853 64.86C254.267 64.62 253.74 64.2733 253.273 63.82C252.807 63.3533 252.433 62.7867 252.153 62.12C251.873 61.4533 251.733 60.6933 251.733 59.84C251.733 58.9867 251.873 58.2267 252.153 57.56C252.433 56.8933 252.807 56.3333 253.273 55.88C253.74 55.4133 254.267 55.06 254.853 54.82C255.44 54.5667 256.047 54.44 256.673 54.44C257.153 54.44 257.593 54.5 257.993 54.62C258.393 54.74 258.753 54.9 259.073 55.1C259.393 55.3 259.68 55.5333 259.933 55.8C260.2 56.0667 260.433 56.3467 260.633 56.64V50.4H262.173V65ZM260.693 59.82C260.693 59.22 260.587 58.6733 260.373 58.18C260.173 57.6867 259.893 57.2667 259.533 56.92C259.187 56.5733 258.787 56.3067 258.333 56.12C257.893 55.92 257.433 55.82 256.953 55.82C256.447 55.82 255.973 55.9133 255.533 56.1C255.093 56.2733 254.707 56.5333 254.373 56.88C254.053 57.2133 253.793 57.6333 253.593 58.14C253.407 58.6333 253.313 59.1933 253.313 59.82C253.313 60.4333 253.407 60.9867 253.593 61.48C253.793 61.9733 254.06 62.4 254.393 62.76C254.727 63.1067 255.113 63.3733 255.553 63.56C255.993 63.7467 256.46 63.84 256.953 63.84C257.433 63.84 257.893 63.7467 258.333 63.56C258.787 63.36 259.187 63.0867 259.533 62.74C259.893 62.3933 260.173 61.9733 260.373 61.48C260.587 60.9733 260.693 60.42 260.693 59.82ZM278.711 62.1C278.711 62.5933 278.611 63.0333 278.411 63.42C278.224 63.7933 277.964 64.1133 277.631 64.38C277.311 64.6467 276.924 64.8533 276.471 65C276.031 65.1333 275.551 65.2 275.031 65.2C274.284 65.2 273.531 65.0667 272.771 64.8C272.011 64.52 271.337 64.1467 270.751 63.68L271.531 62.58C272.091 63.0067 272.671 63.3333 273.271 63.56C273.884 63.7867 274.497 63.9 275.111 63.9C275.737 63.9 276.251 63.7533 276.651 63.46C277.051 63.1667 277.251 62.7667 277.251 62.26V62.22C277.251 61.9667 277.177 61.7467 277.031 61.56C276.897 61.3733 276.711 61.2133 276.471 61.08C276.231 60.9333 275.951 60.8067 275.631 60.7C275.324 60.5933 275.004 60.4933 274.671 60.4C274.271 60.28 273.864 60.1533 273.451 60.02C273.051 59.8733 272.684 59.6933 272.351 59.48C272.031 59.2667 271.764 59 271.551 58.68C271.351 58.36 271.251 57.96 271.251 57.48V57.44C271.251 57 271.337 56.6 271.511 56.24C271.684 55.8667 271.924 55.5533 272.231 55.3C272.551 55.0333 272.924 54.8333 273.351 54.7C273.791 54.5533 274.264 54.48 274.771 54.48C275.411 54.48 276.057 54.5867 276.711 54.8C277.364 55 277.957 55.2733 278.491 55.62L277.791 56.78C277.311 56.4733 276.804 56.2333 276.271 56.06C275.751 55.8733 275.237 55.78 274.731 55.78C274.117 55.78 273.631 55.9267 273.271 56.22C272.911 56.5 272.731 56.8533 272.731 57.28V57.32C272.731 57.56 272.804 57.7733 272.951 57.96C273.097 58.1333 273.291 58.2867 273.531 58.42C273.784 58.5533 274.071 58.6733 274.391 58.78C274.711 58.8867 275.044 58.9933 275.391 59.1C275.791 59.22 276.184 59.3533 276.571 59.5C276.971 59.6467 277.331 59.8333 277.651 60.06C277.971 60.2867 278.224 60.56 278.411 60.88C278.611 61.2 278.711 61.5933 278.711 62.06V62.1ZM292.012 59.82C292.012 60.6733 291.872 61.4333 291.592 62.1C291.312 62.7667 290.938 63.3333 290.472 63.8C290.018 64.2533 289.492 64.6067 288.892 64.86C288.305 65.1 287.698 65.22 287.072 65.22C286.592 65.22 286.152 65.16 285.752 65.04C285.352 64.92 284.992 64.76 284.672 64.56C284.352 64.36 284.058 64.1267 283.792 63.86C283.538 63.5933 283.312 63.3133 283.112 63.02V68.2H281.572V54.66H283.112V56.74C283.325 56.4333 283.558 56.14 283.812 55.86C284.078 55.58 284.372 55.34 284.692 55.14C285.012 54.9267 285.365 54.76 285.752 54.64C286.152 54.5067 286.592 54.44 287.072 54.44C287.685 54.44 288.285 54.56 288.872 54.8C289.472 55.04 290.005 55.3933 290.472 55.86C290.938 56.3133 291.312 56.8733 291.592 57.54C291.872 58.2067 292.012 58.9667 292.012 59.82ZM290.432 59.84C290.432 59.2267 290.332 58.6733 290.132 58.18C289.945 57.6867 289.685 57.2667 289.352 56.92C289.018 56.56 288.632 56.2867 288.192 56.1C287.752 55.9133 287.285 55.82 286.792 55.82C286.312 55.82 285.845 55.92 285.392 56.12C284.952 56.3067 284.552 56.5733 284.192 56.92C283.845 57.2667 283.565 57.6867 283.352 58.18C283.152 58.6733 283.052 59.22 283.052 59.82C283.052 60.42 283.152 60.9733 283.352 61.48C283.565 61.9733 283.845 62.3933 284.192 62.74C284.552 63.0867 284.952 63.36 285.392 63.56C285.845 63.7467 286.312 63.84 286.792 63.84C287.285 63.84 287.752 63.7533 288.192 63.58C288.645 63.3933 289.032 63.1333 289.352 62.8C289.685 62.4533 289.945 62.0333 290.132 61.54C290.332 61.0333 290.432 60.4667 290.432 59.84ZM298.593 55.88C297.979 55.88 297.419 55.9533 296.913 56.1C296.419 56.2333 295.933 56.4133 295.453 56.64L294.993 55.38C295.566 55.1133 296.146 54.9067 296.733 54.76C297.319 54.6 297.993 54.52 298.753 54.52C300.166 54.52 301.253 54.8733 302.013 55.58C302.773 56.2733 303.153 57.3067 303.153 58.68V65H301.673V63.44C301.313 63.9067 300.826 64.32 300.213 64.68C299.613 65.04 298.853 65.22 297.933 65.22C297.453 65.22 296.979 65.1533 296.513 65.02C296.059 64.8867 295.646 64.6867 295.273 64.42C294.913 64.14 294.619 63.8 294.393 63.4C294.179 63 294.073 62.5267 294.073 61.98C294.073 61.4333 294.179 60.9533 294.393 60.54C294.606 60.1133 294.906 59.76 295.293 59.48C295.693 59.2 296.159 58.9867 296.693 58.84C297.239 58.6933 297.839 58.62 298.493 58.62C299.159 58.62 299.739 58.66 300.233 58.74C300.726 58.82 301.206 58.9267 301.673 59.06V58.7C301.673 57.7667 301.399 57.0667 300.853 56.6C300.319 56.12 299.566 55.88 298.593 55.88ZM298.653 59.76C297.679 59.76 296.933 59.9533 296.413 60.34C295.893 60.7267 295.633 61.2533 295.633 61.92C295.633 62.2533 295.699 62.5467 295.833 62.8C295.979 63.0533 296.173 63.2733 296.413 63.46C296.653 63.6333 296.926 63.7667 297.233 63.86C297.553 63.9533 297.886 64 298.233 64C298.713 64 299.159 63.9333 299.573 63.8C299.999 63.6533 300.366 63.46 300.673 63.22C300.993 62.9667 301.239 62.6733 301.413 62.34C301.599 61.9933 301.693 61.6133 301.693 61.2V60.2C301.306 60.0933 300.859 59.9933 300.353 59.9C299.859 59.8067 299.293 59.76 298.653 59.76ZM307.975 59.08V65H306.435V54.66H307.975V56.46C308.322 55.9 308.775 55.4267 309.335 55.04C309.895 54.64 310.622 54.44 311.515 54.44C312.142 54.44 312.695 54.54 313.175 54.74C313.668 54.94 314.082 55.2267 314.415 55.6C314.762 55.96 315.022 56.3933 315.195 56.9C315.382 57.4067 315.475 57.9667 315.475 58.58V65H313.935V58.96C313.935 58 313.688 57.24 313.195 56.68C312.702 56.12 311.995 55.84 311.075 55.84C310.635 55.84 310.222 55.92 309.835 56.08C309.462 56.2267 309.135 56.4467 308.855 56.74C308.575 57.02 308.355 57.36 308.195 57.76C308.048 58.16 307.975 58.6 307.975 59.08ZM320.299 59.08V65H318.759V54.66H320.299V56.46C320.646 55.9 321.099 55.4267 321.659 55.04C322.219 54.64 322.946 54.44 323.839 54.44C324.466 54.44 325.019 54.54 325.499 54.74C325.992 54.94 326.406 55.2267 326.739 55.6C327.086 55.96 327.346 56.3933 327.519 56.9C327.706 57.4067 327.799 57.9667 327.799 58.58V65H326.259V58.96C326.259 58 326.012 57.24 325.519 56.68C325.026 56.12 324.319 55.84 323.399 55.84C322.959 55.84 322.546 55.92 322.159 56.08C321.786 56.2267 321.459 56.4467 321.179 56.74C320.899 57.02 320.679 57.36 320.519 57.76C320.372 58.16 320.299 58.6 320.299 59.08ZM332.883 52.4H331.123V50.7H332.883V52.4ZM332.763 65H331.223V54.66H332.763V65ZM337.877 59.08V65H336.337V54.66H337.877V56.46C338.224 55.9 338.677 55.4267 339.237 55.04C339.797 54.64 340.524 54.44 341.417 54.44C342.044 54.44 342.597 54.54 343.077 54.74C343.571 54.94 343.984 55.2267 344.317 55.6C344.664 55.96 344.924 56.3933 345.097 56.9C345.284 57.4067 345.377 57.9667 345.377 58.58V65H343.837V58.96C343.837 58 343.591 57.24 343.097 56.68C342.604 56.12 341.897 55.84 340.977 55.84C340.537 55.84 340.124 55.92 339.737 56.08C339.364 56.2267 339.037 56.4467 338.757 56.74C338.477 57.02 338.257 57.36 338.097 57.76C337.951 58.16 337.877 58.6 337.877 59.08ZM358.501 63.2C358.501 64.04 358.375 64.7733 358.121 65.4C357.881 66.0267 357.528 66.5467 357.061 66.96C356.608 67.3867 356.055 67.7067 355.401 67.92C354.761 68.1333 354.041 68.24 353.241 68.24C352.375 68.24 351.548 68.12 350.761 67.88C349.975 67.64 349.235 67.28 348.541 66.8L349.241 65.6C349.841 66.0267 350.468 66.3533 351.121 66.58C351.775 66.8067 352.475 66.92 353.221 66.92C354.368 66.92 355.281 66.6067 355.961 65.98C356.641 65.3667 356.981 64.4533 356.981 63.24V62.02C356.528 62.62 355.975 63.1333 355.321 63.56C354.668 63.9867 353.868 64.2 352.921 64.2C352.295 64.2 351.688 64.0933 351.101 63.88C350.528 63.6533 350.015 63.3333 349.561 62.92C349.108 62.4933 348.741 61.98 348.461 61.38C348.195 60.78 348.061 60.1 348.061 59.34C348.061 58.58 348.195 57.9 348.461 57.3C348.741 56.6867 349.108 56.1733 349.561 55.76C350.015 55.3333 350.535 55.0067 351.121 54.78C351.708 54.5533 352.308 54.44 352.921 54.44C353.401 54.44 353.841 54.5 354.241 54.62C354.655 54.7267 355.021 54.8733 355.341 55.06C355.675 55.2467 355.975 55.4667 356.241 55.72C356.508 55.9733 356.748 56.24 356.961 56.52V54.66H358.501V63.2ZM357.021 59.32C357.021 58.7867 356.915 58.3067 356.701 57.88C356.488 57.44 356.201 57.0667 355.841 56.76C355.495 56.4533 355.095 56.22 354.641 56.06C354.188 55.8867 353.715 55.8 353.221 55.8C352.728 55.8 352.261 55.88 351.821 56.04C351.395 56.2 351.015 56.4333 350.681 56.74C350.361 57.0467 350.108 57.42 349.921 57.86C349.735 58.2867 349.641 58.7667 349.641 59.3C349.641 59.8333 349.735 60.32 349.921 60.76C350.121 61.1867 350.381 61.56 350.701 61.88C351.035 62.1867 351.415 62.4267 351.841 62.6C352.281 62.76 352.741 62.84 353.221 62.84C353.715 62.84 354.188 62.76 354.641 62.6C355.095 62.4267 355.495 62.1867 355.841 61.88C356.201 61.5733 356.488 61.2067 356.701 60.78C356.915 60.34 357.021 59.8533 357.021 59.32Z" fill="#3E3E3E"/>
<path d="M373.635 51.272C372.979 51.272 372.395 51.456 371.883 51.824C371.387 52.192 370.827 52.76 370.203 53.528L367.611 51.44C368.027 50.88 368.443 50.384 368.859 49.952C369.291 49.52 369.747 49.16 370.227 48.872C370.723 48.568 371.267 48.344 371.859 48.2C372.451 48.04 373.123 47.96 373.875 47.96C374.771 47.96 375.571 48.088 376.275 48.344C376.995 48.584 377.603 48.936 378.099 49.4C378.611 49.848 378.995 50.392 379.251 51.032C379.523 51.672 379.659 52.384 379.659 53.168C379.659 53.872 379.563 54.504 379.371 55.064C379.195 55.608 378.923 56.128 378.555 56.624C378.203 57.12 377.747 57.616 377.187 58.112C376.627 58.592 375.979 59.12 375.243 59.696L372.507 61.808H379.827V65H367.395V62.072L372.987 57.488C373.515 57.056 373.963 56.672 374.331 56.336C374.699 55.984 374.995 55.656 375.219 55.352C375.459 55.032 375.627 54.728 375.723 54.44C375.835 54.136 375.891 53.808 375.891 53.456C375.891 52.736 375.683 52.192 375.267 51.824C374.851 51.456 374.307 51.272 373.635 51.272ZM391.132 48.08H394.252V58.376H396.508V61.376H394.252V65H390.724V61.376H382.516L381.916 58.76L391.132 48.08ZM390.724 58.376V53.144L386.26 58.376H390.724ZM398.295 49.52L403.119 48.08H405.639V65H401.991V51.824L399.063 52.544L398.295 49.52ZM33.064 87.088C33.064 87.808 32.936 88.432 32.68 88.96C32.44 89.472 32.096 89.896 31.648 90.232C31.2 90.568 30.672 90.824 30.064 91C29.472 91.16 28.832 91.24 28.144 91.24C27.232 91.24 26.296 91.088 25.336 90.784C24.392 90.464 23.488 89.968 22.624 89.296L24.184 86.896C24.888 87.408 25.584 87.792 26.272 88.048C26.976 88.304 27.632 88.432 28.24 88.432C28.768 88.432 29.152 88.344 29.392 88.168C29.648 87.992 29.776 87.76 29.776 87.472V87.424C29.776 87.232 29.704 87.064 29.56 86.92C29.416 86.776 29.216 86.656 28.96 86.56C28.72 86.448 28.44 86.344 28.12 86.248C27.8 86.152 27.464 86.048 27.112 85.936C26.664 85.808 26.208 85.656 25.744 85.48C25.296 85.288 24.888 85.048 24.52 84.76C24.152 84.456 23.848 84.088 23.608 83.656C23.384 83.224 23.272 82.696 23.272 82.072V82.024C23.272 81.368 23.392 80.792 23.632 80.296C23.888 79.784 24.224 79.352 24.64 79C25.072 78.648 25.568 78.384 26.128 78.208C26.704 78.032 27.32 77.944 27.976 77.944C28.792 77.944 29.616 78.08 30.448 78.352C31.296 78.608 32.072 78.968 32.776 79.432L31.384 81.952C30.744 81.584 30.12 81.296 29.512 81.088C28.904 80.864 28.368 80.752 27.904 80.752C27.456 80.752 27.12 80.84 26.896 81.016C26.672 81.176 26.56 81.384 26.56 81.64V81.688C26.56 81.864 26.632 82.024 26.776 82.168C26.92 82.296 27.112 82.424 27.352 82.552C27.592 82.664 27.864 82.776 28.168 82.888C28.488 83 28.824 83.112 29.176 83.224C29.624 83.368 30.08 83.544 30.544 83.752C31.008 83.944 31.424 84.184 31.792 84.472C32.16 84.76 32.464 85.112 32.704 85.528C32.944 85.944 33.064 86.448 33.064 87.04V87.088ZM47.3669 91H43.7189V89.176C43.5109 89.448 43.2789 89.712 43.0229 89.968C42.7829 90.208 42.5109 90.424 42.2069 90.616C41.9029 90.808 41.5669 90.96 41.1989 91.072C40.8309 91.184 40.4149 91.24 39.9509 91.24C38.5589 91.24 37.4789 90.816 36.7109 89.968C35.9589 89.12 35.5829 87.952 35.5829 86.464V78.136H39.2309V85.312C39.2309 86.176 39.4229 86.832 39.8069 87.28C40.1909 87.712 40.7349 87.928 41.4389 87.928C42.1429 87.928 42.6949 87.712 43.0949 87.28C43.5109 86.832 43.7189 86.176 43.7189 85.312V78.136H47.3669V91ZM64.144 84.592C64.144 85.664 63.976 86.616 63.64 87.448C63.32 88.264 62.888 88.96 62.344 89.536C61.816 90.096 61.2 90.52 60.496 90.808C59.792 91.096 59.056 91.24 58.288 91.24C57.312 91.24 56.504 91.048 55.864 90.664C55.24 90.28 54.712 89.832 54.28 89.32V94.84H50.632V78.136H54.28V79.984C54.728 79.376 55.264 78.88 55.888 78.496C56.528 78.096 57.328 77.896 58.288 77.896C59.04 77.896 59.768 78.04 60.472 78.328C61.176 78.616 61.8 79.048 62.344 79.624C62.888 80.184 63.32 80.88 63.64 81.712C63.976 82.528 64.144 83.472 64.144 84.544V84.592ZM60.496 84.592V84.544C60.496 84.016 60.408 83.536 60.232 83.104C60.072 82.656 59.848 82.28 59.56 81.976C59.272 81.656 58.936 81.416 58.552 81.256C58.184 81.08 57.784 80.992 57.352 80.992C56.92 80.992 56.512 81.08 56.128 81.256C55.76 81.416 55.432 81.656 55.144 81.976C54.872 82.28 54.648 82.656 54.472 83.104C54.312 83.536 54.232 84.016 54.232 84.544V84.592C54.232 85.12 54.312 85.608 54.472 86.056C54.648 86.488 54.872 86.864 55.144 87.184C55.432 87.488 55.76 87.728 56.128 87.904C56.512 88.064 56.92 88.144 57.352 88.144C57.784 88.144 58.184 88.064 58.552 87.904C58.936 87.728 59.272 87.488 59.56 87.184C59.848 86.864 60.072 86.488 60.232 86.056C60.408 85.624 60.496 85.136 60.496 84.592ZM80.3393 84.592C80.3393 85.664 80.1713 86.616 79.8353 87.448C79.5153 88.264 79.0833 88.96 78.5393 89.536C78.0113 90.096 77.3953 90.52 76.6913 90.808C75.9873 91.096 75.2513 91.24 74.4833 91.24C73.5073 91.24 72.6993 91.048 72.0593 90.664C71.4353 90.28 70.9073 89.832 70.4753 89.32V94.84H66.8273V78.136H70.4753V79.984C70.9233 79.376 71.4593 78.88 72.0833 78.496C72.7233 78.096 73.5233 77.896 74.4833 77.896C75.2353 77.896 75.9633 78.04 76.6673 78.328C77.3713 78.616 77.9953 79.048 78.5393 79.624C79.0833 80.184 79.5153 80.88 79.8353 81.712C80.1713 82.528 80.3393 83.472 80.3393 84.544V84.592ZM76.6913 84.592V84.544C76.6913 84.016 76.6033 83.536 76.4273 83.104C76.2673 82.656 76.0433 82.28 75.7553 81.976C75.4673 81.656 75.1313 81.416 74.7473 81.256C74.3793 81.08 73.9793 80.992 73.5473 80.992C73.1153 80.992 72.7073 81.08 72.3233 81.256C71.9553 81.416 71.6273 81.656 71.3393 81.976C71.0673 82.28 70.8433 82.656 70.6673 83.104C70.5073 83.536 70.4273 84.016 70.4273 84.544V84.592C70.4273 85.12 70.5073 85.608 70.6673 86.056C70.8433 86.488 71.0673 86.864 71.3393 87.184C71.6273 87.488 71.9553 87.728 72.3233 87.904C72.7073 88.064 73.1153 88.144 73.5473 88.144C73.9793 88.144 74.3793 88.064 74.7473 87.904C75.1313 87.728 75.4673 87.488 75.7553 87.184C76.0433 86.864 76.2673 86.488 76.4273 86.056C76.6033 85.624 76.6913 85.136 76.6913 84.592ZM86.8386 91H83.1906V73.48H86.8386V91ZM94.1768 76.72H90.3368V73.48H94.1768V76.72ZM94.0808 91H90.4328V78.136H94.0808V91ZM109.507 84.928C109.507 85.104 109.499 85.256 109.483 85.384C109.483 85.512 109.475 85.664 109.459 85.84H100.507C100.683 86.672 101.043 87.304 101.587 87.736C102.147 88.152 102.835 88.36 103.651 88.36C104.259 88.36 104.803 88.256 105.283 88.048C105.763 87.84 106.259 87.504 106.771 87.04L108.859 88.888C108.251 89.64 107.515 90.232 106.651 90.664C105.787 91.08 104.771 91.288 103.603 91.288C102.643 91.288 101.747 91.128 100.915 90.808C100.099 90.488 99.387 90.032 98.779 89.44C98.187 88.848 97.723 88.152 97.387 87.352C97.051 86.536 96.883 85.632 96.883 84.64V84.592C96.883 83.68 97.035 82.816 97.339 82C97.659 81.184 98.099 80.472 98.659 79.864C99.219 79.256 99.883 78.776 100.651 78.424C101.435 78.072 102.299 77.896 103.243 77.896C104.315 77.896 105.243 78.088 106.027 78.472C106.811 78.856 107.459 79.376 107.971 80.032C108.499 80.672 108.883 81.416 109.123 82.264C109.379 83.096 109.507 83.968 109.507 84.88V84.928ZM105.955 83.56C105.843 82.744 105.555 82.088 105.091 81.592C104.627 81.08 104.011 80.824 103.243 80.824C102.475 80.824 101.851 81.072 101.371 81.568C100.907 82.064 100.603 82.728 100.459 83.56H105.955ZM119.978 81.712H119.786C118.57 81.712 117.61 82.08 116.906 82.816C116.218 83.552 115.874 84.696 115.874 86.248V91H112.226V78.136H115.874V80.728C116.242 79.848 116.746 79.144 117.386 78.616C118.026 78.088 118.89 77.848 119.978 77.896V81.712ZM131.689 87.088C131.689 87.808 131.561 88.432 131.305 88.96C131.065 89.472 130.721 89.896 130.273 90.232C129.825 90.568 129.297 90.824 128.689 91C128.097 91.16 127.457 91.24 126.769 91.24C125.857 91.24 124.921 91.088 123.961 90.784C123.017 90.464 122.113 89.968 121.249 89.296L122.809 86.896C123.513 87.408 124.209 87.792 124.897 88.048C125.601 88.304 126.257 88.432 126.865 88.432C127.393 88.432 127.777 88.344 128.017 88.168C128.273 87.992 128.401 87.76 128.401 87.472V87.424C128.401 87.232 128.329 87.064 128.185 86.92C128.041 86.776 127.841 86.656 127.585 86.56C127.345 86.448 127.065 86.344 126.745 86.248C126.425 86.152 126.089 86.048 125.737 85.936C125.289 85.808 124.833 85.656 124.369 85.48C123.921 85.288 123.513 85.048 123.145 84.76C122.777 84.456 122.473 84.088 122.233 83.656C122.009 83.224 121.897 82.696 121.897 82.072V82.024C121.897 81.368 122.017 80.792 122.257 80.296C122.513 79.784 122.849 79.352 123.265 79C123.697 78.648 124.193 78.384 124.753 78.208C125.329 78.032 125.945 77.944 126.601 77.944C127.417 77.944 128.241 78.08 129.073 78.352C129.921 78.608 130.697 78.968 131.401 79.432L130.009 81.952C129.369 81.584 128.745 81.296 128.137 81.088C127.529 80.864 126.993 80.752 126.529 80.752C126.081 80.752 125.745 80.84 125.521 81.016C125.297 81.176 125.185 81.384 125.185 81.64V81.688C125.185 81.864 125.257 82.024 125.401 82.168C125.545 82.296 125.737 82.424 125.977 82.552C126.217 82.664 126.489 82.776 126.793 82.888C127.113 83 127.449 83.112 127.801 83.224C128.249 83.368 128.705 83.544 129.169 83.752C129.633 83.944 130.049 84.184 130.417 84.472C130.785 84.76 131.089 85.112 131.329 85.528C131.569 85.944 131.689 86.448 131.689 87.04V87.088ZM138.048 91H134.16V87.16H138.048V91Z" fill="#AD3088"/>
<path opacity="0.75" d="M447 40V104H521V40H447ZM518.681 101.646H449.319V83.4375H518.681V101.646ZM518.681 81.0831H449.319V62.889H518.681V81.0831ZM449.319 60.5625V42.3544H518.681V60.5625H449.319ZM460.537 48.0662C458.676 48.0662 457.163 49.5847 457.163 51.4515C457.163 53.3182 458.676 54.8367 460.537 54.8367C462.397 54.8367 463.91 53.3182 463.91 51.4515C463.91 49.5847 462.397 48.0662 460.537 48.0662ZM460.537 52.4963C459.953 52.4963 459.481 52.0226 459.481 51.4375C459.481 50.8524 459.953 50.3788 460.537 50.3788C461.12 50.3788 461.592 50.8524 461.592 51.4375C461.592 52.0087 461.12 52.4824 460.55 52.4824L460.537 52.4963ZM469.311 48.0662C467.451 48.0662 465.951 49.5986 465.951 51.4654C465.951 53.3322 467.478 54.8367 469.339 54.8367C471.199 54.8367 472.699 53.3182 472.699 51.4515C472.699 49.5847 471.185 48.0662 469.325 48.0662C469.325 48.0662 469.311 48.0662 469.297 48.0662H469.311ZM469.311 52.4963C468.728 52.4963 468.256 52.0366 468.256 51.4515C468.256 50.8663 468.714 50.3927 469.297 50.3927C469.88 50.3927 470.352 50.8524 470.352 51.4375C470.352 51.4375 470.352 51.4375 470.352 51.4515C470.352 52.0226 469.88 52.4963 469.311 52.4963ZM478.086 48.0662C476.225 48.0662 474.712 49.5707 474.712 51.4375C474.712 53.3043 476.211 54.8228 478.072 54.8228C479.932 54.8228 481.445 53.3182 481.445 51.4515C481.445 49.5847 479.932 48.0662 478.072 48.0662H478.086ZM478.086 52.4963C477.502 52.4963 477.03 52.0366 477.03 51.4515C477.03 50.8663 477.489 50.3927 478.072 50.3927C478.655 50.3927 479.127 50.8524 479.127 51.4375C479.127 51.4375 479.127 51.4375 479.127 51.4515C479.127 52.0366 478.655 52.4963 478.072 52.4963H478.086ZM489.29 50.2812H510.934V52.6077H489.29V50.2812ZM460.523 75.3714C462.383 75.3714 463.883 73.8529 463.883 71.9861C463.883 70.1193 462.369 68.6147 460.509 68.6147C458.648 68.6147 457.149 70.1332 457.149 71.9861C457.149 73.8529 458.662 75.3574 460.523 75.3574V75.3714ZM460.523 70.9552C461.092 70.9552 461.564 71.4288 461.564 72C461.564 72.5712 461.092 73.0448 460.523 73.0448C459.953 73.0448 459.481 72.5712 459.481 72C459.481 71.4288 459.953 70.9552 460.523 70.9552ZM469.297 75.3714C471.158 75.3714 472.657 73.8529 472.657 71.9861C472.657 70.1193 471.144 68.6147 469.283 68.6147C467.423 68.6147 465.923 70.1332 465.923 71.9861C465.923 73.8529 467.423 75.3574 469.283 75.3574L469.297 75.3714ZM469.297 70.9552C469.866 70.9552 470.338 71.4288 470.338 72C470.338 72.5712 469.866 73.0448 469.297 73.0448C468.728 73.0448 468.256 72.5712 468.256 72C468.256 71.4288 468.714 70.9552 469.283 70.9552H469.297ZM478.072 75.3714C479.932 75.3714 481.432 73.8389 481.418 71.9861C481.418 70.1193 479.89 68.6147 478.044 68.6286C476.197 68.6286 474.698 70.1471 474.698 72C474.698 73.8668 476.197 75.3714 478.058 75.3714H478.072ZM478.072 70.9552C478.641 70.9552 479.113 71.4288 479.113 72C479.113 72.5712 478.641 73.0448 478.072 73.0448C477.502 73.0448 477.03 72.5712 477.03 72C477.03 71.4288 477.489 70.9552 478.058 70.9552H478.072ZM510.92 73.1563H489.276V70.8437H510.92V73.1563ZM460.537 95.9338C462.397 95.9338 463.91 94.4293 463.91 92.5625C463.91 90.6957 462.411 89.1772 460.55 89.1772C458.69 89.1772 457.177 90.6818 457.177 92.5485C457.177 94.4153 458.676 95.9338 460.537 95.9338ZM460.537 91.5037C461.12 91.5037 461.592 91.9634 461.592 92.5485C461.592 93.1337 461.134 93.6073 460.55 93.6073C459.967 93.6073 459.495 93.1476 459.495 92.5625C459.495 92.5625 459.495 92.5625 459.495 92.5485C459.495 91.9774 459.967 91.5037 460.537 91.5037ZM469.311 95.9338C471.171 95.9338 472.685 94.4293 472.685 92.5625C472.685 90.6957 471.185 89.1772 469.325 89.1772C467.465 89.1772 465.951 90.6818 465.951 92.5485C465.951 94.4153 467.451 95.9199 469.311 95.9338ZM469.311 91.5037C469.894 91.5037 470.366 91.9634 470.366 92.5485C470.366 93.1337 469.908 93.6073 469.325 93.6073C468.742 93.6073 468.27 93.1476 468.27 92.5625C468.27 92.5625 468.27 92.5625 468.27 92.5485C468.27 91.9774 468.728 91.5037 469.297 91.5037H469.311ZM478.086 95.9338C479.946 95.9338 481.459 94.4153 481.459 92.5485C481.459 90.6818 479.946 89.1633 478.086 89.1633C476.225 89.1633 474.712 90.6818 474.712 92.5485C474.712 94.4153 476.211 95.9338 478.072 95.9338H478.086ZM478.086 91.5037C478.669 91.5037 479.141 91.9634 479.141 92.5485C479.141 93.1337 478.683 93.6073 478.099 93.6073C477.516 93.6073 477.044 93.1476 477.044 92.5625C477.044 92.5625 477.044 92.5625 477.044 92.5485C477.044 91.9774 477.502 91.5037 478.072 91.5037H478.086ZM510.934 93.7188H489.29V91.3922H510.934V93.7188Z" fill="white"/>
</svg>
