<svg width="194" height="194" viewBox="0 0 194 194" fill="none" xmlns="http://www.w3.org/2000/svg">
<circle cx="97" cy="97" r="97" fill="#8CD3DA"/>
<path opacity="0.75" d="M41.4589 75.2593L55.8947 54.7147C56.1991 54.2872 56.7065 54.0106 57.2393 54.0106C57.7721 54.0106 58.2795 54.2621 58.5839 54.7147L73.0197 75.2593C73.3749 75.7622 73.4256 76.416 73.1212 76.9441C72.8421 77.4973 72.2839 77.8242 71.6497 77.8242H65.916V92.8114C65.916 93.7167 65.1802 94.4459 64.2669 94.4459C63.3536 94.4459 62.6178 93.7167 62.6178 92.8114V76.1645C62.6178 75.2593 63.3536 74.53 64.2669 74.53H68.5038L57.2139 58.4867L45.9241 74.53H50.1609C51.0743 74.53 51.81 75.2593 51.81 76.1645V92.8114C51.81 93.7167 51.0743 94.4459 50.1609 94.4459C49.2476 94.4459 48.5119 93.7167 48.5119 92.8114V77.8242H42.7782C42.1693 77.8242 41.5857 77.4973 41.3067 76.9441C41.0276 76.3909 41.053 75.7622 41.4082 75.2593H41.4589ZM79.9204 61.8814H86.7704V71.9902C86.7704 72.8955 87.5062 73.6248 88.4195 73.6248C89.3329 73.6248 90.0686 72.8955 90.0686 71.9902V60.2469C90.0686 59.3416 89.3329 58.6124 88.4195 58.6124H83.0917L96.5381 39.5012L109.984 58.6124H104.657C103.743 58.6124 103.008 59.3416 103.008 60.2469V71.9902C103.008 72.8955 103.743 73.6248 104.657 73.6248C105.57 73.6248 106.306 72.8955 106.306 71.9902V61.8814H113.156C113.765 61.8814 114.348 61.5545 114.627 61.0013C114.906 60.4481 114.881 59.8194 114.526 59.3165L97.908 35.7041C97.6036 35.2766 97.0962 35 96.5634 35C96.0306 35 95.5232 35.2515 95.2188 35.7041L78.6265 59.3165C78.2714 59.8194 78.2206 60.4732 78.5251 61.0013C78.8041 61.5545 79.3623 61.8814 79.9965 61.8814H79.9204ZM57.2393 101.21C64.0893 101.21 69.6708 106.742 69.6708 113.532C69.6708 120.321 64.0893 125.854 57.2393 125.854C50.3893 125.854 44.8078 120.321 44.8078 113.532C44.8078 106.742 50.3893 101.21 57.2393 101.21ZM57.2393 104.479C52.2159 104.479 48.1059 108.528 48.1059 113.532C48.1059 118.536 52.1906 122.585 57.2393 122.585C62.288 122.585 66.3726 118.536 66.3726 113.532C66.3726 108.553 62.288 104.479 57.2393 104.479ZM159 149.365C159 150.271 158.264 151 157.351 151H114.221C113.308 151 112.572 150.271 112.572 149.365C112.572 147.077 112.902 144.839 113.562 142.677H79.4384C80.098 144.839 80.4278 147.077 80.4278 149.365C80.4278 150.271 79.6921 151 78.7788 151H35.6491C34.7357 151 34 150.271 34 149.365C34 136.667 44.4272 126.357 57.2139 126.357C62.0089 126.357 66.6771 127.84 70.5588 130.556C74.7449 120.447 84.7916 113.281 96.4873 113.281C108.183 113.281 118.23 120.422 122.416 130.556C126.298 127.84 130.966 126.357 135.761 126.357C148.573 126.357 158.975 136.692 158.975 149.365H159ZM71.8526 139.382H121.147C120.285 126.633 109.578 116.55 96.5127 116.55C83.4469 116.55 72.7152 126.658 71.878 139.382H71.8526ZM75.9627 142.651H70.1528C69.2395 142.651 68.5038 141.922 68.5038 141.017C68.5038 138.527 68.8336 136.088 69.4678 133.775C65.9921 131.084 61.6791 129.6 57.2393 129.6C46.812 129.6 38.2368 137.572 37.3996 147.706H77.0789C76.9267 145.971 76.5715 144.286 75.9627 142.651ZM155.626 147.706C154.789 137.597 146.213 129.6 135.786 129.6C131.346 129.6 127.033 131.084 123.558 133.775C124.192 136.088 124.522 138.502 124.522 141.017C124.522 141.922 123.786 142.651 122.873 142.651H117.063C116.479 144.286 116.099 145.971 115.946 147.706H155.626ZM135.786 101.185C142.636 101.185 148.218 106.717 148.218 113.507C148.218 120.296 142.636 125.829 135.786 125.829C128.936 125.829 123.355 120.296 123.355 113.507C123.355 106.717 128.936 101.185 135.786 101.185ZM135.786 104.454C130.763 104.454 126.653 108.503 126.653 113.507C126.653 118.511 130.737 122.56 135.786 122.56C140.835 122.56 144.919 118.511 144.919 113.507C144.919 108.528 140.835 104.454 135.786 104.454ZM96.5127 82.5266C104.682 82.5266 111.329 89.1149 111.329 97.212C111.329 105.309 104.682 111.897 96.5127 111.897C88.3434 111.897 81.6964 105.309 81.6964 97.212C81.6964 89.1149 88.3434 82.5266 96.5127 82.5266ZM96.5127 85.7956C90.1701 85.7956 84.9945 90.9254 84.9945 97.212C84.9945 103.499 90.1701 108.628 96.5127 108.628C102.855 108.628 108.031 103.499 108.031 97.212C108.031 90.9254 102.855 85.7956 96.5127 85.7956ZM121.35 77.799H127.084V92.7863C127.084 93.6915 127.82 94.4208 128.733 94.4208C129.646 94.4208 130.382 93.6915 130.382 92.7863V76.1394C130.382 75.2341 129.646 74.5049 128.733 74.5049H124.496L135.786 58.4615L147.076 74.5049H142.839C141.926 74.5049 141.19 75.2341 141.19 76.1394V92.7863C141.19 93.6915 141.926 94.4208 142.839 94.4208C143.752 94.4208 144.488 93.6915 144.488 92.7863V77.799H150.222C150.831 77.799 151.414 77.4721 151.693 76.9189C151.972 76.3657 151.947 75.737 151.592 75.2341L137.156 54.6896C136.852 54.2621 136.344 53.9855 135.811 53.9855C135.279 53.9855 134.771 54.2369 134.467 54.6896L120.031 75.2341C119.676 75.737 119.625 76.3909 119.93 76.9189C120.209 77.4721 120.767 77.799 121.401 77.799H121.35Z" fill="white"/>
</svg>
