<svg xmlns="http://www.w3.org/2000/svg" width="1920" height="662" fill="none" viewBox="0 0 1920 662">
  <g filter="url(#a)">
    <path fill="#fff" d="M1512.51 43.624c-6.91-11.97-18.61-18.5-30.68-19.447a31.535 31.535 0 0 0-6.68 0c-12.07.994-23.76 7.524-30.63 19.447l-302.2 523.547c-8.09 13.958-6.44 29.809 1.47 41.559 1.28 1.845 2.7 3.643 4.26 5.252 6.96 7.286 16.76 12.018 28.27 12.018l604.36-.505c11.51 0 21.31-4.731 28.27-12.018 1.56-1.609 2.98-3.407 4.26-5.252 7.9-11.734 9.56-27.585 1.47-41.559L1512.51 43.624Z"/>
  </g>
  <path fill="#151515" d="M0 93h1920v486H0z" opacity=".04"/>
  <path fill="#AD3088" d="m1665.3 307.754-183.28 105.761-3.31 1.942-3.37-1.942-183.23-105.761 152.57-264.118c6.87-11.934 18.57-18.469 30.65-19.463 2.22-.237 4.45-.237 6.68 0 12.08.947 23.78 7.482 30.7 19.463l152.58 264.102.01.016Z"/>
  <path fill="#B0BC25" d="M1475.34 421.234V626h-299c-11.51 0-21.32-4.735-28.28-12.028-1.56-1.61-2.98-3.41-4.26-5.257-7.92-11.744-9.57-27.608-1.47-41.594l146.47-253.589 183.23 105.761 3.31 1.941Z"/>
  <path fill="#E9B615" d="M1813.62 608.715c-1.28 1.847-2.7 3.647-4.27 5.257-6.96 7.293-16.77 12.028-28.28 12.028h-299.05V421.234l3.37-1.941 183.23-105.761 146.47 253.589c8.1 13.97 6.44 29.834-1.47 41.594Z"/>
  <path fill="url(#b)" d="M1531.36 579.307c74.86 0 135.55-60.665 135.55-135.5 0-74.835-60.69-135.5-135.55-135.5-74.87 0-135.56 60.665-135.56 135.5 0 74.835 60.69 135.5 135.56 135.5Z" style="mix-blend-mode:multiply"/>
  <path fill="url(#c)" d="M1482.7 562.18c74.87 0 135.56-60.665 135.56-135.5 0-74.835-60.69-135.5-135.56-135.5-74.86 0-135.55 60.665-135.55 135.5 0 74.835 60.69 135.5 135.55 135.5Z" style="mix-blend-mode:multiply"/>
  <path fill="url(#d)" d="M1440.22 583.412c74.87 0 135.56-60.666 135.56-135.501 0-74.834-60.69-135.5-135.56-135.5-74.86 0-135.55 60.666-135.55 135.5 0 74.835 60.69 135.501 135.55 135.501Z" style="mix-blend-mode:multiply"/>
  <path fill="url(#e)" d="M1555.64 482.907a103.834 103.834 0 0 1-13.56 11.428c-16.74 11.792-37.14 18.737-59.17 18.769-21.86.031-43.41-6.946-61.04-19.842a103.994 103.994 0 0 1-12.08-10.355 103.553 103.553 0 0 1-12.05-14.459 102.894 102.894 0 0 1-12.54-24.799 103.174 103.174 0 0 1-5.62-33.638c0-9.203 1.2-18.106 3.46-26.598a102.775 102.775 0 0 1 21.16-40.269c1.79-2.083 3.65-4.104 5.58-6.045a102.36 102.36 0 0 1 12.08-10.355c17.64-12.897 39.19-19.89 61.03-19.842 22.03.031 42.43 6.977 59.17 18.768 4.85 3.41 9.4 7.246 13.57 11.429a97.087 97.087 0 0 1 5.57 6.045 102.645 102.645 0 0 1 21.16 40.269c2.26 8.476 3.46 17.395 3.46 26.598 0 11.775-1.97 23.093-5.62 33.638a102.274 102.274 0 0 1-12.55 24.799 104.251 104.251 0 0 1-12.05 14.459h.04Z"/>
  <g style="mix-blend-mode:overlay">
    <path fill="#fff" d="M1478.51 149.073c-9.49 0-17.13 7.825-17.13 17.559 0 9.735 7.64 17.559 17.13 17.559 9.49 0 17.12-7.824 17.12-17.559 0-9.734-7.63-17.559-17.12-17.559Zm0 39.339c-11.76 0-21.26-9.726-21.26-21.788s9.5-21.788 21.26-21.788c11.76 0 21.25 9.726 21.25 21.788s-9.49 21.788-21.25 21.788Z"/>
    <path fill="#fff" d="M1445.48 221.836h66.03c0-1.268-.2-2.536-.4-3.812-1.04-5.497-3.31-10.785-6.81-15.231-3.71-4.655-8.46-8.25-13.82-10.369-7.23 4.021-16.3 4.021-23.53 0-5.36 2.119-10.31 5.714-13.82 10.369-3.51 4.437-5.78 9.726-6.8 15.231-.41 1.268-.62 2.536-.83 3.812m70.16 4.229h-74.29v-2.119c0-2.118.21-4.446.62-6.764a36.752 36.752 0 0 1 7.63-17.134c4.34-5.497 10.11-9.726 16.72-12.053l.82-.426.83.426c6.4 4.02 14.45 4.02 20.84 0l.83-.426.83.426c6.6 2.327 12.37 6.556 16.71 12.053 3.92 4.863 6.61 11.003 7.63 17.134.41 2.327.62 4.446.62 6.764v2.119h.21Zm20-70.652c-7.63 0-13.83 6.348-13.83 14.172 0 7.824 6.19 14.172 13.83 14.172s13.83-6.348 13.83-14.172c0-7.824-6.19-14.172-13.83-14.172Zm0 32.573c-9.9 0-17.95-8.25-17.95-18.401 0-10.152 8.05-18.401 17.95-18.401 9.91 0 17.95 8.249 17.95 18.401 0 10.151-8.04 18.401-17.95 18.401Z"/>
    <path fill="#fff" d="M1520.19 215.488h42.51c-.83-10.577-7.43-19.886-17.34-23.689-5.98 3.386-13.41 3.386-19.6 0-4.74 1.901-9.07 5.288-12.18 9.517 3.31 4.229 5.37 9.092 6.61 14.172Zm46.64 4.23h-50.14l-.21-1.694c-1.04-5.497-3.31-10.785-6.81-15.231l-1.03-1.268.82-1.268c3.71-5.923 9.5-10.577 15.89-12.696l.83-.425.82.425c5.16 3.17 11.77 3.17 16.93 0l.83-.425.82.425c12.59 4.446 20.85 16.5 21.05 30.246l.21 1.902-.01.009Zm-145.49-64.305c-7.63 0-13.83 6.348-13.83 14.172 0 7.824 6.19 14.172 13.83 14.172 7.65 0 13.83-6.348 13.83-14.172 0-7.824-6.19-14.172-13.83-14.172Zm0 32.573c-9.9 0-17.95-8.25-17.95-18.401 0-10.152 8.05-18.401 17.95-18.401 9.91 0 17.96 8.249 17.96 18.401 0 10.151-8.05 18.401-17.96 18.401Z"/>
    <path fill="#fff" d="M1394.31 215.488h42.51c1.24-5.08 3.3-9.943 6.4-14.172-3.1-4.229-7.23-7.615-12.18-9.517-5.98 3.386-13.42 3.386-19.61 0-9.49 3.803-16.3 13.112-17.12 23.689Zm46.02 4.23h-50.14v-2.119c0-13.538 8.46-25.592 21.04-30.246l.83-.426.83.426c5.15 3.169 11.76 3.169 16.92 0l.83-.426.82.426c6.61 2.327 12.18 6.765 15.89 12.687l.83 1.268-1.04 1.268c-3.51 4.446-5.78 9.726-6.8 15.231v1.902l-.01.009Z"/>
  </g>
  <g style="mix-blend-mode:overlay">
    <mask id="f" width="163" height="123" x="1210" y="430" maskUnits="userSpaceOnUse" style="mask-type:luminance">
      <path fill="#fff" d="M1373 430h-163v122.119h163V430Z"/>
    </mask>
    <g mask="url(#f)">
      <path fill="#fff" d="M1358.84 489.239a7.109 7.109 0 0 0-8.56-2.064l-3.58 1.618a7.898 7.898 0 0 0-3.94 3.884 7.65 7.65 0 0 0-.37 5.468l.98 3.219c.33 1.086 0 2.258-.83 3.058l-3.43 3.202c-1.84 1.735-2.92 4.162-2.92 6.673v3.075c0 .843-.29 1.651-.83 2.309l-3.31 4.128a9.69 9.69 0 0 0-2.06 4.954c-.14 1.306-1.05 2.41-2.3 2.84l-6.12 2.098c-1.33.463-2.81.033-3.66-1.07l-4.37-5.578a9.388 9.388 0 0 1-1.98-5.729v-12.976c0-1.499-.69-2.906-1.86-3.867a5.046 5.046 0 0 0-4.23-1.003l-8.35 1.719c-1.59.329-3.26-.295-4.22-1.601l-5.21-7.035a4.937 4.937 0 0 1-.99-3.008v-3.488c0-2.031 1.2-3.867 3.11-4.685l12.91-5.645c3.36-1.466 7.21-1.154 10.26.86 2.04 1.339 4.49 1.963 6.93 1.803l2.76-.202a4.55 4.55 0 0 1 2.87.775l.74.514a5.667 5.667 0 0 0 4.33.859 5.589 5.589 0 0 0 3.6-2.528c1.56-2.561.71-5.914-1.9-7.465l-17.4-10.338a7.707 7.707 0 0 0-6.09-.758l-7.96 2.325h-.05a2.26 2.26 0 0 1-.93-1.651c-.05-.657.15-1.289.61-1.786l4.58-5.005a26.687 26.687 0 0 1 16.75-8.451l12.64-1.407a54.453 54.453 0 0 1 11.56 8.704 53.813 53.813 0 0 1 11.76 17.137c2.78 6.437 4.22 13.279 4.31 20.323l-3.3-4.196h.05v-.009Zm-90.34 42.979c-5.04-4.954-8.99-10.717-11.76-17.138a51.567 51.567 0 0 1-1.51-3.943l13.55 8.982c2.76 1.837 4.52 4.87 4.71 8.139l.48 8.703a60.263 60.263 0 0 1-5.49-4.718l.02-.017v-.008Zm-25.93-53.3c-2.04 2.266-6.79 4.23-10.55 3.581-2.3-.396-3.93-1.702-4.82-3.893-1.19-2.907-1.62-5.215-2.03-7.263-.45-2.376-.87-4.541-2.43-6.361 1.28-.295 2.86-.606 4.58-.842 5.31-.674 9.52-.169 12.15 1.466 3.58 2.249 4.65 5.004 4.92 6.917.32 2.326-.37 4.769-1.83 6.378l.02.017h-.01Zm118.27-7.069c-2.92-6.799-7.12-12.908-12.45-18.165-5.33-5.249-11.56-9.361-18.48-12.234a58.791 58.791 0 0 0-22.63-4.491c-2.52 0-5.05.168-7.54.48-.89.118-1.53.927-1.42 1.803.12.877.95 1.5 1.83 1.39 2.34-.294 4.74-.446 7.12-.446 7.41 0 14.59 1.424 21.35 4.246.17.068.34.152.51.211l-7.64.859c-7.24.809-13.93 4.179-18.82 9.513l-4.58 5.005a5.483 5.483 0 0 0-1.43 4.246 5.63 5.63 0 0 0 2.2 3.909c.85.624 1.97.826 2.98.531l7.96-2.325a4.333 4.333 0 0 1 3.45.43l17.4 10.338a2.213 2.213 0 0 1 .78 3.05c-.32.547-.86.91-1.48 1.044-.62.135-1.26 0-1.77-.345l-.75-.514a7.836 7.836 0 0 0-4.98-1.356l-2.76.202a7.997 7.997 0 0 1-4.87-1.256c-4-2.628-9.02-3.041-13.42-1.12l-12.92 5.645c-3.07 1.34-5.04 4.339-5.04 7.625v3.488c0 1.769.56 3.463 1.63 4.904l5.21 7.035c1.71 2.326 4.67 3.438 7.54 2.856l8.35-1.718c.54-.118 1.08.016 1.5.362.42.328.66.826.66 1.373v12.975c0 2.756.94 5.502 2.65 7.676l4.36 5.578c1.26 1.618 3.2 2.511 5.18 2.511.72 0 1.44-.118 2.15-.363l6.11-2.098c2.44-.842 4.21-3.008 4.47-5.535.13-1.205.6-2.343 1.38-3.303l3.31-4.129a6.93 6.93 0 0 0 1.53-4.313v-3.067c0-1.635.69-3.219 1.89-4.339l3.43-3.202c1.74-1.635 2.4-4.044 1.71-6.311l-.98-3.218c-.65-2.183.43-4.542 2.54-5.502l3.58-1.618c1.61-.725 3.51-.278 4.6 1.104l5.71 7.263a52.701 52.701 0 0 1-4.12 16.589c-2.76 6.421-6.73 12.184-11.77 17.138-5.04 4.954-10.9 8.83-17.44 11.56a55.386 55.386 0 0 1-21.35 4.246c-7.4 0-14.58-1.415-21.35-4.246a53.906 53.906 0 0 1-8.53-4.457l-.64-11.248c-.24-4.281-2.54-8.241-6.15-10.633l-16.77-11.097a53.107 53.107 0 0 1-1.41-12.234c0-9.529 2.76-20.49 7.02-27.922 3.82-6.656 8.72-11.922 14.59-15.688.75-.48.97-1.483.47-2.233a1.65 1.65 0 0 0-2.27-.463c-6.12 3.909-11.24 9.344-15.27 16.16-2.82-4.676-3.81-8.83-2.97-12.402.84-3.564 3.55-6.606 7.99-9.066 2.81-1.534 5.01-2.25 8.76-2.806 2.79-.413 5.66-.624 8.55-.624h7.95c-1.56 2.975-3.62 8.418-3.25 16.186 0 .379-.05 7.263-4.78 11.341-3.18 2.738-7.83 3.682-13.81 2.805a1.63 1.63 0 0 0-1.86 1.357c-.14.876.48 1.702 1.38 1.837 1.59.227 3.12.345 4.56.345 4.87 0 8.88-1.323 11.92-3.943 5.98-5.182 5.88-13.473 5.88-13.818v-.051c-.27-5.628.89-9.857 1.89-12.419 1.1-2.772 2.27-4.229 2.29-4.246.4-.48.49-1.138.22-1.702a1.643 1.643 0 0 0-1.48-.927h-10.88c-3.06 0-6.1.236-9.06.674-4.12.632-6.71 1.449-9.84 3.185-5.31 2.907-8.54 6.656-9.59 11.147-1.15 4.836.34 10.355 4.38 16.413-2.38 4.887-4.16 10.683-5.16 16.59-.97-1.205-2.3-2.579-4.05-4.028 1.43-2.182 2.03-4.954 1.66-7.692-.52-3.665-2.79-6.934-6.4-9.201-3.35-2.098-8.2-2.738-14.4-1.946-4.48.581-8 1.735-8.15 1.769-.62.202-1.06.742-1.11 1.39-.07.641.27 1.256.84 1.551 2.61 1.407 2.93 3.024 3.55 6.26.4 2.081.89 4.676 2.21 7.878 1.33 3.235 3.86 5.266 7.29 5.864.69.118 1.39.185 2.1.185 3.8 0 7.71-1.601 10.23-3.648 2.22 1.828 3.63 3.497 4.41 4.609.64.876 1 1.55 1.18 1.929a60.38 60.38 0 0 0-.25 5.334c0 7.709 1.53 15.191 4.57 22.243 2.92 6.799 7.12 12.908 12.45 18.165a57.915 57.915 0 0 0 18.48 12.234c7.17 2.974 14.78 4.491 22.63 4.491 7.84 0 15.45-1.5 22.63-4.491a58.182 58.182 0 0 0 18.48-12.234c5.34-5.249 9.53-11.357 12.45-18.165a56.196 56.196 0 0 0 4.57-22.243c0-7.71-1.53-15.192-4.57-22.244v-.05l-.01.008Z"/>
    </g>
  </g>
  <g style="mix-blend-mode:overlay">
    <mask id="g" width="158" height="122" x="1563" y="423" maskUnits="userSpaceOnUse" style="mask-type:luminance">
      <path fill="#fff" d="M1720.23 423H1563v121.221h157.23V423Z"/>
    </mask>
    <g mask="url(#g)">
      <path fill="#fff" d="M1677.66 481.155v3.219h-37.59v-3.219c0-.386.39-3.731 2.83-6.949 3.22-4.117 8.62-6.311 15.83-6.311 7.21 0 12.62 2.059 15.84 6.311 2.7 3.218 3.09 6.437 3.09 6.949Zm3.48-.26c0-.126-1.29-16.605-22.27-16.605s-22.27 16.479-22.27 16.605v5.151c0 1.025.77 1.798 1.8 1.798h41.06c1.03 0 1.79-.773 1.79-1.798l-.12-5.151h.01Zm-31.03-32.31c0-5.664 3.99-10.168 8.76-10.168 4.76 0 8.76 4.504 8.76 10.168s-4 10.168-8.76 10.168c-4.77 0-8.76-4.504-8.76-10.168Zm8.76 13.899c6.82 0 12.49-6.177 12.49-13.899 0-7.722-5.54-13.898-12.49-13.898s-12.49 6.176-12.49 13.898c0 7.722 5.67 13.899 12.49 13.899Zm-33.61-7.463c0-4.63 3.35-8.496 7.34-8.496 3.99 0 7.34 3.857 7.34 8.496s-3.35 8.495-7.34 8.495c-3.99 0-7.34-3.856-7.34-8.495Zm7.34 11.588c5.79 0 10.43-5.151 10.43-11.588 0-6.437-4.63-11.588-10.43-11.588s-10.43 5.151-10.43 11.588c0 6.437 4.63 11.588 10.43 11.588Zm46.34-11.588c0-4.63 3.35-8.496 7.34-8.496 3.99 0 7.34 3.857 7.34 8.496s-3.35 8.495-7.34 8.495c-3.99 0-7.34-3.856-7.34-8.495Zm7.34 11.588c5.79 0 10.43-5.151 10.43-11.588 0-6.437-4.63-11.588-10.43-11.588s-10.43 5.151-10.43 11.588c0 6.437 4.77 11.588 10.43 11.588Zm-39.91 72.594c-11.84 0-36.81-9.781-42.6-12.227v-24.974l52 10.042c1.67 0 3.09 1.42 3.09 3.093 0 1.672-1.42 3.092-3.09 3.092h-29.35c-1.16 0-2.06.899-2.06 2.059 0 1.16.9 2.059 2.06 2.059h29.22c2.57 0 4.77-1.286 6.05-3.345 2.19-.899 10.29-3.865 21.11-6.311 7.85-1.807 12.23.513 14.28 2.185-8.36 5.277-39.25 24.327-50.71 24.327Zm-64.1-5.538v-36.814h17.25v36.814h-17.25Zm119.58-19.436c-.26-.387-5.79-8.622-20.08-5.403-8.63 1.933-15.45 4.243-19.18 5.537-.39-3.344-3.22-6.05-6.7-6.301l-52.38-10.168v-2.958c0-1.16-.9-2.059-2.06-2.059h-21.11c-1.16 0-2.06.899-2.06 2.059v40.932c0 1.159.9 2.058 2.06 2.058h21.24c1.15 0 2.05-.899 2.05-2.058v-4.379c7.99 3.219 30.77 11.84 42.61 11.84 14.42 0 53.29-25.226 54.96-26.26 1.04-.647 1.29-1.932.65-2.831"/>
      <path fill="#fff" d="M1704.68 482.054h.26c0-.126-1.03-13.898-18.66-13.898-3.73 0-6.7.647-9.01 1.546.77.773 1.55 1.546 2.06 2.445 2.06-.647 4.38-1.034 6.95-1.034 6.05 0 10.55 1.807 13.26 5.278 2.06 2.706 2.32 5.403 2.44 5.789v2.706h-19.04v2.059c0 .386-.13.647-.27.899h20.73c.77 0 1.42-.647 1.42-1.546l.12-4.253-.26.009Zm-69.88 4.891v-2.059h-17.9v-2.706c0-.261.39-3.092 2.45-5.789 2.71-3.48 7.21-5.278 13.26-5.278 2.19 0 4.24.261 6.05.774.65-.774 1.29-1.673 2.19-2.446-2.19-.773-4.9-1.285-8.24-1.285-17.63 0-18.66 13.772-18.66 13.898v4.244c0 .773.64 1.546 1.41 1.546h19.7c-.13-.261-.26-.647-.26-.899Z"/>
    </g>
  </g>
  <path fill="#fff" d="M1427.71 246.144c0 1.057-.19 1.985-.57 2.782a5.567 5.567 0 0 1-1.59 2.002c-.66.537-1.44.945-2.34 1.222-.88.26-1.84.39-2.86.39h-3.04V258h-4v-18.2h7.43c1.09 0 2.06.156 2.91.468.87.295 1.6.719 2.19 1.274.6.555 1.06 1.222 1.38 2.002.32.763.49 1.612.49 2.548v.052Zm-4.06.078v-.052c0-.901-.29-1.586-.88-2.054-.57-.468-1.36-.702-2.37-.702h-3.09v5.564h3.17c1.01 0 1.79-.26 2.34-.78.56-.537.83-1.196.83-1.976ZM1449.73 258h-13.86v-18.2h13.73v3.562h-9.75v3.692h8.58v3.562h-8.58v3.822h9.88V258Zm27.3-9.1c0 1.3-.24 2.522-.73 3.666a9.542 9.542 0 0 1-2.03 2.99c-.85.849-1.87 1.525-3.07 2.028-1.17.485-2.47.728-3.87.728s-2.7-.243-3.87-.728c-1.18-.503-2.21-1.17-3.07-2.002a9.307 9.307 0 0 1-2-2.964 9.555 9.555 0 0 1-.71-3.666v-.052c0-1.3.25-2.513.73-3.64a9.397 9.397 0 0 1 2-2.99 9.308 9.308 0 0 1 3.07-2.028c1.2-.503 2.5-.754 3.9-.754 1.41 0 2.7.251 3.88.754 1.17.485 2.19 1.153 3.04 2.002.86.832 1.53 1.82 2 2.964.49 1.127.73 2.34.73 3.64v.052Zm-4.19.052v-.052c0-.78-.14-1.517-.41-2.21-.26-.693-.65-1.3-1.15-1.82a5.094 5.094 0 0 0-1.74-1.222 5.214 5.214 0 0 0-2.21-.468c-.81 0-1.56.147-2.24.442-.65.295-1.23.702-1.71 1.222-.47.52-.84 1.127-1.12 1.82a6.032 6.032 0 0 0-.39 2.184v.052c0 .78.13 1.517.39 2.21.28.693.66 1.3 1.14 1.82.51.52 1.09.936 1.75 1.248.67.295 1.42.442 2.23.442.8 0 1.54-.147 2.21-.442a4.92 4.92 0 0 0 1.72-1.222c.48-.52.86-1.118 1.12-1.794.27-.693.41-1.43.41-2.21Zm27.34-2.808c0 1.057-.19 1.985-.57 2.782a5.65 5.65 0 0 1-1.58 2.002c-.66.537-1.44.945-2.34 1.222-.89.26-1.84.39-2.86.39h-3.05V258h-4v-18.2h7.44c1.09 0 2.06.156 2.91.468.86.295 1.59.719 2.18 1.274a5.33 5.33 0 0 1 1.38 2.002c.33.763.49 1.612.49 2.548v.052Zm-4.05.078v-.052c0-.901-.3-1.586-.89-2.054-.57-.468-1.36-.702-2.36-.702h-3.1v5.564h3.18c1 0 1.78-.26 2.34-.78a2.66 2.66 0 0 0 .83-1.976Zm25.3 11.778h-13.08v-18.2h4v14.56h9.08V258Zm22.07 0h-13.86v-18.2h13.73v3.562h-9.75v3.692h8.58v3.562h-8.58v3.822h9.88V258Zm-302.32 324.401c0 1.058-.19 1.985-.58 2.782a5.641 5.641 0 0 1-1.58 2.002c-.66.538-1.44.945-2.34 1.222-.89.26-1.84.39-2.86.39h-3.04v5.46h-4.01v-18.2h7.44c1.09 0 2.06.156 2.91.468.87.295 1.59.72 2.18 1.274a5.33 5.33 0 0 1 1.38 2.002c.33.763.5 1.612.5 2.548v.052Zm-4.06.078v-.052c0-.901-.29-1.586-.88-2.054-.58-.468-1.36-.702-2.37-.702h-3.09v5.564h3.17c1 0 1.78-.26 2.34-.78a2.66 2.66 0 0 0 .83-1.976Zm25.3 11.778h-13.08v-18.2h4v14.56h9.08v3.64Zm25.95 0h-4.19l-1.66-4.082h-7.7l-1.66 4.082h-4.08l7.8-18.33h3.69l7.8 18.33Zm-7.28-7.618-2.42-5.902-2.42 5.902h4.84Zm31.46 7.618h-3.41l-8.81-11.57v11.57h-3.95v-18.2h3.69l8.53 11.206v-11.206h3.95v18.2Zm23.43 0h-13.86v-18.2h13.73v3.562h-9.75v3.692h8.58v3.562h-8.58v3.822h9.88v3.562Zm22.54-14.508h-5.54v14.508h-4.01v-14.508h-5.53v-3.692h15.08v3.692Zm52.29-175.461c-.44.464-.88.88-1.35 1.248-.46.368-.97.688-1.53.96-.55.256-1.15.448-1.8.576-.66.144-1.4.216-2.21.216-1.23 0-2.38-.224-3.43-.672a8.535 8.535 0 0 1-2.74-1.824 8.432 8.432 0 0 1-1.8-2.76 8.89 8.89 0 0 1-.65-3.384v-.048c0-1.2.22-2.32.65-3.36a8.432 8.432 0 0 1 1.8-2.76 8.15 8.15 0 0 1 2.76-1.872c1.07-.464 2.26-.696 3.55-.696.79 0 1.5.064 2.14.192.65.128 1.25.304 1.77.528.53.224 1.02.496 1.47.816.45.32.86.672 1.25 1.056l-2.36 2.712a8.577 8.577 0 0 0-2.01-1.392c-.67-.336-1.43-.504-2.28-.504-.71 0-1.36.136-1.97.408-.59.272-1.1.648-1.54 1.128-.43.48-.76 1.04-1 1.68a5.568 5.568 0 0 0-.36 2.016v.048c0 .72.12 1.4.36 2.04.24.64.56 1.2.98 1.68.43.48.94.864 1.54 1.152.6.272 1.27.408 1.99.408.96 0 1.77-.176 2.42-.528a9.205 9.205 0 0 0 1.99-1.44l2.36 2.376Zm21.75-5.688c0 1.2-.23 2.328-.68 3.384a8.644 8.644 0 0 1-1.87 2.76c-.78.784-1.73 1.408-2.83 1.872-1.09.448-2.28.672-3.58.672-1.29 0-2.48-.224-3.57-.672a9.293 9.293 0 0 1-2.83-1.848 8.634 8.634 0 0 1-1.85-2.736 8.89 8.89 0 0 1-.65-3.384v-.048c0-1.2.22-2.32.67-3.36a8.726 8.726 0 0 1 1.85-2.76c.8-.8 1.74-1.424 2.83-1.872 1.11-.464 2.31-.696 3.6-.696 1.3 0 2.49.232 3.58.696a8.544 8.544 0 0 1 2.81 1.848c.8.768 1.41 1.68 1.84 2.736.45 1.04.68 2.16.68 3.36v.048Zm-3.87.048v-.048c0-.72-.13-1.4-.38-2.04-.24-.64-.59-1.2-1.06-1.68-.45-.48-.98-.856-1.61-1.128a4.783 4.783 0 0 0-2.04-.432c-.75 0-1.44.136-2.06.408-.61.272-1.14.648-1.58 1.128-.44.48-.78 1.04-1.04 1.68a5.568 5.568 0 0 0-.36 2.016v.048c0 .72.12 1.4.36 2.04.26.64.61 1.2 1.06 1.68.46.48 1 .864 1.61 1.152.62.272 1.31.408 2.06.408.74 0 1.42-.136 2.04-.408a4.583 4.583 0 0 0 1.59-1.128c.44-.48.79-1.032 1.03-1.656.25-.64.38-1.32.38-2.04Zm23.35 8.352h-4.32l-3.6-5.376h-2.91V407h-3.69v-16.8h7.68c2 0 3.55.488 4.65 1.464 1.12.976 1.68 2.336 1.68 4.08v.048c0 1.36-.33 2.472-1.01 3.336-.65.848-1.52 1.472-2.59 1.872l4.11 6Zm-4.25-11.016v-.048c0-.8-.26-1.4-.77-1.8-.51-.4-1.22-.6-2.14-.6h-3.67v4.824h3.75c.91 0 1.6-.216 2.08-.648.5-.432.75-1.008.75-1.728Zm22.04.072c0 .976-.17 1.832-.52 2.568a5.22 5.22 0 0 1-1.47 1.848c-.61.496-1.33.872-2.16 1.128-.81.24-1.69.36-2.64.36h-2.81V407h-3.69v-16.8h6.86c1.01 0 1.91.144 2.69.432.8.272 1.47.664 2.02 1.176.56.512.98 1.128 1.27 1.848.3.704.45 1.488.45 2.352v.048Zm-3.74.072v-.048c0-.832-.27-1.464-.82-1.896-.52-.432-1.25-.648-2.18-.648h-2.86v5.136h2.93c.93 0 1.65-.24 2.16-.72a2.45 2.45 0 0 0 .77-1.824Zm25.27 2.472c0 1.2-.22 2.328-.67 3.384a8.81 8.81 0 0 1-1.87 2.76 8.843 8.843 0 0 1-2.83 1.872c-1.09.448-2.28.672-3.58.672-1.3 0-2.49-.224-3.58-.672a9.416 9.416 0 0 1-2.83-1.848 8.802 8.802 0 0 1-1.85-2.736 8.883 8.883 0 0 1-.64-3.384v-.048c0-1.2.22-2.32.67-3.36a8.563 8.563 0 0 1 1.85-2.76c.8-.8 1.74-1.424 2.83-1.872 1.1-.464 2.3-.696 3.6-.696 1.29 0 2.49.232 3.57.696 1.09.448 2.03 1.064 2.81 1.848a7.86 7.86 0 0 1 1.85 2.736c.45 1.04.67 2.16.67 3.36v.048Zm-3.86.048v-.048c0-.72-.13-1.4-.39-2.04-.24-.64-.59-1.2-1.05-1.68-.45-.48-.99-.856-1.61-1.128a4.783 4.783 0 0 0-2.04-.432c-.75 0-1.44.136-2.06.408a4.88 4.88 0 0 0-1.59 1.128c-.43.48-.77 1.04-1.03 1.68a5.568 5.568 0 0 0-.36 2.016v.048c0 .72.12 1.4.36 2.04.26.64.61 1.2 1.06 1.68.46.48 1 .864 1.6 1.152.63.272 1.32.408 2.07.408.73 0 1.41-.136 2.04-.408a4.543 4.543 0 0 0 1.58-1.128c.45-.48.79-1.032 1.03-1.656.26-.64.39-1.32.39-2.04Zm23.34 8.352h-4.32l-3.6-5.376h-2.9V407h-3.7v-16.8h7.68c2 0 3.55.488 4.66 1.464 1.12.976 1.68 2.336 1.68 4.08v.048c0 1.36-.34 2.472-1.01 3.336-.66.848-1.52 1.472-2.59 1.872l4.1 6Zm-4.25-11.016v-.048c0-.8-.25-1.4-.77-1.8-.51-.4-1.22-.6-2.13-.6h-3.67v4.824h3.74c.91 0 1.61-.216 2.09-.648.49-.432.74-1.008.74-1.728ZM1531.71 407h-3.86l-1.54-3.768h-7.1l-1.54 3.768h-3.77l7.2-16.92h3.41l7.2 16.92Zm-6.72-7.032-2.23-5.448-2.23 5.448h4.46Zm23.72-6.36h-5.12V407h-3.69v-13.392h-5.11V390.2h13.92v3.408ZM1566.02 407h-12.79v-16.8h12.67v3.288h-9v3.408h7.92v3.288h-7.92v3.528h9.12V407Zm-165.46 21.624c-.86.736-1.89 1.368-3.09 1.896-1.19.512-2.55.768-4.08.768-1.31 0-2.51-.216-3.6-.648a8.545 8.545 0 0 1-2.79-1.8 8.478 8.478 0 0 1-1.8-2.736c-.43-1.056-.64-2.208-.64-3.456v-.048c0-1.2.21-2.32.64-3.36a8.726 8.726 0 0 1 1.85-2.76c.79-.8 1.71-1.424 2.79-1.872 1.07-.464 2.24-.696 3.52-.696.76 0 1.44.056 2.04.168.63.096 1.2.24 1.73.432a7.83 7.83 0 0 1 1.49.72c.46.288.91.616 1.34.984l-2.32 2.808a9.38 9.38 0 0 0-.96-.72 6.144 6.144 0 0 0-2.12-.864c-.4-.08-.84-.12-1.32-.12-.67 0-1.3.144-1.89.432-.58.272-1.09.648-1.54 1.128a5.384 5.384 0 0 0-1.03 1.656 5.568 5.568 0 0 0-.36 2.016v.048c0 .768.12 1.48.36 2.136.26.64.61 1.2 1.06 1.68.46.48 1 .856 1.6 1.128.63.256 1.32.384 2.07.384 1.37 0 2.53-.336 3.48-1.008v-2.4h-3.72v-3.192h7.29v7.296Zm22.35-6.024c0 1.2-.22 2.328-.67 3.384a8.81 8.81 0 0 1-1.87 2.76 8.843 8.843 0 0 1-2.83 1.872c-1.09.448-2.28.672-3.58.672-1.3 0-2.49-.224-3.58-.672a9.416 9.416 0 0 1-2.83-1.848 8.802 8.802 0 0 1-1.85-2.736 8.883 8.883 0 0 1-.64-3.384v-.048c0-1.2.22-2.32.67-3.36a8.563 8.563 0 0 1 1.85-2.76c.8-.8 1.74-1.424 2.83-1.872 1.1-.464 2.3-.696 3.6-.696 1.29 0 2.49.232 3.57.696 1.09.448 2.03 1.064 2.81 1.848a7.86 7.86 0 0 1 1.85 2.736c.45 1.04.67 2.16.67 3.36v.048Zm-3.86.048v-.048c0-.72-.13-1.4-.39-2.04-.24-.64-.59-1.2-1.05-1.68-.45-.48-.99-.856-1.61-1.128a4.783 4.783 0 0 0-2.04-.432c-.75 0-1.44.136-2.06.408a4.88 4.88 0 0 0-1.59 1.128c-.43.48-.77 1.04-1.03 1.68a5.568 5.568 0 0 0-.36 2.016v.048c0 .72.12 1.4.36 2.04.26.64.61 1.2 1.06 1.68.46.48 1 .864 1.6 1.152.63.272 1.32.408 2.07.408.73 0 1.41-.136 2.04-.408a4.543 4.543 0 0 0 1.58-1.128c.45-.48.79-1.032 1.03-1.656.26-.64.39-1.32.39-2.04Zm24.23-8.448-6.79 16.92h-3.27l-6.79-16.92h4.08l4.39 11.832 4.39-11.832h3.99Zm17.06 16.8h-12.79v-16.8h12.67v3.288h-9v3.408h7.92v3.288h-7.92v3.528h9.12V431Zm19.49 0h-4.32l-3.6-5.376H1469V431h-3.69v-16.8h7.68c2 0 3.55.488 4.65 1.464 1.12.976 1.68 2.336 1.68 4.08v.048c0 1.36-.33 2.472-1 3.336-.66.848-1.52 1.472-2.6 1.872l4.11 6Zm-4.25-11.016v-.048c0-.8-.26-1.4-.77-1.8-.51-.4-1.22-.6-2.13-.6H1469v4.824h3.75c.91 0 1.61-.216 2.09-.648.49-.432.74-1.008.74-1.728ZM1499.26 431h-3.14l-8.14-10.68V431h-3.65v-16.8h3.41l7.87 10.344V414.2h3.65V431Zm22.08 0h-3.86l-1.54-3.768h-7.1L1507.3 431h-3.77l7.2-16.92h3.41l7.2 16.92Zm-6.72-7.032-2.23-5.448-2.23 5.448h4.46Zm25.92 7.032h-3.14l-8.14-10.68V431h-3.65v-16.8h3.41l7.87 10.344V414.2h3.65V431Zm20.48-2.712c-.44.464-.88.88-1.35 1.248-.46.368-.97.688-1.53.96-.55.256-1.15.448-1.8.576-.66.144-1.4.216-2.21.216-1.23 0-2.38-.224-3.43-.672a8.535 8.535 0 0 1-2.74-1.824 8.432 8.432 0 0 1-1.8-2.76 8.89 8.89 0 0 1-.65-3.384v-.048c0-1.2.22-2.32.65-3.36a8.432 8.432 0 0 1 1.8-2.76 8.15 8.15 0 0 1 2.76-1.872c1.07-.464 2.26-.696 3.55-.696.79 0 1.5.064 2.14.192.65.128 1.25.304 1.77.528.53.224 1.02.496 1.47.816.45.32.86.672 1.25 1.056l-2.36 2.712a8.577 8.577 0 0 0-2.01-1.392c-.67-.336-1.43-.504-2.28-.504-.71 0-1.36.136-1.97.408-.59.272-1.1.648-1.54 1.128-.43.48-.76 1.04-1 1.68a5.568 5.568 0 0 0-.36 2.016v.048c0 .72.12 1.4.36 2.04.24.64.56 1.2.98 1.68.43.48.94.864 1.54 1.152.6.272 1.27.408 1.99.408.96 0 1.77-.176 2.42-.528a9.205 9.205 0 0 0 1.99-1.44l2.36 2.376Zm17.43 2.712h-12.8v-16.8h12.68v3.288h-9v3.408h7.92v3.288h-7.92v3.528h9.12V431Zm-30.49 160.062c-.47.503-.95.953-1.46 1.352-.5.399-1.05.745-1.66 1.04-.59.277-1.24.485-1.95.624-.71.156-1.51.234-2.39.234-1.34 0-2.58-.243-3.72-.728a9.249 9.249 0 0 1-2.96-1.976 8.949 8.949 0 0 1-1.95-2.99 9.555 9.555 0 0 1-.71-3.666v-.052c0-1.3.24-2.513.71-3.64a8.949 8.949 0 0 1 1.95-2.99 8.675 8.675 0 0 1 2.99-2.028c1.16-.503 2.44-.754 3.84-.754.85 0 1.62.069 2.32.208.71.139 1.35.329 1.92.572.57.243 1.1.537 1.59.884.48.347.93.728 1.35 1.144l-2.55 2.938a9.597 9.597 0 0 0-2.18-1.508c-.73-.364-1.55-.546-2.47-.546-.76 0-1.48.147-2.13.442-.65.295-1.2.702-1.67 1.222s-.83 1.127-1.09 1.82a6.032 6.032 0 0 0-.39 2.184v.052c0 .78.13 1.517.39 2.21.26.693.62 1.3 1.07 1.82.46.52 1.02.936 1.66 1.248.66.295 1.38.442 2.16.442 1.04 0 1.91-.191 2.62-.572.73-.381 1.45-.901 2.16-1.56l2.55 2.574Zm26.94-6.162c0 1.3-.24 2.522-.72 3.666a9.713 9.713 0 0 1-2.03 2.99c-.85.849-1.87 1.525-3.07 2.028-1.18.485-2.47.728-3.87.728-1.41 0-2.7-.243-3.88-.728-1.18-.503-2.2-1.17-3.07-2.002a9.474 9.474 0 0 1-2-2.964c-.47-1.144-.7-2.366-.7-3.666v-.052c0-1.3.24-2.513.73-3.64a9.235 9.235 0 0 1 2-2.99 9.308 9.308 0 0 1 3.07-2.028c1.19-.503 2.49-.754 3.9-.754 1.4 0 2.69.251 3.87.754a9.186 9.186 0 0 1 3.04 2.002 8.54 8.54 0 0 1 2.01 2.964c.48 1.127.72 2.34.72 3.64v.052Zm-4.18.052v-.052c0-.78-.14-1.517-.42-2.21-.26-.693-.64-1.3-1.14-1.82a5.294 5.294 0 0 0-1.74-1.222 5.246 5.246 0 0 0-2.21-.468c-.82 0-1.56.147-2.24.442-.66.295-1.23.702-1.72 1.222a6.05 6.05 0 0 0-1.11 1.82 6.032 6.032 0 0 0-.39 2.184v.052c0 .78.13 1.517.39 2.21.27.693.65 1.3 1.14 1.82.5.52 1.08.936 1.74 1.248.68.295 1.42.442 2.24.442.79 0 1.53-.147 2.21-.442a4.881 4.881 0 0 0 1.71-1.222 5.42 5.42 0 0 0 1.12-1.794c.28-.693.42-1.43.42-2.21Zm31.14 9.048h-3.98v-11.882l-5.12 7.774h-.11l-5.07-7.696V594h-3.92v-18.2h4.31l4.79 7.696 4.78-7.696h4.32V594Zm27.77 0h-3.98v-11.882l-5.12 7.774h-.11l-5.07-7.696V594h-3.92v-18.2h4.31l4.79 7.696 4.78-7.696h4.32V594Zm25.14-7.93c0 1.387-.19 2.591-.57 3.614-.36 1.023-.89 1.881-1.58 2.574-.7.676-1.54 1.187-2.53 1.534-.98.329-2.09.494-3.3.494-2.44 0-4.37-.676-5.77-2.028-1.4-1.352-2.11-3.371-2.11-6.058v-10.4h4.01v10.296c0 1.491.34 2.617 1.04 3.38.69.745 1.65 1.118 2.88 1.118s2.2-.364 2.89-1.092c.69-.728 1.04-1.82 1.04-3.276V575.8h4v10.27Zm25.45 7.93h-3.4l-8.82-11.57V594h-3.95v-18.2h3.69l8.53 11.206V575.8h3.95V594Zm13.76 0h-4.01v-18.2h4.01V594Zm23.53-14.508h-5.54V594h-4v-14.508h-5.54V575.8h15.08v3.692Zm24.4-3.692-7 10.946V594h-4v-7.176l-7-11.024h4.68l4.35 7.306 4.42-7.306h4.55Z"/>
  <defs>
    <radialGradient id="b" cx="0" cy="0" r="1" gradientTransform="matrix(-135.556 0 0 -135.5 1531.36 443.807)" gradientUnits="userSpaceOnUse">
      <stop stop-color="#666"/>
      <stop offset=".11" stop-color="#8E8E8E"/>
      <stop offset=".22" stop-color="#B1B1B1"/>
      <stop offset=".34" stop-color="#CDCDCD"/>
      <stop offset=".47" stop-color="#E3E3E3"/>
      <stop offset=".61" stop-color="#F3F3F3"/>
      <stop offset=".77" stop-color="#FCFCFC"/>
      <stop offset="1" stop-color="#fff"/>
    </radialGradient>
    <radialGradient id="c" cx="0" cy="0" r="1" gradientTransform="matrix(-135.556 0 0 -135.5 1482.72 426.68)" gradientUnits="userSpaceOnUse">
      <stop stop-color="#666"/>
      <stop offset=".11" stop-color="#8E8E8E"/>
      <stop offset=".22" stop-color="#B1B1B1"/>
      <stop offset=".34" stop-color="#CDCDCD"/>
      <stop offset=".47" stop-color="#E3E3E3"/>
      <stop offset=".61" stop-color="#F3F3F3"/>
      <stop offset=".77" stop-color="#FCFCFC"/>
      <stop offset="1" stop-color="#fff"/>
    </radialGradient>
    <radialGradient id="d" cx="0" cy="0" r="1" gradientTransform="matrix(-135.556 0 0 -135.5 1440.22 447.911)" gradientUnits="userSpaceOnUse">
      <stop stop-color="#666"/>
      <stop offset=".11" stop-color="#8E8E8E"/>
      <stop offset=".22" stop-color="#B1B1B1"/>
      <stop offset=".34" stop-color="#CDCDCD"/>
      <stop offset=".47" stop-color="#E3E3E3"/>
      <stop offset=".61" stop-color="#F3F3F3"/>
      <stop offset=".77" stop-color="#FCFCFC"/>
      <stop offset="1" stop-color="#fff"/>
    </radialGradient>
    <radialGradient id="e" cx="0" cy="0" r="1" gradientTransform="matrix(103.152 0 0 103.109 1482.7 409.995)" gradientUnits="userSpaceOnUse">
      <stop stop-color="#EFAB7D"/>
      <stop offset=".18" stop-color="#ED9E67"/>
      <stop offset=".53" stop-color="#EB8943"/>
      <stop offset=".82" stop-color="#EA7B2C"/>
      <stop offset="1" stop-color="#EA7724"/>
    </radialGradient>
    <filter id="a" width="743" height="662" x="1107" y="0" color-interpolation-filters="sRGB" filterUnits="userSpaceOnUse">
      <feFlood flood-opacity="0" result="BackgroundImageFix"/>
      <feColorMatrix in="SourceAlpha" result="hardAlpha" values="0 0 0 0 0 0 0 0 0 0 0 0 0 0 0 0 0 0 127 0"/>
      <feOffset dy="6"/>
      <feGaussianBlur stdDeviation="15"/>
      <feComposite in2="hardAlpha" operator="out"/>
      <feColorMatrix values="0 0 0 0 0 0 0 0 0 0 0 0 0 0 0 0 0 0 0.2 0"/>
      <feBlend in2="BackgroundImageFix" result="effect1_dropShadow_136_20919"/>
      <feBlend in="SourceGraphic" in2="effect1_dropShadow_136_20919" result="shape"/>
    </filter>
  </defs>
</svg>
