<svg width="1920" height="644" viewBox="0 0 1920 644" fill="none" xmlns="http://www.w3.org/2000/svg">
<rect opacity="0.04" y="62" width="1920" height="509" fill="#151515"/>
<path d="M1244.59 518.056C1244.59 519.032 1244.41 519.888 1244.06 520.624C1243.71 521.36 1243.22 521.976 1242.59 522.472C1241.99 522.968 1241.27 523.344 1240.43 523.6C1239.62 523.84 1238.74 523.96 1237.79 523.96H1234.99V529H1231.29V512.2H1238.15C1239.16 512.2 1240.06 512.344 1240.84 512.632C1241.64 512.904 1242.31 513.296 1242.86 513.808C1243.42 514.32 1243.84 514.936 1244.13 515.656C1244.43 516.36 1244.59 517.144 1244.59 518.008V518.056ZM1240.84 518.128V518.08C1240.84 517.248 1240.57 516.616 1240.03 516.184C1239.5 515.752 1238.77 515.536 1237.84 515.536H1234.99V520.672H1237.91C1238.84 520.672 1239.56 520.432 1240.07 519.952C1240.59 519.456 1240.84 518.848 1240.84 518.128ZM1264.19 529H1252.12V512.2H1255.82V525.64H1264.19V529ZM1288.15 529H1284.28L1282.75 525.232H1275.64L1274.11 529H1270.34L1277.54 512.08H1280.95L1288.15 529ZM1281.43 521.968L1279.2 516.52L1276.96 521.968H1281.43ZM1310.47 529H1307.32L1299.19 518.32V529H1295.54V512.2H1298.95L1306.82 522.544V512.2H1310.47V529ZM1332.09 529H1319.3V512.2H1331.97V515.488H1322.97V518.896H1330.89V522.184H1322.97V525.712H1332.09V529ZM1352.9 515.608H1347.79V529H1344.09V515.608H1338.98V512.2H1352.9V515.608Z" fill="white"/>
<path d="M1519.73 526.288C1519.3 526.752 1518.85 527.168 1518.39 527.536C1517.92 527.904 1517.41 528.224 1516.85 528.496C1516.31 528.752 1515.71 528.944 1515.05 529.072C1514.4 529.216 1513.66 529.288 1512.84 529.288C1511.61 529.288 1510.47 529.064 1509.41 528.616C1508.36 528.168 1507.44 527.56 1506.68 526.792C1505.91 526.008 1505.31 525.088 1504.88 524.032C1504.44 522.976 1504.23 521.848 1504.23 520.648V520.6C1504.23 519.4 1504.44 518.28 1504.88 517.24C1505.31 516.184 1505.91 515.264 1506.68 514.48C1507.44 513.68 1508.36 513.056 1509.44 512.608C1510.51 512.144 1511.69 511.912 1512.99 511.912C1513.77 511.912 1514.48 511.976 1515.12 512.104C1515.78 512.232 1516.37 512.408 1516.9 512.632C1517.43 512.856 1517.92 513.128 1518.36 513.448C1518.81 513.768 1519.23 514.12 1519.61 514.504L1517.26 517.216C1516.6 516.624 1515.93 516.16 1515.24 515.824C1514.57 515.488 1513.81 515.32 1512.96 515.32C1512.26 515.32 1511.6 515.456 1511 515.728C1510.4 516 1509.89 516.376 1509.46 516.856C1509.03 517.336 1508.69 517.896 1508.45 518.536C1508.21 519.16 1508.09 519.832 1508.09 520.552V520.6C1508.09 521.32 1508.21 522 1508.45 522.64C1508.69 523.28 1509.02 523.84 1509.44 524.32C1509.87 524.8 1510.38 525.184 1510.97 525.472C1511.58 525.744 1512.24 525.88 1512.96 525.88C1513.92 525.88 1514.73 525.704 1515.39 525.352C1516.06 525 1516.72 524.52 1517.38 523.912L1519.73 526.288ZM1544.6 520.6C1544.6 521.8 1544.38 522.928 1543.93 523.984C1543.48 525.024 1542.86 525.944 1542.06 526.744C1541.28 527.528 1540.33 528.152 1539.23 528.616C1538.14 529.064 1536.95 529.288 1535.65 529.288C1534.36 529.288 1533.16 529.064 1532.08 528.616C1530.99 528.152 1530.04 527.536 1529.24 526.768C1528.46 525.984 1527.84 525.072 1527.4 524.032C1526.96 522.976 1526.75 521.848 1526.75 520.648V520.6C1526.75 519.4 1526.97 518.28 1527.42 517.24C1527.87 516.184 1528.48 515.264 1529.27 514.48C1530.07 513.68 1531.01 513.056 1532.1 512.608C1533.2 512.144 1534.4 511.912 1535.7 511.912C1537 511.912 1538.19 512.144 1539.28 512.608C1540.36 513.056 1541.3 513.672 1542.08 514.456C1542.88 515.224 1543.5 516.136 1543.93 517.192C1544.38 518.232 1544.6 519.352 1544.6 520.552V520.6ZM1540.74 520.648V520.6C1540.74 519.88 1540.61 519.2 1540.36 518.56C1540.12 517.92 1539.76 517.36 1539.3 516.88C1538.85 516.4 1538.32 516.024 1537.69 515.752C1537.07 515.464 1536.39 515.32 1535.65 515.32C1534.9 515.32 1534.21 515.456 1533.59 515.728C1532.98 516 1532.45 516.376 1532 516.856C1531.57 517.336 1531.23 517.896 1530.97 518.536C1530.73 519.16 1530.61 519.832 1530.61 520.552V520.6C1530.61 521.32 1530.73 522 1530.97 522.64C1531.23 523.28 1531.58 523.84 1532.03 524.32C1532.49 524.8 1533.03 525.184 1533.64 525.472C1534.26 525.744 1534.95 525.88 1535.7 525.88C1536.44 525.88 1537.12 525.744 1537.74 525.472C1538.36 525.2 1538.89 524.824 1539.32 524.344C1539.77 523.864 1540.12 523.312 1540.36 522.688C1540.61 522.048 1540.74 521.368 1540.74 520.648ZM1569.48 529H1565.81V518.032L1561.08 525.208H1560.99L1556.31 518.104V529H1552.68V512.2H1556.67L1561.08 519.304L1565.5 512.2H1569.48V529ZM1595.12 529H1591.45V518.032L1586.72 525.208H1586.62L1581.94 518.104V529H1578.32V512.2H1582.3L1586.72 519.304L1591.13 512.2H1595.12V529ZM1618.33 521.68C1618.33 522.96 1618.15 524.072 1617.8 525.016C1617.47 525.96 1616.98 526.752 1616.34 527.392C1615.7 528.016 1614.92 528.488 1614.01 528.808C1613.1 529.112 1612.08 529.264 1610.96 529.264C1608.71 529.264 1606.93 528.64 1605.63 527.392C1604.34 526.144 1603.69 524.28 1603.69 521.8V512.2H1607.39V521.704C1607.39 523.08 1607.71 524.12 1608.35 524.824C1608.99 525.512 1609.87 525.856 1611.01 525.856C1612.15 525.856 1613.03 525.52 1613.67 524.848C1614.31 524.176 1614.63 523.168 1614.63 521.824V512.2H1618.33V521.68ZM1641.82 529H1638.68L1630.54 518.32V529H1626.89V512.2H1630.3L1638.17 522.544V512.2H1641.82V529ZM1654.52 529H1650.82V512.2H1654.52V529ZM1676.24 515.608H1671.13V529H1667.43V515.608H1662.32V512.2H1676.24V515.608ZM1698.76 512.2L1692.3 522.304V529H1688.61V522.376L1682.15 512.2H1686.47L1690.48 518.944L1694.56 512.2H1698.76Z" fill="white"/>
<g filter="url(#filter0_d_1690_17144)">
<path d="M1457.96 43.0374C1451.26 31.4245 1439.93 25.0901 1428.23 24.1721C1426.07 23.9426 1423.91 23.9426 1421.76 24.1721C1410.05 25.136 1398.72 31.4704 1392.07 43.0374L1099.16 550.93C1091.31 564.471 1092.92 579.847 1100.58 591.246C1101.82 593.036 1103.2 594.781 1104.71 596.341C1111.46 603.41 1120.96 608 1132.11 608L1717.89 607.51C1729.04 607.51 1738.54 602.92 1745.29 595.852C1746.8 594.291 1748.18 592.547 1749.42 590.757C1757.08 579.373 1758.69 563.996 1750.84 550.44L1457.96 43.0374Z" fill="white"/>
</g>
<path d="M1606.3 299.275L1428.5 401.873L1425.28 403.757L1422.02 401.873L1244.27 299.275L1392.27 43.0535C1398.93 31.4767 1410.29 25.137 1422.01 24.1723C1424.17 23.9426 1426.33 23.9426 1428.49 24.1723C1440.2 25.0911 1451.56 31.4307 1458.27 43.0535L1606.28 299.259L1606.3 299.275Z" fill="#AD3088"/>
<path d="M1422.02 409.362V608.005H1131.96C1120.79 608.005 1111.28 603.411 1104.52 596.336C1103.01 594.774 1101.63 593.029 1100.39 591.237C1092.71 579.844 1091.1 564.454 1098.96 550.887L1241.05 304.879L1418.8 407.478L1422.02 409.362Z" fill="#B0BC25"/>
<path d="M1750.18 591.237C1748.94 593.029 1747.56 594.774 1746.04 596.336C1739.29 603.411 1729.78 608.005 1718.61 608.005H1428.5V409.362L1431.76 407.478L1609.52 304.879L1751.61 550.887C1759.46 564.439 1757.86 579.829 1750.18 591.237Z" fill="#00B3BD"/>
<path style="mix-blend-mode:multiply" d="M1476.36 562.708C1548.99 562.708 1607.86 503.857 1607.86 431.259C1607.86 358.662 1548.99 299.811 1476.36 299.811C1403.73 299.811 1344.86 358.662 1344.86 431.259C1344.86 503.857 1403.73 562.708 1476.36 562.708Z" fill="url(#paint0_radial_1690_17144)"/>
<path style="mix-blend-mode:multiply" d="M1429.16 546.094C1501.79 546.094 1560.66 487.242 1560.66 414.645C1560.66 342.047 1501.79 283.196 1429.16 283.196C1356.53 283.196 1297.66 342.047 1297.66 414.645C1297.66 487.242 1356.53 546.094 1429.16 546.094Z" fill="url(#paint1_radial_1690_17144)"/>
<path style="mix-blend-mode:multiply" d="M1387.95 566.69C1460.58 566.69 1519.45 507.838 1519.45 435.241C1519.45 362.644 1460.58 303.792 1387.95 303.792C1315.32 303.792 1256.45 362.644 1256.45 435.241C1256.45 507.838 1315.32 566.69 1387.95 566.69Z" fill="url(#paint2_radial_1690_17144)"/>
<path d="M1499.92 469.19C1495.86 473.248 1491.46 476.954 1486.76 480.277C1470.52 491.716 1450.73 498.454 1429.36 498.484C1408.16 498.515 1387.25 491.747 1370.15 479.236C1365.98 476.188 1362.08 472.835 1358.43 469.19C1354.12 464.887 1350.2 460.186 1346.74 455.163C1341.65 447.798 1337.55 439.712 1334.58 431.106C1331.05 420.877 1329.12 409.897 1329.12 398.474C1329.12 389.546 1330.29 380.909 1332.48 372.671C1336.37 358.062 1343.48 344.77 1353.01 333.607C1354.74 331.585 1356.55 329.625 1358.41 327.742C1362.06 324.097 1365.97 320.744 1370.13 317.696C1387.25 305.185 1408.16 298.402 1429.34 298.447C1450.71 298.478 1470.51 305.216 1486.75 316.655C1491.45 319.963 1495.86 323.684 1499.91 327.742C1501.79 329.625 1503.6 331.57 1505.31 333.607C1514.84 344.77 1521.95 358.062 1525.84 372.671C1528.03 380.894 1529.2 389.546 1529.2 398.474C1529.2 409.897 1527.28 420.877 1523.74 431.106C1520.77 439.727 1516.65 447.798 1511.56 455.163C1508.1 460.186 1504.18 464.887 1499.87 469.19H1499.92Z" fill="url(#paint3_radial_1690_17144)"/>
<g style="mix-blend-mode:overlay">
<path d="M1425.09 145.334C1415.88 145.334 1408.48 152.924 1408.48 162.368C1408.48 171.811 1415.88 179.401 1425.09 179.401C1434.3 179.401 1441.71 171.811 1441.71 162.368C1441.71 152.924 1434.3 145.334 1425.09 145.334ZM1425.09 183.496C1413.68 183.496 1404.47 174.061 1404.47 162.36C1404.47 150.658 1413.68 141.223 1425.09 141.223C1436.5 141.223 1445.71 150.658 1445.71 162.36C1445.71 174.061 1436.5 183.496 1425.09 183.496Z" fill="white"/>
<path d="M1393.05 215.921H1457.11C1457.11 214.691 1456.91 213.461 1456.71 212.223C1455.71 206.89 1453.51 201.76 1450.11 197.447C1446.51 192.931 1441.91 189.444 1436.7 187.388C1429.69 191.289 1420.89 191.289 1413.88 187.388C1408.68 189.444 1403.87 192.931 1400.47 197.447C1397.07 201.752 1394.87 206.882 1393.87 212.223C1393.47 213.453 1393.27 214.683 1393.07 215.921M1461.13 220.024H1389.06V217.968C1389.06 215.913 1389.27 213.655 1389.66 211.406C1390.67 205.247 1393.26 199.502 1397.07 194.784C1401.28 189.452 1406.88 185.349 1413.28 183.091L1414.09 182.679L1414.89 183.091C1421.09 186.992 1428.9 186.992 1435.11 183.091L1435.91 182.679L1436.71 183.091C1443.12 185.349 1448.72 189.452 1452.93 194.784C1456.73 199.502 1459.34 205.458 1460.33 211.406C1460.73 213.663 1460.93 215.719 1460.93 217.968V220.024H1461.13Z" fill="white"/>
<path d="M1480.54 151.484C1473.13 151.484 1467.12 157.642 1467.12 165.232C1467.12 172.823 1473.13 178.981 1480.54 178.981C1487.95 178.981 1493.95 172.823 1493.95 165.232C1493.95 157.642 1487.94 151.484 1480.54 151.484ZM1480.54 183.084C1470.93 183.084 1463.12 175.08 1463.12 165.232C1463.12 155.384 1470.93 147.381 1480.54 147.381C1490.14 147.381 1497.95 155.384 1497.95 165.232C1497.95 175.08 1490.14 183.084 1480.54 183.084Z" fill="white"/>
<path d="M1465.53 209.763H1506.76C1505.96 199.502 1499.55 190.472 1489.95 186.782C1484.15 190.067 1476.94 190.067 1470.93 186.782C1466.33 188.627 1462.13 191.912 1459.12 196.015C1462.32 200.117 1464.32 204.835 1465.53 209.763ZM1510.77 213.866H1462.13L1461.93 212.223C1460.92 206.891 1458.72 201.76 1455.32 197.447L1454.32 196.217L1455.12 194.987C1458.72 189.242 1464.33 184.726 1470.54 182.671L1471.34 182.258L1472.14 182.671C1477.14 185.746 1483.55 185.746 1488.56 182.671L1489.36 182.258L1490.16 182.671C1502.37 186.984 1510.38 198.677 1510.58 212.013L1510.78 213.858L1510.77 213.866Z" fill="white"/>
<path d="M1369.64 151.484C1362.23 151.484 1356.22 157.642 1356.22 165.232C1356.22 172.823 1362.22 178.981 1369.64 178.981C1377.05 178.981 1383.05 172.823 1383.05 165.232C1383.05 157.642 1377.04 151.484 1369.64 151.484ZM1369.64 183.084C1360.03 183.084 1352.22 175.08 1352.22 165.232C1352.22 155.384 1360.03 147.381 1369.64 147.381C1379.24 147.381 1387.05 155.384 1387.05 165.232C1387.05 175.08 1379.24 183.084 1369.64 183.084Z" fill="white"/>
<path d="M1343.41 209.763H1384.65C1385.85 204.835 1387.85 200.118 1390.85 196.015C1387.85 191.912 1383.85 188.627 1379.04 186.782C1373.24 190.067 1366.03 190.067 1360.02 186.782C1350.81 190.472 1344.21 199.503 1343.41 209.763ZM1388.05 213.866H1339.41V211.811C1339.41 198.677 1347.62 186.984 1359.83 182.469L1360.63 182.056L1361.43 182.469C1366.43 185.544 1372.84 185.544 1377.85 182.469L1378.65 182.056L1379.45 182.469C1385.86 184.727 1391.27 189.032 1394.87 194.777L1395.67 196.007L1394.67 197.237C1391.26 201.55 1389.06 206.672 1388.06 212.013V213.858L1388.05 213.866Z" fill="white"/>
</g>
<g style="mix-blend-mode:overlay">
<mask id="mask0_1690_17144" style="mask-type:luminance" maskUnits="userSpaceOnUse" x="1174" y="427" width="146" height="110">
<path d="M1319.49 427.562H1174.31V536.329H1319.49V427.562Z" fill="white"/>
</mask>
<g mask="url(#mask0_1690_17144)">
<path d="M1306.88 480.324C1305.07 478.028 1301.94 477.262 1299.25 478.486L1296.06 479.926C1294.51 480.632 1293.26 481.855 1292.56 483.386C1291.85 484.917 1291.73 486.635 1292.23 488.256L1293.1 491.123C1293.4 492.091 1293.1 493.134 1292.36 493.847L1289.31 496.698C1287.66 498.244 1286.7 500.406 1286.7 502.642V505.381C1286.7 506.131 1286.45 506.852 1285.97 507.437L1283.02 511.114C1282 512.39 1281.36 513.921 1281.18 515.527C1281.06 516.69 1280.25 517.673 1279.13 518.056L1273.68 519.924C1272.5 520.337 1271.18 519.954 1270.42 518.971L1266.53 514.003C1265.4 512.547 1264.77 510.739 1264.77 508.9V497.344C1264.77 496.008 1264.15 494.755 1263.11 493.899C1262.04 493.044 1260.67 492.721 1259.34 493.006L1251.91 494.537C1250.49 494.83 1249 494.275 1248.15 493.111L1243.51 486.845C1242.92 486.065 1242.62 485.142 1242.62 484.166V481.06C1242.62 479.251 1243.7 477.615 1245.39 476.887L1256.9 471.859C1259.89 470.554 1263.31 470.831 1266.04 472.625C1267.85 473.818 1270.03 474.373 1272.21 474.231L1274.66 474.051C1275.57 473.99 1276.47 474.231 1277.22 474.741L1277.88 475.199C1279 475.964 1280.41 476.242 1281.74 475.964C1283.06 475.686 1284.23 474.861 1284.94 473.713C1286.33 471.432 1285.57 468.445 1283.25 467.064L1267.75 457.856C1266.12 456.888 1264.15 456.648 1262.33 457.181L1255.24 459.252H1255.19C1254.71 458.899 1254.41 458.367 1254.37 457.781C1254.32 457.196 1254.5 456.633 1254.91 456.19L1258.99 451.733C1262.86 447.515 1268.16 444.836 1273.91 444.206L1285.17 442.953C1288.92 445.054 1292.36 447.658 1295.46 450.705C1299.95 455.117 1303.47 460.25 1305.94 465.968C1308.41 471.702 1309.7 477.795 1309.77 484.069L1306.84 480.332H1306.88V480.324ZM1226.41 518.603C1221.93 514.191 1218.41 509.058 1215.94 503.34C1215.44 502.177 1214.99 500.998 1214.59 499.828L1226.67 507.827C1229.12 509.463 1230.69 512.165 1230.86 515.076L1231.29 522.828C1229.59 521.538 1227.95 520.134 1226.4 518.626L1226.41 518.611V518.603ZM1203.32 471.131C1201.5 473.15 1197.28 474.899 1193.93 474.321C1191.88 473.968 1190.42 472.805 1189.64 470.854C1188.57 468.265 1188.19 466.209 1187.83 464.385C1187.42 462.269 1187.05 460.34 1185.66 458.719C1186.8 458.457 1188.2 458.179 1189.74 457.969C1194.47 457.369 1198.22 457.819 1200.56 459.275C1203.75 461.278 1204.7 463.732 1204.94 465.436C1205.23 467.507 1204.61 469.683 1203.32 471.116L1203.33 471.131H1203.32ZM1308.66 464.835C1306.06 458.779 1302.32 453.339 1297.57 448.656C1292.83 443.981 1287.27 440.319 1281.11 437.76C1274.73 435.111 1267.94 433.76 1260.96 433.76C1258.71 433.76 1256.45 433.91 1254.24 434.188C1253.44 434.293 1252.88 435.013 1252.98 435.794C1253.08 436.574 1253.82 437.129 1254.61 437.032C1256.69 436.769 1258.83 436.634 1260.95 436.634C1267.55 436.634 1273.94 437.902 1279.96 440.416C1280.11 440.476 1280.26 440.551 1280.41 440.604L1273.61 441.369C1267.16 442.09 1261.2 445.092 1256.85 449.842L1252.77 454.299C1251.82 455.327 1251.37 456.693 1251.5 458.081C1251.64 459.462 1252.36 460.73 1253.46 461.563C1254.21 462.119 1255.21 462.299 1256.11 462.036L1263.2 459.965C1264.24 459.657 1265.35 459.8 1266.27 460.348L1281.77 469.555C1282.72 470.111 1283.03 471.334 1282.46 472.272C1282.18 472.76 1281.7 473.082 1281.15 473.203C1280.6 473.323 1280.02 473.203 1279.57 472.895L1278.91 472.437C1277.62 471.552 1276.03 471.116 1274.46 471.229L1272.01 471.409C1270.49 471.514 1268.94 471.116 1267.67 470.291C1264.11 467.95 1259.64 467.582 1255.72 469.293L1244.21 474.321C1241.48 475.514 1239.73 478.185 1239.73 481.112V484.219C1239.73 485.795 1240.22 487.303 1241.18 488.586L1245.81 494.852C1247.34 496.924 1249.97 497.914 1252.53 497.396L1259.97 495.865C1260.45 495.76 1260.93 495.88 1261.3 496.188C1261.68 496.481 1261.89 496.924 1261.89 497.411V508.968C1261.89 511.422 1262.73 513.868 1264.25 515.804L1268.14 520.772C1269.26 522.213 1270.98 523.008 1272.75 523.008C1273.39 523.008 1274.03 522.903 1274.66 522.686L1280.11 520.817C1282.28 520.067 1283.85 518.138 1284.08 515.887C1284.2 514.814 1284.62 513.801 1285.32 512.945L1288.26 509.268C1289.13 508.18 1289.62 506.814 1289.62 505.426V502.694C1289.62 501.239 1290.24 499.828 1291.31 498.83L1294.37 495.978C1295.92 494.522 1296.5 492.376 1295.89 490.357L1295.02 487.491C1294.43 485.547 1295.39 483.446 1297.28 482.59L1300.47 481.15C1301.9 480.504 1303.6 480.902 1304.56 482.133L1309.65 488.601C1309.23 493.704 1308.01 498.657 1305.97 503.377C1303.52 509.095 1299.99 514.228 1295.5 518.641C1291.01 523.053 1285.79 526.505 1279.96 528.937C1273.95 531.436 1267.55 532.719 1260.95 532.719C1254.35 532.719 1247.96 531.458 1241.93 528.937C1239.27 527.834 1236.74 526.513 1234.33 524.967L1233.76 514.949C1233.55 511.137 1231.5 507.61 1228.28 505.478L1213.35 495.595C1212.51 492.053 1212.1 488.406 1212.1 484.699C1212.1 476.212 1214.55 466.449 1218.35 459.83C1221.75 453.902 1226.11 449.211 1231.34 445.857C1232.01 445.429 1232.21 444.536 1231.76 443.868C1231.32 443.208 1230.41 443.013 1229.74 443.456C1224.29 446.938 1219.73 451.778 1216.14 457.849C1213.63 453.684 1212.74 449.984 1213.49 446.802C1214.24 443.628 1216.65 440.919 1220.61 438.728C1223.11 437.362 1225.07 436.724 1228.41 436.229C1230.89 435.861 1233.45 435.674 1236.03 435.674H1243.1C1241.72 438.323 1239.88 443.17 1240.21 450.089C1240.21 450.427 1240.17 456.558 1235.95 460.19C1233.12 462.629 1228.98 463.469 1223.65 462.689C1222.86 462.569 1222.11 463.117 1221.99 463.897C1221.87 464.678 1222.43 465.413 1223.22 465.533C1224.64 465.736 1226.01 465.841 1227.29 465.841C1231.63 465.841 1235.19 464.663 1237.9 462.329C1243.23 457.714 1243.14 450.329 1243.14 450.022V449.977C1242.9 444.964 1243.94 441.197 1244.83 438.915C1245.81 436.447 1246.85 435.148 1246.86 435.133C1247.22 434.706 1247.3 434.12 1247.06 433.617C1246.82 433.115 1246.31 432.792 1245.75 432.792H1236.05C1233.33 432.792 1230.62 433.002 1227.98 433.392C1224.31 433.955 1222.01 434.683 1219.22 436.229C1214.49 438.818 1211.62 442.157 1210.68 446.157C1209.66 450.465 1210.98 455.38 1214.58 460.775C1212.46 465.128 1210.87 470.291 1209.99 475.551C1209.12 474.478 1207.94 473.255 1206.38 471.964C1207.65 470.021 1208.19 467.552 1207.86 465.113C1207.39 461.849 1205.37 458.937 1202.15 456.918C1199.17 455.05 1194.85 454.479 1189.33 455.185C1185.34 455.703 1182.21 456.731 1182.07 456.761C1181.52 456.941 1181.13 457.421 1181.08 457.999C1181.02 458.569 1181.32 459.117 1181.83 459.38C1184.15 460.633 1184.44 462.074 1184.99 464.955C1185.35 466.809 1185.79 469.12 1186.96 471.972C1188.14 474.853 1190.39 476.662 1193.46 477.195C1194.07 477.3 1194.69 477.36 1195.32 477.36C1198.71 477.36 1202.19 475.934 1204.43 474.111C1206.41 475.739 1207.67 477.225 1208.37 478.215C1208.94 478.996 1209.25 479.596 1209.42 479.934C1209.27 481.54 1209.19 483.123 1209.19 484.684C1209.19 491.551 1210.55 498.214 1213.26 504.495C1215.86 510.551 1219.6 515.992 1224.35 520.675C1229.11 525.35 1234.65 529.012 1240.81 531.571C1247.19 534.22 1253.98 535.571 1260.96 535.571C1267.95 535.571 1274.73 534.235 1281.12 531.571C1287.28 529.012 1292.82 525.335 1297.58 520.675C1302.33 515.999 1306.06 510.559 1308.67 504.495C1311.36 498.214 1312.74 491.551 1312.74 484.684C1312.74 477.818 1311.38 471.154 1308.67 464.873V464.828L1308.66 464.835Z" fill="white"/>
</g>
</g>
<g style="mix-blend-mode:overlay">
<mask id="mask1_1690_17144" style="mask-type:luminance" maskUnits="userSpaceOnUse" x="1507" y="411" width="153" height="118">
<path d="M1659.58 411.07H1507.06V528.667H1659.58V411.07Z" fill="white"/>
</mask>
<g mask="url(#mask1_1690_17144)">
<path d="M1616.4 471.671V474.793H1579.93V471.671C1579.93 471.296 1580.31 468.052 1582.68 464.93C1585.8 460.935 1591.04 458.807 1598.04 458.807C1605.03 458.807 1610.27 460.804 1613.4 464.93C1616.02 468.052 1616.4 471.174 1616.4 471.671ZM1619.77 471.418C1619.77 471.296 1618.52 455.31 1598.17 455.31C1577.81 455.31 1576.57 471.296 1576.57 471.418V476.415C1576.57 477.41 1577.32 478.16 1578.31 478.16H1618.14C1619.14 478.16 1619.89 477.41 1619.89 476.415L1619.76 471.418H1619.77Z" fill="white"/>
<path d="M1589.67 440.075C1589.67 434.58 1593.55 430.211 1598.17 430.211C1602.79 430.211 1606.66 434.58 1606.66 440.075C1606.66 445.569 1602.79 449.938 1598.17 449.938C1593.55 449.938 1589.67 445.569 1589.67 440.075ZM1598.17 453.558C1604.79 453.558 1610.28 447.566 1610.28 440.075C1610.28 432.583 1604.91 426.592 1598.17 426.592C1591.43 426.592 1586.06 432.583 1586.06 440.075C1586.06 447.566 1591.55 453.558 1598.17 453.558Z" fill="white"/>
<path d="M1565.57 446.318C1565.57 441.826 1568.81 438.076 1572.69 438.076C1576.56 438.076 1579.8 441.818 1579.8 446.318C1579.8 450.818 1576.56 454.559 1572.69 454.559C1568.81 454.559 1565.57 450.818 1565.57 446.318ZM1572.69 457.559C1578.3 457.559 1582.8 452.562 1582.8 446.318C1582.8 440.073 1578.31 435.076 1572.69 435.076C1567.06 435.076 1562.57 440.073 1562.57 446.318C1562.57 452.562 1567.06 457.559 1572.69 457.559Z" fill="white"/>
<path d="M1617.64 446.318C1617.64 441.826 1620.89 438.076 1624.76 438.076C1628.63 438.076 1631.88 441.818 1631.88 446.318C1631.88 450.818 1628.63 454.559 1624.76 454.559C1620.89 454.559 1617.64 450.818 1617.64 446.318ZM1624.76 457.559C1630.38 457.559 1634.88 452.562 1634.88 446.318C1634.88 440.073 1630.39 435.076 1624.76 435.076C1619.14 435.076 1614.64 440.073 1614.64 446.318C1614.64 452.562 1619.27 457.559 1624.76 457.559Z" fill="white"/>
<path d="M1587.94 523.799C1576.45 523.799 1552.22 514.31 1546.61 511.938V487.71L1597.05 497.452C1598.67 497.452 1600.05 498.83 1600.05 500.452C1600.05 502.074 1598.67 503.452 1597.05 503.452H1568.58C1567.46 503.452 1566.59 504.324 1566.59 505.449C1566.59 506.574 1567.46 507.446 1568.58 507.446H1596.93C1599.42 507.446 1601.55 506.199 1602.8 504.202C1604.92 503.33 1612.78 500.452 1623.27 498.08C1630.89 496.327 1635.14 498.577 1637.13 500.199C1629.01 505.318 1599.05 523.799 1587.94 523.799ZM1525.75 518.426V482.713H1542.48V518.426H1525.75ZM1641.75 499.571C1641.5 499.196 1636.14 491.208 1622.27 494.33C1613.91 496.205 1607.29 498.446 1603.67 499.702C1603.29 496.458 1600.55 493.833 1597.17 493.588L1546.35 483.725V480.856C1546.35 479.731 1545.48 478.858 1544.36 478.858H1523.88C1522.75 478.858 1521.88 479.731 1521.88 480.856V520.563C1521.88 521.688 1522.75 522.56 1523.88 522.56H1544.48C1545.6 522.56 1546.48 521.688 1546.48 520.563V516.316C1554.22 519.438 1576.32 527.802 1587.81 527.802C1601.79 527.802 1639.5 503.33 1641.13 502.327C1642.13 501.699 1642.37 500.452 1641.75 499.58" fill="white"/>
<path d="M1642.61 472.543H1642.87C1642.87 472.421 1641.86 459.061 1624.76 459.061C1621.14 459.061 1618.26 459.688 1616.02 460.561C1616.77 461.311 1617.52 462.061 1618.02 462.933C1620.02 462.305 1622.27 461.93 1624.76 461.93C1630.63 461.93 1635 463.683 1637.62 467.049C1639.62 469.674 1639.87 472.291 1640 472.666V475.291H1621.52V477.288C1621.52 477.663 1621.39 477.916 1621.26 478.16H1641.37C1642.12 478.16 1642.74 477.532 1642.74 476.66L1642.87 472.535L1642.61 472.543Z" fill="white"/>
<path d="M1574.82 477.288V475.291H1557.46V472.666C1557.46 472.413 1557.84 469.665 1559.83 467.049C1562.46 463.674 1566.83 461.93 1572.7 461.93C1574.82 461.93 1576.81 462.183 1578.57 462.68C1579.19 461.93 1579.81 461.058 1580.69 460.308C1578.57 459.558 1575.94 459.061 1572.7 459.061C1555.59 459.061 1554.59 472.421 1554.59 472.543V476.66C1554.59 477.41 1555.22 478.16 1555.96 478.16H1575.07C1574.95 477.907 1574.82 477.532 1574.82 477.288Z" fill="white"/>
</g>
</g>
<path d="M1378.08 241.056C1378.08 242.032 1377.9 242.888 1377.55 243.624C1377.2 244.36 1376.71 244.976 1376.09 245.472C1375.48 245.968 1374.76 246.344 1373.93 246.6C1373.11 246.84 1372.23 246.96 1371.29 246.96H1368.48V252H1364.78V235.2H1371.65C1372.65 235.2 1373.55 235.344 1374.33 235.632C1375.13 235.904 1375.81 236.296 1376.35 236.808C1376.91 237.32 1377.33 237.936 1377.62 238.656C1377.93 239.36 1378.08 240.144 1378.08 241.008V241.056ZM1374.33 241.128V241.08C1374.33 240.248 1374.06 239.616 1373.52 239.184C1372.99 238.752 1372.26 238.536 1371.33 238.536H1368.48V243.672H1371.41C1372.33 243.672 1373.05 243.432 1373.57 242.952C1374.08 242.456 1374.33 241.848 1374.33 241.128ZM1398.4 252H1385.61V235.2H1398.28V238.488H1389.28V241.896H1397.2V245.184H1389.28V248.712H1398.4V252ZM1423.6 243.6C1423.6 244.8 1423.38 245.928 1422.93 246.984C1422.48 248.024 1421.86 248.944 1421.06 249.744C1420.28 250.528 1419.33 251.152 1418.23 251.616C1417.14 252.064 1415.95 252.288 1414.65 252.288C1413.36 252.288 1412.16 252.064 1411.08 251.616C1409.99 251.152 1409.04 250.536 1408.24 249.768C1407.46 248.984 1406.84 248.072 1406.4 247.032C1405.96 245.976 1405.75 244.848 1405.75 243.648V243.6C1405.75 242.4 1405.97 241.28 1406.42 240.24C1406.87 239.184 1407.48 238.264 1408.27 237.48C1409.07 236.68 1410.01 236.056 1411.1 235.608C1412.2 235.144 1413.4 234.912 1414.7 234.912C1416 234.912 1417.19 235.144 1418.28 235.608C1419.36 236.056 1420.3 236.672 1421.08 237.456C1421.88 238.224 1422.5 239.136 1422.93 240.192C1423.38 241.232 1423.6 242.352 1423.6 243.552V243.6ZM1419.74 243.648V243.6C1419.74 242.88 1419.61 242.2 1419.36 241.56C1419.12 240.92 1418.76 240.36 1418.3 239.88C1417.85 239.4 1417.32 239.024 1416.69 238.752C1416.07 238.464 1415.39 238.32 1414.65 238.32C1413.9 238.32 1413.21 238.456 1412.59 238.728C1411.98 239 1411.45 239.376 1411 239.856C1410.57 240.336 1410.23 240.896 1409.97 241.536C1409.73 242.16 1409.61 242.832 1409.61 243.552V243.6C1409.61 244.32 1409.73 245 1409.97 245.64C1410.23 246.28 1410.58 246.84 1411.03 247.32C1411.49 247.8 1412.03 248.184 1412.64 248.472C1413.26 248.744 1413.95 248.88 1414.7 248.88C1415.44 248.88 1416.12 248.744 1416.74 248.472C1417.36 248.2 1417.89 247.824 1418.32 247.344C1418.77 246.864 1419.12 246.312 1419.36 245.688C1419.61 245.048 1419.74 244.368 1419.74 243.648ZM1444.98 241.056C1444.98 242.032 1444.8 242.888 1444.45 243.624C1444.1 244.36 1443.61 244.976 1442.99 245.472C1442.38 245.968 1441.66 246.344 1440.83 246.6C1440.01 246.84 1439.13 246.96 1438.19 246.96H1435.38V252H1431.68V235.2H1438.55C1439.55 235.2 1440.45 235.344 1441.23 235.632C1442.03 235.904 1442.71 236.296 1443.25 236.808C1443.81 237.32 1444.23 237.936 1444.52 238.656C1444.83 239.36 1444.98 240.144 1444.98 241.008V241.056ZM1441.23 241.128V241.08C1441.23 240.248 1440.96 239.616 1440.42 239.184C1439.89 238.752 1439.16 238.536 1438.23 238.536H1435.38V243.672H1438.31C1439.23 243.672 1439.95 243.432 1440.47 242.952C1440.98 242.456 1441.23 241.848 1441.23 241.128ZM1464.58 252H1452.51V235.2H1456.21V248.64H1464.58V252ZM1484.96 252H1472.17V235.2H1484.84V238.488H1475.84V241.896H1483.76V245.184H1475.84V248.712H1484.96V252Z" fill="white"/>
<path d="M1213.59 567.056C1213.59 568.032 1213.41 568.888 1213.06 569.624C1212.71 570.36 1212.22 570.976 1211.59 571.472C1210.99 571.968 1210.27 572.344 1209.43 572.6C1208.62 572.84 1207.74 572.96 1206.79 572.96H1203.99V578H1200.29V561.2H1207.15C1208.16 561.2 1209.06 561.344 1209.84 561.632C1210.64 561.904 1211.31 562.296 1211.86 562.808C1212.42 563.32 1212.84 563.936 1213.13 564.656C1213.43 565.36 1213.59 566.144 1213.59 567.008V567.056ZM1209.84 567.128V567.08C1209.84 566.248 1209.57 565.616 1209.03 565.184C1208.5 564.752 1207.77 564.536 1206.84 564.536H1203.99V569.672H1206.91C1207.84 569.672 1208.56 569.432 1209.07 568.952C1209.59 568.456 1209.84 567.848 1209.84 567.128ZM1233.19 578H1221.12V561.2H1224.82V574.64H1233.19V578ZM1257.15 578H1253.28L1251.75 574.232H1244.64L1243.11 578H1239.34L1246.54 561.08H1249.95L1257.15 578ZM1250.43 570.968L1248.2 565.52L1245.96 570.968H1250.43ZM1279.47 578H1276.32L1268.19 567.32V578H1264.54V561.2H1267.95L1275.82 571.544V561.2H1279.47V578ZM1301.09 578H1288.3V561.2H1300.97V564.488H1291.97V567.896H1299.89V571.184H1291.97V574.712H1301.09V578ZM1321.9 564.608H1316.79V578H1313.09V564.608H1307.98V561.2H1321.9V564.608Z" fill="white"/>
<path d="M1357.31 394.288C1356.87 394.752 1356.43 395.168 1355.96 395.536C1355.5 395.904 1354.99 396.224 1354.43 396.496C1353.88 396.752 1353.28 396.944 1352.63 397.072C1351.97 397.216 1351.23 397.288 1350.42 397.288C1349.19 397.288 1348.04 397.064 1346.99 396.616C1345.93 396.168 1345.02 395.56 1344.25 394.792C1343.48 394.008 1342.88 393.088 1342.45 392.032C1342.02 390.976 1341.8 389.848 1341.8 388.648V388.6C1341.8 387.4 1342.02 386.28 1342.45 385.24C1342.88 384.184 1343.48 383.264 1344.25 382.48C1345.02 381.68 1345.94 381.056 1347.01 380.608C1348.08 380.144 1349.27 379.912 1350.56 379.912C1351.35 379.912 1352.06 379.976 1352.7 380.104C1353.35 380.232 1353.95 380.408 1354.47 380.632C1355 380.856 1355.49 381.128 1355.94 381.448C1356.39 381.768 1356.8 382.12 1357.19 382.504L1354.83 385.216C1354.18 384.624 1353.51 384.16 1352.82 383.824C1352.15 383.488 1351.39 383.32 1350.54 383.32C1349.83 383.32 1349.18 383.456 1348.57 383.728C1347.98 384 1347.47 384.376 1347.03 384.856C1346.6 385.336 1346.27 385.896 1346.03 386.536C1345.79 387.16 1345.67 387.832 1345.67 388.552V388.6C1345.67 389.32 1345.79 390 1346.03 390.64C1346.27 391.28 1346.59 391.84 1347.01 392.32C1347.44 392.8 1347.95 393.184 1348.55 393.472C1349.15 393.744 1349.82 393.88 1350.54 393.88C1351.5 393.88 1352.31 393.704 1352.96 393.352C1353.63 393 1354.3 392.52 1354.95 391.912L1357.31 394.288ZM1379.06 388.6C1379.06 389.8 1378.83 390.928 1378.38 391.984C1377.94 393.024 1377.31 393.944 1376.51 394.744C1375.73 395.528 1374.78 396.152 1373.68 396.616C1372.59 397.064 1371.4 397.288 1370.1 397.288C1368.81 397.288 1367.62 397.064 1366.53 396.616C1365.44 396.152 1364.5 395.536 1363.7 394.768C1362.91 393.984 1362.3 393.072 1361.85 392.032C1361.42 390.976 1361.2 389.848 1361.2 388.648V388.6C1361.2 387.4 1361.42 386.28 1361.87 385.24C1362.32 384.184 1362.94 383.264 1363.72 382.48C1364.52 381.68 1365.46 381.056 1366.55 380.608C1367.66 380.144 1368.86 379.912 1370.15 379.912C1371.45 379.912 1372.64 380.144 1373.73 380.608C1374.82 381.056 1375.75 381.672 1376.54 382.456C1377.34 383.224 1377.95 384.136 1378.38 385.192C1378.83 386.232 1379.06 387.352 1379.06 388.552V388.6ZM1375.19 388.648V388.6C1375.19 387.88 1375.06 387.2 1374.81 386.56C1374.57 385.92 1374.22 385.36 1373.75 384.88C1373.3 384.4 1372.77 384.024 1372.14 383.752C1371.52 383.464 1370.84 383.32 1370.1 383.32C1369.35 383.32 1368.66 383.456 1368.04 383.728C1367.43 384 1366.9 384.376 1366.46 384.856C1366.02 385.336 1365.68 385.896 1365.42 386.536C1365.18 387.16 1365.06 387.832 1365.06 388.552V388.6C1365.06 389.32 1365.18 390 1365.42 390.64C1365.68 391.28 1366.03 391.84 1366.48 392.32C1366.94 392.8 1367.48 393.184 1368.09 393.472C1368.71 393.744 1369.4 393.88 1370.15 393.88C1370.89 393.88 1371.57 393.744 1372.19 393.472C1372.82 393.2 1373.34 392.824 1373.78 392.344C1374.22 391.864 1374.57 391.312 1374.81 390.688C1375.06 390.048 1375.19 389.368 1375.19 388.648ZM1398.54 397H1394.22L1390.62 391.624H1387.71V397H1384.02V380.2H1391.7C1393.7 380.2 1395.25 380.688 1396.35 381.664C1397.47 382.64 1398.03 384 1398.03 385.744V385.792C1398.03 387.152 1397.7 388.264 1397.02 389.128C1396.37 389.976 1395.5 390.6 1394.43 391L1398.54 397ZM1394.29 385.984V385.936C1394.29 385.136 1394.03 384.536 1393.52 384.136C1393.01 383.736 1392.3 383.536 1391.38 383.536H1387.71V388.36H1391.46C1392.37 388.36 1393.06 388.144 1393.54 387.712C1394.04 387.28 1394.29 386.704 1394.29 385.984ZM1416.33 386.056C1416.33 387.032 1416.16 387.888 1415.81 388.624C1415.45 389.36 1414.97 389.976 1414.34 390.472C1413.73 390.968 1413.01 391.344 1412.18 391.6C1411.37 391.84 1410.49 391.96 1409.54 391.96H1406.73V397H1403.04V380.2H1409.9C1410.91 380.2 1411.81 380.344 1412.59 380.632C1413.39 380.904 1414.06 381.296 1414.61 381.808C1415.17 382.32 1415.59 382.936 1415.88 383.656C1416.18 384.36 1416.33 385.144 1416.33 386.008V386.056ZM1412.59 386.128V386.08C1412.59 385.248 1412.32 384.616 1411.77 384.184C1411.25 383.752 1410.52 383.536 1409.59 383.536H1406.73V388.672H1409.66C1410.59 388.672 1411.31 388.432 1411.82 387.952C1412.33 387.456 1412.59 386.848 1412.59 386.128ZM1437.86 388.6C1437.86 389.8 1437.64 390.928 1437.19 391.984C1436.74 393.024 1436.12 393.944 1435.32 394.744C1434.53 395.528 1433.59 396.152 1432.49 396.616C1431.4 397.064 1430.21 397.288 1428.91 397.288C1427.61 397.288 1426.42 397.064 1425.33 396.616C1424.25 396.152 1423.3 395.536 1422.5 394.768C1421.72 393.984 1421.1 393.072 1420.65 392.032C1420.22 390.976 1420.01 389.848 1420.01 388.648V388.6C1420.01 387.4 1420.23 386.28 1420.68 385.24C1421.13 384.184 1421.74 383.264 1422.53 382.48C1423.33 381.68 1424.27 381.056 1425.36 380.608C1426.46 380.144 1427.66 379.912 1428.96 379.912C1430.25 379.912 1431.45 380.144 1432.53 380.608C1433.62 381.056 1434.56 381.672 1435.34 382.456C1436.14 383.224 1436.76 384.136 1437.19 385.192C1437.64 386.232 1437.86 387.352 1437.86 388.552V388.6ZM1434 388.648V388.6C1434 387.88 1433.87 387.2 1433.61 386.56C1433.37 385.92 1433.02 385.36 1432.56 384.88C1432.11 384.4 1431.57 384.024 1430.95 383.752C1430.33 383.464 1429.65 383.32 1428.91 383.32C1428.16 383.32 1427.47 383.456 1426.85 383.728C1426.24 384 1425.71 384.376 1425.26 384.856C1424.83 385.336 1424.49 385.896 1424.23 386.536C1423.99 387.16 1423.87 387.832 1423.87 388.552V388.6C1423.87 389.32 1423.99 390 1424.23 390.64C1424.49 391.28 1424.84 391.84 1425.29 392.32C1425.75 392.8 1426.29 393.184 1426.89 393.472C1427.52 393.744 1428.21 393.88 1428.96 393.88C1429.69 393.88 1430.37 393.744 1431 393.472C1431.62 393.2 1432.15 392.824 1432.58 392.344C1433.03 391.864 1433.37 391.312 1433.61 390.688C1433.87 390.048 1434 389.368 1434 388.648ZM1457.34 397H1453.02L1449.42 391.624H1446.52V397H1442.82V380.2H1450.5C1452.5 380.2 1454.05 380.688 1455.16 381.664C1456.28 382.64 1456.84 384 1456.84 385.744V385.792C1456.84 387.152 1456.5 388.264 1455.83 389.128C1455.17 389.976 1454.31 390.6 1453.24 391L1457.34 397ZM1453.09 385.984V385.936C1453.09 385.136 1452.84 384.536 1452.32 384.136C1451.81 383.736 1451.1 383.536 1450.19 383.536H1446.52V388.36H1450.26C1451.17 388.36 1451.87 388.144 1452.35 387.712C1452.84 387.28 1453.09 386.704 1453.09 385.984ZM1478.21 397H1474.35L1472.81 393.232H1465.71L1464.17 397H1460.4L1467.6 380.08H1471.01L1478.21 397ZM1471.49 389.968L1469.26 384.52L1467.03 389.968H1471.49ZM1495.21 383.608H1490.09V397H1486.4V383.608H1481.29V380.2H1495.21V383.608ZM1512.52 397H1499.73V380.2H1512.4V383.488H1503.4V386.896H1511.32V390.184H1503.4V393.712H1512.52V397ZM1347.06 418.624C1346.2 419.36 1345.17 419.992 1343.97 420.52C1342.78 421.032 1341.42 421.288 1339.89 421.288C1338.58 421.288 1337.38 421.072 1336.29 420.64C1335.22 420.208 1334.29 419.608 1333.5 418.84C1332.74 418.072 1332.14 417.16 1331.7 416.104C1331.27 415.048 1331.06 413.896 1331.06 412.648V412.6C1331.06 411.4 1331.27 410.28 1331.7 409.24C1332.15 408.184 1332.77 407.264 1333.55 406.48C1334.34 405.68 1335.26 405.056 1336.34 404.608C1337.41 404.144 1338.58 403.912 1339.86 403.912C1340.62 403.912 1341.3 403.968 1341.9 404.08C1342.53 404.176 1343.1 404.32 1343.63 404.512C1344.16 404.704 1344.66 404.944 1345.12 405.232C1345.58 405.52 1346.03 405.848 1346.46 406.216L1344.14 409.024C1343.82 408.752 1343.5 408.512 1343.18 408.304C1342.86 408.096 1342.52 407.92 1342.17 407.776C1341.83 407.632 1341.46 407.52 1341.06 407.44C1340.66 407.36 1340.22 407.32 1339.74 407.32C1339.07 407.32 1338.44 407.464 1337.85 407.752C1337.27 408.024 1336.76 408.4 1336.31 408.88C1335.88 409.344 1335.54 409.896 1335.28 410.536C1335.04 411.16 1334.92 411.832 1334.92 412.552V412.6C1334.92 413.368 1335.04 414.08 1335.28 414.736C1335.54 415.376 1335.89 415.936 1336.34 416.416C1336.8 416.896 1337.34 417.272 1337.94 417.544C1338.57 417.8 1339.26 417.928 1340.01 417.928C1341.38 417.928 1342.54 417.592 1343.49 416.92V414.52H1339.77V411.328H1347.06V418.624ZM1369.41 412.6C1369.41 413.8 1369.19 414.928 1368.74 415.984C1368.29 417.024 1367.67 417.944 1366.87 418.744C1366.08 419.528 1365.14 420.152 1364.04 420.616C1362.95 421.064 1361.76 421.288 1360.46 421.288C1359.16 421.288 1357.97 421.064 1356.88 420.616C1355.8 420.152 1354.85 419.536 1354.05 418.768C1353.27 417.984 1352.65 417.072 1352.2 416.032C1351.77 414.976 1351.56 413.848 1351.56 412.648V412.6C1351.56 411.4 1351.78 410.28 1352.23 409.24C1352.68 408.184 1353.29 407.264 1354.08 406.48C1354.88 405.68 1355.82 405.056 1356.91 404.608C1358.01 404.144 1359.21 403.912 1360.51 403.912C1361.8 403.912 1363 404.144 1364.08 404.608C1365.17 405.056 1366.11 405.672 1366.89 406.456C1367.69 407.224 1368.31 408.136 1368.74 409.192C1369.19 410.232 1369.41 411.352 1369.41 412.552V412.6ZM1365.55 412.648V412.6C1365.55 411.88 1365.42 411.2 1365.16 410.56C1364.92 409.92 1364.57 409.36 1364.11 408.88C1363.66 408.4 1363.12 408.024 1362.5 407.752C1361.88 407.464 1361.2 407.32 1360.46 407.32C1359.71 407.32 1359.02 407.456 1358.4 407.728C1357.79 408 1357.26 408.376 1356.81 408.856C1356.38 409.336 1356.04 409.896 1355.78 410.536C1355.54 411.16 1355.42 411.832 1355.42 412.552V412.6C1355.42 413.32 1355.54 414 1355.78 414.64C1356.04 415.28 1356.39 415.84 1356.84 416.32C1357.3 416.8 1357.84 417.184 1358.44 417.472C1359.07 417.744 1359.76 417.88 1360.51 417.88C1361.24 417.88 1361.92 417.744 1362.55 417.472C1363.17 417.2 1363.7 416.824 1364.13 416.344C1364.58 415.864 1364.92 415.312 1365.16 414.688C1365.42 414.048 1365.55 413.368 1365.55 412.648ZM1389.78 404.2L1382.99 421.12H1379.72L1372.93 404.2H1377.01L1381.4 416.032L1385.79 404.2H1389.78ZM1406.84 421H1394.05V404.2H1406.72V407.488H1397.72V410.896H1405.64V414.184H1397.72V417.712H1406.84V421ZM1426.33 421H1422.01L1418.41 415.624H1415.5V421H1411.81V404.2H1419.49C1421.49 404.2 1423.04 404.688 1424.14 405.664C1425.26 406.64 1425.82 408 1425.82 409.744V409.792C1425.82 411.152 1425.49 412.264 1424.82 413.128C1424.16 413.976 1423.3 414.6 1422.22 415L1426.33 421ZM1422.08 409.984V409.936C1422.08 409.136 1421.82 408.536 1421.31 408.136C1420.8 407.736 1420.09 407.536 1419.18 407.536H1415.5V412.36H1419.25C1420.16 412.36 1420.86 412.144 1421.34 411.712C1421.83 411.28 1422.08 410.704 1422.08 409.984ZM1445.76 421H1442.62L1434.48 410.32V421H1430.83V404.2H1434.24L1442.11 414.544V404.2H1445.76V421ZM1467.84 421H1463.98L1462.44 417.232H1455.34L1453.8 421H1450.03L1457.23 404.08H1460.64L1467.84 421ZM1461.12 413.968L1458.89 408.52L1456.66 413.968H1461.12ZM1487.04 421H1483.9L1475.76 410.32V421H1472.11V404.2H1475.52L1483.39 414.544V404.2H1487.04V421ZM1507.52 418.288C1507.08 418.752 1506.64 419.168 1506.17 419.536C1505.71 419.904 1505.2 420.224 1504.64 420.496C1504.09 420.752 1503.49 420.944 1502.84 421.072C1502.18 421.216 1501.44 421.288 1500.63 421.288C1499.4 421.288 1498.25 421.064 1497.2 420.616C1496.14 420.168 1495.23 419.56 1494.46 418.792C1493.69 418.008 1493.09 417.088 1492.66 416.032C1492.23 414.976 1492.01 413.848 1492.01 412.648V412.6C1492.01 411.4 1492.23 410.28 1492.66 409.24C1493.09 408.184 1493.69 407.264 1494.46 406.48C1495.23 405.68 1496.15 405.056 1497.22 404.608C1498.29 404.144 1499.48 403.912 1500.77 403.912C1501.56 403.912 1502.27 403.976 1502.91 404.104C1503.56 404.232 1504.16 404.408 1504.68 404.632C1505.21 404.856 1505.7 405.128 1506.15 405.448C1506.6 405.768 1507.01 406.12 1507.4 406.504L1505.04 409.216C1504.39 408.624 1503.72 408.16 1503.03 407.824C1502.36 407.488 1501.6 407.32 1500.75 407.32C1500.04 407.32 1499.39 407.456 1498.78 407.728C1498.19 408 1497.68 408.376 1497.24 408.856C1496.81 409.336 1496.48 409.896 1496.24 410.536C1496 411.16 1495.88 411.832 1495.88 412.552V412.6C1495.88 413.32 1496 414 1496.24 414.64C1496.48 415.28 1496.8 415.84 1497.22 416.32C1497.65 416.8 1498.16 417.184 1498.76 417.472C1499.36 417.744 1500.03 417.88 1500.75 417.88C1501.71 417.88 1502.52 417.704 1503.17 417.352C1503.84 417 1504.51 416.52 1505.16 415.912L1507.52 418.288ZM1524.95 421H1512.15V404.2H1524.83V407.488H1515.83V410.896H1523.75V414.184H1515.83V417.712H1524.95V421Z" fill="white"/>
<path d="M1506.23 575.288C1505.8 575.752 1505.35 576.168 1504.89 576.536C1504.42 576.904 1503.91 577.224 1503.35 577.496C1502.81 577.752 1502.21 577.944 1501.55 578.072C1500.9 578.216 1500.16 578.288 1499.34 578.288C1498.11 578.288 1496.97 578.064 1495.91 577.616C1494.86 577.168 1493.94 576.56 1493.18 575.792C1492.41 575.008 1491.81 574.088 1491.38 573.032C1490.94 571.976 1490.73 570.848 1490.73 569.648V569.6C1490.73 568.4 1490.94 567.28 1491.38 566.24C1491.81 565.184 1492.41 564.264 1493.18 563.48C1493.94 562.68 1494.86 562.056 1495.94 561.608C1497.01 561.144 1498.19 560.912 1499.49 560.912C1500.27 560.912 1500.98 560.976 1501.62 561.104C1502.28 561.232 1502.87 561.408 1503.4 561.632C1503.93 561.856 1504.42 562.128 1504.86 562.448C1505.31 562.768 1505.73 563.12 1506.11 563.504L1503.76 566.216C1503.1 565.624 1502.43 565.16 1501.74 564.824C1501.07 564.488 1500.31 564.32 1499.46 564.32C1498.76 564.32 1498.1 564.456 1497.5 564.728C1496.9 565 1496.39 565.376 1495.96 565.856C1495.53 566.336 1495.19 566.896 1494.95 567.536C1494.71 568.16 1494.59 568.832 1494.59 569.552V569.6C1494.59 570.32 1494.71 571 1494.95 571.64C1495.19 572.28 1495.52 572.84 1495.94 573.32C1496.37 573.8 1496.88 574.184 1497.47 574.472C1498.08 574.744 1498.74 574.88 1499.46 574.88C1500.42 574.88 1501.23 574.704 1501.89 574.352C1502.56 574 1503.22 573.52 1503.88 572.912L1506.23 575.288ZM1531.1 569.6C1531.1 570.8 1530.88 571.928 1530.43 572.984C1529.98 574.024 1529.36 574.944 1528.56 575.744C1527.78 576.528 1526.83 577.152 1525.73 577.616C1524.64 578.064 1523.45 578.288 1522.15 578.288C1520.86 578.288 1519.66 578.064 1518.58 577.616C1517.49 577.152 1516.54 576.536 1515.74 575.768C1514.96 574.984 1514.34 574.072 1513.9 573.032C1513.46 571.976 1513.25 570.848 1513.25 569.648V569.6C1513.25 568.4 1513.47 567.28 1513.92 566.24C1514.37 565.184 1514.98 564.264 1515.77 563.48C1516.57 562.68 1517.51 562.056 1518.6 561.608C1519.7 561.144 1520.9 560.912 1522.2 560.912C1523.5 560.912 1524.69 561.144 1525.78 561.608C1526.86 562.056 1527.8 562.672 1528.58 563.456C1529.38 564.224 1530 565.136 1530.43 566.192C1530.88 567.232 1531.1 568.352 1531.1 569.552V569.6ZM1527.24 569.648V569.6C1527.24 568.88 1527.11 568.2 1526.86 567.56C1526.62 566.92 1526.26 566.36 1525.8 565.88C1525.35 565.4 1524.82 565.024 1524.19 564.752C1523.57 564.464 1522.89 564.32 1522.15 564.32C1521.4 564.32 1520.71 564.456 1520.09 564.728C1519.48 565 1518.95 565.376 1518.5 565.856C1518.07 566.336 1517.73 566.896 1517.47 567.536C1517.23 568.16 1517.11 568.832 1517.11 569.552V569.6C1517.11 570.32 1517.23 571 1517.47 571.64C1517.73 572.28 1518.08 572.84 1518.53 573.32C1518.99 573.8 1519.53 574.184 1520.14 574.472C1520.76 574.744 1521.45 574.88 1522.2 574.88C1522.94 574.88 1523.62 574.744 1524.24 574.472C1524.86 574.2 1525.39 573.824 1525.82 573.344C1526.27 572.864 1526.62 572.312 1526.86 571.688C1527.11 571.048 1527.24 570.368 1527.24 569.648ZM1555.98 578H1552.31V567.032L1547.58 574.208H1547.49L1542.81 567.104V578H1539.18V561.2H1543.17L1547.58 568.304L1552 561.2H1555.98V578ZM1581.62 578H1577.95V567.032L1573.22 574.208H1573.12L1568.44 567.104V578H1564.82V561.2H1568.8L1573.22 568.304L1577.63 561.2H1581.62V578ZM1604.83 570.68C1604.83 571.96 1604.65 573.072 1604.3 574.016C1603.97 574.96 1603.48 575.752 1602.84 576.392C1602.2 577.016 1601.42 577.488 1600.51 577.808C1599.6 578.112 1598.58 578.264 1597.46 578.264C1595.21 578.264 1593.43 577.64 1592.13 576.392C1590.84 575.144 1590.19 573.28 1590.19 570.8V561.2H1593.89V570.704C1593.89 572.08 1594.21 573.12 1594.85 573.824C1595.49 574.512 1596.37 574.856 1597.51 574.856C1598.65 574.856 1599.53 574.52 1600.17 573.848C1600.81 573.176 1601.13 572.168 1601.13 570.824V561.2H1604.83V570.68ZM1628.32 578H1625.18L1617.04 567.32V578H1613.39V561.2H1616.8L1624.67 571.544V561.2H1628.32V578ZM1641.02 578H1637.32V561.2H1641.02V578ZM1662.74 564.608H1657.63V578H1653.93V564.608H1648.82V561.2H1662.74V564.608ZM1685.26 561.2L1678.8 571.304V578H1675.11V571.376L1668.65 561.2H1672.97L1676.98 567.944L1681.06 561.2H1685.26Z" fill="white"/>
<defs>
<filter id="filter0_d_1690_17144" x="1064" y="0" width="722" height="644" filterUnits="userSpaceOnUse" color-interpolation-filters="sRGB">
<feFlood flood-opacity="0" result="BackgroundImageFix"/>
<feColorMatrix in="SourceAlpha" type="matrix" values="0 0 0 0 0 0 0 0 0 0 0 0 0 0 0 0 0 0 127 0" result="hardAlpha"/>
<feOffset dy="6"/>
<feGaussianBlur stdDeviation="15"/>
<feComposite in2="hardAlpha" operator="out"/>
<feColorMatrix type="matrix" values="0 0 0 0 0 0 0 0 0 0 0 0 0 0 0 0 0 0 0.2 0"/>
<feBlend mode="normal" in2="BackgroundImageFix" result="effect1_dropShadow_1690_17144"/>
<feBlend mode="normal" in="SourceGraphic" in2="effect1_dropShadow_1690_17144" result="shape"/>
</filter>
<radialGradient id="paint0_radial_1690_17144" cx="0" cy="0" r="1" gradientUnits="userSpaceOnUse" gradientTransform="translate(1476.36 431.259) rotate(180) scale(131.503 131.449)">
<stop stop-color="#666666"/>
<stop offset="0.11" stop-color="#8E8E8E"/>
<stop offset="0.22" stop-color="#B1B1B1"/>
<stop offset="0.34" stop-color="#CDCDCD"/>
<stop offset="0.47" stop-color="#E3E3E3"/>
<stop offset="0.61" stop-color="#F3F3F3"/>
<stop offset="0.77" stop-color="#FCFCFC"/>
<stop offset="1" stop-color="white"/>
</radialGradient>
<radialGradient id="paint1_radial_1690_17144" cx="0" cy="0" r="1" gradientUnits="userSpaceOnUse" gradientTransform="translate(1429.17 414.645) rotate(180) scale(131.503 131.449)">
<stop stop-color="#666666"/>
<stop offset="0.11" stop-color="#8E8E8E"/>
<stop offset="0.22" stop-color="#B1B1B1"/>
<stop offset="0.34" stop-color="#CDCDCD"/>
<stop offset="0.47" stop-color="#E3E3E3"/>
<stop offset="0.61" stop-color="#F3F3F3"/>
<stop offset="0.77" stop-color="#FCFCFC"/>
<stop offset="1" stop-color="white"/>
</radialGradient>
<radialGradient id="paint2_radial_1690_17144" cx="0" cy="0" r="1" gradientUnits="userSpaceOnUse" gradientTransform="translate(1387.95 435.241) rotate(180) scale(131.503 131.449)">
<stop stop-color="#666666"/>
<stop offset="0.11" stop-color="#8E8E8E"/>
<stop offset="0.22" stop-color="#B1B1B1"/>
<stop offset="0.34" stop-color="#CDCDCD"/>
<stop offset="0.47" stop-color="#E3E3E3"/>
<stop offset="0.61" stop-color="#F3F3F3"/>
<stop offset="0.77" stop-color="#FCFCFC"/>
<stop offset="1" stop-color="white"/>
</radialGradient>
<radialGradient id="paint3_radial_1690_17144" cx="0" cy="0" r="1" gradientUnits="userSpaceOnUse" gradientTransform="translate(1429.16 398.466) rotate(90) scale(100.019 100.037)">
<stop stop-color="#D5D5D5"/>
<stop offset="0.0001" stop-color="#89C1F1"/>
<stop offset="0.965" stop-color="#3D86C6"/>
</radialGradient>
</defs>
</svg>
