<svg width="772" height="644" viewBox="0 0 772 644" fill="none" xmlns="http://www.w3.org/2000/svg">
<path d="M180.585 518.056C180.585 519.032 180.409 519.888 180.057 520.624C179.705 521.36 179.217 521.976 178.593 522.472C177.985 522.968 177.265 523.344 176.433 523.6C175.617 523.84 174.737 523.96 173.793 523.96H170.985V529H167.289V512.2H174.153C175.161 512.2 176.057 512.344 176.841 512.632C177.641 512.904 178.313 513.296 178.857 513.808C179.417 514.32 179.841 514.936 180.129 515.656C180.433 516.36 180.585 517.144 180.585 518.008V518.056ZM176.841 518.128V518.08C176.841 517.248 176.569 516.616 176.025 516.184C175.497 515.752 174.769 515.536 173.841 515.536H170.985V520.672H173.913C174.841 520.672 175.561 520.432 176.073 519.952C176.585 519.456 176.841 518.848 176.841 518.128ZM200.193 529H188.121V512.2H191.817V525.64H200.193V529ZM224.148 529H220.284L218.748 525.232H211.644L210.108 529H206.34L213.54 512.08H216.948L224.148 529ZM217.428 521.968L215.196 516.52L212.964 521.968H217.428ZM246.469 529H243.325L235.189 518.32V529H231.541V512.2H234.949L242.821 522.544V512.2H246.469V529ZM268.094 529H255.302V512.2H267.974V515.488H258.974V518.896H266.894V522.184H258.974V525.712H268.094V529ZM288.9 515.608H283.788V529H280.092V515.608H274.98V512.2H288.9V515.608Z" fill="white"/>
<path d="M455.732 526.288C455.3 526.752 454.852 527.168 454.388 527.536C453.924 527.904 453.412 528.224 452.852 528.496C452.308 528.752 451.708 528.944 451.052 529.072C450.396 529.216 449.66 529.288 448.844 529.288C447.612 529.288 446.468 529.064 445.412 528.616C444.356 528.168 443.444 527.56 442.676 526.792C441.908 526.008 441.308 525.088 440.876 524.032C440.444 522.976 440.228 521.848 440.228 520.648V520.6C440.228 519.4 440.444 518.28 440.876 517.24C441.308 516.184 441.908 515.264 442.676 514.48C443.444 513.68 444.364 513.056 445.436 512.608C446.508 512.144 447.692 511.912 448.988 511.912C449.772 511.912 450.484 511.976 451.124 512.104C451.78 512.232 452.372 512.408 452.9 512.632C453.428 512.856 453.916 513.128 454.364 513.448C454.812 513.768 455.228 514.12 455.612 514.504L453.26 517.216C452.604 516.624 451.932 516.16 451.244 515.824C450.572 515.488 449.812 515.32 448.964 515.32C448.26 515.32 447.604 515.456 446.996 515.728C446.404 516 445.892 516.376 445.46 516.856C445.028 517.336 444.692 517.896 444.452 518.536C444.212 519.16 444.092 519.832 444.092 520.552V520.6C444.092 521.32 444.212 522 444.452 522.64C444.692 523.28 445.02 523.84 445.436 524.32C445.868 524.8 446.38 525.184 446.972 525.472C447.58 525.744 448.244 525.88 448.964 525.88C449.924 525.88 450.732 525.704 451.388 525.352C452.06 525 452.724 524.52 453.38 523.912L455.732 526.288ZM480.603 520.6C480.603 521.8 480.379 522.928 479.931 523.984C479.483 525.024 478.859 525.944 478.059 526.744C477.275 527.528 476.331 528.152 475.227 528.616C474.139 529.064 472.947 529.288 471.651 529.288C470.355 529.288 469.163 529.064 468.075 528.616C466.987 528.152 466.043 527.536 465.243 526.768C464.459 525.984 463.843 525.072 463.395 524.032C462.963 522.976 462.747 521.848 462.747 520.648V520.6C462.747 519.4 462.971 518.28 463.419 517.24C463.867 516.184 464.483 515.264 465.267 514.48C466.067 513.68 467.011 513.056 468.099 512.608C469.203 512.144 470.403 511.912 471.699 511.912C472.995 511.912 474.187 512.144 475.275 512.608C476.363 513.056 477.299 513.672 478.083 514.456C478.883 515.224 479.499 516.136 479.931 517.192C480.379 518.232 480.603 519.352 480.603 520.552V520.6ZM476.739 520.648V520.6C476.739 519.88 476.611 519.2 476.355 518.56C476.115 517.92 475.763 517.36 475.299 516.88C474.851 516.4 474.315 516.024 473.691 515.752C473.067 515.464 472.387 515.32 471.651 515.32C470.899 515.32 470.211 515.456 469.587 515.728C468.979 516 468.451 516.376 468.003 516.856C467.571 517.336 467.227 517.896 466.971 518.536C466.731 519.16 466.611 519.832 466.611 520.552V520.6C466.611 521.32 466.731 522 466.971 522.64C467.227 523.28 467.579 523.84 468.027 524.32C468.491 524.8 469.027 525.184 469.635 525.472C470.259 525.744 470.947 525.88 471.699 525.88C472.435 525.88 473.115 525.744 473.739 525.472C474.363 525.2 474.891 524.824 475.323 524.344C475.771 523.864 476.115 523.312 476.355 522.688C476.611 522.048 476.739 521.368 476.739 520.648ZM505.482 529H501.81V518.032L497.082 525.208H496.986L492.306 518.104V529H488.682V512.2H492.666L497.082 519.304L501.498 512.2H505.482V529ZM531.118 529H527.446V518.032L522.718 525.208H522.622L517.942 518.104V529H514.318V512.2H518.302L522.718 519.304L527.134 512.2H531.118V529ZM554.33 521.68C554.33 522.96 554.154 524.072 553.802 525.016C553.466 525.96 552.978 526.752 552.338 527.392C551.698 528.016 550.922 528.488 550.01 528.808C549.098 529.112 548.082 529.264 546.962 529.264C544.706 529.264 542.93 528.64 541.634 527.392C540.338 526.144 539.69 524.28 539.69 521.8V512.2H543.386V521.704C543.386 523.08 543.706 524.12 544.346 524.824C544.986 525.512 545.874 525.856 547.01 525.856C548.146 525.856 549.034 525.52 549.674 524.848C550.314 524.176 550.634 523.168 550.634 521.824V512.2H554.33V521.68ZM577.822 529H574.678L566.542 518.32V529H562.894V512.2H566.302L574.174 522.544V512.2H577.822V529ZM590.519 529H586.823V512.2H590.519V529ZM612.238 515.608H607.126V529H603.43V515.608H598.318V512.2H612.238V515.608ZM634.76 512.2L628.304 522.304V529H624.608V522.376L618.152 512.2H622.472L626.48 518.944L630.56 512.2H634.76Z" fill="white"/>
<g filter="url(#filter0_d_1690_17143)">
<path d="M393.965 43.0374C387.265 31.4245 375.93 25.0901 364.228 24.1721C362.071 23.9426 359.914 23.9426 357.757 24.1721C346.055 25.136 334.72 31.4704 328.066 43.0374L35.1604 550.93C27.3131 564.471 28.9193 579.847 36.583 591.246C37.8221 593.036 39.1988 594.781 40.7132 596.341C47.4591 603.41 56.9585 608 68.11 608L653.89 607.51C665.041 607.51 674.541 602.92 681.287 595.852C682.801 594.291 684.178 592.547 685.417 590.757C693.081 579.373 694.687 563.996 686.84 550.44L393.965 43.0374Z" fill="white"/>
</g>
<path d="M542.299 299.275L364.501 401.873L361.284 403.757L358.02 401.873L180.268 299.275L328.27 43.0535C334.934 31.4767 346.286 25.137 358.005 24.1723C360.165 23.9426 362.325 23.9426 364.485 24.1723C376.205 25.0911 387.557 31.4307 394.267 43.0535L542.284 299.259L542.299 299.275Z" fill="#AD3088"/>
<path d="M358.021 409.362V608.005H67.9603C56.7924 608.005 47.2789 603.411 40.523 596.336C39.0064 594.774 37.6276 593.029 36.3867 591.237C28.7116 579.844 27.1031 564.454 34.962 550.887L177.051 304.879L354.804 407.478L358.021 409.362Z" fill="#B0BC25"/>
<path d="M686.181 591.237C684.94 593.029 683.562 594.774 682.045 596.336C675.289 603.411 665.776 608.005 654.608 608.005H364.501V409.362L367.764 407.478L545.517 304.879L687.606 550.887C695.465 564.439 693.856 579.829 686.181 591.237Z" fill="#00B3BD"/>
<path style="mix-blend-mode:multiply" d="M412.359 562.708C484.986 562.708 543.862 503.857 543.862 431.259C543.862 358.662 484.986 299.811 412.359 299.811C339.731 299.811 280.855 358.662 280.855 431.259C280.855 503.857 339.731 562.708 412.359 562.708Z" fill="url(#paint0_radial_1690_17143)"/>
<path style="mix-blend-mode:multiply" d="M365.159 546.094C437.787 546.094 496.663 487.242 496.663 414.645C496.663 342.047 437.787 283.196 365.159 283.196C292.532 283.196 233.656 342.047 233.656 414.645C233.656 487.242 292.532 546.094 365.159 546.094Z" fill="url(#paint1_radial_1690_17143)"/>
<path style="mix-blend-mode:multiply" d="M323.949 566.69C396.577 566.69 455.453 507.838 455.453 435.241C455.453 362.644 396.577 303.792 323.949 303.792C251.322 303.792 192.446 362.644 192.446 435.241C192.446 507.838 251.322 566.69 323.949 566.69Z" fill="url(#paint2_radial_1690_17143)"/>
<path d="M435.921 469.19C431.861 473.248 427.464 476.954 422.761 480.277C406.523 491.716 386.73 498.454 365.359 498.484C344.157 498.515 323.245 491.747 306.149 479.236C301.982 476.188 298.075 472.835 294.429 469.19C290.125 464.887 286.203 460.186 282.741 455.163C277.654 447.798 273.549 439.712 270.577 431.106C267.053 420.877 265.123 409.897 265.123 398.474C265.123 389.546 266.287 380.909 268.478 372.671C272.369 358.062 279.477 344.77 289.006 333.607C290.737 331.585 292.545 329.625 294.414 327.742C298.06 324.097 301.967 320.744 306.134 317.696C323.245 305.185 344.157 298.402 365.344 298.447C386.714 298.478 406.507 305.216 422.746 316.655C427.449 319.963 431.861 323.684 435.906 327.742C437.79 329.625 439.598 331.57 441.313 333.607C450.842 344.77 457.95 358.062 461.842 372.671C464.032 380.894 465.197 389.546 465.197 398.474C465.197 409.897 463.282 420.877 459.743 431.106C456.771 439.727 452.65 447.798 447.564 455.163C444.102 460.186 440.18 464.887 435.875 469.19H435.921Z" fill="url(#paint3_radial_1690_17143)"/>
<g style="mix-blend-mode:overlay">
<path d="M361.092 145.334C351.883 145.334 344.479 152.924 344.479 162.368C344.479 171.811 351.883 179.401 361.092 179.401C370.301 179.401 377.705 171.811 377.705 162.368C377.705 152.924 370.301 145.334 361.092 145.334ZM361.092 183.496C349.682 183.496 340.474 174.061 340.474 162.36C340.474 150.658 349.682 141.223 361.092 141.223C372.502 141.223 381.711 150.658 381.711 162.36C381.711 174.061 372.502 183.496 361.092 183.496Z" fill="white"/>
<path d="M329.054 215.921H393.111C393.111 214.691 392.908 213.461 392.714 212.223C391.711 206.89 389.51 201.76 386.111 197.447C382.51 192.931 377.906 189.444 372.702 187.388C365.695 191.289 356.891 191.289 349.883 187.388C344.68 189.444 339.873 192.931 336.474 197.447C333.068 201.752 330.866 206.882 329.871 212.223C329.475 213.453 329.272 214.683 329.07 215.921M397.132 220.024H325.064V217.968C325.064 215.913 325.267 213.655 325.663 211.406C326.667 205.247 329.264 199.502 333.068 194.784C337.275 189.452 342.875 185.349 349.284 183.091L350.085 182.679L350.886 183.091C357.093 186.992 364.902 186.992 371.108 183.091L371.909 182.679L372.711 183.091C379.119 185.349 384.719 189.452 388.927 194.784C392.73 199.502 395.336 205.458 396.331 211.406C396.728 213.663 396.93 215.719 396.93 217.968V220.024H397.132Z" fill="white"/>
<path d="M416.538 151.484C409.134 151.484 403.122 157.642 403.122 165.232C403.122 172.823 409.126 178.981 416.538 178.981C423.95 178.981 429.947 172.823 429.947 165.232C429.947 157.642 423.942 151.484 416.538 151.484ZM416.538 183.084C406.933 183.084 399.124 175.08 399.124 165.232C399.124 155.384 406.933 147.381 416.538 147.381C426.143 147.381 433.952 155.384 433.952 165.232C433.952 175.08 426.143 183.084 416.538 183.084Z" fill="white"/>
<path d="M401.527 209.763H442.764C441.963 199.502 435.554 190.472 425.949 186.782C420.147 190.067 412.937 190.067 406.932 186.782C402.328 188.627 398.128 191.912 395.118 196.015C398.322 200.117 400.321 204.835 401.527 209.763ZM446.77 213.866H398.128L397.926 212.223C396.922 206.891 394.721 201.76 391.323 197.447L390.319 196.217L391.12 194.987C394.721 189.242 400.329 184.726 406.536 182.671L407.337 182.258L408.138 182.671C413.139 185.746 419.548 185.746 424.557 182.671L425.358 182.258L426.159 182.671C438.37 186.984 446.381 198.677 446.575 212.013L446.778 213.858L446.77 213.866Z" fill="white"/>
<path d="M305.637 151.484C298.233 151.484 292.22 157.642 292.22 165.232C292.22 172.823 298.224 178.981 305.637 178.981C313.049 178.981 319.045 172.823 319.045 165.232C319.045 157.642 313.041 151.484 305.637 151.484ZM305.637 183.084C296.032 183.084 288.223 175.08 288.223 165.232C288.223 155.384 296.032 147.381 305.637 147.381C315.242 147.381 323.051 155.384 323.051 165.232C323.051 175.08 315.242 183.084 305.637 183.084Z" fill="white"/>
<path d="M279.411 209.763H320.648C321.853 204.835 323.852 200.118 326.854 196.015C323.852 191.912 319.847 188.627 315.04 186.782C309.238 190.067 302.028 190.067 296.024 186.782C286.815 190.472 280.212 199.503 279.411 209.763ZM324.054 213.866H275.413V211.811C275.413 198.677 283.618 186.984 295.829 182.469L296.63 182.056L297.432 182.469C302.432 185.544 308.841 185.544 313.85 182.469L314.651 182.056L315.453 182.469C321.861 184.727 327.267 189.032 330.868 194.777L331.669 196.007L330.666 197.237C327.259 201.55 325.058 206.672 324.063 212.013V213.858L324.054 213.866Z" fill="white"/>
</g>
<g style="mix-blend-mode:overlay">
<mask id="mask0_1690_17143" style="mask-type:luminance" maskUnits="userSpaceOnUse" x="110" y="427" width="146" height="110">
<path d="M255.491 427.562H110.313V536.329H255.491V427.562Z" fill="white"/>
</mask>
<g mask="url(#mask0_1690_17143)">
<path d="M242.883 480.324C241.074 478.028 237.945 477.262 235.251 478.486L232.061 479.926C230.508 480.632 229.262 481.855 228.557 483.386C227.852 484.917 227.731 486.635 228.227 488.256L229.097 491.123C229.397 492.091 229.097 493.134 228.362 493.847L225.308 496.698C223.664 498.244 222.704 500.406 222.704 502.642V505.381C222.704 506.131 222.448 506.852 221.968 507.437L219.019 511.114C217.998 512.39 217.361 513.921 217.18 515.527C217.06 516.69 216.25 517.673 215.132 518.056L209.684 519.924C208.498 520.337 207.185 519.954 206.419 518.971L202.532 514.003C201.399 512.547 200.769 510.739 200.769 508.9V497.344C200.769 496.008 200.153 494.755 199.11 493.899C198.045 493.044 196.671 492.721 195.343 493.006L187.906 494.537C186.488 494.83 185.002 494.275 184.147 493.111L179.509 486.845C178.924 486.065 178.623 485.142 178.623 484.166V481.06C178.623 479.251 179.697 477.615 181.393 476.887L192.897 471.859C195.891 470.554 199.313 470.831 202.037 472.625C203.845 473.818 206.029 474.373 208.205 474.231L210.659 474.051C211.575 473.99 212.468 474.231 213.218 474.741L213.879 475.199C215.004 475.964 216.407 476.242 217.736 475.964C219.064 475.686 220.235 474.861 220.94 473.713C222.328 471.432 221.57 468.445 219.252 467.064L203.748 457.856C202.119 456.888 200.153 456.648 198.33 457.181L191.238 459.252H191.193C190.713 458.899 190.413 458.367 190.368 457.781C190.323 457.196 190.503 456.633 190.908 456.19L194.99 451.733C198.862 447.515 204.16 444.836 209.909 444.206L221.165 442.953C224.917 445.054 228.362 447.658 231.461 450.705C235.949 455.117 239.468 460.25 241.937 465.968C244.406 471.702 245.697 477.795 245.772 484.069L242.838 480.332H242.883V480.324ZM162.414 518.603C157.927 514.191 154.407 509.058 151.938 503.34C151.443 502.177 150.993 500.998 150.595 499.828L162.669 507.827C165.123 509.463 166.692 512.165 166.857 515.076L167.292 522.828C165.589 521.538 163.953 520.134 162.399 518.626L162.414 518.611V518.603ZM139.324 471.131C137.5 473.15 133.275 474.899 129.928 474.321C127.879 473.968 126.424 472.805 125.636 470.854C124.57 468.265 124.187 466.209 123.827 464.385C123.422 462.269 123.047 460.34 121.658 458.719C122.799 458.457 124.202 458.179 125.741 457.969C130.468 457.369 134.221 457.819 136.562 459.275C139.751 461.278 140.704 463.732 140.944 465.436C141.23 467.507 140.614 469.683 139.316 471.116L139.331 471.131H139.324ZM244.661 464.835C242.057 458.779 238.32 453.339 233.57 448.656C228.827 443.981 223.274 440.319 217.113 437.76C210.727 435.111 203.943 433.76 196.956 433.76C194.713 433.76 192.454 433.91 190.24 434.188C189.445 434.293 188.882 435.013 188.979 435.794C189.084 436.574 189.82 437.129 190.608 437.032C192.686 436.769 194.825 436.634 196.949 436.634C203.545 436.634 209.939 437.902 215.965 440.416C216.115 440.476 216.265 440.551 216.415 440.604L209.609 441.369C203.162 442.09 197.204 445.092 192.852 449.842L188.769 454.299C187.824 455.327 187.366 456.693 187.501 458.081C187.636 459.462 188.356 460.73 189.46 461.563C190.21 462.119 191.208 462.299 192.109 462.036L199.2 459.965C200.236 459.657 201.354 459.8 202.269 460.348L217.773 469.555C218.719 470.111 219.034 471.334 218.464 472.272C218.178 472.76 217.698 473.082 217.15 473.203C216.595 473.323 216.025 473.203 215.567 472.895L214.907 472.437C213.623 471.552 212.032 471.116 210.464 471.229L208.01 471.409C206.487 471.514 204.941 471.116 203.673 470.291C200.108 467.95 195.636 467.582 191.718 469.293L180.214 474.321C177.475 475.514 175.727 478.185 175.727 481.112V484.219C175.727 485.795 176.222 487.303 177.175 488.586L181.813 494.852C183.336 496.924 185.97 497.914 188.529 497.396L195.966 495.865C196.446 495.76 196.926 495.88 197.302 496.188C197.677 496.481 197.887 496.924 197.887 497.411V508.968C197.887 511.422 198.727 513.868 200.251 515.804L204.138 520.772C205.256 522.213 206.982 523.008 208.746 523.008C209.391 523.008 210.029 522.903 210.659 522.686L216.107 520.817C218.276 520.067 219.852 518.138 220.085 515.887C220.205 514.814 220.625 513.801 221.315 512.945L224.264 509.268C225.135 508.18 225.623 506.814 225.623 505.426V502.694C225.623 501.239 226.238 499.828 227.311 498.83L230.365 495.978C231.919 494.522 232.504 492.376 231.889 490.357L231.018 487.491C230.433 485.547 231.394 483.446 233.277 482.59L236.466 481.15C237.9 480.504 239.596 480.902 240.564 482.133L245.652 488.601C245.231 493.704 244.008 498.657 241.975 503.377C239.521 509.095 235.986 514.228 231.499 518.641C227.011 523.053 221.788 526.505 215.965 528.937C209.946 531.436 203.545 532.719 196.949 532.719C190.353 532.719 183.959 531.458 177.933 528.937C175.269 527.834 172.74 526.513 170.331 524.967L169.761 514.949C169.551 511.137 167.502 507.61 164.283 505.478L149.349 495.595C148.509 492.053 148.096 488.406 148.096 484.699C148.096 476.212 150.55 466.449 154.347 459.83C157.747 453.902 162.114 449.211 167.337 445.857C168.012 445.429 168.207 444.536 167.757 443.868C167.322 443.208 166.414 443.013 165.739 443.456C160.29 446.938 155.728 451.778 152.141 457.849C149.627 453.684 148.741 449.984 149.492 446.802C150.242 443.628 152.651 440.919 156.613 438.728C159.112 437.362 161.071 436.724 164.41 436.229C166.894 435.861 169.453 435.674 172.027 435.674H179.104C177.715 438.323 175.884 443.17 176.215 450.089C176.215 450.427 176.17 456.558 171.952 460.19C169.123 462.629 164.981 463.469 159.653 462.689C158.857 462.569 158.114 463.117 157.994 463.897C157.874 464.678 158.429 465.413 159.225 465.533C160.643 465.736 162.009 465.841 163.292 465.841C167.63 465.841 171.194 464.663 173.903 462.329C179.231 457.714 179.141 450.329 179.141 450.022V449.977C178.901 444.964 179.937 441.197 180.83 438.915C181.805 436.447 182.848 435.148 182.863 435.133C183.224 434.706 183.299 434.12 183.058 433.617C182.818 433.115 182.308 432.792 181.745 432.792H172.05C169.326 432.792 166.617 433.002 163.983 433.392C160.313 433.955 158.009 434.683 155.218 436.229C150.49 438.818 147.616 442.157 146.678 446.157C145.657 450.465 146.978 455.38 150.58 460.775C148.456 465.128 146.873 470.291 145.987 475.551C145.117 474.478 143.939 473.255 142.378 471.964C143.653 470.021 144.186 467.552 143.856 465.113C143.391 461.849 141.372 458.937 138.153 456.918C135.174 455.05 130.851 454.479 125.328 455.185C121.336 455.703 118.206 456.731 118.071 456.761C117.516 456.941 117.126 457.421 117.081 457.999C117.021 458.569 117.321 459.117 117.831 459.38C120.15 460.633 120.435 462.074 120.991 464.955C121.351 466.809 121.786 469.12 122.964 471.972C124.142 474.853 126.394 476.662 129.455 477.195C130.071 477.3 130.694 477.36 131.324 477.36C134.708 477.36 138.19 475.934 140.434 474.111C142.408 475.739 143.668 477.225 144.366 478.215C144.937 478.996 145.252 479.596 145.417 479.934C145.267 481.54 145.192 483.123 145.192 484.684C145.192 491.551 146.55 498.214 149.259 504.495C151.863 510.551 155.6 515.992 160.351 520.675C165.108 525.35 170.646 529.012 176.807 531.571C183.194 534.22 189.977 535.571 196.964 535.571C203.95 535.571 210.727 534.235 217.12 531.571C223.281 529.012 228.82 525.335 233.577 520.675C238.335 515.999 242.065 510.559 244.669 504.495C247.363 498.214 248.736 491.551 248.736 484.684C248.736 477.818 247.378 471.154 244.669 464.873V464.828L244.661 464.835Z" fill="white"/>
</g>
</g>
<g style="mix-blend-mode:overlay">
<mask id="mask1_1690_17143" style="mask-type:luminance" maskUnits="userSpaceOnUse" x="443" y="411" width="153" height="118">
<path d="M595.581 411.07H443.057V528.667H595.581V411.07Z" fill="white"/>
</mask>
<g mask="url(#mask1_1690_17143)">
<path d="M552.397 471.671V474.793H515.934V471.671C515.934 471.296 516.309 468.052 518.681 464.93C521.803 460.935 527.045 458.807 534.039 458.807C541.033 458.807 546.275 460.804 549.397 464.93C552.022 468.052 552.397 471.174 552.397 471.671ZM555.772 471.418C555.772 471.296 554.525 455.31 534.17 455.31C513.815 455.31 512.567 471.296 512.567 471.418V476.415C512.567 477.41 513.317 478.16 514.312 478.16H554.141C555.144 478.16 555.885 477.41 555.885 476.415L555.763 471.418H555.772Z" fill="white"/>
<path d="M525.675 440.075C525.675 434.58 529.547 430.211 534.169 430.211C538.792 430.211 542.664 434.58 542.664 440.075C542.664 445.569 538.792 449.938 534.169 449.938C529.547 449.938 525.675 445.569 525.675 440.075ZM534.169 453.558C540.789 453.558 546.283 447.566 546.283 440.075C546.283 432.583 540.911 426.592 534.169 426.592C527.428 426.592 522.056 432.583 522.056 440.075C522.056 447.566 527.55 453.558 534.169 453.558Z" fill="white"/>
<path d="M501.569 446.318C501.569 441.826 504.814 438.076 508.686 438.076C512.558 438.076 515.802 441.818 515.802 446.318C515.802 450.818 512.558 454.559 508.686 454.559C504.814 454.559 501.569 450.818 501.569 446.318ZM508.686 457.559C514.302 457.559 518.802 452.562 518.802 446.318C518.802 440.073 514.311 435.076 508.686 435.076C503.061 435.076 498.569 440.073 498.569 446.318C498.569 452.562 503.061 457.559 508.686 457.559Z" fill="white"/>
<path d="M553.645 446.318C553.645 441.826 556.889 438.076 560.761 438.076C564.633 438.076 567.878 441.818 567.878 446.318C567.878 450.818 564.633 454.559 560.761 454.559C556.889 454.559 553.645 450.818 553.645 446.318ZM560.761 457.559C566.378 457.559 570.878 452.562 570.878 446.318C570.878 440.073 566.386 435.076 560.761 435.076C555.136 435.076 550.645 440.073 550.645 446.318C550.645 452.562 555.267 457.559 560.761 457.559Z" fill="white"/>
<path d="M523.936 523.799C512.45 523.799 488.223 514.31 482.606 511.938V487.71L533.05 497.452C534.672 497.452 536.05 498.83 536.05 500.452C536.05 502.074 534.672 503.452 533.05 503.452H504.584C503.459 503.452 502.587 504.324 502.587 505.449C502.587 506.574 503.459 507.446 504.584 507.446H532.928C535.422 507.446 537.55 506.199 538.797 504.202C540.916 503.33 548.783 500.452 559.274 498.08C566.888 496.327 571.135 498.577 573.132 500.199C565.013 505.318 535.047 523.799 523.936 523.799ZM461.754 518.426V482.713H478.481V518.426H461.754ZM577.754 499.571C577.501 499.196 572.138 491.208 558.271 494.33C549.908 496.205 543.288 498.446 539.669 499.702C539.294 496.458 536.547 493.833 533.172 493.588L482.353 483.725V480.856C482.353 479.731 481.481 478.858 480.356 478.858H459.879C458.754 478.858 457.882 479.731 457.882 480.856V520.563C457.882 521.688 458.754 522.56 459.879 522.56H480.478C481.603 522.56 482.476 521.688 482.476 520.563V516.316C490.22 519.438 512.319 527.802 523.805 527.802C537.794 527.802 575.504 503.33 577.126 502.327C578.129 501.699 578.374 500.452 577.754 499.58" fill="white"/>
<path d="M578.613 472.543H578.866C578.866 472.421 577.863 459.061 560.761 459.061C557.142 459.061 554.264 459.688 552.022 460.561C552.772 461.311 553.522 462.061 554.02 462.933C556.017 462.305 558.267 461.93 560.761 461.93C566.63 461.93 571 463.683 573.625 467.049C575.622 469.674 575.875 472.291 575.997 472.666V475.291H557.517V477.288C557.517 477.663 557.395 477.916 557.264 478.16H577.366C578.116 478.16 578.744 477.532 578.744 476.66L578.866 472.535L578.613 472.543Z" fill="white"/>
<path d="M510.816 477.288V475.291H493.461V472.666C493.461 472.413 493.836 469.665 495.833 467.049C498.458 463.674 502.828 461.93 508.697 461.93C510.816 461.93 512.813 462.183 514.566 462.68C515.194 461.93 515.813 461.058 516.686 460.308C514.566 459.558 511.941 459.061 508.697 459.061C491.595 459.061 490.592 472.421 490.592 472.543V476.66C490.592 477.41 491.22 478.16 491.961 478.16H511.069C510.947 477.907 510.816 477.532 510.816 477.288Z" fill="white"/>
</g>
</g>
<path d="M314.078 241.056C314.078 242.032 313.902 242.888 313.55 243.624C313.198 244.36 312.71 244.976 312.086 245.472C311.478 245.968 310.758 246.344 309.926 246.6C309.11 246.84 308.23 246.96 307.286 246.96H304.478V252H300.782V235.2H307.646C308.654 235.2 309.55 235.344 310.334 235.632C311.134 235.904 311.806 236.296 312.35 236.808C312.91 237.32 313.334 237.936 313.622 238.656C313.926 239.36 314.078 240.144 314.078 241.008V241.056ZM310.334 241.128V241.08C310.334 240.248 310.062 239.616 309.518 239.184C308.99 238.752 308.262 238.536 307.334 238.536H304.478V243.672H307.406C308.334 243.672 309.054 243.432 309.566 242.952C310.078 242.456 310.334 241.848 310.334 241.128ZM334.405 252H321.613V235.2H334.285V238.488H325.285V241.896H333.205V245.184H325.285V248.712H334.405V252ZM359.603 243.6C359.603 244.8 359.379 245.928 358.931 246.984C358.483 248.024 357.859 248.944 357.059 249.744C356.275 250.528 355.331 251.152 354.227 251.616C353.139 252.064 351.947 252.288 350.651 252.288C349.355 252.288 348.163 252.064 347.075 251.616C345.987 251.152 345.043 250.536 344.243 249.768C343.459 248.984 342.843 248.072 342.395 247.032C341.963 245.976 341.747 244.848 341.747 243.648V243.6C341.747 242.4 341.971 241.28 342.419 240.24C342.867 239.184 343.483 238.264 344.267 237.48C345.067 236.68 346.011 236.056 347.099 235.608C348.203 235.144 349.403 234.912 350.699 234.912C351.995 234.912 353.187 235.144 354.275 235.608C355.363 236.056 356.299 236.672 357.083 237.456C357.883 238.224 358.499 239.136 358.931 240.192C359.379 241.232 359.603 242.352 359.603 243.552V243.6ZM355.739 243.648V243.6C355.739 242.88 355.611 242.2 355.355 241.56C355.115 240.92 354.763 240.36 354.299 239.88C353.851 239.4 353.315 239.024 352.691 238.752C352.067 238.464 351.387 238.32 350.651 238.32C349.899 238.32 349.211 238.456 348.587 238.728C347.979 239 347.451 239.376 347.003 239.856C346.571 240.336 346.227 240.896 345.971 241.536C345.731 242.16 345.611 242.832 345.611 243.552V243.6C345.611 244.32 345.731 245 345.971 245.64C346.227 246.28 346.579 246.84 347.027 247.32C347.491 247.8 348.027 248.184 348.635 248.472C349.259 248.744 349.947 248.88 350.699 248.88C351.435 248.88 352.115 248.744 352.739 248.472C353.363 248.2 353.891 247.824 354.323 247.344C354.771 246.864 355.115 246.312 355.355 245.688C355.611 245.048 355.739 244.368 355.739 243.648ZM380.978 241.056C380.978 242.032 380.802 242.888 380.45 243.624C380.098 244.36 379.61 244.976 378.986 245.472C378.378 245.968 377.658 246.344 376.826 246.6C376.01 246.84 375.13 246.96 374.186 246.96H371.378V252H367.682V235.2H374.546C375.554 235.2 376.45 235.344 377.234 235.632C378.034 235.904 378.706 236.296 379.25 236.808C379.81 237.32 380.234 237.936 380.522 238.656C380.826 239.36 380.978 240.144 380.978 241.008V241.056ZM377.234 241.128V241.08C377.234 240.248 376.962 239.616 376.418 239.184C375.89 238.752 375.162 238.536 374.234 238.536H371.378V243.672H374.306C375.234 243.672 375.954 243.432 376.466 242.952C376.978 242.456 377.234 241.848 377.234 241.128ZM400.585 252H388.513V235.2H392.209V248.64H400.585V252ZM420.964 252H408.172V235.2H420.844V238.488H411.844V241.896H419.764V245.184H411.844V248.712H420.964V252Z" fill="white"/>
<path d="M149.585 567.056C149.585 568.032 149.409 568.888 149.057 569.624C148.705 570.36 148.217 570.976 147.593 571.472C146.985 571.968 146.265 572.344 145.433 572.6C144.617 572.84 143.737 572.96 142.793 572.96H139.985V578H136.289V561.2H143.153C144.161 561.2 145.057 561.344 145.841 561.632C146.641 561.904 147.313 562.296 147.857 562.808C148.417 563.32 148.841 563.936 149.129 564.656C149.433 565.36 149.585 566.144 149.585 567.008V567.056ZM145.841 567.128V567.08C145.841 566.248 145.569 565.616 145.025 565.184C144.497 564.752 143.769 564.536 142.841 564.536H139.985V569.672H142.913C143.841 569.672 144.561 569.432 145.073 568.952C145.585 568.456 145.841 567.848 145.841 567.128ZM169.193 578H157.121V561.2H160.817V574.64H169.193V578ZM193.148 578H189.284L187.748 574.232H180.644L179.108 578H175.34L182.54 561.08H185.948L193.148 578ZM186.428 570.968L184.196 565.52L181.964 570.968H186.428ZM215.469 578H212.325L204.189 567.32V578H200.541V561.2H203.949L211.821 571.544V561.2H215.469V578ZM237.094 578H224.302V561.2H236.974V564.488H227.974V567.896H235.894V571.184H227.974V574.712H237.094V578ZM257.9 564.608H252.788V578H249.092V564.608H243.98V561.2H257.9V564.608Z" fill="white"/>
<path d="M293.306 394.288C292.874 394.752 292.426 395.168 291.962 395.536C291.498 395.904 290.986 396.224 290.426 396.496C289.882 396.752 289.282 396.944 288.626 397.072C287.97 397.216 287.234 397.288 286.418 397.288C285.186 397.288 284.042 397.064 282.986 396.616C281.93 396.168 281.018 395.56 280.25 394.792C279.482 394.008 278.882 393.088 278.45 392.032C278.018 390.976 277.802 389.848 277.802 388.648V388.6C277.802 387.4 278.018 386.28 278.45 385.24C278.882 384.184 279.482 383.264 280.25 382.48C281.018 381.68 281.938 381.056 283.01 380.608C284.082 380.144 285.266 379.912 286.562 379.912C287.346 379.912 288.058 379.976 288.698 380.104C289.354 380.232 289.946 380.408 290.474 380.632C291.002 380.856 291.49 381.128 291.938 381.448C292.386 381.768 292.802 382.12 293.186 382.504L290.834 385.216C290.178 384.624 289.506 384.16 288.818 383.824C288.146 383.488 287.386 383.32 286.538 383.32C285.834 383.32 285.178 383.456 284.57 383.728C283.978 384 283.466 384.376 283.034 384.856C282.602 385.336 282.266 385.896 282.026 386.536C281.786 387.16 281.666 387.832 281.666 388.552V388.6C281.666 389.32 281.786 390 282.026 390.64C282.266 391.28 282.594 391.84 283.01 392.32C283.442 392.8 283.954 393.184 284.546 393.472C285.154 393.744 285.818 393.88 286.538 393.88C287.498 393.88 288.306 393.704 288.962 393.352C289.634 393 290.298 392.52 290.954 391.912L293.306 394.288ZM315.057 388.6C315.057 389.8 314.833 390.928 314.385 391.984C313.937 393.024 313.313 393.944 312.513 394.744C311.729 395.528 310.785 396.152 309.681 396.616C308.593 397.064 307.401 397.288 306.105 397.288C304.809 397.288 303.617 397.064 302.529 396.616C301.441 396.152 300.497 395.536 299.697 394.768C298.913 393.984 298.297 393.072 297.849 392.032C297.417 390.976 297.201 389.848 297.201 388.648V388.6C297.201 387.4 297.425 386.28 297.873 385.24C298.321 384.184 298.937 383.264 299.721 382.48C300.521 381.68 301.465 381.056 302.553 380.608C303.657 380.144 304.857 379.912 306.153 379.912C307.449 379.912 308.641 380.144 309.729 380.608C310.817 381.056 311.753 381.672 312.537 382.456C313.337 383.224 313.953 384.136 314.385 385.192C314.833 386.232 315.057 387.352 315.057 388.552V388.6ZM311.193 388.648V388.6C311.193 387.88 311.065 387.2 310.809 386.56C310.569 385.92 310.217 385.36 309.753 384.88C309.305 384.4 308.769 384.024 308.145 383.752C307.521 383.464 306.841 383.32 306.105 383.32C305.353 383.32 304.665 383.456 304.041 383.728C303.433 384 302.905 384.376 302.457 384.856C302.025 385.336 301.681 385.896 301.425 386.536C301.185 387.16 301.065 387.832 301.065 388.552V388.6C301.065 389.32 301.185 390 301.425 390.64C301.681 391.28 302.033 391.84 302.481 392.32C302.945 392.8 303.481 393.184 304.089 393.472C304.713 393.744 305.401 393.88 306.153 393.88C306.889 393.88 307.569 393.744 308.193 393.472C308.817 393.2 309.345 392.824 309.777 392.344C310.225 391.864 310.569 391.312 310.809 390.688C311.065 390.048 311.193 389.368 311.193 388.648ZM334.535 397H330.215L326.615 391.624H323.711V397H320.015V380.2H327.695C329.695 380.2 331.247 380.688 332.351 381.664C333.471 382.64 334.031 384 334.031 385.744V385.792C334.031 387.152 333.695 388.264 333.023 389.128C332.367 389.976 331.503 390.6 330.431 391L334.535 397ZM330.287 385.984V385.936C330.287 385.136 330.031 384.536 329.519 384.136C329.007 383.736 328.295 383.536 327.383 383.536H323.711V388.36H327.455C328.367 388.36 329.063 388.144 329.543 387.712C330.039 387.28 330.287 386.704 330.287 385.984ZM352.335 386.056C352.335 387.032 352.159 387.888 351.807 388.624C351.455 389.36 350.967 389.976 350.343 390.472C349.735 390.968 349.015 391.344 348.183 391.6C347.367 391.84 346.487 391.96 345.543 391.96H342.735V397H339.039V380.2H345.903C346.911 380.2 347.807 380.344 348.591 380.632C349.391 380.904 350.063 381.296 350.607 381.808C351.167 382.32 351.591 382.936 351.879 383.656C352.183 384.36 352.335 385.144 352.335 386.008V386.056ZM348.591 386.128V386.08C348.591 385.248 348.319 384.616 347.775 384.184C347.247 383.752 346.519 383.536 345.591 383.536H342.735V388.672H345.663C346.591 388.672 347.311 388.432 347.823 387.952C348.335 387.456 348.591 386.848 348.591 386.128ZM373.862 388.6C373.862 389.8 373.638 390.928 373.19 391.984C372.742 393.024 372.118 393.944 371.318 394.744C370.534 395.528 369.59 396.152 368.486 396.616C367.398 397.064 366.206 397.288 364.91 397.288C363.614 397.288 362.422 397.064 361.334 396.616C360.246 396.152 359.302 395.536 358.502 394.768C357.718 393.984 357.102 393.072 356.654 392.032C356.222 390.976 356.006 389.848 356.006 388.648V388.6C356.006 387.4 356.23 386.28 356.678 385.24C357.126 384.184 357.742 383.264 358.526 382.48C359.326 381.68 360.27 381.056 361.358 380.608C362.462 380.144 363.662 379.912 364.958 379.912C366.254 379.912 367.446 380.144 368.534 380.608C369.622 381.056 370.558 381.672 371.342 382.456C372.142 383.224 372.758 384.136 373.19 385.192C373.638 386.232 373.862 387.352 373.862 388.552V388.6ZM369.998 388.648V388.6C369.998 387.88 369.87 387.2 369.614 386.56C369.374 385.92 369.022 385.36 368.558 384.88C368.11 384.4 367.574 384.024 366.95 383.752C366.326 383.464 365.646 383.32 364.91 383.32C364.158 383.32 363.47 383.456 362.846 383.728C362.238 384 361.71 384.376 361.262 384.856C360.83 385.336 360.486 385.896 360.23 386.536C359.99 387.16 359.87 387.832 359.87 388.552V388.6C359.87 389.32 359.99 390 360.23 390.64C360.486 391.28 360.838 391.84 361.286 392.32C361.75 392.8 362.286 393.184 362.894 393.472C363.518 393.744 364.206 393.88 364.958 393.88C365.694 393.88 366.374 393.744 366.998 393.472C367.622 393.2 368.15 392.824 368.582 392.344C369.03 391.864 369.374 391.312 369.614 390.688C369.87 390.048 369.998 389.368 369.998 388.648ZM393.341 397H389.021L385.421 391.624H382.517V397H378.821V380.2H386.501C388.501 380.2 390.053 380.688 391.157 381.664C392.277 382.64 392.837 384 392.837 385.744V385.792C392.837 387.152 392.501 388.264 391.829 389.128C391.173 389.976 390.309 390.6 389.237 391L393.341 397ZM389.093 385.984V385.936C389.093 385.136 388.837 384.536 388.325 384.136C387.813 383.736 387.101 383.536 386.189 383.536H382.517V388.36H386.261C387.173 388.36 387.869 388.144 388.349 387.712C388.845 387.28 389.093 386.704 389.093 385.984ZM414.213 397H410.349L408.813 393.232H401.709L400.173 397H396.405L403.605 380.08H407.013L414.213 397ZM407.493 389.968L405.261 384.52L403.029 389.968H407.493ZM431.206 383.608H426.094V397H422.398V383.608H417.286V380.2H431.206V383.608ZM448.52 397H435.728V380.2H448.4V383.488H439.4V386.896H447.32V390.184H439.4V393.712H448.52V397ZM283.064 418.624C282.2 419.36 281.168 419.992 279.968 420.52C278.784 421.032 277.424 421.288 275.888 421.288C274.576 421.288 273.376 421.072 272.288 420.64C271.216 420.208 270.288 419.608 269.504 418.84C268.736 418.072 268.136 417.16 267.704 416.104C267.272 415.048 267.056 413.896 267.056 412.648V412.6C267.056 411.4 267.272 410.28 267.704 409.24C268.152 408.184 268.768 407.264 269.552 406.48C270.336 405.68 271.264 405.056 272.336 404.608C273.408 404.144 274.584 403.912 275.864 403.912C276.616 403.912 277.296 403.968 277.904 404.08C278.528 404.176 279.104 404.32 279.632 404.512C280.16 404.704 280.656 404.944 281.12 405.232C281.584 405.52 282.032 405.848 282.464 406.216L280.136 409.024C279.816 408.752 279.496 408.512 279.176 408.304C278.856 408.096 278.52 407.92 278.168 407.776C277.832 407.632 277.464 407.52 277.064 407.44C276.664 407.36 276.224 407.32 275.744 407.32C275.072 407.32 274.44 407.464 273.848 407.752C273.272 408.024 272.76 408.4 272.312 408.88C271.88 409.344 271.536 409.896 271.28 410.536C271.04 411.16 270.92 411.832 270.92 412.552V412.6C270.92 413.368 271.04 414.08 271.28 414.736C271.536 415.376 271.888 415.936 272.336 416.416C272.8 416.896 273.336 417.272 273.944 417.544C274.568 417.8 275.256 417.928 276.008 417.928C277.384 417.928 278.544 417.592 279.488 416.92V414.52H275.768V411.328H283.064V418.624ZM305.412 412.6C305.412 413.8 305.188 414.928 304.74 415.984C304.292 417.024 303.668 417.944 302.868 418.744C302.084 419.528 301.14 420.152 300.036 420.616C298.948 421.064 297.756 421.288 296.46 421.288C295.164 421.288 293.972 421.064 292.884 420.616C291.796 420.152 290.852 419.536 290.052 418.768C289.268 417.984 288.652 417.072 288.204 416.032C287.772 414.976 287.556 413.848 287.556 412.648V412.6C287.556 411.4 287.78 410.28 288.228 409.24C288.676 408.184 289.292 407.264 290.076 406.48C290.876 405.68 291.82 405.056 292.908 404.608C294.012 404.144 295.212 403.912 296.508 403.912C297.804 403.912 298.996 404.144 300.084 404.608C301.172 405.056 302.108 405.672 302.892 406.456C303.692 407.224 304.308 408.136 304.74 409.192C305.188 410.232 305.412 411.352 305.412 412.552V412.6ZM301.548 412.648V412.6C301.548 411.88 301.42 411.2 301.164 410.56C300.924 409.92 300.572 409.36 300.108 408.88C299.66 408.4 299.124 408.024 298.5 407.752C297.876 407.464 297.196 407.32 296.46 407.32C295.708 407.32 295.02 407.456 294.396 407.728C293.788 408 293.26 408.376 292.812 408.856C292.38 409.336 292.036 409.896 291.78 410.536C291.54 411.16 291.42 411.832 291.42 412.552V412.6C291.42 413.32 291.54 414 291.78 414.64C292.036 415.28 292.388 415.84 292.836 416.32C293.3 416.8 293.836 417.184 294.444 417.472C295.068 417.744 295.756 417.88 296.508 417.88C297.244 417.88 297.924 417.744 298.548 417.472C299.172 417.2 299.7 416.824 300.132 416.344C300.58 415.864 300.924 415.312 301.164 414.688C301.42 414.048 301.548 413.368 301.548 412.648ZM325.779 404.2L318.987 421.12H315.723L308.931 404.2H313.011L317.403 416.032L321.795 404.2H325.779ZM342.843 421H330.051V404.2H342.723V407.488H333.723V410.896H341.643V414.184H333.723V417.712H342.843V421ZM362.329 421H358.009L354.409 415.624H351.505V421H347.809V404.2H355.489C357.489 404.2 359.041 404.688 360.145 405.664C361.265 406.64 361.825 408 361.825 409.744V409.792C361.825 411.152 361.489 412.264 360.817 413.128C360.161 413.976 359.297 414.6 358.225 415L362.329 421ZM358.081 409.984V409.936C358.081 409.136 357.825 408.536 357.313 408.136C356.801 407.736 356.089 407.536 355.177 407.536H351.505V412.36H355.249C356.161 412.36 356.857 412.144 357.337 411.712C357.833 411.28 358.081 410.704 358.081 409.984ZM381.761 421H378.617L370.481 410.32V421H366.833V404.2H370.241L378.113 414.544V404.2H381.761V421ZM403.842 421H399.978L398.442 417.232H391.338L389.802 421H386.034L393.234 404.08H396.642L403.842 421ZM397.122 413.968L394.89 408.52L392.658 413.968H397.122ZM423.042 421H419.898L411.762 410.32V421H408.114V404.2H411.522L419.394 414.544V404.2H423.042V421ZM443.515 418.288C443.083 418.752 442.635 419.168 442.171 419.536C441.707 419.904 441.195 420.224 440.635 420.496C440.091 420.752 439.491 420.944 438.835 421.072C438.179 421.216 437.443 421.288 436.627 421.288C435.395 421.288 434.251 421.064 433.195 420.616C432.139 420.168 431.227 419.56 430.459 418.792C429.691 418.008 429.091 417.088 428.659 416.032C428.227 414.976 428.011 413.848 428.011 412.648V412.6C428.011 411.4 428.227 410.28 428.659 409.24C429.091 408.184 429.691 407.264 430.459 406.48C431.227 405.68 432.147 405.056 433.219 404.608C434.291 404.144 435.475 403.912 436.771 403.912C437.555 403.912 438.267 403.976 438.907 404.104C439.563 404.232 440.155 404.408 440.683 404.632C441.211 404.856 441.699 405.128 442.147 405.448C442.595 405.768 443.011 406.12 443.395 406.504L441.043 409.216C440.387 408.624 439.715 408.16 439.027 407.824C438.355 407.488 437.595 407.32 436.747 407.32C436.043 407.32 435.387 407.456 434.779 407.728C434.187 408 433.675 408.376 433.243 408.856C432.811 409.336 432.475 409.896 432.235 410.536C431.995 411.16 431.875 411.832 431.875 412.552V412.6C431.875 413.32 431.995 414 432.235 414.64C432.475 415.28 432.803 415.84 433.219 416.32C433.651 416.8 434.163 417.184 434.755 417.472C435.363 417.744 436.027 417.88 436.747 417.88C437.707 417.88 438.515 417.704 439.171 417.352C439.843 417 440.507 416.52 441.163 415.912L443.515 418.288ZM460.946 421H448.154V404.2H460.826V407.488H451.826V410.896H459.746V414.184H451.826V417.712H460.946V421Z" fill="white"/>
<path d="M442.232 575.288C441.8 575.752 441.352 576.168 440.888 576.536C440.424 576.904 439.912 577.224 439.352 577.496C438.808 577.752 438.208 577.944 437.552 578.072C436.896 578.216 436.16 578.288 435.344 578.288C434.112 578.288 432.968 578.064 431.912 577.616C430.856 577.168 429.944 576.56 429.176 575.792C428.408 575.008 427.808 574.088 427.376 573.032C426.944 571.976 426.728 570.848 426.728 569.648V569.6C426.728 568.4 426.944 567.28 427.376 566.24C427.808 565.184 428.408 564.264 429.176 563.48C429.944 562.68 430.864 562.056 431.936 561.608C433.008 561.144 434.192 560.912 435.488 560.912C436.272 560.912 436.984 560.976 437.624 561.104C438.28 561.232 438.872 561.408 439.4 561.632C439.928 561.856 440.416 562.128 440.864 562.448C441.312 562.768 441.728 563.12 442.112 563.504L439.76 566.216C439.104 565.624 438.432 565.16 437.744 564.824C437.072 564.488 436.312 564.32 435.464 564.32C434.76 564.32 434.104 564.456 433.496 564.728C432.904 565 432.392 565.376 431.96 565.856C431.528 566.336 431.192 566.896 430.952 567.536C430.712 568.16 430.592 568.832 430.592 569.552V569.6C430.592 570.32 430.712 571 430.952 571.64C431.192 572.28 431.52 572.84 431.936 573.32C432.368 573.8 432.88 574.184 433.472 574.472C434.08 574.744 434.744 574.88 435.464 574.88C436.424 574.88 437.232 574.704 437.888 574.352C438.56 574 439.224 573.52 439.88 572.912L442.232 575.288ZM467.103 569.6C467.103 570.8 466.879 571.928 466.431 572.984C465.983 574.024 465.359 574.944 464.559 575.744C463.775 576.528 462.831 577.152 461.727 577.616C460.639 578.064 459.447 578.288 458.151 578.288C456.855 578.288 455.663 578.064 454.575 577.616C453.487 577.152 452.543 576.536 451.743 575.768C450.959 574.984 450.343 574.072 449.895 573.032C449.463 571.976 449.247 570.848 449.247 569.648V569.6C449.247 568.4 449.471 567.28 449.919 566.24C450.367 565.184 450.983 564.264 451.767 563.48C452.567 562.68 453.511 562.056 454.599 561.608C455.703 561.144 456.903 560.912 458.199 560.912C459.495 560.912 460.687 561.144 461.775 561.608C462.863 562.056 463.799 562.672 464.583 563.456C465.383 564.224 465.999 565.136 466.431 566.192C466.879 567.232 467.103 568.352 467.103 569.552V569.6ZM463.239 569.648V569.6C463.239 568.88 463.111 568.2 462.855 567.56C462.615 566.92 462.263 566.36 461.799 565.88C461.351 565.4 460.815 565.024 460.191 564.752C459.567 564.464 458.887 564.32 458.151 564.32C457.399 564.32 456.711 564.456 456.087 564.728C455.479 565 454.951 565.376 454.503 565.856C454.071 566.336 453.727 566.896 453.471 567.536C453.231 568.16 453.111 568.832 453.111 569.552V569.6C453.111 570.32 453.231 571 453.471 571.64C453.727 572.28 454.079 572.84 454.527 573.32C454.991 573.8 455.527 574.184 456.135 574.472C456.759 574.744 457.447 574.88 458.199 574.88C458.935 574.88 459.615 574.744 460.239 574.472C460.863 574.2 461.391 573.824 461.823 573.344C462.271 572.864 462.615 572.312 462.855 571.688C463.111 571.048 463.239 570.368 463.239 569.648ZM491.982 578H488.31V567.032L483.582 574.208H483.486L478.806 567.104V578H475.182V561.2H479.166L483.582 568.304L487.998 561.2H491.982V578ZM517.618 578H513.946V567.032L509.218 574.208H509.122L504.442 567.104V578H500.818V561.2H504.802L509.218 568.304L513.634 561.2H517.618V578ZM540.83 570.68C540.83 571.96 540.654 573.072 540.302 574.016C539.966 574.96 539.478 575.752 538.838 576.392C538.198 577.016 537.422 577.488 536.51 577.808C535.598 578.112 534.582 578.264 533.462 578.264C531.206 578.264 529.43 577.64 528.134 576.392C526.838 575.144 526.19 573.28 526.19 570.8V561.2H529.886V570.704C529.886 572.08 530.206 573.12 530.846 573.824C531.486 574.512 532.374 574.856 533.51 574.856C534.646 574.856 535.534 574.52 536.174 573.848C536.814 573.176 537.134 572.168 537.134 570.824V561.2H540.83V570.68ZM564.322 578H561.178L553.042 567.32V578H549.394V561.2H552.802L560.674 571.544V561.2H564.322V578ZM577.019 578H573.323V561.2H577.019V578ZM598.738 564.608H593.626V578H589.93V564.608H584.818V561.2H598.738V564.608ZM621.26 561.2L614.804 571.304V578H611.108V571.376L604.652 561.2H608.972L612.98 567.944L617.06 561.2H621.26Z" fill="white"/>
<defs>
<filter id="filter0_d_1690_17143" x="0" y="0" width="722" height="644" filterUnits="userSpaceOnUse" color-interpolation-filters="sRGB">
<feFlood flood-opacity="0" result="BackgroundImageFix"/>
<feColorMatrix in="SourceAlpha" type="matrix" values="0 0 0 0 0 0 0 0 0 0 0 0 0 0 0 0 0 0 127 0" result="hardAlpha"/>
<feOffset dy="6"/>
<feGaussianBlur stdDeviation="15"/>
<feComposite in2="hardAlpha" operator="out"/>
<feColorMatrix type="matrix" values="0 0 0 0 0 0 0 0 0 0 0 0 0 0 0 0 0 0 0.2 0"/>
<feBlend mode="normal" in2="BackgroundImageFix" result="effect1_dropShadow_1690_17143"/>
<feBlend mode="normal" in="SourceGraphic" in2="effect1_dropShadow_1690_17143" result="shape"/>
</filter>
<radialGradient id="paint0_radial_1690_17143" cx="0" cy="0" r="1" gradientUnits="userSpaceOnUse" gradientTransform="translate(412.359 431.259) rotate(180) scale(131.503 131.449)">
<stop stop-color="#666666"/>
<stop offset="0.11" stop-color="#8E8E8E"/>
<stop offset="0.22" stop-color="#B1B1B1"/>
<stop offset="0.34" stop-color="#CDCDCD"/>
<stop offset="0.47" stop-color="#E3E3E3"/>
<stop offset="0.61" stop-color="#F3F3F3"/>
<stop offset="0.77" stop-color="#FCFCFC"/>
<stop offset="1" stop-color="white"/>
</radialGradient>
<radialGradient id="paint1_radial_1690_17143" cx="0" cy="0" r="1" gradientUnits="userSpaceOnUse" gradientTransform="translate(365.175 414.645) rotate(180) scale(131.503 131.449)">
<stop stop-color="#666666"/>
<stop offset="0.11" stop-color="#8E8E8E"/>
<stop offset="0.22" stop-color="#B1B1B1"/>
<stop offset="0.34" stop-color="#CDCDCD"/>
<stop offset="0.47" stop-color="#E3E3E3"/>
<stop offset="0.61" stop-color="#F3F3F3"/>
<stop offset="0.77" stop-color="#FCFCFC"/>
<stop offset="1" stop-color="white"/>
</radialGradient>
<radialGradient id="paint2_radial_1690_17143" cx="0" cy="0" r="1" gradientUnits="userSpaceOnUse" gradientTransform="translate(323.949 435.241) rotate(180) scale(131.503 131.449)">
<stop stop-color="#666666"/>
<stop offset="0.11" stop-color="#8E8E8E"/>
<stop offset="0.22" stop-color="#B1B1B1"/>
<stop offset="0.34" stop-color="#CDCDCD"/>
<stop offset="0.47" stop-color="#E3E3E3"/>
<stop offset="0.61" stop-color="#F3F3F3"/>
<stop offset="0.77" stop-color="#FCFCFC"/>
<stop offset="1" stop-color="white"/>
</radialGradient>
<radialGradient id="paint3_radial_1690_17143" cx="0" cy="0" r="1" gradientUnits="userSpaceOnUse" gradientTransform="translate(365.16 398.466) rotate(90) scale(100.019 100.037)">
<stop stop-color="#D5D5D5"/>
<stop offset="0.0001" stop-color="#89C1F1"/>
<stop offset="0.965" stop-color="#3D86C6"/>
</radialGradient>
</defs>
</svg>
